solid Visualization Toolkit generated SLA File
 facet normal -0.82280073019179067 0.56061267904520007 0.093340144041132181
  outer loop
   vertex -0.0090079996734857559 0.097740001976490021 -0.00012799999967683107
   vertex -0.0025009999517351389 0.10667599737644196 0.0035610001068562269
   vertex -0.0030980000738054514 0.10641399770975113 -0.00012799999967683107
  endloop
 endfacet
 facet normal -0.12340694059103874 0.4541193339723556 -0.88235273985320861
  outer loop
   vertex -0.0090079996734857559 0.097740001976490021 -0.00012799999967683107
   vertex -0.0099390000104904175 0.097487002611160278 -0.00012799999967683107
   vertex -0.0025009999517351389 0.10667599737644196 0.0035610001068562269
  endloop
 endfacet
 facet normal -0.82280072990901443 0.56061267885253141 -0.093340147691021169
  outer loop
   vertex -0.0090079996734857559 0.097740001976490021 -0.00012799999967683107
   vertex -0.0030980000738054514 0.10641399770975113 -0.00012799999967683107
   vertex -0.0025009999517351389 0.10667599737644196 -0.0038169999606907368
  endloop
 endfacet
 facet normal -0.12340693680107062 0.45411932002583211 0.88235274756111715
  outer loop
   vertex -0.0090079996734857559 0.097740001976490021 -0.00012799999967683107
   vertex -0.0025009999517351389 0.10667599737644196 -0.0038169999606907368
   vertex -0.0099390000104904175 0.097487002611160278 -0.00012799999967683107
  endloop
 endfacet
 facet normal 0.99606657027571732 -0.087459416955365951 0.014221039518859313
  outer loop
   vertex -0.0045219999738037586 0.090511001646518707 0.0018080000299960375
   vertex -0.0030980000738054514 0.10641399770975113 -0.00012799999967683107
   vertex -0.0031789999920874834 0.10571800172328949 0.0012649999698624015
  endloop
 endfacet
 facet normal 0.99601032908492193 -0.089237021992299381 -0.00042221095629334422
  outer loop
   vertex -0.0045230002142488956 0.090508997440338135 -0.00012799999967683107
   vertex -0.0030980000738054514 0.10641399770975113 -0.00012799999967683107
   vertex -0.0045219999738037586 0.090511001646518707 0.0018080000299960375
  endloop
 endfacet
 facet normal 0.92581639948101691 -0.35688742002487761 -0.12448037548141022
  outer loop
   vertex -0.0030980000738054514 0.10641399770975113 -0.00012799999967683107
   vertex -0.0025009999517351389 0.10667599737644196 0.0035610001068562269
   vertex -0.0031789999920874834 0.10571800172328949 0.0012649999698624015
  endloop
 endfacet
 facet normal 0.99606660887047216 -0.087460742749047096 -0.014210178431778003
  outer loop
   vertex -0.0030980000738054514 0.10641399770975113 -0.00012799999967683107
   vertex -0.0045219999738037586 0.090511001646518707 -0.0020639998838305473
   vertex -0.0031789999920874834 0.10571800172328949 -0.0015219999477267265
  endloop
 endfacet
 facet normal 0.9960103290849085 -0.089237021992298174 0.00042221098802876423
  outer loop
   vertex -0.0030980000738054514 0.10641399770975113 -0.00012799999967683107
   vertex -0.0045230002142488956 0.090508997440338135 -0.00012799999967683107
   vertex -0.0045219999738037586 0.090511001646518707 -0.0020639998838305473
  endloop
 endfacet
 facet normal 0.92576593592578948 -0.35702454283835477 0.12446247502966809
  outer loop
   vertex -0.0025009999517351389 0.10667599737644196 -0.0038169999606907368
   vertex -0.0030980000738054514 0.10641399770975113 -0.00012799999967683107
   vertex -0.0031789999920874834 0.10571800172328949 -0.0015219999477267265
  endloop
 endfacet
 facet normal -0.35563025433400081 0.8952252251871059 -0.26851241757324673
  outer loop
   vertex 0.0021130000241100788 0.11055599898099899 0.010386000387370586
   vertex -0.0031789999920874834 0.10571800172328949 0.0012649999698624015
   vertex -0.0025009999517351389 0.10667599737644196 0.0035610001068562269
  endloop
 endfacet
 facet normal -0.37414223353186693 0.89188144924680668 -0.25409657529609053
  outer loop
   vertex 0.0021130000241100788 0.11055599898099899 0.010386000387370586
   vertex -0.0025009999517351389 0.10667599737644196 0.0035610001068562269
   vertex -0.0034429999068379402 0.10647000372409821 0.0042249998077750206
  endloop
 endfacet
 facet normal -0.83333760162481019 0.51697142442314614 0.19567572166242897
  outer loop
   vertex -0.0025009999517351389 0.10667599737644196 0.0035610001068562269
   vertex -0.010909000411629677 0.092771001160144806 0.0044900001958012581
   vertex -0.004757000133395195 0.10057800263166428 0.010064000263810158
  endloop
 endfacet
 facet normal -0.36004381815872366 -0.61495930680685862 -0.70156503617078569
  outer loop
   vertex -0.004757000133395195 0.10057800263166428 0.010064000263810158
   vertex -0.0034429999068379402 0.10647000372409821 0.0042249998077750206
   vertex -0.0025009999517351389 0.10667599737644196 0.0035610001068562269
  endloop
 endfacet
 facet normal -0.08627775840989417 0.52233765925462217 0.84836284579663568
  outer loop
   vertex -0.0099390000104904175 0.097487002611160278 -0.00012799999967683107
   vertex -0.022019999101758003 0.090402998030185699 0.0030050000641494989
   vertex -0.016433000564575195 0.091013997793197632 0.0031969998963177204
  endloop
 endfacet
 facet normal -0.36559790458898633 0.6885119041603821 0.62633020842810017
  outer loop
   vertex -0.010909000411629677 0.092771001160144806 0.0044900001958012581
   vertex -0.0099390000104904175 0.097487002611160278 -0.00012799999967683107
   vertex -0.016433000564575195 0.091013997793197632 0.0031969998963177204
  endloop
 endfacet
 facet normal -0.10958072761483394 0.830294425884752 -0.54644599960116236
  outer loop
   vertex -0.022314999252557755 0.092426002025604248 -0.00012799999967683107
   vertex -0.016433000564575195 0.091013997793197632 -0.0034529999829828739
   vertex -0.022019999101758003 0.090402998030185699 -0.0032609999179840088
  endloop
 endfacet
 facet normal -0.36559785728932553 0.68851188829595333 -0.62633025347702509
  outer loop
   vertex -0.0099390000104904175 0.097487002611160278 -0.00012799999967683107
   vertex -0.010909000411629677 0.092771001160144806 -0.0047459998168051243
   vertex -0.016433000564575195 0.091013997793197632 -0.0034529999829828739
  endloop
 endfacet
 facet normal -0.84139317793980928 0.45642094427287749 -0.28937422439706573
  outer loop
   vertex -0.0099390000104904175 0.097487002611160278 -0.00012799999967683107
   vertex -0.004757000133395195 0.10057800263166428 -0.010320000350475311
   vertex -0.010909000411629677 0.092771001160144806 -0.0047459998168051243
  endloop
 endfacet
 facet normal -0.35534188598088828 0.89527306615812985 0.26873459226412633
  outer loop
   vertex -0.0031789999920874834 0.10571800172328949 -0.0015219999477267265
   vertex 0.0021130000241100788 0.11055599898099899 -0.010641999542713165
   vertex -0.0025009999517351389 0.10667599737644196 -0.0038169999606907368
  endloop
 endfacet
 facet normal -0.37431107966095878 0.89184845003467428 0.25396369388910034
  outer loop
   vertex -0.0025009999517351389 0.10667599737644196 -0.0038169999606907368
   vertex 0.0021130000241100788 0.11055599898099899 -0.010641999542713165
   vertex -0.0034429999068379402 0.10647000372409821 -0.0044820001348853111
  endloop
 endfacet
 facet normal -0.36081560557042103 -0.61459313985762209 0.70148939494250351
  outer loop
   vertex -0.0034429999068379402 0.10647000372409821 -0.0044820001348853111
   vertex -0.004757000133395195 0.10057800263166428 -0.010320000350475311
   vertex -0.0025009999517351389 0.10667599737644196 -0.0038169999606907368
  endloop
 endfacet
 facet normal 0.83281266681452715 -0.093034271808570559 -0.54568093815188778
  outer loop
   vertex 0.00044500001240521669 0.096414998173713684 0.0083820000290870667
   vertex -0.0045219999738037586 0.090511001646518707 0.0018080000299960375
   vertex -0.0031789999920874834 0.10571800172328949 0.0012649999698624015
  endloop
 endfacet
 facet normal 0.52075127160081525 -0.79225063932604967 0.3180519416912902
  outer loop
   vertex 0.00044500001240521669 0.096414998173713684 0.0083820000290870667
   vertex -0.010386000387370586 0.088215000927448273 0.005690000019967556
   vertex -0.0045219999738037586 0.090511001646518707 0.0018080000299960375
  endloop
 endfacet
 facet normal 0.36503582832155906 -0.93099314880048389 0.00077519555810072189
  outer loop
   vertex -0.010386000387370586 0.088215000927448273 0.005690000019967556
   vertex -0.0045230002142488956 0.090508997440338135 -0.00012799999967683107
   vertex -0.0045219999738037586 0.090511001646518707 0.0018080000299960375
  endloop
 endfacet
 facet normal 0.87211979564374131 -0.033695031792886299 -0.4881308296745816
  outer loop
   vertex 0.0021130000241100788 0.11055599898099899 0.010386000387370586
   vertex 0.00044500001240521669 0.096414998173713684 0.0083820000290870667
   vertex -0.0031789999920874834 0.10571800172328949 0.0012649999698624015
  endloop
 endfacet
 facet normal 0.36511707886169692 -0.93096128701008485 -0.0007751206537223367
  outer loop
   vertex -0.01039000041782856 0.088207997381687164 -0.00012799999967683107
   vertex -0.0045219999738037586 0.090511001646518707 -0.0020639998838305473
   vertex -0.0045230002142488956 0.090508997440338135 -0.00012799999967683107
  endloop
 endfacet
 facet normal 0.8720953855214405 -0.033685915296565547 0.48817506866168714
  outer loop
   vertex 0.00044500001240521669 0.096414998173713684 -0.0086380001157522202
   vertex 0.0021130000241100788 0.11055599898099899 -0.010641999542713165
   vertex -0.0031789999920874834 0.10571800172328949 -0.0015219999477267265
  endloop
 endfacet
 facet normal 0.83280117626649963 -0.092998213123303392 0.54570462080232307
  outer loop
   vertex -0.0045219999738037586 0.090511001646518707 -0.0020639998838305473
   vertex 0.00044500001240521669 0.096414998173713684 -0.0086380001157522202
   vertex -0.0031789999920874834 0.10571800172328949 -0.0015219999477267265
  endloop
 endfacet
 facet normal 0.50595938147716946 -0.81508753041767401 -0.28220103127532559
  outer loop
   vertex -0.0055149998515844345 0.092886999249458313 -0.010707000270485878
   vertex -0.0045219999738037586 0.090511001646518707 -0.0020639998838305473
   vertex -0.010386000387370586 0.088215000927448273 -0.0059460001066327095
  endloop
 endfacet
 facet normal 0.67547828921289044 0.73725884345593184 0.013359586372658775
  outer loop
   vertex 0.0072470000013709068 0.10585100203752518 0.010452999733388424
   vertex 0.0021130000241100788 0.11055599898099899 0.010386000387370586
   vertex 0.0057979999110102654 0.10715600103139877 0.011699000373482704
  endloop
 endfacet
 facet normal -0.81531065043330009 0.55615393677040359 0.16112523670986861
  outer loop
   vertex 0.0021130000241100788 0.11055599898099899 0.010386000387370586
   vertex -0.004757000133395195 0.10057800263166428 0.010064000263810158
   vertex 0.00087599997641518712 0.10610300302505493 0.019496999680995941
  endloop
 endfacet
 facet normal 0.52452904172662007 0.73466165105798509 0.43028077211294119
  outer loop
   vertex 0.0021130000241100788 0.11055599898099899 0.010386000387370586
   vertex 0.00087599997641518712 0.10610300302505493 0.019496999680995941
   vertex 0.0057979999110102654 0.10715600103139877 0.011699000373482704
  endloop
 endfacet
 facet normal -0.73131924959472894 0.093976236409705011 0.67552988250888635
  outer loop
   vertex -0.010909000411629677 0.092771001160144806 0.0044900001958012581
   vertex -0.010386000387370586 0.088215000927448273 0.005690000019967556
   vertex -0.004757000133395195 0.10057800263166428 0.010064000263810158
  endloop
 endfacet
 facet normal -0.74540205814587102 0.10657597455846711 0.65804052562043058
  outer loop
   vertex -0.004757000133395195 0.10057800263166428 0.010064000263810158
   vertex -0.010386000387370586 0.088215000927448273 0.005690000019967556
   vertex -0.0055149998515844345 0.092886999249458313 0.010451000183820724
  endloop
 endfacet
 facet normal -0.88039235544935535 0.10998133414614217 0.4613170348098698
  outer loop
   vertex -0.004757000133395195 0.10057800263166428 0.010064000263810158
   vertex -0.0055149998515844345 0.092886999249458313 0.010451000183820724
   vertex 0.00087599997641518712 0.10610300302505493 0.019496999680995941
  endloop
 endfacet
 facet normal -0.28151550112678253 0.19342817956501951 0.93985879895625768
  outer loop
   vertex -0.016433000564575195 0.091013997793197632 0.0031969998963177204
   vertex -0.012942000292241573 0.087820000946521759 0.0049000000581145287
   vertex -0.010909000411629677 0.092771001160144806 0.0044900001958012581
  endloop
 endfacet
 facet normal -0.21812572243128933 0.28970424959919822 0.93192951288066506
  outer loop
   vertex -0.016433000564575195 0.091013997793197632 0.0031969998963177204
   vertex -0.022441999986767769 0.081850998103618622 0.004639000166207552
   vertex -0.018828999251127243 0.084165997803211212 0.004765000194311142
  endloop
 endfacet
 facet normal -0.054464589238554538 0.18998523033547274 0.98027507403455527
  outer loop
   vertex -0.022019999101758003 0.090402998030185699 0.0030050000641494989
   vertex -0.022441999986767769 0.081850998103618622 0.004639000166207552
   vertex -0.016433000564575195 0.091013997793197632 0.0031969998963177204
  endloop
 endfacet
 facet normal -0.46186619576640658 0.72466453264898678 0.51141072762398432
  outer loop
   vertex -0.022314999252557755 0.092426002025604248 -0.00012799999967683107
   vertex -0.02747499942779541 0.086451999843120575 0.0036770000588148832
   vertex -0.022019999101758003 0.090402998030185699 0.0030050000641494989
  endloop
 endfacet
 facet normal -0.015476819128403801 0.18838581167703425 0.98197314323175444
  outer loop
   vertex -0.022441999986767769 0.081850998103618622 0.004639000166207552
   vertex -0.022019999101758003 0.090402998030185699 0.0030050000641494989
   vertex -0.02747499942779541 0.086451999843120575 0.0036770000588148832
  endloop
 endfacet
 facet normal -0.36446649282467447 0.62119952133540446 -0.69374010284885934
  outer loop
   vertex -0.027300000190734863 0.090804003179073334 -0.00012799999967683107
   vertex -0.022019999101758003 0.090402998030185699 -0.0032609999179840088
   vertex -0.02747499942779541 0.086451999843120575 -0.0039329999126493931
  endloop
 endfacet
 facet normal -0.054476003288213115 0.19009618595221695 -0.98025292917295725
  outer loop
   vertex -0.022441999986767769 0.081850998103618622 -0.0048960000276565552
   vertex -0.022019999101758003 0.090402998030185699 -0.0032609999179840088
   vertex -0.016433000564575195 0.091013997793197632 -0.0034529999829828739
  endloop
 endfacet
 facet normal -0.015562697907281329 0.18850041007154839 -0.98194979394911264
  outer loop
   vertex -0.022019999101758003 0.090402998030185699 -0.0032609999179840088
   vertex -0.022441999986767769 0.081850998103618622 -0.0048960000276565552
   vertex -0.02747499942779541 0.086451999843120575 -0.0039329999126493931
  endloop
 endfacet
 facet normal -0.21781625461649384 0.28961857810835162 -0.93202851803973208
  outer loop
   vertex -0.022441999986767769 0.081850998103618622 -0.0048960000276565552
   vertex -0.016433000564575195 0.091013997793197632 -0.0034529999829828739
   vertex -0.018828999251127243 0.084165997803211212 -0.0050209998153150082
  endloop
 endfacet
 facet normal -0.098520435160479258 0.12223950814485858 -0.98759871734641924
  outer loop
   vertex -0.018828999251127243 0.084165997803211212 -0.0050209998153150082
   vertex -0.010909000411629677 0.092771001160144806 -0.0047459998168051243
   vertex -0.012942000292241573 0.087820000946521759 -0.0051560001447796822
  endloop
 endfacet
 facet normal -0.25772890283949762 -0.21585877624588803 -0.94179658173024616
  outer loop
   vertex -0.012942000292241573 0.087820000946521759 -0.0051560001447796822
   vertex -0.004757000133395195 0.10057800263166428 -0.010320000350475311
   vertex -0.010386000387370586 0.088215000927448273 -0.0059460001066327095
  endloop
 endfacet
 facet normal -0.85973586642129196 0.44321234860356007 -0.25380514973921819
  outer loop
   vertex -0.0034429999068379402 0.10647000372409821 -0.0044820001348853111
   vertex 0.00087599997641518712 0.10610300302505493 -0.019752999767661095
   vertex -0.004757000133395195 0.10057800263166428 -0.010320000350475311
  endloop
 endfacet
 facet normal -0.74540205814587102 0.10657597455846711 -0.65804052562043058
  outer loop
   vertex -0.010386000387370586 0.088215000927448273 -0.0059460001066327095
   vertex -0.004757000133395195 0.10057800263166428 -0.010320000350475311
   vertex -0.0055149998515844345 0.092886999249458313 -0.010707000270485878
  endloop
 endfacet
 facet normal -0.88039235544935535 0.10998133414614217 -0.4613170348098698
  outer loop
   vertex -0.0055149998515844345 0.092886999249458313 -0.010707000270485878
   vertex -0.004757000133395195 0.10057800263166428 -0.010320000350475311
   vertex 0.00087599997641518712 0.10610300302505493 -0.019752999767661095
  endloop
 endfacet
 facet normal 0.40081478845334856 0.082034381539357187 0.91247896721105448
  outer loop
   vertex 0.00044500001240521669 0.096414998173713684 -0.0086380001157522202
   vertex 0.0057979999110102654 0.10715600103139877 -0.011955000460147858
   vertex 0.0021130000241100788 0.11055599898099899 -0.010641999542713165
  endloop
 endfacet
 facet normal 0.52452899002000331 0.73466170298326228 -0.43028074648806702
  outer loop
   vertex 0.00087599997641518712 0.10610300302505493 -0.019752999767661095
   vertex 0.0021130000241100788 0.11055599898099899 -0.010641999542713165
   vertex 0.0057979999110102654 0.10715600103139877 -0.011955000460147858
  endloop
 endfacet
 facet normal 8.7543207367248805e-05 0.21431566220295864 -0.97676444922544881
  outer loop
   vertex 0.0072470000013709068 0.10585100203752518 0.010452999733388424
   vertex 0.011620000004768372 0.10064899921417236 0.0093120001256465912
   vertex 0.00044500001240521669 0.096414998173713684 0.0083820000290870667
  endloop
 endfacet
 facet normal 0.025500601711176577 0.14979492800400634 -0.98838818227285696
  outer loop
   vertex 0.011620000004768372 0.10064899921417236 0.0093120001256465912
   vertex 0.0090589998289942741 0.094875998795032501 0.0083710001781582832
   vertex 0.00044500001240521669 0.096414998173713684 0.0083820000290870667
  endloop
 endfacet
 facet normal -0.11520072074860113 -0.65016270204415649 0.75101082203230862
  outer loop
   vertex 0.0094400001689791679 0.10622099786996841 0.018250999972224236
   vertex 0.00044500001240521669 0.096414998173713684 0.0083820000290870667
   vertex 0.0090589998289942741 0.094875998795032501 0.0083710001781582832
  endloop
 endfacet
 facet normal 0.55821339637955092 -0.78434403981974243 0.27055910870205924
  outer loop
   vertex 0.0094400001689791679 0.10622099786996841 0.018250999972224236
   vertex -0.0055149998515844345 0.092886999249458313 0.010451000183820724
   vertex 0.00044500001240521669 0.096414998173713684 0.0083820000290870667
  endloop
 endfacet
 facet normal -0.15239686563854779 0.98831878034609988 -0.0010880067756508123
  outer loop
   vertex -0.01294500008225441 0.087814003229141235 -0.00012799999967683107
   vertex -0.012942000292241573 0.087820000946521759 0.0049000000581145287
   vertex -0.010386000387370586 0.088215000927448273 0.005690000019967556
  endloop
 endfacet
 facet normal -0.91991952153974532 0.38076243409188681 0.093637827156057007
  outer loop
   vertex -0.0055149998515844345 0.092886999249458313 0.010451000183820724
   vertex -0.0013000000035390258 0.10048700124025345 0.020956000313162804
   vertex 0.00087599997641518712 0.10610300302505493 0.019496999680995941
  endloop
 endfacet
 facet normal -0.95028626705568831 0.21269661323008707 0.22741187604392152
  outer loop
   vertex -0.0055149998515844345 0.092886999249458313 0.010451000183820724
   vertex -0.0042739999480545521 0.093755997717380524 0.014824000187218189
   vertex -0.0013000000035390258 0.10048700124025345 0.020956000313162804
  endloop
 endfacet
 facet normal -0.8446617546828713 0.51750790678205527 0.13686521323590065
  outer loop
   vertex -0.0055149998515844345 0.092886999249458313 0.010451000183820724
   vertex -0.0032389999832957983 0.094164997339248657 0.019664999097585678
   vertex -0.0042739999480545521 0.093755997717380524 0.014824000187218189
  endloop
 endfacet
 facet normal 0.15239779413661952 -0.98831864055230878 -0.0010849327761000599
  outer loop
   vertex -0.01039000041782856 0.088207997381687164 -0.00012799999967683107
   vertex -0.012942000292241573 0.087820000946521759 -0.0051560001447796822
   vertex -0.010386000387370586 0.088215000927448273 -0.0059460001066327095
  endloop
 endfacet
 facet normal 0.00020782429516240182 0.21423293588198319 0.97678257866960772
  outer loop
   vertex 0.011620000004768372 0.10064899921417236 -0.0095690004527568817
   vertex 0.0072470000013709068 0.10585100203752518 -0.010708999820053577
   vertex 0.00044500001240521669 0.096414998173713684 -0.0086380001157522202
  endloop
 endfacet
 facet normal 0.025528325229644461 0.1499499274022113 0.98836396326608389
  outer loop
   vertex 0.0090589998289942741 0.094875998795032501 -0.0086270002648234367
   vertex 0.011620000004768372 0.10064899921417236 -0.0095690004527568817
   vertex 0.00044500001240521669 0.096414998173713684 -0.0086380001157522202
  endloop
 endfacet
 facet normal -0.11520739379996243 -0.65019981509790126 -0.75097766735135041
  outer loop
   vertex 0.00044500001240521669 0.096414998173713684 -0.0086380001157522202
   vertex 0.0094400001689791679 0.10622099786996841 -0.018508000299334526
   vertex 0.0090589998289942741 0.094875998795032501 -0.0086270002648234367
  endloop
 endfacet
 facet normal 0.50784738574641275 -0.86142640686459249 0.0059647587454726113
  outer loop
   vertex -0.0032389999832957983 0.094164997339248657 -0.019920999184250832
   vertex 0.00044500001240521669 0.096414998173713684 -0.0086380001157522202
   vertex -0.0055149998515844345 0.092886999249458313 -0.010707000270485878
  endloop
 endfacet
 facet normal -0.91991952153974532 0.38076243409188681 -0.093637827156057007
  outer loop
   vertex -0.0013000000035390258 0.10048700124025345 -0.021212000399827957
   vertex -0.0055149998515844345 0.092886999249458313 -0.010707000270485878
   vertex 0.00087599997641518712 0.10610300302505493 -0.019752999767661095
  endloop
 endfacet
 facet normal -0.95028626705568831 0.21269661323008707 -0.22741187604392152
  outer loop
   vertex -0.0042739999480545521 0.093755997717380524 -0.015080000273883343
   vertex -0.0055149998515844345 0.092886999249458313 -0.010707000270485878
   vertex -0.0013000000035390258 0.10048700124025345 -0.021212000399827957
  endloop
 endfacet
 facet normal -0.8446617546828713 0.51750790678205527 -0.13686521323590065
  outer loop
   vertex -0.0032389999832957983 0.094164997339248657 -0.019920999184250832
   vertex -0.0055149998515844345 0.092886999249458313 -0.010707000270485878
   vertex -0.0042739999480545521 0.093755997717380524 -0.015080000273883343
  endloop
 endfacet
 facet normal -0.67151929086624429 0.35320884323752294 -0.65138725429141398
  outer loop
   vertex 0.011846999637782574 0.11086200177669525 0.0084279999136924744
   vertex 0.0072470000013709068 0.10585100203752518 0.010452999733388424
   vertex 0.01168300025165081 0.11226899921894073 0.0093599995598196983
  endloop
 endfacet
 facet normal -0.40018653418456607 0.41569279215005439 0.81673143713942864
  outer loop
   vertex 0.01168300025165081 0.11226899921894073 0.0093599995598196983
   vertex 0.0072470000013709068 0.10585100203752518 0.010452999733388424
   vertex 0.010204000398516655 0.1072319969534874 0.011199000291526318
  endloop
 endfacet
 facet normal -0.098445806134119046 0.62786071060877735 -0.7720747057950057
  outer loop
   vertex 0.010204000398516655 0.1072319969534874 0.011199000291526318
   vertex 0.0072470000013709068 0.10585100203752518 0.010452999733388424
   vertex 0.0057979999110102654 0.10715600103139877 0.011699000373482704
  endloop
 endfacet
 facet normal 0.16454469852474818 0.79327968957064543 -0.58620165156889503
  outer loop
   vertex 0.011532999575138092 0.10780200362205505 0.014182999730110168
   vertex 0.0057979999110102654 0.10715600103139877 0.011699000373482704
   vertex 0.0073560001328587532 0.11006800085306168 0.016077000647783279
  endloop
 endfacet
 facet normal -0.60439703908326747 0.74555245871890996 -0.28081266076437422
  outer loop
   vertex 0.0073560001328587532 0.11006800085306168 0.016077000647783279
   vertex 0.0057979999110102654 0.10715600103139877 0.011699000373482704
   vertex 0.00087599997641518712 0.10610300302505493 0.019496999680995941
  endloop
 endfacet
 facet normal -0.03233937405977981 0.26303470929738226 0.96424421522260806
  outer loop
   vertex 0.00087599997641518712 0.10610300302505493 0.019496999680995941
   vertex -0.0013000000035390258 0.10048700124025345 0.020956000313162804
   vertex 0.0035379999317228794 0.10175999999046326 0.020771000534296036
  endloop
 endfacet
 facet normal -0.56423894381656514 0.816472743620965 -0.12250172735443851
  outer loop
   vertex 0.00087599997641518712 0.10610300302505493 0.019496999680995941
   vertex 0.0086789997294545174 0.11184500157833099 0.021826999261975288
   vertex 0.0073560001328587532 0.11006800085306168 0.016077000647783279
  endloop
 endfacet
 facet normal -0.52735234254326036 0.84964644473441642 -0.00065250617010933403
  outer loop
   vertex -0.018830999732017517 0.084160998463630676 -0.00012799999967683107
   vertex -0.018828999251127243 0.084165997803211212 0.004765000194311142
   vertex -0.012942000292241573 0.087820000946521759 0.0049000000581145287
  endloop
 endfacet
 facet normal 0.53948305312454803 -0.84199628268921256 0.00054344177574160396
  outer loop
   vertex -0.02244500070810318 0.081845998764038086 -0.00012799999967683107
   vertex -0.018828999251127243 0.084165997803211212 0.004765000194311142
   vertex -0.022441999986767769 0.081850998103618622 0.004639000166207552
  endloop
 endfacet
 facet normal -0.87917854297038611 -0.47649132256487131 0.0010531385704862744
  outer loop
   vertex -0.02244500070810318 0.081845998764038086 -0.00012799999967683107
   vertex -0.022441999986767769 0.081850998103618622 0.004639000166207552
   vertex -0.027300000190734863 0.090804003179073334 -0.00012799999967683107
  endloop
 endfacet
 facet normal 0.067796362616248024 -0.43998772257228191 -0.89544092892924143
  outer loop
   vertex -0.027133999392390251 0.083269000053405762 0.0035870000720024109
   vertex -0.027300000190734863 0.090804003179073334 -0.00012799999967683107
   vertex -0.022441999986767769 0.081850998103618622 0.004639000166207552
  endloop
 endfacet
 facet normal -0.23355159409797346 -0.052473946506452485 0.97092746270374564
  outer loop
   vertex -0.027133999392390251 0.083269000053405762 0.0035870000720024109
   vertex -0.022441999986767769 0.081850998103618622 0.004639000166207552
   vertex -0.02747499942779541 0.086451999843120575 0.0036770000588148832
  endloop
 endfacet
 facet normal -0.98192298120274024 -0.10066267719730772 -0.16029436797777236
  outer loop
   vertex -0.02747499942779541 0.086451999843120575 0.0036770000588148832
   vertex -0.027300000190734863 0.090804003179073334 -0.00012799999967683107
   vertex -0.027133999392390251 0.083269000053405762 0.0035870000720024109
  endloop
 endfacet
 facet normal -0.87917854317484534 -0.47649132267568278 -0.0010529177248142772
  outer loop
   vertex -0.022441999986767769 0.081850998103618622 -0.0048960000276565552
   vertex -0.02244500070810318 0.081845998764038086 -0.00012799999967683107
   vertex -0.027300000190734863 0.090804003179073334 -0.00012799999967683107
  endloop
 endfacet
 facet normal -0.98192298028467007 -0.10066267693528473 0.16029437376618616
  outer loop
   vertex -0.027300000190734863 0.090804003179073334 -0.00012799999967683107
   vertex -0.02747499942779541 0.086451999843120575 -0.0039329999126493931
   vertex -0.027133999392390251 0.083269000053405762 -0.0038429999258369207
  endloop
 endfacet
 facet normal 0.067987733009368459 -0.43997855614267128 0.89543092324023366
  outer loop
   vertex -0.027300000190734863 0.090804003179073334 -0.00012799999967683107
   vertex -0.027133999392390251 0.083269000053405762 -0.0038429999258369207
   vertex -0.022441999986767769 0.081850998103618622 -0.0048960000276565552
  endloop
 endfacet
 facet normal -0.23375349093054479 -0.052494171314122359 -0.97087778193541296
  outer loop
   vertex -0.022441999986767769 0.081850998103618622 -0.0048960000276565552
   vertex -0.027133999392390251 0.083269000053405762 -0.0038429999258369207
   vertex -0.02747499942779541 0.086451999843120575 -0.0039329999126493931
  endloop
 endfacet
 facet normal 0.53948076725729788 -0.84199767962964867 -0.00063973257283170585
  outer loop
   vertex -0.018830999732017517 0.084160998463630676 -0.00012799999967683107
   vertex -0.022441999986767769 0.081850998103618622 -0.0048960000276565552
   vertex -0.018828999251127243 0.084165997803211212 -0.0050209998153150082
  endloop
 endfacet
 facet normal 0.52735155819050328 -0.84964689467605159 -0.00069888582111825542
  outer loop
   vertex -0.01294500008225441 0.087814003229141235 -0.00012799999967683107
   vertex -0.018828999251127243 0.084165997803211212 -0.0050209998153150082
   vertex -0.012942000292241573 0.087820000946521759 -0.0051560001447796822
  endloop
 endfacet
 facet normal -0.02968645003278178 0.26209539645537577 -0.96458525690648544
  outer loop
   vertex -0.0013000000035390258 0.10048700124025345 -0.021212000399827957
   vertex 0.00087599997641518712 0.10610300302505493 -0.019752999767661095
   vertex 0.0035379999317228794 0.10175999999046326 -0.021014999598264694
  endloop
 endfacet
 facet normal -0.89174160619004106 0.44755907046460114 -0.066990941435896498
  outer loop
   vertex 0.0035379999317228794 0.10175999999046326 -0.021014999598264694
   vertex 0.0073560001328587532 0.11006800085306168 -0.016333000734448433
   vertex 0.0086789997294545174 0.11184500157833099 -0.022072000429034233
  endloop
 endfacet
 facet normal -0.60439703908326747 0.74555245871890996 0.28081266076437422
  outer loop
   vertex 0.0057979999110102654 0.10715600103139877 -0.011955000460147858
   vertex 0.0073560001328587532 0.11006800085306168 -0.016333000734448433
   vertex 0.00087599997641518712 0.10610300302505493 -0.019752999767661095
  endloop
 endfacet
 facet normal -0.075083377777550822 0.84239947556022787 0.53359686089534542
  outer loop
   vertex 0.010204000398516655 0.1072319969534874 -0.011455000378191471
   vertex 0.0073560001328587532 0.11006800085306168 -0.016333000734448433
   vertex 0.0057979999110102654 0.10715600103139877 -0.011955000460147858
  endloop
 endfacet
 facet normal -0.098445806134119046 0.62786071060877735 0.7720747057950057
  outer loop
   vertex 0.0072470000013709068 0.10585100203752518 -0.010708999820053577
   vertex 0.010204000398516655 0.1072319969534874 -0.011455000378191471
   vertex 0.0057979999110102654 0.10715600103139877 -0.011955000460147858
  endloop
 endfacet
 facet normal -0.2463044720236458 0.005338832050981129 0.96917779789545555
  outer loop
   vertex 0.011620000004768372 0.10064899921417236 -0.0095690004527568817
   vertex 0.01168300025165081 0.11226899921894073 -0.0096169998869299889
   vertex 0.0072470000013709068 0.10585100203752518 -0.010708999820053577
  endloop
 endfacet
 facet normal -0.40014406732530089 0.41555189200858067 -0.81682394090308952
  outer loop
   vertex 0.0072470000013709068 0.10585100203752518 -0.010708999820053577
   vertex 0.01168300025165081 0.11226899921894073 -0.0096169998869299889
   vertex 0.010204000398516655 0.1072319969534874 -0.011455000378191471
  endloop
 endfacet
 facet normal -0.5077008116924806 0.085487594522610774 0.8572816089182913
  outer loop
   vertex 0.011846999637782574 0.11086200177669525 0.0084279999136924744
   vertex 0.0090589998289942741 0.094875998795032501 0.0083710001781582832
   vertex 0.011620000004768372 0.10064899921417236 0.0093120001256465912
  endloop
 endfacet
 facet normal -0.93690248344097971 0.16449807317000878 -0.3084706152058555
  outer loop
   vertex 0.011846999637782574 0.11086200177669525 0.0084279999136924744
   vertex 0.010495999827980995 0.093915000557899475 0.0034940000623464584
   vertex 0.0090589998289942741 0.094875998795032501 0.0083710001781582832
  endloop
 endfacet
 facet normal -0.0013662660552565722 -0.9812092570528701 0.1929417715032718
  outer loop
   vertex 0.029363999143242836 0.094632998108863831 0.0072789997793734074
   vertex 0.0090589998289942741 0.094875998795032501 0.0083710001781582832
   vertex 0.010495999827980995 0.093915000557899475 0.0034940000623464584
  endloop
 endfacet
 facet normal 0.03084489645595016 -0.99754617353998787 0.062850807618917884
  outer loop
   vertex 0.026170000433921814 0.095683000981807709 0.012782000005245209
   vertex 0.022476999089121819 0.095663003623485565 0.014276999980211258
   vertex 0.0090589998289942741 0.094875998795032501 0.0083710001781582832
  endloop
 endfacet
 facet normal -0.32644193996607956 -0.49181455837784627 0.80718901132187537
  outer loop
   vertex 0.022476999089121819 0.095663003623485565 0.014276999980211258
   vertex 0.018543999642133713 0.10056799650192261 0.015675000846385956
   vertex 0.0090589998289942741 0.094875998795032501 0.0083710001781582832
  endloop
 endfacet
 facet normal -0.18783823494334434 -0.6414531352360916 0.74381091198580662
  outer loop
   vertex 0.0090589998289942741 0.094875998795032501 0.0083710001781582832
   vertex 0.018543999642133713 0.10056799650192261 0.015675000846385956
   vertex 0.0094400001689791679 0.10622099786996841 0.018250999972224236
  endloop
 endfacet
 facet normal 0.68300416818064325 0.60296120463070801 0.41224154564787974
  outer loop
   vertex 0.012098999693989754 0.10504200309514999 0.015569999814033508
   vertex 0.0073560001328587532 0.11006800085306168 0.016077000647783279
   vertex 0.0094400001689791679 0.10622099786996841 0.018250999972224236
  endloop
 endfacet
 facet normal 0.89898575826908911 0.31508047140022932 -0.30421851188177268
  outer loop
   vertex 0.0094400001689791679 0.10622099786996841 0.018250999972224236
   vertex 0.0073560001328587532 0.11006800085306168 0.016077000647783279
   vertex 0.0086789997294545174 0.11184500157833099 0.021826999261975288
  endloop
 endfacet
 facet normal 0.84782984901403768 -0.19804767026717077 0.49189599248477328
  outer loop
   vertex 0.0094400001689791679 0.10622099786996841 0.018250999972224236
   vertex 0.0086789997294545174 0.11184500157833099 0.021826999261975288
   vertex 0.0070480001159012318 0.10956200212240219 0.023718999698758125
  endloop
 endfacet
 facet normal 0.99616491171700627 0.08174835313659827 0.031187744761415385
  outer loop
   vertex 0.0094400001689791679 0.10622099786996841 0.018250999972224236
   vertex 0.009089999832212925 0.10760600119829178 0.025800000876188278
   vertex 0.0098649999126791954 0.10021799802780151 0.020410999655723572
  endloop
 endfacet
 facet normal 0.59166970432348398 -0.67410430997769188 -0.44216551228613593
  outer loop
   vertex 0.0094400001689791679 0.10622099786996841 0.018250999972224236
   vertex 0.0084530003368854523 0.099145002663135529 0.027718000113964081
   vertex -0.0032389999832957983 0.094164997339248657 0.019664999097585678
  endloop
 endfacet
 facet normal -0.62234486218746321 -0.59446704632955372 -0.50921096152487111
  outer loop
   vertex 0.0094400001689791679 0.10622099786996841 0.018250999972224236
   vertex 0.012109999544918537 0.097840003669261932 0.024771999567747116
   vertex 0.0084530003368854523 0.099145002663135529 0.027718000113964081
  endloop
 endfacet
 facet normal 0.30238435867677937 0.34160189343202435 0.88987181438187413
  outer loop
   vertex 0.0098649999126791954 0.10021799802780151 0.020410999655723572
   vertex 0.015209999866783619 0.10527099668979645 0.016654999926686287
   vertex 0.0094400001689791679 0.10622099786996841 0.018250999972224236
  endloop
 endfacet
 facet normal 0.055296482864287407 0.93304895684794431 -0.35547425097720164
  outer loop
   vertex 0.0094400001689791679 0.10622099786996841 0.018250999972224236
   vertex 0.015209999866783619 0.10527099668979645 0.016654999926686287
   vertex 0.012098999693989754 0.10504200309514999 0.015569999814033508
  endloop
 endfacet
 facet normal -0.089726341831836767 -0.48556569589764326 -0.86958331317298965
  outer loop
   vertex 0.015266000293195248 0.09742400050163269 0.022562000900506973
   vertex 0.0094400001689791679 0.10622099786996841 0.018250999972224236
   vertex 0.017505999654531479 0.10279099643230438 0.01933399960398674
  endloop
 endfacet
 facet normal -0.40428021202468323 -0.82807126398785857 0.38840119969282705
  outer loop
   vertex 0.017505999654531479 0.10279099643230438 0.01933399960398674
   vertex 0.0094400001689791679 0.10622099786996841 0.018250999972224236
   vertex 0.018543999642133713 0.10056799650192261 0.015675000846385956
  endloop
 endfacet
 facet normal -0.50130811638297335 -0.62516074911173292 -0.59821752750869139
  outer loop
   vertex 0.0094400001689791679 0.10622099786996841 0.018250999972224236
   vertex 0.015266000293195248 0.09742400050163269 0.022562000900506973
   vertex 0.012109999544918537 0.097840003669261932 0.024771999567747116
  endloop
 endfacet
 facet normal -0.94993013127995818 0.2542632142873078 0.18161212389796005
  outer loop
   vertex -0.0042739999480545521 0.093755997717380524 0.014824000187218189
   vertex -0.0032389999832957983 0.094164997339248657 0.019664999097585678
   vertex -0.0013000000035390258 0.10048700124025345 0.020956000313162804
  endloop
 endfacet
 facet normal -0.41938102983012909 -0.056396776904382453 0.90605681685720874
  outer loop
   vertex -0.0013000000035390258 0.10048700124025345 0.020956000313162804
   vertex -0.0032389999832957983 0.094164997339248657 0.019664999097585678
   vertex 0.0053269998170435429 0.10229600220918655 0.024135999381542206
  endloop
 endfacet
 facet normal -0.61776131601053319 0.23883758389799001 0.74921796892406745
  outer loop
   vertex 0.0053269998170435429 0.10229600220918655 0.024135999381542206
   vertex -0.0032389999832957983 0.094164997339248657 0.019664999097585678
   vertex 0.0084530003368854523 0.099145002663135529 0.027718000113964081
  endloop
 endfacet
 facet normal -0.25507778276996135 0.96674585782696509 -0.018378550311870637
  outer loop
   vertex 0.0035379999317228794 0.10175999999046326 0.020771000534296036
   vertex -0.0013000000035390258 0.10048700124025345 0.020956000313162804
   vertex 0.0053269998170435429 0.10229600220918655 0.024135999381542206
  endloop
 endfacet
 facet normal -0.50810597757443865 0.08555913796524825 -0.85703439222925448
  outer loop
   vertex 0.0090589998289942741 0.094875998795032501 -0.0086270002648234367
   vertex 0.011846999637782574 0.11086200177669525 -0.0086840000003576279
   vertex 0.011620000004768372 0.10064899921417236 -0.0095690004527568817
  endloop
 endfacet
 facet normal -0.93690248770814599 0.164498073866677 0.30847060187389075
  outer loop
   vertex 0.010495999827980995 0.093915000557899475 -0.0037499999161809683
   vertex 0.011846999637782574 0.11086200177669525 -0.0086840000003576279
   vertex 0.0090589998289942741 0.094875998795032501 -0.0086270002648234367
  endloop
 endfacet
 facet normal -0.0033138488194116487 -0.98131326306851285 -0.19238840435907184
  outer loop
   vertex 0.026170000433921814 0.095683000981807709 -0.013038000091910362
   vertex 0.010495999827980995 0.093915000557899475 -0.0037499999161809683
   vertex 0.0090589998289942741 0.094875998795032501 -0.0086270002648234367
  endloop
 endfacet
 facet normal 0.03084489645595016 -0.99754617353998787 -0.062850807618917884
  outer loop
   vertex 0.022476999089121819 0.095663003623485565 -0.014533000066876411
   vertex 0.026170000433921814 0.095683000981807709 -0.013038000091910362
   vertex 0.0090589998289942741 0.094875998795032501 -0.0086270002648234367
  endloop
 endfacet
 facet normal -0.32644200230920301 -0.49181433367623267 -0.80718912301824375
  outer loop
   vertex 0.018543999642133713 0.10056799650192261 -0.01593099907040596
   vertex 0.022476999089121819 0.095663003623485565 -0.014533000066876411
   vertex 0.0090589998289942741 0.094875998795032501 -0.0086270002648234367
  endloop
 endfacet
 facet normal -0.18779128125537772 -0.64149738165250692 -0.74378460861827567
  outer loop
   vertex 0.018543999642133713 0.10056799650192261 -0.01593099907040596
   vertex 0.0090589998289942741 0.094875998795032501 -0.0086270002648234367
   vertex 0.0094400001689791679 0.10622099786996841 -0.018508000299334526
  endloop
 endfacet
 facet normal 0.57723501864630811 0.61585826298896551 -0.53620736022234017
  outer loop
   vertex 0.011532999575138092 0.10780200362205505 -0.014438999816775322
   vertex 0.0094400001689791679 0.10622099786996841 -0.018508000299334526
   vertex 0.0073560001328587532 0.11006800085306168 -0.016333000734448433
  endloop
 endfacet
 facet normal 0.89895413222181975 0.31472155710575617 0.30468312991408519
  outer loop
   vertex 0.0073560001328587532 0.11006800085306168 -0.016333000734448433
   vertex 0.0094400001689791679 0.10622099786996841 -0.018508000299334526
   vertex 0.0086789997294545174 0.11184500157833099 -0.022072000429034233
  endloop
 endfacet
 facet normal 0.84763012963743822 -0.19740643534493962 -0.49249757625314644
  outer loop
   vertex 0.0086789997294545174 0.11184500157833099 -0.022072000429034233
   vertex 0.0094400001689791679 0.10622099786996841 -0.018508000299334526
   vertex 0.0070480001159012318 0.10956200212240219 -0.02396400086581707
  endloop
 endfacet
 facet normal 0.81345591155332253 0.39603846820745814 0.4259612795300099
  outer loop
   vertex 0.0070480001159012318 0.10956200212240219 -0.02396400086581707
   vertex 0.0098649999126791954 0.10021799802780151 -0.020656000822782516
   vertex 0.009089999832212925 0.10760600119829178 -0.026045000180602074
  endloop
 endfacet
 facet normal 0.59148804394014631 -0.67393523649760478 0.44266600375766046
  outer loop
   vertex 0.0084530003368854523 0.099145002663135529 -0.027961999177932739
   vertex 0.0094400001689791679 0.10622099786996841 -0.018508000299334526
   vertex -0.0032389999832957983 0.094164997339248657 -0.019920999184250832
  endloop
 endfacet
 facet normal -0.62247955178055103 -0.59400809125500542 0.50958178454362901
  outer loop
   vertex 0.012109999544918537 0.097840003669261932 -0.025016000494360924
   vertex 0.0094400001689791679 0.10622099786996841 -0.018508000299334526
   vertex 0.0084530003368854523 0.099145002663135529 -0.027961999177932739
  endloop
 endfacet
 facet normal 0.30364784080005336 0.36423848372152035 -0.88041371851744399
  outer loop
   vertex 0.016031000763177872 0.098667003214359283 -0.019360000267624855
   vertex 0.0094400001689791679 0.10622099786996841 -0.018508000299334526
   vertex 0.015209999866783619 0.10527099668979645 -0.01691100001335144
  endloop
 endfacet
 facet normal 0.055264166073664106 0.93308339973961041 0.35538885896796574
  outer loop
   vertex 0.015209999866783619 0.10527099668979645 -0.01691100001335144
   vertex 0.0094400001689791679 0.10622099786996841 -0.018508000299334526
   vertex 0.012098999693989754 0.10504200309514999 -0.015825999900698662
  endloop
 endfacet
 facet normal -0.67848357922941582 -0.63216583566057227 0.37420100071968221
  outer loop
   vertex 0.0094400001689791679 0.10622099786996841 -0.018508000299334526
   vertex 0.015266000293195248 0.09742400050163269 -0.022805999964475632
   vertex 0.017782000824809074 0.09714999794960022 -0.018706999719142914
  endloop
 endfacet
 facet normal -0.5002752030929396 -0.47593853926891377 0.7233306491563114
  outer loop
   vertex 0.0094400001689791679 0.10622099786996841 -0.018508000299334526
   vertex 0.017782000824809074 0.09714999794960022 -0.018706999719142914
   vertex 0.018543999642133713 0.10056799650192261 -0.01593099907040596
  endloop
 endfacet
 facet normal -0.50151632408790747 -0.62461017876747205 0.59861799275783523
  outer loop
   vertex 0.015266000293195248 0.09742400050163269 -0.022805999964475632
   vertex 0.0094400001689791679 0.10622099786996841 -0.018508000299334526
   vertex 0.012109999544918537 0.097840003669261932 -0.025016000494360924
  endloop
 endfacet
 facet normal -0.94993013127995818 0.2542632142873078 -0.18161212389796005
  outer loop
   vertex -0.0032389999832957983 0.094164997339248657 -0.019920999184250832
   vertex -0.0042739999480545521 0.093755997717380524 -0.015080000273883343
   vertex -0.0013000000035390258 0.10048700124025345 -0.021212000399827957
  endloop
 endfacet
 facet normal -0.41789079778809052 -0.056986860343107362 -0.90670821043611838
  outer loop
   vertex -0.0032389999832957983 0.094164997339248657 -0.019920999184250832
   vertex -0.0013000000035390258 0.10048700124025345 -0.021212000399827957
   vertex 0.0053269998170435429 0.10229600220918655 -0.024380000308156013
  endloop
 endfacet
 facet normal -0.61734761438967101 0.23942283734673969 -0.74937215585062844
  outer loop
   vertex -0.0032389999832957983 0.094164997339248657 -0.019920999184250832
   vertex 0.0053269998170435429 0.10229600220918655 -0.024380000308156013
   vertex 0.0084530003368854523 0.099145002663135529 -0.027961999177932739
  endloop
 endfacet
 facet normal -0.25511961283127593 0.96673527464368192 0.018354615452927985
  outer loop
   vertex -0.0013000000035390258 0.10048700124025345 -0.021212000399827957
   vertex 0.0035379999317228794 0.10175999999046326 -0.021014999598264694
   vertex 0.0053269998170435429 0.10229600220918655 -0.024380000308156013
  endloop
 endfacet
 facet normal -0.70197189114060665 0.48211392007353576 -0.52421525361230081
  outer loop
   vertex 0.013654000125825405 0.11513599753379822 0.0099390000104904175
   vertex 0.014426000416278839 0.11023300141096115 0.0043959999457001686
   vertex 0.011846999637782574 0.11086200177669525 0.0084279999136924744
  endloop
 endfacet
 facet normal 0.30951435206761319 0.54993128530714297 -0.77574251353435519
  outer loop
   vertex 0.015151999890804291 0.11433400213718414 0.0122079998254776
   vertex 0.011846999637782574 0.11086200177669525 0.0084279999136924744
   vertex 0.01168300025165081 0.11226899921894073 0.0093599995598196983
  endloop
 endfacet
 facet normal -0.0080180215487765886 0.98722385867203966 -0.15913756375894442
  outer loop
   vertex 0.014426000416278839 0.11023300141096115 0.0043959999457001686
   vertex 0.013473000377416611 0.10984499752521515 0.00203699991106987
   vertex 0.011846999637782574 0.11086200177669525 0.0084279999136924744
  endloop
 endfacet
 facet normal -0.95153901597897372 0.15344812547908246 -0.26650923784499858
  outer loop
   vertex 0.013473000377416611 0.10984499752521515 0.00203699991106987
   vertex 0.010495999827980995 0.093915000557899475 0.0034940000623464584
   vertex 0.011846999637782574 0.11086200177669525 0.0084279999136924744
  endloop
 endfacet
 facet normal -0.80606094773956216 0.57900056975463499 -0.12257278961093672
  outer loop
   vertex 0.015151999890804291 0.11433400213718414 0.0122079998254776
   vertex 0.010204000398516655 0.1072319969534874 0.011199000291526318
   vertex 0.014309000223875046 0.11341000348329544 0.013387000188231468
  endloop
 endfacet
 facet normal -0.84154316473252389 0.45736855815373245 0.28743539083478248
  outer loop
   vertex 0.014309000223875046 0.11341000348329544 0.013387000188231468
   vertex 0.010204000398516655 0.1072319969534874 0.011199000291526318
   vertex 0.011532999575138092 0.10780200362205505 0.014182999730110168
  endloop
 endfacet
 facet normal -0.43181257626329006 0.33274475847587676 0.83834290400032052
  outer loop
   vertex 0.012098999693989754 0.10504200309514999 0.015569999814033508
   vertex 0.014309000223875046 0.11341000348329544 0.013387000188231468
   vertex 0.011532999575138092 0.10780200362205505 0.014182999730110168
  endloop
 endfacet
 facet normal -0.86650496287642453 0.46160710051934523 -0.18996850807607368
  outer loop
   vertex 0.0070480001159012318 0.10956200212240219 0.023718999698758125
   vertex 0.0086789997294545174 0.11184500157833099 0.021826999261975288
   vertex 0.0035379999317228794 0.10175999999046326 0.020771000534296036
  endloop
 endfacet
 facet normal -0.87378585507868733 0.23150629194554387 0.42767173890032978
  outer loop
   vertex 0.0053269998170435429 0.10229600220918655 0.024135999381542206
   vertex 0.0070480001159012318 0.10956200212240219 0.023718999698758125
   vertex 0.0035379999317228794 0.10175999999046326 0.020771000534296036
  endloop
 endfacet
 facet normal -0.86650158841620606 0.4616220598998102 0.18994754824963617
  outer loop
   vertex 0.0086789997294545174 0.11184500157833099 -0.022072000429034233
   vertex 0.0070480001159012318 0.10956200212240219 -0.02396400086581707
   vertex 0.0035379999317228794 0.10175999999046326 -0.021014999598264694
  endloop
 endfacet
 facet normal -0.87379427301003743 0.23145016684358924 -0.42768491757710492
  outer loop
   vertex 0.0070480001159012318 0.10956200212240219 -0.02396400086581707
   vertex 0.0053269998170435429 0.10229600220918655 -0.024380000308156013
   vertex 0.0035379999317228794 0.10175999999046326 -0.021014999598264694
  endloop
 endfacet
 facet normal -0.8170145741475463 0.39364562627080468 -0.42134345437940485
  outer loop
   vertex 0.01168300025165081 0.11226899921894073 -0.0096169998869299889
   vertex 0.014309000223875046 0.11341000348329544 -0.013643000274896622
   vertex 0.010204000398516655 0.1072319969534874 -0.011455000378191471
  endloop
 endfacet
 facet normal -0.84154316473252389 0.45736855815373245 -0.28743539083478248
  outer loop
   vertex 0.010204000398516655 0.1072319969534874 -0.011455000378191471
   vertex 0.014309000223875046 0.11341000348329544 -0.013643000274896622
   vertex 0.011532999575138092 0.10780200362205505 -0.014438999816775322
  endloop
 endfacet
 facet normal -0.43181257626329006 0.33274475847587676 -0.83834290400032052
  outer loop
   vertex 0.014309000223875046 0.11341000348329544 -0.013643000274896622
   vertex 0.012098999693989754 0.10504200309514999 -0.015825999900698662
   vertex 0.011532999575138092 0.10780200362205505 -0.014438999816775322
  endloop
 endfacet
 facet normal -0.44219403618310132 0.45931256185749397 0.77038717855634364
  outer loop
   vertex 0.013654000125825405 0.11513599753379822 -0.010195000097155571
   vertex 0.01168300025165081 0.11226899921894073 -0.0096169998869299889
   vertex 0.011846999637782574 0.11086200177669525 -0.0086840000003576279
  endloop
 endfacet
 facet normal -0.70197189114060665 0.48211392007353576 0.52421525361230081
  outer loop
   vertex 0.014426000416278839 0.11023300141096115 -0.0046520000323653221
   vertex 0.013654000125825405 0.11513599753379822 -0.010195000097155571
   vertex 0.011846999637782574 0.11086200177669525 -0.0086840000003576279
  endloop
 endfacet
 facet normal -0.0080180215487765886 0.98722385867203966 0.15913756375894442
  outer loop
   vertex 0.013473000377416611 0.10984499752521515 -0.0022929999977350235
   vertex 0.014426000416278839 0.11023300141096115 -0.0046520000323653221
   vertex 0.011846999637782574 0.11086200177669525 -0.0086840000003576279
  endloop
 endfacet
 facet normal -0.99563263772006971 0.088243539929936624 0.030475044991111481
  outer loop
   vertex 0.010545000433921814 0.093217000365257263 -0.00012799999967683107
   vertex 0.011846999637782574 0.11086200177669525 -0.0086840000003576279
   vertex 0.010495999827980995 0.093915000557899475 -0.0037499999161809683
  endloop
 endfacet
 facet normal 0.042099589646895218 -0.99890562230464841 -0.020376022176228699
  outer loop
   vertex 0.010495999827980995 0.093915000557899475 0.0034940000623464584
   vertex 0.030648000538349152 0.094797998666763306 0.00184299994725734
   vertex 0.029363999143242836 0.094632998108863831 0.0072789997793734074
  endloop
 endfacet
 facet normal 0.96765470169177925 0.10003016926329866 0.23159953266565375
  outer loop
   vertex 0.029363999143242836 0.094632998108863831 0.0072789997793734074
   vertex 0.030648000538349152 0.094797998666763306 0.00184299994725734
   vertex 0.028126999735832214 0.10860200226306915 0.0064139999449253082
  endloop
 endfacet
 facet normal 0.73392373858702897 0.20760643913427265 0.64672676793869144
  outer loop
   vertex 0.026170000433921814 0.095683000981807709 0.012782000005245209
   vertex 0.028126999735832214 0.10860200226306915 0.0064139999449253082
   vertex 0.024738000705838203 0.10944599658250809 0.0099889999255537987
  endloop
 endfacet
 facet normal 0.36488864817878902 0.22148489426465057 0.90432334706278172
  outer loop
   vertex 0.022476999089121819 0.095663003623485565 0.014276999980211258
   vertex 0.026170000433921814 0.095683000981807709 0.012782000005245209
   vertex 0.024738000705838203 0.10944599658250809 0.0099889999255537987
  endloop
 endfacet
 facet normal 0.53601166303314729 0.15725512697810906 0.82943494147011831
  outer loop
   vertex 0.018543999642133713 0.10056799650192261 0.015675000846385956
   vertex 0.024738000705838203 0.10944599658250809 0.0099889999255537987
   vertex 0.022266000509262085 0.11060900241136551 0.011366000398993492
  endloop
 endfacet
 facet normal 0.65453633218880758 0.079998184848653564 0.75178619318642947
  outer loop
   vertex 0.018543999642133713 0.10056799650192261 0.015675000846385956
   vertex 0.022266000509262085 0.11060900241136551 0.011366000398993492
   vertex 0.018806999549269676 0.10746599733829498 0.014712000265717506
  endloop
 endfacet
 facet normal 0.96413859526190249 0.013955823041040183 0.26503208132158712
  outer loop
   vertex 0.018543999642133713 0.10056799650192261 0.015675000846385956
   vertex 0.017348000779747963 0.10411600023508072 0.019838999956846237
   vertex 0.017505999654531479 0.10279099643230438 0.01933399960398674
  endloop
 endfacet
 facet normal -0.33293600784103405 0.31938068591656832 0.88721451303860954
  outer loop
   vertex 0.015209999866783619 0.10527099668979645 0.016654999926686287
   vertex 0.014309000223875046 0.11341000348329544 0.013387000188231468
   vertex 0.012098999693989754 0.10504200309514999 0.015569999814033508
  endloop
 endfacet
 facet normal -0.60685594513204688 0.18805734213292191 0.77224367781665348
  outer loop
   vertex 0.0070480001159012318 0.10956200212240219 0.023718999698758125
   vertex 0.0053269998170435429 0.10229600220918655 0.024135999381542206
   vertex 0.009089999832212925 0.10760600119829178 0.025800000876188278
  endloop
 endfacet
 facet normal 0.21816646498364584 0.58994794553495811 -0.77740903976968379
  outer loop
   vertex 0.012901999987661839 0.099904000759124756 0.021025000140070915
   vertex 0.0098649999126791954 0.10021799802780151 0.020410999655723572
   vertex 0.009089999832212925 0.10760600119829178 0.025800000876188278
  endloop
 endfacet
 facet normal -0.15686539503201299 0.31388275866329524 0.93641383034178327
  outer loop
   vertex 0.012901999987661839 0.099904000759124756 0.021025000140070915
   vertex 0.015752999112010002 0.10433600097894669 0.020016999915242195
   vertex 0.0098649999126791954 0.10021799802780151 0.020410999655723572
  endloop
 endfacet
 facet normal -0.4800868827042496 0.066105580411376388 0.87472660717151562
  outer loop
   vertex 0.009089999832212925 0.10760600119829178 0.025800000876188278
   vertex 0.0053269998170435429 0.10229600220918655 0.024135999381542206
   vertex 0.010614999569952488 0.100552998483181 0.027170000597834587
  endloop
 endfacet
 facet normal 0.91397399869717444 0.2583916210098523 0.31286626519552735
  outer loop
   vertex 0.012901999987661839 0.099904000759124756 0.021025000140070915
   vertex 0.009089999832212925 0.10760600119829178 0.025800000876188278
   vertex 0.010614999569952488 0.100552998483181 0.027170000597834587
  endloop
 endfacet
 facet normal -0.22052962850535013 0.62882503878296758 0.74561769932780675
  outer loop
   vertex 0.0053269998170435429 0.10229600220918655 0.024135999381542206
   vertex 0.0084530003368854523 0.099145002663135529 0.027718000113964081
   vertex 0.010614999569952488 0.100552998483181 0.027170000597834587
  endloop
 endfacet
 facet normal 0.47182766056607695 -0.42352248284818317 0.77330935934259404
  outer loop
   vertex 0.012109999544918537 0.097840003669261932 0.024771999567747116
   vertex 0.010614999569952488 0.100552998483181 0.027170000597834587
   vertex 0.0084530003368854523 0.099145002663135529 0.027718000113964081
  endloop
 endfacet
 facet normal 0.4849762558070132 -0.41375583261683307 0.77045709957074293
  outer loop
   vertex 0.015266000293195248 0.09742400050163269 0.022562000900506973
   vertex 0.010614999569952488 0.100552998483181 0.027170000597834587
   vertex 0.012109999544918537 0.097840003669261932 0.024771999567747116
  endloop
 endfacet
 facet normal 0.15892525727268933 0.95751896813701143 0.24062457949811014
  outer loop
   vertex 0.017348000779747963 0.10411600023508072 0.019838999956846237
   vertex 0.015209999866783619 0.10527099668979645 0.016654999926686287
   vertex 0.015752999112010002 0.10433600097894669 0.020016999915242195
  endloop
 endfacet
 facet normal 0.24599277057319829 0.38448741633898526 0.88975107951757704
  outer loop
   vertex 0.018806999549269676 0.10746599733829498 0.014712000265717506
   vertex 0.014309000223875046 0.11341000348329544 0.013387000188231468
   vertex 0.015209999866783619 0.10527099668979645 0.016654999926686287
  endloop
 endfacet
 facet normal -0.16642953252627232 0.31924582543317698 0.93294336036362668
  outer loop
   vertex 0.014897000044584274 0.098650000989437103 0.021810000762343407
   vertex 0.015752999112010002 0.10433600097894669 0.020016999915242195
   vertex 0.012901999987661839 0.099904000759124756 0.021025000140070915
  endloop
 endfacet
 facet normal -0.014178065505948412 0.51969869019928094 0.85423196724523298
  outer loop
   vertex 0.017505999654531479 0.10279099643230438 0.01933399960398674
   vertex 0.014897000044584274 0.098650000989437103 0.021810000762343407
   vertex 0.015266000293195248 0.09742400050163269 0.022562000900506973
  endloop
 endfacet
 facet normal 0.08544849746840387 -0.99354829160236313 0.074567731187275998
  outer loop
   vertex 0.010545000433921814 0.093217000365257263 -0.00012799999967683107
   vertex 0.030648000538349152 0.094797998666763306 -0.0020989999175071716
   vertex 0.03061399981379509 0.094943001866340637 -0.00012799999967683107
  endloop
 endfacet
 facet normal 0.7340397619166622 0.10653305944382521 -0.6706983935949663
  outer loop
   vertex 0.029363999143242836 0.094632998108863831 -0.0075349998660385609
   vertex 0.024738000705838203 0.10944599658250809 -0.010245000012218952
   vertex 0.028126999735832214 0.10860200226306915 -0.0066700000315904617
  endloop
 endfacet
 facet normal 0.36488864817878902 0.22148489426465057 -0.90432334706278172
  outer loop
   vertex 0.026170000433921814 0.095683000981807709 -0.013038000091910362
   vertex 0.022476999089121819 0.095663003623485565 -0.014533000066876411
   vertex 0.024738000705838203 0.10944599658250809 -0.010245000012218952
  endloop
 endfacet
 facet normal 0.96765470283520028 0.10003016907379243 -0.23159952797013336
  outer loop
   vertex 0.030648000538349152 0.094797998666763306 -0.0020989999175071716
   vertex 0.029363999143242836 0.094632998108863831 -0.0075349998660385609
   vertex 0.028126999735832214 0.10860200226306915 -0.0066700000315904617
  endloop
 endfacet
 facet normal 0.53895348723428227 0.1683581713429185 -0.82533912105271912
  outer loop
   vertex 0.022476999089121819 0.095663003623485565 -0.014533000066876411
   vertex 0.022266000509262085 0.11060900241136551 -0.011621999554336071
   vertex 0.024738000705838203 0.10944599658250809 -0.010245000012218952
  endloop
 endfacet
 facet normal 0.654536572683594 0.079997946979290455 -0.75178600911343973
  outer loop
   vertex 0.022266000509262085 0.11060900241136551 -0.011621999554336071
   vertex 0.018543999642133713 0.10056799650192261 -0.01593099907040596
   vertex 0.018806999549269676 0.10746599733829498 -0.01496800035238266
  endloop
 endfacet
 facet normal 0.95781686057220683 0.0089404665156362154 -0.28724019506692361
  outer loop
   vertex 0.018806999549269676 0.10746599733829498 -0.01496800035238266
   vertex 0.017782000824809074 0.09714999794960022 -0.018706999719142914
   vertex 0.017625000327825546 0.098452001810073853 -0.019190000370144844
  endloop
 endfacet
 facet normal -0.33293600784103405 0.31938068591656832 -0.88721451303860954
  outer loop
   vertex 0.014309000223875046 0.11341000348329544 -0.013643000274896622
   vertex 0.015209999866783619 0.10527099668979645 -0.01691100001335144
   vertex 0.012098999693989754 0.10504200309514999 -0.015825999900698662
  endloop
 endfacet
 facet normal -0.60691791327137445 0.18796422211276123 -0.77221764921287894
  outer loop
   vertex 0.0053269998170435429 0.10229600220918655 -0.024380000308156013
   vertex 0.0070480001159012318 0.10956200212240219 -0.02396400086581707
   vertex 0.009089999832212925 0.10760600119829178 -0.026045000180602074
  endloop
 endfacet
 facet normal 0.21816601839934205 0.58994784806112299 0.77740923906513248
  outer loop
   vertex 0.0098649999126791954 0.10021799802780151 -0.020656000822782516
   vertex 0.012901999987661839 0.099904000759124756 -0.021269999444484711
   vertex 0.009089999832212925 0.10760600119829178 -0.026045000180602074
  endloop
 endfacet
 facet normal -0.48022492234456987 0.066061659052420396 -0.87465414945702602
  outer loop
   vertex 0.0053269998170435429 0.10229600220918655 -0.024380000308156013
   vertex 0.009089999832212925 0.10760600119829178 -0.026045000180602074
   vertex 0.010614999569952488 0.100552998483181 -0.027414999902248383
  endloop
 endfacet
 facet normal 0.91397399869717444 0.2583916210098523 -0.31286626519552735
  outer loop
   vertex 0.009089999832212925 0.10760600119829178 -0.026045000180602074
   vertex 0.012901999987661839 0.099904000759124756 -0.021269999444484711
   vertex 0.010614999569952488 0.100552998483181 -0.027414999902248383
  endloop
 endfacet
 facet normal 0.1634315598122654 0.92845162092540223 0.33356815324356553
  outer loop
   vertex 0.016031000763177872 0.098667003214359283 -0.019360000267624855
   vertex 0.012901999987661839 0.099904000759124756 -0.021269999444484711
   vertex 0.0098649999126791954 0.10021799802780151 -0.020656000822782516
  endloop
 endfacet
 facet normal -0.22075771169155756 0.62867010972257775 -0.74568084719275796
  outer loop
   vertex 0.0084530003368854523 0.099145002663135529 -0.027961999177932739
   vertex 0.0053269998170435429 0.10229600220918655 -0.024380000308156013
   vertex 0.010614999569952488 0.100552998483181 -0.027414999902248383
  endloop
 endfacet
 facet normal 0.47165815561504493 -0.42383870049890071 -0.77323951024324755
  outer loop
   vertex 0.010614999569952488 0.100552998483181 -0.027414999902248383
   vertex 0.012109999544918537 0.097840003669261932 -0.025016000494360924
   vertex 0.0084530003368854523 0.099145002663135529 -0.027961999177932739
  endloop
 endfacet
 facet normal 0.74034900566290673 -0.16766463562541961 -0.65097766457424666
  outer loop
   vertex 0.014897000044584274 0.098650000989437103 -0.022055000066757202
   vertex 0.012109999544918537 0.097840003669261932 -0.025016000494360924
   vertex 0.010614999569952488 0.100552998483181 -0.027414999902248383
  endloop
 endfacet
 facet normal 0.26085507191253565 0.36400260022658865 -0.89412344700594237
  outer loop
   vertex 0.018806999549269676 0.10746599733829498 -0.01496800035238266
   vertex 0.016031000763177872 0.098667003214359283 -0.019360000267624855
   vertex 0.015209999866783619 0.10527099668979645 -0.01691100001335144
  endloop
 endfacet
 facet normal 0.070658935264735212 0.88608258727845512 0.45811020878078329
  outer loop
   vertex 0.017625000327825546 0.098452001810073853 -0.019190000370144844
   vertex 0.012901999987661839 0.099904000759124756 -0.021269999444484711
   vertex 0.016031000763177872 0.098667003214359283 -0.019360000267624855
  endloop
 endfacet
 facet normal 0.24599277057319829 0.38448741633898526 -0.88975107951757704
  outer loop
   vertex 0.014309000223875046 0.11341000348329544 -0.013643000274896622
   vertex 0.018806999549269676 0.10746599733829498 -0.01496800035238266
   vertex 0.015209999866783619 0.10527099668979645 -0.01691100001335144
  endloop
 endfacet
 facet normal 0.6301771603335331 0.53460121772335267 -0.56309704723313292
  outer loop
   vertex 0.017625000327825546 0.098452001810073853 -0.019190000370144844
   vertex 0.015266000293195248 0.09742400050163269 -0.022805999964475632
   vertex 0.014897000044584274 0.098650000989437103 -0.022055000066757202
  endloop
 endfacet
 facet normal 0.48253141378186787 0.82709379560921215 -0.28823477926582497
  outer loop
   vertex 0.022266000509262085 0.11060900241136551 0.011366000398993492
   vertex 0.013654000125825405 0.11513599753379822 0.0099390000104904175
   vertex 0.017407000064849854 0.11347199976444244 0.011447000317275524
  endloop
 endfacet
 facet normal 0.37837561360049587 0.92250528765703299 0.076261977926506005
  outer loop
   vertex 0.017407000064849854 0.11347199976444244 0.011447000317275524
   vertex 0.013654000125825405 0.11513599753379822 0.0099390000104904175
   vertex 0.015151999890804291 0.11433400213718414 0.0122079998254776
  endloop
 endfacet
 facet normal 0.24698588855615297 0.91217011666990111 -0.32702239848142922
  outer loop
   vertex 0.022266000509262085 0.11060900241136551 0.011366000398993492
   vertex 0.024738000705838203 0.10944599658250809 0.0099889999255537987
   vertex 0.014426000416278839 0.11023300141096115 0.0043959999457001686
  endloop
 endfacet
 facet normal 0.13299512916296602 0.98537235318024075 -0.10655337257431557
  outer loop
   vertex 0.024738000705838203 0.10944599658250809 0.0099889999255537987
   vertex 0.028126999735832214 0.10860200226306915 0.0064139999449253082
   vertex 0.014426000416278839 0.11023300141096115 0.0043959999457001686
  endloop
 endfacet
 facet normal -0.8201370552062055 0.37629028329916481 -0.4310230079384717
  outer loop
   vertex 0.014426000416278839 0.11023300141096115 0.0043959999457001686
   vertex 0.021850999444723129 0.12123399972915649 -0.00012799999967683107
   vertex 0.016280999407172203 0.10909400135278702 -0.00012799999967683107
  endloop
 endfacet
 facet normal 0.10441681918925515 0.97373273426673201 -0.20234053001767224
  outer loop
   vertex 0.014426000416278839 0.11023300141096115 0.0043959999457001686
   vertex 0.016280999407172203 0.10909400135278702 -0.00012799999967683107
   vertex 0.013473000377416611 0.10984499752521515 0.00203699991106987
  endloop
 endfacet
 facet normal 0.45910702864572267 0.50962664353826437 0.72766848251385641
  outer loop
   vertex 0.018806999549269676 0.10746599733829498 0.014712000265717506
   vertex 0.015151999890804291 0.11433400213718414 0.0122079998254776
   vertex 0.014309000223875046 0.11341000348329544 0.013387000188231468
  endloop
 endfacet
 facet normal -0.56312271678620474 0.20344341653922104 -0.80093918752060866
  outer loop
   vertex 0.016280999407172203 0.10909400135278702 -0.00012799999967683107
   vertex 0.010545000433921814 0.093217000365257263 -0.00012799999967683107
   vertex 0.013473000377416611 0.10984499752521515 0.00203699991106987
  endloop
 endfacet
 facet normal -0.5631227313547319 0.20344342180249825 0.80093917594089337
  outer loop
   vertex 0.010545000433921814 0.093217000365257263 -0.00012799999967683107
   vertex 0.016280999407172203 0.10909400135278702 -0.00012799999967683107
   vertex 0.013473000377416611 0.10984499752521515 -0.0022929999977350235
  endloop
 endfacet
 facet normal 0.44510685633401242 0.52216026479826205 -0.72748095803963264
  outer loop
   vertex 0.017407000064849854 0.11347199976444244 -0.011703000403940678
   vertex 0.014309000223875046 0.11341000348329544 -0.013643000274896622
   vertex 0.015151999890804291 0.11433400213718414 -0.012463999912142754
  endloop
 endfacet
 facet normal 0.37837561360049587 0.92250528765703299 -0.076261977926506005
  outer loop
   vertex 0.013654000125825405 0.11513599753379822 -0.010195000097155571
   vertex 0.017407000064849854 0.11347199976444244 -0.011703000403940678
   vertex 0.015151999890804291 0.11433400213718414 -0.012463999912142754
  endloop
 endfacet
 facet normal 0.51241636590399964 0.67738479122556605 0.52780613161466261
  outer loop
   vertex 0.014426000416278839 0.11023300141096115 -0.0046520000323653221
   vertex 0.017407000064849854 0.11347199976444244 -0.011703000403940678
   vertex 0.013654000125825405 0.11513599753379822 -0.010195000097155571
  endloop
 endfacet
 facet normal 0.24698593657809625 0.91217006954756441 0.32702249365178526
  outer loop
   vertex 0.024738000705838203 0.10944599658250809 -0.010245000012218952
   vertex 0.022266000509262085 0.11060900241136551 -0.011621999554336071
   vertex 0.014426000416278839 0.11023300141096115 -0.0046520000323653221
  endloop
 endfacet
 facet normal 0.13299512916296602 0.98537235318024075 0.10655337257431557
  outer loop
   vertex 0.028126999735832214 0.10860200226306915 -0.0066700000315904617
   vertex 0.024738000705838203 0.10944599658250809 -0.010245000012218952
   vertex 0.014426000416278839 0.11023300141096115 -0.0046520000323653221
  endloop
 endfacet
 facet normal -0.46546782815109944 0.21356311095782188 -0.85891239285174814
  outer loop
   vertex 0.028126999735832214 0.10860200226306915 -0.0066700000315904617
   vertex 0.016280999407172203 0.10909400135278702 -0.00012799999967683107
   vertex 0.021850999444723129 0.12123399972915649 -0.00012799999967683107
  endloop
 endfacet
 facet normal 0.10441681448520806 0.97373273513633529 0.20234052826033969
  outer loop
   vertex 0.016280999407172203 0.10909400135278702 -0.00012799999967683107
   vertex 0.014426000416278839 0.11023300141096115 -0.0046520000323653221
   vertex 0.013473000377416611 0.10984499752521515 -0.0022929999977350235
  endloop
 endfacet
 facet normal 0.90879277890965215 0.30290791922578891 -0.28695378978500197
  outer loop
   vertex 0.028126999735832214 0.10860200226306915 0.0064139999449253082
   vertex 0.03061399981379509 0.094943001866340637 -0.00012799999967683107
   vertex 0.021850999444723129 0.12123399972915649 -0.00012799999967683107
  endloop
 endfacet
 facet normal 0.94866793730651866 0.31619862920841563 -0.0068972177951799017
  outer loop
   vertex 0.030648000538349152 0.094797998666763306 -0.0020989999175071716
   vertex 0.021850999444723129 0.12123399972915649 -0.00012799999967683107
   vertex 0.03061399981379509 0.094943001866340637 -0.00012799999967683107
  endloop
 endfacet
 facet normal 0.31321753039502614 0.50889907489515218 0.80182074694042393
  outer loop
   vertex 0.022266000509262085 0.11060900241136551 0.011366000398993492
   vertex 0.017407000064849854 0.11347199976444244 0.011447000317275524
   vertex 0.018806999549269676 0.10746599733829498 0.014712000265717506
  endloop
 endfacet
 facet normal 0.50230061331341558 0.85932672605950911 0.096185610903147464
  outer loop
   vertex 0.010614999569952488 0.100552998483181 0.027170000597834587
   vertex 0.014897000044584274 0.098650000989437103 0.021810000762343407
   vertex 0.012901999987661839 0.099904000759124756 0.021025000140070915
  endloop
 endfacet
 facet normal 0.31321768445122161 0.50889907727101424 -0.80182068525308414
  outer loop
   vertex 0.017407000064849854 0.11347199976444244 -0.011703000403940678
   vertex 0.022266000509262085 0.11060900241136551 -0.011621999554336071
   vertex 0.018806999549269676 0.10746599733829498 -0.01496800035238266
  endloop
 endfacet
 facet normal 0.50230061331341558 0.85932672605950911 -0.096185610903147464
  outer loop
   vertex 0.014897000044584274 0.098650000989437103 -0.022055000066757202
   vertex 0.010614999569952488 0.100552998483181 -0.027414999902248383
   vertex 0.012901999987661839 0.099904000759124756 -0.021269999444484711
  endloop
 endfacet
endsolid
