solid Visualization Toolkit generated SLA File
 facet normal -0.75631907854913605 0.64778293176733914 0.091426061566146008
  outer loop
   vertex -0.023696999996900558 0.015077999792993069 -0.00013200000103097409
   vertex -0.016284000128507614 0.023197999224066734 0.0036589999217540026
   vertex -0.016905000433325768 0.023008000105619431 -0.00013200000103097409
  endloop
 endfacet
 facet normal -0.071299589261961518 0.47466594641802456 -0.87727339403526683
  outer loop
   vertex -0.023696999996900558 0.015077999792993069 -0.00013200000103097409
   vertex -0.02464899979531765 0.014934999868273735 -0.00013200000103097409
   vertex -0.016284000128507614 0.023197999224066734 0.0036589999217540026
  endloop
 endfacet
 facet normal -0.7563174105269862 0.64778150311598126 -0.091449979521890004
  outer loop
   vertex -0.023696999996900558 0.015077999792993069 -0.00013200000103097409
   vertex -0.016905000433325768 0.023008000105619431 -0.00013200000103097409
   vertex -0.016284000128507614 0.023197999224066734 -0.0039220000617206097
  endloop
 endfacet
 facet normal -0.071285115452300943 0.47456958927723419 0.87732669926783236
  outer loop
   vertex -0.023696999996900558 0.015077999792993069 -0.00013200000103097409
   vertex -0.016284000128507614 0.023197999224066734 -0.0039220000617206097
   vertex -0.02464899979531765 0.014934999868273735 -0.00013200000103097409
  endloop
 endfacet
 facet normal 0.98120781355144615 -0.192455332883463 0.013862592481428104
  outer loop
   vertex -0.019998999312520027 0.0073770000599324703 0.0018579999450594187
   vertex -0.016905000433325768 0.023008000105619431 -0.00013200000103097409
   vertex -0.017059000208973885 0.022326000034809113 0.0013000000035390258
  endloop
 endfacet
 facet normal 0.98096011205378408 -0.19420908791514072 -0.00029787681495620997
  outer loop
   vertex -0.019999999552965164 0.0073750000447034836 -0.00013200000103097409
   vertex -0.016905000433325768 0.023008000105619431 -0.00013200000103097409
   vertex -0.019998999312520027 0.0073770000599324703 0.0018579999450594187
  endloop
 endfacet
 facet normal 0.88223596700645779 -0.45479980838228917 -0.12172441339194524
  outer loop
   vertex -0.016905000433325768 0.023008000105619431 -0.00013200000103097409
   vertex -0.016284000128507614 0.023197999224066734 0.0036589999217540026
   vertex -0.017059000208973885 0.022326000034809113 0.0013000000035390258
  endloop
 endfacet
 facet normal 0.98120764140881411 -0.19245624310574183 -0.013862140187416491
  outer loop
   vertex -0.016905000433325768 0.023008000105619431 -0.00013200000103097409
   vertex -0.019998999312520027 0.0073770000599324703 -0.0021210000850260258
   vertex -0.017059000208973885 0.022326000034809113 -0.0015640000347048044
  endloop
 endfacet
 facet normal 0.98096011201001776 -0.19420908790647592 0.00029802655638272126
  outer loop
   vertex -0.016905000433325768 0.023008000105619431 -0.00013200000103097409
   vertex -0.019999999552965164 0.0073750000447034836 -0.00013200000103097409
   vertex -0.019998999312520027 0.0073770000599324703 -0.0021210000850260258
  endloop
 endfacet
 facet normal 0.8822083662116792 -0.45484658866330735 0.12174965859283474
  outer loop
   vertex -0.016284000128507614 0.023197999224066734 -0.0039220000617206097
   vertex -0.016905000433325768 0.023008000105619431 -0.00013200000103097409
   vertex -0.017059000208973885 0.022326000034809113 -0.0015640000347048044
  endloop
 endfacet
 facet normal -0.25100377584632783 0.93185567531705904 -0.26199638335342418
  outer loop
   vertex -0.011285999789834023 0.026515999808907509 0.010672000236809254
   vertex -0.017059000208973885 0.022326000034809113 0.0013000000035390258
   vertex -0.016284000128507614 0.023197999224066734 0.0036589999217540026
  endloop
 endfacet
 facet normal -0.26930266748201276 0.93049335989098081 -0.24831065318641882
  outer loop
   vertex -0.011285999789834023 0.026515999808907509 0.010672000236809254
   vertex -0.016284000128507614 0.023197999224066734 0.0036589999217540026
   vertex -0.017241999506950378 0.023103000596165657 0.0043420000001788139
  endloop
 endfacet
 facet normal -0.77235630753508533 0.60560360069054897 0.19159857264972222
  outer loop
   vertex -0.016284000128507614 0.023197999224066734 0.0036589999217540026
   vertex -0.026110999286174774 0.010363000445067883 0.0046140002086758614
   vertex -0.019169999286532402 0.017402999103069305 0.010342000052332878
  endloop
 endfacet
 facet normal -0.43436661229550078 -0.57920245977345708 -0.68981893038340658
  outer loop
   vertex -0.019169999286532402 0.017402999103069305 0.010342000052332878
   vertex -0.017241999506950378 0.023103000596165657 0.0043420000001788139
   vertex -0.016284000128507614 0.023197999224066734 0.0036589999217540026
  endloop
 endfacet
 facet normal -0.025477770463879858 0.53905944043288867 0.84188229752880006
  outer loop
   vertex -0.02464899979531765 0.014934999868273735 -0.00013200000103097409
   vertex -0.03740999847650528 0.0093029998242855072 0.0030879999976605177
   vertex -0.031789001077413559 0.009260999970138073 0.0032850001007318497
  endloop
 endfacet
 facet normal -0.28668375775934246 0.73255925949150968 0.61738914338546136
  outer loop
   vertex -0.026110999286174774 0.010363000445067883 0.0046140002086758614
   vertex -0.02464899979531765 0.014934999868273735 -0.00013200000103097409
   vertex -0.031789001077413559 0.009260999970138073 0.0032850001007318497
  endloop
 endfacet
 facet normal -0.012486892930181945 0.84398395717041474 -0.53622304831470802
  outer loop
   vertex -0.037489999085664749 0.011346999555826187 -0.00013200000103097409
   vertex -0.031789001077413559 0.009260999970138073 -0.0035480000078678131
   vertex -0.03740999847650528 0.0093029998242855072 -0.0033509999047964811
  endloop
 endfacet
 facet normal -0.28668834753845951 0.73249840138802791 -0.61745921594033304
  outer loop
   vertex -0.02464899979531765 0.014934999868273735 -0.00013200000103097409
   vertex -0.026110999286174774 0.010363000445067883 -0.0048770001158118248
   vertex -0.031789001077413559 0.009260999970138073 -0.0035480000078678131
  endloop
 endfacet
 facet normal -0.78811793479055714 0.54631499367287528 -0.28356665627268912
  outer loop
   vertex -0.02464899979531765 0.014934999868273735 -0.00013200000103097409
   vertex -0.019169999286532402 0.017402999103069305 -0.010604999959468842
   vertex -0.026110999286174774 0.010363000445067883 -0.0048770001158118248
  endloop
 endfacet
 facet normal -0.25062574993475167 0.93188787428760911 0.262243633336187
  outer loop
   vertex -0.017059000208973885 0.022326000034809113 -0.0015640000347048044
   vertex -0.011285999789834023 0.026515999808907509 -0.010936000384390354
   vertex -0.016284000128507614 0.023197999224066734 -0.0039220000617206097
  endloop
 endfacet
 facet normal -0.26928867484108393 0.93050298130322839 0.24828977302365246
  outer loop
   vertex -0.016284000128507614 0.023197999224066734 -0.0039220000617206097
   vertex -0.011285999789834023 0.026515999808907509 -0.010936000384390354
   vertex -0.017241999506950378 0.023103000596165657 -0.0046049999073147774
  endloop
 endfacet
 facet normal -0.43436645679200392 -0.57920254240785563 0.68981895891765432
  outer loop
   vertex -0.017241999506950378 0.023103000596165657 -0.0046049999073147774
   vertex -0.019169999286532402 0.017402999103069305 -0.010604999959468842
   vertex -0.016284000128507614 0.023197999224066734 -0.0039220000617206097
  endloop
 endfacet
 facet normal 0.82424962224205522 -0.18211648061767738 -0.53614004487751188
  outer loop
   vertex -0.014437000267207623 0.012663999572396278 0.0086129996925592422
   vertex -0.019998999312520027 0.0073770000599324703 0.0018579999450594187
   vertex -0.017059000208973885 0.022326000034809113 0.0013000000035390258
  endloop
 endfacet
 facet normal 0.42810637601895329 -0.84835122331427804 0.31148857557394705
  outer loop
   vertex -0.014437000267207623 0.012663999572396278 0.0086129996925592422
   vertex -0.026071999222040176 0.0057769999839365482 0.0058470000512897968
   vertex -0.019998999312520027 0.0073770000599324703 0.0018579999450594187
  endloop
 endfacet
 facet normal 0.2552855308823454 -0.96686534035044336 0.00084341635050340705
  outer loop
   vertex -0.026071999222040176 0.0057769999839365482 0.0058470000512897968
   vertex -0.019999999552965164 0.0073750000447034836 -0.00013200000103097409
   vertex -0.019998999312520027 0.0073770000599324703 0.0018579999450594187
  endloop
 endfacet
 facet normal 0.86884919413401507 -0.12649553868601535 -0.47864387235731709
  outer loop
   vertex -0.011285999789834023 0.026515999808907509 0.010672000236809254
   vertex -0.014437000267207623 0.012663999572396278 0.0086129996925592422
   vertex -0.017059000208973885 0.022326000034809113 0.0013000000035390258
  endloop
 endfacet
 facet normal 0.25524507554532155 -0.96687602064116585 -0.00084387141626994489
  outer loop
   vertex -0.026076000183820724 0.005770999938249588 -0.00013200000103097409
   vertex -0.019998999312520027 0.0073770000599324703 -0.0021210000850260258
   vertex -0.019999999552965164 0.0073750000447034836 -0.00013200000103097409
  endloop
 endfacet
 facet normal 0.86884919667854299 -0.12649554000314323 0.47864386739032139
  outer loop
   vertex -0.014437000267207623 0.012663999572396278 -0.0088769998401403427
   vertex -0.011285999789834023 0.026515999808907509 -0.010936000384390354
   vertex -0.017059000208973885 0.022326000034809113 -0.0015640000347048044
  endloop
 endfacet
 facet normal 0.8242773095053032 -0.18208487899425324 0.53610821097642847
  outer loop
   vertex -0.019998999312520027 0.0073770000599324703 -0.0021210000850260258
   vertex -0.014437000267207623 0.012663999572396278 -0.0088769998401403427
   vertex -0.017059000208973885 0.022326000034809113 -0.0015640000347048044
  endloop
 endfacet
 facet normal 0.41041310893167399 -0.86904964545956886 -0.27624951356271288
  outer loop
   vertex -0.020735999569296837 0.0098519995808601379 -0.011002000421285629
   vertex -0.019998999312520027 0.0073770000599324703 -0.0021210000850260258
   vertex -0.026071999222040176 0.0057769999839365482 -0.0061099999584257603
  endloop
 endfacet
 facet normal 0.7526615161835275 0.65828402239296013 0.012758836877177916
  outer loop
   vertex -0.0066780000925064087 0.02124599926173687 0.010742000304162502
   vertex -0.011285999789834023 0.026515999808907509 0.010672000236809254
   vertex -0.0079809995368123055 0.022710999473929405 0.012021999806165695
  endloop
 endfacet
 facet normal -0.7496197758553067 0.64281474955336071 0.15766860627052501
  outer loop
   vertex -0.011285999789834023 0.026515999808907509 0.010672000236809254
   vertex -0.019169999286532402 0.017402999103069305 0.010342000052332878
   vertex -0.012985999695956707 0.022236999124288559 0.020035000517964363
  endloop
 endfacet
 facet normal 0.60669451638296312 0.6755994881127616 0.41891179913272575
  outer loop
   vertex -0.011285999789834023 0.026515999808907509 0.010672000236809254
   vertex -0.012985999695956707 0.022236999124288559 0.020035000517964363
   vertex -0.0079809995368123055 0.022710999473929405 0.012021999806165695
  endloop
 endfacet
 facet normal -0.72532316800931218 0.17298003749182264 0.66632140036041354
  outer loop
   vertex -0.026110999286174774 0.010363000445067883 0.0046140002086758614
   vertex -0.026071999222040176 0.0057769999839365482 0.0058470000512897968
   vertex -0.019169999286532402 0.017402999103069305 0.010342000052332878
  endloop
 endfacet
 facet normal -0.73764515012093079 0.18708864084822041 0.64875070170955118
  outer loop
   vertex -0.019169999286532402 0.017402999103069305 0.010342000052332878
   vertex -0.026071999222040176 0.0057769999839365482 0.0058470000512897968
   vertex -0.020735999569296837 0.0098519995808601379 0.010738999582827091
  endloop
 endfacet
 facet normal -0.86826708229035665 0.20384874545232659 0.45228084503823918
  outer loop
   vertex -0.019169999286532402 0.017402999103069305 0.010342000052332878
   vertex -0.020735999569296837 0.0098519995808601379 0.010738999582827091
   vertex -0.012985999695956707 0.022236999124288559 0.020035000517964363
  endloop
 endfacet
 facet normal -0.26357699782245603 0.22755630376340619 0.93741415331561828
  outer loop
   vertex -0.031789001077413559 0.009260999970138073 0.0032850001007318497
   vertex -0.028655000030994415 0.005681999959051609 0.0050349999219179153
   vertex -0.026110999286174774 0.010363000445067883 0.0046140002086758614
  endloop
 endfacet
 facet normal -0.18705339693132553 0.31849762360954031 0.92928482740843654
  outer loop
   vertex -0.031789001077413559 0.009260999970138073 0.0032850001007318497
   vertex -0.038731001317501068 0.00085700000636279583 0.0047679999843239784
   vertex -0.034894000738859177 0.002736999886110425 0.0048960000276565552
  endloop
 endfacet
 facet normal -0.032826582910931927 0.19992001912142748 0.97926217194828868
  outer loop
   vertex -0.03740999847650528 0.0093029998242855072 0.0030879999976605177
   vertex -0.038731001317501068 0.00085700000636279583 0.0047679999843239784
   vertex -0.031789001077413559 0.009260999970138073 0.0032850001007318497
  endloop
 endfacet
 facet normal -0.37847580725222868 0.77717831423774453 0.50274241038861212
  outer loop
   vertex -0.037489999085664749 0.011346999555826187 -0.00013200000103097409
   vertex -0.043249998241662979 0.0060120001435279846 0.0037789999041706324
   vertex -0.03740999847650528 0.0093029998242855072 0.0030879999976605177
  endloop
 endfacet
 facet normal 0.0067024084079952018 0.19407589442345449 0.98096362059215458
  outer loop
   vertex -0.038731001317501068 0.00085700000636279583 0.0047679999843239784
   vertex -0.03740999847650528 0.0093029998242855072 0.0030879999976605177
   vertex -0.043249998241662979 0.0060120001435279846 0.0037789999041706324
  endloop
 endfacet
 facet normal -0.29417845713451768 0.66596802185212589 -0.6855258049324775
  outer loop
   vertex -0.042617999017238617 0.010316000320017338 -0.00013200000103097409
   vertex -0.03740999847650528 0.0093029998242855072 -0.0033509999047964811
   vertex -0.043249998241662979 0.0060120001435279846 -0.0040420000441372395
  endloop
 endfacet
 facet normal -0.032826582910931927 0.19992001912142748 -0.97926217194828868
  outer loop
   vertex -0.038731001317501068 0.00085700000636279583 -0.0050309998914599419
   vertex -0.03740999847650528 0.0093029998242855072 -0.0033509999047964811
   vertex -0.031789001077413559 0.009260999970138073 -0.0035480000078678131
  endloop
 endfacet
 facet normal 0.0067024513043481941 0.19407588791215863 -0.9809636215872739
  outer loop
   vertex -0.03740999847650528 0.0093029998242855072 -0.0033509999047964811
   vertex -0.038731001317501068 0.00085700000636279583 -0.0050309998914599419
   vertex -0.043249998241662979 0.0060120001435279846 -0.0040420000441372395
  endloop
 endfacet
 facet normal -0.18742599510210223 0.31877534811942532 -0.92911451059130812
  outer loop
   vertex -0.038731001317501068 0.00085700000636279583 -0.0050309998914599419
   vertex -0.031789001077413559 0.009260999970138073 -0.0035480000078678131
   vertex -0.034894000738859177 0.002736999886110425 -0.0051600001752376556
  endloop
 endfacet
 facet normal 0.085731205147761183 -0.1353685705982049 0.98707928281273916
  outer loop
   vertex -0.034894000738859177 0.002736999886110425 -0.0051600001752376556
   vertex -0.028655000030994415 0.005681999959051609 -0.0052979998290538788
   vertex -0.026110999286174774 0.010363000445067883 -0.0048770001158118248
  endloop
 endfacet
 facet normal -0.28789520896975407 -0.19184406887212235 -0.93824954137524086
  outer loop
   vertex -0.028655000030994415 0.005681999959051609 -0.0052979998290538788
   vertex -0.019169999286532402 0.017402999103069305 -0.010604999959468842
   vertex -0.026071999222040176 0.0057769999839365482 -0.0061099999584257603
  endloop
 endfacet
 facet normal -0.80760770033919449 0.53478846397457447 -0.24853792699013397
  outer loop
   vertex -0.017241999506950378 0.023103000596165657 -0.0046049999073147774
   vertex -0.012985999695956707 0.022236999124288559 -0.020298000425100327
   vertex -0.019169999286532402 0.017402999103069305 -0.010604999959468842
  endloop
 endfacet
 facet normal -0.73764522758235407 0.18708873093182496 -0.64875058765545346
  outer loop
   vertex -0.026071999222040176 0.0057769999839365482 -0.0061099999584257603
   vertex -0.019169999286532402 0.017402999103069305 -0.010604999959468842
   vertex -0.020735999569296837 0.0098519995808601379 -0.011002000421285629
  endloop
 endfacet
 facet normal -0.8682670833149323 0.20384880005085793 -0.45228081846304946
  outer loop
   vertex -0.020735999569296837 0.0098519995808601379 -0.011002000421285629
   vertex -0.019169999286532402 0.017402999103069305 -0.010604999959468842
   vertex -0.012985999695956707 0.022236999124288559 -0.020298000425100327
  endloop
 endfacet
 facet normal 0.41687367950697618 0.040150330128995937 0.90807724689304259
  outer loop
   vertex -0.014437000267207623 0.012663999572396278 -0.0088769998401403427
   vertex -0.0079809995368123055 0.022710999473929405 -0.012284999713301659
   vertex -0.011285999789834023 0.026515999808907509 -0.010936000384390354
  endloop
 endfacet
 facet normal 0.60674231300295201 0.67554022385241319 -0.4189381476653315
  outer loop
   vertex -0.012985999695956707 0.022236999124288559 -0.020298000425100327
   vertex -0.011285999789834023 0.026515999808907509 -0.010936000384390354
   vertex -0.0079809995368123055 0.022710999473929405 -0.012284999713301659
  endloop
 endfacet
 facet normal 0.025649554221238102 0.21879338473259002 -0.97543403424604203
  outer loop
   vertex -0.0066780000925064087 0.02124599926173687 0.010742000304162502
   vertex -0.0028780000284314156 0.015571000054478645 0.0095690004527568817
   vertex -0.014437000267207623 0.012663999572396278 0.0086129996925592422
  endloop
 endfacet
 facet normal 0.043926736925077328 0.15014808197923804 -0.98768719504763802
  outer loop
   vertex -0.0028780000284314156 0.015571000054478645 0.0095690004527568817
   vertex -0.0060330000706017017 0.010133000090718269 0.0086019998416304588
   vertex -0.014437000267207623 0.012663999572396278 0.0086129996925592422
  endloop
 endfacet
 facet normal -0.1927355598361471 -0.64318511886645136 0.74105728985240771
  outer loop
   vertex -0.0044579999521374702 0.021359000355005264 0.018755000084638596
   vertex -0.014437000267207623 0.012663999572396278 0.0086129996925592422
   vertex -0.0060330000706017017 0.010133000090718269 0.0086019998416304588
  endloop
 endfacet
 facet normal 0.46622281625552492 -0.84407140862541519 0.26491459518847704
  outer loop
   vertex -0.0044579999521374702 0.021359000355005264 0.018755000084638596
   vertex -0.020735999569296837 0.0098519995808601379 0.010738999582827091
   vertex -0.014437000267207623 0.012663999572396278 0.0086129996925592422
  endloop
 endfacet
 facet normal -0.036457138174086808 0.9993347699794255 -0.00094582573675425219
  outer loop
   vertex -0.028658000752329826 0.0056770001538097858 -0.00013200000103097409
   vertex -0.028655000030994415 0.005681999959051609 0.0050349999219179153
   vertex -0.026071999222040176 0.0057769999839365482 0.0058470000512897968
  endloop
 endfacet
 facet normal -0.8736285208559319 0.4778831498659179 0.091656437969763083
  outer loop
   vertex -0.020735999569296837 0.0098519995808601379 0.010738999582827091
   vertex -0.015742000192403793 0.01691100001335144 0.021534999832510948
   vertex -0.012985999695956707 0.022236999124288559 0.020035000517964363
  endloop
 endfacet
 facet normal -0.92332438623130864 0.31305150025257328 0.22242040369577221
  outer loop
   vertex -0.020735999569296837 0.0098519995808601379 0.010738999582827091
   vertex -0.019409999251365662 0.010569999925792217 0.015232999809086323
   vertex -0.015742000192403793 0.01691100001335144 0.021534999832510948
  endloop
 endfacet
 facet normal -0.78161591410314868 0.60935731342196753 0.13326750316510472
  outer loop
   vertex -0.020735999569296837 0.0098519995808601379 0.010738999582827091
   vertex -0.018338000401854515 0.010857000015676022 0.020207999274134636
   vertex -0.019409999251365662 0.010569999925792217 0.015232999809086323
  endloop
 endfacet
 facet normal 0.036446839229601465 -0.99933511406273945 -0.00097862729539565881
  outer loop
   vertex -0.026076000183820724 0.005770999938249588 -0.00013200000103097409
   vertex -0.028655000030994415 0.005681999959051609 -0.0052979998290538788
   vertex -0.026071999222040176 0.0057769999839365482 -0.0061099999584257603
  endloop
 endfacet
 facet normal 0.02568726016275847 0.2186531575194926 0.97546448493632343
  outer loop
   vertex -0.0028780000284314156 0.015571000054478645 -0.0098329996690154076
   vertex -0.0066780000925064087 0.02124599926173687 -0.011005000211298466
   vertex -0.014437000267207623 0.012663999572396278 -0.0088769998401403427
  endloop
 endfacet
 facet normal 0.043871901397368802 0.1503561958980425 0.9876579724898944
  outer loop
   vertex -0.0060330000706017017 0.010133000090718269 -0.0088649997487664223
   vertex -0.0028780000284314156 0.015571000054478645 -0.0098329996690154076
   vertex -0.014437000267207623 0.012663999572396278 -0.0088769998401403427
  endloop
 endfacet
 facet normal -0.19266312595533949 -0.6432373445503542 -0.74103079455102683
  outer loop
   vertex -0.014437000267207623 0.012663999572396278 -0.0088769998401403427
   vertex -0.0044579999521374702 0.021359000355005264 -0.019019000232219696
   vertex -0.0060330000706017017 0.010133000090718269 -0.0088649997487664223
  endloop
 endfacet
 facet normal 0.40599823609952623 -0.91385529475799576 0.0058251632466386986
  outer loop
   vertex -0.018338000401854515 0.010857000015676022 -0.020470999181270599
   vertex -0.014437000267207623 0.012663999572396278 -0.0088769998401403427
   vertex -0.020735999569296837 0.0098519995808601379 -0.011002000421285629
  endloop
 endfacet
 facet normal -0.87362851953615173 0.47788315102453044 -0.091656444508489088
  outer loop
   vertex -0.015742000192403793 0.01691100001335144 -0.021797999739646912
   vertex -0.020735999569296837 0.0098519995808601379 -0.011002000421285629
   vertex -0.012985999695956707 0.022236999124288559 -0.020298000425100327
  endloop
 endfacet
 facet normal -0.92332439071918393 0.31305144731690238 -0.22242045957114748
  outer loop
   vertex -0.019409999251365662 0.010569999925792217 -0.015495999716222286
   vertex -0.020735999569296837 0.0098519995808601379 -0.011002000421285629
   vertex -0.015742000192403793 0.01691100001335144 -0.021797999739646912
  endloop
 endfacet
 facet normal -0.78161578686976974 0.60935748478064389 -0.1332674658637959
  outer loop
   vertex -0.018338000401854515 0.010857000015676022 -0.020470999181270599
   vertex -0.020735999569296837 0.0098519995808601379 -0.011002000421285629
   vertex -0.019409999251365662 0.010569999925792217 -0.015495999716222286
  endloop
 endfacet
 facet normal -0.6354045085304354 0.42868915912421796 -0.64225128679401411
  outer loop
   vertex -0.001576000009663403 0.025689000263810158 0.008659999817609787
   vertex -0.0066780000925064087 0.02124599926173687 0.010742000304162502
   vertex -0.0015899999998509884 0.027104999870061874 0.0096190003678202629
  endloop
 endfacet
 facet normal -0.35616865925837055 0.46468450218492219 0.81068625225252555
  outer loop
   vertex -0.0015899999998509884 0.027104999870061874 0.0096190003678202629
   vertex -0.0066780000925064087 0.02124599926173687 0.010742000304162502
   vertex -0.0035910001024603844 0.022274000570178032 0.011509000323712826
  endloop
 endfacet
 facet normal -0.025039736325837614 0.64502991688855804 -0.76374695935464909
  outer loop
   vertex -0.0035910001024603844 0.022274000570178032 0.011509000323712826
   vertex -0.0066780000925064087 0.02124599926173687 0.010742000304162502
   vertex -0.0079809995368123055 0.022710999473929405 0.012021999806165695
  endloop
 endfacet
 facet normal 0.25757687122958095 0.77687479969572182 -0.57456044155973018
  outer loop
   vertex -0.0022100000642240047 0.02268500067293644 0.014573999680578709
   vertex -0.0079809995368123055 0.022710999473929405 0.012021999806165695
   vertex -0.0061249998398125172 0.025422999635338783 0.016520999372005463
  endloop
 endfacet
 facet normal -0.51724063078641125 0.81040914380934503 -0.27513478423107418
  outer loop
   vertex -0.0061249998398125172 0.025422999635338783 0.016520999372005463
   vertex -0.0079809995368123055 0.022710999473929405 0.012021999806165695
   vertex -0.012985999695956707 0.022236999124288559 0.020035000517964363
  endloop
 endfacet
 facet normal 0.19258626151369479 0.17240977930798232 0.96601521720682626
  outer loop
   vertex -0.012985999695956707 0.022236999124288559 0.020035000517964363
   vertex -0.015742000192403793 0.01691100001335144 0.021534999832510948
   vertex -0.010219999589025974 0.018206000328063965 0.0202029999345541
  endloop
 endfacet
 facet normal -0.4900335151063 0.85199626051351485 -0.18430823677619618
  outer loop
   vertex -0.012985999695956707 0.022236999124288559 0.020035000517964363
   vertex -0.0040279999375343323 0.027648000046610832 0.021230999380350113
   vertex -0.0061249998398125172 0.025422999635338783 0.016520999372005463
  endloop
 endfacet
 facet normal -0.42685287300026464 0.90432085524072303 -0.00064466123432155677
  outer loop
   vertex -0.034896999597549438 0.0027320000808686018 -0.00013200000103097409
   vertex -0.034894000738859177 0.002736999886110425 0.0048960000276565552
   vertex -0.028655000030994415 0.005681999959051609 0.0050349999219179153
  endloop
 endfacet
 facet normal 0.43997811294797501 -0.89800837691786373 0.00046380177111023313
  outer loop
   vertex -0.03873400017619133 0.00085299997590482235 -0.00013200000103097409
   vertex -0.034894000738859177 0.002736999886110425 0.0048960000276565552
   vertex -0.038731001317501068 0.00085700000636279583 0.0047679999843239784
  endloop
 endfacet
 facet normal -0.92510844076548371 -0.37970199525689446 0.00087614062159921489
  outer loop
   vertex -0.03873400017619133 0.00085299997590482235 -0.00013200000103097409
   vertex -0.038731001317501068 0.00085700000636279583 0.0047679999843239784
   vertex -0.042617999017238617 0.010316000320017338 -0.00013200000103097409
  endloop
 endfacet
 facet normal 0.016732508195628781 -0.45447775770466903 -0.89060091563012633
  outer loop
   vertex -0.043248001486063004 0.0028109999839216471 0.0036859998945146799
   vertex -0.042617999017238617 0.010316000320017338 -0.00013200000103097409
   vertex -0.038731001317501068 0.00085700000636279583 0.0047679999843239784
  endloop
 endfacet
 facet normal -0.24442268454704547 -0.028312653952300985 0.96925535588151013
  outer loop
   vertex -0.043248001486063004 0.0028109999839216471 0.0036859998945146799
   vertex -0.038731001317501068 0.00085700000636279583 0.0047679999843239784
   vertex -0.043249998241662979 0.0060120001435279846 0.0037789999041706324
  endloop
 endfacet
 facet normal -0.98785279316622476 0.0038970529339116397 -0.15534372215225906
  outer loop
   vertex -0.043249998241662979 0.0060120001435279846 0.0037789999041706324
   vertex -0.042617999017238617 0.010316000320017338 -0.00013200000103097409
   vertex -0.043248001486063004 0.0028109999839216471 0.0036859998945146799
  endloop
 endfacet
 facet normal -0.92510844062050013 -0.3797019951973874 -0.00087631947914910122
  outer loop
   vertex -0.038731001317501068 0.00085700000636279583 -0.0050309998914599419
   vertex -0.03873400017619133 0.00085299997590482235 -0.00013200000103097409
   vertex -0.042617999017238617 0.010316000320017338 -0.00013200000103097409
  endloop
 endfacet
 facet normal -0.98784688112305641 0.0038981479669314119 0.15538128554584027
  outer loop
   vertex -0.042617999017238617 0.010316000320017338 -0.00013200000103097409
   vertex -0.043249998241662979 0.0060120001435279846 -0.0040420000441372395
   vertex -0.043248001486063004 0.0028109999839216471 -0.003949000034481287
  endloop
 endfacet
 facet normal 0.016782851795990771 -0.45438652584524925 0.89064651855597488
  outer loop
   vertex -0.042617999017238617 0.010316000320017338 -0.00013200000103097409
   vertex -0.043248001486063004 0.0028109999839216471 -0.003949000034481287
   vertex -0.038731001317501068 0.00085700000636279583 -0.0050309998914599419
  endloop
 endfacet
 facet normal -0.24442263755868482 -0.028312654266986387 -0.96925536772164111
  outer loop
   vertex -0.038731001317501068 0.00085700000636279583 -0.0050309998914599419
   vertex -0.043248001486063004 0.0028109999839216471 -0.003949000034481287
   vertex -0.043249998241662979 0.0060120001435279846 -0.0040420000441372395
  endloop
 endfacet
 facet normal 0.43997345417488032 -0.8980105578524874 -0.00063056077326544945
  outer loop
   vertex -0.034896999597549438 0.0027320000808686018 -0.00013200000103097409
   vertex -0.038731001317501068 0.00085700000636279583 -0.0050309998914599419
   vertex -0.034894000738859177 0.002736999886110425 -0.0051600001752376556
  endloop
 endfacet
 facet normal -0.42685327653149541 0.90432067698718599 0.00062728603077628398
  outer loop
   vertex -0.028658000752329826 0.0056770001538097858 -0.00013200000103097409
   vertex -0.028655000030994415 0.005681999959051609 -0.0052979998290538788
   vertex -0.034894000738859177 0.002736999886110425 -0.0051600001752376556
  endloop
 endfacet
 facet normal -0.69431984822643267 0.50397288422740316 -0.51374242604863385
  outer loop
   vertex -0.015742000192403793 0.01691100001335144 -0.021797999739646912
   vertex -0.012985999695956707 0.022236999124288559 -0.020298000425100327
   vertex -0.010471000336110592 0.023341000080108643 -0.022614000365138054
  endloop
 endfacet
 facet normal -0.56700094738313966 0.81301830225848537 0.13232976180493963
  outer loop
   vertex -0.010471000336110592 0.023341000080108643 -0.022614000365138054
   vertex -0.0061249998398125172 0.025422999635338783 -0.016783999279141426
   vertex -0.0040279999375343323 0.027648000046610832 -0.021469000726938248
  endloop
 endfacet
 facet normal -0.51724063078641125 0.81040914380934503 0.27513478423107418
  outer loop
   vertex -0.0079809995368123055 0.022710999473929405 -0.012284999713301659
   vertex -0.0061249998398125172 0.025422999635338783 -0.016783999279141426
   vertex -0.012985999695956707 0.022236999124288559 -0.020298000425100327
  endloop
 endfacet
 facet normal 0.023651263896073558 0.85184944859242528 0.52325245785270735
  outer loop
   vertex -0.0035910001024603844 0.022274000570178032 -0.011772000230848789
   vertex -0.0061249998398125172 0.025422999635338783 -0.016783999279141426
   vertex -0.0079809995368123055 0.022710999473929405 -0.012284999713301659
  endloop
 endfacet
 facet normal -0.025039736325837614 0.64502991688855804 0.76374695935464909
  outer loop
   vertex -0.0066780000925064087 0.02124599926173687 -0.011005000211298466
   vertex -0.0035910001024603844 0.022274000570178032 -0.011772000230848789
   vertex -0.0079809995368123055 0.022710999473929405 -0.012284999713301659
  endloop
 endfacet
 facet normal -0.25050708123512522 0.032084730773105641 0.96758295370592173
  outer loop
   vertex -0.0028780000284314156 0.015571000054478645 -0.0098329996690154076
   vertex -0.0015899999998509884 0.027104999870061874 -0.0098820002749562263
   vertex -0.0066780000925064087 0.02124599926173687 -0.011005000211298466
  endloop
 endfacet
 facet normal -0.35616865925837055 0.46468450218492219 -0.81068625225252555
  outer loop
   vertex -0.0066780000925064087 0.02124599926173687 -0.011005000211298466
   vertex -0.0015899999998509884 0.027104999870061874 -0.0098820002749562263
   vertex -0.0035910001024603844 0.022274000570178032 -0.011772000230848789
  endloop
 endfacet
 facet normal -0.50482924340547064 0.14146529610684805 0.85154859227178692
  outer loop
   vertex -0.001576000009663403 0.025689000263810158 0.008659999817609787
   vertex -0.0060330000706017017 0.010133000090718269 0.0086019998416304588
   vertex -0.0028780000284314156 0.015571000054478645 0.0095690004527568817
  endloop
 endfacet
 facet normal -0.9162691395878011 0.26364761286151422 -0.30156392369024521
  outer loop
   vertex -0.001576000009663403 0.025689000263810158 0.008659999817609787
   vertex -0.0047059999778866768 0.0090119997039437294 0.003590000094845891
   vertex -0.0060330000706017017 0.010133000090718269 0.0086019998416304588
  endloop
 endfacet
 facet normal -0.1153844211754685 -0.97544089496662134 0.18762061660893961
  outer loop
   vertex 0.014131000265479088 0.0075320000760257244 0.0074800001457333565
   vertex -0.0060330000706017017 0.010133000090718269 0.0086019998416304588
   vertex -0.0047059999778866768 0.0090119997039437294 0.003590000094845891
  endloop
 endfacet
 facet normal -0.085310303847494884 -0.99446117892270647 0.061393123988838248
  outer loop
   vertex 0.01106599997729063 0.0089459996670484543 0.013135000132024288
   vertex 0.0073919999413192272 0.0093560004606842995 0.014670999720692635
   vertex -0.0060330000706017017 0.010133000090718269 0.0086019998416304588
  endloop
 endfacet
 facet normal -0.38742528817268274 -0.46182972291618973 0.79788154077874807
  outer loop
   vertex 0.0073919999413192272 0.0093560004606842995 0.014670999720692635
   vertex 0.0039989999495446682 0.014685000292956829 0.01610800065100193
   vertex -0.0060330000706017017 0.010133000090718269 0.0086019998416304588
  endloop
 endfacet
 facet normal -0.26460939152635365 -0.62617938415854635 0.73340387834458332
  outer loop
   vertex -0.0060330000706017017 0.010133000090718269 0.0086019998416304588
   vertex 0.0039989999495446682 0.014685000292956829 0.01610800065100193
   vertex -0.0044579999521374702 0.021359000355005264 0.018755000084638596
  endloop
 endfacet
 facet normal 0.74876394448727102 0.52765515624227899 0.40116404565563818
  outer loop
   vertex -0.0019389999797567725 0.019879000261425972 0.016000000759959221
   vertex -0.0061249998398125172 0.025422999635338783 0.016520999372005463
   vertex -0.0044579999521374702 0.021359000355005264 0.018755000084638596
  endloop
 endfacet
 facet normal 0.88576409386272759 0.11633583069321721 -0.4493194237070775
  outer loop
   vertex -0.0044579999521374702 0.021359000355005264 0.018755000084638596
   vertex -0.0061249998398125172 0.025422999635338783 0.016520999372005463
   vertex -0.0040279999375343323 0.027648000046610832 0.021230999380350113
  endloop
 endfacet
 facet normal 0.8099696647875263 -0.26196202179926203 0.52471424724208238
  outer loop
   vertex -0.0044579999521374702 0.021359000355005264 0.018755000084638596
   vertex -0.0040279999375343323 0.027648000046610832 0.021230999380350113
   vertex -0.0058940001763403416 0.025564000010490417 0.023071000352501869
  endloop
 endfacet
 facet normal 0.99575161372640686 0.051079601363431162 -0.076613302277147119
  outer loop
   vertex -0.0044579999521374702 0.021359000355005264 0.018755000084638596
   vertex -0.00407399982213974 0.023383999243378639 0.025095999240875244
   vertex -0.0040959999896585941 0.015948999673128128 0.019852999597787857
  endloop
 endfacet
 facet normal 0.49472546602675255 -0.72098599638016714 -0.48520707567832316
  outer loop
   vertex -0.0044579999521374702 0.021359000355005264 0.018755000084638596
   vertex -0.0056139999069273472 0.015043999999761581 0.026960000395774841
   vertex -0.018338000401854515 0.010857000015676022 0.020207999274134636
  endloop
 endfacet
 facet normal -0.6772774860136731 -0.5338279090487098 -0.50628348823527825
  outer loop
   vertex -0.0044579999521374702 0.021359000355005264 0.018755000084638596
   vertex -0.002119000069797039 0.013326999731361866 0.024095000699162483
   vertex -0.0056139999069273472 0.015043999999761581 0.026960000395774841
  endloop
 endfacet
 facet normal 0.32790205958146079 0.20892943132986633 0.92131901752130074
  outer loop
   vertex -0.0040959999896585941 0.015948999673128128 0.019852999597787857
   vertex 0.0011790000135079026 0.019743999466300011 0.017115000635385513
   vertex -0.0044579999521374702 0.021359000355005264 0.018755000084638596
  endloop
 endfacet
 facet normal 0.1638583117748407 0.92367274922461573 -0.34638000231269028
  outer loop
   vertex -0.0044579999521374702 0.021359000355005264 0.018755000084638596
   vertex 0.0011790000135079026 0.019743999466300011 0.017115000635385513
   vertex -0.0019389999797567725 0.019879000261425972 0.016000000759959221
  endloop
 endfacet
 facet normal -0.085313679256986241 -0.38551562298011616 -0.91874875813243362
  outer loop
   vertex 0.00097499997355043888 0.012551999650895596 0.021945999935269356
   vertex -0.0044579999521374702 0.021359000355005264 0.018755000084638596
   vertex 0.0032009999267756939 0.017014000564813614 0.019866999238729477
  endloop
 endfacet
 facet normal -0.49773537261572098 -0.78062688326070695 0.37799625392027897
  outer loop
   vertex 0.0032009999267756939 0.017014000564813614 0.019866999238729477
   vertex -0.0044579999521374702 0.021359000355005264 0.018755000084638596
   vertex 0.0039989999495446682 0.014685000292956829 0.01610800065100193
  endloop
 endfacet
 facet normal -0.56138659779101341 -0.56530065152334852 -0.60438419999856763
  outer loop
   vertex -0.0044579999521374702 0.021359000355005264 0.018755000084638596
   vertex 0.00097499997355043888 0.012551999650895596 0.021945999935269356
   vertex -0.002119000069797039 0.013326999731361866 0.024095000699162483
  endloop
 endfacet
 facet normal -0.91798257756016144 0.35476624399926482 0.17733837547089537
  outer loop
   vertex -0.019409999251365662 0.010569999925792217 0.015232999809086323
   vertex -0.018338000401854515 0.010857000015676022 0.020207999274134636
   vertex -0.015742000192403793 0.01691100001335144 0.021534999832510948
  endloop
 endfacet
 facet normal -0.23013865007758375 -0.11317772831433076 0.96655419069707371
  outer loop
   vertex -0.015742000192403793 0.01691100001335144 0.021534999832510948
   vertex -0.018338000401854515 0.010857000015676022 0.020207999274134636
   vertex -0.0083839995786547661 0.018533999100327492 0.023476999253034592
  endloop
 endfacet
 facet normal -0.52659519439369784 0.35358682499019201 0.77309369318008203
  outer loop
   vertex -0.0083839995786547661 0.018533999100327492 0.023476999253034592
   vertex -0.018338000401854515 0.010857000015676022 0.020207999274134636
   vertex -0.0056139999069273472 0.015043999999761581 0.026960000395774841
  endloop
 endfacet
 facet normal -0.22208489736282488 0.97465626371468972 0.026897322637480382
  outer loop
   vertex -0.010219999589025974 0.018206000328063965 0.0202029999345541
   vertex -0.015742000192403793 0.01691100001335144 0.021534999832510948
   vertex -0.0083839995786547661 0.018533999100327492 0.023476999253034592
  endloop
 endfacet
 facet normal -0.5052152375512865 0.14157681129109945 -0.85130110434008111
  outer loop
   vertex -0.0060330000706017017 0.010133000090718269 -0.0088649997487664223
   vertex -0.001576000009663403 0.025689000263810158 -0.0089229997247457504
   vertex -0.0028780000284314156 0.015571000054478645 -0.0098329996690154076
  endloop
 endfacet
 facet normal -0.9162691395878011 0.26364761286151422 0.30156392369024521
  outer loop
   vertex -0.0047059999778866768 0.0090119997039437294 -0.0038530000019818544
   vertex -0.001576000009663403 0.025689000263810158 -0.0089229997247457504
   vertex -0.0060330000706017017 0.010133000090718269 -0.0088649997487664223
  endloop
 endfacet
 facet normal -0.11730242558737397 -0.97531506372096111 -0.18708465311269179
  outer loop
   vertex 0.01106599997729063 0.0089459996670484543 -0.013398000039160252
   vertex -0.0047059999778866768 0.0090119997039437294 -0.0038530000019818544
   vertex -0.0060330000706017017 0.010133000090718269 -0.0088649997487664223
  endloop
 endfacet
 facet normal -0.085310303847494884 -0.99446117892270647 -0.061393123988838248
  outer loop
   vertex 0.0073919999413192272 0.0093560004606842995 -0.014933999627828598
   vertex 0.01106599997729063 0.0089459996670484543 -0.013398000039160252
   vertex -0.0060330000706017017 0.010133000090718269 -0.0088649997487664223
  endloop
 endfacet
 facet normal -0.38742528817268274 -0.46182972291618973 -0.79788154077874807
  outer loop
   vertex 0.0039989999495446682 0.014685000292956829 -0.016371000558137894
   vertex 0.0073919999413192272 0.0093560004606842995 -0.014933999627828598
   vertex -0.0060330000706017017 0.010133000090718269 -0.0088649997487664223
  endloop
 endfacet
 facet normal -0.26456837922107196 -0.62622705290026581 -0.73337797276178318
  outer loop
   vertex 0.0039989999495446682 0.014685000292956829 -0.016371000558137894
   vertex -0.0060330000706017017 0.010133000090718269 -0.0088649997487664223
   vertex -0.0044579999521374702 0.021359000355005264 -0.019019000232219696
  endloop
 endfacet
 facet normal 0.64757128187728474 0.55359434709535504 -0.52362652124570397
  outer loop
   vertex -0.0022100000642240047 0.02268500067293644 -0.014836999587714672
   vertex -0.0044579999521374702 0.021359000355005264 -0.019019000232219696
   vertex -0.0061249998398125172 0.025422999635338783 -0.016783999279141426
  endloop
 endfacet
 facet normal 0.88513941380598604 0.11512144123838987 0.45086059030967801
  outer loop
   vertex -0.0061249998398125172 0.025422999635338783 -0.016783999279141426
   vertex -0.0044579999521374702 0.021359000355005264 -0.019019000232219696
   vertex -0.0040279999375343323 0.027648000046610832 -0.021469000726938248
  endloop
 endfacet
 facet normal 0.80956255017780332 -0.26032616565641836 -0.52615469666652115
  outer loop
   vertex -0.0040279999375343323 0.027648000046610832 -0.021469000726938248
   vertex -0.0044579999521374702 0.021359000355005264 -0.019019000232219696
   vertex -0.0058940001763403416 0.025564000010490417 -0.023308999836444855
  endloop
 endfacet
 facet normal 0.85299567858610037 0.37824135788803376 0.3596273731189748
  outer loop
   vertex -0.0058940001763403416 0.025564000010490417 -0.023308999836444855
   vertex -0.0043449997901916504 0.021042000502347946 -0.022227000445127487
   vertex -0.00407399982213974 0.023383999243378639 -0.025333000347018242
  endloop
 endfacet
 facet normal 0.49425380826987347 -0.72048545854001567 0.48642972467059492
  outer loop
   vertex -0.0056139999069273472 0.015043999999761581 -0.027197999879717827
   vertex -0.0044579999521374702 0.021359000355005264 -0.019019000232219696
   vertex -0.018338000401854515 0.010857000015676022 -0.020470999181270599
  endloop
 endfacet
 facet normal -0.67746006604530429 -0.53279791974623758 0.50712349149686797
  outer loop
   vertex -0.002119000069797039 0.013326999731361866 -0.024333000183105469
   vertex -0.0044579999521374702 0.021359000355005264 -0.019019000232219696
   vertex -0.0056139999069273472 0.015043999999761581 -0.027197999879717827
  endloop
 endfacet
 facet normal 0.32763116971546019 0.91846722768975098 -0.22153051322737155
  outer loop
   vertex 0.0016210000030696392 0.018752999603748322 -0.020833000540733337
   vertex -0.0044579999521374702 0.021359000355005264 -0.019019000232219696
   vertex 0.0011790000135079026 0.019743999466300011 -0.017378000542521477
  endloop
 endfacet
 facet normal 0.16383071624491363 0.9237081874065588 0.34629854307052477
  outer loop
   vertex 0.0011790000135079026 0.019743999466300011 -0.017378000542521477
   vertex -0.0044579999521374702 0.021359000355005264 -0.019019000232219696
   vertex -0.0019389999797567725 0.019879000261425972 -0.016263000667095184
  endloop
 endfacet
 facet normal -0.083190626692436848 -0.38198794105270084 0.92041541301786012
  outer loop
   vertex -0.0044579999521374702 0.021359000355005264 -0.019019000232219696
   vertex 0.00097499997355043888 0.012551999650895596 -0.022182999178767204
   vertex 0.0032009999267756939 0.017014000564813614 -0.02012999914586544
  endloop
 endfacet
 facet normal -0.49769743263108995 -0.78064249044966572 -0.37801397812377963
  outer loop
   vertex -0.0044579999521374702 0.021359000355005264 -0.019019000232219696
   vertex 0.0032009999267756939 0.017014000564813614 -0.02012999914586544
   vertex 0.0039989999495446682 0.014685000292956829 -0.016371000558137894
  endloop
 endfacet
 facet normal -0.56181904743773659 -0.56400484731708789 0.60519244058314448
  outer loop
   vertex 0.00097499997355043888 0.012551999650895596 -0.022182999178767204
   vertex -0.0044579999521374702 0.021359000355005264 -0.019019000232219696
   vertex -0.002119000069797039 0.013326999731361866 -0.024333000183105469
  endloop
 endfacet
 facet normal -0.91798257756016144 0.35476624399926482 -0.17733837547089537
  outer loop
   vertex -0.018338000401854515 0.010857000015676022 -0.020470999181270599
   vertex -0.019409999251365662 0.010569999925792217 -0.015495999716222286
   vertex -0.015742000192403793 0.01691100001335144 -0.021797999739646912
  endloop
 endfacet
 facet normal -0.22651996391642765 -0.1148729400409058 -0.96720882625917914
  outer loop
   vertex -0.018338000401854515 0.010857000015676022 -0.020470999181270599
   vertex -0.015742000192403793 0.01691100001335144 -0.021797999739646912
   vertex -0.0083839995786547661 0.018533999100327492 -0.023714000359177589
  endloop
 endfacet
 facet normal -0.52555493224423844 0.3547899999696138 -0.77325032758823664
  outer loop
   vertex -0.018338000401854515 0.010857000015676022 -0.020470999181270599
   vertex -0.0083839995786547661 0.018533999100327492 -0.023714000359177589
   vertex -0.0056139999069273472 0.015043999999761581 -0.027197999879717827
  endloop
 endfacet
 facet normal -0.27153268183106183 0.10112805073716416 -0.95710141576101171
  outer loop
   vertex -0.015742000192403793 0.01691100001335144 -0.021797999739646912
   vertex -0.010471000336110592 0.023341000080108643 -0.022614000365138054
   vertex -0.0083839995786547661 0.018533999100327492 -0.023714000359177589
  endloop
 endfacet
 facet normal -0.6482391086775805 0.55991829468179433 -0.51602089227232573
  outer loop
   vertex 0.00067300000227987766 0.0297240000218153 0.010212999768555164
   vertex 0.00092299998505041003 0.024763999506831169 0.0045170001685619354
   vertex -0.001576000009663403 0.025689000263810158 0.008659999817609787
  endloop
 endfacet
 facet normal 0.37591347226256439 0.52217413361102905 -0.76552154480398105
  outer loop
   vertex 0.0020779999904334545 0.028753999620676041 0.012544999830424786
   vertex -0.001576000009663403 0.025689000263810158 0.008659999817609787
   vertex -0.0015899999998509884 0.027104999870061874 0.0096190003678202629
  endloop
 endfacet
 facet normal 0.10670936191381318 0.98214758241919742 -0.15491687586597108
  outer loop
   vertex 0.00092299998505041003 0.024763999506831169 0.0045170001685619354
   vertex -6.5000000176951289e-05 0.02448900043964386 0.0020930001046508551
   vertex -0.001576000009663403 0.025689000263810158 0.008659999817609787
  endloop
 endfacet
 facet normal -0.93138064990650304 0.25406913121549962 -0.26072775368790624
  outer loop
   vertex -6.5000000176951289e-05 0.02448900043964386 0.0020930001046508551
   vertex -0.0047059999778866768 0.0090119997039437294 0.003590000094845891
   vertex -0.001576000009663403 0.025689000263810158 0.008659999817609787
  endloop
 endfacet
 facet normal -0.73758306033980181 0.66448087081338458 -0.120151576863803
  outer loop
   vertex 0.0020779999904334545 0.028753999620676041 0.012544999830424786
   vertex -0.0035910001024603844 0.022274000570178032 0.011509000323712826
   vertex 0.0011419999646022916 0.0279339998960495 0.013756000436842442
  endloop
 endfacet
 facet normal -0.7881486513731506 0.54721592537404473 0.28173823729787112
  outer loop
   vertex 0.0011419999646022916 0.0279339998960495 0.013756000436842442
   vertex -0.0035910001024603844 0.022274000570178032 0.011509000323712826
   vertex -0.0022100000642240047 0.02268500067293644 0.014573999680578709
  endloop
 endfacet
 facet normal -0.39897744399098128 0.38451377573458445 0.83244588740455505
  outer loop
   vertex -0.0019389999797567725 0.019879000261425972 0.016000000759959221
   vertex 0.0011419999646022916 0.0279339998960495 0.013756000436842442
   vertex -0.0022100000642240047 0.02268500067293644 0.014573999680578709
  endloop
 endfacet
 facet normal -0.81014382267457785 0.55259556694947098 -0.19571695371125913
  outer loop
   vertex -0.0058940001763403416 0.025564000010490417 0.023071000352501869
   vertex -0.0040279999375343323 0.027648000046610832 0.021230999380350113
   vertex -0.010219999589025974 0.018206000328063965 0.0202029999345541
  endloop
 endfacet
 facet normal -0.83903254155249107 0.32248955408731 0.43820643733351883
  outer loop
   vertex -0.0083839995786547661 0.018533999100327492 0.023476999253034592
   vertex -0.0058940001763403416 0.025564000010490417 0.023071000352501869
   vertex -0.010219999589025974 0.018206000328063965 0.0202029999345541
  endloop
 endfacet
 facet normal -0.44605572718748032 0.78267740207327041 -0.43410871049436961
  outer loop
   vertex -0.0040279999375343323 0.027648000046610832 -0.021469000726938248
   vertex -0.0058940001763403416 0.025564000010490417 -0.023308999836444855
   vertex -0.010471000336110592 0.023341000080108643 -0.022614000365138054
  endloop
 endfacet
 facet normal -0.21043072273065053 0.13035120297502975 -0.9688794944749417
  outer loop
   vertex -0.0058940001763403416 0.025564000010490417 -0.023308999836444855
   vertex -0.0083839995786547661 0.018533999100327492 -0.023714000359177589
   vertex -0.010471000336110592 0.023341000080108643 -0.022614000365138054
  endloop
 endfacet
 facet normal -0.77252478757994547 0.4817959955497858 -0.41361584984953242
  outer loop
   vertex -0.0015899999998509884 0.027104999870061874 -0.0098820002749562263
   vertex 0.0011419999646022916 0.0279339998960495 -0.014019000343978405
   vertex -0.0035910001024603844 0.022274000570178032 -0.011772000230848789
  endloop
 endfacet
 facet normal -0.7881486513731506 0.54721592537404473 -0.28173823729787112
  outer loop
   vertex -0.0035910001024603844 0.022274000570178032 -0.011772000230848789
   vertex 0.0011419999646022916 0.0279339998960495 -0.014019000343978405
   vertex -0.0022100000642240047 0.02268500067293644 -0.014836999587714672
  endloop
 endfacet
 facet normal -0.39897744399098128 0.38451377573458445 -0.83244588740455505
  outer loop
   vertex 0.0011419999646022916 0.0279339998960495 -0.014019000343978405
   vertex -0.0019389999797567725 0.019879000261425972 -0.016263000667095184
   vertex -0.0022100000642240047 0.02268500067293644 -0.014836999587714672
  endloop
 endfacet
 facet normal -0.39329539127862478 0.51289876406333312 0.76305543246955421
  outer loop
   vertex 0.00067300000227987766 0.0297240000218153 -0.010475999675691128
   vertex -0.0015899999998509884 0.027104999870061874 -0.0098820002749562263
   vertex -0.001576000009663403 0.025689000263810158 -0.0089229997247457504
  endloop
 endfacet
 facet normal -0.6482391086775805 0.55991829468179433 0.51602089227232573
  outer loop
   vertex 0.00092299998505041003 0.024763999506831169 -0.0047800000756978989
   vertex 0.00067300000227987766 0.0297240000218153 -0.010475999675691128
   vertex -0.001576000009663403 0.025689000263810158 -0.0089229997247457504
  endloop
 endfacet
 facet normal 0.10670936191381318 0.98214758241919742 0.15491687586597108
  outer loop
   vertex -6.5000000176951289e-05 0.02448900043964386 -0.0023560000117868185
   vertex 0.00092299998505041003 0.024763999506831169 -0.0047800000756978989
   vertex -0.001576000009663403 0.025689000263810158 -0.0089229997247457504
  endloop
 endfacet
 facet normal -0.98073165985936084 0.19309142166891091 0.029683568306080807
  outer loop
   vertex -0.0047309999354183674 0.0083130002021789551 -0.00013200000103097409
   vertex -0.001576000009663403 0.025689000263810158 -0.0089229997247457504
   vertex -0.0047059999778866768 0.0090119997039437294 -0.0038530000019818544
  endloop
 endfacet
 facet normal -0.074229793198356445 -0.99704287058678664 -0.019885975303950174
  outer loop
   vertex -0.0047059999778866768 0.0090119997039437294 0.003590000094845891
   vertex 0.015425999648869038 0.0075469999574124813 0.0018939999863505363
   vertex 0.014131000265479088 0.0075320000760257244 0.0074800001457333565
  endloop
 endfacet
 facet normal 0.97416258311115522 -0.0026343221228974137 0.22583250876070651
  outer loop
   vertex 0.014131000265479088 0.0075320000760257244 0.0074800001457333565
   vertex 0.015425999648869038 0.0075469999574124813 0.0018939999863505363
   vertex 0.014375000260770321 0.021550999954342842 0.0065910001285374165
  endloop
 endfacet
 facet normal 0.76082337836525782 0.13032213015194766 0.63573888454737026
  outer loop
   vertex 0.01106599997729063 0.0089459996670484543 0.013135000132024288
   vertex 0.014375000260770321 0.021550999954342842 0.0065910001285374165
   vertex 0.011094000190496445 0.022783000022172928 0.01026500016450882
  endloop
 endfacet
 facet normal 0.39657911711406907 0.18566935342716379 0.89902830604323258
  outer loop
   vertex 0.0073919999413192272 0.0093560004606842995 0.014670999720692635
   vertex 0.01106599997729063 0.0089459996670484543 0.013135000132024288
   vertex 0.011094000190496445 0.022783000022172928 0.01026500016450882
  endloop
 endfacet
 facet normal 0.56058494197520892 0.10181629029099368 0.8218138267649383
  outer loop
   vertex 0.0039989999495446682 0.014685000292956829 0.01610800065100193
   vertex 0.011094000190496445 0.022783000022172928 0.01026500016450882
   vertex 0.008759000338613987 0.024226000532507896 0.011679000221192837
  endloop
 endfacet
 facet normal 0.66956802522143 0.010707205661913936 0.74267355907423271
  outer loop
   vertex 0.0039989999495446682 0.014685000292956829 0.01610800065100193
   vertex 0.008759000338613987 0.024226000532507896 0.011679000221192837
   vertex 0.0049879997968673706 0.021507000550627708 0.015118000097572803
  endloop
 endfacet
 facet normal 0.96199205840935464 -0.087754893908104759 0.2585930357772806
  outer loop
   vertex 0.0039989999495446682 0.014685000292956829 0.01610800065100193
   vertex 0.0031830000225454569 0.018348999321460724 0.020386999472975731
   vertex 0.0032009999267756939 0.017014000564813614 0.019866999238729477
  endloop
 endfacet
 facet normal -0.30014866511215232 0.36080265198315803 0.88302447596502853
  outer loop
   vertex 0.0011790000135079026 0.019743999466300011 0.017115000635385513
   vertex 0.0011419999646022916 0.0279339998960495 0.013756000436842442
   vertex -0.0019389999797567725 0.019879000261425972 0.016000000759959221
  endloop
 endfacet
 facet normal -0.57254573724828473 0.2479262735301444 0.78148828631801903
  outer loop
   vertex -0.0058940001763403416 0.025564000010490417 0.023071000352501869
   vertex -0.0083839995786547661 0.018533999100327492 0.023476999253034592
   vertex -0.00407399982213974 0.023383999243378639 0.025095999240875244
  endloop
 endfacet
 facet normal 0.27932465658502681 0.55280830441621931 -0.78509917513147431
  outer loop
   vertex -0.001108999946154654 0.015289000235497952 0.020450999960303307
   vertex -0.0040959999896585941 0.015948999673128128 0.019852999597787857
   vertex -0.00407399982213974 0.023383999243378639 0.025095999240875244
  endloop
 endfacet
 facet normal -0.17328377516890667 0.10320128265366638 0.97944996223485037
  outer loop
   vertex -0.001108999946154654 0.015289000235497952 0.020450999960303307
   vertex 0.0016210000030696392 0.018752999603748322 0.020569000393152237
   vertex -0.0040959999896585941 0.015948999673128128 0.019852999597787857
  endloop
 endfacet
 facet normal -0.45973554107419934 0.11458044755719012 0.8806330412327299
  outer loop
   vertex -0.00407399982213974 0.023383999243378639 0.025095999240875244
   vertex -0.0083839995786547661 0.018533999100327492 0.023476999253034592
   vertex -0.0033140000887215137 0.016195999458432198 0.026427999138832092
  endloop
 endfacet
 facet normal 0.93393830003820355 0.15814668155564626 0.3205446596571021
  outer loop
   vertex -0.001108999946154654 0.015289000235497952 0.020450999960303307
   vertex -0.00407399982213974 0.023383999243378639 0.025095999240875244
   vertex -0.0033140000887215137 0.016195999458432198 0.026427999138832092
  endloop
 endfacet
 facet normal -0.14519160148777521 0.63879769223296601 0.75555073109305637
  outer loop
   vertex -0.0083839995786547661 0.018533999100327492 0.023476999253034592
   vertex -0.0056139999069273472 0.015043999999761581 0.026960000395774841
   vertex -0.0033140000887215137 0.016195999458432198 0.026427999138832092
  endloop
 endfacet
 facet normal 0.41373167110385273 -0.46441619011162266 0.78303493324871443
  outer loop
   vertex -0.002119000069797039 0.013326999731361866 0.024095000699162483
   vertex -0.0033140000887215137 0.016195999458432198 0.026427999138832092
   vertex -0.0056139999069273472 0.015043999999761581 0.026960000395774841
  endloop
 endfacet
 facet normal 0.42764280021656836 -0.4563818521860829 0.78028023197959628
  outer loop
   vertex 0.00097499997355043888 0.012551999650895596 0.021945999935269356
   vertex -0.0033140000887215137 0.016195999458432198 0.026427999138832092
   vertex -0.002119000069797039 0.013326999731361866 0.024095000699162483
  endloop
 endfacet
 facet normal 0.26890136251549474 0.9343908382265913 0.2336788793954617
  outer loop
   vertex 0.0031830000225454569 0.018348999321460724 0.020386999472975731
   vertex 0.0011790000135079026 0.019743999466300011 0.017115000635385513
   vertex 0.0016210000030696392 0.018752999603748322 0.020569000393152237
  endloop
 endfacet
 facet normal 0.2949040796936282 0.36372405418419479 0.88359289052587275
  outer loop
   vertex 0.0049879997968673706 0.021507000550627708 0.015118000097572803
   vertex 0.0011419999646022916 0.0279339998960495 0.013756000436842442
   vertex 0.0011790000135079026 0.019743999466300011 0.017115000635385513
  endloop
 endfacet
 facet normal -0.25722328596575689 0.17031602956062314 0.95122480583281865
  outer loop
   vertex 0.00073899998096749187 0.013813000172376633 0.021214999258518219
   vertex 0.0016210000030696392 0.018752999603748322 0.020569000393152237
   vertex -0.001108999946154654 0.015289000235497952 0.020450999960303307
  endloop
 endfacet
 facet normal -0.1438718111340638 0.47601452768963748 0.86758922964120277
  outer loop
   vertex 0.0032009999267756939 0.017014000564813614 0.019866999238729477
   vertex 0.00073899998096749187 0.013813000172376633 0.021214999258518219
   vertex 0.00097499997355043888 0.012551999650895596 0.021945999935269356
  endloop
 endfacet
 facet normal -0.030592931114087601 -0.99689383133200238 0.07257245770986244
  outer loop
   vertex -0.0047309999354183674 0.0083130002021789551 -0.00013200000103097409
   vertex 0.015425999648869038 0.0075469999574124813 -0.0021569998934864998
   vertex 0.015406999737024307 0.0076950001530349255 -0.00013200000103097409
  endloop
 endfacet
 facet normal 0.75034494375702676 0.028819988089269638 -0.66041795377230528
  outer loop
   vertex 0.014131000265479088 0.0075320000760257244 -0.0077430000528693199
   vertex 0.011094000190496445 0.022783000022172928 -0.010528000071644783
   vertex 0.014375000260770321 0.021550999954342842 -0.0068540000356733799
  endloop
 endfacet
 facet normal 0.39657911711406907 0.18566935342716379 -0.89902830604323258
  outer loop
   vertex 0.01106599997729063 0.0089459996670484543 -0.013398000039160252
   vertex 0.0073919999413192272 0.0093560004606842995 -0.014933999627828598
   vertex 0.011094000190496445 0.022783000022172928 -0.010528000071644783
  endloop
 endfacet
 facet normal 0.97416258311115522 -0.0026343221228974137 -0.22583250876070651
  outer loop
   vertex 0.015425999648869038 0.0075469999574124813 -0.0021569998934864998
   vertex 0.014131000265479088 0.0075320000760257244 -0.0077430000528693199
   vertex 0.014375000260770321 0.021550999954342842 -0.0068540000356733799
  endloop
 endfacet
 facet normal 0.56489644175040421 0.1124950444561973 -0.81745756774925649
  outer loop
   vertex 0.0073919999413192272 0.0093560004606842995 -0.014933999627828598
   vertex 0.008759000338613987 0.024226000532507896 -0.011943000368773937
   vertex 0.011094000190496445 0.022783000022172928 -0.010528000071644783
  endloop
 endfacet
 facet normal 0.66944640802793698 0.010740675677971372 -0.74278270353076592
  outer loop
   vertex 0.008759000338613987 0.024226000532507896 -0.011943000368773937
   vertex 0.0039989999495446682 0.014685000292956829 -0.016371000558137894
   vertex 0.0049879997968673706 0.021507000550627708 -0.015381000004708767
  endloop
 endfacet
 facet normal 0.95770582148797578 -0.093135970735577167 -0.27225952773628209
  outer loop
   vertex 0.0049879997968673706 0.021507000550627708 -0.015381000004708767
   vertex 0.0032009999267756939 0.017014000564813614 -0.02012999914586544
   vertex 0.0031830000225454569 0.018348999321460724 -0.020649999380111694
  endloop
 endfacet
 facet normal -0.30014866511215232 0.36080265198315803 -0.88302447596502853
  outer loop
   vertex 0.0011419999646022916 0.0279339998960495 -0.014019000343978405
   vertex 0.0011790000135079026 0.019743999466300011 -0.017378000542521477
   vertex -0.0019389999797567725 0.019879000261425972 -0.016263000667095184
  endloop
 endfacet
 facet normal -0.57243231447369314 0.24778252783904428 -0.78161695493635752
  outer loop
   vertex -0.0083839995786547661 0.018533999100327492 -0.023714000359177589
   vertex -0.0058940001763403416 0.025564000010490417 -0.023308999836444855
   vertex -0.00407399982213974 0.023383999243378639 -0.025333000347018242
  endloop
 endfacet
 facet normal 0.71637765148786559 0.52561864650204915 0.45883341083456852
  outer loop
   vertex -0.0043449997901916504 0.021042000502347946 -0.022227000445127487
   vertex -0.001108999946154654 0.015289000235497952 -0.020688999444246292
   vertex -0.00407399982213974 0.023383999243378639 -0.025333000347018242
  endloop
 endfacet
 facet normal -0.45982694918817918 0.11468202380799414 -0.88057209257141134
  outer loop
   vertex -0.0083839995786547661 0.018533999100327492 -0.023714000359177589
   vertex -0.00407399982213974 0.023383999243378639 -0.025333000347018242
   vertex -0.0033140000887215137 0.016195999458432198 -0.026666000485420227
  endloop
 endfacet
 facet normal 0.9339338939875631 0.15818930148886215 -0.32053646681102149
  outer loop
   vertex -0.00407399982213974 0.023383999243378639 -0.025333000347018242
   vertex -0.001108999946154654 0.015289000235497952 -0.020688999444246292
   vertex -0.0033140000887215137 0.016195999458432198 -0.026666000485420227
  endloop
 endfacet
 facet normal 0.16251695328809976 -0.1684962628186876 -0.97221255356536584
  outer loop
   vertex 0.0016210000030696392 0.018752999603748322 -0.020833000540733337
   vertex -0.001108999946154654 0.015289000235497952 -0.020688999444246292
   vertex -0.0043449997901916504 0.021042000502347946 -0.022227000445127487
  endloop
 endfacet
 facet normal -0.1452535400617988 0.63888179373018639 -0.75546771124887591
  outer loop
   vertex -0.0056139999069273472 0.015043999999761581 -0.027197999879717827
   vertex -0.0083839995786547661 0.018533999100327492 -0.023714000359177589
   vertex -0.0033140000887215137 0.016195999458432198 -0.026666000485420227
  endloop
 endfacet
 facet normal 0.41373128804022119 -0.46441675174905483 -0.78303480254164715
  outer loop
   vertex -0.0033140000887215137 0.016195999458432198 -0.026666000485420227
   vertex -0.002119000069797039 0.013326999731361866 -0.024333000183105469
   vertex -0.0056139999069273472 0.015043999999761581 -0.027197999879717827
  endloop
 endfacet
 facet normal 0.70869888341680354 -0.24331724492636725 -0.66222549857674473
  outer loop
   vertex 0.00073899998096749187 0.013813000172376633 -0.021453000605106354
   vertex -0.002119000069797039 0.013326999731361866 -0.024333000183105469
   vertex -0.0033140000887215137 0.016195999458432198 -0.026666000485420227
  endloop
 endfacet
 facet normal -0.26833352815609895 0.91634629313705773 -0.29716424536150643
  outer loop
   vertex 0.0049879997968673706 0.021507000550627708 -0.015381000004708767
   vertex 0.0016210000030696392 0.018752999603748322 -0.020833000540733337
   vertex 0.0011790000135079026 0.019743999466300011 -0.017378000542521477
  endloop
 endfacet
 facet normal 0.087510380350291725 -0.11012494543552652 -0.99005779110300907
  outer loop
   vertex 0.0031830000225454569 0.018348999321460724 -0.020649999380111694
   vertex -0.001108999946154654 0.015289000235497952 -0.020688999444246292
   vertex 0.0016210000030696392 0.018752999603748322 -0.020833000540733337
  endloop
 endfacet
 facet normal 0.2949040796936282 0.36372405418419479 -0.88359289052587275
  outer loop
   vertex 0.0011419999646022916 0.0279339998960495 -0.014019000343978405
   vertex 0.0049879997968673706 0.021507000550627708 -0.015381000004708767
   vertex 0.0011790000135079026 0.019743999466300011 -0.017378000542521477
  endloop
 endfacet
 facet normal -0.44720006609021096 0.38396040447189916 -0.80782826682822051
  outer loop
   vertex 0.0031830000225454569 0.018348999321460724 -0.020649999380111694
   vertex 0.00097499997355043888 0.012551999650895596 -0.022182999178767204
   vertex 0.00073899998096749187 0.013813000172376633 -0.021453000605106354
  endloop
 endfacet
 facet normal 0.57400182243571107 0.76964330105795775 -0.27959094580671273
  outer loop
   vertex 0.008759000338613987 0.024226000532507896 0.011679000221192837
   vertex 0.00067300000227987766 0.0297240000218153 0.010212999768555164
   vertex 0.0042289998382329941 0.027635000646114349 0.011762999929487705
  endloop
 endfacet
 facet normal 0.4811518571291975 0.87355324050212624 0.073468540133575316
  outer loop
   vertex 0.0042289998382329941 0.027635000646114349 0.011762999929487705
   vertex 0.00067300000227987766 0.0297240000218153 0.010212999768555164
   vertex 0.0020779999904334545 0.028753999620676041 0.012544999830424786
  endloop
 endfacet
 facet normal 0.35136932598397669 0.88046978600994241 -0.31829632841296202
  outer loop
   vertex 0.008759000338613987 0.024226000532507896 0.011679000221192837
   vertex 0.011094000190496445 0.022783000022172928 0.01026500016450882
   vertex 0.00092299998505041003 0.024763999506831169 0.0045170001685619354
  endloop
 endfacet
 facet normal 0.24611895060639016 0.96371176737599951 -0.1033687166092179
  outer loop
   vertex 0.011094000190496445 0.022783000022172928 0.01026500016450882
   vertex 0.014375000260770321 0.021550999954342842 0.0065910001285374165
   vertex 0.00092299998505041003 0.024763999506831169 0.0045170001685619354
  endloop
 endfacet
 facet normal 0.15173080855280704 0.96299515338289676 -0.22275119819422445
  outer loop
   vertex 0.00092299998505041003 0.024763999506831169 0.0045170001685619354
   vertex 0.015277000144124031 0.021426999941468239 -0.00013200000103097409
   vertex 0.0026469998992979527 0.023416999727487564 -0.00013200000103097409
  endloop
 endfacet
 facet normal 0.21656119404743693 0.9562373674843434 -0.19675199175449576
  outer loop
   vertex 0.00092299998505041003 0.024763999506831169 0.0045170001685619354
   vertex 0.0026469998992979527 0.023416999727487564 -0.00013200000103097409
   vertex -6.5000000176951289e-05 0.02448900043964386 0.0020930001046508551
  endloop
 endfacet
 facet normal 0.52100930353279984 0.46364886764693886 0.71664428635270527
  outer loop
   vertex 0.0049879997968673706 0.021507000550627708 0.015118000097572803
   vertex 0.0020779999904334545 0.028753999620676041 0.012544999830424786
   vertex 0.0011419999646022916 0.0279339998960495 0.013756000436842442
  endloop
 endfacet
 facet normal -0.54608271901437733 0.26675041957452611 -0.79412711680856174
  outer loop
   vertex 0.0026469998992979527 0.023416999727487564 -0.00013200000103097409
   vertex -0.0047309999354183674 0.0083130002021789551 -0.00013200000103097409
   vertex -6.5000000176951289e-05 0.02448900043964386 0.0020930001046508551
  endloop
 endfacet
 facet normal -0.54592788804721548 0.26667478776268616 0.79425896194127599
  outer loop
   vertex -0.0047309999354183674 0.0083130002021789551 -0.00013200000103097409
   vertex 0.0026469998992979527 0.023416999727487564 -0.00013200000103097409
   vertex -6.5000000176951289e-05 0.02448900043964386 -0.0023560000117868185
  endloop
 endfacet
 facet normal 0.50878174705666501 0.4773228179437175 -0.71645241386447744
  outer loop
   vertex 0.0042289998382329941 0.027635000646114349 -0.012025999836623669
   vertex 0.0011419999646022916 0.0279339998960495 -0.014019000343978405
   vertex 0.0020779999904334545 0.028753999620676041 -0.012807999737560749
  endloop
 endfacet
 facet normal 0.4811518571291975 0.87355324050212624 -0.073468540133575316
  outer loop
   vertex 0.00067300000227987766 0.0297240000218153 -0.010475999675691128
   vertex 0.0042289998382329941 0.027635000646114349 -0.012025999836623669
   vertex 0.0020779999904334545 0.028753999620676041 -0.012807999737560749
  endloop
 endfacet
 facet normal 0.58984485135470122 0.62163135521246304 0.51541974113053435
  outer loop
   vertex 0.00092299998505041003 0.024763999506831169 -0.0047800000756978989
   vertex 0.0042289998382329941 0.027635000646114349 -0.012025999836623669
   vertex 0.00067300000227987766 0.0297240000218153 -0.010475999675691128
  endloop
 endfacet
 facet normal 0.351324669234158 0.88052276600902146 0.31819904985296765
  outer loop
   vertex 0.011094000190496445 0.022783000022172928 -0.010528000071644783
   vertex 0.008759000338613987 0.024226000532507896 -0.011943000368773937
   vertex 0.00092299998505041003 0.024763999506831169 -0.0047800000756978989
  endloop
 endfacet
 facet normal 0.24611895060639016 0.96371176737599951 0.1033687166092179
  outer loop
   vertex 0.014375000260770321 0.021550999954342842 -0.0068540000356733799
   vertex 0.011094000190496445 0.022783000022172928 -0.010528000071644783
   vertex 0.00092299998505041003 0.024763999506831169 -0.0047800000756978989
  endloop
 endfacet
 facet normal 0.15564069207672548 0.98781014593277638 -0.0026628109480397121
  outer loop
   vertex 0.014375000260770321 0.021550999954342842 -0.0068540000356733799
   vertex 0.0026469998992979527 0.023416999727487564 -0.00013200000103097409
   vertex 0.015277000144124031 0.021426999941468239 -0.00013200000103097409
  endloop
 endfacet
 facet normal 0.21661207749897199 0.95622193505383968 0.19677098059284495
  outer loop
   vertex 0.0026469998992979527 0.023416999727487564 -0.00013200000103097409
   vertex 0.00092299998505041003 0.024763999506831169 -0.0047800000756978989
   vertex -6.5000000176951289e-05 0.02448900043964386 -0.0023560000117868185
  endloop
 endfacet
 facet normal 0.99109858482888014 0.0093826401497850518 0.13279895034980807
  outer loop
   vertex 0.014375000260770321 0.021550999954342842 0.0065910001285374165
   vertex 0.015406999737024307 0.0076950001530349255 -0.00013200000103097409
   vertex 0.015277000144124031 0.021426999941468239 -0.00013200000103097409
  endloop
 endfacet
 facet normal 0.99991743430549929 0.0094661273955957449 0.008690052015824885
  outer loop
   vertex 0.015425999648869038 0.0075469999574124813 -0.0021569998934864998
   vertex 0.015277000144124031 0.021426999941468239 -0.00013200000103097409
   vertex 0.015406999737024307 0.0076950001530349255 -0.00013200000103097409
  endloop
 endfacet
 facet normal 0.37618506924999651 0.48036544969292616 0.79229655332753302
  outer loop
   vertex 0.008759000338613987 0.024226000532507896 0.011679000221192837
   vertex 0.0042289998382329941 0.027635000646114349 0.011762999929487705
   vertex 0.0049879997968673706 0.021507000550627708 0.015118000097572803
  endloop
 endfacet
 facet normal 0.59575598452276557 0.79706173578724593 0.098830138364433398
  outer loop
   vertex -0.0033140000887215137 0.016195999458432198 0.026427999138832092
   vertex 0.00073899998096749187 0.013813000172376633 0.021214999258518219
   vertex -0.001108999946154654 0.015289000235497952 0.020450999960303307
  endloop
 endfacet
 facet normal 0.37602374565022195 0.48038192497597237 -0.79236314204003488
  outer loop
   vertex 0.0042289998382329941 0.027635000646114349 -0.012025999836623669
   vertex 0.008759000338613987 0.024226000532507896 -0.011943000368773937
   vertex 0.0049879997968673706 0.021507000550627708 -0.015381000004708767
  endloop
 endfacet
 facet normal 0.59575593934575211 0.79706177620013796 -0.098830084766440271
  outer loop
   vertex 0.00073899998096749187 0.013813000172376633 -0.021453000605106354
   vertex -0.0033140000887215137 0.016195999458432198 -0.026666000485420227
   vertex -0.001108999946154654 0.015289000235497952 -0.020688999444246292
  endloop
 endfacet
endsolid
