solid Visualization Toolkit generated SLA File
 facet normal -0.031779347791097909 0.99947629260238136 -0.0061002934168317815
  outer loop
   vertex -0.025115000084042549 0.023135000839829445 -0.0001500000071246177
   vertex -0.013365999795496464 0.023535000160336494 0.0041800001636147499
   vertex -0.014012999832630157 0.02348800003528595 -0.0001500000071246177
  endloop
 endfacet
 facet normal 0.072595925366965269 0.95569476569504463 -0.28526714925348134
  outer loop
   vertex -0.025115000084042549 0.023135000839829445 -0.0001500000071246177
   vertex -0.026076000183820724 0.023207999765872955 -0.0001500000071246177
   vertex -0.013365999795496464 0.023535000160336494 0.0041800001636147499
  endloop
 endfacet
 facet normal -0.031779347791082005 0.9994762926018812 0.0061002934988342254
  outer loop
   vertex -0.025115000084042549 0.023135000839829445 -0.0001500000071246177
   vertex -0.014012999832630157 0.02348800003528595 -0.0001500000071246177
   vertex -0.013365999795496464 0.023535000160336494 -0.0044800001196563244
  endloop
 endfacet
 facet normal 0.072595925287549268 0.95569476464956626 0.28526715277622583
  outer loop
   vertex -0.025115000084042549 0.023135000839829445 -0.0001500000071246177
   vertex -0.013365999795496464 0.023535000160336494 -0.0044800001196563244
   vertex -0.026076000183820724 0.023207999765872955 -0.0001500000071246177
  endloop
 endfacet
 facet normal 0.92073688378614393 -0.38999209864817752 0.012237394648002609
  outer loop
   vertex -0.020212000235915184 0.0089239999651908875 0.0021220000926405191
   vertex -0.014012999832630157 0.02348800003528595 -0.0001500000071246177
   vertex -0.014302000403404236 0.022856999188661575 0.0014850000152364373
  endloop
 endfacet
 facet normal 0.92009300421526052 -0.39169968980092801 -0.00046540734171064837
  outer loop
   vertex -0.020214000716805458 0.008922000415623188 -0.0001500000071246177
   vertex -0.014012999832630157 0.02348800003528595 -0.0001500000071246177
   vertex -0.020212000235915184 0.0089239999651908875 0.0021220000926405191
  endloop
 endfacet
 facet normal 0.76797878757701099 -0.63132085028085905 -0.10790072211249364
  outer loop
   vertex -0.014012999832630157 0.02348800003528595 -0.0001500000071246177
   vertex -0.013365999795496464 0.023535000160336494 0.0041800001636147499
   vertex -0.014302000403404236 0.022856999188661575 0.0014850000152364373
  endloop
 endfacet
 facet normal 0.92073652759704483 -0.38999318937323024 -0.01222943134541768
  outer loop
   vertex -0.014012999832630157 0.02348800003528595 -0.0001500000071246177
   vertex -0.020212000235915184 0.0089239999651908875 -0.0024220000486820936
   vertex -0.014302000403404236 0.022856999188661575 -0.0017859999788925052
  endloop
 endfacet
 facet normal 0.92009300421525531 -0.39169968980092579 0.00046540735363418106
  outer loop
   vertex -0.014012999832630157 0.02348800003528595 -0.0001500000071246177
   vertex -0.020214000716805458 0.008922000415623188 -0.0001500000071246177
   vertex -0.020212000235915184 0.0089239999651908875 -0.0024220000486820936
  endloop
 endfacet
 facet normal 0.76789830326601827 -0.63142098424632542 0.10788761047762631
  outer loop
   vertex -0.013365999795496464 0.023535000160336494 -0.0044800001196563244
   vertex -0.014012999832630157 0.02348800003528595 -0.0001500000071246177
   vertex -0.014302000403404236 0.022856999188661575 -0.0017859999788925052
  endloop
 endfacet
 facet normal 0.24802877129406126 0.91559712965184514 -0.31648637377249089
  outer loop
   vertex -0.007826000452041626 0.024802999570965767 0.012190000154078007
   vertex -0.014302000403404236 0.022856999188661575 0.0014850000152364373
   vertex -0.013365999795496464 0.023535000160336494 0.0041800001636147499
  endloop
 endfacet
 facet normal -0.0016346808861590909 0.98787357686541655 -0.15525180820051143
  outer loop
   vertex -0.007826000452041626 0.024802999570965767 0.012190000154078007
   vertex -0.013365999795496464 0.023535000160336494 0.0041800001636147499
   vertex -0.014322999864816666 0.023655999451875687 0.0049600000493228436
  endloop
 endfacet
 facet normal -0.20519976159825776 0.86408550529592854 0.45961864341810371
  outer loop
   vertex -0.013365999795496464 0.023535000160336494 0.0041800001636147499
   vertex -0.029557999223470688 0.019109999760985374 0.0052700000815093517
   vertex -0.017365999519824982 0.018525000661611557 0.011812999844551086
  endloop
 endfacet
 facet normal -0.58282294773184595 -0.504821312625503 -0.63676750381613068
  outer loop
   vertex -0.017365999519824982 0.018525000661611557 0.011812999844551086
   vertex -0.014322999864816666 0.023655999451875687 0.0049600000493228436
   vertex -0.013365999795496464 0.023535000160336494 0.0041800001636147499
  endloop
 endfacet
 facet normal 0.12789922382979199 0.66750279331422324 0.73354059837301844
  outer loop
   vertex -0.026076000183820724 0.023207999765872955 -0.0001500000071246177
   vertex -0.042405001819133759 0.022296000272035599 0.003527000080794096
   vertex -0.036915998905897141 0.020997000858187675 0.003751999931409955
  endloop
 endfacet
 facet normal 0.068668803477061752 0.77406205425081331 0.629374714774942
  outer loop
   vertex -0.029557999223470688 0.019109999760985374 0.0052700000815093517
   vertex -0.026076000183820724 0.023207999765872955 -0.0001500000071246177
   vertex -0.036915998905897141 0.020997000858187675 0.003751999931409955
  endloop
 endfacet
 facet normal 0.18254372141537945 0.85533181786926638 -0.48485592820164691
  outer loop
   vertex -0.042068000882863998 0.024309000000357628 -0.0001500000071246177
   vertex -0.036915998905897141 0.020997000858187675 -0.0040529998950660229
   vertex -0.042405001819133759 0.022296000272035599 -0.0038280000444501638
  endloop
 endfacet
 facet normal 0.06869429484869953 0.77411085281426284 -0.62931191106669415
  outer loop
   vertex -0.026076000183820724 0.023207999765872955 -0.0001500000071246177
   vertex -0.029557999223470688 0.019109999760985374 -0.0055709998123347759
   vertex -0.036915998905897141 0.020997000858187675 -0.0040529998950660229
  endloop
 endfacet
 facet normal -0.22374678286703623 0.84122918698025517 -0.4922101503719627
  outer loop
   vertex -0.026076000183820724 0.023207999765872955 -0.0001500000071246177
   vertex -0.017365999519824982 0.018525000661611557 -0.012113000266253948
   vertex -0.029557999223470688 0.019109999760985374 -0.0055709998123347759
  endloop
 endfacet
 facet normal 0.24843511427803053 0.91541348826329827 0.31669881512137416
  outer loop
   vertex -0.014302000403404236 0.022856999188661575 -0.0017859999788925052
   vertex -0.007826000452041626 0.024802999570965767 -0.012490999884903431
   vertex -0.013365999795496464 0.023535000160336494 -0.0044800001196563244
  endloop
 endfacet
 facet normal -0.0016245846148982698 0.98787549348460579 0.15523971816959575
  outer loop
   vertex -0.013365999795496464 0.023535000160336494 -0.0044800001196563244
   vertex -0.007826000452041626 0.024802999570965767 -0.012490999884903431
   vertex -0.014322999864816666 0.023655999451875687 -0.005260000005364418
  endloop
 endfacet
 facet normal -0.58282293640313199 -0.5048213506840975 0.6367674840127393
  outer loop
   vertex -0.014322999864816666 0.023655999451875687 -0.005260000005364418
   vertex -0.017365999519824982 0.018525000661611557 -0.012113000266253948
   vertex -0.013365999795496464 0.023535000160336494 -0.0044800001196563244
  endloop
 endfacet
 facet normal 0.79499729490869264 -0.35955310630541648 -0.48857022507924797
  outer loop
   vertex -0.013698999769985676 0.012839999981224537 0.0098379999399185181
   vertex -0.020212000235915184 0.0089239999651908875 0.0021220000926405191
   vertex -0.014302000403404236 0.022856999188661575 0.0014850000152364373
  endloop
 endfacet
 facet normal -0.16575092788986881 -0.81586670912458725 0.55397485759361287
  outer loop
   vertex -0.013698999769985676 0.012839999981224537 0.0098379999399185181
   vertex -0.030463999137282372 0.014100999571382999 0.0066789998672902584
   vertex -0.020212000235915184 0.0089239999651908875 0.0021220000926405191
  endloop
 endfacet
 facet normal -0.45034342593258403 -0.89285463590676462 0.0011823109159027621
  outer loop
   vertex -0.030463999137282372 0.014100999571382999 0.0066789998672902584
   vertex -0.020214000716805458 0.008922000415623188 -0.0001500000071246177
   vertex -0.020212000235915184 0.0089239999651908875 0.0021220000926405191
  endloop
 endfacet
 facet normal 0.83482413494723107 -0.32205927717042743 -0.44648234645735901
  outer loop
   vertex -0.007826000452041626 0.024802999570965767 0.012190000154078007
   vertex -0.013698999769985676 0.012839999981224537 0.0098379999399185181
   vertex -0.014302000403404236 0.022856999188661575 0.0014850000152364373
  endloop
 endfacet
 facet normal -0.45051833076062658 -0.89276639475786557 -0.0011823872891560017
  outer loop
   vertex -0.030469000339508057 0.014096999540925026 -0.0001500000071246177
   vertex -0.020212000235915184 0.0089239999651908875 -0.0024220000486820936
   vertex -0.020214000716805458 0.008922000415623188 -0.0001500000071246177
  endloop
 endfacet
 facet normal 0.83482413172584569 -0.32205927394769801 0.44648235480528187
  outer loop
   vertex -0.013698999769985676 0.012839999981224537 -0.010138999670743942
   vertex -0.007826000452041626 0.024802999570965767 -0.012490999884903431
   vertex -0.014302000403404236 0.022856999188661575 -0.0017859999788925052
  endloop
 endfacet
 facet normal 0.79502517225164671 -0.35952861709657202 0.48854288345534852
  outer loop
   vertex -0.020212000235915184 0.0089239999651908875 -0.0024220000486820936
   vertex -0.013698999769985676 0.012839999981224537 -0.010138999670743942
   vertex -0.014302000403404236 0.022856999188661575 -0.0017859999788925052
  endloop
 endfacet
 facet normal -0.35865907332052033 -0.90646345874828294 -0.22290730602419828
  outer loop
   vertex -0.020430000498890877 0.011505000293254852 -0.012567000463604927
   vertex -0.020212000235915184 0.0089239999651908875 -0.0024220000486820936
   vertex -0.030463999137282372 0.014100999571382999 -0.0069789998233318329
  endloop
 endfacet
 facet normal 0.81261176413317093 0.53145016755183105 0.23921295993634323
  outer loop
   vertex -0.0043680001981556416 0.01947999931871891 0.012268999591469765
   vertex -0.007826000452041626 0.024802999570965767 0.012190000154078007
   vertex -0.0053670001216232777 0.02034899964928627 0.013732000254094601
  endloop
 endfacet
 facet normal -0.54973556839604421 0.82940611232293215 0.09937960395190662
  outer loop
   vertex -0.007826000452041626 0.024802999570965767 0.012190000154078007
   vertex -0.017365999519824982 0.018525000661611557 0.011812999844551086
   vertex -0.010335999540984631 0.021857999265193939 0.022884000092744827
  endloop
 endfacet
 facet normal 0.77315335497557536 0.54128000504473961 0.33052964440240229
  outer loop
   vertex -0.007826000452041626 0.024802999570965767 0.012190000154078007
   vertex -0.010335999540984631 0.021857999265193939 0.022884000092744827
   vertex -0.0053670001216232777 0.02034899964928627 0.013732000254094601
  endloop
 endfacet
 facet normal -0.43683828130355651 0.31592847985197603 0.8422360189437248
  outer loop
   vertex -0.029557999223470688 0.019109999760985374 0.0052700000815093517
   vertex -0.030463999137282372 0.014100999571382999 0.0066789998672902584
   vertex -0.017365999519824982 0.018525000661611557 0.011812999844551086
  endloop
 endfacet
 facet normal -0.4237357308434197 0.24140734678157064 0.87302378165000483
  outer loop
   vertex -0.017365999519824982 0.018525000661611557 0.011812999844551086
   vertex -0.030463999137282372 0.014100999571382999 0.0066789998672902584
   vertex -0.020430000498890877 0.011505000293254852 0.012267000041902065
  endloop
 endfacet
 facet normal -0.82663798669746802 0.38720862457993221 0.40833701767005415
  outer loop
   vertex -0.017365999519824982 0.018525000661611557 0.011812999844551086
   vertex -0.020430000498890877 0.011505000293254852 0.012267000041902065
   vertex -0.010335999540984631 0.021857999265193939 0.022884000092744827
  endloop
 endfacet
 facet normal -0.11712711166451058 0.30388010860028275 0.94548300847250022
  outer loop
   vertex -0.036915998905897141 0.020997000858187675 0.003751999931409955
   vertex -0.036437001079320908 0.014961999841034412 0.0057509997859597206
   vertex -0.029557999223470688 0.019109999760985374 0.0052700000815093517
  endloop
 endfacet
 facet normal -0.020994774172365869 0.27209933766497479 0.96204010825938724
  outer loop
   vertex -0.036915998905897141 0.020997000858187675 0.003751999931409955
   vertex -0.047228001058101654 0.01421200018376112 0.0054460000246763229
   vertex -0.043122999370098114 0.014008999802172184 0.0055929999798536301
  endloop
 endfacet
 facet normal 0.012969638600195923 0.22361316203745979 0.97459167975013472
  outer loop
   vertex -0.042405001819133759 0.022296000272035599 0.003527000080794096
   vertex -0.047228001058101654 0.01421200018376112 0.0054460000246763229
   vertex -0.036915998905897141 0.020997000858187675 0.003751999931409955
  endloop
 endfacet
 facet normal 0.023985295883675591 0.87597618670976585 0.48175764228374202
  outer loop
   vertex -0.042068000882863998 0.024309000000357628 -0.0001500000071246177
   vertex -0.049743000417947769 0.022063000127673149 0.0043159998022019863
   vertex -0.042405001819133759 0.022296000272035599 0.003527000080794096
  endloop
 endfacet
 facet normal 0.099861324164772905 0.17301921377586577 0.97984287903747069
  outer loop
   vertex -0.047228001058101654 0.01421200018376112 0.0054460000246763229
   vertex -0.042405001819133759 0.022296000272035599 0.003527000080794096
   vertex -0.049743000417947769 0.022063000127673149 0.0043159998022019863
  endloop
 endfacet
 facet normal 0.049896487722773351 0.73082455510325195 -0.68073916456383277
  outer loop
   vertex -0.048250000923871994 0.026120999827980995 -0.0001500000071246177
   vertex -0.042405001819133759 0.022296000272035599 -0.0038280000444501638
   vertex -0.049743000417947769 0.022063000127673149 -0.0046160002239048481
  endloop
 endfacet
 facet normal 0.012944947552037943 0.22351287017620536 -0.97461501383801263
  outer loop
   vertex -0.047228001058101654 0.01421200018376112 -0.0057459999807178974
   vertex -0.042405001819133759 0.022296000272035599 -0.0038280000444501638
   vertex -0.036915998905897141 0.020997000858187675 -0.0040529998950660229
  endloop
 endfacet
 facet normal 0.099731247336009729 0.17298038032266394 -0.97986298344627254
  outer loop
   vertex -0.042405001819133759 0.022296000272035599 -0.0038280000444501638
   vertex -0.047228001058101654 0.01421200018376112 -0.0057459999807178974
   vertex -0.049743000417947769 0.022063000127673149 -0.0046160002239048481
  endloop
 endfacet
 facet normal -0.021002046419401829 0.27197717931481374 -0.96207449190702243
  outer loop
   vertex -0.047228001058101654 0.01421200018376112 -0.0057459999807178974
   vertex -0.036915998905897141 0.020997000858187675 -0.0040529998950660229
   vertex -0.043122999370098114 0.014008999802172184 -0.0058929999358952045
  endloop
 endfacet
 facet normal 0.051658236619009902 -0.1991483089399019 0.97860685550214277
  outer loop
   vertex -0.043122999370098114 0.014008999802172184 -0.0058929999358952045
   vertex -0.036437001079320908 0.014961999841034412 -0.0060519999824464321
   vertex -0.029557999223470688 0.019109999760985374 -0.0055709998123347759
  endloop
 endfacet
 facet normal -0.19880948045862371 -0.43216456898717032 -0.87960705760692115
  outer loop
   vertex -0.036437001079320908 0.014961999841034412 -0.0060519999824464321
   vertex -0.017365999519824982 0.018525000661611557 -0.012113000266253948
   vertex -0.030463999137282372 0.014100999571382999 -0.0069789998233318329
  endloop
 endfacet
 facet normal -0.68003374127834637 0.69896356980296537 -0.22136855876856137
  outer loop
   vertex -0.014322999864816666 0.023655999451875687 -0.005260000005364418
   vertex -0.010335999540984631 0.021857999265193939 -0.023184999823570251
   vertex -0.017365999519824982 0.018525000661611557 -0.012113000266253948
  endloop
 endfacet
 facet normal -0.42373575908617833 0.2414073580210819 -0.87302376483400579
  outer loop
   vertex -0.030463999137282372 0.014100999571382999 -0.0069789998233318329
   vertex -0.017365999519824982 0.018525000661611557 -0.012113000266253948
   vertex -0.020430000498890877 0.011505000293254852 -0.012567000463604927
  endloop
 endfacet
 facet normal -0.82665093741352524 0.387212352873676 -0.4083072635349167
  outer loop
   vertex -0.020430000498890877 0.011505000293254852 -0.012567000463604927
   vertex -0.017365999519824982 0.018525000661611557 -0.012113000266253948
   vertex -0.010335999540984631 0.021857999265193939 -0.023184999823570251
  endloop
 endfacet
 facet normal 0.46087234315649356 -0.052075428173474457 0.88593726250451432
  outer loop
   vertex -0.013698999769985676 0.012839999981224537 -0.010138999670743942
   vertex -0.0053670001216232777 0.02034899964928627 -0.014031999744474888
   vertex -0.007826000452041626 0.024802999570965767 -0.012490999884903431
  endloop
 endfacet
 facet normal 0.77319346426799729 0.54122603646453837 -0.33052419618862899
  outer loop
   vertex -0.010335999540984631 0.021857999265193939 -0.023184999823570251
   vertex -0.007826000452041626 0.024802999570965767 -0.012490999884903431
   vertex -0.0053670001216232777 0.02034899964928627 -0.014031999744474888
  endloop
 endfacet
 facet normal 0.083980704084966676 0.23639114890122168 -0.96802193470114806
  outer loop
   vertex -0.0043680001981556416 0.01947999931871891 0.012268999591469765
   vertex -0.001803999999538064 0.013089999556541443 0.010931000113487244
   vertex -0.013698999769985676 0.012839999981224537 0.0098379999399185181
  endloop
 endfacet
 facet normal 0.08708765305085181 0.15719517827001989 -0.98372019223697504
  outer loop
   vertex -0.001803999999538064 0.013089999556541443 0.010931000113487244
   vertex -0.005994000006467104 0.008489999920129776 0.0098249996080994606
   vertex -0.013698999769985676 0.012839999981224537 0.0098379999399185181
  endloop
 endfacet
 facet normal -0.35407911605105125 -0.62923541821803297 0.69187482107421949
  outer loop
   vertex -0.0021740000229328871 0.019092999398708344 0.02142300084233284
   vertex -0.013698999769985676 0.012839999981224537 0.0098379999399185181
   vertex -0.005994000006467104 0.008489999920129776 0.0098249996080994606
  endloop
 endfacet
 facet normal 0.2700758822936844 -0.93365442295068879 0.23526248385134488
  outer loop
   vertex -0.0021740000229328871 0.019092999398708344 0.02142300084233284
   vertex -0.020430000498890877 0.011505000293254852 0.012267000041902065
   vertex -0.013698999769985676 0.012839999981224537 0.0098379999399185181
  endloop
 endfacet
 facet normal 0.14279078188563446 0.98975259703941942 -0.00076763416652704563
  outer loop
   vertex -0.036440998315811157 0.014957999810576439 -0.0001500000071246177
   vertex -0.036437001079320908 0.014961999841034412 0.0057509997859597206
   vertex -0.030463999137282372 0.014100999571382999 0.0066789998672902584
  endloop
 endfacet
 facet normal -0.75388235594696951 0.65200275092484417 0.080955581514076863
  outer loop
   vertex -0.020430000498890877 0.011505000293254852 0.012267000041902065
   vertex -0.01411299966275692 0.017278000712394714 0.024598000571131706
   vertex -0.010335999540984631 0.021857999265193939 0.022884000092744827
  endloop
 endfacet
 facet normal -0.84283180060674534 0.50068002011042079 0.19736786300768483
  outer loop
   vertex -0.020430000498890877 0.011505000293254852 0.012267000041902065
   vertex -0.018988000229001045 0.011908999644219875 0.017400000244379044
   vertex -0.01411299966275692 0.017278000712394714 0.024598000571131706
  endloop
 endfacet
 facet normal -0.63523806999889643 0.76318862002332111 0.11838802596114188
  outer loop
   vertex -0.020430000498890877 0.011505000293254852 0.012267000041902065
   vertex -0.0178810004144907 0.01194899994879961 0.023081999272108078
   vertex -0.018988000229001045 0.011908999644219875 0.017400000244379044
  endloop
 endfacet
 facet normal -0.14277799529903634 -0.98975450278685062 -0.00068430369171215135
  outer loop
   vertex -0.030469000339508057 0.014096999540925026 -0.0001500000071246177
   vertex -0.036437001079320908 0.014961999841034412 -0.0060519999824464321
   vertex -0.030463999137282372 0.014100999571382999 -0.0069789998233318329
  endloop
 endfacet
 facet normal 0.083895073425685862 0.23650422528937962 0.96800173970668513
  outer loop
   vertex -0.001803999999538064 0.013089999556541443 -0.011230999603867531
   vertex -0.0043680001981556416 0.01947999931871891 -0.012570000253617764
   vertex -0.013698999769985676 0.012839999981224537 -0.010138999670743942
  endloop
 endfacet
 facet normal 0.08701044408640092 0.15705829592982753 0.98374888782631209
  outer loop
   vertex -0.005994000006467104 0.008489999920129776 -0.010126000270247459
   vertex -0.001803999999538064 0.013089999556541443 -0.011230999603867531
   vertex -0.013698999769985676 0.012839999981224537 -0.010138999670743942
  endloop
 endfacet
 facet normal -0.35407916872547934 -0.62923536345821485 -0.69187484391924658
  outer loop
   vertex -0.013698999769985676 0.012839999981224537 -0.010138999670743942
   vertex -0.0021740000229328871 0.019092999398708344 -0.021724000573158264
   vertex -0.005994000006467104 0.008489999920129776 -0.010126000270247459
  endloop
 endfacet
 facet normal 0.19275716262095627 -0.98123299156528521 0.0051470887071396838
  outer loop
   vertex -0.0178810004144907 0.01194899994879961 -0.023383000865578651
   vertex -0.013698999769985676 0.012839999981224537 -0.010138999670743942
   vertex -0.020430000498890877 0.011505000293254852 -0.012567000463604927
  endloop
 endfacet
 facet normal -0.7538893201864294 0.65199373021935103 -0.08096337853313286
  outer loop
   vertex -0.01411299966275692 0.017278000712394714 -0.024898000061511993
   vertex -0.020430000498890877 0.011505000293254852 -0.012567000463604927
   vertex -0.010335999540984631 0.021857999265193939 -0.023184999823570251
  endloop
 endfacet
 facet normal -0.84283181659632678 0.50067997593639402 -0.19736790678645694
  outer loop
   vertex -0.018988000229001045 0.011908999644219875 -0.017699999734759331
   vertex -0.020430000498890877 0.011505000293254852 -0.012567000463604927
   vertex -0.01411299966275692 0.017278000712394714 -0.024898000061511993
  endloop
 endfacet
 facet normal -0.63509845074930149 0.76331239964328546 -0.11833908232974559
  outer loop
   vertex -0.0178810004144907 0.01194899994879961 -0.023383000865578651
   vertex -0.020430000498890877 0.011505000293254852 -0.012567000463604927
   vertex -0.018988000229001045 0.011908999644219875 -0.017699999734759331
  endloop
 endfacet
 facet normal -0.5549430241007447 0.58025582094726325 -0.59610521072939626
  outer loop
   vertex 0.0015249999705702066 0.022673999890685081 0.0098919998854398727
   vertex -0.0043680001981556416 0.01947999931871891 0.012268999591469765
   vertex 0.0017979999538511038 0.024059999734163284 0.010986999608576298
  endloop
 endfacet
 facet normal -0.26564081555000801 0.57436525116833737 0.77429937063403276
  outer loop
   vertex 0.0017979999538511038 0.024059999734163284 0.010986999608576298
   vertex -0.0043680001981556416 0.01947999931871891 0.012268999591469765
   vertex -0.0011399999493733048 0.019791999831795692 0.013144999742507935
  endloop
 endfacet
 facet normal 0.047517812649298975 0.87270653967313983 -0.48592731256100502
  outer loop
   vertex -0.0011399999493733048 0.019791999831795692 0.013144999742507935
   vertex -0.0043680001981556416 0.01947999931871891 0.012268999591469765
   vertex -0.0053670001216232777 0.02034899964928627 0.013732000254094601
  endloop
 endfacet
 facet normal 0.36638297792584157 0.71279972679402492 -0.59806359441831591
  outer loop
   vertex 0.00029399999766610563 0.019884999841451645 0.01664699986577034
   vertex -0.0053670001216232777 0.02034899964928627 0.013732000254094601
   vertex -0.0029780000913888216 0.023431999608874321 0.018869999796152115
  endloop
 endfacet
 facet normal -0.37215923041199095 0.86199320541734481 -0.34418777002311662
  outer loop
   vertex -0.0029780000913888216 0.023431999608874321 0.018869999796152115
   vertex -0.0053670001216232777 0.02034899964928627 0.013732000254094601
   vertex -0.010335999540984631 0.021857999265193939 0.022884000092744827
  endloop
 endfacet
 facet normal -0.58788164382432184 0.65990898501380713 0.46788385776008551
  outer loop
   vertex -0.010335999540984631 0.021857999265193939 0.022884000092744827
   vertex -0.01411299966275692 0.017278000712394714 0.024598000571131706
   vertex -0.0076520000584423542 0.022373000159859657 0.025529999285936356
  endloop
 endfacet
 facet normal -0.42765574710461524 0.76297647548124747 -0.4847447367745284
  outer loop
   vertex -0.010335999540984631 0.021857999265193939 0.022884000092744827
   vertex 0.00034400000004097819 0.030349999666213989 0.026828000321984291
   vertex -0.0029780000913888216 0.023431999608874321 0.018869999796152115
  endloop
 endfacet
 facet normal -0.14109672561433753 0.98999563860474871 -0.00059123978910594348
  outer loop
   vertex -0.043127000331878662 0.014004999771714211 -0.0001500000071246177
   vertex -0.043122999370098114 0.014008999802172184 0.0055929999798536301
   vertex -0.036437001079320908 0.014961999841034412 0.0057509997859597206
  endloop
 endfacet
 facet normal -0.049418354433308956 -0.99877788566968284 0.00074922780365115245
  outer loop
   vertex -0.047231998294591904 0.014208000153303146 -0.0001500000071246177
   vertex -0.043122999370098114 0.014008999802172184 0.0055929999798536301
   vertex -0.047228001058101654 0.01421200018376112 0.0054460000246763229
  endloop
 endfacet
 facet normal -0.99636846244369282 -0.085142763552276263 0.00077256862021632974
  outer loop
   vertex -0.047231998294591904 0.014208000153303146 -0.0001500000071246177
   vertex -0.047228001058101654 0.01421200018376112 0.0054460000246763229
   vertex -0.048250000923871994 0.026120999827980995 -0.0001500000071246177
  endloop
 endfacet
 facet normal -0.032395492866339616 -0.42733728976526297 -0.90351168936435267
  outer loop
   vertex -0.05124799907207489 0.01713000051677227 0.0042099999263882637
   vertex -0.048250000923871994 0.026120999827980995 -0.0001500000071246177
   vertex -0.047228001058101654 0.01421200018376112 0.0054460000246763229
  endloop
 endfacet
 facet normal -0.25527809941863694 0.057142613373606335 0.96517760733143987
  outer loop
   vertex -0.05124799907207489 0.01713000051677227 0.0042099999263882637
   vertex -0.047228001058101654 0.01421200018376112 0.0054460000246763229
   vertex -0.049743000417947769 0.022063000127673149 0.0043159998022019863
  endloop
 endfacet
 facet normal -0.95478736001301645 0.29244290120924804 -0.053462572812132382
  outer loop
   vertex -0.049743000417947769 0.022063000127673149 0.0043159998022019863
   vertex -0.048250000923871994 0.026120999827980995 -0.0001500000071246177
   vertex -0.05124799907207489 0.01713000051677227 0.0042099999263882637
  endloop
 endfacet
 facet normal -0.99636846244368649 -0.085142763552275721 -0.00077256862825231709
  outer loop
   vertex -0.047228001058101654 0.01421200018376112 -0.0057459999807178974
   vertex -0.047231998294591904 0.014208000153303146 -0.0001500000071246177
   vertex -0.048250000923871994 0.026120999827980995 -0.0001500000071246177
  endloop
 endfacet
 facet normal -0.95478983520631988 0.29243302949527761 0.053472365263776196
  outer loop
   vertex -0.048250000923871994 0.026120999827980995 -0.0001500000071246177
   vertex -0.049743000417947769 0.022063000127673149 -0.0046160002239048481
   vertex -0.05124799907207489 0.01713000051677227 -0.0045110001228749752
  endloop
 endfacet
 facet normal -0.032634690625656916 -0.427350771382212 0.90349670456886333
  outer loop
   vertex -0.048250000923871994 0.026120999827980995 -0.0001500000071246177
   vertex -0.05124799907207489 0.01713000051677227 -0.0045110001228749752
   vertex -0.047228001058101654 0.01421200018376112 -0.0057459999807178974
  endloop
 endfacet
 facet normal -0.25498413344240539 0.057247018941325584 -0.96524912355047343
  outer loop
   vertex -0.047228001058101654 0.01421200018376112 -0.0057459999807178974
   vertex -0.05124799907207489 0.01713000051677227 -0.0045110001228749752
   vertex -0.049743000417947769 0.022063000127673149 -0.0046160002239048481
  endloop
 endfacet
 facet normal -0.049417671192578373 -0.99877793365407497 -0.00073008191208368803
  outer loop
   vertex -0.043127000331878662 0.014004999771714211 -0.0001500000071246177
   vertex -0.047228001058101654 0.01421200018376112 -0.0057459999807178974
   vertex -0.043122999370098114 0.014008999802172184 -0.0058929999358952045
  endloop
 endfacet
 facet normal -0.14109700940068545 0.98999560749141946 0.00057540062398915017
  outer loop
   vertex -0.036440998315811157 0.014957999810576439 -0.0001500000071246177
   vertex -0.036437001079320908 0.014961999841034412 -0.0060519999824464321
   vertex -0.043122999370098114 0.014008999802172184 -0.0058929999358952045
  endloop
 endfacet
 facet normal -0.58784432074081172 0.65983341504842585 -0.46803730509255953
  outer loop
   vertex -0.01411299966275692 0.017278000712394714 -0.024898000061511993
   vertex -0.010335999540984631 0.021857999265193939 -0.023184999823570251
   vertex -0.0076520000584423542 0.022373000159859657 -0.025830000638961792
  endloop
 endfacet
 facet normal -0.63700101454169478 0.69337146681558304 0.33684672549819822
  outer loop
   vertex -0.0076520000584423542 0.022373000159859657 -0.025830000638961792
   vertex -0.0029780000913888216 0.023431999608874321 -0.019170999526977539
   vertex 0.00034400000004097819 0.030349999666213989 -0.027129000052809715
  endloop
 endfacet
 facet normal -0.37214095955984527 0.86201841185746375 0.34414439387648571
  outer loop
   vertex -0.0053670001216232777 0.02034899964928627 -0.014031999744474888
   vertex -0.0029780000913888216 0.023431999608874321 -0.019170999526977539
   vertex -0.010335999540984631 0.021857999265193939 -0.023184999823570251
  endloop
 endfacet
 facet normal 0.038757902514823542 0.8488271396616055 0.52724786577713967
  outer loop
   vertex -0.0011399999493733048 0.019791999831795692 -0.013446000404655933
   vertex -0.0029780000913888216 0.023431999608874321 -0.019170999526977539
   vertex -0.0053670001216232777 0.02034899964928627 -0.014031999744474888
  endloop
 endfacet
 facet normal 0.047587325127368067 0.87258432887578086 0.48613993405975736
  outer loop
   vertex -0.0043680001981556416 0.01947999931871891 -0.012570000253617764
   vertex -0.0011399999493733048 0.019791999831795692 -0.013446000404655933
   vertex -0.0053670001216232777 0.02034899964928627 -0.014031999744474888
  endloop
 endfacet
 facet normal -0.26853261457055078 0.093154435978613767 0.95875569670767036
  outer loop
   vertex -0.001803999999538064 0.013089999556541443 -0.011230999603867531
   vertex 0.0017979999538511038 0.024059999734163284 -0.011288000270724297
   vertex -0.0043680001981556416 0.01947999931871891 -0.012570000253617764
  endloop
 endfacet
 facet normal -0.26564081555000801 0.57436525116833737 -0.77429937063403276
  outer loop
   vertex -0.0043680001981556416 0.01947999931871891 -0.012570000253617764
   vertex 0.0017979999538511038 0.024059999734163284 -0.011288000270724297
   vertex -0.0011399999493733048 0.019791999831795692 -0.013446000404655933
  endloop
 endfacet
 facet normal -0.50751226003516825 0.26516186351491428 0.81982955060871876
  outer loop
   vertex 0.0015249999705702066 0.022673999890685081 0.0098919998854398727
   vertex -0.005994000006467104 0.008489999920129776 0.0098249996080994606
   vertex -0.001803999999538064 0.013089999556541443 0.010931000113487244
  endloop
 endfacet
 facet normal -0.8504260610105846 0.45208550176020706 -0.26906172870224987
  outer loop
   vertex 0.0015249999705702066 0.022673999890685081 0.0098919998854398727
   vertex -0.0049230000004172325 0.007098000030964613 0.0041009997949004173
   vertex -0.005994000006467104 0.008489999920129776 0.0098249996080994606
  endloop
 endfacet
 facet normal -0.3305224346363359 -0.92940890981179392 0.16417672966812863
  outer loop
   vertex 0.013198999688029289 0.0014380000066012144 0.0085429996252059937
   vertex -0.005994000006467104 0.008489999920129776 0.0098249996080994606
   vertex -0.0049230000004172325 0.007098000030964613 0.0041009997949004173
  endloop
 endfacet
 facet normal -0.30440828048636298 -0.95104246739213627 0.053421194183705799
  outer loop
   vertex 0.010489000007510185 0.0035049999132752419 0.015003000386059284
   vertex 0.0069789998233318329 0.0047269999049603939 0.016757000237703323
   vertex -0.005994000006467104 0.008489999920129776 0.0098249996080994606
  endloop
 endfacet
 facet normal -0.5195011022337892 -0.40262465310262208 0.75366570407035982
  outer loop
   vertex 0.0069789998233318329 0.0047269999049603939 0.016757000237703323
   vertex 0.0047419997863471508 0.010687000118196011 0.01839900016784668
   vertex -0.005994000006467104 0.008489999920129776 0.0098249996080994606
  endloop
 endfacet
 facet normal -0.42394261485463591 -0.59457204096144756 0.68319598024077444
  outer loop
   vertex -0.005994000006467104 0.008489999920129776 0.0098249996080994606
   vertex 0.0047419997863471508 0.010687000118196011 0.01839900016784668
   vertex -0.0021740000229328871 0.019092999398708344 0.02142300084233284
  endloop
 endfacet
 facet normal 0.85897186039362838 0.36839479925850432 0.35560176452204972
  outer loop
   vertex -9.9999997473787516e-06 0.017085000872612 0.018276000395417213
   vertex -0.0029780000913888216 0.023431999608874321 0.018869999796152115
   vertex -0.0021740000229328871 0.019092999398708344 0.02142300084233284
  endloop
 endfacet
 facet normal 0.93328030628164016 -0.03724501534054498 -0.35721237204096185
  outer loop
   vertex -0.0021740000229328871 0.019092999398708344 0.02142300084233284
   vertex -0.0029780000913888216 0.023431999608874321 0.018869999796152115
   vertex 0.00034400000004097819 0.030349999666213989 0.026828000321984291
  endloop
 endfacet
 facet normal 0.78344051340981025 -0.40256932854320138 0.47345421918539182
  outer loop
   vertex -0.0021740000229328871 0.019092999398708344 0.02142300084233284
   vertex 0.00034400000004097819 0.030349999666213989 0.026828000321984291
   vertex -0.0019089999841526151 0.028700999915599823 0.029154000803828239
  endloop
 endfacet
 facet normal 0.98313026918105872 -0.18058146599620506 -0.029072460484803817
  outer loop
   vertex -0.0021740000229328871 0.019092999398708344 0.02142300084233284
   vertex -0.00057700002798810601 0.026131000369787216 0.031711999326944351
   vertex -0.0021269998978823423 0.018758999183773994 0.025087000802159309
  endloop
 endfacet
 facet normal 0.41301752587137225 -0.91065514711411755 -0.011123235035508825
  outer loop
   vertex -0.0021740000229328871 0.019092999398708344 0.02142300084233284
   vertex -0.0037980000488460064 0.018201999366283417 0.034067999571561813
   vertex -0.0178810004144907 0.01194899994879961 0.023081999272108078
  endloop
 endfacet
 facet normal -0.71861862573448809 -0.68110747601746102 -0.14028498444452117
  outer loop
   vertex -0.0021740000229328871 0.019092999398708344 0.02142300084233284
   vertex -0.00073299999348819256 0.015714000910520554 0.03044700063765049
   vertex -0.0037980000488460064 0.018201999366283417 0.034067999571561813
  endloop
 endfacet
 facet normal 0.49873827556611527 0.86372878213257709 0.072337565628880801
  outer loop
   vertex -0.0021269998978823423 0.018758999183773994 0.025087000802159309
   vertex 0.0030110001098364592 0.016256000846624374 0.019548999145627022
   vertex -0.0021740000229328871 0.019092999398708344 0.02142300084233284
  endloop
 endfacet
 facet normal 0.36960869826363479 0.87745432569895354 -0.30571770717453706
  outer loop
   vertex -0.0021740000229328871 0.019092999398708344 0.02142300084233284
   vertex 0.0030110001098364592 0.016256000846624374 0.019548999145627022
   vertex -9.9999997473787516e-06 0.017085000872612 0.018276000395417213
  endloop
 endfacet
 facet normal -0.64943461495976385 -0.74894616775358447 -0.13158388464885398
  outer loop
   vertex 0.0021329999435693026 0.014250000007450581 0.027730999514460564
   vertex -0.0021740000229328871 0.019092999398708344 0.02142300084233284
   vertex 0.0044350000098347664 0.013139000162482262 0.022693000733852386
  endloop
 endfacet
 facet normal -0.66556244677236653 -0.66761441416102818 0.33364295804168842
  outer loop
   vertex 0.0044350000098347664 0.013139000162482262 0.022693000733852386
   vertex -0.0021740000229328871 0.019092999398708344 0.02142300084233284
   vertex 0.0047419997863471508 0.010687000118196011 0.01839900016784668
  endloop
 endfacet
 facet normal -0.5889139711841046 -0.78325099202838344 -0.19924411667781045
  outer loop
   vertex -0.0021740000229328871 0.019092999398708344 0.02142300084233284
   vertex 0.0021329999435693026 0.014250000007450581 0.027730999514460564
   vertex -0.00073299999348819256 0.015714000910520554 0.03044700063765049
  endloop
 endfacet
 facet normal -0.82688660072900466 0.53992215562797197 0.15729785566521831
  outer loop
   vertex -0.018988000229001045 0.011908999644219875 0.017400000244379044
   vertex -0.0178810004144907 0.01194899994879961 0.023081999272108078
   vertex -0.01411299966275692 0.017278000712394714 0.024598000571131706
  endloop
 endfacet
 facet normal -0.57697988001645073 0.18141967078151397 0.79635489645617741
  outer loop
   vertex -0.01411299966275692 0.017278000712394714 0.024598000571131706
   vertex -0.0178810004144907 0.01194899994879961 0.023081999272108078
   vertex -0.0058109997771680355 0.021435000002384186 0.029665999114513397
  endloop
 endfacet
 facet normal -0.66667177852611326 0.42170770355085124 0.61458225851605608
  outer loop
   vertex -0.0058109997771680355 0.021435000002384186 0.029665999114513397
   vertex -0.0178810004144907 0.01194899994879961 0.023081999272108078
   vertex -0.0037980000488460064 0.018201999366283417 0.034067999571561813
  endloop
 endfacet
 facet normal -0.59834018152570201 0.68175756527629228 0.42094613593704849
  outer loop
   vertex -0.0076520000584423542 0.022373000159859657 0.025529999285936356
   vertex -0.01411299966275692 0.017278000712394714 0.024598000571131706
   vertex -0.0058109997771680355 0.021435000002384186 0.029665999114513397
  endloop
 endfacet
 facet normal -0.50719771910750278 0.26499400216907842 -0.82007844292272492
  outer loop
   vertex -0.005994000006467104 0.008489999920129776 -0.010126000270247459
   vertex 0.0015249999705702066 0.022673999890685081 -0.010192999616265297
   vertex -0.001803999999538064 0.013089999556541443 -0.011230999603867531
  endloop
 endfacet
 facet normal -0.85043692235703361 0.45209103564301556 0.26901809712939795
  outer loop
   vertex -0.0049230000004172325 0.007098000030964613 -0.0044010002166032791
   vertex 0.0015249999705702066 0.022673999890685081 -0.010192999616265297
   vertex -0.005994000006467104 0.008489999920129776 -0.010126000270247459
  endloop
 endfacet
 facet normal -0.33232376609161435 -0.92885466195693234 -0.16367630082439805
  outer loop
   vertex 0.010489000007510185 0.0035049999132752419 -0.015302999876439571
   vertex -0.0049230000004172325 0.007098000030964613 -0.0044010002166032791
   vertex -0.005994000006467104 0.008489999920129776 -0.010126000270247459
  endloop
 endfacet
 facet normal -0.3044013823747953 -0.9510454921640018 -0.05340664979986362
  outer loop
   vertex 0.0069789998233318329 0.0047269999049603939 -0.017057999968528748
   vertex 0.010489000007510185 0.0035049999132752419 -0.015302999876439571
   vertex -0.005994000006467104 0.008489999920129776 -0.010126000270247459
  endloop
 endfacet
 facet normal -0.51950068709296393 -0.40251431804194365 -0.75372492321878781
  outer loop
   vertex 0.0047419997863471508 0.010687000118196011 -0.018698999658226967
   vertex 0.0069789998233318329 0.0047269999049603939 -0.017057999968528748
   vertex -0.005994000006467104 0.008489999920129776 -0.010126000270247459
  endloop
 endfacet
 facet normal -0.42387997419564633 -0.59460535215256993 -0.68320585672798262
  outer loop
   vertex 0.0047419997863471508 0.010687000118196011 -0.018698999658226967
   vertex -0.005994000006467104 0.008489999920129776 -0.010126000270247459
   vertex -0.0021740000229328871 0.019092999398708344 -0.021724000573158264
  endloop
 endfacet
 facet normal 0.77566282789197094 0.42060503483879014 -0.47057261086349988
  outer loop
   vertex 0.00029399999766610563 0.019884999841451645 -0.016947999596595764
   vertex -0.0021740000229328871 0.019092999398708344 -0.021724000573158264
   vertex -0.0029780000913888216 0.023431999608874321 -0.019170999526977539
  endloop
 endfacet
 facet normal 0.93328030628164016 -0.03724501534054498 0.35721237204096185
  outer loop
   vertex -0.0029780000913888216 0.023431999608874321 -0.019170999526977539
   vertex -0.0021740000229328871 0.019092999398708344 -0.021724000573158264
   vertex 0.00034400000004097819 0.030349999666213989 -0.027129000052809715
  endloop
 endfacet
 facet normal 0.78336114632672871 -0.40260149301984444 -0.47355818253290244
  outer loop
   vertex 0.00034400000004097819 0.030349999666213989 -0.027129000052809715
   vertex -0.0021740000229328871 0.019092999398708344 -0.021724000573158264
   vertex -0.0019089999841526151 0.028700999915599823 -0.029454000294208527
  endloop
 endfacet
 facet normal 0.92595936116813748 0.1253734817288269 0.3562032447133045
  outer loop
   vertex -0.0019089999841526151 0.028700999915599823 -0.029454000294208527
   vertex -0.0021269998978823423 0.018758999183773994 -0.025388000532984734
   vertex -0.00057700002798810601 0.026131000369787216 -0.032012000679969788
  endloop
 endfacet
 facet normal 0.4130175247614794 -0.91065514761532462 0.011123235213368983
  outer loop
   vertex -0.0037980000488460064 0.018201999366283417 -0.034368999302387238
   vertex -0.0021740000229328871 0.019092999398708344 -0.021724000573158264
   vertex -0.0178810004144907 0.01194899994879961 -0.023383000865578651
  endloop
 endfacet
 facet normal -0.71861862573448809 -0.68110747601746102 0.14028498444452117
  outer loop
   vertex -0.00073299999348819256 0.015714000910520554 -0.030748000368475914
   vertex -0.0021740000229328871 0.019092999398708344 -0.021724000573158264
   vertex -0.0037980000488460064 0.018201999366283417 -0.034368999302387238
  endloop
 endfacet
 facet normal 0.52383274597268059 0.8295493588744437 -0.19351257178209469
  outer loop
   vertex 0.0032430000137537718 0.015189000405371189 -0.023795999586582184
   vertex -0.0021740000229328871 0.019092999398708344 -0.021724000573158264
   vertex 0.0030110001098364592 0.016256000846624374 -0.019850000739097595
  endloop
 endfacet
 facet normal 0.36966377149141638 0.87747381929432422 0.30559514475818078
  outer loop
   vertex 0.0030110001098364592 0.016256000846624374 -0.019850000739097595
   vertex -0.0021740000229328871 0.019092999398708344 -0.021724000573158264
   vertex -9.9999997473787516e-06 0.017085000872612 -0.018575999885797501
  endloop
 endfacet
 facet normal -0.64943461495976385 -0.74894616775358447 0.13158388464885398
  outer loop
   vertex -0.0021740000229328871 0.019092999398708344 -0.021724000573158264
   vertex 0.0021329999435693026 0.014250000007450581 -0.028031999245285988
   vertex 0.0044350000098347664 0.013139000162482262 -0.022994000464677811
  endloop
 endfacet
 facet normal -0.66557126153785273 -0.66763803080325945 -0.33357811025314149
  outer loop
   vertex -0.0021740000229328871 0.019092999398708344 -0.021724000573158264
   vertex 0.0044350000098347664 0.013139000162482262 -0.022994000464677811
   vertex 0.0047419997863471508 0.010687000118196011 -0.018698999658226967
  endloop
 endfacet
 facet normal -0.5889139711841046 -0.78325099202838344 0.19924411667781045
  outer loop
   vertex 0.0021329999435693026 0.014250000007450581 -0.028031999245285988
   vertex -0.0021740000229328871 0.019092999398708344 -0.021724000573158264
   vertex -0.00073299999348819256 0.015714000910520554 -0.030748000368475914
  endloop
 endfacet
 facet normal -0.82687348230074942 0.53995112917958743 -0.15726735950450979
  outer loop
   vertex -0.0178810004144907 0.01194899994879961 -0.023383000865578651
   vertex -0.018988000229001045 0.011908999644219875 -0.017699999734759331
   vertex -0.01411299966275692 0.017278000712394714 -0.024898000061511993
  endloop
 endfacet
 facet normal -0.57712123865370835 0.18171782564731961 -0.79618446840968948
  outer loop
   vertex -0.0178810004144907 0.01194899994879961 -0.023383000865578651
   vertex -0.01411299966275692 0.017278000712394714 -0.024898000061511993
   vertex -0.0058109997771680355 0.021435000002384186 -0.029967000707983971
  endloop
 endfacet
 facet normal -0.66667174156315345 0.42170756061679637 -0.61458239668882719
  outer loop
   vertex -0.0178810004144907 0.01194899994879961 -0.023383000865578651
   vertex -0.0058109997771680355 0.021435000002384186 -0.029967000707983971
   vertex -0.0037980000488460064 0.018201999366283417 -0.034368999302387238
  endloop
 endfacet
 facet normal -0.59835756941850249 0.68179510597213067 -0.42086060945642467
  outer loop
   vertex -0.01411299966275692 0.017278000712394714 -0.024898000061511993
   vertex -0.0076520000584423542 0.022373000159859657 -0.025830000638961792
   vertex -0.0058109997771680355 0.021435000002384186 -0.029967000707983971
  endloop
 endfacet
 facet normal -0.52839803214812398 0.70688863842954508 -0.47021694193341662
  outer loop
   vertex 0.0045429999008774757 0.026110000908374786 0.011665999889373779
   vertex 0.0037809999193996191 0.021212000399827957 0.0051589999347925186
   vertex 0.0015249999705702066 0.022673999890685081 0.0098919998854398727
  endloop
 endfacet
 facet normal 0.51821059894501664 0.46501254610103099 -0.71778904081191119
  outer loop
   vertex 0.0057199997827410698 0.024847999215126038 0.014329000376164913
   vertex 0.0015249999705702066 0.022673999890685081 0.0098919998854398727
   vertex 0.0017979999538511038 0.024059999734163284 0.010986999608576298
  endloop
 endfacet
 facet normal 0.32352068644800769 0.93652935689335004 -0.13508193482897041
  outer loop
   vertex 0.0037809999193996191 0.021212000399827957 0.0051589999347925186
   vertex 0.0027580000460147858 0.021166000515222549 0.0023900000378489494
   vertex 0.0015249999705702066 0.022673999890685081 0.0098919998854398727
  endloop
 endfacet
 facet normal -0.86541301605687404 0.44434507132668349 -0.23155511056124234
  outer loop
   vertex 0.0027580000460147858 0.021166000515222549 0.0023900000378489494
   vertex -0.0049230000004172325 0.007098000030964613 0.0041009997949004173
   vertex 0.0015249999705702066 0.022673999890685081 0.0098919998854398727
  endloop
 endfacet
 facet normal -0.57797083274806083 0.80909787459550597 -0.10635010962640402
  outer loop
   vertex 0.0057199997827410698 0.024847999215126038 0.014329000376164913
   vertex -0.0011399999493733048 0.019791999831795692 0.013144999742507935
   vertex 0.0046379999257624149 0.024257000535726547 0.015713000670075417
  endloop
 endfacet
 facet normal -0.65928288473222185 0.70871255259357557 0.25114258041092519
  outer loop
   vertex 0.0046379999257624149 0.024257000535726547 0.015713000670075417
   vertex -0.0011399999493733048 0.019791999831795692 0.013144999742507935
   vertex 0.00029399999766610563 0.019884999841451645 0.01664699986577034
  endloop
 endfacet
 facet normal -0.33240220033710338 0.50098195703290571 0.79907812880752294
  outer loop
   vertex -9.9999997473787516e-06 0.017085000872612 0.018276000395417213
   vertex 0.0046379999257624149 0.024257000535726547 0.015713000670075417
   vertex 0.00029399999766610563 0.019884999841451645 0.01664699986577034
  endloop
 endfacet
 facet normal -0.68436345789124353 0.71175095598727089 -0.15829476982625254
  outer loop
   vertex -0.0019089999841526151 0.028700999915599823 0.029154000803828239
   vertex 0.00034400000004097819 0.030349999666213989 0.026828000321984291
   vertex -0.0076520000584423542 0.022373000159859657 0.025529999285936356
  endloop
 endfacet
 facet normal -0.77485655432436529 0.44757073371188155 0.44640537468222752
  outer loop
   vertex -0.0058109997771680355 0.021435000002384186 0.029665999114513397
   vertex -0.0019089999841526151 0.028700999915599823 0.029154000803828239
   vertex -0.0076520000584423542 0.022373000159859657 0.025529999285936356
  endloop
 endfacet
 facet normal -0.68434471517515372 0.71175916433716213 0.1583388859184704
  outer loop
   vertex 0.00034400000004097819 0.030349999666213989 -0.027129000052809715
   vertex -0.0019089999841526151 0.028700999915599823 -0.029454000294208527
   vertex -0.0076520000584423542 0.022373000159859657 -0.025830000638961792
  endloop
 endfacet
 facet normal -0.77487057063637144 0.4476336549048483 -0.44631794693714849
  outer loop
   vertex -0.0019089999841526151 0.028700999915599823 -0.029454000294208527
   vertex -0.0058109997771680355 0.021435000002384186 -0.029967000707983971
   vertex -0.0076520000584423542 0.022373000159859657 -0.025830000638961792
  endloop
 endfacet
 facet normal -0.66539578995144033 0.64663230568155339 -0.37298137214056282
  outer loop
   vertex 0.0017979999538511038 0.024059999734163284 -0.011288000270724297
   vertex 0.0046379999257624149 0.024257000535726547 -0.016013000160455704
   vertex -0.0011399999493733048 0.019791999831795692 -0.013446000404655933
  endloop
 endfacet
 facet normal -0.65925642401363094 0.708741252629142 -0.25113104988916463
  outer loop
   vertex -0.0011399999493733048 0.019791999831795692 -0.013446000404655933
   vertex 0.0046379999257624149 0.024257000535726547 -0.016013000160455704
   vertex 0.00029399999766610563 0.019884999841451645 -0.016947999596595764
  endloop
 endfacet
 facet normal -0.33198847035278628 0.50081310188570705 -0.79935592356123408
  outer loop
   vertex 0.0046379999257624149 0.024257000535726547 -0.016013000160455704
   vertex -9.9999997473787516e-06 0.017085000872612 -0.018575999885797501
   vertex 0.00029399999766610563 0.019884999841451645 -0.016947999596595764
  endloop
 endfacet
 facet normal -0.29044848952084579 0.62776627878486169 0.72218361526392061
  outer loop
   vertex 0.0045429999008774757 0.026110000908374786 -0.011966000311076641
   vertex 0.0017979999538511038 0.024059999734163284 -0.011288000270724297
   vertex 0.0015249999705702066 0.022673999890685081 -0.010192999616265297
  endloop
 endfacet
 facet normal -0.52847126777923481 0.70682393218135975 0.47023190877213855
  outer loop
   vertex 0.0037809999193996191 0.021212000399827957 -0.0054600001312792301
   vertex 0.0045429999008774757 0.026110000908374786 -0.011966000311076641
   vertex 0.0015249999705702066 0.022673999890685081 -0.010192999616265297
  endloop
 endfacet
 facet normal 0.32352071255681786 0.93652934814212929 0.13508193297109422
  outer loop
   vertex 0.0027580000460147858 0.021166000515222549 -0.0026910000015050173
   vertex 0.0037809999193996191 0.021212000399827957 -0.0054600001312792301
   vertex 0.0015249999705702066 0.022673999890685081 -0.010192999616265297
  endloop
 endfacet
 facet normal -0.92016268882941221 0.39065924713575562 0.026191195344065714
  outer loop
   vertex -0.00508899986743927 0.0064220000058412552 -0.0001500000071246177
   vertex 0.0015249999705702066 0.022673999890685081 -0.010192999616265297
   vertex -0.0049230000004172325 0.007098000030964613 -0.0044010002166032791
  endloop
 endfacet
 facet normal -0.29419748684753583 -0.95558672659374955 -0.017373735650021246
  outer loop
   vertex -0.0049230000004172325 0.007098000030964613 0.0041009997949004173
   vertex 0.014468999579548836 0.0011630000080913305 0.00216299993917346
   vertex 0.013198999688029289 0.0014380000066012144 0.0085429996252059937
  endloop
 endfacet
 facet normal 0.95878676744671409 -0.20223424055370839 0.19957265974262434
  outer loop
   vertex 0.013198999688029289 0.0014380000066012144 0.0085429996252059937
   vertex 0.014468999579548836 0.0011630000080913305 0.00216299993917346
   vertex 0.016285000368952751 0.015066999942064285 0.0075280000455677509
  endloop
 endfacet
 facet normal 0.81074922545851436 -0.028406881546605006 0.58470397852179545
  outer loop
   vertex 0.010489000007510185 0.0035049999132752419 0.015003000386059284
   vertex 0.016285000368952751 0.015066999942064285 0.0075280000455677509
   vertex 0.013326000422239304 0.017002999782562256 0.011725000105798244
  endloop
 endfacet
 facet normal 0.47514265297671665 0.11208077523190317 0.87274128992827138
  outer loop
   vertex 0.0069789998233318329 0.0047269999049603939 0.016757000237703323
   vertex 0.010489000007510185 0.0035049999132752419 0.015003000386059284
   vertex 0.013326000422239304 0.017002999782562256 0.011725000105798244
  endloop
 endfacet
 facet normal 0.62089725825121944 -0.015696073201692379 0.78373479441847271
  outer loop
   vertex 0.0047419997863471508 0.010687000118196011 0.01839900016784668
   vertex 0.013326000422239304 0.017002999782562256 0.011725000105798244
   vertex 0.011335000395774841 0.018934000283479691 0.01334100030362606
  endloop
 endfacet
 facet normal 0.70364701028181176 -0.13462896533637372 0.69767895669421298
  outer loop
   vertex 0.0047419997863471508 0.010687000118196011 0.01839900016784668
   vertex 0.011335000395774841 0.018934000283479691 0.01334100030362606
   vertex 0.0070949997752904892 0.017123999074101448 0.017268000170588493
  endloop
 endfacet
 facet normal 0.93054756786469206 -0.28534863054262233 0.22947196558306759
  outer loop
   vertex 0.0047419997863471508 0.010687000118196011 0.01839900016784668
   vertex 0.0046890000812709332 0.014445000328123569 0.023287000134587288
   vertex 0.0044350000098347664 0.013139000162482262 0.022693000733852386
  endloop
 endfacet
 facet normal -0.23522267456279747 0.45866883652236062 0.85690909189642073
  outer loop
   vertex 0.0030110001098364592 0.016256000846624374 0.019548999145627022
   vertex 0.0046379999257624149 0.024257000535726547 0.015713000670075417
   vertex -9.9999997473787516e-06 0.017085000872612 0.018276000395417213
  endloop
 endfacet
 facet normal -0.61048407187246567 0.37692821919452224 0.69658762231671945
  outer loop
   vertex -0.0019089999841526151 0.028700999915599823 0.029154000803828239
   vertex -0.0058109997771680355 0.021435000002384186 0.029665999114513397
   vertex -0.00057700002798810601 0.026131000369787216 0.031711999326944351
  endloop
 endfacet
 facet normal 0.45048281391371731 0.54249432046010304 -0.70905933929179032
  outer loop
   vertex 0.00065699999686330557 0.017433999106287956 0.025841999799013138
   vertex -0.0021269998978823423 0.018758999183773994 0.025087000802159309
   vertex -0.00057700002798810601 0.026131000369787216 0.031711999326944351
  endloop
 endfacet
 facet normal 0.47324498121625758 0.83587789614978181 -0.27811388041922408
  outer loop
   vertex 0.00065699999686330557 0.017433999106287956 0.025841999799013138
   vertex 0.0032430000137537718 0.015189000405371189 0.02349499985575676
   vertex -0.0021269998978823423 0.018758999183773994 0.025087000802159309
  endloop
 endfacet
 facet normal -0.5330271336774316 0.24068707590494484 0.81114228484030404
  outer loop
   vertex -0.00057700002798810601 0.026131000369787216 0.031711999326944351
   vertex -0.0058109997771680355 0.021435000002384186 0.029665999114513397
   vertex -0.0013119999784976244 0.018828000873327255 0.033395998179912567
  endloop
 endfacet
 facet normal 0.96527340528403383 -0.037533808468969171 0.25853136419626166
  outer loop
   vertex 0.00065699999686330557 0.017433999106287956 0.025841999799013138
   vertex -0.00057700002798810601 0.026131000369787216 0.031711999326944351
   vertex -0.0013119999784976244 0.018828000873327255 0.033395998179912567
  endloop
 endfacet
 facet normal -0.037797267090052752 0.79707935661158102 0.60269052246089871
  outer loop
   vertex -0.0058109997771680355 0.021435000002384186 0.029665999114513397
   vertex -0.0037980000488460064 0.018201999366283417 0.034067999571561813
   vertex -0.0013119999784976244 0.018828000873327255 0.033395998179912567
  endloop
 endfacet
 facet normal 0.34627418416300526 -0.61032403594055862 0.71245965537388345
  outer loop
   vertex -0.00073299999348819256 0.015714000910520554 0.03044700063765049
   vertex -0.0013119999784976244 0.018828000873327255 0.033395998179912567
   vertex -0.0037980000488460064 0.018201999366283417 0.034067999571561813
  endloop
 endfacet
 facet normal 0.36353997538457966 -0.60403628448252722 0.70921002060456151
  outer loop
   vertex 0.0021329999435693026 0.014250000007450581 0.027730999514460564
   vertex -0.0013119999784976244 0.018828000873327255 0.033395998179912567
   vertex -0.00073299999348819256 0.015714000910520554 0.03044700063765049
  endloop
 endfacet
 facet normal 0.4709425341433936 0.85816666697977551 0.20436022416170307
  outer loop
   vertex 0.0046890000812709332 0.014445000328123569 0.023287000134587288
   vertex 0.0030110001098364592 0.016256000846624374 0.019548999145627022
   vertex 0.0032430000137537718 0.015189000405371189 0.02349499985575676
  endloop
 endfacet
 facet normal 0.40714871670998554 0.32622449879727861 0.85311634544525994
  outer loop
   vertex 0.0070949997752904892 0.017123999074101448 0.017268000170588493
   vertex 0.0046379999257624149 0.024257000535726547 0.015713000670075417
   vertex 0.0030110001098364592 0.016256000846624374 0.019548999145627022
  endloop
 endfacet
 facet normal 0.72740924490870107 0.66627840540086736 0.16416113095928286
  outer loop
   vertex 0.0021609999239444733 0.015553999692201614 0.026807999238371849
   vertex 0.0032430000137537718 0.015189000405371189 0.02349499985575676
   vertex 0.00065699999686330557 0.017433999106287956 0.025841999799013138
  endloop
 endfacet
 facet normal 0.90252076564849704 0.2357227752871926 0.36040399662622286
  outer loop
   vertex 0.0044350000098347664 0.013139000162482262 0.022693000733852386
   vertex 0.0021609999239444733 0.015553999692201614 0.026807999238371849
   vertex 0.0021329999435693026 0.014250000007450581 0.027730999514460564
  endloop
 endfacet
 facet normal -0.25213367568447548 -0.96560780633023136 0.063483650965851346
  outer loop
   vertex -0.00508899986743927 0.0064220000058412552 -0.0001500000071246177
   vertex 0.014468999579548836 0.0011630000080913305 -0.0024639999028295279
   vertex 0.014480999670922756 0.0013119999784976244 -0.0001500000071246177
  endloop
 endfacet
 facet normal 0.78063109225452243 -0.13125005371518716 -0.61105525217059686
  outer loop
   vertex 0.013198999688029289 0.0014380000066012144 -0.0088440002873539925
   vertex 0.013326000422239304 0.017002999782562256 -0.012024999596178532
   vertex 0.016285000368952751 0.015066999942064285 -0.0078290002420544624
  endloop
 endfacet
 facet normal 0.47532464427834031 0.11202034112354729 -0.87264994454605538
  outer loop
   vertex 0.010489000007510185 0.0035049999132752419 -0.015302999876439571
   vertex 0.0069789998233318329 0.0047269999049603939 -0.017057999968528748
   vertex 0.013326000422239304 0.017002999782562256 -0.012024999596178532
  endloop
 endfacet
 facet normal 0.95878677267367107 -0.20223423648125066 -0.19957263875805137
  outer loop
   vertex 0.014468999579548836 0.0011630000080913305 -0.0024639999028295279
   vertex 0.013198999688029289 0.0014380000066012144 -0.0088440002873539925
   vertex 0.016285000368952751 0.015066999942064285 -0.0078290002420544624
  endloop
 endfacet
 facet normal 0.62725483018176564 -0.0050094732747488968 -0.77879797328392808
  outer loop
   vertex 0.0069789998233318329 0.0047269999049603939 -0.017057999968528748
   vertex 0.011335000395774841 0.018934000283479691 -0.013640999794006348
   vertex 0.013326000422239304 0.017002999782562256 -0.012024999596178532
  endloop
 endfacet
 facet normal 0.70375419187157207 -0.13480138132219457 -0.69753754380450284
  outer loop
   vertex 0.011335000395774841 0.018934000283479691 -0.013640999794006348
   vertex 0.0047419997863471508 0.010687000118196011 -0.018698999658226967
   vertex 0.0070949997752904892 0.017123999074101448 -0.017568999901413918
  endloop
 endfacet
 facet normal 0.92619215566815383 -0.28970761383927324 -0.24132465531381736
  outer loop
   vertex 0.0070949997752904892 0.017123999074101448 -0.017568999901413918
   vertex 0.0044350000098347664 0.013139000162482262 -0.022994000464677811
   vertex 0.0046890000812709332 0.014445000328123569 -0.023586999624967575
  endloop
 endfacet
 facet normal -0.2354337424285578 0.45876626875758819 -0.85679896333756367
  outer loop
   vertex 0.0046379999257624149 0.024257000535726547 -0.016013000160455704
   vertex 0.0030110001098364592 0.016256000846624374 -0.019850000739097595
   vertex -9.9999997473787516e-06 0.017085000872612 -0.018575999885797501
  endloop
 endfacet
 facet normal -0.61041634271131551 0.37698975760838871 -0.69661367429107368
  outer loop
   vertex -0.0058109997771680355 0.021435000002384186 -0.029967000707983971
   vertex -0.0019089999841526151 0.028700999915599823 -0.029454000294208527
   vertex -0.00057700002798810601 0.026131000369787216 -0.032012000679969788
  endloop
 endfacet
 facet normal 0.45047103060299354 0.54244286695456323 0.7091061885765706
  outer loop
   vertex -0.0021269998978823423 0.018758999183773994 -0.025388000532984734
   vertex 0.00065699999686330557 0.017433999106287956 -0.026142999529838562
   vertex -0.00057700002798810601 0.026131000369787216 -0.032012000679969788
  endloop
 endfacet
 facet normal -0.53290733096792298 0.24069277889507137 -0.81121930622268423
  outer loop
   vertex -0.0058109997771680355 0.021435000002384186 -0.029967000707983971
   vertex -0.00057700002798810601 0.026131000369787216 -0.032012000679969788
   vertex -0.0013119999784976244 0.018828000873327255 -0.033695999532938004
  endloop
 endfacet
 facet normal 0.96526549870471645 -0.037525942708523712 -0.25856202473327711
  outer loop
   vertex -0.00057700002798810601 0.026131000369787216 -0.032012000679969788
   vertex 0.00065699999686330557 0.017433999106287956 -0.026142999529838562
   vertex -0.0013119999784976244 0.018828000873327255 -0.033695999532938004
  endloop
 endfacet
 facet normal 0.47324498121625758 0.83587789614978181 0.27811388041922408
  outer loop
   vertex 0.0032430000137537718 0.015189000405371189 -0.023795999586582184
   vertex 0.00065699999686330557 0.017433999106287956 -0.026142999529838562
   vertex -0.0021269998978823423 0.018758999183773994 -0.025388000532984734
  endloop
 endfacet
 facet normal -0.037584358970506028 0.79713303536428426 -0.60263284003752959
  outer loop
   vertex -0.0037980000488460064 0.018201999366283417 -0.034368999302387238
   vertex -0.0058109997771680355 0.021435000002384186 -0.029967000707983971
   vertex -0.0013119999784976244 0.018828000873327255 -0.033695999532938004
  endloop
 endfacet
 facet normal 0.3465232377447432 -0.61010901541962759 -0.7125227259579815
  outer loop
   vertex -0.0013119999784976244 0.018828000873327255 -0.033695999532938004
   vertex -0.00073299999348819256 0.015714000910520554 -0.030748000368475914
   vertex -0.0037980000488460064 0.018201999366283417 -0.034368999302387238
  endloop
 endfacet
 facet normal 0.70293494448653349 -0.41567743655388745 -0.57714359786772562
  outer loop
   vertex 0.0021609999239444733 0.015553999692201614 -0.027108000591397285
   vertex -0.00073299999348819256 0.015714000910520554 -0.030748000368475914
   vertex -0.0013119999784976244 0.018828000873327255 -0.033695999532938004
  endloop
 endfacet
 facet normal -0.057345918691152332 0.96288843692712467 -0.26373718668687318
  outer loop
   vertex 0.0070949997752904892 0.017123999074101448 -0.017568999901413918
   vertex 0.0032430000137537718 0.015189000405371189 -0.023795999586582184
   vertex 0.0030110001098364592 0.016256000846624374 -0.019850000739097595
  endloop
 endfacet
 facet normal 0.37622368273600082 0.84064625711706997 0.38957619401552512
  outer loop
   vertex 0.0046890000812709332 0.014445000328123569 -0.023586999624967575
   vertex 0.00065699999686330557 0.017433999106287956 -0.026142999529838562
   vertex 0.0032430000137537718 0.015189000405371189 -0.023795999586582184
  endloop
 endfacet
 facet normal 0.40711443141095066 0.3263273108134721 -0.85309338642037646
  outer loop
   vertex 0.0046379999257624149 0.024257000535726547 -0.016013000160455704
   vertex 0.0070949997752904892 0.017123999074101448 -0.017568999901413918
   vertex 0.0030110001098364592 0.016256000846624374 -0.019850000739097595
  endloop
 endfacet
 facet normal 0.81385323519529384 0.32421410413860041 -0.48221170271962344
  outer loop
   vertex 0.0046890000812709332 0.014445000328123569 -0.023586999624967575
   vertex 0.0021329999435693026 0.014250000007450581 -0.028031999245285988
   vertex 0.0021609999239444733 0.015553999692201614 -0.027108000591397285
  endloop
 endfacet
 facet normal 0.73205100972292891 0.63572214501866131 -0.24486460237550153
  outer loop
   vertex 0.011335000395774841 0.018934000283479691 0.01334100030362606
   vertex 0.0045429999008774757 0.026110000908374786 0.011665999889373779
   vertex 0.0075969998724758625 0.023274999111890793 0.013435999862849712
  endloop
 endfacet
 facet normal 0.65873071360817759 0.74964244676890479 0.064109663480559895
  outer loop
   vertex 0.0075969998724758625 0.023274999111890793 0.013435999862849712
   vertex 0.0045429999008774757 0.026110000908374786 0.011665999889373779
   vertex 0.0057199997827410698 0.024847999215126038 0.014329000376164913
  endloop
 endfacet
 facet normal 0.5418331348481189 0.79262877516178243 -0.2795648024451442
  outer loop
   vertex 0.011335000395774841 0.018934000283479691 0.01334100030362606
   vertex 0.013326000422239304 0.017002999782562256 0.011725000105798244
   vertex 0.0037809999193996191 0.021212000399827957 0.0051589999347925186
  endloop
 endfacet
 facet normal 0.45293268911120421 0.88700758454407125 -0.089830529864770831
  outer loop
   vertex 0.013326000422239304 0.017002999782562256 0.011725000105798244
   vertex 0.016285000368952751 0.015066999942064285 0.0075280000455677509
   vertex 0.0037809999193996191 0.021212000399827957 0.0051589999347925186
  endloop
 endfacet
 facet normal 0.36349717895943123 0.91095377889861862 -0.19502054660692053
  outer loop
   vertex 0.0037809999193996191 0.021212000399827957 0.0051589999347925186
   vertex 0.017141999676823616 0.01474399957805872 -0.0001500000071246177
   vertex 0.0051930001936852932 0.019511999562382698 -0.0001500000071246177
  endloop
 endfacet
 facet normal 0.42471560582951068 0.88890027328809518 -0.17167690093085181
  outer loop
   vertex 0.0037809999193996191 0.021212000399827957 0.0051589999347925186
   vertex 0.0051930001936852932 0.019511999562382698 -0.0001500000071246177
   vertex 0.0027580000460147858 0.021166000515222549 0.0023900000378489494
  endloop
 endfacet
 facet normal 0.64938220300713756 0.36867878826405609 0.66511555800608357
  outer loop
   vertex 0.0070949997752904892 0.017123999074101448 0.017268000170588493
   vertex 0.0057199997827410698 0.024847999215126038 0.014329000376164913
   vertex 0.0046379999257624149 0.024257000535726547 0.015713000670075417
  endloop
 endfacet
 facet normal -0.51445733283643647 0.40409858723232978 -0.7563319274549074
  outer loop
   vertex 0.0051930001936852932 0.019511999562382698 -0.0001500000071246177
   vertex -0.00508899986743927 0.0064220000058412552 -0.0001500000071246177
   vertex 0.0027580000460147858 0.021166000515222549 0.0023900000378489494
  endloop
 endfacet
 facet normal -0.51457315956221883 0.40418956740359935 0.75620450743184975
  outer loop
   vertex -0.00508899986743927 0.0064220000058412552 -0.0001500000071246177
   vertex 0.0051930001936852932 0.019511999562382698 -0.0001500000071246177
   vertex 0.0027580000460147858 0.021166000515222549 -0.0026910000015050173
  endloop
 endfacet
 facet normal 0.6396758150523425 0.38529510512584603 -0.66510340068532536
  outer loop
   vertex 0.0075969998724758625 0.023274999111890793 -0.013736000284552574
   vertex 0.0046379999257624149 0.024257000535726547 -0.016013000160455704
   vertex 0.0057199997827410698 0.024847999215126038 -0.014630000106990337
  endloop
 endfacet
 facet normal 0.65874268369931299 0.74963474828332455 -0.064076679367954026
  outer loop
   vertex 0.0045429999008774757 0.026110000908374786 -0.011966000311076641
   vertex 0.0075969998724758625 0.023274999111890793 -0.013736000284552574
   vertex 0.0057199997827410698 0.024847999215126038 -0.014630000106990337
  endloop
 endfacet
 facet normal 0.73221363748863888 0.50014874246587659 0.46229257455150469
  outer loop
   vertex 0.0037809999193996191 0.021212000399827957 -0.0054600001312792301
   vertex 0.0075969998724758625 0.023274999111890793 -0.013736000284552574
   vertex 0.0045429999008774757 0.026110000908374786 -0.011966000311076641
  endloop
 endfacet
 facet normal 0.54181896607878333 0.79263125723281069 0.27958522502960015
  outer loop
   vertex 0.013326000422239304 0.017002999782562256 -0.012024999596178532
   vertex 0.011335000395774841 0.018934000283479691 -0.013640999794006348
   vertex 0.0037809999193996191 0.021212000399827957 -0.0054600001312792301
  endloop
 endfacet
 facet normal 0.45293476608929462 0.8870046400349203 0.089849130347251102
  outer loop
   vertex 0.016285000368952751 0.015066999942064285 -0.0078290002420544624
   vertex 0.013326000422239304 0.017002999782562256 -0.012024999596178532
   vertex 0.0037809999193996191 0.021212000399827957 -0.0054600001312792301
  endloop
 endfacet
 facet normal 0.37061229081231262 0.92878483345651941 -0.0022941316429643437
  outer loop
   vertex 0.016285000368952751 0.015066999942064285 -0.0078290002420544624
   vertex 0.0051930001936852932 0.019511999562382698 -0.0001500000071246177
   vertex 0.017141999676823616 0.01474399957805872 -0.0001500000071246177
  endloop
 endfacet
 facet normal 0.4246752799215418 0.88892234898500166 0.17166235492543769
  outer loop
   vertex 0.0051930001936852932 0.019511999562382698 -0.0001500000071246177
   vertex 0.0037809999193996191 0.021212000399827957 -0.0054600001312792301
   vertex 0.0027580000460147858 0.021166000515222549 -0.0026910000015050173
  endloop
 endfacet
 facet normal 0.97421494704786149 -0.19300074874390066 0.11685866648574306
  outer loop
   vertex 0.016285000368952751 0.015066999942064285 0.0075280000455677509
   vertex 0.014480999670922756 0.0013119999784976244 -0.0001500000071246177
   vertex 0.017141999676823616 0.01474399957805872 -0.0001500000071246177
  endloop
 endfacet
 facet normal 0.98090872741163482 -0.19432684687660773 0.0074259727095245488
  outer loop
   vertex 0.014468999579548836 0.0011630000080913305 -0.0024639999028295279
   vertex 0.017141999676823616 0.01474399957805872 -0.0001500000071246177
   vertex 0.014480999670922756 0.0013119999784976244 -0.0001500000071246177
  endloop
 endfacet
 facet normal 0.51134972192829353 0.42396047223988481 0.74751520376644554
  outer loop
   vertex 0.011335000395774841 0.018934000283479691 0.01334100030362606
   vertex 0.0075969998724758625 0.023274999111890793 0.013435999862849712
   vertex 0.0070949997752904892 0.017123999074101448 0.017268000170588493
  endloop
 endfacet
 facet normal 0.7584586025018778 0.6470003932977425 0.07830095378387969
  outer loop
   vertex -0.0013119999784976244 0.018828000873327255 0.033395998179912567
   vertex 0.0021609999239444733 0.015553999692201614 0.026807999238371849
   vertex 0.00065699999686330557 0.017433999106287956 0.025841999799013138
  endloop
 endfacet
 facet normal 0.51142092933288297 0.42402347626002879 -0.74743074904679385
  outer loop
   vertex 0.0075969998724758625 0.023274999111890793 -0.013736000284552574
   vertex 0.011335000395774841 0.018934000283479691 -0.013640999794006348
   vertex 0.0070949997752904892 0.017123999074101448 -0.017568999901413918
  endloop
 endfacet
 facet normal 0.75847388257349801 0.64698029666457857 -0.078318996301648194
  outer loop
   vertex 0.0021609999239444733 0.015553999692201614 -0.027108000591397285
   vertex -0.0013119999784976244 0.018828000873327255 -0.033695999532938004
   vertex 0.00065699999686330557 0.017433999106287956 -0.026142999529838562
  endloop
 endfacet
endsolid
