solid Visualization Toolkit generated SLA File
 facet normal -0.056889738704484494 0.99836212431778126 -0.0060519713996787178
  outer loop
   vertex -0.015695000067353249 0.058568999171257019 -0.0001500000071246177
   vertex -0.0039590001106262207 0.059264000505208969 0.0041800001636147499
   vertex -0.0046040001325309277 0.059200998395681381 -0.0001500000071246177
  endloop
 endfacet
 facet normal 0.047840861054630514 0.95780671193242861 -0.28340351901615679
  outer loop
   vertex -0.015695000067353249 0.058568999171257019 -0.0001500000071246177
   vertex -0.016656000167131424 0.058616999536752701 -0.0001500000071246177
   vertex -0.0039590001106262207 0.059264000505208969 0.0041800001636147499
  endloop
 endfacet
 facet normal -0.056889738704456488 0.99836212431728966 0.0060519714810316483
  outer loop
   vertex -0.015695000067353249 0.058568999171257019 -0.0001500000071246177
   vertex -0.0046040001325309277 0.059200998395681381 -0.0001500000071246177
   vertex -0.0039590001106262207 0.059264000505208969 -0.0044800001196563244
  endloop
 endfacet
 facet normal 0.047840861002976791 0.95780671089828573 0.28340352251992512
  outer loop
   vertex -0.015695000067353249 0.058568999171257019 -0.0001500000071246177
   vertex -0.0039590001106262207 0.059264000505208969 -0.0044800001196563244
   vertex -0.016656000167131424 0.058616999536752701 -0.0001500000071246177
  endloop
 endfacet
 facet normal 0.9295511060525935 -0.36847924221915823 0.01256142069971424
  outer loop
   vertex -0.010468999855220318 0.044482998549938202 0.0021220000926405191
   vertex -0.0046040001325309277 0.059200998395681381 -0.0001500000071246177
   vertex -0.0048790001310408115 0.058563001453876495 0.0014850000152364373
  endloop
 endfacet
 facet normal 0.92894598025330311 -0.37021521459278423 -0.00024628286301021869
  outer loop
   vertex -0.010470000095665455 0.044482000172138214 -0.0001500000071246177
   vertex -0.0046040001325309277 0.059200998395681381 -0.0001500000071246177
   vertex -0.010468999855220318 0.044482998549938202 0.0021220000926405191
  endloop
 endfacet
 facet normal 0.78256643814429838 -0.61318946168467647 -0.10764968169485029
  outer loop
   vertex -0.0046040001325309277 0.059200998395681381 -0.0001500000071246177
   vertex -0.0039590001106262207 0.059264000505208969 0.0041800001636147499
   vertex -0.0048790001310408115 0.058563001453876495 0.0014850000152364373
  endloop
 endfacet
 facet normal 0.92955076943446213 -0.36848036995738809 -0.012553246586672746
  outer loop
   vertex -0.0046040001325309277 0.059200998395681381 -0.0001500000071246177
   vertex -0.010468999855220318 0.044482998549938202 -0.0024220000486820936
   vertex -0.0048790001310408115 0.058563001453876495 -0.0017859999788925052
  endloop
 endfacet
 facet normal 0.92894598025330155 -0.37021521459278361 0.00024628286931987895
  outer loop
   vertex -0.0046040001325309277 0.059200998395681381 -0.0001500000071246177
   vertex -0.010470000095665455 0.044482000172138214 -0.0001500000071246177
   vertex -0.010468999855220318 0.044482998549938202 -0.0024220000486820936
  endloop
 endfacet
 facet normal 0.782488585801982 -0.61329110041610746 0.10763660734162123
  outer loop
   vertex -0.0039590001106262207 0.059264000505208969 -0.0044800001196563244
   vertex -0.0046040001325309277 0.059200998395681381 -0.0001500000071246177
   vertex -0.0048790001310408115 0.058563001453876495 -0.0017859999788925052
  endloop
 endfacet
 facet normal 0.22447153656411548 0.92169497701928793 -0.31637145669285527
  outer loop
   vertex 0.0015490000369027257 0.060672000050544739 0.012190000154078007
   vertex -0.0048790001310408115 0.058563001453876495 0.0014850000152364373
   vertex -0.0039590001106262207 0.059264000505208969 0.0041800001636147499
  endloop
 endfacet
 facet normal -0.025824210584688524 0.98744845091725453 -0.15581613179896378
  outer loop
   vertex 0.0015490000369027257 0.060672000050544739 0.012190000154078007
   vertex -0.0039590001106262207 0.059264000505208969 0.0041800001636147499
   vertex -0.0049180001951754093 0.059362001717090607 0.0049600000493228436
  endloop
 endfacet
 facet normal -0.22679214662423164 0.85873926728514538 0.45949123283490917
  outer loop
   vertex -0.0039590001106262207 0.059264000505208969 0.0041800001636147499
   vertex -0.02004300057888031 0.054432999342679977 0.0052700000815093517
   vertex -0.0078429998829960823 0.054154001176357269 0.011812999844551086
  endloop
 endfacet
 facet normal -0.57109652902358432 -0.51761456516796323 -0.63712158687584486
  outer loop
   vertex -0.0078429998829960823 0.054154001176357269 0.011812999844551086
   vertex -0.0049180001951754093 0.059362001717090607 0.0049600000493228436
   vertex -0.0039590001106262207 0.059264000505208969 0.0041800001636147499
  endloop
 endfacet
 facet normal 0.11106328485704788 0.67042231701310218 0.73362038112878636
  outer loop
   vertex -0.016656000167131424 0.058616999536752701 -0.0001500000071246177
   vertex -0.032958000898361206 0.057293999940156937 0.003527000080794096
   vertex -0.027442000806331635 0.056134000420570374 0.003751999931409955
  endloop
 endfacet
 facet normal 0.049162336803750317 0.77552841253286275 0.62939554017664634
  outer loop
   vertex -0.02004300057888031 0.054432999342679977 0.0052700000815093517
   vertex -0.016656000167131424 0.058616999536752701 -0.0001500000071246177
   vertex -0.027442000806331635 0.056134000420570374 0.003751999931409955
  endloop
 endfacet
 facet normal 0.16098031667499205 0.8595645628315729 -0.48500938131894555
  outer loop
   vertex -0.032667998224496841 0.059314999729394913 -0.0001500000071246177
   vertex -0.027442000806331635 0.056134000420570374 -0.0040529998950660229
   vertex -0.032958000898361206 0.057293999940156937 -0.0038280000444501638
  endloop
 endfacet
 facet normal 0.04918659542861948 0.77557782054634883 -0.62933276023636087
  outer loop
   vertex -0.016656000167131424 0.058616999536752701 -0.0001500000071246177
   vertex -0.02004300057888031 0.054432999342679977 -0.0055709998123347759
   vertex -0.027442000806331635 0.056134000420570374 -0.0040529998950660229
  endloop
 endfacet
 facet normal -0.24470295821386073 0.83551403231218246 -0.49197232041124311
  outer loop
   vertex -0.016656000167131424 0.058616999536752701 -0.0001500000071246177
   vertex -0.0078429998829960823 0.054154001176357269 -0.012113000266253948
   vertex -0.02004300057888031 0.054432999342679977 -0.0055709998123347759
  endloop
 endfacet
 facet normal 0.22488269941422151 0.92152168077107621 0.3165842121348183
  outer loop
   vertex -0.0048790001310408115 0.058563001453876495 -0.0017859999788925052
   vertex 0.0015490000369027257 0.060672000050544739 -0.012490999884903431
   vertex -0.0039590001106262207 0.059264000505208969 -0.0044800001196563244
  endloop
 endfacet
 facet normal -0.025814123811304109 0.98745062833908204 0.15580400381442949
  outer loop
   vertex -0.0039590001106262207 0.059264000505208969 -0.0044800001196563244
   vertex 0.0015490000369027257 0.060672000050544739 -0.012490999884903431
   vertex -0.0049180001951754093 0.059362001717090607 -0.005260000005364418
  endloop
 endfacet
 facet normal -0.57109651680768958 -0.51761460298078976 0.6371215671056536
  outer loop
   vertex -0.0049180001951754093 0.059362001717090607 -0.005260000005364418
   vertex -0.0078429998829960823 0.054154001176357269 -0.012113000266253948
   vertex -0.0039590001106262207 0.059264000505208969 -0.0044800001196563244
  endloop
 endfacet
 facet normal 0.8033474242120513 -0.3410290945495707 -0.48819265939028872
  outer loop
   vertex -0.0040480000898241997 0.048562999814748764 0.0098379999399185181
   vertex -0.010468999855220318 0.044482998549938202 0.0021220000926405191
   vertex -0.0048790001310408115 0.058563001453876495 0.0014850000152364373
  endloop
 endfacet
 facet normal -0.14526125885132771 -0.81957653132847919 0.55425037300168412
  outer loop
   vertex -0.0040480000898241997 0.048562999814748764 0.0098379999399185181
   vertex -0.020834999158978462 0.049401998519897461 0.0066789998672902584
   vertex -0.010468999855220318 0.044482998549938202 0.0021220000926405191
  endloop
 endfacet
 facet normal -0.428501684008327 -0.90354079253421249 0.00058568649884370319
  outer loop
   vertex -0.020834999158978462 0.049401998519897461 0.0066789998672902584
   vertex -0.010470000095665455 0.044482000172138214 -0.0001500000071246177
   vertex -0.010468999855220318 0.044482998549938202 0.0021220000926405191
  endloop
 endfacet
 facet normal 0.84224831082951013 -0.30265063658645719 -0.44611699707436514
  outer loop
   vertex 0.0015490000369027257 0.060672000050544739 0.012190000154078007
   vertex -0.0040480000898241997 0.048562999814748764 0.0098379999399185181
   vertex -0.0048790001310408115 0.058563001453876495 0.0014850000152364373
  endloop
 endfacet
 facet normal -0.42829220132280282 -0.90364010939880257 -0.00058563793229071605
  outer loop
   vertex -0.020840000361204147 0.049396999180316925 -0.0001500000071246177
   vertex -0.010468999855220318 0.044482998549938202 -0.0024220000486820936
   vertex -0.010470000095665455 0.044482000172138214 -0.0001500000071246177
  endloop
 endfacet
 facet normal 0.84224830753818791 -0.30265063344412352 0.44611700542002286
  outer loop
   vertex -0.0040480000898241997 0.048562999814748764 -0.010138999670743942
   vertex 0.0015490000369027257 0.060672000050544739 -0.012490999884903431
   vertex -0.0048790001310408115 0.058563001453876495 -0.0017859999788925052
  endloop
 endfacet
 facet normal 0.80337467100316418 -0.34100400526073044 0.4881653473841599
  outer loop
   vertex -0.010468999855220318 0.044482998549938202 -0.0024220000486820936
   vertex -0.0040480000898241997 0.048562999814748764 -0.010138999670743942
   vertex -0.0048790001310408115 0.058563001453876495 -0.0017859999788925052
  endloop
 endfacet
 facet normal -0.33613923497079845 -0.91501360954640543 -0.22307063692495405
  outer loop
   vertex -0.010746000334620476 0.047058001160621643 -0.012567000463604927
   vertex -0.010468999855220318 0.044482998549938202 -0.0024220000486820936
   vertex -0.020834999158978462 0.049401998519897461 -0.0069789998233318329
  endloop
 endfacet
 facet normal 0.80001016409397774 0.55043876938315317 0.23874860943320023
  outer loop
   vertex 0.0051279999315738678 0.055436000227928162 0.012268999591469765
   vertex 0.0015490000369027257 0.060672000050544739 0.012190000154078007
   vertex 0.0041100000962615013 0.056281000375747681 0.013732000254094601
  endloop
 endfacet
 facet normal -0.56989985158850698 0.81522733520614576 0.10304635409408724
  outer loop
   vertex 0.0015490000369027257 0.060672000050544739 0.012190000154078007
   vertex -0.0078429998829960823 0.054154001176357269 0.011812999844551086
   vertex -0.00089199998183175921 0.057663001120090485 0.022494999691843987
  endloop
 endfacet
 facet normal 0.75436846229931587 0.56016813108856278 0.3422570496000224
  outer loop
   vertex 0.0015490000369027257 0.060672000050544739 0.012190000154078007
   vertex -0.00089199998183175921 0.057663001120090485 0.022494999691843987
   vertex 0.0041100000962615013 0.056281000375747681 0.013732000254094601
  endloop
 endfacet
 facet normal -0.44455194223845307 0.30578109189984992 0.84194506619408049
  outer loop
   vertex -0.02004300057888031 0.054432999342679977 0.0052700000815093517
   vertex -0.020834999158978462 0.049401998519897461 0.0066789998672902584
   vertex -0.0078429998829960823 0.054154001176357269 0.011812999844551086
  endloop
 endfacet
 facet normal -0.42961465801488236 0.23159898229357398 0.87280762887324514
  outer loop
   vertex -0.0078429998829960823 0.054154001176357269 0.011812999844551086
   vertex -0.020834999158978462 0.049401998519897461 0.0066789998672902584
   vertex -0.010746000334620476 0.047058001160621643 0.012267000041902065
  endloop
 endfacet
 facet normal -0.83027690689293221 0.36653283278671622 0.41987371955106967
  outer loop
   vertex -0.0078429998829960823 0.054154001176357269 0.011812999844551086
   vertex -0.010746000334620476 0.047058001160621643 0.012267000041902065
   vertex -0.00089199998183175921 0.057663001120090485 0.022494999691843987
  endloop
 endfacet
 facet normal -0.12475410694943947 0.30104756923245812 0.94541354647502085
  outer loop
   vertex -0.027442000806331635 0.056134000420570374 0.003751999931409955
   vertex -0.02682499960064888 0.050112001597881317 0.0057509997859597206
   vertex -0.02004300057888031 0.054432999342679977 0.0052700000815093517
  endloop
 endfacet
 facet normal -0.027824228609003798 0.27146214934560148 0.96204683554127468
  outer loop
   vertex -0.027442000806331635 0.056134000420570374 0.003751999931409955
   vertex -0.037594001740217209 0.049090001732110977 0.0054460000246763229
   vertex -0.033486999571323395 0.048990000039339066 0.0055929999798536301
  endloop
 endfacet
 facet normal 0.0073173529843017088 0.2238339997951557 0.97459981370868598
  outer loop
   vertex -0.032958000898361206 0.057293999940156937 0.003527000080794096
   vertex -0.037594001740217209 0.049090001732110977 0.0054460000246763229
   vertex -0.027442000806331635 0.056134000420570374 0.003751999931409955
  endloop
 endfacet
 facet normal 0.0018884352129277932 0.8762873240710205 0.48178517981035568
  outer loop
   vertex -0.032667998224496841 0.059314999729394913 -0.0001500000071246177
   vertex -0.040286999195814133 0.056876000016927719 0.0043159998022019863
   vertex -0.032958000898361206 0.057293999940156937 0.003527000080794096
  endloop
 endfacet
 facet normal 0.095494148297109158 0.17524197927814231 0.97988321566383052
  outer loop
   vertex -0.037594001740217209 0.049090001732110977 0.0054460000246763229
   vertex -0.032958000898361206 0.057293999940156937 0.003527000080794096
   vertex -0.040286999195814133 0.056876000016927719 0.0043159998022019863
  endloop
 endfacet
 facet normal 0.031466534473492659 0.73176379450233564 -0.68083155498535153
  outer loop
   vertex -0.038887999951839447 0.060970999300479889 -0.0001500000071246177
   vertex -0.032958000898361206 0.057293999940156937 -0.0038280000444501638
   vertex -0.040286999195814133 0.056876000016927719 -0.0046160002239048481
  endloop
 endfacet
 facet normal 0.0072951984365655373 0.22373317376092977 -0.97462313077344553
  outer loop
   vertex -0.037594001740217209 0.049090001732110977 -0.0057459999807178974
   vertex -0.032958000898361206 0.057293999940156937 -0.0038280000444501638
   vertex -0.027442000806331635 0.056134000420570374 -0.0040529998950660229
  endloop
 endfacet
 facet normal 0.095365049608321539 0.17520017793624601 -0.97990326306442621
  outer loop
   vertex -0.032958000898361206 0.057293999940156937 -0.0038280000444501638
   vertex -0.037594001740217209 0.049090001732110977 -0.0057459999807178974
   vertex -0.040286999195814133 0.056876000016927719 -0.0046160002239048481
  endloop
 endfacet
 facet normal -0.027828435474866707 0.27133989448057233 -0.96208120231209848
  outer loop
   vertex -0.037594001740217209 0.049090001732110977 -0.0057459999807178974
   vertex -0.027442000806331635 0.056134000420570374 -0.0040529998950660229
   vertex -0.033486999571323395 0.048990000039339066 -0.0058929999358952045
  endloop
 endfacet
 facet normal -0.056686140809510323 0.19790404986712806 -0.97858094631272774
  outer loop
   vertex -0.033486999571323395 0.048990000039339066 -0.0058929999358952045
   vertex -0.02004300057888031 0.054432999342679977 -0.0055709998123347759
   vertex -0.02682499960064888 0.050112001597881317 -0.0060519999824464321
  endloop
 endfacet
 facet normal -0.18791353813384234 -0.43671748606312749 -0.87975356751349576
  outer loop
   vertex -0.02682499960064888 0.050112001597881317 -0.0060519999824464321
   vertex -0.0078429998829960823 0.054154001176357269 -0.012113000266253948
   vertex -0.020834999158978462 0.049401998519897461 -0.0069789998233318329
  endloop
 endfacet
 facet normal -0.69233008290639186 0.68546523931437686 -0.22542506957859093
  outer loop
   vertex -0.0049180001951754093 0.059362001717090607 -0.005260000005364418
   vertex -0.00089199998183175921 0.057663001120090485 -0.022791000083088875
   vertex -0.0078429998829960823 0.054154001176357269 -0.012113000266253948
  endloop
 endfacet
 facet normal -0.42961468651559093 0.23159899287611208 -0.87280761203651347
  outer loop
   vertex -0.020834999158978462 0.049401998519897461 -0.0069789998233318329
   vertex -0.0078429998829960823 0.054154001176357269 -0.012113000266253948
   vertex -0.010746000334620476 0.047058001160621643 -0.012567000463604927
  endloop
 endfacet
 facet normal -0.83022020056068857 0.36651765456088209 -0.41999908032775501
  outer loop
   vertex -0.010746000334620476 0.047058001160621643 -0.012567000463604927
   vertex -0.0078429998829960823 0.054154001176357269 -0.012113000266253948
   vertex -0.00089199998183175921 0.057663001120090485 -0.022791000083088875
  endloop
 endfacet
 facet normal 0.46198517566381714 -0.041461044044479978 0.88591798677621048
  outer loop
   vertex -0.0040480000898241997 0.048562999814748764 -0.010138999670743942
   vertex 0.0041100000962615013 0.056281000375747681 -0.014031999744474888
   vertex 0.0015490000369027257 0.060672000050544739 -0.012490999884903431
  endloop
 endfacet
 facet normal 0.75433647514011481 0.56012246903304208 -0.34240225168289351
  outer loop
   vertex -0.00089199998183175921 0.057663001120090485 -0.022791000083088875
   vertex 0.0015490000369027257 0.060672000050544739 -0.012490999884903431
   vertex 0.0041100000962615013 0.056281000375747681 -0.014031999744474888
  endloop
 endfacet
 facet normal 0.078001153776367252 0.23826852396850509 -0.96806194558789749
  outer loop
   vertex 0.0051279999315738678 0.055436000227928162 0.012268999591469765
   vertex 0.0078370003029704094 0.049113001674413681 0.010931000113487244
   vertex -0.0040480000898241997 0.048562999814748764 0.0098379999399185181
  endloop
 endfacet
 facet normal 0.083108587685582977 0.15909582544454495 -0.98375885306259214
  outer loop
   vertex 0.0078370003029704094 0.049113001674413681 0.010931000113487244
   vertex 0.0037539999466389418 0.04440699890255928 0.0098249996080994606
   vertex -0.0040480000898241997 0.048562999814748764 0.0098379999399185181
  endloop
 endfacet
 facet normal -0.33311540160845621 -0.62755396741205349 0.70371169323568017
  outer loop
   vertex 0.0073299999348819256 0.055105000734329224 0.02105800062417984
   vertex -0.0040480000898241997 0.048562999814748764 0.0098379999399185181
   vertex 0.0037539999466389418 0.04440699890255928 0.0098249996080994606
  endloop
 endfacet
 facet normal 0.29490892721743217 -0.92484601636340102 0.24018445133732302
  outer loop
   vertex 0.0073299999348819256 0.055105000734329224 0.02105800062417984
   vertex -0.010746000334620476 0.047058001160621643 0.012267000041902065
   vertex -0.0040480000898241997 0.048562999814748764 0.0098379999399185181
  endloop
 endfacet
 facet normal 0.11782243273699373 0.99303439369880608 -0.0007531767263302229
  outer loop
   vertex -0.026829000562429428 0.050108000636100769 -0.0001500000071246177
   vertex -0.02682499960064888 0.050112001597881317 0.0057509997859597206
   vertex -0.020834999158978462 0.049401998519897461 0.0066789998672902584
  endloop
 endfacet
 facet normal -0.76890890097904496 0.63387537854302944 0.083553015936759636
  outer loop
   vertex -0.010746000334620476 0.047058001160621643 0.012267000041902065
   vertex -0.0045630000531673431 0.052988000214099884 0.024179000407457352
   vertex -0.00089199998183175921 0.057663001120090485 0.022494999691843987
  endloop
 endfacet
 facet normal -0.84768065378990021 0.49366944921430617 0.19423692775260515
  outer loop
   vertex -0.010746000334620476 0.047058001160621643 0.012267000041902065
   vertex -0.0093130003660917282 0.047499001026153564 0.017400000244379044
   vertex -0.0045630000531673431 0.052988000214099884 0.024179000407457352
  endloop
 endfacet
 facet normal -0.71543708344648571 0.68431428346929979 0.14093878483045377
  outer loop
   vertex -0.010746000334620476 0.047058001160621643 0.012267000041902065
   vertex -0.0082069998607039452 0.047566000372171402 0.022688999772071838
   vertex -0.0093130003660917282 0.047499001026153564 0.017400000244379044
  endloop
 endfacet
 facet normal -0.11783147385095173 -0.99303327354357263 -0.00081326837428137382
  outer loop
   vertex -0.020840000361204147 0.049396999180316925 -0.0001500000071246177
   vertex -0.02682499960064888 0.050112001597881317 -0.0060519999824464321
   vertex -0.020834999158978462 0.049401998519897461 -0.0069789998233318329
  endloop
 endfacet
 facet normal 0.077912682369643313 0.23837961765897819 0.96804172007756284
  outer loop
   vertex 0.0078370003029704094 0.049113001674413681 -0.011230999603867531
   vertex 0.0051279999315738678 0.055436000227928162 -0.012570000253617764
   vertex -0.0040480000898241997 0.048562999814748764 -0.010138999670743942
  endloop
 endfacet
 facet normal 0.083034838136524278 0.15895724558509036 0.98378748199580301
  outer loop
   vertex 0.0037539999466389418 0.04440699890255928 -0.010126000270247459
   vertex 0.0078370003029704094 0.049113001674413681 -0.011230999603867531
   vertex -0.0040480000898241997 0.048562999814748764 -0.010138999670743942
  endloop
 endfacet
 facet normal -0.33304156131411816 -0.62741568534462633 -0.70386992848180929
  outer loop
   vertex -0.0040480000898241997 0.048562999814748764 -0.010138999670743942
   vertex 0.0073299999348819256 0.055105000734329224 -0.021353999152779579
   vertex 0.0037539999466389418 0.04440699890255928 -0.010126000270247459
  endloop
 endfacet
 facet normal 0.21736761676622696 -0.97607498297173056 0.0053802228677376626
  outer loop
   vertex -0.0082069998607039452 0.047566000372171402 -0.022985000163316727
   vertex -0.0040480000898241997 0.048562999814748764 -0.010138999670743942
   vertex -0.010746000334620476 0.047058001160621643 -0.012567000463604927
  endloop
 endfacet
 facet normal -0.76890319389779171 0.63387924587387245 -0.083576193166151863
  outer loop
   vertex -0.0045630000531673431 0.052988000214099884 -0.02447500079870224
   vertex -0.010746000334620476 0.047058001160621643 -0.012567000463604927
   vertex -0.00089199998183175921 0.057663001120090485 -0.022791000083088875
  endloop
 endfacet
 facet normal -0.84761665856975155 0.49379042053505484 -0.19420870398327386
  outer loop
   vertex -0.0093130003660917282 0.047499001026153564 -0.017699999734759331
   vertex -0.010746000334620476 0.047058001160621643 -0.012567000463604927
   vertex -0.0045630000531673431 0.052988000214099884 -0.02447500079870224
  endloop
 endfacet
 facet normal -0.71613748318298265 0.68352695937632402 -0.14120198648071589
  outer loop
   vertex -0.0082069998607039452 0.047566000372171402 -0.022985000163316727
   vertex -0.010746000334620476 0.047058001160621643 -0.012567000463604927
   vertex -0.0093130003660917282 0.047499001026153564 -0.017699999734759331
  endloop
 endfacet
 facet normal -0.56919518660008617 0.56719267786821592 -0.59523886442668972
  outer loop
   vertex 0.010944999754428864 0.058779001235961914 0.0098919998854398727
   vertex 0.0051279999315738678 0.055436000227928162 0.012268999591469765
   vertex 0.011187000200152397 0.06017100065946579 0.010986999608576298
  endloop
 endfacet
 facet normal -0.28012545850689824 0.56798712914938987 0.77389944347888917
  outer loop
   vertex 0.011187000200152397 0.06017100065946579 0.010986999608576298
   vertex 0.0051279999315738678 0.055436000227928162 0.012268999591469765
   vertex 0.0083469999954104424 0.055830001831054688 0.013144999742507935
  endloop
 endfacet
 facet normal 0.025536562499134666 0.87325003199899831 -0.48660278008810864
  outer loop
   vertex 0.0083469999954104424 0.055830001831054688 0.013144999742507935
   vertex 0.0051279999315738678 0.055436000227928162 0.012268999591469765
   vertex 0.0041100000962615013 0.056281000375747681 0.013732000254094601
  endloop
 endfacet
 facet normal 0.36065552158375586 0.69240082379618129 -0.62490694823911053
  outer loop
   vertex 0.0097789997234940529 0.055959001183509827 0.01664699986577034
   vertex 0.0041100000962615013 0.056281000375747681 0.013732000254094601
   vertex 0.0064260000362992287 0.059422999620437622 0.018549999222159386
  endloop
 endfacet
 facet normal -0.3970222625535979 0.84435055101658318 -0.35978531103258549
  outer loop
   vertex 0.0064260000362992287 0.059422999620437622 0.018549999222159386
   vertex 0.0041100000962615013 0.056281000375747681 0.013732000254094601
   vertex -0.00089199998183175921 0.057663001120090485 0.022494999691843987
  endloop
 endfacet
 facet normal -0.56645716680364289 0.63431159229599399 0.52609417603287589
  outer loop
   vertex -0.00089199998183175921 0.057663001120090485 0.022494999691843987
   vertex -0.0045630000531673431 0.052988000214099884 0.024179000407457352
   vertex 0.0017790000420063734 0.058246001601219177 0.024668000638484955
  endloop
 endfacet
 facet normal -0.35465755652333908 0.89903936770993287 -0.25679998619279276
  outer loop
   vertex -0.00089199998183175921 0.057663001120090485 0.022494999691843987
   vertex 0.0097920000553131104 0.062279000878334045 0.023900000378489494
   vertex 0.0064260000362992287 0.059422999620437622 0.018549999222159386
  endloop
 endfacet
 facet normal -0.16606600363996693 0.98611447411039876 -0.00057130116593913697
  outer loop
   vertex -0.033491000533103943 0.048985999077558517 -0.0001500000071246177
   vertex -0.033486999571323395 0.048990000039339066 0.0055929999798536301
   vertex -0.02682499960064888 0.050112001597881317 0.0057509997859597206
  endloop
 endfacet
 facet normal -0.024368041362883563 -0.99970278708185689 0.00073216180197821956
  outer loop
   vertex -0.037597998976707458 0.049086000770330429 -0.0001500000071246177
   vertex -0.033486999571323395 0.048990000039339066 0.0055929999798536301
   vertex -0.037594001740217209 0.049090001732110977 0.0054460000246763229
  endloop
 endfacet
 facet normal -0.99416073770794589 -0.10790647704565258 0.00078728113714021837
  outer loop
   vertex -0.037597998976707458 0.049086000770330429 -0.0001500000071246177
   vertex -0.037594001740217209 0.049090001732110977 0.0054460000246763229
   vertex -0.038887999951839447 0.060970999300479889 -0.0001500000071246177
  endloop
 endfacet
 facet normal -0.021600219148175684 -0.42793014214085945 -0.90355366413957638
  outer loop
   vertex -0.041680000722408295 0.051906000822782516 0.0042099999263882637
   vertex -0.038887999951839447 0.060970999300479889 -0.0001500000071246177
   vertex -0.037594001740217209 0.049090001732110977 0.0054460000246763229
  endloop
 endfacet
 facet normal -0.25658115674675447 0.051330237835054256 0.9651587002593377
  outer loop
   vertex -0.041680000722408295 0.051906000822782516 0.0042099999263882637
   vertex -0.037594001740217209 0.049090001732110977 0.0054460000246763229
   vertex -0.040286999195814133 0.056876000016927719 0.0043159998022019863
  endloop
 endfacet
 facet normal -0.96124357416995465 0.27055053795702882 -0.053039584539597381
  outer loop
   vertex -0.040286999195814133 0.056876000016927719 0.0043159998022019863
   vertex -0.038887999951839447 0.060970999300479889 -0.0001500000071246177
   vertex -0.041680000722408295 0.051906000822782516 0.0042099999263882637
  endloop
 endfacet
 facet normal -0.99416073770793945 -0.10790647704565189 -0.0007872811453292401
  outer loop
   vertex -0.037594001740217209 0.049090001732110977 -0.0057459999807178974
   vertex -0.037597998976707458 0.049086000770330429 -0.0001500000071246177
   vertex -0.038887999951839447 0.060970999300479889 -0.0001500000071246177
  endloop
 endfacet
 facet normal -0.96124580708588514 0.27054069951941279 0.053049300309729527
  outer loop
   vertex -0.038887999951839447 0.060970999300479889 -0.0001500000071246177
   vertex -0.040286999195814133 0.056876000016927719 -0.0046160002239048481
   vertex -0.041680000722408295 0.051906000822782516 -0.0045110001228749752
  endloop
 endfacet
 facet normal -0.021838996215114724 -0.42794919089070188 0.90353890246093427
  outer loop
   vertex -0.038887999951839447 0.060970999300479889 -0.0001500000071246177
   vertex -0.041680000722408295 0.051906000822782516 -0.0045110001228749752
   vertex -0.037594001740217209 0.049090001732110977 -0.0057459999807178974
  endloop
 endfacet
 facet normal -0.25628996680345772 0.051441266164402026 -0.96523015340968588
  outer loop
   vertex -0.037594001740217209 0.049090001732110977 -0.0057459999807178974
   vertex -0.041680000722408295 0.051906000822782516 -0.0045110001228749752
   vertex -0.040286999195814133 0.056876000016927719 -0.0046160002239048481
  endloop
 endfacet
 facet normal -0.024367371863638985 -0.99970281693953433 -0.00071343648560296552
  outer loop
   vertex -0.033491000533103943 0.048985999077558517 -0.0001500000071246177
   vertex -0.037594001740217209 0.049090001732110977 -0.0057459999807178974
   vertex -0.033486999571323395 0.048990000039339066 -0.0058929999358952045
  endloop
 endfacet
 facet normal 0.16606627887377884 -0.98611443655642128 -0.00055591008993832313
  outer loop
   vertex -0.026829000562429428 0.050108000636100769 -0.0001500000071246177
   vertex -0.033486999571323395 0.048990000039339066 -0.0058929999358952045
   vertex -0.02682499960064888 0.050112001597881317 -0.0060519999824464321
  endloop
 endfacet
 facet normal -0.56598443543961818 0.63418045378858567 -0.526760639069208
  outer loop
   vertex -0.0045630000531673431 0.052988000214099884 -0.02447500079870224
   vertex -0.00089199998183175921 0.057663001120090485 -0.022791000083088875
   vertex 0.0017790000420063734 0.058246001601219177 -0.024958999827504158
  endloop
 endfacet
 facet normal -0.45637313626811266 0.87158052591197777 0.17908363226103866
  outer loop
   vertex 0.0017790000420063734 0.058246001601219177 -0.024958999827504158
   vertex 0.0064260000362992287 0.059422999620437622 -0.018844999372959137
   vertex 0.0097920000553131104 0.062279000878334045 -0.024166999384760857
  endloop
 endfacet
 facet normal -0.39715019121654477 0.84419938495256386 0.35999878341790931
  outer loop
   vertex 0.0041100000962615013 0.056281000375747681 -0.014031999744474888
   vertex 0.0064260000362992287 0.059422999620437622 -0.018844999372959137
   vertex -0.00089199998183175921 0.057663001120090485 -0.022791000083088875
  endloop
 endfacet
 facet normal 0.012640265367602359 0.83450286395469853 0.55085859686751071
  outer loop
   vertex 0.0083469999954104424 0.055830001831054688 -0.013446000404655933
   vertex 0.0064260000362992287 0.059422999620437622 -0.018844999372959137
   vertex 0.0041100000962615013 0.056281000375747681 -0.014031999744474888
  endloop
 endfacet
 facet normal 0.025609256597711436 0.87312928133862011 0.48681559552423687
  outer loop
   vertex 0.0051279999315738678 0.055436000227928162 -0.012570000253617764
   vertex 0.0083469999954104424 0.055830001831054688 -0.013446000404655933
   vertex 0.0041100000962615013 0.056281000375747681 -0.014031999744474888
  endloop
 endfacet
 facet normal -0.27082476705829112 0.086987612297001651 0.95869030497585039
  outer loop
   vertex 0.0078370003029704094 0.049113001674413681 -0.011230999603867531
   vertex 0.011187000200152397 0.06017100065946579 -0.011288000270724297
   vertex 0.0051279999315738678 0.055436000227928162 -0.012570000253617764
  endloop
 endfacet
 facet normal -0.28012545850689824 0.56798712914938987 -0.77389944347888917
  outer loop
   vertex 0.0051279999315738678 0.055436000227928162 -0.012570000253617764
   vertex 0.011187000200152397 0.06017100065946579 -0.011288000270724297
   vertex 0.0083469999954104424 0.055830001831054688 -0.013446000404655933
  endloop
 endfacet
 facet normal -0.51401260947517902 0.25336463654751684 0.81951046256143789
  outer loop
   vertex 0.010944999754428864 0.058779001235961914 0.0098919998854398727
   vertex 0.0037539999466389418 0.04440699890255928 0.0098249996080994606
   vertex 0.0078370003029704094 0.049113001674413681 0.010931000113487244
  endloop
 endfacet
 facet normal -0.86091416126121212 0.43200911089547517 -0.26869115177691361
  outer loop
   vertex 0.010944999754428864 0.058779001235961914 0.0098919998854398727
   vertex 0.0048560001887381077 0.043042998760938644 0.0041009997949004173
   vertex 0.0037539999466389418 0.04440699890255928 0.0098249996080994606
  endloop
 endfacet
 facet normal -0.30723912462315012 -0.93735637807950423 0.16421674937251027
  outer loop
   vertex 0.023101000115275383 0.037840999662876129 0.0085429996252059937
   vertex 0.0037539999466389418 0.04440699890255928 0.0098249996080994606
   vertex 0.0048560001887381077 0.043042998760938644 0.0041009997949004173
  endloop
 endfacet
 facet normal -0.28065804024847923 -0.95830934589561068 0.053612144267972457
  outer loop
   vertex 0.020344000309705734 0.039838001132011414 0.015003000386059284
   vertex 0.01680699922144413 0.040972001850605011 0.016757000237703323
   vertex 0.0037539999466389418 0.04440699890255928 0.0098249996080994606
  endloop
 endfacet
 facet normal -0.5095236411180456 -0.41448966877840632 0.75404507399609477
  outer loop
   vertex 0.01680699922144413 0.040972001850605011 0.016757000237703323
   vertex 0.014434999786317348 0.046875 0.01839900016784668
   vertex 0.0037539999466389418 0.04440699890255928 0.0098249996080994606
  endloop
 endfacet
 facet normal -0.42026683719595076 -0.58651390770193823 0.69237072556941237
  outer loop
   vertex 0.0037539999466389418 0.04440699890255928 0.0098249996080994606
   vertex 0.014434999786317348 0.046875 0.01839900016784668
   vertex 0.0073299999348819256 0.055105000734329224 0.02105800062417984
  endloop
 endfacet
 facet normal 0.83397478423137117 0.39712254682656101 0.38311844391548633
  outer loop
   vertex 0.0095380004495382309 0.053151998668909073 0.018276000395417213
   vertex 0.0064260000362992287 0.059422999620437622 0.018549999222159386
   vertex 0.0073299999348819256 0.055105000734329224 0.02105800062417984
  endloop
 endfacet
 facet normal 0.86579214104340729 -0.10314649729520303 -0.4896578076608229
  outer loop
   vertex 0.0073299999348819256 0.055105000734329224 0.02105800062417984
   vertex 0.0064260000362992287 0.059422999620437622 0.018549999222159386
   vertex 0.0097920000553131104 0.062279000878334045 0.023900000378489494
  endloop
 endfacet
 facet normal 0.76812613193208268 -0.44571731500563966 0.4596937247202969
  outer loop
   vertex 0.0073299999348819256 0.055105000734329224 0.02105800062417984
   vertex 0.0097920000553131104 0.062279000878334045 0.023900000378489494
   vertex 0.0075759999454021454 0.060596000403165817 0.025970999151468277
  endloop
 endfacet
 facet normal 0.92581444993998263 -0.37396304609101516 -0.054947651821136027
  outer loop
   vertex 0.0073299999348819256 0.055105000734329224 0.02105800062417984
   vertex 0.0089649995788931847 0.05809599906206131 0.028249999508261681
   vertex 0.0073839998804032803 0.054770998656749725 0.024241000413894653
  endloop
 endfacet
 facet normal 0.36855060551520707 -0.84389056731647949 -0.38989634721121058
  outer loop
   vertex 0.0073299999348819256 0.055105000734329224 0.02105800062417984
   vertex 0.0059210001491010189 0.050197001546621323 0.030348999425768852
   vertex -0.0082069998607039452 0.047566000372171402 0.022688999772071838
  endloop
 endfacet
 facet normal 0.32960214626347989 -0.85453012018217533 -0.40142334122462858
  outer loop
   vertex 0.0073299999348819256 0.055105000734329224 0.02105800062417984
   vertex 0.0088470000773668289 0.051761999726295471 0.029419999569654465
   vertex 0.0059210001491010189 0.050197001546621323 0.030348999425768852
  endloop
 endfacet
 facet normal 0.47560991175104012 0.87565406090540188 0.083816331726261156
  outer loop
   vertex 0.0073839998804032803 0.054770998656749725 0.024241000413894653
   vertex 0.01257800031453371 0.052398998290300369 0.019548999145627022
   vertex 0.0073299999348819256 0.055105000734329224 0.02105800062417984
  endloop
 endfacet
 facet normal 0.35531372691710117 0.87397573357129577 -0.33153969987438181
  outer loop
   vertex 0.0073299999348819256 0.055105000734329224 0.02105800062417984
   vertex 0.01257800031453371 0.052398998290300369 0.019548999145627022
   vertex 0.0095380004495382309 0.053151998668909073 0.018276000395417213
  endloop
 endfacet
 facet normal -0.6284957303976394 -0.76386378096378804 -0.14664665357124113
  outer loop
   vertex 0.011745999567210674 0.050370000302791595 0.026796000078320503
   vertex 0.0073299999348819256 0.055105000734329224 0.02105800062417984
   vertex 0.014072000049054623 0.049318000674247742 0.022306999191641808
  endloop
 endfacet
 facet normal -0.64498906684442625 -0.67349115887853939 0.36110768831970108
  outer loop
   vertex 0.014072000049054623 0.049318000674247742 0.022306999191641808
   vertex 0.0073299999348819256 0.055105000734329224 0.02105800062417984
   vertex 0.014434999786317348 0.046875 0.01839900016784668
  endloop
 endfacet
 facet normal -0.5726413598725244 -0.79174805416106031 -0.2126426384700881
  outer loop
   vertex 0.0073299999348819256 0.055105000734329224 0.02105800062417984
   vertex 0.011745999567210674 0.050370000302791595 0.026796000078320503
   vertex 0.0088470000773668289 0.051761999726295471 0.029419999569654465
  endloop
 endfacet
 facet normal -0.8389118994019038 0.51740565503334635 0.16887336433376296
  outer loop
   vertex -0.0093130003660917282 0.047499001026153564 0.017400000244379044
   vertex -0.0082069998607039452 0.047566000372171402 0.022688999772071838
   vertex -0.0045630000531673431 0.052988000214099884 0.024179000407457352
  endloop
 endfacet
 facet normal -0.52522209270393372 0.12153612544573922 0.84224148766689111
  outer loop
   vertex -0.0045630000531673431 0.052988000214099884 0.024179000407457352
   vertex -0.0082069998607039452 0.047566000372171402 0.022688999772071838
   vertex 0.0036410000175237656 0.057353999465703964 0.028665000572800636
  endloop
 endfacet
 facet normal -0.4834120272662657 0.05161611262409669 0.87386989238209589
  outer loop
   vertex 0.0036410000175237656 0.057353999465703964 0.028665000572800636
   vertex -0.0082069998607039452 0.047566000372171402 0.022688999772071838
   vertex 0.0059210001491010189 0.050197001546621323 0.030348999425768852
  endloop
 endfacet
 facet normal -0.59588471249345198 0.67882792484972787 0.42908514057329966
  outer loop
   vertex 0.0017790000420063734 0.058246001601219177 0.024668000638484955
   vertex -0.0045630000531673431 0.052988000214099884 0.024179000407457352
   vertex 0.0036410000175237656 0.057353999465703964 0.028665000572800636
  endloop
 endfacet
 facet normal -0.5136941996557175 0.25320421230263207 -0.81975965752912938
  outer loop
   vertex 0.0037539999466389418 0.04440699890255928 -0.010126000270247459
   vertex 0.010944999754428864 0.058779001235961914 -0.010192999616265297
   vertex 0.0078370003029704094 0.049113001674413681 -0.011230999603867531
  endloop
 endfacet
 facet normal -0.86092512066306393 0.43201437383200747 0.26864757101791786
  outer loop
   vertex 0.0048560001887381077 0.043042998760938644 -0.0044010002166032791
   vertex 0.010944999754428864 0.058779001235961914 -0.010192999616265297
   vertex 0.0037539999466389418 0.04440699890255928 -0.010126000270247459
  endloop
 endfacet
 facet normal -0.30909612804607089 -0.93683499272806181 -0.16370638358701559
  outer loop
   vertex 0.020344000309705734 0.039838001132011414 -0.015302999876439571
   vertex 0.0048560001887381077 0.043042998760938644 -0.0044010002166032791
   vertex 0.0037539999466389418 0.04440699890255928 -0.010126000270247459
  endloop
 endfacet
 facet normal -0.28065103990057916 -0.95831221243892883 -0.053597549320177656
  outer loop
   vertex 0.01680699922144413 0.040972001850605011 -0.017057999968528748
   vertex 0.020344000309705734 0.039838001132011414 -0.015302999876439571
   vertex 0.0037539999466389418 0.04440699890255928 -0.010126000270247459
  endloop
 endfacet
 facet normal -0.50952593451652139 -0.41437925840961159 -0.75410420516992605
  outer loop
   vertex 0.014434999786317348 0.046875 -0.018698999658226967
   vertex 0.01680699922144413 0.040972001850605011 -0.017057999968528748
   vertex 0.0037539999466389418 0.04440699890255928 -0.010126000270247459
  endloop
 endfacet
 facet normal -0.42035636030062656 -0.58629647453211053 -0.69250052296444375
  outer loop
   vertex 0.014434999786317348 0.046875 -0.018698999658226967
   vertex 0.0037539999466389418 0.04440699890255928 -0.010126000270247459
   vertex 0.0073299999348819256 0.055105000734329224 -0.021353999152779579
  endloop
 endfacet
 facet normal 0.74296700843475871 0.44569722910917159 -0.49935358649148776
  outer loop
   vertex 0.0097789997234940529 0.055959001183509827 -0.016947999596595764
   vertex 0.0073299999348819256 0.055105000734329224 -0.021353999152779579
   vertex 0.0064260000362992287 0.059422999620437622 -0.018844999372959137
  endloop
 endfacet
 facet normal 0.86486881546962524 -0.1042626291802262 0.4910511543460559
  outer loop
   vertex 0.0064260000362992287 0.059422999620437622 -0.018844999372959137
   vertex 0.0073299999348819256 0.055105000734329224 -0.021353999152779579
   vertex 0.0097920000553131104 0.062279000878334045 -0.024166999384760857
  endloop
 endfacet
 facet normal 0.76828545527250902 -0.44433398847698807 -0.46076541309091912
  outer loop
   vertex 0.0097920000553131104 0.062279000878334045 -0.024166999384760857
   vertex 0.0073299999348819256 0.055105000734329224 -0.021353999152779579
   vertex 0.0075759999454021454 0.060596000403165817 -0.026239000260829926
  endloop
 endfacet
 facet normal 0.8941220992060579 0.098545057843911155 0.43684613227759345
  outer loop
   vertex 0.0075759999454021454 0.060596000403165817 -0.026239000260829926
   vertex 0.0073839998804032803 0.054770998656749725 -0.024531999602913857
   vertex 0.0089649995788931847 0.05809599906206131 -0.028518000617623329
  endloop
 endfacet
 facet normal 0.36826971777881257 -0.84353525135037366 0.39092927070811129
  outer loop
   vertex 0.0059210001491010189 0.050197001546621323 -0.030617000535130501
   vertex 0.0073299999348819256 0.055105000734329224 -0.021353999152779579
   vertex -0.0082069998607039452 0.047566000372171402 -0.022985000163316727
  endloop
 endfacet
 facet normal 0.33209611919380488 -0.85344270365858321 0.40168111629542896
  outer loop
   vertex 0.0088470000773668289 0.051761999726295471 -0.029711000621318817
   vertex 0.0073299999348819256 0.055105000734329224 -0.021353999152779579
   vertex 0.0059210001491010189 0.050197001546621323 -0.030617000535130501
  endloop
 endfacet
 facet normal 0.50314735238631891 0.84147747593074518 -0.19687152990683915
  outer loop
   vertex 0.012833000160753727 0.051337998360395432 -0.023391000926494598
   vertex 0.0073299999348819256 0.055105000734329224 -0.021353999152779579
   vertex 0.01257800031453371 0.052397999912500381 -0.019511999562382698
  endloop
 endfacet
 facet normal 0.32672883212974696 0.87556587025262789 0.35585485398388211
  outer loop
   vertex 0.01257800031453371 0.052397999912500381 -0.019511999562382698
   vertex 0.0073299999348819256 0.055105000734329224 -0.021353999152779579
   vertex 0.0095380004495382309 0.053151998668909073 -0.018575999885797501
  endloop
 endfacet
 facet normal -0.6284591300863569 -0.76385965599480199 0.14682488806262403
  outer loop
   vertex 0.0073299999348819256 0.055105000734329224 -0.021353999152779579
   vertex 0.011745999567210674 0.050370000302791595 -0.027086000889539719
   vertex 0.014072000049054623 0.049318000674247742 -0.022602999582886696
  endloop
 endfacet
 facet normal -0.64494374575520019 -0.67337340124633738 -0.36140811737589829
  outer loop
   vertex 0.0073299999348819256 0.055105000734329224 -0.021353999152779579
   vertex 0.014072000049054623 0.049318000674247742 -0.022602999582886696
   vertex 0.014434999786317348 0.046875 -0.018698999658226967
  endloop
 endfacet
 facet normal -0.57273824598893264 -0.79165819172902174 0.21271626418742998
  outer loop
   vertex 0.011745999567210674 0.050370000302791595 -0.027086000889539719
   vertex 0.0073299999348819256 0.055105000734329224 -0.021353999152779579
   vertex 0.0088470000773668289 0.051761999726295471 -0.029711000621318817
  endloop
 endfacet
 facet normal -0.83890902115780086 0.51736864119229897 -0.16900101576882529
  outer loop
   vertex -0.0082069998607039452 0.047566000372171402 -0.022985000163316727
   vertex -0.0093130003660917282 0.047499001026153564 -0.017699999734759331
   vertex -0.0045630000531673431 0.052988000214099884 -0.02447500079870224
  endloop
 endfacet
 facet normal -0.52467711308016807 0.12105760176932455 -0.84264997719321155
  outer loop
   vertex -0.0082069998607039452 0.047566000372171402 -0.022985000163316727
   vertex -0.0045630000531673431 0.052988000214099884 -0.02447500079870224
   vertex 0.0036410000175237656 0.057353999465703964 -0.028955999761819839
  endloop
 endfacet
 facet normal -0.4818303870742946 0.049542357524270324 -0.87486286519818224
  outer loop
   vertex -0.0082069998607039452 0.047566000372171402 -0.022985000163316727
   vertex 0.0036410000175237656 0.057353999465703964 -0.028955999761819839
   vertex 0.0059210001491010189 0.050197001546621323 -0.030617000535130501
  endloop
 endfacet
 facet normal -0.59570016259741321 0.67901747646171073 -0.42904146995481196
  outer loop
   vertex -0.0045630000531673431 0.052988000214099884 -0.02447500079870224
   vertex 0.0017790000420063734 0.058246001601219177 -0.024958999827504158
   vertex 0.0036410000175237656 0.057353999465703964 -0.028955999761819839
  endloop
 endfacet
 facet normal -0.5455025363722078 0.69402801741602649 -0.46984262668798771
  outer loop
   vertex 0.013883999548852444 0.062290001660585403 0.011665999889373779
   vertex 0.013233999721705914 0.057374000549316406 0.0051589999347925186
   vertex 0.010944999754428864 0.058779001235961914 0.0098919998854398727
  endloop
 endfacet
 facet normal 0.50672915064360746 0.47687210893382315 -0.71820509578324221
  outer loop
   vertex 0.015088999643921852 0.061057999730110168 0.014329000376164913
   vertex 0.010944999754428864 0.058779001235961914 0.0098919998854398727
   vertex 0.011187000200152397 0.06017100065946579 0.010986999608576298
  endloop
 endfacet
 facet normal 0.30006429291182218 0.94428997757158217 -0.13519563002252991
  outer loop
   vertex 0.013233999721705914 0.057374000549316406 0.0051589999347925186
   vertex 0.012213000096380711 0.057301998138427734 0.0023900000378489494
   vertex 0.010944999754428864 0.058779001235961914 0.0098919998854398727
  endloop
 endfacet
 facet normal -0.87558854554064802 0.42398918720837236 -0.23146893538528313
  outer loop
   vertex 0.012213000096380711 0.057301998138427734 0.0023900000378489494
   vertex 0.0048560001887381077 0.043042998760938644 0.0041009997949004173
   vertex 0.010944999754428864 0.058779001235961914 0.0098919998854398727
  endloop
 endfacet
 facet normal -0.59759406631185641 0.79472380551265553 -0.10627984221075699
  outer loop
   vertex 0.015088999643921852 0.061057999730110168 0.014329000376164913
   vertex 0.0083469999954104424 0.055830001831054688 0.013144999742507935
   vertex 0.014020999893546104 0.060440000146627426 0.015713000670075417
  endloop
 endfacet
 facet normal -0.67628984288024374 0.69254290333784974 0.2510306265247268
  outer loop
   vertex 0.014020999893546104 0.060440000146627426 0.015713000670075417
   vertex 0.0083469999954104424 0.055830001831054688 0.013144999742507935
   vertex 0.0097789997234940529 0.055959001183509827 0.01664699986577034
  endloop
 endfacet
 facet normal -0.34503556356341114 0.49309525457981751 0.79862853053678484
  outer loop
   vertex 0.0095380004495382309 0.053151998668909073 0.018276000395417213
   vertex 0.014020999893546104 0.060440000146627426 0.015713000670075417
   vertex 0.0097789997234940529 0.055959001183509827 0.01664699986577034
  endloop
 endfacet
 facet normal -0.41290696701385621 0.87105028115972061 0.26604368867347694
  outer loop
   vertex 0.0075759999454021454 0.060596000403165817 0.025970999151468277
   vertex 0.0097920000553131104 0.062279000878334045 0.023900000378489494
   vertex 0.0017790000420063734 0.058246001601219177 0.024668000638484955
  endloop
 endfacet
 facet normal -0.41957150175536612 0.82459366002267631 0.37947997412927281
  outer loop
   vertex 0.0036410000175237656 0.057353999465703964 0.028665000572800636
   vertex 0.0075759999454021454 0.060596000403165817 0.025970999151468277
   vertex 0.0017790000420063734 0.058246001601219177 0.024668000638484955
  endloop
 endfacet
 facet normal -0.41209035832514262 0.8711775517390542 -0.26689175693790723
  outer loop
   vertex 0.0097920000553131104 0.062279000878334045 -0.024166999384760857
   vertex 0.0075759999454021454 0.060596000403165817 -0.026239000260829926
   vertex 0.0017790000420063734 0.058246001601219177 -0.024958999827504158
  endloop
 endfacet
 facet normal -0.41831151498220059 0.82541868556638431 -0.37907712929054255
  outer loop
   vertex 0.0075759999454021454 0.060596000403165817 -0.026239000260829926
   vertex 0.0036410000175237656 0.057353999465703964 -0.028955999761819839
   vertex 0.0017790000420063734 0.058246001601219177 -0.024958999827504158
  endloop
 endfacet
 facet normal -0.68087300296278619 0.63061235313627573 -0.37247820595085407
  outer loop
   vertex 0.011187000200152397 0.06017100065946579 -0.011288000270724297
   vertex 0.014020999893546104 0.060440000146627426 -0.016013000160455704
   vertex 0.0083469999954104424 0.055830001831054688 -0.013446000404655933
  endloop
 endfacet
 facet normal -0.676264129152372 0.6925721905447354 -0.25101909988255988
  outer loop
   vertex 0.0083469999954104424 0.055830001831054688 -0.013446000404655933
   vertex 0.014020999893546104 0.060440000146627426 -0.016013000160455704
   vertex 0.0097789997234940529 0.055959001183509827 -0.016947999596595764
  endloop
 endfacet
 facet normal -0.34461796131824096 0.49293628416782359 -0.7989069285515541
  outer loop
   vertex 0.014020999893546104 0.060440000146627426 -0.016013000160455704
   vertex 0.0095380004495382309 0.053151998668909073 -0.018575999885797501
   vertex 0.0097789997234940529 0.055959001183509827 -0.016947999596595764
  endloop
 endfacet
 facet normal -0.30641876097579479 0.62086813562776089 0.72154715790734503
  outer loop
   vertex 0.013883999548852444 0.062290001660585403 -0.011966000311076641
   vertex 0.011187000200152397 0.06017100065946579 -0.011288000270724297
   vertex 0.010944999754428864 0.058779001235961914 -0.010192999616265297
  endloop
 endfacet
 facet normal -0.54557404370860496 0.69396169183981748 0.4698575668117515
  outer loop
   vertex 0.013233999721705914 0.057374000549316406 -0.0054600001312792301
   vertex 0.013883999548852444 0.062290001660585403 -0.011966000311076641
   vertex 0.010944999754428864 0.058779001235961914 -0.010192999616265297
  endloop
 endfacet
 facet normal 0.30006431927672089 0.94428996945961541 0.13519562816510311
  outer loop
   vertex 0.012213000096380711 0.057301998138427734 -0.0026910000015050173
   vertex 0.013233999721705914 0.057374000549316406 -0.0054600001312792301
   vertex 0.010944999754428864 0.058779001235961914 -0.010192999616265297
  endloop
 endfacet
 facet normal -0.92903625607454132 0.36907140443138825 0.026037152878950871
  outer loop
   vertex 0.0047050002031028271 0.0423629991710186 -0.0001500000071246177
   vertex 0.010944999754428864 0.058779001235961914 -0.010192999616265297
   vertex 0.0048560001887381077 0.043042998760938644 -0.0044010002166032791
  endloop
 endfacet
 facet normal -0.27027692140125559 -0.96262901455058492 -0.017197851703894887
  outer loop
   vertex 0.0048560001887381077 0.043042998760938644 0.0041009997949004173
   vertex 0.024375999346375465 0.037597000598907471 0.00216299993917346
   vertex 0.023101000115275383 0.037840999662876129 0.0085429996252059937
  endloop
 endfacet
 facet normal 0.9632344128746998 -0.18007238325949923 0.19938255350249845
  outer loop
   vertex 0.023101000115275383 0.037840999662876129 0.0085429996252059937
   vertex 0.024375999346375465 0.037597000598907471 0.00216299993917346
   vertex 0.025872999802231789 0.051545001566410065 0.0075280000455677509
  endloop
 endfacet
 facet normal 0.81124299818284795 -0.009847171601042589 0.58462623197284225
  outer loop
   vertex 0.020344000309705734 0.039838001132011414 0.015003000386059284
   vertex 0.025872999802231789 0.051545001566410065 0.0075280000455677509
   vertex 0.022871000692248344 0.053406000137329102 0.011725000105798244
  endloop
 endfacet
 facet normal 0.47225595643711088 0.12292207496563724 0.87284848346996158
  outer loop
   vertex 0.01680699922144413 0.040972001850605011 0.016757000237703323
   vertex 0.020344000309705734 0.039838001132011414 0.015003000386059284
   vertex 0.022871000692248344 0.053406000137329102 0.011725000105798244
  endloop
 endfacet
 facet normal 0.62118268547268096 -0.001549899166234888 0.78366425788185767
  outer loop
   vertex 0.014434999786317348 0.046875 0.01839900016784668
   vertex 0.022871000692248344 0.053406000137329102 0.011725000105798244
   vertex 0.020836999639868736 0.05528699979186058 0.01334100030362606
  endloop
 endfacet
 facet normal 0.70673291296556839 -0.1184734290951545 0.69749024102824408
  outer loop
   vertex 0.014434999786317348 0.046875 0.01839900016784668
   vertex 0.020836999639868736 0.05528699979186058 0.01334100030362606
   vertex 0.01664000004529953 0.053369998931884766 0.017268000170588493
  endloop
 endfacet
 facet normal 0.9273435191584114 -0.27249213457811955 0.25648008512933879
  outer loop
   vertex 0.014434999786317348 0.046875 0.01839900016784668
   vertex 0.014295999892055988 0.050629999488592148 0.022890999913215637
   vertex 0.014072000049054623 0.049318000674247742 0.022306999191641808
  endloop
 endfacet
 facet normal -0.24656665093877408 0.45296605333053269 0.85675354751235067
  outer loop
   vertex 0.01257800031453371 0.052398998290300369 0.019548999145627022
   vertex 0.014020999893546104 0.060440000146627426 0.015713000670075417
   vertex 0.0095380004495382309 0.053151998668909073 0.018276000395417213
  endloop
 endfacet
 facet normal -0.034084335422418247 0.66288730572352961 0.7479429643959572
  outer loop
   vertex 0.0075759999454021454 0.060596000403165817 0.025970999151468277
   vertex 0.0036410000175237656 0.057353999465703964 0.028665000572800636
   vertex 0.0089649995788931847 0.05809599906206131 0.028249999508261681
  endloop
 endfacet
 facet normal 0.44041601766373401 0.59799627024866764 -0.66965229197987519
  outer loop
   vertex 0.010197999887168407 0.053516000509262085 0.024971000850200653
   vertex 0.0073839998804032803 0.054770998656749725 0.024241000413894653
   vertex 0.0089649995788931847 0.05809599906206131 0.028249999508261681
  endloop
 endfacet
 facet normal 0.45424441005235477 0.82948356978871562 -0.32499080508032396
  outer loop
   vertex 0.010197999887168407 0.053516000509262085 0.024971000850200653
   vertex 0.012833000160753727 0.051337998360395432 0.02309500053524971
   vertex 0.0073839998804032803 0.054770998656749725 0.024241000413894653
  endloop
 endfacet
 facet normal 0.048474636182226617 0.19956398400724581 0.97868504940770218
  outer loop
   vertex 0.0089649995788931847 0.05809599906206131 0.028249999508261681
   vertex 0.0036410000175237656 0.057353999465703964 0.028665000572800636
   vertex 0.008391999639570713 0.050879001617431641 0.029750000685453415
  endloop
 endfacet
 facet normal 0.93559693226622598 -0.00089973484381990524 0.35306879048032253
  outer loop
   vertex 0.010197999887168407 0.053516000509262085 0.024971000850200653
   vertex 0.0089649995788931847 0.05809599906206131 0.028249999508261681
   vertex 0.008391999639570713 0.050879001617431641 0.029750000685453415
  endloop
 endfacet
 facet normal 0.15489397532814692 0.27276330910466018 0.94953042795548115
  outer loop
   vertex 0.0036410000175237656 0.057353999465703964 0.028665000572800636
   vertex 0.0059210001491010189 0.050197001546621323 0.030348999425768852
   vertex 0.008391999639570713 0.050879001617431641 0.029750000685453415
  endloop
 endfacet
 facet normal -0.1540629100098119 -0.27526015050265645 -0.9489449242735658
  outer loop
   vertex 0.0088470000773668289 0.051761999726295471 0.029419999569654465
   vertex 0.008391999639570713 0.050879001617431641 0.029750000685453415
   vertex 0.0059210001491010189 0.050197001546621323 0.030348999425768852
  endloop
 endfacet
 facet normal -0.65510634096895559 0.05598094125048439 -0.75345989690160442
  outer loop
   vertex 0.011745999567210674 0.050370000302791595 0.026796000078320503
   vertex 0.008391999639570713 0.050879001617431641 0.029750000685453415
   vertex 0.0088470000773668289 0.051761999726295471 0.029419999569654465
  endloop
 endfacet
 facet normal 0.44969399260374948 0.86406560318522707 0.22619890894575195
  outer loop
   vertex 0.014295999892055988 0.050629999488592148 0.022890999913215637
   vertex 0.01257800031453371 0.052398998290300369 0.019548999145627022
   vertex 0.012833000160753727 0.051337998360395432 0.02309500053524971
  endloop
 endfacet
 facet normal 0.39900522551448558 0.33549921876780681 0.85336692238352319
  outer loop
   vertex 0.01664000004529953 0.053369998931884766 0.017268000170588493
   vertex 0.014020999893546104 0.060440000146627426 0.015713000670075417
   vertex 0.01257800031453371 0.052398998290300369 0.019548999145627022
  endloop
 endfacet
 facet normal 0.70225783846110423 0.68616982744312771 0.1897495618614331
  outer loop
   vertex 0.011745000258088112 0.051674999296665192 0.025902999565005302
   vertex 0.012833000160753727 0.051337998360395432 0.02309500053524971
   vertex 0.010197999887168407 0.053516000509262085 0.024971000850200653
  endloop
 endfacet
 facet normal 0.87941525269659793 0.26930116703503387 0.39256298189990857
  outer loop
   vertex 0.014072000049054623 0.049318000674247742 0.022306999191641808
   vertex 0.011745000258088112 0.051674999296665192 0.025902999565005302
   vertex 0.011745999567210674 0.050370000302791595 0.026796000078320503
  endloop
 endfacet
 facet normal -0.22790165098082002 -0.9715937268574224 0.063768859261562019
  outer loop
   vertex 0.0047050002031028271 0.0423629991710186 -0.0001500000071246177
   vertex 0.024375999346375465 0.037597000598907471 -0.0024639999028295279
   vertex 0.024383999407291412 0.03774699941277504 -0.0001500000071246177
  endloop
 endfacet
 facet normal 0.78360006733848697 -0.11326049088654842 -0.61085431624181608
  outer loop
   vertex 0.023101000115275383 0.037840999662876129 -0.0088440002873539925
   vertex 0.022871000692248344 0.053406000137329102 -0.012024999596178532
   vertex 0.025872999802231789 0.051545001566410065 -0.0078290002420544624
  endloop
 endfacet
 facet normal 0.47243942323426613 0.1228658300168201 -0.87275711351346308
  outer loop
   vertex 0.020344000309705734 0.039838001132011414 -0.015302999876439571
   vertex 0.01680699922144413 0.040972001850605011 -0.017057999968528748
   vertex 0.022871000692248344 0.053406000137329102 -0.012024999596178532
  endloop
 endfacet
 facet normal 0.9632344179969079 -0.18007237907339765 -0.19938253253734323
  outer loop
   vertex 0.024375999346375465 0.037597000598907471 -0.0024639999028295279
   vertex 0.023101000115275383 0.037840999662876129 -0.0088440002873539925
   vertex 0.025872999802231789 0.051545001566410065 -0.0078290002420544624
  endloop
 endfacet
 facet normal 0.62728732170079204 0.0092882307031112912 -0.77873252455759978
  outer loop
   vertex 0.01680699922144413 0.040972001850605011 -0.017057999968528748
   vertex 0.020836999639868736 0.05528699979186058 -0.013640999794006348
   vertex 0.022871000692248344 0.053406000137329102 -0.012024999596178532
  endloop
 endfacet
 facet normal 0.7068441671453326 -0.11864325233207096 -0.69734862303491352
  outer loop
   vertex 0.020836999639868736 0.05528699979186058 -0.013640999794006348
   vertex 0.014434999786317348 0.046875 -0.018698999658226967
   vertex 0.01664000004529953 0.053369998931884766 -0.017568999901413918
  endloop
 endfacet
 facet normal 0.92806000282903234 -0.27165799545556235 -0.25476766799192213
  outer loop
   vertex 0.01664000004529953 0.053369998931884766 -0.017568999901413918
   vertex 0.014072000049054623 0.049318000674247742 -0.022602999582886696
   vertex 0.014295999892055988 0.050629999488592148 -0.023186000064015388
  endloop
 endfacet
 facet normal -0.1707672477803204 0.41870763741190931 -0.8919206587238977
  outer loop
   vertex 0.014020999893546104 0.060440000146627426 -0.016013000160455704
   vertex 0.01257800031453371 0.052397999912500381 -0.019511999562382698
   vertex 0.0095380004495382309 0.053151998668909073 -0.018575999885797501
  endloop
 endfacet
 facet normal -0.03105435485415043 0.66388445661676365 -0.74719010653732365
  outer loop
   vertex 0.0036410000175237656 0.057353999465703964 -0.028955999761819839
   vertex 0.0075759999454021454 0.060596000403165817 -0.026239000260829926
   vertex 0.0089649995788931847 0.05809599906206131 -0.028518000617623329
  endloop
 endfacet
 facet normal 0.43986236674820778 0.59609369036316018 0.67170932003947526
  outer loop
   vertex 0.0073839998804032803 0.054770998656749725 -0.024531999602913857
   vertex 0.010197999887168407 0.053516000509262085 -0.025260999798774719
   vertex 0.0089649995788931847 0.05809599906206131 -0.028518000617623329
  endloop
 endfacet
 facet normal 0.052741761969396873 0.19919471121953436 -0.978539612671112
  outer loop
   vertex 0.0036410000175237656 0.057353999465703964 -0.028955999761819839
   vertex 0.0089649995788931847 0.05809599906206131 -0.028518000617623329
   vertex 0.008391999639570713 0.050879001617431641 -0.030017999932169914
  endloop
 endfacet
 facet normal 0.93498659761498193 -0.00051593512356622922 -0.35468266956718919
  outer loop
   vertex 0.0089649995788931847 0.05809599906206131 -0.028518000617623329
   vertex 0.010197999887168407 0.053516000509262085 -0.025260999798774719
   vertex 0.008391999639570713 0.050879001617431641 -0.030017999932169914
  endloop
 endfacet
 facet normal 0.45420380452310621 0.82920256432257311 0.32576373536292308
  outer loop
   vertex 0.012833000160753727 0.051337998360395432 -0.023391000926494598
   vertex 0.010197999887168407 0.053516000509262085 -0.025260999798774719
   vertex 0.0073839998804032803 0.054770998656749725 -0.024531999602913857
  endloop
 endfacet
 facet normal 0.15576853949052433 0.27013205163236603 -0.95013937755777589
  outer loop
   vertex 0.0059210001491010189 0.050197001546621323 -0.030617000535130501
   vertex 0.0036410000175237656 0.057353999465703964 -0.028955999761819839
   vertex 0.008391999639570713 0.050879001617431641 -0.030017999932169914
  endloop
 endfacet
 facet normal -0.16304152221210544 -0.24799887667038728 0.95494189310396549
  outer loop
   vertex 0.008391999639570713 0.050879001617431641 -0.030017999932169914
   vertex 0.0088470000773668289 0.051761999726295471 -0.029711000621318817
   vertex 0.0059210001491010189 0.050197001546621323 -0.030617000535130501
  endloop
 endfacet
 facet normal -0.75816030655619115 0.17199105413482085 0.62897696846563078
  outer loop
   vertex 0.011745000258088112 0.051674999296665192 -0.026194000616669655
   vertex 0.0088470000773668289 0.051761999726295471 -0.029711000621318817
   vertex 0.008391999639570713 0.050879001617431641 -0.030017999932169914
  endloop
 endfacet
 facet normal -0.10084707563365157 0.9580083066849957 -0.26842122058192025
  outer loop
   vertex 0.01664000004529953 0.053369998931884766 -0.017568999901413918
   vertex 0.012833000160753727 0.051337998360395432 -0.023391000926494598
   vertex 0.01257800031453371 0.052397999912500381 -0.019511999562382698
  endloop
 endfacet
 facet normal 0.32398070094866466 0.81067860108939127 0.48768505323472788
  outer loop
   vertex 0.014295999892055988 0.050629999488592148 -0.023186000064015388
   vertex 0.010197999887168407 0.053516000509262085 -0.025260999798774719
   vertex 0.012833000160753727 0.051337998360395432 -0.023391000926494598
  endloop
 endfacet
 facet normal 0.34479263822840872 0.32179459310655339 -0.8817971855652984
  outer loop
   vertex 0.014020999893546104 0.060440000146627426 -0.016013000160455704
   vertex 0.01664000004529953 0.053369998931884766 -0.017568999901413918
   vertex 0.01257800031453371 0.052397999912500381 -0.019511999562382698
  endloop
 endfacet
 facet normal 0.76936673482627449 0.36087961124541212 -0.5271059983818408
  outer loop
   vertex 0.014295999892055988 0.050629999488592148 -0.023186000064015388
   vertex 0.011745999567210674 0.050370000302791595 -0.027086000889539719
   vertex 0.011745000258088112 0.051674999296665192 -0.026194000616669655
  endloop
 endfacet
 facet normal 0.71667308496859627 0.65295208647342973 -0.24501686074960188
  outer loop
   vertex 0.020836999639868736 0.05528699979186058 0.01334100030362606
   vertex 0.013883999548852444 0.062290001660585403 0.011665999889373779
   vertex 0.017000999301671982 0.059532999992370605 0.013435999862849712
  endloop
 endfacet
 facet normal 0.64043282731634821 0.76532019544042995 0.064271238875649617
  outer loop
   vertex 0.017000999301671982 0.059532999992370605 0.013435999862849712
   vertex 0.013883999548852444 0.062290001660585403 0.011665999889373779
   vertex 0.015088999643921852 0.061057999730110168 0.014329000376164913
  endloop
 endfacet
 facet normal 0.52239455801146306 0.80542670049314258 -0.27998527799285761
  outer loop
   vertex 0.020836999639868736 0.05528699979186058 0.01334100030362606
   vertex 0.022871000692248344 0.053406000137329102 0.011725000105798244
   vertex 0.013233999721705914 0.057374000549316406 0.0051589999347925186
  endloop
 endfacet
 facet normal 0.43094719710905505 0.89788884015676595 -0.089889621346331577
  outer loop
   vertex 0.022871000692248344 0.053406000137329102 0.011725000105798244
   vertex 0.025872999802231789 0.051545001566410065 0.0075280000455677509
   vertex 0.013233999721705914 0.057374000549316406 0.0051589999347925186
  endloop
 endfacet
 facet normal 0.34083250956417133 0.91964520116220361 -0.19515610265507777
  outer loop
   vertex 0.013233999721705914 0.057374000549316406 0.0051589999347925186
   vertex 0.026737000793218613 0.051242999732494354 -0.0001500000071246177
   vertex 0.014684000052511692 0.055709999054670334 -0.0001500000071246177
  endloop
 endfacet
 facet normal 0.40262502138156997 0.89909127742600847 -0.1718370362115185
  outer loop
   vertex 0.013233999721705914 0.057374000549316406 0.0051589999347925186
   vertex 0.014684000052511692 0.055709999054670334 -0.0001500000071246177
   vertex 0.012213000096380711 0.057301998138427734 0.0023900000378489494
  endloop
 endfacet
 facet normal 0.64036661655438831 0.38357402424878007 0.6654333658032795
  outer loop
   vertex 0.01664000004529953 0.053369998931884766 0.017268000170588493
   vertex 0.015088999643921852 0.061057999730110168 0.014329000376164913
   vertex 0.014020999893546104 0.060440000146627426 0.015713000670075417
  endloop
 endfacet
 facet normal -0.52437593251131398 0.3920541992341996 -0.75585936937086395
  outer loop
   vertex 0.014684000052511692 0.055709999054670334 -0.0001500000071246177
   vertex 0.0047050002031028271 0.0423629991710186 -0.0001500000071246177
   vertex 0.012213000096380711 0.057301998138427734 0.0023900000378489494
  endloop
 endfacet
 facet normal -0.52449384481354588 0.39214235738632908 0.75573181638475218
  outer loop
   vertex 0.0047050002031028271 0.0423629991710186 -0.0001500000071246177
   vertex 0.014684000052511692 0.055709999054670334 -0.0001500000071246177
   vertex 0.012213000096380711 0.057301998138427734 -0.0026910000015050173
  endloop
 endfacet
 facet normal 0.63021074405595523 0.40004399834536358 -0.665431602393735
  outer loop
   vertex 0.017000999301671982 0.059532999992370605 -0.013736000284552574
   vertex 0.014020999893546104 0.060440000146627426 -0.016013000160455704
   vertex 0.015088999643921852 0.061057999730110168 -0.014630000106990337
  endloop
 endfacet
 facet normal 0.64044502850925966 0.76531276130676396 -0.064238172754132572
  outer loop
   vertex 0.013883999548852444 0.062290001660585403 -0.011966000311076641
   vertex 0.017000999301671982 0.059532999992370605 -0.013736000284552574
   vertex 0.015088999643921852 0.061057999730110168 -0.014630000106990337
  endloop
 endfacet
 facet normal 0.72010307605731572 0.51709747810960871 0.46266808619730226
  outer loop
   vertex 0.013233999721705914 0.057374000549316406 -0.0054600001312792301
   vertex 0.017000999301671982 0.059532999992370605 -0.013736000284552574
   vertex 0.013883999548852444 0.062290001660585403 -0.011966000311076641
  endloop
 endfacet
 facet normal 0.52238029519626472 0.80542884327476516 0.280005724248161
  outer loop
   vertex 0.022871000692248344 0.053406000137329102 -0.012024999596178532
   vertex 0.020836999639868736 0.05528699979186058 -0.013640999794006348
   vertex 0.013233999721705914 0.057374000549316406 -0.0054600001312792301
  endloop
 endfacet
 facet normal 0.43094934984949368 0.89788594335951033 0.089908234226353786
  outer loop
   vertex 0.025872999802231789 0.051545001566410065 -0.0078290002420544624
   vertex 0.022871000692248344 0.053406000137329102 -0.012024999596178532
   vertex 0.013233999721705914 0.057374000549316406 -0.0054600001312792301
  endloop
 endfacet
 facet normal 0.34751359120304998 0.93767230977230764 -0.0022233792805404396
  outer loop
   vertex 0.025872999802231789 0.051545001566410065 -0.0078290002420544624
   vertex 0.014684000052511692 0.055709999054670334 -0.0001500000071246177
   vertex 0.026737000793218613 0.051242999732494354 -0.0001500000071246177
  endloop
 endfacet
 facet normal 0.40258406925499868 0.89911239879832427 0.17182247090881173
  outer loop
   vertex 0.014684000052511692 0.055709999054670334 -0.0001500000071246177
   vertex 0.013233999721705914 0.057374000549316406 -0.0054600001312792301
   vertex 0.012213000096380711 0.057301998138427734 -0.0026910000015050173
  endloop
 endfacet
 facet normal 0.97839558706930796 -0.170581366169308 0.11680784528068687
  outer loop
   vertex 0.025872999802231789 0.051545001566410065 0.0075280000455677509
   vertex 0.024383999407291412 0.03774699941277504 -0.0001500000071246177
   vertex 0.026737000793218613 0.051242999732494354 -0.0001500000071246177
  endloop
 endfacet
 facet normal 0.98510991078299837 -0.17175199543943284 0.0077275959836155123
  outer loop
   vertex 0.024375999346375465 0.037597000598907471 -0.0024639999028295279
   vertex 0.026737000793218613 0.051242999732494354 -0.0001500000071246177
   vertex 0.024383999407291412 0.03774699941277504 -0.0001500000071246177
  endloop
 endfacet
 facet normal 0.50079069038142743 0.435699891054879 0.747913290002297
  outer loop
   vertex 0.020836999639868736 0.05528699979186058 0.01334100030362606
   vertex 0.017000999301671982 0.059532999992370605 0.013435999862849712
   vertex 0.01664000004529953 0.053369998931884766 0.017268000170588493
  endloop
 endfacet
 facet normal 0.47603521267845539 0.68143906911470509 0.55590581160324448
  outer loop
   vertex 0.008391999639570713 0.050879001617431641 0.029750000685453415
   vertex 0.011745000258088112 0.051674999296665192 0.025902999565005302
   vertex 0.010197999887168407 0.053516000509262085 0.024971000850200653
  endloop
 endfacet
 facet normal 0.50086040407942489 0.435764597083795 -0.74782890526763723
  outer loop
   vertex 0.017000999301671982 0.059532999992370605 -0.013736000284552574
   vertex 0.020836999639868736 0.05528699979186058 -0.013640999794006348
   vertex 0.01664000004529953 0.053369998931884766 -0.017568999901413918
  endloop
 endfacet
 facet normal 0.47430786528296354 0.68119104528823748 -0.55768343058570113
  outer loop
   vertex 0.011745000258088112 0.051674999296665192 -0.026194000616669655
   vertex 0.008391999639570713 0.050879001617431641 -0.030017999932169914
   vertex 0.010197999887168407 0.053516000509262085 -0.025260999798774719
  endloop
 endfacet
endsolid
