solid Visualization Toolkit generated SLA File
 facet normal 0 -1 0
  outer loop
   vertex -0.20000000298023224 0 0.40000000596046448
   vertex -0.30000001192092896 0 0.5
   vertex -0.30000001192092896 0 0.40000000596046448
  endloop
 endfacet
 facet normal -0 -1 -0
  outer loop
   vertex -0.20000000298023224 0 0.40000000596046448
   vertex -0.20000000298023224 0 0.5
   vertex -0.30000001192092896 0 0.5
  endloop
 endfacet
 facet normal 0 -1 0
  outer loop
   vertex 5.551119755337213e-17 0 0.40000000596046448
   vertex -0.10000000149011612 0 0.5
   vertex -0.10000000149011612 0 0.40000000596046448
  endloop
 endfacet
 facet normal -0 -1 -0
  outer loop
   vertex 5.551119755337213e-17 0 0.40000000596046448
   vertex 5.551119755337213e-17 0 0.5
   vertex -0.10000000149011612 0 0.5
  endloop
 endfacet
 facet normal 0 -1 0
  outer loop
   vertex 0.20000000298023224 0 0.40000000596046448
   vertex 0.10000000149011612 0 0.5
   vertex 0.10000000149011612 0 0.40000000596046448
  endloop
 endfacet
 facet normal -0 -1 -0
  outer loop
   vertex 0.20000000298023224 0 0.40000000596046448
   vertex 0.20000000298023224 0 0.5
   vertex 0.10000000149011612 0 0.5
  endloop
 endfacet
 facet normal 0 -1 0
  outer loop
   vertex -0.10000000149011612 0 0.30000001192092896
   vertex -0.20000000298023224 0 0.40000000596046448
   vertex -0.20000000298023224 0 0.30000001192092896
  endloop
 endfacet
 facet normal -0 -1 -0
  outer loop
   vertex -0.10000000149011612 0 0.30000001192092896
   vertex -0.10000000149011612 0 0.40000000596046448
   vertex -0.20000000298023224 0 0.40000000596046448
  endloop
 endfacet
 facet normal 0 -1 0
  outer loop
   vertex 0.10000000149011612 0 0.30000001192092896
   vertex 5.551119755337213e-17 0 0.40000000596046448
   vertex 5.551119755337213e-17 0 0.30000001192092896
  endloop
 endfacet
 facet normal -0 -1 -0
  outer loop
   vertex 0.10000000149011612 0 0.30000001192092896
   vertex 0.10000000149011612 0 0.40000000596046448
   vertex 5.551119755337213e-17 0 0.40000000596046448
  endloop
 endfacet
 facet normal 0 -1 0
  outer loop
   vertex 0.30000001192092896 0 0.30000001192092896
   vertex 0.20000000298023224 0 0.40000000596046448
   vertex 0.20000000298023224 0 0.30000001192092896
  endloop
 endfacet
 facet normal -0 -1 -0
  outer loop
   vertex 0.30000001192092896 0 0.30000001192092896
   vertex 0.30000001192092896 0 0.40000000596046448
   vertex 0.20000000298023224 0 0.40000000596046448
  endloop
 endfacet
 facet normal 0 -1 0
  outer loop
   vertex -0.20000000298023224 0 0.20000000298023224
   vertex -0.30000001192092896 0 0.30000001192092896
   vertex -0.30000001192092896 0 0.20000000298023224
  endloop
 endfacet
 facet normal -0 -1 -0
  outer loop
   vertex -0.20000000298023224 0 0.20000000298023224
   vertex -0.20000000298023224 0 0.30000001192092896
   vertex -0.30000001192092896 0 0.30000001192092896
  endloop
 endfacet
 facet normal 0 -1 0
  outer loop
   vertex 5.551119755337213e-17 0 0.20000000298023224
   vertex -0.10000000149011612 0 0.30000001192092896
   vertex -0.10000000149011612 0 0.20000000298023224
  endloop
 endfacet
 facet normal -0 -1 -0
  outer loop
   vertex 5.551119755337213e-17 0 0.20000000298023224
   vertex 5.551119755337213e-17 0 0.30000001192092896
   vertex -0.10000000149011612 0 0.30000001192092896
  endloop
 endfacet
 facet normal 0 -1 0
  outer loop
   vertex 0.20000000298023224 0 0.20000000298023224
   vertex 0.10000000149011612 0 0.30000001192092896
   vertex 0.10000000149011612 0 0.20000000298023224
  endloop
 endfacet
 facet normal -0 -1 -0
  outer loop
   vertex 0.20000000298023224 0 0.20000000298023224
   vertex 0.20000000298023224 0 0.30000001192092896
   vertex 0.10000000149011612 0 0.30000001192092896
  endloop
 endfacet
 facet normal 0 -1 0
  outer loop
   vertex -0.10000000149011612 0 0.10000000149011612
   vertex -0.20000000298023224 0 0.20000000298023224
   vertex -0.20000000298023224 0 0.10000000149011612
  endloop
 endfacet
 facet normal -0 -1 -0
  outer loop
   vertex -0.10000000149011612 0 0.10000000149011612
   vertex -0.10000000149011612 0 0.20000000298023224
   vertex -0.20000000298023224 0 0.20000000298023224
  endloop
 endfacet
 facet normal 0 -1 0
  outer loop
   vertex 0.10000000149011612 0 0.10000000149011612
   vertex 5.551119755337213e-17 0 0.20000000298023224
   vertex 5.551119755337213e-17 0 0.10000000149011612
  endloop
 endfacet
 facet normal -0 -1 -0
  outer loop
   vertex 0.10000000149011612 0 0.10000000149011612
   vertex 0.10000000149011612 0 0.20000000298023224
   vertex 5.551119755337213e-17 0 0.20000000298023224
  endloop
 endfacet
 facet normal 0 -1 0
  outer loop
   vertex 0.30000001192092896 0 0.10000000149011612
   vertex 0.20000000298023224 0 0.20000000298023224
   vertex 0.20000000298023224 0 0.10000000149011612
  endloop
 endfacet
 facet normal -0 -1 -0
  outer loop
   vertex 0.30000001192092896 0 0.10000000149011612
   vertex 0.30000001192092896 0 0.20000000298023224
   vertex 0.20000000298023224 0 0.20000000298023224
  endloop
 endfacet
 facet normal 0 -1 0
  outer loop
   vertex -0.20000000298023224 0 0
   vertex -0.30000001192092896 0 0.10000000149011612
   vertex -0.30000001192092896 0 0
  endloop
 endfacet
 facet normal -0 -1 -0
  outer loop
   vertex -0.20000000298023224 0 0
   vertex -0.20000000298023224 0 0.10000000149011612
   vertex -0.30000001192092896 0 0.10000000149011612
  endloop
 endfacet
 facet normal 0 -1 0
  outer loop
   vertex 5.551119755337213e-17 0 0
   vertex -0.10000000149011612 0 0.10000000149011612
   vertex -0.10000000149011612 0 0
  endloop
 endfacet
 facet normal -0 -1 -0
  outer loop
   vertex 5.551119755337213e-17 0 0
   vertex 5.551119755337213e-17 0 0.10000000149011612
   vertex -0.10000000149011612 0 0.10000000149011612
  endloop
 endfacet
 facet normal 0 -1 0
  outer loop
   vertex 0.20000000298023224 0 0
   vertex 0.10000000149011612 0 0.10000000149011612
   vertex 0.10000000149011612 0 0
  endloop
 endfacet
 facet normal -0 -1 -0
  outer loop
   vertex 0.20000000298023224 0 0
   vertex 0.20000000298023224 0 0.10000000149011612
   vertex 0.10000000149011612 0 0.10000000149011612
  endloop
 endfacet
 facet normal 0 -1 0
  outer loop
   vertex -0.10000000149011612 0 -0.10000000149011612
   vertex -0.20000000298023224 0 0
   vertex -0.20000000298023224 0 -0.10000000149011612
  endloop
 endfacet
 facet normal -0 -1 -0
  outer loop
   vertex -0.10000000149011612 0 -0.10000000149011612
   vertex -0.10000000149011612 0 0
   vertex -0.20000000298023224 0 0
  endloop
 endfacet
 facet normal 0 -1 0
  outer loop
   vertex 0.10000000149011612 0 -0.10000000149011612
   vertex 5.551119755337213e-17 0 0
   vertex 5.551119755337213e-17 0 -0.10000000149011612
  endloop
 endfacet
 facet normal -0 -1 -0
  outer loop
   vertex 0.10000000149011612 0 -0.10000000149011612
   vertex 0.10000000149011612 0 0
   vertex 5.551119755337213e-17 0 0
  endloop
 endfacet
 facet normal 0 -1 0
  outer loop
   vertex 0.30000001192092896 0 -0.10000000149011612
   vertex 0.20000000298023224 0 0
   vertex 0.20000000298023224 0 -0.10000000149011612
  endloop
 endfacet
 facet normal -0 -1 -0
  outer loop
   vertex 0.30000001192092896 0 -0.10000000149011612
   vertex 0.30000001192092896 0 0
   vertex 0.20000000298023224 0 0
  endloop
 endfacet
 facet normal 0 -1 0
  outer loop
   vertex -0.20000000298023224 0 -0.20000000298023224
   vertex -0.30000001192092896 0 -0.10000000149011612
   vertex -0.30000001192092896 0 -0.20000000298023224
  endloop
 endfacet
 facet normal -0 -1 -0
  outer loop
   vertex -0.20000000298023224 0 -0.20000000298023224
   vertex -0.20000000298023224 0 -0.10000000149011612
   vertex -0.30000001192092896 0 -0.10000000149011612
  endloop
 endfacet
 facet normal 0 -1 0
  outer loop
   vertex 5.551119755337213e-17 0 -0.20000000298023224
   vertex -0.10000000149011612 0 -0.10000000149011612
   vertex -0.10000000149011612 0 -0.20000000298023224
  endloop
 endfacet
 facet normal -0 -1 -0
  outer loop
   vertex 5.551119755337213e-17 0 -0.20000000298023224
   vertex 5.551119755337213e-17 0 -0.10000000149011612
   vertex -0.10000000149011612 0 -0.10000000149011612
  endloop
 endfacet
 facet normal 0 -1 0
  outer loop
   vertex 0.20000000298023224 0 -0.20000000298023224
   vertex 0.10000000149011612 0 -0.10000000149011612
   vertex 0.10000000149011612 0 -0.20000000298023224
  endloop
 endfacet
 facet normal -0 -1 -0
  outer loop
   vertex 0.20000000298023224 0 -0.20000000298023224
   vertex 0.20000000298023224 0 -0.10000000149011612
   vertex 0.10000000149011612 0 -0.10000000149011612
  endloop
 endfacet
 facet normal 0 -1 0
  outer loop
   vertex -0.10000000149011612 0 -0.30000001192092896
   vertex -0.20000000298023224 0 -0.20000000298023224
   vertex -0.20000000298023224 0 -0.30000001192092896
  endloop
 endfacet
 facet normal -0 -1 -0
  outer loop
   vertex -0.10000000149011612 0 -0.30000001192092896
   vertex -0.10000000149011612 0 -0.20000000298023224
   vertex -0.20000000298023224 0 -0.20000000298023224
  endloop
 endfacet
 facet normal 0 -1 0
  outer loop
   vertex 0.10000000149011612 0 -0.30000001192092896
   vertex 5.551119755337213e-17 0 -0.20000000298023224
   vertex 5.551119755337213e-17 0 -0.30000001192092896
  endloop
 endfacet
 facet normal -0 -1 -0
  outer loop
   vertex 0.10000000149011612 0 -0.30000001192092896
   vertex 0.10000000149011612 0 -0.20000000298023224
   vertex 5.551119755337213e-17 0 -0.20000000298023224
  endloop
 endfacet
 facet normal 0 -1 0
  outer loop
   vertex 0.30000001192092896 0 -0.30000001192092896
   vertex 0.20000000298023224 0 -0.20000000298023224
   vertex 0.20000000298023224 0 -0.30000001192092896
  endloop
 endfacet
 facet normal -0 -1 -0
  outer loop
   vertex 0.30000001192092896 0 -0.30000001192092896
   vertex 0.30000001192092896 0 -0.20000000298023224
   vertex 0.20000000298023224 0 -0.20000000298023224
  endloop
 endfacet
 facet normal 0 -1 0
  outer loop
   vertex -0.20000000298023224 0 -0.40000000596046448
   vertex -0.30000001192092896 0 -0.30000001192092896
   vertex -0.30000001192092896 0 -0.40000000596046448
  endloop
 endfacet
 facet normal -0 -1 -0
  outer loop
   vertex -0.20000000298023224 0 -0.40000000596046448
   vertex -0.20000000298023224 0 -0.30000001192092896
   vertex -0.30000001192092896 0 -0.30000001192092896
  endloop
 endfacet
 facet normal 0 -1 0
  outer loop
   vertex 5.551119755337213e-17 0 -0.40000000596046448
   vertex -0.10000000149011612 0 -0.30000001192092896
   vertex -0.10000000149011612 0 -0.40000000596046448
  endloop
 endfacet
 facet normal -0 -1 -0
  outer loop
   vertex 5.551119755337213e-17 0 -0.40000000596046448
   vertex 5.551119755337213e-17 0 -0.30000001192092896
   vertex -0.10000000149011612 0 -0.30000001192092896
  endloop
 endfacet
 facet normal 0 -1 0
  outer loop
   vertex 0.20000000298023224 0 -0.40000000596046448
   vertex 0.10000000149011612 0 -0.30000001192092896
   vertex 0.10000000149011612 0 -0.40000000596046448
  endloop
 endfacet
 facet normal -0 -1 -0
  outer loop
   vertex 0.20000000298023224 0 -0.40000000596046448
   vertex 0.20000000298023224 0 -0.30000001192092896
   vertex 0.10000000149011612 0 -0.30000001192092896
  endloop
 endfacet
 facet normal 0 -1 0
  outer loop
   vertex -0.10000000149011612 0 -0.5
   vertex -0.20000000298023224 0 -0.40000000596046448
   vertex -0.20000000298023224 0 -0.5
  endloop
 endfacet
 facet normal -0 -1 -0
  outer loop
   vertex -0.10000000149011612 0 -0.5
   vertex -0.10000000149011612 0 -0.40000000596046448
   vertex -0.20000000298023224 0 -0.40000000596046448
  endloop
 endfacet
 facet normal 0 -1 0
  outer loop
   vertex 0.10000000149011612 0 -0.5
   vertex 5.551119755337213e-17 0 -0.40000000596046448
   vertex 5.551119755337213e-17 0 -0.5
  endloop
 endfacet
 facet normal -0 -1 -0
  outer loop
   vertex 0.10000000149011612 0 -0.5
   vertex 0.10000000149011612 0 -0.40000000596046448
   vertex 5.551119755337213e-17 0 -0.40000000596046448
  endloop
 endfacet
 facet normal 0 -1 0
  outer loop
   vertex 0.30000001192092896 0 -0.5
   vertex 0.20000000298023224 0 -0.40000000596046448
   vertex 0.20000000298023224 0 -0.5
  endloop
 endfacet
 facet normal -0 -1 -0
  outer loop
   vertex 0.30000001192092896 0 -0.5
   vertex 0.30000001192092896 0 -0.40000000596046448
   vertex 0.20000000298023224 0 -0.40000000596046448
  endloop
 endfacet
endsolid
