solid Visualization Toolkit generated SLA File
 facet normal -1 0 0
  outer loop
   vertex -0.5 0.47552800178527832 0.15450899302959442
   vertex -0.5 0.29389300942420959 0.40450900793075562
   vertex -0.5 0.40450900793075562 0.29389300942420959
  endloop
 endfacet
 facet normal 0.44279251040594764 0.88558502081189527 -0.14026390712508194
  outer loop
   vertex 0.5 0 0
   vertex -0.5 0.47552800178527832 -0.15450899302959442
   vertex -0.5 0.5 0
  endloop
 endfacet
 facet normal 0.44279279923987108 0.79889944926651368 -0.40705553294726293
  outer loop
   vertex 0.5 0 0
   vertex -0.5 0.40450900793075562 -0.29389300942420959
   vertex -0.5 0.47552800178527832 -0.15450899302959442
  endloop
 endfacet
 facet normal 0.44279302939284004 0.63400880637460844 -0.63400880637460844
  outer loop
   vertex 0.5 0 0
   vertex -0.5 0.29389300942420959 -0.40450900793075562
   vertex -0.5 0.40450900793075562 -0.29389300942420959
  endloop
 endfacet
 facet normal 0.44279279923987108 0.40705553294726293 -0.79889944926651368
  outer loop
   vertex 0.5 0 0
   vertex -0.5 0.15450899302959442 -0.47552800178527832
   vertex -0.5 0.29389300942420959 -0.40450900793075562
  endloop
 endfacet
 facet normal 0.44279251040016565 0.14026390703470978 -0.88558502082910007
  outer loop
   vertex 0.5 0 0
   vertex -0.5 -1.0255200161291e-10 -0.5
   vertex -0.5 0.15450899302959442 -0.47552800178527832
  endloop
 endfacet
 facet normal 0.44279251041172968 -0.14026390721545409 -0.88558502079469059
  outer loop
   vertex 0.5 0 0
   vertex -0.5 -0.15450899302959442 -0.47552800178527832
   vertex -0.5 -1.0255200161291e-10 -0.5
  endloop
 endfacet
 facet normal 0.44279279923987108 -0.40705553294726293 -0.79889944926651368
  outer loop
   vertex 0.5 0 0
   vertex -0.5 -0.29389300942420959 -0.40450900793075562
   vertex -0.5 -0.15450899302959442 -0.47552800178527832
  endloop
 endfacet
 facet normal 0.44279302939284004 -0.63400880637460844 -0.63400880637460844
  outer loop
   vertex 0.5 0 0
   vertex -0.5 -0.40450900793075562 -0.29389300942420959
   vertex -0.5 -0.29389300942420959 -0.40450900793075562
  endloop
 endfacet
 facet normal 0.44279279923987108 -0.79889944926651368 -0.40705553294726293
  outer loop
   vertex 0.5 0 0
   vertex -0.5 -0.47552800178527832 -0.15450899302959442
   vertex -0.5 -0.40450900793075562 -0.29389300942420959
  endloop
 endfacet
 facet normal 0.44279251039438372 -0.88558502084630453 -0.14026390694433849
  outer loop
   vertex 0.5 0 0
   vertex -0.5 -0.5 2.0510300402509785e-10
   vertex -0.5 -0.47552800178527832 -0.15450899302959442
  endloop
 endfacet
 facet normal 0.44279251041751166 -0.88558502077748624 0.14026390730582539
  outer loop
   vertex 0.5 0 0
   vertex -0.5 -0.47552800178527832 0.15450899302959442
   vertex -0.5 -0.5 2.0510300402509785e-10
  endloop
 endfacet
 facet normal 0.44279279923987108 -0.79889944926651368 0.40705553294726293
  outer loop
   vertex 0.5 0 0
   vertex -0.5 -0.40450900793075562 0.29389300942420959
   vertex -0.5 -0.47552800178527832 0.15450899302959442
  endloop
 endfacet
 facet normal 0.44279302939284004 -0.63400880637460844 0.63400880637460844
  outer loop
   vertex 0.5 0 0
   vertex -0.5 -0.29389300942420959 0.40450900793075562
   vertex -0.5 -0.40450900793075562 0.29389300942420959
  endloop
 endfacet
 facet normal 0.44279279923987108 -0.40705553294726293 0.79889944926651368
  outer loop
   vertex 0.5 0 0
   vertex -0.5 -0.15450899302959442 0.47552800178527832
   vertex -0.5 -0.29389300942420959 0.40450900793075562
  endloop
 endfacet
 facet normal 0.44279251038860168 -0.14026390685396631 0.8855850208635091
  outer loop
   vertex 0.5 0 0
   vertex -0.5 3.0765501257690175e-10 0.5
   vertex -0.5 -0.15450899302959442 0.47552800178527832
  endloop
 endfacet
 facet normal 0.44279251042329371 0.14026390739619757 0.88558502076028156
  outer loop
   vertex 0.5 0 0
   vertex -0.5 0.15450899302959442 0.47552800178527832
   vertex -0.5 3.0765501257690175e-10 0.5
  endloop
 endfacet
 facet normal 0.44279279923987108 0.40705553294726293 0.79889944926651368
  outer loop
   vertex 0.5 0 0
   vertex -0.5 0.29389300942420959 0.40450900793075562
   vertex -0.5 0.15450899302959442 0.47552800178527832
  endloop
 endfacet
 facet normal 0.44279302939284004 0.63400880637460844 0.63400880637460844
  outer loop
   vertex 0.5 0 0
   vertex -0.5 0.40450900793075562 0.29389300942420959
   vertex -0.5 0.29389300942420959 0.40450900793075562
  endloop
 endfacet
 facet normal 0.44279279923987108 0.79889944926651368 0.40705553294726293
  outer loop
   vertex -0.5 0.47552800178527832 0.15450899302959442
   vertex -0.5 0.40450900793075562 0.29389300942420959
   vertex 0.5 0 0
  endloop
 endfacet
 facet normal 0.44279251040594764 0.88558502081189527 0.14026390712508194
  outer loop
   vertex -0.5 0.5 0
   vertex -0.5 0.47552800178527832 0.15450899302959442
   vertex 0.5 0 0
  endloop
 endfacet
endsolid
