solid Visualization Toolkit generated SLA File
 facet normal 0.98768816495585376 0 0.15643557397899657
  outer loop
   vertex 0.5 0.5 0
   vertex 0.47552800178527832 -0.5 0.15450899302959442
   vertex 0.5 -0.5 0
  endloop
 endfacet
 facet normal 0.8910083594623841 0 0.45398689779348367
  outer loop
   vertex 0.47552800178527832 0.5 0.15450899302959442
   vertex 0.40450900793075562 -0.5 0.29389300942420959
   vertex 0.47552800178527832 -0.5 0.15450899302959442
  endloop
 endfacet
 facet normal 0.70710678118654757 0 0.70710678118654757
  outer loop
   vertex 0.40450900793075562 0.5 0.29389300942420959
   vertex 0.29389300942420959 -0.5 0.40450900793075562
   vertex 0.40450900793075562 -0.5 0.29389300942420959
  endloop
 endfacet
 facet normal 0.45398689779348367 0 0.8910083594623841
  outer loop
   vertex 0.29389300942420959 0.5 0.40450900793075562
   vertex 0.15450899302959442 -0.5 0.47552800178527832
   vertex 0.29389300942420959 -0.5 0.40450900793075562
  endloop
 endfacet
 facet normal 0.15643557387770682 0 0.9876881649718966
  outer loop
   vertex 0.15450899302959442 0.5 0.47552800178527832
   vertex -1.0255200161291e-10 -0.5 0.5
   vertex 0.15450899302959442 -0.5 0.47552800178527832
  endloop
 endfacet
 facet normal -0.15643557408028635 0 0.98768816493981093
  outer loop
   vertex -1.0255200161291e-10 0.5 0.5
   vertex -0.15450899302959442 -0.5 0.47552800178527832
   vertex -1.0255200161291e-10 -0.5 0.5
  endloop
 endfacet
 facet normal -0.45398689779348367 0 0.8910083594623841
  outer loop
   vertex -0.15450899302959442 0.5 0.47552800178527832
   vertex -0.29389300942420959 -0.5 0.40450900793075562
   vertex -0.15450899302959442 -0.5 0.47552800178527832
  endloop
 endfacet
 facet normal -0.70710678118654757 0 0.70710678118654757
  outer loop
   vertex -0.29389300942420959 0.5 0.40450900793075562
   vertex -0.40450900793075562 -0.5 0.29389300942420959
   vertex -0.29389300942420959 -0.5 0.40450900793075562
  endloop
 endfacet
 facet normal -0.8910083594623841 0 0.45398689779348367
  outer loop
   vertex -0.40450900793075562 0.5 0.29389300942420959
   vertex -0.47552800178527832 -0.5 0.15450899302959442
   vertex -0.40450900793075562 -0.5 0.29389300942420959
  endloop
 endfacet
 facet normal -0.98768816498793932 0 0.15643557377641804
  outer loop
   vertex -0.47552800178527832 0.5 0.15450899302959442
   vertex -0.5 -0.5 -2.0510300402509785e-10
   vertex -0.47552800178527832 -0.5 0.15450899302959442
  endloop
 endfacet
 facet normal -0.98768816492376821 0 -0.15643557418157511
  outer loop
   vertex -0.5 0.5 -2.0510300402509785e-10
   vertex -0.47552800178527832 -0.5 -0.15450899302959442
   vertex -0.5 -0.5 -2.0510300402509785e-10
  endloop
 endfacet
 facet normal -0.8910083594623841 0 -0.45398689779348367
  outer loop
   vertex -0.47552800178527832 0.5 -0.15450899302959442
   vertex -0.40450900793075562 -0.5 -0.29389300942420959
   vertex -0.47552800178527832 -0.5 -0.15450899302959442
  endloop
 endfacet
 facet normal -0.70710678118654757 0 -0.70710678118654757
  outer loop
   vertex -0.40450900793075562 0.5 -0.29389300942420959
   vertex -0.29389300942420959 -0.5 -0.40450900793075562
   vertex -0.40450900793075562 -0.5 -0.29389300942420959
  endloop
 endfacet
 facet normal -0.45398689779348367 0 -0.8910083594623841
  outer loop
   vertex -0.29389300942420959 0.5 -0.40450900793075562
   vertex -0.15450899302959442 -0.5 -0.47552800178527832
   vertex -0.29389300942420959 -0.5 -0.40450900793075562
  endloop
 endfacet
 facet normal -0.15643557367512825 0 -0.98768816500398215
  outer loop
   vertex -0.15450899302959442 0.5 -0.47552800178527832
   vertex 3.0765501257690175e-10 -0.5 -0.5
   vertex -0.15450899302959442 -0.5 -0.47552800178527832
  endloop
 endfacet
 facet normal 0.15643557428286495 0 -0.9876881649077256
  outer loop
   vertex 3.0765501257690175e-10 0.5 -0.5
   vertex 0.15450899302959442 -0.5 -0.47552800178527832
   vertex 3.0765501257690175e-10 -0.5 -0.5
  endloop
 endfacet
 facet normal 0.45398689779348367 0 -0.8910083594623841
  outer loop
   vertex 0.15450899302959442 0.5 -0.47552800178527832
   vertex 0.29389300942420959 -0.5 -0.40450900793075562
   vertex 0.15450899302959442 -0.5 -0.47552800178527832
  endloop
 endfacet
 facet normal 0.70710678118654757 0 -0.70710678118654757
  outer loop
   vertex 0.29389300942420959 0.5 -0.40450900793075562
   vertex 0.40450900793075562 -0.5 -0.29389300942420959
   vertex 0.29389300942420959 -0.5 -0.40450900793075562
  endloop
 endfacet
 facet normal 0.8910083594623841 0 -0.45398689779348367
  outer loop
   vertex 0.40450900793075562 0.5 -0.29389300942420959
   vertex 0.47552800178527832 -0.5 -0.15450899302959442
   vertex 0.40450900793075562 -0.5 -0.29389300942420959
  endloop
 endfacet
 facet normal 0.98768816495585376 0 -0.15643557397899657
  outer loop
   vertex 0.47552800178527832 0.5 -0.15450899302959442
   vertex 0.5 -0.5 0
   vertex 0.47552800178527832 -0.5 -0.15450899302959442
  endloop
 endfacet
 facet normal 0 1 0
  outer loop
   vertex 0.5 0.5 0
   vertex 0.40450900793075562 0.5 0.29389300942420959
   vertex 0.47552800178527832 0.5 0.15450899302959442
  endloop
 endfacet
 facet normal 0 -1 0
  outer loop
   vertex 0.47552800178527832 -0.5 -0.15450899302959442
   vertex 0.29389300942420959 -0.5 -0.40450900793075562
   vertex 0.40450900793075562 -0.5 -0.29389300942420959
  endloop
 endfacet
endsolid
