solid Visualization Toolkit generated SLA File
 facet normal -0.044659669070614257 0.99112647283453315 -0.12519516286614504
  outer loop
   vertex 0.050186999142169952 -0.0030380000825971365 0.024057000875473022
   vertex 0.049118001013994217 -0.0029740000609308481 0.024945000186562538
   vertex 0.050528999418020248 -0.0028699999675154686 0.025265000760555267
  endloop
 endfacet
 facet normal -0.22405061541678573 0.91494983229830029 -0.33566073066218488
  outer loop
   vertex 0.050186999142169952 -0.0030380000825971365 0.024057000875473022
   vertex 0.049596000462770462 -0.0033279999624937773 0.023661000654101372
   vertex 0.049118001013994217 -0.0029740000609308481 0.024945000186562538
  endloop
 endfacet
 facet normal 0.96119369165714219 0.021125949621761741 -0.27506432224316796
  outer loop
   vertex 0.050186999142169952 -0.0030380000825971365 0.024057000875473022
   vertex 0.050528999418020248 -0.0028699999675154686 0.025265000760555267
   vertex 0.050654001533985138 -0.0031540000345557928 0.025679999962449074
  endloop
 endfacet
 facet normal 0.52596819916741244 -0.8321935990685001 -0.17553138503984381
  outer loop
   vertex 0.049596000462770462 -0.0033279999624937773 0.023661000654101372
   vertex 0.050186999142169952 -0.0030380000825971365 0.024057000875473022
   vertex 0.04827599972486496 -0.0041840001940727234 0.023763999342918396
  endloop
 endfacet
 facet normal 0.5263108094619392 -0.82386913470334644 -0.21032494080987549
  outer loop
   vertex 0.04827599972486496 -0.0041840001940727234 0.023763999342918396
   vertex 0.050186999142169952 -0.0030380000825971365 0.024057000875473022
   vertex 0.050654001533985138 -0.0031540000345557928 0.025679999962449074
  endloop
 endfacet
 facet normal 0.0205081223105214 0.92072861104741621 -0.38966426795126136
  outer loop
   vertex 0.050528999418020248 -0.0028699999675154686 0.025265000760555267
   vertex 0.049118001013994217 -0.0029740000609308481 0.024945000186562538
   vertex 0.048555999994277954 -0.0025369999930262566 0.025947999209165573
  endloop
 endfacet
 facet normal 0.16654382783152338 0.98603398942472498 0.00035370946448518649
  outer loop
   vertex 0.050528999418020248 -0.0028699999675154686 0.025265000760555267
   vertex 0.048555999994277954 -0.0025369999930262566 0.025947999209165573
   vertex 0.050650998950004578 -0.0028909998945891857 0.026363000273704529
  endloop
 endfacet
 facet normal 0.95658662988440846 0.27336633011922701 -0.10105874075771741
  outer loop
   vertex 0.050528999418020248 -0.0028699999675154686 0.025265000760555267
   vertex 0.050650998950004578 -0.0028909998945891857 0.026363000273704529
   vertex 0.050654001533985138 -0.0031540000345557928 0.025679999962449074
  endloop
 endfacet
 facet normal 0.25281164499469494 0.68463693715138607 -0.68363626033369929
  outer loop
   vertex 0.046360000967979431 -0.0030280000064522028 0.023871000856161118
   vertex 0.044215001165866852 -0.0015050000511109829 0.024602999910712242
   vertex 0.049118001013994217 -0.0029740000609308481 0.024945000186562538
  endloop
 endfacet
 facet normal -0.52016745627188432 0.75382008283802282 -0.40147366058773243
  outer loop
   vertex 0.04827599972486496 -0.0041840001940727234 0.023763999342918396
   vertex 0.049118001013994217 -0.0029740000609308481 0.024945000186562538
   vertex 0.049596000462770462 -0.0033279999624937773 0.023661000654101372
  endloop
 endfacet
 facet normal 0.2939528597010998 0.92557121069103387 -0.23855743587966202
  outer loop
   vertex 0.049118001013994217 -0.0029740000609308481 0.024945000186562538
   vertex 0.044215001165866852 -0.0015050000511109829 0.024602999910712242
   vertex 0.048555999994277954 -0.0025369999930262566 0.025947999209165573
  endloop
 endfacet
 facet normal 0.31102434278428315 0.4759613360784361 -0.82263276421136722
  outer loop
   vertex 0.047706998884677887 -0.0042849997989833355 0.023653000593185425
   vertex 0.046360000967979431 -0.0030280000064522028 0.023871000856161118
   vertex 0.049118001013994217 -0.0029740000609308481 0.024945000186562538
  endloop
 endfacet
 facet normal 0.017973659460912061 0.69193311246149058 -0.72173784398834007
  outer loop
   vertex 0.049118001013994217 -0.0029740000609308481 0.024945000186562538
   vertex 0.04827599972486496 -0.0041840001940727234 0.023763999342918396
   vertex 0.047706998884677887 -0.0042849997989833355 0.023653000593185425
  endloop
 endfacet
 facet normal 0.67197229117432233 -0.43061715055717931 -0.60251316130018873
  outer loop
   vertex 0.050654001533985138 -0.0031540000345557928 0.025679999962449074
   vertex 0.048340000212192535 -0.0046480000019073486 0.024166999384760857
   vertex 0.04827599972486496 -0.0041840001940727234 0.023763999342918396
  endloop
 endfacet
 facet normal 0.99387718166966499 -0.1015748093004117 0.043482247779397715
  outer loop
   vertex 0.050650998950004578 -0.0028909998945891857 0.026363000273704529
   vertex 0.050491001456975937 -0.0035429999697953463 0.02849699929356575
   vertex 0.050654001533985138 -0.0031540000345557928 0.025679999962449074
  endloop
 endfacet
 facet normal 0.48612666079958444 -0.86664601046131373 0.11227449492798636
  outer loop
   vertex 0.048340000212192535 -0.0046480000019073486 0.024166999384760857
   vertex 0.050654001533985138 -0.0031540000345557928 0.025679999962449074
   vertex 0.048184998333454132 -0.0045230002142488956 0.02580299973487854
  endloop
 endfacet
 facet normal 0.47928942008506947 -0.8727387189728264 -0.092783512544999266
  outer loop
   vertex 0.048184998333454132 -0.0045230002142488956 0.02580299973487854
   vertex 0.050654001533985138 -0.0031540000345557928 0.025679999962449074
   vertex 0.050491001456975937 -0.0035429999697953463 0.02849699929356575
  endloop
 endfacet
 facet normal 0.2547212211030111 -0.61384041067502548 -0.74720616281057739
  outer loop
   vertex 0.048340000212192535 -0.0046480000019073486 0.024166999384760857
   vertex 0.047706998884677887 -0.0042849997989833355 0.023653000593185425
   vertex 0.04827599972486496 -0.0041840001940727234 0.023763999342918396
  endloop
 endfacet
 facet normal 0.25364766695758961 0.96407086895295313 -0.078931746992382965
  outer loop
   vertex 0.044215001165866852 -0.0015050000511109829 0.024602999910712242
   vertex 0.047726999968290329 -0.0022940000053495169 0.026251999661326408
   vertex 0.048555999994277954 -0.0025369999930262566 0.025947999209165573
  endloop
 endfacet
 facet normal 0.38059108431278976 0.85369363840691226 0.35546813962039292
  outer loop
   vertex 0.047726999968290329 -0.0022940000053495169 0.026251999661326408
   vertex 0.048709999769926071 -0.0034630000591278076 0.028007000684738159
   vertex 0.048555999994277954 -0.0025369999930262566 0.025947999209165573
  endloop
 endfacet
 facet normal -0.39438955006928039 0.82669453025482187 0.40128921794998429
  outer loop
   vertex 0.048709999769926071 -0.0034630000591278076 0.028007000684738159
   vertex 0.050209999084472656 -0.003160000080242753 0.028857000172138214
   vertex 0.048555999994277954 -0.0025369999930262566 0.025947999209165573
  endloop
 endfacet
 facet normal 0.13997453425173284 0.98150238269855827 0.13061471019017368
  outer loop
   vertex 0.048555999994277954 -0.0025369999930262566 0.025947999209165573
   vertex 0.050209999084472656 -0.003160000080242753 0.028857000172138214
   vertex 0.050650998950004578 -0.0028909998945891857 0.026363000273704529
  endloop
 endfacet
 facet normal 0.87055763558427468 0.44855061368645843 0.20231596597258159
  outer loop
   vertex 0.050650998950004578 -0.0028909998945891857 0.026363000273704529
   vertex 0.050209999084472656 -0.003160000080242753 0.028857000172138214
   vertex 0.050491001456975937 -0.0035429999697953463 0.02849699929356575
  endloop
 endfacet
 facet normal 0.57825680346747033 0.81584938401982021 -0.0029752038692276018
  outer loop
   vertex 0.044215001165866852 -0.0015050000511109829 0.024602999910712242
   vertex 0.046360000967979431 -0.0030280000064522028 0.023871000856161118
   vertex 0.044307999312877655 -0.0015790000325068831 0.02238599956035614
  endloop
 endfacet
 facet normal 0.67881261361382939 0.25593301807369834 -0.68826719074676956
  outer loop
   vertex 0.046360000967979431 -0.0030280000064522028 0.023871000856161118
   vertex 0.045579001307487488 -0.0034709998872131109 0.022935999557375908
   vertex 0.044307999312877655 -0.0015790000325068831 0.02238599956035614
  endloop
 endfacet
 facet normal 0.71938135695826788 0.15892265722898077 -0.67619084013328745
  outer loop
   vertex 0.045579001307487488 -0.0034709998872131109 0.022935999557375908
   vertex 0.046360000967979431 -0.0030280000064522028 0.023871000856161118
   vertex 0.046050999313592911 -0.004246000200510025 0.023256000131368637
  endloop
 endfacet
 facet normal 0.22305967849454622 0.39368898430262955 -0.89176979286622704
  outer loop
   vertex 0.046360000967979431 -0.0030280000064522028 0.023871000856161118
   vertex 0.047706998884677887 -0.0042849997989833355 0.023653000593185425
   vertex 0.046050999313592911 -0.004246000200510025 0.023256000131368637
  endloop
 endfacet
 facet normal -0.1993178206764514 0.95934287673378871 0.19983405921145922
  outer loop
   vertex 0.044608999043703079 -0.0021069999784231186 0.027885999530553818
   vertex 0.044215001165866852 -0.0015050000511109829 0.024602999910712242
   vertex 0.043340001255273819 -0.0017069999594241381 0.024700000882148743
  endloop
 endfacet
 facet normal 0.1433620260200158 0.97634999898574515 0.16182709592639899
  outer loop
   vertex 0.044215001165866852 -0.0015050000511109829 0.024602999910712242
   vertex 0.044608999043703079 -0.0021069999784231186 0.027885999530553818
   vertex 0.047726999968290329 -0.0022940000053495169 0.026251999661326408
  endloop
 endfacet
 facet normal -0.23214508592864663 0.96982765975720264 -0.074451121207467066
  outer loop
   vertex 0.043563999235630035 -0.0017659999430179596 0.023233000189065933
   vertex 0.043340001255273819 -0.0017069999594241381 0.024700000882148743
   vertex 0.044215001165866852 -0.0015050000511109829 0.024602999910712242
  endloop
 endfacet
 facet normal -0.29044634012528381 0.95587502770075727 -0.044089170165752263
  outer loop
   vertex 0.043563999235630035 -0.0017659999430179596 0.023233000189065933
   vertex 0.044215001165866852 -0.0015050000511109829 0.024602999910712242
   vertex 0.044307999312877655 -0.0015790000325068831 0.02238599956035614
  endloop
 endfacet
 facet normal 0.19542653717050595 -0.46908494483043428 -0.86125941684429386
  outer loop
   vertex 0.045527998358011246 -0.004765000194311142 0.023420000448822975
   vertex 0.046050999313592911 -0.004246000200510025 0.023256000131368637
   vertex 0.047706998884677887 -0.0042849997989833355 0.023653000593185425
  endloop
 endfacet
 facet normal 0.23212995659794744 -0.75771463508614612 -0.6099050868996776
  outer loop
   vertex 0.047706998884677887 -0.0042849997989833355 0.023653000593185425
   vertex 0.046659000217914581 -0.0048250001855194569 0.023925000801682472
   vertex 0.045527998358011246 -0.004765000194311142 0.023420000448822975
  endloop
 endfacet
 facet normal 0.49877882886078073 -0.74427833361933726 0.44415024708435158
  outer loop
   vertex 0.043703999370336533 -0.0056469999253749847 0.025865999981760979
   vertex 0.046659000217914581 -0.0048250001855194569 0.023925000801682472
   vertex 0.047706998884677887 -0.0042849997989833355 0.023653000593185425
  endloop
 endfacet
 facet normal -0.50813505998277675 -0.86109653766542715 0.017649748919276655
  outer loop
   vertex 0.048340000212192535 -0.0046480000019073486 0.024166999384760857
   vertex 0.048184998333454132 -0.0045230002142488956 0.02580299973487854
   vertex 0.047706998884677887 -0.0042849997989833355 0.023653000593185425
  endloop
 endfacet
 facet normal 0.23810071917665951 -0.9581373392583683 -0.15899964354190235
  outer loop
   vertex 0.048184998333454132 -0.0045230002142488956 0.02580299973487854
   vertex 0.043703999370336533 -0.0056469999253749847 0.025865999981760979
   vertex 0.047706998884677887 -0.0042849997989833355 0.023653000593185425
  endloop
 endfacet
 facet normal 0.87092565677848799 0.23159500753127232 0.43341925759194072
  outer loop
   vertex 0.050209999084472656 -0.003160000080242753 0.028857000172138214
   vertex 0.049922000616788864 -0.0037070000544190407 0.029727999120950699
   vertex 0.050491001456975937 -0.0035429999697953463 0.02849699929356575
  endloop
 endfacet
 facet normal 0.50061645630778084 -0.85779773379408053 -0.11647408111498216
  outer loop
   vertex 0.048184998333454132 -0.0045230002142488956 0.02580299973487854
   vertex 0.050491001456975937 -0.0035429999697953463 0.02849699929356575
   vertex 0.048043001443147659 -0.0049899998120963573 0.028632000088691711
  endloop
 endfacet
 facet normal 0.50827240961656284 -0.86109792678327934 -0.013019912139147443
  outer loop
   vertex 0.050491001456975937 -0.0035429999697953463 0.02849699929356575
   vertex 0.048813998699188232 -0.004550000187009573 0.029629999771714211
   vertex 0.048043001443147659 -0.0049899998120963573 0.028632000088691711
  endloop
 endfacet
 facet normal 0.59476310182441594 -0.78232116236491434 0.18501473353278891
  outer loop
   vertex 0.049359999597072601 -0.0040850001387298107 0.029841000214219093
   vertex 0.048813998699188232 -0.004550000187009573 0.029629999771714211
   vertex 0.050491001456975937 -0.0035429999697953463 0.02849699929356575
  endloop
 endfacet
 facet normal 0.57274887244043582 -0.80444465544503208 0.1575675266167906
  outer loop
   vertex 0.050491001456975937 -0.0035429999697953463 0.02849699929356575
   vertex 0.049922000616788864 -0.0037070000544190407 0.029727999120950699
   vertex 0.049359999597072601 -0.0040850001387298107 0.029841000214219093
  endloop
 endfacet
 facet normal 0.24162265395228594 -0.96746891691119541 -0.07498258402944219
  outer loop
   vertex 0.045676998794078827 -0.0052749998867511749 0.027424000203609467
   vertex 0.043703999370336533 -0.0056469999253749847 0.025865999981760979
   vertex 0.048184998333454132 -0.0045230002142488956 0.02580299973487854
  endloop
 endfacet
 facet normal 0.34604313901500278 -0.93595924814383724 0.065072511513435807
  outer loop
   vertex 0.048184998333454132 -0.0045230002142488956 0.02580299973487854
   vertex 0.04721200093626976 -0.0047140000388026237 0.028230000287294388
   vertex 0.046250000596046448 -0.0051020001992583275 0.027765000239014626
  endloop
 endfacet
 facet normal 0.28815757518391838 -0.95758166400329414 0.0016026942337291985
  outer loop
   vertex 0.048184998333454132 -0.0045230002142488956 0.02580299973487854
   vertex 0.046250000596046448 -0.0051020001992583275 0.027765000239014626
   vertex 0.045676998794078827 -0.0052749998867511749 0.027424000203609467
  endloop
 endfacet
 facet normal -0.23567427564177534 -0.95688541331531551 -0.16978793121156263
  outer loop
   vertex 0.04721200093626976 -0.0047140000388026237 0.028230000287294388
   vertex 0.048184998333454132 -0.0045230002142488956 0.02580299973487854
   vertex 0.048043001443147659 -0.0049899998120963573 0.028632000088691711
  endloop
 endfacet
 facet normal 0.1331425744743539 0.85764829450139102 0.49670157821492411
  outer loop
   vertex 0.04628400132060051 -0.0028860000893473625 0.027660999447107315
   vertex 0.048709999769926071 -0.0034630000591278076 0.028007000684738159
   vertex 0.047726999968290329 -0.0022940000053495169 0.026251999661326408
  endloop
 endfacet
 facet normal 0.38663598717406678 0.63938332053524749 0.66460633674623948
  outer loop
   vertex 0.047726999968290329 -0.0022940000053495169 0.026251999661326408
   vertex 0.044608999043703079 -0.0021069999784231186 0.027885999530553818
   vertex 0.04628400132060051 -0.0028860000893473625 0.027660999447107315
  endloop
 endfacet
 facet normal -0.02992090059474635 0.41851494996430572 0.90771690320494414
  outer loop
   vertex 0.048709999769926071 -0.0034630000591278076 0.028007000684738159
   vertex 0.04628400132060051 -0.0028860000893473625 0.027660999447107315
   vertex 0.047267001122236252 -0.0037310000043362379 0.028083000332117081
  endloop
 endfacet
 facet normal -0.39096995203664048 0.83213278996305728 0.39331605163375361
  outer loop
   vertex 0.049922000616788864 -0.0037070000544190407 0.029727999120950699
   vertex 0.050209999084472656 -0.003160000080242753 0.028857000172138214
   vertex 0.048709999769926071 -0.0034630000591278076 0.028007000684738159
  endloop
 endfacet
 facet normal -0.051105054391074059 0.51740474942511416 0.85421343860186383
  outer loop
   vertex 0.047610998153686523 -0.0044350000098347664 0.028529999777674675
   vertex 0.048709999769926071 -0.0034630000591278076 0.028007000684738159
   vertex 0.047267001122236252 -0.0037310000043362379 0.028083000332117081
  endloop
 endfacet
 facet normal -0.44479417752626976 0.7883650674109296 0.42501607043133022
  outer loop
   vertex 0.049922000616788864 -0.0037070000544190407 0.029727999120950699
   vertex 0.048709999769926071 -0.0034630000591278076 0.028007000684738159
   vertex 0.049359999597072601 -0.0040850001387298107 0.029841000214219093
  endloop
 endfacet
 facet normal -0.54327412273716125 0.71752953825549726 0.43589515860470462
  outer loop
   vertex 0.048709999769926071 -0.0034630000591278076 0.028007000684738159
   vertex 0.04817499965429306 -0.0046080001629889011 0.029224999248981476
   vertex 0.049359999597072601 -0.0040850001387298107 0.029841000214219093
  endloop
 endfacet
 facet normal -0.41282932844892289 0.74709284445047497 0.52098390315182475
  outer loop
   vertex 0.047610998153686523 -0.0044350000098347664 0.028529999777674675
   vertex 0.04817499965429306 -0.0046080001629889011 0.029224999248981476
   vertex 0.048709999769926071 -0.0034630000591278076 0.028007000684738159
  endloop
 endfacet
 facet normal -0.56191044493368669 0.7603775561709174 -0.32570327592145859
  outer loop
   vertex 0.044307999312877655 -0.0015790000325068831 0.02238599956035614
   vertex 0.043944001197814941 -0.0023680001031607389 0.021172000095248222
   vertex 0.043563999235630035 -0.0017659999430179596 0.023233000189065933
  endloop
 endfacet
 facet normal 0.784355363792273 0.38568025663707894 -0.4858368068916229
  outer loop
   vertex 0.043944001197814941 -0.0023680001031607389 0.021172000095248222
   vertex 0.044307999312877655 -0.0015790000325068831 0.02238599956035614
   vertex 0.045579001307487488 -0.0034709998872131109 0.022935999557375908
  endloop
 endfacet
 facet normal 0.76934193118975724 0.14564012714775992 -0.62201442610087387
  outer loop
   vertex 0.043944001197814941 -0.0023680001031607389 0.021172000095248222
   vertex 0.045579001307487488 -0.0034709998872131109 0.022935999557375908
   vertex 0.043887000530958176 -0.003519000019878149 0.0208320003002882
  endloop
 endfacet
 facet normal 0.75607964138513528 -0.25636990104937696 -0.60217775591502709
  outer loop
   vertex 0.044966001063585281 -0.0043440000154078007 0.022538000717759132
   vertex 0.043887000530958176 -0.003519000019878149 0.0208320003002882
   vertex 0.045579001307487488 -0.0034709998872131109 0.022935999557375908
  endloop
 endfacet
 facet normal 0.5523326811575836 -0.0078044787884004986 -0.83358724764485004
  outer loop
   vertex 0.044966001063585281 -0.0043440000154078007 0.022538000717759132
   vertex 0.045579001307487488 -0.0034709998872131109 0.022935999557375908
   vertex 0.046050999313592911 -0.004246000200510025 0.023256000131368637
  endloop
 endfacet
 facet normal 0.45829100383045335 -0.6525193083927181 -0.60347983229165525
  outer loop
   vertex 0.045527998358011246 -0.004765000194311142 0.023420000448822975
   vertex 0.044966001063585281 -0.0043440000154078007 0.022538000717759132
   vertex 0.046050999313592911 -0.004246000200510025 0.023256000131368637
  endloop
 endfacet
 facet normal -0.042262615233339781 0.98910498851370177 0.14101486819108358
  outer loop
   vertex 0.043340001255273819 -0.0017069999594241381 0.024700000882148743
   vertex 0.043501000851392746 -0.0022529999259859324 0.028578000143170357
   vertex 0.044608999043703079 -0.0021069999784231186 0.027885999530553818
  endloop
 endfacet
 facet normal 0.35596203476789207 0.54642539101515808 0.75809651223167718
  outer loop
   vertex 0.044608999043703079 -0.0021069999784231186 0.027885999530553818
   vertex 0.044863998889923096 -0.0031429999507963657 0.028512999415397644
   vertex 0.04628400132060051 -0.0028860000893473625 0.027660999447107315
  endloop
 endfacet
 facet normal 0.47436180736026473 0.53832276293617654 0.69655543829810429
  outer loop
   vertex 0.044608999043703079 -0.0021069999784231186 0.027885999530553818
   vertex 0.043487999588251114 -0.0033370000310242176 0.029600000008940697
   vertex 0.044863998889923096 -0.0031429999507963657 0.028512999415397644
  endloop
 endfacet
 facet normal 0.34346007610943552 0.64207754775455128 0.68539886109359893
  outer loop
   vertex 0.044608999043703079 -0.0021069999784231186 0.027885999530553818
   vertex 0.043501000851392746 -0.0022529999259859324 0.028578000143170357
   vertex 0.043487999588251114 -0.0033370000310242176 0.029600000008940697
  endloop
 endfacet
 facet normal -0.99703408273437477 0.058787219160651154 0.049669917750905422
  outer loop
   vertex 0.043340001255273819 -0.0017069999594241381 0.024700000882148743
   vertex 0.043487999588251114 -0.0033370000310242176 0.029600000008940697
   vertex 0.043501000851392746 -0.0022529999259859324 0.028578000143170357
  endloop
 endfacet
 facet normal -0.9710942813555602 0.2161636493191641 0.10123820144367167
  outer loop
   vertex 0.043487999588251114 -0.0033370000310242176 0.029600000008940697
   vertex 0.043340001255273819 -0.0017069999594241381 0.024700000882148743
   vertex 0.042961999773979187 -0.0049530002288520336 0.028005000203847885
  endloop
 endfacet
 facet normal -0.98440055842858187 0.085537525043236029 -0.15374938170599015
  outer loop
   vertex 0.043170999735593796 -0.0050180000253021717 0.023940000683069229
   vertex 0.043340001255273819 -0.0017069999594241381 0.024700000882148743
   vertex 0.043563999235630035 -0.0017659999430179596 0.023233000189065933
  endloop
 endfacet
 facet normal -0.99579442237655025 0.087129808699524677 -0.028317217372769481
  outer loop
   vertex 0.043028999119997025 -0.005185999907553196 0.024932000786066055
   vertex 0.042961999773979187 -0.0049530002288520336 0.028005000203847885
   vertex 0.043340001255273819 -0.0017069999594241381 0.024700000882148743
  endloop
 endfacet
 facet normal -0.98855726228894525 0.079836280493952028 -0.1279871379970528
  outer loop
   vertex 0.043028999119997025 -0.005185999907553196 0.024932000786066055
   vertex 0.043340001255273819 -0.0017069999594241381 0.024700000882148743
   vertex 0.043170999735593796 -0.0050180000253021717 0.023940000683069229
  endloop
 endfacet
 facet normal -0.97662868843597295 0.074166704459331503 -0.20173176466157611
  outer loop
   vertex 0.043170999735593796 -0.0050180000253021717 0.023940000683069229
   vertex 0.043563999235630035 -0.0017659999430179596 0.023233000189065933
   vertex 0.043944001197814941 -0.0023680001031607389 0.021172000095248222
  endloop
 endfacet
 facet normal 0.27086197278167229 -0.79018546278154811 -0.54976424593595696
  outer loop
   vertex 0.043336998671293259 -0.0048850001767277718 0.022513000294566154
   vertex 0.044966001063585281 -0.0043440000154078007 0.022538000717759132
   vertex 0.045527998358011246 -0.004765000194311142 0.023420000448822975
  endloop
 endfacet
 facet normal 0.077336715655629454 -0.95490642186625518 -0.28665791091505899
  outer loop
   vertex 0.043703999370336533 -0.0056469999253749847 0.025865999981760979
   vertex 0.045527998358011246 -0.004765000194311142 0.023420000448822975
   vertex 0.046659000217914581 -0.0048250001855194569 0.023925000801682472
  endloop
 endfacet
 facet normal 0.14974872265255063 -0.96047220025598312 -0.23466672665582608
  outer loop
   vertex 0.043336998671293259 -0.0048850001767277718 0.022513000294566154
   vertex 0.045527998358011246 -0.004765000194311142 0.023420000448822975
   vertex 0.043703999370336533 -0.0056469999253749847 0.025865999981760979
  endloop
 endfacet
 facet normal -0.5056373271618243 -0.85160677450446476 -0.13819115383680641
  outer loop
   vertex 0.043336998671293259 -0.0048850001767277718 0.022513000294566154
   vertex 0.043703999370336533 -0.0056469999253749847 0.025865999981760979
   vertex 0.043170999735593796 -0.0050180000253021717 0.023940000683069229
  endloop
 endfacet
 facet normal -0.33646362063599983 -0.91868315595479555 -0.20691421157922116
  outer loop
   vertex 0.043012000620365143 -0.005384999793022871 0.025828000158071518
   vertex 0.043170999735593796 -0.0050180000253021717 0.023940000683069229
   vertex 0.043703999370336533 -0.0056469999253749847 0.025865999981760979
  endloop
 endfacet
 facet normal -0.35430054089866048 -0.93512041677173108 0.0045752437728088721
  outer loop
   vertex 0.043703999370336533 -0.0056469999253749847 0.025865999981760979
   vertex 0.043115001171827316 -0.0054139997810125351 0.027876999229192734
   vertex 0.043012000620365143 -0.005384999793022871 0.025828000158071518
  endloop
 endfacet
 facet normal -0.14260778599450416 -0.98711297677742416 0.072601587113219998
  outer loop
   vertex 0.043703999370336533 -0.0056469999253749847 0.025865999981760979
   vertex 0.043985001742839813 -0.0054959999397397041 0.028471000492572784
   vertex 0.043115001171827316 -0.0054139997810125351 0.027876999229192734
  endloop
 endfacet
 facet normal 0.15407251935989927 -0.98722484173997593 0.04060505669953815
  outer loop
   vertex 0.045676998794078827 -0.0052749998867511749 0.027424000203609467
   vertex 0.043985001742839813 -0.0054959999397397041 0.028471000492572784
   vertex 0.043703999370336533 -0.0056469999253749847 0.025865999981760979
  endloop
 endfacet
 facet normal -0.48309981016410242 -0.22029894891178278 0.84739774989539118
  outer loop
   vertex 0.04721200093626976 -0.0047140000388026237 0.028230000287294388
   vertex 0.048043001443147659 -0.0049899998120963573 0.028632000088691711
   vertex 0.047610998153686523 -0.0044350000098347664 0.028529999777674675
  endloop
 endfacet
 facet normal -0.73443889145489738 -0.48429452528620742 0.47545591540784121
  outer loop
   vertex 0.047610998153686523 -0.0044350000098347664 0.028529999777674675
   vertex 0.048043001443147659 -0.0049899998120963573 0.028632000088691711
   vertex 0.04817499965429306 -0.0046080001629889011 0.029224999248981476
  endloop
 endfacet
 facet normal -0.2865408424046782 -0.77512023937567354 0.56310119884814314
  outer loop
   vertex 0.048043001443147659 -0.0049899998120963573 0.028632000088691711
   vertex 0.048813998699188232 -0.004550000187009573 0.029629999771714211
   vertex 0.04817499965429306 -0.0046080001629889011 0.029224999248981476
  endloop
 endfacet
 facet normal -0.53353116187590055 0.26148729017531303 0.80434376754228865
  outer loop
   vertex 0.048813998699188232 -0.004550000187009573 0.029629999771714211
   vertex 0.049359999597072601 -0.0040850001387298107 0.029841000214219093
   vertex 0.04817499965429306 -0.0046080001629889011 0.029224999248981476
  endloop
 endfacet
 facet normal -0.2557823861577585 -0.61805179167375324 0.74336219552806604
  outer loop
   vertex 0.045749001204967499 -0.0046060001477599144 0.028005000203847885
   vertex 0.045676998794078827 -0.0052749998867511749 0.027424000203609467
   vertex 0.046250000596046448 -0.0051020001992583275 0.027765000239014626
  endloop
 endfacet
 facet normal 0.32725282183493715 -0.63943114559825398 0.69572508984510217
  outer loop
   vertex 0.045676998794078827 -0.0052749998867511749 0.027424000203609467
   vertex 0.045749001204967499 -0.0046060001477599144 0.028005000203847885
   vertex 0.043276000767946243 -0.0046029998920857906 0.029170999303460121
  endloop
 endfacet
 facet normal 0.5340086256475417 -0.21664344763949284 0.81725173865149892
  outer loop
   vertex 0.043276000767946243 -0.0046029998920857906 0.029170999303460121
   vertex 0.043985001742839813 -0.0054959999397397041 0.028471000492572784
   vertex 0.045676998794078827 -0.0052749998867511749 0.027424000203609467
  endloop
 endfacet
 facet normal -0.16615415421808497 -0.56042557937783644 0.81136672782108166
  outer loop
   vertex 0.045749001204967499 -0.0046060001477599144 0.028005000203847885
   vertex 0.046250000596046448 -0.0051020001992583275 0.027765000239014626
   vertex 0.04721200093626976 -0.0047140000388026237 0.028230000287294388
  endloop
 endfacet
 facet normal -0.31419608587943215 -0.44969468123752021 0.83609539723929194
  outer loop
   vertex 0.046633001416921616 -0.0044080000370740891 0.02817700058221817
   vertex 0.04721200093626976 -0.0047140000388026237 0.028230000287294388
   vertex 0.047610998153686523 -0.0044350000098347664 0.028529999777674675
  endloop
 endfacet
 facet normal -0.16028685824445305 -0.13390585651976841 0.97794547121188191
  outer loop
   vertex 0.04721200093626976 -0.0047140000388026237 0.028230000287294388
   vertex 0.046633001416921616 -0.0044080000370740891 0.02817700058221817
   vertex 0.045749001204967499 -0.0046060001477599144 0.028005000203847885
  endloop
 endfacet
 facet normal -0.0014534915973653786 0.44543651830023118 0.89531234523307235
  outer loop
   vertex 0.04628400132060051 -0.0028860000893473625 0.027660999447107315
   vertex 0.045607998967170715 -0.0038550000172108412 0.028141999617218971
   vertex 0.047267001122236252 -0.0037310000043362379 0.028083000332117081
  endloop
 endfacet
 facet normal 0.50273938565312726 0.076679831216360739 0.86103037902140633
  outer loop
   vertex 0.044863998889923096 -0.0031429999507963657 0.028512999415397644
   vertex 0.045607998967170715 -0.0038550000172108412 0.028141999617218971
   vertex 0.04628400132060051 -0.0028860000893473625 0.027660999447107315
  endloop
 endfacet
 facet normal -0.30102726494772897 0.40197660699606519 0.86475279310680497
  outer loop
   vertex 0.046633001416921616 -0.0044080000370740891 0.02817700058221817
   vertex 0.047610998153686523 -0.0044350000098347664 0.028529999777674675
   vertex 0.047267001122236252 -0.0037310000043362379 0.028083000332117081
  endloop
 endfacet
 facet normal 0.02689816408359029 0.11272300385120747 0.99326230834140317
  outer loop
   vertex 0.047267001122236252 -0.0037310000043362379 0.028083000332117081
   vertex 0.045607998967170715 -0.0038550000172108412 0.028141999617218971
   vertex 0.046633001416921616 -0.0044080000370740891 0.02817700058221817
  endloop
 endfacet
 facet normal -0.94199336135196765 0.33124867857038204 0.054063112324367349
  outer loop
   vertex 0.043471001088619232 -0.0037100000772625208 0.021152999252080917
   vertex 0.043170999735593796 -0.0050180000253021717 0.023940000683069229
   vertex 0.043944001197814941 -0.0023680001031607389 0.021172000095248222
  endloop
 endfacet
 facet normal -0.66002914114572853 0.24269942381396306 -0.71095606229836883
  outer loop
   vertex 0.043471001088619232 -0.0037100000772625208 0.021152999252080917
   vertex 0.043944001197814941 -0.0023680001031607389 0.021172000095248222
   vertex 0.043887000530958176 -0.003519000019878149 0.0208320003002882
  endloop
 endfacet
 facet normal -0.35187225007345213 -0.53013929526106995 -0.77145203820350494
  outer loop
   vertex 0.043471001088619232 -0.0037100000772625208 0.021152999252080917
   vertex 0.043887000530958176 -0.003519000019878149 0.0208320003002882
   vertex 0.043372999876737595 -0.004162999801337719 0.021508999168872833
  endloop
 endfacet
 facet normal 0.26586984340762959 -0.791185008004746 -0.55076266165648224
  outer loop
   vertex 0.043372999876737595 -0.004162999801337719 0.021508999168872833
   vertex 0.043887000530958176 -0.003519000019878149 0.0208320003002882
   vertex 0.044966001063585281 -0.0043440000154078007 0.022538000717759132
  endloop
 endfacet
 facet normal 0.2696808181757257 -0.78634942528731022 -0.55581187254176956
  outer loop
   vertex 0.043336998671293259 -0.0048850001767277718 0.022513000294566154
   vertex 0.043372999876737595 -0.004162999801337719 0.021508999168872833
   vertex 0.044966001063585281 -0.0043440000154078007 0.022538000717759132
  endloop
 endfacet
 facet normal 0.61145539530724269 -0.34388189315983453 0.71264826043881702
  outer loop
   vertex 0.043487999588251114 -0.0033370000310242176 0.029600000008940697
   vertex 0.043276000767946243 -0.0046029998920857906 0.029170999303460121
   vertex 0.044863998889923096 -0.0031429999507963657 0.028512999415397644
  endloop
 endfacet
 facet normal 0.41429907363993845 -0.040847291842611204 0.90922372182549971
  outer loop
   vertex 0.043276000767946243 -0.0046029998920857906 0.029170999303460121
   vertex 0.045607998967170715 -0.0038550000172108412 0.028141999617218971
   vertex 0.044863998889923096 -0.0031429999507963657 0.028512999415397644
  endloop
 endfacet
 facet normal -0.95810217779463669 0.28514515875986529 0.027063912152271
  outer loop
   vertex 0.043487999588251114 -0.0033370000310242176 0.029600000008940697
   vertex 0.042961999773979187 -0.0049530002288520336 0.028005000203847885
   vertex 0.043242998421192169 -0.0041399998590350151 0.02938699908554554
  endloop
 endfacet
 facet normal 0.44111830481371145 -0.35340778834688624 0.82493489215455051
  outer loop
   vertex 0.043487999588251114 -0.0033370000310242176 0.029600000008940697
   vertex 0.043242998421192169 -0.0041399998590350151 0.02938699908554554
   vertex 0.043276000767946243 -0.0046029998920857906 0.029170999303460121
  endloop
 endfacet
 facet normal -0.92580857665493099 -0.21198993659885615 0.31295166747116654
  outer loop
   vertex 0.043276000767946243 -0.0046029998920857906 0.029170999303460121
   vertex 0.043242998421192169 -0.0041399998590350151 0.02938699908554554
   vertex 0.042961999773979187 -0.0049530002288520336 0.028005000203847885
  endloop
 endfacet
 facet normal -0.85787324943692633 -0.38058610320312419 0.34526468969355983
  outer loop
   vertex 0.043276000767946243 -0.0046029998920857906 0.029170999303460121
   vertex 0.042961999773979187 -0.0049530002288520336 0.028005000203847885
   vertex 0.043115001171827316 -0.0054139997810125351 0.027876999229192734
  endloop
 endfacet
 facet normal -0.93769210127524538 -0.33589875230375876 0.088913167791912828
  outer loop
   vertex 0.043115001171827316 -0.0054139997810125351 0.027876999229192734
   vertex 0.042961999773979187 -0.0049530002288520336 0.028005000203847885
   vertex 0.042915001511573792 -0.0052620000205934048 0.026342000812292099
  endloop
 endfacet
 facet normal -0.90895629220046747 0.41373695607336791 -0.05118779198522095
  outer loop
   vertex 0.042961999773979187 -0.0049530002288520336 0.028005000203847885
   vertex 0.043028999119997025 -0.005185999907553196 0.024932000786066055
   vertex 0.042915001511573792 -0.0052620000205934048 0.026342000812292099
  endloop
 endfacet
 facet normal -0.98390153937331115 -0.1264920893234921 -0.12624385988002035
  outer loop
   vertex 0.043170999735593796 -0.0050180000253021717 0.023940000683069229
   vertex 0.043372999876737595 -0.004162999801337719 0.021508999168872833
   vertex 0.043336998671293259 -0.0048850001767277718 0.022513000294566154
  endloop
 endfacet
 facet normal -0.97885889643940382 0.20431702788497305 -0.0094769709128853328
  outer loop
   vertex 0.043471001088619232 -0.0037100000772625208 0.021152999252080917
   vertex 0.043372999876737595 -0.004162999801337719 0.021508999168872833
   vertex 0.043170999735593796 -0.0050180000253021717 0.023940000683069229
  endloop
 endfacet
 facet normal -0.38246169366407301 -0.90043027899016392 -0.20723987443854561
  outer loop
   vertex 0.043012000620365143 -0.005384999793022871 0.025828000158071518
   vertex 0.043028999119997025 -0.005185999907553196 0.024932000786066055
   vertex 0.043170999735593796 -0.0050180000253021717 0.023940000683069229
  endloop
 endfacet
 facet normal -0.934343719169762 -0.3437337768651314 -0.094068619050398525
  outer loop
   vertex 0.043012000620365143 -0.005384999793022871 0.025828000158071518
   vertex 0.042915001511573792 -0.0052620000205934048 0.026342000812292099
   vertex 0.043028999119997025 -0.005185999907553196 0.024932000786066055
  endloop
 endfacet
 facet normal -0.72730757219136744 -0.68578605958449868 0.026854718629416425
  outer loop
   vertex 0.042915001511573792 -0.0052620000205934048 0.026342000812292099
   vertex 0.043012000620365143 -0.005384999793022871 0.025828000158071518
   vertex 0.043115001171827316 -0.0054139997810125351 0.027876999229192734
  endloop
 endfacet
 facet normal -0.42386459710153795 -0.74278786842902367 0.51827115088399256
  outer loop
   vertex 0.043985001742839813 -0.0054959999397397041 0.028471000492572784
   vertex 0.043276000767946243 -0.0046029998920857906 0.029170999303460121
   vertex 0.043115001171827316 -0.0054139997810125351 0.027876999229192734
  endloop
 endfacet
 facet normal 0.42485120909525143 -0.084649991438934147 0.90129674862372122
  outer loop
   vertex 0.045749001204967499 -0.0046060001477599144 0.028005000203847885
   vertex 0.045607998967170715 -0.0038550000172108412 0.028141999617218971
   vertex 0.043276000767946243 -0.0046029998920857906 0.029170999303460121
  endloop
 endfacet
 facet normal -0.14287478280972654 -0.20351790513493567 0.96859034618695272
  outer loop
   vertex 0.045749001204967499 -0.0046060001477599144 0.028005000203847885
   vertex 0.046633001416921616 -0.0044080000370740891 0.02817700058221817
   vertex 0.045607998967170715 -0.0038550000172108412 0.028141999617218971
  endloop
 endfacet
endsolid
