solid Visualization Toolkit generated SLA File
 facet normal 0.30153050680085142 0.5192717463116211 -0.79964755170693869
  outer loop
   vertex 0.065737999975681305 -0.0030459999106824398 0.010777999646961689
   vertex 0.067071996629238129 -0.00445199990645051 0.010367999784648418
   vertex 0.065861999988555908 -0.0042360001243650913 0.010052000172436237
  endloop
 endfacet
 facet normal 0.3364356310356863 0.54346952055818498 -0.76905913062252651
  outer loop
   vertex 0.065737999975681305 -0.0030459999106824398 0.010777999646961689
   vertex 0.068125002086162567 -0.0034099998883903027 0.01156499981880188
   vertex 0.067071996629238129 -0.00445199990645051 0.010367999784648418
  endloop
 endfacet
 facet normal 0.56395258427693684 0.47212045387689155 -0.67753948941625708
  outer loop
   vertex 0.065861999988555908 -0.0042360001243650913 0.010052000172436237
   vertex 0.065098002552986145 -0.0027020000852644444 0.010484999977052212
   vertex 0.065737999975681305 -0.0030459999106824398 0.010777999646961689
  endloop
 endfacet
 facet normal 0.21881790657037506 0.94959295104390107 -0.22448151614753067
  outer loop
   vertex 0.068125002086162567 -0.0034099998883903027 0.01156499981880188
   vertex 0.065737999975681305 -0.0030459999106824398 0.010777999646961689
   vertex 0.067383997142314911 -0.0030350000597536564 0.012428999878466129
  endloop
 endfacet
 facet normal 0.41629898948716426 0.80619576433492668 -0.42040877835790885
  outer loop
   vertex 0.064219996333122253 -0.0021979999728500843 0.01090100035071373
   vertex 0.067383997142314911 -0.0030350000597536564 0.012428999878466129
   vertex 0.065737999975681305 -0.0030459999106824398 0.010777999646961689
  endloop
 endfacet
 facet normal 0.48528846103106849 0.87368285154748626 -0.034254700435852013
  outer loop
   vertex 0.065737999975681305 -0.0030459999106824398 0.010777999646961689
   vertex 0.065098002552986145 -0.0027020000852644444 0.010484999977052212
   vertex 0.064219996333122253 -0.0021979999728500843 0.01090100035071373
  endloop
 endfacet
 facet normal 0.2639788390081696 0.071590882315107573 -0.96186793174803542
  outer loop
   vertex 0.067071996629238129 -0.00445199990645051 0.010367999784648418
   vertex 0.065435998141765594 -0.0044789998792111874 0.0099170003086328506
   vertex 0.065861999988555908 -0.0042360001243650913 0.010052000172436237
  endloop
 endfacet
 facet normal -0.3440068363800734 0.83684298822700443 -0.42585573799007465
  outer loop
   vertex 0.068125002086162567 -0.0034099998883903027 0.01156499981880188
   vertex 0.068819001317024231 -0.0037140001077204943 0.010406999848783016
   vertex 0.067071996629238129 -0.00445199990645051 0.010367999784648418
  endloop
 endfacet
 facet normal 0.19636433675327802 -0.33470240175071586 -0.92163731994410247
  outer loop
   vertex 0.066417001187801361 -0.0048170001246035099 0.010360999964177608
   vertex 0.064925998449325562 -0.0049290000461041927 0.010084000416100025
   vertex 0.067071996629238129 -0.00445199990645051 0.010367999784648418
  endloop
 endfacet
 facet normal 0.22935524458424528 -0.55633442944438516 -0.79867901837752775
  outer loop
   vertex 0.065435998141765594 -0.0044789998792111874 0.0099170003086328506
   vertex 0.067071996629238129 -0.00445199990645051 0.010367999784648418
   vertex 0.064925998449325562 -0.0049290000461041927 0.010084000416100025
  endloop
 endfacet
 facet normal -0.30966980842004616 0.76303687931325581 -0.56734410242901068
  outer loop
   vertex 0.067071996629238129 -0.00445199990645051 0.010367999784648418
   vertex 0.068819001317024231 -0.0037140001077204943 0.010406999848783016
   vertex 0.068425998091697693 -0.0039880000986158848 0.010253000073134899
  endloop
 endfacet
 facet normal -0.34060933242705271 0.47714883172462752 -0.81013225775019004
  outer loop
   vertex 0.068181000649929047 -0.0043310001492500305 0.0099729998037219048
   vertex 0.06736300140619278 -0.0047740000300109386 0.010056000202894211
   vertex 0.067071996629238129 -0.00445199990645051 0.010367999784648418
  endloop
 endfacet
 facet normal -0.30052914958673832 0.72272405080308721 -0.6223762339931117
  outer loop
   vertex 0.068425998091697693 -0.0039880000986158848 0.010253000073134899
   vertex 0.068181000649929047 -0.0043310001492500305 0.0099729998037219048
   vertex 0.067071996629238129 -0.00445199990645051 0.010367999784648418
  endloop
 endfacet
 facet normal -0.19636433675327802 0.33470240175071586 0.92163731994410247
  outer loop
   vertex 0.067071996629238129 -0.00445199990645051 0.010367999784648418
   vertex 0.064925998449325562 -0.0049290000461041927 0.010084000416100025
   vertex 0.066417001187801361 -0.0048170001246035099 0.010360999964177608
  endloop
 endfacet
 facet normal 0.23013322662630459 -0.96620276923924875 -0.11615036253483232
  outer loop
   vertex 0.064925998449325562 -0.0049290000461041927 0.010084000416100025
   vertex 0.067071996629238129 -0.00445199990645051 0.010367999784648418
   vertex 0.064700998365879059 -0.0053710001520812511 0.013314999639987946
  endloop
 endfacet
 facet normal -0.77394169081333009 -0.62907926882969456 -0.072619093561548317
  outer loop
   vertex 0.067071996629238129 -0.00445199990645051 0.010367999784648418
   vertex 0.06736300140619278 -0.0047740000300109386 0.010056000202894211
   vertex 0.067437998950481415 -0.0049540000036358833 0.010816000401973724
  endloop
 endfacet
 facet normal -0.79979830542942643 -0.59997187081934078 -0.018879217615097588
  outer loop
   vertex 0.067264996469020844 -0.0047820000909268856 0.01267900038510561
   vertex 0.067071996629238129 -0.00445199990645051 0.010367999784648418
   vertex 0.067437998950481415 -0.0049540000036358833 0.010816000401973724
  endloop
 endfacet
 facet normal 0.18476620145227965 -0.97063655463175802 -0.15403288484439251
  outer loop
   vertex 0.067264996469020844 -0.0047820000909268856 0.01267900038510561
   vertex 0.064700998365879059 -0.0053710001520812511 0.013314999639987946
   vertex 0.067071996629238129 -0.00445199990645051 0.010367999784648418
  endloop
 endfacet
 facet normal 0.76989056898994401 0.49658315993353519 -0.40084121176691062
  outer loop
   vertex 0.065861999988555908 -0.0042360001243650913 0.010052000172436237
   vertex 0.064822003245353699 -0.0029360000044107437 0.0096650002524256706
   vertex 0.065098002552986145 -0.0027020000852644444 0.010484999977052212
  endloop
 endfacet
 facet normal 0.37267180919372433 0.021966467187890991 -0.92770318364849846
  outer loop
   vertex 0.065250001847743988 -0.0039889998733997345 0.0098120002076029778
   vertex 0.064822003245353699 -0.0029360000044107437 0.0096650002524256706
   vertex 0.065861999988555908 -0.0042360001243650913 0.010052000172436237
  endloop
 endfacet
 facet normal 0.33863701837607857 -0.072484824185068408 -0.93812095171583243
  outer loop
   vertex 0.065435998141765594 -0.0044789998792111874 0.0099170003086328506
   vertex 0.065250001847743988 -0.0039889998733997345 0.0098120002076029778
   vertex 0.065861999988555908 -0.0042360001243650913 0.010052000172436237
  endloop
 endfacet
 facet normal 0.0068201729243374731 0.99938431024136831 -0.034416357806523579
  outer loop
   vertex 0.069479003548622131 -0.0033919999841600657 0.012356000021100044
   vertex 0.069403000175952911 -0.0034429999068379402 0.010859999805688858
   vertex 0.068125002086162567 -0.0034099998883903027 0.01156499981880188
  endloop
 endfacet
 facet normal -0.16450072887070225 0.92536821377251455 -0.34151600129492254
  outer loop
   vertex 0.069403000175952911 -0.0034429999068379402 0.010859999805688858
   vertex 0.068819001317024231 -0.0037140001077204943 0.010406999848783016
   vertex 0.068125002086162567 -0.0034099998883903027 0.01156499981880188
  endloop
 endfacet
 facet normal 0.15167577010525313 0.9475882758946339 -0.28119551943445609
  outer loop
   vertex 0.067383997142314911 -0.0030350000597536564 0.012428999878466129
   vertex 0.069479003548622131 -0.0033919999841600657 0.012356000021100044
   vertex 0.068125002086162567 -0.0034099998883903027 0.01156499981880188
  endloop
 endfacet
 facet normal 0.80148382114633709 0.44695270245703522 -0.39731217726998924
  outer loop
   vertex 0.065098002552986145 -0.0027020000852644444 0.010484999977052212
   vertex 0.064822003245353699 -0.0029360000044107437 0.0096650002524256706
   vertex 0.064310997724533081 -0.0022330000065267086 0.009425000287592411
  endloop
 endfacet
 facet normal 0.50151463527925577 0.86508656714027465 0.010406822481916489
  outer loop
   vertex 0.065098002552986145 -0.0027020000852644444 0.010484999977052212
   vertex 0.064310997724533081 -0.0022330000065267086 0.009425000287592411
   vertex 0.064219996333122253 -0.0021979999728500843 0.01090100035071373
  endloop
 endfacet
 facet normal 0.31483679153802002 0.60784947094822905 0.72896969440574388
  outer loop
   vertex 0.06650099903345108 -0.004927000030875206 0.014387999661266804
   vertex 0.067383997142314911 -0.0030350000597536564 0.012428999878466129
   vertex 0.065573997795581818 -0.0032440000213682652 0.013384999707341194
  endloop
 endfacet
 facet normal 0.1378833286292262 0.96074134215303386 0.2407576814228615
  outer loop
   vertex 0.067383997142314911 -0.0030350000597536564 0.012428999878466129
   vertex 0.064219996333122253 -0.0021979999728500843 0.01090100035071373
   vertex 0.063473999500274658 -0.0028540000785142183 0.013945999555289745
  endloop
 endfacet
 facet normal 0.30780062141512449 0.62314476084711701 0.71899192240612297
  outer loop
   vertex 0.063473999500274658 -0.0028540000785142183 0.013945999555289745
   vertex 0.065573997795581818 -0.0032440000213682652 0.013384999707341194
   vertex 0.067383997142314911 -0.0030350000597536564 0.012428999878466129
  endloop
 endfacet
 facet normal -0.13047621331966661 0.92912669536093473 0.34597621554874181
  outer loop
   vertex 0.068070001900196075 -0.0038989998865872622 0.01500799972563982
   vertex 0.068783000111579895 -0.0036220001056790352 0.014533000066876411
   vertex 0.067383997142314911 -0.0030350000597536564 0.012428999878466129
  endloop
 endfacet
 facet normal 0.016995597926150966 0.96594455234049892 0.25819037831578007
  outer loop
   vertex 0.068783000111579895 -0.0036220001056790352 0.014533000066876411
   vertex 0.069061003625392914 -0.003473999910056591 0.013961000367999077
   vertex 0.067383997142314911 -0.0030350000597536564 0.012428999878466129
  endloop
 endfacet
 facet normal 0.17043088974049772 0.9808280198673559 0.094497128344431025
  outer loop
   vertex 0.069479003548622131 -0.0033919999841600657 0.012356000021100044
   vertex 0.067383997142314911 -0.0030350000597536564 0.012428999878466129
   vertex 0.069061003625392914 -0.003473999910056591 0.013961000367999077
  endloop
 endfacet
 facet normal -0.60754058658845622 0.69032350836274847 0.39287133956233161
  outer loop
   vertex 0.068070001900196075 -0.0038989998865872622 0.01500799972563982
   vertex 0.067383997142314911 -0.0030350000597536564 0.012428999878466129
   vertex 0.06650099903345108 -0.004927000030875206 0.014387999661266804
  endloop
 endfacet
 facet normal 0.16048338997710496 0.95607444844622902 0.24528907552048751
  outer loop
   vertex 0.064219996333122253 -0.0021979999728500843 0.01090100035071373
   vertex 0.062470998615026474 -0.0023769999388605356 0.012742999941110611
   vertex 0.063473999500274658 -0.0028540000785142183 0.013945999555289745
  endloop
 endfacet
 facet normal -0.073102355101927585 0.99694609298157588 0.027468770764685017
  outer loop
   vertex 0.062601998448371887 -0.002334000077098608 0.011531000025570393
   vertex 0.062470998615026474 -0.0023769999388605356 0.012742999941110611
   vertex 0.064219996333122253 -0.0021979999728500843 0.01090100035071373
  endloop
 endfacet
 facet normal -0.095107222411930842 0.99503105607676701 -0.029458677632254782
  outer loop
   vertex 0.062601998448371887 -0.002334000077098608 0.011531000025570393
   vertex 0.064219996333122253 -0.0021979999728500843 0.01090100035071373
   vertex 0.064310997724533081 -0.0022330000065267086 0.009425000287592411
  endloop
 endfacet
 facet normal 0.5588016391360533 0.034559081322600722 -0.82858095440155877
  outer loop
   vertex 0.065250001847743988 -0.0039889998733997345 0.0098120002076029778
   vertex 0.065435998141765594 -0.0044789998792111874 0.0099170003086328506
   vertex 0.063539996743202209 -0.0041990000754594803 0.0086500002071261406
  endloop
 endfacet
 facet normal 0.35343698054699213 -0.65016469163921642 -0.67258321011418931
  outer loop
   vertex 0.063539996743202209 -0.0041990000754594803 0.0086500002071261406
   vertex 0.065435998141765594 -0.0044789998792111874 0.0099170003086328506
   vertex 0.064925998449325562 -0.0049290000461041927 0.010084000416100025
  endloop
 endfacet
 facet normal -0.23457287543200164 0.70977516684692299 -0.66422494581202318
  outer loop
   vertex 0.068181000649929047 -0.0043310001492500305 0.0099729998037219048
   vertex 0.068425998091697693 -0.0039880000986158848 0.010253000073134899
   vertex 0.068819001317024231 -0.0037140001077204943 0.010406999848783016
  endloop
 endfacet
 facet normal 0.6470227920069368 -0.142119705729636 -0.74910846735761139
  outer loop
   vertex 0.068819001317024231 -0.0037140001077204943 0.010406999848783016
   vertex 0.069403000175952911 -0.0034429999068379402 0.010859999805688858
   vertex 0.068181000649929047 -0.0043310001492500305 0.0099729998037219048
  endloop
 endfacet
 facet normal 0.1608246653615443 -0.97931747623154786 -0.12277095649549631
  outer loop
   vertex 0.064700998365879059 -0.0053710001520812511 0.013314999639987946
   vertex 0.062946997582912445 -0.0052129998803138733 0.0097570000216364861
   vertex 0.064925998449325562 -0.0049290000461041927 0.010084000416100025
  endloop
 endfacet
 facet normal 0.20976435800715501 -0.77437133110754519 -0.59694887190493495
  outer loop
   vertex 0.064925998449325562 -0.0049290000461041927 0.010084000416100025
   vertex 0.062946997582912445 -0.0052129998803138733 0.0097570000216364861
   vertex 0.063539996743202209 -0.0041990000754594803 0.0086500002071261406
  endloop
 endfacet
 facet normal 0.42541441832784682 -0.8458309583714968 -0.32185798504796337
  outer loop
   vertex 0.068181000649929047 -0.0043310001492500305 0.0099729998037219048
   vertex 0.069224998354911804 -0.0040699997916817665 0.010666999965906143
   vertex 0.06736300140619278 -0.0047740000300109386 0.010056000202894211
  endloop
 endfacet
 facet normal 0.53156247551047886 0.10770106344686986 -0.84014392550418704
  outer loop
   vertex 0.069403000175952911 -0.0034429999068379402 0.010859999805688858
   vertex 0.069224998354911804 -0.0040699997916817665 0.010666999965906143
   vertex 0.068181000649929047 -0.0043310001492500305 0.0099729998037219048
  endloop
 endfacet
 facet normal 0.41280251215366315 -0.87632632833047674 -0.24828663321743752
  outer loop
   vertex 0.06736300140619278 -0.0047740000300109386 0.010056000202894211
   vertex 0.069224998354911804 -0.0040699997916817665 0.010666999965906143
   vertex 0.067437998950481415 -0.0049540000036358833 0.010816000401973724
  endloop
 endfacet
 facet normal 0.13499466798972937 -0.9085843056998717 0.3952859712287104
  outer loop
   vertex 0.064700998365879059 -0.0053710001520812511 0.013314999639987946
   vertex 0.062879003584384918 -0.0052109998650848866 0.014305000193417072
   vertex 0.062518000602722168 -0.0056340000592172146 0.01345600001513958
  endloop
 endfacet
 facet normal 0.11268431750952727 -0.98864115496402494 -0.099453060781510713
  outer loop
   vertex 0.062946997582912445 -0.0052129998803138733 0.0097570000216364861
   vertex 0.064700998365879059 -0.0053710001520812511 0.013314999639987946
   vertex 0.062518000602722168 -0.0056340000592172146 0.01345600001513958
  endloop
 endfacet
 facet normal -0.35855079142899637 -0.096971863678062598 0.92845990092219033
  outer loop
   vertex 0.065594002604484558 -0.0051589999347925186 0.013682000339031219
   vertex 0.064700998365879059 -0.0053710001520812511 0.013314999639987946
   vertex 0.066246002912521362 -0.005224000196903944 0.013926999643445015
  endloop
 endfacet
 facet normal 0.17155742904564836 -0.9643545351219468 -0.2014655780250843
  outer loop
   vertex 0.064700998365879059 -0.0053710001520812511 0.013314999639987946
   vertex 0.067264996469020844 -0.0047820000909268856 0.01267900038510561
   vertex 0.066246002912521362 -0.005224000196903944 0.013926999643445015
  endloop
 endfacet
 facet normal 0.405797340637639 -0.47953760901600934 0.77805668165669584
  outer loop
   vertex 0.064856000244617462 -0.0043150000274181366 0.013884999789297581
   vertex 0.063761003315448761 -0.0049089998938143253 0.014089999720454216
   vertex 0.064700998365879059 -0.0053710001520812511 0.013314999639987946
  endloop
 endfacet
 facet normal 0.36795075354528395 -0.53137537042767846 0.76305468917260788
  outer loop
   vertex 0.062879003584384918 -0.0052109998650848866 0.014305000193417072
   vertex 0.064700998365879059 -0.0053710001520812511 0.013314999639987946
   vertex 0.063761003315448761 -0.0049089998938143253 0.014089999720454216
  endloop
 endfacet
 facet normal -0.25384731905122193 -0.43031769590828528 0.8662495132458613
  outer loop
   vertex 0.064700998365879059 -0.0053710001520812511 0.013314999639987946
   vertex 0.065594002604484558 -0.0051589999347925186 0.013682000339031219
   vertex 0.064856000244617462 -0.0043150000274181366 0.013884999789297581
  endloop
 endfacet
 facet normal 0.44825570302972573 -0.88535179292224164 0.12336542250849046
  outer loop
   vertex 0.067264996469020844 -0.0047820000909268856 0.01267900038510561
   vertex 0.067437998950481415 -0.0049540000036358833 0.010816000401973724
   vertex 0.069224998354911804 -0.0040699997916817665 0.010666999965906143
  endloop
 endfacet
 facet normal 0.4001120852852279 -0.91406451086410478 0.066305272697361112
  outer loop
   vertex 0.067905999720096588 -0.0043109999969601631 0.015304000116884708
   vertex 0.067264996469020844 -0.0047820000909268856 0.01267900038510561
   vertex 0.069224998354911804 -0.0040699997916817665 0.010666999965906143
  endloop
 endfacet
 facet normal 0.35596263904290643 -0.93105796326626844 0.080135314587748266
  outer loop
   vertex 0.06650099903345108 -0.004927000030875206 0.014387999661266804
   vertex 0.067264996469020844 -0.0047820000909268856 0.01267900038510561
   vertex 0.067905999720096588 -0.0043109999969601631 0.015304000116884708
  endloop
 endfacet
 facet normal 0.57820014664772501 -0.7931793349903058 0.19118350598544212
  outer loop
   vertex 0.066246002912521362 -0.005224000196903944 0.013926999643445015
   vertex 0.067264996469020844 -0.0047820000909268856 0.01267900038510561
   vertex 0.06650099903345108 -0.004927000030875206 0.014387999661266804
  endloop
 endfacet
 facet normal 0.53031817650384105 0.09799082946268188 -0.84211663622734367
  outer loop
   vertex 0.064822003245353699 -0.0029360000044107437 0.0096650002524256706
   vertex 0.065250001847743988 -0.0039889998733997345 0.0098120002076029778
   vertex 0.064310997724533081 -0.0022330000065267086 0.009425000287592411
  endloop
 endfacet
 facet normal 0.54919006767886847 0.1111328753354678 -0.82827516779301746
  outer loop
   vertex 0.063539996743202209 -0.0041990000754594803 0.0086500002071261406
   vertex 0.064310997724533081 -0.0022330000065267086 0.009425000287592411
   vertex 0.065250001847743988 -0.0039889998733997345 0.0098120002076029778
  endloop
 endfacet
 facet normal 0.92121156941683613 -0.38760948660602251 -0.033587650492186739
  outer loop
   vertex 0.069403000175952911 -0.0034429999068379402 0.010859999805688858
   vertex 0.069479003548622131 -0.0033919999841600657 0.012356000021100044
   vertex 0.069380998611450195 -0.0036899999249726534 0.013106999918818474
  endloop
 endfacet
 facet normal 0.90555744427689244 0.34035422703307661 0.25322858301427942
  outer loop
   vertex 0.069380998611450195 -0.0036899999249726534 0.013106999918818474
   vertex 0.069479003548622131 -0.0033919999841600657 0.012356000021100044
   vertex 0.069061003625392914 -0.003473999910056591 0.013961000367999077
  endloop
 endfacet
 facet normal 0.96339047308629244 -0.26735846509158606 -0.01995613966780161
  outer loop
   vertex 0.069403000175952911 -0.0034429999068379402 0.010859999805688858
   vertex 0.069380998611450195 -0.0036899999249726534 0.013106999918818474
   vertex 0.069224998354911804 -0.0040699997916817665 0.010666999965906143
  endloop
 endfacet
 facet normal 0.29740340422774564 0.67397555320894642 -0.67624564237445761
  outer loop
   vertex 0.063656002283096313 -0.0028460000175982714 0.0085260001942515373
   vertex 0.063747003674507141 -0.0022440000902861357 0.0091660004109144211
   vertex 0.064310997724533081 -0.0022330000065267086 0.009425000287592411
  endloop
 endfacet
 facet normal 0.83965651702785793 -0.12052637329859053 -0.52957561004273535
  outer loop
   vertex 0.063656002283096313 -0.0028460000175982714 0.0085260001942515373
   vertex 0.064310997724533081 -0.0022330000065267086 0.009425000287592411
   vertex 0.063539996743202209 -0.0041990000754594803 0.0086500002071261406
  endloop
 endfacet
 facet normal -0.030231277294397899 0.99926920302728717 0.023390804910462141
  outer loop
   vertex 0.064310997724533081 -0.0022330000065267086 0.009425000287592411
   vertex 0.063747003674507141 -0.0022440000902861357 0.0091660004109144211
   vertex 0.062601998448371887 -0.002334000077098608 0.011531000025570393
  endloop
 endfacet
 facet normal -0.60283546391761933 0.60970496580876832 0.51463507275676146
  outer loop
   vertex 0.068070001900196075 -0.0038989998865872622 0.01500799972563982
   vertex 0.06650099903345108 -0.004927000030875206 0.014387999661266804
   vertex 0.067905999720096588 -0.0043109999969601631 0.015304000116884708
  endloop
 endfacet
 facet normal -0.55844094884209738 0.041735879557333301 0.82849370728685301
  outer loop
   vertex 0.06650099903345108 -0.004927000030875206 0.014387999661266804
   vertex 0.066927999258041382 -0.0051489998586475849 0.014686999842524529
   vertex 0.067905999720096588 -0.0043109999969601631 0.015304000116884708
  endloop
 endfacet
 facet normal -0.092711285616933398 0.47155941173461791 0.87694716985902665
  outer loop
   vertex 0.064856000244617462 -0.0043150000274181366 0.013884999789297581
   vertex 0.06650099903345108 -0.004927000030875206 0.014387999661266804
   vertex 0.065573997795581818 -0.0032440000213682652 0.013384999707341194
  endloop
 endfacet
 facet normal -0.42391003894090673 -0.54471103039436297 0.72359530972210573
  outer loop
   vertex 0.06650099903345108 -0.004927000030875206 0.014387999661266804
   vertex 0.064856000244617462 -0.0043150000274181366 0.013884999789297581
   vertex 0.065594002604484558 -0.0051589999347925186 0.013682000339031219
  endloop
 endfacet
 facet normal -0.30773990823848879 -0.71325196716124617 0.62973627830861001
  outer loop
   vertex 0.06650099903345108 -0.004927000030875206 0.014387999661266804
   vertex 0.065594002604484558 -0.0051589999347925186 0.013682000339031219
   vertex 0.066246002912521362 -0.005224000196903944 0.013926999643445015
  endloop
 endfacet
 facet normal 0.55844094884209738 -0.041735879557333301 -0.82849370728685301
  outer loop
   vertex 0.06650099903345108 -0.004927000030875206 0.014387999661266804
   vertex 0.067905999720096588 -0.0043109999969601631 0.015304000116884708
   vertex 0.066927999258041382 -0.0051489998586475849 0.014686999842524529
  endloop
 endfacet
 facet normal 0.29159624411176921 0.23713821589794659 0.92668068771322099
  outer loop
   vertex 0.063473999500274658 -0.0028540000785142183 0.013945999555289745
   vertex 0.064856000244617462 -0.0043150000274181366 0.013884999789297581
   vertex 0.065573997795581818 -0.0032440000213682652 0.013384999707341194
  endloop
 endfacet
 facet normal 0.057104126025456711 0.94347551519194706 0.32648594307283557
  outer loop
   vertex 0.062685996294021606 -0.0029249999206513166 0.014289000071585178
   vertex 0.063473999500274658 -0.0028540000785142183 0.013945999555289745
   vertex 0.062470998615026474 -0.0023769999388605356 0.012742999941110611
  endloop
 endfacet
 facet normal 0.27194124571252615 0.60338321796500127 0.74965101958079083
  outer loop
   vertex 0.062685996294021606 -0.0029249999206513166 0.014289000071585178
   vertex 0.062841996550559998 -0.0035780000034719706 0.014758000150322914
   vertex 0.063473999500274658 -0.0028540000785142183 0.013945999555289745
  endloop
 endfacet
 facet normal 0.71241263789946097 0.14757140962410259 0.68606917466293937
  outer loop
   vertex 0.063473999500274658 -0.0028540000785142183 0.013945999555289745
   vertex 0.062841996550559998 -0.0035780000034719706 0.014758000150322914
   vertex 0.063761003315448761 -0.0049089998938143253 0.014089999720454216
  endloop
 endfacet
 facet normal 0.13684392287450375 0.088249662111054852 0.98665380854157847
  outer loop
   vertex 0.064856000244617462 -0.0043150000274181366 0.013884999789297581
   vertex 0.063473999500274658 -0.0028540000785142183 0.013945999555289745
   vertex 0.063761003315448761 -0.0049089998938143253 0.014089999720454216
  endloop
 endfacet
 facet normal 0.70927105631978304 0.20272909514254209 0.67515589507143103
  outer loop
   vertex 0.067905999720096588 -0.0043109999969601631 0.015304000116884708
   vertex 0.068775996565818787 -0.0041510001756250858 0.014341999776661396
   vertex 0.068070001900196075 -0.0038989998865872622 0.01500799972563982
  endloop
 endfacet
 facet normal 0.60499524826357165 -0.27747415456474417 0.74631685169710593
  outer loop
   vertex 0.068783000111579895 -0.0036220001056790352 0.014533000066876411
   vertex 0.068070001900196075 -0.0038989998865872622 0.01500799972563982
   vertex 0.068775996565818787 -0.0041510001756250858 0.014341999776661396
  endloop
 endfacet
 facet normal 0.90093776791898494 -0.19600886731287737 0.3871584459518872
  outer loop
   vertex 0.069380998611450195 -0.0036899999249726534 0.013106999918818474
   vertex 0.069061003625392914 -0.003473999910056591 0.013961000367999077
   vertex 0.068783000111579895 -0.0036220001056790352 0.014533000066876411
  endloop
 endfacet
 facet normal 0.90883185465498839 -0.15226133992751562 0.38838272918327854
  outer loop
   vertex 0.069380998611450195 -0.0036899999249726534 0.013106999918818474
   vertex 0.068783000111579895 -0.0036220001056790352 0.014533000066876411
   vertex 0.068775996565818787 -0.0041510001756250858 0.014341999776661396
  endloop
 endfacet
 facet normal -0.78598667595186256 -0.60899090522873189 -0.10655994826777714
  outer loop
   vertex 0.062685996294021606 -0.0029249999206513166 0.014289000071585178
   vertex 0.062470998615026474 -0.0023769999388605356 0.012742999941110611
   vertex 0.062601998448371887 -0.002334000077098608 0.011531000025570393
  endloop
 endfacet
 facet normal -0.8460512997082924 0.39020096215373051 -0.36323602161158547
  outer loop
   vertex 0.063282996416091919 -0.003490000031888485 0.0087029999122023582
   vertex 0.062601998448371887 -0.002334000077098608 0.011531000025570393
   vertex 0.063656002283096313 -0.0028460000175982714 0.0085260001942515373
  endloop
 endfacet
 facet normal -0.78543589440485251 0.50266354282476011 -0.3611368417861987
  outer loop
   vertex 0.062601998448371887 -0.002334000077098608 0.011531000025570393
   vertex 0.063747003674507141 -0.0022440000902861357 0.0091660004109144211
   vertex 0.063656002283096313 -0.0028460000175982714 0.0085260001942515373
  endloop
 endfacet
 facet normal -0.99242367096574646 -0.12280049610996809 0.0039109413211607155
  outer loop
   vertex 0.062685996294021606 -0.0029249999206513166 0.014289000071585178
   vertex 0.062601998448371887 -0.002334000077098608 0.011531000025570393
   vertex 0.062880001962184906 -0.0046509997919201851 0.0093240002170205116
  endloop
 endfacet
 facet normal -0.94042673649368991 0.16846718861562701 -0.29532416028455005
  outer loop
   vertex 0.062601998448371887 -0.002334000077098608 0.011531000025570393
   vertex 0.063282996416091919 -0.003490000031888485 0.0087029999122023582
   vertex 0.062880001962184906 -0.0046509997919201851 0.0093240002170205116
  endloop
 endfacet
 facet normal -0.34749055103101101 -0.055989998020304403 -0.93601038299040829
  outer loop
   vertex 0.063656002283096313 -0.0028460000175982714 0.0085260001942515373
   vertex 0.063539996743202209 -0.0041990000754594803 0.0086500002071261406
   vertex 0.063282996416091919 -0.003490000031888485 0.0087029999122023582
  endloop
 endfacet
 facet normal -0.33204049970120192 -0.60021674579578044 -0.72765992374494537
  outer loop
   vertex 0.062946997582912445 -0.0052129998803138733 0.0097570000216364861
   vertex 0.062880001962184906 -0.0046509997919201851 0.0093240002170205116
   vertex 0.063539996743202209 -0.0041990000754594803 0.0086500002071261406
  endloop
 endfacet
 facet normal -0.64140954932293892 -0.17669141323246934 -0.74657480169588963
  outer loop
   vertex 0.062880001962184906 -0.0046509997919201851 0.0093240002170205116
   vertex 0.063282996416091919 -0.003490000031888485 0.0087029999122023582
   vertex 0.063539996743202209 -0.0041990000754594803 0.0086500002071261406
  endloop
 endfacet
 facet normal -0.85048130607925798 -0.38088902712843253 -0.36277416807550644
  outer loop
   vertex 0.062946997582912445 -0.0052129998803138733 0.0097570000216364861
   vertex 0.062364000827074051 -0.0054779998026788235 0.011401999741792679
   vertex 0.062880001962184906 -0.0046509997919201851 0.0093240002170205116
  endloop
 endfacet
 facet normal 0.19374193609881601 -0.977031667781743 -0.088730954848394356
  outer loop
   vertex 0.062946997582912445 -0.0052129998803138733 0.0097570000216364861
   vertex 0.062518000602722168 -0.0056340000592172146 0.01345600001513958
   vertex 0.062364000827074051 -0.0054779998026788235 0.011401999741792679
  endloop
 endfacet
 facet normal 0.68911979369134557 -0.72142209223736775 0.068294031764542198
  outer loop
   vertex 0.069224998354911804 -0.0040699997916817665 0.010666999965906143
   vertex 0.069380998611450195 -0.0036899999249726534 0.013106999918818474
   vertex 0.068775996565818787 -0.0041510001756250858 0.014341999776661396
  endloop
 endfacet
 facet normal 0.18139623914076564 -0.98340996894027688 0.00048725195736281713
  outer loop
   vertex 0.067905999720096588 -0.0043109999969601631 0.015304000116884708
   vertex 0.069224998354911804 -0.0040699997916817665 0.010666999965906143
   vertex 0.068775996565818787 -0.0041510001756250858 0.014341999776661396
  endloop
 endfacet
 facet normal 0.30868796691410794 -0.24775257799782779 0.91833022338256121
  outer loop
   vertex 0.062879003584384918 -0.0052109998650848866 0.014305000193417072
   vertex 0.063761003315448761 -0.0049089998938143253 0.014089999720454216
   vertex 0.062841996550559998 -0.0035780000034719706 0.014758000150322914
  endloop
 endfacet
 facet normal -0.0079848892504852335 -0.26746856615877329 0.96353350105776148
  outer loop
   vertex 0.062242999672889709 -0.0042770002037286758 0.014558999799191952
   vertex 0.062879003584384918 -0.0052109998650848866 0.014305000193417072
   vertex 0.062841996550559998 -0.0035780000034719706 0.014758000150322914
  endloop
 endfacet
 facet normal -0.53901644580833274 -0.54230842366233512 0.64448649696717919
  outer loop
   vertex 0.062879003584384918 -0.0052109998650848866 0.014305000193417072
   vertex 0.062242999672889709 -0.0042770002037286758 0.014558999799191952
   vertex 0.062121998518705368 -0.0050730002112686634 0.013787999749183655
  endloop
 endfacet
 facet normal -0.49642536931069298 -0.67410180222129301 0.54694479881131208
  outer loop
   vertex 0.062518000602722168 -0.0056340000592172146 0.01345600001513958
   vertex 0.062879003584384918 -0.0052109998650848866 0.014305000193417072
   vertex 0.062121998518705368 -0.0050730002112686634 0.013787999749183655
  endloop
 endfacet
 facet normal -0.41690950360937562 -0.90816513892243556 -0.037716657409922312
  outer loop
   vertex 0.062518000602722168 -0.0056340000592172146 0.01345600001513958
   vertex 0.06218000128865242 -0.0054540000855922699 0.01285799965262413
   vertex 0.062364000827074051 -0.0054779998026788235 0.011401999741792679
  endloop
 endfacet
 facet normal -0.73137661212881466 -0.6458608200317929 0.21897957068831117
  outer loop
   vertex 0.062518000602722168 -0.0056340000592172146 0.01345600001513958
   vertex 0.062121998518705368 -0.0050730002112686634 0.013787999749183655
   vertex 0.06218000128865242 -0.0054540000855922699 0.01285799965262413
  endloop
 endfacet
 facet normal -0.94864929026129774 0.28235169737033738 -0.14262553445587992
  outer loop
   vertex 0.062685996294021606 -0.0029249999206513166 0.014289000071585178
   vertex 0.062121998518705368 -0.0050730002112686634 0.013787999749183655
   vertex 0.062242999672889709 -0.0042770002037286758 0.014558999799191952
  endloop
 endfacet
 facet normal -0.63348996687207115 0.34580037928047924 0.69217957176003042
  outer loop
   vertex 0.062841996550559998 -0.0035780000034719706 0.014758000150322914
   vertex 0.062685996294021606 -0.0029249999206513166 0.014289000071585178
   vertex 0.062242999672889709 -0.0042770002037286758 0.014558999799191952
  endloop
 endfacet
 facet normal -0.95021391370828823 0.28093537775869581 -0.13479180879696112
  outer loop
   vertex 0.062685996294021606 -0.0029249999206513166 0.014289000071585178
   vertex 0.062880001962184906 -0.0046509997919201851 0.0093240002170205116
   vertex 0.062121998518705368 -0.0050730002112686634 0.013787999749183655
  endloop
 endfacet
 facet normal -0.94378083092239307 -0.150580820062614 -0.29428414808261072
  outer loop
   vertex 0.062192998826503754 -0.0052290000021457672 0.011823000386357307
   vertex 0.062880001962184906 -0.0046509997919201851 0.0093240002170205116
   vertex 0.062364000827074051 -0.0054779998026788235 0.011401999741792679
  endloop
 endfacet
 facet normal -0.7905378752750426 0.60757858432865797 -0.076799294403040286
  outer loop
   vertex 0.062192998826503754 -0.0052290000021457672 0.011823000386357307
   vertex 0.062121998518705368 -0.0050730002112686634 0.013787999749183655
   vertex 0.062880001962184906 -0.0046509997919201851 0.0093240002170205116
  endloop
 endfacet
 facet normal -0.89412833058454644 -0.43512793011772416 -0.10582160874583527
  outer loop
   vertex 0.062364000827074051 -0.0054779998026788235 0.011401999741792679
   vertex 0.06218000128865242 -0.0054540000855922699 0.01285799965262413
   vertex 0.062192998826503754 -0.0052290000021457672 0.011823000386357307
  endloop
 endfacet
 facet normal -0.99641964126292593 -0.079149542708758652 -0.029719495191816429
  outer loop
   vertex 0.062121998518705368 -0.0050730002112686634 0.013787999749183655
   vertex 0.062192998826503754 -0.0052290000021457672 0.011823000386357307
   vertex 0.06218000128865242 -0.0054540000855922699 0.01285799965262413
  endloop
 endfacet
endsolid
