solid Visualization Toolkit generated SLA File
 facet normal 0.089923722200141998 -0.25661159668150541 -0.96232230184810752
  outer loop
   vertex -0.013113999739289284 0.0033110000658780336 -0.0205680001527071
   vertex -8.4999999671708792e-05 0.0090279998257756233 -0.020874999463558197
   vertex -0.014410999603569508 -0.013598999939858913 -0.016179999336600304
  endloop
 endfacet
 facet normal -0.41086307727226778 0.75949225559762779 -0.50434417357751848
  outer loop
   vertex -0.0027840000111609697 0.019900999963283539 -0.012435999698936939
   vertex -0.0048219999298453331 0.015112999826669693 -0.017985999584197998
   vertex -0.015467000193893909 0.015633000060915947 -0.0085310004651546478
  endloop
 endfacet
 facet normal -0.00029901963701850715 0.75722686129444472 -0.65315188977864902
  outer loop
   vertex -0.0027840000111609697 0.019900999963283539 -0.012435999698936939
   vertex 0.0058780000545084476 0.016241999343037605 -0.016682000830769539
   vertex -0.0048219999298453331 0.015112999826669693 -0.017985999584197998
  endloop
 endfacet
 facet normal -0.053161908040978867 -0.17050066163193381 -0.98392242372888084
  outer loop
   vertex -8.4999999671708792e-05 0.0090279998257756233 -0.020874999463558197
   vertex 0.0035560000687837601 -0.019732000306248665 -0.016087999567389488
   vertex -0.014410999603569508 -0.013598999939858913 -0.016179999336600304
  endloop
 endfacet
 facet normal -0.38551707410464597 0.8734244568581403 -0.29750009031234864
  outer loop
   vertex -0.0027840000111609697 0.019900999963283539 -0.012435999698936939
   vertex -0.015467000193893909 0.015633000060915947 -0.0085310004651546478
   vertex -0.0070620002225041389 0.022360000759363174 0.00032699998700991273
  endloop
 endfacet
 facet normal -0.074536255582662636 0.94009331495375226 0.33266936405834113
  outer loop
   vertex 0.0078229997307062149 0.021767999976873398 0.0053349998779594898
   vertex -0.0070620002225041389 0.022360000759363174 0.00032699998700991273
   vertex -0.0055789998732507229 0.016913000494241714 0.016052000224590302
  endloop
 endfacet
 facet normal -0.87523916020579373 0.47159226769001544 -0.10750416502278234
  outer loop
   vertex -0.015467000193893909 0.015633000060915947 -0.0085310004651546478
   vertex -0.023660000413656235 0.00096700002904981375 -0.0061639999039471149
   vertex -0.019054999575018883 0.012640000320971012 0.0075509999878704548
  endloop
 endfacet
 facet normal -0.46741365241766486 0.82078181721327237 0.32839257918786285
  outer loop
   vertex -0.0070620002225041389 0.022360000759363174 0.00032699998700991273
   vertex -0.019054999575018883 0.012640000320971012 0.0075509999878704548
   vertex -0.0055789998732507229 0.016913000494241714 0.016052000224590302
  endloop
 endfacet
 facet normal -0.51074184745424445 0.73997790228460558 0.43769335086279304
  outer loop
   vertex -0.019054999575018883 0.012640000320971012 0.0075509999878704548
   vertex -0.014759000390768051 0.010037999600172043 0.016962999477982521
   vertex -0.0055789998732507229 0.016913000494241714 0.016052000224590302
  endloop
 endfacet
 facet normal -0.88680197152806839 0.13482855950326758 0.44204470682975583
  outer loop
   vertex -0.019054999575018883 0.012640000320971012 0.0075509999878704548
   vertex -0.02322000078856945 -0.0066889999434351921 0.0050909998826682568
   vertex -0.014759000390768051 0.010037999600172043 0.016962999477982521
  endloop
 endfacet
 facet normal -0.28080066013141003 0.48471251938124854 0.82837477196305731
  outer loop
   vertex -0.0055789998732507229 0.016913000494241714 0.016052000224590302
   vertex -0.014759000390768051 0.010037999600172043 0.016962999477982521
   vertex 0.0015979999443516135 0.010356999933719635 0.022321000695228577
  endloop
 endfacet
 facet normal 0.55651055961712526 -0.57419139503758909 -0.60049999075722005
  outer loop
   vertex 0.0035560000687837601 -0.019732000306248665 -0.016087999567389488
   vertex 0.021215999498963356 -0.015083000063896179 -0.0041669998317956924
   vertex 0.015348999761044979 -0.020966999232769012 -0.0039780000224709511
  endloop
 endfacet
 facet normal 0.97246357584337573 0.22928723297817569 0.041736775763430059
  outer loop
   vertex 0.023794999346137047 0.0021470000501722097 -0.0077419998124241829
   vertex 0.020854000002145767 0.012846999801695347 0.002001000102609396
   vertex 0.024599000811576843 -0.0042039998807013035 0.0084149995818734169
  endloop
 endfacet
 facet normal 0.79915986473045253 0.15379204081952402 0.58111231167870692
  outer loop
   vertex 0.024599000811576843 -0.0042039998807013035 0.0084149995818734169
   vertex 0.014600000344216824 0.01001800037920475 0.018402000889182091
   vertex 0.016197999939322472 -0.0046979999169707298 0.02009899914264679
  endloop
 endfacet
 facet normal 0.77167021989630913 -0.33494318392931999 0.54068302661029755
  outer loop
   vertex 0.024599000811576843 -0.0042039998807013035 0.0084149995818734169
   vertex 0.016197999939322472 -0.0046979999169707298 0.02009899914264679
   vertex 0.020208999514579773 -0.015490000136196613 0.0076890001073479652
  endloop
 endfacet
 facet normal 0.19609989021225099 0.77754281278372406 0.59747134437319904
  outer loop
   vertex 0.0078229997307062149 0.021767999976873398 0.0053349998779594898
   vertex -0.0055789998732507229 0.016913000494241714 0.016052000224590302
   vertex 0.014600000344216824 0.01001800037920475 0.018402000889182091
  endloop
 endfacet
 facet normal 0.55830458670143568 0.82886717151837319 -0.035709948855616264
  outer loop
   vertex 0.010502999648451805 0.019402999430894852 -0.0076589998789131641
   vertex 0.0078229997307062149 0.021767999976873398 0.0053349998779594898
   vertex 0.020854000002145767 0.012846999801695347 0.002001000102609396
  endloop
 endfacet
 facet normal 0.70824833790832331 -0.70504731482943239 0.035952408847040013
  outer loop
   vertex 0.021215999498963356 -0.015083000063896179 -0.0041669998317956924
   vertex 0.020208999514579773 -0.015490000136196613 0.0076890001073479652
   vertex 0.015348999761044979 -0.020966999232769012 -0.0039780000224709511
  endloop
 endfacet
 facet normal 0.86011683953087237 0.33395460608020139 0.38558182456288209
  outer loop
   vertex 0.020854000002145767 0.012846999801695347 0.002001000102609396
   vertex 0.014600000344216824 0.01001800037920475 0.018402000889182091
   vertex 0.024599000811576843 -0.0042039998807013035 0.0084149995818734169
  endloop
 endfacet
 facet normal 0.58848970213819629 0.72876954609113209 0.35010686820944026
  outer loop
   vertex 0.020854000002145767 0.012846999801695347 0.002001000102609396
   vertex 0.0078229997307062149 0.021767999976873398 0.0053349998779594898
   vertex 0.014600000344216824 0.01001800037920475 0.018402000889182091
  endloop
 endfacet
 facet normal 0.71467615312718347 0.25469858516036165 -0.65143428438227036
  outer loop
   vertex 0.01322299987077713 0.0083630001172423363 -0.016909999772906303
   vertex 0.015147999860346317 0.014049000106751919 -0.012574999593198299
   vertex 0.023794999346137047 0.0021470000501722097 -0.0077419998124241829
  endloop
 endfacet
 facet normal 0.54746109017665601 -0.24778952006501601 -0.79930388994958379
  outer loop
   vertex 0.01322299987077713 0.0083630001172423363 -0.016909999772906303
   vertex 0.023794999346137047 0.0021470000501722097 -0.0077419998124241829
   vertex 0.021215999498963356 -0.015083000063896179 -0.0041669998317956924
  endloop
 endfacet
 facet normal 0.39712277917806904 0.78344796306054276 -0.47801965172383137
  outer loop
   vertex 0.015147999860346317 0.014049000106751919 -0.012574999593198299
   vertex 0.0058780000545084476 0.016241999343037605 -0.016682000830769539
   vertex 0.010502999648451805 0.019402999430894852 -0.0076589998789131641
  endloop
 endfacet
 facet normal 0.19844241389949294 0.78209626076094019 0.59071655408452672
  outer loop
   vertex 0.014600000344216824 0.01001800037920475 0.018402000889182091
   vertex -0.0055789998732507229 0.016913000494241714 0.016052000224590302
   vertex 0.0015979999443516135 0.010356999933719635 0.022321000695228577
  endloop
 endfacet
 facet normal 0.28908293819266057 0.14058737502003982 0.94692462468291161
  outer loop
   vertex 0.016197999939322472 -0.0046979999169707298 0.02009899914264679
   vertex 0.014600000344216824 0.01001800037920475 0.018402000889182091
   vertex 0.0015979999443516135 0.010356999933719635 0.022321000695228577
  endloop
 endfacet
 facet normal 0.28640731630701372 0.29338946955694162 -0.91208194166911916
  outer loop
   vertex 0.0058780000545084476 0.016241999343037605 -0.016682000830769539
   vertex 0.01322299987077713 0.0083630001172423363 -0.016909999772906303
   vertex -8.4999999671708792e-05 0.0090279998257756233 -0.020874999463558197
  endloop
 endfacet
 facet normal 0.10474977923452396 0.84898869525971354 -0.5179243951307253
  outer loop
   vertex 0.0058780000545084476 0.016241999343037605 -0.016682000830769539
   vertex -0.0027840000111609697 0.019900999963283539 -0.012435999698936939
   vertex 0.0035689999349415302 0.021949000656604767 -0.0077940002083778381
  endloop
 endfacet
 facet normal 0.039401258385262837 0.9992229594878328 0.00100899456619654
  outer loop
   vertex 0.0035689999349415302 0.021949000656604767 -0.0077940002083778381
   vertex -0.0070620002225041389 0.022360000759363174 0.00032699998700991273
   vertex 0.0078229997307062149 0.021767999976873398 0.0053349998779594898
  endloop
 endfacet
 facet normal -0.14038358667936923 0.96241645713326629 -0.23248013168889881
  outer loop
   vertex -0.0027840000111609697 0.019900999963283539 -0.012435999698936939
   vertex -0.0070620002225041389 0.022360000759363174 0.00032699998700991273
   vertex 0.0035689999349415302 0.021949000656604767 -0.0077940002083778381
  endloop
 endfacet
 facet normal -0.96821674597542129 0.18757455818907609 0.1654452112723101
  outer loop
   vertex -0.019054999575018883 0.012640000320971012 0.0075509999878704548
   vertex -0.023660000413656235 0.00096700002904981375 -0.0061639999039471149
   vertex -0.02322000078856945 -0.0066889999434351921 0.0050909998826682568
  endloop
 endfacet
 facet normal 0.82689726411491937 0.48556998299372711 -0.28365948990776391
  outer loop
   vertex 0.015147999860346317 0.014049000106751919 -0.012574999593198299
   vertex 0.020854000002145767 0.012846999801695347 0.002001000102609396
   vertex 0.023794999346137047 0.0021470000501722097 -0.0077419998124241829
  endloop
 endfacet
 facet normal 0.34468428215710734 0.93350342417476428 -0.098813474222038802
  outer loop
   vertex 0.010502999648451805 0.019402999430894852 -0.0076589998789131641
   vertex 0.0035689999349415302 0.021949000656604767 -0.0077940002083778381
   vertex 0.0078229997307062149 0.021767999976873398 0.0053349998779594898
  endloop
 endfacet
 facet normal -0.7959093708492927 -0.094142838540972898 -0.59805133504217778
  outer loop
   vertex -0.013113999739289284 0.0033110000658780336 -0.0205680001527071
   vertex -0.014410999603569508 -0.013598999939858913 -0.016179999336600304
   vertex -0.023660000413656235 0.00096700002904981375 -0.0061639999039471149
  endloop
 endfacet
 facet normal -0.15485838597005361 -0.46672884551113836 -0.87073708147901319
  outer loop
   vertex 0.0035560000687837601 -0.019732000306248665 -0.016087999567389488
   vertex -0.0083659999072551727 -0.019571000710129738 -0.014054000377655029
   vertex -0.014410999603569508 -0.013598999939858913 -0.016179999336600304
  endloop
 endfacet
 facet normal -0.72332685889848469 -0.63908657207497932 0.26147009119496639
  outer loop
   vertex -0.014410999603569508 -0.013598999939858913 -0.016179999336600304
   vertex -0.0083659999072551727 -0.019571000710129738 -0.014054000377655029
   vertex -0.023660000413656235 0.00096700002904981375 -0.0061639999039471149
  endloop
 endfacet
 facet normal 0.58510098590238646 -0.22412589139879546 -0.77937437801146037
  outer loop
   vertex 0.01322299987077713 0.0083630001172423363 -0.016909999772906303
   vertex 0.021215999498963356 -0.015083000063896179 -0.0041669998317956924
   vertex 0.0035560000687837601 -0.019732000306248665 -0.016087999567389488
  endloop
 endfacet
 facet normal 0.97854484373020778 -0.1704766724082751 -0.11570519855920418
  outer loop
   vertex 0.023794999346137047 0.0021470000501722097 -0.0077419998124241829
   vertex 0.024599000811576843 -0.0042039998807013035 0.0084149995818734169
   vertex 0.021215999498963356 -0.015083000063896179 -0.0041669998317956924
  endloop
 endfacet
 facet normal 0.92847644344023428 -0.36542251138517445 0.066316529987065609
  outer loop
   vertex 0.021215999498963356 -0.015083000063896179 -0.0041669998317956924
   vertex 0.024599000811576843 -0.0042039998807013035 0.0084149995818734169
   vertex 0.020208999514579773 -0.015490000136196613 0.0076890001073479652
  endloop
 endfacet
 facet normal -0.1614881594737981 0.31785983956876884 -0.93428405570205564
  outer loop
   vertex -0.0048219999298453331 0.015112999826669693 -0.017985999584197998
   vertex -8.4999999671708792e-05 0.0090279998257756233 -0.020874999463558197
   vertex -0.013113999739289284 0.0033110000658780336 -0.0205680001527071
  endloop
 endfacet
 facet normal -0.7812724824128342 0.35341173077931315 -0.51450311638711954
  outer loop
   vertex -0.015467000193893909 0.015633000060915947 -0.0085310004651546478
   vertex -0.013113999739289284 0.0033110000658780336 -0.0205680001527071
   vertex -0.023660000413656235 0.00096700002904981375 -0.0061639999039471149
  endloop
 endfacet
 facet normal -0.64692031872549471 0.70017997009125588 -0.30206309060047765
  outer loop
   vertex -0.019783999770879745 -0.021301999688148499 0.02870200015604496
   vertex -0.038872998207807541 -0.035551998764276505 0.036552999168634415
   vertex -0.023914000019431114 -0.020013000816106796 0.040534999221563339
  endloop
 endfacet
 facet normal -0.78617456562094101 0.5217442841127562 -0.33122870401943172
  outer loop
   vertex -0.012644000351428986 -0.0066720000468194485 0.034800000488758087
   vertex -0.019783999770879745 -0.021301999688148499 0.02870200015604496
   vertex -0.023914000019431114 -0.020013000816106796 0.040534999221563339
  endloop
 endfacet
 facet normal -0.27712478981930722 -0.17224497475293207 -0.94526901966581267
  outer loop
   vertex -0.012644000351428986 -0.0066720000468194485 0.034800000488758087
   vertex -0.023914000019431114 -0.020013000816106796 0.040534999221563339
   vertex -0.021400000900030136 -0.0064469999633729458 0.03732600063085556
  endloop
 endfacet
 facet normal 0.21171533522403263 0.87920159297893574 -0.42682686857117763
  outer loop
   vertex -0.012644000351428986 -0.0066720000468194485 0.034800000488758087
   vertex -0.0061059999279677868 0.00017800000205170363 0.052152998745441437
   vertex -0.00029600001289509237 -0.0039300001226365566 0.04657299816608429
  endloop
 endfacet
 facet normal 0.65034303057893827 0.16042484528539794 -0.74250778554339636
  outer loop
   vertex -0.021400000900030136 -0.0064469999633729458 0.03732600063085556
   vertex -0.027703000232577324 -0.00052900001173838973 0.033084001392126083
   vertex -0.0061059999279677868 0.00017800000205170363 0.052152998745441437
  endloop
 endfacet
 facet normal 0.031300458055342623 -0.53083430954270883 -0.84689740650083545
  outer loop
   vertex -0.011075000278651714 -0.021154999732971191 0.0019150000298395753
   vertex -0.00079899997217580676 -0.022939000278711319 0.0034129999112337828
   vertex -0.014969999901950359 -0.036348000168800354 0.011293999850749969
  endloop
 endfacet
 facet normal 0.99929036719017239 -0.017872300434300641 -0.03315634054168911
  outer loop
   vertex 0.0068040001206099987 -0.0077880001626908779 0.026210000738501549
   vertex 0.0071990001015365124 -0.012993999756872654 0.040920998901128769
   vertex 0.0067270002327859402 -0.021807000041007996 0.031445998698472977
  endloop
 endfacet
 facet normal 0.96620365919892992 0.085519422260877567 0.24318083264674409
  outer loop
   vertex 0.0099219996482133865 -0.017790000885725021 0.017339000478386879
   vertex 0.0068040001206099987 -0.0077880001626908779 0.026210000738501549
   vertex 0.0067270002327859402 -0.021807000041007996 0.031445998698472977
  endloop
 endfacet
 facet normal 0.31886042978189355 0.89616309677677353 0.30857694388072709
  outer loop
   vertex 0.0068040001206099987 -0.0077880001626908779 0.026210000738501549
   vertex -0.0069070002064108849 -0.0018489999929443002 0.02312999963760376
   vertex 0.0071990001015365124 -0.012993999756872654 0.040920998901128769
  endloop
 endfacet
 facet normal 0.90902592044665498 -0.40690240671338818 0.09001281779260191
  outer loop
   vertex 0.0099219996482133865 -0.017790000885725021 0.017339000478386879
   vertex 0.0067270002327859402 -0.021807000041007996 0.031445998698472977
   vertex 0.0010639999527484179 -0.037654999643564224 0.016994999721646309
  endloop
 endfacet
 facet normal 0.71761476595002438 0.68184270442184525 -0.14184348457788132
  outer loop
   vertex 0.0071990001015365124 -0.012993999756872654 0.040920998901128769
   vertex -0.0069070002064108849 -0.0018489999929443002 0.02312999963760376
   vertex -0.00029600001289509237 -0.0039300001226365566 0.04657299816608429
  endloop
 endfacet
 facet normal -0.37996153093346152 0.90578808144033651 0.18755582244050489
  outer loop
   vertex -0.0069070002064108849 -0.0018489999929443002 0.02312999963760376
   vertex -0.012644000351428986 -0.0066720000468194485 0.034800000488758087
   vertex -0.00029600001289509237 -0.0039300001226365566 0.04657299816608429
  endloop
 endfacet
 facet normal -0.91028519262189278 0.35662232864212762 0.21024124906209515
  outer loop
   vertex -0.016721000894904137 -0.0058019999414682388 0.015672000125050545
   vertex -0.019783999770879745 -0.021301999688148499 0.02870200015604496
   vertex -0.012644000351428986 -0.0066720000468194485 0.034800000488758087
  endloop
 endfacet
 facet normal -0.98870743433398967 0.10836343871072869 -0.10351316072599477
  outer loop
   vertex -0.016721000894904137 -0.0058019999414682388 0.015672000125050545
   vertex -0.017036000266671181 -0.015847999602556229 0.0081639997661113739
   vertex -0.019783999770879745 -0.021301999688148499 0.02870200015604496
  endloop
 endfacet
 facet normal 0.40544956508199925 -0.49855931247301505 -0.76619140044851186
  outer loop
   vertex 0.007431000005453825 -0.021097000688314438 0.0095899999141693115
   vertex 0.0010639999527484179 -0.037654999643564224 0.016994999721646309
   vertex -0.0086770001798868179 -0.038008000701665878 0.012070000171661377
  endloop
 endfacet
 facet normal 0.55741728629715126 -0.61305355153275842 -0.55986722701922043
  outer loop
   vertex -0.00079899997217580676 -0.022939000278711319 0.0034129999112337828
   vertex 0.007431000005453825 -0.021097000688314438 0.0095899999141693115
   vertex -0.0086770001798868179 -0.038008000701665878 0.012070000171661377
  endloop
 endfacet
 facet normal -0.45826842165230969 0.87809572652041079 0.13761522002632148
  outer loop
   vertex -0.0069070002064108849 -0.0018489999929443002 0.02312999963760376
   vertex -0.016721000894904137 -0.0058019999414682388 0.015672000125050545
   vertex -0.012644000351428986 -0.0066720000468194485 0.034800000488758087
  endloop
 endfacet
 facet normal -0.021627055171986855 -0.48949784332882729 -0.87173627426017697
  outer loop
   vertex -0.00079899997217580676 -0.022939000278711319 0.0034129999112337828
   vertex -0.0086770001798868179 -0.038008000701665878 0.012070000171661377
   vertex -0.014969999901950359 -0.036348000168800354 0.011293999850749969
  endloop
 endfacet
 facet normal -0.78124614150166438 -0.17042182626239766 -0.60050884050291109
  outer loop
   vertex -0.011075000278651714 -0.021154999732971191 0.0019150000298395753
   vertex -0.014969999901950359 -0.036348000168800354 0.011293999850749969
   vertex -0.017036000266671181 -0.015847999602556229 0.0081639997661113739
  endloop
 endfacet
 facet normal -0.97871657846802484 -0.12364306060946761 -0.16378721743459074
  outer loop
   vertex -0.017036000266671181 -0.015847999602556229 0.0081639997661113739
   vertex -0.014969999901950359 -0.036348000168800354 0.011293999850749969
   vertex -0.019783999770879745 -0.021301999688148499 0.02870200015604496
  endloop
 endfacet
 facet normal -0.55733690572856065 -0.81162288466643484 -0.17505389626811613
  outer loop
   vertex -0.020883999764919281 -0.012612000107765198 -0.0064639998599886894
   vertex -0.0083659999072551727 -0.019571000710129738 -0.014054000377655029
   vertex -0.011075000278651714 -0.021154999732971191 0.0019150000298395753
  endloop
 endfacet
 facet normal -0.66044939023578242 -0.7508317222817027 0.0076372608097112545
  outer loop
   vertex -0.020883999764919281 -0.012612000107765198 -0.0064639998599886894
   vertex -0.011075000278651714 -0.021154999732971191 0.0019150000298395753
   vertex -0.017036000266671181 -0.015847999602556229 0.0081639997661113739
  endloop
 endfacet
 facet normal -0.84006602468601188 -0.53258385599337377 0.1031673906981757
  outer loop
   vertex -0.02322000078856945 -0.0066889999434351921 0.0050909998826682568
   vertex -0.020883999764919281 -0.012612000107765198 -0.0064639998599886894
   vertex -0.017036000266671181 -0.015847999602556229 0.0081639997661113739
  endloop
 endfacet
 facet normal -0.60770758233407651 0.010552520676612489 0.79409076224386421
  outer loop
   vertex -0.0069070002064108849 -0.0018489999929443002 0.02312999963760376
   vertex -0.014759000390768051 0.010037999600172043 0.016962999477982521
   vertex -0.016721000894904137 -0.0058019999414682388 0.015672000125050545
  endloop
 endfacet
 facet normal -0.30430349813074214 0.27253162464537767 0.91275730322662685
  outer loop
   vertex 0.0015979999443516135 0.010356999933719635 0.022321000695228577
   vertex -0.014759000390768051 0.010037999600172043 0.016962999477982521
   vertex -0.0069070002064108849 -0.0018489999929443002 0.02312999963760376
  endloop
 endfacet
 facet normal -0.7823272904892975 -0.3569528848722564 0.51043966199448876
  outer loop
   vertex -0.02322000078856945 -0.0066889999434351921 0.0050909998826682568
   vertex -0.017036000266671181 -0.015847999602556229 0.0081639997661113739
   vertex -0.016721000894904137 -0.0058019999414682388 0.015672000125050545
  endloop
 endfacet
 facet normal -0.85275092241091544 0.063369124556470383 0.51845946647764041
  outer loop
   vertex -0.014759000390768051 0.010037999600172043 0.016962999477982521
   vertex -0.02322000078856945 -0.0066889999434351921 0.0050909998826682568
   vertex -0.016721000894904137 -0.0058019999414682388 0.015672000125050545
  endloop
 endfacet
 facet normal -0.14674068460383227 0.1668689375494776 0.97499842521057811
  outer loop
   vertex 0.0015979999443516135 0.010356999933719635 0.022321000695228577
   vertex -0.0069070002064108849 -0.0018489999929443002 0.02312999963760376
   vertex 0.0068040001206099987 -0.0077880001626908779 0.026210000738501549
  endloop
 endfacet
 facet normal 0.44553064149980626 0.30799670940483914 0.84061910190083244
  outer loop
   vertex 0.016197999939322472 -0.0046979999169707298 0.02009899914264679
   vertex 0.0015979999443516135 0.010356999933719635 0.022321000695228577
   vertex 0.0068040001206099987 -0.0077880001626908779 0.026210000738501549
  endloop
 endfacet
 facet normal 0.5875960163370314 -0.42662560613902673 0.68754746292264013
  outer loop
   vertex 0.016197999939322472 -0.0046979999169707298 0.02009899914264679
   vertex 0.0068040001206099987 -0.0077880001626908779 0.026210000738501549
   vertex 0.0099219996482133865 -0.017790000885725021 0.017339000478386879
  endloop
 endfacet
 facet normal 0.66362077668510333 -0.44490608222633821 0.60138676635745059
  outer loop
   vertex 0.020208999514579773 -0.015490000136196613 0.0076890001073479652
   vertex 0.016197999939322472 -0.0046979999169707298 0.02009899914264679
   vertex 0.0099219996482133865 -0.017790000885725021 0.017339000478386879
  endloop
 endfacet
 facet normal 0.05151639622762004 -0.98721408027731428 -0.1508456847971974
  outer loop
   vertex 0.0035560000687837601 -0.019732000306248665 -0.016087999567389488
   vertex 0.015348999761044979 -0.020966999232769012 -0.0039780000224709511
   vertex -0.00079899997217580676 -0.022939000278711319 0.0034129999112337828
  endloop
 endfacet
 facet normal -0.042528979680603346 -0.98428889575455469 -0.17136702011065716
  outer loop
   vertex 0.0035560000687837601 -0.019732000306248665 -0.016087999567389488
   vertex -0.00079899997217580676 -0.022939000278711319 0.0034129999112337828
   vertex -0.0083659999072551727 -0.019571000710129738 -0.014054000377655029
  endloop
 endfacet
 facet normal -0.15230062910353873 -0.98063701576986406 -0.12310792694478181
  outer loop
   vertex -0.0083659999072551727 -0.019571000710129738 -0.014054000377655029
   vertex -0.00079899997217580676 -0.022939000278711319 0.0034129999112337828
   vertex -0.011075000278651714 -0.021154999732971191 0.0019150000298395753
  endloop
 endfacet
 facet normal 0.41976420002753445 -0.87566500678230563 0.2387651822862554
  outer loop
   vertex 0.020208999514579773 -0.015490000136196613 0.0076890001073479652
   vertex 0.0099219996482133865 -0.017790000885725021 0.017339000478386879
   vertex 0.007431000005453825 -0.021097000688314438 0.0095899999141693115
  endloop
 endfacet
 facet normal 0.41970948332042052 -0.87629560776893378 0.23653743343450062
  outer loop
   vertex 0.015348999761044979 -0.020966999232769012 -0.0039780000224709511
   vertex 0.020208999514579773 -0.015490000136196613 0.0076890001073479652
   vertex 0.007431000005453825 -0.021097000688314438 0.0095899999141693115
  endloop
 endfacet
 facet normal 0.15806559424645039 -0.98394957499541102 0.082816072002156765
  outer loop
   vertex 0.015348999761044979 -0.020966999232769012 -0.0039780000224709511
   vertex 0.007431000005453825 -0.021097000688314438 0.0095899999141693115
   vertex -0.00079899997217580676 -0.022939000278711319 0.0034129999112337828
  endloop
 endfacet
 facet normal 0.73638202410037124 0.14334047149163523 0.66120724724884572
  outer loop
   vertex -0.0061059999279677868 0.00017800000205170363 0.052152998745441437
   vertex -0.0097390003502368927 -0.033799998462200165 0.063565000891685486
   vertex -0.00029600001289509237 -0.0039300001226365566 0.04657299816608429
  endloop
 endfacet
 facet normal 0.34385157133496891 0.37982472411088342 0.85877778024618456
  outer loop
   vertex -0.0097390003502368927 -0.033799998462200165 0.063565000891685486
   vertex -0.00013299999409355223 -0.017751999199390411 0.05262099951505661
   vertex -0.00029600001289509237 -0.0039300001226365566 0.04657299816608429
  endloop
 endfacet
 facet normal -0.040579538738543627 0.32202049188417431 0.94586262419150569
  outer loop
   vertex -0.0061059999279677868 0.00017800000205170363 0.052152998745441437
   vertex -0.03265799954533577 -0.019883999601006508 0.057844001799821854
   vertex -0.0097390003502368927 -0.033799998462200165 0.063565000891685486
  endloop
 endfacet
 facet normal 0.30633352037900174 -0.317102090765016 -0.8975555906598004
  outer loop
   vertex -0.038100998848676682 -0.020757999271154404 0.036681998521089554
   vertex -0.027703000232577324 -0.00052900001173838973 0.033084001392126083
   vertex -0.021400000900030136 -0.0064469999633729458 0.03732600063085556
  endloop
 endfacet
 facet normal 0.011683843116661334 0.95796564957914498 -0.2866449058267595
  outer loop
   vertex -0.021798999980092049 0.0029750000685453415 0.045035000890493393
   vertex -0.027703000232577324 -0.00052900001173838973 0.033084001392126083
   vertex -0.03462500125169754 -0.00016599999798927456 0.034014999866485596
  endloop
 endfacet
 facet normal -0.62125767603865667 0.49964339116752987 -0.60365170556013348
  outer loop
   vertex -0.019783999770879745 -0.021301999688148499 0.02870200015604496
   vertex -0.014969999901950359 -0.036348000168800354 0.011293999850749969
   vertex -0.038872998207807541 -0.035551998764276505 0.036552999168634415
  endloop
 endfacet
 facet normal 0.26558038089906716 -0.2682623476741981 -0.9260142407662173
  outer loop
   vertex -0.021400000900030136 -0.0064469999633729458 0.03732600063085556
   vertex -0.023914000019431114 -0.020013000816106796 0.040534999221563339
   vertex -0.038100998848676682 -0.020757999271154404 0.036681998521089554
  endloop
 endfacet
 facet normal -0.087958730091728929 0.37786487121933926 0.9216731529664095
  outer loop
   vertex -0.030773000791668892 -0.0034370000939816236 0.051281001418828964
   vertex -0.03265799954533577 -0.019883999601006508 0.057844001799821854
   vertex -0.0061059999279677868 0.00017800000205170363 0.052152998745441437
  endloop
 endfacet
 facet normal -0.13615125887508664 0.78245797205344358 0.60763669793449915
  outer loop
   vertex -0.021798999980092049 0.0029750000685453415 0.045035000890493393
   vertex -0.030773000791668892 -0.0034370000939816236 0.051281001418828964
   vertex -0.0061059999279677868 0.00017800000205170363 0.052152998745441437
  endloop
 endfacet
 facet normal -0.96782533137109761 0.048351105892865141 0.24693379378967564
  outer loop
   vertex -0.03265799954533577 -0.019883999601006508 0.057844001799821854
   vertex -0.038100998848676682 -0.020757999271154404 0.036681998521089554
   vertex -0.038872998207807541 -0.035551998764276505 0.036552999168634415
  endloop
 endfacet
 facet normal -0.95243710356999645 0.19147825766230722 0.23706463377273904
  outer loop
   vertex -0.03265799954533577 -0.019883999601006508 0.057844001799821854
   vertex -0.03462500125169754 -0.00016599999798927456 0.034014999866485596
   vertex -0.038100998848676682 -0.020757999271154404 0.036681998521089554
  endloop
 endfacet
 facet normal -0.43478420963008019 0.86208836672334799 0.26031968618722817
  outer loop
   vertex -0.021798999980092049 0.0029750000685453415 0.045035000890493393
   vertex -0.03462500125169754 -0.00016599999798927456 0.034014999866485596
   vertex -0.030773000791668892 -0.0034370000939816236 0.051281001418828964
  endloop
 endfacet
 facet normal -0.13794091918965337 -0.1042802743462852 -0.98493549392606261
  outer loop
   vertex -0.038100998848676682 -0.020757999271154404 0.036681998521089554
   vertex -0.03462500125169754 -0.00016599999798927456 0.034014999866485596
   vertex -0.027703000232577324 -0.00052900001173838973 0.033084001392126083
  endloop
 endfacet
 facet normal 0.33870991446399634 0.84446141050785939 -0.41492230598856544
  outer loop
   vertex -0.0061059999279677868 0.00017800000205170363 0.052152998745441437
   vertex -0.027703000232577324 -0.00052900001173838973 0.033084001392126083
   vertex -0.021798999980092049 0.0029750000685453415 0.045035000890493393
  endloop
 endfacet
 facet normal -0.074513438521179642 0.93683694685633778 -0.34173715408870298
  outer loop
   vertex -0.012644000351428986 -0.0066720000468194485 0.034800000488758087
   vertex -0.021400000900030136 -0.0064469999633729458 0.03732600063085556
   vertex -0.0061059999279677868 0.00017800000205170363 0.052152998745441437
  endloop
 endfacet
 facet normal 0.59837527567945137 -0.77223616558914854 -0.21353766415250866
  outer loop
   vertex -0.020019000396132469 -0.065406002104282379 0.016429999843239784
   vertex 0.001888000057078898 -0.050436999648809433 0.023684000596404076
   vertex -0.021987000480294228 -0.06865999847650528 0.022683000192046165
  endloop
 endfacet
 facet normal -0.90050873268998011 -0.4246530395209121 0.093561842514651689
  outer loop
   vertex -0.038872998207807541 -0.035551998764276505 0.036552999168634415
   vertex -0.026599999517202377 -0.06355699896812439 0.027569999918341637
   vertex -0.028167000040411949 -0.055362001061439514 0.049683000892400742
  endloop
 endfacet
 facet normal -0.59259895601682211 -0.76807916190450654 0.24265382415252257
  outer loop
   vertex -0.028167000040411949 -0.055362001061439514 0.049683000892400742
   vertex -0.026599999517202377 -0.06355699896812439 0.027569999918341637
   vertex -0.021987000480294228 -0.06865999847650528 0.022683000192046165
  endloop
 endfacet
 facet normal 0.76447522462752249 0.26596592890282644 0.58723058128264727
  outer loop
   vertex -0.00013299999409355223 -0.017751999199390411 0.05262099951505661
   vertex 0.0071990001015365124 -0.012993999756872654 0.040920998901128769
   vertex -0.00029600001289509237 -0.0039300001226365566 0.04657299816608429
  endloop
 endfacet
 facet normal 0.74839023458027987 -0.27640692032900704 0.60291895904765469
  outer loop
   vertex -0.0097390003502368927 -0.033799998462200165 0.063565000891685486
   vertex -0.0090610003098845482 -0.053777001798152924 0.053564999252557755
   vertex -0.0048039997927844524 -0.033082999289035797 0.057767998427152634
  endloop
 endfacet
 facet normal 0.75801877232614756 -0.27596196507514581 0.59097591713455122
  outer loop
   vertex -0.0048039997927844524 -0.033082999289035797 0.057767998427152634
   vertex -0.0090610003098845482 -0.053777001798152924 0.053564999252557755
   vertex 0.0018279999494552612 -0.052046999335289001 0.0404059998691082
  endloop
 endfacet
 facet normal 0.95236796877939334 0.30320267701199111 0.032609641147589824
  outer loop
   vertex 0.001888000057078898 -0.050436999648809433 0.023684000596404076
   vertex -0.0048039997927844524 -0.033082999289035797 0.057767998427152634
   vertex 0.0018279999494552612 -0.052046999335289001 0.0404059998691082
  endloop
 endfacet
 facet normal 0.90918044150793642 -0.32651734974388569 0.25841312872155492
  outer loop
   vertex 0.0071990001015365124 -0.012993999756872654 0.040920998901128769
   vertex -0.0048039997927844524 -0.033082999289035797 0.057767998427152634
   vertex 0.0067270002327859402 -0.021807000041007996 0.031445998698472977
  endloop
 endfacet
 facet normal 0.48314126213061837 -0.38130435093434373 -0.78815069167347174
  outer loop
   vertex 0.001888000057078898 -0.050436999648809433 0.023684000596404076
   vertex -0.010320999659597874 -0.052184000611305237 0.017045000568032265
   vertex 0.0010639999527484179 -0.037654999643564224 0.016994999721646309
  endloop
 endfacet
 facet normal 0.43373584328762327 -0.34274541115370599 -0.83330594704505212
  outer loop
   vertex -0.0086770001798868179 -0.038008000701665878 0.012070000171661377
   vertex 0.0010639999527484179 -0.037654999643564224 0.016994999721646309
   vertex -0.010320999659597874 -0.052184000611305237 0.017045000568032265
  endloop
 endfacet
 facet normal 0.48753938035601607 -0.31980921676085072 -0.81242071457889542
  outer loop
   vertex -0.010320999659597874 -0.052184000611305237 0.017045000568032265
   vertex 0.001888000057078898 -0.050436999648809433 0.023684000596404076
   vertex -0.020019000396132469 -0.065406002104282379 0.016429999843239784
  endloop
 endfacet
 facet normal 0.75962857445951704 -0.54033282802702609 -0.36194594046752082
  outer loop
   vertex -0.018704000860452652 -0.059083998203277588 0.0097519997507333755
   vertex -0.010320999659597874 -0.052184000611305237 0.017045000568032265
   vertex -0.020019000396132469 -0.065406002104282379 0.016429999843239784
  endloop
 endfacet
 facet normal 0.68692770991514063 -0.061314181736402892 -0.72413458173790868
  outer loop
   vertex -0.021112000569701195 -0.052592001855373383 0.0068430001847445965
   vertex -0.014969999901950359 -0.036348000168800354 0.011293999850749969
   vertex -0.010320999659597874 -0.052184000611305237 0.017045000568032265
  endloop
 endfacet
 facet normal 0.0281007395104193 -0.33391409051738774 -0.94218455123872269
  outer loop
   vertex -0.0086770001798868179 -0.038008000701665878 0.012070000171661377
   vertex -0.010320999659597874 -0.052184000611305237 0.017045000568032265
   vertex -0.014969999901950359 -0.036348000168800354 0.011293999850749969
  endloop
 endfacet
 facet normal -0.57067223018841395 0.41063353630595151 -0.71113522241037297
  outer loop
   vertex -0.021112000569701195 -0.052592001855373383 0.0068430001847445965
   vertex -0.029303999617695808 -0.050556998699903488 0.014592000283300877
   vertex -0.014969999901950359 -0.036348000168800354 0.011293999850749969
  endloop
 endfacet
 facet normal -0.65817053971651529 -0.49737823607777321 -0.5651782293448977
  outer loop
   vertex -0.021112000569701195 -0.052592001855373383 0.0068430001847445965
   vertex -0.018704000860452652 -0.059083998203277588 0.0097519997507333755
   vertex -0.029303999617695808 -0.050556998699903488 0.014592000283300877
  endloop
 endfacet
 facet normal 0.65817053971651529 0.49737823607777321 0.5651782293448977
  outer loop
   vertex -0.018704000860452652 -0.059083998203277588 0.0097519997507333755
   vertex -0.021112000569701195 -0.052592001855373383 0.0068430001847445965
   vertex -0.029303999617695808 -0.050556998699903488 0.014592000283300877
  endloop
 endfacet
 facet normal -0.71207248398131018 -0.50555999740705826 -0.48719797472738124
  outer loop
   vertex -0.021987000480294228 -0.06865999847650528 0.022683000192046165
   vertex -0.029303999617695808 -0.050556998699903488 0.014592000283300877
   vertex -0.020019000396132469 -0.065406002104282379 0.016429999843239784
  endloop
 endfacet
 facet normal -0.92190939977800301 -0.35240351200794551 -0.16091868544525206
  outer loop
   vertex -0.029303999617695808 -0.050556998699903488 0.014592000283300877
   vertex -0.026599999517202377 -0.06355699896812439 0.027569999918341637
   vertex -0.038872998207807541 -0.035551998764276505 0.036552999168634415
  endloop
 endfacet
 facet normal -0.14236826841354677 -0.44692521283822378 0.8831699328432987
  outer loop
   vertex -0.028167000040411949 -0.055362001061439514 0.049683000892400742
   vertex -0.0090610003098845482 -0.053777001798152924 0.053564999252557755
   vertex -0.0097390003502368927 -0.033799998462200165 0.063565000891685486
  endloop
 endfacet
 facet normal 0.86036018694657757 -0.093949379619133327 0.50095295466383893
  outer loop
   vertex -0.00013299999409355223 -0.017751999199390411 0.05262099951505661
   vertex -0.0048039997927844524 -0.033082999289035797 0.057767998427152634
   vertex 0.0071990001015365124 -0.012993999756872654 0.040920998901128769
  endloop
 endfacet
 facet normal -0.83222922676215572 -0.46872687860056145 -0.29612434449102487
  outer loop
   vertex -0.026599999517202377 -0.06355699896812439 0.027569999918341637
   vertex -0.029303999617695808 -0.050556998699903488 0.014592000283300877
   vertex -0.021987000480294228 -0.06865999847650528 0.022683000192046165
  endloop
 endfacet
 facet normal -0.65371348798137752 -0.4810690954574372 -0.58414998162028942
  outer loop
   vertex -0.029303999617695808 -0.050556998699903488 0.014592000283300877
   vertex -0.018704000860452652 -0.059083998203277588 0.0097519997507333755
   vertex -0.020019000396132469 -0.065406002104282379 0.016429999843239784
  endloop
 endfacet
 facet normal -0.95516495794805389 -0.27719126885132145 0.10404279687074397
  outer loop
   vertex -0.028167000040411949 -0.055362001061439514 0.049683000892400742
   vertex -0.0098609998822212219 -0.12267299741506577 0.03841099888086319
   vertex -0.0091019999235868454 -0.12240500003099442 0.04609299823641777
  endloop
 endfacet
 facet normal -0.57103229713495074 -0.20495114478058021 0.79493216306922132
  outer loop
   vertex -0.012222000397741795 -0.089392997324466705 0.052363000810146332
   vertex -0.028167000040411949 -0.055362001061439514 0.049683000892400742
   vertex -0.0091019999235868454 -0.12240500003099442 0.04609299823641777
  endloop
 endfacet
 facet normal -0.19785331500582559 -0.01551760389579139 0.98010880503673614
  outer loop
   vertex -0.0090610003098845482 -0.053777001798152924 0.053564999252557755
   vertex -0.028167000040411949 -0.055362001061439514 0.049683000892400742
   vertex -0.012222000397741795 -0.089392997324466705 0.052363000810146332
  endloop
 endfacet
 facet normal 0.032520890023420117 -0.036594671392741487 0.99880089193879973
  outer loop
   vertex -0.0090610003098845482 -0.053777001798152924 0.053564999252557755
   vertex -0.012222000397741795 -0.089392997324466705 0.052363000810146332
   vertex 0.001740999985486269 -0.12240099906921387 0.050698999315500259
  endloop
 endfacet
 facet normal -0.64417826316630666 0.021246737075565566 -0.7645802387112044
  outer loop
   vertex -0.0098609998822212219 -0.12267299741506577 0.03841099888086319
   vertex 0.010552999563515186 -0.11679600179195404 0.021375000476837158
   vertex 0.0050400001928210258 -0.21114499866962433 0.023398000746965408
  endloop
 endfacet
 facet normal -0.97786043666724043 -0.18217051844219623 0.10297023167622406
  outer loop
   vertex -0.0098609998822212219 -0.12267299741506577 0.03841099888086319
   vertex 0.0050400001928210258 -0.21114499866962433 0.023398000746965408
   vertex -0.0091019999235868454 -0.12240500003099442 0.04609299823641777
  endloop
 endfacet
 facet normal 0.21221584395837925 -0.22580951311517042 -0.95077573557580997
  outer loop
   vertex 0.001888000057078898 -0.050436999648809433 0.023684000596404076
   vertex -0.015961999073624611 -0.076563999056816101 0.025905000045895576
   vertex -0.021987000480294228 -0.06865999847650528 0.022683000192046165
  endloop
 endfacet
 facet normal -0.56452500005965112 -0.28482065159623637 -0.77471847837259333
  outer loop
   vertex -0.015961999073624611 -0.076563999056816101 0.025905000045895576
   vertex 0.010552999563515186 -0.11679600179195404 0.021375000476837158
   vertex -0.0098609998822212219 -0.12267299741506577 0.03841099888086319
  endloop
 endfacet
 facet normal -0.93285391744319135 -0.20397284456423551 -0.29694889693559384
  outer loop
   vertex -0.028167000040411949 -0.055362001061439514 0.049683000892400742
   vertex -0.015961999073624611 -0.076563999056816101 0.025905000045895576
   vertex -0.0098609998822212219 -0.12267299741506577 0.03841099888086319
  endloop
 endfacet
 facet normal -0.81041872701401352 -0.57744202087757557 0.098905002046444923
  outer loop
   vertex -0.021987000480294228 -0.06865999847650528 0.022683000192046165
   vertex -0.015961999073624611 -0.076563999056816101 0.025905000045895576
   vertex -0.028167000040411949 -0.055362001061439514 0.049683000892400742
  endloop
 endfacet
 facet normal 0.75831172937377211 0.11191972079066995 0.6422128130085053
  outer loop
   vertex -0.0090610003098845482 -0.053777001798152924 0.053564999252557755
   vertex 0.017876999452710152 -0.11824999749660492 0.032993000000715256
   vertex 0.0018279999494552612 -0.052046999335289001 0.0404059998691082
  endloop
 endfacet
 facet normal 0.72628675690505073 0.085840326324825897 0.68201098607045252
  outer loop
   vertex 0.001740999985486269 -0.12240099906921387 0.050698999315500259
   vertex 0.017876999452710152 -0.11824999749660492 0.032993000000715256
   vertex -0.0090610003098845482 -0.053777001798152924 0.053564999252557755
  endloop
 endfacet
 facet normal -0.12963589112516521 0.13046650848710623 -0.98294100834962017
  outer loop
   vertex 0.024021999910473824 -0.20857399702072144 0.013659000396728516
   vertex 0.02859799936413765 -0.33875098824501038 -0.0042229997925460339
   vertex 0.013098999857902527 -0.33748599886894226 -0.002010999945923686
  endloop
 endfacet
 facet normal -0.46716426766553798 0.14559280113267917 -0.87210107400166736
  outer loop
   vertex 0.0050400001928210258 -0.21114499866962433 0.023398000746965408
   vertex 0.024021999910473824 -0.20857399702072144 0.013659000396728516
   vertex 0.013098999857902527 -0.33748599886894226 -0.002010999945923686
  endloop
 endfacet
 facet normal 0.97218496595543913 0.2327779415929736 0.025900229303228366
  outer loop
   vertex 0.0018279999494552612 -0.052046999335289001 0.0404059998691082
   vertex 0.017876999452710152 -0.11824999749660492 0.032993000000715256
   vertex 0.001888000057078898 -0.050436999648809433 0.023684000596404076
  endloop
 endfacet
 facet normal 0.84610211666269686 0.12848188726963652 -0.51730417823804242
  outer loop
   vertex 0.001888000057078898 -0.050436999648809433 0.023684000596404076
   vertex 0.017876999452710152 -0.11824999749660492 0.032993000000715256
   vertex 0.010552999563515186 -0.11679600179195404 0.021375000476837158
  endloop
 endfacet
 facet normal 0.84337837168411711 0.16671548788379575 -0.51080218115735887
  outer loop
   vertex 0.010552999563515186 -0.11679600179195404 0.021375000476837158
   vertex 0.017876999452710152 -0.11824999749660492 0.032993000000715256
   vertex 0.024021999910473824 -0.20857399702072144 0.013659000396728516
  endloop
 endfacet
 facet normal -0.45729589146577987 0.0076530213929709859 -0.88928167579911177
  outer loop
   vertex 0.010552999563515186 -0.11679600179195404 0.021375000476837158
   vertex 0.024021999910473824 -0.20857399702072144 0.013659000396728516
   vertex 0.0050400001928210258 -0.21114499866962433 0.023398000746965408
  endloop
 endfacet
 facet normal 0.7254058706466977 0.090623603003148923 0.68232960173953616
  outer loop
   vertex 0.001740999985486269 -0.12240099906921387 0.050698999315500259
   vertex 0.0315839983522892 -0.20981599390506744 0.030581999570131302
   vertex 0.017876999452710152 -0.11824999749660492 0.032993000000715256
  endloop
 endfacet
 facet normal 0.90713927233409586 0.14618522736206713 -0.39462415016096969
  outer loop
   vertex 0.017876999452710152 -0.11824999749660492 0.032993000000715256
   vertex 0.0315839983522892 -0.20981599390506744 0.030581999570131302
   vertex 0.024021999910473824 -0.20857399702072144 0.013659000396728516
  endloop
 endfacet
 facet normal 0.91188845970770604 0.087149775884120095 -0.40107898675355075
  outer loop
   vertex 0.024021999910473824 -0.20857399702072144 0.013659000396728516
   vertex 0.0315839983522892 -0.20981599390506744 0.030581999570131302
   vertex 0.02859799936413765 -0.33875098824501038 -0.0042229997925460339
  endloop
 endfacet
 facet normal -0.75528069665670228 -0.27277490625041173 0.59594036595774036
  outer loop
   vertex -0.0091019999235868454 -0.12240500003099442 0.04609299823641777
   vertex 0.0050400001928210258 -0.21114499866962433 0.023398000746965408
   vertex 0.019687000662088394 -0.21194300055503845 0.041595999151468277
  endloop
 endfacet
 facet normal -0.3852711894199366 -0.16943497088546569 0.90711515324350556
  outer loop
   vertex 0.001740999985486269 -0.12240099906921387 0.050698999315500259
   vertex -0.0091019999235868454 -0.12240500003099442 0.04609299823641777
   vertex 0.019687000662088394 -0.21194300055503845 0.041595999151468277
  endloop
 endfacet
 facet normal 0.67236354372855012 0.059748388739205814 0.7378057976919502
  outer loop
   vertex 0.001740999985486269 -0.12240099906921387 0.050698999315500259
   vertex 0.019687000662088394 -0.21194300055503845 0.041595999151468277
   vertex 0.0315839983522892 -0.20981599390506744 0.030581999570131302
  endloop
 endfacet
 facet normal 0.68340173698403817 -0.051672316442685856 0.72821153355371038
  outer loop
   vertex 0.034582000225782394 -0.34005498886108398 0.018526999279856682
   vertex 0.0315839983522892 -0.20981599390506744 0.030581999570131302
   vertex 0.019687000662088394 -0.21194300055503845 0.041595999151468277
  endloop
 endfacet
 facet normal 0.96673971734434805 0.045548675133665492 -0.25167367185015183
  outer loop
   vertex 0.02859799936413765 -0.33875098824501038 -0.0042229997925460339
   vertex 0.0315839983522892 -0.20981599390506744 0.030581999570131302
   vertex 0.034582000225782394 -0.34005498886108398 0.018526999279856682
  endloop
 endfacet
 facet normal -0.7792395839660089 -0.040810403034396883 0.62539601996227268
  outer loop
   vertex 0.019687000662088394 -0.21194300055503845 0.041595999151468277
   vertex 0.0050400001928210258 -0.21114499866962433 0.023398000746965408
   vertex 0.007689999882131815 -0.33654299378395081 0.01851700060069561
  endloop
 endfacet
 facet normal 0.4759213222314187 -0.10196731037370053 0.87355684569503067
  outer loop
   vertex 0.034582000225782394 -0.34005498886108398 0.018526999279856682
   vertex 0.019687000662088394 -0.21194300055503845 0.041595999151468277
   vertex 0.022141000255942345 -0.33996900916099548 0.025314999744296074
  endloop
 endfacet
 facet normal -0.44593186561836212 -0.12132231533328863 0.88680644282069643
  outer loop
   vertex 0.019687000662088394 -0.21194300055503845 0.041595999151468277
   vertex 0.007689999882131815 -0.33654299378395081 0.01851700060069561
   vertex 0.022141000255942345 -0.33996900916099548 0.025314999744296074
  endloop
 endfacet
 facet normal -0.96706003042397448 -0.010537033421213957 -0.25433023509418151
  outer loop
   vertex 0.0050400001928210258 -0.21114499866962433 0.023398000746965408
   vertex 0.013098999857902527 -0.33748599886894226 -0.002010999945923686
   vertex 0.007689999882131815 -0.33654299378395081 0.01851700060069561
  endloop
 endfacet
 facet normal -0.38243019305608555 -0.20716914825485849 0.90045993328434204
  outer loop
   vertex -0.012222000397741795 -0.089392997324466705 0.052363000810146332
   vertex -0.0091019999235868454 -0.12240500003099442 0.04609299823641777
   vertex 0.001740999985486269 -0.12240099906921387 0.050698999315500259
  endloop
 endfacet
 facet normal -0.85240223497238887 0.19884148813833893 0.48360365218741591
  outer loop
   vertex -0.018817000091075897 -0.39666000008583069 -0.017185000702738762
   vertex -0.025854999199509621 -0.40583199262619019 -0.025818999856710434
   vertex -0.01917400024831295 -0.40637201070785522 -0.01382100023329258
  endloop
 endfacet
 facet normal -0.7247125555788585 -0.57637064128641247 0.37760905133411421
  outer loop
   vertex -0.01917400024831295 -0.40637201070785522 -0.01382100023329258
   vertex -0.025854999199509621 -0.40583199262619019 -0.025818999856710434
   vertex -0.0066370000131428242 -0.42393800616264343 -0.016572000458836555
  endloop
 endfacet
 facet normal -0.80437738190530272 -0.50376497636525208 -0.31495694319523704
  outer loop
   vertex -0.013248000293970108 -0.42603200674057007 -0.025707000866532326
   vertex -0.025854999199509621 -0.40583199262619019 -0.025818999856710434
   vertex -0.010708999820053577 -0.42101499438285828 -0.040215998888015747
  endloop
 endfacet
 facet normal -0.66238183688183827 0.71594583408983214 -0.22061700935887985
  outer loop
   vertex -0.012679999694228172 -0.39290899038314819 -0.023437999188899994
   vertex -0.025854999199509621 -0.40583199262619019 -0.025818999856710434
   vertex -0.018817000091075897 -0.39666000008583069 -0.017185000702738762
  endloop
 endfacet
 facet normal -0.04360442527421473 -0.18487894813323832 0.9817934755505624
  outer loop
   vertex -0.01917400024831295 -0.40637201070785522 -0.01382100023329258
   vertex -0.0066370000131428242 -0.42393800616264343 -0.016572000458836555
   vertex -0.0042229997925460339 -0.40748199820518494 -0.013365999795496464
  endloop
 endfacet
 facet normal -0.018194291081511348 0.15952816729410257 0.98702569957009023
  outer loop
   vertex -0.01917400024831295 -0.40637201070785522 -0.01382100023329258
   vertex -0.0042229997925460339 -0.40748199820518494 -0.013365999795496464
   vertex -0.0081089995801448822 -0.39558801054954529 -0.015359999611973763
  endloop
 endfacet
 facet normal -0.86833517555959938 -0.20823618536375915 0.45014632508888686
  outer loop
   vertex -0.0081089995801448822 -0.39558801054954529 -0.015359999611973763
   vertex -0.0042229997925460339 -0.40748199820518494 -0.013365999795496464
   vertex -0.0035920001100748777 -0.39575299620628357 -0.0067230002023279667
  endloop
 endfacet
 facet normal -0.41115834506380106 0.88158136061958436 0.23186875574884727
  outer loop
   vertex 0.0032309999223798513 -0.38906800746917725 -0.020041000097990036
   vertex -0.0081089995801448822 -0.39558801054954529 -0.015359999611973763
   vertex -0.0035920001100748777 -0.39575299620628357 -0.0067230002023279667
  endloop
 endfacet
 facet normal -0.70029482051387737 -0.036167005032591827 0.71293696222626091
  outer loop
   vertex -0.0066370000131428242 -0.42393800616264343 -0.016572000458836555
   vertex 0.0082989996299147606 -0.41865798830986023 -0.0016329999780282378
   vertex -0.0042229997925460339 -0.40748199820518494 -0.013365999795496464
  endloop
 endfacet
 facet normal -0.77713501492225812 -0.2779751094503502 0.56461580486898122
  outer loop
   vertex -0.0042229997925460339 -0.40748199820518494 -0.013365999795496464
   vertex 0.0082989996299147606 -0.41865798830986023 -0.0016329999780282378
   vertex -0.0035920001100748777 -0.39575299620628357 -0.0067230002023279667
  endloop
 endfacet
 facet normal 0.027164177025175817 -0.78400860971374697 0.62015530908092875
  outer loop
   vertex 0.011537999846041203 -0.42962300777435303 -0.015636999160051346
   vertex 0.022329999133944511 -0.41668000817298889 0.00025300000561401248
   vertex 0.0082989996299147606 -0.41865798830986023 -0.0016329999780282378
  endloop
 endfacet
 facet normal -0.274566120374578 -0.78690000920108527 0.55263172281528017
  outer loop
   vertex -0.0066370000131428242 -0.42393800616264343 -0.016572000458836555
   vertex 0.011537999846041203 -0.42962300777435303 -0.015636999160051346
   vertex 0.0082989996299147606 -0.41865798830986023 -0.0016329999780282378
  endloop
 endfacet
 facet normal 0.28561065376669154 -0.82882033282204282 0.48112722886542297
  outer loop
   vertex 0.029416000470519066 -0.4225119948387146 -0.014000000432133675
   vertex 0.022329999133944511 -0.41668000817298889 0.00025300000561401248
   vertex 0.011537999846041203 -0.42962300777435303 -0.015636999160051346
  endloop
 endfacet
 facet normal -0.83333513819893823 0.52862314042726855 -0.16158627060418487
  outer loop
   vertex -0.0035920001100748777 -0.39575299620628357 -0.0067230002023279667
   vertex 0.0073250001296401024 -0.37544301152229309 0.003418999956920743
   vertex 0.0032309999223798513 -0.38906800746917725 -0.020041000097990036
  endloop
 endfacet
 facet normal -0.96138099044999048 0.11016429504031164 -0.25221106101768548
  outer loop
   vertex 0.013558999635279179 -0.37245801091194153 -0.019039999693632126
   vertex 0.0073250001296401024 -0.37544301152229309 0.003418999956920743
   vertex 0.013098999857902527 -0.33748599886894226 -0.002010999945923686
  endloop
 endfacet
 facet normal -0.95997283273093481 0.10912767759350761 -0.25795990076287484
  outer loop
   vertex 0.013098999857902527 -0.33748599886894226 -0.002010999945923686
   vertex 0.0073250001296401024 -0.37544301152229309 0.003418999956920743
   vertex 0.007689999882131815 -0.33654299378395081 0.01851700060069561
  endloop
 endfacet
 facet normal -0.83372330173602616 0.52812063955775068 -0.16122669200691156
  outer loop
   vertex 0.0032309999223798513 -0.38906800746917725 -0.020041000097990036
   vertex 0.0073250001296401024 -0.37544301152229309 0.003418999956920743
   vertex 0.013558999635279179 -0.37245801091194153 -0.019039999693632126
  endloop
 endfacet
 facet normal 0.71099652695281623 -0.008132591996298703 -0.70314849044028749
  outer loop
   vertex 0.02859799936413765 -0.33875098824501038 -0.0042229997925460339
   vertex 0.029999999329447746 -0.37907201051712036 -0.0023390001151710749
   vertex 0.013558999635279179 -0.37245801091194153 -0.019039999693632126
  endloop
 endfacet
 facet normal 0.73662899230754941 0.29754143745143385 -0.60732760573787414
  outer loop
   vertex 0.013558999635279179 -0.37245801091194153 -0.019039999693632126
   vertex 0.029999999329447746 -0.37907201051712036 -0.0023390001151710749
   vertex 0.035330001264810562 -0.41073799133300781 -0.011388000100851059
  endloop
 endfacet
 facet normal 0.98508521135774807 0.13550534978113712 0.10604445551254692
  outer loop
   vertex 0.035330001264810562 -0.41073799133300781 -0.011388000100851059
   vertex 0.029999999329447746 -0.37907201051712036 -0.0023390001151710749
   vertex 0.03257400169968605 -0.40149998664855957 0.0024089999496936798
  endloop
 endfacet
 facet normal 0.6864134352853174 -0.53341618256605705 0.49427095002282345
  outer loop
   vertex 0.022329999133944511 -0.41668000817298889 0.00025300000561401248
   vertex 0.035330001264810562 -0.41073799133300781 -0.011388000100851059
   vertex 0.03257400169968605 -0.40149998664855957 0.0024089999496936798
  endloop
 endfacet
 facet normal 0.6982244959536994 -0.47042397601838415 0.53961452541351884
  outer loop
   vertex 0.029416000470519066 -0.4225119948387146 -0.014000000432133675
   vertex 0.035330001264810562 -0.41073799133300781 -0.011388000100851059
   vertex 0.022329999133944511 -0.41668000817298889 0.00025300000561401248
  endloop
 endfacet
 facet normal -0.29150361841142652 -0.8646454641021496 0.40916239057448056
  outer loop
   vertex -0.013248000293970108 -0.42603200674057007 -0.025707000866532326
   vertex 0.011537999846041203 -0.42962300777435303 -0.015636999160051346
   vertex -0.0066370000131428242 -0.42393800616264343 -0.016572000458836555
  endloop
 endfacet
 facet normal -0.15728649402728453 0.90732111289835082 0.38990942138592022
  outer loop
   vertex -0.0081089995801448822 -0.39558801054954529 -0.015359999611973763
   vertex -0.012679999694228172 -0.39290899038314819 -0.023437999188899994
   vertex -0.018817000091075897 -0.39666000008583069 -0.017185000702738762
  endloop
 endfacet
 facet normal 0.17384466997601988 -0.97675040566261362 -0.1254459077006839
  outer loop
   vertex 0.0019409999949857593 -0.42901599407196045 -0.033663000911474228
   vertex 0.016775999218225479 -0.42712399363517761 -0.027836000546813011
   vertex 0.011537999846041203 -0.42962300777435303 -0.015636999160051346
  endloop
 endfacet
 facet normal -0.29908407749242666 0.8422257615050891 0.44855822503625647
  outer loop
   vertex 0.0032309999223798513 -0.38906800746917725 -0.020041000097990036
   vertex -0.012679999694228172 -0.39290899038314819 -0.023437999188899994
   vertex -0.0081089995801448822 -0.39558801054954529 -0.015359999611973763
  endloop
 endfacet
 facet normal 0.30701066055452431 -0.38369127359433058 -0.87093367191390381
  outer loop
   vertex -0.010708999820053577 -0.42101499438285828 -0.040215998888015747
   vertex 0.0088349999859929085 -0.40199699997901917 -0.041705001145601273
   vertex 0.016775999218225479 -0.42712399363517761 -0.027836000546813011
  endloop
 endfacet
 facet normal -0.10042534223167646 0.025329605037730789 -0.99462212007690798
  outer loop
   vertex -0.010708999820053577 -0.42101499438285828 -0.040215998888015747
   vertex -0.0067619998008012772 -0.39578500390052795 -0.039971999824047089
   vertex 0.0088349999859929085 -0.40199699997901917 -0.041705001145601273
  endloop
 endfacet
 facet normal 0.042526227277935785 0.36611066856919539 -0.92959910625673592
  outer loop
   vertex 0.0056159999221563339 -0.38701298832893372 -0.035950999706983566
   vertex 0.0088349999859929085 -0.40199699997901917 -0.041705001145601273
   vertex -0.0067619998008012772 -0.39578500390052795 -0.039971999824047089
  endloop
 endfacet
 facet normal -0.47893793664631995 0.81976221134276861 -0.31401969634941618
  outer loop
   vertex -0.012679999694228172 -0.39290899038314819 -0.023437999188899994
   vertex 0.0056159999221563339 -0.38701298832893372 -0.035950999706983566
   vertex -0.0067619998008012772 -0.39578500390052795 -0.039971999824047089
  endloop
 endfacet
 facet normal -0.35803335521843349 -0.86131460263168946 -0.36048477338778939
  outer loop
   vertex 0.0019409999949857593 -0.42901599407196045 -0.033663000911474228
   vertex -0.013248000293970108 -0.42603200674057007 -0.025707000866532326
   vertex -0.010708999820053577 -0.42101499438285828 -0.040215998888015747
  endloop
 endfacet
 facet normal -0.70121878714431929 0.71286087362029793 0.01102666845222831
  outer loop
   vertex -0.012679999694228172 -0.39290899038314819 -0.023437999188899994
   vertex -0.017643999308347702 -0.3975679874420166 -0.037914998829364777
   vertex -0.025854999199509621 -0.40583199262619019 -0.025818999856710434
  endloop
 endfacet
 facet normal 0.37800290304362799 -0.15052306990353118 -0.91348596634945967
  outer loop
   vertex -0.010708999820053577 -0.42101499438285828 -0.040215998888015747
   vertex 0.016775999218225479 -0.42712399363517761 -0.027836000546813011
   vertex 0.0019409999949857593 -0.42901599407196045 -0.033663000911474228
  endloop
 endfacet
 facet normal -0.2005690749352409 0.95054724423033221 -0.23713283759476048
  outer loop
   vertex -0.0067619998008012772 -0.39578500390052795 -0.039971999824047089
   vertex -0.017643999308347702 -0.3975679874420166 -0.037914998829364777
   vertex -0.012679999694228172 -0.39290899038314819 -0.023437999188899994
  endloop
 endfacet
 facet normal 0.52986579036076686 0.50363530157218583 -0.6823442878896645
  outer loop
   vertex 0.011652999557554722 -0.38873898983001709 -0.032536998391151428
   vertex 0.0056159999221563339 -0.38701298832893372 -0.035950999706983566
   vertex 0.013558999635279179 -0.37245801091194153 -0.019039999693632126
  endloop
 endfacet
 facet normal 0.75509844814735727 -0.24431279068284825 -0.60838934401763789
  outer loop
   vertex 0.016775999218225479 -0.42712399363517761 -0.027836000546813011
   vertex 0.035330001264810562 -0.41073799133300781 -0.011388000100851059
   vertex 0.029416000470519066 -0.4225119948387146 -0.014000000432133675
  endloop
 endfacet
 facet normal 0.37182149534235487 -0.92780594360781354 -0.030412277247680954
  outer loop
   vertex 0.011537999846041203 -0.42962300777435303 -0.015636999160051346
   vertex 0.016775999218225479 -0.42712399363517761 -0.027836000546813011
   vertex 0.029416000470519066 -0.4225119948387146 -0.014000000432133675
  endloop
 endfacet
 facet normal -0.092336783444331633 0.4349374173919619 -0.89571388365680971
  outer loop
   vertex 0.013558999635279179 -0.37245801091194153 -0.019039999693632126
   vertex 0.013098999857902527 -0.33748599886894226 -0.002010999945923686
   vertex 0.02859799936413765 -0.33875098824501038 -0.0042229997925460339
  endloop
 endfacet
 facet normal 0.72436540366353275 -0.14329288050762393 -0.67436037277645189
  outer loop
   vertex 0.016775999218225479 -0.42712399363517761 -0.027836000546813011
   vertex 0.0088349999859929085 -0.40199699997901917 -0.041705001145601273
   vertex 0.035330001264810562 -0.41073799133300781 -0.011388000100851059
  endloop
 endfacet
 facet normal -0.37800290304362799 0.15052306990353118 0.91348596634945967
  outer loop
   vertex 0.0019409999949857593 -0.42901599407196045 -0.033663000911474228
   vertex 0.016775999218225479 -0.42712399363517761 -0.027836000546813011
   vertex -0.010708999820053577 -0.42101499438285828 -0.040215998888015747
  endloop
 endfacet
 facet normal 0.78231891777084483 0.34069433557291545 -0.52144460933677705
  outer loop
   vertex 0.035330001264810562 -0.41073799133300781 -0.011388000100851059
   vertex 0.011652999557554722 -0.38873898983001709 -0.032536998391151428
   vertex 0.013558999635279179 -0.37245801091194153 -0.019039999693632126
  endloop
 endfacet
 facet normal -0.25126021886193112 0.96401506670244497 0.086851906070822146
  outer loop
   vertex 0.0032309999223798513 -0.38906800746917725 -0.020041000097990036
   vertex 0.0056159999221563339 -0.38701298832893372 -0.035950999706983566
   vertex -0.012679999694228172 -0.39290899038314819 -0.023437999188899994
  endloop
 endfacet
 facet normal -0.84618570392319803 0.52967480351355034 -0.058432499509119946
  outer loop
   vertex 0.0056159999221563339 -0.38701298832893372 -0.035950999706983566
   vertex 0.0032309999223798513 -0.38906800746917725 -0.020041000097990036
   vertex 0.013558999635279179 -0.37245801091194153 -0.019039999693632126
  endloop
 endfacet
 facet normal -0.84618570392319803 0.52967480351355034 -0.058432499509119946
  outer loop
   vertex 0.0056159999221563339 -0.38701298832893372 -0.035950999706983566
   vertex 0.0032309999223798513 -0.38906800746917725 -0.020041000097990036
   vertex 0.013558999635279179 -0.37245801091194153 -0.019039999693632126
  endloop
 endfacet
 facet normal 0.53513042675385636 0.40057199497239071 -0.74375903571390289
  outer loop
   vertex 0.0088349999859929085 -0.40199699997901917 -0.041705001145601273
   vertex 0.0056159999221563339 -0.38701298832893372 -0.035950999706983566
   vertex 0.011652999557554722 -0.38873898983001709 -0.032536998391151428
  endloop
 endfacet
 facet normal -0.99858585666177624 0.007407980982604233 -0.052644170549336691
  outer loop
   vertex -0.022800000384449959 -0.40280300378799438 0.015178999863564968
   vertex -0.023009000346064568 -0.41368600726127625 0.017612000927329063
   vertex -0.023439999669790268 -0.40192100405693054 0.027442999184131622
  endloop
 endfacet
 facet normal -0.88158534499677199 -0.086796144883702575 -0.4639759786026102
  outer loop
   vertex -0.01742899976670742 -0.41180101037025452 0.0066570001654326916
   vertex -0.023009000346064568 -0.41368600726127625 0.017612000927329063
   vertex -0.022800000384449959 -0.40280300378799438 0.015178999863564968
  endloop
 endfacet
 facet normal -0.55105484147665007 0.37641844547907244 -0.74474674594002921
  outer loop
   vertex -0.014681999571621418 -0.39172199368476868 0.014773000031709671
   vertex -0.01742899976670742 -0.41180101037025452 0.0066570001654326916
   vertex -0.022800000384449959 -0.40280300378799438 0.015178999863564968
  endloop
 endfacet
 facet normal -0.80528722244535167 0.58687111342305831 -0.084230550252448438
  outer loop
   vertex -0.014681999571621418 -0.39172199368476868 0.014773000031709671
   vertex -0.022800000384449959 -0.40280300378799438 0.015178999863564968
   vertex -0.023439999669790268 -0.40192100405693054 0.027442999184131622
  endloop
 endfacet
 facet normal -0.34586462681209101 -0.90988919382359468 -0.22908364167522322
  outer loop
   vertex 0.0085960002616047859 -0.42518499493598938 0.015568000264465809
   vertex -0.0072079999372363091 -0.42360299825668335 0.033144999295473099
   vertex -0.023009000346064568 -0.41368600726127625 0.017612000927329063
  endloop
 endfacet
 facet normal -0.34179078979594091 -0.88150549235468945 -0.32577158095693926
  outer loop
   vertex 0.0085960002616047859 -0.42518499493598938 0.015568000264465809
   vertex -0.023009000346064568 -0.41368600726127625 0.017612000927329063
   vertex -0.01742899976670742 -0.41180101037025452 0.0066570001654326916
  endloop
 endfacet
 facet normal -0.67117111124390472 0.73080095686077218 0.12433543695584887
  outer loop
   vertex -0.015598000027239323 -0.39492899179458618 0.028677999973297119
   vertex -0.014681999571621418 -0.39172199368476868 0.014773000031709671
   vertex -0.023439999669790268 -0.40192100405693054 0.027442999184131622
  endloop
 endfacet
 facet normal -0.34768166402452055 0.91838487885867748 0.1889091707272903
  outer loop
   vertex -0.015598000027239323 -0.39492899179458618 0.028677999973297119
   vertex -0.0010750000365078449 -0.38638800382614136 0.013884999789297581
   vertex -0.014681999571621418 -0.39172199368476868 0.014773000031709671
  endloop
 endfacet
 facet normal -0.6474673732151015 0.73165966251784353 -0.21321383366520008
  outer loop
   vertex 0.0059310002252459526 -0.37697100639343262 0.024924999102950096
   vertex -0.0010750000365078449 -0.38638800382614136 0.013884999789297581
   vertex -0.015598000027239323 -0.39492899179458618 0.028677999973297119
  endloop
 endfacet
 facet normal -0.69539105946620561 0.68243727144370214 -0.22519024170452551
  outer loop
   vertex -0.0069800000637769699 -0.39615398645401001 0.0025239998940378428
   vertex -0.0010750000365078449 -0.38638800382614136 0.013884999789297581
   vertex -0.0035920001100748777 -0.39575299620628357 -0.0067230002023279667
  endloop
 endfacet
 facet normal -0.73702776375134793 0.33751515180466324 -0.58555409465049646
  outer loop
   vertex -0.0069800000637769699 -0.39615398645401001 0.0025239998940378428
   vertex -0.01742899976670742 -0.41180101037025452 0.0066570001654326916
   vertex -0.014681999571621418 -0.39172199368476868 0.014773000031709671
  endloop
 endfacet
 facet normal -0.34368489757750265 0.79299545832204921 -0.50302971508425287
  outer loop
   vertex -0.0069800000637769699 -0.39615398645401001 0.0025239998940378428
   vertex -0.014681999571621418 -0.39172199368476868 0.014773000031709671
   vertex -0.0010750000365078449 -0.38638800382614136 0.013884999789297581
  endloop
 endfacet
 facet normal -0.31594978295919784 -0.039403576209596898 -0.94795732648148778
  outer loop
   vertex -0.0069800000637769699 -0.39615398645401001 0.0025239998940378428
   vertex 0.0082989996299147606 -0.41865798830986023 -0.0016329999780282378
   vertex -0.01742899976670742 -0.41180101037025452 0.0066570001654326916
  endloop
 endfacet
 facet normal -0.8436741702092152 0.52004742770265178 -0.13328378544161831
  outer loop
   vertex -0.0010750000365078449 -0.38638800382614136 0.013884999789297581
   vertex 0.0073250001296401024 -0.37544301152229309 0.003418999956920743
   vertex -0.0035920001100748777 -0.39575299620628357 -0.0067230002023279667
  endloop
 endfacet
 facet normal -0.79731398123461306 0.60350056224202187 -0.0088026530872662018
  outer loop
   vertex 0.0059310002252459526 -0.37697100639343262 0.024924999102950096
   vertex 0.0073250001296401024 -0.37544301152229309 0.003418999956920743
   vertex -0.0010750000365078449 -0.38638800382614136 0.013884999789297581
  endloop
 endfacet
 facet normal -0.99749568584834336 0.033529710795903347 -0.062274514914900186
  outer loop
   vertex 0.0073250001296401024 -0.37544301152229309 0.003418999956920743
   vertex 0.0059310002252459526 -0.37697100639343262 0.024924999102950096
   vertex 0.007689999882131815 -0.33654299378395081 0.01851700060069561
  endloop
 endfacet
 facet normal 0.18503642862377506 -0.091374693715693484 0.97847441736129293
  outer loop
   vertex 0.03203200176358223 -0.3805060088634491 0.019658999517560005
   vertex 0.022141000255942345 -0.33996900916099548 0.025314999744296074
   vertex 0.0059310002252459526 -0.37697100639343262 0.024924999102950096
  endloop
 endfacet
 facet normal 0.17687495716153601 -0.91919468985451269 -0.35184708563859268
  outer loop
   vertex 0.0085960002616047859 -0.42518499493598938 0.015568000264465809
   vertex 0.0082989996299147606 -0.41865798830986023 -0.0016329999780282378
   vertex 0.022329999133944511 -0.41668000817298889 0.00025300000561401248
  endloop
 endfacet
 facet normal -0.38868285200186486 0.16071354643302013 0.90724682228852027
  outer loop
   vertex 0.007689999882131815 -0.33654299378395081 0.01851700060069561
   vertex 0.0059310002252459526 -0.37697100639343262 0.024924999102950096
   vertex 0.022141000255942345 -0.33996900916099548 0.025314999744296074
  endloop
 endfacet
 facet normal 0.96718111203777846 0.021801322115224838 -0.25315094088585677
  outer loop
   vertex 0.02859799936413765 -0.33875098824501038 -0.0042229997925460339
   vertex 0.034582000225782394 -0.34005498886108398 0.018526999279856682
   vertex 0.029999999329447746 -0.37907201051712036 -0.0023390001151710749
  endloop
 endfacet
 facet normal 0.99323672475164271 -0.065299436550867035 -0.096004125904926491
  outer loop
   vertex 0.034582000225782394 -0.34005498886108398 0.018526999279856682
   vertex 0.03203200176358223 -0.3805060088634491 0.019658999517560005
   vertex 0.029999999329447746 -0.37907201051712036 -0.0023390001151710749
  endloop
 endfacet
 facet normal 0.99173832316622734 0.095747026896326137 -0.085367471579953599
  outer loop
   vertex 0.029999999329447746 -0.37907201051712036 -0.0023390001151710749
   vertex 0.03203200176358223 -0.3805060088634491 0.019658999517560005
   vertex 0.03257400169968605 -0.40149998664855957 0.0024089999496936798
  endloop
 endfacet
 facet normal 0.47892337959763065 -0.0056250814600954449 0.8778386838897857
  outer loop
   vertex 0.034582000225782394 -0.34005498886108398 0.018526999279856682
   vertex 0.022141000255942345 -0.33996900916099548 0.025314999744296074
   vertex 0.03203200176358223 -0.3805060088634491 0.019658999517560005
  endloop
 endfacet
 facet normal 0.23100212597506645 0.35781376910152529 0.90476921059260185
  outer loop
   vertex 0.03203200176358223 -0.3805060088634491 0.019658999517560005
   vertex 0.0059310002252459526 -0.37697100639343262 0.024924999102950096
   vertex 0.014189000241458416 -0.40459701418876648 0.033741999417543411
  endloop
 endfacet
 facet normal 0.433391128723013 0.19353939810947854 0.88017874941605678
  outer loop
   vertex 0.038084998726844788 -0.40324699878692627 0.021679000928997993
   vertex 0.03203200176358223 -0.3805060088634491 0.019658999517560005
   vertex 0.014189000241458416 -0.40459701418876648 0.033741999417543411
  endloop
 endfacet
 facet normal 0.075257157178868092 -0.98483759460322506 0.15630506245636647
  outer loop
   vertex 0.026238000020384789 -0.42248401045799255 0.024091999977827072
   vertex -0.0072079999372363091 -0.42360299825668335 0.033144999295473099
   vertex 0.0085960002616047859 -0.42518499493598938 0.015568000264465809
  endloop
 endfacet
 facet normal 0.94098856320879043 -0.18162054490358009 -0.28557748787182552
  outer loop
   vertex 0.03257400169968605 -0.40149998664855957 0.0024089999496936798
   vertex 0.038084998726844788 -0.40324699878692627 0.021679000928997993
   vertex 0.033574998378753662 -0.4114919900894165 0.01206200011074543
  endloop
 endfacet
 facet normal 0.74117411960988488 -0.42654462172643887 -0.51838268691842049
  outer loop
   vertex 0.022329999133944511 -0.41668000817298889 0.00025300000561401248
   vertex 0.03257400169968605 -0.40149998664855957 0.0024089999496936798
   vertex 0.033574998378753662 -0.4114919900894165 0.01206200011074543
  endloop
 endfacet
 facet normal 0.47277321163396963 -0.87885033839350568 -0.064090350809793903
  outer loop
   vertex 0.022329999133944511 -0.41668000817298889 0.00025300000561401248
   vertex 0.033574998378753662 -0.4114919900894165 0.01206200011074543
   vertex 0.0085960002616047859 -0.42518499493598938 0.015568000264465809
  endloop
 endfacet
 facet normal 0.36166830892772805 -0.78752605924985308 -0.49899773578619999
  outer loop
   vertex 0.033574998378753662 -0.4114919900894165 0.01206200011074543
   vertex 0.026238000020384789 -0.42248401045799255 0.024091999977827072
   vertex 0.0085960002616047859 -0.42518499493598938 0.015568000264465809
  endloop
 endfacet
 facet normal 0.43727259756482567 0.38943039634143423 0.81063964979777769
  outer loop
   vertex 0.0059310002252459526 -0.37697100639343262 0.024924999102950096
   vertex -0.003949000034481287 -0.39084398746490479 0.036919001489877701
   vertex 0.014189000241458416 -0.40459701418876648 0.033741999417543411
  endloop
 endfacet
 facet normal -0.54357165345521585 0.73599650625329038 0.40353314652319822
  outer loop
   vertex -0.003949000034481287 -0.39084398746490479 0.036919001489877701
   vertex 0.0059310002252459526 -0.37697100639343262 0.024924999102950096
   vertex -0.015598000027239323 -0.39492899179458618 0.028677999973297119
  endloop
 endfacet
 facet normal -0.9746594120940002 -0.16338129540933899 0.1527926134567506
  outer loop
   vertex -0.023009000346064568 -0.41368600726127625 0.017612000927329063
   vertex -0.020617000758647919 -0.4158720076084137 0.030533000826835632
   vertex -0.023439999669790268 -0.40192100405693054 0.027442999184131622
  endloop
 endfacet
 facet normal -0.59176231292371495 0.066869097310935141 0.80333423232674195
  outer loop
   vertex -0.003949000034481287 -0.39084398746490479 0.036919001489877701
   vertex -0.015598000027239323 -0.39492899179458618 0.028677999973297119
   vertex -0.0042489999905228615 -0.40518799424171448 0.037891998887062073
  endloop
 endfacet
 facet normal -0.41283836464522383 0.31187492064836619 0.85574442361468683
  outer loop
   vertex -0.0042489999905228615 -0.40518799424171448 0.037891998887062073
   vertex -0.015598000027239323 -0.39492899179458618 0.028677999973297119
   vertex -0.023439999669790268 -0.40192100405693054 0.027442999184131622
  endloop
 endfacet
 facet normal -0.29414336646815897 -0.19398302779047627 0.93586872203959137
  outer loop
   vertex -0.020617000758647919 -0.4158720076084137 0.030533000826835632
   vertex -0.0072079999372363091 -0.42360299825668335 0.033144999295473099
   vertex -0.0042489999905228615 -0.40518799424171448 0.037891998887062073
  endloop
 endfacet
 facet normal -0.46232594798836779 0.10155264598074679 0.88087557459096688
  outer loop
   vertex -0.020617000758647919 -0.4158720076084137 0.030533000826835632
   vertex -0.0042489999905228615 -0.40518799424171448 0.037891998887062073
   vertex -0.023439999669790268 -0.40192100405693054 0.027442999184131622
  endloop
 endfacet
 facet normal 0.21945265144297729 -0.27644996443516728 0.93563665540552754
  outer loop
   vertex 0.014189000241458416 -0.40459701418876648 0.033741999417543411
   vertex -0.0042489999905228615 -0.40518799424171448 0.037891998887062073
   vertex -0.0072079999372363091 -0.42360299825668335 0.033144999295473099
  endloop
 endfacet
 facet normal 0.2172913734762601 0.0615359980539259 0.97416517077768061
  outer loop
   vertex -0.003949000034481287 -0.39084398746490479 0.036919001489877701
   vertex -0.0042489999905228615 -0.40518799424171448 0.037891998887062073
   vertex 0.014189000241458416 -0.40459701418876648 0.033741999417543411
  endloop
 endfacet
 facet normal 0.94130357913438556 0.22847557711297153 -0.24848839524551233
  outer loop
   vertex 0.03257400169968605 -0.40149998664855957 0.0024089999496936798
   vertex 0.03203200176358223 -0.3805060088634491 0.019658999517560005
   vertex 0.038084998726844788 -0.40324699878692627 0.021679000928997993
  endloop
 endfacet
 facet normal 0.94130357913438556 0.22847557711297153 -0.24848839524551233
  outer loop
   vertex 0.03257400169968605 -0.40149998664855957 0.0024089999496936798
   vertex 0.03203200176358223 -0.3805060088634491 0.019658999517560005
   vertex 0.038084998726844788 -0.40324699878692627 0.021679000928997993
  endloop
 endfacet
 facet normal -0.49042877872112767 -0.86965822568505513 -0.056339892619926564
  outer loop
   vertex -0.0072079999372363091 -0.42360299825668335 0.033144999295473099
   vertex -0.020617000758647919 -0.4158720076084137 0.030533000826835632
   vertex -0.023009000346064568 -0.41368600726127625 0.017612000927329063
  endloop
 endfacet
 facet normal 0.85313949963475755 -0.51969784841111988 0.045465817047624493
  outer loop
   vertex 0.033574998378753662 -0.4114919900894165 0.01206200011074543
   vertex 0.038084998726844788 -0.40324699878692627 0.021679000928997993
   vertex 0.026238000020384789 -0.42248401045799255 0.024091999977827072
  endloop
 endfacet
 facet normal 0.45177885453654942 -0.16833082832382912 0.87610535829285774
  outer loop
   vertex 0.026238000020384789 -0.42248401045799255 0.024091999977827072
   vertex 0.038084998726844788 -0.40324699878692627 0.021679000928997993
   vertex 0.014189000241458416 -0.40459701418876648 0.033741999417543411
  endloop
 endfacet
 facet normal 0.25757332543913797 -0.31863054742908903 0.91221190316025969
  outer loop
   vertex 0.026238000020384789 -0.42248401045799255 0.024091999977827072
   vertex 0.014189000241458416 -0.40459701418876648 0.033741999417543411
   vertex -0.0072079999372363091 -0.42360299825668335 0.033144999295473099
  endloop
 endfacet
 facet normal -0.34061688295312431 -0.88098027285537506 -0.32841117198866232
  outer loop
   vertex 0.0085960002616047859 -0.42518499493598938 0.015568000264465809
   vertex -0.01742899976670742 -0.41180101037025452 0.0066570001654326916
   vertex 0.0082989996299147606 -0.41865798830986023 -0.0016329999780282378
  endloop
 endfacet
 facet normal 0.27768447471304353 -0.12342069856777405 -0.95271121735202835
  outer loop
   vertex 0.01322299987077713 0.0083630001172423363 -0.016909999772906303
   vertex 0.0035560000687837601 -0.019732000306248665 -0.016087999567389488
   vertex -8.4999999671708792e-05 0.0090279998257756233 -0.020874999463558197
  endloop
 endfacet
 facet normal 0.4487037348297192 0.44078923244107143 -0.77741225287094107
  outer loop
   vertex 0.0058780000545084476 0.016241999343037605 -0.016682000830769539
   vertex 0.015147999860346317 0.014049000106751919 -0.012574999593198299
   vertex 0.01322299987077713 0.0083630001172423363 -0.016909999772906303
  endloop
 endfacet
 facet normal 0.058589863767638473 0.46500926474881071 -0.8833649367964862
  outer loop
   vertex -8.4999999671708792e-05 0.0090279998257756233 -0.020874999463558197
   vertex -0.0048219999298453331 0.015112999826669693 -0.017985999584197998
   vertex 0.0058780000545084476 0.016241999343037605 -0.016682000830769539
  endloop
 endfacet
 facet normal -0.54950223403210241 0.52777535744169357 -0.64768855700175931
  outer loop
   vertex -0.013113999739289284 0.0033110000658780336 -0.0205680001527071
   vertex -0.015467000193893909 0.015633000060915947 -0.0085310004651546478
   vertex -0.0048219999298453331 0.015112999826669693 -0.017985999584197998
  endloop
 endfacet
 facet normal 0.3149586643208665 0.83373788301039609 -0.45352197543510392
  outer loop
   vertex 0.0035689999349415302 0.021949000656604767 -0.0077940002083778381
   vertex 0.010502999648451805 0.019402999430894852 -0.0076589998789131641
   vertex 0.0058780000545084476 0.016241999343037605 -0.016682000830769539
  endloop
 endfacet
 facet normal 0.64691020066850768 0.73789715459785654 -0.19239277924968567
  outer loop
   vertex 0.015147999860346317 0.014049000106751919 -0.012574999593198299
   vertex 0.010502999648451805 0.019402999430894852 -0.0076589998789131641
   vertex 0.020854000002145767 0.012846999801695347 0.002001000102609396
  endloop
 endfacet
 facet normal -0.62790675265407114 0.77827406140883515 0.0047534523891368981
  outer loop
   vertex -0.015467000193893909 0.015633000060915947 -0.0085310004651546478
   vertex -0.019054999575018883 0.012640000320971012 0.0075509999878704548
   vertex -0.0070620002225041389 0.022360000759363174 0.00032699998700991273
  endloop
 endfacet
 facet normal -0.55421882625705265 -0.095031544236212989 -0.82692835132333908
  outer loop
   vertex -0.023660000413656235 0.00096700002904981375 -0.0061639999039471149
   vertex -0.0083659999072551727 -0.019571000710129738 -0.014054000377655029
   vertex -0.020883999764919281 -0.012612000107765198 -0.0064639998599886894
  endloop
 endfacet
 facet normal -0.97561765362344322 -0.19732595900712441 -0.096086730822762326
  outer loop
   vertex -0.020883999764919281 -0.012612000107765198 -0.0064639998599886894
   vertex -0.02322000078856945 -0.0066889999434351921 0.0050909998826682568
   vertex -0.023660000413656235 0.00096700002904981375 -0.0061639999039471149
  endloop
 endfacet
 facet normal -0.94547605787560629 0.20827729764387995 0.25039087697071988
  outer loop
   vertex -0.030773000791668892 -0.0034370000939816236 0.051281001418828964
   vertex -0.03462500125169754 -0.00016599999798927456 0.034014999866485596
   vertex -0.03265799954533577 -0.019883999601006508 0.057844001799821854
  endloop
 endfacet
 facet normal -0.67916124115297838 0.11358343703556566 0.7251474411088642
  outer loop
   vertex -0.0097390003502368927 -0.033799998462200165 0.063565000891685486
   vertex -0.038872998207807541 -0.035551998764276505 0.036552999168634415
   vertex -0.028167000040411949 -0.055362001061439514 0.049683000892400742
  endloop
 endfacet
 facet normal -0.51935994643423533 -0.60884015020098303 0.59964899528230053
  outer loop
   vertex -0.038872998207807541 -0.035551998764276505 0.036552999168634415
   vertex -0.0097390003502368927 -0.033799998462200165 0.063565000891685486
   vertex -0.03265799954533577 -0.019883999601006508 0.057844001799821854
  endloop
 endfacet
 facet normal 0.76227963622225015 -0.015010115468863409 0.64707376135529215
  outer loop
   vertex -0.00013299999409355223 -0.017751999199390411 0.05262099951505661
   vertex -0.0097390003502368927 -0.033799998462200165 0.063565000891685486
   vertex -0.0048039997927844524 -0.033082999289035797 0.057767998427152634
  endloop
 endfacet
 facet normal 0.92299633349448329 -0.23798600520764118 0.30239118651351127
  outer loop
   vertex -0.0048039997927844524 -0.033082999289035797 0.057767998427152634
   vertex 0.001888000057078898 -0.050436999648809433 0.023684000596404076
   vertex 0.0067270002327859402 -0.021807000041007996 0.031445998698472977
  endloop
 endfacet
 facet normal 0.95591650559303054 -0.085399175799920166 -0.2809459291527534
  outer loop
   vertex 0.001888000057078898 -0.050436999648809433 0.023684000596404076
   vertex 0.0010639999527484179 -0.037654999643564224 0.016994999721646309
   vertex 0.0067270002327859402 -0.021807000041007996 0.031445998698472977
  endloop
 endfacet
 facet normal 0.78124614150166438 0.17042182626239766 0.60050884050291109
  outer loop
   vertex -0.014969999901950359 -0.036348000168800354 0.011293999850749969
   vertex -0.011075000278651714 -0.021154999732971191 0.0019150000298395753
   vertex -0.017036000266671181 -0.015847999602556229 0.0081639997661113739
  endloop
 endfacet
 facet normal 0.90749451509403911 -0.40258423040884322 -0.11991514708473658
  outer loop
   vertex 0.0010639999527484179 -0.037654999643564224 0.016994999721646309
   vertex 0.007431000005453825 -0.021097000688314438 0.0095899999141693115
   vertex 0.0099219996482133865 -0.017790000885725021 0.017339000478386879
  endloop
 endfacet
 facet normal -0.62541568813716752 0.489963720401765 -0.60728145840456405
  outer loop
   vertex -0.014969999901950359 -0.036348000168800354 0.011293999850749969
   vertex -0.029303999617695808 -0.050556998699903488 0.014592000283300877
   vertex -0.038872998207807541 -0.035551998764276505 0.036552999168634415
  endloop
 endfacet
 facet normal 0.26234715748641907 -0.0052759724554462253 -0.96495913544224521
  outer loop
   vertex -0.038872998207807541 -0.035551998764276505 0.036552999168634415
   vertex -0.038100998848676682 -0.020757999271154404 0.036681998521089554
   vertex -0.023914000019431114 -0.020013000816106796 0.040534999221563339
  endloop
 endfacet
 facet normal 0.68672181056374448 -0.06951538336153959 -0.72358881028671995
  outer loop
   vertex -0.010320999659597874 -0.052184000611305237 0.017045000568032265
   vertex -0.018704000860452652 -0.059083998203277588 0.0097519997507333755
   vertex -0.021112000569701195 -0.052592001855373383 0.0068430001847445965
  endloop
 endfacet
 facet normal -0.14563146119816023 0.015404243079212119 -0.98921897818655147
  outer loop
   vertex -0.015961999073624611 -0.076563999056816101 0.025905000045895576
   vertex 0.001888000057078898 -0.050436999648809433 0.023684000596404076
   vertex 0.010552999563515186 -0.11679600179195404 0.021375000476837158
  endloop
 endfacet
 facet normal -0.19183782169776589 0.039494945000597158 -0.98063163292117816
  outer loop
   vertex -0.0067619998008012772 -0.39578500390052795 -0.039971999824047089
   vertex -0.010708999820053577 -0.42101499438285828 -0.040215998888015747
   vertex -0.017643999308347702 -0.3975679874420166 -0.037914998829364777
  endloop
 endfacet
 facet normal -0.76080480450076737 -0.16338873127230386 -0.62807656534993894
  outer loop
   vertex -0.017643999308347702 -0.3975679874420166 -0.037914998829364777
   vertex -0.010708999820053577 -0.42101499438285828 -0.040215998888015747
   vertex -0.025854999199509621 -0.40583199262619019 -0.025818999856710434
  endloop
 endfacet
 facet normal -0.19051499257271304 0.32754830214091279 0.92542754841728392
  outer loop
   vertex -0.018817000091075897 -0.39666000008583069 -0.017185000702738762
   vertex -0.01917400024831295 -0.40637201070785522 -0.01382100023329258
   vertex -0.0081089995801448822 -0.39558801054954529 -0.015359999611973763
  endloop
 endfacet
 facet normal -0.68472017342663594 -0.42405319526548535 0.59273701730846029
  outer loop
   vertex -0.025854999199509621 -0.40583199262619019 -0.025818999856710434
   vertex -0.013248000293970108 -0.42603200674057007 -0.025707000866532326
   vertex -0.0066370000131428242 -0.42393800616264343 -0.016572000458836555
  endloop
 endfacet
 facet normal 0.7636670703703422 0.24945397162508168 -0.59547067238651807
  outer loop
   vertex 0.035330001264810562 -0.41073799133300781 -0.011388000100851059
   vertex 0.0088349999859929085 -0.40199699997901917 -0.041705001145601273
   vertex 0.011652999557554722 -0.38873898983001709 -0.032536998391151428
  endloop
 endfacet
 facet normal -0.16486596033226583 -0.98480291561324096 0.054611651901218902
  outer loop
   vertex 0.0019409999949857593 -0.42901599407196045 -0.033663000911474228
   vertex 0.011537999846041203 -0.42962300777435303 -0.015636999160051346
   vertex -0.013248000293970108 -0.42603200674057007 -0.025707000866532326
  endloop
 endfacet
 facet normal -0.81059196296019065 -0.49154941559858212 -0.31830777811583105
  outer loop
   vertex -0.0035920001100748777 -0.39575299620628357 -0.0067230002023279667
   vertex 0.0082989996299147606 -0.41865798830986023 -0.0016329999780282378
   vertex -0.0069800000637769699 -0.39615398645401001 0.0025239998940378428
  endloop
 endfacet
endsolid
