solid Visualization Toolkit generated SLA File
 facet normal -0.92210882357176471 -0.3465028282658319 -0.17219496942383575
  outer loop
   vertex 0.0010290000354871154 -0.12311799824237823 0.011369000189006329
   vertex 0.001408000010997057 -0.12242999672889709 0.0079549998044967651
   vertex 0.0037010000087320805 -0.12920099496841431 0.0093010002747178078
  endloop
 endfacet
 facet normal -0.82748839800103913 -0.17364008364151132 -0.53395886782283397
  outer loop
   vertex -0.0018500000005587935 -0.11714699864387512 0.011285999789834023
   vertex 6.1999999161344022e-05 -0.11570499837398529 0.0078539997339248657
   vertex 0.001408000010997057 -0.12242999672889709 0.0079549998044967651
  endloop
 endfacet
 facet normal 0.18284563314305813 0.0053203729208637857 0.98312723900444199
  outer loop
   vertex 0.0044249999336898327 -0.12914200127124786 0.010769999586045742
   vertex 0.0010290000354871154 -0.12311799824237823 0.011369000189006329
   vertex -0.0020949998870491982 -0.12015900015830994 0.011934000067412853
  endloop
 endfacet
 facet normal -0.85806138685278588 -0.40941679116942908 0.31001378598507817
  outer loop
   vertex 0.0010290000354871154 -0.12311799824237823 0.011369000189006329
   vertex -0.0029619999695569277 -0.11382299661636353 0.012597999535501003
   vertex -0.0018500000005587935 -0.11714699864387512 0.011285999789834023
  endloop
 endfacet
 facet normal -0.58787465426714824 -0.24778000749800003 0.770070424542179
  outer loop
   vertex 0.001408000010997057 -0.12242999672889709 0.0079549998044967651
   vertex -0.00092199997743591666 -0.12162899971008301 0.0064340000972151756
   vertex 0.0015790000325068831 -0.12768399715423584 0.0063950000330805779
  endloop
 endfacet
 facet normal -0.77318251769278534 -0.023482655447357871 0.63374865619375209
  outer loop
   vertex 6.1999999161344022e-05 -0.11570499837398529 0.0078539997339248657
   vertex -0.0013909999979659915 -0.11482299864292145 0.0061139999888837337
   vertex -0.00092199997743591666 -0.12162899971008301 0.0064340000972151756
  endloop
 endfacet
 facet normal 0.69535717785942386 -0.28834564745188623 -0.65828199336980964
  outer loop
   vertex 0.0037010000087320805 -0.12920099496841431 0.0093010002747178078
   vertex -0.00070700002834200859 -0.13348899781703949 0.0065230000764131546
   vertex 0.0015790000325068831 -0.12768399715423584 0.0063950000330805779
  endloop
 endfacet
 facet normal 0.75714496058637371 -0.55091271300456601 -0.35103659539798315
  outer loop
   vertex 0.0044249999336898327 -0.12914200127124786 0.010769999586045742
   vertex -0.00070700002834200859 -0.13348899781703949 0.0065230000764131546
   vertex 0.0037010000087320805 -0.12920099496841431 0.0093010002747178078
  endloop
 endfacet
 facet normal 0.64018845961559856 -0.76811443771722654 0.012607408352071681
  outer loop
   vertex -0.00070700002834200859 -0.13348899781703949 0.0065230000764131546
   vertex 0.0044249999336898327 -0.12914200127124786 0.010769999586045742
   vertex -0.00036000000545755029 -0.13314099609851837 0.010104999877512455
  endloop
 endfacet
 facet normal -0.025419422269068834 -0.134315041462644 0.99061259966164117
  outer loop
   vertex -0.00036000000545755029 -0.13314099609851837 0.010104999877512455
   vertex 0.0044249999336898327 -0.12914200127124786 0.010769999586045742
   vertex -0.00052699999650940299 -0.12636099755764008 0.011020000092685223
  endloop
 endfacet
 facet normal -0.95112818769968055 -0.17347312396176748 -0.25546476435325988
  outer loop
   vertex -0.00203699991106987 -0.10982199758291245 0.011673999950289726
   vertex -0.0013879999751225114 -0.1088239997625351 0.008580000139772892
   vertex 6.1999999161344022e-05 -0.11570499837398529 0.0078539997339248657
  endloop
 endfacet
 facet normal 0.82158691264397055 -0.0092186747782441857 0.57000873765889037
  outer loop
   vertex -0.0030070000793784857 -0.107355996966362 0.013112000189721584
   vertex -0.0018500000005587935 -0.11714699864387512 0.011285999789834023
   vertex -0.00203699991106987 -0.10982199758291245 0.011673999950289726
  endloop
 endfacet
 facet normal -0.96319844269911237 -0.10178205383785807 0.24877534744936461
  outer loop
   vertex -0.0013879999751225114 -0.1088239997625351 0.008580000139772892
   vertex -0.0021750000305473804 -0.10813699662685394 0.0058140000328421593
   vertex -0.0013909999979659915 -0.11482299864292145 0.0061139999888837337
  endloop
 endfacet
 facet normal -0.37176300828856312 -0.22665869064120006 0.9002322498250408
  outer loop
   vertex -0.0048569999635219574 -0.12024000287055969 0.010773000307381153
   vertex -0.00052699999650940299 -0.12636099755764008 0.011020000092685223
   vertex -0.0020949998870491982 -0.12015900015830994 0.011934000067412853
  endloop
 endfacet
 facet normal -0.42806509820325783 -0.15193793408995698 0.89088446831489398
  outer loop
   vertex -0.0061820000410079956 -0.11381600052118301 0.01105200033634901
   vertex -0.0020949998870491982 -0.12015900015830994 0.011934000067412853
   vertex -0.0029619999695569277 -0.11382299661636353 0.012597999535501003
  endloop
 endfacet
 facet normal -0.048291456250863715 -0.13475544016909319 0.98970142295442054
  outer loop
   vertex -0.00052699999650940299 -0.12636099755764008 0.011020000092685223
   vertex -0.0030439998954534531 -0.12656800448894501 0.010869000107049942
   vertex -0.00036000000545755029 -0.13314099609851837 0.010104999877512455
  endloop
 endfacet
 facet normal -0.25095290676545662 -0.078430394831969535 0.96481672443654787
  outer loop
   vertex -0.0067739998921751976 -0.10734599828720093 0.012133000418543816
   vertex -0.0029619999695569277 -0.11382299661636353 0.012597999535501003
   vertex -0.0030070000793784857 -0.107355996966362 0.013112000189721584
  endloop
 endfacet
 facet normal -0.83268568817276545 -0.50354218916173787 0.23039055633088085
  outer loop
   vertex -0.00092199997743591666 -0.12162899971008301 0.0064340000972151756
   vertex -0.0011269999668002129 -0.12376300245523453 0.0010290000354871154
   vertex 0.0023660000879317522 -0.12961700558662415 0.00085900002159178257
  endloop
 endfacet
 facet normal -0.76559208290608693 -0.33500033833570625 0.54922084438455332
  outer loop
   vertex -0.0013909999979659915 -0.11482299864292145 0.0061139999888837337
   vertex -0.0035790000110864639 -0.11721500009298325 0.0016049999976530671
   vertex -0.0011269999668002129 -0.12376300245523453 0.0010290000354871154
  endloop
 endfacet
 facet normal 0.81243833062019899 -0.50479856107664789 0.29175738495196668
  outer loop
   vertex 0.0015790000325068831 -0.12768399715423584 0.0063950000330805779
   vertex -0.0012100000167265534 -0.13357600569725037 0.0039670001715421677
   vertex 0.0023660000879317522 -0.12961700558662415 0.00085900002159178257
  endloop
 endfacet
 facet normal 0.97703880148299871 -0.055766641190100739 -0.20563380589543101
  outer loop
   vertex -0.0021750000305473804 -0.10813699662685394 0.0058140000328421593
   vertex -0.0035790000110864639 -0.11721500009298325 0.0016049999976530671
   vertex -0.0032329999376088381 -0.11002100259065628 0.001297999988310039
  endloop
 endfacet
 facet normal 0.063592866065975029 -0.99774539506239557 0.021449336057304907
  outer loop
   vertex -0.002351999981328845 -0.13354100286960602 0.0089809997007250786
   vertex -0.0012100000167265534 -0.13357600569725037 0.0039670001715421677
   vertex -0.00070700002834200859 -0.13348899781703949 0.0065230000764131546
  endloop
 endfacet
 facet normal 0.15211851599118797 -0.98504055461622542 0.080963342655783144
  outer loop
   vertex -0.00070700002834200859 -0.13348899781703949 0.0065230000764131546
   vertex -0.00036000000545755029 -0.13314099609851837 0.010104999877512455
   vertex -0.002351999981328845 -0.13354100286960602 0.0089809997007250786
  endloop
 endfacet
 facet normal -0.68051907034839521 -0.3525433908740695 0.64234488590100014
  outer loop
   vertex -0.0049459999427199364 -0.12763200700283051 0.0082700001075863838
   vertex -0.00036000000545755029 -0.13314099609851837 0.010104999877512455
   vertex -0.0030439998954534531 -0.12656800448894501 0.010869000107049942
  endloop
 endfacet
 facet normal -0.9998472973163639 -0.013692748660400175 0.010857747615676932
  outer loop
   vertex -0.001436999998986721 -0.10232000052928925 0.012269999831914902
   vertex -0.001484000007621944 -0.10177599638700485 0.0086279995739459991
   vertex -0.0013879999751225114 -0.1088239997625351 0.008580000139772892
  endloop
 endfacet
 facet normal 0.60901827141486475 -0.11109993963125868 0.78533658293548314
  outer loop
   vertex -0.0030799999367445707 -0.10089299827814102 0.013745999895036221
   vertex -0.00203699991106987 -0.10982199758291245 0.011673999950289726
   vertex -0.001436999998986721 -0.10232000052928925 0.012269999831914902
  endloop
 endfacet
 facet normal -0.96302988965770486 -0.014390835388760398 0.2690099170712531
  outer loop
   vertex -0.001484000007621944 -0.10177599638700485 0.0086279995739459991
   vertex -0.0023529999889433384 -0.10142199695110321 0.0055359997786581516
   vertex -0.0021750000305473804 -0.10813699662685394 0.0058140000328421593
  endloop
 endfacet
 facet normal -0.16700581159036054 -0.098125305376222716 0.98106089685598419
  outer loop
   vertex -0.0066539999097585678 -0.1008090004324913 0.013145999982953072
   vertex -0.0030070000793784857 -0.107355996966362 0.013112000189721584
   vertex -0.0030799999367445707 -0.10089299827814102 0.013745999895036221
  endloop
 endfacet
 facet normal -0.95115117940373306 -0.052592267942242525 0.30421289793757728
  outer loop
   vertex -0.0023529999889433384 -0.10142199695110321 0.0055359997786581516
   vertex -0.0036110000219196081 -0.10293599963188171 0.0013409999664872885
   vertex -0.0032329999376088381 -0.11002100259065628 0.001297999988310039
  endloop
 endfacet
 facet normal -0.86663898289619945 -0.24167389579525025 0.43649811158330054
  outer loop
   vertex -0.0060829999856650829 -0.12101999670267105 0.007907000370323658
   vertex -0.0030439998954534531 -0.12656800448894501 0.010869000107049942
   vertex -0.0048569999635219574 -0.12024000287055969 0.010773000307381153
  endloop
 endfacet
 facet normal -0.84920289322567366 -0.19644307204152689 0.49016789530122484
  outer loop
   vertex -0.007826000452041626 -0.11461400240659714 0.0078840004280209541
   vertex -0.0048569999635219574 -0.12024000287055969 0.010773000307381153
   vertex -0.0061820000410079956 -0.11381600052118301 0.01105200033634901
  endloop
 endfacet
 facet normal -0.84841041186695465 -0.16183540796795567 0.50399312868687962
  outer loop
   vertex -0.0089570004492998123 -0.1080939993262291 0.0082179997116327286
   vertex -0.0061820000410079956 -0.11381600052118301 0.01105200033634901
   vertex -0.0067739998921751976 -0.10734599828720093 0.012133000418543816
  endloop
 endfacet
 facet normal -0.83821257552567074 -0.068453138659501783 0.54103035593050097
  outer loop
   vertex -0.0095330001786351204 -0.1014460027217865 0.0086049996316432953
   vertex -0.0067739998921751976 -0.10734599828720093 0.012133000418543816
   vertex -0.0066539999097585678 -0.1008090004324913 0.013145999982953072
  endloop
 endfacet
 facet normal -0.27917749202402364 -0.036235466253348086 -0.9595555840765968
  outer loop
   vertex -0.0011269999668002129 -0.12376300245523453 0.0010290000354871154
   vertex -0.0028170000296086073 -0.12734599411487579 0.0016560000367462635
   vertex -0.0037670000456273556 -0.12098000198602676 0.0016919999616220593
  endloop
 endfacet
 facet normal -0.15722806625791708 -0.014966562765729389 -0.98744890357920578
  outer loop
   vertex -0.0035790000110864639 -0.11721500009298325 0.0016049999976530671
   vertex -0.0037670000456273556 -0.12098000198602676 0.0016919999616220593
   vertex -0.004629999864846468 -0.11461900174617767 0.0017330000409856439
  endloop
 endfacet
 facet normal 0.60385725785188804 -0.75228537244489502 -0.26348269496314874
  outer loop
   vertex 0.0023660000879317522 -0.12961700558662415 0.00085900002159178257
   vertex -0.0012100000167265534 -0.13357600569725037 0.0039670001715421677
   vertex -0.0020580000709742308 -0.1336899995803833 0.0023489999584853649
  endloop
 endfacet
 facet normal -0.20634781166906688 -0.1306169906039954 -0.96972149733051871
  outer loop
   vertex 0.0023660000879317522 -0.12961700558662415 0.00085900002159178257
   vertex -0.0020580000709742308 -0.1336899995803833 0.0023489999584853649
   vertex -0.0028170000296086073 -0.12734599411487579 0.0016560000367462635
  endloop
 endfacet
 facet normal -0.21086414424712172 -0.02837383670442916 -0.97710349403816965
  outer loop
   vertex -0.0032329999376088381 -0.11002100259065628 0.001297999988310039
   vertex -0.004629999864846468 -0.11461900174617767 0.0017330000409856439
   vertex -0.0056579997763037682 -0.10821899771690369 0.0017689999658614397
  endloop
 endfacet
 facet normal -0.12949000654661011 -0.030122039109302341 -0.99112310081263688
  outer loop
   vertex -0.0036110000219196081 -0.10293599963188171 0.0013409999664872885
   vertex -0.0056579997763037682 -0.10821899771690369 0.0017689999658614397
   vertex -0.0063990000635385513 -0.10180900245904922 0.0016710000345483422
  endloop
 endfacet
 facet normal -0.91169174252599283 -0.40699936639334028 -0.056299932196570916
  outer loop
   vertex -0.0053949998691678047 -0.12608799338340759 0.004379000049084425
   vertex -0.002351999981328845 -0.13354100286960602 0.0089809997007250786
   vertex -0.0049459999427199364 -0.12763200700283051 0.0082700001075863838
  endloop
 endfacet
 facet normal 0.69838164129213609 -0.10217219663387749 0.70839531713663262
  outer loop
   vertex -0.0028170000296086073 -0.12734599411487579 0.0016560000367462635
   vertex -0.0053949998691678047 -0.12608799338340759 0.004379000049084425
   vertex -0.00597799988463521 -0.13225699961185455 0.0040640002116560936
  endloop
 endfacet
 facet normal -0.98556578377029758 -0.16870154662550155 0.014137681118304265
  outer loop
   vertex -0.0063089998438954353 -0.12003800272941589 0.0038699998985975981
   vertex -0.0049459999427199364 -0.12763200700283051 0.0082700001075863838
   vertex -0.0060829999856650829 -0.12101999670267105 0.007907000370323658
  endloop
 endfacet
 facet normal 0.98903232163736354 -0.14664062187467228 -0.017652047269817159
  outer loop
   vertex -0.00044500001240521669 -0.095269002020359039 0.012787000276148319
   vertex -0.001484000007621944 -0.10177599638700485 0.0086279995739459991
   vertex -0.00043300000834278762 -0.094783000648021698 0.009421999566257
  endloop
 endfacet
 facet normal 0.63179958200148467 -0.14472301899554008 0.76150150095424363
  outer loop
   vertex -0.0027220000047236681 -0.094527997076511383 0.014817000366747379
   vertex -0.001436999998986721 -0.10232000052928925 0.012269999831914902
   vertex -0.00044500001240521669 -0.095269002020359039 0.012787000276148319
  endloop
 endfacet
 facet normal 0.95350193229644953 -0.11196838998114074 -0.27981626963414469
  outer loop
   vertex -0.00043300000834278762 -0.094783000648021698 0.009421999566257
   vertex -0.0023529999889433384 -0.10142199695110321 0.0055359997786581516
   vertex -0.0015879999846220016 -0.094635002315044403 0.0054270001128315926
  endloop
 endfacet
 facet normal -0.20166425770874835 -0.15148136446423902 0.9676698421377159
  outer loop
   vertex -0.0064960001036524773 -0.094282001256942749 0.014069000259041786
   vertex -0.0030799999367445707 -0.10089299827814102 0.013745999895036221
   vertex -0.0027220000047236681 -0.094527997076511383 0.014817000366747379
  endloop
 endfacet
 facet normal 0.92599019285537143 -0.040923765648461848 -0.37532307168734208
  outer loop
   vertex -0.0015879999846220016 -0.094635002315044403 0.0054270001128315926
   vertex -0.0036110000219196081 -0.10293599963188171 0.0013409999664872885
   vertex -0.0031890000682324171 -0.095725998282432556 0.0015960000455379486
  endloop
 endfacet
 facet normal -0.80774517713988814 -0.063331627681127919 0.58612015299127018
  outer loop
   vertex -0.010169999673962593 -0.094825997948646545 0.0089469999074935913
   vertex -0.0066539999097585678 -0.1008090004324913 0.013145999982953072
   vertex -0.0064960001036524773 -0.094282001256942749 0.014069000259041786
  endloop
 endfacet
 facet normal 0.29228133747153301 -0.1658491717507207 -0.94184163849102143
  outer loop
   vertex -0.0031890000682324171 -0.095725998282432556 0.0015960000455379486
   vertex -0.0063990000635385513 -0.10180900245904922 0.0016710000345483422
   vertex -0.0054649999365210533 -0.095528997480869293 0.00085499999113380909
  endloop
 endfacet
 facet normal -0.96275993959735773 -0.2621931208858318 -0.065939867050516479
  outer loop
   vertex -0.0076919998973608017 -0.11400400102138519 0.0035019998904317617
   vertex -0.0060829999856650829 -0.12101999670267105 0.007907000370323658
   vertex -0.007826000452041626 -0.11461400240659714 0.0078840004280209541
  endloop
 endfacet
 facet normal -0.98392776186487374 -0.16750922625654116 -0.061861284746724018
  outer loop
   vertex -0.0087069999426603317 -0.10790800303220749 0.0037380000576376915
   vertex -0.007826000452041626 -0.11461400240659714 0.0078840004280209541
   vertex -0.0089570004492998123 -0.1080939993262291 0.0082179997116327286
  endloop
 endfacet
 facet normal -0.99407340587592719 -0.081972444487622045 -0.071404356134328828
  outer loop
   vertex -0.0091749997809529305 -0.10175000131130219 0.0039699999615550041
   vertex -0.0089570004492998123 -0.1080939993262291 0.0082179997116327286
   vertex -0.0095330001786351204 -0.1014460027217865 0.0086049996316432953
  endloop
 endfacet
 facet normal -0.9919410198930857 -0.090887527335916096 -0.08827497056486773
  outer loop
   vertex -0.009674999862909317 -0.095578998327255249 0.0041600000113248825
   vertex -0.0095330001786351204 -0.1014460027217865 0.0086049996316432953
   vertex -0.010169999673962593 -0.094825997948646545 0.0089469999074935913
  endloop
 endfacet
 facet normal -0.67604124120948195 -0.16259862629361554 -0.71870016481935783
  outer loop
   vertex -0.0037670000456273556 -0.12098000198602676 0.0016919999616220593
   vertex -0.0053949998691678047 -0.12608799338340759 0.004379000049084425
   vertex -0.0063089998438954353 -0.12003800272941589 0.0038699998985975981
  endloop
 endfacet
 facet normal -0.51833606468880933 -0.16991861663901645 -0.83812611685974892
  outer loop
   vertex -0.004629999864846468 -0.11461900174617767 0.0017330000409856439
   vertex -0.0063089998438954353 -0.12003800272941589 0.0038699998985975981
   vertex -0.0076919998973608017 -0.11400400102138519 0.0035019998904317617
  endloop
 endfacet
 facet normal -0.54577250192105764 -0.058512061816435715 -0.83588797979682583
  outer loop
   vertex -0.0056579997763037682 -0.10821899771690369 0.0017689999658614397
   vertex -0.0076919998973608017 -0.11400400102138519 0.0035019998904317617
   vertex -0.0087069999426603317 -0.10790800303220749 0.0037380000576376915
  endloop
 endfacet
 facet normal -0.63795909397320172 -0.019481271996128459 -0.76982379442201221
  outer loop
   vertex -0.0063990000635385513 -0.10180900245904922 0.0016710000345483422
   vertex -0.0087069999426603317 -0.10790800303220749 0.0037380000576376915
   vertex -0.0091749997809529305 -0.10175000131130219 0.0039699999615550041
  endloop
 endfacet
 facet normal -0.61709664848064882 -0.025785115870929083 -0.78646478257673647
  outer loop
   vertex -0.0054649999365210533 -0.095528997480869293 0.00085499999113380909
   vertex -0.0091749997809529305 -0.10175000131130219 0.0039699999615550041
   vertex -0.009674999862909317 -0.095578998327255249 0.0041600000113248825
  endloop
 endfacet
 facet normal 0.86507578142686747 -0.44750167065136548 0.22668512777183189
  outer loop
   vertex 0.0018919999711215496 -0.088590003550052643 0.012775000184774399
   vertex -0.00043300000834278762 -0.094783000648021698 0.009421999566257
   vertex 0.0027099999133497477 -0.088575996458530426 0.0096810003742575645
  endloop
 endfacet
 facet normal 0.63098905305746289 -0.21944787970635035 0.74410714484812834
  outer loop
   vertex -0.0013559999642893672 -0.0883060023188591 0.01561299990862608
   vertex -0.00044500001240521669 -0.095269002020359039 0.012787000276148319
   vertex 0.0018919999711215496 -0.088590003550052643 0.012775000184774399
  endloop
 endfacet
 facet normal 0.8208941519813735 -0.57084705152361404 -0.016322837056657723
  outer loop
   vertex 0.0027099999133497477 -0.088575996458530426 0.0096810003742575645
   vertex -0.0015879999846220016 -0.094635002315044403 0.0054270001128315926
   vertex 0.0020989999175071716 -0.089311003684997559 0.0046580000780522823
  endloop
 endfacet
 facet normal -0.0084168212005429933 -0.12507610663120997 0.99211144770678683
  outer loop
   vertex -0.0075150001794099808 -0.087954998016357422 0.015604999847710133
   vertex -0.0027220000047236681 -0.094527997076511383 0.014817000366747379
   vertex -0.0013559999642893672 -0.0883060023188591 0.01561299990862608
  endloop
 endfacet
 facet normal 0.79599177575661317 -0.48033364414349095 -0.36834315961025776
  outer loop
   vertex 0.0020989999175071716 -0.089311003684997559 0.0046580000780522823
   vertex -0.0031890000682324171 -0.095725998282432556 0.0015960000455379486
   vertex -0.00012099999730708078 -0.089592002332210541 0.00022699999681208283
  endloop
 endfacet
 facet normal -0.85466633140189607 -0.24833529236484067 0.45593315796736433
  outer loop
   vertex -0.010600999929010868 -0.08821599930524826 0.0096779996529221535
   vertex -0.0064960001036524773 -0.094282001256942749 0.014069000259041786
   vertex -0.0075150001794099808 -0.087954998016357422 0.015604999847710133
  endloop
 endfacet
 facet normal 0.14141713070423947 -0.22916226118030014 -0.96306066952924207
  outer loop
   vertex -0.00012099999730708078 -0.089592002332210541 0.00022699999681208283
   vertex -0.0054649999365210533 -0.095528997480869293 0.00085499999113380909
   vertex -0.0054620001465082169 -0.089299000799655914 -0.00062700000125914812
  endloop
 endfacet
 facet normal -0.99790441714237765 -0.064058093552795972 -0.0091287949978571831
  outer loop
   vertex -0.010472999885678291 -0.089451998472213745 0.0043589998967945576
   vertex -0.010169999673962593 -0.094825997948646545 0.0089469999074935913
   vertex -0.010600999929010868 -0.08821599930524826 0.0096779996529221535
  endloop
 endfacet
 facet normal -0.70262722427905788 -0.068508960052277051 -0.70825243105439606
  outer loop
   vertex -0.0054620001465082169 -0.089299000799655914 -0.00062700000125914812
   vertex -0.009674999862909317 -0.095578998327255249 0.0041600000113248825
   vertex -0.010472999885678291 -0.089451998472213745 0.0043589998967945576
  endloop
 endfacet
 facet normal 0.8571408202603259 -0.076680807156575048 0.50934238784659558
  outer loop
   vertex 0.00081900000805035233 -0.081643000245094299 0.013907000422477722
   vertex 0.0027099999133497477 -0.088575996458530426 0.0096810003742575645
   vertex 0.0027989998925477266 -0.081881999969482422 0.010538999922573566
  endloop
 endfacet
 facet normal 0.65676755671750886 -0.02138743579699998 0.75378972799670252
  outer loop
   vertex 0.00081900000805035233 -0.081643000245094299 0.013907000422477722
   vertex -0.0013559999642893672 -0.0883060023188591 0.01561299990862608
   vertex 0.0018919999711215496 -0.088590003550052643 0.012775000184774399
  endloop
 endfacet
 facet normal 0.98622489765167387 0.035043330289058941 -0.16165523887024955
  outer loop
   vertex 0.0027989998925477266 -0.081881999969482422 0.010538999922573566
   vertex 0.0020989999175071716 -0.089311003684997559 0.0046580000780522823
   vertex 0.0018899999558925629 -0.082607999444007874 0.0048360000364482403
  endloop
 endfacet
 facet normal 0.055907413841887708 0.23048557828169464 0.97146835217708694
  outer loop
   vertex -0.006792999804019928 -0.081609003245830536 0.01433700043708086
   vertex -0.0013559999642893672 -0.0883060023188591 0.01561299990862608
   vertex 0.00081900000805035233 -0.081643000245094299 0.013907000422477722
  endloop
 endfacet
 facet normal 0.94664543645379151 -0.064154932440683946 -0.31582679158795551
  outer loop
   vertex 0.0018899999558925629 -0.082607999444007874 0.0048360000364482403
   vertex -0.00012099999730708078 -0.089592002332210541 0.00022699999681208283
   vertex 0.00037699998938478529 -0.082607999444007874 0.0003009999927598983
  endloop
 endfacet
 facet normal -0.86104666057930146 0.19204801987000458 0.47086750404890293
  outer loop
   vertex -0.0098759997636079788 -0.081671997904777527 0.0087249996140599251
   vertex -0.0075150001794099808 -0.087954998016357422 0.015604999847710133
   vertex -0.006792999804019928 -0.081609003245830536 0.01433700043708086
  endloop
 endfacet
 facet normal 0.13509084579783309 0.019506728038614252 -0.99064118173173754
  outer loop
   vertex 0.00037699998938478529 -0.082607999444007874 0.0003009999927598983
   vertex -0.0054620001465082169 -0.089299000799655914 -0.00062700000125914812
   vertex -0.0051130000501871109 -0.082980997860431671 -0.00045500000123865902
  endloop
 endfacet
 facet normal -0.99360032052698866 0.10348804939772638 -0.045261757373296886
  outer loop
   vertex -0.0098270000889897346 -0.083328001201152802 0.0038630000781267881
   vertex -0.010600999929010868 -0.08821599930524826 0.0096779996529221535
   vertex -0.0098759997636079788 -0.081671997904777527 0.0087249996140599251
  endloop
 endfacet
 facet normal -0.67587446797224526 0.011610055722702768 -0.73692530839247894
  outer loop
   vertex -0.0051130000501871109 -0.082980997860431671 -0.00045500000123865902
   vertex -0.010472999885678291 -0.089451998472213745 0.0043589998967945576
   vertex -0.0098270000889897346 -0.083328001201152802 0.0038630000781267881
  endloop
 endfacet
 facet normal -0.010905492399358004 0.96302478856587048 -0.26919198881688156
  outer loop
   vertex 0.00081900000805035233 -0.081643000245094299 0.013907000422477722
   vertex -0.002781999995931983 -0.083351999521255493 0.0079389996826648712
   vertex -0.006792999804019928 -0.081609003245830536 0.01433700043708086
  endloop
 endfacet
 facet normal -0.17528231259191246 0.96940610283984485 -0.17183689554136819
  outer loop
   vertex 0.0027989998925477266 -0.081881999969482422 0.010538999922573566
   vertex -0.002781999995931983 -0.083351999521255493 0.0079389996826648712
   vertex 0.00081900000805035233 -0.081643000245094299 0.013907000422477722
  endloop
 endfacet
 facet normal -0.21442182692299744 0.97261920468300267 -0.089639069723014789
  outer loop
   vertex 0.0018899999558925629 -0.082607999444007874 0.0048360000364482403
   vertex -0.002781999995931983 -0.083351999521255493 0.0079389996826648712
   vertex 0.0027989998925477266 -0.081881999969482422 0.010538999922573566
  endloop
 endfacet
 facet normal -0.12914683085231934 0.99068895927986289 0.043086912650881812
  outer loop
   vertex 0.00037699998938478529 -0.082607999444007874 0.0003009999927598983
   vertex -0.002781999995931983 -0.083351999521255493 0.0079389996826648712
   vertex 0.0018899999558925629 -0.082607999444007874 0.0048360000364482403
  endloop
 endfacet
 facet normal 0.21496941614566806 0.96806869500561066 -0.12896182331265468
  outer loop
   vertex -0.006792999804019928 -0.081609003245830536 0.01433700043708086
   vertex -0.002781999995931983 -0.083351999521255493 0.0079389996826648712
   vertex -0.0098759997636079788 -0.081671997904777527 0.0087249996140599251
  endloop
 endfacet
 facet normal -0.076580675796162068 0.99492666718364742 0.065240532044447616
  outer loop
   vertex -0.0051130000501871109 -0.082980997860431671 -0.00045500000123865902
   vertex -0.002781999995931983 -0.083351999521255493 0.0079389996826648712
   vertex 0.00037699998938478529 -0.082607999444007874 0.0003009999927598983
  endloop
 endfacet
 facet normal 0.18550072443478322 0.93073913891268156 -0.31514145479490718
  outer loop
   vertex -0.0098759997636079788 -0.081671997904777527 0.0087249996140599251
   vertex -0.002781999995931983 -0.083351999521255493 0.0079389996826648712
   vertex -0.0098270000889897346 -0.083328001201152802 0.0038630000781267881
  endloop
 endfacet
 facet normal -0.026364058505246282 0.99832773578210676 0.051445781044745245
  outer loop
   vertex -0.0098270000889897346 -0.083328001201152802 0.0038630000781267881
   vertex -0.002781999995931983 -0.083351999521255493 0.0079389996826648712
   vertex -0.0051130000501871109 -0.082980997860431671 -0.00045500000123865902
  endloop
 endfacet
endsolid
