solid Visualization Toolkit generated SLA File
 facet normal -0.077208498555118799 0.99619296152155212 0.040477539028251137
  outer loop
   vertex 0.0044320002198219299 -0.13297200202941895 0.001142999972216785
   vertex -0.0017269999952986836 -0.13389000296592712 0.011988000012934208
   vertex 0.0035399999469518661 -0.13329699635505676 0.0074399998411536217
  endloop
 endfacet
 facet normal 0.92680360355607061 -0.3582059551363676 0.11279882153783544
  outer loop
   vertex 0.0023469999432563782 -0.13845700025558472 0.00085599999874830246
   vertex 0.0044320002198219299 -0.13297200202941895 0.001142999972216785
   vertex 0.0035399999469518661 -0.13329699635505676 0.0074399998411536217
  endloop
 endfacet
 facet normal 0.47184481409930795 -0.076257812765934449 -0.87837760524716546
  outer loop
   vertex 0.0044320002198219299 -0.13297200202941895 0.001142999972216785
   vertex -0.00036800000816583633 -0.13781499862670898 -0.00101500004529953
   vertex -0.00029200001154094934 -0.13284100592136383 -0.0014059999957680702
  endloop
 endfacet
 facet normal 0.64035771388071039 -0.31497350498843613 0.70052386785088916
  outer loop
   vertex -0.0017269999952986836 -0.13389000296592712 0.011988000012934208
   vertex 0.0023219999857246876 -0.13853999972343445 0.0061960001476109028
   vertex 0.0035399999469518661 -0.13329699635505676 0.0074399998411536217
  endloop
 endfacet
 facet normal -0.6906514276436595 -0.27273909829731074 0.66978652550924378
  outer loop
   vertex -0.0064599998295307159 -0.13385699689388275 0.0071209999732673168
   vertex -0.00072599999839439988 -0.13932999968528748 0.010804999619722366
   vertex -0.0017269999952986836 -0.13389000296592712 0.011988000012934208
  endloop
 endfacet
 facet normal -0.98317465135304816 -0.16094777613353869 -0.086391077632360105
  outer loop
   vertex -0.0060399998910725117 -0.13367600739002228 0.0020039998926222324
   vertex -0.0055430000647902489 -0.1391499936580658 0.0065460000187158585
   vertex -0.0064599998295307159 -0.13385699689388275 0.0071209999732673168
  endloop
 endfacet
 facet normal -0.49298852869602494 -0.12346945259370676 -0.86123028560910397
  outer loop
   vertex -0.00029200001154094934 -0.13284100592136383 -0.0014059999957680702
   vertex -0.0051589999347925186 -0.13879099488258362 0.0022330000065267086
   vertex -0.0060399998910725117 -0.13367600739002228 0.0020039998926222324
  endloop
 endfacet
 facet normal -0.10208027640986744 -0.89709863688762881 -0.42987632275160664
  outer loop
   vertex -5.9000001783715561e-05 -0.16539700329303741 0.0031699999235570431
   vertex 0.00084900000365450978 -0.1636430025100708 -0.00070600002072751522
   vertex 0.0032309999223798513 -0.16434100270271301 0.00018499999714549631
  endloop
 endfacet
 facet normal -0.63816519493953072 -0.37760338118080761 0.6709402883182769
  outer loop
   vertex -0.0029140000697225332 -0.16045999526977539 0.0032329999376088381
   vertex -5.9000001783715561e-05 -0.16539700329303741 0.0031699999235570431
   vertex 0.0016629999736323953 -0.1620669960975647 0.0066820001229643822
  endloop
 endfacet
 facet normal 0.89514227460146045 -0.30679371196305977 0.32341602700121513
  outer loop
   vertex 0.0016629999736323953 -0.1620669960975647 0.0066820001229643822
   vertex 0.0032309999223798513 -0.16434100270271301 0.00018499999714549631
   vertex 0.0040859999135136604 -0.15985499322414398 0.002073999959975481
  endloop
 endfacet
 facet normal 0.99612401488326296 -0.08789809332123269 0.0032972963683270129
  outer loop
   vertex 0.0023219999857246876 -0.13853999972343445 0.0061960001476109028
   vertex 0.0018459999701008201 -0.14414800703525543 0.00050099997315555811
   vertex 0.0023469999432563782 -0.13845700025558472 0.00085599999874830246
  endloop
 endfacet
 facet normal 0.56263596182004139 -0.02848809223336048 -0.82621377564631571
  outer loop
   vertex 0.0023469999432563782 -0.13845700025558472 0.00085599999874830246
   vertex -0.00028199999360367656 -0.14301900565624237 -0.00077699997927993536
   vertex -0.00036800000816583633 -0.13781499862670898 -0.00101500004529953
  endloop
 endfacet
 facet normal 0.81783704984037253 -0.30367901858559154 0.48879608588785528
  outer loop
   vertex -0.00072599999839439988 -0.13932999968528748 0.010804999619722366
   vertex 0.0012280000373721123 -0.14379599690437317 0.0047610001638531685
   vertex 0.0023219999857246876 -0.13853999972343445 0.0061960001476109028
  endloop
 endfacet
 facet normal 0.5694001913981287 -0.069031560362892749 0.81915692373905913
  outer loop
   vertex -0.00036800000816583633 -0.13781499862670898 -0.00101500004529953
   vertex -0.0051589999347925186 -0.13879099488258362 0.0022330000065267086
   vertex -0.0039110002107918262 -0.14368599653244019 0.00095299998065456748
  endloop
 endfacet
 facet normal -0.64406927886577869 -0.26605844314226201 0.71720824650448034
  outer loop
   vertex -0.0055430000647902489 -0.1391499936580658 0.0065460000187158585
   vertex -0.00077199999941512942 -0.14485800266265869 0.0087130004540085793
   vertex -0.00072599999839439988 -0.13932999968528748 0.010804999619722366
  endloop
 endfacet
 facet normal -0.98005113803742261 -0.17088417363579517 -0.10148086535088398
  outer loop
   vertex -0.0051589999347925186 -0.13879099488258362 0.0022330000065267086
   vertex -0.0045750001445412636 -0.14443500339984894 0.0060970000922679901
   vertex -0.0055430000647902489 -0.1391499936580658 0.0065460000187158585
  endloop
 endfacet
 facet normal 0.52318867022253279 -0.74345171724343939 0.41659711890333473
  outer loop
   vertex 0.0040859999135136604 -0.15985499322414398 0.002073999959975481
   vertex 0.0031469999812543392 -0.16335399448871613 -0.0029909999575465918
   vertex 0.0069140000268816948 -0.16006200015544891 -0.0018469999777153134
  endloop
 endfacet
 facet normal -0.016130845213549214 -0.95494547868098856 -0.29634258650999556
  outer loop
   vertex 0.0032309999223798513 -0.16434100270271301 0.00018499999714549631
   vertex 0.0016370000084862113 -0.16342499852180481 -0.0026799999177455902
   vertex 0.0031469999812543392 -0.16335399448871613 -0.0029909999575465918
  endloop
 endfacet
 facet normal -0.63338280058914787 -0.1722821854187149 -0.75441704415077948
  outer loop
   vertex 0.0012720000231638551 -0.15827499330043793 -0.0022869999520480633
   vertex 0.00084900000365450978 -0.1636430025100708 -0.00070600002072751522
   vertex -0.0014019999653100967 -0.15910699963569641 0.00014800000644754618
  endloop
 endfacet
 facet normal -0.75354504905984854 -0.38040240516097534 -0.5361565715209835
  outer loop
   vertex -0.0014019999653100967 -0.15910699963569641 0.00014800000644754618
   vertex -0.00045500000123865902 -0.16505199670791626 0.0030350000597536564
   vertex -0.0029140000697225332 -0.16045999526977539 0.0032329999376088381
  endloop
 endfacet
 facet normal -0.94348212405683085 -0.096543902206175453 -0.31705008521054684
  outer loop
   vertex -0.0024870000779628754 -0.15401899814605713 9.9999999747524271e-07
   vertex -0.0029140000697225332 -0.16045999526977539 0.0032329999376088381
   vertex -0.0037380000576376915 -0.15509699285030365 0.0040520001202821732
  endloop
 endfacet
 facet normal 0.37270705775863744 -0.060589262985831303 -0.92596889273221994
  outer loop
   vertex -0.0037380000576376915 -0.15509699285030365 0.0040520001202821732
   vertex 0.00054300000192597508 -0.15633299946784973 0.0058559998869895935
   vertex 0.0016629999736323953 -0.1620669960975647 0.0066820001229643822
  endloop
 endfacet
 facet normal -0.78019071901784876 -0.1271440837114135 -0.61248414178295019
  outer loop
   vertex 0.00054300000192597508 -0.15633299946784973 0.0058559998869895935
   vertex 0.0024939998984336853 -0.15454199910163879 0.0029990000184625387
   vertex 0.0040859999135136604 -0.15985499322414398 0.002073999959975481
  endloop
 endfacet
 facet normal -0.82693772879110883 -0.54669893475172737 -0.13150767066269969
  outer loop
   vertex 0.0024939998984336853 -0.15454199910163879 0.0029990000184625387
   vertex 0.0039110002107918262 -0.15558099746704102 -0.0015920000150799751
   vertex 0.0069140000268816948 -0.16006200015544891 -0.0018469999777153134
  endloop
 endfacet
 facet normal -0.9892636763924082 -0.041694747515812196 -0.14006757869032063
  outer loop
   vertex 0.0012280000373721123 -0.14379599690437317 0.0047610001638531685
   vertex 0.0018459999701008201 -0.14414800703525543 0.00050099997315555811
   vertex 0.0022730000782757998 -0.15025800466537476 -0.00069600000279024243
  endloop
 endfacet
 facet normal -0.52389434422859182 -0.023638094399625591 0.85145519939598013
  outer loop
   vertex 0.0018459999701008201 -0.14414800703525543 0.00050099997315555811
   vertex -0.00028199999360367656 -0.14301900565624237 -0.00077699997927993536
   vertex -0.00042100000428035855 -0.14815099537372589 -0.0010049999691545963
  endloop
 endfacet
 facet normal 0.89640696831663225 -0.048775295535574199 0.44054002962137478
  outer loop
   vertex -0.00077199999941512942 -0.14485800266265869 0.0087130004540085793
   vertex 0.0013409999664872885 -0.1492609977722168 0.0039260000921785831
   vertex 0.0012280000373721123 -0.14379599690437317 0.0047610001638531685
  endloop
 endfacet
 facet normal 0.44134320738603827 -0.084056867136122149 0.89339275594861667
  outer loop
   vertex -0.00028199999360367656 -0.14301900565624237 -0.00077699997927993536
   vertex -0.0039110002107918262 -0.14368599653244019 0.00095299998065456748
   vertex -0.0030670000705868006 -0.14876699447631836 5.8000001445179805e-05
  endloop
 endfacet
 facet normal -0.57062452555447374 -0.19140612998815357 0.7985933534901789
  outer loop
   vertex -0.0045750001445412636 -0.14443500339984894 0.0060970000922679901
   vertex -0.0005680000176653266 -0.15069399774074554 0.0074599999934434891
   vertex -0.00077199999941512942 -0.14485800266265869 0.0087130004540085793
  endloop
 endfacet
 facet normal -0.98870332911743153 -0.061681814746565623 -0.13660556621777215
  outer loop
   vertex -0.0039110002107918262 -0.14368599653244019 0.00095299998065456748
   vertex -0.004083000123500824 -0.14973899722099304 0.0049310000613331795
   vertex -0.0045750001445412636 -0.14443500339984894 0.0060970000922679901
  endloop
 endfacet
 facet normal -0.10357805736657132 -0.082976522325613158 0.99115411656054497
  outer loop
   vertex 0.0069140000268816948 -0.16006200015544891 -0.0018469999777153134
   vertex 0.0012720000231638551 -0.15827499330043793 -0.0022869999520480633
   vertex 0.0016370000084862113 -0.16342499852180481 -0.0026799999177455902
  endloop
 endfacet
 facet normal -0.12024164303224959 -0.13591087065960739 0.98339726586840415
  outer loop
   vertex 0.0039110002107918262 -0.15558099746704102 -0.0015920000150799751
   vertex 0.0004780000017490238 -0.15319499373435974 -0.0016820000018924475
   vertex 0.0012720000231638551 -0.15827499330043793 -0.0022869999520480633
  endloop
 endfacet
 facet normal -0.46349339308058901 -0.12418659002631746 -0.87735486858413103
  outer loop
   vertex 0.0004780000017490238 -0.15319499373435974 -0.0016820000018924475
   vertex -0.0014019999653100967 -0.15910699963569641 0.00014800000644754618
   vertex -0.0024870000779628754 -0.15401899814605713 9.9999999747524271e-07
  endloop
 endfacet
 facet normal -0.36651046303411872 -0.030382833784573786 -0.92991771888578134
  outer loop
   vertex -0.00042100000428035855 -0.14815099537372589 -0.0010049999691545963
   vertex -0.0024870000779628754 -0.15401899814605713 9.9999999747524271e-07
   vertex -0.0030670000705868006 -0.14876699447631836 5.8000001445179805e-05
  endloop
 endfacet
 facet normal -0.97739526145257394 -0.028568047697970209 -0.20948119137712817
  outer loop
   vertex -0.0030670000705868006 -0.14876699447631836 5.8000001445179805e-05
   vertex -0.0037380000576376915 -0.15509699285030365 0.0040520001202821732
   vertex -0.004083000123500824 -0.14973899722099304 0.0049310000613331795
  endloop
 endfacet
 facet normal -0.60889648813496899 -0.32570570560685691 0.72329859675796471
  outer loop
   vertex -0.004083000123500824 -0.14973899722099304 0.0049310000613331795
   vertex 0.00054300000192597508 -0.15633299946784973 0.0058559998869895935
   vertex -0.0005680000176653266 -0.15069399774074554 0.0074599999934434891
  endloop
 endfacet
 facet normal -0.85819136089576575 -0.098951370800778579 -0.5037025057516793
  outer loop
   vertex -0.0005680000176653266 -0.15069399774074554 0.0074599999934434891
   vertex 0.0013409999664872885 -0.1492609977722168 0.0039260000921785831
   vertex 0.0024939998984336853 -0.15454199910163879 0.0029990000184625387
  endloop
 endfacet
 facet normal -0.95328426907252306 -0.27082323875806291 -0.1338053649427369
  outer loop
   vertex 0.0013409999664872885 -0.1492609977722168 0.0039260000921785831
   vertex 0.0022730000782757998 -0.15025800466537476 -0.00069600000279024243
   vertex 0.0039110002107918262 -0.15558099746704102 -0.0015920000150799751
  endloop
 endfacet
 facet normal -0.24365878266721414 -0.17154888200807861 0.95456868726713928
  outer loop
   vertex 0.0022730000782757998 -0.15025800466537476 -0.00069600000279024243
   vertex -0.00042100000428035855 -0.14815099537372589 -0.0010049999691545963
   vertex 0.0004780000017490238 -0.15319499373435974 -0.0016820000018924475
  endloop
 endfacet
endsolid
