solid Visualization Toolkit generated SLA File
 facet normal -0.48393952606449347 0.1371670066149967 -0.86428452919669618
  outer loop
   vertex 0.0062429998070001602 -0.074956998229026794 -0.059787999838590622
   vertex 0.005987000185996294 -0.079792000353336334 -0.060412000864744186
   vertex 0.0033950000070035458 -0.077614001929759979 -0.058614999055862427
  endloop
 endfacet
 facet normal -0.52382006940727321 0.19736627404600723 -0.82864895387332493
  outer loop
   vertex 0.0080519998446106911 -0.078363999724388123 -0.060575999319553375
   vertex 0.011278999969363213 -0.072604000568389893 -0.061243999749422073
   vertex 0.010878000408411026 -0.077321000397205353 -0.06211400032043457
  endloop
 endfacet
 facet normal -0.35258317601606054 0.44042434804403735 -0.82565822083984131
  outer loop
   vertex 0.011278999969363213 -0.072604000568389893 -0.061243999749422073
   vertex 0.0049870000220835209 -0.071344003081321716 -0.057884998619556427
   vertex 0.01064900029450655 -0.068461000919342041 -0.058765001595020294
  endloop
 endfacet
 facet normal -0.57468561985263478 0.21598318761789187 -0.78935904441578897
  outer loop
   vertex 0.0062429998070001602 -0.074956998229026794 -0.059787999838590622
   vertex 0.0026809999253600836 -0.073434002697467804 -0.056777998805046082
   vertex 0.0049870000220835209 -0.071344003081321716 -0.057884998619556427
  endloop
 endfacet
 facet normal -0.53445441231189672 -0.81643080805181356 0.21863032000207092
  outer loop
   vertex 0.005987000185996294 -0.079792000353336334 -0.060412000864744186
   vertex 0.0049299998208880424 -0.077762998640537262 -0.05541900172829628
   vertex 0.0033950000070035458 -0.077614001929759979 -0.058614999055862427
  endloop
 endfacet
 facet normal -0.85930703796810926 -0.32157026431248614 0.39772349642493116
  outer loop
   vertex 0.0049299998208880424 -0.077762998640537262 -0.05541900172829628
   vertex 0.0026809999253600836 -0.073434002697467804 -0.056777998805046082
   vertex 0.0033950000070035458 -0.077614001929759979 -0.058614999055862427
  endloop
 endfacet
 facet normal -0.29162272134782979 0.31810894264856904 -0.90208807164306049
  outer loop
   vertex 0.0080519998446106911 -0.078363999724388123 -0.060575999319553375
   vertex 0.0081829996779561043 -0.084320999681949615 -0.062719002366065979
   vertex 0.005987000185996294 -0.079792000353336334 -0.060412000864744186
  endloop
 endfacet
 facet normal -0.8893954125350465 -0.44233318161242863 0.1153999852956696
  outer loop
   vertex 0.005987000185996294 -0.079792000353336334 -0.060412000864744186
   vertex 0.0087970001623034477 -0.085495002567768097 -0.060614999383687973
   vertex 0.0061229998245835304 -0.079227998852729797 -0.057202000170946121
  endloop
 endfacet
 facet normal -0.54573376169428678 0.36997190872959423 -0.75186132238464309
  outer loop
   vertex 0.0080519998446106911 -0.078363999724388123 -0.060575999319553375
   vertex 0.010878000408411026 -0.077321000397205353 -0.06211400032043457
   vertex 0.010146999731659889 -0.083051003515720367 -0.064402997493743896
  endloop
 endfacet
 facet normal -0.36441554179730834 0.19877769971794609 -0.90977400435021027
  outer loop
   vertex 0.011278999969363213 -0.072604000568389893 -0.061243999749422073
   vertex 0.013983000069856644 -0.076503001153469086 -0.063179001212120056
   vertex 0.010878000408411026 -0.077321000397205353 -0.06211400032043457
  endloop
 endfacet
 facet normal -0.079900957609651574 0.37855869677100007 -0.92212209065399942
  outer loop
   vertex 0.010878000408411026 -0.077321000397205353 -0.06211400032043457
   vertex 0.014015000313520432 -0.082314997911453247 -0.064436003565788269
   vertex 0.010146999731659889 -0.083051003515720367 -0.064402997493743896
  endloop
 endfacet
 facet normal -0.38029917408517638 0.4316124735378768 -0.81797506739304005
  outer loop
   vertex 0.01064900029450655 -0.068461000919342041 -0.058765001595020294
   vertex 0.014340000227093697 -0.072653003036975861 -0.062692999839782715
   vertex 0.011278999969363213 -0.072604000568389893 -0.061243999749422073
  endloop
 endfacet
 facet normal 0.057065783773034541 0.80023733906672545 0.5969620569900369
  outer loop
   vertex 0.011443999595940113 -0.070827998220920563 -0.055668000131845474
   vertex 0.013640999794006348 -0.068138003349304199 -0.059484001249074936
   vertex 0.01064900029450655 -0.068461000919342041 -0.058765001595020294
  endloop
 endfacet
 facet normal -0.19518464882919664 0.75442169873371789 0.62669837509056492
  outer loop
   vertex 0.01064900029450655 -0.068461000919342041 -0.058765001595020294
   vertex 0.0068870000541210175 -0.07242400199174881 -0.055165998637676239
   vertex 0.011443999595940113 -0.070827998220920563 -0.055668000131845474
  endloop
 endfacet
 facet normal -0.39055987371963813 0.72881008752840382 0.56240451754670395
  outer loop
   vertex 0.0049870000220835209 -0.071344003081321716 -0.057884998619556427
   vertex 0.0026809999253600836 -0.073434002697467804 -0.056777998805046082
   vertex 0.0068870000541210175 -0.07242400199174881 -0.055165998637676239
  endloop
 endfacet
 facet normal -0.39419328564048917 0.70976857600185705 0.58381522939732555
  outer loop
   vertex 0.0026809999253600836 -0.073434002697467804 -0.056777998805046082
   vertex 0.0037640000227838755 -0.074447996914386749 -0.054813999682664871
   vertex 0.0068870000541210175 -0.07242400199174881 -0.055165998637676239
  endloop
 endfacet
 facet normal -0.14828680972863878 -0.70334312223501094 0.69521181985435843
  outer loop
   vertex 0.0049299998208880424 -0.077762998640537262 -0.05541900172829628
   vertex 0.0096380002796649933 -0.078464001417160034 -0.055123999714851379
   vertex 0.0096960002556443214 -0.076444000005722046 -0.053068000823259354
  endloop
 endfacet
 facet normal -0.3853832965490307 -0.43214565390246334 0.81530966420999473
  outer loop
   vertex 0.0037640000227838755 -0.074447996914386749 -0.054813999682664871
   vertex 0.0096960002556443214 -0.076444000005722046 -0.053068000823259354
   vertex 0.0086190002039074898 -0.073778003454208374 -0.052163999527692795
  endloop
 endfacet
 facet normal 0.33279895074687438 0.55077345556661617 -0.76543677663474463
  outer loop
   vertex 0.0061229998245835304 -0.079227998852729797 -0.057202000170946121
   vertex 0.0096380002796649933 -0.078464001417160034 -0.055123999714851379
   vertex 0.011269999668002129 -0.08526899665594101 -0.059310998767614365
  endloop
 endfacet
 facet normal -0.40529986475435514 0.72273165520120386 0.55981333871231553
  outer loop
   vertex 0.0037640000227838755 -0.074447996914386749 -0.054813999682664871
   vertex 0.0086190002039074898 -0.073778003454208374 -0.052163999527692795
   vertex 0.0068870000541210175 -0.07242400199174881 -0.055165998637676239
  endloop
 endfacet
 facet normal -0.34640799845031078 0.36673848286572569 -0.86342595733218219
  outer loop
   vertex 0.0081829996779561043 -0.084320999681949615 -0.062719002366065979
   vertex 0.011385000310838223 -0.087591998279094696 -0.065393000841140747
   vertex 0.0093059996142983437 -0.08790300041437149 -0.064690999686717987
  endloop
 endfacet
 facet normal -0.95082408015630415 -0.28654275709806176 0.11758748636466078
  outer loop
   vertex 0.0081829996779561043 -0.084320999681949615 -0.062719002366065979
   vertex 0.0097359996289014816 -0.089447997510433197 -0.062655001878738403
   vertex 0.0087970001623034477 -0.085495002567768097 -0.060614999383687973
  endloop
 endfacet
 facet normal -0.13396612680526318 0.17608846571019032 -0.97521583719329907
  outer loop
   vertex 0.010146999731659889 -0.083051003515720367 -0.064402997493743896
   vertex 0.015908999368548393 -0.087090998888015747 -0.065924003720283508
   vertex 0.011385000310838223 -0.087591998279094696 -0.065393000841140747
  endloop
 endfacet
 facet normal 0.36593734419839269 0.50523368723215323 -0.78155536042357854
  outer loop
   vertex 0.0087970001623034477 -0.085495002567768097 -0.060614999383687973
   vertex 0.011269999668002129 -0.08526899665594101 -0.059310998767614365
   vertex 0.012076999992132187 -0.090222001075744629 -0.062134999781847
  endloop
 endfacet
 facet normal 0.94305461894454867 -0.045857625151442261 -0.32946177912289265
  outer loop
   vertex 0.014340000227093697 -0.072653003036975861 -0.062692999839782715
   vertex 0.015077999792993069 -0.077140003442764282 -0.059955999255180359
   vertex 0.013983000069856644 -0.076503001153469086 -0.063179001212120056
  endloop
 endfacet
 facet normal 0.94863849754931939 0.071856705322801515 -0.30809351643214128
  outer loop
   vertex 0.015077999792993069 -0.077140003442764282 -0.059955999255180359
   vertex 0.014015000313520432 -0.082314997911453247 -0.064436003565788269
   vertex 0.013983000069856644 -0.076503001153469086 -0.063179001212120056
  endloop
 endfacet
 facet normal 0.83908772791010267 0.18812907860774883 -0.51043044056253239
  outer loop
   vertex 0.015269000083208084 -0.074028998613357544 -0.058979000896215439
   vertex 0.013640999794006348 -0.068138003349304199 -0.059484001249074936
   vertex 0.015525000169873238 -0.070419996976852417 -0.057227998971939087
  endloop
 endfacet
 facet normal -0.91481938340779745 -0.39246667853324846 0.095264904253649307
  outer loop
   vertex 0.014634000137448311 -0.08310999721288681 -0.061767000705003738
   vertex 0.014015000313520432 -0.082314997911453247 -0.064436003565788269
   vertex 0.015908999368548393 -0.087090998888015747 -0.065924003720283508
  endloop
 endfacet
 facet normal 0.16492626818504993 0.75892882396764128 0.62994155777631167
  outer loop
   vertex 0.011443999595940113 -0.070827998220920563 -0.055668000131845474
   vertex 0.015525000169873238 -0.070419996976852417 -0.057227998971939087
   vertex 0.013640999794006348 -0.068138003349304199 -0.059484001249074936
  endloop
 endfacet
 facet normal 0.10405231287455156 0.86123005797999796 0.49744939784587716
  outer loop
   vertex 0.015525000169873238 -0.070419996976852417 -0.057227998971939087
   vertex 0.011443999595940113 -0.070827998220920563 -0.055668000131845474
   vertex 0.013635000213980675 -0.072709999978542328 -0.052868001163005829
  endloop
 endfacet
 facet normal -0.084934849387945821 0.79490882710685085 0.60075454883592649
  outer loop
   vertex 0.011443999595940113 -0.070827998220920563 -0.055668000131845474
   vertex 0.0086190002039074898 -0.073778003454208374 -0.052163999527692795
   vertex 0.013635000213980675 -0.072709999978542328 -0.052868001163005829
  endloop
 endfacet
 facet normal 0.47452470292771343 -0.54191128627478491 0.69365586865489248
  outer loop
   vertex 0.0096960002556443214 -0.076444000005722046 -0.053068000823259354
   vertex 0.012826999649405479 -0.077887997031211853 -0.056338001042604446
   vertex 0.012660999782383442 -0.075512997806072235 -0.054368998855352402
  endloop
 endfacet
 facet normal 0.18610700961477331 -0.24725683084678804 0.95090916525809632
  outer loop
   vertex 0.0096960002556443214 -0.076444000005722046 -0.053068000823259354
   vertex 0.013635000213980675 -0.072709999978542328 -0.052868001163005829
   vertex 0.0086190002039074898 -0.073778003454208374 -0.052163999527692795
  endloop
 endfacet
 facet normal -0.38828101744596966 0.40348238017007787 -0.82851663856763402
  outer loop
   vertex 0.0096380002796649933 -0.078464001417160034 -0.055123999714851379
   vertex 0.012826999649405479 -0.077887997031211853 -0.056338001042604446
   vertex 0.013539000414311886 -0.084591001272201538 -0.059935998171567917
  endloop
 endfacet
 facet normal -0.34796967051193523 0.37075283223995908 -0.86108039449859963
  outer loop
   vertex 0.011269999668002129 -0.08526899665594101 -0.059310998767614365
   vertex 0.013539000414311886 -0.084591001272201538 -0.059935998171567917
   vertex 0.014417000114917755 -0.089413002133369446 -0.062366999685764313
  endloop
 endfacet
 facet normal -0.50782544876505809 0.016105820993646276 -0.86130941949840989
  outer loop
   vertex 0.0093059996142983437 -0.08790300041437149 -0.064690999686717987
   vertex 0.013276999816298485 -0.090401001274585724 -0.067079000174999237
   vertex 0.010293000377714634 -0.094538003206253052 -0.065397001802921295
  endloop
 endfacet
 facet normal 0.90304693356771504 0.41189867788231049 0.12184299295713051
  outer loop
   vertex 0.0093059996142983437 -0.08790300041437149 -0.064690999686717987
   vertex 0.0097359996289014816 -0.089447997510433197 -0.062655001878738403
   vertex 0.011951000429689884 -0.093956001102924347 -0.063831999897956848
  endloop
 endfacet
 facet normal 0.29410381671568936 0.62967010614018537 -0.71903998666741198
  outer loop
   vertex 0.011385000310838223 -0.087591998279094696 -0.065393000841140747
   vertex 0.016490999609231949 -0.091779999434947968 -0.066972002387046814
   vertex 0.013276999816298485 -0.090401001274585724 -0.067079000174999237
  endloop
 endfacet
 facet normal 0.31921619770672965 0.38315274255526005 -0.86677274703006246
  outer loop
   vertex 0.0097359996289014816 -0.089447997510433197 -0.062655001878738403
   vertex 0.012076999992132187 -0.090222001075744629 -0.062134999781847
   vertex 0.011951000429689884 -0.093956001102924347 -0.063831999897956848
  endloop
 endfacet
 facet normal -0.9890719095694458 -0.098181687136042473 -0.10998688108938537
  outer loop
   vertex 0.015728000551462173 -0.08791700005531311 -0.063559003174304962
   vertex 0.015908999368548393 -0.087090998888015747 -0.065924003720283508
   vertex 0.016490999609231949 -0.091779999434947968 -0.066972002387046814
  endloop
 endfacet
 facet normal 0.23944749993676009 -0.44515099684496484 0.86284731255417924
  outer loop
   vertex 0.012076999992132187 -0.090222001075744629 -0.062134999781847
   vertex 0.014948000200092793 -0.093382000923156738 -0.064562000334262848
   vertex 0.014417000114917755 -0.089413002133369446 -0.062366999685764313
  endloop
 endfacet
 facet normal -0.89447751087557958 0.13396077289916333 -0.42657296428874431
  outer loop
   vertex 0.014634000137448311 -0.08310999721288681 -0.061767000705003738
   vertex 0.013539000414311886 -0.084591001272201538 -0.059935998171567917
   vertex 0.012826999649405479 -0.077887997031211853 -0.056338001042604446
  endloop
 endfacet
 facet normal 0.83325668349794002 -0.31719469284495133 0.45284746464677378
  outer loop
   vertex 0.015077999792993069 -0.077140003442764282 -0.059955999255180359
   vertex 0.012660999782383442 -0.075512997806072235 -0.054368998855352402
   vertex 0.012826999649405479 -0.077887997031211853 -0.056338001042604446
  endloop
 endfacet
 facet normal 0.89693577288243842 -0.40575576570110239 0.17569427402193538
  outer loop
   vertex 0.012660999782383442 -0.075512997806072235 -0.054368998855352402
   vertex 0.015525000169873238 -0.070419996976852417 -0.057227998971939087
   vertex 0.013635000213980675 -0.072709999978542328 -0.052868001163005829
  endloop
 endfacet
 facet normal -0.76384134205423337 0.17421856380608861 -0.62144532840317612
  outer loop
   vertex 0.015728000551462173 -0.08791700005531311 -0.063559003174304962
   vertex 0.014417000114917755 -0.089413002133369446 -0.062366999685764313
   vertex 0.013539000414311886 -0.084591001272201538 -0.059935998171567917
  endloop
 endfacet
 facet normal 0.46890035960258031 -0.37858969525010483 0.79799893196357319
  outer loop
   vertex 0.016959000378847122 -0.093212001025676727 -0.06566300243139267
   vertex 0.014417000114917755 -0.089413002133369446 -0.062366999685764313
   vertex 0.014948000200092793 -0.093382000923156738 -0.064562000334262848
  endloop
 endfacet
 facet normal -0.4330620990716344 -0.053460666397041764 -0.89977729216515268
  outer loop
   vertex 0.010293000377714634 -0.094538003206253052 -0.065397001802921295
   vertex 0.013276999816298485 -0.090401001274585724 -0.067079000174999237
   vertex 0.012559999711811543 -0.096206001937389374 -0.066389001905918121
  endloop
 endfacet
 facet normal -0.15934078347081262 -0.6555552101157841 0.73814489174751996
  outer loop
   vertex 0.014806999824941158 -0.096000000834465027 -0.065720997750759125
   vertex 0.010293000377714634 -0.094538003206253052 -0.065397001802921295
   vertex 0.012559999711811543 -0.096206001937389374 -0.066389001905918121
  endloop
 endfacet
 facet normal 0.043709332348547306 0.024378630393126374 -0.99874680307162911
  outer loop
   vertex 0.016049999743700027 -0.096602000296115875 -0.067109003663063049
   vertex 0.013276999816298485 -0.090401001274585724 -0.067079000174999237
   vertex 0.016490999609231949 -0.091779999434947968 -0.066972002387046814
  endloop
 endfacet
 facet normal -0.21098157617351823 -0.089638356416609777 -0.97337132666535164
  outer loop
   vertex 0.013276999816298485 -0.090401001274585724 -0.067079000174999237
   vertex 0.016049999743700027 -0.096602000296115875 -0.067109003663063049
   vertex 0.012559999711811543 -0.096206001937389374 -0.066389001905918121
  endloop
 endfacet
 facet normal 0.28854308005700907 -0.40054192899186519 0.86966030958684659
  outer loop
   vertex 0.011951000429689884 -0.093956001102924347 -0.063831999897956848
   vertex 0.014806999824941158 -0.096000000834465027 -0.065720997750759125
   vertex 0.014948000200092793 -0.093382000923156738 -0.064562000334262848
  endloop
 endfacet
 facet normal 0.91167174024088748 -0.071882755736156614 -0.40458312801441398
  outer loop
   vertex 0.016049999743700027 -0.096602000296115875 -0.067109003663063049
   vertex 0.016490999609231949 -0.091779999434947968 -0.066972002387046814
   vertex 0.016959000378847122 -0.093212001025676727 -0.06566300243139267
  endloop
 endfacet
 facet normal 0.4689069505316833 -0.3785399698784761 0.79801864824544033
  outer loop
   vertex 0.014806999824941158 -0.096000000834465027 -0.065720997750759125
   vertex 0.016959000378847122 -0.093212001025676727 -0.06566300243139267
   vertex 0.014948000200092793 -0.093382000923156738 -0.064562000334262848
  endloop
 endfacet
 facet normal 0.56097757315323327 -0.44749475977433584 0.69645717915290262
  outer loop
   vertex 0.016049999743700027 -0.096602000296115875 -0.067109003663063049
   vertex 0.016959000378847122 -0.093212001025676727 -0.06566300243139267
   vertex 0.014806999824941158 -0.096000000834465027 -0.065720997750759125
  endloop
 endfacet
 facet normal -0.027241229933125985 -0.92576279557559571 0.3771222105893372
  outer loop
   vertex 0.016049999743700027 -0.096602000296115875 -0.067109003663063049
   vertex 0.014806999824941158 -0.096000000834465027 -0.065720997750759125
   vertex 0.012559999711811543 -0.096206001937389374 -0.066389001905918121
  endloop
 endfacet
endsolid
