solid Visualization Toolkit generated SLA File
 facet normal -0.94786445373467287 -0.2519020471898491 -0.19518795036536718
  outer loop
   vertex -0.0040000001899898052 -0.12484999746084213 -0.014303999952971935
   vertex -0.0035520000383257866 -0.12393300235271454 -0.017663000151515007
   vertex -0.0017969999462366104 -0.13121399283409119 -0.016789000481367111
  endloop
 endfacet
 facet normal -0.83585681898424735 -0.068837512103916254 -0.54461433609929721
  outer loop
   vertex -0.006407999899238348 -0.11844000220298767 -0.01397399976849556
   vertex -0.004372000228613615 -0.11685600131750107 -0.017299000173807144
   vertex -0.0035520000383257866 -0.12393300235271454 -0.017663000151515007
  endloop
 endfacet
 facet normal -0.17741051324489016 0.073978416018486523 -0.98135248700636635
  outer loop
   vertex -0.0068879998289048672 -0.12158799916505814 -0.013535999692976475
   vertex -0.0040000001899898052 -0.12484999746084213 -0.014303999952971935
   vertex -0.0010779999429360032 -0.13130700588226318 -0.015318999998271465
  endloop
 endfacet
 facet normal -0.89240286480587094 -0.34991124183220307 0.28491972505553176
  outer loop
   vertex -0.0040000001899898052 -0.12484999746084213 -0.014303999952971935
   vertex -0.0072650001384317875 -0.11500199884176254 -0.012435999698936939
   vertex -0.006407999899238348 -0.11844000220298767 -0.01397399976849556
  endloop
 endfacet
 facet normal -0.60924812349987367 -0.24446168892654366 0.75435747935515585
  outer loop
   vertex -0.0035520000383257866 -0.12393300235271454 -0.017663000151515007
   vertex -0.0058059999719262123 -0.12282700091600418 -0.019124999642372131
   vertex -0.0037809999193996191 -0.1292870044708252 -0.019582999870181084
  endloop
 endfacet
 facet normal 0.77580061679664958 0.0066327570563389261 -0.63094326964614633
  outer loop
   vertex -0.004372000228613615 -0.11685600131750107 -0.017299000173807144
   vertex -0.0058059999719262123 -0.12282700091600418 -0.019124999642372131
   vertex -0.0057439999654889107 -0.11571499705314636 -0.018974000588059425
  endloop
 endfacet
 facet normal 0.67795453004333894 -0.28467207581229503 -0.67774587010651299
  outer loop
   vertex -0.0017969999462366104 -0.13121399283409119 -0.016789000481367111
   vertex -0.0065120002254843712 -0.13514100015163422 -0.019856000319123268
   vertex -0.0037809999193996191 -0.1292870044708252 -0.019582999870181084
  endloop
 endfacet
 facet normal 0.72575768684249531 -0.5661701060558203 -0.39080326380132979
  outer loop
   vertex -0.0010779999429360032 -0.13130700588226318 -0.015318999998271465
   vertex -0.0065120002254843712 -0.13514100015163422 -0.019856000319123268
   vertex -0.0017969999462366104 -0.13121399283409119 -0.016789000481367111
  endloop
 endfacet
 facet normal 0.59740754724679368 -0.80100691162293203 -0.038628357781070211
  outer loop
   vertex -0.0065120002254843712 -0.13514100015163422 -0.019856000319123268
   vertex -0.0010779999429360032 -0.13130700588226318 -0.015318999998271465
   vertex -0.006155999843031168 -0.1350490003824234 -0.016257999464869499
  endloop
 endfacet
 facet normal -0.039805707320643813 -0.19204448820630368 0.98057861500966981
  outer loop
   vertex -0.006155999843031168 -0.1350490003824234 -0.016257999464869499
   vertex -0.0010779999429360032 -0.13130700588226318 -0.015318999998271465
   vertex -0.0058019999414682388 -0.12807099521160126 -0.014876999892294407
  endloop
 endfacet
 facet normal -0.96072652644649481 -0.077794659283057538 -0.26636916557493173
  outer loop
   vertex -0.0060270000249147415 -0.11085999757051468 -0.013081000186502934
   vertex -0.0052869999781250954 -0.10966499894857407 -0.016099000349640846
   vertex -0.004372000228613615 -0.11685600131750107 -0.017299000173807144
  endloop
 endfacet
 facet normal -0.81548406799178208 0.10797816360208377 -0.56861801856492045
  outer loop
   vertex -0.0068109999410808086 -0.10832899808883667 -0.011475999839603901
   vertex -0.0060270000249147415 -0.11085999757051468 -0.013081000186502934
   vertex -0.006407999899238348 -0.11844000220298767 -0.01397399976849556
  endloop
 endfacet
 facet normal -0.96940157022472329 -0.04173014988357529 0.24190740012768383
  outer loop
   vertex -0.0052869999781250954 -0.10966499894857407 -0.016099000349640846
   vertex -0.0060049998573958874 -0.1087070032954216 -0.018811000511050224
   vertex -0.0057439999654889107 -0.11571499705314636 -0.018974000588059425
  endloop
 endfacet
 facet normal -0.39229783015216324 -0.24888605938754563 0.88552704187983089
  outer loop
   vertex -0.0096429996192455292 -0.12138699740171432 -0.014700000174343586
   vertex -0.0058019999414682388 -0.12807099521160126 -0.014876999892294407
   vertex -0.0068879998289048672 -0.12158799916505814 -0.013535999692976475
  endloop
 endfacet
 facet normal -0.4426379674879295 -0.17231426210457956 0.87998830947547757
  outer loop
   vertex -0.010467999614775181 -0.11464899778366089 -0.013977999798953533
   vertex -0.0068879998289048672 -0.12158799916505814 -0.013535999692976475
   vertex -0.0072650001384317875 -0.11500199884176254 -0.012435999698936939
  endloop
 endfacet
 facet normal -0.062445330671414792 -0.1907136719805462 0.97965752995474598
  outer loop
   vertex -0.0058019999414682388 -0.12807099521160126 -0.014876999892294407
   vertex -0.0083259996026754379 -0.12808699905872345 -0.015041000209748745
   vertex -0.006155999843031168 -0.1350490003824234 -0.016257999464869499
  endloop
 endfacet
 facet normal -0.26070845189358866 -0.12007235024848617 0.9579215697629182
  outer loop
   vertex -0.01056199986487627 -0.10797099769115448 -0.012451999820768833
   vertex -0.0072650001384317875 -0.11500199884176254 -0.012435999698936939
   vertex -0.0068109999410808086 -0.10832899808883667 -0.011475999839603901
  endloop
 endfacet
 facet normal -0.87643449080168823 -0.43849845880397392 0.19895146382905798
  outer loop
   vertex -0.0058059999719262123 -0.12282700091600418 -0.019124999642372131
   vertex -0.006147999782115221 -0.12465699762105942 -0.024664999917149544
   vertex -0.0031179999932646751 -0.13097399473190308 -0.025240000337362289
  endloop
 endfacet
 facet normal -0.79390324646236521 -0.30053705314748913 0.52857839053629541
  outer loop
   vertex -0.0057439999654889107 -0.11571499705314636 -0.018974000588059425
   vertex -0.0080880001187324524 -0.11772599816322327 -0.023638000711798668
   vertex -0.006147999782115221 -0.12465699762105942 -0.024664999917149544
  endloop
 endfacet
 facet normal 0.78063870340066466 -0.56794045179222841 0.26085792679343456
  outer loop
   vertex -0.0037809999193996191 -0.1292870044708252 -0.019582999870181084
   vertex -0.0070070000365376472 -0.13502100110054016 -0.022413000464439392
   vertex -0.0031179999932646751 -0.13097399473190308 -0.025240000337362289
  endloop
 endfacet
 facet normal 0.97142366747527231 -0.1125014874858582 -0.20899634825125679
  outer loop
   vertex -0.0060049998573958874 -0.1087070032954216 -0.018811000511050224
   vertex -0.0080880001187324524 -0.11772599816322327 -0.023638000711798668
   vertex -0.0071840002201497555 -0.11027500033378601 -0.023446999490261078
  endloop
 endfacet
 facet normal -0.0079125703204561814 -0.99893990824147716 -0.045348108598191973
  outer loop
   vertex -0.0081690000370144844 -0.13523900508880615 -0.017408000305294991
   vertex -0.0070070000365376472 -0.13502100110054016 -0.022413000464439392
   vertex -0.0065120002254843712 -0.13514100015163422 -0.019856000319123268
  endloop
 endfacet
 facet normal 0.084247935096947293 -0.99629741215105361 0.017139194059644966
  outer loop
   vertex -0.0065120002254843712 -0.13514100015163422 -0.019856000319123268
   vertex -0.006155999843031168 -0.1350490003824234 -0.016257999464869499
   vertex -0.0081690000370144844 -0.13523900508880615 -0.017408000305294991
  endloop
 endfacet
 facet normal -0.71070545589271428 -0.33011516788605128 0.62122599019671854
  outer loop
   vertex -0.010293000377714634 -0.12887300550937653 -0.017709000036120415
   vertex -0.006155999843031168 -0.1350490003824234 -0.016257999464869499
   vertex -0.0083259996026754379 -0.12808699905872345 -0.015041000209748745
  endloop
 endfacet
 facet normal 0.99809897097685218 -0.06087402424609277 -0.0096331358879019283
  outer loop
   vertex -0.0048509999178349972 -0.1031700000166893 -0.011967999860644341
   vertex -0.0052869999781250954 -0.10966499894857407 -0.016099000349640846
   vertex -0.0048360000364482403 -0.10235500335693359 -0.015564000234007835
  endloop
 endfacet
 facet normal 0.59609166018597037 -0.20356971168677016 0.7766814695488099
  outer loop
   vertex -0.0063849999569356441 -0.10166800022125244 -0.01039700023829937
   vertex -0.0060270000249147415 -0.11085999757051468 -0.013081000186502934
   vertex -0.0048509999178349972 -0.1031700000166893 -0.011967999860644341
  endloop
 endfacet
 facet normal 0.96268299880717267 -0.0403762997588877 -0.26760268725371517
  outer loop
   vertex -0.0048360000364482403 -0.10235500335693359 -0.015564000234007835
   vertex -0.0060049998573958874 -0.1087070032954216 -0.018811000511050224
   vertex -0.0056599997915327549 -0.10171400010585785 -0.018625000491738319
  endloop
 endfacet
 facet normal -0.17828546489057742 -0.14622060368091017 0.97305386699192598
  outer loop
   vertex -0.0099400002509355545 -0.10127300024032593 -0.010989000089466572
   vertex -0.0068109999410808086 -0.10832899808883667 -0.011475999839603901
   vertex -0.0063849999569356441 -0.10166800022125244 -0.01039700023829937
  endloop
 endfacet
 facet normal 0.95385436750560293 -0.00067495720168465 -0.30026886289334415
  outer loop
   vertex -0.0056599997915327549 -0.10171400010585785 -0.018625000491738319
   vertex -0.0071840002201497555 -0.11027500033378601 -0.023446999490261078
   vertex -0.0070110000669956207 -0.1029060035943985 -0.022913999855518341
  endloop
 endfacet
 facet normal -0.88580488537706126 -0.19553944904662623 0.42084917596292559
  outer loop
   vertex -0.010912000201642513 -0.12190999835729599 -0.017613999545574188
   vertex -0.0083259996026754379 -0.12808699905872345 -0.015041000209748745
   vertex -0.0096429996192455292 -0.12138699740171432 -0.014700000174343586
  endloop
 endfacet
 facet normal -0.86464721277913126 -0.15700271805741942 0.47721624443836991
  outer loop
   vertex -0.012153999879956245 -0.11513900011777878 -0.017193999141454697
   vertex -0.0096429996192455292 -0.12138699740171432 -0.014700000174343586
   vertex -0.010467999614775181 -0.11464899778366089 -0.013977999798953533
  endloop
 endfacet
 facet normal -0.86111395545811353 -0.12474759753585403 0.49286995508380754
  outer loop
   vertex -0.012776999734342098 -0.1083189994096756 -0.016410000622272491
   vertex -0.010467999614775181 -0.11464899778366089 -0.013977999798953533
   vertex -0.01056199986487627 -0.10797099769115448 -0.012451999820768833
  endloop
 endfacet
 facet normal -0.84361548265322139 -0.038636864073164426 0.53555588892510952
  outer loop
   vertex -0.012838000431656837 -0.10141199827194214 -0.015564000234007835
   vertex -0.01056199986487627 -0.10797099769115448 -0.012451999820768833
   vertex -0.0099400002509355545 -0.10127300024032593 -0.010989000089466572
  endloop
 endfacet
 facet normal -0.2761118277883271 0.049590763914618141 -0.95984530768752196
  outer loop
   vertex -0.006147999782115221 -0.12465699762105942 -0.024664999917149544
   vertex -0.0081139998510479927 -0.12828700244426727 -0.024287000298500061
   vertex -0.0085680000483989716 -0.12162099778652191 -0.023811999708414078
  endloop
 endfacet
 facet normal -0.15262492593379312 0.062868330137172912 -0.98628251786669496
  outer loop
   vertex -0.0080880001187324524 -0.11772599816322327 -0.023638000711798668
   vertex -0.0085680000483989716 -0.12162099778652191 -0.023811999708414078
   vertex -0.0089349998161196709 -0.11496599763631821 -0.023330999538302422
  endloop
 endfacet
 facet normal 0.56234183728152076 -0.76301781282559 -0.31870907635914086
  outer loop
   vertex -0.0031179999932646751 -0.13097399473190308 -0.025240000337362289
   vertex -0.0070070000365376472 -0.13502100110054016 -0.022413000464439392
   vertex -0.0078530004248023033 -0.13496699929237366 -0.024034999310970306
  endloop
 endfacet
 facet normal -0.21051709768491733 -0.045065385512634268 -0.97655090118790877
  outer loop
   vertex -0.0031179999932646751 -0.13097399473190308 -0.025240000337362289
   vertex -0.0078530004248023033 -0.13496699929237366 -0.024034999310970306
   vertex -0.0081139998510479927 -0.12828700244426727 -0.024287000298500061
  endloop
 endfacet
 facet normal -0.20731040789637623 0.053227201360504156 -0.97682611544387299
  outer loop
   vertex -0.0071840002201497555 -0.11027500033378601 -0.023446999490261078
   vertex -0.0089349998161196709 -0.11496599763631821 -0.023330999538302422
   vertex -0.0094649996608495712 -0.10825800150632858 -0.022853000089526176
  endloop
 endfacet
 facet normal -0.12627685789876678 0.046606654128525167 -0.99089957864062028
  outer loop
   vertex -0.0070110000669956207 -0.1029060035943985 -0.022913999855518341
   vertex -0.0094649996608495712 -0.10825800150632858 -0.022853000089526176
   vertex -0.0097049996256828308 -0.10155200213193893 -0.022507000714540482
  endloop
 endfacet
 facet normal -0.94411329983215531 -0.31893700642458006 -0.083242194907185943
  outer loop
   vertex -0.010600999929010868 -0.12697599828243256 -0.021484000608325005
   vertex -0.0081690000370144844 -0.13523900508880615 -0.017408000305294991
   vertex -0.010293000377714634 -0.12887300550937653 -0.017709000036120415
  endloop
 endfacet
 facet normal 0.6859233817348962 -0.19668631016241078 0.70058804570450672
  outer loop
   vertex -0.0081139998510479927 -0.12828700244426727 -0.024287000298500061
   vertex -0.010600999929010868 -0.12697599828243256 -0.021484000608325005
   vertex -0.011660000309348106 -0.13330499827861786 -0.022223999723792076
  endloop
 endfacet
 facet normal -0.99606398410469144 -0.088588494595595174 0.0029356762040651384
  outer loop
   vertex -0.01104000024497509 -0.12060199677944183 -0.021572999656200409
   vertex -0.010293000377714634 -0.12887300550937653 -0.017709000036120415
   vertex -0.010912000201642513 -0.12190999835729599 -0.017613999545574188
  endloop
 endfacet
 facet normal 0.97671387275125987 -0.21282552673177066 -0.027116525341202926
  outer loop
   vertex -0.0033170001115649939 -0.095969997346401215 -0.010963999666273594
   vertex -0.0048360000364482403 -0.10235500335693359 -0.015564000234007835
   vertex -0.0032500000670552254 -0.095238998532295227 -0.014287999831140041
  endloop
 endfacet
 facet normal 0.61634501734707037 -0.23607432193034691 0.7512574353153294
  outer loop
   vertex -0.0055410000495612621 -0.095169998705387115 -0.0088879996910691261
   vertex -0.0048509999178349972 -0.1031700000166893 -0.011967999860644341
   vertex -0.0033170001115649939 -0.095969997346401215 -0.010963999666273594
  endloop
 endfacet
 facet normal 0.9446669428816008 -0.1596758978021143 -0.28654489122617288
  outer loop
   vertex -0.0032500000670552254 -0.095238998532295227 -0.014287999831140041
   vertex -0.0056599997915327549 -0.10171400010585785 -0.018625000491738319
   vertex -0.0043700002133846283 -0.094729997217655182 -0.018263999372720718
  endloop
 endfacet
 facet normal -0.21697992270930513 -0.19398889667589655 0.95670686268445493
  outer loop
   vertex -0.0092810001224279404 -0.094581998884677887 -0.0096169998869299889
   vertex -0.0063849999569356441 -0.10166800022125244 -0.01039700023829937
   vertex -0.0055410000495612621 -0.095169998705387115 -0.0088879996910691261
  endloop
 endfacet
 facet normal 0.92236732043716907 -0.08341309144539609 -0.37720124915630721
  outer loop
   vertex -0.0043700002133846283 -0.094729997217655182 -0.018263999372720718
   vertex -0.0070110000669956207 -0.1029060035943985 -0.022913999855518341
   vertex -0.0060319998301565647 -0.09548100084066391 -0.022161999717354774
  endloop
 endfacet
 facet normal -0.81310484316837539 -0.039012577081953576 0.58080851650570386
  outer loop
   vertex -0.012961000204086304 -0.09452500194311142 -0.014764999970793724
   vertex -0.0099400002509355545 -0.10127300024032593 -0.010989000089466572
   vertex -0.0092810001224279404 -0.094581998884677887 -0.0096169998869299889
  endloop
 endfacet
 facet normal 0.28468581342803961 -0.11817629918192858 -0.9513087563690763
  outer loop
   vertex -0.0060319998301565647 -0.09548100084066391 -0.022161999717354774
   vertex -0.0097049996256828308 -0.10155200213193893 -0.022507000714540482
   vertex -0.0082820001989603043 -0.095057003200054169 -0.022887999191880226
  endloop
 endfacet
 facet normal -0.98107001972645258 -0.17478518776221211 -0.08337718232745904
  outer loop
   vertex -0.011950000189244747 -0.11421900242567062 -0.021523000672459602
   vertex -0.010912000201642513 -0.12190999835729599 -0.017613999545574188
   vertex -0.012153999879956245 -0.11513900011777878 -0.017193999141454697
  endloop
 endfacet
 facet normal -0.99393214282574405 -0.082421303963430517 -0.072839715202576649
  outer loop
   vertex -0.012489999644458294 -0.10784199833869934 -0.020865999162197113
   vertex -0.012153999879956245 -0.11513900011777878 -0.017193999141454697
   vertex -0.012776999734342098 -0.1083189994096756 -0.016410000622272491
  endloop
 endfacet
 facet normal -0.99704264926145214 0.00060706323263983039 -0.076847817327082318
  outer loop
   vertex -0.012480000033974648 -0.10143899917602539 -0.020208999514579773
   vertex -0.012776999734342098 -0.1083189994096756 -0.016410000622272491
   vertex -0.012838000431656837 -0.10141199827194214 -0.015564000234007835
  endloop
 endfacet
 facet normal -0.99553423596106649 -0.0068568558843727758 -0.094151837777052313
  outer loop
   vertex -0.012501000426709652 -0.095017999410629272 -0.019593000411987305
   vertex -0.012838000431656837 -0.10141199827194214 -0.015564000234007835
   vertex -0.012961000204086304 -0.09452500194311142 -0.014764999970793724
  endloop
 endfacet
 facet normal -0.68306670512412304 -0.057211745242433235 -0.72811173081965186
  outer loop
   vertex -0.0085680000483989716 -0.12162099778652191 -0.023811999708414078
   vertex -0.010600999929010868 -0.12697599828243256 -0.021484000608325005
   vertex -0.01104000024497509 -0.12060199677944183 -0.021572999656200409
  endloop
 endfacet
 facet normal -0.52547323487879227 -0.068271742913336347 -0.84806653544730382
  outer loop
   vertex -0.0089349998161196709 -0.11496599763631821 -0.023330999538302422
   vertex -0.01104000024497509 -0.12060199677944183 -0.021572999656200409
   vertex -0.011950000189244747 -0.11421900242567062 -0.021523000672459602
  endloop
 endfacet
 facet normal -0.54470369964915566 0.04017684116792241 -0.83766562602406569
  outer loop
   vertex -0.0094649996608495712 -0.10825800150632858 -0.022853000089526176
   vertex -0.011950000189244747 -0.11421900242567062 -0.021523000672459602
   vertex -0.012489999644458294 -0.10784199833869934 -0.020865999162197113
  endloop
 endfacet
 facet normal -0.6338329544661041 0.079929256137192942 -0.76932899324419368
  outer loop
   vertex -0.0097049996256828308 -0.10155200213193893 -0.022507000714540482
   vertex -0.012489999644458294 -0.10784199833869934 -0.020865999162197113
   vertex -0.012480000033974648 -0.10143899917602539 -0.020208999514579773
  endloop
 endfacet
 facet normal -0.6134335895974945 0.07342988228205595 -0.78632517671862445
  outer loop
   vertex -0.0082820001989603043 -0.095057003200054169 -0.022887999191880226
   vertex -0.012480000033974648 -0.10143899917602539 -0.020208999514579773
   vertex -0.012501000426709652 -0.095017999410629272 -0.019593000411987305
  endloop
 endfacet
 facet normal 0.83629716738486282 -0.51105038677363346 0.19858134354106449
  outer loop
   vertex -0.00046899999142624438 -0.089221999049186707 -0.010514999739825726
   vertex -0.0032500000670552254 -0.095238998532295227 -0.014287999831140041
   vertex 0.00036400000681169331 -0.089057996869087219 -0.013601000420749187
  endloop
 endfacet
 facet normal 0.61123100311131584 -0.30652268775108354 0.72968520796942715
  outer loop
   vertex -0.0036989999935030937 -0.088876001536846161 -0.0076640001498162746
   vertex -0.0033170001115649939 -0.095969997346401215 -0.010963999666273594
   vertex -0.00046899999142624438 -0.089221999049186707 -0.010514999739825726
  endloop
 endfacet
 facet normal 0.7880919692936138 -0.61316221551185879 -0.054250764082199976
  outer loop
   vertex 0.00036400000681169331 -0.089057996869087219 -0.013601000420749187
   vertex -0.0043700002133846283 -0.094729997217655182 -0.018263999372720718
   vertex -0.00027700001373887062 -0.089433997869491577 -0.01866300031542778
  endloop
 endfacet
 facet normal -0.022143423409541722 -0.18459971319679894 0.98256430562450481
  outer loop
   vertex -0.0098139997571706772 -0.088051997125148773 -0.0076469997875392437
   vertex -0.0055410000495612621 -0.095169998705387115 -0.0088879996910691261
   vertex -0.0036989999935030937 -0.088876001536846161 -0.0076640001498162746
  endloop
 endfacet
 facet normal 0.76808971873146004 -0.49827989020721802 -0.40218818355852964
  outer loop
   vertex -0.00027700001373887062 -0.089433997869491577 -0.01866300031542778
   vertex -0.0060319998301565647 -0.09548100084066391 -0.022161999717354774
   vertex -0.0024890000931918621 -0.089259997010231018 -0.023103000596165657
  endloop
 endfacet
 facet normal -0.87453655909314221 -0.20409938020637278 0.43991959470896691
  outer loop
   vertex -0.012881999835371971 -0.087691999971866608 -0.013578999787569046
   vertex -0.0092810001224279404 -0.094581998884677887 -0.0096169998869299889
   vertex -0.0098139997571706772 -0.088051997125148773 -0.0076469997875392437
  endloop
 endfacet
 facet normal 0.12970127494287478 -0.16586852279503467 -0.97758130732128135
  outer loop
   vertex -0.0024890000931918621 -0.089259997010231018 -0.023103000596165657
   vertex -0.0082820001989603043 -0.095057003200054169 -0.022887999191880226
   vertex -0.0077880001626908779 -0.088500000536441803 -0.023934999480843544
  endloop
 endfacet
 facet normal -0.99981485871983955 0.013873657415549065 -0.013333038398772885
  outer loop
   vertex -0.012822999618947506 -0.088621996343135834 -0.018970999866724014
   vertex -0.012961000204086304 -0.09452500194311142 -0.014764999970793724
   vertex -0.012881999835371971 -0.087691999971866608 -0.013578999787569046
  endloop
 endfacet
 facet normal -0.70208185361453934 0.033826508688225981 -0.7112923717678532
  outer loop
   vertex -0.0077880001626908779 -0.088500000536441803 -0.023934999480843544
   vertex -0.012501000426709652 -0.095017999410629272 -0.019593000411987305
   vertex -0.012822999618947506 -0.088621996343135834 -0.018970999866724014
  endloop
 endfacet
 facet normal 0.84698344423170568 -0.17103230161643485 0.50335573603683315
  outer loop
   vertex -0.0010049999691545963 -0.082016997039318085 -0.0089050000533461571
   vertex 0.00036400000681169331 -0.089057996869087219 -0.013601000420749187
   vertex 0.0009679999784566462 -0.08218500018119812 -0.012281999923288822
  endloop
 endfacet
 facet normal 0.64979809785629339 -0.11940135729736805 0.75067019915398858
  outer loop
   vertex -0.0010049999691545963 -0.082016997039318085 -0.0089050000533461571
   vertex -0.0036989999935030937 -0.088876001536846161 -0.0076640001498162746
   vertex -0.00046899999142624438 -0.089221999049186707 -0.010514999739825726
  endloop
 endfacet
 facet normal 0.9868310622141957 -0.029486026376230934 -0.15904410991213253
  outer loop
   vertex 0.0009679999784566462 -0.08218500018119812 -0.012281999923288822
   vertex -0.00027700001373887062 -0.089433997869491577 -0.01866300031542778
   vertex 3.4000000596279278e-05 -0.082483001053333282 -0.018022000789642334
  endloop
 endfacet
 facet normal 0.067600925096237427 0.15186131018735902 0.98608734775085305
  outer loop
   vertex -0.0085960002616047859 -0.081442996859550476 -0.0084729995578527451
   vertex -0.0036989999935030937 -0.088876001536846161 -0.0076640001498162746
   vertex -0.0010049999691545963 -0.082016997039318085 -0.0089050000533461571
  endloop
 endfacet
 facet normal 0.94110414864974445 -0.11088075720368012 -0.31941890845123472
  outer loop
   vertex 3.4000000596279278e-05 -0.082483001053333282 -0.018022000789642334
   vertex -0.0024890000931918621 -0.089259997010231018 -0.023103000596165657
   vertex -0.0014519999967887998 -0.082062996923923492 -0.022546000778675079
  endloop
 endfacet
 facet normal -0.84841205898905747 0.21671568213153328 0.48294025642952187
  outer loop
   vertex -0.011646999977529049 -0.08089900016784668 -0.014077000319957733
   vertex -0.0098139997571706772 -0.088051997125148773 -0.0076469997875392437
   vertex -0.0085960002616047859 -0.081442996859550476 -0.0084729995578527451
  endloop
 endfacet
 facet normal 0.14119330668374117 0.074045519514587627 -0.9872090514108578
  outer loop
   vertex -0.0014519999967887998 -0.082062996923923492 -0.022546000778675079
   vertex -0.0077880001626908779 -0.088500000536441803 -0.023934999480843544
   vertex -0.0069519998505711555 -0.081987999379634857 -0.023327000439167023
  endloop
 endfacet
 facet normal -0.98363869621099531 0.17601645639646171 -0.03838127660677218
  outer loop
   vertex -0.011702000163495541 -0.08228900283575058 -0.0190420001745224
   vertex -0.012881999835371971 -0.087691999971866608 -0.013578999787569046
   vertex -0.011646999977529049 -0.08089900016784668 -0.014077000319957733
  endloop
 endfacet
 facet normal -0.66958583104958835 0.11028837703486016 -0.73450070711242232
  outer loop
   vertex -0.0069519998505711555 -0.081987999379634857 -0.023327000439167023
   vertex -0.012822999618947506 -0.088621996343135834 -0.018970999866724014
   vertex -0.011702000163495541 -0.08228900283575058 -0.0190420001745224
  endloop
 endfacet
 facet normal 0.061560195796256843 0.97495621154453538 -0.2137071076596514
  outer loop
   vertex -0.0010049999691545963 -0.082016997039318085 -0.0089050000533461571
   vertex -0.0046979999169707298 -0.083114996552467346 -0.014977999962866306
   vertex -0.0085960002616047859 -0.081442996859550476 -0.0084729995578527451
  endloop
 endfacet
 facet normal -0.1085577687974829 0.98769686025138159 -0.1125616412605782
  outer loop
   vertex 0.0009679999784566462 -0.08218500018119812 -0.012281999923288822
   vertex -0.0046979999169707298 -0.083114996552467346 -0.014977999962866306
   vertex -0.0010049999691545963 -0.082016997039318085 -0.0089050000533461571
  endloop
 endfacet
 facet normal -0.14938331912625707 0.9884104502183958 -0.027007514989181663
  outer loop
   vertex 3.4000000596279278e-05 -0.082483001053333282 -0.018022000789642334
   vertex -0.0046979999169707298 -0.083114996552467346 -0.014977999962866306
   vertex 0.0009679999784566462 -0.08218500018119812 -0.012281999923288822
  endloop
 endfacet
 facet normal -0.060460927486669758 0.99187345774035607 0.11194427219666853
  outer loop
   vertex -0.0014519999967887998 -0.082062996923923492 -0.022546000778675079
   vertex -0.0046979999169707298 -0.083114996552467346 -0.014977999962866306
   vertex 3.4000000596279278e-05 -0.082483001053333282 -0.018022000789642334
  endloop
 endfacet
 facet normal 0.29508375754340155 0.95303864711365638 -0.068138925305866613
  outer loop
   vertex -0.0085960002616047859 -0.081442996859550476 -0.0084729995578527451
   vertex -0.0046979999169707298 -0.083114996552467346 -0.014977999962866306
   vertex -0.011646999977529049 -0.08089900016784668 -0.014077000319957733
  endloop
 endfacet
 facet normal -0.0056996248995396402 0.99079080901054262 0.13528151040049413
  outer loop
   vertex -0.0069519998505711555 -0.081987999379634857 -0.023327000439167023
   vertex -0.0046979999169707298 -0.083114996552467346 -0.014977999962866306
   vertex -0.0014519999967887998 -0.082062996923923492 -0.022546000778675079
  endloop
 endfacet
 facet normal 0.26203261040562736 0.92856922831443922 -0.26286517325720343
  outer loop
   vertex -0.011646999977529049 -0.08089900016784668 -0.014077000319957733
   vertex -0.0046979999169707298 -0.083114996552467346 -0.014977999962866306
   vertex -0.011702000163495541 -0.08228900283575058 -0.0190420001745224
  endloop
 endfacet
 facet normal 0.046566493515447782 0.99152662390794744 0.12127042410820284
  outer loop
   vertex -0.011702000163495541 -0.08228900283575058 -0.0190420001745224
   vertex -0.0046979999169707298 -0.083114996552467346 -0.014977999962866306
   vertex -0.0069519998505711555 -0.081987999379634857 -0.023327000439167023
  endloop
 endfacet
endsolid
