solid Visualization Toolkit generated SLA File
 facet normal -0.33409392157097634 0.9303233543915469 -0.15126039747067499
  outer loop
   vertex 0.0061260000802576542 -0.13693299889564514 0.026988999918103218
   vertex 0.0076069999486207962 -0.13502499461174011 0.035452999174594879
   vertex 0.0091359997168183327 -0.1351500004529953 0.031307000666856766
  endloop
 endfacet
 facet normal 0.83744612799920981 -0.28619683036515331 -0.4655914056209271
  outer loop
   vertex 0.0057950001209974289 -0.13931199908256531 0.027855999767780304
   vertex 0.0061260000802576542 -0.13693299889564514 0.026988999918103218
   vertex 0.0091359997168183327 -0.1351500004529953 0.031307000666856766
  endloop
 endfacet
 facet normal 0.85991164069818993 0.059164379290413932 0.5070025112511054
  outer loop
   vertex 0.0061260000802576542 -0.13693299889564514 0.026988999918103218
   vertex 0.0032470000442117453 -0.13506500422954559 0.031654000282287598
   vertex 0.0030759999062865973 -0.13830399513244629 0.032322000712156296
  endloop
 endfacet
 facet normal 0.93396891873833621 -0.085353818816279209 0.34701121659713086
  outer loop
   vertex 0.0076069999486207962 -0.13502499461174011 0.035452999174594879
   vertex 0.008732999674975872 -0.1382099986076355 0.031638998538255692
   vertex 0.0091359997168183327 -0.1351500004529953 0.031307000666856766
  endloop
 endfacet
 facet normal -0.65559992020404068 0.072156983473787947 0.75165292147667384
  outer loop
   vertex 0.0032470000442117453 -0.13506500422954559 0.031654000282287598
   vertex 0.0071450001560151577 -0.13848300278186798 0.035381998866796494
   vertex 0.0076069999486207962 -0.13502499461174011 0.035452999174594879
  endloop
 endfacet
 facet normal 0.79407763815771415 -0.29745857902023898 -0.53005575022362172
  outer loop
   vertex 0.008732999674975872 -0.1382099986076355 0.031638998538255692
   vertex 0.0051649999804794788 -0.14178499579429626 0.028300000354647636
   vertex 0.0057950001209974289 -0.13931199908256531 0.027855999767780304
  endloop
 endfacet
 facet normal 0.85845313989191274 0.057575340431137587 0.50965016117328432
  outer loop
   vertex 0.0057950001209974289 -0.13931199908256531 0.027855999767780304
   vertex 0.0030759999062865973 -0.13830399513244629 0.032322000712156296
   vertex 0.0035200000274926424 -0.14146299660205841 0.03193100169301033
  endloop
 endfacet
 facet normal 0.85051697977538609 -0.40870599137165797 0.33102912217910008
  outer loop
   vertex 0.0071450001560151577 -0.13848300278186798 0.035381998866796494
   vertex 0.0075190002098679543 -0.14101900160312653 0.031289998441934586
   vertex 0.008732999674975872 -0.1382099986076355 0.031638998538255692
  endloop
 endfacet
 facet normal -0.59756445373114542 -0.16305711365218253 0.78506630377594033
  outer loop
   vertex 0.0030759999062865973 -0.13830399513244629 0.032322000712156296
   vertex 0.0058840001001954079 -0.1413629949092865 0.033824000507593155
   vertex 0.0071450001560151577 -0.13848300278186798 0.035381998866796494
  endloop
 endfacet
 facet normal 0.79263388976436522 -0.22689331362882686 -0.56590718411020624
  outer loop
   vertex 0.0075190002098679543 -0.14101900160312653 0.031289998441934586
   vertex 0.0049279998056590557 -0.14408199489116669 0.028889000415802002
   vertex 0.0051649999804794788 -0.14178499579429626 0.028300000354647636
  endloop
 endfacet
 facet normal 0.89895820750394673 -0.12875287721746251 0.41868465193928034
  outer loop
   vertex 0.0051649999804794788 -0.14178499579429626 0.028300000354647636
   vertex 0.0035200000274926424 -0.14146299660205841 0.03193100169301033
   vertex 0.0032540000975131989 -0.14469900727272034 0.031507000327110291
  endloop
 endfacet
 facet normal 0.83919834120994885 -0.16002739454710019 0.51974741664094593
  outer loop
   vertex 0.0058840001001954079 -0.1413629949092865 0.033824000507593155
   vertex 0.0070219999179244041 -0.14409300684928894 0.03114599920809269
   vertex 0.0075190002098679543 -0.14101900160312653 0.031289998441934586
  endloop
 endfacet
 facet normal -0.62394613991968595 -0.03124840750066276 0.78084233460282881
  outer loop
   vertex 0.0035200000274926424 -0.14146299660205841 0.03193100169301033
   vertex 0.0052579999901354313 -0.14470599591732025 0.033190000802278519
   vertex 0.0058840001001954079 -0.1413629949092865 0.033824000507593155
  endloop
 endfacet
 facet normal -0.68840370730834299 -0.34689686400906744 0.63699521309410467
  outer loop
   vertex 0.0070219999179244041 -0.14409300684928894 0.03114599920809269
   vertex 0.0049279998056590557 -0.14408199489116669 0.028889000415802002
   vertex 0.005636999849230051 -0.1465429961681366 0.028315000236034393
  endloop
 endfacet
 facet normal 0.84879546736588729 -0.099761957221004172 0.51922423524962658
  outer loop
   vertex 0.0049279998056590557 -0.14408199489116669 0.028889000415802002
   vertex 0.0032540000975131989 -0.14469900727272034 0.031507000327110291
   vertex 0.0031059999018907547 -0.14796200394630432 0.031122000887989998
  endloop
 endfacet
 facet normal 0.76952165282275764 -0.23683775095548373 0.59308035337488596
  outer loop
   vertex 0.0052579999901354313 -0.14470599591732025 0.033190000802278519
   vertex 0.006632000207901001 -0.14705799520015717 0.03046800009906292
   vertex 0.0070219999179244041 -0.14409300684928894 0.03114599920809269
  endloop
 endfacet
 facet normal -0.64198738656688248 -0.062360314754800319 0.76417497121582467
  outer loop
   vertex 0.0032540000975131989 -0.14469900727272034 0.031507000327110291
   vertex 0.0052930000238120556 -0.14852200448513031 0.03290800005197525
   vertex 0.0052579999901354313 -0.14470599591732025 0.033190000802278519
  endloop
 endfacet
 facet normal -0.90406336099341345 -0.2233817230308015 0.36437624116438089
  outer loop
   vertex 0.006632000207901001 -0.14705799520015717 0.03046800009906292
   vertex 0.005636999849230051 -0.1465429961681366 0.028315000236034393
   vertex 0.0061030001379549503 -0.14899499714374542 0.027968000620603561
  endloop
 endfacet
 facet normal 0.73881449334727711 0.014979334593730858 0.67374235725174292
  outer loop
   vertex 0.005636999849230051 -0.1465429961681366 0.028315000236034393
   vertex 0.0031059999018907547 -0.14796200394630432 0.031122000887989998
   vertex 0.0039189998060464859 -0.15090900659561157 0.030295999720692635
  endloop
 endfacet
 facet normal 0.8653981583373862 0.040852584011988019 0.49941675374961525
  outer loop
   vertex 0.0052930000238120556 -0.14852200448513031 0.03290800005197525
   vertex 0.0070259999483823776 -0.15006199479103088 0.030030999332666397
   vertex 0.006632000207901001 -0.14705799520015717 0.03046800009906292
  endloop
 endfacet
 facet normal -0.64982682709807005 -0.26048137064461352 0.71405500511568343
  outer loop
   vertex 0.0031059999018907547 -0.14796200394630432 0.031122000887989998
   vertex 0.0055940002202987671 -0.15192100405693054 0.03194199874997139
   vertex 0.0052930000238120556 -0.14852200448513031 0.03290800005197525
  endloop
 endfacet
 facet normal -0.92928666868379339 -0.16371507947704111 0.33109463927765986
  outer loop
   vertex 0.0070259999483823776 -0.15006199479103088 0.030030999332666397
   vertex 0.0061030001379549503 -0.14899499714374542 0.027968000620603561
   vertex 0.006444999948143959 -0.15145400166511536 0.027712000533938408
  endloop
 endfacet
 facet normal 0.72751725772653131 0.0043289945529974413 0.68607572433094299
  outer loop
   vertex 0.0061030001379549503 -0.14899499714374542 0.027968000620603561
   vertex 0.0039189998060464859 -0.15090900659561157 0.030295999720692635
   vertex 0.0053329998627305031 -0.15319299697875977 0.028811000287532806
  endloop
 endfacet
 facet normal 0.87137843840255835 -0.43180163819005979 0.23290977296691456
  outer loop
   vertex 0.0055940002202987671 -0.15192100405693054 0.03194199874997139
   vertex 0.005824000108987093 -0.15282799303531647 0.029400000348687172
   vertex 0.0070259999483823776 -0.15006199479103088 0.030030999332666397
  endloop
 endfacet
 facet normal -0.64539182995579603 -0.73604406352202412 0.20422664463848844
  outer loop
   vertex 0.0039189998060464859 -0.15090900659561157 0.030295999720692635
   vertex 0.005824000108987093 -0.15282799303531647 0.029400000348687172
   vertex 0.0055940002202987671 -0.15192100405693054 0.03194199874997139
  endloop
 endfacet
 facet normal 0.74512620752876535 -0.62446056519473314 -0.23417074405329524
  outer loop
   vertex 0.005824000108987093 -0.15282799303531647 0.029400000348687172
   vertex 0.0053329998627305031 -0.15319299697875977 0.028811000287532806
   vertex 0.006444999948143959 -0.15145400166511536 0.027712000533938408
  endloop
 endfacet
endsolid
