solid Visualization Toolkit generated SLA File
 facet normal -0.72790034425444705 0.22791978444432692 0.64669441059368138
  outer loop
   vertex -0.013275000266730785 -0.0036959999706596136 -0.0071519999764859676
   vertex -0.0094590000808238983 -0.0012440000427886844 -0.0037209999281913042
   vertex -0.011963999830186367 0.0013790000230073929 -0.0074649997986853123
  endloop
 endfacet
 facet normal -0.74132344956981922 0.40731957985923073 0.53341381963837742
  outer loop
   vertex -0.013275000266730785 -0.0036959999706596136 -0.0071519999764859676
   vertex -0.010897999629378319 -0.0055889999493956566 -0.0024029999040067196
   vertex -0.0094590000808238983 -0.0012440000427886844 -0.0037209999281913042
  endloop
 endfacet
 facet normal -0.9328273684021966 0.2235436713324285 -0.28259746596006807
  outer loop
   vertex -0.013024000450968742 -0.006364000029861927 -0.010091000236570835
   vertex -0.013275000266730785 -0.0036959999706596136 -0.0071519999764859676
   vertex -0.011963999830186367 0.0013790000230073929 -0.0074649997986853123
  endloop
 endfacet
 facet normal -0.78175963052355701 -0.60526332085622814 0.15002730588050348
  outer loop
   vertex -0.013275000266730785 -0.0036959999706596136 -0.0071519999764859676
   vertex -0.010014999657869339 -0.007600999902933836 -0.0059190001338720322
   vertex -0.010897999629378319 -0.0055889999493956566 -0.0024029999040067196
  endloop
 endfacet
 facet normal -0.23132617366050062 0.40449436194072769 0.88480083212989546
  outer loop
   vertex -0.0055240001529455185 0.004935000091791153 -0.0055169998668134212
   vertex -0.0094590000808238983 -0.0012440000427886844 -0.0037209999281913042
   vertex -0.0051119998097419739 -0.00042699999175965786 -0.0029579999390989542
  endloop
 endfacet
 facet normal -0.23905498086938187 0.76236884471775535 -0.60137048541249039
  outer loop
   vertex -0.0055240001529455185 0.004935000091791153 -0.0055169998668134212
   vertex -0.012176999822258949 -0.0025530001148581505 -0.012365000322461128
   vertex -0.011963999830186367 0.0013790000230073929 -0.0074649997986853123
  endloop
 endfacet
 facet normal -0.2254200078124991 0.35040900796178276 0.90906509514833544
  outer loop
   vertex -0.010897999629378319 -0.0055889999493956566 -0.0024029999040067196
   vertex -0.0051119998097419739 -0.00042699999175965786 -0.0029579999390989542
   vertex -0.0094590000808238983 -0.0012440000427886844 -0.0037209999281913042
  endloop
 endfacet
 facet normal -0.41346217569474569 -0.83115796241322082 0.3717868620417758
  outer loop
   vertex -0.006111999973654747 -0.0081380000337958336 -0.0027789999730885029
   vertex -0.010897999629378319 -0.0055889999493956566 -0.0024029999040067196
   vertex -0.010014999657869339 -0.007600999902933836 -0.0059190001338720322
  endloop
 endfacet
 facet normal -0.55034608015600484 -0.82068722065217781 0.15359582648992742
  outer loop
   vertex -0.013024000450968742 -0.006364000029861927 -0.010091000236570835
   vertex -0.0090800002217292786 -0.0089419996365904808 -0.0097340000793337822
   vertex -0.010014999657869339 -0.007600999902933836 -0.0059190001338720322
  endloop
 endfacet
 facet normal -0.90602955105013072 -0.042382640789790635 -0.42108688460171978
  outer loop
   vertex -0.013024000450968742 -0.006364000029861927 -0.010091000236570835
   vertex -0.01091499999165535 -0.0059349997900426388 -0.014671999961137772
   vertex -0.011881999671459198 -0.0077169998548924923 -0.012412000447511673
  endloop
 endfacet
 facet normal -0.53772558880137455 0.55964077063062367 -0.63059765222856401
  outer loop
   vertex -0.0071780001744627953 -0.0015999999595806003 -0.015782000496983528
   vertex -0.012176999822258949 -0.0025530001148581505 -0.012365000322461128
   vertex -0.007466999813914299 0.0037450001109391451 -0.010792000219225883
  endloop
 endfacet
 facet normal -0.403783406387138 -0.889541036085158 0.2137187540833585
  outer loop
   vertex -0.0051230001263320446 -0.010576000437140465 -0.0090589998289942741
   vertex -0.010014999657869339 -0.007600999902933836 -0.0059190001338720322
   vertex -0.0090800002217292786 -0.0089419996365904808 -0.0097340000793337822
  endloop
 endfacet
 facet normal 0.073421999465422383 0.73274369221074742 0.67653225460421396
  outer loop
   vertex 0.00020599999697878957 0.0028810000512748957 -0.0071180001832544804
   vertex -0.0051119998097419739 -0.00042699999175965786 -0.0029579999390989542
   vertex -0.0014860000228509307 -1.2000000424450263e-05 -0.0038010000716894865
  endloop
 endfacet
 facet normal 0.24691429602657564 0.92178838470440727 -0.29889714659350713
  outer loop
   vertex 0.00020599999697878957 0.0028810000512748957 -0.0071180001832544804
   vertex -0.007466999813914299 0.0037450001109391451 -0.010792000219225883
   vertex -0.0055240001529455185 0.004935000091791153 -0.0055169998668134212
  endloop
 endfacet
 facet normal -0.31011626446432883 0.64937280253478302 0.69436508109409711
  outer loop
   vertex -0.0068339998833835125 -0.005565000232309103 0.0010779999429360032
   vertex -0.0020610000938177109 -0.0047579999081790447 0.0024550000671297312
   vertex -0.0051119998097419739 -0.00042699999175965786 -0.0029579999390989542
  endloop
 endfacet
 facet normal 0.050204560788225924 0.79345512521129147 0.60655458645697768
  outer loop
   vertex -0.0020610000938177109 -0.0047579999081790447 0.0024550000671297312
   vertex -0.0014860000228509307 -1.2000000424450263e-05 -0.0038010000716894865
   vertex -0.0051119998097419739 -0.00042699999175965786 -0.0029579999390989542
  endloop
 endfacet
 facet normal 0.028790750477961653 0.68296413478042473 -0.72988429445395098
  outer loop
   vertex -0.00091200001770630479 0.0022760001011192799 -0.011908000335097313
   vertex -0.0071780001744627953 -0.0015999999595806003 -0.015782000496983528
   vertex -0.007466999813914299 0.0037450001109391451 -0.010792000219225883
  endloop
 endfacet
 facet normal -0.042925316904180555 -0.78990860450369138 0.61172037214703456
  outer loop
   vertex -0.0068339998833835125 -0.005565000232309103 0.0010779999429360032
   vertex -0.0019990000873804092 -0.0085869999602437019 -0.0024850000627338886
   vertex -0.0020610000938177109 -0.0047579999081790447 0.0024550000671297312
  endloop
 endfacet
 facet normal -0.12361922384497787 -0.95434720778642324 0.27191854384396608
  outer loop
   vertex -0.006111999973654747 -0.0081380000337958336 -0.0027789999730885029
   vertex -0.0005549999768845737 -0.010649999603629112 -0.0090690003708004951
   vertex -0.0019990000873804092 -0.0085869999602437019 -0.0024850000627338886
  endloop
 endfacet
 facet normal -0.66739731245993983 -0.61791496003555491 0.41564639958203425
  outer loop
   vertex -0.011881999671459198 -0.0077169998548924923 -0.012412000447511673
   vertex -0.0075550000183284283 -0.014317000284790993 -0.015275999903678894
   vertex -0.0090800002217292786 -0.0089419996365904808 -0.0097340000793337822
  endloop
 endfacet
 facet normal -0.34250595963700292 -0.73978744153972498 0.57914092322442889
  outer loop
   vertex -0.0051230001263320446 -0.010576000437140465 -0.0090589998289942741
   vertex -0.0075550000183284283 -0.014317000284790993 -0.015275999903678894
   vertex -0.0043060001917183399 -0.014534999616444111 -0.013632999733090401
  endloop
 endfacet
 facet normal -0.93700124796789697 0.076064147375875746 -0.34094414027899772
  outer loop
   vertex -0.0098280003294348717 -0.011366000398993492 -0.018871000036597252
   vertex -0.011881999671459198 -0.0077169998548924923 -0.012412000447511673
   vertex -0.01091499999165535 -0.0059349997900426388 -0.014671999961137772
  endloop
 endfacet
 facet normal -0.64249401968420916 0.38407639579211328 -0.6630888001356734
  outer loop
   vertex -0.0071780001744627953 -0.0015999999595806003 -0.015782000496983528
   vertex -0.0098280003294348717 -0.011366000398993492 -0.018871000036597252
   vertex -0.01091499999165535 -0.0059349997900426388 -0.014671999961137772
  endloop
 endfacet
 facet normal 0.11904306506450951 0.63223960402599699 -0.76557287815145159
  outer loop
   vertex -0.001576000009663403 -0.002655999967828393 -0.015783000737428665
   vertex -0.0056859999895095825 -0.0086049996316432953 -0.021335000172257423
   vertex -0.0071780001744627953 -0.0015999999595806003 -0.015782000496983528
  endloop
 endfacet
 facet normal -0.011557106141421268 -0.79533113689840806 0.60606502619563996
  outer loop
   vertex -0.0051230001263320446 -0.010576000437140465 -0.0090589998289942741
   vertex -0.00075599999399855733 -0.01485500019043684 -0.01459100004285574
   vertex -0.0005549999768845737 -0.010649999603629112 -0.0090690003708004951
  endloop
 endfacet
 facet normal 0.60683285817617683 0.41929115600697003 0.6752398157188827
  outer loop
   vertex 0.0023940000683069229 -0.0010489999549463391 -0.0066439998336136341
   vertex 0.00020599999697878957 0.0028810000512748957 -0.0071180001832544804
   vertex -0.0014860000228509307 -1.2000000424450263e-05 -0.0038010000716894865
  endloop
 endfacet
 facet normal 0.85730793985036979 0.44636639524244304 -0.25647638773926518
  outer loop
   vertex 0.0023940000683069229 -0.0010489999549463391 -0.0066439998336136341
   vertex -0.00091200001770630479 0.0022760001011192799 -0.011908000335097313
   vertex 0.00020599999697878957 0.0028810000512748957 -0.0071180001832544804
  endloop
 endfacet
 facet normal 0.51189817901946988 0.74560600029254198 0.4266520205557553
  outer loop
   vertex 0.0019030000548809767 -0.0037710000760853291 -0.001297999988310039
   vertex 0.0023940000683069229 -0.0010489999549463391 -0.0066439998336136341
   vertex -0.0014860000228509307 -1.2000000424450263e-05 -0.0038010000716894865
  endloop
 endfacet
 facet normal 0.64777877923495741 0.41482879445907017 -0.63898335225614677
  outer loop
   vertex -0.00091200001770630479 0.0022760001011192799 -0.011908000335097313
   vertex 0.0020840000361204147 -0.0056880000047385693 -0.014041000045835972
   vertex -0.001576000009663403 -0.002655999967828393 -0.015783000737428665
  endloop
 endfacet
 facet normal 0.62620216270198814 -0.59379976080506836 0.50524518354477821
  outer loop
   vertex -0.0020610000938177109 -0.0047579999081790447 0.0024550000671297312
   vertex 0.00029399999766610563 -0.0088499998673796654 -0.0052729998715221882
   vertex 0.0019030000548809767 -0.0037710000760853291 -0.001297999988310039
  endloop
 endfacet
 facet normal 0.94372717917943183 -0.32855689414566774 0.037807123500538352
  outer loop
   vertex 0.0026710000820457935 -0.0027069998905062675 -0.011222000233829021
   vertex 0.0019030000548809767 -0.0037710000760853291 -0.001297999988310039
   vertex 0.00029399999766610563 -0.0088499998673796654 -0.0052729998715221882
  endloop
 endfacet
 facet normal 0.67785728116007427 0.51919799317867621 -0.5205218057464136
  outer loop
   vertex 0.0020840000361204147 -0.0056880000047385693 -0.014041000045835972
   vertex -0.0013279999839141965 -0.0077829998917877674 -0.020573999732732773
   vertex -0.001576000009663403 -0.002655999967828393 -0.015783000737428665
  endloop
 endfacet
 facet normal 0.32016106936563699 -0.88172520892914785 0.34649321147968032
  outer loop
   vertex 0.00029399999766610563 -0.0088499998673796654 -0.0052729998715221882
   vertex -0.0019990000873804092 -0.0085869999602437019 -0.0024850000627338886
   vertex -0.0005549999768845737 -0.010649999603629112 -0.0090690003708004951
  endloop
 endfacet
 facet normal 0.89177730356744167 -0.37504203101913391 0.25313379033828343
  outer loop
   vertex 0.0027499999850988388 -0.0092559996992349625 -0.018647000193595886
   vertex -0.0005549999768845737 -0.010649999603629112 -0.0090690003708004951
   vertex -0.00075599999399855733 -0.01485500019043684 -0.01459100004285574
  endloop
 endfacet
 facet normal 0.92377889339296304 -0.38208078801060918 -0.025432804699145235
  outer loop
   vertex -0.0005549999768845737 -0.010649999603629112 -0.0090690003708004951
   vertex 0.0026710000820457935 -0.0027069998905062675 -0.011222000233829021
   vertex 0.00029399999766610563 -0.0088499998673796654 -0.0052729998715221882
  endloop
 endfacet
 facet normal -0.6359365895058694 -0.55810527328756521 0.5330132813131917
  outer loop
   vertex -0.010259999893605709 -0.012993000447750092 -0.017116999253630638
   vertex -0.0059879999607801437 -0.024546999484300613 -0.024118000641465187
   vertex -0.0075550000183284283 -0.014317000284790993 -0.015275999903678894
  endloop
 endfacet
 facet normal -0.24841579313046813 -0.65491906927296539 0.71370204317067298
  outer loop
   vertex -0.0028329999186098576 -0.024872999638319016 -0.023319000378251076
   vertex -0.0075550000183284283 -0.014317000284790993 -0.015275999903678894
   vertex -0.0059879999607801437 -0.024546999484300613 -0.024118000641465187
  endloop
 endfacet
 facet normal -0.98086158315264671 0.061155318723884501 -0.18485286496850273
  outer loop
   vertex -0.0089830001816153526 -0.021782999858260155 -0.026800999417901039
   vertex -0.010259999893605709 -0.012993000447750092 -0.017116999253630638
   vertex -0.0098280003294348717 -0.011366000398993492 -0.018871000036597252
  endloop
 endfacet
 facet normal -0.13430776542015821 0.6768351390764743 -0.72377870834888036
  outer loop
   vertex -0.0043060001917183399 -0.014534999616444111 -0.013632999733090401
   vertex -0.00075599999399855733 -0.01485500019043684 -0.01459100004285574
   vertex 0.0011249999515712261 -0.024306999519467354 -0.023778999224305153
  endloop
 endfacet
 facet normal -0.65473699380404193 0.4234939940854312 -0.62607691693434508
  outer loop
   vertex -0.0056859999895095825 -0.0086049996316432953 -0.021335000172257423
   vertex -0.0089830001816153526 -0.021782999858260155 -0.026800999417901039
   vertex -0.0098280003294348717 -0.011366000398993492 -0.018871000036597252
  endloop
 endfacet
 facet normal 0.016772032237805871 0.62992986302945186 -0.77647090518467599
  outer loop
   vertex -0.0013279999839141965 -0.0077829998917877674 -0.020573999732732773
   vertex -0.0035939998924732208 -0.019301999360322952 -0.029967999085783958
   vertex -0.0056859999895095825 -0.0086049996316432953 -0.021335000172257423
  endloop
 endfacet
 facet normal 0.50786348182836738 0.60905940373417278 -0.6091972804832122
  outer loop
   vertex 0.0027499999850988388 -0.0092559996992349625 -0.018647000193595886
   vertex 0.00050299998838454485 -0.019131999462842941 -0.030393999069929123
   vertex -0.0013279999839141965 -0.0077829998917877674 -0.020573999732732773
  endloop
 endfacet
 facet normal -0.87905466183106329 0.23063017772102798 -0.41722011293493766
  outer loop
   vertex 0.0044320002198219299 -0.020212000235915184 -0.02848299965262413
   vertex 0.0011249999515712261 -0.024306999519467354 -0.023778999224305153
   vertex -0.00075599999399855733 -0.01485500019043684 -0.01459100004285574
  endloop
 endfacet
 facet normal 0.30196118447674719 0.61764421412232462 -0.72617839945196383
  outer loop
   vertex -0.0031969998963177204 -0.032425001263618469 -0.029658000916242599
   vertex -0.0056830001994967461 -0.033011998981237411 -0.031191000714898109
   vertex -0.0059879999607801437 -0.024546999484300613 -0.024118000641465187
  endloop
 endfacet
 facet normal -0.71716003899145619 -0.5187217453764158 0.46541296645819613
  outer loop
   vertex -0.0056830001994967461 -0.033011998981237411 -0.031191000714898109
   vertex -0.0083339996635913849 -0.023888999596238136 -0.025108000263571739
   vertex -0.0076649999246001244 -0.032662000507116318 -0.033854998648166656
  endloop
 endfacet
 facet normal -0.97199073482634468 -0.19891577559357876 0.12516599231319747
  outer loop
   vertex -0.0089830001816153526 -0.021782999858260155 -0.026800999417901039
   vertex -0.0076649999246001244 -0.032662000507116318 -0.033854998648166656
   vertex -0.0083339996635913849 -0.023888999596238136 -0.025108000263571739
  endloop
 endfacet
 facet normal -0.18426063882528201 0.63710049016744308 -0.74843234992088803
  outer loop
   vertex 0.002529999939724803 -0.030771000310778618 -0.029659999534487724
   vertex -0.0031969998963177204 -0.032425001263618469 -0.029658000916242599
   vertex -0.0028329999186098576 -0.024872999638319016 -0.023319000378251076
  endloop
 endfacet
 facet normal -0.58354651499912669 0.53247094401089434 -0.61314611522582552
  outer loop
   vertex -0.0067369998432695866 -0.030305000022053719 -0.036531999707221985
   vertex -0.0035939998924732208 -0.019301999360322952 -0.029967999085783958
   vertex -0.0017810000572353601 -0.026845000684261322 -0.038244001567363739
  endloop
 endfacet
 facet normal -0.92209064500681182 0.13089561111176631 -0.36416367389210996
  outer loop
   vertex 0.0054500000551342964 -0.025945000350475311 -0.035319000482559204
   vertex 0.002529999939724803 -0.030771000310778618 -0.029659999534487724
   vertex 0.0011249999515712261 -0.024306999519467354 -0.023778999224305153
  endloop
 endfacet
 facet normal -0.10098019253544591 0.72418833165311314 -0.68216879217169168
  outer loop
   vertex 0.00050299998838454485 -0.019131999462842941 -0.030393999069929123
   vertex -0.0017810000572353601 -0.026845000684261322 -0.038244001567363739
   vertex -0.0035939998924732208 -0.019301999360322952 -0.029967999085783958
  endloop
 endfacet
 facet normal 0.46139030478405302 0.71241517087224193 -0.52875666517061803
  outer loop
   vertex 0.0024009998887777328 -0.02571599930524826 -0.037670999765396118
   vertex 0.0044320002198219299 -0.020212000235915184 -0.02848299965262413
   vertex 0.0054500000551342964 -0.025945000350475311 -0.035319000482559204
  endloop
 endfacet
 facet normal 0.80010952781898814 0.1625850548477242 -0.57740007224924939
  outer loop
   vertex -0.0031550000421702862 -0.040189001709222794 -0.031785998493432999
   vertex -0.005140999797731638 -0.039847999811172485 -0.034442000091075897
   vertex -0.0031969998963177204 -0.032425001263618469 -0.029658000916242599
  endloop
 endfacet
 facet normal -0.58167818605251509 0.2120877955544401 -0.78528291388996463
  outer loop
   vertex -0.0031969998963177204 -0.032425001263618469 -0.029658000916242599
   vertex 0.00046800001291558146 -0.037617001682519913 -0.033775001764297485
   vertex -0.0031550000421702862 -0.040189001709222794 -0.031785998493432999
  endloop
 endfacet
 facet normal -0.081626549179180746 0.58323607902009289 -0.80819105575251626
  outer loop
   vertex 0.0046540000475943089 -0.035863000899553299 -0.032931998372077942
   vertex 0.00046800001291558146 -0.037617001682519913 -0.033775001764297485
   vertex -0.0031969998963177204 -0.032425001263618469 -0.029658000916242599
  endloop
 endfacet
 facet normal 0.40287885322855843 0.41893585994536464 -0.81374527640600136
  outer loop
   vertex -0.0031969998963177204 -0.032425001263618469 -0.029658000916242599
   vertex -0.005140999797731638 -0.039847999811172485 -0.034442000091075897
   vertex -0.0056830001994967461 -0.033011998981237411 -0.031191000714898109
  endloop
 endfacet
 facet normal -0.89835944101265686 -0.33841457283989818 0.28004623124230049
  outer loop
   vertex -0.005140999797731638 -0.039847999811172485 -0.034442000091075897
   vertex -0.0076649999246001244 -0.032662000507116318 -0.033854998648166656
   vertex -0.0073710000142455101 -0.03678400069475174 -0.037893000990152359
  endloop
 endfacet
 facet normal -0.96715447545715816 0.13930392011932033 -0.21261852798516692
  outer loop
   vertex -0.0067369998432695866 -0.030305000022053719 -0.036531999707221985
   vertex -0.0073710000142455101 -0.03678400069475174 -0.037893000990152359
   vertex -0.0076649999246001244 -0.032662000507116318 -0.033854998648166656
  endloop
 endfacet
 facet normal -0.50458962136757524 0.60743296155668669 -0.61352629220156485
  outer loop
   vertex -0.0067739998921751976 -0.032136000692844391 -0.039376001805067062
   vertex -0.0017810000572353601 -0.026845000684261322 -0.038244001567363739
   vertex -0.0011790000135079026 -0.029775999486446381 -0.041641000658273697
  endloop
 endfacet
 facet normal 0.36234899939458209 0.60611677319991752 -0.70804354377641554
  outer loop
   vertex 0.002529999939724803 -0.030771000310778618 -0.029659999534487724
   vertex 0.0070290002040565014 -0.034685999155044556 -0.030709000304341316
   vertex 0.0046540000475943089 -0.035863000899553299 -0.032931998372077942
  endloop
 endfacet
 facet normal -0.65881375111824203 -0.66067811735255633 -0.35981782416799907
  outer loop
   vertex 0.0070290002040565014 -0.034685999155044556 -0.030709000304341316
   vertex 0.002529999939724803 -0.030771000310778618 -0.029659999534487724
   vertex 0.0068430001847445965 -0.032235998660326004 -0.034866999834775925
  endloop
 endfacet
 facet normal -0.78096925465399591 -0.21505849452114104 -0.58637604591207704
  outer loop
   vertex 0.0068430001847445965 -0.032235998660326004 -0.034866999834775925
   vertex 0.002529999939724803 -0.030771000310778618 -0.029659999534487724
   vertex 0.0054500000551342964 -0.025945000350475311 -0.035319000482559204
  endloop
 endfacet
 facet normal -0.11004550129387015 0.74280156700256095 -0.66040579926551268
  outer loop
   vertex 0.0024009998887777328 -0.02571599930524826 -0.037670999765396118
   vertex -0.0011790000135079026 -0.029775999486446381 -0.041641000658273697
   vertex -0.0017810000572353601 -0.026845000684261322 -0.038244001567363739
  endloop
 endfacet
 facet normal -0.2493911263561073 -0.85388050177277974 0.45682836469192462
  outer loop
   vertex 0.0030950000509619713 -0.028426000848412514 -0.041241999715566635
   vertex 0.0072340001352131367 -0.028543999418616295 -0.039202999323606491
   vertex 0.0054500000551342964 -0.025945000350475311 -0.035319000482559204
  endloop
 endfacet
 facet normal 0.47029341632281685 -0.18654943157766407 0.86256791740793604
  outer loop
   vertex 0.00046800001291558146 -0.037617001682519913 -0.033775001764297485
   vertex -0.0017219999572262168 -0.043175000697374344 -0.033782999962568283
   vertex 0.0021039999555796385 -0.040247999131679535 -0.035236001014709473
  endloop
 endfacet
 facet normal -0.77772010977876005 -0.56181754137794127 0.2819795755826271
  outer loop
   vertex -0.0031550000421702862 -0.040189001709222794 -0.031785998493432999
   vertex -0.0037400000728666782 -0.042621001601219177 -0.038244999945163727
   vertex -0.0017219999572262168 -0.043175000697374344 -0.033782999962568283
  endloop
 endfacet
 facet normal -0.69454805111044615 -0.69869789562006457 -0.17153499746341661
  outer loop
   vertex -0.005140999797731638 -0.039847999811172485 -0.034442000091075897
   vertex -0.0073710000142455101 -0.03678400069475174 -0.037893000990152359
   vertex -0.0050229998305439949 -0.038123998790979385 -0.041942000389099121
  endloop
 endfacet
 facet normal -0.93442643220263077 -0.34361316701516081 -0.093686894787230079
  outer loop
   vertex -0.0037400000728666782 -0.042621001601219177 -0.038244999945163727
   vertex -0.005140999797731638 -0.039847999811172485 -0.034442000091075897
   vertex -0.0050229998305439949 -0.038123998790979385 -0.041942000389099121
  endloop
 endfacet
 facet normal 0.1115955794830067 -0.42850416930159391 0.8966217728401441
  outer loop
   vertex 0.0064630000852048397 -0.038665000349283218 -0.035022001713514328
   vertex 0.00046800001291558146 -0.037617001682519913 -0.033775001764297485
   vertex 0.0021039999555796385 -0.040247999131679535 -0.035236001014709473
  endloop
 endfacet
 facet normal 0.12566753831090741 0.81494673136166196 -0.56574684697116939
  outer loop
   vertex 0.0046540000475943089 -0.035863000899553299 -0.032931998372077942
   vertex 0.0070290002040565014 -0.034685999155044556 -0.030709000304341316
   vertex 0.0089159999042749405 -0.037170000374317169 -0.033867999911308289
  endloop
 endfacet
 facet normal -0.985657084868656 0.07902296585583804 -0.14911566623118511
  outer loop
   vertex -0.0073710000142455101 -0.03678400069475174 -0.037893000990152359
   vertex -0.0067739998921751976 -0.032136000692844391 -0.039376001805067062
   vertex -0.0064869998022913933 -0.034203998744487762 -0.042369000613689423
  endloop
 endfacet
 facet normal -0.85386355770766631 -0.35985557089200815 -0.37605982624682699
  outer loop
   vertex -0.0073710000142455101 -0.03678400069475174 -0.037893000990152359
   vertex -0.0064869998022913933 -0.034203998744487762 -0.042369000613689423
   vertex -0.0050229998305439949 -0.038123998790979385 -0.041942000389099121
  endloop
 endfacet
 facet normal -0.53100518553977161 0.71205681987625569 -0.45935670039478721
  outer loop
   vertex -0.0064869998022913933 -0.034203998744487762 -0.042369000613689423
   vertex -0.0011790000135079026 -0.029775999486446381 -0.041641000658273697
   vertex -0.0015490000369027257 -0.031975001096725464 -0.044622000306844711
  endloop
 endfacet
 facet normal -0.1999585244256383 0.80017692025591602 -0.56544980749778218
  outer loop
   vertex 0.0030950000509619713 -0.028426000848412514 -0.041241999715566635
   vertex -0.0015490000369027257 -0.031975001096725464 -0.044622000306844711
   vertex -0.0011790000135079026 -0.029775999486446381 -0.041641000658273697
  endloop
 endfacet
 facet normal -0.82429043706785388 -0.56405570749412537 -0.048851143300726485
  outer loop
   vertex 0.0086639998480677605 -0.036467000842094421 -0.03773299977183342
   vertex 0.0089159999042749405 -0.037170000374317169 -0.033867999911308289
   vertex 0.0070290002040565014 -0.034685999155044556 -0.030709000304341316
  endloop
 endfacet
 facet normal 0.94020766175295789 0.31178841500532289 0.13710411025751348
  outer loop
   vertex 0.0080089997500181198 -0.032349001616239548 -0.042605999857187271
   vertex 0.0068430001847445965 -0.032235998660326004 -0.034866999834775925
   vertex 0.0086639998480677605 -0.036467000842094421 -0.03773299977183342
  endloop
 endfacet
 facet normal 0.69241107561226989 0.55420229068585525 -0.46198130196795867
  outer loop
   vertex 0.005518999882042408 -0.030169999226927757 -0.043724000453948975
   vertex 0.0072340001352131367 -0.028543999418616295 -0.039202999323606491
   vertex 0.0080089997500181198 -0.032349001616239548 -0.042605999857187271
  endloop
 endfacet
 facet normal -0.12220607859322864 -0.86427883230589275 0.48794238838496939
  outer loop
   vertex 0.0030950000509619713 -0.028426000848412514 -0.041241999715566635
   vertex 0.0037239999510347843 -0.030120000243186951 -0.044084999710321426
   vertex 0.005518999882042408 -0.030169999226927757 -0.043724000453948975
  endloop
 endfacet
 facet normal 0.49427666237863349 -0.80678398202361723 -0.32371312512462957
  outer loop
   vertex -0.0037400000728666782 -0.042621001601219177 -0.038244999945163727
   vertex 0.0021039999555796385 -0.040247999131679535 -0.035236001014709473
   vertex -0.0017219999572262168 -0.043175000697374344 -0.033782999962568283
  endloop
 endfacet
 facet normal 0.33452571772271633 -0.93598529917354412 0.10965429272542375
  outer loop
   vertex 0.0013150000013411045 -0.040989000350236893 -0.039154000580310822
   vertex 0.0064630000852048397 -0.038665000349283218 -0.035022001713514328
   vertex 0.0021039999555796385 -0.040247999131679535 -0.035236001014709473
  endloop
 endfacet
 facet normal -0.12584574370645291 -0.82071915573465892 -0.5572996646339905
  outer loop
   vertex 0.0013150000013411045 -0.040989000350236893 -0.039154000580310822
   vertex -0.0050229998305439949 -0.038123998790979385 -0.041942000389099121
   vertex -0.001323999953456223 -0.037271998822689056 -0.044032000005245209
  endloop
 endfacet
 facet normal -0.36746084386899486 -0.1183577027140075 -0.92247709046422866
  outer loop
   vertex -0.001323999953456223 -0.037271998822689056 -0.044032000005245209
   vertex -0.0064869998022913933 -0.034203998744487762 -0.042369000613689423
   vertex -0.0015490000369027257 -0.031975001096725464 -0.044622000306844711
  endloop
 endfacet
 facet normal 0.57742328816353483 -0.79083793434505512 -0.20287362541064241
  outer loop
   vertex 0.0059170001186430454 -0.037820000201463699 -0.039870001375675201
   vertex 0.0089159999042749405 -0.037170000374317169 -0.033867999911308289
   vertex 0.0064630000852048397 -0.038665000349283218 -0.035022001713514328
  endloop
 endfacet
 facet normal 0.13688016479513307 -0.10391252788409611 -0.98512233099975666
  outer loop
   vertex 0.0037239999510347843 -0.030120000243186951 -0.044084999710321426
   vertex -0.001323999953456223 -0.037271998822689056 -0.044032000005245209
   vertex -0.0015490000369027257 -0.031975001096725464 -0.044622000306844711
  endloop
 endfacet
 facet normal 0.39957437585342082 -0.013684097628419524 -0.91659863824546728
  outer loop
   vertex 0.0047140000388026237 -0.033714998513460159 -0.044022001326084137
   vertex 0.005518999882042408 -0.030169999226927757 -0.043724000453948975
   vertex 0.0080089997500181198 -0.032349001616239548 -0.042605999857187271
  endloop
 endfacet
 facet normal 0.51236272964351881 -0.62074099827316598 -0.59343495543747316
  outer loop
   vertex 0.0086639998480677605 -0.036467000842094421 -0.03773299977183342
   vertex 0.0047140000388026237 -0.033714998513460159 -0.044022001326084137
   vertex 0.0080089997500181198 -0.032349001616239548 -0.042605999857187271
  endloop
 endfacet
 facet normal 0.36003672517721064 -0.60917529404025206 -0.70659678576585816
  outer loop
   vertex 0.0059170001186430454 -0.037820000201463699 -0.039870001375675201
   vertex -0.001323999953456223 -0.037271998822689056 -0.044032000005245209
   vertex 0.0047140000388026237 -0.033714998513460159 -0.044022001326084137
  endloop
 endfacet
endsolid
