solid Visualization Toolkit generated SLA File
 facet normal 0.34421497222082797 -0.16655513836047256 -0.92399969631203793
  outer loop
   vertex -0.0076179997995495796 -0.076319001615047455 -0.019802000373601913
   vertex -0.0074350000359117985 -0.085150003433227539 -0.018141999840736389
   vertex -0.012697000056505203 -0.080113999545574188 -0.021010000258684158
  endloop
 endfacet
 facet normal 0.30483851185962224 -0.01259487690382481 -0.95232077093959711
  outer loop
   vertex -0.0074809999205172062 -0.069403998553752899 -0.019481999799609184
   vertex -0.012697000056505203 -0.080113999545574188 -0.021010000258684158
   vertex -0.012497000396251678 -0.07300499826669693 -0.021040000021457672
  endloop
 endfacet
 facet normal -0.17977016159938633 0.10721106812705451 -0.9778489023717245
  outer loop
   vertex -0.0078309997916221619 -0.083233997225761414 -0.020521000027656555
   vertex -0.0076179997995495796 -0.076319001615047455 -0.019802000373601913
   vertex 0.00011700000322889537 -0.078598998486995697 -0.021474000066518784
  endloop
 endfacet
 facet normal -0.11226626410948125 0.048153913289009337 -0.99251069847022544
  outer loop
   vertex -0.0076179997995495796 -0.076319001615047455 -0.019802000373601913
   vertex -0.0074809999205172062 -0.069403998553752899 -0.019481999799609184
   vertex 0.00093799998285248876 -0.07129400223493576 -0.020525999367237091
  endloop
 endfacet
 facet normal -0.79245272288872515 -0.5579882316962741 0.2463083743495349
  outer loop
   vertex -0.012697000056505203 -0.080113999545574188 -0.021010000258684158
   vertex -0.0074029997922480106 -0.084900997579097748 -0.014821999706327915
   vertex -0.0098080001771450043 -0.0796160027384758 -0.010587000288069248
  endloop
 endfacet
 facet normal -0.95668360447723899 -0.28333712623340673 0.066907053605972197
  outer loop
   vertex -0.012497000396251678 -0.07300499826669693 -0.021040000021457672
   vertex -0.0098080001771450043 -0.0796160027384758 -0.010587000288069248
   vertex -0.011537999846041203 -0.073173001408576965 -0.0080390004441142082
  endloop
 endfacet
 facet normal 0.16294860798185687 -0.9839870705100543 0.0722301614688515
  outer loop
   vertex -0.0074350000359117985 -0.085150003433227539 -0.018141999840736389
   vertex -0.0049330000765621662 -0.084532998502254486 -0.015381000004708767
   vertex -0.0074029997922480106 -0.084900997579097748 -0.014821999706327915
  endloop
 endfacet
 facet normal 0.69458729313406131 -0.49940196690866684 -0.51782831871620583
  outer loop
   vertex -0.0078309997916221619 -0.083233997225761414 -0.020521000027656555
   vertex -0.0049330000765621662 -0.084532998502254486 -0.015381000004708767
   vertex -0.0074350000359117985 -0.085150003433227539 -0.018141999840736389
  endloop
 endfacet
 facet normal -0.064710536857216727 -0.97554486913816085 -0.21005893153555585
  outer loop
   vertex -0.0030630000401288271 -0.084131002426147461 -0.017823999747633934
   vertex -0.0049330000765621662 -0.084532998502254486 -0.015381000004708767
   vertex -0.0078309997916221619 -0.083233997225761414 -0.020521000027656555
  endloop
 endfacet
 facet normal 0.23237960114895154 -0.36772456585381447 0.90043232096447856
  outer loop
   vertex -0.0083560002967715263 -0.062692001461982727 -0.017897000536322594
   vertex -0.013217000290751457 -0.066234000027179718 -0.018089000135660172
   vertex -0.012497000396251678 -0.07300499826669693 -0.021040000021457672
  endloop
 endfacet
 facet normal 0.16471879242258267 0.24697220244279028 -0.95492012788683189
  outer loop
   vertex -0.0016749999485909939 -0.064943999052047729 -0.017326999455690384
   vertex -0.0074809999205172062 -0.069403998553752899 -0.019481999799609184
   vertex -0.0083560002967715263 -0.062692001461982727 -0.017897000536322594
  endloop
 endfacet
 facet normal -0.99068044124898125 -0.078677799600232426 0.11118483339372068
  outer loop
   vertex -0.013217000290751457 -0.066234000027179718 -0.018089000135660172
   vertex -0.011537999846041203 -0.073173001408576965 -0.0080390004441142082
   vertex -0.012035000137984753 -0.066059999167919159 -0.0074339997954666615
  endloop
 endfacet
 facet normal 0.4978403772142409 -0.6585327479242814 -0.56434880944897647
  outer loop
   vertex 0.0012019999558106065 -0.080257996916770935 -0.018580999225378036
   vertex -0.0030630000401288271 -0.084131002426147461 -0.017823999747633934
   vertex 0.00011700000322889537 -0.078598998486995697 -0.021474000066518784
  endloop
 endfacet
 facet normal 0.95622011267889995 -0.070612333936876895 -0.2840017507064681
  outer loop
   vertex 0.0019700000993907452 -0.073632001876831055 -0.016470000147819519
   vertex 0.00011700000322889537 -0.078598998486995697 -0.021474000066518784
   vertex 0.00093799998285248876 -0.07129400223493576 -0.020525999367237091
  endloop
 endfacet
 facet normal -0.65555376130896503 -0.48220623579740651 -0.58114233384925984
  outer loop
   vertex -0.0034729999024420977 -0.085014998912811279 -0.016628000885248184
   vertex -0.0049330000765621662 -0.084532998502254486 -0.015381000004708767
   vertex -0.0030630000401288271 -0.084131002426147461 -0.017823999747633934
  endloop
 endfacet
 facet normal -0.89478539224260012 -0.42956182342394478 0.12180205944872929
  outer loop
   vertex -0.00065900001209229231 -0.066450998187065125 -0.015177999623119831
   vertex -0.0016749999485909939 -0.064943999052047729 -0.017326999455690384
   vertex 0.00093799998285248876 -0.07129400223493576 -0.020525999367237091
  endloop
 endfacet
 facet normal -0.42388849307417814 -0.51019026287884628 0.74834780757540553
  outer loop
   vertex -0.0098080001771450043 -0.0796160027384758 -0.010587000288069248
   vertex -0.0071089998818933964 -0.084971003234386444 -0.012709000147879124
   vertex -0.005770999938249588 -0.079484999179840088 -0.0082109998911619186
  endloop
 endfacet
 facet normal -0.26722930911736265 -0.26936772736429743 0.92521863567658991
  outer loop
   vertex -0.011537999846041203 -0.073173001408576965 -0.0080390004441142082
   vertex -0.005770999938249588 -0.079484999179840088 -0.0082109998911619186
   vertex -0.0051950002089142799 -0.07270599901676178 -0.0060709998942911625
  endloop
 endfacet
 facet normal 0.1357160289048342 -0.98939986085037324 -0.051663089798854957
  outer loop
   vertex -0.0074029997922480106 -0.084900997579097748 -0.014821999706327915
   vertex -0.0049330000765621662 -0.084532998502254486 -0.015381000004708767
   vertex -0.0071089998818933964 -0.084971003234386444 -0.012709000147879124
  endloop
 endfacet
 facet normal -0.33245624460708784 -0.15124391154889019 0.93091252255039714
  outer loop
   vertex -0.012035000137984753 -0.066059999167919159 -0.0074339997954666615
   vertex -0.0051950002089142799 -0.07270599901676178 -0.0060709998942911625
   vertex -0.0068890000693500042 -0.065633997321128845 -0.0055269999429583549
  endloop
 endfacet
 facet normal -0.21868087967383915 -0.96859225950884831 0.11835416209250768
  outer loop
   vertex -0.0025110000278800726 -0.08460400253534317 -0.011486999690532684
   vertex -0.0049330000765621662 -0.084532998502254486 -0.015381000004708767
   vertex -0.0034729999024420977 -0.085014998912811279 -0.016628000885248184
  endloop
 endfacet
 facet normal -0.69426463018542417 -0.58361384234949698 0.42117871063427781
  outer loop
   vertex -0.0021039999555796385 -0.083774000406265259 -0.009665999561548233
   vertex -0.0049330000765621662 -0.084532998502254486 -0.015381000004708767
   vertex -0.0025110000278800726 -0.08460400253534317 -0.011486999690532684
  endloop
 endfacet
 facet normal 0.22097054126018789 -0.97507304199085942 0.020114240673491234
  outer loop
   vertex -0.0071089998818933964 -0.084971003234386444 -0.012709000147879124
   vertex -0.0049330000765621662 -0.084532998502254486 -0.015381000004708767
   vertex -0.0021039999555796385 -0.083774000406265259 -0.009665999561548233
  endloop
 endfacet
 facet normal -0.28980456016862077 0.28500543809694445 -0.91366581262551405
  outer loop
   vertex -0.0092789996415376663 -0.05597199872136116 -0.016137000173330307
   vertex -0.013217000290751457 -0.066234000027179718 -0.018089000135660172
   vertex -0.013476000167429447 -0.059200998395681381 -0.015813000500202179
  endloop
 endfacet
 facet normal -0.31841638342453599 -0.28086035151912842 0.90538857387940919
  outer loop
   vertex -0.0044649997726082802 -0.058247998356819153 -0.015150000341236591
   vertex -0.0092789996415376663 -0.05597199872136116 -0.016137000173330307
   vertex -0.0083560002967715263 -0.062692001461982727 -0.017897000536322594
  endloop
 endfacet
 facet normal -0.98986560664662904 -0.042393069333583104 0.13553194623622514
  outer loop
   vertex -0.013476000167429447 -0.059200998395681381 -0.015813000500202179
   vertex -0.012035000137984753 -0.066059999167919159 -0.0074339997954666615
   vertex -0.012345000170171261 -0.05881199985742569 -0.007431000005453825
  endloop
 endfacet
 facet normal -0.71929766908217163 -0.4669395166769546 0.51437180231661883
  outer loop
   vertex -0.0026340000331401825 -0.059631001204252243 -0.013845000416040421
   vertex -0.0044649997726082802 -0.058247998356819153 -0.015150000341236591
   vertex -0.0016749999485909939 -0.064943999052047729 -0.017326999455690384
  endloop
 endfacet
 facet normal -0.62461793397513887 -0.29809656716297639 0.72179697505758378
  outer loop
   vertex -0.012345000170171261 -0.05881199985742569 -0.007431000005453825
   vertex -0.0068890000693500042 -0.065633997321128845 -0.0055269999429583549
   vertex -0.009270000271499157 -0.058857999742031097 -0.0047889999113976955
  endloop
 endfacet
 facet normal 0.70064625229744115 -0.71022393694376251 -0.068387049458599386
  outer loop
   vertex 0.0026489999145269394 -0.079572997987270355 -0.010870000347495079
   vertex -0.0025110000278800726 -0.08460400253534317 -0.011486999690532684
   vertex 0.0012019999558106065 -0.080257996916770935 -0.018580999225378036
  endloop
 endfacet
 facet normal 0.96190620805148919 -0.02475255088814866 -0.27225678712666618
  outer loop
   vertex 0.0037259999662637711 -0.073026001453399658 -0.010320999659597874
   vertex 0.0012019999558106065 -0.080257996916770935 -0.018580999225378036
   vertex 0.0019700000993907452 -0.073632001876831055 -0.016470000147819519
  endloop
 endfacet
 facet normal 0.6961341182299956 -0.71417343236766262 -0.073168285044396514
  outer loop
   vertex -0.0034729999024420977 -0.085014998912811279 -0.016628000885248184
   vertex 0.0012019999558106065 -0.080257996916770935 -0.018580999225378036
   vertex -0.0025110000278800726 -0.08460400253534317 -0.011486999690532684
  endloop
 endfacet
 facet normal -0.93292722561409458 -0.35368774034207762 0.067466836591787926
  outer loop
   vertex -0.00026900001103058457 -0.066632002592086792 -0.010734000243246555
   vertex -0.00065900001209229231 -0.066450998187065125 -0.015177999623119831
   vertex 0.0019700000993907452 -0.073632001876831055 -0.016470000147819519
  endloop
 endfacet
 facet normal -0.94700758020248821 -0.23052290532663239 -0.22368690877831127
  outer loop
   vertex -0.0035470000002533197 -0.060570001602172852 -0.0090119997039437294
   vertex -0.0026340000331401825 -0.059631001204252243 -0.013845000416040421
   vertex -0.00065900001209229231 -0.066450998187065125 -0.015177999623119831
  endloop
 endfacet
 facet normal -0.18810873736367939 -0.45593569674826828 0.86990674405830037
  outer loop
   vertex -0.005770999938249588 -0.079484999179840088 -0.0082109998911619186
   vertex -0.0021039999555796385 -0.083774000406265259 -0.009665999561548233
   vertex 0.0023260000161826611 -0.079149000346660614 -0.0062839998863637447
  endloop
 endfacet
 facet normal 0.031435368068420184 0.069657365157768825 -0.99707555837743822
  outer loop
   vertex -0.0051950002089142799 -0.07270599901676178 -0.0060709998942911625
   vertex 0.0020669999066740274 -0.071961000561714172 -0.0057899998500943184
   vertex 0.0023260000161826611 -0.079149000346660614 -0.0062839998863637447
  endloop
 endfacet
 facet normal -0.57224224169789195 -0.8031230993187557 -0.16592800895933052
  outer loop
   vertex -0.0068890000693500042 -0.065633997321128845 -0.0055269999429583549
   vertex -0.0032389999832957983 -0.067731000483036041 -0.0079650003463029861
   vertex 0.0020669999066740274 -0.071961000561714172 -0.0057899998500943184
  endloop
 endfacet
 facet normal -0.51697086743049891 -0.045420422459526565 -0.85479711478909171
  outer loop
   vertex -0.009270000271499157 -0.058857999742031097 -0.0047889999113976955
   vertex -0.0050320001319050789 -0.060290001332759857 -0.0072759999893605709
   vertex -0.0032389999832957983 -0.067731000483036041 -0.0079650003463029861
  endloop
 endfacet
 facet normal 0.6864228271226247 -0.71809406440342083 0.11473716518007149
  outer loop
   vertex 0.0023260000161826611 -0.079149000346660614 -0.0062839998863637447
   vertex -0.0025110000278800726 -0.08460400253534317 -0.011486999690532684
   vertex 0.0026489999145269394 -0.079572997987270355 -0.010870000347495079
  endloop
 endfacet
 facet normal -0.4237293509412034 0.24198743001922018 -0.872866267456613
  outer loop
   vertex -0.0094990003854036331 -0.049116998910903931 -0.014948000200092793
   vertex -0.013476000167429447 -0.059200998395681381 -0.015813000500202179
   vertex -0.013983000069856644 -0.052145998924970627 -0.013611000031232834
  endloop
 endfacet
 facet normal 0.26975067361176908 0.17296112177866882 -0.94726924601142914
  outer loop
   vertex -0.0057149999774992466 -0.05090000107884407 -0.014196000061929226
   vertex -0.0092789996415376663 -0.05597199872136116 -0.016137000173330307
   vertex -0.0094990003854036331 -0.049116998910903931 -0.014948000200092793
  endloop
 endfacet
 facet normal -0.98333767229419378 -0.10233781985854122 0.15024644046910823
  outer loop
   vertex -0.013983000069856644 -0.052145998924970627 -0.013611000031232834
   vertex -0.012345000170171261 -0.05881199985742569 -0.007431000005453825
   vertex -0.013046000152826309 -0.051674000918865204 -0.0071569997817277908
  endloop
 endfacet
 facet normal -0.8131858106648534 -0.20886361383964219 0.54323551812007842
  outer loop
   vertex -0.0034920000471174717 -0.052724998444318771 -0.01157000008970499
   vertex -0.0057149999774992466 -0.05090000107884407 -0.014196000061929226
   vertex -0.0044649997726082802 -0.058247998356819153 -0.015150000341236591
  endloop
 endfacet
 facet normal -0.76841019755008311 -0.20394024354328097 0.60659223978266441
  outer loop
   vertex -0.013046000152826309 -0.051674000918865204 -0.0071569997817277908
   vertex -0.009270000271499157 -0.058857999742031097 -0.0047889999113976955
   vertex -0.011284999549388885 -0.051943998783826828 -0.0050169997848570347
  endloop
 endfacet
 facet normal -0.96757276886948929 -0.037945345420873661 -0.24972602528194898
  outer loop
   vertex -0.0045119998976588249 -0.053711999207735062 -0.007468000054359436
   vertex -0.0034920000471174717 -0.052724998444318771 -0.01157000008970499
   vertex -0.0026340000331401825 -0.059631001204252243 -0.013845000416040421
  endloop
 endfacet
 facet normal 0.10988651012957691 -0.18214427328195651 0.97711228556503693
  outer loop
   vertex -0.011284999549388885 -0.051943998783826828 -0.0050169997848570347
   vertex -0.0050320001319050789 -0.060290001332759857 -0.0072759999893605709
   vertex -0.005994000006467104 -0.052887998521327972 -0.0057879998348653316
  endloop
 endfacet
 facet normal 0.90902309664280079 -0.18101463899973994 0.37538075368581064
  outer loop
   vertex 0.0020669999066740274 -0.071961000561714172 -0.0057899998500943184
   vertex 0.0026489999145269394 -0.079572997987270355 -0.010870000347495079
   vertex 0.0037259999662637711 -0.073026001453399658 -0.010320999659597874
  endloop
 endfacet
 facet normal -0.54682232105776318 -0.38952724564188623 -0.74111664000725719
  outer loop
   vertex -0.0032389999832957983 -0.067731000483036041 -0.0079650003463029861
   vertex -0.00026900001103058457 -0.066632002592086792 -0.010734000243246555
   vertex 0.0037259999662637711 -0.073026001453399658 -0.010320999659597874
  endloop
 endfacet
 facet normal -0.7568949963347027 -0.23618869738015724 -0.60936431119105994
  outer loop
   vertex -0.0050320001319050789 -0.060290001332759857 -0.0072759999893605709
   vertex -0.0035470000002533197 -0.060570001602172852 -0.0090119997039437294
   vertex -0.00026900001103058457 -0.066632002592086792 -0.010734000243246555
  endloop
 endfacet
 facet normal -0.73726073990745122 0.047980238745771064 -0.67390243958678209
  outer loop
   vertex -0.005994000006467104 -0.052887998521327972 -0.0057879998348653316
   vertex -0.0045119998976588249 -0.053711999207735062 -0.007468000054359436
   vertex -0.0035470000002533197 -0.060570001602172852 -0.0090119997039437294
  endloop
 endfacet
 facet normal -0.43451552467375765 0.19778728949277843 -0.87867880760411476
  outer loop
   vertex -0.0090239997953176498 -0.042268998920917511 -0.01384000014513731
   vertex -0.013983000069856644 -0.052145998924970627 -0.013611000031232834
   vertex -0.013836000114679337 -0.044945999979972839 -0.012063000351190567
  endloop
 endfacet
 facet normal 0.37107379327933571 0.12318045617842342 -0.92039709645183054
  outer loop
   vertex -0.005276000127196312 -0.043607000261545181 -0.012508000247180462
   vertex -0.0094990003854036331 -0.049116998910903931 -0.014948000200092793
   vertex -0.0090239997953176498 -0.042268998920917511 -0.01384000014513731
  endloop
 endfacet
 facet normal -0.99520079597434841 -0.061150716280592633 0.076393491806526687
  outer loop
   vertex -0.013836000114679337 -0.044945999979972839 -0.012063000351190567
   vertex -0.013046000152826309 -0.051674000918865204 -0.0071569997817277908
   vertex -0.013439999893307686 -0.04454600065946579 -0.0065839998424053192
  endloop
 endfacet
 facet normal -0.87932486971811963 -0.056514366785889926 0.47285716642766645
  outer loop
   vertex -0.0037690000608563423 -0.045559998601675034 -0.0099390000104904175
   vertex -0.005276000127196312 -0.043607000261545181 -0.012508000247180462
   vertex -0.0057149999774992466 -0.05090000107884407 -0.014196000061929226
  endloop
 endfacet
 facet normal -0.70141078549641389 -0.053775792521181427 0.71072573762881452
  outer loop
   vertex -0.013439999893307686 -0.04454600065946579 -0.0065839998424053192
   vertex -0.011284999549388885 -0.051943998783826828 -0.0050169997848570347
   vertex -0.012020999565720558 -0.044776000082492828 -0.0052009997889399529
  endloop
 endfacet
 facet normal -0.98130171375439301 0.0058565467290938996 -0.1923867132706967
  outer loop
   vertex -0.0044829999096691608 -0.046443000435829163 -0.0063240001909434795
   vertex -0.0037690000608563423 -0.045559998601675034 -0.0099390000104904175
   vertex -0.0034920000471174717 -0.052724998444318771 -0.01157000008970499
  endloop
 endfacet
 facet normal -0.18476738164428705 -0.20680103246095966 0.96077799082482918
  outer loop
   vertex -0.012020999565720558 -0.044776000082492828 -0.0052009997889399529
   vertex -0.005994000006467104 -0.052887998521327972 -0.0057879998348653316
   vertex -0.0066929999738931656 -0.045880001038312912 -0.0044140000827610493
  endloop
 endfacet
 facet normal -0.63077901055818786 0.12309170906287668 -0.76613724031612873
  outer loop
   vertex -0.0066929999738931656 -0.045880001038312912 -0.0044140000827610493
   vertex -0.0044829999096691608 -0.046443000435829163 -0.0063240001909434795
   vertex -0.0045119998976588249 -0.053711999207735062 -0.007468000054359436
  endloop
 endfacet
 facet normal -0.37805071166644466 0.16160462043697441 -0.91157095503417407
  outer loop
   vertex -0.0081749996170401573 -0.035454001277685165 -0.012728000059723854
   vertex -0.013836000114679337 -0.044945999979972839 -0.012063000351190567
   vertex -0.012946000322699547 -0.037634998559951782 -0.011136000044643879
  endloop
 endfacet
 facet normal 0.33146834360410488 0.11157102570277456 -0.93684611511815641
  outer loop
   vertex -0.0043029999360442162 -0.036242999136447906 -0.01145199965685606
   vertex -0.0090239997953176498 -0.042268998920917511 -0.01384000014513731
   vertex -0.0081749996170401573 -0.035454001277685165 -0.012728000059723854
  endloop
 endfacet
 facet normal -0.99770227074781292 0.031972812453449469 -0.059732053442641375
  outer loop
   vertex -0.012946000322699547 -0.037634998559951782 -0.011136000044643879
   vertex -0.013439999893307686 -0.04454600065946579 -0.0065839998424053192
   vertex -0.013255000114440918 -0.037399999797344208 -0.0058490000665187836
  endloop
 endfacet
 facet normal 0.9190040336603269 -0.065682126766309648 -0.38873827228548391
  outer loop
   vertex -0.0036100000143051147 -0.038217999041080475 -0.0094799995422363281
   vertex -0.005276000127196312 -0.043607000261545181 -0.012508000247180462
   vertex -0.0043029999360442162 -0.036242999136447906 -0.01145199965685606
  endloop
 endfacet
 facet normal -0.59953914185226442 -0.030039722566402503 0.79978149044297331
  outer loop
   vertex -0.013255000114440918 -0.037399999797344208 -0.0058490000665187836
   vertex -0.012020999565720558 -0.044776000082492828 -0.0052009997889399529
   vertex -0.011730000376701355 -0.037537999451160431 -0.0047109997831285
  endloop
 endfacet
 facet normal -0.97370825129918248 0.035157530160297892 -0.22506929916120466
  outer loop
   vertex -0.0045269997790455818 -0.039140999317169189 -0.0056570000015199184
   vertex -0.0036100000143051147 -0.038217999041080475 -0.0094799995422363281
   vertex -0.0037690000608563423 -0.045559998601675034 -0.0099390000104904175
  endloop
 endfacet
 facet normal -0.27689096964124071 -0.13331001004661822 0.95160907527855365
  outer loop
   vertex -0.011730000376701355 -0.037537999451160431 -0.0047109997831285
   vertex -0.0066929999738931656 -0.045880001038312912 -0.0044140000827610493
   vertex -0.0066479998640716076 -0.038621000945568085 -0.0033839999232441187
  endloop
 endfacet
 facet normal -0.7231665581227309 0.058505126635123368 -0.68819131015316592
  outer loop
   vertex -0.0066479998640716076 -0.038621000945568085 -0.0033839999232441187
   vertex -0.0045269997790455818 -0.039140999317169189 -0.0056570000015199184
   vertex -0.0044829999096691608 -0.046443000435829163 -0.0063240001909434795
  endloop
 endfacet
 facet normal -0.40653425130983217 0.15489198572277571 -0.9004101150424787
  outer loop
   vertex -0.007548999972641468 -0.028567999601364136 -0.012013000436127186
   vertex -0.012946000322699547 -0.037634998559951782 -0.011136000044643879
   vertex -0.011900999583303928 -0.030357999727129936 -0.010355999693274498
  endloop
 endfacet
 facet normal 0.058587369604362914 0.09783036781742703 -0.99347709548612584
  outer loop
   vertex -0.0039220000617206097 -0.028769999742507935 -0.011819000355899334
   vertex -0.0081749996170401573 -0.035454001277685165 -0.012728000059723854
   vertex -0.007548999972641468 -0.028567999601364136 -0.012013000436127186
  endloop
 endfacet
 facet normal -0.98504213701284671 0.099243514248938125 -0.1408641657366588
  outer loop
   vertex -0.011900999583303928 -0.030357999727129936 -0.010355999693274498
   vertex -0.013255000114440918 -0.037399999797344208 -0.0058490000665187836
   vertex -0.012636000290513039 -0.030280999839305878 -0.0051620001904666424
  endloop
 endfacet
 facet normal 0.87466477973733947 -0.068162079984556853 -0.47991192310590747
  outer loop
   vertex -0.0026769998949021101 -0.030937999486923218 -0.0092420000582933426
   vertex -0.0043029999360442162 -0.036242999136447906 -0.01145199965685606
   vertex -0.0039220000617206097 -0.028769999742507935 -0.011819000355899334
  endloop
 endfacet
 facet normal -0.62780922699949326 -0.030041715890666322 0.77778729084541054
  outer loop
   vertex -0.012636000290513039 -0.030280999839305878 -0.0051620001904666424
   vertex -0.011730000376701355 -0.037537999451160431 -0.0047109997831285
   vertex -0.010970000177621841 -0.030403999611735344 -0.0038219999987632036
  endloop
 endfacet
 facet normal -0.94730773244513311 0.1309632712993255 -0.29232974809320939
  outer loop
   vertex -0.0041129998862743378 -0.032026000320911407 -0.0050760000012814999
   vertex -0.0026769998949021101 -0.030937999486923218 -0.0092420000582933426
   vertex -0.0036100000143051147 -0.038217999041080475 -0.0094799995422363281
  endloop
 endfacet
 facet normal -0.24931250385383852 -0.07968817187072158 0.96513888673394155
  outer loop
   vertex -0.010970000177621841 -0.030403999611735344 -0.0038219999987632036
   vertex -0.0066479998640716076 -0.038621000945568085 -0.0033839999232441187
   vertex -0.0057810000143945217 -0.031280998140573502 -0.0025539998896420002
  endloop
 endfacet
 facet normal -0.81739151616609329 0.093973414067293246 -0.56836617312101911
  outer loop
   vertex -0.0057810000143945217 -0.031280998140573502 -0.0025539998896420002
   vertex -0.0041129998862743378 -0.032026000320911407 -0.0050760000012814999
   vertex -0.0045269997790455818 -0.039140999317169189 -0.0056570000015199184
  endloop
 endfacet
 facet normal -0.51621205409678772 0.14216598499366681 -0.84457915432240915
  outer loop
   vertex -0.00712599977850914 -0.021622000262141228 -0.011803999543190002
   vertex -0.011900999583303928 -0.030357999727129936 -0.010355999693274498
   vertex -0.010954000055789948 -0.023045999929308891 -0.0097040003165602684
  endloop
 endfacet
 facet normal -0.20057929241731667 0.041666182843690662 -0.9787910280854667
  outer loop
   vertex -0.0043830000795423985 -0.021361000835895538 -0.012354999780654907
   vertex -0.007548999972641468 -0.028567999601364136 -0.012013000436127186
   vertex -0.00712599977850914 -0.021622000262141228 -0.011803999543190002
  endloop
 endfacet
 facet normal -0.97487627763284057 0.10248309562890175 -0.19777122748027373
  outer loop
   vertex -0.010954000055789948 -0.023045999929308891 -0.0097040003165602684
   vertex -0.012636000290513039 -0.030280999839305878 -0.0051620001904666424
   vertex -0.011993999592959881 -0.023155000060796738 -0.0046339998953044415
  endloop
 endfacet
 facet normal 0.8109165905561786 0.008127474745436538 -0.58510531301211521
  outer loop
   vertex -0.001475999946705997 -0.023730000481009483 -0.0083590000867843628
   vertex -0.0039220000617206097 -0.028769999742507935 -0.011819000355899334
   vertex -0.0043830000795423985 -0.021361000835895538 -0.012354999780654907
  endloop
 endfacet
 facet normal -0.69844367061523271 -0.01852402861738538 0.71542525769034915
  outer loop
   vertex -0.011993999592959881 -0.023155000060796738 -0.0046339998953044415
   vertex -0.010970000177621841 -0.030403999611735344 -0.0038219999987632036
   vertex -0.01015899982303381 -0.023288000375032425 -0.0028460000175982714
  endloop
 endfacet
 facet normal 0.97564794923159004 -0.17822542304349745 0.12785451787543212
  outer loop
   vertex -0.0023089998867362738 -0.025129999965429306 -0.0039539998397231102
   vertex -0.0026769998949021101 -0.030937999486923218 -0.0092420000582933426
   vertex -0.001475999946705997 -0.023730000481009483 -0.0083590000867843628
  endloop
 endfacet
 facet normal -0.21807591117381039 -0.083925928764926466 0.9723164790574399
  outer loop
   vertex -0.01015899982303381 -0.023288000375032425 -0.0028460000175982714
   vertex -0.0057810000143945217 -0.031280998140573502 -0.0025539998896420002
   vertex -0.0043029999360442162 -0.024069000035524368 -0.0015999999595806003
  endloop
 endfacet
 facet normal 0.6636962953617781 -0.28607350443518659 0.69113614981653415
  outer loop
   vertex -0.0043029999360442162 -0.024069000035524368 -0.0015999999595806003
   vertex -0.0041129998862743378 -0.032026000320911407 -0.0050760000012814999
   vertex -0.0023089998867362738 -0.025129999965429306 -0.0039539998397231102
  endloop
 endfacet
 facet normal -0.61778941366558948 0.10677509762937544 -0.7790605360875138
  outer loop
   vertex -0.0065839998424053192 -0.014689000323414803 -0.012024000287055969
   vertex -0.010954000055789948 -0.023045999929308891 -0.0097040003165602684
   vertex -0.010696999728679657 -0.015721999108791351 -0.0089039998129010201
  endloop
 endfacet
 facet normal -0.12962685632410223 -0.021323578420877651 -0.99133353777770439
  outer loop
   vertex -0.0038300000596791506 -0.013624999672174454 -0.012407000176608562
   vertex -0.00712599977850914 -0.021622000262141228 -0.011803999543190002
   vertex -0.0065839998424053192 -0.014689000323414803 -0.012024000287055969
  endloop
 endfacet
 facet normal -0.97644642029139628 0.04977953588566781 -0.2099390056829013
  outer loop
   vertex -0.010696999728679657 -0.015721999108791351 -0.0089039998129010201
   vertex -0.011993999592959881 -0.023155000060796738 -0.0046339998953044415
   vertex -0.011707999743521214 -0.015992999076843262 -0.0042659998871386051
  endloop
 endfacet
 facet normal 0.76507129133541396 -0.05900063943404802 -0.64123696378229444
  outer loop
   vertex -7.9999999798019417e-06 -0.016590999439358711 -0.0075739999301731586
   vertex -0.0043830000795423985 -0.021361000835895538 -0.012354999780654907
   vertex -0.0038300000596791506 -0.013624999672174454 -0.012407000176608562
  endloop
 endfacet
 facet normal -0.78734693994605387 -0.047534192448359588 0.6146749520729371
  outer loop
   vertex -0.011707999743521214 -0.015992999076843262 -0.0042659998871386051
   vertex -0.01015899982303381 -0.023288000375032425 -0.0028460000175982714
   vertex -0.0095710000023245811 -0.016203999519348145 -0.0015450000064447522
  endloop
 endfacet
 facet normal 0.97473024774706851 -0.20908273644246139 0.078647018053266307
  outer loop
   vertex -0.00077199999941512942 -0.0182460006326437 -0.0025049999821931124
   vertex -0.001475999946705997 -0.023730000481009483 -0.0083590000867843628
   vertex -7.9999999798019417e-06 -0.016590999439358711 -0.0075739999301731586
  endloop
 endfacet
 facet normal -0.32240416706114938 -0.22238157062004291 0.92010977068509026
  outer loop
   vertex -0.0095710000023245811 -0.016203999519348145 -0.0015450000064447522
   vertex -0.0043029999360442162 -0.024069000035524368 -0.0015999999595806003
   vertex -0.0035210000351071358 -0.017117999494075775 0.00035399998887442052
  endloop
 endfacet
 facet normal 0.62921973867780012 -0.29209152233499935 0.72025347138230678
  outer loop
   vertex -0.0035210000351071358 -0.017117999494075775 0.00035399998887442052
   vertex -0.0023089998867362738 -0.025129999965429306 -0.0039539998397231102
   vertex -0.00077199999941512942 -0.0182460006326437 -0.0025049999821931124
  endloop
 endfacet
 facet normal -0.61413259481913707 0.017658792746065303 -0.78900527439267798
  outer loop
   vertex -0.0065540000796318054 -0.007734999991953373 -0.011950000189244747
   vertex -0.010696999728679657 -0.015721999108791351 -0.0089039998129010201
   vertex -0.011814000084996223 -0.0083689996972680092 -0.0078699998557567596
  endloop
 endfacet
 facet normal -0.19954226752884663 0.011287504180246649 -0.97982420653851332
  outer loop
   vertex 0.00084100000094622374 -0.007734999991953373 -0.01345600001513958
   vertex -0.0065839998424053192 -0.014689000323414803 -0.012024000287055969
   vertex -0.0065540000796318054 -0.007734999991953373 -0.011950000189244747
  endloop
 endfacet
 facet normal -0.9997203457999102 -0.01992241524094079 -0.01274078351889483
  outer loop
   vertex -0.011814000084996223 -0.0083689996972680092 -0.0078699998557567596
   vertex -0.011707999743521214 -0.015992999076843262 -0.0042659998871386051
   vertex -0.011862999759614468 -0.0088980002328753471 -0.0031979999039322138
  endloop
 endfacet
 facet normal 0.60611894404012656 -0.57798840991253686 -0.54639658095787813
  outer loop
   vertex 0.0029460000805556774 -0.0099820001050829887 -0.0087440004572272301
   vertex -0.0038300000596791506 -0.013624999672174454 -0.012407000176608562
   vertex 0.00084100000094622374 -0.007734999991953373 -0.01345600001513958
  endloop
 endfacet
 facet normal -0.85535282308001881 -0.15661203879707902 0.49380584985686876
  outer loop
   vertex -0.011862999759614468 -0.0088980002328753471 -0.0031979999039322138
   vertex -0.0095710000023245811 -0.016203999519348145 -0.0015450000064447522
   vertex -0.0096049997955560684 -0.0092960000038146973 0.00058699998771771789
  endloop
 endfacet
 facet normal 0.91409509048996218 -0.38731084896743034 0.12008526893118995
  outer loop
   vertex 0.0012319999514147639 -0.011589000001549721 -0.0008800000068731606
   vertex -7.9999999798019417e-06 -0.016590999439358711 -0.0075739999301731586
   vertex 0.0029460000805556774 -0.0099820001050829887 -0.0087440004572272301
  endloop
 endfacet
 facet normal -0.28189338355532723 -0.24687586343500145 0.9271399184378547
  outer loop
   vertex -0.0096049997955560684 -0.0092960000038146973 0.00058699998771771789
   vertex -0.0035210000351071358 -0.017117999494075775 0.00035399998887442052
   vertex -0.0039789997972548008 -0.0071649998426437378 0.0028649999294430017
  endloop
 endfacet
 facet normal 0.35719769080183705 -0.32158934127108935 0.87692080900538683
  outer loop
   vertex -0.0039789997972548008 -0.0071649998426437378 0.0028649999294430017
   vertex -0.00077199999941512942 -0.0182460006326437 -0.0025049999821931124
   vertex 0.0012319999514147639 -0.011589000001549721 -0.0008800000068731606
  endloop
 endfacet
 facet normal -0.41368030051014182 -0.0012514380296224012 -0.9104213545785802
  outer loop
   vertex -0.0054460000246763229 -0.0014669999945908785 -0.010773000307381153
   vertex -0.011814000084996223 -0.0083689996972680092 -0.0078699998557567596
   vertex -0.012268999591469765 -0.0012799999676644802 -0.0076729999855160713
  endloop
 endfacet
 facet normal -0.15597794396383449 0.2088593868580545 -0.96542666086973827
  outer loop
   vertex 0.0046769999898970127 -0.0014969999901950359 -0.012415000237524509
   vertex -0.0065540000796318054 -0.007734999991953373 -0.011950000189244747
   vertex -0.0054460000246763229 -0.0014669999945908785 -0.010773000307381153
  endloop
 endfacet
 facet normal -0.66670583133927441 0.35077000467355296 0.65761975204484446
  outer loop
   vertex -0.012268999591469765 -0.0012799999676644802 -0.0076729999855160713
   vertex -0.011862999759614468 -0.0088980002328753471 -0.0031979999039322138
   vertex -0.0090169999748468399 -0.00020399999630171806 -0.0049499999731779099
  endloop
 endfacet
 facet normal 0.85108475597272326 -0.52494330721498017 0.0094478760072888926
  outer loop
   vertex 0.0038159999530762434 -0.0028220000676810741 -0.0084739997982978821
   vertex 0.00084100000094622374 -0.007734999991953373 -0.01345600001513958
   vertex 0.0046769999898970127 -0.0014969999901950359 -0.012415000237524509
  endloop
 endfacet
 facet normal -0.99842920553938208 0.052243810939793522 -0.02024118930511536
  outer loop
   vertex -0.0090169999748468399 -0.00020399999630171806 -0.0049499999731779099
   vertex -0.0096049997955560684 -0.0092960000038146973 0.00058699998771771789
   vertex -0.0091199995949864388 -0.00099500000942498446 -0.0019109999993816018
  endloop
 endfacet
 facet normal 0.95632518740459149 -0.12614494588651706 0.26368463846583995
  outer loop
   vertex 0.0011139999842271209 -0.0043469998054206371 0.0005959999980404973
   vertex 0.0029460000805556774 -0.0099820001050829887 -0.0087440004572272301
   vertex 0.0038159999530762434 -0.0028220000676810741 -0.0084739997982978821
  endloop
 endfacet
 facet normal -0.83184726059696823 -0.4868527580696696 0.26646674651309787
  outer loop
   vertex -0.0091199995949864388 -0.00099500000942498446 -0.0019109999993816018
   vertex -0.0039789997972548008 -0.0071649998426437378 0.0028649999294430017
   vertex -0.005177999846637249 -0.0046379999257624149 0.0037390000652521849
  endloop
 endfacet
 facet normal 0.44658001873265757 -0.17169328280648782 0.87811599661313
  outer loop
   vertex -0.005177999846637249 -0.0046379999257624149 0.0037390000652521849
   vertex 0.0012319999514147639 -0.011589000001549721 -0.0008800000068731606
   vertex 0.0011139999842271209 -0.0043469998054206371 0.0005959999980404973
  endloop
 endfacet
 facet normal 0.016153466053891209 0.99956332964401595 -0.024742990227824013
  outer loop
   vertex -0.0052990000694990158 -0.0012959999730810523 -0.0037690000608563423
   vertex -0.0054460000246763229 -0.0014669999945908785 -0.010773000307381153
   vertex -0.012268999591469765 -0.0012799999676644802 -0.0076729999855160713
  endloop
 endfacet
 facet normal -0.00099294558748551625 0.99970211173418266 -0.024386509657514325
  outer loop
   vertex -0.0052990000694990158 -0.0012959999730810523 -0.0037690000608563423
   vertex 0.0046769999898970127 -0.0014969999901950359 -0.012415000237524509
   vertex -0.0054460000246763229 -0.0014669999945908785 -0.010773000307381153
  endloop
 endfacet
 facet normal 0.39659996396019764 0.5871529863860403 -0.70566269503547119
  outer loop
   vertex -0.0052990000694990158 -0.0012959999730810523 -0.0037690000608563423
   vertex -0.012268999591469765 -0.0012799999676644802 -0.0076729999855160713
   vertex -0.0090169999748468399 -0.00020399999630171806 -0.0049499999731779099
  endloop
 endfacet
 facet normal 0.33395548555440174 0.86899794214347792 0.36512506106610115
  outer loop
   vertex -0.0052990000694990158 -0.0012959999730810523 -0.0037690000608563423
   vertex 0.0038159999530762434 -0.0028220000676810741 -0.0084739997982978821
   vertex 0.0046769999898970127 -0.0014969999901950359 -0.012415000237524509
  endloop
 endfacet
 facet normal 0.19771536930134009 0.94699749252772469 0.25318843158453469
  outer loop
   vertex -0.0052990000694990158 -0.0012959999730810523 -0.0037690000608563423
   vertex -0.0090169999748468399 -0.00020399999630171806 -0.0049499999731779099
   vertex -0.0091199995949864388 -0.00099500000942498446 -0.0019109999993816018
  endloop
 endfacet
 facet normal 0.27932161666201377 0.92983590294387031 0.23955088825106965
  outer loop
   vertex -0.0052990000694990158 -0.0012959999730810523 -0.0037690000608563423
   vertex 0.0011139999842271209 -0.0043469998054206371 0.0005959999980404973
   vertex 0.0038159999530762434 -0.0028220000676810741 -0.0084739997982978821
  endloop
 endfacet
 facet normal 0.25893680958403953 0.88396573239751086 0.38930234084753584
  outer loop
   vertex -0.0052990000694990158 -0.0012959999730810523 -0.0037690000608563423
   vertex -0.0091199995949864388 -0.00099500000942498446 -0.0019109999993816018
   vertex -0.005177999846637249 -0.0046379999257624149 0.0037390000652521849
  endloop
 endfacet
 facet normal 0.15776368087749745 0.90308182127464554 0.39944191702831144
  outer loop
   vertex -0.0052990000694990158 -0.0012959999730810523 -0.0037690000608563423
   vertex -0.005177999846637249 -0.0046379999257624149 0.0037390000652521849
   vertex 0.0011139999842271209 -0.0043469998054206371 0.0005959999980404973
  endloop
 endfacet
endsolid
