solid Visualization Toolkit generated SLA File
 facet normal -0.27335143048809069 -0.93588242910742914 0.22226802365183476
  outer loop
   vertex 0.016459999606013298 -0.031254999339580536 0.009682999923825264
   vertex 0.0060000000521540642 -0.028519999235868454 0.0083349999040365219
   vertex 0.0060000000521540642 -0.031254999339580536 -0.0031810000073164701
  endloop
 endfacet
 facet normal -0.33565715268506957 -0.78950846238692252 -0.51381968011238088
  outer loop
   vertex 0.016459999606013298 -0.031254999339580536 0.009682999923825264
   vertex 0.023854000493884087 -0.040316998958587646 0.018776999786496162
   vertex 0.0060000000521540642 -0.038777001202106476 0.028074000030755997
  endloop
 endfacet
 facet normal -0.16214154302119677 -0.97792030082182924 0.13184083308007596
  outer loop
   vertex 0.027592999860644341 -0.033989999443292618 0.0030879999976605177
   vertex 0.016459999606013298 -0.031254999339580536 0.009682999923825264
   vertex 0.0060000000521540642 -0.031254999339580536 -0.0031810000073164701
  endloop
 endfacet
 facet normal 0.86492906510679757 0.35888189047569358 0.35085823493552709
  outer loop
   vertex 0.027592999860644341 -0.033989999443292618 0.0030879999976605177
   vertex 0.023854000493884087 -0.040316998958587646 0.018776999786496162
   vertex 0.030511999502778053 -0.041854999959468842 0.0039369999431073666
  endloop
 endfacet
 facet normal 0.26265560485673223 -0.93877732022194815 0.22295554775390072
  outer loop
   vertex 0.0060000000521540642 -0.028519999235868454 0.0083349999040365219
   vertex -0.0079770004376769066 -0.0310830008238554 0.014008999802172184
   vertex 0.0060000000521540642 -0.031254999339580536 -0.0031810000073164701
  endloop
 endfacet
 facet normal 0.38185600374384671 -0.82010887511840791 -0.42615422719574053
  outer loop
   vertex 0.0060000000521540642 -0.028519999235868454 0.0083349999040365219
   vertex 0.0060000000521540642 -0.038777001202106476 0.028074000030755997
   vertex -0.015821000561118126 -0.0466420017182827 0.023656999692320824
  endloop
 endfacet
 facet normal -0.12565746593916605 -0.99207368741124624 -0
  outer loop
   vertex 0.027592999860644341 -0.033989999443292618 -0.0094489995390176773
   vertex 0.027592999860644341 -0.033989999443292618 0.0030879999976605177
   vertex 0.0060000000521540642 -0.031254999339580536 -0.0031810000073164701
  endloop
 endfacet
 facet normal -0.058612128804705003 -0.97312356826785762 0.22269966151436532
  outer loop
   vertex 0.016008999198675156 -0.034674998372793198 -0.01549100037664175
   vertex 0.027592999860644341 -0.033989999443292618 -0.0094489995390176773
   vertex 0.0060000000521540642 -0.031254999339580536 -0.0031810000073164701
  endloop
 endfacet
 facet normal 0.14306808119192749 -0.91745836329948771 0.37121648098634447
  outer loop
   vertex 0.0060000000521540642 -0.03535899892449379 -0.01332399994134903
   vertex 0.016008999198675156 -0.034674998372793198 -0.01549100037664175
   vertex 0.0060000000521540642 -0.031254999339580536 -0.0031810000073164701
  endloop
 endfacet
 facet normal -0.23215665771150379 -0.90166753037283975 0.36482728920897328
  outer loop
   vertex -0.0075249997898936272 -0.034503001719713211 -0.019814999774098396
   vertex 0.0060000000521540642 -0.03535899892449379 -0.01332399994134903
   vertex 0.0060000000521540642 -0.031254999339580536 -0.0031810000073164701
  endloop
 endfacet
 facet normal 0.020504475244435064 -0.98426268704718167 0.17551788906436921
  outer loop
   vertex -0.026972999796271324 -0.033649001270532608 -0.012753999792039394
   vertex -0.0075249997898936272 -0.034503001719713211 -0.019814999774098396
   vertex 0.0060000000521540642 -0.031254999339580536 -0.0031810000073164701
  endloop
 endfacet
 facet normal 0.072414303230679627 -0.99737463808120519 0
  outer loop
   vertex -0.026972999796271324 -0.033649001270532608 0.0063930000178515911
   vertex -0.026972999796271324 -0.033649001270532608 -0.012753999792039394
   vertex 0.0060000000521540642 -0.031254999339580536 -0.0031810000073164701
  endloop
 endfacet
 facet normal 0.097971792542912411 -0.99114958245968643 0.089576967217683989
  outer loop
   vertex -0.0079770004376769066 -0.0310830008238554 0.014008999802172184
   vertex -0.026972999796271324 -0.033649001270532608 0.0063930000178515911
   vertex 0.0060000000521540642 -0.031254999339580536 -0.0031810000073164701
  endloop
 endfacet
 facet normal 0.4933211200107705 0.079958994262251851 0.86616443692170142
  outer loop
   vertex 0.023854000493884087 -0.040316998958587646 0.018776999786496162
   vertex 0.0060000000521540642 -0.048693999648094177 0.029719000682234764
   vertex 0.024484999477863312 -0.052627000957727432 0.019554000347852707
  endloop
 endfacet
 facet normal 0.92789475106616504 0.020553431086586835 0.37227528445282065
  outer loop
   vertex 0.030511999502778053 -0.041854999959468842 0.0039369999431073666
   vertex 0.024484999477863312 -0.052627000957727432 0.019554000347852707
   vertex 0.030804000794887543 -0.056559000164270401 0.0040210001170635223
  endloop
 endfacet
 facet normal -0.33364767704038872 0.15426387260667171 0.92999026081671687
  outer loop
   vertex 0.0060000000521540642 -0.038777001202106476 0.028074000030755997
   vertex -0.015279999934136868 -0.054164998233318329 0.022991999983787537
   vertex 0.0060000000521540642 -0.048693999648094177 0.029719000682234764
  endloop
 endfacet
 facet normal 0.93751419308214812 0.34794703299428881 0
  outer loop
   vertex 0.027592999860644341 -0.033989999443292618 -0.0094489995390176773
   vertex 0.030511999502778053 -0.041854999959468842 0.0039369999431073666
   vertex 0.030511999502778053 -0.041854999959468842 -0.01029799971729517
  endloop
 endfacet
 facet normal 0.99980287571965676 0.019854714873411759 0
  outer loop
   vertex 0.030511999502778053 -0.041854999959468842 -0.01029799971729517
   vertex 0.030804000794887543 -0.056559000164270401 0.0040210001170635223
   vertex 0.030804000794887543 -0.056559000164270401 -0.010382000356912613
  endloop
 endfacet
 facet normal 0.70259452461788297 -0.59563325236365128 -0.38933528308601811
  outer loop
   vertex -0.0079770004376769066 -0.0310830008238554 0.014008999802172184
   vertex -0.015821000561118126 -0.0466420017182827 0.023656999692320824
   vertex -0.031351000070571899 -0.054506998509168625 0.0076640001498162746
  endloop
 endfacet
 facet normal -0.76951471055746834 -0.11093186253541577 0.62892068825097458
  outer loop
   vertex -0.015821000561118126 -0.0466420017182827 0.023656999692320824
   vertex -0.027850000187754631 -0.059636000543832779 0.0066470000892877579
   vertex -0.015279999934136868 -0.054164998233318329 0.022991999983787537
  endloop
 endfacet
 facet normal -0.45906076793988271 -0.88662630801642794 0.056187198467296411
  outer loop
   vertex 0.016008999198675156 -0.034674998372793198 -0.01549100037664175
   vertex 0.019164999946951866 -0.036554999649524689 -0.019371999427676201
   vertex 0.030511999502778053 -0.041854999959468842 -0.01029799971729517
  endloop
 endfacet
 facet normal -0.29953227746147232 -0.81856440354640714 -0.49013542210848038
  outer loop
   vertex 0.0060000000521540642 -0.03535899892449379 -0.01332399994134903
   vertex 0.0060000000521540642 -0.031254999339580536 -0.020177999511361122
   vertex 0.019164999946951866 -0.036554999649524689 -0.019371999427676201
  endloop
 endfacet
 facet normal -0.14550584886247406 0.51123530317458421 -0.8470339501665809
  outer loop
   vertex -0.0075249997898936272 -0.034503001719713211 -0.019814999774098396
   vertex 0.0060000000521540642 -0.031254999339580536 -0.020177999511361122
   vertex -0.011132000014185905 -0.04288100078701973 -0.024251999333500862
  endloop
 endfacet
 facet normal -0.51718033483669157 0.15979041310192979 -0.84082788080493753
  outer loop
   vertex -0.026972999796271324 -0.033649001270532608 -0.012753999792039394
   vertex -0.011132000014185905 -0.04288100078701973 -0.024251999333500862
   vertex -0.031351000070571899 -0.054506998509168625 -0.014024999924004078
  endloop
 endfacet
 facet normal -0.97867405671404839 0.20541930463047414 0
  outer loop
   vertex -0.026972999796271324 -0.033649001270532608 0.0063930000178515911
   vertex -0.031351000070571899 -0.054506998509168625 -0.014024999924004078
   vertex -0.031351000070571899 -0.054506998509168625 0.0076640001498162746
  endloop
 endfacet
 facet normal 0.18590752678366068 0.039918777985594983 0.98175601992008144
  outer loop
   vertex 0.024484999477863312 -0.052627000957727432 0.019554000347852707
   vertex 0.0060000000521540642 -0.068185999989509583 0.023686999455094337
   vertex 0.024937000125646591 -0.068356998264789581 0.020107999444007874
  endloop
 endfacet
 facet normal 0.60995029195047379 0.51633891504702367 0.60112791164409773
  outer loop
   vertex 0.030804000794887543 -0.056559000164270401 0.0040210001170635223
   vertex 0.024937000125646591 -0.068356998264789581 0.020107999444007874
   vertex 0.038683000952005386 -0.068529002368450165 0.0063080000691115856
  endloop
 endfacet
 facet normal -0.35405961601758495 -0.27647843977036429 0.89342121121429918
  outer loop
   vertex 0.0060000000521540642 -0.048693999648094177 0.029719000682234764
   vertex -0.011041999794542789 -0.065449997782707214 0.0177800003439188
   vertex 0.0060000000521540642 -0.068185999989509583 0.023686999455094337
  endloop
 endfacet
 facet normal 0.83528893710633301 0.54981123264969101 0
  outer loop
   vertex 0.030804000794887543 -0.056559000164270401 -0.010382000356912613
   vertex 0.038683000952005386 -0.068529002368450165 0.0063080000691115856
   vertex 0.038683000952005386 -0.068529002368450165 -0.012668999843299389
  endloop
 endfacet
 facet normal -0.75412139772321973 -0.48680050062416774 0.4408244436145039
  outer loop
   vertex -0.015279999934136868 -0.054164998233318329 0.022991999983787537
   vertex -0.02055400051176548 -0.062715001404285431 0.0045280000194907188
   vertex -0.011041999794542789 -0.065449997782707214 0.0177800003439188
  endloop
 endfacet
 facet normal -0.86527186074179097 -0.50127977183113048 0.0048163639157485384
  outer loop
   vertex 0.019164999946951866 -0.036554999649524689 -0.019371999427676201
   vertex 0.024576000869274139 -0.045958999544382095 -0.026025999337434769
   vertex 0.030804000794887543 -0.056559000164270401 -0.010382000356912613
  endloop
 endfacet
 facet normal 0.84431925331485125 0.24601253281757837 -0.47602818422708132
  outer loop
   vertex 0.024576000869274139 -0.045958999544382095 -0.026025999337434769
   vertex 0.038683000952005386 -0.068529002368450165 -0.012668999843299389
   vertex 0.027371000498533249 -0.062201999127864838 -0.029463000595569611
  endloop
 endfacet
 facet normal -0.82593094337899831 -0.56377129828422257 0
  outer loop
   vertex -0.031351000070571899 -0.054506998509168625 0.0076640001498162746
   vertex -0.027850000187754631 -0.059636000543832779 -0.013008000329136848
   vertex -0.027850000187754631 -0.059636000543832779 0.0066470000892877579
  endloop
 endfacet
 facet normal -0.38880780793559094 -0.9213188853422688 0
  outer loop
   vertex -0.027850000187754631 -0.059636000543832779 0.0066470000892877579
   vertex -0.02055400051176548 -0.062715001404285431 -0.010889999568462372
   vertex -0.02055400051176548 -0.062715001404285431 0.0045280000194907188
  endloop
 endfacet
 facet normal -0.56783166469132051 -0.79786647272358058 0.20242601680000394
  outer loop
   vertex 0.0060000000521540642 -0.031254999339580536 -0.020177999511361122
   vertex 0.0060000000521540642 -0.03535899892449379 -0.036354001611471176
   vertex 0.024576000869274139 -0.045958999544382095 -0.026025999337434769
  endloop
 endfacet
 facet normal -0.53968496779263353 0.79808917941183211 -0.26794364565037276
  outer loop
   vertex -0.011132000014185905 -0.04288100078701973 -0.024251999333500862
   vertex 0.0060000000521540642 -0.03535899892449379 -0.036354001611471176
   vertex -0.015371000394225121 -0.04749700054526329 -0.029463000595569611
  endloop
 endfacet
 facet normal -0.57069119602284812 0.78735279812182402 -0.23321048448074824
  outer loop
   vertex -0.031351000070571899 -0.054506998509168625 -0.014024999924004078
   vertex -0.011132000014185905 -0.04288100078701973 -0.024251999333500862
   vertex -0.015371000394225121 -0.04749700054526329 -0.029463000595569611
  endloop
 endfacet
 facet normal -0.49166035085002124 -0.47970340076033957 -0.72674255875172145
  outer loop
   vertex -0.031351000070571899 -0.054506998509168625 -0.014024999924004078
   vertex -0.015371000394225121 -0.04749700054526329 -0.029463000595569611
   vertex -0.027850000187754631 -0.059636000543832779 -0.013008000329136848
  endloop
 endfacet
 facet normal -0.21863924165353124 -0.17607653577329443 0.95978848480237799
  outer loop
   vertex 0.024937000125646591 -0.068356998264789581 0.020107999444007874
   vertex 0.0060000000521540642 -0.07912900298833847 0.013818000443279743
   vertex 0.022681999951601028 -0.080666996538639069 0.017335999757051468
  endloop
 endfacet
 facet normal 0.48676457792002981 -0.27581000895325353 0.82884804677548785
  outer loop
   vertex 0.024937000125646591 -0.068356998264789581 0.020107999444007874
   vertex 0.022681999951601028 -0.080666996538639069 0.017335999757051468
   vertex 0.039000000804662704 -0.082204997539520264 0.0072409999556839466
  endloop
 endfacet
 facet normal 0.70742146932292871 0.064415417099050895 0.7038504946229307
  outer loop
   vertex 0.038683000952005386 -0.068529002368450165 0.0063080000691115856
   vertex 0.024937000125646591 -0.068356998264789581 0.020107999444007874
   vertex 0.039000000804662704 -0.082204997539520264 0.0072409999556839466
  endloop
 endfacet
 facet normal -0.16517253598993689 -0.66052645469192228 0.73240892676616998
  outer loop
   vertex 0.0060000000521540642 -0.068185999989509583 0.023686999455094337
   vertex -0.0053619998507201672 -0.079641997814178467 0.010793000459671021
   vertex 0.0060000000521540642 -0.07912900298833847 0.013818000443279743
  endloop
 endfacet
 facet normal 0.99973146846930239 0.023173065231263581 0
  outer loop
   vertex 0.038683000952005386 -0.068529002368450165 0.0063080000691115856
   vertex 0.039000000804662704 -0.082204997539520264 0.0072409999556839466
   vertex 0.039000000804662704 -0.082204997539520264 -0.013602999970316887
  endloop
 endfacet
 facet normal 0.99973146846930228 0.023173065231263577 0
  outer loop
   vertex 0.038683000952005386 -0.068529002368450165 -0.012668999843299389
   vertex 0.038683000952005386 -0.068529002368450165 0.0063080000691115856
   vertex 0.039000000804662704 -0.082204997539520264 -0.013602999970316887
  endloop
 endfacet
 facet normal -0.62778950076541451 -0.53131221351518054 0.56884767249089696
  outer loop
   vertex -0.011041999794542789 -0.065449997782707214 0.0177800003439188
   vertex -0.012675999663770199 -0.08015500009059906 0.0022420000750571489
   vertex -0.0053619998507201672 -0.079641997814178467 0.010793000459671021
  endloop
 endfacet
 facet normal 0.87327964081148202 0.053316742640316314 -0.48429329326183645
  outer loop
   vertex 0.038683000952005386 -0.068529002368450165 -0.012668999843299389
   vertex 0.039000000804662704 -0.082204997539520264 -0.013602999970316887
   vertex 0.028633000329136848 -0.070579998195171356 -0.03101699985563755
  endloop
 endfacet
 facet normal 0.84553580699438435 0.21778615654910294 -0.48748168079008314
  outer loop
   vertex 0.027371000498533249 -0.062201999127864838 -0.029463000595569611
   vertex 0.038683000952005386 -0.068529002368450165 -0.012668999843299389
   vertex 0.028633000329136848 -0.070579998195171356 -0.03101699985563755
  endloop
 endfacet
 facet normal -0.91133389416725918 -0.4116679892121064 0
  outer loop
   vertex -0.02055400051176548 -0.062715001404285431 0.0045280000194907188
   vertex -0.012675999663770199 -0.08015500009059906 -0.0086019998416304588
   vertex -0.012675999663770199 -0.08015500009059906 0.0022420000750571489
  endloop
 endfacet
 facet normal 0.3625296127482161 0.049716622793425612 -0.93064522633420566
  outer loop
   vertex 0.0060000000521540642 -0.03535899892449379 -0.036354001611471176
   vertex 0.027371000498533249 -0.062201999127864838 -0.029463000595569611
   vertex 0.0060000000521540642 -0.055874999612569809 -0.037450000643730164
  endloop
 endfacet
 facet normal 0.40458496625120666 0.23622179131866863 -0.88346492312355518
  outer loop
   vertex 0.0060000000521540642 -0.055874999612569809 -0.037450000643730164
   vertex 0.028633000329136848 -0.070579998195171356 -0.03101699985563755
   vertex 0.0060000000521540642 -0.058952998369932175 -0.038272999227046967
  endloop
 endfacet
 facet normal -0.28941725755147818 -0.90341585167855176 -0.31635020146555659
  outer loop
   vertex -0.027850000187754631 -0.059636000543832779 -0.013008000329136848
   vertex -0.013477000407874584 -0.059294000267982483 -0.027133999392390251
   vertex -0.02055400051176548 -0.062715001404285431 -0.010889999568462372
  endloop
 endfacet
 facet normal -0.67648969313832297 -0.24567422870879427 -0.69426642467136235
  outer loop
   vertex -0.015371000394225121 -0.04749700054526329 -0.029463000595569611
   vertex -0.013477000407874584 -0.059294000267982483 -0.027133999392390251
   vertex -0.027850000187754631 -0.059636000543832779 -0.013008000329136848
  endloop
 endfacet
 facet normal -0.83389459425422641 -0.4231717848505806 -0.35432392831976911
  outer loop
   vertex -0.02055400051176548 -0.062715001404285431 -0.010889999568462372
   vertex -0.011312000453472137 -0.069554001092910767 -0.024473000317811966
   vertex -0.012675999663770199 -0.08015500009059906 -0.0086019998416304588
  endloop
 endfacet
 facet normal -0.42106816101745997 -0.24027359361070702 -0.87462575081618266
  outer loop
   vertex -0.015371000394225121 -0.04749700054526329 -0.029463000595569611
   vertex 0.0060000000521540642 -0.055874999612569809 -0.037450000643730164
   vertex -0.013477000407874584 -0.059294000267982483 -0.027133999392390251
  endloop
 endfacet
 facet normal -0.31688740173910035 -0.07092468362796521 0.9458076251919918
  outer loop
   vertex 0.022681999951601028 -0.080666996538639069 0.017335999757051468
   vertex 0.0060000000521540642 -0.13349899649620056 0.0077849999070167542
   vertex 0.019616000354290009 -0.11725600063800812 0.013565000146627426
  endloop
 endfacet
 facet normal 0.45593575925303326 -0.12896536444544482 0.88061939463528371
  outer loop
   vertex 0.022681999951601028 -0.080666996538639069 0.017335999757051468
   vertex 0.019616000354290009 -0.11725600063800812 0.013565000146627426
   vertex 0.038389001041650772 -0.10101400315761566 0.0062239998951554298
  endloop
 endfacet
 facet normal 0.5207640483078515 -0.062950521773898399 0.85137655464454254
  outer loop
   vertex 0.039000000804662704 -0.082204997539520264 0.0072409999556839466
   vertex 0.022681999951601028 -0.080666996538639069 0.017335999757051468
   vertex 0.038389001041650772 -0.10101400315761566 0.0062239998951554298
  endloop
 endfacet
 facet normal -0.041051186286760216 -0.11019211683751245 0.99306218208696151
  outer loop
   vertex 0.0060000000521540642 -0.07912900298833847 0.013818000443279743
   vertex -0.0025659999810159206 -0.13418300449848175 0.0073549998924136162
   vertex 0.0060000000521540642 -0.13349899649620056 0.0077849999070167542
  endloop
 endfacet
 facet normal 0.99947279821904522 -0.032467300783896882 0
  outer loop
   vertex 0.039000000804662704 -0.082204997539520264 0.0072409999556839466
   vertex 0.038389001041650772 -0.10101400315761566 0.0062239998951554298
   vertex 0.038389001041650772 -0.10101400315761566 -0.01258500013500452
  endloop
 endfacet
 facet normal 0.999472798219045 -0.032467300783896869 0
  outer loop
   vertex 0.039000000804662704 -0.082204997539520264 -0.013602999970316887
   vertex 0.039000000804662704 -0.082204997539520264 0.0072409999556839466
   vertex 0.038389001041650772 -0.10101400315761566 -0.01258500013500452
  endloop
 endfacet
 facet normal -0.61091305952830544 -0.080961109687429852 0.78754716202646868
  outer loop
   vertex -0.0053619998507201672 -0.079641997814178467 0.010793000459671021
   vertex -0.010049000382423401 -0.13486699759960175 0.0014799999771639705
   vertex -0.0025659999810159206 -0.13418300449848175 0.0073549998924136162
  endloop
 endfacet
 facet normal 0.6387922509725289 -0.062255369611558448 -0.76685639402170835
  outer loop
   vertex 0.039000000804662704 -0.082204997539520264 -0.013602999970316887
   vertex 0.038389001041650772 -0.10101400315761566 -0.01258500013500452
   vertex 0.024304000660777092 -0.084086999297142029 -0.02569199912250042
  endloop
 endfacet
 facet normal 0.60039310008931368 -0.45240336652545404 -0.65943863954243631
  outer loop
   vertex 0.028633000329136848 -0.070579998195171356 -0.03101699985563755
   vertex 0.039000000804662704 -0.082204997539520264 -0.013602999970316887
   vertex 0.024304000660777092 -0.084086999297142029 -0.02569199912250042
  endloop
 endfacet
 facet normal -0.9988492668318012 -0.047959797221974042 0
  outer loop
   vertex -0.012675999663770199 -0.08015500009059906 0.0022420000750571489
   vertex -0.010049000382423401 -0.13486699759960175 -0.0078410003334283829
   vertex -0.010049000382423401 -0.13486699759960175 0.0014799999771639705
  endloop
 endfacet
 facet normal -0.52475822937752792 -0.65456865086298499 -0.54421382011850228
  outer loop
   vertex 0.0060000000521540642 -0.058952998369932175 -0.038272999227046967
   vertex 0.024304000660777092 -0.084086999297142029 -0.02569199912250042
   vertex 0.0060000000521540642 -0.067158997058868408 -0.02840300090610981
  endloop
 endfacet
 facet normal -0.92874433334229367 -0.049703577099691386 -0.36737381195190505
  outer loop
   vertex -0.012675999663770199 -0.08015500009059906 -0.0086019998416304588
   vertex -0.0072559998370707035 -0.10101400315761566 -0.019481999799609184
   vertex -0.010049000382423401 -0.13486699759960175 -0.0078410003334283829
  endloop
 endfacet
 facet normal -0.46736136935324141 -0.31305156024294906 -0.82678417441658758
  outer loop
   vertex -0.013477000407874584 -0.059294000267982483 -0.027133999392390251
   vertex 0.0060000000521540642 -0.058952998369932175 -0.038272999227046967
   vertex -0.011312000453472137 -0.069554001092910767 -0.024473000317811966
  endloop
 endfacet
 facet normal -0.19434351796092142 -0.17809072808455254 -0.96463168598013982
  outer loop
   vertex -0.011312000453472137 -0.069554001092910767 -0.024473000317811966
   vertex 0.0060000000521540642 -0.067158997058868408 -0.02840300090610981
   vertex -0.0072559998370707035 -0.10101400315761566 -0.019481999799609184
  endloop
 endfacet
 facet normal -0.24878592526295826 -0.034504467165656055 0.96794369936307134
  outer loop
   vertex 0.019616000354290009 -0.11725600063800812 0.013565000146627426
   vertex 0.0060000000521540642 -0.23505899310112 0.0058659999631345272
   vertex 0.017092000693082809 -0.18616099655628204 0.010459999553859234
  endloop
 endfacet
 facet normal 0.76316578817151348 -0.15973285460633282 0.6261496585672347
  outer loop
   vertex 0.038389001041650772 -0.10101400315761566 0.0062239998951554298
   vertex 0.017092000693082809 -0.18616099655628204 0.010459999553859234
   vertex 0.032262001186609268 -0.13726100325584412 0.0044450000859797001
  endloop
 endfacet
 facet normal 0.01196387326537535 -0.018890510159821548 0.99974997592517689
  outer loop
   vertex 0.0060000000521540642 -0.13349899649620056 0.0077849999070167542
   vertex -0.001934999949298799 -0.2024029940366745 0.006577999796718359
   vertex 0.0060000000521540642 -0.23505899310112 0.0058659999631345272
  endloop
 endfacet
 facet normal 0.98601267765593359 -0.16667033179836183 0
  outer loop
   vertex 0.038389001041650772 -0.10101400315761566 -0.01258500013500452
   vertex 0.032262001186609268 -0.13726100325584412 0.0044450000859797001
   vertex 0.032262001186609268 -0.13726100325584412 -0.010805999860167503
  endloop
 endfacet
 facet normal -0.57351301959105605 -0.014633553793590968 0.8190657332979564
  outer loop
   vertex -0.0025659999810159206 -0.13418300449848175 0.0073549998924136162
   vertex -0.010049000382423401 -0.16974599659442902 0.0014799999771639705
   vertex -0.001934999949298799 -0.2024029940366745 0.006577999796718359
  endloop
 endfacet
 facet normal 0.20549124863317547 -0.23519148962124389 -0.94997805761234233
  outer loop
   vertex 0.024304000660777092 -0.084086999297142029 -0.02569199912250042
   vertex 0.032262001186609268 -0.13726100325584412 -0.010805999860167503
   vertex 0.019796999171376228 -0.11041799932718277 -0.020147999748587608
  endloop
 endfacet
 facet normal -1 0 0
  outer loop
   vertex -0.010049000382423401 -0.13486699759960175 0.0014799999771639705
   vertex -0.010049000382423401 -0.16974599659442902 -0.0078410003334283829
   vertex -0.010049000382423401 -0.16974599659442902 0.0014799999771639705
  endloop
 endfacet
 facet normal -0.63787322422103743 -0.33570937103700238 -0.69312117845280008
  outer loop
   vertex 0.0060000000521540642 -0.067158997058868408 -0.02840300090610981
   vertex 0.019796999171376228 -0.11041799932718277 -0.020147999748587608
   vertex 0.0060000000521540642 -0.08357500284910202 -0.020452000200748444
  endloop
 endfacet
 facet normal -0.84157413157643879 0 -0.54014163055754438
  outer loop
   vertex -0.010049000382423401 -0.13486699759960175 -0.0078410003334283829
   vertex -0.0046410001814365387 -0.12666000425815582 -0.016266999766230583
   vertex -0.010049000382423401 -0.16974599659442902 -0.0078410003334283829
  endloop
 endfacet
 facet normal 0.080086183229271732 -0.11594380293088156 -0.99002183704082636
  outer loop
   vertex -0.0072559998370707035 -0.10101400315761566 -0.019481999799609184
   vertex 0.0060000000521540642 -0.08357500284910202 -0.020452000200748444
   vertex -0.0046410001814365387 -0.12666000425815582 -0.016266999766230583
  endloop
 endfacet
 facet normal 0.14092748970613747 -0.04473413822845955 0.98900874592800414
  outer loop
   vertex 0.017092000693082809 -0.18616099655628204 0.010459999553859234
   vertex 0.0060000000521540642 -0.30447599291801453 0.0066889999434351921
   vertex 0.014836999587714672 -0.25455000996589661 0.0076879998669028282
  endloop
 endfacet
 facet normal 0.91024370644972663 -0.12430918548812549 0.39497293739184564
  outer loop
   vertex 0.032262001186609268 -0.13726100325584412 0.0044450000859797001
   vertex 0.014836999587714672 -0.25455000996589661 0.0076879998669028282
   vertex 0.024091999977827072 -0.20462499558925629 0.0020719999447464943
  endloop
 endfacet
 facet normal -0.21362074483846932 0.011581397942666912 0.9768480171430719
  outer loop
   vertex 0.0060000000521540642 -0.23505899310112 0.0058659999631345272
   vertex -0.00067300000227987766 -0.2873769998550415 0.0050269998610019684
   vertex 0.0060000000521540642 -0.30447599291801453 0.0066889999434351921
  endloop
 endfacet
 facet normal 0.99272556072236628 -0.12039917395257939 0
  outer loop
   vertex 0.032262001186609268 -0.13726100325584412 -0.010805999860167503
   vertex 0.024091999977827072 -0.20462499558925629 0.0020719999447464943
   vertex 0.024091999977827072 -0.20462499558925629 -0.0084330001845955849
  endloop
 endfacet
 facet normal -0.78628288358902609 -0.022947476116612627 0.61744039413922658
  outer loop
   vertex -0.001934999949298799 -0.2024029940366745 0.006577999796718359
   vertex -0.0050880000926554203 -0.27028301358222961 3.9999998989515007e-05
   vertex -0.00067300000227987766 -0.2873769998550415 0.0050269998610019684
  endloop
 endfacet
 facet normal 0.29125359916250515 -0.10496572686575266 -0.95086988445235299
  outer loop
   vertex 0.019796999171376228 -0.11041799932718277 -0.020147999748587608
   vertex 0.024091999977827072 -0.20462499558925629 -0.0084330001845955849
   vertex 0.015557999722659588 -0.16940400004386902 -0.014934999868273735
  endloop
 endfacet
 facet normal -0.99878475373524123 -0.049285045460396158 0
  outer loop
   vertex -0.010049000382423401 -0.16974599659442902 0.0014799999771639705
   vertex -0.0050880000926554203 -0.27028301358222961 -0.0064010000787675381
   vertex -0.0050880000926554203 -0.27028301358222961 3.9999998989515007e-05
  endloop
 endfacet
 facet normal -0.32633928458316386 -0.096782017675509854 -0.94028501657338237
  outer loop
   vertex 0.0060000000521540642 -0.08357500284910202 -0.020452000200748444
   vertex 0.015557999722659588 -0.16940400004386902 -0.014934999868273735
   vertex 0.0060000000521540642 -0.13418300449848175 -0.015243000350892544
  endloop
 endfacet
 facet normal -0.57002395170504971 -0.039882215290485287 -0.82065955388704426
  outer loop
   vertex -0.010049000382423401 -0.16974599659442902 -0.0078410003334283829
   vertex -0.0013940000208094716 -0.20223100483417511 -0.012273999862372875
   vertex -0.0050880000926554203 -0.27028301358222961 -0.0064010000787675381
  endloop
 endfacet
 facet normal 0.060532965275244842 -0.050073555416443892 -0.9969094237506948
  outer loop
   vertex -0.0046410001814365387 -0.12666000425815582 -0.016266999766230583
   vertex 0.0060000000521540642 -0.13418300449848175 -0.015243000350892544
   vertex -0.0013940000208094716 -0.20223100483417511 -0.012273999862372875
  endloop
 endfacet
 facet normal 0.36010218170196723 0.0020619580613967315 0.93291058899684298
  outer loop
   vertex 0.014836999587714672 -0.25455000996589661 0.0076879998669028282
   vertex 0.0060000000521540642 -0.36808100342750549 0.011350000277161598
   vertex 0.014926999807357788 -0.32003599405288696 0.0077979997731745243
  endloop
 endfacet
 facet normal 0.98715175458952009 -0.071296885036067376 0.14299708946333778
  outer loop
   vertex 0.024091999977827072 -0.20462499558925629 0.0020719999447464943
   vertex 0.014926999807357788 -0.32003599405288696 0.0077979997731745243
   vertex 0.019423000514507294 -0.27199000120162964 0.00071599998045712709
  endloop
 endfacet
 facet normal 0.12380686407429541 -0.072522138910463094 -0.98965266622989523
  outer loop
   vertex 0.0060000000521540642 -0.30447599291801453 0.0066889999434351921
   vertex 0.0060000000521540642 -0.36808100342750549 0.011350000277161598
   vertex -0.0039189998060464859 -0.35320499539375305 0.009019000455737114
  endloop
 endfacet
 facet normal 0.99760675197128257 -0.069143101039133195 0
  outer loop
   vertex 0.024091999977827072 -0.20462499558925629 -0.0084330001845955849
   vertex 0.019423000514507294 -0.27199000120162964 0.00071599998045712709
   vertex 0.019423000514507294 -0.27199000120162964 -0.0070779998786747456
  endloop
 endfacet
 facet normal 0.6538245972287372 -0.07788180418543611 -0.75262727869477397
  outer loop
   vertex -0.00067300000227987766 -0.2873769998550415 0.0050269998610019684
   vertex -0.0039189998060464859 -0.35320499539375305 0.009019000455737114
   vertex -0.010631999932229519 -0.33833000063896179 0.0016479999758303165
  endloop
 endfacet
 facet normal 0.64646476805270636 -0.034019269237185172 -0.76218501230811964
  outer loop
   vertex 0.015557999722659588 -0.16940400004386902 -0.014934999868273735
   vertex 0.019423000514507294 -0.27199000120162964 -0.0070779998786747456
   vertex 0.013753999955952168 -0.25335600972175598 -0.012718000449240208
  endloop
 endfacet
 facet normal 0.99669749807503405 -0.081204047503602356 0
  outer loop
   vertex -0.0050880000926554203 -0.27028301358222961 3.9999998989515007e-05
   vertex -0.010631999932229519 -0.33833000063896179 0.0016479999758303165
   vertex -0.010631999932229519 -0.33833000063896179 -0.0080089997500181198
  endloop
 endfacet
 facet normal 0.15613976672295102 -0.010767327518582446 -0.98767628193948742
  outer loop
   vertex 0.0060000000521540642 -0.13418300449848175 -0.015243000350892544
   vertex 0.013753999955952168 -0.25335600972175598 -0.012718000449240208
   vertex 0.0060000000521540642 -0.23471799492835999 -0.014147000387310982
  endloop
 endfacet
 facet normal 0.8869587573774651 -0.082999425470094632 0.45432945984500844
  outer loop
   vertex -0.0050880000926554203 -0.27028301358222961 -0.0064010000787675381
   vertex -0.010631999932229519 -0.33833000063896179 -0.0080089997500181198
   vertex -0.0027469999622553587 -0.28652301430702209 -0.013938000425696373
  endloop
 endfacet
 facet normal -0.15371672316495658 0.021968821803297692 -0.9878707101073515
  outer loop
   vertex -0.0013940000208094716 -0.20223100483417511 -0.012273999862372875
   vertex 0.0060000000521540642 -0.23471799492835999 -0.014147000387310982
   vertex -0.0027469999622553587 -0.28652301430702209 -0.013938000425696373
  endloop
 endfacet
 facet normal -0.37895058147245558 -0.12344990425968154 -0.91714588694490862
  outer loop
   vertex 0.014926999807357788 -0.32003599405288696 0.0077979997731745243
   vertex 0.018624000251293182 -0.36517301201820374 0.012346000410616398
   vertex 0.0060000000521540642 -0.39030599594116211 0.020944999530911446
  endloop
 endfacet
 facet normal 0.95946793685582366 0.026786931051553151 0.28054186580699236
  outer loop
   vertex 0.019423000514507294 -0.27199000120162964 0.00071599998045712709
   vertex 0.018624000251293182 -0.36517301201820374 0.012346000410616398
   vertex 0.021174000576138496 -0.34003901481628418 0.0012250000145286322
  endloop
 endfacet
 facet normal 0.26608484316192332 -0.38207196376375885 -0.88499710211118754
  outer loop
   vertex 0.0060000000521540642 -0.36808100342750549 0.011350000277161598
   vertex 0.0060000000521540642 -0.39030599594116211 0.020944999530911446
   vertex -0.0072559998370707035 -0.38141500949859619 0.013120999559760094
  endloop
 endfacet
 facet normal 0.99966911044259188 0.025722939702080123 0
  outer loop
   vertex 0.019423000514507294 -0.27199000120162964 -0.0070779998786747456
   vertex 0.021174000576138496 -0.34003901481628418 0.0012250000145286322
   vertex 0.021174000576138496 -0.34003901481628418 -0.0075860000215470791
  endloop
 endfacet
 facet normal 0.88144638827867894 -0.1684265595640502 -0.44123095836975207
  outer loop
   vertex -0.0039189998060464859 -0.35320499539375305 0.009019000455737114
   vertex -0.0072559998370707035 -0.38141500949859619 0.013120999559760094
   vertex -0.011215999722480774 -0.37252599000930786 0.001816999982111156
  endloop
 endfacet
 facet normal 0.70931671328041834 0.018999680661574238 -0.70463381439994999
  outer loop
   vertex 0.013753999955952168 -0.25335600972175598 -0.012718000449240208
   vertex 0.021174000576138496 -0.34003901481628418 -0.0075860000215470791
   vertex 0.014565999619662762 -0.32071998715400696 -0.013717000372707844
  endloop
 endfacet
 facet normal -0.99985420250806978 0.017075530063560763 0
  outer loop
   vertex -0.010631999932229519 -0.33833000063896179 0.0016479999758303165
   vertex -0.011215999722480774 -0.37252599000930786 -0.0081780003383755684
   vertex -0.011215999722480774 -0.37252599000930786 0.001816999982111156
  endloop
 endfacet
 facet normal 0.17152125591560302 0.01215850522552819 -0.98510539005723396
  outer loop
   vertex 0.0060000000521540642 -0.23471799492835999 -0.014147000387310982
   vertex 0.014565999619662762 -0.32071998715400696 -0.013717000372707844
   vertex 0.0060000000521540642 -0.30139899253845215 -0.014969999901950359
  endloop
 endfacet
 facet normal -0.65874318661827402 0.0149675836697418 -0.75221897445031993
  outer loop
   vertex -0.010631999932229519 -0.33833000063896179 -0.0080089997500181198
   vertex -0.0031979999039322138 -0.3369629979133606 -0.014492000453174114
   vertex -0.011215999722480774 -0.37252599000930786 -0.0081780003383755684
  endloop
 endfacet
 facet normal -0.097345073935177384 0.011800812166498031 -0.9951807260054657
  outer loop
   vertex -0.0027469999622553587 -0.28652301430702209 -0.013938000425696373
   vertex 0.0060000000521540642 -0.30139899253845215 -0.014969999901950359
   vertex -0.0031979999039322138 -0.3369629979133606 -0.014492000453174114
  endloop
 endfacet
 facet normal -0.4302351018598044 -0.11158466989446354 -0.89579384825540487
  outer loop
   vertex 0.018624000251293182 -0.36517301201820374 0.012346000410616398
   vertex 0.020879000425338745 -0.39612099528312683 0.015118000097572803
   vertex 0.0060000000521540642 -0.40535199642181396 0.023414000868797302
  endloop
 endfacet
 facet normal -0.8970318042901102 -0.10182293997102806 -0.43007677336457739
  outer loop
   vertex 0.021174000576138496 -0.34003901481628418 0.0012250000145286322
   vertex 0.025841999799013138 -0.38688600063323975 0.0025800000876188278
   vertex 0.020879000425338745 -0.39612099528312683 0.015118000097572803
  endloop
 endfacet
 facet normal 0.25132220714269365 -0.1567336887803949 -0.95512915304591939
  outer loop
   vertex 0.0060000000521540642 -0.39030599594116211 0.020944999530911446
   vertex 0.0060000000521540642 -0.40535199642181396 0.023414000868797302
   vertex -0.0119439996778965 -0.40654999017715454 0.01888900063931942
  endloop
 endfacet
 facet normal -0.99507224797998794 -0.099152515349098927 0
  outer loop
   vertex 0.021174000576138496 -0.34003901481628418 -0.0075860000215470791
   vertex 0.025841999799013138 -0.38688600063323975 -0.0089419996365904808
   vertex 0.025841999799013138 -0.38688600063323975 0.0025800000876188278
  endloop
 endfacet
 facet normal 0.73303532277937455 -0.27906907376719298 -0.62030610800189534
  outer loop
   vertex -0.0072559998370707035 -0.38141500949859619 0.013120999559760094
   vertex -0.0119439996778965 -0.40654999017715454 0.01888900063931942
   vertex -0.023763999342918396 -0.40774598717689514 0.0054589998908340931
  endloop
 endfacet
 facet normal -0.77448486795428173 -0.08676676090000357 0.62661369160971947
  outer loop
   vertex 0.014565999619662762 -0.32071998715400696 -0.013717000372707844
   vertex 0.017812000587582588 -0.37850901484489441 -0.017706999555230141
   vertex 0.025841999799013138 -0.38688600063323975 -0.0089419996365904808
  endloop
 endfacet
 facet normal 0.94200061727206796 -0.33561113965278749 0
  outer loop
   vertex -0.011215999722480774 -0.37252599000930786 0.001816999982111156
   vertex -0.023763999342918396 -0.40774598717689514 0.0054589998908340931
   vertex -0.023763999342918396 -0.40774598717689514 -0.011820999905467033
  endloop
 endfacet
 facet normal -0.27679349435542339 -0.076400218125790648 0.95788745067092607
  outer loop
   vertex 0.0060000000521540642 -0.30139899253845215 -0.014969999901950359
   vertex 0.0060000000521540642 -0.3701309859752655 -0.020452000200748444
   vertex 0.017812000587582588 -0.37850901484489441 -0.017706999555230141
  endloop
 endfacet
 facet normal 0.77110033626799113 -0.33098474544777379 0.54392404772014213
  outer loop
   vertex -0.011215999722480774 -0.37252599000930786 -0.0081780003383755684
   vertex -0.023763999342918396 -0.40774598717689514 -0.011820999905467033
   vertex -0.0088790003210306168 -0.38893800973892212 -0.021477999165654182
  endloop
 endfacet
 facet normal 0.11510080918276414 -0.14467455216115024 0.98276196389687553
  outer loop
   vertex -0.0031979999039322138 -0.3369629979133606 -0.014492000453174114
   vertex -0.0088790003210306168 -0.38893800973892212 -0.021477999165654182
   vertex 0.0060000000521540642 -0.3701309859752655 -0.020452000200748444
  endloop
 endfacet
 facet normal 0.16481030566309166 -0.011557290238202589 0.98625756888836513
  outer loop
   vertex 0.020879000425338745 -0.39612099528312683 0.015118000097572803
   vertex 0.0060000000521540642 -0.41526898741722107 0.017379999160766602
   vertex 0.020788000896573067 -0.40689098834991455 0.015007000416517258
  endloop
 endfacet
 facet normal -0.47745836407658282 -0.37344134394454787 -0.79534588274926221
  outer loop
   vertex 0.025841999799013138 -0.38688600063323975 0.0025800000876188278
   vertex 0.031970001757144928 -0.39851400256156921 0.0043609999120235443
   vertex 0.020788000896573067 -0.40689098834991455 0.015007000416517258
  endloop
 endfacet
 facet normal -0.15512059329544334 -0.51350252183267964 0.84395068671525375
  outer loop
   vertex 0.0060000000521540642 -0.40535199642181396 0.023414000868797302
   vertex -0.0090579995885491371 -0.41407299041748047 0.01534000039100647
   vertex 0.0060000000521540642 -0.41526898741722107 0.017379999160766602
  endloop
 endfacet
 facet normal -0.88466721246139512 -0.46622304018118288 0
  outer loop
   vertex 0.025841999799013138 -0.38688600063323975 -0.0089419996365904808
   vertex 0.031970001757144928 -0.39851400256156921 -0.010722000151872635
   vertex 0.031970001757144928 -0.39851400256156921 0.0043609999120235443
  endloop
 endfacet
 facet normal -0.60399387150147887 -0.51760466568760766 0.60603367336070912
  outer loop
   vertex -0.0119439996778965 -0.40654999017715454 0.01888900063931942
   vertex -0.02084599994122982 -0.41287600994110107 0.0046140002086758614
   vertex -0.0090579995885491371 -0.41407299041748047 0.01534000039100647
  endloop
 endfacet
 facet normal -0.7927761546027059 -0.40070004677455717 0.45928797198295346
  outer loop
   vertex 0.017812000587582588 -0.37850901484489441 -0.017706999555230141
   vertex 0.022050999104976654 -0.39287099242210388 -0.022919999435544014
   vertex 0.031970001757144928 -0.39851400256156921 -0.010722000151872635
  endloop
 endfacet
 facet normal -0.86922257322068175 -0.49442099288320746 0
  outer loop
   vertex -0.023763999342918396 -0.40774598717689514 0.0054589998908340931
   vertex -0.02084599994122982 -0.41287600994110107 -0.010974000208079815
   vertex -0.02084599994122982 -0.41287600994110107 0.0046140002086758614
  endloop
 endfacet
 facet normal -0.37396897483482988 -0.3568715231653462 0.85603149580762039
  outer loop
   vertex 0.0060000000521540642 -0.3701309859752655 -0.020452000200748444
   vertex 0.0060000000521540642 -0.38722899556159973 -0.027580000460147858
   vertex 0.022050999104976654 -0.39287099242210388 -0.022919999435544014
  endloop
 endfacet
 facet normal -0.45587472841730092 -0.39129415405790219 -0.7994167354956756
  outer loop
   vertex -0.023763999342918396 -0.40774598717689514 -0.011820999905467033
   vertex -0.010320999659597874 -0.40005201101303101 -0.023252999410033226
   vertex -0.02084599994122982 -0.41287600994110107 -0.010974000208079815
  endloop
 endfacet
 facet normal 0.39123232786529966 -0.19442197636771127 0.8995206283006365
  outer loop
   vertex -0.0088790003210306168 -0.38893800973892212 -0.021477999165654182
   vertex -0.010320999659597874 -0.40005201101303101 -0.023252999410033226
   vertex 0.0060000000521540642 -0.38722899556159973 -0.027580000460147858
  endloop
 endfacet
 facet normal -0.17029234463123644 -0.89806720009537344 -0.4055561878123089
  outer loop
   vertex 0.020788000896573067 -0.40689098834991455 0.015007000416517258
   vertex 0.0060000000521540642 -0.40330201387405396 0.013268999755382538
   vertex 0.018262999132275581 -0.40501001477241516 0.011901999823749065
  endloop
 endfacet
 facet normal 0.57549250041915156 -0.36443780228829176 0.73211574919857658
  outer loop
   vertex 0.031970001757144928 -0.39851400256156921 0.0043609999120235443
   vertex 0.018262999132275581 -0.40501001477241516 0.011901999823749065
   vertex 0.028176000341773033 -0.40671899914741516 0.003258999902755022
  endloop
 endfacet
 facet normal 0.45867124000526505 -0.28870154730135977 -0.84039997035806302
  outer loop
   vertex 0.0060000000521540642 -0.41526898741722107 0.017379999160766602
   vertex -0.0041899997740983963 -0.40808901190757751 0.009352000430226326
   vertex 0.0060000000521540642 -0.40330201387405396 0.013268999755382538
  endloop
 endfacet
 facet normal 0.90766115642697864 -0.41970373492934254 0
  outer loop
   vertex 0.031970001757144928 -0.39851400256156921 -0.010722000151872635
   vertex 0.028176000341773033 -0.40671899914741516 0.003258999902755022
   vertex 0.028176000341773033 -0.40671899914741516 -0.0096199996769428253
  endloop
 endfacet
 facet normal 0.73317495990339454 -0.6754419658199996 -0.078947001082184262
  outer loop
   vertex -0.0090579995885491371 -0.41407299041748047 0.01534000039100647
   vertex -0.0094659999012947083 -0.41287600994110107 0.0013099999632686377
   vertex -0.0041899997740983963 -0.40808901190757751 0.009352000430226326
  endloop
 endfacet
 facet normal 0.66790416947816356 -0.34028849181267401 -0.66189709376423489
  outer loop
   vertex 0.022050999104976654 -0.39287099242210388 -0.022919999435544014
   vertex 0.028176000341773033 -0.40671899914741516 -0.0096199996769428253
   vertex 0.019616000354290009 -0.40347200632095337 -0.019927000626921654
  endloop
 endfacet
 facet normal 0 -1 0
  outer loop
   vertex -0.02084599994122982 -0.41287600994110107 0.0046140002086758614
   vertex -0.0094659999012947083 -0.41287600994110107 -0.0076709999702870846
   vertex -0.0094659999012947083 -0.41287600994110107 0.0013099999632686377
  endloop
 endfacet
 facet normal 0.19716772624026307 -0.27770859139871101 -0.94021424472967252
  outer loop
   vertex 0.0060000000521540642 -0.38722899556159973 -0.027580000460147858
   vertex 0.019616000354290009 -0.40347200632095337 -0.019927000626921654
   vertex 0.0060000000521540642 -0.40022298693656921 -0.023741999641060829
  endloop
 endfacet
 facet normal 0.14471389081514519 -0.85467276838871531 -0.49859036169977422
  outer loop
   vertex -0.02084599994122982 -0.41287600994110107 -0.010974000208079815
   vertex -0.0055419998243451118 -0.40654999017715454 -0.017376000061631203
   vertex -0.0094659999012947083 -0.41287600994110107 -0.0076709999702870846
  endloop
 endfacet
 facet normal -0.02903678894331348 -0.68215957146603756 -0.73062656942184478
  outer loop
   vertex -0.010320999659597874 -0.40005201101303101 -0.023252999410033226
   vertex 0.0060000000521540642 -0.40022298693656921 -0.023741999641060829
   vertex -0.0055419998243451118 -0.40654999017715454 -0.017376000061631203
  endloop
 endfacet
 facet normal -0.38866334784577061 -0.87390766685326704 0.29193525284966337
  outer loop
   vertex 0.018262999132275581 -0.40501001477241516 0.011901999823749065
   vertex 0.0060000000521540642 -0.40056499838829041 0.0088820001110434532
   vertex 0.013213999569416046 -0.40483900904655457 0.0056920000351965427
  endloop
 endfacet
 facet normal -0.005549562321876784 -0.80750478018830785 0.58983491955891187
  outer loop
   vertex 0.028176000341773033 -0.40671899914741516 0.003258999902755022
   vertex 0.013213999569416046 -0.40483900904655457 0.0056920000351965427
   vertex 0.016504999250173569 -0.40911498665809631 -0.00013099999341648072
  endloop
 endfacet
 facet normal 0.78891172790971698 -0.5213598819695523 -0.32527243817944251
  outer loop
   vertex 0.0060000000521540642 -0.40330201387405396 0.013268999755382538
   vertex -0.0015739999944344163 -0.4103119969367981 0.0061349999159574509
   vertex 0.0060000000521540642 -0.40056499838829041 0.0088820001110434532
  endloop
 endfacet
 facet normal 0.20110007273972405 -0.97957070226915099 0
  outer loop
   vertex 0.028176000341773033 -0.40671899914741516 -0.0096199996769428253
   vertex 0.016504999250173569 -0.40911498665809631 -0.00013099999341648072
   vertex 0.016504999250173569 -0.40911498665809631 -0.0062299999408423901
  endloop
 endfacet
 facet normal 0.37475454325324115 -0.59179427848155042 0.71367959496370337
  outer loop
   vertex -0.0041899997740983963 -0.40808901190757751 0.009352000430226326
   vertex -0.0056719998829066753 -0.42005598545074463 0.00020700000459328294
   vertex -0.0015739999944344163 -0.4103119969367981 0.0061349999159574509
  endloop
 endfacet
 facet normal 0.49602318874786061 -0.83672580949111919 -0.23205800127518902
  outer loop
   vertex 0.019616000354290009 -0.40347200632095337 -0.019927000626921654
   vertex 0.016504999250173569 -0.40911498665809631 -0.0062299999408423901
   vertex 0.01357400044798851 -0.40911498665809631 -0.012494999915361404
  endloop
 endfacet
 facet normal -0.88415241712096559 -0.46719856945324012 0
  outer loop
   vertex -0.0094659999012947083 -0.41287600994110107 0.0013099999632686377
   vertex -0.0056719998829066753 -0.42005598545074463 -0.0065689999610185623
   vertex -0.0056719998829066753 -0.42005598545074463 0.00020700000459328294
  endloop
 endfacet
 facet normal 0.36338010819680056 -0.59608928979894205 -0.7159835581588968
  outer loop
   vertex 0.0060000000521540642 -0.40022298693656921 -0.023741999641060829
   vertex 0.01357400044798851 -0.40911498665809631 -0.012494999915361404
   vertex 0.0060000000521540642 -0.40911498665809631 -0.016339000314474106
  endloop
 endfacet
 facet normal -0.58283442833406551 -0.41518768067197953 -0.69851500983638515
  outer loop
   vertex -0.0094659999012947083 -0.41287600994110107 -0.0076709999702870846
   vertex -0.001934999949298799 -0.41458499431610107 -0.012938999570906162
   vertex -0.0056719998829066753 -0.42005598545074463 -0.0065689999610185623
  endloop
 endfacet
 facet normal -0.03172678394425011 -0.4940360022709735 -0.86886238245229019
  outer loop
   vertex -0.0055419998243451118 -0.40654999017715454 -0.017376000061631203
   vertex 0.0060000000521540642 -0.40911498665809631 -0.016339000314474106
   vertex -0.001934999949298799 -0.41458499431610107 -0.012938999570906162
  endloop
 endfacet
 facet normal -0.40992936800488233 -0.87755023186663761 0.24872374996756608
  outer loop
   vertex 0.013213999569416046 -0.40483900904655457 0.0056920000351965427
   vertex 0.0060000000521540642 -0.40056499838829041 0.0088820001110434532
   vertex 0.0060000000521540642 -0.40398401021957397 -0.0031810000073164701
  endloop
 endfacet
 facet normal -0.48915866808189229 -0.81156964657034703 0.31949727104629705
  outer loop
   vertex 0.016504999250173569 -0.40911498665809631 -0.00013099999341648072
   vertex 0.013213999569416046 -0.40483900904655457 0.0056920000351965427
   vertex 0.0060000000521540642 -0.40398401021957397 -0.0031810000073164701
  endloop
 endfacet
 facet normal 0.75153847809952401 -0.63468863041325863 0.17988957268278039
  outer loop
   vertex 0.0060000000521540642 -0.40056499838829041 0.0088820001110434532
   vertex -0.0015739999944344163 -0.4103119969367981 0.0061349999159574509
   vertex 0.0060000000521540642 -0.40398401021957397 -0.0031810000073164701
  endloop
 endfacet
 facet normal -0.43887866911701523 -0.89854633369352599 -0
  outer loop
   vertex 0.016504999250173569 -0.40911498665809631 -0.0062299999408423901
   vertex 0.016504999250173569 -0.40911498665809631 -0.00013099999341648072
   vertex 0.0060000000521540642 -0.40398401021957397 -0.0031810000073164701
  endloop
 endfacet
 facet normal 0.80100404519125168 -0.518710128009233 0.29888513293219582
  outer loop
   vertex -0.0015739999944344163 -0.4103119969367981 0.0061349999159574509
   vertex -0.0056719998829066753 -0.42005598545074463 0.00020700000459328294
   vertex 0.0060000000521540642 -0.40398401021957397 -0.0031810000073164701
  endloop
 endfacet
 facet normal -0.38847825041442974 -0.90335684297292951 0.1817444998037781
  outer loop
   vertex 0.01357400044798851 -0.40911498665809631 -0.012494999915361404
   vertex 0.016504999250173569 -0.40911498665809631 -0.0062299999408423901
   vertex 0.0060000000521540642 -0.40398401021957397 -0.0031810000073164701
  endloop
 endfacet
 facet normal 0.80913604649529347 -0.58762135619969269 0
  outer loop
   vertex -0.0056719998829066753 -0.42005598545074463 0.00020700000459328294
   vertex -0.0056719998829066753 -0.42005598545074463 -0.0065689999610185623
   vertex 0.0060000000521540642 -0.40398401021957397 -0.0031810000073164701
  endloop
 endfacet
 facet normal -0.18133029274478707 -0.91622499198020035 0.35728292571010395
  outer loop
   vertex 0.0060000000521540642 -0.40911498665809631 -0.016339000314474106
   vertex 0.01357400044798851 -0.40911498665809631 -0.012494999915361404
   vertex 0.0060000000521540642 -0.40398401021957397 -0.0031810000073164701
  endloop
 endfacet
 facet normal 0.81141928066702573 -0.58390897001878783 -0.025476767718934777
  outer loop
   vertex -0.0056719998829066753 -0.42005598545074463 -0.0065689999610185623
   vertex -0.001934999949298799 -0.41458499431610107 -0.012938999570906162
   vertex 0.0060000000521540642 -0.40398401021957397 -0.0031810000073164701
  endloop
 endfacet
 facet normal 0.62370235292737275 -0.72825095795695094 0.28398224801498112
  outer loop
   vertex -0.001934999949298799 -0.41458499431610107 -0.012938999570906162
   vertex 0.0060000000521540642 -0.40911498665809631 -0.016339000314474106
   vertex 0.0060000000521540642 -0.40398401021957397 -0.0031810000073164701
  endloop
 endfacet
endsolid
