solid Visualization Toolkit generated SLA File
 facet normal -0.58928645912118227 -0.63724717105492767 0.49664626453735766
  outer loop
   vertex 0.14802299439907074 -0.0037000000011175871 -0.029025999829173088
   vertex 0.14833000302314758 -0.0022279999684542418 -0.026773000136017799
   vertex 0.1447950005531311 2.7000000045518391e-05 -0.028074000030755997
  endloop
 endfacet
 facet normal -0.57303522701440712 -0.76154241437522663 0.30279329534865451
  outer loop
   vertex 0.1447950005531311 2.7000000045518391e-05 -0.028074000030755997
   vertex 0.14162899553775787 0.0030590000096708536 -0.026440000161528587
   vertex 0.14148500561714172 0.0028929999098181725 -0.027130000293254852
  endloop
 endfacet
 facet normal -0.68267227315548318 -0.44278921201324278 -0.58128846641699083
  outer loop
   vertex 0.14802299439907074 -0.0037000000011175871 -0.029025999829173088
   vertex 0.1447950005531311 2.7000000045518391e-05 -0.028074000030755997
   vertex 0.14868399500846863 -0.0025530001148581505 -0.030675999820232391
  endloop
 endfacet
 facet normal -0.67926350760149978 -0.44730551941415103 0.58182373580195557
  outer loop
   vertex 0.1447950005531311 2.7000000045518391e-05 -0.028074000030755997
   vertex 0.14838999509811401 -0.0023300000466406345 -0.025689000263810158
   vertex 0.14683100581169128 0.0001610000035725534 -0.025593999773263931
  endloop
 endfacet
 facet normal -0.52368222187346058 -0.85038362759388986 -0.051035442722993589
  outer loop
   vertex 0.14838999509811401 -0.0023300000466406345 -0.025689000263810158
   vertex 0.1447950005531311 2.7000000045518391e-05 -0.028074000030755997
   vertex 0.14833000302314758 -0.0022279999684542418 -0.026773000136017799
  endloop
 endfacet
 facet normal -0.49021272458583609 -0.75062350911665177 0.44300771123710159
  outer loop
   vertex 0.14162899553775787 0.0030590000096708536 -0.026440000161528587
   vertex 0.1447950005531311 2.7000000045518391e-05 -0.028074000030755997
   vertex 0.14683100581169128 0.0001610000035725534 -0.025593999773263931
  endloop
 endfacet
 facet normal -0.53958040893889869 0.035034707597406158 -0.84120482140373831
  outer loop
   vertex 0.14868399500846863 -0.0025530001148581505 -0.030675999820232391
   vertex 0.1447950005531311 2.7000000045518391e-05 -0.028074000030755997
   vertex 0.15126100182533264 0.00030399998649954796 -0.032209999859333038
  endloop
 endfacet
 facet normal -0.50194725424434161 -0.31430517064720132 -0.80576746872841665
  outer loop
   vertex 0.1447950005531311 2.7000000045518391e-05 -0.028074000030755997
   vertex 0.14148500561714172 0.0028929999098181725 -0.027130000293254852
   vertex 0.15126100182533264 0.00030399998649954796 -0.032209999859333038
  endloop
 endfacet
 facet normal -0.58134687096308413 -0.81245034589936149 -0.044274722691836466
  outer loop
   vertex 0.15096700191497803 -0.0040040002204477787 -0.028807999566197395
   vertex 0.14838999509811401 -0.0023300000466406345 -0.025689000263810158
   vertex 0.14833000302314758 -0.0022279999684542418 -0.026773000136017799
  endloop
 endfacet
 facet normal -0.126001547979436 -0.82253813713555424 0.55457607491160132
  outer loop
   vertex 0.14833000302314758 -0.0022279999684542418 -0.026773000136017799
   vertex 0.14802299439907074 -0.0037000000011175871 -0.029025999829173088
   vertex 0.15096700191497803 -0.0040040002204477787 -0.028807999566197395
  endloop
 endfacet
 facet normal -0.040871790847025927 -0.81266370616913752 -0.58129785599845329
  outer loop
   vertex 0.14802299439907074 -0.0037000000011175871 -0.029025999829173088
   vertex 0.14868399500846863 -0.0025530001148581505 -0.030675999820232391
   vertex 0.15096700191497803 -0.0040040002204477787 -0.028807999566197395
  endloop
 endfacet
 facet normal -0.324339752432388 -0.90207897883900312 0.28470553371664326
  outer loop
   vertex 0.13592299818992615 0.0055660000070929527 -0.024996999651193619
   vertex 0.14148500561714172 0.0028929999098181725 -0.027130000293254852
   vertex 0.14162899553775787 0.0030590000096708536 -0.026440000161528587
  endloop
 endfacet
 facet normal -0.5022287725508201 -0.46147747925042393 -0.73130349114903814
  outer loop
   vertex 0.14148500561714172 0.0028929999098181725 -0.027130000293254852
   vertex 0.13592299818992615 0.0055660000070929527 -0.024996999651193619
   vertex 0.15126100182533264 0.00030399998649954796 -0.032209999859333038
  endloop
 endfacet
 facet normal -0.168249907312948 -0.014280586919502106 0.9856409252493622
  outer loop
   vertex 0.14683100581169128 0.0001610000035725534 -0.025593999773263931
   vertex 0.14872699975967407 0.002807999961078167 -0.025232000276446342
   vertex 0.14162899553775787 0.0030590000096708536 -0.026440000161528587
  endloop
 endfacet
 facet normal 0.21951161514148393 -0.33174632492951805 0.91747426487816841
  outer loop
   vertex 0.13323800265789032 0.01027000043541193 -0.021825000643730164
   vertex 0.14162899553775787 0.0030590000096708536 -0.026440000161528587
   vertex 0.14190299808979034 0.010015999898314476 -0.023989999666810036
  endloop
 endfacet
 facet normal -0.047215534594327355 -0.57684805549697338 0.81548575350053343
  outer loop
   vertex 0.14162899553775787 0.0030590000096708536 -0.026440000161528587
   vertex 0.13323800265789032 0.01027000043541193 -0.021825000643730164
   vertex 0.13592299818992615 0.0055660000070929527 -0.024996999651193619
  endloop
 endfacet
 facet normal -0.16990947435527237 -0.32137755878246477 0.93158318750143743
  outer loop
   vertex 0.14872699975967407 0.002807999961078167 -0.025232000276446342
   vertex 0.14190299808979034 0.010015999898314476 -0.023989999666810036
   vertex 0.14162899553775787 0.0030590000096708536 -0.026440000161528587
  endloop
 endfacet
 facet normal -0.024934260005801231 -0.45535356128679627 -0.88996146933527132
  outer loop
   vertex 0.15126100182533264 0.00030399998649954796 -0.032209999859333038
   vertex 0.15330299735069275 -0.00057199998991563916 -0.031819000840187073
   vertex 0.14868399500846863 -0.0025530001148581505 -0.030675999820232391
  endloop
 endfacet
 facet normal 0.12751291407984705 -0.7017393457950708 -0.70092963078041703
  outer loop
   vertex 0.15096700191497803 -0.0040040002204477787 -0.028807999566197395
   vertex 0.14868399500846863 -0.0025530001148581505 -0.030675999820232391
   vertex 0.15330299735069275 -0.00057199998991563916 -0.031819000840187073
  endloop
 endfacet
 facet normal -0.073026799343626311 -0.083605513411277324 0.99381950308135047
  outer loop
   vertex 0.14838999509811401 -0.0023300000466406345 -0.025689000263810158
   vertex 0.14872699975967407 0.002807999961078167 -0.025232000276446342
   vertex 0.14683100581169128 0.0001610000035725534 -0.025593999773263931
  endloop
 endfacet
 facet normal -0.096300353059571409 -0.081915006301477813 0.99197589373090655
  outer loop
   vertex 0.14872699975967407 0.002807999961078167 -0.025232000276446342
   vertex 0.14838999509811401 -0.0023300000466406345 -0.025689000263810158
   vertex 0.15252399444580078 0.00019700000120792538 -0.025079000741243362
  endloop
 endfacet
 facet normal 0.1651392153648541 -0.47835731582097807 0.86249830025874796
  outer loop
   vertex 0.15252399444580078 0.00019700000120792538 -0.025079000741243362
   vertex 0.14838999509811401 -0.0023300000466406345 -0.025689000263810158
   vertex 0.15263399481773376 -0.0030700000934302807 -0.02691200003027916
  endloop
 endfacet
 facet normal -0.022976614748653756 -0.88866861580451184 0.45797398011108092
  outer loop
   vertex 0.15263399481773376 -0.0030700000934302807 -0.02691200003027916
   vertex 0.14838999509811401 -0.0023300000466406345 -0.025689000263810158
   vertex 0.15096700191497803 -0.0040040002204477787 -0.028807999566197395
  endloop
 endfacet
 facet normal -0.3801906533643053 -0.036721529092051085 -0.92417887683909128
  outer loop
   vertex 0.13792699575424194 0.0064289998263120651 -0.026968000456690788
   vertex 0.1425199955701828 0.0076250000856816769 -0.028905000537633896
   vertex 0.15126100182533264 0.00030399998649954796 -0.032209999859333038
  endloop
 endfacet
 facet normal -0.35163563362565686 0.0027686335483443681 -0.93613285159370296
  outer loop
   vertex 0.14705699682235718 0.0083739999681711197 -0.03060699999332428
   vertex 0.15126100182533264 0.00030399998649954796 -0.032209999859333038
   vertex 0.1425199955701828 0.0076250000856816769 -0.028905000537633896
  endloop
 endfacet
 facet normal 0.16918109492453717 -0.04508260249931087 -0.98455335867185167
  outer loop
   vertex 0.15330299735069275 -0.00057199998991563916 -0.031819000840187073
   vertex 0.15126100182533264 0.00030399998649954796 -0.032209999859333038
   vertex 0.15449300408363342 0.0016880000475794077 -0.031718000769615173
  endloop
 endfacet
 facet normal -0.046205550487140722 0.17141122534155542 -0.98411546016262075
  outer loop
   vertex 0.15126100182533264 0.00030399998649954796 -0.032209999859333038
   vertex 0.14705699682235718 0.0083739999681711197 -0.03060699999332428
   vertex 0.15400700271129608 0.0041330000385642052 -0.031672000885009766
  endloop
 endfacet
 facet normal -0.50270829519849114 -0.47787486860092526 -0.72036100664755254
  outer loop
   vertex 0.13592299818992615 0.0055660000070929527 -0.024996999651193619
   vertex 0.13792699575424194 0.0064289998263120651 -0.026968000456690788
   vertex 0.15126100182533264 0.00030399998649954796 -0.032209999859333038
  endloop
 endfacet
 facet normal 0.1315724245379897 0.04478437985996301 -0.9902944291581941
  outer loop
   vertex 0.15126100182533264 0.00030399998649954796 -0.032209999859333038
   vertex 0.15400700271129608 0.0041330000385642052 -0.031672000885009766
   vertex 0.15449300408363342 0.0016880000475794077 -0.031718000769615173
  endloop
 endfacet
 facet normal 0.6725985486594882 -0.69725679314529154 -0.24787931893139886
  outer loop
   vertex 0.15464000403881073 -3.0000001061125658e-06 -0.03009600006043911
   vertex 0.15263399481773376 -0.0030700000934302807 -0.02691200003027916
   vertex 0.15096700191497803 -0.0040040002204477787 -0.028807999566197395
  endloop
 endfacet
 facet normal 0.65981878013023687 -0.69650584107441216 -0.2819907635662417
  outer loop
   vertex 0.15464000403881073 -3.0000001061125658e-06 -0.03009600006043911
   vertex 0.15096700191497803 -0.0040040002204477787 -0.028807999566197395
   vertex 0.15330299735069275 -0.00057199998991563916 -0.031819000840187073
  endloop
 endfacet
 facet normal 0.050564074151080607 -0.53836964035866941 0.84119046876752068
  outer loop
   vertex 0.13592299818992615 0.0055660000070929527 -0.024996999651193619
   vertex 0.13323800265789032 0.01027000043541193 -0.021825000643730164
   vertex 0.13011200726032257 0.007728000171482563 -0.023264000192284584
  endloop
 endfacet
 facet normal -0.34209985925657244 -0.68197896739523778 -0.64643048684847659
  outer loop
   vertex 0.13592299818992615 0.0055660000070929527 -0.024996999651193619
   vertex 0.13543599843978882 0.0072340001352131367 -0.026498999446630478
   vertex 0.13792699575424194 0.0064289998263120651 -0.026968000456690788
  endloop
 endfacet
 facet normal -0.33260482881903725 -0.94122209727885775 0.058949058009839204
  outer loop
   vertex 0.13011200726032257 0.007728000171482563 -0.023264000192284584
   vertex 0.1297609955072403 0.0077129998244345188 -0.025483999401330948
   vertex 0.13592299818992615 0.0055660000070929527 -0.024996999651193619
  endloop
 endfacet
 facet normal -0.1837421775072223 -0.68685237211394412 -0.7031874793583518
  outer loop
   vertex 0.13592299818992615 0.0055660000070929527 -0.024996999651193619
   vertex 0.1297609955072403 0.0077129998244345188 -0.025483999401330948
   vertex 0.13543599843978882 0.0072340001352131367 -0.026498999446630478
  endloop
 endfacet
 facet normal 0.086446882392308452 0.18309794791746314 0.97928651476116246
  outer loop
   vertex 0.14872699975967407 0.002807999961078167 -0.025232000276446342
   vertex 0.15252399444580078 0.00019700000120792538 -0.025079000741243362
   vertex 0.15177600085735321 0.0077010001987218857 -0.026415999978780746
  endloop
 endfacet
 facet normal 0.53725951929963267 -0.1332603375627873 0.83282284512048521
  outer loop
   vertex 0.14872699975967407 0.002807999961078167 -0.025232000276446342
   vertex 0.15177600085735321 0.0077010001987218857 -0.026415999978780746
   vertex 0.14955399930477142 0.0087919998914003372 -0.024808000773191452
  endloop
 endfacet
 facet normal 0.092782951816475237 -0.083126362007038171 0.99221032638836026
  outer loop
   vertex 0.14955399930477142 0.0087919998914003372 -0.024808000773191452
   vertex 0.14190299808979034 0.010015999898314476 -0.023989999666810036
   vertex 0.14872699975967407 0.002807999961078167 -0.025232000276446342
  endloop
 endfacet
 facet normal 0.3982853048448905 0.69477183415126309 0.59888305570846001
  outer loop
   vertex 0.14190299808979034 0.010015999898314476 -0.023989999666810036
   vertex 0.14216999709606171 0.011374000459909439 -0.025743000209331512
   vertex 0.13544000685214996 0.012783999554812908 -0.022902999073266983
  endloop
 endfacet
 facet normal 0.18816179797219157 0.76233859550865024 0.61922128805603127
  outer loop
   vertex 0.14190299808979034 0.010015999898314476 -0.023989999666810036
   vertex 0.14955399930477142 0.0087919998914003372 -0.024808000773191452
   vertex 0.14216999709606171 0.011374000459909439 -0.025743000209331512
  endloop
 endfacet
 facet normal 0.24313688639857742 0.19451887815120106 0.95028777773640949
  outer loop
   vertex 0.13323800265789032 0.01027000043541193 -0.021825000643730164
   vertex 0.14190299808979034 0.010015999898314476 -0.023989999666810036
   vertex 0.13544000685214996 0.012783999554812908 -0.022902999073266983
  endloop
 endfacet
 facet normal 0.05451856557398474 -0.5418322138627224 0.83871662558242877
  outer loop
   vertex 0.11320099979639053 0.013667000457644463 -0.018327999860048294
   vertex 0.13011200726032257 0.007728000171482563 -0.023264000192284584
   vertex 0.13323800265789032 0.01027000043541193 -0.021825000643730164
  endloop
 endfacet
 facet normal 0.1046067545565757 -0.34369340432759388 0.93323752106462654
  outer loop
   vertex 0.11058899760246277 0.017727000638842583 -0.016540000215172768
   vertex 0.11320099979639053 0.013667000457644463 -0.018327999860048294
   vertex 0.13323800265789032 0.01027000043541193 -0.021825000643730164
  endloop
 endfacet
 facet normal 0.27531263045963067 0.16496715139977966 0.94709492368423198
  outer loop
   vertex 0.13544000685214996 0.012783999554812908 -0.022902999073266983
   vertex 0.11058899760246277 0.017727000638842583 -0.016540000215172768
   vertex 0.13323800265789032 0.01027000043541193 -0.021825000643730164
  endloop
 endfacet
 facet normal 0.7850217655699061 -0.39191510820181391 -0.47973260838165666
  outer loop
   vertex 0.15330299735069275 -0.00057199998991563916 -0.031819000840187073
   vertex 0.15449300408363342 0.0016880000475794077 -0.031718000769615173
   vertex 0.15464000403881073 -3.0000001061125658e-06 -0.03009600006043911
  endloop
 endfacet
 facet normal 0.26466823535407141 0.19466278224366901 0.94448775873682755
  outer loop
   vertex 0.15177600085735321 0.0077010001987218857 -0.026415999978780746
   vertex 0.15252399444580078 0.00019700000120792538 -0.025079000741243362
   vertex 0.15459699928760529 0.0049959998577833176 -0.026649000123143196
  endloop
 endfacet
 facet normal 0.76221630876967061 -0.12122581334151158 0.63586995590704487
  outer loop
   vertex 0.15459699928760529 0.0049959998577833176 -0.026649000123143196
   vertex 0.15252399444580078 0.00019700000120792538 -0.025079000741243362
   vertex 0.15435299277305603 -0.00070299999788403511 -0.027442999184131622
  endloop
 endfacet
 facet normal 0.67490579070464185 -0.34365024796327598 0.6529982241538802
  outer loop
   vertex 0.15263399481773376 -0.0030700000934302807 -0.02691200003027916
   vertex 0.15435299277305603 -0.00070299999788403511 -0.027442999184131622
   vertex 0.15252399444580078 0.00019700000120792538 -0.025079000741243362
  endloop
 endfacet
 facet normal 0.79946944274291465 -0.5965079571453662 -0.070900403261163536
  outer loop
   vertex 0.15464000403881073 -3.0000001061125658e-06 -0.03009600006043911
   vertex 0.15435299277305603 -0.00070299999788403511 -0.027442999184131622
   vertex 0.15263399481773376 -0.0030700000934302807 -0.02691200003027916
  endloop
 endfacet
 facet normal -0.37898931170916222 0.40567649763237312 -0.83174135455617837
  outer loop
   vertex 0.14705699682235718 0.0083739999681711197 -0.03060699999332428
   vertex 0.1425199955701828 0.0076250000856816769 -0.028905000537633896
   vertex 0.1432500034570694 0.0096129998564720154 -0.028268000110983849
  endloop
 endfacet
 facet normal -0.38638565919225548 -0.0098629103754194741 -0.92228457938398412
  outer loop
   vertex 0.13792699575424194 0.0064289998263120651 -0.026968000456690788
   vertex 0.13887900114059448 0.0099039999768137932 -0.027403999119997025
   vertex 0.1425199955701828 0.0076250000856816769 -0.028905000537633896
  endloop
 endfacet
 facet normal -0.15867059390523333 0.35363902856422069 -0.92182594892198322
  outer loop
   vertex 0.1432500034570694 0.0096129998564720154 -0.028268000110983849
   vertex 0.1425199955701828 0.0076250000856816769 -0.028905000537633896
   vertex 0.13887900114059448 0.0099039999768137932 -0.027403999119997025
  endloop
 endfacet
 facet normal -0.20526538076142364 -0.06627950437500818 -0.97645949775741914
  outer loop
   vertex 0.13543599843978882 0.0072340001352131367 -0.026498999446630478
   vertex 0.13887900114059448 0.0099039999768137932 -0.027403999119997025
   vertex 0.13792699575424194 0.0064289998263120651 -0.026968000456690788
  endloop
 endfacet
 facet normal 0.084501159648249696 0.37073530831600016 -0.92488641745132205
  outer loop
   vertex 0.14705699682235718 0.0083739999681711197 -0.03060699999332428
   vertex 0.15317000448703766 0.0063519999384880066 -0.030858999118208885
   vertex 0.15400700271129608 0.0041330000385642052 -0.031672000885009766
  endloop
 endfacet
 facet normal 0.19178352384454991 0.66927251610768901 -0.71783938256733326
  outer loop
   vertex 0.15317000448703766 0.0063519999384880066 -0.030858999118208885
   vertex 0.14705699682235718 0.0083739999681711197 -0.03060699999332428
   vertex 0.14783300459384918 0.0095760002732276917 -0.029278999194502831
  endloop
 endfacet
 facet normal -0.13100353633474934 0.77189476477379215 -0.62210653877177824
  outer loop
   vertex 0.14783300459384918 0.0095760002732276917 -0.029278999194502831
   vertex 0.14705699682235718 0.0083739999681711197 -0.03060699999332428
   vertex 0.1432500034570694 0.0096129998564720154 -0.028268000110983849
  endloop
 endfacet
 facet normal 0.86395300503783756 0.18057509299188557 -0.47008280214985765
  outer loop
   vertex 0.15400700271129608 0.0041330000385642052 -0.031672000885009766
   vertex 0.1550000011920929 0.0019020000472664833 -0.030703999102115631
   vertex 0.15449300408363342 0.0016880000475794077 -0.031718000769615173
  endloop
 endfacet
 facet normal 0.8796098622031705 -0.28724324379811905 -0.37918044412555579
  outer loop
   vertex 0.15464000403881073 -3.0000001061125658e-06 -0.03009600006043911
   vertex 0.15449300408363342 0.0016880000475794077 -0.031718000769615173
   vertex 0.1550000011920929 0.0019020000472664833 -0.030703999102115631
  endloop
 endfacet
 facet normal 0.89529199329325226 0.23401614372049637 -0.37906291195945729
  outer loop
   vertex 0.15468199551105499 0.0055370000191032887 -0.029210999608039856
   vertex 0.1550000011920929 0.0019020000472664833 -0.030703999102115631
   vertex 0.15400700271129608 0.0041330000385642052 -0.031672000885009766
  endloop
 endfacet
 facet normal 0.75643880634800087 0.45682629919558099 -0.46809194034300705
  outer loop
   vertex 0.15317000448703766 0.0063519999384880066 -0.030858999118208885
   vertex 0.15468199551105499 0.0055370000191032887 -0.029210999608039856
   vertex 0.15400700271129608 0.0041330000385642052 -0.031672000885009766
  endloop
 endfacet
 facet normal 0.98413645577285735 -0.16597376598282979 0.062674918622328352
  outer loop
   vertex 0.15464000403881073 -3.0000001061125658e-06 -0.03009600006043911
   vertex 0.1550000011920929 0.0019020000472664833 -0.030703999102115631
   vertex 0.15435299277305603 -0.00070299999788403511 -0.027442999184131622
  endloop
 endfacet
 facet normal -0.21742984200562268 -0.96079460399852945 -0.17204067173990872
  outer loop
   vertex 0.11599300056695938 0.011033999733626842 -0.023883000016212463
   vertex 0.13011200726032257 0.007728000171482563 -0.023264000192284584
   vertex 0.11190199851989746 0.011392000131309032 -0.020711999386548996
  endloop
 endfacet
 facet normal -0.22955758234103746 -0.97235065811033095 0.042866234522571864
  outer loop
   vertex 0.1297609955072403 0.0077129998244345188 -0.025483999401330948
   vertex 0.13011200726032257 0.007728000171482563 -0.023264000192284584
   vertex 0.11599300056695938 0.011033999733626842 -0.023883000016212463
  endloop
 endfacet
 facet normal -0.044538475399770482 -0.71050149018024367 0.70228481164034662
  outer loop
   vertex 0.13011200726032257 0.007728000171482563 -0.023264000192284584
   vertex 0.11320099979639053 0.013667000457644463 -0.018327999860048294
   vertex 0.11190199851989746 0.011392000131309032 -0.020711999386548996
  endloop
 endfacet
 facet normal -0.25645698698086788 0.003091397321316588 -0.96655070073498817
  outer loop
   vertex 0.12512600421905518 0.017060000449419022 -0.023731999099254608
   vertex 0.13887900114059448 0.0099039999768137932 -0.027403999119997025
   vertex 0.13543599843978882 0.0072340001352131367 -0.026498999446630478
  endloop
 endfacet
 facet normal -0.16688528483474505 0.10108237493433836 -0.98078114540567096
  outer loop
   vertex 0.1297609955072403 0.0077129998244345188 -0.025483999401330948
   vertex 0.12512600421905518 0.017060000449419022 -0.023731999099254608
   vertex 0.13543599843978882 0.0072340001352131367 -0.026498999446630478
  endloop
 endfacet
 facet normal -0.079610921303430823 0.1453699276463277 -0.98616919711848661
  outer loop
   vertex 0.1297609955072403 0.0077129998244345188 -0.025483999401330948
   vertex 0.11599300056695938 0.011033999733626842 -0.023883000016212463
   vertex 0.12512600421905518 0.017060000449419022 -0.023731999099254608
  endloop
 endfacet
 facet normal 0.43510644629526302 0.90032775221336814 -0.0096082769907745464
  outer loop
   vertex 0.15177600085735321 0.0077010001987218857 -0.026415999978780746
   vertex 0.14783300459384918 0.0095760002732276917 -0.029278999194502831
   vertex 0.14955399930477142 0.0087919998914003372 -0.024808000773191452
  endloop
 endfacet
 facet normal 0.29198517958710368 0.93328818635549171 0.20908805826915106
  outer loop
   vertex 0.15177600085735321 0.0077010001987218857 -0.026415999978780746
   vertex 0.15289700031280518 0.0078229997307062149 -0.028526000678539276
   vertex 0.14783300459384918 0.0095760002732276917 -0.029278999194502831
  endloop
 endfacet
 facet normal 0.45840903967615226 0.83937653432727211 0.29207565109732342
  outer loop
   vertex 0.15289700031280518 0.0078229997307062149 -0.028526000678539276
   vertex 0.15177600085735321 0.0077010001987218857 -0.026415999978780746
   vertex 0.15415699779987335 0.0065830000676214695 -0.026939999312162399
  endloop
 endfacet
 facet normal 0.32095046191179027 0.25617483063186869 0.91179233224969691
  outer loop
   vertex 0.15415699779987335 0.0065830000676214695 -0.026939999312162399
   vertex 0.15177600085735321 0.0077010001987218857 -0.026415999978780746
   vertex 0.15459699928760529 0.0049959998577833176 -0.026649000123143196
  endloop
 endfacet
 facet normal 0.32523583179052501 0.94476629371501863 0.040475967925575902
  outer loop
   vertex 0.14783300459384918 0.0095760002732276917 -0.029278999194502831
   vertex 0.14216999709606171 0.011374000459909439 -0.025743000209331512
   vertex 0.14955399930477142 0.0087919998914003372 -0.024808000773191452
  endloop
 endfacet
 facet normal 0.34750552003050478 0.89340616073419621 0.28471976663117732
  outer loop
   vertex 0.13544000685214996 0.012783999554812908 -0.022902999073266983
   vertex 0.12512600421905518 0.017060000449419022 -0.023731999099254608
   vertex 0.1036050021648407 0.023688999935984612 -0.018265999853610992
  endloop
 endfacet
 facet normal 0.33325208627351444 0.87290947066948898 0.35633145105345732
  outer loop
   vertex 0.12512600421905518 0.017060000449419022 -0.023731999099254608
   vertex 0.13544000685214996 0.012783999554812908 -0.022902999073266983
   vertex 0.14216999709606171 0.011374000459909439 -0.025743000209331512
  endloop
 endfacet
 facet normal 0.30841676510019905 0.57964099439542649 0.754251560569423
  outer loop
   vertex 0.1036050021648407 0.023688999935984612 -0.018265999853610992
   vertex 0.11058899760246277 0.017727000638842583 -0.016540000215172768
   vertex 0.13544000685214996 0.012783999554812908 -0.022902999073266983
  endloop
 endfacet
 facet normal 0.11510000564005485 0.61961717531063332 -0.77641905229182206
  outer loop
   vertex 0.12512600421905518 0.017060000449419022 -0.023731999099254608
   vertex 0.14216999709606171 0.011374000459909439 -0.025743000209331512
   vertex 0.13887900114059448 0.0099039999768137932 -0.027403999119997025
  endloop
 endfacet
 facet normal -0.062745563935871093 0.8058147776927278 -0.58883404984629539
  outer loop
   vertex 0.1432500034570694 0.0096129998564720154 -0.028268000110983849
   vertex 0.13887900114059448 0.0099039999768137932 -0.027403999119997025
   vertex 0.14216999709606171 0.011374000459909439 -0.025743000209331512
  endloop
 endfacet
 facet normal -0.12673689419641243 0.78735593250354285 -0.60333108257483603
  outer loop
   vertex 0.14783300459384918 0.0095760002732276917 -0.029278999194502831
   vertex 0.1432500034570694 0.0096129998564720154 -0.028268000110983849
   vertex 0.14216999709606171 0.011374000459909439 -0.025743000209331512
  endloop
 endfacet
 facet normal 0.24216422760019257 -0.76441627175780447 0.59751506285841938
  outer loop
   vertex 0.10278499871492386 0.01279900036752224 -0.015216999687254429
   vertex 0.11190199851989746 0.011392000131309032 -0.020711999386548996
   vertex 0.11320099979639053 0.013667000457644463 -0.018327999860048294
  endloop
 endfacet
 facet normal 0.29594701862807155 -0.21905733396739002 0.92974687232614828
  outer loop
   vertex 0.10278499871492386 0.01279900036752224 -0.015216999687254429
   vertex 0.11320099979639053 0.013667000457644463 -0.018327999860048294
   vertex 0.11058899760246277 0.017727000638842583 -0.016540000215172768
  endloop
 endfacet
 facet normal 0.43458170634164994 0.68002903101913192 0.59050762694850989
  outer loop
   vertex 0.11058899760246277 0.017727000638842583 -0.016540000215172768
   vertex 0.1036050021648407 0.023688999935984612 -0.018265999853610992
   vertex 0.10316800326108932 0.021944999694824219 -0.015936000272631645
  endloop
 endfacet
 facet normal 0.25154212119260344 -0.1412928880787446 0.95747735275790868
  outer loop
   vertex 0.11058899760246277 0.017727000638842583 -0.016540000215172768
   vertex 0.10159400105476379 0.018674999475479126 -0.014037000015377998
   vertex 0.10278499871492386 0.01279900036752224 -0.015216999687254429
  endloop
 endfacet
 facet normal 0.2849880138102982 0.37508510702682096 0.88209579665200732
  outer loop
   vertex 0.11058899760246277 0.017727000638842583 -0.016540000215172768
   vertex 0.10316800326108932 0.021944999694824219 -0.015936000272631645
   vertex 0.10159400105476379 0.018674999475479126 -0.014037000015377998
  endloop
 endfacet
 facet normal 0.95520897897890999 0.28154733693523198 0.091142216029385867
  outer loop
   vertex 0.15468199551105499 0.0055370000191032887 -0.029210999608039856
   vertex 0.15415699779987335 0.0065830000676214695 -0.026939999312162399
   vertex 0.15459699928760529 0.0049959998577833176 -0.026649000123143196
  endloop
 endfacet
 facet normal 0.99657869815987798 0.067731071285407216 0.047364547464258978
  outer loop
   vertex 0.1550000011920929 0.0019020000472664833 -0.030703999102115631
   vertex 0.15468199551105499 0.0055370000191032887 -0.029210999608039856
   vertex 0.15459699928760529 0.0049959998577833176 -0.026649000123143196
  endloop
 endfacet
 facet normal 0.98731890521138854 -0.062597998829775001 0.14588649682096252
  outer loop
   vertex 0.15459699928760529 0.0049959998577833176 -0.026649000123143196
   vertex 0.15435299277305603 -0.00070299999788403511 -0.027442999184131622
   vertex 0.1550000011920929 0.0019020000472664833 -0.030703999102115631
  endloop
 endfacet
 facet normal 0.6967992411584415 0.64070590452984932 -0.32243877158556411
  outer loop
   vertex 0.15468199551105499 0.0055370000191032887 -0.029210999608039856
   vertex 0.15317000448703766 0.0063519999384880066 -0.030858999118208885
   vertex 0.15289700031280518 0.0078229997307062149 -0.028526000678539276
  endloop
 endfacet
 facet normal 0.35034634208036619 0.81023384689453348 -0.4698707842986119
  outer loop
   vertex 0.15289700031280518 0.0078229997307062149 -0.028526000678539276
   vertex 0.15317000448703766 0.0063519999384880066 -0.030858999118208885
   vertex 0.14783300459384918 0.0095760002732276917 -0.029278999194502831
  endloop
 endfacet
 facet normal 0.76614058163341214 0.63244761897253354 -0.11418676994463879
  outer loop
   vertex 0.15289700031280518 0.0078229997307062149 -0.028526000678539276
   vertex 0.15415699779987335 0.0065830000676214695 -0.026939999312162399
   vertex 0.15468199551105499 0.0055370000191032887 -0.029210999608039856
  endloop
 endfacet
 facet normal -0.0094646097969190036 -0.99493081895916291 0.10011536668584685
  outer loop
   vertex 0.11599300056695938 0.011033999733626842 -0.023883000016212463
   vertex 0.11190199851989746 0.011392000131309032 -0.020711999386548996
   vertex 0.10996299982070923 0.011194000020623207 -0.022863000631332397
  endloop
 endfacet
 facet normal -0.035847613437794905 -0.99168451457026319 0.12359924017709689
  outer loop
   vertex 0.10996299982070923 0.011194000020623207 -0.022863000631332397
   vertex 0.11190199851989746 0.011392000131309032 -0.020711999386548996
   vertex 0.095223002135753632 0.01269300002604723 -0.015111000277101994
  endloop
 endfacet
 facet normal 0.017328611937087832 -0.961317512554831 0.2748969975531308
  outer loop
   vertex 0.095223002135753632 0.01269300002604723 -0.015111000277101994
   vertex 0.11190199851989746 0.011392000131309032 -0.020711999386548996
   vertex 0.10278499871492386 0.01279900036752224 -0.015216999687254429
  endloop
 endfacet
 facet normal -0.11654099369540202 -0.82002877152358278 -0.56033116160179042
  outer loop
   vertex 0.10470899939537048 0.012938999570906162 -0.024323999881744385
   vertex 0.11599300056695938 0.011033999733626842 -0.023883000016212463
   vertex 0.10996299982070923 0.011194000020623207 -0.022863000631332397
  endloop
 endfacet
 facet normal 0.034454686307174465 -0.027185419259310881 -0.99903644957087012
  outer loop
   vertex 0.10470899939537048 0.012938999570906162 -0.024323999881744385
   vertex 0.12512600421905518 0.017060000449419022 -0.023731999099254608
   vertex 0.11599300056695938 0.011033999733626842 -0.023883000016212463
  endloop
 endfacet
 facet normal 0.011652757119321299 0.085387975950471637 -0.99627963284140253
  outer loop
   vertex 0.10073100030422211 0.018743999302387238 -0.023872999474406242
   vertex 0.12512600421905518 0.017060000449419022 -0.023731999099254608
   vertex 0.10470899939537048 0.012938999570906162 -0.024323999881744385
  endloop
 endfacet
 facet normal 0.035285095162347471 0.43585225068059746 -0.89932629097343852
  outer loop
   vertex 0.10073100030422211 0.018743999302387238 -0.023872999474406242
   vertex 0.1013529971241951 0.023817000910639763 -0.021390000358223915
   vertex 0.12512600421905518 0.017060000449419022 -0.023731999099254608
  endloop
 endfacet
 facet normal 0.25710990737119233 0.95525867156123623 -0.14620316665051783
  outer loop
   vertex 0.12512600421905518 0.017060000449419022 -0.023731999099254608
   vertex 0.1013529971241951 0.023817000910639763 -0.021390000358223915
   vertex 0.1036050021648407 0.023688999935984612 -0.018265999853610992
  endloop
 endfacet
 facet normal 0.24849382180824739 0.75253175412442452 0.60987439654206466
  outer loop
   vertex 0.10316800326108932 0.021944999694824219 -0.015936000272631645
   vertex 0.1036050021648407 0.023688999935984612 -0.018265999853610992
   vertex 0.096922002732753754 0.025864999741315842 -0.018228000029921532
  endloop
 endfacet
 facet normal 0.30358960503607035 0.93554639038698839 -0.18051676694401422
  outer loop
   vertex 0.1036050021648407 0.023688999935984612 -0.018265999853610992
   vertex 0.1013529971241951 0.023817000910639763 -0.021390000358223915
   vertex 0.096922002732753754 0.025864999741315842 -0.018228000029921532
  endloop
 endfacet
 facet normal -0.10054821010212479 -0.21543880845741495 0.97132701869952542
  outer loop
   vertex 0.10159400105476379 0.018674999475479126 -0.014037000015377998
   vertex 0.10080999881029129 0.016993999481201172 -0.014491000212728977
   vertex 0.10278499871492386 0.01279900036752224 -0.015216999687254429
  endloop
 endfacet
 facet normal 0.016114507465138359 -0.1631352151447564 0.98647211021337555
  outer loop
   vertex 0.095223002135753632 0.01269300002604723 -0.015111000277101994
   vertex 0.10278499871492386 0.01279900036752224 -0.015216999687254429
   vertex 0.10080999881029129 0.016993999481201172 -0.014491000212728977
  endloop
 endfacet
 facet normal 0.32363717693067606 0.80571764737211293 0.49606254688445267
  outer loop
   vertex 0.10316800326108932 0.021944999694824219 -0.015936000272631645
   vertex 0.096922002732753754 0.025864999741315842 -0.018228000029921532
   vertex 0.094809003174304962 0.025805000215768814 -0.016752000898122787
  endloop
 endfacet
 facet normal 0.20223518625638817 0.60135328708433633 0.7729651696892349
  outer loop
   vertex 0.097083002328872681 0.022197000682353973 -0.014539999887347221
   vertex 0.10316800326108932 0.021944999694824219 -0.015936000272631645
   vertex 0.094809003174304962 0.025805000215768814 -0.016752000898122787
  endloop
 endfacet
 facet normal 0.22013992280196198 0.40846741244416718 0.88582887024521439
  outer loop
   vertex 0.097083002328872681 0.022197000682353973 -0.014539999887347221
   vertex 0.10159400105476379 0.018674999475479126 -0.014037000015377998
   vertex 0.10316800326108932 0.021944999694824219 -0.015936000272631645
  endloop
 endfacet
 facet normal 0.020184970292630416 0.16664304687041837 0.98581066229982994
  outer loop
   vertex 0.10159400105476379 0.018674999475479126 -0.014037000015377998
   vertex 0.097083002328872681 0.022197000682353973 -0.014539999887347221
   vertex 0.094728998839855194 0.018702000379562378 -0.013900999911129475
  endloop
 endfacet
 facet normal -0.055935563998579567 -0.23593021520519958 0.97015882526181707
  outer loop
   vertex 0.10080999881029129 0.016993999481201172 -0.014491000212728977
   vertex 0.10159400105476379 0.018674999475479126 -0.014037000015377998
   vertex 0.098458997905254364 0.017317000776529312 -0.014547999948263168
  endloop
 endfacet
 facet normal 0.016756706017722445 -0.38578614621511254 0.92243604775178178
  outer loop
   vertex 0.094728998839855194 0.018702000379562378 -0.013900999911129475
   vertex 0.098458997905254364 0.017317000776529312 -0.014547999948263168
   vertex 0.10159400105476379 0.018674999475479126 -0.014037000015377998
  endloop
 endfacet
 facet normal -0.23581551581293222 -0.93418547270058605 -0.26774716636607621
  outer loop
   vertex 0.10470899939537048 0.012938999570906162 -0.024323999881744385
   vertex 0.10996299982070923 0.011194000020623207 -0.022863000631332397
   vertex 0.095223002135753632 0.01269300002604723 -0.015111000277101994
  endloop
 endfacet
 facet normal -0.39113160128263957 -0.85974016613027848 -0.32842490347164505
  outer loop
   vertex 0.093156002461910248 0.013968000188469887 -0.015986999496817589
   vertex 0.088229000568389893 0.018758999183773994 -0.022661000490188599
   vertex 0.095223002135753632 0.01269300002604723 -0.015111000277101994
  endloop
 endfacet
 facet normal -0.084530869859506044 -0.033748634434687536 0.99584916614645469
  outer loop
   vertex 0.098692998290061951 0.016630999743938446 -0.014682999812066555
   vertex 0.095223002135753632 0.01269300002604723 -0.015111000277101994
   vertex 0.10080999881029129 0.016993999481201172 -0.014491000212728977
  endloop
 endfacet
 facet normal 0.01112776016474382 -0.82605720519451442 -0.56347641183987818
  outer loop
   vertex 0.092609003186225891 0.018637999892234802 -0.023878000676631927
   vertex 0.10073100030422211 0.018743999302387238 -0.023872999474406242
   vertex 0.095223002135753632 0.01269300002604723 -0.015111000277101994
  endloop
 endfacet
 facet normal -0.16727980917876312 -0.8384434572804198 -0.5186810526564215
  outer loop
   vertex 0.095223002135753632 0.01269300002604723 -0.015111000277101994
   vertex 0.088229000568389893 0.018758999183773994 -0.022661000490188599
   vertex 0.092609003186225891 0.018637999892234802 -0.023878000676631927
  endloop
 endfacet
 facet normal -0.63777644599097871 -0.38523246932711069 -0.66696113043808847
  outer loop
   vertex 0.10470899939537048 0.012938999570906162 -0.024323999881744385
   vertex 0.095223002135753632 0.01269300002604723 -0.015111000277101994
   vertex 0.10073100030422211 0.018743999302387238 -0.023872999474406242
  endloop
 endfacet
 facet normal 0.002670032579032961 -0.11037302710842133 0.99388664636011215
  outer loop
   vertex 0.095223002135753632 0.01269300002604723 -0.015111000277101994
   vertex 0.098692998290061951 0.016630999743938446 -0.014682999812066555
   vertex 0.093330003321170807 0.01788800023496151 -0.014529000036418438
  endloop
 endfacet
 facet normal -0.51530938780763746 -0.27857003823371923 0.81046589603497932
  outer loop
   vertex 0.093330003321170807 0.01788800023496151 -0.014529000036418438
   vertex 0.093156002461910248 0.013968000188469887 -0.015986999496817589
   vertex 0.095223002135753632 0.01269300002604723 -0.015111000277101994
  endloop
 endfacet
 facet normal 0.17639561347385457 0.41519385206611181 -0.89246773205180141
  outer loop
   vertex 0.1013529971241951 0.023817000910639763 -0.021390000358223915
   vertex 0.10073100030422211 0.018743999302387238 -0.023872999474406242
   vertex 0.092927999794483185 0.020317999646067619 -0.024683000519871712
  endloop
 endfacet
 facet normal 0.0062069650968107314 -0.43307009518034001 -0.90133887425583625
  outer loop
   vertex 0.10073100030422211 0.018743999302387238 -0.023872999474406242
   vertex 0.092609003186225891 0.018637999892234802 -0.023878000676631927
   vertex 0.092927999794483185 0.020317999646067619 -0.024683000519871712
  endloop
 endfacet
 facet normal 0.019959697252821536 0.85169170563218799 -0.52366291547417243
  outer loop
   vertex 0.096922002732753754 0.025864999741315842 -0.018228000029921532
   vertex 0.1013529971241951 0.023817000910639763 -0.021390000358223915
   vertex 0.088725000619888306 0.022807000204920769 -0.023514000698924065
  endloop
 endfacet
 facet normal 0.095439999597371719 0.55064186472244703 -0.82926759450242593
  outer loop
   vertex 0.088725000619888306 0.022807000204920769 -0.023514000698924065
   vertex 0.1013529971241951 0.023817000910639763 -0.021390000358223915
   vertex 0.092927999794483185 0.020317999646067619 -0.024683000519871712
  endloop
 endfacet
 facet normal 0.23277663129215839 0.89947908252882991 0.36980051381436568
  outer loop
   vertex 0.094809003174304962 0.025805000215768814 -0.016752000898122787
   vertex 0.096922002732753754 0.025864999741315842 -0.018228000029921532
   vertex 0.09467799961566925 0.026041999459266663 -0.017246000468730927
  endloop
 endfacet
 facet normal -0.090593019968503205 0.91647294377407906 -0.38970533491737092
  outer loop
   vertex 0.092716999351978302 0.026000000536441803 -0.016932999715209007
   vertex 0.096922002732753754 0.025864999741315842 -0.018228000029921532
   vertex 0.088725000619888306 0.022807000204920769 -0.023514000698924065
  endloop
 endfacet
 facet normal -0.074108345902287598 0.93806909683323525 -0.3384291988497819
  outer loop
   vertex 0.092716999351978302 0.026000000536441803 -0.016932999715209007
   vertex 0.09467799961566925 0.026041999459266663 -0.017246000468730927
   vertex 0.096922002732753754 0.025864999741315842 -0.018228000029921532
  endloop
 endfacet
 facet normal -0.052527240577911874 -0.21004210453782851 0.97628028932197031
  outer loop
   vertex 0.098692998290061951 0.016630999743938446 -0.014682999812066555
   vertex 0.10080999881029129 0.016993999481201172 -0.014491000212728977
   vertex 0.098458997905254364 0.017317000776529312 -0.014547999948263168
  endloop
 endfacet
 facet normal 0.047915821133859733 0.90546957924164051 0.42169765846283092
  outer loop
   vertex 0.094809003174304962 0.025805000215768814 -0.016752000898122787
   vertex 0.09467799961566925 0.026041999459266663 -0.017246000468730927
   vertex 0.092716999351978302 0.026000000536441803 -0.016932999715209007
  endloop
 endfacet
 facet normal 0.41230708997307963 0.26817595822872814 0.87068049190620678
  outer loop
   vertex 0.09301699697971344 0.024768000468611717 -0.015584000386297703
   vertex 0.095095999538898468 0.019509999081492424 -0.01494900044053793
   vertex 0.094809003174304962 0.025805000215768814 -0.016752000898122787
  endloop
 endfacet
 facet normal 0.010705080801679607 0.73954434301440386 0.67302270835420042
  outer loop
   vertex 0.092716999351978302 0.026000000536441803 -0.016932999715209007
   vertex 0.09301699697971344 0.024768000468611717 -0.015584000386297703
   vertex 0.094809003174304962 0.025805000215768814 -0.016752000898122787
  endloop
 endfacet
 facet normal -0.14215366843117072 0.45070397402077977 0.88128216954244398
  outer loop
   vertex 0.096180997788906097 0.022897999733686447 -0.015043999999761581
   vertex 0.097083002328872681 0.022197000682353973 -0.014539999887347221
   vertex 0.094809003174304962 0.025805000215768814 -0.016752000898122787
  endloop
 endfacet
 facet normal -0.84351207054448984 -0.086663090917214372 0.53007253797798493
  outer loop
   vertex 0.095822997391223907 0.022523000836372375 -0.015675000846385956
   vertex 0.096180997788906097 0.022897999733686447 -0.015043999999761581
   vertex 0.094809003174304962 0.025805000215768814 -0.016752000898122787
  endloop
 endfacet
 facet normal -0.15088667951993706 0.26583029043143996 0.95213836527711893
  outer loop
   vertex 0.095095999538898468 0.019509999081492424 -0.01494900044053793
   vertex 0.095822997391223907 0.022523000836372375 -0.015675000846385956
   vertex 0.094809003174304962 0.025805000215768814 -0.016752000898122787
  endloop
 endfacet
 facet normal -0.46063099754882553 0.044634991038460539 0.88646872571578672
  outer loop
   vertex 0.097083002328872681 0.022197000682353973 -0.014539999887347221
   vertex 0.096180997788906097 0.022897999733686447 -0.015043999999761581
   vertex 0.096309997141361237 0.021707000210881233 -0.014917000196874142
  endloop
 endfacet
 facet normal -0.80525508731227857 0.57134805469081817 0.15851070865626898
  outer loop
   vertex 0.094728998839855194 0.018702000379562378 -0.013900999911129475
   vertex 0.097083002328872681 0.022197000682353973 -0.014539999887347221
   vertex 0.095095999538898468 0.019509999081492424 -0.01494900044053793
  endloop
 endfacet
 facet normal -0.56543042348648775 0.30125658459096438 0.76781046257294383
  outer loop
   vertex 0.096309997141361237 0.021707000210881233 -0.014917000196874142
   vertex 0.095095999538898468 0.019509999081492424 -0.01494900044053793
   vertex 0.097083002328872681 0.022197000682353973 -0.014539999887347221
  endloop
 endfacet
 facet normal -0.057666683505204798 -0.54580544384071983 0.83592521859754032
  outer loop
   vertex 0.093330003321170807 0.01788800023496151 -0.014529000036418438
   vertex 0.098458997905254364 0.017317000776529312 -0.014547999948263168
   vertex 0.094728998839855194 0.018702000379562378 -0.013900999911129475
  endloop
 endfacet
 facet normal -0.067354135835904341 0.80141850934081482 0.59429941382416407
  outer loop
   vertex 0.093497999012470245 0.018843999132514 -0.014232000336050987
   vertex 0.094728998839855194 0.018702000379562378 -0.013900999911129475
   vertex 0.095095999538898468 0.019509999081492424 -0.01494900044053793
  endloop
 endfacet
 facet normal -0.27780367651479959 -0.24014726531299824 0.93013676858704442
  outer loop
   vertex 0.093497999012470245 0.018843999132514 -0.014232000336050987
   vertex 0.093330003321170807 0.01788800023496151 -0.014529000036418438
   vertex 0.094728998839855194 0.018702000379562378 -0.013900999911129475
  endloop
 endfacet
 facet normal -0.018540316692675887 -0.19914066579588777 0.979795515341495
  outer loop
   vertex 0.098458997905254364 0.017317000776529312 -0.014547999948263168
   vertex 0.093330003321170807 0.01788800023496151 -0.014529000036418438
   vertex 0.098692998290061951 0.016630999743938446 -0.014682999812066555
  endloop
 endfacet
 facet normal -0.23770364789026149 -0.54967144161803616 -0.80084847633570022
  outer loop
   vertex 0.088229000568389893 0.018758999183773994 -0.022661000490188599
   vertex 0.087653003633022308 0.020821999758481979 -0.023905999958515167
   vertex 0.092609003186225891 0.018637999892234802 -0.023878000676631927
  endloop
 endfacet
 facet normal -0.84010757323075214 -0.13056651053473886 0.52647094100920566
  outer loop
   vertex 0.093497999012470245 0.018843999132514 -0.014232000336050987
   vertex 0.088229000568389893 0.018758999183773994 -0.022661000490188599
   vertex 0.093156002461910248 0.013968000188469887 -0.015986999496817589
  endloop
 endfacet
 facet normal -0.84361277612508978 0.10656728817470902 0.52627074500641569
  outer loop
   vertex 0.093497999012470245 0.018843999132514 -0.014232000336050987
   vertex 0.092716999351978302 0.026000000536441803 -0.016932999715209007
   vertex 0.088229000568389893 0.018758999183773994 -0.022661000490188599
  endloop
 endfacet
 facet normal -0.83692867915334801 0.091930978979118338 0.53953598685775661
  outer loop
   vertex 0.088229000568389893 0.018758999183773994 -0.022661000490188599
   vertex 0.092716999351978302 0.026000000536441803 -0.016932999715209007
   vertex 0.087653003633022308 0.020821999758481979 -0.023905999958515167
  endloop
 endfacet
 facet normal -0.39829216378810361 0.33524109307205358 -0.85380135967380921
  outer loop
   vertex 0.093156002461910248 0.013968000188469887 -0.015986999496817589
   vertex 0.093330003321170807 0.01788800023496151 -0.014529000036418438
   vertex 0.093497999012470245 0.018843999132514 -0.014232000336050987
  endloop
 endfacet
 facet normal -0.17082967941208885 -0.39920048674580927 -0.90080863229315911
  outer loop
   vertex 0.087653003633022308 0.020821999758481979 -0.023905999958515167
   vertex 0.092927999794483185 0.020317999646067619 -0.024683000519871712
   vertex 0.092609003186225891 0.018637999892234802 -0.023878000676631927
  endloop
 endfacet
 facet normal -0.11728443494850879 0.25298679966612531 -0.96033433788108447
  outer loop
   vertex 0.088725000619888306 0.022807000204920769 -0.023514000698924065
   vertex 0.092927999794483185 0.020317999646067619 -0.024683000519871712
   vertex 0.087653003633022308 0.020821999758481979 -0.023905999958515167
  endloop
 endfacet
 facet normal -0.85709693534695364 0.39837170444752873 0.32662643572502037
  outer loop
   vertex 0.087653003633022308 0.020821999758481979 -0.023905999958515167
   vertex 0.092716999351978302 0.026000000536441803 -0.016932999715209007
   vertex 0.088725000619888306 0.022807000204920769 -0.023514000698924065
  endloop
 endfacet
 facet normal -0.98221283122118219 -0.037773416746289167 0.18393238750089824
  outer loop
   vertex 0.092716999351978302 0.026000000536441803 -0.016932999715209007
   vertex 0.093497999012470245 0.018843999132514 -0.014232000336050987
   vertex 0.09301699697971344 0.024768000468611717 -0.015584000386297703
  endloop
 endfacet
 facet normal -0.60082864896748889 0.32133896155709735 0.7319468603425443
  outer loop
   vertex 0.095822997391223907 0.022523000836372375 -0.015675000846385956
   vertex 0.095095999538898468 0.019509999081492424 -0.01494900044053793
   vertex 0.096309997141361237 0.021707000210881233 -0.014917000196874142
  endloop
 endfacet
 facet normal 0.31450033320434323 0.23541174057088465 0.91960363897482678
  outer loop
   vertex 0.09301699697971344 0.024768000468611717 -0.015584000386297703
   vertex 0.093497999012470245 0.018843999132514 -0.014232000336050987
   vertex 0.095095999538898468 0.019509999081492424 -0.01494900044053793
  endloop
 endfacet
 facet normal -0.8590904231912696 -0.038628031869604278 0.51036410525714493
  outer loop
   vertex 0.096180997788906097 0.022897999733686447 -0.015043999999761581
   vertex 0.095822997391223907 0.022523000836372375 -0.015675000846385956
   vertex 0.096309997141361237 0.021707000210881233 -0.014917000196874142
  endloop
 endfacet
endsolid
