solid Visualization Toolkit generated SLA File
 facet normal -0.49343347437618545 -0.45750466991382982 0.73973838846722284
  outer loop
   vertex 0.075869999825954437 0.012508000247180462 -0.030152000486850739
   vertex 0.072995997965335846 0.012880000285804272 -0.031838998198509216
   vertex 0.077371001243591309 0.0094419997185468674 -0.031046999618411064
  endloop
 endfacet
 facet normal -0.22487813411278437 -0.37287575081954749 0.9002185841498227
  outer loop
   vertex 0.075869999825954437 0.012508000247180462 -0.030152000486850739
   vertex 0.077371001243591309 0.0094419997185468674 -0.031046999618411064
   vertex 0.078913003206253052 0.011215999722480774 -0.029927000403404236
  endloop
 endfacet
 facet normal -0.37735524214580318 -0.81087266660145618 0.44731257503419919
  outer loop
   vertex 0.081532001495361328 0.012767000123858452 -0.02490600012242794
   vertex 0.075869999825954437 0.012508000247180462 -0.030152000486850739
   vertex 0.078913003206253052 0.011215999722480774 -0.029927000403404236
  endloop
 endfacet
 facet normal -0.67173953387271312 -0.12033338229693261 0.73094861360936336
  outer loop
   vertex 0.07276500016450882 0.014964999631047249 -0.032600998878479004
   vertex 0.075869999825954437 0.012508000247180462 -0.030152000486850739
   vertex 0.081532001495361328 0.012767000123858452 -0.02490600012242794
  endloop
 endfacet
 facet normal -0.46396082138608558 0.25828306561706005 0.84736663507256538
  outer loop
   vertex 0.072995997965335846 0.012880000285804272 -0.031838998198509216
   vertex 0.075869999825954437 0.012508000247180462 -0.030152000486850739
   vertex 0.07276500016450882 0.014964999631047249 -0.032600998878479004
  endloop
 endfacet
 facet normal -0.48257399215147601 -0.83672626557632523 0.25886579262947068
  outer loop
   vertex 0.075317002832889557 0.0098209995776414871 -0.033651001751422882
   vertex 0.077371001243591309 0.0094419997185468674 -0.031046999618411064
   vertex 0.072127997875213623 0.011843999847769737 -0.033057000488042831
  endloop
 endfacet
 facet normal 0.099491261184216598 -0.59159782355742518 0.80007093692377784
  outer loop
   vertex 0.083674997091293335 0.0085979998111724854 -0.032455001026391983
   vertex 0.078913003206253052 0.011215999722480774 -0.029927000403404236
   vertex 0.077371001243591309 0.0094419997185468674 -0.031046999618411064
  endloop
 endfacet
 facet normal -0.24608868238133033 -0.96778317184391571 0.053254978166841278
  outer loop
   vertex 0.075317002832889557 0.0098209995776414871 -0.033651001751422882
   vertex 0.0809440016746521 0.0084070004522800446 -0.033344998955726624
   vertex 0.077371001243591309 0.0094419997185468674 -0.031046999618411064
  endloop
 endfacet
 facet normal -0.047757868288914977 -0.93645678610114658 0.34751672446316895
  outer loop
   vertex 0.077371001243591309 0.0094419997185468674 -0.031046999618411064
   vertex 0.0809440016746521 0.0084070004522800446 -0.033344998955726624
   vertex 0.083674997091293335 0.0085979998111724854 -0.032455001026391983
  endloop
 endfacet
 facet normal -0.49316011469305265 -0.45705011811391344 0.74020152040372955
  outer loop
   vertex 0.072995997965335846 0.012880000285804272 -0.031838998198509216
   vertex 0.072127997875213623 0.011843999847769737 -0.033057000488042831
   vertex 0.077371001243591309 0.0094419997185468674 -0.031046999618411064
  endloop
 endfacet
 facet normal -0.91986629100854944 0.040663565844942802 0.39011854746852093
  outer loop
   vertex 0.072995997965335846 0.012880000285804272 -0.031838998198509216
   vertex 0.07276500016450882 0.014964999631047249 -0.032600998878479004
   vertex 0.071818999946117401 0.014306999742984772 -0.034763000905513763
  endloop
 endfacet
 facet normal -0.87055167343133499 0.20167975778704536 0.44884859271792432
  outer loop
   vertex 0.072995997965335846 0.012880000285804272 -0.031838998198509216
   vertex 0.071818999946117401 0.014306999742984772 -0.034763000905513763
   vertex 0.072127997875213623 0.011843999847769737 -0.033057000488042831
  endloop
 endfacet
 facet normal -0.26407738668835834 -0.8740733048836028 0.40774868672958797
  outer loop
   vertex 0.083674997091293335 0.0085979998111724854 -0.032455001026391983
   vertex 0.081532001495361328 0.012767000123858452 -0.02490600012242794
   vertex 0.078913003206253052 0.011215999722480774 -0.029927000403404236
  endloop
 endfacet
 facet normal -0.23287871559464926 -0.87777999015652575 0.4186523530374528
  outer loop
   vertex 0.084219999611377716 0.012350999750196934 -0.024282999336719513
   vertex 0.081532001495361328 0.012767000123858452 -0.02490600012242794
   vertex 0.083674997091293335 0.0085979998111724854 -0.032455001026391983
  endloop
 endfacet
 facet normal -0.25428115781603822 -0.23996575385225782 0.93688714889139801
  outer loop
   vertex 0.083167999982833862 0.01451599970459938 -0.024013999849557877
   vertex 0.081532001495361328 0.012767000123858452 -0.02490600012242794
   vertex 0.084219999611377716 0.012350999750196934 -0.024282999336719513
  endloop
 endfacet
 facet normal -0.56651433924775507 0.35082087267491979 0.74564483416857874
  outer loop
   vertex 0.081532001495361328 0.012767000123858452 -0.02490600012242794
   vertex 0.077884003520011902 0.020515000447630882 -0.03132300078868866
   vertex 0.07276500016450882 0.014964999631047249 -0.032600998878479004
  endloop
 endfacet
 facet normal -0.66463329313614483 0.2655003122955043 0.6984068798529931
  outer loop
   vertex 0.083167999982833862 0.01451599970459938 -0.024013999849557877
   vertex 0.077884003520011902 0.020515000447630882 -0.03132300078868866
   vertex 0.081532001495361328 0.012767000123858452 -0.02490600012242794
  endloop
 endfacet
 facet normal -0.87828875377733551 0.39948346850475941 0.26272004754046069
  outer loop
   vertex 0.073492996394634247 0.016823999583721161 -0.032993998378515244
   vertex 0.071818999946117401 0.014306999742984772 -0.034763000905513763
   vertex 0.07276500016450882 0.014964999631047249 -0.032600998878479004
  endloop
 endfacet
 facet normal -0.59122875012837572 0.38172053811070039 0.71044915075332182
  outer loop
   vertex 0.07276500016450882 0.014964999631047249 -0.032600998878479004
   vertex 0.077884003520011902 0.020515000447630882 -0.03132300078868866
   vertex 0.073492996394634247 0.016823999583721161 -0.032993998378515244
  endloop
 endfacet
 facet normal -0.54653212135346263 -0.75539358980184723 -0.36150126530229804
  outer loop
   vertex 0.071933001279830933 0.012969000265002251 -0.035112999379634857
   vertex 0.075317002832889557 0.0098209995776414871 -0.033651001751422882
   vertex 0.072127997875213623 0.011843999847769737 -0.033057000488042831
  endloop
 endfacet
 facet normal -0.49120672986970837 -0.74081221433390099 -0.45816286582874621
  outer loop
   vertex 0.073342002928256989 0.01321600005030632 -0.037023000419139862
   vertex 0.075317002832889557 0.0098209995776414871 -0.033651001751422882
   vertex 0.071933001279830933 0.012969000265002251 -0.035112999379634857
  endloop
 endfacet
 facet normal -0.50338781216259498 -0.73845230278338436 -0.44865232316357478
  outer loop
   vertex 0.076760001480579376 0.011222000233829021 -0.037576001137495041
   vertex 0.075317002832889557 0.0098209995776414871 -0.033651001751422882
   vertex 0.073342002928256989 0.01321600005030632 -0.037023000419139862
  endloop
 endfacet
 facet normal -0.20367975588538162 -0.89595595770780512 -0.39468655777763828
  outer loop
   vertex 0.075317002832889557 0.0098209995776414871 -0.033651001751422882
   vertex 0.076760001480579376 0.011222000233829021 -0.037576001137495041
   vertex 0.0809440016746521 0.0084070004522800446 -0.033344998955726624
  endloop
 endfacet
 facet normal -0.99452475304538657 -0.095710441428332196 0.041952675499980385
  outer loop
   vertex 0.072127997875213623 0.011843999847769737 -0.033057000488042831
   vertex 0.071818999946117401 0.014306999742984772 -0.034763000905513763
   vertex 0.071933001279830933 0.012969000265002251 -0.035112999379634857
  endloop
 endfacet
 facet normal -0.27408667573996082 -0.86688518874633425 0.41639712260539213
  outer loop
   vertex 0.084219999611377716 0.012350999750196934 -0.024282999336719513
   vertex 0.083674997091293335 0.0085979998111724854 -0.032455001026391983
   vertex 0.088684000074863434 0.010599999688565731 -0.024989999830722809
  endloop
 endfacet
 facet normal 0.044266369202805911 -0.97195549710952001 0.23096103609956981
  outer loop
   vertex 0.083674997091293335 0.0085979998111724854 -0.032455001026391983
   vertex 0.091105997562408447 0.0090119997039437294 -0.032136999070644379
   vertex 0.088684000074863434 0.010599999688565731 -0.024989999830722809
  endloop
 endfacet
 facet normal 0.053418324949881503 -0.99731394047672561 0.050113737541067738
  outer loop
   vertex 0.091105997562408447 0.0090119997039437294 -0.032136999070644379
   vertex 0.083674997091293335 0.0085979998111724854 -0.032455001026391983
   vertex 0.0809440016746521 0.0084070004522800446 -0.033344998955726624
  endloop
 endfacet
 facet normal 0.11016132752982236 -0.86184035408485238 -0.49507139483892987
  outer loop
   vertex 0.0809440016746521 0.0084070004522800446 -0.033344998955726624
   vertex 0.091899998486042023 0.010985000059008598 -0.035395000129938126
   vertex 0.091105997562408447 0.0090119997039437294 -0.032136999070644379
  endloop
 endfacet
 facet normal -0.042972383598932226 -0.50354531464477348 -0.86289946711486754
  outer loop
   vertex 0.0809440016746521 0.0084070004522800446 -0.033344998955726624
   vertex 0.087720997631549835 0.011889999732375145 -0.035714998841285706
   vertex 0.091899998486042023 0.010985000059008598 -0.035395000129938126
  endloop
 endfacet
 facet normal 0.15560018799893496 -0.74451610376888411 -0.64921826277723904
  outer loop
   vertex 0.076760001480579376 0.011222000233829021 -0.037576001137495041
   vertex 0.087720997631549835 0.011889999732375145 -0.035714998841285706
   vertex 0.0809440016746521 0.0084070004522800446 -0.033344998955726624
  endloop
 endfacet
 facet normal -0.63540194659025029 0.7126035037987507 -0.29742328866964074
  outer loop
   vertex 0.073329001665115356 0.01457700040191412 -0.037342000752687454
   vertex 0.071818999946117401 0.014306999742984772 -0.034763000905513763
   vertex 0.076513998210430145 0.018874000757932663 -0.033851001411676407
  endloop
 endfacet
 facet normal -0.86415121429982789 0.05715723543328885 -0.49997572867265916
  outer loop
   vertex 0.071933001279830933 0.012969000265002251 -0.035112999379634857
   vertex 0.071818999946117401 0.014306999742984772 -0.034763000905513763
   vertex 0.073329001665115356 0.01457700040191412 -0.037342000752687454
  endloop
 endfacet
 facet normal -0.58781064222785973 0.68896268670389615 -0.42403899020422681
  outer loop
   vertex 0.071818999946117401 0.014306999742984772 -0.034763000905513763
   vertex 0.073492996394634247 0.016823999583721161 -0.032993998378515244
   vertex 0.076513998210430145 0.018874000757932663 -0.033851001411676407
  endloop
 endfacet
 facet normal 0.10851123273875377 -0.12172626334539396 0.98661442781944153
  outer loop
   vertex 0.084219999611377716 0.012350999750196934 -0.024282999336719513
   vertex 0.088684000074863434 0.010599999688565731 -0.024989999830722809
   vertex 0.092818997800350189 0.012276000343263149 -0.025237999856472015
  endloop
 endfacet
 facet normal 0.10950723913314947 -0.069984565713582983 0.99151920059034482
  outer loop
   vertex 0.084219999611377716 0.012350999750196934 -0.024282999336719513
   vertex 0.092818997800350189 0.012276000343263149 -0.025237999856472015
   vertex 0.083167999982833862 0.01451599970459938 -0.024013999849557877
  endloop
 endfacet
 facet normal -0.47858617629535694 0.4767798269906624 0.73731693893043282
  outer loop
   vertex 0.083595998585224152 0.023714000359177589 -0.029683999717235565
   vertex 0.077884003520011902 0.020515000447630882 -0.03132300078868866
   vertex 0.083167999982833862 0.01451599970459938 -0.024013999849557877
  endloop
 endfacet
 facet normal 0.22281451444747716 0.50402215886556367 0.83445512493125207
  outer loop
   vertex 0.092818997800350189 0.012276000343263149 -0.025237999856472015
   vertex 0.083595998585224152 0.023714000359177589 -0.029683999717235565
   vertex 0.083167999982833862 0.01451599970459938 -0.024013999849557877
  endloop
 endfacet
 facet normal -0.30611698761320977 0.80608325913248491 -0.50648017655280952
  outer loop
   vertex 0.083595998585224152 0.023714000359177589 -0.029683999717235565
   vertex 0.08021099865436554 0.018689999356865883 -0.035633999854326248
   vertex 0.077884003520011902 0.020515000447630882 -0.03132300078868866
  endloop
 endfacet
 facet normal -0.58775005698571581 0.78600378984784403 -0.19169745136050728
  outer loop
   vertex 0.073492996394634247 0.016823999583721161 -0.032993998378515244
   vertex 0.077884003520011902 0.020515000447630882 -0.03132300078868866
   vertex 0.076513998210430145 0.018874000757932663 -0.033851001411676407
  endloop
 endfacet
 facet normal -0.18093826873892657 0.86682459305638848 -0.46462508302758099
  outer loop
   vertex 0.08021099865436554 0.018689999356865883 -0.035633999854326248
   vertex 0.076513998210430145 0.018874000757932663 -0.033851001411676407
   vertex 0.077884003520011902 0.020515000447630882 -0.03132300078868866
  endloop
 endfacet
 facet normal -0.78662297363768741 -0.14801282652609077 -0.59943014649678694
  outer loop
   vertex 0.073329001665115356 0.01457700040191412 -0.037342000752687454
   vertex 0.073342002928256989 0.01321600005030632 -0.037023000419139862
   vertex 0.071933001279830933 0.012969000265002251 -0.035112999379634857
  endloop
 endfacet
 facet normal -0.32599653447181565 -0.21868650111626114 -0.91972956554733742
  outer loop
   vertex 0.073342002928256989 0.01321600005030632 -0.037023000419139862
   vertex 0.073329001665115356 0.01457700040191412 -0.037342000752687454
   vertex 0.076295003294944763 0.014314999803900719 -0.03833099827170372
  endloop
 endfacet
 facet normal -0.30467140153451844 -0.26884371010393959 -0.91372774754001052
  outer loop
   vertex 0.073342002928256989 0.01321600005030632 -0.037023000419139862
   vertex 0.076295003294944763 0.014314999803900719 -0.03833099827170372
   vertex 0.076760001480579376 0.011222000233829021 -0.037576001137495041
  endloop
 endfacet
 facet normal 0.17598854653955309 -0.20602809836486055 -0.96259049141940678
  outer loop
   vertex 0.087720997631549835 0.011889999732375145 -0.035714998841285706
   vertex 0.076760001480579376 0.011222000233829021 -0.037576001137495041
   vertex 0.080550000071525574 0.014123000204563141 -0.037503998726606369
  endloop
 endfacet
 facet normal 0.17755638890163081 -0.20809458509739351 -0.96185777140560469
  outer loop
   vertex 0.080550000071525574 0.014123000204563141 -0.037503998726606369
   vertex 0.076760001480579376 0.011222000233829021 -0.037576001137495041
   vertex 0.076295003294944763 0.014314999803900719 -0.03833099827170372
  endloop
 endfacet
 facet normal 0.2789606428298847 -0.57436796627319042 0.76959885594453481
  outer loop
   vertex 0.092818997800350189 0.012276000343263149 -0.025237999856472015
   vertex 0.088684000074863434 0.010599999688565731 -0.024989999830722809
   vertex 0.095261998474597931 0.011521000415086746 -0.026686999946832657
  endloop
 endfacet
 facet normal 0.20305515082472167 -0.93903467950000619 0.27745716141392046
  outer loop
   vertex 0.088684000074863434 0.010599999688565731 -0.024989999830722809
   vertex 0.091105997562408447 0.0090119997039437294 -0.032136999070644379
   vertex 0.095261998474597931 0.011521000415086746 -0.026686999946832657
  endloop
 endfacet
 facet normal -0.099647594675112222 -0.84017437851424592 -0.53308289276965659
  outer loop
   vertex 0.098794996738433838 0.0083969999104738235 -0.032604999840259552
   vertex 0.091105997562408447 0.0090119997039437294 -0.032136999070644379
   vertex 0.091899998486042023 0.010985000059008598 -0.035395000129938126
  endloop
 endfacet
 facet normal -0.070561432802184368 -0.88457171553316383 0.46103575162845928
  outer loop
   vertex 0.091105997562408447 0.0090119997039437294 -0.032136999070644379
   vertex 0.10397999733686447 0.0085370000451803207 -0.031077999621629715
   vertex 0.095261998474597931 0.011521000415086746 -0.026686999946832657
  endloop
 endfacet
 facet normal -0.058940112846423649 -0.95588345450802203 0.28777227888638129
  outer loop
   vertex 0.091105997562408447 0.0090119997039437294 -0.032136999070644379
   vertex 0.098794996738433838 0.0083969999104738235 -0.032604999840259552
   vertex 0.10397999733686447 0.0085370000451803207 -0.031077999621629715
  endloop
 endfacet
 facet normal -0.22027668681912463 -0.92396080213147114 -0.31268933043606961
  outer loop
   vertex 0.091899998486042023 0.010985000059008598 -0.035395000129938126
   vertex 0.11414899677038193 0.006031000055372715 -0.036430001258850098
   vertex 0.098794996738433838 0.0083969999104738235 -0.032604999840259552
  endloop
 endfacet
 facet normal -0.0091777410364268334 0.16483718056733129 -0.98627809109402875
  outer loop
   vertex 0.091899998486042023 0.010985000059008598 -0.035395000129938126
   vertex 0.087489999830722809 0.020605999976396561 -0.033746000379323959
   vertex 0.11414899677038193 0.006031000055372715 -0.036430001258850098
  endloop
 endfacet
 facet normal 0.12210726167945944 0.22178245368267727 -0.96742046695510597
  outer loop
   vertex 0.091899998486042023 0.010985000059008598 -0.035395000129938126
   vertex 0.087720997631549835 0.011889999732375145 -0.035714998841285706
   vertex 0.087489999830722809 0.020605999976396561 -0.033746000379323959
  endloop
 endfacet
 facet normal 0.18990661126893219 0.22112944259496148 -0.95657579344973609
  outer loop
   vertex 0.087489999830722809 0.020605999976396561 -0.033746000379323959
   vertex 0.087720997631549835 0.011889999732375145 -0.035714998841285706
   vertex 0.08021099865436554 0.018689999356865883 -0.035633999854326248
  endloop
 endfacet
 facet normal 0.33326044730793691 0.37834352284864314 -0.86359345352925876
  outer loop
   vertex 0.08021099865436554 0.018689999356865883 -0.035633999854326248
   vertex 0.087720997631549835 0.011889999732375145 -0.035714998841285706
   vertex 0.080550000071525574 0.014123000204563141 -0.037503998726606369
  endloop
 endfacet
 facet normal -0.17156348132880814 0.69468777199133647 -0.69855198183102496
  outer loop
   vertex 0.076295003294944763 0.014314999803900719 -0.03833099827170372
   vertex 0.073329001665115356 0.01457700040191412 -0.037342000752687454
   vertex 0.076513998210430145 0.018874000757932663 -0.033851001411676407
  endloop
 endfacet
 facet normal -0.33368703154817214 0.57014010439467211 -0.7507284637852768
  outer loop
   vertex 0.08021099865436554 0.018689999356865883 -0.035633999854326248
   vertex 0.077795997262001038 0.015549000352621078 -0.036945998668670654
   vertex 0.076513998210430145 0.018874000757932663 -0.033851001411676407
  endloop
 endfacet
 facet normal 0.085217178621361855 0.6962645407784489 -0.71270872151418951
  outer loop
   vertex 0.076295003294944763 0.014314999803900719 -0.03833099827170372
   vertex 0.076513998210430145 0.018874000757932663 -0.033851001411676407
   vertex 0.077795997262001038 0.015549000352621078 -0.036945998668670654
  endloop
 endfacet
 facet normal 0.038059845138991959 0.35428488200037067 0.93436270825305279
  outer loop
   vertex 0.092405997216701508 0.02283800020813942 -0.029225999489426613
   vertex 0.092818997800350189 0.012276000343263149 -0.025237999856472015
   vertex 0.097793996334075928 0.015235999599099159 -0.026562999933958054
  endloop
 endfacet
 facet normal 0.41243560690155878 -0.30969603794672446 0.85672938215042205
  outer loop
   vertex 0.092818997800350189 0.012276000343263149 -0.025237999856472015
   vertex 0.095261998474597931 0.011521000415086746 -0.026686999946832657
   vertex 0.097793996334075928 0.015235999599099159 -0.026562999933958054
  endloop
 endfacet
 facet normal -0.013565651317007097 0.35274181259658638 0.93562235263508975
  outer loop
   vertex 0.092818997800350189 0.012276000343263149 -0.025237999856472015
   vertex 0.092405997216701508 0.02283800020813942 -0.029225999489426613
   vertex 0.083595998585224152 0.023714000359177589 -0.029683999717235565
  endloop
 endfacet
 facet normal 0.098630588090877797 0.99510563970403065 0.0060640681130486275
  outer loop
   vertex 0.092405997216701508 0.02283800020813942 -0.029225999489426613
   vertex 0.088895000517368317 0.023198999464511871 -0.031360000371932983
   vertex 0.083595998585224152 0.023714000359177589 -0.029683999717235565
  endloop
 endfacet
 facet normal -0.11374341769460435 0.79005608509006287 -0.60239008735479194
  outer loop
   vertex 0.083595998585224152 0.023714000359177589 -0.029683999717235565
   vertex 0.088895000517368317 0.023198999464511871 -0.031360000371932983
   vertex 0.08021099865436554 0.018689999356865883 -0.035633999854326248
  endloop
 endfacet
 facet normal 0.0090443701618057853 0.37948401047502339 -0.92515408725366854
  outer loop
   vertex 0.08021099865436554 0.018689999356865883 -0.035633999854326248
   vertex 0.080550000071525574 0.014123000204563141 -0.037503998726606369
   vertex 0.077795997262001038 0.015549000352621078 -0.036945998668670654
  endloop
 endfacet
 facet normal 0.014811706611669664 0.6726922374780715 -0.73977413241069456
  outer loop
   vertex 0.088895000517368317 0.023198999464511871 -0.031360000371932983
   vertex 0.087489999830722809 0.020605999976396561 -0.033746000379323959
   vertex 0.08021099865436554 0.018689999356865883 -0.035633999854326248
  endloop
 endfacet
 facet normal 0.17510480989749019 0.63319129498435944 -0.75392777472831818
  outer loop
   vertex 0.076295003294944763 0.014314999803900719 -0.03833099827170372
   vertex 0.077795997262001038 0.015549000352621078 -0.036945998668670654
   vertex 0.080550000071525574 0.014123000204563141 -0.037503998726606369
  endloop
 endfacet
 facet normal 0.25264772590567958 -0.48976654615999116 0.83444463977977712
  outer loop
   vertex 0.095261998474597931 0.011521000415086746 -0.026686999946832657
   vertex 0.10397999733686447 0.0085370000451803207 -0.031077999621629715
   vertex 0.099382996559143066 0.013133999891579151 -0.026987999677658081
  endloop
 endfacet
 facet normal 0.11589808759402105 -0.11193367832035357 0.98693388073858535
  outer loop
   vertex 0.097793996334075928 0.015235999599099159 -0.026562999933958054
   vertex 0.095261998474597931 0.011521000415086746 -0.026686999946832657
   vertex 0.099382996559143066 0.013133999891579151 -0.026987999677658081
  endloop
 endfacet
 facet normal -0.13762942081860977 -0.82820710104012618 0.54325973558864493
  outer loop
   vertex 0.098794996738433838 0.0083969999104738235 -0.032604999840259552
   vertex 0.11825600266456604 0.0035119999665766954 -0.035121999680995941
   vertex 0.10397999733686447 0.0085370000451803207 -0.031077999621629715
  endloop
 endfacet
 facet normal -0.26649350499614172 -0.74929288818174122 -0.60625191093730679
  outer loop
   vertex 0.11825600266456604 0.0035119999665766954 -0.035121999680995941
   vertex 0.098794996738433838 0.0083969999104738235 -0.032604999840259552
   vertex 0.11414899677038193 0.006031000055372715 -0.036430001258850098
  endloop
 endfacet
 facet normal -0.0034973546605239197 -0.66665251630027689 0.7453604436921023
  outer loop
   vertex 0.1128539964556694 0.008400999940931797 -0.031158000230789185
   vertex 0.099382996559143066 0.013133999891579151 -0.026987999677658081
   vertex 0.10397999733686447 0.0085370000451803207 -0.031077999621629715
  endloop
 endfacet
 facet normal -0.17816200256488682 -0.87242543527098859 0.45511774381394465
  outer loop
   vertex 0.10397999733686447 0.0085370000451803207 -0.031077999621629715
   vertex 0.11825600266456604 0.0035119999665766954 -0.035121999680995941
   vertex 0.12152399867773056 0.0029859999194741249 -0.034850999712944031
  endloop
 endfacet
 facet normal -0.0012156000469455588 -0.56476346962715296 0.82525192862011887
  outer loop
   vertex 0.1128539964556694 0.008400999940931797 -0.031158000230789185
   vertex 0.10397999733686447 0.0085370000451803207 -0.031077999621629715
   vertex 0.12152399867773056 0.0029859999194741249 -0.034850999712944031
  endloop
 endfacet
 facet normal -0.39538345680522496 -0.83888537988561018 -0.37408988425099965
  outer loop
   vertex 0.12275099754333496 0.0027620000764727592 -0.038191001862287521
   vertex 0.11825600266456604 0.0035119999665766954 -0.035121999680995941
   vertex 0.11414899677038193 0.006031000055372715 -0.036430001258850098
  endloop
 endfacet
 facet normal -0.32785934439994147 0.08425257775937306 -0.94096214240028875
  outer loop
   vertex 0.11084900051355362 0.015649000182747841 -0.034419000148773193
   vertex 0.12259399890899658 0.009252999909222126 -0.039083998650312424
   vertex 0.11414899677038193 0.006031000055372715 -0.036430001258850098
  endloop
 endfacet
 facet normal 0.016404367640657485 0.21002349478155219 -0.97755870839661263
  outer loop
   vertex 0.087489999830722809 0.020605999976396561 -0.033746000379323959
   vertex 0.11084900051355362 0.015649000182747841 -0.034419000148773193
   vertex 0.11414899677038193 0.006031000055372715 -0.036430001258850098
  endloop
 endfacet
 facet normal -0.32300738566613912 0.069142333694543576 -0.94386734581528919
  outer loop
   vertex 0.11414899677038193 0.006031000055372715 -0.036430001258850098
   vertex 0.12259399890899658 0.009252999909222126 -0.039083998650312424
   vertex 0.12760299444198608 0.0085589997470378876 -0.040849000215530396
  endloop
 endfacet
 facet normal -0.34952581707085095 -0.48931931461489447 -0.79899831761134776
  outer loop
   vertex 0.1256909966468811 0.0037350000347942114 -0.040072999894618988
   vertex 0.12275099754333496 0.0027620000764727592 -0.038191001862287521
   vertex 0.11414899677038193 0.006031000055372715 -0.036430001258850098
  endloop
 endfacet
 facet normal -0.34333523186151127 0.23994260276025633 -0.90804651089205568
  outer loop
   vertex 0.12760299444198608 0.0085589997470378876 -0.040849000215530396
   vertex 0.12545500695705414 0.0052999998442828655 -0.040897998958826065
   vertex 0.11414899677038193 0.006031000055372715 -0.036430001258850098
  endloop
 endfacet
 facet normal -0.34943551781836835 -0.47762380539827093 -0.80608332038560582
  outer loop
   vertex 0.11414899677038193 0.006031000055372715 -0.036430001258850098
   vertex 0.12545500695705414 0.0052999998442828655 -0.040897998958826065
   vertex 0.1256909966468811 0.0037350000347942114 -0.040072999894618988
  endloop
 endfacet
 facet normal 0.26814222076830035 0.56962228682081995 -0.77693641940538716
  outer loop
   vertex 0.088895000517368317 0.023198999464511871 -0.031360000371932983
   vertex 0.098012000322341919 0.020007999613881111 -0.030553000047802925
   vertex 0.087489999830722809 0.020605999976396561 -0.033746000379323959
  endloop
 endfacet
 facet normal 0.17717792077485348 0.8915206022008767 -0.41689207265344591
  outer loop
   vertex 0.11084900051355362 0.015649000182747841 -0.034419000148773193
   vertex 0.087489999830722809 0.020605999976396561 -0.033746000379323959
   vertex 0.098012000322341919 0.020007999613881111 -0.030553000047802925
  endloop
 endfacet
 facet normal 0.33376834502976638 0.85114623477577056 -0.40515278461725984
  outer loop
   vertex 0.092405997216701508 0.02283800020813942 -0.029225999489426613
   vertex 0.098012000322341919 0.020007999613881111 -0.030553000047802925
   vertex 0.088895000517368317 0.023198999464511871 -0.031360000371932983
  endloop
 endfacet
 facet normal 0.48599149844995815 0.81621287661677655 0.31242407634388691
  outer loop
   vertex 0.092405997216701508 0.02283800020813942 -0.029225999489426613
   vertex 0.099532000720500946 0.018231000751256943 -0.028274999931454659
   vertex 0.098012000322341919 0.020007999613881111 -0.030553000047802925
  endloop
 endfacet
 facet normal 0.15342450425980991 0.42177973518032025 0.89362339745770447
  outer loop
   vertex 0.097793996334075928 0.015235999599099159 -0.026562999933958054
   vertex 0.099532000720500946 0.018231000751256943 -0.028274999931454659
   vertex 0.092405997216701508 0.02283800020813942 -0.029225999489426613
  endloop
 endfacet
 facet normal 0.49102905617308695 0.19974976209955955 0.84793307432540732
  outer loop
   vertex 0.099382996559143066 0.013133999891579151 -0.026987999677658081
   vertex 0.099532000720500946 0.018231000751256943 -0.028274999931454659
   vertex 0.097793996334075928 0.015235999599099159 -0.026562999933958054
  endloop
 endfacet
 facet normal 0.37336467389619282 0.28480052349988266 0.88288588283004188
  outer loop
   vertex 0.1128539964556694 0.008400999940931797 -0.031158000230789185
   vertex 0.11074099689722061 0.015383999794721603 -0.032517001032829285
   vertex 0.099382996559143066 0.013133999891579151 -0.026987999677658081
  endloop
 endfacet
 facet normal 0.39286907012065747 0.21431977882308351 0.89427117036598835
  outer loop
   vertex 0.11074099689722061 0.015383999794721603 -0.032517001032829285
   vertex 0.099532000720500946 0.018231000751256943 -0.028274999931454659
   vertex 0.099382996559143066 0.013133999891579151 -0.026987999677658081
  endloop
 endfacet
 facet normal -0.1595196368676319 -0.98716547637247354 0.0076031382945617818
  outer loop
   vertex 0.12152399867773056 0.0029859999194741249 -0.034850999712944031
   vertex 0.11825600266456604 0.0035119999665766954 -0.035121999680995941
   vertex 0.12275099754333496 0.0027620000764727592 -0.038191001862287521
  endloop
 endfacet
 facet normal 0.18065000525188182 0.24027720376210823 0.95374652867245457
  outer loop
   vertex 0.11074099689722061 0.015383999794721603 -0.032517001032829285
   vertex 0.1128539964556694 0.008400999940931797 -0.031158000230789185
   vertex 0.12501600384712219 0.0076919998973608017 -0.033282998949289322
  endloop
 endfacet
 facet normal 0.13482852272510581 -0.40183025806156997 0.90573379818020361
  outer loop
   vertex 0.1128539964556694 0.008400999940931797 -0.031158000230789185
   vertex 0.12152399867773056 0.0029859999194741249 -0.034850999712944031
   vertex 0.12501600384712219 0.0076919998973608017 -0.033282998949289322
  endloop
 endfacet
 facet normal -0.34946310128662711 -0.87459731184808875 0.33608790955229184
  outer loop
   vertex 0.12836399674415588 0.00053499999921768904 -0.034116998314857483
   vertex 0.12152399867773056 0.0029859999194741249 -0.034850999712944031
   vertex 0.12959299981594086 -0.00056399998720735312 -0.035698998719453812
  endloop
 endfacet
 facet normal -0.37696733170001512 -0.90448618733201458 0.19950029512902054
  outer loop
   vertex 0.1285489946603775 -0.00094300002092495561 -0.039390001446008682
   vertex 0.12959299981594086 -0.00056399998720735312 -0.035698998719453812
   vertex 0.12152399867773056 0.0029859999194741249 -0.034850999712944031
  endloop
 endfacet
 facet normal -0.1729516769991758 -0.19344326628749925 0.96574707876917576
  outer loop
   vertex 0.12836399674415588 0.00053499999921768904 -0.034116998314857483
   vertex 0.12501600384712219 0.0076919998973608017 -0.033282998949289322
   vertex 0.12152399867773056 0.0029859999194741249 -0.034850999712944031
  endloop
 endfacet
 facet normal -0.55412521787820856 -0.81905601596085298 -0.14863541176234832
  outer loop
   vertex 0.1285489946603775 -0.00094300002092495561 -0.039390001446008682
   vertex 0.12152399867773056 0.0029859999194741249 -0.034850999712944031
   vertex 0.12275099754333496 0.0027620000764727592 -0.038191001862287521
  endloop
 endfacet
 facet normal -0.40995834084008925 -0.37204874090785578 -0.83277481540000986
  outer loop
   vertex 0.12275099754333496 0.0027620000764727592 -0.038191001862287521
   vertex 0.1256909966468811 0.0037350000347942114 -0.040072999894618988
   vertex 0.1285489946603775 -0.00094300002092495561 -0.039390001446008682
  endloop
 endfacet
 facet normal 0.30607592763841962 0.94036967606862376 0.14839945704372545
  outer loop
   vertex 0.11074099689722061 0.015383999794721603 -0.032517001032829285
   vertex 0.11746200174093246 0.013577999547123909 -0.034935001283884048
   vertex 0.11084900051355362 0.015649000182747841 -0.034419000148773193
  endloop
 endfacet
 facet normal 0.35783231570526242 0.92186041625655535 0.14875956028538079
  outer loop
   vertex 0.098012000322341919 0.020007999613881111 -0.030553000047802925
   vertex 0.11074099689722061 0.015383999794721603 -0.032517001032829285
   vertex 0.11084900051355362 0.015649000182747841 -0.034419000148773193
  endloop
 endfacet
 facet normal 0.011763431437813858 0.60324488150988975 -0.79746926875769131
  outer loop
   vertex 0.11084900051355362 0.015649000182747841 -0.034419000148773193
   vertex 0.12310100346803665 0.011078000068664551 -0.037696000188589096
   vertex 0.12259399890899658 0.009252999909222126 -0.039083998650312424
  endloop
 endfacet
 facet normal 0.26521589707533044 0.91931095705686416 -0.29073680911387867
  outer loop
   vertex 0.11746200174093246 0.013577999547123909 -0.034935001283884048
   vertex 0.12310100346803665 0.011078000068664551 -0.037696000188589096
   vertex 0.11084900051355362 0.015649000182747841 -0.034419000148773193
  endloop
 endfacet
 facet normal -0.1803108923299088 0.62668328374139015 -0.75812666750767999
  outer loop
   vertex 0.12259399890899658 0.009252999909222126 -0.039083998650312424
   vertex 0.12310100346803665 0.011078000068664551 -0.037696000188589096
   vertex 0.12760299444198608 0.0085589997470378876 -0.040849000215530396
  endloop
 endfacet
 facet normal -0.82798799952274971 0.41236011780754644 -0.37999342874326314
  outer loop
   vertex 0.12853200733661652 0.0082569997757673264 -0.04320099949836731
   vertex 0.12721200287342072 0.005601000040769577 -0.043207000941038132
   vertex 0.12760299444198608 0.0085589997470378876 -0.040849000215530396
  endloop
 endfacet
 facet normal -0.015824121282806275 0.95396502246347425 -0.29950013873434195
  outer loop
   vertex 0.12855499982833862 0.0094569995999336243 -0.03803899884223938
   vertex 0.13411100208759308 0.0081639997661113739 -0.042451001703739166
   vertex 0.12760299444198608 0.0085589997470378876 -0.040849000215530396
  endloop
 endfacet
 facet normal 0.031990311076537825 0.99286763937225553 -0.1148497744211596
  outer loop
   vertex 0.12853200733661652 0.0082569997757673264 -0.04320099949836731
   vertex 0.12760299444198608 0.0085589997470378876 -0.040849000215530396
   vertex 0.13411100208759308 0.0081639997661113739 -0.042451001703739166
  endloop
 endfacet
 facet normal -0.72514765126325076 0.48528547076971534 -0.48852727224506792
  outer loop
   vertex 0.12721200287342072 0.005601000040769577 -0.043207000941038132
   vertex 0.12545500695705414 0.0052999998442828655 -0.040897998958826065
   vertex 0.12760299444198608 0.0085589997470378876 -0.040849000215530396
  endloop
 endfacet
 facet normal 0.24337584208394075 0.89695893653208214 -0.3690973661043509
  outer loop
   vertex 0.12310100346803665 0.011078000068664551 -0.037696000188589096
   vertex 0.12855499982833862 0.0094569995999336243 -0.03803899884223938
   vertex 0.12760299444198608 0.0085589997470378876 -0.040849000215530396
  endloop
 endfacet
 facet normal -0.69778446752490964 -0.41354147963724741 -0.58487629589547785
  outer loop
   vertex 0.12721200287342072 0.005601000040769577 -0.043207000941038132
   vertex 0.1256909966468811 0.0037350000347942114 -0.040072999894618988
   vertex 0.12545500695705414 0.0052999998442828655 -0.040897998958826065
  endloop
 endfacet
 facet normal -0.54386201692173097 -0.43687797227793296 -0.71648568993954687
  outer loop
   vertex 0.1256909966468811 0.0037350000347942114 -0.040072999894618988
   vertex 0.1315390020608902 0.0015569999814033508 -0.043184000998735428
   vertex 0.1285489946603775 -0.00094300002092495561 -0.039390001446008682
  endloop
 endfacet
 facet normal -0.51182644671601329 -0.73202731089605011 -0.44963285527678887
  outer loop
   vertex 0.1315390020608902 0.0015569999814033508 -0.043184000998735428
   vertex 0.1256909966468811 0.0037350000347942114 -0.040072999894618988
   vertex 0.12926700711250305 0.0037690000608563423 -0.044199001044034958
  endloop
 endfacet
 facet normal -0.67691942677203909 -0.43967504178821371 -0.59031004335615578
  outer loop
   vertex 0.12721200287342072 0.005601000040769577 -0.043207000941038132
   vertex 0.12926700711250305 0.0037690000608563423 -0.044199001044034958
   vertex 0.1256909966468811 0.0037350000347942114 -0.040072999894618988
  endloop
 endfacet
 facet normal 0.3666879083009173 0.83626699697044993 0.40767326093812384
  outer loop
   vertex 0.098012000322341919 0.020007999613881111 -0.030553000047802925
   vertex 0.099532000720500946 0.018231000751256943 -0.028274999931454659
   vertex 0.11074099689722061 0.015383999794721603 -0.032517001032829285
  endloop
 endfacet
 facet normal 0.35916067026023557 0.86391985538433513 0.35305254058132468
  outer loop
   vertex 0.11074099689722061 0.015383999794721603 -0.032517001032829285
   vertex 0.12856599688529968 0.0093630002811551094 -0.035916998982429504
   vertex 0.11746200174093246 0.013577999547123909 -0.034935001283884048
  endloop
 endfacet
 facet normal 0.3285673956886912 0.53205236438388559 0.78036129327630543
  outer loop
   vertex 0.12501600384712219 0.0076919998973608017 -0.033282998949289322
   vertex 0.12856599688529968 0.0093630002811551094 -0.035916998982429504
   vertex 0.11074099689722061 0.015383999794721603 -0.032517001032829285
  endloop
 endfacet
 facet normal 0.3387561887205735 0.51820413078761662 0.78530804366067852
  outer loop
   vertex 0.12501600384712219 0.0076919998973608017 -0.033282998949289322
   vertex 0.13279299437999725 0.0040219998918473721 -0.034216001629829407
   vertex 0.12856599688529968 0.0093630002811551094 -0.035916998982429504
  endloop
 endfacet
 facet normal 0.13814511936080967 -0.050637667680017269 0.98911665267991311
  outer loop
   vertex 0.12836399674415588 0.00053499999921768904 -0.034116998314857483
   vertex 0.13086800277233124 0.0028540000785142183 -0.034347999840974808
   vertex 0.12501600384712219 0.0076919998973608017 -0.033282998949289322
  endloop
 endfacet
 facet normal 0.036899823499201706 -0.17206352460526389 0.98439450756601732
  outer loop
   vertex 0.13086800277233124 0.0028540000785142183 -0.034347999840974808
   vertex 0.13279299437999725 0.0040219998918473721 -0.034216001629829407
   vertex 0.12501600384712219 0.0076919998973608017 -0.033282998949289322
  endloop
 endfacet
 facet normal 0.39940638797318689 -0.34673152704351068 0.84867649042511317
  outer loop
   vertex 0.13086800277233124 0.0028540000785142183 -0.034347999840974808
   vertex 0.12836399674415588 0.00053499999921768904 -0.034116998314857483
   vertex 0.13233399391174316 -0.0011749999830499291 -0.036683999001979828
  endloop
 endfacet
 facet normal 0.030031488416028696 -0.80982235815753012 0.58590601458911051
  outer loop
   vertex 0.12836399674415588 0.00053499999921768904 -0.034116998314857483
   vertex 0.12959299981594086 -0.00056399998720735312 -0.035698998719453812
   vertex 0.13233399391174316 -0.0011749999830499291 -0.036683999001979828
  endloop
 endfacet
 facet normal -0.16194526251192365 -0.97471399095789246 0.1539687233852442
  outer loop
   vertex 0.1325799971818924 -0.0018759999657049775 -0.040862999856472015
   vertex 0.13233399391174316 -0.0011749999830499291 -0.036683999001979828
   vertex 0.12959299981594086 -0.00056399998720735312 -0.035698998719453812
  endloop
 endfacet
 facet normal -0.17119568086618855 -0.97399140336658174 0.1484344468806299
  outer loop
   vertex 0.12959299981594086 -0.00056399998720735312 -0.035698998719453812
   vertex 0.1285489946603775 -0.00094300002092495561 -0.039390001446008682
   vertex 0.1325799971818924 -0.0018759999657049775 -0.040862999856472015
  endloop
 endfacet
 facet normal -0.33402982699908862 -0.86978293141935081 -0.36318277338899169
  outer loop
   vertex 0.13349300622940063 -0.0017740000039339066 -0.041946999728679657
   vertex 0.1325799971818924 -0.0018759999657049775 -0.040862999856472015
   vertex 0.1285489946603775 -0.00094300002092495561 -0.039390001446008682
  endloop
 endfacet
 facet normal -0.45768448241478982 -0.53281157290451953 -0.7117841964638707
  outer loop
   vertex 0.13349300622940063 -0.0017740000039339066 -0.041946999728679657
   vertex 0.1285489946603775 -0.00094300002092495561 -0.039390001446008682
   vertex 0.1315390020608902 0.0015569999814033508 -0.043184000998735428
  endloop
 endfacet
 facet normal 0.252368550056775 0.91544655030035305 -0.31347683883410615
  outer loop
   vertex 0.12855499982833862 0.0094569995999336243 -0.03803899884223938
   vertex 0.12310100346803665 0.011078000068664551 -0.037696000188589096
   vertex 0.11746200174093246 0.013577999547123909 -0.034935001283884048
  endloop
 endfacet
 facet normal 0.35765824221074355 0.93301777097839966 0.03947683899731242
  outer loop
   vertex 0.12856599688529968 0.0093630002811551094 -0.035916998982429504
   vertex 0.12855499982833862 0.0094569995999336243 -0.03803899884223938
   vertex 0.11746200174093246 0.013577999547123909 -0.034935001283884048
  endloop
 endfacet
 facet normal 0.09567429735627174 0.78301861666929129 -0.61459602567433935
  outer loop
   vertex 0.13411100208759308 0.0081639997661113739 -0.042451001703739166
   vertex 0.13419599831104279 0.0054919999092817307 -0.045841999351978302
   vertex 0.12853200733661652 0.0082569997757673264 -0.04320099949836731
  endloop
 endfacet
 facet normal -0.34526333376644475 0.17367631539002099 -0.92229592204943989
  outer loop
   vertex 0.13419599831104279 0.0054919999092817307 -0.045841999351978302
   vertex 0.12721200287342072 0.005601000040769577 -0.043207000941038132
   vertex 0.12853200733661652 0.0082569997757673264 -0.04320099949836731
  endloop
 endfacet
 facet normal -0.34925102453124129 0.11198611029035258 -0.93031329828499998
  outer loop
   vertex 0.13419599831104279 0.0054919999092817307 -0.045841999351978302
   vertex 0.12926700711250305 0.0037690000608563423 -0.044199001044034958
   vertex 0.12721200287342072 0.005601000040769577 -0.043207000941038132
  endloop
 endfacet
 facet normal 0.2575614221376239 0.96537338055162647 0.041428854060538228
  outer loop
   vertex 0.12855499982833862 0.0094569995999336243 -0.03803899884223938
   vertex 0.12856599688529968 0.0093630002811551094 -0.035916998982429504
   vertex 0.13411100208759308 0.0081639997661113739 -0.042451001703739166
  endloop
 endfacet
 facet normal 0.36460782115222262 0.92049927651671881 0.14050700582827214
  outer loop
   vertex 0.14015999436378479 0.0055249999277293682 -0.040858998894691467
   vertex 0.13411100208759308 0.0081639997661113739 -0.042451001703739166
   vertex 0.12856599688529968 0.0093630002811551094 -0.035916998982429504
  endloop
 endfacet
 facet normal -0.56454906687624196 0.64137829369333599 -0.5195365583557997
  outer loop
   vertex 0.13419599831104279 0.0054919999092817307 -0.045841999351978302
   vertex 0.13411100208759308 0.0081639997661113739 -0.042451001703739166
   vertex 0.13548000156879425 0.0069940001703798771 -0.045382998883724213
  endloop
 endfacet
 facet normal 0.42900008220595615 0.88993833828153424 -0.15481822736352571
  outer loop
   vertex 0.13411100208759308 0.0081639997661113739 -0.042451001703739166
   vertex 0.14015999436378479 0.0055249999277293682 -0.040858998894691467
   vertex 0.13548000156879425 0.0069940001703798771 -0.045382998883724213
  endloop
 endfacet
 facet normal -0.15647732782884366 -0.47811904915770448 -0.86424361189891186
  outer loop
   vertex 0.1315390020608902 0.0015569999814033508 -0.043184000998735428
   vertex 0.13419599831104279 0.0054919999092817307 -0.045841999351978302
   vertex 0.13760100305080414 0.0051819998770952225 -0.046287000179290771
  endloop
 endfacet
 facet normal -0.2995264165892077 -0.23289927339410546 -0.92522529916649277
  outer loop
   vertex 0.13811799883842468 0.0012120000319555402 -0.045226998627185822
   vertex 0.13568499684333801 -0.00073600001633167267 -0.043949000537395477
   vertex 0.1315390020608902 0.0015569999814033508 -0.043184000998735428
  endloop
 endfacet
 facet normal -0.29797267711879083 -0.28227913258286619 -0.9118830928353292
  outer loop
   vertex 0.13760100305080414 0.0051819998770952225 -0.046287000179290771
   vertex 0.13811799883842468 0.0012120000319555402 -0.045226998627185822
   vertex 0.1315390020608902 0.0015569999814033508 -0.043184000998735428
  endloop
 endfacet
 facet normal -0.42581581708614324 -0.52377595663004506 -0.7377937633075663
  outer loop
   vertex 0.13568499684333801 -0.00073600001633167267 -0.043949000537395477
   vertex 0.13349300622940063 -0.0017740000039339066 -0.041946999728679657
   vertex 0.1315390020608902 0.0015569999814033508 -0.043184000998735428
  endloop
 endfacet
 facet normal -0.10896109132692942 -0.50484212828787423 -0.85630713303266037
  outer loop
   vertex 0.1315390020608902 0.0015569999814033508 -0.043184000998735428
   vertex 0.12926700711250305 0.0037690000608563423 -0.044199001044034958
   vertex 0.13419599831104279 0.0054919999092817307 -0.045841999351978302
  endloop
 endfacet
 facet normal 0.46578995544330903 0.68368985830226714 0.56178990295549636
  outer loop
   vertex 0.13304300606250763 0.0054319999180734158 -0.034844998270273209
   vertex 0.14015999436378479 0.0055249999277293682 -0.040858998894691467
   vertex 0.12856599688529968 0.0093630002811551094 -0.035916998982429504
  endloop
 endfacet
 facet normal 0.12045588626171523 0.3865402920999797 0.91437245258601652
  outer loop
   vertex 0.13304300606250763 0.0054319999180734158 -0.034844998270273209
   vertex 0.12856599688529968 0.0093630002811551094 -0.035916998982429504
   vertex 0.13279299437999725 0.0040219998918473721 -0.034216001629829407
  endloop
 endfacet
 facet normal 0.43673924106117445 -0.77198741265063131 0.46183792614541008
  outer loop
   vertex 0.1351419985294342 0.003957000095397234 -0.036545999348163605
   vertex 0.13279299437999725 0.0040219998918473721 -0.034216001629829407
   vertex 0.13086800277233124 0.0028540000785142183 -0.034347999840974808
  endloop
 endfacet
 facet normal 0.69442717676533661 0.18685232077252198 0.6948792027335734
  outer loop
   vertex 0.13279299437999725 0.0040219998918473721 -0.034216001629829407
   vertex 0.1351419985294342 0.003957000095397234 -0.036545999348163605
   vertex 0.13304300606250763 0.0054319999180734158 -0.034844998270273209
  endloop
 endfacet
 facet normal 0.084168794559575225 -0.47670904122761648 0.87502234487710917
  outer loop
   vertex 0.13086800277233124 0.0028540000785142183 -0.034347999840974808
   vertex 0.13233399391174316 -0.0011749999830499291 -0.036683999001979828
   vertex 0.13505999743938446 0.00098400004208087921 -0.035769999027252197
  endloop
 endfacet
 facet normal 0.40029561248271212 0.22108497975921532 0.88931707188828768
  outer loop
   vertex 0.13505999743938446 0.00098400004208087921 -0.035769999027252197
   vertex 0.1351419985294342 0.003957000095397234 -0.036545999348163605
   vertex 0.13086800277233124 0.0028540000785142183 -0.034347999840974808
  endloop
 endfacet
 facet normal -0.40648055332143246 -0.90403912245969886 -0.13223775872949378
  outer loop
   vertex 0.13435600697994232 -0.0015640000347048044 -0.040240000933408737
   vertex 0.13553500175476074 -0.0022239999379962683 -0.039351999759674072
   vertex 0.13233399391174316 -0.0011749999830499291 -0.036683999001979828
  endloop
 endfacet
 facet normal 0.1120550936450906 -0.97891274713096432 0.17080248678721988
  outer loop
   vertex 0.13435600697994232 -0.0015640000347048044 -0.040240000933408737
   vertex 0.13233399391174316 -0.0011749999830499291 -0.036683999001979828
   vertex 0.1325799971818924 -0.0018759999657049775 -0.040862999856472015
  endloop
 endfacet
 facet normal 0.32186608606846101 -0.68367493808623303 0.65497389388566885
  outer loop
   vertex 0.13233399391174316 -0.0011749999830499291 -0.036683999001979828
   vertex 0.13553500175476074 -0.0022239999379962683 -0.039351999759674072
   vertex 0.13505999743938446 0.00098400004208087921 -0.035769999027252197
  endloop
 endfacet
 facet normal -0.074606545449551379 -0.79012889515857221 0.60838326112047003
  outer loop
   vertex 0.1325799971818924 -0.0018759999657049775 -0.040862999856472015
   vertex 0.13425600528717041 -0.0021689999848604202 -0.041037999093532562
   vertex 0.13435600697994232 -0.0015640000347048044 -0.040240000933408737
  endloop
 endfacet
 facet normal -0.1920694953785477 -0.94872878168045305 -0.2510438363237647
  outer loop
   vertex 0.13349300622940063 -0.0017740000039339066 -0.041946999728679657
   vertex 0.13425600528717041 -0.0021689999848604202 -0.041037999093532562
   vertex 0.1325799971818924 -0.0018759999657049775 -0.040862999856472015
  endloop
 endfacet
 facet normal -0.49541270035687934 -0.86779313046394602 0.038747116598396254
  outer loop
   vertex 0.13349300622940063 -0.0017740000039339066 -0.041946999728679657
   vertex 0.13499799370765686 -0.0026279999874532223 -0.04183100163936615
   vertex 0.13425600528717041 -0.0021689999848604202 -0.041037999093532562
  endloop
 endfacet
 facet normal -0.3178979111236408 -0.65352742472933811 -0.68690816215114603
  outer loop
   vertex 0.13349300622940063 -0.0017740000039339066 -0.041946999728679657
   vertex 0.13568499684333801 -0.00073600001633167267 -0.043949000537395477
   vertex 0.13499799370765686 -0.0026279999874532223 -0.04183100163936615
  endloop
 endfacet
 facet normal -0.088651623073127073 0.35964088304773562 -0.92886991821629428
  outer loop
   vertex 0.13419599831104279 0.0054919999092817307 -0.045841999351978302
   vertex 0.13548000156879425 0.0069940001703798771 -0.045382998883724213
   vertex 0.13760100305080414 0.0051819998770952225 -0.046287000179290771
  endloop
 endfacet
 facet normal 0.64471538759888958 0.036941087247310912 0.76352958362214096
  outer loop
   vertex 0.13304300606250763 0.0054319999180734158 -0.034844998270273209
   vertex 0.1351419985294342 0.003957000095397234 -0.036545999348163605
   vertex 0.14015999436378479 0.0055249999277293682 -0.040858998894691467
  endloop
 endfacet
 facet normal 0.9814709297791453 0.11535062840952524 -0.15300015203910028
  outer loop
   vertex 0.14024500548839569 0.0024459999985992908 -0.042635001242160797
   vertex 0.14015999436378479 0.0055249999277293682 -0.040858998894691467
   vertex 0.14058099687099457 0.0037640000227838755 -0.039485998451709747
  endloop
 endfacet
 facet normal 0.38914073119122633 0.62246574783669739 0.67904777747818224
  outer loop
   vertex 0.1351419985294342 0.003957000095397234 -0.036545999348163605
   vertex 0.14058099687099457 0.0037640000227838755 -0.039485998451709747
   vertex 0.14015999436378479 0.0055249999277293682 -0.040858998894691467
  endloop
 endfacet
 facet normal 0.86457535820657472 0.26877453764805481 -0.42458179175990013
  outer loop
   vertex 0.14015999436378479 0.0055249999277293682 -0.040858998894691467
   vertex 0.14024500548839569 0.0024459999985992908 -0.042635001242160797
   vertex 0.13760100305080414 0.0051819998770952225 -0.046287000179290771
  endloop
 endfacet
 facet normal 0.54042375446320468 0.7844202150273677 -0.30434699254027808
  outer loop
   vertex 0.13548000156879425 0.0069940001703798771 -0.045382998883724213
   vertex 0.14015999436378479 0.0055249999277293682 -0.040858998894691467
   vertex 0.13760100305080414 0.0051819998770952225 -0.046287000179290771
  endloop
 endfacet
 facet normal 0.78581795661824949 -0.061965468550342843 -0.61534577252440392
  outer loop
   vertex 0.13760100305080414 0.0051819998770952225 -0.046287000179290771
   vertex 0.14024500548839569 0.0024459999985992908 -0.042635001242160797
   vertex 0.13811799883842468 0.0012120000319555402 -0.045226998627185822
  endloop
 endfacet
 facet normal 0.82712550488413517 -0.36320881474479177 -0.42888548129057469
  outer loop
   vertex 0.13811799883842468 0.0012120000319555402 -0.045226998627185822
   vertex 0.13909900188446045 -0.0009619999909773469 -0.04149400070309639
   vertex 0.13812899589538574 -0.00043499999446794391 -0.043811000883579254
  endloop
 endfacet
 facet normal 0.79000109134572083 -0.41633614051088291 -0.45006943217360618
  outer loop
   vertex 0.13811799883842468 0.0012120000319555402 -0.045226998627185822
   vertex 0.14024500548839569 0.0024459999985992908 -0.042635001242160797
   vertex 0.13909900188446045 -0.0009619999909773469 -0.04149400070309639
  endloop
 endfacet
 facet normal 0.12214985868431835 -0.64657656592285928 -0.75300607993747537
  outer loop
   vertex 0.13812899589538574 -0.00043499999446794391 -0.043811000883579254
   vertex 0.13568499684333801 -0.00073600001633167267 -0.043949000537395477
   vertex 0.13811799883842468 0.0012120000319555402 -0.045226998627185822
  endloop
 endfacet
 facet normal 0.12956178119675418 -0.75999921636028722 -0.63687905915085152
  outer loop
   vertex 0.13812899589538574 -0.00043499999446794391 -0.043811000883579254
   vertex 0.13499799370765686 -0.0026279999874532223 -0.04183100163936615
   vertex 0.13568499684333801 -0.00073600001633167267 -0.043949000537395477
  endloop
 endfacet
 facet normal 0.47062033393212122 0.21066261637295655 0.85681839578321339
  outer loop
   vertex 0.14058099687099457 0.0037640000227838755 -0.039485998451709747
   vertex 0.1351419985294342 0.003957000095397234 -0.036545999348163605
   vertex 0.13505999743938446 0.00098400004208087921 -0.035769999027252197
  endloop
 endfacet
 facet normal 0.46877894179473867 0.21442224687345557 0.8568952116656644
  outer loop
   vertex 0.13908100128173828 0.00094900000840425491 -0.037960998713970184
   vertex 0.14058099687099457 0.0037640000227838755 -0.039485998451709747
   vertex 0.13505999743938446 0.00098400004208087921 -0.035769999027252197
  endloop
 endfacet
 facet normal 0.1540300603053526 -0.72579765596066703 0.67044202070300662
  outer loop
   vertex 0.13553500175476074 -0.0022239999379962683 -0.039351999759674072
   vertex 0.13861200213432312 -0.00082000001566484571 -0.038538999855518341
   vertex 0.13505999743938446 0.00098400004208087921 -0.035769999027252197
  endloop
 endfacet
 facet normal 0.43958936493204454 -0.38213578832308143 0.81285510979592113
  outer loop
   vertex 0.13908100128173828 0.00094900000840425491 -0.037960998713970184
   vertex 0.13505999743938446 0.00098400004208087921 -0.035769999027252197
   vertex 0.13861200213432312 -0.00082000001566484571 -0.038538999855518341
  endloop
 endfacet
 facet normal -0.67761663805043149 -0.5426655966362457 0.49633631950992485
  outer loop
   vertex 0.13425600528717041 -0.0021689999848604202 -0.041037999093532562
   vertex 0.13553500175476074 -0.0022239999379962683 -0.039351999759674072
   vertex 0.13435600697994232 -0.0015640000347048044 -0.040240000933408737
  endloop
 endfacet
 facet normal -0.33104617414507564 -0.91732002687460801 0.22120668814182953
  outer loop
   vertex 0.13425600528717041 -0.0021689999848604202 -0.041037999093532562
   vertex 0.13499799370765686 -0.0026279999874532223 -0.04183100163936615
   vertex 0.13553500175476074 -0.0022239999379962683 -0.039351999759674072
  endloop
 endfacet
 facet normal 0.38477449632127642 -0.91472486536080511 0.12339776201927331
  outer loop
   vertex 0.13553500175476074 -0.0022239999379962683 -0.039351999759674072
   vertex 0.13787199556827545 -0.00165200000628829 -0.042399000376462936
   vertex 0.13861200213432312 -0.00082000001566484571 -0.038538999855518341
  endloop
 endfacet
 facet normal 0.3347431001240212 -0.93886525215053351 0.080492827156676799
  outer loop
   vertex 0.13553500175476074 -0.0022239999379962683 -0.039351999759674072
   vertex 0.13499799370765686 -0.0026279999874532223 -0.04183100163936615
   vertex 0.13787199556827545 -0.00165200000628829 -0.042399000376462936
  endloop
 endfacet
 facet normal 0.13388683800447232 -0.76257519332155899 -0.6328928733520004
  outer loop
   vertex 0.13812899589538574 -0.00043499999446794391 -0.043811000883579254
   vertex 0.13787199556827545 -0.00165200000628829 -0.042399000376462936
   vertex 0.13499799370765686 -0.0026279999874532223 -0.04183100163936615
  endloop
 endfacet
 facet normal 0.95029539666724261 -0.31005385473951153 0.028377213291965755
  outer loop
   vertex 0.14024500548839569 0.0024459999985992908 -0.042635001242160797
   vertex 0.14058099687099457 0.0037640000227838755 -0.039485998451709747
   vertex 0.13909900188446045 -0.0009619999909773469 -0.04149400070309639
  endloop
 endfacet
 facet normal 0.95818063305502743 -0.28329475920520947 -0.040422194956845979
  outer loop
   vertex 0.14058099687099457 0.0037640000227838755 -0.039485998451709747
   vertex 0.13959899544715881 0.00034900000900961459 -0.038830000907182693
   vertex 0.13909900188446045 -0.0009619999909773469 -0.04149400070309639
  endloop
 endfacet
 facet normal 0.81229787135111975 -0.12410965626175287 0.56988504228574832
  outer loop
   vertex 0.14058099687099457 0.0037640000227838755 -0.039485998451709747
   vertex 0.13908100128173828 0.00094900000840425491 -0.037960998713970184
   vertex 0.13959899544715881 0.00034900000900961459 -0.038830000907182693
  endloop
 endfacet
 facet normal 0.65963081782994215 -0.62450005158547461 -0.41819477488216106
  outer loop
   vertex 0.13812899589538574 -0.00043499999446794391 -0.043811000883579254
   vertex 0.13909900188446045 -0.0009619999909773469 -0.04149400070309639
   vertex 0.13787199556827545 -0.00165200000628829 -0.042399000376462936
  endloop
 endfacet
 facet normal 0.77352608880985374 -0.6140133976600074 0.15698706132845452
  outer loop
   vertex 0.13959899544715881 0.00034900000900961459 -0.038830000907182693
   vertex 0.13861200213432312 -0.00082000001566484571 -0.038538999855518341
   vertex 0.13909900188446045 -0.0009619999909773469 -0.04149400070309639
  endloop
 endfacet
 facet normal 0.42249334259668936 -0.89931385507827177 0.11284487372376978
  outer loop
   vertex 0.13861200213432312 -0.00082000001566484571 -0.038538999855518341
   vertex 0.13787199556827545 -0.00165200000628829 -0.042399000376462936
   vertex 0.13909900188446045 -0.0009619999909773469 -0.04149400070309639
  endloop
 endfacet
 facet normal 0.65026859582922225 -0.38616491808182829 0.6542380372014045
  outer loop
   vertex 0.13959899544715881 0.00034900000900961459 -0.038830000907182693
   vertex 0.13908100128173828 0.00094900000840425491 -0.037960998713970184
   vertex 0.13861200213432312 -0.00082000001566484571 -0.038538999855518341
  endloop
 endfacet
endsolid
