solid Visualization Toolkit generated SLA File
 facet normal 0.087525979466410164 0.76683835232360964 0.63584443405919433
  outer loop
   vertex 0.017653999850153923 -0.001382000045850873 -0.034474000334739685
   vertex 0.020309999585151672 -0.0015160000184550881 -0.034678000956773758
   vertex 0.018136000260710716 -4.400000034365803e-05 -0.036153998225927353
  endloop
 endfacet
 facet normal 0.61928037400652247 0.51789969648207201 0.59014550981441805
  outer loop
   vertex 0.017653999850153923 -0.001382000045850873 -0.034474000334739685
   vertex 0.018136000260710716 -4.400000034365803e-05 -0.036153998225927353
   vertex 0.015882000327110291 0.00040300001273863018 -0.034180998802185059
  endloop
 endfacet
 facet normal 0.089947746099245121 0.38360191751272982 0.91910770416324039
  outer loop
   vertex 0.020137999206781387 -0.0029539999086409807 -0.034060999751091003
   vertex 0.020309999585151672 -0.0015160000184550881 -0.034678000956773758
   vertex 0.017653999850153923 -0.001382000045850873 -0.034474000334739685
  endloop
 endfacet
 facet normal 0.43806746808607799 0.29552004083335925 0.84897867986805342
  outer loop
   vertex 0.015882000327110291 0.00040300001273863018 -0.034180998802185059
   vertex 0.016085000708699226 -0.0037589999847114086 -0.032836999744176865
   vertex 0.017653999850153923 -0.001382000045850873 -0.034474000334739685
  endloop
 endfacet
 facet normal 0.84361395129561245 -0.21931078530108902 0.49012067965963624
  outer loop
   vertex 0.017653999850153923 -0.001382000045850873 -0.034474000334739685
   vertex 0.016085000708699226 -0.0037589999847114086 -0.032836999744176865
   vertex 0.016029000282287598 -0.0048079998232424259 -0.033209998160600662
  endloop
 endfacet
 facet normal 0.1463262374232763 0.2805799264060484 0.94861137308147603
  outer loop
   vertex 0.017653999850153923 -0.001382000045850873 -0.034474000334739685
   vertex 0.016029000282287598 -0.0048079998232424259 -0.033209998160600662
   vertex 0.017389999702572823 -0.0037090000696480274 -0.033744998276233673
  endloop
 endfacet
 facet normal 0.028502237282763004 0.29588534838553865 0.95479813734665686
  outer loop
   vertex 0.020137999206781387 -0.0029539999086409807 -0.034060999751091003
   vertex 0.017653999850153923 -0.001382000045850873 -0.034474000334739685
   vertex 0.017389999702572823 -0.0037090000696480274 -0.033744998276233673
  endloop
 endfacet
 facet normal -0.17258028724140512 0.55860187043684206 0.81128293141180752
  outer loop
   vertex 0.020309999585151672 -0.0015160000184550881 -0.034678000956773758
   vertex 0.021252000704407692 5.6000000768108293e-05 -0.035560000687837601
   vertex 0.018136000260710716 -4.400000034365803e-05 -0.036153998225927353
  endloop
 endfacet
 facet normal 0.26416826133081528 0.35344139403783498 0.89738192019120044
  outer loop
   vertex 0.020990999415516853 -0.0031979999039322138 -0.034216001629829407
   vertex 0.020309999585151672 -0.0015160000184550881 -0.034678000956773758
   vertex 0.020137999206781387 -0.0029539999086409807 -0.034060999751091003
  endloop
 endfacet
 facet normal 0.25680435798182871 0.35127892315933734 0.90036361536079246
  outer loop
   vertex 0.020990999415516853 -0.0031979999039322138 -0.034216001629829407
   vertex 0.021252000704407692 5.6000000768108293e-05 -0.035560000687837601
   vertex 0.020309999585151672 -0.0015160000184550881 -0.034678000956773758
  endloop
 endfacet
 facet normal 0.46986621044168869 0.87950256473687594 -0.075504853528921917
  outer loop
   vertex 0.018136000260710716 -4.400000034365803e-05 -0.036153998225927353
   vertex 0.020003000274300575 -0.0013139999937266111 -0.039328999817371368
   vertex 0.016627000644803047 0.0006910000229254365 -0.036982998251914978
  endloop
 endfacet
 facet normal 0.037133706695387826 0.93517499709010676 -0.3522340310710762
  outer loop
   vertex 0.020003000274300575 -0.0013139999937266111 -0.039328999817371368
   vertex 0.018136000260710716 -4.400000034365803e-05 -0.036153998225927353
   vertex 0.021252000704407692 5.6000000768108293e-05 -0.035560000687837601
  endloop
 endfacet
 facet normal 0.34555721463514205 0.91969698987747306 0.18640723758458883
  outer loop
   vertex 0.016627000644803047 0.0006910000229254365 -0.036982998251914978
   vertex 0.015882000327110291 0.00040300001273863018 -0.034180998802185059
   vertex 0.018136000260710716 -4.400000034365803e-05 -0.036153998225927353
  endloop
 endfacet
 facet normal 0.44634476837425485 0.87032083792873927 0.20812973553039002
  outer loop
   vertex 0.016627000644803047 0.0006910000229254365 -0.036982998251914978
   vertex 0.01537299994379282 0.00070899998536333442 -0.034368999302387238
   vertex 0.015882000327110291 0.00040300001273863018 -0.034180998802185059
  endloop
 endfacet
 facet normal 0.17502286209970344 0.31027345686831515 0.93439679992250302
  outer loop
   vertex 0.015882000327110291 0.00040300001273863018 -0.034180998802185059
   vertex 0.014498000033199787 -0.0021349999587982893 -0.033078998327255249
   vertex 0.016085000708699226 -0.0037589999847114086 -0.032836999744176865
  endloop
 endfacet
 facet normal -0.50587278181702311 -0.35980260771492084 0.78398648719110531
  outer loop
   vertex 0.014026000164449215 0.00055900000734254718 -0.035307001322507858
   vertex 0.015882000327110291 0.00040300001273863018 -0.034180998802185059
   vertex 0.01537299994379282 0.00070899998536333442 -0.034368999302387238
  endloop
 endfacet
 facet normal -0.4027649358300136 0.54039760251324187 0.73874950941695072
  outer loop
   vertex 0.015882000327110291 0.00040300001273863018 -0.034180998802185059
   vertex 0.014026000164449215 0.00055900000734254718 -0.035307001322507858
   vertex 0.014498000033199787 -0.0021349999587982893 -0.033078998327255249
  endloop
 endfacet
 facet normal 0.17006846657249752 -0.031143896745297377 0.98493998516315573
  outer loop
   vertex 0.020990999415516853 -0.0031979999039322138 -0.034216001629829407
   vertex 0.020137999206781387 -0.0029539999086409807 -0.034060999751091003
   vertex 0.021477999165654182 -0.0035429999697953463 -0.034311000257730484
  endloop
 endfacet
 facet normal 0.28403824290526186 -0.91803752248428261 0.27663944743693347
  outer loop
   vertex 0.017389999702572823 -0.0037090000696480274 -0.033744998276233673
   vertex 0.015494000166654587 -0.0059810001403093338 -0.039338000118732452
   vertex 0.020137999206781387 -0.0029539999086409807 -0.034060999751091003
  endloop
 endfacet
 facet normal -0.30086593852819582 -0.85969522891749628 0.41279995204704384
  outer loop
   vertex 0.018302999436855316 -0.005563999991863966 -0.040833998471498489
   vertex 0.021477999165654182 -0.0035429999697953463 -0.034311000257730484
   vertex 0.020137999206781387 -0.0029539999086409807 -0.034060999751091003
  endloop
 endfacet
 facet normal 0.28375327034882381 -0.91804819502817614 0.2768963581773064
  outer loop
   vertex 0.015494000166654587 -0.0059810001403093338 -0.039338000118732452
   vertex 0.018302999436855316 -0.005563999991863966 -0.040833998471498489
   vertex 0.020137999206781387 -0.0029539999086409807 -0.034060999751091003
  endloop
 endfacet
 facet normal 0.022435507456149941 0.16876285860015242 0.98540131193452851
  outer loop
   vertex 0.016085000708699226 -0.0037589999847114086 -0.032836999744176865
   vertex 0.014498000033199787 -0.0021349999587982893 -0.033078998327255249
   vertex 0.015522999688982964 -0.0044200001284480095 -0.032710999250411987
  endloop
 endfacet
 facet normal 0.53793665579609229 -0.30777080216488606 0.78479378672725164
  outer loop
   vertex 0.015522999688982964 -0.0044200001284480095 -0.032710999250411987
   vertex 0.016029000282287598 -0.0048079998232424259 -0.033209998160600662
   vertex 0.016085000708699226 -0.0037589999847114086 -0.032836999744176865
  endloop
 endfacet
 facet normal 0.64661904318566077 -0.75765317219915151 0.088574734807525118
  outer loop
   vertex 0.017389999702572823 -0.0037090000696480274 -0.033744998276233673
   vertex 0.016029000282287598 -0.0048079998232424259 -0.033209998160600662
   vertex 0.015494000166654587 -0.0059810001403093338 -0.039338000118732452
  endloop
 endfacet
 facet normal 0.064792339725560963 -0.95864186317856559 0.27714207705510169
  outer loop
   vertex 0.016029000282287598 -0.0048079998232424259 -0.033209998160600662
   vertex 0.013650000095367432 -0.0065729999914765358 -0.038759000599384308
   vertex 0.014945000410079956 -0.0063840001821517944 -0.038408000022172928
  endloop
 endfacet
 facet normal 0.67559677578504362 -0.73277694280912509 0.081283138695339041
  outer loop
   vertex 0.016029000282287598 -0.0048079998232424259 -0.033209998160600662
   vertex 0.014945000410079956 -0.0063840001821517944 -0.038408000022172928
   vertex 0.015494000166654587 -0.0059810001403093338 -0.039338000118732452
  endloop
 endfacet
 facet normal 0.20105958568718832 -0.95510575386731189 0.21759605219959743
  outer loop
   vertex 0.013650000095367432 -0.0065729999914765358 -0.038759000599384308
   vertex 0.016029000282287598 -0.0048079998232424259 -0.033209998160600662
   vertex 0.014930999837815762 -0.0050559998489916325 -0.033284001052379608
  endloop
 endfacet
 facet normal 0.11735595203176959 -0.72279966644672344 0.68101998701008959
  outer loop
   vertex 0.014930999837815762 -0.0050559998489916325 -0.033284001052379608
   vertex 0.016029000282287598 -0.0048079998232424259 -0.033209998160600662
   vertex 0.015522999688982964 -0.0044200001284480095 -0.032710999250411987
  endloop
 endfacet
 facet normal -0.011798950135596134 0.94102069869250304 -0.33814320843094159
  outer loop
   vertex 0.020003000274300575 -0.0013139999937266111 -0.039328999817371368
   vertex 0.021252000704407692 5.6000000768108293e-05 -0.035560000687837601
   vertex 0.02275099977850914 -0.0019859999883919954 -0.041294999420642853
  endloop
 endfacet
 facet normal 0.51510669405738341 0.29158720265254345 0.80600372020638833
  outer loop
   vertex 0.023657999932765961 -0.0010100000072270632 -0.036711998283863068
   vertex 0.021252000704407692 5.6000000768108293e-05 -0.035560000687837601
   vertex 0.020990999415516853 -0.0031979999039322138 -0.034216001629829407
  endloop
 endfacet
 facet normal 0.28773972687356481 0.92351700159773686 -0.25361821176455779
  outer loop
   vertex 0.02275099977850914 -0.0019859999883919954 -0.041294999420642853
   vertex 0.021252000704407692 5.6000000768108293e-05 -0.035560000687837601
   vertex 0.023657999932765961 -0.0010100000072270632 -0.036711998283863068
  endloop
 endfacet
 facet normal 0.27235248572460491 0.56033765100674993 0.78220575322856478
  outer loop
   vertex 0.022131999954581261 -0.0034719998948276043 -0.034416999667882919
   vertex 0.023657999932765961 -0.0010100000072270632 -0.036711998283863068
   vertex 0.020990999415516853 -0.0031979999039322138 -0.034216001629829407
  endloop
 endfacet
 facet normal 0.1640727331234049 -0.0398015522860568 0.98564495366284721
  outer loop
   vertex 0.020990999415516853 -0.0031979999039322138 -0.034216001629829407
   vertex 0.021477999165654182 -0.0035429999697953463 -0.034311000257730484
   vertex 0.022131999954581261 -0.0034719998948276043 -0.034416999667882919
  endloop
 endfacet
 facet normal 0.233321726967399 0.87912231944586072 -0.41557781362469359
  outer loop
   vertex 0.016627000644803047 0.0006910000229254365 -0.036982998251914978
   vertex 0.020003000274300575 -0.0013139999937266111 -0.039328999817371368
   vertex 0.015499000437557697 -0.00047599998652003706 -0.040084999054670334
  endloop
 endfacet
 facet normal 0.23600049746822588 0.53896152778400275 -0.80859398758801282
  outer loop
   vertex 0.020003000274300575 -0.0013139999937266111 -0.039328999817371368
   vertex 0.01846499927341938 -0.003085999982431531 -0.040959000587463379
   vertex 0.015499000437557697 -0.00047599998652003706 -0.040084999054670334
  endloop
 endfacet
 facet normal -0.42957200817686164 0.78440434182802321 -0.44741224649336975
  outer loop
   vertex 0.019902000203728676 -0.0025539998896420002 -0.041405998170375824
   vertex 0.01846499927341938 -0.003085999982431531 -0.040959000587463379
   vertex 0.020003000274300575 -0.0013139999937266111 -0.039328999817371368
  endloop
 endfacet
 facet normal -0.15034008623937725 0.852063269651128 -0.5013841271729349
  outer loop
   vertex 0.020003000274300575 -0.0013139999937266111 -0.039328999817371368
   vertex 0.02275099977850914 -0.0019859999883919954 -0.041294999420642853
   vertex 0.019902000203728676 -0.0025539998896420002 -0.041405998170375824
  endloop
 endfacet
 facet normal 0.019225332902871161 0.93345966645599154 -0.35816677354919874
  outer loop
   vertex 0.014507999643683434 0.00058499997248873115 -0.037372998893260956
   vertex 0.016627000644803047 0.0006910000229254365 -0.036982998251914978
   vertex 0.015499000437557697 -0.00047599998652003706 -0.040084999054670334
  endloop
 endfacet
 facet normal -0.079544496316732244 0.99581432725645946 -0.045016649547500419
  outer loop
   vertex 0.016627000644803047 0.0006910000229254365 -0.036982998251914978
   vertex 0.014026000164449215 0.00055900000734254718 -0.035307001322507858
   vertex 0.01537299994379282 0.00070899998536333442 -0.034368999302387238
  endloop
 endfacet
 facet normal -0.050121820618804165 0.99874272801551645 0.00087540503797123466
  outer loop
   vertex 0.016627000644803047 0.0006910000229254365 -0.036982998251914978
   vertex 0.014507999643683434 0.00058499997248873115 -0.037372998893260956
   vertex 0.014026000164449215 0.00055900000734254718 -0.035307001322507858
  endloop
 endfacet
 facet normal -0.93195368877286022 0.11975110440629939 0.3422309088556002
  outer loop
   vertex 0.014498000033199787 -0.0021349999587982893 -0.033078998327255249
   vertex 0.014026000164449215 0.00055900000734254718 -0.035307001322507858
   vertex 0.014019999653100967 -0.0035830000415444374 -0.033874001353979111
  endloop
 endfacet
 facet normal -0.66277134115293956 -0.18025269253622264 0.72680335454631451
  outer loop
   vertex 0.014019999653100967 -0.0035830000415444374 -0.033874001353979111
   vertex 0.015522999688982964 -0.0044200001284480095 -0.032710999250411987
   vertex 0.014498000033199787 -0.0021349999587982893 -0.033078998327255249
  endloop
 endfacet
 facet normal 0.017143202328767301 0.99971555586281713 0.016580650765681691
  outer loop
   vertex 0.014026000164449215 0.00055900000734254718 -0.035307001322507858
   vertex 0.014507999643683434 0.00058499997248873115 -0.037372998893260956
   vertex 0.013752000406384468 0.00057700002798810601 -0.036109000444412231
  endloop
 endfacet
 facet normal -0.99933051540923779 0.013246469639274325 0.034103548407796516
  outer loop
   vertex 0.013961999677121639 -0.004155999980866909 -0.035351000726222992
   vertex 0.014019999653100967 -0.0035830000415444374 -0.033874001353979111
   vertex 0.014026000164449215 0.00055900000734254718 -0.035307001322507858
  endloop
 endfacet
 facet normal -0.80516497366541862 0.5191278857959275 0.28673263394914827
  outer loop
   vertex 0.013752000406384468 0.00057700002798810601 -0.036109000444412231
   vertex 0.013346999883651733 0.00015100000018719584 -0.036474999040365219
   vertex 0.014026000164449215 0.00055900000734254718 -0.035307001322507858
  endloop
 endfacet
 facet normal -0.63852934406138384 -0.53128831856839476 0.55678810989936434
  outer loop
   vertex 0.013346999883651733 0.00015100000018719584 -0.036474999040365219
   vertex 0.012887000106275082 -0.00060299999313428998 -0.037721998989582062
   vertex 0.014026000164449215 0.00055900000734254718 -0.035307001322507858
  endloop
 endfacet
 facet normal -0.89479316721189817 -0.045922728378164489 0.44411292587494622
  outer loop
   vertex 0.013772999867796898 -0.0036599999293684959 -0.036253001540899277
   vertex 0.014026000164449215 0.00055900000734254718 -0.035307001322507858
   vertex 0.012887000106275082 -0.00060299999313428998 -0.037721998989582062
  endloop
 endfacet
 facet normal -0.97741755080330706 0.011298127334612208 0.21101488975993082
  outer loop
   vertex 0.013961999677121639 -0.004155999980866909 -0.035351000726222992
   vertex 0.014026000164449215 0.00055900000734254718 -0.035307001322507858
   vertex 0.013772999867796898 -0.0036599999293684959 -0.036253001540899277
  endloop
 endfacet
 facet normal 0.1417185693448183 -0.96296623311178242 0.22937279914881481
  outer loop
   vertex 0.018302999436855316 -0.005563999991863966 -0.040833998471498489
   vertex 0.022131999954581261 -0.0034719998948276043 -0.034416999667882919
   vertex 0.021477999165654182 -0.0035429999697953463 -0.034311000257730484
  endloop
 endfacet
 facet normal 0.055910640700437129 -0.22339566623620466 -0.97312300176460176
  outer loop
   vertex 0.012992000207304955 -0.0025430000387132168 -0.040270999073982239
   vertex 0.015494000166654587 -0.0059810001403093338 -0.039338000118732452
   vertex 0.012866999953985214 -0.0045650000683963299 -0.039813999086618423
  endloop
 endfacet
 facet normal 0.011509360062097069 -0.25407824668164081 -0.9671151840365988
  outer loop
   vertex 0.015494000166654587 -0.0059810001403093338 -0.039338000118732452
   vertex 0.012992000207304955 -0.0025430000387132168 -0.040270999073982239
   vertex 0.015228999778628349 -0.0018060000147670507 -0.040438000112771988
  endloop
 endfacet
 facet normal -0.42457561421176632 -0.2557786131501672 -0.86851185879737902
  outer loop
   vertex 0.018302999436855316 -0.005563999991863966 -0.040833998471498489
   vertex 0.015494000166654587 -0.0059810001403093338 -0.039338000118732452
   vertex 0.015228999778628349 -0.0018060000147670507 -0.040438000112771988
  endloop
 endfacet
 facet normal -0.093875728642304021 -0.53115568859141704 -0.84205758832092592
  outer loop
   vertex 0.015494000166654587 -0.0059810001403093338 -0.039338000118732452
   vertex 0.013650000095367432 -0.0065729999914765358 -0.038759000599384308
   vertex 0.013004999607801437 -0.0055949999950826168 -0.039303999394178391
  endloop
 endfacet
 facet normal 0.21256148649367707 -0.93612022944421536 -0.28017232283883436
  outer loop
   vertex 0.013650000095367432 -0.0065729999914765358 -0.038759000599384308
   vertex 0.015494000166654587 -0.0059810001403093338 -0.039338000118732452
   vertex 0.014945000410079956 -0.0063840001821517944 -0.038408000022172928
  endloop
 endfacet
 facet normal -0.082089129640739875 -0.45104336261773759 -0.8887188868440401
  outer loop
   vertex 0.015494000166654587 -0.0059810001403093338 -0.039338000118732452
   vertex 0.013004999607801437 -0.0055949999950826168 -0.039303999394178391
   vertex 0.012866999953985214 -0.0045650000683963299 -0.039813999086618423
  endloop
 endfacet
 facet normal -0.15092426108763676 -0.039959465309312443 -0.98773736820439506
  outer loop
   vertex 0.01846499927341938 -0.003085999982431531 -0.040959000587463379
   vertex 0.021952999755740166 -0.004666999913752079 -0.04142799973487854
   vertex 0.018302999436855316 -0.005563999991863966 -0.040833998471498489
  endloop
 endfacet
 facet normal -0.17358425052328269 -0.038293278107609886 -0.98407425168126594
  outer loop
   vertex 0.018302999436855316 -0.005563999991863966 -0.040833998471498489
   vertex 0.015228999778628349 -0.0018060000147670507 -0.040438000112771988
   vertex 0.01846499927341938 -0.003085999982431531 -0.040959000587463379
  endloop
 endfacet
 facet normal 0.48737194651268417 -0.87317280827207955 -0.0061508248786375543
  outer loop
   vertex 0.023832999169826508 -0.0025110000278800726 -0.036058999598026276
   vertex 0.022131999954581261 -0.0034719998948276043 -0.034416999667882919
   vertex 0.018302999436855316 -0.005563999991863966 -0.040833998471498489
  endloop
 endfacet
 facet normal 0.27144529457610894 -0.92224301144746068 0.27529126373499135
  outer loop
   vertex 0.023832999169826508 -0.0025110000278800726 -0.036058999598026276
   vertex 0.018302999436855316 -0.005563999991863966 -0.040833998471498489
   vertex 0.021952999755740166 -0.004666999913752079 -0.04142799973487854
  endloop
 endfacet
 facet normal -0.64056490366981167 -0.090743814356123859 0.76252355002490657
  outer loop
   vertex 0.014930999837815762 -0.0050559998489916325 -0.033284001052379608
   vertex 0.015522999688982964 -0.0044200001284480095 -0.032710999250411987
   vertex 0.014019999653100967 -0.0035830000415444374 -0.033874001353979111
  endloop
 endfacet
 facet normal -0.66284450540624229 -0.66714275432263992 0.33993779873317403
  outer loop
   vertex 0.014930999837815762 -0.0050559998489916325 -0.033284001052379608
   vertex 0.013659999705851078 -0.004503999836742878 -0.034678999334573746
   vertex 0.013650000095367432 -0.0065729999914765358 -0.038759000599384308
  endloop
 endfacet
 facet normal -0.81900631246485434 -0.57109054257799385 -0.055536045238149492
  outer loop
   vertex 0.012984000146389008 -0.0056420001201331615 -0.038511000573635101
   vertex 0.013004999607801437 -0.0055949999950826168 -0.039303999394178391
   vertex 0.013650000095367432 -0.0065729999914765358 -0.038759000599384308
  endloop
 endfacet
 facet normal -0.71364720389763003 -0.6047078320192617 0.35360444887424519
  outer loop
   vertex 0.012984000146389008 -0.0056420001201331615 -0.038511000573635101
   vertex 0.013650000095367432 -0.0065729999914765358 -0.038759000599384308
   vertex 0.013151999562978745 -0.0049069998785853386 -0.036915000528097153
  endloop
 endfacet
 facet normal -0.79156161098491473 -0.54423188519250087 0.27792421836677561
  outer loop
   vertex 0.013151999562978745 -0.0049069998785853386 -0.036915000528097153
   vertex 0.013650000095367432 -0.0065729999914765358 -0.038759000599384308
   vertex 0.013659999705851078 -0.004503999836742878 -0.034678999334573746
  endloop
 endfacet
 facet normal -0.76296563707084386 -0.22986377595310456 0.60419043451023158
  outer loop
   vertex 0.014930999837815762 -0.0050559998489916325 -0.033284001052379608
   vertex 0.014019999653100967 -0.0035830000415444374 -0.033874001353979111
   vertex 0.013659999705851078 -0.004503999836742878 -0.034678999334573746
  endloop
 endfacet
 facet normal 0.92946760316372035 0.27752084677180272 -0.24304763787404007
  outer loop
   vertex 0.02275099977850914 -0.0019859999883919954 -0.041294999420642853
   vertex 0.023657999932765961 -0.0010100000072270632 -0.036711998283863068
   vertex 0.023854000493884087 -0.0015920000150799751 -0.036626998335123062
  endloop
 endfacet
 facet normal -0.12496742818527783 0.75305507907759484 -0.64598079674878472
  outer loop
   vertex 0.02275099977850914 -0.0019859999883919954 -0.041294999420642853
   vertex 0.022460000589489937 -0.0023920000530779362 -0.041712000966072083
   vertex 0.019902000203728676 -0.0025539998896420002 -0.041405998170375824
  endloop
 endfacet
 facet normal 0.88632015746438331 -0.40539953239412557 -0.22380303306017726
  outer loop
   vertex 0.023832999169826508 -0.0025110000278800726 -0.036058999598026276
   vertex 0.022460000589489937 -0.0023920000530779362 -0.041712000966072083
   vertex 0.02275099977850914 -0.0019859999883919954 -0.041294999420642853
  endloop
 endfacet
 facet normal 0.96431507984177023 -0.1547919791933173 -0.2147926208396741
  outer loop
   vertex 0.023854000493884087 -0.0015920000150799751 -0.036626998335123062
   vertex 0.023832999169826508 -0.0025110000278800726 -0.036058999598026276
   vertex 0.02275099977850914 -0.0019859999883919954 -0.041294999420642853
  endloop
 endfacet
 facet normal 0.51478594643984144 0.39176837592395342 0.76256997644409308
  outer loop
   vertex 0.022131999954581261 -0.0034719998948276043 -0.034416999667882919
   vertex 0.023832999169826508 -0.0025110000278800726 -0.036058999598026276
   vertex 0.023657999932765961 -0.0010100000072270632 -0.036711998283863068
  endloop
 endfacet
 facet normal 0.74927473133170774 0.33570761164947888 0.57086581301423178
  outer loop
   vertex 0.023854000493884087 -0.0015920000150799751 -0.036626998335123062
   vertex 0.023657999932765961 -0.0010100000072270632 -0.036711998283863068
   vertex 0.023832999169826508 -0.0025110000278800726 -0.036058999598026276
  endloop
 endfacet
 facet normal 0.11219439433049647 0.23357268910644391 -0.9658448202399792
  outer loop
   vertex 0.015228999778628349 -0.0018060000147670507 -0.040438000112771988
   vertex 0.013333999551832676 -0.00053600000683218241 -0.040350999683141708
   vertex 0.015499000437557697 -0.00047599998652003706 -0.040084999054670334
  endloop
 endfacet
 facet normal -0.04992253189309493 0.26566792831032687 -0.96277115280666881
  outer loop
   vertex 0.015228999778628349 -0.0018060000147670507 -0.040438000112771988
   vertex 0.015499000437557697 -0.00047599998652003706 -0.040084999054670334
   vertex 0.01846499927341938 -0.003085999982431531 -0.040959000587463379
  endloop
 endfacet
 facet normal 0.077842236420399974 0.93776563289738246 -0.33843197837326505
  outer loop
   vertex 0.015499000437557697 -0.00047599998652003706 -0.040084999054670334
   vertex 0.013245999813079834 -0.00021499999274965376 -0.039880000054836273
   vertex 0.014507999643683434 0.00058499997248873115 -0.037372998893260956
  endloop
 endfacet
 facet normal 0.045422582148124828 0.82941464334490889 -0.55678374476634496
  outer loop
   vertex 0.013245999813079834 -0.00021499999274965376 -0.039880000054836273
   vertex 0.015499000437557697 -0.00047599998652003706 -0.040084999054670334
   vertex 0.013333999551832676 -0.00053600000683218241 -0.040350999683141708
  endloop
 endfacet
 facet normal -0.22092019048147915 -0.20450842957837195 -0.95360923426161037
  outer loop
   vertex 0.01846499927341938 -0.003085999982431531 -0.040959000587463379
   vertex 0.019902000203728676 -0.0025539998896420002 -0.041405998170375824
   vertex 0.021952999755740166 -0.004666999913752079 -0.04142799973487854
  endloop
 endfacet
 facet normal -0.11205136320025091 -0.098467528768988136 -0.98881173020099944
  outer loop
   vertex 0.019902000203728676 -0.0025539998896420002 -0.041405998170375824
   vertex 0.022460000589489937 -0.0023920000530779362 -0.041712000966072083
   vertex 0.021952999755740166 -0.004666999913752079 -0.04142799973487854
  endloop
 endfacet
 facet normal -0.27536912815532777 0.94730312860734722 -0.16367231222692
  outer loop
   vertex 0.013081000186502934 0.00011300000187475234 -0.037703998386859894
   vertex 0.014507999643683434 0.00058499997248873115 -0.037372998893260956
   vertex 0.013245999813079834 -0.00021499999274965376 -0.039880000054836273
  endloop
 endfacet
 facet normal -0.27649900127303467 0.94770643524557097 -0.15937633101921614
  outer loop
   vertex 0.013752000406384468 0.00057700002798810601 -0.036109000444412231
   vertex 0.014507999643683434 0.00058499997248873115 -0.037372998893260956
   vertex 0.013081000186502934 0.00011300000187475234 -0.037703998386859894
  endloop
 endfacet
 facet normal -0.87040202700591518 0.46957328014423833 -0.14799069551351762
  outer loop
   vertex 0.013961999677121639 -0.004155999980866909 -0.035351000726222992
   vertex 0.013659999705851078 -0.004503999836742878 -0.034678999334573746
   vertex 0.014019999653100967 -0.0035830000415444374 -0.033874001353979111
  endloop
 endfacet
 facet normal -0.91770177106251782 0.24070561868762805 0.31604471917898652
  outer loop
   vertex 0.013752000406384468 0.00057700002798810601 -0.036109000444412231
   vertex 0.013081000186502934 0.00011300000187475234 -0.037703998386859894
   vertex 0.012887000106275082 -0.00060299999313428998 -0.037721998989582062
  endloop
 endfacet
 facet normal -0.58486798194447431 0.77141713025039815 -0.2506891598223554
  outer loop
   vertex 0.012887000106275082 -0.00060299999313428998 -0.037721998989582062
   vertex 0.013346999883651733 0.00015100000018719584 -0.036474999040365219
   vertex 0.013752000406384468 0.00057700002798810601 -0.036109000444412231
  endloop
 endfacet
 facet normal -0.51961481397132359 0.8313754976393144 0.19701580400193525
  outer loop
   vertex 0.013659999705851078 -0.004503999836742878 -0.034678999334573746
   vertex 0.013961999677121639 -0.004155999980866909 -0.035351000726222992
   vertex 0.013491000048816204 -0.0044800001196563244 -0.035225998610258102
  endloop
 endfacet
 facet normal -0.56613571564207166 0.82430502803880878 0.0034017972276492183
  outer loop
   vertex 0.013491000048816204 -0.0044800001196563244 -0.035225998610258102
   vertex 0.013961999677121639 -0.004155999980866909 -0.035351000726222992
   vertex 0.013530000112950802 -0.0044499998912215233 -0.03600500151515007
  endloop
 endfacet
 facet normal -0.84122134793701731 0.37962011875856699 0.38501325848437923
  outer loop
   vertex 0.013772999867796898 -0.0036599999293684959 -0.036253001540899277
   vertex 0.013530000112950802 -0.0044499998912215233 -0.03600500151515007
   vertex 0.013961999677121639 -0.004155999980866909 -0.035351000726222992
  endloop
 endfacet
 facet normal -0.96033890967219671 0.25751527231219146 0.10693485444696731
  outer loop
   vertex 0.012668999843299389 -0.00079600000753998756 -0.039214998483657837
   vertex 0.012887000106275082 -0.00060299999313428998 -0.037721998989582062
   vertex 0.013081000186502934 0.00011300000187475234 -0.037703998386859894
  endloop
 endfacet
 facet normal -0.86834647110156682 -0.45967266228469805 0.18621345191353297
  outer loop
   vertex 0.012668999843299389 -0.00079600000753998756 -0.039214998483657837
   vertex 0.012919000349938869 -0.0016919999616220593 -0.040261000394821167
   vertex 0.012887000106275082 -0.00060299999313428998 -0.037721998989582062
  endloop
 endfacet
 facet normal -0.96729704804813355 -0.23729816388478278 0.089587958199066078
  outer loop
   vertex 0.013772999867796898 -0.0036599999293684959 -0.036253001540899277
   vertex 0.012887000106275082 -0.00060299999313428998 -0.037721998989582062
   vertex 0.012919000349938869 -0.0016919999616220593 -0.040261000394821167
  endloop
 endfacet
 facet normal -0.97573477889509108 0.020542100566908476 0.21799005334841964
  outer loop
   vertex 0.013772999867796898 -0.0036599999293684959 -0.036253001540899277
   vertex 0.012919000349938869 -0.0016919999616220593 -0.040261000394821167
   vertex 0.013363000005483627 -0.0048079998232424259 -0.037980001419782639
  endloop
 endfacet
 facet normal -0.95667517234868593 0.24477256111205475 -0.15766739656079001
  outer loop
   vertex 0.013530000112950802 -0.0044499998912215233 -0.03600500151515007
   vertex 0.013772999867796898 -0.0036599999293684959 -0.036253001540899277
   vertex 0.013585999608039856 -0.0045969998463988304 -0.036573000252246857
  endloop
 endfacet
 facet normal -0.9797044089773651 0.15018569943555735 0.13275363164661008
  outer loop
   vertex 0.013772999867796898 -0.0036599999293684959 -0.036253001540899277
   vertex 0.013363000005483627 -0.0048079998232424259 -0.037980001419782639
   vertex 0.013585999608039856 -0.0045969998463988304 -0.036573000252246857
  endloop
 endfacet
 facet normal -0.065016061607373637 -0.028681072707471444 -0.99747195840355085
  outer loop
   vertex 0.015228999778628349 -0.0018060000147670507 -0.040438000112771988
   vertex 0.012992000207304955 -0.0025430000387132168 -0.040270999073982239
   vertex 0.013333999551832676 -0.00053600000683218241 -0.040350999683141708
  endloop
 endfacet
 facet normal -0.0082945291762704775 -0.038416579339296861 -0.9992273851419462
  outer loop
   vertex 0.012992000207304955 -0.0025430000387132168 -0.040270999073982239
   vertex 0.013008999638259411 -0.0010379999876022339 -0.040329001843929291
   vertex 0.013333999551832676 -0.00053600000683218241 -0.040350999683141708
  endloop
 endfacet
 facet normal -0.95408291086414332 0.12092082480936821 0.27405100496882934
  outer loop
   vertex 0.012992000207304955 -0.0025430000387132168 -0.040270999073982239
   vertex 0.012866999953985214 -0.0045650000683963299 -0.039813999086618423
   vertex 0.013363000005483627 -0.0048079998232424259 -0.037980001419782639
  endloop
 endfacet
 facet normal -0.45978742332439576 -0.029012969440387729 -0.88755494081040653
  outer loop
   vertex 0.012919000349938869 -0.0016919999616220593 -0.040261000394821167
   vertex 0.013008999638259411 -0.0010379999876022339 -0.040329001843929291
   vertex 0.012992000207304955 -0.0025430000387132168 -0.040270999073982239
  endloop
 endfacet
 facet normal -0.99340278524611725 -0.086105253879988367 0.075741610225287637
  outer loop
   vertex 0.013363000005483627 -0.0048079998232424259 -0.037980001419782639
   vertex 0.012919000349938869 -0.0016919999616220593 -0.040261000394821167
   vertex 0.012992000207304955 -0.0025430000387132168 -0.040270999073982239
  endloop
 endfacet
 facet normal -0.98810476478803888 -0.14973682169561592 -0.035040805237178327
  outer loop
   vertex 0.012866999953985214 -0.0045650000683963299 -0.039813999086618423
   vertex 0.013004999607801437 -0.0055949999950826168 -0.039303999394178391
   vertex 0.012984000146389008 -0.0056420001201331615 -0.038511000573635101
  endloop
 endfacet
 facet normal -0.92818277613077227 0.24159421623520438 0.28303527832386882
  outer loop
   vertex 0.013363000005483627 -0.0048079998232424259 -0.037980001419782639
   vertex 0.012866999953985214 -0.0045650000683963299 -0.039813999086618423
   vertex 0.012984000146389008 -0.0056420001201331615 -0.038511000573635101
  endloop
 endfacet
 facet normal 0.94236859360681291 -0.23921521945355012 -0.23391774743551944
  outer loop
   vertex 0.022460000589489937 -0.0023920000530779362 -0.041712000966072083
   vertex 0.023832999169826508 -0.0025110000278800726 -0.036058999598026276
   vertex 0.021952999755740166 -0.004666999913752079 -0.04142799973487854
  endloop
 endfacet
 facet normal -0.90575203715109998 -0.33046638625586799 0.26533980996378959
  outer loop
   vertex 0.013491000048816204 -0.0044800001196563244 -0.035225998610258102
   vertex 0.013151999562978745 -0.0049069998785853386 -0.036915000528097153
   vertex 0.013659999705851078 -0.004503999836742878 -0.034678999334573746
  endloop
 endfacet
 facet normal -0.33307668129134027 0.86927665581509417 -0.36526431530451092
  outer loop
   vertex 0.013151999562978745 -0.0049069998785853386 -0.036915000528097153
   vertex 0.013585999608039856 -0.0045969998463988304 -0.036573000252246857
   vertex 0.012984000146389008 -0.0056420001201331615 -0.038511000573635101
  endloop
 endfacet
 facet normal -0.92738420392398813 0.36246200700641895 0.092627381422284369
  outer loop
   vertex 0.012984000146389008 -0.0056420001201331615 -0.038511000573635101
   vertex 0.013585999608039856 -0.0045969998463988304 -0.036573000252246857
   vertex 0.013363000005483627 -0.0048079998232424259 -0.037980001419782639
  endloop
 endfacet
 facet normal -0.41255357383406971 0.8711881732672444 -0.26614040556822383
  outer loop
   vertex 0.013530000112950802 -0.0044499998912215233 -0.03600500151515007
   vertex 0.013585999608039856 -0.0045969998463988304 -0.036573000252246857
   vertex 0.013151999562978745 -0.0049069998785853386 -0.036915000528097153
  endloop
 endfacet
 facet normal -0.75781819937356831 0.65233986297387125 -0.012817171038632075
  outer loop
   vertex 0.013491000048816204 -0.0044800001196563244 -0.035225998610258102
   vertex 0.013530000112950802 -0.0044499998912215233 -0.03600500151515007
   vertex 0.013151999562978745 -0.0049069998785853386 -0.036915000528097153
  endloop
 endfacet
 facet normal -0.75438493918773797 0.46823636369519661 -0.46006311658316251
  outer loop
   vertex 0.013008999638259411 -0.0010379999876022339 -0.040329001843929291
   vertex 0.013245999813079834 -0.00021499999274965376 -0.039880000054836273
   vertex 0.013333999551832676 -0.00053600000683218241 -0.040350999683141708
  endloop
 endfacet
 facet normal -0.78218827326218843 0.60460518829932464 -0.1504462410718666
  outer loop
   vertex 0.012668999843299389 -0.00079600000753998756 -0.039214998483657837
   vertex 0.013081000186502934 0.00011300000187475234 -0.037703998386859894
   vertex 0.013245999813079834 -0.00021499999274965376 -0.039880000054836273
  endloop
 endfacet
 facet normal -0.7267590587462428 0.47826792993126555 -0.49303251183825308
  outer loop
   vertex 0.01271899975836277 -0.00092199997743591666 -0.039788998663425446
   vertex 0.013245999813079834 -0.00021499999274965376 -0.039880000054836273
   vertex 0.013008999638259411 -0.0010379999876022339 -0.040329001843929291
  endloop
 endfacet
 facet normal -0.7982700170391942 0.56997833746609738 -0.19465270282127639
  outer loop
   vertex 0.012668999843299389 -0.00079600000753998756 -0.039214998483657837
   vertex 0.013245999813079834 -0.00021499999274965376 -0.039880000054836273
   vertex 0.01271899975836277 -0.00092199997743591666 -0.039788998663425446
  endloop
 endfacet
 facet normal -0.97217749270715936 -0.23179364748296971 -0.033802775923907458
  outer loop
   vertex 0.012668999843299389 -0.00079600000753998756 -0.039214998483657837
   vertex 0.01271899975836277 -0.00092199997743591666 -0.039788998663425446
   vertex 0.012919000349938869 -0.0016919999616220593 -0.040261000394821167
  endloop
 endfacet
 facet normal -0.8725214874949152 0.069790774311239062 -0.48356540579398166
  outer loop
   vertex 0.013008999638259411 -0.0010379999876022339 -0.040329001843929291
   vertex 0.012919000349938869 -0.0016919999616220593 -0.040261000394821167
   vertex 0.01271899975836277 -0.00092199997743591666 -0.039788998663425446
  endloop
 endfacet
endsolid
