solid Visualization Toolkit generated SLA File
 facet normal 0.36676277827897735 0.91045554780419602 -0.1911956064914852
  outer loop
   vertex 0 0.05291999876499176 0
   vertex 0.005481999833136797 0.049127001315355301 -0.0075460001826286316
   vertex 0 0.050273999571800232 -0.012600000016391277
  endloop
 endfacet
 facet normal 0.66819011258889305 0.73488637275470359 0.11603444565247517
  outer loop
   vertex 0 0.05291999876499176 0
   vertex 0.0057580000720918179 0.047979999333620071 -0.0018710000440478325
   vertex 0.005481999833136797 0.049127001315355301 -0.0075460001826286316
  endloop
 endfacet
 facet normal -0.10009022810771606 0.97373906825910339 -0.2044851417175306
  outer loop
   vertex 0 0.05291999876499176 0
   vertex 0 0.050273999571800232 -0.012600000016391277
   vertex -0.0049540000036358833 0.050978999584913254 -0.0068180002272129059
  endloop
 endfacet
 facet normal 0.65113861413804131 0.75895882969920769 0
  outer loop
   vertex 0 0.05291999876499176 0
   vertex 0.0057580000720918179 0.047979999333620071 0.0018710000440478325
   vertex 0.0057580000720918179 0.047979999333620071 -0.0018710000440478325
  endloop
 endfacet
 facet normal 0.65652272137808021 0.75369016108817377 -0.030480442798658539
  outer loop
   vertex 0 0.05291999876499176 0
   vertex 0.0038950000889599323 0.049743998795747757 0.0053619998507201672
   vertex 0.0057580000720918179 0.047979999333620071 0.0018710000440478325
  endloop
 endfacet
 facet normal 0.47203161447896108 0.86512554700265754 0.16954038709327654
  outer loop
   vertex 0 0.05291999876499176 0
   vertex 0 0.051509000360965729 0.0071999998763203621
   vertex 0.0038950000889599323 0.049743998795747757 0.0053619998507201672
  endloop
 endfacet
 facet normal -0.12038135987875354 0.9741969342550636 0.19091532542406747
  outer loop
   vertex 0 0.05291999876499176 0
   vertex -0.0033670000266283751 0.051596000790596008 0.0046330001205205917
   vertex 0 0.051509000360965729 0.0071999998763203621
  endloop
 endfacet
 facet normal -0.26700140945776391 0.96033650584017816 0.080399271751957144
  outer loop
   vertex 0 0.05291999876499176 0
   vertex -0.0040460000745952129 0.051685001701116562 0.0013150000013411045
   vertex -0.0033670000266283751 0.051596000790596008 0.0046330001205205917
  endloop
 endfacet
 facet normal -0.29194162198574403 0.95643613971468722 0
  outer loop
   vertex 0 0.05291999876499176 0
   vertex -0.0040460000745952129 0.051685001701116562 -0.0013150000013411045
   vertex -0.0040460000745952129 0.051685001701116562 0.0013150000013411045
  endloop
 endfacet
 facet normal -0.26742794425106986 0.96032749337407541 -0.07907844272310767
  outer loop
   vertex 0 0.05291999876499176 0
   vertex -0.0049540000036358833 0.050978999584913254 -0.0068180002272129059
   vertex -0.0040460000745952129 0.051685001701116562 -0.0013150000013411045
  endloop
 endfacet
 facet normal 0.54038261664446585 0.72865064375837341 -0.42077888133672819
  outer loop
   vertex 0 0.050273999571800232 -0.012600000016391277
   vertex 0.005481999833136797 0.049127001315355301 -0.0075460001826286316
   vertex 0 0.044982001185417175 -0.021764000877737999
  endloop
 endfacet
 facet normal -0.65050276945334129 0.65771360210168028 -0.37981438169711995
  outer loop
   vertex -0.0079349996522068977 0.043395001441240311 -0.01092199981212616
   vertex 0 0.050273999571800232 -0.012600000016391277
   vertex 0 0.044982001185417175 -0.021764000877737999
  endloop
 endfacet
 facet normal -0.59980691372118078 0.55016144816065027 -0.5809940165010723
  outer loop
   vertex -0.0049540000036358833 0.050978999584913254 -0.0068180002272129059
   vertex 0 0.050273999571800232 -0.012600000016391277
   vertex -0.0079349996522068977 0.043395001441240311 -0.01092199981212616
  endloop
 endfacet
 facet normal 0.34657180227834838 0.85616869173605692 -0.38322729176887432
  outer loop
   vertex 0 0.044982001185417175 -0.021764000877737999
   vertex 0.005481999833136797 0.049127001315355301 -0.0075460001826286316
   vertex 0.010146999731659889 0.044364999979734421 -0.013965999707579613
  endloop
 endfacet
 facet normal 0.76958437922374201 0.63212323913499691 0.090333237516912315
  outer loop
   vertex 0.005481999833136797 0.049127001315355301 -0.0075460001826286316
   vertex 0.0057580000720918179 0.047979999333620071 -0.0018710000440478325
   vertex 0.010146999731659889 0.044364999979734421 -0.013965999707579613
  endloop
 endfacet
 facet normal 0.53939123510221609 0.84023097223863141 -0.055398635234362691
  outer loop
   vertex 0.010146999731659889 0.044364999979734421 -0.013965999707579613
   vertex 0.0057580000720918179 0.047979999333620071 -0.0018710000440478325
   vertex 0.012138999998569489 0.043747000396251678 -0.0039440002292394638
  endloop
 endfacet
 facet normal 0.55280003897592167 0.83331393658585806 0
  outer loop
   vertex 0.0057580000720918179 0.047979999333620071 -0.0018710000440478325
   vertex 0.0057580000720918179 0.047979999333620071 0.0018710000440478325
   vertex 0.012138999998569489 0.043747000396251678 -0.0039440002292394638
  endloop
 endfacet
 facet normal -0.9264911969090025 0.18765743696252987 0.32618821009162502
  outer loop
   vertex -0.0049809999763965607 0.04180699959397316 -0.0016179999802261591
   vertex -0.0049540000036358833 0.050978999584913254 -0.0068180002272129059
   vertex -0.0079349996522068977 0.043395001441240311 -0.01092199981212616
  endloop
 endfacet
 facet normal -0.98454535940254717 0.088557351560156219 0.15108947932784855
  outer loop
   vertex -0.0040460000745952129 0.051685001701116562 -0.0013150000013411045
   vertex -0.0049540000036358833 0.050978999584913254 -0.0068180002272129059
   vertex -0.0049809999763965607 0.04180699959397316 -0.0016179999802261591
  endloop
 endfacet
 facet normal 0.55280003897592167 0.83331393658585806 0
  outer loop
   vertex 0.012138999998569489 0.043747000396251678 -0.0039440002292394638
   vertex 0.0057580000720918179 0.047979999333620071 0.0018710000440478325
   vertex 0.012138999998569489 0.043747000396251678 0.0039440002292394638
  endloop
 endfacet
 facet normal 0.57317170868971723 0.81270823825294203 -0.1047831657925512
  outer loop
   vertex 0.0057580000720918179 0.047979999333620071 0.0018710000440478325
   vertex 0.0038950000889599323 0.049743998795747757 0.0053619998507201672
   vertex 0.012138999998569489 0.043747000396251678 0.0039440002292394638
  endloop
 endfacet
 facet normal 0.58118268276077756 0.81192063201569697 -0.054877833104237113
  outer loop
   vertex 0.012138999998569489 0.043747000396251678 0.0039440002292394638
   vertex 0.0038950000889599323 0.049743998795747757 0.0053619998507201672
   vertex 0.008992999792098999 0.04656900092959404 0.012377999722957611
  endloop
 endfacet
 facet normal 0.44318138762935239 0.89267885438056038 0.081943398762389402
  outer loop
   vertex 0.0038950000889599323 0.049743998795747757 0.0053619998507201672
   vertex 0 0.051509000360965729 0.0071999998763203621
   vertex 0.008992999792098999 0.04656900092959404 0.012377999722957611
  endloop
 endfacet
 facet normal 0.39219118088479893 0.9021862060082001 0.17957206721736158
  outer loop
   vertex 0.008992999792098999 0.04656900092959404 0.012377999722957611
   vertex 0 0.051509000360965729 0.0071999998763203621
   vertex 0 0.049391999840736389 0.017836000770330429
  endloop
 endfacet
 facet normal -0.12255639879018221 0.97336771063593963 0.19374010686208346
  outer loop
   vertex 0 0.051509000360965729 0.0071999998763203621
   vertex -0.0033670000266283751 0.051596000790596008 0.0046330001205205917
   vertex 0 0.049391999840736389 0.017836000770330429
  endloop
 endfacet
 facet normal -0.71698228814878717 0.63447286989036566 0.28875694944713004
  outer loop
   vertex 0 0.049391999840736389 0.017836000770330429
   vertex -0.0033670000266283751 0.051596000790596008 0.0046330001205205917
   vertex -0.0067810001783072948 0.045598998665809631 0.009332999587059021
  endloop
 endfacet
 facet normal -0.7890947575712558 0.58814049429160387 0.17725750350264188
  outer loop
   vertex -0.0033670000266283751 0.051596000790596008 0.0046330001205205917
   vertex -0.0040460000745952129 0.051685001701116562 0.0013150000013411045
   vertex -0.0067810001783072948 0.045598998665809631 0.009332999587059021
  endloop
 endfacet
 facet normal -0.96072641391761537 0.08281319004305647 -0.26485228554024443
  outer loop
   vertex -0.0067810001783072948 0.045598998665809631 0.009332999587059021
   vertex -0.0040460000745952129 0.051685001701116562 0.0013150000013411045
   vertex -0.0049809999763965607 0.04180699959397316 0.0016179999802261591
  endloop
 endfacet
 facet normal -0.99555011775860669 0.094233555758149651 0
  outer loop
   vertex -0.0040460000745952129 0.051685001701116562 0.0013150000013411045
   vertex -0.0040460000745952129 0.051685001701116562 -0.0013150000013411045
   vertex -0.0049809999763965607 0.04180699959397316 0.0016179999802261591
  endloop
 endfacet
 facet normal -0.99555011775860669 0.094233555758149637 0
  outer loop
   vertex -0.0049809999763965607 0.04180699959397316 0.0016179999802261591
   vertex -0.0040460000745952129 0.051685001701116562 -0.0013150000013411045
   vertex -0.0049809999763965607 0.04180699959397316 -0.0016179999802261591
  endloop
 endfacet
 facet normal 0.60154938302236327 0.23202888645407263 -0.76439579776206079
  outer loop
   vertex 0 0.044982001185417175 -0.021764000877737999
   vertex 0.010146999731659889 0.044364999979734421 -0.013965999707579613
   vertex 0 0.035280000418424606 -0.024708999320864677
  endloop
 endfacet
 facet normal -0.84562879506544286 0.15503864439556658 -0.51075919932993086
  outer loop
   vertex -0.0081759998574852943 0.03501499816775322 -0.011253000237047672
   vertex 0 0.044982001185417175 -0.021764000877737999
   vertex 0 0.035280000418424606 -0.024708999320864677
  endloop
 endfacet
 facet normal -0.80932121462179973 0.046403014496310686 -0.58553047043578332
  outer loop
   vertex -0.0079349996522068977 0.043395001441240311 -0.01092199981212616
   vertex 0 0.044982001185417175 -0.021764000877737999
   vertex -0.0081759998574852943 0.03501499816775322 -0.011253000237047672
  endloop
 endfacet
 facet normal -0.8917750237358063 0.0077767657304063584 0.45241223342851439
  outer loop
   vertex -0.0029569999314844608 0.034751001745462418 -0.00096099998336285353
   vertex -0.0079349996522068977 0.043395001441240311 -0.01092199981212616
   vertex -0.0081759998574852943 0.03501499816775322 -0.011253000237047672
  endloop
 endfacet
 facet normal -0.93543286345804655 -0.24455968162571651 0.25525657696875875
  outer loop
   vertex -0.0049809999763965607 0.04180699959397316 -0.0016179999802261591
   vertex -0.0079349996522068977 0.043395001441240311 -0.01092199981212616
   vertex -0.0029569999314844608 0.034751001745462418 -0.00096099998336285353
  endloop
 endfacet
 facet normal 0.55881889456687861 0.29316937107570368 -0.77574039661353744
  outer loop
   vertex 0 0.035280000418424606 -0.024708999320864677
   vertex 0.010146999731659889 0.044364999979734421 -0.013965999707579613
   vertex 0.012023000046610832 0.033957000821828842 -0.016548000276088715
  endloop
 endfacet
 facet normal 0.95990770379205803 0.21703133842480057 -0.17741081799653086
  outer loop
   vertex 0.010146999731659889 0.044364999979734421 -0.013965999707579613
   vertex 0.012138999998569489 0.043747000396251678 -0.0039440002292394638
   vertex 0.012023000046610832 0.033957000821828842 -0.016548000276088715
  endloop
 endfacet
 facet normal 0.9255352746863007 0.29487407967117629 -0.23755785074257271
  outer loop
   vertex 0.012023000046610832 0.033957000821828842 -0.016548000276088715
   vertex 0.012138999998569489 0.043747000396251678 -0.0039440002292394638
   vertex 0.015406999737024307 0.032634001225233078 -0.0050059999339282513
  endloop
 endfacet
 facet normal 0.95937787310231193 0.28212425737905672 0
  outer loop
   vertex 0.012138999998569489 0.043747000396251678 -0.0039440002292394638
   vertex 0.012138999998569489 0.043747000396251678 0.0039440002292394638
   vertex 0.015406999737024307 0.032634001225233078 -0.0050059999339282513
  endloop
 endfacet
 facet normal -0.96123551454697709 -0.27572864481879317 0
  outer loop
   vertex -0.0029569999314844608 0.034751001745462418 0.00096099998336285353
   vertex -0.0049809999763965607 0.04180699959397316 -0.0016179999802261591
   vertex -0.0029569999314844608 0.034751001745462418 -0.00096099998336285353
  endloop
 endfacet
 facet normal -0.96123551454697709 -0.27572864481879317 0
  outer loop
   vertex -0.0049809999763965607 0.04180699959397316 0.0016179999802261591
   vertex -0.0049809999763965607 0.04180699959397316 -0.0016179999802261591
   vertex -0.0029569999314844608 0.034751001745462418 0.00096099998336285353
  endloop
 endfacet
 facet normal 0.95937787310231193 0.28212425737905672 0
  outer loop
   vertex 0.015406999737024307 0.032634001225233078 -0.0050059999339282513
   vertex 0.012138999998569489 0.043747000396251678 0.0039440002292394638
   vertex 0.015406999737024307 0.032634001225233078 0.0050059999339282513
  endloop
 endfacet
 facet normal 0.92335869048421593 0.29501351811154353 0.24571477944707323
  outer loop
   vertex 0.012138999998569489 0.043747000396251678 0.0039440002292394638
   vertex 0.008992999792098999 0.04656900092959404 0.012377999722957611
   vertex 0.015406999737024307 0.032634001225233078 0.0050059999339282513
  endloop
 endfacet
 facet normal 0.92572478084144694 0.34897883499917554 0.14576488897767245
  outer loop
   vertex 0.015406999737024307 0.032634001225233078 0.0050059999339282513
   vertex 0.008992999792098999 0.04656900092959404 0.012377999722957611
   vertex 0.012600000016391277 0.034926999360322952 0.017342999577522278
  endloop
 endfacet
 facet normal 0.5613761988225503 0.46568101772820947 0.68410375903306031
  outer loop
   vertex 0.008992999792098999 0.04656900092959404 0.012377999722957611
   vertex 0 0.049391999840736389 0.017836000770330429
   vertex 0.012600000016391277 0.034926999360322952 0.017342999577522278
  endloop
 endfacet
 facet normal 0.57681592164310758 0.47991639827206023 0.66103225580041536
  outer loop
   vertex 0.012600000016391277 0.034926999360322952 0.017342999577522278
   vertex 0 0.049391999840736389 0.017836000770330429
   vertex 0 0.037220001220703125 0.026673000305891037
  endloop
 endfacet
 facet normal -0.80214674393844454 0.3508141548203586 0.48320806074260481
  outer loop
   vertex 0 0.049391999840736389 0.017836000770330429
   vertex -0.0067810001783072948 0.045598998665809631 0.009332999587059021
   vertex 0 0.037220001220703125 0.026673000305891037
  endloop
 endfacet
 facet normal -0.82886756659010796 0.30276382180268641 0.47043875824853548
  outer loop
   vertex 0 0.037220001220703125 0.026673000305891037
   vertex -0.0067810001783072948 0.045598998665809631 0.009332999587059021
   vertex -0.0087519995868206024 0.035985998809337616 0.012047000229358673
  endloop
 endfacet
 facet normal -0.9530273909958602 0.11646628764946947 -0.27959684521248579
  outer loop
   vertex -0.0067810001783072948 0.045598998665809631 0.009332999587059021
   vertex -0.0049809999763965607 0.04180699959397316 0.0016179999802261591
   vertex -0.0087519995868206024 0.035985998809337616 0.012047000229358673
  endloop
 endfacet
 facet normal -0.8757589071144003 -0.21077057509635458 -0.434306460098561
  outer loop
   vertex -0.0087519995868206024 0.035985998809337616 0.012047000229358673
   vertex -0.0049809999763965607 0.04180699959397316 0.0016179999802261591
   vertex -0.0029569999314844608 0.034751001745462418 0.00096099998336285353
  endloop
 endfacet
 facet normal 0.52847557835859327 -0.2330265488877091 -0.81634073192021628
  outer loop
   vertex 0 0.035280000418424606 -0.024708999320864677
   vertex 0.012023000046610832 0.033957000821828842 -0.016548000276088715
   vertex 0 0.023814000189304352 -0.021436000242829323
  endloop
 endfacet
 facet normal -0.83926761066527955 -0.14924445954551083 -0.52283455220859398
  outer loop
   vertex -0.0073580001480877399 0.0255769994109869 -0.010127999819815159
   vertex 0 0.035280000418424606 -0.024708999320864677
   vertex 0 0.023814000189304352 -0.021436000242829323
  endloop
 endfacet
 facet normal -0.84562321962586207 -0.13485303899941792 -0.51646493424259932
  outer loop
   vertex -0.0081759998574852943 0.03501499816775322 -0.011253000237047672
   vertex 0 0.035280000418424606 -0.024708999320864677
   vertex -0.0073580001480877399 0.0255769994109869 -0.010127999819815159
  endloop
 endfacet
 facet normal -0.91387448343330568 -0.030952724716637566 0.40481521384716401
  outer loop
   vertex -0.0034239999949932098 0.027341999113559723 -0.0011119999689981341
   vertex -0.0081759998574852943 0.03501499816775322 -0.011253000237047672
   vertex -0.0073580001480877399 0.0255769994109869 -0.010127999819815159
  endloop
 endfacet
 facet normal -0.89041540144949138 0.046897323381947319 0.45272624611474654
  outer loop
   vertex -0.0029569999314844608 0.034751001745462418 -0.00096099998336285353
   vertex -0.0081759998574852943 0.03501499816775322 -0.011253000237047672
   vertex -0.0034239999949932098 0.027341999113559723 -0.0011119999689981341
  endloop
 endfacet
 facet normal -0.99801941876754063 0.062906595543712779 0
  outer loop
   vertex -0.0034239999949932098 0.027341999113559723 0.0011119999689981341
   vertex -0.0029569999314844608 0.034751001745462418 -0.00096099998336285353
   vertex -0.0034239999949932098 0.027341999113559723 -0.0011119999689981341
  endloop
 endfacet
 facet normal -0.99801941876754074 0.062906595543712779 0
  outer loop
   vertex -0.0029569999314844608 0.034751001745462418 0.00096099998336285353
   vertex -0.0029569999314844608 0.034751001745462418 -0.00096099998336285353
   vertex -0.0034239999949932098 0.027341999113559723 0.0011119999689981341
  endloop
 endfacet
 facet normal 0.48836445214480256 -0.16603172145972919 -0.85669926424062348
  outer loop
   vertex 0 0.023814000189304352 -0.021436000242829323
   vertex 0.012023000046610832 0.033957000821828842 -0.016548000276088715
   vertex 0.011013000272214413 0.023814000189304352 -0.015158000402152538
  endloop
 endfacet
 facet normal 0.94663340738049562 -0.13440795476029421 -0.29294998502875397
  outer loop
   vertex 0.012023000046610832 0.033957000821828842 -0.016548000276088715
   vertex 0.015406999737024307 0.032634001225233078 -0.0050059999339282513
   vertex 0.011013000272214413 0.023814000189304352 -0.015158000402152538
  endloop
 endfacet
 facet normal 0.92334326269389888 -0.018548849957510279 -0.38352726031279633
  outer loop
   vertex 0.011013000272214413 0.023814000189304352 -0.015158000402152538
   vertex 0.015406999737024307 0.032634001225233078 -0.0050059999339282513
   vertex 0.015251000411808491 0.023814000189304352 -0.004954999778419733
  endloop
 endfacet
 facet normal 0.99984362177076513 -0.017684230385257956 0
  outer loop
   vertex 0.015406999737024307 0.032634001225233078 -0.0050059999339282513
   vertex 0.015406999737024307 0.032634001225233078 0.0050059999339282513
   vertex 0.015251000411808491 0.023814000189304352 -0.004954999778419733
  endloop
 endfacet
 facet normal -0.91143145866790887 0.049123169836915122 -0.4085090088794387
  outer loop
   vertex -0.0079349996522068977 0.025225000455975533 0.01092199981212616
   vertex -0.0029569999314844608 0.034751001745462418 0.00096099998336285353
   vertex -0.0034239999949932098 0.027341999113559723 0.0011119999689981341
  endloop
 endfacet
 facet normal -0.88693401518369785 -0.01909076586671286 -0.46150145760197375
  outer loop
   vertex -0.0087519995868206024 0.035985998809337616 0.012047000229358673
   vertex -0.0029569999314844608 0.034751001745462418 0.00096099998336285353
   vertex -0.0079349996522068977 0.025225000455975533 0.01092199981212616
  endloop
 endfacet
 facet normal 0.99984362177076536 -0.01768423038525796 0
  outer loop
   vertex 0.015251000411808491 0.023814000189304352 -0.004954999778419733
   vertex 0.015406999737024307 0.032634001225233078 0.0050059999339282513
   vertex 0.015251000411808491 0.023814000189304352 0.004954999778419733
  endloop
 endfacet
 facet normal 0.9741612083964406 -0.018531543290834295 0.22509225210754535
  outer loop
   vertex 0.015406999737024307 0.032634001225233078 0.0050059999339282513
   vertex 0.012600000016391277 0.034926999360322952 0.017342999577522278
   vertex 0.015251000411808491 0.023814000189304352 0.004954999778419733
  endloop
 endfacet
 facet normal 0.94303962522916429 -0.12064338626006289 0.31003457645775978
  outer loop
   vertex 0.015251000411808491 0.023814000189304352 0.004954999778419733
   vertex 0.012600000016391277 0.034926999360322952 0.017342999577522278
   vertex 0.011590000241994858 0.02346000075340271 0.015953000634908676
  endloop
 endfacet
 facet normal 0.57096433794691515 -0.14817200100700789 0.80749289960371773
  outer loop
   vertex 0.012600000016391277 0.034926999360322952 0.017342999577522278
   vertex 0 0.037220001220703125 0.026673000305891037
   vertex 0.011590000241994858 0.02346000075340271 0.015953000634908676
  endloop
 endfacet
 facet normal 0.53470798268269581 -0.19093477354953511 0.82318362805937151
  outer loop
   vertex 0.011590000241994858 0.02346000075340271 0.015953000634908676
   vertex 0 0.037220001220703125 0.026673000305891037
   vertex 0 0.02310900017619133 0.023399999365210533
  endloop
 endfacet
 facet normal -0.84741399334185163 -0.11996341535553522 0.51720238095415927
  outer loop
   vertex 0 0.037220001220703125 0.026673000305891037
   vertex -0.0087519995868206024 0.035985998809337616 0.012047000229358673
   vertex 0 0.02310900017619133 0.023399999365210533
  endloop
 endfacet
 facet normal -0.8468628182844804 -0.1184959116567366 0.51844197932642955
  outer loop
   vertex 0 0.02310900017619133 0.023399999365210533
   vertex -0.0087519995868206024 0.035985998809337616 0.012047000229358673
   vertex -0.0079349996522068977 0.025225000455975533 0.01092199981212616
  endloop
 endfacet
 facet normal 0.36163123069232933 -0.68321548039561864 -0.63438116328886629
  outer loop
   vertex 0 0.023814000189304352 -0.021436000242829323
   vertex 0.011013000272214413 0.023814000189304352 -0.015158000402152538
   vertex 0 0.018345000222325325 -0.015545999631285667
  endloop
 endfacet
 facet normal -0.13304583541343526 -0.72629647794447028 -0.67438285254341879
  outer loop
   vertex -0.0078870002180337906 0.015434999950230122 -0.010855999775230885
   vertex 0 0.023814000189304352 -0.021436000242829323
   vertex 0 0.018345000222325325 -0.015545999631285667
  endloop
 endfacet
 facet normal -0.82933347222417619 0.082921132063036182 -0.55256680836436067
  outer loop
   vertex -0.0073580001480877399 0.0255769994109869 -0.010127999819815159
   vertex 0 0.023814000189304352 -0.021436000242829323
   vertex -0.0078870002180337906 0.015434999950230122 -0.010855999775230885
  endloop
 endfacet
 facet normal -0.9394836200366139 0.073029268461707569 -0.33471966424285154
  outer loop
   vertex -0.010738000273704529 0.012524000369012356 -0.0034890000242739916
   vertex -0.0073580001480877399 0.0255769994109869 -0.010127999819815159
   vertex -0.0078870002180337906 0.015434999950230122 -0.010855999775230885
  endloop
 endfacet
 facet normal -0.87228605679925275 0.38147551173896904 0.30593049710204195
  outer loop
   vertex -0.0034239999949932098 0.027341999113559723 -0.0011119999689981341
   vertex -0.0073580001480877399 0.0255769994109869 -0.010127999819815159
   vertex -0.010738000273704529 0.012524000369012356 -0.0034890000242739916
  endloop
 endfacet
 facet normal -0.89671492429671862 0.44260856808644161 0
  outer loop
   vertex -0.010738000273704529 0.012524000369012356 0.0034890000242739916
   vertex -0.0034239999949932098 0.027341999113559723 -0.0011119999689981341
   vertex -0.010738000273704529 0.012524000369012356 -0.0034890000242739916
  endloop
 endfacet
 facet normal -0.89671492429671862 0.44260856808644156 0
  outer loop
   vertex -0.0034239999949932098 0.027341999113559723 0.0011119999689981341
   vertex -0.0034239999949932098 0.027341999113559723 -0.0011119999689981341
   vertex -0.010738000273704529 0.012524000369012356 0.0034890000242739916
  endloop
 endfacet
 facet normal -0.88578890145939904 0.45322726089164778 0.099815189405246516
  outer loop
   vertex -0.0084640001878142357 0.015170999802649021 0.011649999767541885
   vertex -0.0034239999949932098 0.027341999113559723 0.0011119999689981341
   vertex -0.010738000273704529 0.012524000369012356 0.0034890000242739916
  endloop
 endfacet
 facet normal -0.90985899770717416 0.017857148988899719 -0.41453314285022458
  outer loop
   vertex -0.0079349996522068977 0.025225000455975533 0.01092199981212616
   vertex -0.0034239999949932098 0.027341999113559723 0.0011119999689981341
   vertex -0.0084640001878142357 0.015170999802649021 0.011649999767541885
  endloop
 endfacet
 facet normal 0.26949034023840374 -0.48359516743148595 -0.83277288053532483
  outer loop
   vertex 0 0.018345000222325325 -0.015545999631285667
   vertex 0.011013000272214413 0.023814000189304352 -0.015158000402152538
   vertex 0.0085119996219873428 0.016493000090122223 -0.01171599980443716
  endloop
 endfacet
 facet normal 0.82737926197708733 -0.44422587718970025 -0.34366688360284542
  outer loop
   vertex 0.011013000272214413 0.023814000189304352 -0.015158000402152538
   vertex 0.015251000411808491 0.023814000189304352 -0.004954999778419733
   vertex 0.0085119996219873428 0.016493000090122223 -0.01171599980443716
  endloop
 endfacet
 facet normal 0.81132447575674516 -0.26613814116115359 -0.52050272319876345
  outer loop
   vertex 0.0085119996219873428 0.016493000090122223 -0.01171599980443716
   vertex 0.015251000411808491 0.023814000189304352 -0.004954999778419733
   vertex 0.012760999612510204 0.014640999957919121 -0.0041459999047219753
  endloop
 endfacet
 facet normal 0.96507631537549599 -0.26196890178274229 0
  outer loop
   vertex 0.015251000411808491 0.023814000189304352 -0.004954999778419733
   vertex 0.015251000411808491 0.023814000189304352 0.004954999778419733
   vertex 0.012760999612510204 0.014640999957919121 -0.0041459999047219753
  endloop
 endfacet
 facet normal -0.5855827770527392 0.089150558956018616 0.80569534506352425
  outer loop
   vertex 0 0.017815999686717987 0.01750900037586689
   vertex -0.0079349996522068977 0.025225000455975533 0.01092199981212616
   vertex -0.0084640001878142357 0.015170999802649021 0.011649999767541885
  endloop
 endfacet
 facet normal -0.78071006073858962 -0.46482859978634944 0.41764359672118689
  outer loop
   vertex 0 0.02310900017619133 0.023399999365210533
   vertex -0.0079349996522068977 0.025225000455975533 0.01092199981212616
   vertex 0 0.017815999686717987 0.01750900037586689
  endloop
 endfacet
 facet normal 0.96507631537549599 -0.26196890178274229 0
  outer loop
   vertex 0.012760999612510204 0.014640999957919121 -0.0041459999047219753
   vertex 0.015251000411808491 0.023814000189304352 0.004954999778419733
   vertex 0.012760999612510204 0.014640999957919121 0.0041459999047219753
  endloop
 endfacet
 facet normal 0.91499053368108574 -0.27445614222195203 0.29574676544409667
  outer loop
   vertex 0.015251000411808491 0.023814000189304352 0.004954999778419733
   vertex 0.011590000241994858 0.02346000075340271 0.015953000634908676
   vertex 0.012760999612510204 0.014640999957919121 0.0041459999047219753
  endloop
 endfacet
 facet normal 0.77156472319136038 -0.47060999001731257 0.42803517988892509
  outer loop
   vertex 0.012760999612510204 0.014640999957919121 0.0041459999047219753
   vertex 0.011590000241994858 0.02346000075340271 0.015953000634908676
   vertex 0.0090889995917677879 0.016228999942541122 0.012511000037193298
  endloop
 endfacet
 facet normal 0.47681815878265671 -0.50678601469775963 0.7182007927883951
  outer loop
   vertex 0.011590000241994858 0.02346000075340271 0.015953000634908676
   vertex 0 0.02310900017619133 0.023399999365210533
   vertex 0.0090889995917677879 0.016228999942541122 0.012511000037193298
  endloop
 endfacet
 facet normal 0.23119917114569186 -0.72369897935023675 0.65023590376798701
  outer loop
   vertex 0.0090889995917677879 0.016228999942541122 0.012511000037193298
   vertex 0 0.02310900017619133 0.023399999365210533
   vertex 0 0.017815999686717987 0.01750900037586689
  endloop
 endfacet
 facet normal 0.36567985567819311 -0.19940491500398264 -0.90912921140145442
  outer loop
   vertex 0 0.018345000222325325 -0.015545999631285667
   vertex 0.0085119996219873428 0.016493000090122223 -0.01171599980443716
   vertex 0 0.0086430003866553307 -0.013418000191450119
  endloop
 endfacet
 facet normal -0.46582178660793988 -0.18957926143073697 -0.86433197716893662
  outer loop
   vertex -0.0069249998778104782 0.0079370001330971718 -0.0095309996977448463
   vertex 0 0.018345000222325325 -0.015545999631285667
   vertex 0 0.0086430003866553307 -0.013418000191450119
  endloop
 endfacet
 facet normal -0.44101653710249117 -0.21074872732818939 -0.87240437179766328
  outer loop
   vertex -0.0078870002180337906 0.015434999950230122 -0.010855999775230885
   vertex 0 0.018345000222325325 -0.015545999631285667
   vertex -0.0069249998778104782 0.0079370001330971718 -0.0095309996977448463
  endloop
 endfacet
 facet normal -0.89640191048484896 -0.18609805139715299 -0.40228240098877743
  outer loop
   vertex -0.0096490001305937767 0.0072320001199841499 -0.0031349998898804188
   vertex -0.0078870002180337906 0.015434999950230122 -0.010855999775230885
   vertex -0.0069249998778104782 0.0079370001330971718 -0.0095309996977448463
  endloop
 endfacet
 facet normal -0.88113132360528224 -0.20967370536466867 -0.42384493372016802
  outer loop
   vertex -0.010738000273704529 0.012524000369012356 -0.0034890000242739916
   vertex -0.0078870002180337906 0.015434999950230122 -0.010855999775230885
   vertex -0.0096490001305937767 0.0072320001199841499 -0.0031349998898804188
  endloop
 endfacet
 facet normal -0.97947638880516907 -0.20155893374689571 0
  outer loop
   vertex -0.0096490001305937767 0.0072320001199841499 0.0031349998898804188
   vertex -0.010738000273704529 0.012524000369012356 -0.0034890000242739916
   vertex -0.0096490001305937767 0.0072320001199841499 -0.0031349998898804188
  endloop
 endfacet
 facet normal -0.97947638880516896 -0.20155893374689571 0
  outer loop
   vertex -0.010738000273704529 0.012524000369012356 0.0034890000242739916
   vertex -0.010738000273704529 0.012524000369012356 -0.0034890000242739916
   vertex -0.0096490001305937767 0.0072320001199841499 0.0031349998898804188
  endloop
 endfacet
 facet normal -0.93471692255862104 -0.21145573345822602 0.28564094151606567
  outer loop
   vertex -0.0075509999878704548 0.0077610001899302006 0.010391999967396259
   vertex -0.010738000273704529 0.012524000369012356 0.0034890000242739916
   vertex -0.0096490001305937767 0.0072320001199841499 0.0031349998898804188
  endloop
 endfacet
 facet normal -0.93402950316514222 -0.16854917461314634 0.31492866327837593
  outer loop
   vertex -0.0084640001878142357 0.015170999802649021 0.011649999767541885
   vertex -0.010738000273704529 0.012524000369012356 0.0034890000242739916
   vertex -0.0075509999878704548 0.0077610001899302006 0.010391999967396259
  endloop
 endfacet
 facet normal -0.54190215821652044 -0.20513560257958086 0.8150223527453645
  outer loop
   vertex 0 0.0082909995689988136 0.015545999631285667
   vertex -0.0084640001878142357 0.015170999802649021 0.011649999767541885
   vertex -0.0075509999878704548 0.0077610001899302006 0.010391999967396259
  endloop
 endfacet
 facet normal -0.52379831418067435 -0.17194213536540467 0.83430883259586097
  outer loop
   vertex 0 0.017815999686717987 0.01750900037586689
   vertex -0.0084640001878142357 0.015170999802649021 0.011649999767541885
   vertex 0 0.0082909995689988136 0.015545999631285667
  endloop
 endfacet
 facet normal 0.4657865214742925 -0.32676795732604547 -0.82235370642919947
  outer loop
   vertex 0 0.0086430003866553307 -0.013418000191450119
   vertex 0.0085119996219873428 0.016493000090122223 -0.01171599980443716
   vertex 0.0069249998778104782 0.0087320003658533096 -0.0095309996977448463
  endloop
 endfacet
 facet normal 0.79489804267803688 -0.30947312020209422 -0.52188455583491422
  outer loop
   vertex 0.0085119996219873428 0.016493000090122223 -0.01171599980443716
   vertex 0.012760999612510204 0.014640999957919121 -0.0041459999047219753
   vertex 0.0069249998778104782 0.0087320003658533096 -0.0095309996977448463
  endloop
 endfacet
 facet normal 0.80505217245793004 -0.4887750183783674 -0.33613982362997979
  outer loop
   vertex 0.0069249998778104782 0.0087320003658533096 -0.0095309996977448463
   vertex 0.012760999612510204 0.014640999957919121 -0.0041459999047219753
   vertex 0.0096490001305937767 0.0088200001046061516 -0.0031349998898804188
  endloop
 endfacet
 facet normal 0.88188282623883896 -0.47146864241961811 0
  outer loop
   vertex 0.012760999612510204 0.014640999957919121 -0.0041459999047219753
   vertex 0.012760999612510204 0.014640999957919121 0.0041459999047219753
   vertex 0.0096490001305937767 0.0088200001046061516 -0.0031349998898804188
  endloop
 endfacet
 facet normal 0.55981050646589059 -0.16725490550473454 0.8115651504562067
  outer loop
   vertex 0.0075509999878704548 0.0085559999570250511 0.010391999967396259
   vertex 0 0.017815999686717987 0.01750900037586689
   vertex 0 0.0082909995689988136 0.015545999631285667
  endloop
 endfacet
 facet normal 0.4134665225580077 -0.31844809737597712 0.85301596937068458
  outer loop
   vertex 0.0090889995917677879 0.016228999942541122 0.012511000037193298
   vertex 0 0.017815999686717987 0.01750900037586689
   vertex 0.0075509999878704548 0.0085559999570250511 0.010391999967396259
  endloop
 endfacet
 facet normal 0.88188282623883896 -0.47146864241961811 0
  outer loop
   vertex 0.0096490001305937767 0.0088200001046061516 -0.0031349998898804188
   vertex 0.012760999612510204 0.014640999957919121 0.0041459999047219753
   vertex 0.0096490001305937767 0.0088200001046061516 0.0031349998898804188
  endloop
 endfacet
 facet normal 0.76440986899639662 -0.48286612488267494 0.42722108751991711
  outer loop
   vertex 0.012760999612510204 0.014640999957919121 0.0041459999047219753
   vertex 0.0090889995917677879 0.016228999942541122 0.012511000037193298
   vertex 0.0096490001305937767 0.0088200001046061516 0.0031349998898804188
  endloop
 endfacet
 facet normal 0.93054587645535258 -0.25822095208282425 0.25962725534384806
  outer loop
   vertex 0.0096490001305937767 0.0088200001046061516 0.0031349998898804188
   vertex 0.0090889995917677879 0.016228999942541122 0.012511000037193298
   vertex 0.0075509999878704548 0.0085559999570250511 0.010391999967396259
  endloop
 endfacet
 facet normal 0.34817826310081174 -0.71699967466319647 -0.60389019170456182
  outer loop
   vertex 0 0.0086430003866553307 -0.013418000191450119
   vertex 0.0069249998778104782 0.0087320003658533096 -0.0095309996977448463
   vertex 0 0.0042329998686909676 -0.0081820003688335419
  endloop
 endfacet
 facet normal -0.19432296694422652 -0.75027808709171329 -0.6319188053444782
  outer loop
   vertex -0.004424000158905983 0.003616000059992075 -0.0060890000313520432
   vertex 0 0.0086430003866553307 -0.013418000191450119
   vertex 0 0.0042329998686909676 -0.0081820003688335419
  endloop
 endfacet
 facet normal -0.2971878948257814 -0.69421051325594429 -0.65555405456296179
  outer loop
   vertex -0.0069249998778104782 0.0079370001330971718 -0.0095309996977448463
   vertex 0 0.0086430003866553307 -0.013418000191450119
   vertex -0.004424000158905983 0.003616000059992075 -0.0060890000313520432
  endloop
 endfacet
 facet normal -0.5958703464890166 -0.68229547930737555 -0.42356983968618211
  outer loop
   vertex -0.0065359999425709248 0.0029990000184625387 -0.0021240001078695059
   vertex -0.0069249998778104782 0.0079370001330971718 -0.0095309996977448463
   vertex -0.004424000158905983 0.003616000059992075 -0.0060890000313520432
  endloop
 endfacet
 facet normal -0.70529613693599735 -0.60638909536130958 -0.36721876892399091
  outer loop
   vertex -0.0096490001305937767 0.0072320001199841499 -0.0031349998898804188
   vertex -0.0069249998778104782 0.0079370001330971718 -0.0095309996977448463
   vertex -0.0065359999425709248 0.0029990000184625387 -0.0021240001078695059
  endloop
 endfacet
 facet normal -0.80560558499537405 -0.59245222712406198 0
  outer loop
   vertex -0.0065359999425709248 0.0029990000184625387 0.0021240001078695059
   vertex -0.0096490001305937767 0.0072320001199841499 -0.0031349998898804188
   vertex -0.0065359999425709248 0.0029990000184625387 -0.0021240001078695059
  endloop
 endfacet
 facet normal -0.80560558499537405 -0.59245222712406198 0
  outer loop
   vertex -0.0096490001305937767 0.0072320001199841499 0.0031349998898804188
   vertex -0.0096490001305937767 0.0072320001199841499 -0.0031349998898804188
   vertex -0.0065359999425709248 0.0029990000184625387 0.0021240001078695059
  endloop
 endfacet
 facet normal -0.75281346844244912 -0.61169275613514695 0.24311284174933556
  outer loop
   vertex -0.0050490000285208225 0.0030869999900460243 0.0069499998353421688
   vertex -0.0096490001305937767 0.0072320001199841499 0.0031349998898804188
   vertex -0.0065359999425709248 0.0029990000184625387 0.0021240001078695059
  endloop
 endfacet
 facet normal -0.75693771808059551 -0.59846642838617581 0.26245613927213679
  outer loop
   vertex -0.0075509999878704548 0.0077610001899302006 0.010391999967396259
   vertex -0.0096490001305937767 0.0072320001199841499 0.0031349998898804188
   vertex -0.0050490000285208225 0.0030869999900460243 0.0069499998353421688
  endloop
 endfacet
 facet normal -0.40179031213320165 -0.67266010975295543 0.62136375966340862
  outer loop
   vertex 0 0.0031739999540150166 0.010308999568223953
   vertex -0.0075509999878704548 0.0077610001899302006 0.010391999967396259
   vertex -0.0050490000285208225 0.0030869999900460243 0.0069499998353421688
  endloop
 endfacet
 facet normal -0.39255244152229052 -0.65784024488815829 0.64276651504288607
  outer loop
   vertex 0 0.0082909995689988136 0.015545999631285667
   vertex -0.0075509999878704548 0.0077610001899302006 0.010391999967396259
   vertex 0 0.0031739999540150166 0.010308999568223953
  endloop
 endfacet
 facet normal 0.53888384862171701 -0.60251567773254533 0.58870965320872559
  outer loop
   vertex 0.0046169999986886978 0.0034399998839944601 0.0063550001941621304
   vertex 0 0.0082909995689988136 0.015545999631285667
   vertex 0 0.0031739999540150166 0.010308999568223953
  endloop
 endfacet
 facet normal 0.42010717515762569 -0.69827652324799949 0.57958593708074568
  outer loop
   vertex 0.0075509999878704548 0.0085559999570250511 0.010391999967396259
   vertex 0 0.0082909995689988136 0.015545999631285667
   vertex 0.0046169999986886978 0.0034399998839944601 0.0063550001941621304
  endloop
 endfacet
 facet normal 0.35301067456245389 -0.72184671230169939 -0.59524850909866966
  outer loop
   vertex 0 0.0042329998686909676 -0.0081820003688335419
   vertex 0.0069249998778104782 0.0087320003658533096 -0.0095309996977448463
   vertex 0.0039909998886287212 0.0039690001867711544 -0.0054950001649558544
  endloop
 endfacet
 facet normal 0.6896262006729651 -0.66592088041632924 -0.28454364229571588
  outer loop
   vertex 0.0069249998778104782 0.0087320003658533096 -0.0095309996977448463
   vertex 0.0096490001305937767 0.0088200001046061516 -0.0031349998898804188
   vertex 0.0039909998886287212 0.0039690001867711544 -0.0054950001649558544
  endloop
 endfacet
 facet normal 0.68835882845789276 -0.67991542324343435 -0.25273927379768046
  outer loop
   vertex 0.0039909998886287212 0.0039690001867711544 -0.0054950001649558544
   vertex 0.0096490001305937767 0.0088200001046061516 -0.0031349998898804188
   vertex 0.005135000217705965 0.0037050000391900539 -0.0016690000193193555
  endloop
 endfacet
 facet normal 0.74978225221140837 -0.66168464865734056 0
  outer loop
   vertex 0.0096490001305937767 0.0088200001046061516 -0.0031349998898804188
   vertex 0.0096490001305937767 0.0088200001046061516 0.0031349998898804188
   vertex 0.005135000217705965 0.0037050000391900539 -0.0016690000193193555
  endloop
 endfacet
 facet normal 0.84345553913731464 -0.53348399860560614 0.063068032554975423
  outer loop
   vertex 0.005135000217705965 0.0037050000391900539 0.0016690000193193555
   vertex 0.0075509999878704548 0.0085559999570250511 0.010391999967396259
   vertex 0.0046169999986886978 0.0034399998839944601 0.0063550001941621304
  endloop
 endfacet
 facet normal 0.71112191532791247 -0.67940548111828059 0.18086960431979446
  outer loop
   vertex 0.0096490001305937767 0.0088200001046061516 0.0031349998898804188
   vertex 0.0075509999878704548 0.0085559999570250511 0.010391999967396259
   vertex 0.005135000217705965 0.0037050000391900539 0.0016690000193193555
  endloop
 endfacet
 facet normal 0.74978225221140837 -0.66168464865734056 0
  outer loop
   vertex 0.005135000217705965 0.0037050000391900539 -0.0016690000193193555
   vertex 0.0096490001305937767 0.0088200001046061516 0.0031349998898804188
   vertex 0.005135000217705965 0.0037050000391900539 0.0016690000193193555
  endloop
 endfacet
 facet normal 0.24309725383058314 -0.86153282516140284 -0.4457184272042618
  outer loop
   vertex 0 0.0042329998686909676 -0.0081820003688335419
   vertex 0.0039909998886287212 0.0039690001867711544 -0.0054950001649558544
   vertex 0 0 0
  endloop
 endfacet
 facet normal -0.093114141315090757 -0.88431767700180608 -0.45750628720191666
  outer loop
   vertex -0.004424000158905983 0.003616000059992075 -0.0060890000313520432
   vertex 0 0.0042329998686909676 -0.0081820003688335419
   vertex 0 0 0
  endloop
 endfacet
 facet normal -0.31286872464433063 -0.89896865482440824 -0.30654284983118407
  outer loop
   vertex -0.0065359999425709248 0.0029990000184625387 -0.0021240001078695059
   vertex -0.004424000158905983 0.003616000059992075 -0.0060890000313520432
   vertex 0 0 0
  endloop
 endfacet
 facet normal -0.4170377391203246 -0.90888917044346396 0
  outer loop
   vertex -0.0065359999425709248 0.0029990000184625387 0.0021240001078695059
   vertex -0.0065359999425709248 0.0029990000184625387 -0.0021240001078695059
   vertex 0 0 0
  endloop
 endfacet
 facet normal -0.37731372607616664 -0.91648957797581232 0.13297069442639145
  outer loop
   vertex -0.0050490000285208225 0.0030869999900460243 0.0069499998353421688
   vertex -0.0065359999425709248 0.0029990000184625387 0.0021240001078695059
   vertex 0 0 0
  endloop
 endfacet
 facet normal -0.17647977689594868 -0.94072603984839975 0.28963667982129498
  outer loop
   vertex 0 0.0031739999540150166 0.010308999568223953
   vertex -0.0050490000285208225 0.0030869999900460243 0.0069499998353421688
   vertex 0 0 0
  endloop
 endfacet
 facet normal 0.29353594351422285 -0.91362522980739413 0.28129271111175502
  outer loop
   vertex 0.0046169999986886978 0.0034399998839944601 0.0063550001941621304
   vertex 0 0.0031739999540150166 0.010308999568223953
   vertex 0 0 0
  endloop
 endfacet
 facet normal 0.58111583160308711 -0.81361673010713587 0.01822653971615432
  outer loop
   vertex 0.005135000217705965 0.0037050000391900539 0.0016690000193193555
   vertex 0.0046169999986886978 0.0034399998839944601 0.0063550001941621304
   vertex 0 0 0
  endloop
 endfacet
 facet normal 0.52493296310843152 -0.82385223906866023 -0.21380568847380366
  outer loop
   vertex 0.0039909998886287212 0.0039690001867711544 -0.0054950001649558544
   vertex 0.005135000217705965 0.0037050000391900539 -0.0016690000193193555
   vertex 0 0 0
  endloop
 endfacet
 facet normal 0.58511568515863388 -0.81094983505845941 0
  outer loop
   vertex 0.005135000217705965 0.0037050000391900539 -0.0016690000193193555
   vertex 0.005135000217705965 0.0037050000391900539 0.0016690000193193555
   vertex 0 0 0
  endloop
 endfacet
endsolid
