solid Visualization Toolkit generated SLA File
 facet normal -0.7294302876192319 -0.58990962475548037 0.34632079077724021
  outer loop
   vertex -0.0042289998382329941 -0.0048290002159774303 0.005348999984562397
   vertex -0.0065660001710057259 -0.0060029998421669006 -0.0015729999868199229
   vertex -0.0028649999294430017 -0.0070879999548196793 0.0043739997781813145
  endloop
 endfacet
 facet normal -0.75438993388269282 -0.16011610193537426 0.63659929434259277
  outer loop
   vertex -0.0010819999733939767 -0.00076999998418614268 0.008076000027358532
   vertex -0.0028649999294430017 -0.0070879999548196793 0.0043739997781813145
   vertex 0.0011330000124871731 -0.0044550001621246338 0.009774000383913517
  endloop
 endfacet
 facet normal -0.90686418857407503 -0.075809344252925792 0.41454829248933844
  outer loop
   vertex -0.0042289998382329941 -0.0048290002159774303 0.005348999984562397
   vertex -0.00547399977222085 0.0010470000561326742 0.0037000000011175871
   vertex -0.0062730000354349613 -0.0036289999261498451 0.0010969999711960554
  endloop
 endfacet
 facet normal -0.6932967597541041 0.054759257448557086 0.71856873480422356
  outer loop
   vertex -0.00547399977222085 0.0010470000561326742 0.0037000000011175871
   vertex -0.0042289998382329941 -0.0048290002159774303 0.005348999984562397
   vertex -0.0010819999733939767 -0.00076999998418614268 0.008076000027358532
  endloop
 endfacet
 facet normal 0.0048425835754453165 -0.98061191399141245 -0.19590003451355825
  outer loop
   vertex -0.0028649999294430017 -0.0070879999548196793 0.0043739997781813145
   vertex 0.0047729997895658016 -0.0055359997786581516 -0.0032059999648481607
   vertex 0.0066140000708401203 -0.0070319999940693378 0.0043279998935759068
  endloop
 endfacet
 facet normal 0.51058389484791278 -0.4553712445888688 0.72934293437553777
  outer loop
   vertex 0.0011330000124871731 -0.0044550001621246338 0.009774000383913517
   vertex 0.0066140000708401203 -0.0070319999940693378 0.0043279998935759068
   vertex 0.0071060000918805599 -0.0040009999647736549 0.0058760000392794609
  endloop
 endfacet
 facet normal -0.96382464208604235 -0.13770647350236667 0.228208208579916
  outer loop
   vertex -0.0062730000354349613 -0.0036289999261498451 0.0010969999711960554
   vertex -0.0075610000640153885 -0.0059659997932612896 -0.0057529998011887074
   vertex -0.0065660001710057259 -0.0060029998421669006 -0.0015729999868199229
  endloop
 endfacet
 facet normal 0.016932180919298996 -0.98623683256082328 -0.16446948455476731
  outer loop
   vertex -0.0065660001710057259 -0.0060029998421669006 -0.0015729999868199229
   vertex 0.0027320000808686018 -0.004935000091791153 -0.0070199999026954174
   vertex 0.0047729997895658016 -0.0055359997786581516 -0.0032059999648481607
  endloop
 endfacet
 facet normal -0.9246954939351465 -0.051942465138274871 0.37714748283847027
  outer loop
   vertex -0.0062730000354349613 -0.0036289999261498451 0.0010969999711960554
   vertex -0.00547399977222085 0.0010470000561326742 0.0037000000011175871
   vertex -0.0069309999234974384 -0.0018769999733194709 -0.00027499999850988388
  endloop
 endfacet
 facet normal 0.17078771723018341 0.41806065780554846 0.89222017576296442
  outer loop
   vertex -0.0015279999934136868 0.0035810000263154507 0.0065179998055100441
   vertex 0.0011330000124871731 -0.0044550001621246338 0.009774000383913517
   vertex 0.0038260000292211771 0.00165200000628829 0.0063970000483095646
  endloop
 endfacet
 facet normal -0.65017729255502543 0.19618890203727896 0.73401594189991803
  outer loop
   vertex -0.0015279999934136868 0.0035810000263154507 0.0065179998055100441
   vertex -0.00547399977222085 0.0010470000561326742 0.0037000000011175871
   vertex -0.0010819999733939767 -0.00076999998418614268 0.008076000027358532
  endloop
 endfacet
 facet normal 0.24649289333492005 0.053839041460290817 0.96764797894173116
  outer loop
   vertex 0.0038260000292211771 0.00165200000628829 0.0063970000483095646
   vertex 0.0071060000918805599 -0.0040009999647736549 0.0058760000392794609
   vertex 0.0078870002180337906 0.0019490000559017062 0.0053460001945495605
  endloop
 endfacet
 facet normal -0.64594966509330165 0.18121746425790961 0.74155866983926821
  outer loop
   vertex -0.0049540000036358833 0.0029209998901933432 0.0036949999630451202
   vertex -0.00547399977222085 0.0010470000561326742 0.0037000000011175871
   vertex -0.0015279999934136868 0.0035810000263154507 0.0065179998055100441
  endloop
 endfacet
 facet normal -0.85313838721200197 0.23796854815192892 0.46424763042558143
  outer loop
   vertex -0.0060879997909069061 0.0037209999281913042 0.0012009999481961131
   vertex -0.00547399977222085 0.0010470000561326742 0.0037000000011175871
   vertex -0.0049540000036358833 0.0029209998901933432 0.0036949999630451202
  endloop
 endfacet
 facet normal -0.97045030713976588 0.002661989421412261 0.2412863758786524
  outer loop
   vertex -0.0067529999651014805 0.0025770000647753477 -0.0014609999489039183
   vertex -0.00547399977222085 0.0010470000561326742 0.0037000000011175871
   vertex -0.0060879997909069061 0.0037209999281913042 0.0012009999481961131
  endloop
 endfacet
 facet normal -0.95547270351870905 0.11620481550287849 0.27123486812095354
  outer loop
   vertex -0.0068970001302659512 0.00043600000208243728 -0.0010509999701753259
   vertex -0.00547399977222085 0.0010470000561326742 0.0037000000011175871
   vertex -0.0067529999651014805 0.0025770000647753477 -0.0014609999489039183
  endloop
 endfacet
 facet normal -0.95624947632897661 0.10559030495904077 0.27283259797761494
  outer loop
   vertex -0.0069309999234974384 -0.0018769999733194709 -0.00027499999850988388
   vertex -0.00547399977222085 0.0010470000561326742 0.0037000000011175871
   vertex -0.0068970001302659512 0.00043600000208243728 -0.0010509999701753259
  endloop
 endfacet
 facet normal -0.33099186673462083 -0.84285125468333288 -0.42431844955677184
  outer loop
   vertex 0.0066140000708401203 -0.0070319999940693378 0.0043279998935759068
   vertex 0.0083440002053976059 -0.0038419999182224274 -0.0033579999580979347
   vertex 0.0098069999366998672 -0.0058059999719262123 -0.00059800001326948404
  endloop
 endfacet
 facet normal 0.73751607200821867 -0.50491856888468145 0.448472164492974
  outer loop
   vertex 0.0071060000918805599 -0.0040009999647736549 0.0058760000392794609
   vertex 0.0098069999366998672 -0.0058059999719262123 -0.00059800001326948404
   vertex 0.010635999962687492 -0.0014100000262260437 0.0029879999347031116
  endloop
 endfacet
 facet normal 0.32401489442471443 -0.73633103644113995 -0.59399575163839169
  outer loop
   vertex 0.0047729997895658016 -0.0055359997786581516 -0.0032059999648481607
   vertex 0.0052459998987615108 -0.0020679999142885208 -0.0072470000013709068
   vertex 0.0083440002053976059 -0.0038419999182224274 -0.0033579999580979347
  endloop
 endfacet
 facet normal 0.72600925648132164 0.11865363361834681 0.67737129754116532
  outer loop
   vertex 0.0078870002180337906 0.0019490000559017062 0.0053460001945495605
   vertex 0.010635999962687492 -0.0014100000262260437 0.0029879999347031116
   vertex 0.010476999916136265 0.0030110001098364592 0.0023839999921619892
  endloop
 endfacet
 facet normal -0.99502589468320313 0.023673159078500722 0.096762856764025962
  outer loop
   vertex -0.0069309999234974384 -0.0018769999733194709 -0.00027499999850988388
   vertex -0.0075690001249313354 -0.00058799999533221126 -0.0071510002017021179
   vertex -0.0075610000640153885 -0.0059659997932612896 -0.0057529998011887074
  endloop
 endfacet
 facet normal -0.098239725843431283 -0.21366257612934361 -0.97195537954577926
  outer loop
   vertex -0.0075610000640153885 -0.0059659997932612896 -0.0057529998011887074
   vertex 0.0021599999163299799 0.0041439998894929886 -0.0089579997584223747
   vertex 0.0027320000808686018 -0.004935000091791153 -0.0070199999026954174
  endloop
 endfacet
 facet normal 0.1344977758308524 -0.19486317297500139 -0.97156507353582267
  outer loop
   vertex 0.0027320000808686018 -0.004935000091791153 -0.0070199999026954174
   vertex 0.0054700002074241638 0.0011279999744147062 -0.0078570004552602768
   vertex 0.0052459998987615108 -0.0020679999142885208 -0.0072470000013709068
  endloop
 endfacet
 facet normal -0.23395534766966433 0.32918037233075859 0.91482521706004027
  outer loop
   vertex -0.0049540000036358833 0.0029209998901933432 0.0036949999630451202
   vertex 0.0038260000292211771 0.00165200000628829 0.0063970000483095646
   vertex -0.004844999872148037 0.0069169998168945312 0.0022849999368190765
  endloop
 endfacet
 facet normal 0.18850794138897448 0.8179757652921934 0.54348910148037155
  outer loop
   vertex -0.004844999872148037 0.0069169998168945312 0.0022849999368190765
   vertex 0.0078870002180337906 0.0019490000559017062 0.0053460001945495605
   vertex 0.0065460000187158585 0.0055410000495612621 0.00040499999886378646
  endloop
 endfacet
 facet normal 0.41902730110758424 0.86557168528524475 0.27422942686545321
  outer loop
   vertex 0.0065460000187158585 0.0055410000495612621 0.00040499999886378646
   vertex 0.010476999916136265 0.0030110001098364592 0.0023839999921619892
   vertex 0.0077820001170039177 0.0052620000205934048 -0.00060299999313428998
  endloop
 endfacet
 facet normal -0.93834669108427204 0.32980697505502632 0.1035994523935854
  outer loop
   vertex -0.0060879997909069061 0.0037209999281913042 0.0012009999481961131
   vertex -0.004844999872148037 0.0069169998168945312 0.0022849999368190765
   vertex -0.0047749998047947884 0.01053600013256073 -0.0086019998416304588
  endloop
 endfacet
 facet normal -0.78776726676843589 0.50814757109679887 0.34815051256117896
  outer loop
   vertex -0.0067529999651014805 0.0025770000647753477 -0.0014609999489039183
   vertex -0.0047749998047947884 0.01053600013256073 -0.0086019998416304588
   vertex -0.0081209996715188026 0.0044539999216794968 -0.0072960001416504383
  endloop
 endfacet
 facet normal -0.98649909132944835 -0.10437295077941147 0.12619758298704112
  outer loop
   vertex -0.0068970001302659512 0.00043600000208243728 -0.0010509999701753259
   vertex -0.0081209996715188026 0.0044539999216794968 -0.0072960001416504383
   vertex -0.0075690001249313354 -0.00058799999533221126 -0.0071510002017021179
  endloop
 endfacet
 facet normal 0.39757537313792568 -0.5972352900913287 0.6965944522774824
  outer loop
   vertex 0.010635999962687492 -0.0014100000262260437 0.0029879999347031116
   vertex 0.012192999944090843 -0.006238000001758337 -0.0020399999339133501
   vertex 0.013667000457644463 -0.0011360000353306532 0.0014929999597370625
  endloop
 endfacet
 facet normal 0.58328507590924838 0.56556531661988696 0.58302177734471405
  outer loop
   vertex 0.012192999944090843 -0.006238000001758337 -0.0020399999339133501
   vertex 0.011350000277161598 -0.0041800001636147499 -0.0031930000986903906
   vertex 0.011770999990403652 -0.0052089998498558998 -0.0026159998960793018
  endloop
 endfacet
 facet normal 0.068162113194932539 0.1228772202851779 -0.99007833783988486
  outer loop
   vertex 0.0083440002053976059 -0.0038419999182224274 -0.0033579999580979347
   vertex 0.010139999911189079 -0.0015750000020489097 -0.0029529999010264874
   vertex 0.011350000277161598 -0.0041800001636147499 -0.0031930000986903906
  endloop
 endfacet
 facet normal 0.46794140991668354 0.17378288784377269 0.86650467094982531
  outer loop
   vertex 0.010476999916136265 0.0030110001098364592 0.0023839999921619892
   vertex 0.013667000457644463 -0.0011360000353306532 0.0014929999597370625
   vertex 0.014585999771952629 0.0026569999754428864 0.00023600000713486224
  endloop
 endfacet
 facet normal 0.65098665135828959 0.096096879844509514 -0.75298191840008399
  outer loop
   vertex 0.0052459998987615108 -0.0020679999142885208 -0.0072470000013709068
   vertex 0.0097270002588629723 0.0003060000017285347 -0.0030700000934302807
   vertex 0.010139999911189079 -0.0015750000020489097 -0.0029529999010264874
  endloop
 endfacet
 facet normal 0.230187702576376 0.30342822041752965 -0.92463232510920834
  outer loop
   vertex 0.0077820001170039177 0.0052620000205934048 -0.00060299999313428998
   vertex 0.011796999722719193 0.0038189999759197235 -7.6999996963422745e-05
   vertex 0.014585999771952629 0.0026569999754428864 0.00023600000713486224
  endloop
 endfacet
 facet normal -0.23444380321105748 0.11332250578861906 -0.96550200042139911
  outer loop
   vertex -0.0075690001249313354 -0.00058799999533221126 -0.0071510002017021179
   vertex 0.0037700000684708357 0.0064949998632073402 -0.0090730004012584686
   vertex 0.0021599999163299799 0.0041439998894929886 -0.0089579997584223747
  endloop
 endfacet
 facet normal 0.26699540188210508 -0.058137673210443212 -0.96194254835072601
  outer loop
   vertex 0.0021599999163299799 0.0041439998894929886 -0.0089579997584223747
   vertex 0.0068199997767806053 0.0041510001756250858 -0.0076649999246001244
   vertex 0.0054700002074241638 0.0011279999744147062 -0.0078570004552602768
  endloop
 endfacet
 facet normal 0.74423787646273587 -0.031152508052278934 -0.6671877580413853
  outer loop
   vertex 0.0054700002074241638 0.0011279999744147062 -0.0078570004552602768
   vertex 0.010088999755680561 0.0020580000709742308 -0.0027479999698698521
   vertex 0.0097270002588629723 0.0003060000017285347 -0.0030700000934302807
  endloop
 endfacet
 facet normal -0.29111002861766849 0.63327207353287196 0.71709234560243151
  outer loop
   vertex -0.0047749998047947884 0.01053600013256073 -0.0086019998416304588
   vertex 0.0065460000187158585 0.0055410000495612621 0.00040499999886378646
   vertex 0.0045639998279511929 0.012107999995350838 -0.0061989999376237392
  endloop
 endfacet
 facet normal 0.88168635926070837 0.46737157456962081 0.064753186623596637
  outer loop
   vertex 0.0045639998279511929 0.012107999995350838 -0.0061989999376237392
   vertex 0.0077820001170039177 0.0052620000205934048 -0.00060299999313428998
   vertex 0.0070440000854432583 0.0072400001809000969 -0.0048310002312064171
  endloop
 endfacet
 facet normal 0.75375068759876962 0.55226388257128756 -0.35618043875495031
  outer loop
   vertex 0.0070440000854432583 0.0072400001809000969 -0.0048310002312064171
   vertex 0.011796999722719193 0.0038189999759197235 -7.6999996963422745e-05
   vertex 0.011672000400722027 0.0028989999555051327 -0.0017679999582469463
  endloop
 endfacet
 facet normal -0.20874226411851304 0.46895014049321904 -0.85820302545613714
  outer loop
   vertex -0.0081209996715188026 0.0044539999216794968 -0.0072960001416504383
   vertex 0.0045639998279511929 0.012107999995350838 -0.0061989999376237392
   vertex 0.0037700000684708357 0.0064949998632073402 -0.0090730004012584686
  endloop
 endfacet
 facet normal 0.7485616274518081 0.039811379530379984 0.66186897794547561
  outer loop
   vertex 0.013667000457644463 -0.0011360000353306532 0.0014929999597370625
   vertex 0.017426000908017159 -0.0026050000451505184 -0.0026700000744313002
   vertex 0.017490999773144722 0.0002460000105202198 -0.0029150000773370266
  endloop
 endfacet
 facet normal 0.50468751225154962 0.84418985649436862 -0.18064883384444921
  outer loop
   vertex 0.014585999771952629 0.0026569999754428864 0.00023600000713486224
   vertex 0.017490999773144722 0.0002460000105202198 -0.0029150000773370266
   vertex 0.017280999571084976 4.1999999666586518e-05 -0.0044550001621246338
  endloop
 endfacet
 facet normal 0.26260110504852358 -0.21514029355269121 0.94061432782908205
  outer loop
   vertex 0.012192999944090843 -0.006238000001758337 -0.0020399999339133501
   vertex 0.016891000792384148 -0.0034809999633580446 -0.0027209999971091747
   vertex 0.017426000908017159 -0.0026050000451505184 -0.0026700000744313002
  endloop
 endfacet
 facet normal 0.050277252273157373 -0.088521412230105442 0.99480458255913207
  outer loop
   vertex 0.011770999990403652 -0.0052089998498558998 -0.0026159998960793018
   vertex 0.016356000676751137 -0.0043580001220107079 -0.0027719999197870493
   vertex 0.016891000792384148 -0.0034809999633580446 -0.0027209999971091747
  endloop
 endfacet
 facet normal -0.079603391903307896 -0.78466926699000916 0.61478243423088341
  outer loop
   vertex 0.011350000277161598 -0.0041800001636147499 -0.0031930000986903906
   vertex 0.015487999655306339 -0.0052069998346269131 -0.0039679999463260174
   vertex 0.016356000676751137 -0.0043580001220107079 -0.0027719999197870493
  endloop
 endfacet
 facet normal -0.48374880152082184 -0.51442928361172224 -0.70806045588628852
  outer loop
   vertex 0.010139999911189079 -0.0015750000020489097 -0.0029529999010264874
   vertex 0.015637999400496483 -0.0045579997822642326 -0.004542000126093626
   vertex 0.015487999655306339 -0.0052069998346269131 -0.0039679999463260174
  endloop
 endfacet
 facet normal -0.15293770163347353 0.64540142346288421 -0.74837628370436315
  outer loop
   vertex 0.011796999722719193 0.0038189999759197235 -7.6999996963422745e-05
   vertex 0.017280999571084976 4.1999999666586518e-05 -0.0044550001621246338
   vertex 0.016712000593543053 -0.0013150000013411045 -0.0055089998058974743
  endloop
 endfacet
 facet normal -0.55924434111172006 -0.47374291454006817 -0.68030391580351768
  outer loop
   vertex 0.0097270002588629723 0.0003060000017285347 -0.0030700000934302807
   vertex 0.015785999596118927 -0.0039070001803338528 -0.0051170000806450844
   vertex 0.015637999400496483 -0.0045579997822642326 -0.004542000126093626
  endloop
 endfacet
 facet normal -0.51366461307798061 0.13749257964131636 -0.84690286090851341
  outer loop
   vertex 0.011672000400722027 0.0028989999555051327 -0.0017679999582469463
   vertex 0.016712000593543053 -0.0013150000013411045 -0.0055089998058974743
   vertex 0.01630299910902977 -0.002997000003233552 -0.0055340002290904522
  endloop
 endfacet
 facet normal 0.64646370619221605 0.4897967203617446 -0.58496482740341149
  outer loop
   vertex 0.0037700000684708357 0.0064949998632073402 -0.0090730004012584686
   vertex 0.0070440000854432583 0.0072400001809000969 -0.0048310002312064171
   vertex 0.0068199997767806053 0.0041510001756250858 -0.0076649999246001244
  endloop
 endfacet
 facet normal 0.63138902931406926 -0.46744272774256129 -0.61874485043710159
  outer loop
   vertex 0.0068199997767806053 0.0041510001756250858 -0.0076649999246001244
   vertex 0.011672000400722027 0.0028989999555051327 -0.0017679999582469463
   vertex 0.010088999755680561 0.0020580000709742308 -0.0027479999698698521
  endloop
 endfacet
 facet normal -0.48608140182547621 -0.12048172631032188 -0.86556861335463453
  outer loop
   vertex 0.010088999755680561 0.0020580000709742308 -0.0027479999698698521
   vertex 0.01630299910902977 -0.002997000003233552 -0.0055340002290904522
   vertex 0.015785999596118927 -0.0039070001803338528 -0.0051170000806450844
  endloop
 endfacet
 facet normal 0.83801401922099905 -0.06565507515939828 -0.54168433122518955
  outer loop
   vertex 0.016536999493837357 -0.0028140000067651272 -0.0040199998766183853
   vertex 0.017490999773144722 0.0002460000105202198 -0.0029150000773370266
   vertex 0.017426000908017159 -0.0026050000451505184 -0.0026700000744313002
  endloop
 endfacet
 facet normal 0.95959531425118016 -0.26457109067428114 -0.095806945711675626
  outer loop
   vertex 0.016536999493837357 -0.0028140000067651272 -0.0040199998766183853
   vertex 0.017280999571084976 4.1999999666586518e-05 -0.0044550001621246338
   vertex 0.017490999773144722 0.0002460000105202198 -0.0029150000773370266
  endloop
 endfacet
 facet normal 0.77673718280452753 -0.44864212338708392 -0.44204026283995262
  outer loop
   vertex 0.016536999493837357 -0.0028140000067651272 -0.0040199998766183853
   vertex 0.017426000908017159 -0.0026050000451505184 -0.0026700000744313002
   vertex 0.016891000792384148 -0.0034809999633580446 -0.0027209999971091747
  endloop
 endfacet
 facet normal 0.94859265243604063 -0.27180921124741309 -0.16214725537429342
  outer loop
   vertex 0.016536999493837357 -0.0028140000067651272 -0.0040199998766183853
   vertex 0.016712000593543053 -0.0013150000013411045 -0.0055089998058974743
   vertex 0.017280999571084976 4.1999999666586518e-05 -0.0044550001621246338
  endloop
 endfacet
 facet normal 0.77699792925442002 -0.44829571172043942 -0.44193344836910436
  outer loop
   vertex 0.016536999493837357 -0.0028140000067651272 -0.0040199998766183853
   vertex 0.016891000792384148 -0.0034809999633580446 -0.0027209999971091747
   vertex 0.016356000676751137 -0.0043580001220107079 -0.0027719999197870493
  endloop
 endfacet
 facet normal 0.85538586344806966 -0.3825574078381706 -0.34923466941490766
  outer loop
   vertex 0.016536999493837357 -0.0028140000067651272 -0.0040199998766183853
   vertex 0.016356000676751137 -0.0043580001220107079 -0.0027719999197870493
   vertex 0.015487999655306339 -0.0052069998346269131 -0.0039679999463260174
  endloop
 endfacet
 facet normal 0.89283251024612753 -0.39604423621739293 -0.21447394155603275
  outer loop
   vertex 0.016536999493837357 -0.0028140000067651272 -0.0040199998766183853
   vertex 0.015487999655306339 -0.0052069998346269131 -0.0039679999463260174
   vertex 0.015637999400496483 -0.0045579997822642326 -0.004542000126093626
  endloop
 endfacet
 facet normal 0.89256517417066095 -0.39500730921799532 -0.21747789662873029
  outer loop
   vertex 0.016536999493837357 -0.0028140000067651272 -0.0040199998766183853
   vertex 0.015637999400496483 -0.0045579997822642326 -0.004542000126093626
   vertex 0.015785999596118927 -0.0039070001803338528 -0.0051170000806450844
  endloop
 endfacet
 facet normal 0.96495760907860262 -0.23284429881451357 -0.12099729414695286
  outer loop
   vertex 0.016536999493837357 -0.0028140000067651272 -0.0040199998766183853
   vertex 0.01630299910902977 -0.002997000003233552 -0.0055340002290904522
   vertex 0.016712000593543053 -0.0013150000013411045 -0.0055089998058974743
  endloop
 endfacet
 facet normal 0.85337434188420069 -0.51665207231023313 -0.069446877476593463
  outer loop
   vertex 0.016536999493837357 -0.0028140000067651272 -0.0040199998766183853
   vertex 0.015785999596118927 -0.0039070001803338528 -0.0051170000806450844
   vertex 0.01630299910902977 -0.002997000003233552 -0.0055340002290904522
  endloop
 endfacet
endsolid
