solid Visualization Toolkit generated SLA File
 facet normal 0.79132467993606637 -0.59876324758588473 0.12364394147909824
  outer loop
   vertex 0.0068910000845789909 -0.0014730000402778387 -0.00066000001970678568
   vertex 0.00496299983933568 -0.0025390000082552433 0.0065170000307261944
   vertex 0.0038900000508874655 -0.0055180001072585583 -0.0010420000180602074
  endloop
 endfacet
 facet normal 0.90021156528241941 -0.39059432219159529 -0.1924973070031489
  outer loop
   vertex 0.0057500000111758709 0.00095399998826906085 -0.0054759997874498367
   vertex 0.0038900000508874655 -0.0055180001072585583 -0.0010420000180602074
   vertex 0.0042610000818967819 -0.0017030000453814864 -0.0070480001159012318
  endloop
 endfacet
 facet normal 0.99504019665423604 -0.098742575243648364 0.012037893360209101
  outer loop
   vertex 0.0069780000485479832 -0.00013899999612476677 0.0030910000205039978
   vertex 0.0068910000845789909 -0.0014730000402778387 -0.00066000001970678568
   vertex 0.007133999839425087 0.00076299998909235001 -0.0024049999192357063
  endloop
 endfacet
 facet normal 0.85562555555456643 -0.3515610991956874 -0.37988116854387449
  outer loop
   vertex 0.0068910000845789909 -0.0014730000402778387 -0.00066000001970678568
   vertex 0.0057500000111758709 0.00095399998826906085 -0.0054759997874498367
   vertex 0.0070150000974535942 0.0013399999588727951 -0.0029839999042451382
  endloop
 endfacet
 facet normal 0.20307188499352957 -0.92766708834183842 0.31336174420715485
  outer loop
   vertex 0.0038900000508874655 -0.0055180001072585583 -0.0010420000180602074
   vertex -0.006399999838322401 -0.0060640000738203526 0.0040099998004734516
   vertex -0.0098710004240274429 -0.0088560003787279129 -0.0020059999078512192
  endloop
 endfacet
 facet normal -0.0087292807338355989 -0.56453490823554053 -0.82536303348366635
  outer loop
   vertex 0.0042610000818967819 -0.0017030000453814864 -0.0070480001159012318
   vertex -0.0098710004240274429 -0.0088560003787279129 -0.0020059999078512192
   vertex -0.012155000120401382 -0.0044390000402927399 -0.0050030001439154148
  endloop
 endfacet
 facet normal 0.87461881733794633 -0.045271350981522608 0.48269289319263864
  outer loop
   vertex 0.0069780000485479832 -0.00013899999612476677 0.0030910000205039978
   vertex 0.0013729999773204327 -0.0022289999760687351 0.01305100042372942
   vertex 0.00496299983933568 -0.0025390000082552433 0.0065170000307261944
  endloop
 endfacet
 facet normal 0.11151896672342171 -0.78909752347188422 0.60406011167058493
  outer loop
   vertex 0.00496299983933568 -0.0025390000082552433 0.0065170000307261944
   vertex -0.0020469999872148037 -0.0027060001157224178 0.007592999842017889
   vertex -0.006399999838322401 -0.0060640000738203526 0.0040099998004734516
  endloop
 endfacet
 facet normal 0.96418185201048756 0.25015105787488434 0.088191861856424511
  outer loop
   vertex 0.0070750000886619091 0.0009399999980814755 -0.0010300000431016088
   vertex 0.0065040001645684242 0.00065499998163431883 0.0060209999792277813
   vertex 0.0069780000485479832 -0.00013899999612476677 0.0030910000205039978
  endloop
 endfacet
 facet normal 0.4952500674523525 0.11698093842615177 -0.86083844636109108
  outer loop
   vertex 0.0053179999813437462 0.0036239998880773783 -0.0057160002179443836
   vertex 0.0042610000818967819 -0.0017030000453814864 -0.0070480001159012318
   vertex 0.0028260000981390476 0.0046959999017417431 -0.0070039997808635235
  endloop
 endfacet
 facet normal 0.83473381896793208 0.086170834431286522 -0.54386950527183209
  outer loop
   vertex 0.0068970001302659512 0.001917000045068562 -0.00356299988925457
   vertex 0.0057500000111758709 0.00095399998826906085 -0.0054759997874498367
   vertex 0.0053179999813437462 0.0036239998880773783 -0.0057160002179443836
  endloop
 endfacet
 facet normal -0.42736959882399622 0.54243727225278737 -0.72326829853932628
  outer loop
   vertex 0.0028260000981390476 0.0046959999017417431 -0.0070039997808635235
   vertex -0.012155000120401382 -0.0044390000402927399 -0.0050030001439154148
   vertex -0.011220999993383884 0.0013530000578612089 -0.0012110000243410468
  endloop
 endfacet
 facet normal 0.9981010115154888 0.049668429033197223 0.036433747667954146
  outer loop
   vertex 0.0070569999516010284 0.0020689999219030142 -0.0020759999752044678
   vertex 0.0070750000886619091 0.0009399999980814755 -0.0010300000431016088
   vertex 0.007133999839425087 0.00076299998909235001 -0.0024049999192357063
  endloop
 endfacet
 facet normal 0.98937268216892094 0.087572274844029269 -0.11607235871006251
  outer loop
   vertex 0.0070569999516010284 0.0020689999219030142 -0.0020759999752044678
   vertex 0.007133999839425087 0.00076299998909235001 -0.0024049999192357063
   vertex 0.0070150000974535942 0.0013399999588727951 -0.0029839999042451382
  endloop
 endfacet
 facet normal 0.98999421961000245 -0.087084138858862958 -0.11103061693961919
  outer loop
   vertex 0.0070569999516010284 0.0020689999219030142 -0.0020759999752044678
   vertex 0.0072510000318288803 0.002019000006839633 -0.00030700000934302807
   vertex 0.0070750000886619091 0.0009399999980814755 -0.0010300000431016088
  endloop
 endfacet
 facet normal 0.98954178774913104 0.086637661349988668 -0.11532981372593334
  outer loop
   vertex 0.0070569999516010284 0.0020689999219030142 -0.0020759999752044678
   vertex 0.0070150000974535942 0.0013399999588727951 -0.0029839999042451382
   vertex 0.0068970001302659512 0.001917000045068562 -0.00356299988925457
  endloop
 endfacet
 facet normal -0.61632074405778781 -0.51559512629260151 0.59523978881403006
  outer loop
   vertex -0.0098710004240274429 -0.0088560003787279129 -0.0020059999078512192
   vertex -0.0088120000436902046 -0.0025220001116394997 0.0045770001597702503
   vertex -0.010293999686837196 -0.003840999910607934 0.0019000000320374966
  endloop
 endfacet
 facet normal -0.51291128302202871 -0.8322644702444375 0.21037553878110962
  outer loop
   vertex -0.012155000120401382 -0.0044390000402927399 -0.0050030001439154148
   vertex -0.010293999686837196 -0.003840999910607934 0.0019000000320374966
   vertex -0.011567000299692154 -0.0035830000415444374 -0.0001829999964684248
  endloop
 endfacet
 facet normal -0.59021218192100622 -0.50298962220395793 0.63138816924865226
  outer loop
   vertex -0.006399999838322401 -0.0060640000738203526 0.0040099998004734516
   vertex -0.0072200000286102295 -0.0016949999844655395 0.0067239999771118164
   vertex -0.0088120000436902046 -0.0025220001116394997 0.0045770001597702503
  endloop
 endfacet
 facet normal -0.99442761891189169 0.050425539079682988 -0.092579564449984331
  outer loop
   vertex -0.011220999993383884 0.0013530000578612089 -0.0012110000243410468
   vertex -0.011567000299692154 -0.0035830000415444374 -0.0001829999964684248
   vertex -0.011552000418305397 -0.00047999998787418008 0.0013460000045597553
  endloop
 endfacet
 facet normal 0.81499713755308689 -0.041032293184281581 0.57801039497254203
  outer loop
   vertex 0.0065040001645684242 0.00065499998163431883 0.0060209999792277813
   vertex 0.0015640000347048044 0.002099999925121665 0.01308900024741888
   vertex 0.0013729999773204327 -0.0022289999760687351 0.01305100042372942
  endloop
 endfacet
 facet normal -0.847600224031127 0.005778854120133731 0.53060386831179596
  outer loop
   vertex 0.0013729999773204327 -0.0022289999760687351 0.01305100042372942
   vertex -0.0037299999967217445 0.00083199999062344432 0.0048659997992217541
   vertex -0.0020469999872148037 -0.0027060001157224178 0.007592999842017889
  endloop
 endfacet
 facet normal 0.94783945739188347 0.26962554470561212 0.17000714294776473
  outer loop
   vertex 0.0072510000318288803 0.002019000006839633 -0.00030700000934302807
   vertex 0.0058849998749792576 0.0022150001022964716 0.0069980002008378506
   vertex 0.0065040001645684242 0.00065499998163431883 0.0060209999792277813
  endloop
 endfacet
 facet normal -0.14640745908427305 0.09705499940410435 0.98445171695475042
  outer loop
   vertex -0.0020469999872148037 -0.0027060001157224178 0.007592999842017889
   vertex -0.007726999931037426 7.599999662488699e-05 0.0064739999361336231
   vertex -0.0072200000286102295 -0.0016949999844655395 0.0067239999771118164
  endloop
 endfacet
 facet normal 0.98950506175857456 -0.092361857344099393 -0.11112614481798568
  outer loop
   vertex 0.0070569999516010284 0.0020689999219030142 -0.0020759999752044678
   vertex 0.0073159998282790184 0.0030330000445246696 -0.00057099998230114579
   vertex 0.0072510000318288803 0.002019000006839633 -0.00030700000934302807
  endloop
 endfacet
 facet normal 0.32806409904245704 0.80300806611770548 -0.49754597040812609
  outer loop
   vertex 0.0049149999395012856 0.0060439999215304852 -0.0034509999677538872
   vertex 0.0028260000981390476 0.0046959999017417431 -0.0070039997808635235
   vertex 0.0031220000237226486 0.007898000068962574 -0.0016410000389441848
  endloop
 endfacet
 facet normal 0.7827668992249176 0.48973431056268513 -0.38397433056846308
  outer loop
   vertex 0.0068009998649358749 0.0030350000597536564 -0.0034439999144524336
   vertex 0.0053179999813437462 0.0036239998880773783 -0.0057160002179443836
   vertex 0.0049149999395012856 0.0060439999215304852 -0.0034509999677538872
  endloop
 endfacet
 facet normal -0.14921975301415807 0.26440891651569781 -0.95279661532637094
  outer loop
   vertex 0.0031220000237226486 0.007898000068962574 -0.0016410000389441848
   vertex -0.011220999993383884 0.0013530000578612089 -0.0012110000243410468
   vertex -0.0053949998691678047 0.0057580000720918179 -0.00090099999215453863
  endloop
 endfacet
 facet normal 0.98844158100079571 0.097253978419930012 -0.11629662346836676
  outer loop
   vertex 0.0070569999516010284 0.0020689999219030142 -0.0020759999752044678
   vertex 0.0068970001302659512 0.001917000045068562 -0.00356299988925457
   vertex 0.0068009998649358749 0.0030350000597536564 -0.0034439999144524336
  endloop
 endfacet
 facet normal -0.66007190337734267 0.72385192882861338 0.20085683334880092
  outer loop
   vertex -0.0053949998691678047 0.0057580000720918179 -0.00090099999215453863
   vertex -0.011552000418305397 -0.00047999998787418008 0.0013460000045597553
   vertex -0.0099719995632767677 0.00044299999717622995 0.003212000010535121
  endloop
 endfacet
 facet normal 0.98127413336800551 0.032705739280373958 -0.18981941365675384
  outer loop
   vertex 0.0070569999516010284 0.0020689999219030142 -0.0020759999752044678
   vertex 0.006965000182390213 0.0035059999208897352 -0.0023040000814944506
   vertex 0.0073159998282790184 0.0030330000445246696 -0.00057099998230114579
  endloop
 endfacet
 facet normal 0.9867474087672542 0.038149905488862518 -0.15771536387524251
  outer loop
   vertex 0.0070569999516010284 0.0020689999219030142 -0.0020759999752044678
   vertex 0.0068009998649358749 0.0030350000597536564 -0.0034439999144524336
   vertex 0.006965000182390213 0.0035059999208897352 -0.0023040000814944506
  endloop
 endfacet
 facet normal -0.86048340838191439 -0.06000420848232968 0.50593260308449473
  outer loop
   vertex -0.0088120000436902046 -0.0025220001116394997 0.0045770001597702503
   vertex -0.0094879996031522751 -0.0013859999598935246 0.0035620001144707203
   vertex -0.010293999686837196 -0.003840999910607934 0.0019000000320374966
  endloop
 endfacet
 facet normal -0.85502416260724601 -0.067387495107380638 0.51419121624248942
  outer loop
   vertex -0.010293999686837196 -0.003840999910607934 0.0019000000320374966
   vertex -0.0094879996031522751 -0.0013859999598935246 0.0035620001144707203
   vertex -0.011567000299692154 -0.0035830000415444374 -0.0001829999964684248
  endloop
 endfacet
 facet normal -0.81002888711544963 0.040647047191757726 0.58497950356666117
  outer loop
   vertex -0.0072200000286102295 -0.0016949999844655395 0.0067239999771118164
   vertex -0.0094879996031522751 -0.0013859999598935246 0.0035620001144707203
   vertex -0.0088120000436902046 -0.0025220001116394997 0.0045770001597702503
  endloop
 endfacet
 facet normal -0.75670774376315542 -0.28601373098078697 0.58786863857440519
  outer loop
   vertex -0.011567000299692154 -0.0035830000415444374 -0.0001829999964684248
   vertex -0.0094879996031522751 -0.0013859999598935246 0.0035620001144707203
   vertex -0.011552000418305397 -0.00047999998787418008 0.0013460000045597553
  endloop
 endfacet
 facet normal -0.81011984095645961 -0.15199083062377927 0.56621959582389447
  outer loop
   vertex -0.007726999931037426 7.599999662488699e-05 0.0064739999361336231
   vertex -0.0094879996031522751 -0.0013859999598935246 0.0035620001144707203
   vertex -0.0072200000286102295 -0.0016949999844655395 0.0067239999771118164
  endloop
 endfacet
 facet normal -0.74403561701498477 -0.06973279387295514 0.66449103686340494
  outer loop
   vertex -0.011552000418305397 -0.00047999998787418008 0.0013460000045597553
   vertex -0.0094879996031522751 -0.0013859999598935246 0.0035620001144707203
   vertex -0.0099719995632767677 0.00044299999717622995 0.003212000010535121
  endloop
 endfacet
 facet normal 0.7280017047135966 0.4411582324763002 0.52477893617454208
  outer loop
   vertex 0.0058849998749792576 0.0022150001022964716 0.0069980002008378506
   vertex 0.0032629999332129955 0.0060910000465810299 0.0073770000599324703
   vertex 0.0015640000347048044 0.002099999925121665 0.01308900024741888
  endloop
 endfacet
 facet normal -0.83860037236290352 0.18973558209364086 0.51063668528650297
  outer loop
   vertex 0.0015640000347048044 0.002099999925121665 0.01308900024741888
   vertex -0.004290000069886446 0.0042670001275837421 0.0026700000744313002
   vertex -0.0037299999967217445 0.00083199999062344432 0.0048659997992217541
  endloop
 endfacet
 facet normal 0.92088392089772242 0.32867998076297639 0.20962412665933006
  outer loop
   vertex 0.0073159998282790184 0.0030330000445246696 -0.00057099998230114579
   vertex 0.0060870000161230564 0.0040930001996457577 0.0031659998930990696
   vertex 0.0058849998749792576 0.0022150001022964716 0.0069980002008378506
  endloop
 endfacet
 facet normal -0.081655850685005693 0.96465161312076553 0.25055855074695216
  outer loop
   vertex -0.0037299999967217445 0.00083199999062344432 0.0048659997992217541
   vertex -0.0087580000981688499 0.00051599997095763683 0.0044439998455345631
   vertex -0.007726999931037426 7.599999662488699e-05 0.0064739999361336231
  endloop
 endfacet
 facet normal -0.87483333410552 0.1178808251370051 0.46986247839430478
  outer loop
   vertex -0.0087580000981688499 0.00051599997095763683 0.0044439998455345631
   vertex -0.0094879996031522751 -0.0013859999598935246 0.0035620001144707203
   vertex -0.007726999931037426 7.599999662488699e-05 0.0064739999361336231
  endloop
 endfacet
 facet normal 0.69513238029509317 0.70688671146007043 0.13077519270276472
  outer loop
   vertex 0.0060870000161230564 0.0040930001996457577 0.0031659998930990696
   vertex 0.0031220000237226486 0.007898000068962574 -0.0016410000389441848
   vertex 0.0032629999332129955 0.0060910000465810299 0.0073770000599324703
  endloop
 endfacet
 facet normal 0.7647644221205343 0.64205546517956247 0.053853117752837729
  outer loop
   vertex 0.006965000182390213 0.0035059999208897352 -0.0023040000814944506
   vertex 0.0049149999395012856 0.0060439999215304852 -0.0034509999677538872
   vertex 0.0060870000161230564 0.0040930001996457577 0.0031659998930990696
  endloop
 endfacet
 facet normal -0.46874759522931286 0.75414975005756468 0.45992808835170002
  outer loop
   vertex 0.0032629999332129955 0.0060910000465810299 0.0073770000599324703
   vertex -0.0053949998691678047 0.0057580000720918179 -0.00090099999215453863
   vertex -0.004290000069886446 0.0042670001275837421 0.0026700000744313002
  endloop
 endfacet
 facet normal -0.47725024592567278 0.7693301742419304 0.42469198928725488
  outer loop
   vertex -0.004290000069886446 0.0042670001275837421 0.0026700000744313002
   vertex -0.0099719995632767677 0.00044299999717622995 0.003212000010535121
   vertex -0.0087580000981688499 0.00051599997095763683 0.0044439998455345631
  endloop
 endfacet
 facet normal -0.70969293341335538 -0.053373995124704504 0.70248641047893223
  outer loop
   vertex -0.0099719995632767677 0.00044299999717622995 0.003212000010535121
   vertex -0.0094879996031522751 -0.0013859999598935246 0.0035620001144707203
   vertex -0.0087580000981688499 0.00051599997095763683 0.0044439998455345631
  endloop
 endfacet
endsolid
