solid Visualization Toolkit generated SLA File
 facet normal -0.30531025024428882 -0.35784319453684971 0.88245900710425751
  outer loop
   vertex 0.00054400000954046845 -0.0047519998624920845 0.002908000024035573
   vertex -0.0067759999074041843 -0.00040300001273863018 0.0021389999892562628
   vertex -0.0034570000134408474 -0.0073210000991821289 0.00048200000310316682
  endloop
 endfacet
 facet normal -0.23374830036894348 -0.77614386445537153 0.58562994607765051
  outer loop
   vertex 0.0011820000363513827 -0.007036999799311161 0.0027099999133497477
   vertex -0.0034570000134408474 -0.0073210000991821289 0.00048200000310316682
   vertex -0.0015810000477358699 -0.0075969998724758625 0.00086500000907108188
  endloop
 endfacet
 facet normal 0.58548983767259788 -0.73858943477117844 -0.33419649433605131
  outer loop
   vertex 0.0016189999878406525 -0.0043410002253949642 0.0038829999975860119
   vertex 0.00054400000954046845 -0.0047519998624920845 0.002908000024035573
   vertex 0.0035319998860359192 -0.0022060000337660313 0.0025160000659525394
  endloop
 endfacet
 facet normal 0.16326678673528983 -0.039833627218753741 0.98577747919686753
  outer loop
   vertex 0.00054400000954046845 -0.0047519998624920845 0.002908000024035573
   vertex 0.0011820000363513827 -0.007036999799311161 0.0027099999133497477
   vertex 0.0035319998860359192 -0.0022060000337660313 0.0025160000659525394
  endloop
 endfacet
 facet normal -0.95130262218966688 -0.25892123524605348 -0.16728154397219616
  outer loop
   vertex -0.0034570000134408474 -0.0073210000991821289 0.00048200000310316682
   vertex -0.005266999825835228 0.0017170000355690718 -0.0032140000257641077
   vertex -0.004505000077188015 -0.00097799999639391899 -0.0033760000951588154
  endloop
 endfacet
 facet normal -0.91496065838353868 -0.4035417755605416 0.0010143903622209509
  outer loop
   vertex -0.0015810000477358699 -0.0075969998724758625 0.00086500000907108188
   vertex -0.004505000077188015 -0.00097799999639391899 -0.0033760000951588154
   vertex -0.0034590000286698341 -0.0033499998971819878 -0.0035260000731796026
  endloop
 endfacet
 facet normal -0.04446922449032182 0.32375056259101381 0.94509685286494916
  outer loop
   vertex 0.0016189999878406525 -0.0043410002253949642 0.0038829999975860119
   vertex -0.0030249999836087227 0.0040589999407529831 0.00078699999721720815
   vertex -0.0067759999074041843 -0.00040300001273863018 0.0021389999892562628
  endloop
 endfacet
 facet normal -0.9364313093121891 0.32347478474069363 -0.13586929961113708
  outer loop
   vertex -0.0067759999074041843 -0.00040300001273863018 0.0021389999892562628
   vertex -0.0040219998918473721 0.0049569997936487198 -0.0040810001082718372
   vertex -0.005266999825835228 0.0017170000355690718 -0.0032140000257641077
  endloop
 endfacet
 facet normal 0.54893980355993033 0.042629670000839857 0.83477410315797684
  outer loop
   vertex 0.0035319998860359192 -0.0022060000337660313 0.0025160000659525394
   vertex 0.0017819999484345317 -0.00072200002614408731 0.0035910001024603844
   vertex 0.0016189999878406525 -0.0043410002253949642 0.0038829999975860119
  endloop
 endfacet
 facet normal 0.38508088815131408 -0.92283237808636076 0.0096494319038531399
  outer loop
   vertex 0.0055780000984668732 -0.0046029998920857906 0.0015040000434964895
   vertex -0.0015810000477358699 -0.0075969998724758625 0.00086500000907108188
   vertex 0.0041740001179277897 -0.0052140001207590103 -0.00089999998454004526
  endloop
 endfacet
 facet normal 0.3238168041023089 -0.11983036586011707 0.938500591794591
  outer loop
   vertex 0.0035319998860359192 -0.0022060000337660313 0.0025160000659525394
   vertex 0.0011820000363513827 -0.007036999799311161 0.0027099999133497477
   vertex 0.0055780000984668732 -0.0046029998920857906 0.0015040000434964895
  endloop
 endfacet
 facet normal 0.046486684495851284 -0.74581944301333047 -0.66452415049256752
  outer loop
   vertex 0.0041740001179277897 -0.0052140001207590103 -0.00089999998454004526
   vertex -0.0034590000286698341 -0.0033499998971819878 -0.0035260000731796026
   vertex -0.00055300001986324787 -0.0024729999713599682 -0.0043069999665021896
  endloop
 endfacet
 facet normal 0.49408826037181797 -0.046253152855347979 0.86818053238579973
  outer loop
   vertex 0.0035319998860359192 -0.0022060000337660313 0.0025160000659525394
   vertex 0.0041600000113248825 0.0015180000336840749 0.0023570000194013119
   vertex 0.0017819999484345317 -0.00072200002614408731 0.0035910001024603844
  endloop
 endfacet
 facet normal 0.093440639455578581 0.026736458948356894 0.9952657979962114
  outer loop
   vertex 0.0035319998860359192 -0.0022060000337660313 0.0025160000659525394
   vertex 0.0059890002012252808 0.0027570000384002924 0.0021520000882446766
   vertex 0.0041600000113248825 0.0015180000336840749 0.0023570000194013119
  endloop
 endfacet
 facet normal 0.41025575740901421 -0.13697500514280861 0.90162523338629097
  outer loop
   vertex 0.0035319998860359192 -0.0022060000337660313 0.0025160000659525394
   vertex 0.0073970002122223377 -0.00046400001156143844 0.0010219999821856618
   vertex 0.0059890002012252808 0.0027570000384002924 0.0021520000882446766
  endloop
 endfacet
 facet normal 0.38381655598412334 -0.061382810882016581 0.92136692033125922
  outer loop
   vertex 0.0035319998860359192 -0.0022060000337660313 0.0025160000659525394
   vertex 0.0055780000984668732 -0.0046029998920857906 0.0015040000434964895
   vertex 0.0073970002122223377 -0.00046400001156143844 0.0010219999821856618
  endloop
 endfacet
 facet normal -0.20431307371966886 -0.028219517313341588 -0.97849876175180883
  outer loop
   vertex -0.0020749999675899744 0.0014009999576956034 -0.0039519998244941235
   vertex -0.0034590000286698341 -0.0033499998971819878 -0.0035260000731796026
   vertex -0.004505000077188015 -0.00097799999639391899 -0.0033760000951588154
  endloop
 endfacet
 facet normal -0.22575297043505327 -0.0052720029507444888 -0.97417031484470795
  outer loop
   vertex -0.0020749999675899744 0.0014009999576956034 -0.0039519998244941235
   vertex -0.004505000077188015 -0.00097799999639391899 -0.0033760000951588154
   vertex -0.005266999825835228 0.0017170000355690718 -0.0032140000257641077
  endloop
 endfacet
 facet normal -0.23764108951029478 -0.16484097985778826 -0.95726389461625694
  outer loop
   vertex -0.0020749999675899744 0.0014009999576956034 -0.0039519998244941235
   vertex -0.005266999825835228 0.0017170000355690718 -0.0032140000257641077
   vertex -0.0040219998918473721 0.0049569997936487198 -0.0040810001082718372
  endloop
 endfacet
 facet normal -0.25613099413344353 -0.012054715822227832 -0.96656691318845545
  outer loop
   vertex -0.0020749999675899744 0.0014009999576956034 -0.0039519998244941235
   vertex -0.00055300001986324787 -0.0024729999713599682 -0.0043069999665021896
   vertex -0.0034590000286698341 -0.0033499998971819878 -0.0035260000731796026
  endloop
 endfacet
 facet normal 0.0031442014973610019 0.50824791744636721 0.86120506757007331
  outer loop
   vertex 0.0017819999484345317 -0.00072200002614408731 0.0035910001024603844
   vertex 0.0019890000112354755 0.0062239998951554298 -0.00050899997586384416
   vertex -0.0030249999836087227 0.0040589999407529831 0.00078699999721720815
  endloop
 endfacet
 facet normal -0.73703854649952993 0.62147709591260503 0.26559442808518186
  outer loop
   vertex -0.0030249999836087227 0.0040589999407529831 0.00078699999721720815
   vertex -0.00079700001515448093 0.0083149997517466545 -0.002988999942317605
   vertex -0.0040219998918473721 0.0049569997936487198 -0.0040810001082718372
  endloop
 endfacet
 facet normal 0.23212287268064993 0.091965268344001358 -0.96832915963369537
  outer loop
   vertex -0.0020749999675899744 0.0014009999576956034 -0.0039519998244941235
   vertex -0.0040219998918473721 0.0049569997936487198 -0.0040810001082718372
   vertex -0.00079700001515448093 0.0083149997517466545 -0.002988999942317605
  endloop
 endfacet
 facet normal 0.83454729675741457 -0.54934822231924085 -0.041801197465882782
  outer loop
   vertex 0.0073970002122223377 -0.00046400001156143844 0.0010219999821856618
   vertex 0.0041740001179277897 -0.0052140001207590103 -0.00089999998454004526
   vertex 0.0072550000622868538 -0.0004780000017490238 -0.0016289999475702643
  endloop
 endfacet
 facet normal 0.39105443330166756 -0.46188073670810631 -0.79607952822132588
  outer loop
   vertex 0.0072550000622868538 -0.0004780000017490238 -0.0016289999475702643
   vertex -0.00055300001986324787 -0.0024729999713599682 -0.0043069999665021896
   vertex 0.0026310000102967024 0.00010900000052060932 -0.0042409999296069145
  endloop
 endfacet
 facet normal -0.04048675285233793 0.0753941684645449 -0.99633154231160104
  outer loop
   vertex -0.0020749999675899744 0.0014009999576956034 -0.0039519998244941235
   vertex 0.0026310000102967024 0.00010900000052060932 -0.0042409999296069145
   vertex -0.00055300001986324787 -0.0024729999713599682 -0.0043069999665021896
  endloop
 endfacet
 facet normal 0.56923684816402165 0.60298462664282426 0.55890871412485987
  outer loop
   vertex 0.0041600000113248825 0.0015180000336840749 0.0023570000194013119
   vertex 0.0042849997989833355 0.005090000107884407 -0.0016240000259131193
   vertex 0.0019890000112354755 0.0062239998951554298 -0.00050899997586384416
  endloop
 endfacet
 facet normal 0.87724906085593124 0.46802504008995705 -0.10670823340389922
  outer loop
   vertex 0.0059890002012252808 0.0027570000384002924 0.0021520000882446766
   vertex 0.0072550000622868538 -0.0004780000017490238 -0.0016289999475702643
   vertex 0.0042849997989833355 0.005090000107884407 -0.0016240000259131193
  endloop
 endfacet
 facet normal -0.1675886123279445 -0.40986810549139863 -0.89661708277217522
  outer loop
   vertex -0.0020749999675899744 0.0014009999576956034 -0.0039519998244941235
   vertex 0.001803999999538064 0.0052970000542700291 -0.0064579998143017292
   vertex 0.0026310000102967024 0.00010900000052060932 -0.0042409999296069145
  endloop
 endfacet
 facet normal -0.67698219448934982 0.2228354890564172 -0.70145523959934275
  outer loop
   vertex -0.0020749999675899744 0.0014009999576956034 -0.0039519998244941235
   vertex -0.00079700001515448093 0.0083149997517466545 -0.002988999942317605
   vertex 0.001803999999538064 0.0052970000542700291 -0.0064579998143017292
  endloop
 endfacet
 facet normal 0.66872767415046974 0.73119761315567411 -0.13473436213805395
  outer loop
   vertex 0.0019890000112354755 0.0062239998951554298 -0.00050899997586384416
   vertex 0.001803999999538064 0.0052970000542700291 -0.0064579998143017292
   vertex -0.00079700001515448093 0.0083149997517466545 -0.002988999942317605
  endloop
 endfacet
 facet normal 0.88741602984996648 -0.054162878190651659 -0.45777633467822265
  outer loop
   vertex 0.0042849997989833355 0.005090000107884407 -0.0016240000259131193
   vertex 0.0026310000102967024 0.00010900000052060932 -0.0042409999296069145
   vertex 0.001803999999538064 0.0052970000542700291 -0.0064579998143017292
  endloop
 endfacet
endsolid
