solid Visualization Toolkit generated SLA File
 facet normal -0.30494717769735075 0.12174043160463351 0.94455623767308738
  outer loop
   vertex 0.0022050000261515379 -0.004038000013679266 0.002225999953225255
   vertex 0.0035880000796169043 -0.0074479999020695686 0.0031119999475777149
   vertex 0.0046870000660419464 -0.0039269998669624329 0.0030129998922348022
  endloop
 endfacet
 facet normal -0.11108287068314963 0.089930633350441103 0.98973384150789723
  outer loop
   vertex 0.0031109999399632215 -0.00052499998128041625 0.0025269999168813229
   vertex 0.0046870000660419464 -0.0039269998669624329 0.0030129998922348022
   vertex 0.0052829999476671219 0.00042999998549930751 0.0026839999482035637
  endloop
 endfacet
 facet normal 0.97341545331295631 0.094609748420800943 0.20859374572427725
  outer loop
   vertex 0.0005169999785721302 -0.0088409995660185814 0.0029629999771714211
   vertex -0.00032699998700991273 -0.00011100000119768083 0.0029420000500977039
   vertex -0.00025599999935366213 -0.0019020000472664833 0.0034229999873787165
  endloop
 endfacet
 facet normal 0.47349832554790833 0.14695393678505264 0.86844912123088802
  outer loop
   vertex 0.0022050000261515379 -0.004038000013679266 0.002225999953225255
   vertex 0.00025400001322850585 0.0029869999270886183 0.0021009999327361584
   vertex -0.00032699998700991273 -0.00011100000119768083 0.0029420000500977039
  endloop
 endfacet
 facet normal 0.99882929756213046 -0.046387935373689466 -0.013718373930878883
  outer loop
   vertex 0.0046870000660419464 -0.0039269998669624329 0.0030129998922348022
   vertex 0.0044109998270869255 -0.0090220002457499504 0.00014600000577047467
   vertex 0.0046350001357495785 -0.0041160001419484615 -0.0001340000017080456
  endloop
 endfacet
 facet normal 0.99260319364538918 -0.09344352588115859 -0.077506176759477977
  outer loop
   vertex 0.0052829999476671219 0.00042999998549930751 0.0026839999482035637
   vertex 0.0046350001357495785 -0.0041160001419484615 -0.0001340000017080456
   vertex 0.0048929997719824314 -0.00075000000651925802 -0.00088800000958144665
  endloop
 endfacet
 facet normal 0.32905135108724065 -0.78203886344039575 0.52928293418219674
  outer loop
   vertex 0.0005169999785721302 -0.0088409995660185814 0.0029629999771714211
   vertex 0.0027610000688582659 -0.010224999859929085 -0.00047699999413453043
   vertex 0.0035880000796169043 -0.0074479999020695686 0.0031119999475777149
  endloop
 endfacet
 facet normal -0.5595482342921817 -0.78629332532746898 0.26200874039995831
  outer loop
   vertex 0.0035880000796169043 -0.0074479999020695686 0.0031119999475777149
   vertex 0.0043429997749626637 -0.0097869997844099998 -0.0022950000129640102
   vertex 0.0044109998270869255 -0.0090220002457499504 0.00014600000577047467
  endloop
 endfacet
 facet normal 0.33876045014438744 -0.35099425158323666 0.87295154090791072
  outer loop
   vertex -0.0016789999790489674 -0.0096100000664591789 0.00087599997641518712
   vertex -0.00025599999935366213 -0.0019020000472664833 0.0034229999873787165
   vertex -0.0018159999744966626 -0.0030469999182969332 0.0035679999273270369
  endloop
 endfacet
 facet normal -0.41132181333476747 0.33077615651455328 0.84935357782048482
  outer loop
   vertex 0.0035910001024603844 0.0046169999986886978 0.00023400000645779073
   vertex 0.0052829999476671219 0.00042999998549930751 0.0026839999482035637
   vertex 0.0073699997738003731 0.0047610001638531685 0.0020079999230802059
  endloop
 endfacet
 facet normal 0.29460748703411521 0.12473896390982826 -0.94744214570924912
  outer loop
   vertex 0.0031109999399632215 -0.00052499998128041625 0.0025269999168813229
   vertex -0.0030249999836087227 0.0036599999293684959 0.0011699999449774623
   vertex 0.00025400001322850585 0.0029869999270886183 0.0021009999327361584
  endloop
 endfacet
 facet normal 0.52782402527714567 -0.56873443950515834 0.63082718367313917
  outer loop
   vertex 0.0073699997738003731 0.0047610001638531685 0.0020079999230802059
   vertex 0.0048929997719824314 -0.00075000000651925802 -0.00088800000958144665
   vertex 0.0074399998411536217 0.0034040000755339861 0.00072599999839439988
  endloop
 endfacet
 facet normal -0.19753442504918906 0.24695164453881194 0.94868068188409038
  outer loop
   vertex -0.00032699998700991273 -0.00011100000119768083 0.0029420000500977039
   vertex -0.0025440000463277102 -0.0003169999981764704 0.0025339999701827765
   vertex -0.00025599999935366213 -0.0019020000472664833 0.0034229999873787165
  endloop
 endfacet
 facet normal -0.14508060711370874 0.31638350841178781 0.93747164919509207
  outer loop
   vertex -0.00025599999935366213 -0.0019020000472664833 0.0034229999873787165
   vertex -0.0025440000463277102 -0.0003169999981764704 0.0025339999701827765
   vertex -0.0018159999744966626 -0.0030469999182969332 0.0035679999273270369
  endloop
 endfacet
 facet normal -0.19925920743247685 0.29136059797501501 0.93563068045090469
  outer loop
   vertex 0.00025400001322850585 0.0029869999270886183 0.0021009999327361584
   vertex -0.0025440000463277102 -0.0003169999981764704 0.0025339999701827765
   vertex -0.00032699998700991273 -0.00011100000119768083 0.0029420000500977039
  endloop
 endfacet
 facet normal -0.2043584476670012 0.29536963272581135 0.93327081007098511
  outer loop
   vertex -0.0030249999836087227 0.0036599999293684959 0.0011699999449774623
   vertex -0.0025440000463277102 -0.0003169999981764704 0.0025339999701827765
   vertex 0.00025400001322850585 0.0029869999270886183 0.0021009999327361584
  endloop
 endfacet
 facet normal 0.9215333669964767 -0.019943637351858699 0.38778667439884323
  outer loop
   vertex 0.0055619999766349792 -0.0026010000146925449 -0.0022589999716728926
   vertex 0.0046350001357495785 -0.0041160001419484615 -0.0001340000017080456
   vertex 0.0044109998270869255 -0.0090220002457499504 0.00014600000577047467
  endloop
 endfacet
 facet normal 0.9102779374395642 0.022824747229113783 0.41336800496010806
  outer loop
   vertex 0.0055619999766349792 -0.0026010000146925449 -0.0022589999716728926
   vertex 0.0048929997719824314 -0.00075000000651925802 -0.00088800000958144665
   vertex 0.0046350001357495785 -0.0041160001419484615 -0.0001340000017080456
  endloop
 endfacet
 facet normal 0.98558687301387393 -0.16731560252833136 0.024980089938091313
  outer loop
   vertex 0.0055619999766349792 -0.0026010000146925449 -0.0022589999716728926
   vertex 0.0044109998270869255 -0.0090220002457499504 0.00014600000577047467
   vertex 0.0043429997749626637 -0.0097869997844099998 -0.0022950000129640102
  endloop
 endfacet
 facet normal 0.29475158940717544 -0.49767576700911509 0.81574526138607317
  outer loop
   vertex 0.0055619999766349792 -0.0026010000146925449 -0.0022589999716728926
   vertex 0.0074399998411536217 0.0034040000755339861 0.00072599999839439988
   vertex 0.0048929997719824314 -0.00075000000651925802 -0.00088800000958144665
  endloop
 endfacet
 facet normal -0.70467485696187948 -0.23443814156892098 -0.66968059830300108
  outer loop
   vertex 0.0027610000688582659 -0.010224999859929085 -0.00047699999413453043
   vertex 0.0053340001031756401 -0.0048960000276565552 -0.0050499998033046722
   vertex 0.0043429997749626637 -0.0097869997844099998 -0.0022950000129640102
  endloop
 endfacet
 facet normal -0.30351744263560765 -0.64170519278762972 -0.7043377084647191
  outer loop
   vertex -0.0016789999790489674 -0.0096100000664591789 0.00087599997641518712
   vertex 0.0021470000501722097 -0.0042039998807013035 -0.005698000080883503
   vertex 0.0027610000688582659 -0.010224999859929085 -0.00047699999413453043
  endloop
 endfacet
 facet normal 0.57209854608870991 -0.80130501582239677 -0.17496721173137769
  outer loop
   vertex -0.0049100001342594624 -0.0048540001735091209 0.0017269999952986836
   vertex -0.0018159999744966626 -0.0030469999182969332 0.0035679999273270369
   vertex -0.0033760000951588154 -0.004191999789327383 0.0037110000848770142
  endloop
 endfacet
 facet normal -0.80693427770047299 -0.48888996689524677 -0.33142672152555874
  outer loop
   vertex -0.0016789999790489674 -0.0096100000664591789 0.00087599997641518712
   vertex -0.0049100001342594624 -0.0048540001735091209 0.0017269999952986836
   vertex -0.0063869999721646309 0.0030159999150782824 -0.0062859999015927315
  endloop
 endfacet
 facet normal 0.98425808061818942 -0.16725122109414542 0.057123198267560835
  outer loop
   vertex 0.0055619999766349792 -0.0026010000146925449 -0.0022589999716728926
   vertex 0.0043429997749626637 -0.0097869997844099998 -0.0022950000129640102
   vertex 0.0053340001031756401 -0.0048960000276565552 -0.0050499998033046722
  endloop
 endfacet
 facet normal -0.14607664632299622 0.31609604241410177 0.93741394558069624
  outer loop
   vertex -0.0018159999744966626 -0.0030469999182969332 0.0035679999273270369
   vertex -0.0025440000463277102 -0.0003169999981764704 0.0025339999701827765
   vertex -0.0033760000951588154 -0.004191999789327383 0.0037110000848770142
  endloop
 endfacet
 facet normal 0.23460115615281804 0.9689074546693891 0.078617058058965655
  outer loop
   vertex -0.00033800001256167889 0.0069479998201131821 -0.0019440000178292394
   vertex 0.0073699997738003731 0.0047610001638531685 0.0020079999230802059
   vertex 0.0074519999325275421 0.0052490001544356346 -0.0042510000057518482
  endloop
 endfacet
 facet normal -0.19577543231910513 0.80326552303167575 -0.56252687012169977
  outer loop
   vertex 0.0035910001024603844 0.0046169999986886978 0.00023400000645779073
   vertex -0.0059509999118745327 0.0025679999962449074 0.00062900001648813486
   vertex -0.0030249999836087227 0.0036599999293684959 0.0011699999449774623
  endloop
 endfacet
 facet normal 0.99212197254924661 0.11666582067091315 0.045640747936183966
  outer loop
   vertex 0.0074519999325275421 0.0052490001544356346 -0.0042510000057518482
   vertex 0.0074399998411536217 0.0034040000755339861 0.00072599999839439988
   vertex 0.0076239998452365398 0.0034890000242739916 -0.0034910000395029783
  endloop
 endfacet
 facet normal -0.27516674166714844 0.28195312976113185 0.91912224263053666
  outer loop
   vertex -0.0059509999118745327 0.0025679999962449074 0.00062900001648813486
   vertex -0.0025440000463277102 -0.0003169999981764704 0.0025339999701827765
   vertex -0.0030249999836087227 0.0036599999293684959 0.0011699999449774623
  endloop
 endfacet
 facet normal 0.94873051789561913 -0.31413519288745945 0.035064012934475468
  outer loop
   vertex 0.0055619999766349792 -0.0026010000146925449 -0.0022589999716728926
   vertex 0.0076239998452365398 0.0034890000242739916 -0.0034910000395029783
   vertex 0.0074399998411536217 0.0034040000755339861 0.00072599999839439988
  endloop
 endfacet
 facet normal -0.1922664373773558 0.3724536192729796 0.90791625084513028
  outer loop
   vertex -0.0058490000665187836 -0.002495999913662672 0.0027280000504106283
   vertex -0.0025440000463277102 -0.0003169999981764704 0.0025339999701827765
   vertex -0.0059509999118745327 0.0025679999962449074 0.00062900001648813486
  endloop
 endfacet
 facet normal -0.15429586432727119 0.31733334843289773 0.93567747232893528
  outer loop
   vertex -0.0033760000951588154 -0.004191999789327383 0.0037110000848770142
   vertex -0.0025440000463277102 -0.0003169999981764704 0.0025339999701827765
   vertex -0.0058490000665187836 -0.002495999913662672 0.0027280000504106283
  endloop
 endfacet
 facet normal 0.91413347987778693 -0.35067110380282568 -0.20344472940883881
  outer loop
   vertex 0.0055619999766349792 -0.0026010000146925449 -0.0022589999716728926
   vertex 0.0058169998228549957 0.00086299999384209514 -0.0070839999243617058
   vertex 0.0076239998452365398 0.0034890000242739916 -0.0034910000395029783
  endloop
 endfacet
 facet normal 0.99615842242342567 -0.087016491700630555 -0.0098248464103038499
  outer loop
   vertex 0.0055619999766349792 -0.0026010000146925449 -0.0022589999716728926
   vertex 0.0053340001031756401 -0.0048960000276565552 -0.0050499998033046722
   vertex 0.0058169998228549957 0.00086299999384209514 -0.0070839999243617058
  endloop
 endfacet
 facet normal 0.11609534704928856 -0.33941654024924206 -0.93344431146091411
  outer loop
   vertex 0.0021470000501722097 -0.0042039998807013035 -0.005698000080883503
   vertex 0.0058169998228549957 0.00086299999384209514 -0.0070839999243617058
   vertex 0.0053340001031756401 -0.0048960000276565552 -0.0050499998033046722
  endloop
 endfacet
 facet normal -0.26478719943683721 -0.38498055637018397 -0.88412539282123348
  outer loop
   vertex 0.0038540000095963478 0.0016929999692365527 -0.0087770000100135803
   vertex 0.0021470000501722097 -0.0042039998807013035 -0.005698000080883503
   vertex -0.0063869999721646309 0.0030159999150782824 -0.0062859999015927315
  endloop
 endfacet
 facet normal -0.041585308330556028 0.80144415431547311 -0.59662209952750556
  outer loop
   vertex -0.0063869999721646309 0.0030159999150782824 -0.0062859999015927315
   vertex 0.0074519999325275421 0.0052490001544356346 -0.0042510000057518482
   vertex 0.0038540000095963478 0.0016929999692365527 -0.0087770000100135803
  endloop
 endfacet
 facet normal -0.12171440759057502 -0.382149251406945 -0.91604997278204581
  outer loop
   vertex -0.00033800001256167889 0.0069479998201131821 -0.0019440000178292394
   vertex -0.0058490000665187836 -0.002495999913662672 0.0027280000504106283
   vertex -0.0059509999118745327 0.0025679999962449074 0.00062900001648813486
  endloop
 endfacet
 facet normal -0.36458854664214763 -0.80394129737998254 -0.46984421037654267
  outer loop
   vertex -0.0063869999721646309 0.0030159999150782824 -0.0062859999015927315
   vertex -0.0033760000951588154 -0.004191999789327383 0.0037110000848770142
   vertex -0.0058490000665187836 -0.002495999913662672 0.0027280000504106283
  endloop
 endfacet
 facet normal 0.69143347201855998 0.37176208536927841 -0.61944548239069808
  outer loop
   vertex 0.0038540000095963478 0.0016929999692365527 -0.0087770000100135803
   vertex 0.0076239998452365398 0.0034890000242739916 -0.0034910000395029783
   vertex 0.0058169998228549957 0.00086299999384209514 -0.0070839999243617058
  endloop
 endfacet
endsolid
