solid Visualization Toolkit generated SLA File
 facet normal -0.091468874177864715 -0.33669636756141763 0.93716007230759735
  outer loop
   vertex 0.006111999973654747 0.0007570000016130507 0.0049899998120963573
   vertex 0.0017379999626427889 0.0019229999743402004 0.0049820002168416977
   vertex 4.8999998398358002e-05 -0.00089700001990422606 0.0038040000945329666
  endloop
 endfacet
 facet normal 0.03643982799813212 -0.78602993693368828 0.61711350429194844
  outer loop
   vertex 0.0051799998618662357 -1.9999999949504854e-06 0.0046410001814365387
   vertex 4.8999998398358002e-05 -0.00089700001990422606 0.0038040000945329666
   vertex 0.00025300000561401248 -0.0016749999485909939 0.0028009999077767134
  endloop
 endfacet
 facet normal 0.76279646012181057 -0.16515123396688922 0.62519327439188688
  outer loop
   vertex 0.0059659997932612896 0.0025659999810159206 0.005646000150591135
   vertex 0.006111999973654747 0.0007570000016130507 0.0049899998120963573
   vertex 0.0070839999243617058 0.0038419999182224274 0.0046190000139176846
  endloop
 endfacet
 facet normal 0.5177212897206096 -0.26109929197318132 -0.81473420567761368
  outer loop
   vertex 0.006111999973654747 0.0007570000016130507 0.0049899998120963573
   vertex 0.0051799998618662357 -1.9999999949504854e-06 0.0046410001814365387
   vertex 0.0070839999243617058 0.0038419999182224274 0.0046190000139176846
  endloop
 endfacet
 facet normal 0.62371796801877932 -0.64373955985910869 0.44336810377261693
  outer loop
   vertex 4.8999998398358002e-05 -0.00089700001990422606 0.0038040000945329666
   vertex -0.0017239999724552035 -0.00165200000628829 0.0052020000293850899
   vertex -0.0052620000205934048 -0.0079520000144839287 0.0010319999419152737
  endloop
 endfacet
 facet normal 0.57479872109774355 -0.64642265390403242 0.50174115113678475
  outer loop
   vertex 0.00025300000561401248 -0.0016749999485909939 0.0028009999077767134
   vertex -0.0052620000205934048 -0.0079520000144839287 0.0010319999419152737
   vertex -0.0039920001290738583 -0.0090619996190071106 -0.0018530000234022737
  endloop
 endfacet
 facet normal -0.16678859544968208 0.082042698897022551 0.98257343745168224
  outer loop
   vertex 0.0059659997932612896 0.0025659999810159206 0.005646000150591135
   vertex 0.0023089998867362738 0.006029999814927578 0.0047360002063214779
   vertex 0.0017379999626427889 0.0019229999743402004 0.0049820002168416977
  endloop
 endfacet
 facet normal 0.42571399870434862 -0.36120323307117996 0.82963836442517569
  outer loop
   vertex 0.0017379999626427889 0.0019229999743402004 0.0049820002168416977
   vertex -0.00065000000176951289 0.0059440000914037228 0.0079579995945096016
   vertex -0.0017239999724552035 -0.00165200000628829 0.0052020000293850899
  endloop
 endfacet
 facet normal 0.73776872073210298 -0.11040828589572971 0.66596345629087128
  outer loop
   vertex 0.0070839999243617058 0.0038419999182224274 0.0046190000139176846
   vertex 0.0062520001083612442 0.0059730000793933868 0.0058940001763403416
   vertex 0.0059659997932612896 0.0025659999810159206 0.005646000150591135
  endloop
 endfacet
 facet normal -0.028242151779256701 -0.53943624128531853 0.84155268548727524
  outer loop
   vertex 0.0069710002280771732 7.0000001869630069e-05 0.0041450001299381256
   vertex 0.00025300000561401248 -0.0016749999485909939 0.0028009999077767134
   vertex 0.0043179998174309731 -0.0012949999654665589 0.0031810000073164701
  endloop
 endfacet
 facet normal 0.26947491847097249 -0.12801299910950162 0.95446107326284046
  outer loop
   vertex 0.0070839999243617058 0.0038419999182224274 0.0046190000139176846
   vertex 0.0051799998618662357 -1.9999999949504854e-06 0.0046410001814365387
   vertex 0.0069710002280771732 7.0000001869630069e-05 0.0041450001299381256
  endloop
 endfacet
 facet normal 0.72468316824811529 -0.42256486487701261 -0.54430987555743093
  outer loop
   vertex 0.0043179998174309731 -0.0012949999654665589 0.0031810000073164701
   vertex 0.0031079999171197414 -0.0026990000624209642 0.0026599999982863665
   vertex -0.0039920001290738583 -0.0090619996190071106 -0.0018530000234022737
  endloop
 endfacet
 facet normal 0.68120333789228849 -0.16129634530505435 0.71410468520773451
  outer loop
   vertex 0.0070839999243617058 0.0038419999182224274 0.0046190000139176846
   vertex 0.0077539999037981033 0.0092660002410411835 0.0052049998193979263
   vertex 0.0062520001083612442 0.0059730000793933868 0.0058940001763403416
  endloop
 endfacet
 facet normal 0.84085809928262922 -0.15973875264449455 0.51714716258951376
  outer loop
   vertex 0.0070839999243617058 0.0038419999182224274 0.0046190000139176846
   vertex 0.0088419998064637184 0.0094280000776052475 0.0034860000014305115
   vertex 0.0077539999037981033 0.0092660002410411835 0.0052049998193979263
  endloop
 endfacet
 facet normal 0.50502580278736753 0.016092343468060651 0.86295421373366088
  outer loop
   vertex 0.0070839999243617058 0.0038419999182224274 0.0046190000139176846
   vertex 0.0086340000852942467 0.004747999832034111 0.0036949999630451202
   vertex 0.0088419998064637184 0.0094280000776052475 0.0034860000014305115
  endloop
 endfacet
 facet normal 0.53431377400401392 -0.053779604611968602 0.84357367493145974
  outer loop
   vertex 0.0070839999243617058 0.0038419999182224274 0.0046190000139176846
   vertex 0.0080490000545978546 0.0017750000115483999 0.0038759999442845583
   vertex 0.0086340000852942467 0.004747999832034111 0.0036949999630451202
  endloop
 endfacet
 facet normal 0.4224310509729961 -0.12545870868523862 0.89767038471194005
  outer loop
   vertex 0.0070839999243617058 0.0038419999182224274 0.0046190000139176846
   vertex 0.0069710002280771732 7.0000001869630069e-05 0.0041450001299381256
   vertex 0.0080490000545978546 0.0017750000115483999 0.0038759999442845583
  endloop
 endfacet
 facet normal -0.58299929135119055 -0.40024832860815812 0.70704533216080667
  outer loop
   vertex -0.0052620000205934048 -0.0079520000144839287 0.0010319999419152737
   vertex -0.0132039999589324 -0.0010649999603629112 -0.0016179999802261591
   vertex -0.011698000133037567 -0.0059719998389482498 -0.0031540000345557928
  endloop
 endfacet
 facet normal -0.36046139547155248 -0.92987531431228887 -0.073481169066114946
  outer loop
   vertex -0.0039920001290738583 -0.0090619996190071106 -0.0018530000234022737
   vertex -0.011698000133037567 -0.0059719998389482498 -0.0031540000345557928
   vertex -0.0073279999196529388 -0.0075469999574124813 -0.0046600000932812691
  endloop
 endfacet
 facet normal -0.50307373750360374 0.11428981356987467 0.85665316969489969
  outer loop
   vertex -0.0017239999724552035 -0.00165200000628829 0.0052020000293850899
   vertex -0.008570999838411808 0.0065709999762475491 8.3999999333173037e-05
   vertex -0.0132039999589324 -0.0010649999603629112 -0.0016179999802261591
  endloop
 endfacet
 facet normal 0.61444556152185004 -0.65206912171665854 -0.44414244610233333
  outer loop
   vertex 0.0031079999171197414 -0.0026990000624209642 0.0026599999982863665
   vertex -0.0073279999196529388 -0.0075469999574124813 -0.0046600000932812691
   vertex -0.0020969999022781849 -0.0015899999998509884 -0.0061690001748502254
  endloop
 endfacet
 facet normal -0.27493405902178836 0.1776964149710866 0.94489959641023624
  outer loop
   vertex 0.0062520001083612442 0.0059730000793933868 0.0058940001763403416
   vertex 0.0049140001647174358 0.010336999781429768 0.0046839998103678226
   vertex 0.0023089998867362738 0.006029999814927578 0.0047360002063214779
  endloop
 endfacet
 facet normal 0.73642311680281847 -0.042709918162558917 0.6751717232889497
  outer loop
   vertex 0.0023089998867362738 0.006029999814927578 0.0047360002063214779
   vertex 0.0044720000587403774 0.011772000230848789 0.0027399999089539051
   vertex -0.00065000000176951289 0.0059440000914037228 0.0079579995945096016
  endloop
 endfacet
 facet normal -0.32805716263875812 0.85661758762438733 0.39822707920730677
  outer loop
   vertex -0.00065000000176951289 0.0059440000914037228 0.0079579995945096016
   vertex -0.0021550001110881567 0.010293999686837196 -0.0026390000712126493
   vertex -0.008570999838411808 0.0065709999762475491 8.3999999333173037e-05
  endloop
 endfacet
 facet normal 0.63614493891522472 -0.77153822149689943 -0.0069562534417800118
  outer loop
   vertex 0.0080490000545978546 0.0017750000115483999 0.0038759999442845583
   vertex 0.0043179998174309731 -0.0012949999654665589 0.0031810000073164701
   vertex 0.0070059997960925102 0.00094499997794628143 0.0005520000122487545
  endloop
 endfacet
 facet normal 0.64055044951923301 -0.75763764587158222 -0.12522108120789993
  outer loop
   vertex 0.0070059997960925102 0.00094499997794628143 0.0005520000122487545
   vertex 0.0031079999171197414 -0.0026990000624209642 0.0026599999982863665
   vertex 0.0068339998833835125 0.001841000048443675 -0.0057489997707307339
  endloop
 endfacet
 facet normal 0.25140796721075959 -0.55757662381347217 -0.79113990077591423
  outer loop
   vertex 0.0068339998833835125 0.001841000048443675 -0.0057489997707307339
   vertex -0.0020969999022781849 -0.0015899999998509884 -0.0061690001748502254
   vertex 0.0027260000351816416 0.0051620001904666424 -0.0093949995934963226
  endloop
 endfacet
 facet normal 0.23716865442361001 0.85409126753275078 0.46290294456094494
  outer loop
   vertex 0.0077539999037981033 0.0092660002410411835 0.0052049998193979263
   vertex 0.0083119999617338181 0.010950000025331974 0.0018119999440386891
   vertex 0.0049140001647174358 0.010336999781429768 0.0046839998103678226
  endloop
 endfacet
 facet normal 0.9589727444184466 0.023171571136625536 -0.28254973677852369
  outer loop
   vertex 0.0088419998064637184 0.0094280000776052475 0.0034860000014305115
   vertex 0.0081719998270273209 0.0057330001145601273 0.00090899999486282468
   vertex 0.0083119999617338181 0.010950000025331974 0.0018119999440386891
  endloop
 endfacet
 facet normal 0.94874126151787597 -0.21367910665703574 -0.23287605731745017
  outer loop
   vertex 0.0086340000852942467 0.004747999832034111 0.0036949999630451202
   vertex 0.0070059997960925102 0.00094499997794628143 0.0005520000122487545
   vertex 0.0081719998270273209 0.0057330001145601273 0.00090899999486282468
  endloop
 endfacet
 facet normal -0.92491012471559586 0.10008743089825839 -0.36677481834876186
  outer loop
   vertex -0.011698000133037567 -0.0059719998389482498 -0.0031540000345557928
   vertex -0.010502999648451805 0.0016629999736323953 -0.0040839998982846737
   vertex -0.010222000069916248 -0.0008229999803006649 -0.0054709999822080135
  endloop
 endfacet
 facet normal -0.13337036168694533 -0.17505806503775209 -0.97548296781067967
  outer loop
   vertex -0.0073279999196529388 -0.0075469999574124813 -0.0046600000932812691
   vertex -0.010222000069916248 -0.0008229999803006649 -0.0054709999822080135
   vertex -0.0082949995994567871 0.00014400000509340316 -0.0059079998172819614
  endloop
 endfacet
 facet normal -0.72918657375452989 0.68295235807149257 -0.043162683659817534
  outer loop
   vertex -0.0132039999589324 -0.0010649999603629112 -0.0016179999802261591
   vertex -0.0079990001395344734 0.0043859998695552349 -0.0033009999897330999
   vertex -0.010502999648451805 0.0016629999736323953 -0.0040839998982846737
  endloop
 endfacet
 facet normal -0.022518122182694059 0.069627034354016834 -0.99731891101113168
  outer loop
   vertex -0.0020969999022781849 -0.0015899999998509884 -0.0061690001748502254
   vertex -0.0082949995994567871 0.00014400000509340316 -0.0059079998172819614
   vertex -0.0051620001904666424 0.0025180000811815262 -0.0058129997923970222
  endloop
 endfacet
 facet normal -0.59618760676326565 0.62486288345570018 -0.50408998643230163
  outer loop
   vertex -0.008570999838411808 0.0065709999762475491 8.3999999333173037e-05
   vertex -0.0046990001574158669 0.0066269999369978905 -0.0044260001741349697
   vertex -0.0079990001395344734 0.0043859998695552349 -0.0033009999897330999
  endloop
 endfacet
 facet normal -0.013487757528840809 -0.79006411992217418 -0.61287581679198555
  outer loop
   vertex 0.0027260000351816416 0.0051620001904666424 -0.0093949995934963226
   vertex -0.0051620001904666424 0.0025180000811815262 -0.0058129997923970222
   vertex -0.0019809999503195286 0.0039049999322742224 -0.0076709999702870846
  endloop
 endfacet
 facet normal 0.81442332442199961 0.53968343917585127 0.2132051456150709
  outer loop
   vertex 0.0049140001647174358 0.010336999781429768 0.0046839998103678226
   vertex 0.0058679999783635139 0.011114000342786312 -0.00092700001550838351
   vertex 0.0044720000587403774 0.011772000230848789 0.0027399999089539051
  endloop
 endfacet
 facet normal -0.25316349814557071 0.96631084337576079 0.046385312127047447
  outer loop
   vertex 0.0044720000587403774 0.011772000230848789 0.0027399999089539051
   vertex -0.00021300000662449747 0.010960999876260757 -0.0059349997900426388
   vertex -0.0021550001110881567 0.010293999686837196 -0.0026390000712126493
  endloop
 endfacet
 facet normal -0.84622925907293878 0.50654408865218226 0.16525473469887389
  outer loop
   vertex -0.0021550001110881567 0.010293999686837196 -0.0026390000712126493
   vertex -0.0035159999970346689 0.0087249996140599251 -0.0047989999875426292
   vertex -0.0046990001574158669 0.0066269999369978905 -0.0044260001741349697
  endloop
 endfacet
 facet normal 0.92880244384129074 0.20677250795029703 -0.30752422712753963
  outer loop
   vertex 0.0081719998270273209 0.0057330001145601273 0.00090899999486282468
   vertex 0.0068339998833835125 0.001841000048443675 -0.0057489997707307339
   vertex 0.0073649999685585499 0.0066109998151659966 -0.00093799998285248876
  endloop
 endfacet
 facet normal 0.5485504426922414 0.72043636168530178 -0.42433932245761891
  outer loop
   vertex 0.0073649999685585499 0.0066109998151659966 -0.00093799998285248876
   vertex 0.0027260000351816416 0.0051620001904666424 -0.0093949995934963226
   vertex -0.00088200002210214734 0.008400999940931797 -0.0085599999874830246
  endloop
 endfacet
 facet normal -0.64740613670399427 0.0075590601453918152 -0.76210770549032469
  outer loop
   vertex -0.00088200002210214734 0.008400999940931797 -0.0085599999874830246
   vertex -0.0019809999503195286 0.0039049999322742224 -0.0076709999702870846
   vertex -0.0031850000377744436 0.0056400001049041748 -0.006630999967455864
  endloop
 endfacet
 facet normal 0.73072860392113947 0.24448408376134348 -0.6373878255809714
  outer loop
   vertex 0.0083119999617338181 0.010950000025331974 0.0018119999440386891
   vertex 0.0073649999685585499 0.0066109998151659966 -0.00093799998285248876
   vertex 0.0058679999783635139 0.011114000342786312 -0.00092700001550838351
  endloop
 endfacet
 facet normal -0.42157331255162606 0.40500573720219424 -0.81132379169943991
  outer loop
   vertex -0.010502999648451805 0.0016629999736323953 -0.0040839998982846737
   vertex -0.0061739999800920486 0.0036430000327527523 -0.0053449999541044235
   vertex -0.010222000069916248 -0.0008229999803006649 -0.0054709999822080135
  endloop
 endfacet
 facet normal -0.37632953630572458 0.36513016049878982 -0.85150222900356887
  outer loop
   vertex -0.010222000069916248 -0.0008229999803006649 -0.0054709999822080135
   vertex -0.0061739999800920486 0.0036430000327527523 -0.0053449999541044235
   vertex -0.0082949995994567871 0.00014400000509340316 -0.0059079998172819614
  endloop
 endfacet
 facet normal -0.46607525463682498 0.61224684663974238 -0.63869214477313763
  outer loop
   vertex -0.0079990001395344734 0.0043859998695552349 -0.0033009999897330999
   vertex -0.0061739999800920486 0.0036430000327527523 -0.0053449999541044235
   vertex -0.010502999648451805 0.0016629999736323953 -0.0040839998982846737
  endloop
 endfacet
 facet normal -0.16166656213163763 0.25153956773791664 -0.95424932200696866
  outer loop
   vertex -0.0082949995994567871 0.00014400000509340316 -0.0059079998172819614
   vertex -0.0061739999800920486 0.0036430000327527523 -0.0053449999541044235
   vertex -0.0051620001904666424 0.0025180000811815262 -0.0058129997923970222
  endloop
 endfacet
 facet normal -0.55822795475782017 0.4835700556149386 -0.67419696813280483
  outer loop
   vertex -0.0046990001574158669 0.0066269999369978905 -0.0044260001741349697
   vertex -0.0061739999800920486 0.0036430000327527523 -0.0053449999541044235
   vertex -0.0079990001395344734 0.0043859998695552349 -0.0033009999897330999
  endloop
 endfacet
 facet normal -0.48066101155343255 -0.068709763026218312 -0.8742104783387763
  outer loop
   vertex -0.0051620001904666424 0.0025180000811815262 -0.0058129997923970222
   vertex -0.0061739999800920486 0.0036430000327527523 -0.0053449999541044235
   vertex -0.0019809999503195286 0.0039049999322742224 -0.0076709999702870846
  endloop
 endfacet
 facet normal -0.8735726629502838 0.47033935332978904 -0.1251067354512356
  outer loop
   vertex -0.0035159999970346689 0.0087249996140599251 -0.0047989999875426292
   vertex -0.0061739999800920486 0.0036430000327527523 -0.0053449999541044235
   vertex -0.0046990001574158669 0.0066269999369978905 -0.0044260001741349697
  endloop
 endfacet
 facet normal -0.48590931395541709 0.17597667210792772 -0.85611001015359878
  outer loop
   vertex -0.0019809999503195286 0.0039049999322742224 -0.0076709999702870846
   vertex -0.0061739999800920486 0.0036430000327527523 -0.0053449999541044235
   vertex -0.0031850000377744436 0.0056400001049041748 -0.006630999967455864
  endloop
 endfacet
 facet normal 0.52835962353424282 0.53658872925984491 -0.65795793471167907
  outer loop
   vertex 0.0058679999783635139 0.011114000342786312 -0.00092700001550838351
   vertex -0.00088200002210214734 0.008400999940931797 -0.0085599999874830246
   vertex -0.00021300000662449747 0.010960999876260757 -0.0059349997900426388
  endloop
 endfacet
 facet normal -0.52521041470632446 0.39213865674131626 -0.75523591954642022
  outer loop
   vertex -0.00021300000662449747 0.010960999876260757 -0.0059349997900426388
   vertex -0.0031850000377744436 0.0056400001049041748 -0.006630999967455864
   vertex -0.0035159999970346689 0.0087249996140599251 -0.0047989999875426292
  endloop
 endfacet
 facet normal -0.56633328734923771 0.37505324596898065 -0.73389486326607922
  outer loop
   vertex -0.0031850000377744436 0.0056400001049041748 -0.006630999967455864
   vertex -0.0061739999800920486 0.0036430000327527523 -0.0053449999541044235
   vertex -0.0035159999970346689 0.0087249996140599251 -0.0047989999875426292
  endloop
 endfacet
endsolid
