solid Visualization Toolkit generated SLA File
 facet normal 0.77278248622265699 -0.4376076868305967 0.45968113014817502
  outer loop
   vertex 0.0040699997916817665 -0.00023999999393709004 0.0039149997755885124
   vertex 0.0035790000110864639 0.0027469999622553587 0.0075840000063180923
   vertex 0.0026100000832229853 3.9999998989515007e-05 0.0066359997726976871
  endloop
 endfacet
 facet normal 0.84438789395503944 -0.35457328068243299 0.40160536994451368
  outer loop
   vertex 0.0036220001056790352 -0.0018279999494552612 0.0028589998837560415
   vertex 0.0026100000832229853 3.9999998989515007e-05 0.0066359997726976871
   vertex 0.0021329999435693026 -0.0048279999755322933 0.0033410000614821911
  endloop
 endfacet
 facet normal 0.93890509518018483 -0.32996599390805526 0.097875763644311539
  outer loop
   vertex 0.0040699997916817665 -0.00023999999393709004 0.0039149997755885124
   vertex 0.0036220001056790352 -0.0018279999494552612 0.0028589998837560415
   vertex 0.0040649999864399433 -0.00085399998351931572 0.001892999978736043
  endloop
 endfacet
 facet normal 0.89818081502070335 -0.42127202863287877 0.12570243203806317
  outer loop
   vertex 0.0045239999890327454 0.00077599997166544199 0.0040759998373687267
   vertex 0.0040699997916817665 -0.00023999999393709004 0.0039149997755885124
   vertex 0.0040649999864399433 -0.00085399998351931572 0.001892999978736043
  endloop
 endfacet
 facet normal -0.026099587267557924 -0.41594726198233151 0.90901412903973322
  outer loop
   vertex 0.0021329999435693026 -0.0048279999755322933 0.0033410000614821911
   vertex -0.0094830002635717392 0.00079399999231100082 0.0055800001136958599
   vertex -0.011734999716281891 -0.0057279998436570168 0.0025309999473392963
  endloop
 endfacet
 facet normal -0.088272622395932213 -0.021004415401908578 0.9958748709898092
  outer loop
   vertex 0.0026100000832229853 3.9999998989515007e-05 0.0066359997726976871
   vertex -0.0040600001811981201 0.0048389998264610767 0.0061460002325475216
   vertex -0.0094830002635717392 0.00079399999231100082 0.0055800001136958599
  endloop
 endfacet
 facet normal 0.91593283204014053 -0.19001435429310654 0.35349906980570878
  outer loop
   vertex 0.0045239999890327454 0.00077599997166544199 0.0040759998373687267
   vertex 0.0048940000124275684 0.0028329999186098576 0.0042229997925460339
   vertex 0.0035790000110864639 0.0027469999622553587 0.0075840000063180923
  endloop
 endfacet
 facet normal 0.19008569118278695 0.92337310089193136 0.33354092186234224
  outer loop
   vertex 0.0035790000110864639 0.0027469999622553587 0.0075840000063180923
   vertex -0.0054399999789893627 0.006399999838322401 0.0026110000908374786
   vertex -0.0040600001811981201 0.0048389998264610767 0.0061460002325475216
  endloop
 endfacet
 facet normal 0.97219589375377014 -0.23209246087438717 -0.031116455029120711
  outer loop
   vertex 0.0040649999864399433 -0.00085399998351931572 0.001892999978736043
   vertex 0.004550000187009573 0.0010470000561326742 0.0028669999446719885
   vertex 0.0045239999890327454 0.00077599997166544199 0.0040759998373687267
  endloop
 endfacet
 facet normal 0.86302705170624527 -0.46678457798599438 0.19312292918673049
  outer loop
   vertex 0.0039889998733997345 -0.0023219999857246876 0.001104000024497509
   vertex 0.0021329999435693026 -0.0048279999755322933 0.0033410000614821911
   vertex 0.0028510000556707382 -0.004792999941855669 0.00021699999342672527
  endloop
 endfacet
 facet normal 0.95049497820499529 -0.18385164379739358 0.25051520808142935
  outer loop
   vertex 0.0040649999864399433 -0.00085399998351931572 0.001892999978736043
   vertex 0.0036220001056790352 -0.0018279999494552612 0.0028589998837560415
   vertex 0.0039889998733997345 -0.0023219999857246876 0.001104000024497509
  endloop
 endfacet
 facet normal 0.032642156710473574 -0.98111054018516775 -0.19067406101212914
  outer loop
   vertex 0.0028510000556707382 -0.004792999941855669 0.00021699999342672527
   vertex -0.011734999716281891 -0.0057279998436570168 0.0025309999473392963
   vertex -0.012431000359356403 -0.0046979999169707298 -0.0028880001045763493
  endloop
 endfacet
 facet normal 0.97764216639095913 0.058015574053394116 -0.20211379879079816
  outer loop
   vertex 0.0040649999864399433 -0.00085399998351931572 0.001892999978736043
   vertex 0.0039889998733997345 -0.0023219999857246876 0.001104000024497509
   vertex 0.0037809999193996191 -0.0019140000222250819 0.00021499999274965376
  endloop
 endfacet
 facet normal 0.95355961659204935 -0.2881767051737476 0.087625591010999843
  outer loop
   vertex 0.0040649999864399433 -0.00085399998351931572 0.001892999978736043
   vertex 0.004236999899148941 -0.00060899998061358929 0.00082700001075863838
   vertex 0.004550000187009573 0.0010470000561326742 0.0028669999446719885
  endloop
 endfacet
 facet normal 0.89487825756526773 -0.44430369565656386 0.042274462301370441
  outer loop
   vertex 0.0040649999864399433 -0.00085399998351931572 0.001892999978736043
   vertex 0.0037479999009519815 -0.001740999985486269 -0.0007190000033006072
   vertex 0.004236999899148941 -0.00060899998061358929 0.00082700001075863838
  endloop
 endfacet
 facet normal 0.98476147087849919 -0.16142953544883454 -0.064694285358047735
  outer loop
   vertex 0.0040649999864399433 -0.00085399998351931572 0.001892999978736043
   vertex 0.0037809999193996191 -0.0019140000222250819 0.00021499999274965376
   vertex 0.0037479999009519815 -0.001740999985486269 -0.0007190000033006072
  endloop
 endfacet
 facet normal -0.96568418535571854 -0.13790239054077624 0.2200840403959389
  outer loop
   vertex -0.012431000359356403 -0.0046979999169707298 -0.0028880001045763493
   vertex -0.012140000239014626 -0.00145800004247576 0.00041899998905137181
   vertex -0.012687999755144119 -0.0016870000399649143 -0.0021289999131113291
  endloop
 endfacet
 facet normal -0.89233454900298981 0.12926856187443148 0.43246813936583473
  outer loop
   vertex -0.011734999716281891 -0.0057279998436570168 0.0025309999473392963
   vertex -0.011307000182569027 0.00076600001193583012 0.0014730000402778387
   vertex -0.012140000239014626 -0.00145800004247576 0.00041899998905137181
  endloop
 endfacet
 facet normal -0.86775109068694423 0.31645599121029816 0.38322793509702074
  outer loop
   vertex -0.0094830002635717392 0.00079399999231100082 0.0055800001136958599
   vertex -0.010545000433921814 0.0023189999628812075 0.0019160000374540687
   vertex -0.011307000182569027 0.00076600001193583012 0.0014730000402778387
  endloop
 endfacet
 facet normal -0.51576670895245746 0.79615769969051464 0.31641368358504884
  outer loop
   vertex -0.0040600001811981201 0.0048389998264610767 0.0061460002325475216
   vertex -0.0087639996781945229 0.0044249999336898327 -0.00047999998787418008
   vertex -0.010545000433921814 0.0023189999628812075 0.0019160000374540687
  endloop
 endfacet
 facet normal 0.89394214657264215 -0.36723835746944122 0.25691132202424172
  outer loop
   vertex 0.004550000187009573 0.0010470000561326742 0.0028669999446719885
   vertex 0.0060930000618100166 0.0030100001022219658 0.00030399998649954796
   vertex 0.0048940000124275684 0.0028329999186098576 0.0042229997925460339
  endloop
 endfacet
 facet normal 0.3078267943114949 0.94432040974906717 0.11619650784452444
  outer loop
   vertex 0.0048940000124275684 0.0028329999186098576 0.0042229997925460339
   vertex -0.006399999838322401 0.0074889999814331532 -0.0036959999706596136
   vertex -0.0054399999789893627 0.006399999838322401 0.0026110000908374786
  endloop
 endfacet
 facet normal -0.6005698869821251 0.78664182843731345 0.14321468012420344
  outer loop
   vertex -0.0054399999789893627 0.006399999838322401 0.0026110000908374786
   vertex -0.0080500002950429916 0.0052999998442828655 -0.0022919999901205301
   vertex -0.0087639996781945229 0.0044249999336898327 -0.00047999998787418008
  endloop
 endfacet
 facet normal 0.90273132677286294 -0.2918277922640049 -0.31608968873600324
  outer loop
   vertex 0.0037809999193996191 -0.0019140000222250819 0.00021499999274965376
   vertex 0.0028510000556707382 -0.004792999941855669 0.00021699999342672527
   vertex 0.0019920000340789557 -0.0039690001867711544 -0.002997000003233552
  endloop
 endfacet
 facet normal 0.035943637146674805 -0.80056907355274243 -0.59816152786648835
  outer loop
   vertex 0.0019920000340789557 -0.0039690001867711544 -0.002997000003233552
   vertex -0.012431000359356403 -0.0046979999169707298 -0.0028880001045763493
   vertex -0.010848999954760075 -0.0021770000457763672 -0.0061670001596212387
  endloop
 endfacet
 facet normal -0.87205626891756927 0.2403507916371378 -0.42632072527730713
  outer loop
   vertex -0.010848999954760075 -0.0021770000457763672 -0.0061670001596212387
   vertex -0.012687999755144119 -0.0016870000399649143 -0.0021289999131113291
   vertex -0.011214000172913074 0.00046300000394694507 -0.0039320001378655434
  endloop
 endfacet
 facet normal 0.83078157253220764 -0.093837416984922456 -0.54863149555463009
  outer loop
   vertex 0.0037479999009519815 -0.001740999985486269 -0.0007190000033006072
   vertex 0.0019920000340789557 -0.0039690001867711544 -0.002997000003233552
   vertex 0.00087400001939386129 -0.0017119999974966049 -0.0050760000012814999
  endloop
 endfacet
 facet normal 0.80353891479549922 -0.46567601739238512 -0.37077089858137252
  outer loop
   vertex 0.004236999899148941 -0.00060899998061358929 0.00082700001075863838
   vertex 0.00087400001939386129 -0.0017119999974966049 -0.0050760000012814999
   vertex 0.0060930000618100166 0.0030100001022219658 0.00030399998649954796
  endloop
 endfacet
 facet normal -0.8296101603060263 0.55820093985424368 -0.0125973276074017
  outer loop
   vertex -0.012687999755144119 -0.0016870000399649143 -0.0021289999131113291
   vertex -0.010530999861657619 0.001538999960757792 -0.0012329999590292573
   vertex -0.011214000172913074 0.00046300000394694507 -0.0039320001378655434
  endloop
 endfacet
 facet normal -0.84059032354311258 0.5249350745006145 0.13360791714834705
  outer loop
   vertex -0.012140000239014626 -0.00145800004247576 0.00041899998905137181
   vertex -0.010530999861657619 0.001538999960757792 -0.0012329999590292573
   vertex -0.012687999755144119 -0.0016870000399649143 -0.0021289999131113291
  endloop
 endfacet
 facet normal -0.90269648334786479 0.40584400610511573 -0.1429325073590636
  outer loop
   vertex -0.011307000182569027 0.00076600001193583012 0.0014730000402778387
   vertex -0.010530999861657619 0.001538999960757792 -0.0012329999590292573
   vertex -0.012140000239014626 -0.00145800004247576 0.00041899998905137181
  endloop
 endfacet
 facet normal -0.87754103759892843 0.46451080308968151 -0.11895982995438042
  outer loop
   vertex -0.010545000433921814 0.0023189999628812075 0.0019160000374540687
   vertex -0.010530999861657619 0.001538999960757792 -0.0012329999590292573
   vertex -0.011307000182569027 0.00076600001193583012 0.0014730000402778387
  endloop
 endfacet
 facet normal -0.82819081462677735 0.54313572411711186 -0.13821562775466295
  outer loop
   vertex -0.0087639996781945229 0.0044249999336898327 -0.00047999998787418008
   vertex -0.010530999861657619 0.001538999960757792 -0.0012329999590292573
   vertex -0.010545000433921814 0.0023189999628812075 0.0019160000374540687
  endloop
 endfacet
 facet normal -0.84187164035790385 0.53464153365758815 -0.073556588075808851
  outer loop
   vertex -0.0080500002950429916 0.0052999998442828655 -0.0022919999901205301
   vertex -0.010530999861657619 0.001538999960757792 -0.0012329999590292573
   vertex -0.0087639996781945229 0.0044249999336898327 -0.00047999998787418008
  endloop
 endfacet
 facet normal 0.42448250259656478 0.52550093172669254 -0.73733532110142086
  outer loop
   vertex 0.0060930000618100166 0.0030100001022219658 0.00030399998649954796
   vertex -0.0071470001712441444 0.0032180000562220812 -0.0071700001135468483
   vertex -0.006399999838322401 0.0074889999814331532 -0.0036959999706596136
  endloop
 endfacet
 facet normal -0.83456292029867085 0.52780573669294728 -0.15787918284742172
  outer loop
   vertex -0.006399999838322401 0.0074889999814331532 -0.0036959999706596136
   vertex -0.0095370002090930939 0.0021860001143068075 -0.0048420000821352005
   vertex -0.0080500002950429916 0.0052999998442828655 -0.0022919999901205301
  endloop
 endfacet
 facet normal -0.84417860265406353 0.51753185116366351 -0.13972569503188859
  outer loop
   vertex -0.0095370002090930939 0.0021860001143068075 -0.0048420000821352005
   vertex -0.010530999861657619 0.001538999960757792 -0.0012329999590292573
   vertex -0.0080500002950429916 0.0052999998442828655 -0.0022919999901205301
  endloop
 endfacet
 facet normal 0.099509274137026024 -0.24746043369923054 -0.96377447471600475
  outer loop
   vertex 0.00087400001939386129 -0.0017119999974966049 -0.0050760000012814999
   vertex -0.010848999954760075 -0.0021770000457763672 -0.0061670001596212387
   vertex -0.0071470001712441444 0.0032180000562220812 -0.0071700001135468483
  endloop
 endfacet
 facet normal -0.72155115182420904 0.40614083119863509 -0.56072592283078826
  outer loop
   vertex -0.0071470001712441444 0.0032180000562220812 -0.0071700001135468483
   vertex -0.011214000172913074 0.00046300000394694507 -0.0039320001378655434
   vertex -0.0095370002090930939 0.0021860001143068075 -0.0048420000821352005
  endloop
 endfacet
 facet normal -0.73549466363642302 0.67254995384274185 -0.082000971631261549
  outer loop
   vertex -0.011214000172913074 0.00046300000394694507 -0.0039320001378655434
   vertex -0.010530999861657619 0.001538999960757792 -0.0012329999590292573
   vertex -0.0095370002090930939 0.0021860001143068075 -0.0048420000821352005
  endloop
 endfacet
endsolid
