solid Visualization Toolkit generated SLA File
 facet normal 0.45438925925971146 0.88600788483405324 0.092306170331662246
  outer loop
   vertex -0.087502002716064453 0.065932996571063995 -0.014170000329613686
   vertex -0.10526599735021591 0.073567003011703491 0
   vertex -0.10106000304222107 0.071405999362468719 3.7999998312443495e-05
  endloop
 endfacet
 facet normal -0.67833296453383973 0.26111868523154891 -0.68679066785278919
  outer loop
   vertex -0.087502002716064453 0.065932996571063995 -0.014170000329613686
   vertex -0.088505998253822327 0.059611000120639801 -0.015581999905407429
   vertex -0.10311000049114227 0.062801003456115723 5.5000000429572538e-05
  endloop
 endfacet
 facet normal -0.79888511856156108 0.23585577534609309 -0.55331240775602863
  outer loop
   vertex -0.088505998253822327 0.059611000120639801 -0.015581999905407429
   vertex -0.089635998010635376 0.050558999180793762 -0.017808999866247177
   vertex -0.099288001656532288 0.059865999966859818 9.4000002718530595e-05
  endloop
 endfacet
 facet normal -0.84454531572073832 0.30438974890141551 -0.44055656896463552
  outer loop
   vertex -0.089635998010635376 0.050558999180793762 -0.017808999866247177
   vertex -0.091154001653194427 0.045295000076293945 -0.018535999581217766
   vertex -0.094880998134613037 0.061953000724315643 0.00011800000356743112
  endloop
 endfacet
 facet normal -0.92769387513213131 0.33643697234099157 -0.16184633973110521
  outer loop
   vertex -0.091154001653194427 0.045295000076293945 -0.018535999581217766
   vertex -0.093050003051757812 0.039799001067876816 -0.019092999398708344
   vertex -0.090674996376037598 0.055615000426769257 0.00017100000695791095
  endloop
 endfacet
 facet normal -0.71578152212578494 -0.39407907848564266 0.57650541409704137
  outer loop
   vertex -0.093050003051757812 0.039799001067876816 -0.019092999398708344
   vertex -0.091732002794742584 0.032772000879049301 -0.022260000929236412
   vertex -0.078261002898216248 0.041328001767396927 0.00031400000443682075
  endloop
 endfacet
 facet normal -0.76003522120182943 -0.1129178034805489 0.63999690014078547
  outer loop
   vertex -0.091732002794742584 0.032772000879049301 -0.022260000929236412
   vertex -0.09216800332069397 0.027459999546408653 -0.023715000599622726
   vertex -0.073510996997356415 0.038329001516103745 0.00035899999784305692
  endloop
 endfacet
 facet normal -0.69572354110687307 0.65857263294723289 0.28679407504804255
  outer loop
   vertex -0.09216800332069397 0.027459999546408653 -0.023715000599622726
   vertex -0.095793001353740692 0.023202000185847282 -0.022731000557541847
   vertex -0.075244002044200897 0.034855000674724579 0.00035899999784305692
  endloop
 endfacet
 facet normal -0.36712799464929646 0.88554902195147878 -0.28464006265029762
  outer loop
   vertex -0.095793001353740692 0.023202000185847282 -0.022731000557541847
   vertex -0.10498300194740295 0.021112000569701195 -0.017379999160766602
   vertex -0.089330002665519714 0.033271998167037964 0.00026199998683296144
  endloop
 endfacet
 facet normal -0.66528497808114195 0.66949261756516487 -0.33041721045568817
  outer loop
   vertex -0.10498300194740295 0.021112000569701195 -0.017379999160766602
   vertex -0.11289200186729431 0.014794999733567238 -0.014255000278353691
   vertex -0.1053680032491684 0.029386000707745552 0.00015999999595806003
  endloop
 endfacet
 facet normal -0.62871160608225374 0.58699840882593513 -0.51005351132336441
  outer loop
   vertex -0.11289200186729431 0.014794999733567238 -0.014255000278353691
   vertex -0.12130200117826462 0.008911999873816967 -0.010658999904990196
   vertex -0.11516699939966202 0.024836000055074692 0.0001049999991664663
  endloop
 endfacet
 facet normal -0.54978784130066982 0.33612807563509561 -0.76469029438577074
  outer loop
   vertex -0.12130200117826462 0.008911999873816967 -0.010658999904990196
   vertex -0.12942799925804138 0.0043839998543262482 -0.0068069999106228352
   vertex -0.12707599997520447 0.023767000064253807 2.2000000171829015e-05
  endloop
 endfacet
 facet normal -0.4627843751512844 0.11407744623435258 -0.8791000843911253
  outer loop
   vertex -0.12942799925804138 0.0043839998543262482 -0.0068069999106228352
   vertex -0.13816499710083008 -0.0013680000556632876 -0.0029539999086409807
   vertex -0.13971899449825287 0.014798999764025211 -3.7999998312443495e-05
  endloop
 endfacet
 facet normal -0.36874345557200711 -0.19742787980658277 -0.90832290307351204
  outer loop
   vertex -0.13816499710083008 -0.0013680000556632876 -0.0029539999086409807
   vertex -0.14594900608062744 -0.0049519999884068966 0.00098500004969537258
   vertex -0.15027999877929688 0.0080829998478293419 -9.0000001364387572e-05
  endloop
 endfacet
 facet normal -0.091886048421886912 0.10693221122758599 0.99001134150442427
  outer loop
   vertex -0.14594900608062744 -0.0049519999884068966 0.00098500004969537258
   vertex -0.1608320027589798 -0.0076029999181628227 -0.00011000000085914508
   vertex -0.15239299833774567 -0.016034999862313271 0.0015839999541640282
  endloop
 endfacet
 facet normal -0.42469926650411072 -0.73101092395615408 0.53409134245711198
  outer loop
   vertex -0.15239299833774567 -0.016034999862313271 0.0015839999541640282
   vertex -0.15968799591064453 -0.013013999909162521 -8.1999998656101525e-05
   vertex -0.14974099397659302 -0.019734000787138939 -0.0013699999544769526
  endloop
 endfacet
 facet normal -0.11855543576188825 0.10976668528037918 -0.98686163338832211
  outer loop
   vertex -0.14974099397659302 -0.019734000787138939 -0.0013699999544769526
   vertex -0.15194199979305267 -0.025186000391840935 -0.0017119999974966049
   vertex -0.16246399283409119 -0.021787999197840691 -7.0000001869630069e-05
  endloop
 endfacet
 facet normal -0.16151227652689071 -0.041073688559190628 -0.98601558640786402
  outer loop
   vertex -0.15194199979305267 -0.025186000391840935 -0.0017119999974966049
   vertex -0.15447600185871124 -0.028568999841809273 -0.0011559999547898769
   vertex -0.16122600436210632 -0.028937000781297684 -3.5000000934815034e-05
  endloop
 endfacet
 facet normal 0.45007801890139604 -0.23982056106168345 0.86018362888040023
  outer loop
   vertex -0.15447600185871124 -0.028568999841809273 -0.0011559999547898769
   vertex -0.15981400012969971 -0.034455001354217529 -3.9999999899009708e-06
   vertex -0.15627799928188324 -0.033486001193523407 -0.0015839999541640282
  endloop
 endfacet
 facet normal 0.44260145057651906 -0.18411845001374347 0.87761287155106038
  outer loop
   vertex -0.15627799928188324 -0.033486001193523407 -0.0015839999541640282
   vertex -0.15981400012969971 -0.034455001354217529 -3.9999999899009708e-06
   vertex -0.16306999325752258 -0.042263001203536987 0
  endloop
 endfacet
 facet normal 0.39209121489992355 0.91991737935877138 -0.0040613239211172306
  outer loop
   vertex -0.10526599735021591 0.073567003011703491 0
   vertex -0.087502002716064453 0.065932996571063995 -0.014170000329613686
   vertex -0.092880003154277802 0.068103998899459839 -0.041629999876022339
  endloop
 endfacet
 facet normal -0.97681049972786071 0.091134415495038715 0.19374149254556883
  outer loop
   vertex -0.092880003154277802 0.068103998899459839 -0.041629999876022339
   vertex -0.093749001622200012 0.064433999359607697 -0.044284999370574951
   vertex -0.088505998253822327 0.059611000120639801 -0.015581999905407429
  endloop
 endfacet
 facet normal -0.89018489063507356 0.3318286907860431 0.31218677175089071
  outer loop
   vertex -0.093749001622200012 0.064433999359607697 -0.044284999370574951
   vertex -0.10026899725198746 0.049439001828432083 -0.046937998384237289
   vertex -0.089635998010635376 0.050558999180793762 -0.017808999866247177
  endloop
 endfacet
 facet normal -0.83285856744798847 0.44292297450442947 0.33191240604206546
  outer loop
   vertex -0.10026899725198746 0.049439001828432083 -0.046937998384237289
   vertex -0.10692399740219116 0.036506999284029007 -0.046379998326301575
   vertex -0.091154001653194427 0.045295000076293945 -0.018535999581217766
  endloop
 endfacet
 facet normal -0.6611354287393113 0.70708979290518825 0.25084650612473225
  outer loop
   vertex -0.10692399740219116 0.036506999284029007 -0.046379998326301575
   vertex -0.11159300059080124 0.03050599992275238 -0.041770000010728836
   vertex -0.093050003051757812 0.039799001067876816 -0.019092999398708344
  endloop
 endfacet
 facet normal -0.27735543787671102 0.94514186897206831 0.1725711696553153
  outer loop
   vertex -0.11159300059080124 0.03050599992275238 -0.041770000010728836
   vertex -0.11516000330448151 0.028234999626874924 -0.035064999014139175
   vertex -0.091732002794742584 0.032772000879049301 -0.022260000929236412
  endloop
 endfacet
 facet normal -0.41511767375031816 0.29391136750006741 0.86098398649124996
  outer loop
   vertex -0.11516000330448151 0.028234999626874924 -0.035064999014139175
   vertex -0.11948200315237045 0.020083000883460045 -0.034366000443696976
   vertex -0.09216800332069397 0.027459999546408653 -0.023715000599622726
  endloop
 endfacet
 facet normal -0.40227101691784345 0.64992979094012115 0.64480174921941269
  outer loop
   vertex -0.11948200315237045 0.020083000883460045 -0.034366000443696976
   vertex -0.1234700009226799 0.014426999725401402 -0.031153000891208649
   vertex -0.095793001353740692 0.023202000185847282 -0.022731000557541847
  endloop
 endfacet
 facet normal -0.44182743321005841 0.88178495761315545 0.165056983463824
  outer loop
   vertex -0.1234700009226799 0.014426999725401402 -0.031153000891208649
   vertex -0.12704199552536011 0.01153900008648634 -0.025286000221967697
   vertex -0.10498300194740295 0.021112000569701195 -0.017379999160766602
  endloop
 endfacet
 facet normal -0.6182019520466765 0.024986763360450342 0.78562205171599375
  outer loop
   vertex -0.12704199552536011 0.01153900008648634 -0.025286000221967697
   vertex -0.13000600039958954 0.0040759998373687267 -0.027380999177694321
   vertex -0.11289200186729431 0.014794999733567238 -0.014255000278353691
  endloop
 endfacet
 facet normal -0.72561329079384007 0.6624569516162504 0.18610787054458239
  outer loop
   vertex -0.13000600039958954 0.0040759998373687267 -0.027380999177694321
   vertex -0.13574199378490448 -0.0036589999217540026 -0.02221200056374073
   vertex -0.12130200117826462 0.008911999873816967 -0.010658999904990196
  endloop
 endfacet
 facet normal -0.83799259633612755 0.54233874144198924 0.060308357770339195
  outer loop
   vertex -0.13574199378490448 -0.0036589999217540026 -0.02221200056374073
   vertex -0.14058999717235565 -0.01144499983638525 -0.019557999446988106
   vertex -0.12942799925804138 0.0043839998543262482 -0.0068069999106228352
  endloop
 endfacet
 facet normal -0.80951590912698601 0.5468429911661381 -0.21365096742767212
  outer loop
   vertex -0.14058999717235565 -0.01144499983638525 -0.019557999446988106
   vertex -0.14409899711608887 -0.014511000365018845 -0.014109999872744083
   vertex -0.13816499710083008 -0.0013680000556632876 -0.0029539999086409807
  endloop
 endfacet
 facet normal -0.87335800161755073 0.35597312672277881 -0.33245892086362594
  outer loop
   vertex -0.14409899711608887 -0.014511000365018845 -0.014109999872744083
   vertex -0.14711199700832367 -0.015769999474287033 -0.0075429999269545078
   vertex -0.14594900608062744 -0.0049519999884068966 0.00098500004969537258
  endloop
 endfacet
 facet normal -0.79552990878225305 0.40743470443469887 -0.44847421983332525
  outer loop
   vertex -0.14711199700832367 -0.015769999474287033 -0.0075429999269545078
   vertex -0.15006600320339203 -0.021998999640345573 -0.0079619996249675751
   vertex -0.15239299833774567 -0.016034999862313271 0.0015839999541640282
  endloop
 endfacet
 facet normal -0.46231437817574667 0.84535170996645403 -0.26766752172941127
  outer loop
   vertex -0.15006600320339203 -0.021998999640345573 -0.0079619996249675751
   vertex -0.14974099397659302 -0.019734000787138939 -0.0013699999544769526
   vertex -0.14829599857330322 -0.02302199974656105 -0.014250000007450581
  endloop
 endfacet
 facet normal -0.87400494360138592 0.45292946635360232 -0.17598368409877946
  outer loop
   vertex -0.14829599857330322 -0.02302199974656105 -0.014250000007450581
   vertex -0.14953599870204926 -0.02530599944293499 -0.013969999738037586
   vertex -0.15194199979305267 -0.025186000391840935 -0.0017119999974966049
  endloop
 endfacet
 facet normal -0.68819261780638763 -0.59401887846872126 -0.41657231403389466
  outer loop
   vertex -0.14953599870204926 -0.02530599944293499 -0.013969999738037586
   vertex -0.15447600185871124 -0.028568999841809273 -0.0011559999547898769
   vertex -0.1522500067949295 -0.026374999433755875 -0.0079619996249675751
  endloop
 endfacet
 facet normal 0.78672872164507546 -0.5945524668787654 -0.16602795748632218
  outer loop
   vertex -0.1522500067949295 -0.026374999433755875 -0.0079619996249675751
   vertex -0.15627799928188324 -0.033486001193523407 -0.0015839999541640282
   vertex -0.15556000173091888 -0.031378999352455139 -0.005727000068873167
  endloop
 endfacet
 facet normal 0.76088273241491988 -0.62210177267271038 -0.18451789059675744
  outer loop
   vertex -0.15556000173091888 -0.031378999352455139 -0.005727000068873167
   vertex -0.15627799928188324 -0.033486001193523407 -0.0015839999541640282
   vertex -0.16306999325752258 -0.042263001203536987 0
  endloop
 endfacet
 facet normal 0.37433715706781506 0.92723541867437065 -0.01030394070976651
  outer loop
   vertex -0.11743800342082977 0.078015998005867004 -0.04184500128030777
   vertex -0.10526599735021591 0.073567003011703491 0
   vertex -0.092880003154277802 0.068103998899459839 -0.041629999876022339
  endloop
 endfacet
 facet normal 0.22349404153717853 0.53605236388492461 -0.81406282102228578
  outer loop
   vertex -0.11743800342082977 0.078015998005867004 -0.04184500128030777
   vertex -0.093749001622200012 0.064433999359607697 -0.044284999370574951
   vertex -0.11987300217151642 0.074978001415729523 -0.044514000415802002
  endloop
 endfacet
 facet normal 0.067388781684994847 0.14541497991429814 -0.98707306503598624
  outer loop
   vertex -0.11987300217151642 0.074978001415729523 -0.044514000415802002
   vertex -0.10026899725198746 0.049439001828432083 -0.046937998384237289
   vertex -0.12795700132846832 0.060614001005887985 -0.047182001173496246
  endloop
 endfacet
 facet normal -0.0071833343511898979 -0.03950897992746729 -0.99919339480037095
  outer loop
   vertex -0.12795700132846832 0.060614001005887985 -0.047182001173496246
   vertex -0.10692399740219116 0.036506999284029007 -0.046379998326301575
   vertex -0.13428300619125366 0.047550998628139496 -0.046620000153779984
  endloop
 endfacet
 facet normal -0.19372083101050835 -0.49833357179785148 -0.84506561334123265
  outer loop
   vertex -0.13428300619125366 0.047550998628139496 -0.046620000153779984
   vertex -0.11159300059080124 0.03050599992275238 -0.041770000010728836
   vertex -0.13623100519180298 0.040449999272823334 -0.041985999792814255
  endloop
 endfacet
 facet normal -0.32978679269939165 -0.82693416228617633 -0.45543447674183424
  outer loop
   vertex -0.13623100519180298 0.040449999272823334 -0.041985999792814255
   vertex -0.11516000330448151 0.028234999626874924 -0.035064999014139175
   vertex -0.13584500551223755 0.036584001034498215 -0.035245999693870544
  endloop
 endfacet
 facet normal -0.02128083036920736 -0.074273500970626946 -0.99701081905482025
  outer loop
   vertex -0.13584500551223755 0.036584001034498215 -0.035245999693870544
   vertex -0.11948200315237045 0.020083000883460045 -0.034366000443696976
   vertex -0.13975299894809723 0.028266999870538712 -0.034543000161647797
  endloop
 endfacet
 facet normal -0.15473998128446106 -0.40299804800951433 -0.90202445171547641
  outer loop
   vertex -0.13975299894809723 0.028266999870538712 -0.034543000161647797
   vertex -0.1234700009226799 0.014426999725401402 -0.031153000891208649
   vertex -0.14184799790382385 0.021843999624252319 -0.031314000487327576
  endloop
 endfacet
 facet normal -0.30483683065985118 -0.76770010536394384 -0.56365863330339105
  outer loop
   vertex -0.14184799790382385 0.021843999624252319 -0.031314000487327576
   vertex -0.12704199552536011 0.01153900008648634 -0.025286000221967697
   vertex -0.14195799827575684 0.01755799911916256 -0.02541700005531311
  endloop
 endfacet
 facet normal 0.10173785111568694 0.23114576148611052 -0.96758516245205439
  outer loop
   vertex -0.14195799827575684 0.01755799911916256 -0.02541700005531311
   vertex -0.13000600039958954 0.0040759998373687267 -0.027380999177694321
   vertex -0.14615799486637115 0.010595000348985195 -0.027521999552845955
  endloop
 endfacet
 facet normal -0.17542259524921022 -0.45367671880323346 -0.87373013447629455
  outer loop
   vertex -0.14615799486637115 0.010595000348985195 -0.027521999552845955
   vertex -0.13574199378490448 -0.0036589999217540026 -0.02221200056374073
   vertex -0.14884500205516815 0.0016289999475702643 -0.02232700027525425
  endloop
 endfacet
 facet normal -0.098787267502084067 -0.26549386096052585 -0.95903810433774983
  outer loop
   vertex -0.14884500205516815 0.0016289999475702643 -0.02232700027525425
   vertex -0.14058999717235565 -0.01144499983638525 -0.019557999446988106
   vertex -0.15212799608707428 -0.0067870002239942551 -0.019658999517560005
  endloop
 endfacet
 facet normal -0.29325772375537257 -0.73983934187836697 -0.60550611530091303
  outer loop
   vertex -0.15212799608707428 -0.0067870002239942551 -0.019658999517560005
   vertex -0.14409899711608887 -0.014511000365018845 -0.014109999872744083
   vertex -0.15242199599742889 -0.01115300040692091 -0.014182000420987606
  endloop
 endfacet
 facet normal -0.35095207173109888 -0.8766977474684835 -0.32898891004308467
  outer loop
   vertex -0.15242199599742889 -0.01115300040692091 -0.014182000420987606
   vertex -0.14711199700832367 -0.015769999474287033 -0.0075429999269545078
   vertex -0.15156100690364838 -0.01397399976849556 -0.0075830002315342426
  endloop
 endfacet
 facet normal 0.030213310121595845 0.052768487686174703 -0.99814960932658303
  outer loop
   vertex -0.15156100690364838 -0.01397399976849556 -0.0075830002315342426
   vertex -0.15006600320339203 -0.021998999640345573 -0.0079619996249675751
   vertex -0.15476499497890472 -0.020103000104427338 -0.0080040004104375839
  endloop
 endfacet
 facet normal -0.37429214729532861 -0.92620867355125125 0.045198246774447781
  outer loop
   vertex -0.15476499497890472 -0.020103000104427338 -0.0080040004104375839
   vertex -0.15670099854469299 -0.019628999754786491 -0.014322999864816666
   vertex -0.14829599857330322 -0.02302199974656105 -0.014250000007450581
  endloop
 endfacet
 facet normal -0.033170388478854389 -0.10367595733286519 -0.99405785606234998
  outer loop
   vertex -0.15670099854469299 -0.019628999754786491 -0.014322999864816666
   vertex -0.14953599870204926 -0.02530599944293499 -0.013969999738037586
   vertex -0.15777699649333954 -0.021979000419378281 -0.014042000286281109
  endloop
 endfacet
 facet normal -0.35279301965502585 -0.8807035011209281 -0.31606712640834395
  outer loop
   vertex -0.15777699649333954 -0.021979000419378281 -0.014042000286281109
   vertex -0.1522500067949295 -0.026374999433755875 -0.0079619996249675751
   vertex -0.15694800019264221 -0.024477999657392502 -0.0080040004104375839
  endloop
 endfacet
 facet normal -0.12639329697111121 -0.33365721908122759 -0.9341828486092828
  outer loop
   vertex -0.15694800019264221 -0.024477999657392502 -0.0080040004104375839
   vertex -0.15556000173091888 -0.031378999352455139 -0.005727000068873167
   vertex -0.15893900394439697 -0.030014999210834503 -0.0057569998316466808
  endloop
 endfacet
 facet normal -0.14539747080525234 -0.38027805085227151 -0.91337187362181949
  outer loop
   vertex -0.15893900394439697 -0.030014999210834503 -0.0057569998316466808
   vertex -0.15556000173091888 -0.031378999352455139 -0.005727000068873167
   vertex -0.16306999325752258 -0.042263001203536987 0
  endloop
 endfacet
 facet normal 0.31316178750527224 0.94964846159398064 0.009873917089415386
  outer loop
   vertex -0.12411999702453613 0.079939998686313629 -0.014964000321924686
   vertex -0.10526599735021591 0.073567003011703491 0
   vertex -0.11743800342082977 0.078015998005867004 -0.04184500128030777
  endloop
 endfacet
 facet normal -0.61499622338688242 0.75844159334848538 -0.21574520782367906
  outer loop
   vertex -0.12411999702453613 0.079939998686313629 -0.014964000321924686
   vertex -0.11987300217151642 0.074978001415729523 -0.044514000415802002
   vertex -0.12886700034141541 0.075593002140522003 -0.016713999211788177
  endloop
 endfacet
 facet normal -0.87779661187384683 0.41899090996173627 -0.23220621342296438
  outer loop
   vertex -0.12886700034141541 0.075593002140522003 -0.016713999211788177
   vertex -0.12795700132846832 0.060614001005887985 -0.047182001173496246
   vertex -0.13387799263000488 0.065168000757694244 -0.016581999137997627
  endloop
 endfacet
 facet normal -0.51028458987147762 0.74481811293764721 -0.42994838757657883
  outer loop
   vertex -0.13387799263000488 0.065168000757694244 -0.016581999137997627
   vertex -0.13428300619125366 0.047550998628139496 -0.046620000153779984
   vertex -0.14324000477790833 0.05673300102353096 -0.020083000883460045
  endloop
 endfacet
 facet normal -0.94121417347330749 0.045177506490154146 -0.33477585420739442
  outer loop
   vertex -0.14324000477790833 0.05673300102353096 -0.020083000883460045
   vertex -0.13623100519180298 0.040449999272823334 -0.041985999792814255
   vertex -0.1442749947309494 0.049109000712633133 -0.018201999366283417
  endloop
 endfacet
 facet normal -0.70882017972797295 0.3535470000787318 -0.61039206379648603
  outer loop
   vertex -0.1442749947309494 0.049109000712633133 -0.018201999366283417
   vertex -0.13584500551223755 0.036584001034498215 -0.035245999693870544
   vertex -0.14754900336265564 0.042544998228549957 -0.018201999366283417
  endloop
 endfacet
 facet normal -0.301283255091437 0.64219139985229878 -0.70485360618872683
  outer loop
   vertex -0.14754900336265564 0.042544998228549957 -0.018201999366283417
   vertex -0.13975299894809723 0.028266999870538712 -0.034543000161647797
   vertex -0.15366800129413605 0.037128999829292297 -0.020521000027656555
  endloop
 endfacet
 facet normal -0.59483266526381195 0.10294922076490839 -0.79722992811299298
  outer loop
   vertex -0.15366800129413605 0.037128999829292297 -0.020521000027656555
   vertex -0.14184799790382385 0.021843999624252319 -0.031314000487327576
   vertex -0.15552900731563568 0.031463999301195145 -0.019864000380039215
  endloop
 endfacet
 facet normal -0.71552779189846905 -0.50592711134223445 -0.48172371441501982
  outer loop
   vertex -0.15552900731563568 0.031463999301195145 -0.019864000380039215
   vertex -0.14195799827575684 0.01755799911916256 -0.02541700005531311
   vertex -0.15391699969768524 0.026559999212622643 -0.017108000814914703
  endloop
 endfacet
 facet normal -0.2038831962923319 0.46343105981129412 -0.86235914506184919
  outer loop
   vertex -0.15391699969768524 0.026559999212622643 -0.017108000814914703
   vertex -0.14615799486637115 0.010595000348985195 -0.027521999552845955
   vertex -0.16037499904632568 0.019812999293208122 -0.019207000732421875
  endloop
 endfacet
 facet normal -0.45528343455587877 -0.13775779560921761 -0.87962479726750076
  outer loop
   vertex -0.16037499904632568 0.019812999293208122 -0.019207000732421875
   vertex -0.14884500205516815 0.0016289999475702643 -0.02232700027525425
   vertex -0.16150599718093872 0.012382999993860722 -0.017457999289035797
  endloop
 endfacet
 facet normal -0.59592837985712888 -0.2023023757381045 -0.77713777083061442
  outer loop
   vertex -0.16150599718093872 0.012382999993860722 -0.017457999289035797
   vertex -0.15212799608707428 -0.0067870002239942551 -0.019658999517560005
   vertex -0.16187700629234314 0.0055740000680088997 -0.015401000156998634
  endloop
 endfacet
 facet normal -0.25971571820742345 -0.21540771833321362 -0.94135395075310602
  outer loop
   vertex -0.16187700629234314 0.0055740000680088997 -0.015401000156998634
   vertex -0.15242199599742889 -0.01115300040692091 -0.014182000420987606
   vertex -0.16251599788665771 3.4000000596279278e-05 -0.013957000337541103
  endloop
 endfacet
 facet normal -0.27428650745114941 0.21227432950378766 0.93792671401552896
  outer loop
   vertex -0.16251599788665771 3.4000000596279278e-05 -0.013957000337541103
   vertex -0.16422499716281891 -0.0058459998108446598 -0.013125999830663204
   vertex -0.15156100690364838 -0.01397399976849556 -0.0075830002315342426
  endloop
 endfacet
 facet normal 0.02833822398943895 -0.3212619820509785 -0.94656625967219077
  outer loop
   vertex -0.16422499716281891 -0.0058459998108446598 -0.013125999830663204
   vertex -0.15476499497890472 -0.020103000104427338 -0.0080040004104375839
   vertex -0.16422000527381897 -0.012032999657094479 -0.011025999672710896
  endloop
 endfacet
 facet normal -0.11398047220107572 0.2984701891744943 -0.94758851730641047
  outer loop
   vertex -0.16422000527381897 -0.012032999657094479 -0.011025999672710896
   vertex -0.15670099854469299 -0.019628999754786491 -0.014322999864816666
   vertex -0.16735899448394775 -0.015869999304413795 -0.011857000179588795
  endloop
 endfacet
 facet normal -0.25209545438278624 -0.049753609929439259 -0.96642250603890922
  outer loop
   vertex -0.16735899448394775 -0.015869999304413795 -0.011857000179588795
   vertex -0.15777699649333954 -0.021979000419378281 -0.014042000286281109
   vertex -0.16929499804973602 -0.022202000021934509 -0.011025999672710896
  endloop
 endfacet
 facet normal 0.012537665714720373 -0.77344448989691517 -0.63374003186363925
  outer loop
   vertex -0.16929499804973602 -0.022202000021934509 -0.011025999672710896
   vertex -0.15694800019264221 -0.024477999657392502 -0.0080040004104375839
   vertex -0.16413499414920807 -0.026062000542879105 -0.0062130000442266464
  endloop
 endfacet
 facet normal -0.070624344464160244 -0.20543245032165811 -0.97611972130668845
  outer loop
   vertex -0.16413499414920807 -0.026062000542879105 -0.0062130000442266464
   vertex -0.15893900394439697 -0.030014999210834503 -0.0057569998316466808
   vertex -0.16530899703502655 -0.032933000475168228 -0.0046819997951388359
  endloop
 endfacet
 facet normal 0.049413798007389292 -0.43846998290884731 -0.8973863998603947
  outer loop
   vertex -0.16530899703502655 -0.032933000475168228 -0.0046819997951388359
   vertex -0.15893900394439697 -0.030014999210834503 -0.0057569998316466808
   vertex -0.16306999325752258 -0.042263001203536987 0
  endloop
 endfacet
 facet normal 0.096748807972339076 0.95383316144544872 0.28432722043960545
  outer loop
   vertex -0.11196800321340561 0.074262000620365143 -5.0999999075429514e-05
   vertex -0.10526599735021591 0.073567003011703491 0
   vertex -0.12411999702453613 0.079939998686313629 -0.014964000321924686
  endloop
 endfacet
 facet normal -0.54792149699731685 0.58076780290733454 0.60207208225793574
  outer loop
   vertex -0.11196800321340561 0.074262000620365143 -5.0999999075429514e-05
   vertex -0.12886700034141541 0.075593002140522003 -0.016713999211788177
   vertex -0.11829999834299088 0.068313002586364746 -7.5000003562308848e-05
  endloop
 endfacet
 facet normal -0.72827960091219446 0.011027694356927792 0.68519136951098925
  outer loop
   vertex -0.11829999834299088 0.068313002586364746 -7.5000003562308848e-05
   vertex -0.13387799263000488 0.065168000757694244 -0.016581999137997627
   vertex -0.11838600039482117 0.061080001294612885 -4.9999998736893758e-05
  endloop
 endfacet
 facet normal -0.18613249334043488 0.98236411343279872 0.017760730904569942
  outer loop
   vertex -0.11838600039482117 0.061080001294612885 -4.9999998736893758e-05
   vertex -0.14324000477790833 0.05673300102353096 -0.020083000883460045
   vertex -0.1332470029592514 0.058265998959541321 -0.00014800000644754618
  endloop
 endfacet
 facet normal -0.87760909006086107 0.24752596352673126 0.41052793135511578
  outer loop
   vertex -0.1332470029592514 0.058265998959541321 -0.00014800000644754618
   vertex -0.1442749947309494 0.049109000712633133 -0.018201999366283417
   vertex -0.13531799614429474 0.050905000418424606 -0.00013699999544769526
  endloop
 endfacet
 facet normal -0.54683440435868991 0.83706543696483482 -0.01713442291256824
  outer loop
   vertex -0.13531799614429474 0.050905000418424606 -0.00013699999544769526
   vertex -0.14754900336265564 0.042544998228549957 -0.018201999366283417
   vertex -0.14672799408435822 0.043450001627206802 -0.00019200000679120421
  endloop
 endfacet
 facet normal -0.16455117525826199 0.95642083019991841 -0.24120967285916126
  outer loop
   vertex -0.14672799408435822 0.043450001627206802 -0.00019200000679120421
   vertex -0.15366800129413605 0.037128999829292297 -0.020521000027656555
   vertex -0.15690299868583679 0.041682001203298569 -0.00026100000832229853
  endloop
 endfacet
 facet normal -0.72773392978136708 0.58596431268509819 -0.35643954845730697
  outer loop
   vertex -0.15690299868583679 0.041682001203298569 -0.00026100000832229853
   vertex -0.15552900731563568 0.031463999301195145 -0.019864000380039215
   vertex -0.16028200089931488 0.037480000406503677 -0.00026999998954124749
  endloop
 endfacet
 facet normal -0.95098519125395964 -0.22137639633925854 -0.21591585666530724
  outer loop
   vertex -0.16028200089931488 0.037480000406503677 -0.00026999998954124749
   vertex -0.15391699969768524 0.026559999212622643 -0.017108000814914703
   vertex -0.15921500325202942 0.032873000949621201 -0.0002460000105202198
  endloop
 endfacet
 facet normal -0.54157560537542848 0.70743102776572064 -0.45413346564261731
  outer loop
   vertex -0.15921500325202942 0.032873000949621201 -0.0002460000105202198
   vertex -0.16037499904632568 0.019812999293208122 -0.019207000732421875
   vertex -0.1677899956703186 0.026283999904990196 -0.0002840000088326633
  endloop
 endfacet
 facet normal -0.78133627111351645 0.31350907199266814 -0.53965330835706138
  outer loop
   vertex -0.1677899956703186 0.026283999904990196 -0.0002840000088326633
   vertex -0.16150599718093872 0.012382999993860722 -0.017457999289035797
   vertex -0.16976700723171234 0.021361999213695526 -0.00028099998598918319
  endloop
 endfacet
 facet normal -0.92371183598755235 -0.37129620518520629 -0.094316340427151396
  outer loop
   vertex -0.16976700723171234 0.021361999213695526 -0.00028099998598918319
   vertex -0.16187700629234314 0.0055740000680088997 -0.015401000156998634
   vertex -0.1677670031785965 0.016378000378608704 -0.00024799999664537609
  endloop
 endfacet
 facet normal -0.59169044577749164 0.3979618643724977 -0.70109112879910185
  outer loop
   vertex -0.1677670031785965 0.016378000378608704 -0.00024799999664537609
   vertex -0.16251599788665771 3.4000000596279278e-05 -0.013957000337541103
   vertex -0.17152300477027893 0.010782999917864799 -0.00025400001322850585
  endloop
 endfacet
 facet normal -0.39904356104378796 0.44531482656046911 -0.80153536518042168
  outer loop
   vertex -0.17152300477027893 0.010782999917864799 -0.00025400001322850585
   vertex -0.16422499716281891 -0.0058459998108446598 -0.013125999830663204
   vertex -0.17968800663948059 0.0034070000983774662 -0.00028700000257231295
  endloop
 endfacet
 facet normal -0.77204751771105951 -0.53705976180789738 -0.33986680132521863
  outer loop
   vertex -0.17968800663948059 0.0034070000983774662 -0.00028700000257231295
   vertex -0.16422000527381897 -0.012032999657094479 -0.011025999672710896
   vertex -0.17494100332260132 -0.0034549999982118607 -0.00022699999681208283
  endloop
 endfacet
 facet normal -0.81000153637916261 0.052466028518102101 -0.5840760454897409
  outer loop
   vertex -0.17494100332260132 -0.0034549999982118607 -0.00022699999681208283
   vertex -0.16735899448394775 -0.015869999304413795 -0.011857000179588795
   vertex -0.17558600008487701 -0.013089999556541443 -0.00019799999427050352
  endloop
 endfacet
 facet normal -0.77511147497005584 0.18335708528042011 -0.60463408822792408
  outer loop
   vertex -0.17558600008487701 -0.013089999556541443 -0.00019799999427050352
   vertex -0.16929499804973602 -0.022202000021934509 -0.011025999672710896
   vertex -0.17807100713253021 -0.023529000580310822 -0.00017800000205170363
  endloop
 endfacet
 facet normal -0.38906429361705513 -0.69214114271476113 -0.60792237497378432
  outer loop
   vertex -0.17807100713253021 -0.023529000580310822 -0.00017800000205170363
   vertex -0.16413499414920807 -0.026062000542879105 -0.0062130000442266464
   vertex -0.1697160005569458 -0.028294000774621964 -9.9999997473787516e-05
  endloop
 endfacet
 facet normal -0.67823908807273892 0.077449313989795349 -0.73074848147140858
  outer loop
   vertex -0.1697160005569458 -0.028294000774621964 -9.9999997473787516e-05
   vertex -0.16530899703502655 -0.032933000475168228 -0.0046819997951388359
   vertex -0.17065100371837616 -0.036265000700950623 -7.6999996963422745e-05
  endloop
 endfacet
 facet normal -0.37659227121625538 -0.48610725522670351 -0.78859241543153513
  outer loop
   vertex -0.17065100371837616 -0.036265000700950623 -7.6999996963422745e-05
   vertex -0.16530899703502655 -0.032933000475168228 -0.0046819997951388359
   vertex -0.16306999325752258 -0.042263001203536987 0
  endloop
 endfacet
 facet normal 0.1009310267902717 0.95212275701005145 -0.28857439840470955
  outer loop
   vertex -0.12433300167322159 0.080026000738143921 0.014642000198364258
   vertex -0.10526599735021591 0.073567003011703491 0
   vertex -0.11196800321340561 0.074262000620365143 -5.0999999075429514e-05
  endloop
 endfacet
 facet normal -0.63660093962111208 0.45472225270163297 -0.62286990340798254
  outer loop
   vertex -0.12433300167322159 0.080026000738143921 0.014642000198364258
   vertex -0.11829999834299088 0.068313002586364746 -7.5000003562308848e-05
   vertex -0.12910500168800354 0.075689002871513367 0.016352999955415726
  endloop
 endfacet
 facet normal -0.64035823109331491 0.31612058004902094 -0.70000651049866036
  outer loop
   vertex -0.12910500168800354 0.075689002871513367 0.016352999955415726
   vertex -0.11838600039482117 0.061080001294612885 -4.9999998736893758e-05
   vertex -0.13411200046539307 0.06526300311088562 0.016225000843405724
  endloop
 endfacet
 facet normal -0.69374984241068904 0.64830579646154562 -0.3137048779179325
  outer loop
   vertex -0.13411200046539307 0.06526300311088562 0.016225000843405724
   vertex -0.1332470029592514 0.058265998959541321 -0.00014800000644754618
   vertex -0.14352500438690186 0.056846998631954193 0.019649000838398933
  endloop
 endfacet
 facet normal -0.87625071612185512 0.21898201806633663 -0.42922203841313961
  outer loop
   vertex -0.14352500438690186 0.056846998631954193 0.019649000838398933
   vertex -0.13531799614429474 0.050905000418424606 -0.00013699999544769526
   vertex -0.1445309966802597 0.049215000122785568 0.017808999866247177
  endloop
 endfacet
 facet normal -0.89421501205894871 0.44635880832026203 -0.033813110524314197
  outer loop
   vertex -0.1445309966802597 0.049215000122785568 0.017808999866247177
   vertex -0.14672799408435822 0.043450001627206802 -0.00019200000679120421
   vertex -0.14780800044536591 0.042649999260902405 0.017808999866247177
  endloop
 endfacet
 facet normal -0.58426883635885651 0.7711947261715113 0.25276198524524046
  outer loop
   vertex -0.14780800044536591 0.042649999260902405 0.017808999866247177
   vertex -0.15690299868583679 0.041682001203298569 -0.00026100000832229853
   vertex -0.15395799279212952 0.037246998399496078 0.02007799968123436
  endloop
 endfacet
 facet normal -0.91925372479830558 0.26756237024632584 0.28876109064866951
  outer loop
   vertex -0.15395799279212952 0.037246998399496078 0.02007799968123436
   vertex -0.16028200089931488 0.037480000406503677 -0.00026999998954124749
   vertex -0.15580999851226807 0.03157699853181839 0.019435999915003777
  endloop
 endfacet
 facet normal -0.9152123723865464 -0.38028888653974002 0.13329169593397081
  outer loop
   vertex -0.15580999851226807 0.03157699853181839 0.019435999915003777
   vertex -0.15921500325202942 0.032873000949621201 -0.0002460000105202198
   vertex -0.15415899455547333 0.02665800042450428 0.016737999394536018
  endloop
 endfacet
 facet normal -0.5735511515564311 0.68829683221459093 0.44416950290587387
  outer loop
   vertex -0.15415899455547333 0.02665800042450428 0.016737999394536018
   vertex -0.1677899956703186 0.026283999904990196 -0.0002840000088326633
   vertex -0.16064800322055817 0.019923999905586243 0.018794000148773193
  endloop
 endfacet
 facet normal -0.90067377422182315 0.034155528850150649 0.43315141957285885
  outer loop
   vertex -0.16064800322055817 0.019923999905586243 0.018794000148773193
   vertex -0.16976700723171234 0.021361999213695526 -0.00028099998598918319
   vertex -0.16175399720668793 0.012482999823987484 0.017080999910831451
  endloop
 endfacet
 facet normal -0.94691337869983583 -0.046633967399631951 0.31808855107317446
  outer loop
   vertex -0.16175399720668793 0.012482999823987484 0.017080999910831451
   vertex -0.1677670031785965 0.016378000378608704 -0.00024799999664537609
   vertex -0.16209399700164795 0.0056630000472068787 0.015069000422954559
  endloop
 endfacet
 facet normal -0.85640033936861426 -0.035626467304150401 0.51508175424562319
  outer loop
   vertex -0.16209399700164795 0.0056630000472068787 0.015069000422954559
   vertex -0.17152300477027893 0.010782999917864799 -0.00025400001322850585
   vertex -0.16271300613880157 0.0001140000022132881 0.013655999675393105
  endloop
 endfacet
 facet normal -0.62457016238559471 0.072761644033635275 0.77757176865878719
  outer loop
   vertex -0.16271300613880157 0.0001140000022132881 0.013655999675393105
   vertex -0.17968800663948059 0.0034070000983774662 -0.00028700000257231295
   vertex -0.1644120067358017 -0.005770999938249588 0.012842000462114811
  endloop
 endfacet
 facet normal -0.77993030028658883 -0.20089986969803966 0.59274612529326753
  outer loop
   vertex -0.1644120067358017 -0.005770999938249588 0.012842000462114811
   vertex -0.17494100332260132 -0.0034549999982118607 -0.00022699999681208283
   vertex -0.16437600553035736 -0.011970999650657177 0.01078800018876791
  endloop
 endfacet
 facet normal -0.5897314773679343 0.59992993422166607 0.5406485537076936
  outer loop
   vertex -0.16437600553035736 -0.011970999650657177 0.01078800018876791
   vertex -0.17558600008487701 -0.013089999556541443 -0.00019799999427050352
   vertex -0.16752700507640839 -0.015801999717950821 0.011602000333368778
  endloop
 endfacet
 facet normal -0.78570666415660673 0.16198666351513066 0.59701370063268477
  outer loop
   vertex -0.16752700507640839 -0.015801999717950821 0.011602000333368778
   vertex -0.17807100713253021 -0.023529000580310822 -0.00017800000205170363
   vertex -0.1694519966840744 -0.022138999775052071 0.01078800018876791
  endloop
 endfacet
 facet normal -0.1952722399080335 -0.85173706857559028 0.48622291013028129
  outer loop
   vertex -0.1694519966840744 -0.022138999775052071 0.01078800018876791
   vertex -0.1697160005569458 -0.028294000774621964 -9.9999997473787516e-05
   vertex -0.16422300040721893 -0.026025999337434769 0.0060789999552071095
  endloop
 endfacet
 facet normal -0.63862842346442905 -0.060304853104069724 0.76714865667316035
  outer loop
   vertex -0.16422300040721893 -0.026025999337434769 0.0060789999552071095
   vertex -0.17065100371837616 -0.036265000700950623 -7.6999996963422745e-05
   vertex -0.16537399590015411 -0.032905999571084976 0.0045799999497830868
  endloop
 endfacet
 facet normal -0.3881578255264998 -0.4805059001584176 0.78641438338543124
  outer loop
   vertex -0.16537399590015411 -0.032905999571084976 0.0045799999497830868
   vertex -0.17065100371837616 -0.036265000700950623 -7.6999996963422745e-05
   vertex -0.16306999325752258 -0.042263001203536987 0
  endloop
 endfacet
 facet normal 0.31331597339345257 0.9495865491696196 -0.010885148260215142
  outer loop
   vertex -0.11803700029850006 0.078258000314235687 0.041629999876022339
   vertex -0.10526599735021591 0.073567003011703491 0
   vertex -0.12433300167322159 0.080026000738143921 0.014642000198364258
  endloop
 endfacet
 facet normal -0.65582109691075086 0.7240755002933279 0.21357284172325489
  outer loop
   vertex -0.11803700029850006 0.078258000314235687 0.041629999876022339
   vertex -0.12910500168800354 0.075689002871513367 0.016352999955415726
   vertex -0.12050999701023102 0.075235001742839813 0.044284999370574951
  endloop
 endfacet
 facet normal -0.83058545964509434 0.51117934914735452 0.22096032954228262
  outer loop
   vertex -0.12050999701023102 0.075235001742839813 0.044284999370574951
   vertex -0.13411200046539307 0.06526300311088562 0.016225000843405724
   vertex -0.1286340057849884 0.060887999832630157 0.046937998384237289
  endloop
 endfacet
 facet normal -0.83273051320880898 0.38563594378679483 0.3972968804693307
  outer loop
   vertex -0.1286340057849884 0.060887999832630157 0.046937998384237289
   vertex -0.14352500438690186 0.056846998631954193 0.019649000838398933
   vertex -0.13495199382305145 0.047820001840591431 0.046379998326301575
  endloop
 endfacet
 facet normal -0.94660121732080382 0.043325091711757829 0.3194825062424233
  outer loop
   vertex -0.13495199382305145 0.047820001840591431 0.046379998326301575
   vertex -0.1445309966802597 0.049215000122785568 0.017808999866247177
   vertex -0.13683399558067322 0.040695000439882278 0.041770000010728836
  endloop
 endfacet
 facet normal -0.74708403846619287 -0.59642663748336011 0.29349736893085876
  outer loop
   vertex -0.13683399558067322 0.040695000439882278 0.041770000010728836
   vertex -0.14780800044536591 0.042649999260902405 0.017808999866247177
   vertex -0.13634899258613586 0.036788001656532288 0.035064999014139175
  endloop
 endfacet
 facet normal -0.62704162846824074 0.23137825006260057 0.7438298875185545
  outer loop
   vertex -0.13634899258613586 0.036788001656532288 0.035064999014139175
   vertex -0.15395799279212952 0.037246998399496078 0.02007799968123436
   vertex -0.14024899899959564 0.028465999290347099 0.034366000443696976
  endloop
 endfacet
 facet normal -0.69983708481854801 -0.12810822111226286 0.70272066882661699
  outer loop
   vertex -0.14024899899959564 0.028465999290347099 0.034366000443696976
   vertex -0.15580999851226807 0.03157699853181839 0.019435999915003777
   vertex -0.14229600131511688 0.022024000063538551 0.031153000891208649
  endloop
 endfacet
 facet normal -0.72006974571368287 -0.55728640565212406 0.41343853640313744
  outer loop
   vertex -0.14229600131511688 0.022024000063538551 0.031153000891208649
   vertex -0.15415899455547333 0.02665800042450428 0.016737999394536018
   vertex -0.14232200384140015 0.017704999074339867 0.025286000221967697
  endloop
 endfacet
 facet normal -0.25764713554464086 0.41917822748552275 0.8705788689990912
  outer loop
   vertex -0.14232200384140015 0.017704999074339867 0.025286000221967697
   vertex -0.16064800322055817 0.019923999905586243 0.018794000148773193
   vertex -0.14655199646949768 0.010754000395536423 0.027380999177694321
  endloop
 endfacet
 facet normal -0.55968757981987194 -0.2846997636415336 0.77826464494915182
  outer loop
   vertex -0.14655199646949768 0.010754000395536423 0.027380999177694321
   vertex -0.16175399720668793 0.012482999823987484 0.017080999910831451
   vertex -0.14916500449180603 0.0017579999985173345 0.022211000323295593
  endloop
 endfacet
 facet normal -0.50017555382994816 -0.078887069743852969 0.86232316771505857
  outer loop
   vertex -0.14916500449180603 0.0017579999985173345 0.022211000323295593
   vertex -0.16209399700164795 0.0056630000472068787 0.015069000422954559
   vertex -0.15240900218486786 -0.0066740000620484352 0.019557999446988106
  endloop
 endfacet
 facet normal -0.65761811315568974 -0.57327445805229615 0.48876867022590204
  outer loop
   vertex -0.15240900218486786 -0.0066740000620484352 0.019557999446988106
   vertex -0.16271300613880157 0.0001140000022132881 0.013655999675393105
   vertex -0.15262599289417267 -0.011070000007748604 0.014109999872744083
  endloop
 endfacet
 facet normal -0.41735672868614171 -0.85385375541455577 0.31104199939053595
  outer loop
   vertex -0.15262599289417267 -0.011070000007748604 0.014109999872744083
   vertex -0.1644120067358017 -0.005770999938249588 0.012842000462114811
   vertex -0.15166899561882019 -0.013930000364780426 0.0075429999269545078
  endloop
 endfacet
 facet normal -0.23850857909479989 0.058637163292228345 -0.96936852681486418
  outer loop
   vertex -0.15166899561882019 -0.013930000364780426 0.0075429999269545078
   vertex -0.15487800538539886 -0.020055999979376793 0.0079619996249675751
   vertex -0.16437600553035736 -0.011970999650657177 0.01078800018876791
  endloop
 endfacet
 facet normal -0.32605075036547521 -0.94491588448204289 -0.028720714469331183
  outer loop
   vertex -0.15487800538539886 -0.020055999979376793 0.0079619996249675751
   vertex -0.15690700709819794 -0.019547000527381897 0.014250000007450581
   vertex -0.16752700507640839 -0.015801999717950821 0.011602000333368778
  endloop
 endfacet
 facet normal -0.26736608260318301 0.0070323126322917309 0.96356936670510107
  outer loop
   vertex -0.15690700709819794 -0.019547000527381897 0.014250000007450581
   vertex -0.1694519966840744 -0.022138999775052071 0.01078800018876791
   vertex -0.15797799825668335 -0.021900000050663948 0.013969999738037586
  endloop
 endfacet
 facet normal 0.097808064622528654 -0.91160969650324264 0.39925097837833906
  outer loop
   vertex -0.15797799825668335 -0.021900000050663948 0.013969999738037586
   vertex -0.16422300040721893 -0.026025999337434769 0.0060789999552071095
   vertex -0.15706199407577515 -0.024433000013232231 0.0079619996249675751
  endloop
 endfacet
 facet normal 0.005349140794353985 -0.37522685853841853 0.92691757525906893
  outer loop
   vertex -0.15706199407577515 -0.024433000013232231 0.0079619996249675751
   vertex -0.16537399590015411 -0.032905999571084976 0.0045799999497830868
   vertex -0.15902000665664673 -0.029982000589370728 0.005727000068873167
  endloop
 endfacet
 facet normal 0.036203628662395099 -0.43213967596230257 0.90107968445130948
  outer loop
   vertex -0.15902000665664673 -0.029982000589370728 0.005727000068873167
   vertex -0.16537399590015411 -0.032905999571084976 0.0045799999497830868
   vertex -0.16306999325752258 -0.042263001203536987 0
  endloop
 endfacet
 facet normal 0.37418207395778497 0.92729807284557975 0.01029852540535235
  outer loop
   vertex -0.09347900003194809 0.068346001207828522 0.04184500128030777
   vertex -0.10526599735021591 0.073567003011703491 0
   vertex -0.11803700029850006 0.078258000314235687 0.041629999876022339
  endloop
 endfacet
 facet normal 0.21145812955879184 0.54153238626362366 0.81365111323657813
  outer loop
   vertex -0.09347900003194809 0.068346001207828522 0.04184500128030777
   vertex -0.12050999701023102 0.075235001742839813 0.044284999370574951
   vertex -0.094385996460914612 0.064690001308917999 0.044514000415802002
  endloop
 endfacet
 facet normal 0.052906092215922948 0.15261419896104786 0.98686871045844693
  outer loop
   vertex -0.094385996460914612 0.064690001308917999 0.044514000415802002
   vertex -0.1286340057849884 0.060887999832630157 0.046937998384237289
   vertex -0.10094399750232697 0.049711000174283981 0.047182001173496246
  endloop
 endfacet
 facet normal -0.021772940236722719 -0.03222740269011784 0.99924338055815864
  outer loop
   vertex -0.10094399750232697 0.049711000174283981 0.047182001173496246
   vertex -0.13495199382305145 0.047820001840591431 0.046379998326301575
   vertex -0.10759200155735016 0.03677700087428093 0.046620000153779984
  endloop
 endfacet
 facet normal -0.20622479913775463 -0.49250535646342991 0.84552339179671576
  outer loop
   vertex -0.10759200155735016 0.03677700087428093 0.046620000153779984
   vertex -0.13683399558067322 0.040695000439882278 0.041770000010728836
   vertex -0.11219300329685211 0.030748000368475914 0.041985999792814255
  endloop
 endfacet
 facet normal -0.33658606820394504 -0.82412865774536903 0.45554557859101841
  outer loop
   vertex -0.11219300329685211 0.030748000368475914 0.041985999792814255
   vertex -0.13634899258613586 0.036788001656532288 0.035064999014139175
   vertex -0.11566399782896042 0.028440000489354134 0.035245999693870544
  endloop
 endfacet
 facet normal -0.035761417052021932 -0.06715526941565407 0.9971014446083919
  outer loop
   vertex -0.11566399782896042 0.028440000489354134 0.035245999693870544
   vertex -0.14024899899959564 0.028465999290347099 0.034366000443696976
   vertex -0.11997699737548828 0.020284000784158707 0.034542001783847809
  endloop
 endfacet
 facet normal -0.16795668539319222 -0.39653036462590713 0.90252657676180226
  outer loop
   vertex -0.11997699737548828 0.020284000784158707 0.034542001783847809
   vertex -0.14229600131511688 0.022024000063538551 0.031153000891208649
   vertex -0.12392000108957291 0.014607000164687634 0.031314000487327576
  endloop
 endfacet
 facet normal -0.313310643576312 -0.76426768918151466 0.56367662706107025
  outer loop
   vertex -0.12392000108957291 0.014607000164687634 0.031314000487327576
   vertex -0.14232200384140015 0.017704999074339867 0.025286000221967697
   vertex -0.12740400433540344 0.011686000041663647 0.02541700005531311
  endloop
 endfacet
 facet normal 0.087628770536415088 0.23803777019326119 0.96729479401870888
  outer loop
   vertex -0.12740400433540344 0.011686000041663647 0.02541700005531311
   vertex -0.14655199646949768 0.010754000395536423 0.027380999177694321
   vertex -0.13040000200271606 0.0042349998839199543 0.027521999552845955
  endloop
 endfacet
 facet normal -0.18834994051522022 -0.44753075589340791 0.87420851199092553
  outer loop
   vertex -0.13040000200271606 0.0042349998839199543 0.027521999552845955
   vertex -0.14916500449180603 0.0017579999985173345 0.022211000323295593
   vertex -0.13606199622154236 -0.0035300001036375761 0.02232700027525425
  endloop
 endfacet
 facet normal -0.11277664394127779 -0.25857982796984186 0.95938412596229106
  outer loop
   vertex -0.13606199622154236 -0.0035300001036375761 0.02232700027525425
   vertex -0.15240900218486786 -0.0066740000620484352 0.019557999446988106
   vertex -0.14087200164794922 -0.011331000365316868 0.019658999517560005
  endloop
 endfacet
 facet normal -0.30234563913929624 -0.73591399884306696 0.60581985837396979
  outer loop
   vertex -0.14087200164794922 -0.011331000365316868 0.019658999517560005
   vertex -0.15262599289417267 -0.011070000007748604 0.014109999872744083
   vertex -0.14430099725723267 -0.014430999755859375 0.014182000420987606
  endloop
 endfacet
 facet normal -0.35602414592276804 -0.87460195206503843 0.3291173543950357
  outer loop
   vertex -0.14430099725723267 -0.014430999755859375 0.014182000420987606
   vertex -0.15166899561882019 -0.013930000364780426 0.0075429999269545078
   vertex -0.14722000062465668 -0.015726000070571899 0.0075830002315342426
  endloop
 endfacet
 facet normal 0.015377136948022613 0.060163918070886051 0.99807006097850748
  outer loop
   vertex -0.14722000062465668 -0.015726000070571899 0.0075830002315342426
   vertex -0.15487800538539886 -0.020055999979376793 0.0079619996249675751
   vertex -0.15018199384212494 -0.021952999755740166 0.0080040004104375839
  endloop
 endfacet
 facet normal -0.37361256330296977 -0.92647404759177621 -0.045381622724353587
  outer loop
   vertex -0.15018199384212494 -0.021952999755740166 0.0080040004104375839
   vertex -0.14850200712680817 -0.022940000519156456 0.014322999864816666
   vertex -0.15690700709819794 -0.019547000527381897 0.014250000007450581
  endloop
 endfacet
 facet normal -0.047626666366044339 -0.096499618008822063 0.99419290098803714
  outer loop
   vertex -0.14850200712680817 -0.022940000519156456 0.014322999864816666
   vertex -0.15797799825668335 -0.021900000050663948 0.013969999738037586
   vertex -0.14973799884319305 -0.025225000455975533 0.014042000286281109
  endloop
 endfacet
 facet normal -0.35734236079797382 -0.87890332057255305 0.31596738797836527
  outer loop
   vertex -0.14973799884319305 -0.025225000455975533 0.014042000286281109
   vertex -0.15706199407577515 -0.024433000013232231 0.0079619996249675751
   vertex -0.15236400067806244 -0.02632799930870533 0.0080040004104375839
  endloop
 endfacet
 facet normal -0.14019898931754934 -0.32699671134762059 0.93456802543323658
  outer loop
   vertex -0.15236400067806244 -0.02632799930870533 0.0080040004104375839
   vertex -0.15902000665664673 -0.029982000589370728 0.005727000068873167
   vertex -0.15564100444316864 -0.031344998627901077 0.0057569998316466808
  endloop
 endfacet
 facet normal -0.15887371271819842 -0.37374976022095158 0.91382178795535207
  outer loop
   vertex -0.15564100444316864 -0.031344998627901077 0.0057569998316466808
   vertex -0.15902000665664673 -0.029982000589370728 0.005727000068873167
   vertex -0.16306999325752258 -0.042263001203536987 0
  endloop
 endfacet
 facet normal 0.39204101254834911 0.91993745739221655 0.0043495938671216164
  outer loop
   vertex -0.087707996368408203 0.066016003489494324 0.014481999911367893
   vertex -0.10526599735021591 0.073567003011703491 0
   vertex -0.09347900003194809 0.068346001207828522 0.04184500128030777
  endloop
 endfacet
 facet normal -0.97132413999519185 0.10927094187488014 -0.21116173025521778
  outer loop
   vertex -0.087707996368408203 0.066016003489494324 0.014481999911367893
   vertex -0.088731996715068817 0.059703998267650604 0.015925999730825424
   vertex -0.094385996460914612 0.064690001308917999 0.044514000415802002
  endloop
 endfacet
 facet normal -0.93428463396420658 0.0307616639004273 -0.35519845547587275
  outer loop
   vertex -0.088731996715068817 0.059703998267650604 0.015925999730825424
   vertex -0.089895002543926239 0.050661999732255936 0.018201999366283417
   vertex -0.10094399750232697 0.049711000174283981 0.047182001173496246
  endloop
 endfacet
 facet normal -0.87235984325442928 0.18981419909872935 -0.45050957114984314
  outer loop
   vertex -0.089895002543926239 0.050661999732255936 0.018201999366283417
   vertex -0.091422997415065765 0.045402999967336655 0.018944999203085899
   vertex -0.10759200155735016 0.03677700087428093 0.046620000153779984
  endloop
 endfacet
 facet normal -0.78935629217264558 0.21404317800338038 -0.5754147738437605
  outer loop
   vertex -0.091422997415065765 0.045402999967336655 0.018944999203085899
   vertex -0.093327000737190247 0.039910998195409775 0.019514000043272972
   vertex -0.11219300329685211 0.030748000368475914 0.041985999792814255
  endloop
 endfacet
 facet normal 0.35197936778106964 0.44439435696170876 0.82378648942370258
  outer loop
   vertex -0.093327000737190247 0.039910998195409775 0.019514000043272972
   vertex -0.11566399782896042 0.028440000489354134 0.035245999693870544
   vertex -0.092055000364780426 0.032903000712394714 0.02275099977850914
  endloop
 endfacet
 facet normal 0.28561776161260216 0.23591946739591285 0.92885117169277209
  outer loop
   vertex -0.092055000364780426 0.032903000712394714 0.02275099977850914
   vertex -0.11997699737548828 0.020284000784158707 0.034542001783847809
   vertex -0.092513002455234528 0.027598999440670013 0.024238999933004379
  endloop
 endfacet
 facet normal -0.38348365740108414 0.50647913786999166 -0.77228179274715392
  outer loop
   vertex -0.092513002455234528 0.027598999440670013 0.024238999933004379
   vertex -0.096121996641159058 0.023334000259637833 0.02323400042951107
   vertex -0.12392000108957291 0.014607000164687634 0.031314000487327576
  endloop
 endfacet
 facet normal -0.3305716864958882 0.92390047686742216 0.1926921610533596
  outer loop
   vertex -0.096121996641159058 0.023334000259637833 0.02323400042951107
   vertex -0.10523500293493271 0.021214000880718231 0.017765000462532043
   vertex -0.12740400433540344 0.011686000041663647 0.02541700005531311
  endloop
 endfacet
 facet normal -0.58898313805817359 0.79737276878611107 -0.13151247348262177
  outer loop
   vertex -0.10523500293493271 0.021214000880718231 0.017765000462532043
   vertex -0.11309800297021866 0.014879000373184681 0.014569999650120735
   vertex -0.13040000200271606 0.0042349998839199543 0.027521999552845955
  endloop
 endfacet
 facet normal -0.60239413629750127 0.79229111739212421 0.0969334300224996
  outer loop
   vertex -0.11309800297021866 0.014879000373184681 0.014569999650120735
   vertex -0.12145599722862244 0.0089739998802542686 0.010893999598920345
   vertex -0.13606199622154236 -0.0035300001036375761 0.02232700027525425
  endloop
 endfacet
 facet normal -0.5865445498737647 0.72052675912856057 0.3698738709250437
  outer loop
   vertex -0.12145599722862244 0.0089739998802542686 0.010893999598920345
   vertex -0.12952800095081329 0.004424000158905983 0.0069570001214742661
   vertex -0.14087200164794922 -0.011331000365316868 0.019658999517560005
  endloop
 endfacet
 facet normal -0.62705272638415233 0.6536607178957019 0.42371280865024269
  outer loop
   vertex -0.12952800095081329 0.004424000158905983 0.0069570001214742661
   vertex -0.13820800185203552 -0.0013500000350177288 0.0030189999379217625
   vertex -0.14430099725723267 -0.014430999755859375 0.014182000420987606
  endloop
 endfacet
 facet normal -0.57315351491247113 0.55166627395270873 0.60593677106329735
  outer loop
   vertex -0.13820800185203552 -0.0013500000350177288 0.0030189999379217625
   vertex -0.14593499898910522 -0.0049569997936487198 -0.0010059999767690897
   vertex -0.14722000062465668 -0.015726000070571899 0.0075830002315342426
  endloop
 endfacet
 facet normal -0.78561431713139629 0.43141871013732525 0.44349525506099446
  outer loop
   vertex -0.14593499898910522 -0.0049569997936487198 -0.0010059999767690897
   vertex -0.15237000584602356 -0.016045000404119492 -0.0016189999878406525
   vertex -0.15018199384212494 -0.021952999755740166 0.0080040004104375839
  endloop
 endfacet
 facet normal -0.78214557622012337 -0.61824203305373115 -0.077621428516101501
  outer loop
   vertex -0.15237000584602356 -0.016045000404119492 -0.0016189999878406525
   vertex -0.14975999295711517 -0.019726000726222992 0.00139999995008111
   vertex -0.14850200712680817 -0.022940000519156456 0.014322999864816666
  endloop
 endfacet
 facet normal -0.91021032889898323 0.37919239258391418 0.16652413210130076
  outer loop
   vertex -0.14975999295711517 -0.019726000726222992 0.00139999995008111
   vertex -0.15196600556373596 -0.025174999609589577 0.0017500000540167093
   vertex -0.14973799884319305 -0.025225000455975533 0.014042000286281109
  endloop
 endfacet
 facet normal -0.80469904117482871 0.59087001878901402 0.057724119989668823
  outer loop
   vertex -0.15196600556373596 -0.025174999609589577 0.0017500000540167093
   vertex -0.15449300408363342 -0.028560999780893326 0.0011820000363513827
   vertex -0.15236400067806244 -0.02632799930870533 0.0080040004104375839
  endloop
 endfacet
 facet normal 0.93894849659402924 -0.34300594737441037 0.026881979272285243
  outer loop
   vertex -0.15449300408363342 -0.028560999780893326 0.0011820000363513827
   vertex -0.15564100444316864 -0.031344998627901077 0.0057569998316466808
   vertex -0.15630100667476654 -0.033475998789072037 0.0016189999878406525
  endloop
 endfacet
 facet normal 0.75835060748235827 -0.62080806059725557 0.1987503661093793
  outer loop
   vertex -0.15630100667476654 -0.033475998789072037 0.0016189999878406525
   vertex -0.15564100444316864 -0.031344998627901077 0.0057569998316466808
   vertex -0.16306999325752258 -0.042263001203536987 0
  endloop
 endfacet
 facet normal 0.45575850097168047 0.8854515900675809 -0.090882729045950253
  outer loop
   vertex -0.10106000304222107 0.071405999362468719 3.7999998312443495e-05
   vertex -0.10526599735021591 0.073567003011703491 0
   vertex -0.087707996368408203 0.066016003489494324 0.014481999911367893
  endloop
 endfacet
 facet normal -0.71329398500693586 0.17127309884073172 0.67961549170572788
  outer loop
   vertex -0.10106000304222107 0.071405999362468719 3.7999998312443495e-05
   vertex -0.10311000049114227 0.062801003456115723 5.5000000429572538e-05
   vertex -0.088731996715068817 0.059703998267650604 0.015925999730825424
  endloop
 endfacet
 facet normal -0.60616880375425974 -0.79052177160575077 -0.087376827434021212
  outer loop
   vertex -0.10311000049114227 0.062801003456115723 5.5000000429572538e-05
   vertex -0.099288001656532288 0.059865999966859818 9.4000002718530595e-05
   vertex -0.089895002543926239 0.050661999732255936 0.018201999366283417
  endloop
 endfacet
 facet normal -0.32547345992137761 0.6797254541026998 0.65729775135146029
  outer loop
   vertex -0.099288001656532288 0.059865999966859818 9.4000002718530595e-05
   vertex -0.091422997415065765 0.045402999967336655 0.018944999203085899
   vertex -0.094880998134613037 0.061953000724315643 0.00011800000356743112
  endloop
 endfacet
 facet normal -0.72337684510141453 -0.48416118587197465 -0.49225388374919654
  outer loop
   vertex -0.094880998134613037 0.061953000724315643 0.00011800000356743112
   vertex -0.090674996376037598 0.055615000426769257 0.00017100000695791095
   vertex -0.093327000737190247 0.039910998195409775 0.019514000043272972
  endloop
 endfacet
 facet normal -0.61270278021595337 -0.53817121858296035 -0.57876337358593499
  outer loop
   vertex -0.090674996376037598 0.055615000426769257 0.00017100000695791095
   vertex -0.078261002898216248 0.041328001767396927 0.00031400000443682075
   vertex -0.092055000364780426 0.032903000712394714 0.02275099977850914
  endloop
 endfacet
 facet normal -0.41223522050226596 -0.66231165047445661 -0.62562400898882486
  outer loop
   vertex -0.078261002898216248 0.041328001767396927 0.00031400000443682075
   vertex -0.073510996997356415 0.038329001516103745 0.00035899999784305692
   vertex -0.092513002455234528 0.027598999440670013 0.024238999933004379
  endloop
 endfacet
 facet normal -0.7700578391024494 0.38414329254937774 -0.50935729623338988
  outer loop
   vertex -0.073510996997356415 0.038329001516103745 0.00035899999784305692
   vertex -0.075244002044200897 0.034855000674724579 0.00035899999784305692
   vertex -0.096121996641159058 0.023334000259637833 0.02323400042951107
  endloop
 endfacet
 facet normal -0.10004518580808409 0.85951745008708647 0.50121922727726498
  outer loop
   vertex -0.075244002044200897 0.034855000674724579 0.00035899999784305692
   vertex -0.089330002665519714 0.033271998167037964 0.00026199998683296144
   vertex -0.10523500293493271 0.021214000880718231 0.017765000462532043
  endloop
 endfacet
 facet normal -0.18347600659296712 0.74025100974434366 0.6468114080450168
  outer loop
   vertex -0.089330002665519714 0.033271998167037964 0.00026199998683296144
   vertex -0.1053680032491684 0.029386000707745552 0.00015999999595806003
   vertex -0.11309800297021866 0.014879000373184681 0.014569999650120735
  endloop
 endfacet
 facet normal -0.28928355488558166 0.61413253830459547 0.73427259942634049
  outer loop
   vertex -0.1053680032491684 0.029386000707745552 0.00015999999595806003
   vertex -0.11516699939966202 0.024836000055074692 0.0001049999991664663
   vertex -0.12145599722862244 0.0089739998802542686 0.010893999598920345
  endloop
 endfacet
 facet normal -0.037193985497963364 0.3414332113066465 0.93916983004119559
  outer loop
   vertex -0.11516699939966202 0.024836000055074692 0.0001049999991664663
   vertex -0.12707599997520447 0.023767000064253807 2.2000000171829015e-05
   vertex -0.12952800095081329 0.004424000158905983 0.0069570001214742661
  endloop
 endfacet
 facet normal -0.12732598838350534 0.172968550742433 0.97666267110821114
  outer loop
   vertex -0.12707599997520447 0.023767000064253807 2.2000000171829015e-05
   vertex -0.13971899449825287 0.014798999764025211 -3.7999998312443495e-05
   vertex -0.13820800185203552 -0.0013500000350177288 0.0030189999379217625
  endloop
 endfacet
 facet normal -0.032722344531348202 0.059181326640961263 -0.99771078912948885
  outer loop
   vertex -0.13971899449825287 0.014798999764025211 -3.7999998312443495e-05
   vertex -0.14593499898910522 -0.0049569997936487198 -0.0010059999767690897
   vertex -0.15027999877929688 0.0080829998478293419 -9.0000001364387572e-05
  endloop
 endfacet
 facet normal -0.10508736770686587 0.071957125051687193 -0.99185624830553831
  outer loop
   vertex -0.15027999877929688 0.0080829998478293419 -9.0000001364387572e-05
   vertex -0.15237000584602356 -0.016045000404119492 -0.0016189999878406525
   vertex -0.1608320027589798 -0.0076029999181628227 -0.00011000000085914508
  endloop
 endfacet
 facet normal -0.16760263056292204 -0.030335926306206282 0.98538778651023129
  outer loop
   vertex -0.1608320027589798 -0.0076029999181628227 -0.00011000000085914508
   vertex -0.15968799591064453 -0.013013999909162521 -8.1999998656101525e-05
   vertex -0.14975999295711517 -0.019726000726222992 0.00139999995008111
  endloop
 endfacet
 facet normal -0.15481538822460711 0.05033131982164038 0.98666050585491449
  outer loop
   vertex -0.15968799591064453 -0.013013999909162521 -8.1999998656101525e-05
   vertex -0.16246399283409119 -0.021787999197840691 -7.0000001869630069e-05
   vertex -0.15196600556373596 -0.025174999609589577 0.0017500000540167093
  endloop
 endfacet
 facet normal -0.17641862067235139 -0.025732958295865079 0.98397880319517461
  outer loop
   vertex -0.16246399283409119 -0.021787999197840691 -7.0000001869630069e-05
   vertex -0.16122600436210632 -0.028937000781297684 -3.5000000934815034e-05
   vertex -0.15449300408363342 -0.028560999780893326 0.0011820000363513827
  endloop
 endfacet
 facet normal 0.39528904229146788 0.096018572935313851 -0.91352449704195671
  outer loop
   vertex -0.16122600436210632 -0.028937000781297684 -3.5000000934815034e-05
   vertex -0.15630100667476654 -0.033475998789072037 0.0016189999878406525
   vertex -0.15981400012969971 -0.034455001354217529 -3.9999999899009708e-06
  endloop
 endfacet
 facet normal 0.45492686378522357 -0.19015352614436448 -0.86999033621150357
  outer loop
   vertex -0.15981400012969971 -0.034455001354217529 -3.9999999899009708e-06
   vertex -0.15630100667476654 -0.033475998789072037 0.0016189999878406525
   vertex -0.16306999325752258 -0.042263001203536987 0
  endloop
 endfacet
endsolid
