solid Visualization Toolkit generated SLA File
 facet normal -0.13229370393131515 0.81087406809472518 -0.57007159339125524
  outer loop
   vertex 0.099289000034332275 0.030900999903678894 0.0050760000012814999
   vertex 0.094254001975059509 0.032434001564979553 0.0084250001236796379
   vertex 0.10420600324869156 0.031725000590085983 0.0051070000045001507
  endloop
 endfacet
 facet normal -0.15197329887339725 0.7695301560018617 -0.62026402074704234
  outer loop
   vertex 0.10420600324869156 0.031725000590085983 0.0051070000045001507
   vertex 0.094254001975059509 0.032434001564979553 0.0084250001236796379
   vertex 0.10493099689483643 0.032458998262882233 0.0058400002308189869
  endloop
 endfacet
 facet normal -0.090977070081599332 0.57350997537529569 -0.81413112019157929
  outer loop
   vertex 0.10420600324869156 0.031725000590085983 0.0051070000045001507
   vertex 0.10328400135040283 0.030232999473810196 0.0041589997708797455
   vertex 0.099289000034332275 0.030900999903678894 0.0050760000012814999
  endloop
 endfacet
 facet normal 0.10955932768787 0.48394788817009077 -0.86821149223693839
  outer loop
   vertex 0.10420600324869156 0.031725000590085983 0.0051070000045001507
   vertex 0.10476399958133698 0.031082000583410263 0.0048190001398324966
   vertex 0.10328400135040283 0.030232999473810196 0.0041589997708797455
  endloop
 endfacet
 facet normal 0.23569796158431269 0.56021854898830303 -0.79410430566421197
  outer loop
   vertex 0.10420600324869156 0.031725000590085983 0.0051070000045001507
   vertex 0.10493099689483643 0.032458998262882233 0.0058400002308189869
   vertex 0.10476399958133698 0.031082000583410263 0.0048190001398324966
  endloop
 endfacet
 facet normal -0.074397439646756172 0.7977294147690317 -0.59840855758107714
  outer loop
   vertex 0.090985998511314392 0.033628001809120178 0.01042299997061491
   vertex 0.094254001975059509 0.032434001564979553 0.0084250001236796379
   vertex 0.090819001197814941 0.032655999064445496 0.0091479998081922531
  endloop
 endfacet
 facet normal -0.1577979856450428 0.95686973139746312 -0.24392644969685742
  outer loop
   vertex 0.094254001975059509 0.032434001564979553 0.0084250001236796379
   vertex 0.093654997646808624 0.03434399887919426 0.016304999589920044
   vertex 0.10316800326108932 0.034745000302791595 0.011723999865353107
  endloop
 endfacet
 facet normal -0.080571196274148923 0.94273245192792532 -0.32367237511550861
  outer loop
   vertex 0.10549599677324295 0.034111000597476959 0.010510999709367752
   vertex 0.10493099689483643 0.032458998262882233 0.0058400002308189869
   vertex 0.094254001975059509 0.032434001564979553 0.0084250001236796379
  endloop
 endfacet
 facet normal -0.033032333955580348 0.85833633260510944 -0.51202305128134407
  outer loop
   vertex 0.10316800326108932 0.034745000302791595 0.011723999865353107
   vertex 0.10549599677324295 0.034111000597476959 0.010510999709367752
   vertex 0.094254001975059509 0.032434001564979553 0.0084250001236796379
  endloop
 endfacet
 facet normal 0.1862369441167826 0.94710171550298361 -0.26136974028633836
  outer loop
   vertex 0.091720998287200928 0.034224998205900192 0.01310999970883131
   vertex 0.094254001975059509 0.032434001564979553 0.0084250001236796379
   vertex 0.090985998511314392 0.033628001809120178 0.01042299997061491
  endloop
 endfacet
 facet normal 0.28213576059317463 0.93706632919788213 -0.20568448477733361
  outer loop
   vertex 0.093654997646808624 0.03434399887919426 0.016304999589920044
   vertex 0.094254001975059509 0.032434001564979553 0.0084250001236796379
   vertex 0.091720998287200928 0.034224998205900192 0.01310999970883131
  endloop
 endfacet
 facet normal -0.36613715371683231 0.5001587579058171 -0.78471956873665827
  outer loop
   vertex 0.094254001975059509 0.032434001564979553 0.0084250001236796379
   vertex 0.095423996448516846 0.031254000961780548 0.007127000018954277
   vertex 0.093934997916221619 0.031780000776052475 0.008156999945640564
  endloop
 endfacet
 facet normal -0.37143051995610155 0.49545561021077505 -0.78521532534446159
  outer loop
   vertex 0.094254001975059509 0.032434001564979553 0.0084250001236796379
   vertex 0.099289000034332275 0.030900999903678894 0.0050760000012814999
   vertex 0.095423996448516846 0.031254000961780548 0.007127000018954277
  endloop
 endfacet
 facet normal -0.15774653667866059 0.43934290903205797 -0.88436069476720691
  outer loop
   vertex 0.094254001975059509 0.032434001564979553 0.0084250001236796379
   vertex 0.093934997916221619 0.031780000776052475 0.008156999945640564
   vertex 0.090819001197814941 0.032655999064445496 0.0091479998081922531
  endloop
 endfacet
 facet normal -0.47024153185880857 -0.022653303488100383 -0.88224697764070414
  outer loop
   vertex 0.095423996448516846 0.031254000961780548 0.007127000018954277
   vertex 0.099289000034332275 0.030900999903678894 0.0050760000012814999
   vertex 0.098302997648715973 0.028897000476717949 0.005652999971061945
  endloop
 endfacet
 facet normal -0.22681977391572625 -0.01980499527751187 -0.97373536051787535
  outer loop
   vertex 0.099289000034332275 0.030900999903678894 0.0050760000012814999
   vertex 0.10328400135040283 0.030232999473810196 0.0041589997708797455
   vertex 0.10095100104808807 0.028829000890254974 0.0047309999354183674
  endloop
 endfacet
 facet normal -0.21497183328659306 -0.009829358118942675 -0.97657078320640478
  outer loop
   vertex 0.099266998469829559 0.028798999264836311 0.0051020001992583275
   vertex 0.099289000034332275 0.030900999903678894 0.0050760000012814999
   vertex 0.10095100104808807 0.028829000890254974 0.0047309999354183674
  endloop
 endfacet
 facet normal -0.49665208548945977 -0.0055372401149743396 -0.86793205088352365
  outer loop
   vertex 0.098302997648715973 0.028897000476717949 0.005652999971061945
   vertex 0.099289000034332275 0.030900999903678894 0.0050760000012814999
   vertex 0.099266998469829559 0.028798999264836311 0.0051020001992583275
  endloop
 endfacet
 facet normal 0.6202581130688426 0.68565617817687285 -0.38099275386831616
  outer loop
   vertex 0.10547299683094025 0.031821999698877335 0.0055760000832378864
   vertex 0.10493099689483643 0.032458998262882233 0.0058400002308189869
   vertex 0.10553800314664841 0.033073998987674713 0.0079349996522068977
  endloop
 endfacet
 facet normal 0.26560396590606644 0.55322057250686818 -0.7895578075417542
  outer loop
   vertex 0.10493099689483643 0.032458998262882233 0.0058400002308189869
   vertex 0.10547299683094025 0.031821999698877335 0.0055760000832378864
   vertex 0.10476399958133698 0.031082000583410263 0.0048190001398324966
  endloop
 endfacet
 facet normal 0.31429227868907228 0.88241134726740578 -0.35010081086760175
  outer loop
   vertex 0.10553800314664841 0.033073998987674713 0.0079349996522068977
   vertex 0.10493099689483643 0.032458998262882233 0.0058400002308189869
   vertex 0.10549599677324295 0.034111000597476959 0.010510999709367752
  endloop
 endfacet
 facet normal 0.46016639317400343 -0.11812086123117801 -0.87993997109759314
  outer loop
   vertex 0.10328400135040283 0.030232999473810196 0.0041589997708797455
   vertex 0.10476399958133698 0.031082000583410263 0.0048190001398324966
   vertex 0.10424900054931641 0.029179999604821205 0.0048050000332295895
  endloop
 endfacet
 facet normal -0.092784169769699457 -0.23955690019628473 -0.96643861129845943
  outer loop
   vertex 0.10095100104808807 0.028829000890254974 0.0047309999354183674
   vertex 0.10328400135040283 0.030232999473810196 0.0041589997708797455
   vertex 0.10247600078582764 0.028904000297188759 0.0045659998431801796
  endloop
 endfacet
 facet normal 0.13254614094703346 -0.36303517958870712 -0.92229983134609983
  outer loop
   vertex 0.10247600078582764 0.028904000297188759 0.0045659998431801796
   vertex 0.10328400135040283 0.030232999473810196 0.0041589997708797455
   vertex 0.10331100225448608 0.028998000547289848 0.0046489997766911983
  endloop
 endfacet
 facet normal 0.22006697343615608 -0.35559237770012564 -0.90836368714530935
  outer loop
   vertex 0.10331100225448608 0.028998000547289848 0.0046489997766911983
   vertex 0.10328400135040283 0.030232999473810196 0.0041589997708797455
   vertex 0.10424900054931641 0.029179999604821205 0.0048050000332295895
  endloop
 endfacet
 facet normal 0.65817583311930972 -0.17281862219563765 -0.73276073620255056
  outer loop
   vertex 0.10424900054931641 0.029179999604821205 0.0048050000332295895
   vertex 0.10476399958133698 0.031082000583410263 0.0048190001398324966
   vertex 0.10500399768352509 0.029875999316573143 0.0053190002217888832
  endloop
 endfacet
 facet normal 0.77474658891008807 -0.10436306201478837 -0.62359928981604895
  outer loop
   vertex 0.10476399958133698 0.031082000583410263 0.0048190001398324966
   vertex 0.10547299683094025 0.031821999698877335 0.0055760000832378864
   vertex 0.10500399768352509 0.029875999316573143 0.0053190002217888832
  endloop
 endfacet
 facet normal -0.73398301069926986 0.48439380488568368 -0.47605838065641254
  outer loop
   vertex 0.09064900130033493 0.032193001359701157 0.0089389998465776443
   vertex 0.090177997946739197 0.032010998576879501 0.0094799995422363281
   vertex 0.090819001197814941 0.032655999064445496 0.0091479998081922531
  endloop
 endfacet
 facet normal -0.74881333878806289 0.57070762967344524 -0.33700353868407873
  outer loop
   vertex 0.090177997946739197 0.032010998576879501 0.0094799995422363281
   vertex 0.090985998511314392 0.033628001809120178 0.01042299997061491
   vertex 0.090819001197814941 0.032655999064445496 0.0091479998081922531
  endloop
 endfacet
 facet normal -0.15222760501554547 0.45252689365771953 -0.8786615769383147
  outer loop
   vertex 0.093934997916221619 0.031780000776052475 0.008156999945640564
   vertex 0.09064900130033493 0.032193001359701157 0.0089389998465776443
   vertex 0.090819001197814941 0.032655999064445496 0.0091479998081922531
  endloop
 endfacet
 facet normal -0.61747164303823088 0.78657133264910184 -0.0058573627413243444
  outer loop
   vertex 0.090791001915931702 0.033496998250484467 0.013387000188231468
   vertex 0.091720998287200928 0.034224998205900192 0.01310999970883131
   vertex 0.090985998511314392 0.033628001809120178 0.01042299997061491
  endloop
 endfacet
 facet normal -0.80373068157104266 0.59439816538713108 -0.026604745549621115
  outer loop
   vertex 0.090985998511314392 0.033628001809120178 0.01042299997061491
   vertex 0.090286001563072205 0.032735999673604965 0.011641000397503376
   vertex 0.090791001915931702 0.033496998250484467 0.013387000188231468
  endloop
 endfacet
 facet normal -0.85635247302861883 0.50096652460163515 -0.12527163751754772
  outer loop
   vertex 0.090985998511314392 0.033628001809120178 0.01042299997061491
   vertex 0.090177997946739197 0.032010998576879501 0.0094799995422363281
   vertex 0.090286001563072205 0.032735999673604965 0.011641000397503376
  endloop
 endfacet
 facet normal 0.3146939269889315 0.94264920928122575 0.11126634962002156
  outer loop
   vertex 0.10549599677324295 0.034111000597476959 0.010510999709367752
   vertex 0.10316800326108932 0.034745000302791595 0.011723999865353107
   vertex 0.10688599944114685 0.033264998346567154 0.013747000135481358
  endloop
 endfacet
 facet normal 0.37676346212100276 0.90955004881138823 0.17540810220111602
  outer loop
   vertex 0.10737600177526474 0.03218499943614006 0.015960000455379486
   vertex 0.10316800326108932 0.034745000302791595 0.011723999865353107
   vertex 0.10637199878692627 0.032409001141786575 0.016954999417066574
  endloop
 endfacet
 facet normal 0.087302166482230908 0.92841978004995795 0.3611302309963767
  outer loop
   vertex 0.10637199878692627 0.032409001141786575 0.016954999417066574
   vertex 0.10316800326108932 0.034745000302791595 0.011723999865353107
   vertex 0.10268300026655197 0.031982999294996262 0.018942000344395638
  endloop
 endfacet
 facet normal 0.21358274376252007 0.82944855781476656 0.51613709564986454
  outer loop
   vertex 0.094759002327919006 0.032687000930309296 0.018510999158024788
   vertex 0.10316800326108932 0.034745000302791595 0.011723999865353107
   vertex 0.093654997646808624 0.03434399887919426 0.016304999589920044
  endloop
 endfacet
 facet normal 0.063084165966844949 0.93067539522646803 0.36036605934011745
  outer loop
   vertex 0.10268300026655197 0.031982999294996262 0.018942000344395638
   vertex 0.10316800326108932 0.034745000302791595 0.011723999865353107
   vertex 0.094759002327919006 0.032687000930309296 0.018510999158024788
  endloop
 endfacet
 facet normal 0.13589406994590281 0.90188189727825885 0.41005102745305516
  outer loop
   vertex 0.10316800326108932 0.034745000302791595 0.011723999865353107
   vertex 0.10737600177526474 0.03218499943614006 0.015960000455379486
   vertex 0.10688599944114685 0.033264998346567154 0.013747000135481358
  endloop
 endfacet
 facet normal -0.35704809597618176 0.65226881252636693 0.66862699120303726
  outer loop
   vertex 0.093446999788284302 0.031403999775648117 0.019061999395489693
   vertex 0.094759002327919006 0.032687000930309296 0.018510999158024788
   vertex 0.093654997646808624 0.03434399887919426 0.016304999589920044
  endloop
 endfacet
 facet normal -0.64224703057670851 0.5690187033968237 0.5135527888153254
  outer loop
   vertex 0.093654997646808624 0.03434399887919426 0.016304999589920044
   vertex 0.09170299768447876 0.033323999494314194 0.0149940000846982
   vertex 0.092601001262664795 0.032953999936580658 0.016527000814676285
  endloop
 endfacet
 facet normal -0.60440829246265571 0.72094649576303438 0.33900850468591193
  outer loop
   vertex 0.093654997646808624 0.03434399887919426 0.016304999589920044
   vertex 0.091720998287200928 0.034224998205900192 0.01310999970883131
   vertex 0.09170299768447876 0.033323999494314194 0.0149940000846982
  endloop
 endfacet
 facet normal -0.60974170591403509 0.5646961156206004 0.55617744387205048
  outer loop
   vertex 0.093654997646808624 0.03434399887919426 0.016304999589920044
   vertex 0.093056999146938324 0.03221600130200386 0.017810000106692314
   vertex 0.093446999788284302 0.031403999775648117 0.019061999395489693
  endloop
 endfacet
 facet normal -0.62435657281649026 0.56035215123370552 0.54422820267660232
  outer loop
   vertex 0.093654997646808624 0.03434399887919426 0.016304999589920044
   vertex 0.092601001262664795 0.032953999936580658 0.016527000814676285
   vertex 0.093056999146938324 0.03221600130200386 0.017810000106692314
  endloop
 endfacet
 facet normal 0.77505309491418173 0.59045878422926568 -0.22505804626905881
  outer loop
   vertex 0.10549599677324295 0.034111000597476959 0.010510999709367752
   vertex 0.10604500025510788 0.033337000757455826 0.010370999574661255
   vertex 0.10553800314664841 0.033073998987674713 0.0079349996522068977
  endloop
 endfacet
 facet normal 0.80172785408270297 0.56434705594053836 -0.19683711143783603
  outer loop
   vertex 0.10670799762010574 0.03296399861574173 0.012159000150859356
   vertex 0.10549599677324295 0.034111000597476959 0.010510999709367752
   vertex 0.10688599944114685 0.033264998346567154 0.013747000135481358
  endloop
 endfacet
 facet normal 0.78913232391501165 0.59038699906230929 -0.16945018940884604
  outer loop
   vertex 0.10670799762010574 0.03296399861574173 0.012159000150859356
   vertex 0.10604500025510788 0.033337000757455826 0.010370999574661255
   vertex 0.10549599677324295 0.034111000597476959 0.010510999709367752
  endloop
 endfacet
 facet normal -0.5021839373430067 0.78199531696404367 0.36918100888450356
  outer loop
   vertex 0.091720998287200928 0.034224998205900192 0.01310999970883131
   vertex 0.090791001915931702 0.033496998250484467 0.013387000188231468
   vertex 0.09170299768447876 0.033323999494314194 0.0149940000846982
  endloop
 endfacet
 facet normal -0.25184726551040088 -0.21882893620585855 -0.94270188900518592
  outer loop
   vertex 0.09064900130033493 0.032193001359701157 0.0089389998465776443
   vertex 0.093934997916221619 0.031780000776052475 0.008156999945640564
   vertex 0.090669997036457062 0.03101000003516674 0.0092080002650618553
  endloop
 endfacet
 facet normal -0.24869178440767431 -0.22979018586448166 -0.94092978847972175
  outer loop
   vertex 0.090669997036457062 0.03101000003516674 0.0092080002650618553
   vertex 0.093934997916221619 0.031780000776052475 0.008156999945640564
   vertex 0.092298001050949097 0.030713999643921852 0.0088499998673796654
  endloop
 endfacet
 facet normal -0.60471022910618988 -0.20453874747517239 -0.76973335616668392
  outer loop
   vertex 0.093934997916221619 0.031780000776052475 0.008156999945640564
   vertex 0.095423996448516846 0.031254000961780548 0.007127000018954277
   vertex 0.095646001398563385 0.029844999313354492 0.0073270001448690891
  endloop
 endfacet
 facet normal -0.40704695125746893 0.031635240066626477 -0.91285923945476211
  outer loop
   vertex 0.092298001050949097 0.030713999643921852 0.0088499998673796654
   vertex 0.093934997916221619 0.031780000776052475 0.008156999945640564
   vertex 0.095646001398563385 0.029844999313354492 0.0073270001448690891
  endloop
 endfacet
 facet normal -0.53311029910909502 -0.12819357949803717 -0.83627735540267489
  outer loop
   vertex 0.097166001796722412 0.029234999790787697 0.0063260002061724663
   vertex 0.095423996448516846 0.031254000961780548 0.007127000018954277
   vertex 0.098302997648715973 0.028897000476717949 0.005652999971061945
  endloop
 endfacet
 facet normal -0.59423094688113265 -0.20405791106107879 -0.77797811711007747
  outer loop
   vertex 0.095646001398563385 0.029844999313354492 0.0073270001448690891
   vertex 0.095423996448516846 0.031254000961780548 0.007127000018954277
   vertex 0.097166001796722412 0.029234999790787697 0.0063260002061724663
  endloop
 endfacet
 facet normal -0.54984296313863656 -0.28980146922987166 -0.78338229768046941
  outer loop
   vertex 0.097166001796722412 0.029234999790787697 0.0063260002061724663
   vertex 0.098302997648715973 0.028897000476717949 0.005652999971061945
   vertex 0.097517997026443481 0.027667000889778137 0.0066590001806616783
  endloop
 endfacet
 facet normal -0.49240752334194698 -0.34076966639856343 -0.8008813054497288
  outer loop
   vertex 0.097517997026443481 0.027667000889778137 0.0066590001806616783
   vertex 0.098302997648715973 0.028897000476717949 0.005652999971061945
   vertex 0.099266998469829559 0.028798999264836311 0.0051020001992583275
  endloop
 endfacet
 facet normal -0.080456386249613404 -0.38590735567727674 -0.91902246041422986
  outer loop
   vertex 0.10247600078582764 0.028904000297188759 0.0045659998431801796
   vertex 0.096230000257492065 0.019392000511288643 0.0091070001944899559
   vertex 0.10095100104808807 0.028829000890254974 0.0047309999354183674
  endloop
 endfacet
 facet normal -0.19754834086354001 -0.32932338511275983 -0.92332050829597379
  outer loop
   vertex 0.099266998469829559 0.028798999264836311 0.0051020001992583275
   vertex 0.10095100104808807 0.028829000890254974 0.0047309999354183674
   vertex 0.096230000257492065 0.019392000511288643 0.0091070001944899559
  endloop
 endfacet
 facet normal -0.60780493455578311 -0.13679877290324446 -0.78221432949148084
  outer loop
   vertex 0.097517997026443481 0.027667000889778137 0.0066590001806616783
   vertex 0.099266998469829559 0.028798999264836311 0.0051020001992583275
   vertex 0.096230000257492065 0.019392000511288643 0.0091070001944899559
  endloop
 endfacet
 facet normal 0.89547947297351571 0.38247139706892935 -0.22766673869323961
  outer loop
   vertex 0.10553800314664841 0.033073998987674713 0.0079349996522068977
   vertex 0.10604500025510788 0.033337000757455826 0.010370999574661255
   vertex 0.10547299683094025 0.031821999698877335 0.0055760000832378864
  endloop
 endfacet
 facet normal 0.87597764220937602 0.42000044530153968 -0.23719779993880735
  outer loop
   vertex 0.10547299683094025 0.031821999698877335 0.0055760000832378864
   vertex 0.10604500025510788 0.033337000757455826 0.010370999574661255
   vertex 0.10670799762010574 0.03296399861574173 0.012159000150859356
  endloop
 endfacet
 facet normal 0.9684005499612921 0.14051014741129739 -0.20605162777595945
  outer loop
   vertex 0.10670799762010574 0.03296399861574173 0.012159000150859356
   vertex 0.10726200044155121 0.031847000122070312 0.014000999741256237
   vertex 0.10547299683094025 0.031821999698877335 0.0055760000832378864
  endloop
 endfacet
 facet normal 0.95773355430187734 -0.20404203053709918 -0.20276412093511628
  outer loop
   vertex 0.10500399768352509 0.029875999316573143 0.0053190002217888832
   vertex 0.10547299683094025 0.031821999698877335 0.0055760000832378864
   vertex 0.10726200044155121 0.031847000122070312 0.014000999741256237
  endloop
 endfacet
 facet normal 0.68043642861838738 -0.22247465462120261 -0.6982200904157877
  outer loop
   vertex 0.10424900054931641 0.029179999604821205 0.0048050000332295895
   vertex 0.10500399768352509 0.029875999316573143 0.0053190002217888832
   vertex 0.10442499816417694 0.027898000553250313 0.005384999793022871
  endloop
 endfacet
 facet normal 0.22259082999581192 -0.37632487391864294 -0.89935138387167279
  outer loop
   vertex 0.10331100225448608 0.028998000547289848 0.0046489997766911983
   vertex 0.10424900054931641 0.029179999604821205 0.0048050000332295895
   vertex 0.10442499816417694 0.027898000553250313 0.005384999793022871
  endloop
 endfacet
 facet normal -0.29171027718803305 -0.24930090375577674 -0.92344689807775837
  outer loop
   vertex 0.10247600078582764 0.028904000297188759 0.0045659998431801796
   vertex 0.097916997969150543 0.019096000120043755 0.0086540002375841141
   vertex 0.096230000257492065 0.019392000511288643 0.0091070001944899559
  endloop
 endfacet
 facet normal 0.13836291748803484 -0.45013310211546803 -0.88217679262385085
  outer loop
   vertex 0.10247600078582764 0.028904000297188759 0.0045659998431801796
   vertex 0.10331100225448608 0.028998000547289848 0.0046489997766911983
   vertex 0.10442499816417694 0.027898000553250313 0.005384999793022871
  endloop
 endfacet
 facet normal -0.20028769412643169 -0.29615502571147589 -0.93390419226350618
  outer loop
   vertex 0.10247600078582764 0.028904000297188759 0.0045659998431801796
   vertex 0.099615998566150665 0.018934000283479691 0.0083410004153847694
   vertex 0.097916997969150543 0.019096000120043755 0.0086540002375841141
  endloop
 endfacet
 facet normal -0.12644355759483725 -0.31933164449288376 -0.93916948820126789
  outer loop
   vertex 0.10179799795150757 0.019666999578475952 0.0077979997731745243
   vertex 0.099615998566150665 0.018934000283479691 0.0083410004153847694
   vertex 0.10247600078582764 0.028904000297188759 0.0045659998431801796
  endloop
 endfacet
 facet normal 0.11334503443982909 -0.33553749434230506 -0.93518313343340487
  outer loop
   vertex 0.10252299904823303 0.019674999639391899 0.0078830001875758171
   vertex 0.10179799795150757 0.019666999578475952 0.0077979997731745243
   vertex 0.10247600078582764 0.028904000297188759 0.0045659998431801796
  endloop
 endfacet
 facet normal 0.21629178581411834 -0.32924644775563022 -0.9191379874804646
  outer loop
   vertex 0.10442499816417694 0.027898000553250313 0.005384999793022871
   vertex 0.10252299904823303 0.019674999639391899 0.0078830001875758171
   vertex 0.10247600078582764 0.028904000297188759 0.0045659998431801796
  endloop
 endfacet
 facet normal 0.83537077240081459 -0.26067733901101531 -0.48394524229979013
  outer loop
   vertex 0.10391300171613693 0.020452000200748444 0.0085119996219873428
   vertex 0.10442499816417694 0.027898000553250313 0.005384999793022871
   vertex 0.10500399768352509 0.029875999316573143 0.0053190002217888832
  endloop
 endfacet
 facet normal 0.96044201007057739 -0.18553886230353409 -0.20766915001198216
  outer loop
   vertex 0.10500399768352509 0.029875999316573143 0.0053190002217888832
   vertex 0.10726200044155121 0.031847000122070312 0.014000999741256237
   vertex 0.10641799867153168 0.025845000520348549 0.0154600003734231
  endloop
 endfacet
 facet normal 0.96631566833652927 -0.17561130350885729 -0.18813478999708408
  outer loop
   vertex 0.10496500134468079 0.022249000146985054 0.012237999588251114
   vertex 0.10391300171613693 0.020452000200748444 0.0085119996219873428
   vertex 0.10500399768352509 0.029875999316573143 0.0053190002217888832
  endloop
 endfacet
 facet normal 0.95724975979838922 -0.19702350410859495 -0.21178913143666439
  outer loop
   vertex 0.10500399768352509 0.029875999316573143 0.0053190002217888832
   vertex 0.10641799867153168 0.025845000520348549 0.0154600003734231
   vertex 0.10496500134468079 0.022249000146985054 0.012237999588251114
  endloop
 endfacet
 facet normal -0.71509971285422258 -0.16703614189810173 -0.67877192633137495
  outer loop
   vertex 0.09064900130033493 0.032193001359701157 0.0089389998465776443
   vertex 0.090669997036457062 0.03101000003516674 0.0092080002650618553
   vertex 0.090177997946739197 0.032010998576879501 0.0094799995422363281
  endloop
 endfacet
 facet normal -0.99532503109240378 0.09490802879214659 0.017903869740765875
  outer loop
   vertex 0.090177997946739197 0.032010998576879501 0.0094799995422363281
   vertex 0.090089999139308929 0.030881000682711601 0.010577999986708164
   vertex 0.090286001563072205 0.032735999673604965 0.011641000397503376
  endloop
 endfacet
 facet normal -0.762893991571167 -0.20869445130510184 -0.61191452313135586
  outer loop
   vertex 0.090177997946739197 0.032010998576879501 0.0094799995422363281
   vertex 0.090669997036457062 0.03101000003516674 0.0092080002650618553
   vertex 0.090244002640247345 0.030764000490307808 0.0098230000585317612
  endloop
 endfacet
 facet normal -0.97767307466401809 -0.10224461703345486 -0.18357940343264956
  outer loop
   vertex 0.090244002640247345 0.030764000490307808 0.0098230000585317612
   vertex 0.090089999139308929 0.030881000682711601 0.010577999986708164
   vertex 0.090177997946739197 0.032010998576879501 0.0094799995422363281
  endloop
 endfacet
 facet normal -0.85143432056870927 -0.26057291173858899 0.45514981646241942
  outer loop
   vertex 0.09170299768447876 0.033323999494314194 0.0149940000846982
   vertex 0.090791001915931702 0.033496998250484467 0.013387000188231468
   vertex 0.090089999139308929 0.030881000682711601 0.010577999986708164
  endloop
 endfacet
 facet normal -0.94852641216903522 -0.075961944256253688 0.30745313210723263
  outer loop
   vertex 0.090286001563072205 0.032735999673604965 0.011641000397503376
   vertex 0.090089999139308929 0.030881000682711601 0.010577999986708164
   vertex 0.090791001915931702 0.033496998250484467 0.013387000188231468
  endloop
 endfacet
 facet normal 0.91476241780491874 0.40395605384898015 -0.0054060642300124027
  outer loop
   vertex 0.10739800333976746 0.032120000571012497 0.014825999736785889
   vertex 0.10688599944114685 0.033264998346567154 0.013747000135481358
   vertex 0.10737600177526474 0.03218499943614006 0.015960000455379486
  endloop
 endfacet
 facet normal 0.93447535543015225 0.34828787285926044 -0.073833378040436368
  outer loop
   vertex 0.10739800333976746 0.032120000571012497 0.014825999736785889
   vertex 0.10713800042867661 0.03261600062251091 0.013875000178813934
   vertex 0.10688599944114685 0.033264998346567154 0.013747000135481358
  endloop
 endfacet
 facet normal 0.929823478593784 0.32821741719082903 -0.16643805366663103
  outer loop
   vertex 0.10688599944114685 0.033264998346567154 0.013747000135481358
   vertex 0.10713800042867661 0.03261600062251091 0.013875000178813934
   vertex 0.10670799762010574 0.03296399861574173 0.012159000150859356
  endloop
 endfacet
 facet normal 0.42129193589023251 0.87793897845708524 0.2274560503912571
  outer loop
   vertex 0.10737600177526474 0.03218499943614006 0.015960000455379486
   vertex 0.10637199878692627 0.032409001141786575 0.016954999417066574
   vertex 0.10745599865913391 0.032014999538660049 0.016467999666929245
  endloop
 endfacet
 facet normal 0.40087280004816961 0.39162555880451788 0.82820916432540725
  outer loop
   vertex 0.10268300026655197 0.031982999294996262 0.018942000344395638
   vertex 0.10793299973011017 0.030347999185323715 0.017173999920487404
   vertex 0.10637199878692627 0.032409001141786575 0.016954999417066574
  endloop
 endfacet
 facet normal 0.49726598436762393 0.45511657449767207 0.73864432875938513
  outer loop
   vertex 0.10793299973011017 0.030347999185323715 0.017173999920487404
   vertex 0.10745599865913391 0.032014999538660049 0.016467999666929245
   vertex 0.10637199878692627 0.032409001141786575 0.016954999417066574
  endloop
 endfacet
 facet normal 0.92931666979327066 0.36927049086749314 -0.0031355731255525961
  outer loop
   vertex 0.10737600177526474 0.03218499943614006 0.015960000455379486
   vertex 0.10767199844121933 0.031438998878002167 0.015831999480724335
   vertex 0.10739800333976746 0.032120000571012497 0.014825999736785889
  endloop
 endfacet
 facet normal 0.93483361329750436 0.35391822598305334 -0.028775071957173423
  outer loop
   vertex 0.10775099694728851 0.031230999156832695 0.016409000381827354
   vertex 0.10737600177526474 0.03218499943614006 0.015960000455379486
   vertex 0.10745599865913391 0.032014999538660049 0.016467999666929245
  endloop
 endfacet
 facet normal 0.92980731620229307 0.36800765850357764 0.0053589196115385613
  outer loop
   vertex 0.10775099694728851 0.031230999156832695 0.016409000381827354
   vertex 0.10767199844121933 0.031438998878002167 0.015831999480724335
   vertex 0.10737600177526474 0.03218499943614006 0.015960000455379486
  endloop
 endfacet
 facet normal 0.12868565439970581 0.60715801887974019 0.78409128452097232
  outer loop
   vertex 0.094543002545833588 0.030964000150561333 0.021067000925540924
   vertex 0.094780996441841125 0.030365999788045883 0.021491000428795815
   vertex 0.10268300026655197 0.031982999294996262 0.018942000344395638
  endloop
 endfacet
 facet normal 0.042941034805033758 0.82674407263299732 0.56093698923861146
  outer loop
   vertex 0.10268300026655197 0.031982999294996262 0.018942000344395638
   vertex 0.094759002327919006 0.032687000930309296 0.018510999158024788
   vertex 0.094543002545833588 0.030964000150561333 0.021067000925540924
  endloop
 endfacet
 facet normal 0.33558194965843835 0.061059001264175738 0.94003008112935538
  outer loop
   vertex 0.10793299973011017 0.030347999185323715 0.017173999920487404
   vertex 0.10268300026655197 0.031982999294996262 0.018942000344395638
   vertex 0.10398200154304504 0.029800999909639359 0.018619999289512634
  endloop
 endfacet
 facet normal 0.35723657266396841 0.07528687919057428 0.93097471339077997
  outer loop
   vertex 0.10398200154304504 0.029800999909639359 0.018619999289512634
   vertex 0.10268300026655197 0.031982999294996262 0.018942000344395638
   vertex 0.10207200050354004 0.029836999252438545 0.019349999725818634
  endloop
 endfacet
 facet normal 0.29261022419990357 0.073040726189209704 0.9534381516445809
  outer loop
   vertex 0.10268300026655197 0.031982999294996262 0.018942000344395638
   vertex 0.094780996441841125 0.030365999788045883 0.021491000428795815
   vertex 0.099815003573894501 0.029674999415874481 0.019998999312520027
  endloop
 endfacet
 facet normal 0.26777657967896351 0.10582929867198329 0.95765122195819896
  outer loop
   vertex 0.10207200050354004 0.029836999252438545 0.019349999725818634
   vertex 0.10268300026655197 0.031982999294996262 0.018942000344395638
   vertex 0.099815003573894501 0.029674999415874481 0.019998999312520027
  endloop
 endfacet
 facet normal -0.52329822823822703 0.72643979378811874 0.44547075136736858
  outer loop
   vertex 0.093446999788284302 0.031403999775648117 0.019061999395489693
   vertex 0.094543002545833588 0.030964000150561333 0.021067000925540924
   vertex 0.094759002327919006 0.032687000930309296 0.018510999158024788
  endloop
 endfacet
 facet normal -0.71881814228584917 0.48391469936763393 0.49912627866768644
  outer loop
   vertex 0.093446999788284302 0.031403999775648117 0.019061999395489693
   vertex 0.093629002571105957 0.030579999089241028 0.02012299932539463
   vertex 0.094543002545833588 0.030964000150561333 0.021067000925540924
  endloop
 endfacet
 facet normal -0.97567867817233367 0.057029184186534305 0.21165724440922454
  outer loop
   vertex 0.093629002571105957 0.030579999089241028 0.02012299932539463
   vertex 0.093446999788284302 0.031403999775648117 0.019061999395489693
   vertex 0.09348200261592865 0.029055999591946602 0.019856000319123268
  endloop
 endfacet
 facet normal -0.96242351653873592 -0.050999097482579657 0.26672095318736372
  outer loop
   vertex 0.093446999788284302 0.031403999775648117 0.019061999395489693
   vertex 0.093056999146938324 0.03221600130200386 0.017810000106692314
   vertex 0.093310996890068054 0.021423999220132828 0.016662999987602234
  endloop
 endfacet
 facet normal -0.99878430111942706 0.0017692338671434801 0.049262456789129418
  outer loop
   vertex 0.09348200261592865 0.029055999591946602 0.019856000319123268
   vertex 0.093446999788284302 0.031403999775648117 0.019061999395489693
   vertex 0.093310996890068054 0.021423999220132828 0.016662999987602234
  endloop
 endfacet
 facet normal -0.86188488096438431 -0.23920080029661248 0.44714363363741322
  outer loop
   vertex 0.092601001262664795 0.032953999936580658 0.016527000814676285
   vertex 0.09170299768447876 0.033323999494314194 0.0149940000846982
   vertex 0.090089999139308929 0.030881000682711601 0.010577999986708164
  endloop
 endfacet
 facet normal -0.92737091350193779 0.066939257982345512 0.36810640381736703
  outer loop
   vertex 0.093056999146938324 0.03221600130200386 0.017810000106692314
   vertex 0.092601001262664795 0.032953999936580658 0.016527000814676285
   vertex 0.090089999139308929 0.030881000682711601 0.010577999986708164
  endloop
 endfacet
 facet normal -0.91919854013151869 -0.062949240685933452 0.38873054538735324
  outer loop
   vertex 0.090089999139308929 0.030881000682711601 0.010577999986708164
   vertex 0.093310996890068054 0.021423999220132828 0.016662999987602234
   vertex 0.093056999146938324 0.03221600130200386 0.017810000106692314
  endloop
 endfacet
 facet normal 0.96843565464123116 0.12039722177890524 -0.21825877257863263
  outer loop
   vertex 0.10670799762010574 0.03296399861574173 0.012159000150859356
   vertex 0.10713800042867661 0.03261600062251091 0.013875000178813934
   vertex 0.10726200044155121 0.031847000122070312 0.014000999741256237
  endloop
 endfacet
 facet normal -0.76391132850063015 -0.20602281818544993 -0.61155055439049988
  outer loop
   vertex 0.090669997036457062 0.03101000003516674 0.0092080002650618553
   vertex 0.092543996870517731 0.020439999178051949 0.010428000241518021
   vertex 0.090244002640247345 0.030764000490307808 0.0098230000585317612
  endloop
 endfacet
 facet normal -0.23869665330802087 -0.15300420768664696 -0.95896486908005751
  outer loop
   vertex 0.090669997036457062 0.03101000003516674 0.0092080002650618553
   vertex 0.092298001050949097 0.030713999643921852 0.0088499998673796654
   vertex 0.092543996870517731 0.020439999178051949 0.010428000241518021
  endloop
 endfacet
 facet normal -0.44086627372507259 -0.14656520378138538 -0.88552558954120042
  outer loop
   vertex 0.092543996870517731 0.020439999178051949 0.010428000241518021
   vertex 0.092298001050949097 0.030713999643921852 0.0088499998673796654
   vertex 0.095646001398563385 0.029844999313354492 0.0073270001448690891
  endloop
 endfacet
 facet normal -0.37605531386580027 -0.17592639889196435 -0.90974298737951254
  outer loop
   vertex 0.092543996870517731 0.020439999178051949 0.010428000241518021
   vertex 0.095646001398563385 0.029844999313354492 0.0073270001448690891
   vertex 0.096230000257492065 0.019392000511288643 0.0091070001944899559
  endloop
 endfacet
 facet normal -0.50276963120737816 -0.17233310731612886 -0.84706788279237966
  outer loop
   vertex 0.096230000257492065 0.019392000511288643 0.0091070001944899559
   vertex 0.095646001398563385 0.029844999313354492 0.0073270001448690891
   vertex 0.097517997026443481 0.027667000889778137 0.0066590001806616783
  endloop
 endfacet
 facet normal -0.60510062905650253 -0.29304693031295342 -0.74025450039130458
  outer loop
   vertex 0.097517997026443481 0.027667000889778137 0.0066590001806616783
   vertex 0.095646001398563385 0.029844999313354492 0.0073270001448690891
   vertex 0.097166001796722412 0.029234999790787697 0.0063260002061724663
  endloop
 endfacet
 facet normal -0.30229082143266089 -0.45876980439049203 -0.83555402330254913
  outer loop
   vertex 0.096230000257492065 0.019392000511288643 0.0091070001944899559
   vertex 0.098338998854160309 0.018332000821828842 0.0089260004460811615
   vertex 0.095132999122142792 0.018828999251127243 0.0098130004480481148
  endloop
 endfacet
 facet normal -0.30477021858275788 -0.46438829493287731 -0.83153991208741918
  outer loop
   vertex 0.096230000257492065 0.019392000511288643 0.0091070001944899559
   vertex 0.097916997969150543 0.019096000120043755 0.0086540002375841141
   vertex 0.098338998854160309 0.018332000821828842 0.0089260004460811615
  endloop
 endfacet
 facet normal -0.38030411215296955 -0.19916525178304506 -0.90316221398026697
  outer loop
   vertex 0.092921003699302673 0.019574999809265137 0.010459999553859234
   vertex 0.092543996870517731 0.020439999178051949 0.010428000241518021
   vertex 0.096230000257492065 0.019392000511288643 0.0091070001944899559
  endloop
 endfacet
 facet normal -0.35845530631399219 -0.37410687144667382 -0.85530920848060776
  outer loop
   vertex 0.096230000257492065 0.019392000511288643 0.0091070001944899559
   vertex 0.095132999122142792 0.018828999251127243 0.0098130004480481148
   vertex 0.093956001102924347 0.019200000911951065 0.010143999941647053
  endloop
 endfacet
 facet normal -0.37547083550914068 -0.29626131234624647 -0.87820890822682252
  outer loop
   vertex 0.096230000257492065 0.019392000511288643 0.0091070001944899559
   vertex 0.093956001102924347 0.019200000911951065 0.010143999941647053
   vertex 0.092921003699302673 0.019574999809265137 0.010459999553859234
  endloop
 endfacet
 facet normal 0.9717177980304067 0.12373235435182101 -0.20113384965612674
  outer loop
   vertex 0.10726200044155121 0.031847000122070312 0.014000999741256237
   vertex 0.10713800042867661 0.03261600062251091 0.013875000178813934
   vertex 0.10739800333976746 0.032120000571012497 0.014825999736785889
  endloop
 endfacet
 facet normal 0.97595649298794751 0.090151624343221243 -0.19844799929186768
  outer loop
   vertex 0.10767199844121933 0.031438998878002167 0.015831999480724335
   vertex 0.1078369989991188 0.030432000756263733 0.016186000779271126
   vertex 0.10726200044155121 0.031847000122070312 0.014000999741256237
  endloop
 endfacet
 facet normal 0.975231973719207 0.10402960252370072 -0.19519333808944611
  outer loop
   vertex 0.10739800333976746 0.032120000571012497 0.014825999736785889
   vertex 0.10767199844121933 0.031438998878002167 0.015831999480724335
   vertex 0.10726200044155121 0.031847000122070312 0.014000999741256237
  endloop
 endfacet
 facet normal 0.89958872049319294 -0.21843272884004561 -0.37818947226609967
  outer loop
   vertex 0.10726200044155121 0.031847000122070312 0.014000999741256237
   vertex 0.1078369989991188 0.030432000756263733 0.016186000779271126
   vertex 0.10641799867153168 0.025845000520348549 0.0154600003734231
  endloop
 endfacet
 facet normal 0.54326469560816693 -0.35655862999045768 -0.7600851359453713
  outer loop
   vertex 0.10391300171613693 0.020452000200748444 0.0085119996219873428
   vertex 0.10252299904823303 0.019674999639391899 0.0078830001875758171
   vertex 0.10442499816417694 0.027898000553250313 0.005384999793022871
  endloop
 endfacet
 facet normal -0.20304116279486892 -0.42603074696004073 -0.8816303584017382
  outer loop
   vertex 0.098338998854160309 0.018332000821828842 0.0089260004460811615
   vertex 0.097916997969150543 0.019096000120043755 0.0086540002375841141
   vertex 0.099615998566150665 0.018934000283479691 0.0083410004153847694
  endloop
 endfacet
 facet normal -0.061116252489737642 -0.62590329675831047 -0.77750232590564572
  outer loop
   vertex 0.099615998566150665 0.018934000283479691 0.0083410004153847694
   vertex 0.1008789986371994 0.019037999212741852 0.008158000186085701
   vertex 0.098338998854160309 0.018332000821828842 0.0089260004460811615
  endloop
 endfacet
 facet normal -0.1022905895917951 -0.37733399138317425 -0.92041061175314864
  outer loop
   vertex 0.1008789986371994 0.019037999212741852 0.008158000186085701
   vertex 0.099615998566150665 0.018934000283479691 0.0083410004153847694
   vertex 0.10179799795150757 0.019666999578475952 0.0077979997731745243
  endloop
 endfacet
 facet normal 0.095980382894618951 -0.64524268317669364 -0.75792456478619519
  outer loop
   vertex 0.10144899785518646 0.018766999244689941 0.0085199996829032898
   vertex 0.10179799795150757 0.019666999578475952 0.0077979997731745243
   vertex 0.10252299904823303 0.019674999639391899 0.0078830001875758171
  endloop
 endfacet
 facet normal 0.15835174257118931 -0.654489733615641 -0.73930231584676842
  outer loop
   vertex 0.10144899785518646 0.018766999244689941 0.0085199996829032898
   vertex 0.1008789986371994 0.019037999212741852 0.008158000186085701
   vertex 0.10179799795150757 0.019666999578475952 0.0077979997731745243
  endloop
 endfacet
 facet normal 0.046686629156052158 -0.61010269722480415 -0.79094567291127171
  outer loop
   vertex 0.10228099673986435 0.019252000376582146 0.0081949997693300247
   vertex 0.10144899785518646 0.018766999244689941 0.0085199996829032898
   vertex 0.10252299904823303 0.019674999639391899 0.0078830001875758171
  endloop
 endfacet
 facet normal 0.58386660364639476 -0.6343723708749599 -0.50662755966973028
  outer loop
   vertex 0.10296499729156494 0.019620999693870544 0.0084600001573562622
   vertex 0.10252299904823303 0.019674999639391899 0.0078830001875758171
   vertex 0.10391300171613693 0.020452000200748444 0.0085119996219873428
  endloop
 endfacet
 facet normal 0.55326260805965166 -0.67577663529696341 -0.48705895506575708
  outer loop
   vertex 0.10296499729156494 0.019620999693870544 0.0084600001573562622
   vertex 0.10228099673986435 0.019252000376582146 0.0081949997693300247
   vertex 0.10252299904823303 0.019674999639391899 0.0078830001875758171
  endloop
 endfacet
 facet normal 0.59679777863742789 -0.65151921333210716 -0.46835363356393855
  outer loop
   vertex 0.10353100299835205 0.019953999668359756 0.0087179997935891151
   vertex 0.10296499729156494 0.019620999693870544 0.0084600001573562622
   vertex 0.10391300171613693 0.020452000200748444 0.0085119996219873428
  endloop
 endfacet
 facet normal 0.79800275135125565 -0.60217397393417882 0.024044000335736924
  outer loop
   vertex 0.10397700220346451 0.020566999912261963 0.0092679997906088829
   vertex 0.10353100299835205 0.019953999668359756 0.0087179997935891151
   vertex 0.10391300171613693 0.020452000200748444 0.0085119996219873428
  endloop
 endfacet
 facet normal 0.85795975257854362 -0.51368738037363082 0.0055080123675402418
  outer loop
   vertex 0.10397700220346451 0.020566999912261963 0.0092679997906088829
   vertex 0.10391300171613693 0.020452000200748444 0.0085119996219873428
   vertex 0.10496500134468079 0.022249000146985054 0.012237999588251114
  endloop
 endfacet
 facet normal 0.42677263452034597 -0.46912915039124747 0.7731642507758294
  outer loop
   vertex 0.10641799867153168 0.025845000520348549 0.0154600003734231
   vertex 0.10682400315999985 0.029438000172376633 0.017416000366210938
   vertex 0.10053800046443939 0.02057499997317791 0.015507999807596207
  endloop
 endfacet
 facet normal 0.42127598316834658 -0.46293507104221254 0.77988311047533543
  outer loop
   vertex 0.10053800046443939 0.02057499997317791 0.015507999807596207
   vertex 0.1044749990105629 0.021624000743031502 0.014004000462591648
   vertex 0.10641799867153168 0.025845000520348549 0.0154600003734231
  endloop
 endfacet
 facet normal 0.95061642213265118 -0.30908137980621325 -0.028233289372735369
  outer loop
   vertex 0.10641799867153168 0.025845000520348549 0.0154600003734231
   vertex 0.10793299973011017 0.030347999185323715 0.017173999920487404
   vertex 0.10754899680614471 0.029177000746130943 0.01706399954855442
  endloop
 endfacet
 facet normal 0.23438945424257004 -0.4851109404861767 0.84245412881680815
  outer loop
   vertex 0.10754899680614471 0.029177000746130943 0.01706399954855442
   vertex 0.10682400315999985 0.029438000172376633 0.017416000366210938
   vertex 0.10641799867153168 0.025845000520348549 0.0154600003734231
  endloop
 endfacet
 facet normal 0.95390361500716125 -0.27669906333682148 -0.11621325924693468
  outer loop
   vertex 0.1078369989991188 0.030432000756263733 0.016186000779271126
   vertex 0.10793299973011017 0.030347999185323715 0.017173999920487404
   vertex 0.10641799867153168 0.025845000520348549 0.0154600003734231
  endloop
 endfacet
 facet normal 0.89229682577017155 -0.44216268769681233 0.091096280545407013
  outer loop
   vertex 0.10641799867153168 0.025845000520348549 0.0154600003734231
   vertex 0.1044749990105629 0.021624000743031502 0.014004000462591648
   vertex 0.10496500134468079 0.022249000146985054 0.012237999588251114
  endloop
 endfacet
 facet normal 0.67668714641579142 -0.71410226451989967 0.17931107518277961
  outer loop
   vertex 0.1036669984459877 0.020390000194311142 0.0097329998388886452
   vertex 0.10397700220346451 0.020566999912261963 0.0092679997906088829
   vertex 0.10496500134468079 0.022249000146985054 0.012237999588251114
  endloop
 endfacet
 facet normal 0.74704431948596173 -0.66257513455443173 -0.054027546621450352
  outer loop
   vertex 0.10369200259447098 0.020811999216675758 0.012258999980986118
   vertex 0.10496500134468079 0.022249000146985054 0.012237999588251114
   vertex 0.10409899801015854 0.021200999617576599 0.013116000220179558
  endloop
 endfacet
 facet normal 0.72637072005435344 -0.67594523469708756 0.12443318182068336
  outer loop
   vertex 0.10496500134468079 0.022249000146985054 0.012237999588251114
   vertex 0.1039000004529953 0.020904999226331711 0.011153999716043472
   vertex 0.10378599911928177 0.020654000341892242 0.010456000454723835
  endloop
 endfacet
 facet normal 0.72331776795027591 -0.67842139905107468 0.12866938982140724
  outer loop
   vertex 0.10496500134468079 0.022249000146985054 0.012237999588251114
   vertex 0.10378599911928177 0.020654000341892242 0.010456000454723835
   vertex 0.1036669984459877 0.020390000194311142 0.0097329998388886452
  endloop
 endfacet
 facet normal 0.74632778055482318 -0.65988080481591316 0.086903207119267772
  outer loop
   vertex 0.10496500134468079 0.022249000146985054 0.012237999588251114
   vertex 0.10369200259447098 0.020811999216675758 0.012258999980986118
   vertex 0.10379599779844284 0.020856000483036041 0.011699999682605267
  endloop
 endfacet
 facet normal 0.74729972747695894 -0.65925989112735461 0.08318361174901806
  outer loop
   vertex 0.1039000004529953 0.020904999226331711 0.011153999716043472
   vertex 0.10496500134468079 0.022249000146985054 0.012237999588251114
   vertex 0.10379599779844284 0.020856000483036041 0.011699999682605267
  endloop
 endfacet
 facet normal 0.76402804675400049 -0.64497781884280392 -0.016271354401085944
  outer loop
   vertex 0.10409899801015854 0.021200999617576599 0.013116000220179558
   vertex 0.10496500134468079 0.022249000146985054 0.012237999588251114
   vertex 0.1044749990105629 0.021624000743031502 0.014004000462591648
  endloop
 endfacet
 facet normal -0.97309264320986588 -0.22906786694589054 0.024872073972555264
  outer loop
   vertex 0.092543996870517731 0.020439999178051949 0.010428000241518021
   vertex 0.092143997550010681 0.022444000467658043 0.013234999962151051
   vertex 0.090089999139308929 0.030881000682711601 0.010577999986708164
  endloop
 endfacet
 facet normal -0.85042756275061826 0.047476309505785394 0.52394557021674892
  outer loop
   vertex 0.090089999139308929 0.030881000682711601 0.010577999986708164
   vertex 0.092840999364852905 0.020961999893188477 0.015941999852657318
   vertex 0.093310996890068054 0.021423999220132828 0.016662999987602234
  endloop
 endfacet
 facet normal -0.97082233995195255 -0.19046547683941145 0.14569449674765134
  outer loop
   vertex 0.090089999139308929 0.030881000682711601 0.010577999986708164
   vertex 0.092143997550010681 0.022444000467658043 0.013234999962151051
   vertex 0.092840999364852905 0.020961999893188477 0.015941999852657318
  endloop
 endfacet
 facet normal -0.96122153775649755 -0.22360143456703185 -0.16141732810513135
  outer loop
   vertex 0.090244002640247345 0.030764000490307808 0.0098230000585317612
   vertex 0.092543996870517731 0.020439999178051949 0.010428000241518021
   vertex 0.090089999139308929 0.030881000682711601 0.010577999986708164
  endloop
 endfacet
 facet normal 0.92680564990882663 0.33612867851181771 0.16747775607219154
  outer loop
   vertex 0.10793299973011017 0.030347999185323715 0.017173999920487404
   vertex 0.10775099694728851 0.031230999156832695 0.016409000381827354
   vertex 0.10745599865913391 0.032014999538660049 0.016467999666929245
  endloop
 endfacet
 facet normal 0.35798934101688468 -0.14915034115123768 0.92173630038789622
  outer loop
   vertex 0.10583800077438354 0.029627000913023949 0.017870999872684479
   vertex 0.10793299973011017 0.030347999185323715 0.017173999920487404
   vertex 0.10398200154304504 0.029800999909639359 0.018619999289512634
  endloop
 endfacet
 facet normal 0.37450536566012743 -0.2166455583059631 0.90155999975490908
  outer loop
   vertex 0.10682400315999985 0.029438000172376633 0.017416000366210938
   vertex 0.10793299973011017 0.030347999185323715 0.017173999920487404
   vertex 0.10583800077438354 0.029627000913023949 0.017870999872684479
  endloop
 endfacet
 facet normal 0.36660180363940281 -0.20545836473161852 0.90740838541978774
  outer loop
   vertex 0.10754899680614471 0.029177000746130943 0.01706399954855442
   vertex 0.10793299973011017 0.030347999185323715 0.017173999920487404
   vertex 0.10682400315999985 0.029438000172376633 0.017416000366210938
  endloop
 endfacet
 facet normal 0.98786504305024381 0.13003553612772653 -0.084931831861291926
  outer loop
   vertex 0.10793299973011017 0.030347999185323715 0.017173999920487404
   vertex 0.1078369989991188 0.030432000756263733 0.016186000779271126
   vertex 0.10775099694728851 0.031230999156832695 0.016409000381827354
  endloop
 endfacet
 facet normal 0.98748540220270542 0.13085838803608948 -0.088026488724458285
  outer loop
   vertex 0.1078369989991188 0.030432000756263733 0.016186000779271126
   vertex 0.10767199844121933 0.031438998878002167 0.015831999480724335
   vertex 0.10775099694728851 0.031230999156832695 0.016409000381827354
  endloop
 endfacet
 facet normal -0.28765532790500054 -0.26532951290222551 0.92024706568993431
  outer loop
   vertex 0.094780996441841125 0.030365999788045883 0.021491000428795815
   vertex 0.094241000711917877 0.030177999287843704 0.021268000826239586
   vertex 0.094812996685504913 0.028996000066399574 0.021105999127030373
  endloop
 endfacet
 facet normal -0.46328858839428 0.38244348054450372 0.79943771993360513
  outer loop
   vertex 0.094543002545833588 0.030964000150561333 0.021067000925540924
   vertex 0.094241000711917877 0.030177999287843704 0.021268000826239586
   vertex 0.094780996441841125 0.030365999788045883 0.021491000428795815
  endloop
 endfacet
 facet normal 0.20605708202494849 -0.41364871630748279 0.88681182809237236
  outer loop
   vertex 0.099815003573894501 0.029674999415874481 0.019998999312520027
   vertex 0.094780996441841125 0.030365999788045883 0.021491000428795815
   vertex 0.097646996378898621 0.029458999633789062 0.020401999354362488
  endloop
 endfacet
 facet normal 0.26434902852568593 -0.27468395204545393 0.92448272975011103
  outer loop
   vertex 0.097646996378898621 0.029458999633789062 0.020401999354362488
   vertex 0.094780996441841125 0.030365999788045883 0.021491000428795815
   vertex 0.096008002758026123 0.029201000928878784 0.02079400047659874
  endloop
 endfacet
 facet normal 0.28481582737332123 -0.25316615206251797 0.92454683165727658
  outer loop
   vertex 0.096008002758026123 0.029201000928878784 0.02079400047659874
   vertex 0.094780996441841125 0.030365999788045883 0.021491000428795815
   vertex 0.094812996685504913 0.028996000066399574 0.021105999127030373
  endloop
 endfacet
 facet normal -0.72312764093670034 0.46450872725224801 0.51119277891987014
  outer loop
   vertex 0.093629002571105957 0.030579999089241028 0.02012299932539463
   vertex 0.093832001090049744 0.029975999146699905 0.020958999171853065
   vertex 0.094543002545833588 0.030964000150561333 0.021067000925540924
  endloop
 endfacet
 facet normal -0.6700005708351775 0.41486112751456278 0.615621214674967
  outer loop
   vertex 0.094543002545833588 0.030964000150561333 0.021067000925540924
   vertex 0.093832001090049744 0.029975999146699905 0.020958999171853065
   vertex 0.094241000711917877 0.030177999287843704 0.021268000826239586
  endloop
 endfacet
 facet normal 0.30912468833844248 -0.40555116265736518 0.86021519489423115
  outer loop
   vertex 0.10583800077438354 0.029627000913023949 0.017870999872684479
   vertex 0.10398200154304504 0.029800999909639359 0.018619999289512634
   vertex 0.10053800046443939 0.02057499997317791 0.015507999807596207
  endloop
 endfacet
 facet normal 0.31927207395368623 -0.40773609524549498 0.85546281007842095
  outer loop
   vertex 0.10053800046443939 0.02057499997317791 0.015507999807596207
   vertex 0.10398200154304504 0.029800999909639359 0.018619999289512634
   vertex 0.10207200050354004 0.029836999252438545 0.019349999725818634
  endloop
 endfacet
 facet normal 0.27928979546164934 -0.40701068531071655 0.869677820916396
  outer loop
   vertex 0.10207200050354004 0.029836999252438545 0.019349999725818634
   vertex 0.099815003573894501 0.029674999415874481 0.019998999312520027
   vertex 0.10053800046443939 0.02057499997317791 0.015507999807596207
  endloop
 endfacet
 facet normal 0.20612901513964979 -0.41983409489392509 0.88388356805755641
  outer loop
   vertex 0.10053800046443939 0.02057499997317791 0.015507999807596207
   vertex 0.099815003573894501 0.029674999415874481 0.019998999312520027
   vertex 0.097646996378898621 0.029458999633789062 0.020401999354362488
  endloop
 endfacet
 facet normal -0.96408421232988462 0.039505344569314385 0.26264226485226216
  outer loop
   vertex 0.093832001090049744 0.029975999146699905 0.020958999171853065
   vertex 0.093629002571105957 0.030579999089241028 0.02012299932539463
   vertex 0.093707002699375153 0.028448000550270081 0.020729999989271164
  endloop
 endfacet
 facet normal -0.95968625680794795 0.043930321951569096 0.27761919117233358
  outer loop
   vertex 0.093707002699375153 0.028448000550270081 0.020729999989271164
   vertex 0.093629002571105957 0.030579999089241028 0.02012299932539463
   vertex 0.09348200261592865 0.029055999591946602 0.019856000319123268
  endloop
 endfacet
 facet normal -0.99293436689217862 -0.024467986564058131 0.11611485984976105
  outer loop
   vertex 0.093396998941898346 0.021789999678730965 0.017597999423742294
   vertex 0.093608997762203217 0.026763999834656715 0.020459000021219254
   vertex 0.09348200261592865 0.029055999591946602 0.019856000319123268
  endloop
 endfacet
 facet normal -0.99490372812425254 -0.019125929251607096 0.098998841380723956
  outer loop
   vertex 0.093396998941898346 0.021789999678730965 0.017597999423742294
   vertex 0.09348200261592865 0.029055999591946602 0.019856000319123268
   vertex 0.093310996890068054 0.021423999220132828 0.016662999987602234
  endloop
 endfacet
 facet normal -0.96582838685998418 0.01456562673394185 0.2587728147493244
  outer loop
   vertex 0.093707002699375153 0.028448000550270081 0.020729999989271164
   vertex 0.09348200261592865 0.029055999591946602 0.019856000319123268
   vertex 0.093608997762203217 0.026763999834656715 0.020459000021219254
  endloop
 endfacet
 facet normal -0.96790722536946683 -0.19069767528240092 0.16367650936975697
  outer loop
   vertex 0.093396998941898346 0.021789999678730965 0.017597999423742294
   vertex 0.093310996890068054 0.021423999220132828 0.016662999987602234
   vertex 0.093584999442100525 0.019623000174760818 0.016185000538825989
  endloop
 endfacet
 facet normal -0.6191849778926849 -0.28808083568626147 0.73049257029920611
  outer loop
   vertex 0.093199998140335083 0.020273000001907349 0.01611500047147274
   vertex 0.093584999442100525 0.019623000174760818 0.016185000538825989
   vertex 0.093310996890068054 0.021423999220132828 0.016662999987602234
  endloop
 endfacet
 facet normal -0.74211128884007249 -0.22844955409525292 0.63014413923308576
  outer loop
   vertex 0.092840999364852905 0.020961999893188477 0.015941999852657318
   vertex 0.093199998140335083 0.020273000001907349 0.01611500047147274
   vertex 0.093310996890068054 0.021423999220132828 0.016662999987602234
  endloop
 endfacet
 facet normal -0.90826484750480163 -0.40035940544643772 -0.12152083466490125
  outer loop
   vertex 0.092543996870517731 0.020439999178051949 0.010428000241518021
   vertex 0.092921003699302673 0.019574999809265137 0.010459999553859234
   vertex 0.092623002827167511 0.020108999684453011 0.010928000323474407
  endloop
 endfacet
 facet normal -0.97688587135877081 -0.21335875025112155 0.013116326882727219
  outer loop
   vertex 0.092143997550010681 0.022444000467658043 0.013234999962151051
   vertex 0.092543996870517731 0.020439999178051949 0.010428000241518021
   vertex 0.092623002827167511 0.020108999684453011 0.010928000323474407
  endloop
 endfacet
 facet normal -0.37439333654247037 -0.84282657119531812 -0.38661738248524175
  outer loop
   vertex 0.095132999122142792 0.018828999251127243 0.0098130004480481148
   vertex 0.094089999794960022 0.018918000161647797 0.010629000142216682
   vertex 0.093956001102924347 0.019200000911951065 0.010143999941647053
  endloop
 endfacet
 facet normal -0.18793165169620721 -0.97298614994583277 -0.13408820344952341
  outer loop
   vertex 0.098338998854160309 0.018332000821828842 0.0089260004460811615
   vertex 0.094089999794960022 0.018918000161647797 0.010629000142216682
   vertex 0.095132999122142792 0.018828999251127243 0.0098130004480481148
  endloop
 endfacet
 facet normal 0.02723687842847387 -0.77918594677913355 -0.62620077674447028
  outer loop
   vertex 0.1008789986371994 0.019037999212741852 0.008158000186085701
   vertex 0.10144899785518646 0.018766999244689941 0.0085199996829032898
   vertex 0.098338998854160309 0.018332000821828842 0.0089260004460811615
  endloop
 endfacet
 facet normal 0.10877061338548638 -0.97201036744619429 -0.20824216489668784
  outer loop
   vertex 0.099587000906467438 0.017883999273180962 0.011668999679386616
   vertex 0.098338998854160309 0.018332000821828842 0.0089260004460811615
   vertex 0.10144899785518646 0.018766999244689941 0.0085199996829032898
  endloop
 endfacet
 facet normal -0.16892678498319991 -0.98208178133762758 -0.083541104134143895
  outer loop
   vertex 0.098338998854160309 0.018332000821828842 0.0089260004460811615
   vertex 0.099587000906467438 0.017883999273180962 0.011668999679386616
   vertex 0.094089999794960022 0.018918000161647797 0.010629000142216682
  endloop
 endfacet
 facet normal -0.8511949678760572 -0.52209320945260207 0.053719710590801377
  outer loop
   vertex 0.092921003699302673 0.019574999809265137 0.010459999553859234
   vertex 0.093097999691963196 0.019334999844431877 0.010932000353932381
   vertex 0.092623002827167511 0.020108999684453011 0.010928000323474407
  endloop
 endfacet
 facet normal -0.44195185367624307 -0.85564674066788105 -0.26934590068639336
  outer loop
   vertex 0.094089999794960022 0.018918000161647797 0.010629000142216682
   vertex 0.093097999691963196 0.019334999844431877 0.010932000353932381
   vertex 0.092921003699302673 0.019574999809265137 0.010459999553859234
  endloop
 endfacet
 facet normal -0.41416883448905895 -0.83192040070585294 -0.36928664127935562
  outer loop
   vertex 0.093956001102924347 0.019200000911951065 0.010143999941647053
   vertex 0.094089999794960022 0.018918000161647797 0.010629000142216682
   vertex 0.092921003699302673 0.019574999809265137 0.010459999553859234
  endloop
 endfacet
 facet normal 0.48876328679639913 -0.87105846669733034 -0.048657960036121571
  outer loop
   vertex 0.10144899785518646 0.018766999244689941 0.0085199996829032898
   vertex 0.10228099673986435 0.019252000376582146 0.0081949997693300247
   vertex 0.10296499729156494 0.019620999693870544 0.0084600001573562622
  endloop
 endfacet
 facet normal 0.49167558164806197 -0.86951402191320115 0.046909360551696699
  outer loop
   vertex 0.10296499729156494 0.019620999693870544 0.0084600001573562622
   vertex 0.099587000906467438 0.017883999273180962 0.011668999679386616
   vertex 0.10144899785518646 0.018766999244689941 0.0085199996829032898
  endloop
 endfacet
 facet normal 0.49093369721204455 -0.86998844874699754 0.045871603291199922
  outer loop
   vertex 0.10353100299835205 0.019953999668359756 0.0087179997935891151
   vertex 0.099587000906467438 0.017883999273180962 0.011668999679386616
   vertex 0.10296499729156494 0.019620999693870544 0.0084600001573562622
  endloop
 endfacet
 facet normal 0.71256711090980995 -0.67853516320750817 0.17843246548934674
  outer loop
   vertex 0.10397700220346451 0.020566999912261963 0.0092679997906088829
   vertex 0.10342299938201904 0.019985999912023544 0.0092709995806217194
   vertex 0.10353100299835205 0.019953999668359756 0.0087179997935891151
  endloop
 endfacet
 facet normal 0.54730659574437512 -0.82254991151296586 0.15448991334295958
  outer loop
   vertex 0.099587000906467438 0.017883999273180962 0.011668999679386616
   vertex 0.10353100299835205 0.019953999668359756 0.0087179997935891151
   vertex 0.10342299938201904 0.019985999912023544 0.0092709995806217194
  endloop
 endfacet
 facet normal 0.70731199166959424 -0.67333415825353105 0.21524604007832668
  outer loop
   vertex 0.10397700220346451 0.020566999912261963 0.0092679997906088829
   vertex 0.1036669984459877 0.020390000194311142 0.0097329998388886452
   vertex 0.10342299938201904 0.019985999912023544 0.0092709995806217194
  endloop
 endfacet
 facet normal 0.39326596846371215 -0.66560780116432561 0.63427764667966213
  outer loop
   vertex 0.10053800046443939 0.02057499997317791 0.015507999807596207
   vertex 0.10028699785470963 0.019793000072240829 0.01484300009906292
   vertex 0.10116700083017349 0.020089000463485718 0.014608000405132771
  endloop
 endfacet
 facet normal 0.13741232312762616 -0.607175005255845 0.78259591517285176
  outer loop
   vertex 0.10053800046443939 0.02057499997317791 0.015507999807596207
   vertex 0.096879996359348297 0.019286999478936195 0.015150999650359154
   vertex 0.098590999841690063 0.019525999203324318 0.015035999938845634
  endloop
 endfacet
 facet normal 0.27204059008872256 -0.39488546346673747 0.87753027758980462
  outer loop
   vertex 0.097646996378898621 0.029458999633789062 0.020401999354362488
   vertex 0.096008002758026123 0.029201000928878784 0.02079400047659874
   vertex 0.10053800046443939 0.02057499997317791 0.015507999807596207
  endloop
 endfacet
 facet normal 0.1647710906955831 -0.49704828297317211 0.85193514545674731
  outer loop
   vertex 0.093396998941898346 0.021789999678730965 0.017597999423742294
   vertex 0.10053800046443939 0.02057499997317791 0.015507999807596207
   vertex 0.093608997762203217 0.026763999834656715 0.020459000021219254
  endloop
 endfacet
 facet normal 0.41839380794132669 -0.6239108418636754 0.66006202957094573
  outer loop
   vertex 0.10206600278615952 0.020363999530673027 0.014340000227093697
   vertex 0.1044749990105629 0.021624000743031502 0.014004000462591648
   vertex 0.10053800046443939 0.02057499997317791 0.015507999807596207
  endloop
 endfacet
 facet normal 0.39277642118202399 -0.66601382915327256 0.6341547621362128
  outer loop
   vertex 0.10116700083017349 0.020089000463485718 0.014608000405132771
   vertex 0.10206600278615952 0.020363999530673027 0.014340000227093697
   vertex 0.10053800046443939 0.02057499997317791 0.015507999807596207
  endloop
 endfacet
 facet normal 0.18725308401496268 -0.67054754391842442 0.71784557801232862
  outer loop
   vertex 0.098590999841690063 0.019525999203324318 0.015035999938845634
   vertex 0.10028699785470963 0.019793000072240829 0.01484300009906292
   vertex 0.10053800046443939 0.02057499997317791 0.015507999807596207
  endloop
 endfacet
 facet normal 0.17698077773278692 -0.71518260380337029 0.67615948379811208
  outer loop
   vertex 0.095700003206729889 0.019166000187397003 0.015283999964594841
   vertex 0.10053800046443939 0.02057499997317791 0.015507999807596207
   vertex 0.094793997704982758 0.019770000129938126 0.016160000115633011
  endloop
 endfacet
 facet normal 0.15053339596951329 -0.63706028154250893 0.75597215185406463
  outer loop
   vertex 0.095700003206729889 0.019166000187397003 0.015283999964594841
   vertex 0.096879996359348297 0.019286999478936195 0.015150999650359154
   vertex 0.10053800046443939 0.02057499997317791 0.015507999807596207
  endloop
 endfacet
 facet normal 0.31661426324725117 -0.40881870727387237 0.8559338016992436
  outer loop
   vertex 0.10053800046443939 0.02057499997317791 0.015507999807596207
   vertex 0.10682400315999985 0.029438000172376633 0.017416000366210938
   vertex 0.10583800077438354 0.029627000913023949 0.017870999872684479
  endloop
 endfacet
 facet normal 0.26943947911843219 -0.39936121706138222 0.87630644491504206
  outer loop
   vertex 0.10053800046443939 0.02057499997317791 0.015507999807596207
   vertex 0.094812996685504913 0.028996000066399574 0.021105999127030373
   vertex 0.093608997762203217 0.026763999834656715 0.020459000021219254
  endloop
 endfacet
 facet normal 0.29427173526734296 -0.38224407183257536 0.8759529755481168
  outer loop
   vertex 0.10053800046443939 0.02057499997317791 0.015507999807596207
   vertex 0.096008002758026123 0.029201000928878784 0.02079400047659874
   vertex 0.094812996685504913 0.028996000066399574 0.021105999127030373
  endloop
 endfacet
 facet normal 0.16604123354246392 -0.49310077059389257 0.85398005761458284
  outer loop
   vertex 0.093396998941898346 0.021789999678730965 0.017597999423742294
   vertex 0.094793997704982758 0.019770000129938126 0.016160000115633011
   vertex 0.10053800046443939 0.02057499997317791 0.015507999807596207
  endloop
 endfacet
 facet normal 0.43717436950980398 -0.67836521885393819 0.59050757869222459
  outer loop
   vertex 0.1044749990105629 0.021624000743031502 0.014004000462591648
   vertex 0.10206600278615952 0.020363999530673027 0.014340000227093697
   vertex 0.10263500362634659 0.020526999607682228 0.01410599984228611
  endloop
 endfacet
 facet normal 0.57108020714687913 -0.80830268360744084 0.14322768125640706
  outer loop
   vertex 0.10354000329971313 0.020891999825835228 0.013601000420749187
   vertex 0.10409899801015854 0.021200999617576599 0.013116000220179558
   vertex 0.1044749990105629 0.021624000743031502 0.014004000462591648
  endloop
 endfacet
 facet normal 0.49943138280359051 -0.8088312945431273 0.31041944339648297
  outer loop
   vertex 0.10263500362634659 0.020526999607682228 0.01410599984228611
   vertex 0.10354000329971313 0.020891999825835228 0.013601000420749187
   vertex 0.1044749990105629 0.021624000743031502 0.014004000462591648
  endloop
 endfacet
 facet normal 0.57863154924530458 -0.79217525222608765 0.19402035970101941
  outer loop
   vertex 0.10378599911928177 0.020654000341892242 0.010456000454723835
   vertex 0.099587000906467438 0.017883999273180962 0.011668999679386616
   vertex 0.1036669984459877 0.020390000194311142 0.0097329998388886452
  endloop
 endfacet
 facet normal 0.60167548835870632 -0.73114186486457189 0.32158697136337522
  outer loop
   vertex 0.099587000906467438 0.017883999273180962 0.011668999679386616
   vertex 0.10342299938201904 0.019985999912023544 0.0092709995806217194
   vertex 0.1036669984459877 0.020390000194311142 0.0097329998388886452
  endloop
 endfacet
 facet normal 0.55333674652543319 -0.82541007681682743 0.11187783531105497
  outer loop
   vertex 0.10369200259447098 0.020811999216675758 0.012258999980986118
   vertex 0.10409899801015854 0.021200999617576599 0.013116000220179558
   vertex 0.10354000329971313 0.020891999825835228 0.013601000420749187
  endloop
 endfacet
 facet normal 0.77544093930298919 -0.62421328338592841 0.095126896813974515
  outer loop
   vertex 0.10379599779844284 0.020856000483036041 0.011699999682605267
   vertex 0.10369200259447098 0.020811999216675758 0.012258999980986118
   vertex 0.10378599911928177 0.020654000341892242 0.010456000454723835
  endloop
 endfacet
 facet normal 0.41453393001646249 -0.90442659810722281 0.10086698915553446
  outer loop
   vertex 0.10369200259447098 0.020811999216675758 0.012258999980986118
   vertex 0.10354000329971313 0.020891999825835228 0.013601000420749187
   vertex 0.10378599911928177 0.020654000341892242 0.010456000454723835
  endloop
 endfacet
 facet normal 0.56873883609206133 -0.81563213385295974 0.10620903232359701
  outer loop
   vertex 0.10354000329971313 0.020891999825835228 0.013601000420749187
   vertex 0.099587000906467438 0.017883999273180962 0.011668999679386616
   vertex 0.10378599911928177 0.020654000341892242 0.010456000454723835
  endloop
 endfacet
 facet normal 0.78221822546761788 -0.6159142029443585 0.093724822526939672
  outer loop
   vertex 0.10378599911928177 0.020654000341892242 0.010456000454723835
   vertex 0.1039000004529953 0.020904999226331711 0.011153999716043472
   vertex 0.10379599779844284 0.020856000483036041 0.011699999682605267
  endloop
 endfacet
 facet normal -0.97579405776276051 -0.17679586266244557 0.12872132605100117
  outer loop
   vertex 0.092776000499725342 0.019903000444173813 0.014535999856889248
   vertex 0.092781998217105865 0.020372999832034111 0.01522700022906065
   vertex 0.092143997550010681 0.022444000467658043 0.013234999962151051
  endloop
 endfacet
 facet normal -0.87993325008635004 -0.41282884280023413 0.23513787858338073
  outer loop
   vertex 0.092143997550010681 0.022444000467658043 0.013234999962151051
   vertex 0.092623002827167511 0.020108999684453011 0.010928000323474407
   vertex 0.092886999249458313 0.019813999533653259 0.011397999711334705
  endloop
 endfacet
 facet normal -0.97284166749001622 -0.21508121699618102 -0.085552089925882355
  outer loop
   vertex 0.092143997550010681 0.022444000467658043 0.013234999962151051
   vertex 0.092886999249458313 0.019813999533653259 0.011397999711334705
   vertex 0.092550002038478851 0.02064099907875061 0.013151000253856182
  endloop
 endfacet
 facet normal -0.97521104780409917 -0.12443060155185938 0.18297660407350799
  outer loop
   vertex 0.092143997550010681 0.022444000467658043 0.013234999962151051
   vertex 0.092781998217105865 0.020372999832034111 0.01522700022906065
   vertex 0.092840999364852905 0.020961999893188477 0.015941999852657318
  endloop
 endfacet
 facet normal -0.97349423701870397 -0.22181149888537022 0.055755084553758015
  outer loop
   vertex 0.092143997550010681 0.022444000467658043 0.013234999962151051
   vertex 0.092550002038478851 0.02064099907875061 0.013151000253856182
   vertex 0.09267599880695343 0.02026900090277195 0.013871000148355961
  endloop
 endfacet
 facet normal -0.97242188178943323 -0.23251277976379683 0.018261737694139059
  outer loop
   vertex 0.092143997550010681 0.022444000467658043 0.013234999962151051
   vertex 0.09267599880695343 0.02026900090277195 0.013871000148355961
   vertex 0.092776000499725342 0.019903000444173813 0.014535999856889248
  endloop
 endfacet
 facet normal -0.86012928773492736 -0.35658612412526258 0.36472447746474251
  outer loop
   vertex 0.092781998217105865 0.020372999832034111 0.01522700022906065
   vertex 0.093199998140335083 0.020273000001907349 0.01611500047147274
   vertex 0.092840999364852905 0.020961999893188477 0.015941999852657318
  endloop
 endfacet
 facet normal -0.45743760383957893 -0.33430106728357412 0.8240107007840175
  outer loop
   vertex 0.094241000711917877 0.030177999287843704 0.021268000826239586
   vertex 0.093832001090049744 0.029975999146699905 0.020958999171853065
   vertex 0.094812996685504913 0.028996000066399574 0.021105999127030373
  endloop
 endfacet
 facet normal -0.26490422604369573 -0.12168867398595397 0.95656553233311248
  outer loop
   vertex 0.094812996685504913 0.028996000066399574 0.021105999127030373
   vertex 0.093832001090049744 0.029975999146699905 0.020958999171853065
   vertex 0.093707002699375153 0.028448000550270081 0.020729999989271164
  endloop
 endfacet
 facet normal -0.25631169158918843 -0.13901651353226874 0.95654520317652603
  outer loop
   vertex 0.093608997762203217 0.026763999834656715 0.020459000021219254
   vertex 0.094812996685504913 0.028996000066399574 0.021105999127030373
   vertex 0.093707002699375153 0.028448000550270081 0.020729999989271164
  endloop
 endfacet
 facet normal 0.13741365480766049 -0.50961094488203673 0.8493610376799956
  outer loop
   vertex 0.094144999980926514 0.019640000537037849 0.016186999157071114
   vertex 0.094793997704982758 0.019770000129938126 0.016160000115633011
   vertex 0.093396998941898346 0.021789999678730965 0.017597999423742294
  endloop
 endfacet
 facet normal 0.013563506477936318 -0.54532064036517913 0.83811779033960021
  outer loop
   vertex 0.093584999442100525 0.019623000174760818 0.016185000538825989
   vertex 0.094144999980926514 0.019640000537037849 0.016186999157071114
   vertex 0.093396998941898346 0.021789999678730965 0.017597999423742294
  endloop
 endfacet
 facet normal -0.010728459865258387 -0.90172247883182721 0.43218222003953882
  outer loop
   vertex 0.095600999891757965 0.018616000190377235 0.014134000055491924
   vertex 0.095700003206729889 0.019166000187397003 0.015283999964594841
   vertex 0.093584999442100525 0.019623000174760818 0.016185000538825989
  endloop
 endfacet
 facet normal -0.8390078673304765 -0.46685394970907479 0.27948736679607206
  outer loop
   vertex 0.093365997076034546 0.019202999770641327 0.014825999736785889
   vertex 0.093584999442100525 0.019623000174760818 0.016185000538825989
   vertex 0.093199998140335083 0.020273000001907349 0.01611500047147274
  endloop
 endfacet
 facet normal 0.024549134492559944 -0.86714318491366238 0.49745355245837375
  outer loop
   vertex 0.093584999442100525 0.019623000174760818 0.016185000538825989
   vertex 0.095700003206729889 0.019166000187397003 0.015283999964594841
   vertex 0.094144999980926514 0.019640000537037849 0.016186999157071114
  endloop
 endfacet
 facet normal -0.14911016182491235 -0.93769907138594311 0.31382576561284509
  outer loop
   vertex 0.093584999442100525 0.019623000174760818 0.016185000538825989
   vertex 0.093365997076034546 0.019202999770641327 0.014825999736785889
   vertex 0.095600999891757965 0.018616000190377235 0.014134000055491924
  endloop
 endfacet
 facet normal -0.79969399977048938 -0.5085512391047583 0.31916319326653525
  outer loop
   vertex 0.092781998217105865 0.020372999832034111 0.01522700022906065
   vertex 0.093365997076034546 0.019202999770641327 0.014825999736785889
   vertex 0.093199998140335083 0.020273000001907349 0.01611500047147274
  endloop
 endfacet
 facet normal -0.84309368960205466 -0.5166275941798123 0.14929487427629121
  outer loop
   vertex 0.092623002827167511 0.020108999684453011 0.010928000323474407
   vertex 0.093097999691963196 0.019334999844431877 0.010932000353932381
   vertex 0.092886999249458313 0.019813999533653259 0.011397999711334705
  endloop
 endfacet
 facet normal -0.18386605700242306 -0.98293632041348056 -0.00542799174547395
  outer loop
   vertex 0.099587000906467438 0.017883999273180962 0.011668999679386616
   vertex 0.095600999891757965 0.018616000190377235 0.014134000055491924
   vertex 0.094089999794960022 0.018918000161647797 0.010629000142216682
  endloop
 endfacet
 facet normal -0.094601920332541792 -0.99450184275875697 -0.044906140101682444
  outer loop
   vertex 0.093661002814769745 0.01888200081884861 0.012330000288784504
   vertex 0.094089999794960022 0.018918000161647797 0.010629000142216682
   vertex 0.095600999891757965 0.018616000190377235 0.014134000055491924
  endloop
 endfacet
 facet normal -0.41649618843868069 -0.90062734082559237 -0.12410204661275043
  outer loop
   vertex 0.093661002814769745 0.01888200081884861 0.012330000288784504
   vertex 0.093097999691963196 0.019334999844431877 0.010932000353932381
   vertex 0.094089999794960022 0.018918000161647797 0.010629000142216682
  endloop
 endfacet
 facet normal 0.37730843031538513 -0.82669386959676883 0.41739141627980431
  outer loop
   vertex 0.099587000906467438 0.017883999273180962 0.011668999679386616
   vertex 0.10206600278615952 0.020363999530673027 0.014340000227093697
   vertex 0.10116700083017349 0.020089000463485718 0.014608000405132771
  endloop
 endfacet
 facet normal 0.1893470133834752 -0.85932742427845676 0.4750832415542684
  outer loop
   vertex 0.099587000906467438 0.017883999273180962 0.011668999679386616
   vertex 0.10028699785470963 0.019793000072240829 0.01484300009906292
   vertex 0.098590999841690063 0.019525999203324318 0.015035999938845634
  endloop
 endfacet
 facet normal 0.38733567273844571 -0.82528542048214726 0.41094409761409306
  outer loop
   vertex 0.10116700083017349 0.020089000463485718 0.014608000405132771
   vertex 0.10028699785470963 0.019793000072240829 0.01484300009906292
   vertex 0.099587000906467438 0.017883999273180962 0.011668999679386616
  endloop
 endfacet
 facet normal 0.15302217512452293 -0.86964229019840089 0.46936819344587061
  outer loop
   vertex 0.098590999841690063 0.019525999203324318 0.015035999938845634
   vertex 0.096879996359348297 0.019286999478936195 0.015150999650359154
   vertex 0.099587000906467438 0.017883999273180962 0.011668999679386616
  endloop
 endfacet
 facet normal 0.48997134735026288 -0.82492203076393533 0.28183633892043281
  outer loop
   vertex 0.10263500362634659 0.020526999607682228 0.01410599984228611
   vertex 0.099587000906467438 0.017883999273180962 0.011668999679386616
   vertex 0.10354000329971313 0.020891999825835228 0.013601000420749187
  endloop
 endfacet
 facet normal 0.39976479690408684 -0.82649048198741948 0.39636042983683067
  outer loop
   vertex 0.10263500362634659 0.020526999607682228 0.01410599984228611
   vertex 0.10206600278615952 0.020363999530673027 0.014340000227093697
   vertex 0.099587000906467438 0.017883999273180962 0.011668999679386616
  endloop
 endfacet
 facet normal 0.11213116151543361 -0.88841199897069756 0.44514123904901126
  outer loop
   vertex 0.099587000906467438 0.017883999273180962 0.011668999679386616
   vertex 0.096879996359348297 0.019286999478936195 0.015150999650359154
   vertex 0.095600999891757965 0.018616000190377235 0.014134000055491924
  endloop
 endfacet
 facet normal -0.83550896609714786 -0.52353759132114852 0.16683272474225472
  outer loop
   vertex 0.093038000166416168 0.019743999466300011 0.011915000155568123
   vertex 0.093097999691963196 0.019334999844431877 0.010932000353932381
   vertex 0.093661002814769745 0.01888200081884861 0.012330000288784504
  endloop
 endfacet
 facet normal -0.82983435032544772 -0.53134657410775421 0.17042819368841211
  outer loop
   vertex 0.093038000166416168 0.019743999466300011 0.011915000155568123
   vertex 0.092886999249458313 0.019813999533653259 0.011397999711334705
   vertex 0.093097999691963196 0.019334999844431877 0.010932000353932381
  endloop
 endfacet
 facet normal 0.13913572281051445 -0.89796852416761441 0.41748506589126294
  outer loop
   vertex 0.095700003206729889 0.019166000187397003 0.015283999964594841
   vertex 0.095600999891757965 0.018616000190377235 0.014134000055491924
   vertex 0.096879996359348297 0.019286999478936195 0.015150999650359154
  endloop
 endfacet
 facet normal 0.17201182349292532 -0.71884931032930244 0.67354851467264387
  outer loop
   vertex 0.095700003206729889 0.019166000187397003 0.015283999964594841
   vertex 0.094793997704982758 0.019770000129938126 0.016160000115633011
   vertex 0.094144999980926514 0.019640000537037849 0.016186999157071114
  endloop
 endfacet
 facet normal -0.78209918623504715 -0.51208347173238189 0.35509348187341849
  outer loop
   vertex 0.092781998217105865 0.020372999832034111 0.01522700022906065
   vertex 0.092776000499725342 0.019903000444173813 0.014535999856889248
   vertex 0.093365997076034546 0.019202999770641327 0.014825999736785889
  endloop
 endfacet
 facet normal -0.67616468467138435 -0.68366638682898162 -0.27459350087620954
  outer loop
   vertex 0.092776000499725342 0.019903000444173813 0.014535999856889248
   vertex 0.09267599880695343 0.02026900090277195 0.013871000148355961
   vertex 0.093365997076034546 0.019202999770641327 0.014825999736785889
  endloop
 endfacet
 facet normal -0.77378699294544684 -0.61722539661659725 0.14243068250881566
  outer loop
   vertex 0.092550002038478851 0.02064099907875061 0.013151000253856182
   vertex 0.092886999249458313 0.019813999533653259 0.011397999711334705
   vertex 0.093038000166416168 0.019743999466300011 0.011915000155568123
  endloop
 endfacet
 facet normal -0.73112087898802902 -0.59585339901409473 0.33229653502725831
  outer loop
   vertex 0.094209998846054077 0.018825000151991844 0.013546999543905258
   vertex 0.092550002038478851 0.02064099907875061 0.013151000253856182
   vertex 0.093097001314163208 0.019725000485777855 0.01271199993789196
  endloop
 endfacet
 facet normal -0.69225838092427994 -0.68336497678233032 -0.23192809779623461
  outer loop
   vertex 0.09267599880695343 0.02026900090277195 0.013871000148355961
   vertex 0.092550002038478851 0.02064099907875061 0.013151000253856182
   vertex 0.094209998846054077 0.018825000151991844 0.013546999543905258
  endloop
 endfacet
 facet normal -0.84674683670500661 -0.52963568207678147 0.05005835395942989
  outer loop
   vertex 0.093097001314163208 0.019725000485777855 0.01271199993789196
   vertex 0.092550002038478851 0.02064099907875061 0.013151000253856182
   vertex 0.093038000166416168 0.019743999466300011 0.011915000155568123
  endloop
 endfacet
 facet normal -0.69070860242078025 -0.67633856103906076 -0.25590579788966278
  outer loop
   vertex 0.093365997076034546 0.019202999770641327 0.014825999736785889
   vertex 0.09267599880695343 0.02026900090277195 0.013871000148355961
   vertex 0.094209998846054077 0.018825000151991844 0.013546999543905258
  endloop
 endfacet
 facet normal -0.15906198510328462 -0.98693848702839471 0.025528566687250939
  outer loop
   vertex 0.093661002814769745 0.01888200081884861 0.012330000288784504
   vertex 0.095600999891757965 0.018616000190377235 0.014134000055491924
   vertex 0.094209998846054077 0.018825000151991844 0.013546999543905258
  endloop
 endfacet
 facet normal -0.2079367947886287 -0.96680162051214125 0.1485157094321321
  outer loop
   vertex 0.095600999891757965 0.018616000190377235 0.014134000055491924
   vertex 0.093365997076034546 0.019202999770641327 0.014825999736785889
   vertex 0.094209998846054077 0.018825000151991844 0.013546999543905258
  endloop
 endfacet
 facet normal -0.72538000622819632 -0.62042049223763351 0.29816481914537524
  outer loop
   vertex 0.093661002814769745 0.01888200081884861 0.012330000288784504
   vertex 0.094209998846054077 0.018825000151991844 0.013546999543905258
   vertex 0.093097001314163208 0.019725000485777855 0.01271199993789196
  endloop
 endfacet
 facet normal -0.82021347048078452 -0.57011288365918866 0.047129213102615197
  outer loop
   vertex 0.093097001314163208 0.019725000485777855 0.01271199993789196
   vertex 0.093038000166416168 0.019743999466300011 0.011915000155568123
   vertex 0.093661002814769745 0.01888200081884861 0.012330000288784504
  endloop
 endfacet
endsolid
