solid Visualization Toolkit generated SLA File
 facet normal 0.98768808384776352 0 0.15643608607074411
  outer loop
   vertex 0.075000002980232239 -0.05000000074505806 0
   vertex 0.071329198777675629 -0.15000000596046448 0.023176299408078194
   vertex 0.075000002980232239 -0.15000000596046448 0
  endloop
 endfacet
 facet normal 0.89100747626843502 0 0.45398863117236132
  outer loop
   vertex 0.071329198777675629 -0.05000000074505806 0.023176299408078194
   vertex 0.060676299035549164 -0.15000000596046448 0.04408390074968338
   vertex 0.071329198777675629 -0.15000000596046448 0.023176299408078194
  endloop
 endfacet
 facet normal 0.70710678118654746 0 0.70710678118654746
  outer loop
   vertex 0.060676299035549164 -0.05000000074505806 0.04408390074968338
   vertex 0.04408390074968338 -0.15000000596046448 0.060676299035549164
   vertex 0.060676299035549164 -0.15000000596046448 0.04408390074968338
  endloop
 endfacet
 facet normal 0.45398863117236132 0 0.89100747626843502
  outer loop
   vertex 0.04408390074968338 -0.05000000074505806 0.060676299035549164
   vertex 0.023176299408078194 -0.15000000596046448 0.071329198777675629
   vertex 0.04408390074968338 -0.15000000596046448 0.060676299035549164
  endloop
 endfacet
 facet normal 0.15643608596945383 0 0.98768808386380658
  outer loop
   vertex 0.023176299408078194 -0.05000000074505806 0.071329198777675629
   vertex -1.5382799201102415e-11 -0.15000000596046448 0.075000002980232239
   vertex 0.023176299408078194 -0.15000000596046448 0.071329198777675629
  endloop
 endfacet
 facet normal -0.15643608617203439 0 0.98768808383172046
  outer loop
   vertex -1.5382799201102415e-11 -0.05000000074505806 0.075000002980232239
   vertex -0.023176299408078194 -0.15000000596046448 0.071329198777675629
   vertex -1.5382799201102415e-11 -0.15000000596046448 0.075000002980232239
  endloop
 endfacet
 facet normal -0.45398863117236132 0 0.89100747626843502
  outer loop
   vertex -0.023176299408078194 -0.05000000074505806 0.071329198777675629
   vertex -0.04408390074968338 -0.15000000596046448 0.060676299035549164
   vertex -0.023176299408078194 -0.15000000596046448 0.071329198777675629
  endloop
 endfacet
 facet normal -0.70710678118654746 0 0.70710678118654746
  outer loop
   vertex -0.04408390074968338 -0.05000000074505806 0.060676299035549164
   vertex -0.060676299035549164 -0.15000000596046448 0.04408390074968338
   vertex -0.04408390074968338 -0.15000000596046448 0.060676299035549164
  endloop
 endfacet
 facet normal -0.89100747626843502 0 0.45398863117236132
  outer loop
   vertex -0.060676299035549164 -0.05000000074505806 0.04408390074968338
   vertex -0.071329198777675629 -0.15000000596046448 0.023176299408078194
   vertex -0.060676299035549164 -0.15000000596046448 0.04408390074968338
  endloop
 endfacet
 facet normal -0.9876880838798493 0 0.15643608586816413
  outer loop
   vertex -0.071329198777675629 -0.05000000074505806 0.023176299408078194
   vertex -0.075000002980232239 -0.15000000596046448 -3.0765501257690175e-11
   vertex -0.071329198777675629 -0.15000000596046448 0.023176299408078194
  endloop
 endfacet
 facet normal -0.98768808381567774 0 -0.15643608627332406
  outer loop
   vertex -0.075000002980232239 -0.05000000074505806 -3.0765501257690175e-11
   vertex -0.071329198777675629 -0.15000000596046448 -0.023176299408078194
   vertex -0.075000002980232239 -0.15000000596046448 -3.0765501257690175e-11
  endloop
 endfacet
 facet normal -0.89100747626843502 0 -0.45398863117236132
  outer loop
   vertex -0.071329198777675629 -0.05000000074505806 -0.023176299408078194
   vertex -0.060676299035549164 -0.15000000596046448 -0.04408390074968338
   vertex -0.071329198777675629 -0.15000000596046448 -0.023176299408078194
  endloop
 endfacet
 facet normal -0.70710678118654746 0 -0.70710678118654746
  outer loop
   vertex -0.060676299035549164 -0.05000000074505806 -0.04408390074968338
   vertex -0.04408390074968338 -0.15000000596046448 -0.060676299035549164
   vertex -0.060676299035549164 -0.15000000596046448 -0.04408390074968338
  endloop
 endfacet
 facet normal -0.45398863117236132 0 -0.89100747626843502
  outer loop
   vertex -0.04408390074968338 -0.05000000074505806 -0.060676299035549164
   vertex -0.023176299408078194 -0.15000000596046448 -0.071329198777675629
   vertex -0.04408390074968338 -0.15000000596046448 -0.060676299035549164
  endloop
 endfacet
 facet normal -0.15643608576687384 0 -0.98768808389589235
  outer loop
   vertex -0.023176299408078194 -0.05000000074505806 -0.071329198777675629
   vertex 4.614830045879259e-11 -0.15000000596046448 -0.075000002980232239
   vertex -0.023176299408078194 -0.15000000596046448 -0.071329198777675629
  endloop
 endfacet
 facet normal 0.15643608637461434 0 -0.98768808379963469
  outer loop
   vertex 4.614830045879259e-11 -0.05000000074505806 -0.075000002980232239
   vertex 0.023176299408078194 -0.15000000596046448 -0.071329198777675629
   vertex 4.614830045879259e-11 -0.15000000596046448 -0.075000002980232239
  endloop
 endfacet
 facet normal 0.45398863117236132 0 -0.89100747626843502
  outer loop
   vertex 0.023176299408078194 -0.05000000074505806 -0.071329198777675629
   vertex 0.04408390074968338 -0.15000000596046448 -0.060676299035549164
   vertex 0.023176299408078194 -0.15000000596046448 -0.071329198777675629
  endloop
 endfacet
 facet normal 0.70710678118654746 0 -0.70710678118654746
  outer loop
   vertex 0.04408390074968338 -0.05000000074505806 -0.060676299035549164
   vertex 0.060676299035549164 -0.15000000596046448 -0.04408390074968338
   vertex 0.04408390074968338 -0.15000000596046448 -0.060676299035549164
  endloop
 endfacet
 facet normal 0.89100747626843502 0 -0.45398863117236132
  outer loop
   vertex 0.060676299035549164 -0.05000000074505806 -0.04408390074968338
   vertex 0.071329198777675629 -0.15000000596046448 -0.023176299408078194
   vertex 0.060676299035549164 -0.15000000596046448 -0.04408390074968338
  endloop
 endfacet
 facet normal 0.98768808384776352 0 -0.15643608607074411
  outer loop
   vertex 0.071329198777675629 -0.05000000074505806 -0.023176299408078194
   vertex 0.075000002980232239 -0.15000000596046448 0
   vertex 0.071329198777675629 -0.15000000596046448 -0.023176299408078194
  endloop
 endfacet
 facet normal -0 -1 -0
  outer loop
   vertex 0.075000002980232239 -0.05000000074505806 0
   vertex 0.071329198777675629 -0.05000000074505806 0.023176299408078194
   vertex 0.060676299035549164 -0.05000000074505806 0.04408390074968338
  endloop
 endfacet
 facet normal 0 -1 0
  outer loop
   vertex 0.071329198777675629 -0.15000000596046448 -0.023176299408078194
   vertex 0.04408390074968338 -0.15000000596046448 -0.060676299035549164
   vertex 0.060676299035549164 -0.15000000596046448 -0.04408390074968338
  endloop
 endfacet
 facet normal 0.95105733890150335 0 0.30901446264146137
  outer loop
   vertex 0.0099999997764825821 7.4505801528346183e-10 0.064999997615814209
   vertex 0.0080901701003313065 -0.10000000149011612 0.070877902209758759
   vertex 0.0099999997764825821 -0.10000000149011612 0.064999997615814209
  endloop
 endfacet
 facet normal 0.58778332009114176 0 0.80901839819786192
  outer loop
   vertex 0.0080901701003313065 7.4505801528346183e-10 0.070877902209758759
   vertex 0.0030901699792593718 -0.10000000149011612 0.074510596692562103
   vertex 0.0080901701003313065 -0.10000000149011612 0.070877902209758759
  endloop
 endfacet
 facet normal 0 0 1
  outer loop
   vertex 0.0030901699792593718 7.4505801528346183e-10 0.074510596692562103
   vertex -0.0030901699792593718 -0.10000000149011612 0.074510596692562103
   vertex 0.0030901699792593718 -0.10000000149011612 0.074510596692562103
  endloop
 endfacet
 facet normal -0.58778332009114176 0 0.80901839819786192
  outer loop
   vertex -0.0030901699792593718 7.4505801528346183e-10 0.074510596692562103
   vertex -0.0080901701003313065 -0.10000000149011612 0.070877902209758759
   vertex -0.0030901699792593718 -0.10000000149011612 0.074510596692562103
  endloop
 endfacet
 facet normal -0.95105733890150335 0 0.30901446264146137
  outer loop
   vertex -0.0080901701003313065 7.4505801528346183e-10 0.070877902209758759
   vertex -0.0099999997764825821 -0.10000000149011612 0.064999997615814209
   vertex -0.0080901701003313065 -0.10000000149011612 0.070877902209758759
  endloop
 endfacet
 facet normal 0.95105722378631075 -0 0.30901481693257904
  outer loop
   vertex -0.0099999997764825821 7.4505801528346183e-10 0.064999997615814209
   vertex -0.0099999997764825821 -0.10000000149011612 0.064999997615814209
   vertex -0.0080901701003313065 -0.10000000149011612 0.059122100472450256
  endloop
 endfacet
 facet normal 0.58778410912353851 -0 0.8090178249345612
  outer loop
   vertex -0.0080901701003313065 7.4505801528346183e-10 0.059122100472450256
   vertex -0.0080901701003313065 -0.10000000149011612 0.059122100472450256
   vertex -0.0030901699792593718 -0.10000000149011612 0.055489398539066315
  endloop
 endfacet
 facet normal 0 0 -1
  outer loop
   vertex -0.0030901699792593718 7.4505801528346183e-10 0.055489398539066315
   vertex 0.0030901699792593718 -0.10000000149011612 0.055489398539066315
   vertex -0.0030901699792593718 -0.10000000149011612 0.055489398539066315
  endloop
 endfacet
 facet normal 0.58778410912353851 0 -0.8090178249345612
  outer loop
   vertex 0.0030901699792593718 7.4505801528346183e-10 0.055489398539066315
   vertex 0.0080901701003313065 -0.10000000149011612 0.059122100472450256
   vertex 0.0030901699792593718 -0.10000000149011612 0.055489398539066315
  endloop
 endfacet
 facet normal -0.95105722378631075 0 0.30901481693257904
  outer loop
   vertex 0.0080901701003313065 7.4505801528346183e-10 0.059122100472450256
   vertex 0.0080901701003313065 -0.10000000149011612 0.059122100472450256
   vertex 0.0099999997764825821 -0.10000000149011612 0.064999997615814209
  endloop
 endfacet
 facet normal 0 1 0
  outer loop
   vertex 0.0099999997764825821 7.4505801528346183e-10 0.064999997615814209
   vertex 0.0030901699792593718 7.4505801528346183e-10 0.074510596692562103
   vertex 0.0080901701003313065 7.4505801528346183e-10 0.070877902209758759
  endloop
 endfacet
 facet normal 0 -1 0
  outer loop
   vertex 0.0080901701003313065 -0.10000000149011612 0.059122100472450256
   vertex -0.0030901699792593718 -0.10000000149011612 0.055489398539066315
   vertex 0.0030901699792593718 -0.10000000149011612 0.055489398539066315
  endloop
 endfacet
 facet normal -0.95105722378631075 0 -0.30901481693257904
  outer loop
   vertex 0.0099999997764825821 7.4505801528346183e-10 -0.064999997615814209
   vertex 0.0099999997764825821 -0.10000000149011612 -0.064999997615814209
   vertex 0.0080901701003313065 -0.10000000149011612 -0.059122100472450256
  endloop
 endfacet
 facet normal -0.58778410912353851 0 -0.8090178249345612
  outer loop
   vertex 0.0080901701003313065 7.4505801528346183e-10 -0.059122100472450256
   vertex 0.0080901701003313065 -0.10000000149011612 -0.059122100472450256
   vertex 0.0030901699792593718 -0.10000000149011612 -0.055489398539066315
  endloop
 endfacet
 facet normal 0 0 -1
  outer loop
   vertex 0.0030901699792593718 7.4505801528346183e-10 -0.055489398539066315
   vertex 0.0030901699792593718 -0.10000000149011612 -0.055489398539066315
   vertex -0.0030901699792593718 -0.10000000149011612 -0.055489398539066315
  endloop
 endfacet
 facet normal 0.58778410912353851 0 -0.8090178249345612
  outer loop
   vertex -0.0030901699792593718 7.4505801528346183e-10 -0.055489398539066315
   vertex -0.0030901699792593718 -0.10000000149011612 -0.055489398539066315
   vertex -0.0080901701003313065 -0.10000000149011612 -0.059122100472450256
  endloop
 endfacet
 facet normal 0.95105722378631075 0 -0.30901481693257904
  outer loop
   vertex -0.0080901701003313065 7.4505801528346183e-10 -0.059122100472450256
   vertex -0.0080901701003313065 -0.10000000149011612 -0.059122100472450256
   vertex -0.0099999997764825821 -0.10000000149011612 -0.064999997615814209
  endloop
 endfacet
 facet normal -0.95105733890150335 0 -0.30901446264146137
  outer loop
   vertex -0.0099999997764825821 7.4505801528346183e-10 -0.064999997615814209
   vertex -0.0080901701003313065 -0.10000000149011612 -0.070877902209758759
   vertex -0.0099999997764825821 -0.10000000149011612 -0.064999997615814209
  endloop
 endfacet
 facet normal -0.58778332009114176 0 -0.80901839819786192
  outer loop
   vertex -0.0080901701003313065 7.4505801528346183e-10 -0.070877902209758759
   vertex -0.0030901699792593718 -0.10000000149011612 -0.074510596692562103
   vertex -0.0080901701003313065 -0.10000000149011612 -0.070877902209758759
  endloop
 endfacet
 facet normal 0 0 -1
  outer loop
   vertex -0.0030901699792593718 7.4505801528346183e-10 -0.074510596692562103
   vertex 0.0030901699792593718 -0.10000000149011612 -0.074510596692562103
   vertex -0.0030901699792593718 -0.10000000149011612 -0.074510596692562103
  endloop
 endfacet
 facet normal 0.58778332009114176 0 -0.80901839819786192
  outer loop
   vertex 0.0030901699792593718 7.4505801528346183e-10 -0.074510596692562103
   vertex 0.0080901701003313065 -0.10000000149011612 -0.070877902209758759
   vertex 0.0030901699792593718 -0.10000000149011612 -0.074510596692562103
  endloop
 endfacet
 facet normal 0.95105733890150335 0 -0.30901446264146137
  outer loop
   vertex 0.0080901701003313065 7.4505801528346183e-10 -0.070877902209758759
   vertex 0.0099999997764825821 -0.10000000149011612 -0.064999997615814209
   vertex 0.0080901701003313065 -0.10000000149011612 -0.070877902209758759
  endloop
 endfacet
 facet normal 0 1 0
  outer loop
   vertex 0.0099999997764825821 7.4505801528346183e-10 -0.064999997615814209
   vertex 0.0030901699792593718 7.4505801528346183e-10 -0.055489398539066315
   vertex 0.0080901701003313065 7.4505801528346183e-10 -0.059122100472450256
  endloop
 endfacet
 facet normal 0 -1 0
  outer loop
   vertex 0.0080901701003313065 -0.10000000149011612 -0.070877902209758759
   vertex -0.0030901699792593718 -0.10000000149011612 -0.074510596692562103
   vertex 0.0030901699792593718 -0.10000000149011612 -0.074510596692562103
  endloop
 endfacet
 facet normal 0.95105648560072853 0.30901708884265783 0
  outer loop
   vertex 0.0099999997764825821 7.4505801528346183e-10 -0.075000002980232239
   vertex 0.0080901701003313065 0.0058778501115739346 0.075000002980232239
   vertex 0.0099999997764825821 7.4505801528346183e-10 0.075000002980232239
  endloop
 endfacet
 facet normal 0.58778603238297833 0.80901642760544501 0
  outer loop
   vertex 0.0080901701003313065 0.0058778501115739346 -0.075000002980232239
   vertex 0.0030901699792593718 0.0095105702057480812 0.075000002980232239
   vertex 0.0080901701003313065 0.0058778501115739346 0.075000002980232239
  endloop
 endfacet
 facet normal -0 1 0
  outer loop
   vertex 0.0030901699792593718 0.0095105702057480812 -0.075000002980232239
   vertex -0.0030901699792593718 0.0095105702057480812 0.075000002980232239
   vertex 0.0030901699792593718 0.0095105702057480812 0.075000002980232239
  endloop
 endfacet
 facet normal -0.58778603238297833 0.80901642760544501 0
  outer loop
   vertex -0.0030901699792593718 0.0095105702057480812 -0.075000002980232239
   vertex -0.0080901701003313065 0.0058778501115739346 0.075000002980232239
   vertex -0.0030901699792593718 0.0095105702057480812 0.075000002980232239
  endloop
 endfacet
 facet normal -0.95105648560072853 0.30901708884265783 0
  outer loop
   vertex -0.0080901701003313065 0.0058778501115739346 -0.075000002980232239
   vertex -0.0099999997764825821 7.4505801528346183e-10 0.075000002980232239
   vertex -0.0080901701003313065 0.0058778501115739346 0.075000002980232239
  endloop
 endfacet
 facet normal -0.95105650862430524 -0.30901701798339004 0
  outer loop
   vertex -0.0099999997764825821 7.4505801528346183e-10 -0.075000002980232239
   vertex -0.0080901701003313065 -0.0058778501115739346 0.075000002980232239
   vertex -0.0099999997764825821 7.4505801528346183e-10 0.075000002980232239
  endloop
 endfacet
 facet normal -0.58778494746862209 -0.80901721584235098 0
  outer loop
   vertex -0.0080901701003313065 -0.0058778501115739346 -0.075000002980232239
   vertex -0.0030901699792593718 -0.0095105599611997604 0.075000002980232239
   vertex -0.0080901701003313065 -0.0058778501115739346 0.075000002980232239
  endloop
 endfacet
 facet normal -0 -1 0
  outer loop
   vertex -0.0030901699792593718 -0.0095105599611997604 -0.075000002980232239
   vertex 0.0030901699792593718 -0.0095105599611997604 0.075000002980232239
   vertex -0.0030901699792593718 -0.0095105599611997604 0.075000002980232239
  endloop
 endfacet
 facet normal 0.58778494746862209 -0.80901721584235098 0
  outer loop
   vertex 0.0030901699792593718 -0.0095105599611997604 -0.075000002980232239
   vertex 0.0080901701003313065 -0.0058778501115739346 0.075000002980232239
   vertex 0.0030901699792593718 -0.0095105599611997604 0.075000002980232239
  endloop
 endfacet
 facet normal 0.95105650862430524 -0.30901701798339004 0
  outer loop
   vertex 0.0080901701003313065 -0.0058778501115739346 -0.075000002980232239
   vertex 0.0099999997764825821 7.4505801528346183e-10 0.075000002980232239
   vertex 0.0080901701003313065 -0.0058778501115739346 0.075000002980232239
  endloop
 endfacet
 facet normal 0 0 -1
  outer loop
   vertex 0.0099999997764825821 7.4505801528346183e-10 -0.075000002980232239
   vertex 0.0030901699792593718 0.0095105702057480812 -0.075000002980232239
   vertex 0.0080901701003313065 0.0058778501115739346 -0.075000002980232239
  endloop
 endfacet
 facet normal 0 0 1
  outer loop
   vertex 0.0080901701003313065 -0.0058778501115739346 0.075000002980232239
   vertex -0.0030901699792593718 -0.0095105599611997604 0.075000002980232239
   vertex 0.0030901699792593718 -0.0095105599611997604 0.075000002980232239
  endloop
 endfacet
endsolid
