solid Visualization Toolkit generated SLA File
 facet normal -0.056889736469299824 0.99836212700910554 -0.0060515484223808789
  outer loop
   vertex -0.026074999943375587 0.024359000846743584 -0.0001500000071246177
   vertex -0.01433899998664856 0.025054000318050385 0.0041800001636147499
   vertex -0.014983999542891979 0.024991000071167946 -0.0001500000071246177
  endloop
 endfacet
 facet normal 0.047839082652107214 0.95780827466916174 -0.28339853765728645
  outer loop
   vertex -0.026074999943375587 0.024359000846743584 -0.0001500000071246177
   vertex -0.027036000043153763 0.024406999349594116 -0.0001500000071246177
   vertex -0.01433899998664856 0.025054000318050385 0.0041800001636147499
  endloop
 endfacet
 facet normal -0.056889736469271812 0.99836212700861404 0.0060515485037281238
  outer loop
   vertex -0.026074999943375587 0.024359000846743584 -0.0001500000071246177
   vertex -0.014983999542891979 0.024991000071167946 -0.0001500000071246177
   vertex -0.01433899998664856 0.025054000318050385 -0.0044800001196563244
  endloop
 endfacet
 facet normal 0.047839082600457217 0.9578082736350535 0.28339854116100388
  outer loop
   vertex -0.026074999943375587 0.024359000846743584 -0.0001500000071246177
   vertex -0.01433899998664856 0.025054000318050385 -0.0044800001196563244
   vertex -0.027036000043153763 0.024406999349594116 -0.0001500000071246177
  endloop
 endfacet
 facet normal 0.92955103751682799 -0.36847944684671741 0.012560489756607146
  outer loop
   vertex -0.020849000662565231 0.010273000225424767 0.0021220000926405191
   vertex -0.014983999542891979 0.024991000071167946 -0.0001500000071246177
   vertex -0.015258999541401863 0.024352999404072762 0.0014850000152364373
  endloop
 endfacet
 facet normal 0.9289459661134214 -0.37021525027444746 -0.00024597932895349558
  outer loop
   vertex -0.020850000903010368 0.01027199998497963 -0.0001500000071246177
   vertex -0.014983999542891979 0.024991000071167946 -0.0001500000071246177
   vertex -0.020849000662565231 0.010273000225424767 0.0021220000926405191
  endloop
 endfacet
 facet normal 0.78256786272901246 -0.61318756997279433 -0.10765010104317219
  outer loop
   vertex -0.014983999542891979 0.024991000071167946 -0.0001500000071246177
   vertex -0.01433899998664856 0.025054000318050385 0.0041800001636147499
   vertex -0.015258999541401863 0.024352999404072762 0.0014850000152364373
  endloop
 endfacet
 facet normal 0.92955070091623615 -0.36848057449882049 -0.012552316246540721
  outer loop
   vertex -0.014983999542891979 0.024991000071167946 -0.0001500000071246177
   vertex -0.020849000662565231 0.010273000225424767 -0.0024220000486820936
   vertex -0.015258999541401863 0.024352999404072762 -0.0017859999788925052
  endloop
 endfacet
 facet normal 0.92894596611341995 -0.37021525027444685 0.00024597933525537946
  outer loop
   vertex -0.014983999542891979 0.024991000071167946 -0.0001500000071246177
   vertex -0.020850000903010368 0.01027199998497963 -0.0001500000071246177
   vertex -0.020849000662565231 0.010273000225424767 -0.0024220000486820936
  endloop
 endfacet
 facet normal 0.78249001053275036 -0.61328920900897954 0.10763702675936564
  outer loop
   vertex -0.01433899998664856 0.025054000318050385 -0.0044800001196563244
   vertex -0.014983999542891979 0.024991000071167946 -0.0001500000071246177
   vertex -0.015258999541401863 0.024352999404072762 -0.0017859999788925052
  endloop
 endfacet
 facet normal 0.22447310154481864 0.92169427025590867 -0.31637240533946304
  outer loop
   vertex -0.008830999955534935 0.026461999863386154 0.012190000154078007
   vertex -0.015258999541401863 0.024352999404072762 0.0014850000152364373
   vertex -0.01433899998664856 0.025054000318050385 0.0041800001636147499
  endloop
 endfacet
 facet normal -0.025825451404020042 0.98744855028819667 -0.15581529640416361
  outer loop
   vertex -0.008830999955534935 0.026461999863386154 0.012190000154078007
   vertex -0.01433899998664856 0.025054000318050385 0.0041800001636147499
   vertex -0.015297999605536461 0.025151999667286873 0.0049600000493228436
  endloop
 endfacet
 facet normal -0.22679211488383946 0.85873919544039901 0.45949138277109391
  outer loop
   vertex -0.01433899998664856 0.025054000318050385 0.0041800001636147499
   vertex -0.030423000454902649 0.020222999155521393 0.0052700000815093517
   vertex -0.018223000690340996 0.019943999126553535 0.011812999844551086
  endloop
 endfacet
 facet normal -0.57109598359739144 -0.51761495011434366 -0.63712176303831702
  outer loop
   vertex -0.018223000690340996 0.019943999126553535 0.011812999844551086
   vertex -0.015297999605536461 0.025151999667286873 0.0049600000493228436
   vertex -0.01433899998664856 0.025054000318050385 0.0041800001636147499
  endloop
 endfacet
 facet normal 0.11106328485704788 0.67042231701310218 0.73362038112878636
  outer loop
   vertex -0.027036000043153763 0.024406999349594116 -0.0001500000071246177
   vertex -0.043338000774383545 0.023083999752998352 0.003527000080794096
   vertex -0.037822000682353973 0.021924000233411789 0.003751999931409955
  endloop
 endfacet
 facet normal 0.049162336803750317 0.77552841253286275 0.62939554017664634
  outer loop
   vertex -0.030423000454902649 0.020222999155521393 0.0052700000815093517
   vertex -0.027036000043153763 0.024406999349594116 -0.0001500000071246177
   vertex -0.037822000682353973 0.021924000233411789 0.003751999931409955
  endloop
 endfacet
 facet normal 0.16098033582239479 0.85956462967139025 -0.4850092565058885
  outer loop
   vertex -0.043048001825809479 0.025104999542236328 -0.0001500000071246177
   vertex -0.037822000682353973 0.021924000233411789 -0.0040529998950660229
   vertex -0.043338000774383545 0.023083999752998352 -0.0038280000444501638
  endloop
 endfacet
 facet normal 0.04918659542861948 0.77557782054634883 -0.62933276023636087
  outer loop
   vertex -0.027036000043153763 0.024406999349594116 -0.0001500000071246177
   vertex -0.030423000454902649 0.020222999155521393 -0.0055709998123347759
   vertex -0.037822000682353973 0.021924000233411789 -0.0040529998950660229
  endloop
 endfacet
 facet normal -0.24470287540487323 0.83551402804113661 -0.49197236885323309
  outer loop
   vertex -0.027036000043153763 0.024406999349594116 -0.0001500000071246177
   vertex -0.018223000690340996 0.019943999126553535 -0.012113000266253948
   vertex -0.030423000454902649 0.020222999155521393 -0.0055709998123347759
  endloop
 endfacet
 facet normal 0.22488426492934446 0.92152097281556478 0.3165851608149754
  outer loop
   vertex -0.015258999541401863 0.024352999404072762 -0.0017859999788925052
   vertex -0.008830999955534935 0.026461999863386154 -0.012490999884903431
   vertex -0.01433899998664856 0.025054000318050385 -0.0044800001196563244
  endloop
 endfacet
 facet normal -0.025815364684265197 0.98745072770047337 0.15580316848518833
  outer loop
   vertex -0.01433899998664856 0.025054000318050385 -0.0044800001196563244
   vertex -0.008830999955534935 0.026461999863386154 -0.012490999884903431
   vertex -0.015297999605536461 0.025151999667286873 -0.005260000005364418
  endloop
 endfacet
 facet normal -0.57109597138141943 -0.51761498792722671 0.63712174326812143
  outer loop
   vertex -0.015297999605536461 0.025151999667286873 -0.005260000005364418
   vertex -0.018223000690340996 0.019943999126553535 -0.012113000266253948
   vertex -0.01433899998664856 0.025054000318050385 -0.0044800001196563244
  endloop
 endfacet
 facet normal 0.80334734231848837 -0.34102923367218441 -0.4881926969658435
  outer loop
   vertex -0.014427999965846539 0.014352999627590179 0.0098379999399185181
   vertex -0.020849000662565231 0.010273000225424767 0.0021220000926405191
   vertex -0.015258999541401863 0.024352999404072762 0.0014850000152364373
  endloop
 endfacet
 facet normal -0.14526131757826699 -0.81957658913761688 0.55425027212711031
  outer loop
   vertex -0.014427999965846539 0.014352999627590179 0.0098379999399185181
   vertex -0.03121500089764595 0.015192000195384026 0.0066789998672902584
   vertex -0.020849000662565231 0.010273000225424767 0.0021220000926405191
  endloop
 endfacet
 facet normal -0.42850138660253584 -0.90354093309759409 0.00058642717618539813
  outer loop
   vertex -0.03121500089764595 0.015192000195384026 0.0066789998672902584
   vertex -0.020850000903010368 0.01027199998497963 -0.0001500000071246177
   vertex -0.020849000662565231 0.010273000225424767 0.0021220000926405191
  endloop
 endfacet
 facet normal 0.84224834575005858 -0.30265066059998624 -0.44611691485493099
  outer loop
   vertex -0.008830999955534935 0.026461999863386154 0.012190000154078007
   vertex -0.014427999965846539 0.014352999627590179 0.0098379999399185181
   vertex -0.015258999541401863 0.024352999404072762 0.0014850000152364373
  endloop
 endfacet
 facet normal -0.42829229881439246 -0.90364006271092623 -0.00058637878248946746
  outer loop
   vertex -0.031220000237226486 0.015186999924480915 -0.0001500000071246177
   vertex -0.020849000662565231 0.010273000225424767 -0.0024220000486820936
   vertex -0.020850000903010368 0.01027199998497963 -0.0001500000071246177
  endloop
 endfacet
 facet normal 0.84224834245873736 -0.30265065745765313 0.44611692320058816
  outer loop
   vertex -0.014427999965846539 0.014352999627590179 -0.010138999670743942
   vertex -0.008830999955534935 0.026461999863386154 -0.012490999884903431
   vertex -0.015258999541401863 0.024352999404072762 -0.0017859999788925052
  endloop
 endfacet
 facet normal 0.80337458911846904 -0.34100414438032195 0.48816538496105549
  outer loop
   vertex -0.020849000662565231 0.010273000225424767 -0.0024220000486820936
   vertex -0.014427999965846539 0.014352999627590179 -0.010138999670743942
   vertex -0.015258999541401863 0.024352999404072762 -0.0017859999788925052
  endloop
 endfacet
 facet normal -0.33613931185677698 -0.91501363419942061 -0.22307041994316831
  outer loop
   vertex -0.021126000210642815 0.012848000042140484 -0.012567000463604927
   vertex -0.020849000662565231 0.010273000225424767 -0.0024220000486820936
   vertex -0.03121500089764595 0.015192000195384026 -0.0069789998233318329
  endloop
 endfacet
 facet normal 0.7999028921123208 0.5503731596302871 0.23925874769571034
  outer loop
   vertex -0.0052519999444484711 0.021226000040769577 0.012268999591469765
   vertex -0.008830999955534935 0.026461999863386154 0.012190000154078007
   vertex -0.0062710000202059746 0.022071000188589096 0.013732000254094601
  endloop
 endfacet
 facet normal -0.56989992388718769 0.81522727176553222 0.10304645614044597
  outer loop
   vertex -0.008830999955534935 0.026461999863386154 0.012190000154078007
   vertex -0.018223000690340996 0.019943999126553535 0.011812999844551086
   vertex -0.011272000148892403 0.023452999070286751 0.022494999691843987
  endloop
 endfacet
 facet normal 0.75446374945007944 0.56004745685238411 0.34224449862474743
  outer loop
   vertex -0.008830999955534935 0.026461999863386154 0.012190000154078007
   vertex -0.011272000148892403 0.023452999070286751 0.022494999691843987
   vertex -0.0062710000202059746 0.022071000188589096 0.013732000254094601
  endloop
 endfacet
 facet normal -0.44455188961096831 0.30578134359478437 0.84194500257005256
  outer loop
   vertex -0.030423000454902649 0.020222999155521393 0.0052700000815093517
   vertex -0.03121500089764595 0.015192000195384026 0.0066789998672902584
   vertex -0.018223000690340996 0.019943999126553535 0.011812999844551086
  endloop
 endfacet
 facet normal -0.42961456338201415 0.23159892160070047 0.87280769155838323
  outer loop
   vertex -0.018223000690340996 0.019943999126553535 0.011812999844551086
   vertex -0.03121500089764595 0.015192000195384026 0.0066789998672902584
   vertex -0.021126000210642815 0.012848000042140484 0.012267000041902065
  endloop
 endfacet
 facet normal -0.83027690026626733 0.36653277336811113 0.41987378452496826
  outer loop
   vertex -0.018223000690340996 0.019943999126553535 0.011812999844551086
   vertex -0.021126000210642815 0.012848000042140484 0.012267000041902065
   vertex -0.011272000148892403 0.023452999070286751 0.022494999691843987
  endloop
 endfacet
 facet normal -0.12475413211315298 0.30104748168947076 0.94541357103075352
  outer loop
   vertex -0.037822000682353973 0.021924000233411789 0.003751999931409955
   vertex -0.037204999476671219 0.015901999548077583 0.0057509997859597206
   vertex -0.030423000454902649 0.020222999155521393 0.0052700000815093517
  endloop
 endfacet
 facet normal -0.027824348375274911 0.27146224298584576 0.96204680565478973
  outer loop
   vertex -0.037822000682353973 0.021924000233411789 0.003751999931409955
   vertex -0.047974001616239548 0.014879999682307243 0.0054460000246763229
   vertex -0.043866999447345734 0.014779999852180481 0.0055929999798536301
  endloop
 endfacet
 facet normal 0.0073173435071428152 0.22383395666476774 0.97459982368549269
  outer loop
   vertex -0.043338000774383545 0.023083999752998352 0.003527000080794096
   vertex -0.047974001616239548 0.014879999682307243 0.0054460000246763229
   vertex -0.037822000682353973 0.021924000233411789 0.003751999931409955
  endloop
 endfacet
 facet normal 0.0018884350069518856 0.87628732488601546 0.48178517832882256
  outer loop
   vertex -0.043048001825809479 0.025104999542236328 -0.0001500000071246177
   vertex -0.050666999071836472 0.022665999829769135 0.0043159998022019863
   vertex -0.043338000774383545 0.023083999752998352 0.003527000080794096
  endloop
 endfacet
 facet normal 0.095494151308499087 0.17524193938930485 0.97988322250406179
  outer loop
   vertex -0.047974001616239548 0.014879999682307243 0.0054460000246763229
   vertex -0.043338000774383545 0.023083999752998352 0.003527000080794096
   vertex -0.050666999071836472 0.022665999829769135 0.0043159998022019863
  endloop
 endfacet
 facet normal 0.031466534473492659 0.73176379450233564 -0.68083155498535153
  outer loop
   vertex -0.049267999827861786 0.026760999113321304 -0.0001500000071246177
   vertex -0.043338000774383545 0.023083999752998352 -0.0038280000444501638
   vertex -0.050666999071836472 0.022665999829769135 -0.0046160002239048481
  endloop
 endfacet
 facet normal 0.0072951889634140024 0.22373313064786673 -0.97462314074132916
  outer loop
   vertex -0.047974001616239548 0.014879999682307243 -0.0057459999807178974
   vertex -0.043338000774383545 0.023083999752998352 -0.0038280000444501638
   vertex -0.037822000682353973 0.021924000233411789 -0.0040529998950660229
  endloop
 endfacet
 facet normal 0.095365052617957177 0.17520013805638371 -0.97990326990177878
  outer loop
   vertex -0.043338000774383545 0.023083999752998352 -0.0038280000444501638
   vertex -0.047974001616239548 0.014879999682307243 -0.0057459999807178974
   vertex -0.050666999071836472 0.022665999829769135 -0.0046160002239048481
  endloop
 endfacet
 facet normal -0.027828555187402623 0.27133998808568821 -0.96208117244951863
  outer loop
   vertex -0.047974001616239548 0.014879999682307243 -0.0057459999807178974
   vertex -0.037822000682353973 0.021924000233411789 -0.0040529998950660229
   vertex -0.043866999447345734 0.014779999852180481 -0.0058929999358952045
  endloop
 endfacet
 facet normal 0.056686048994174461 -0.19790382607881535 0.97858099688926936
  outer loop
   vertex -0.043866999447345734 0.014779999852180481 -0.0058929999358952045
   vertex -0.037204999476671219 0.015901999548077583 -0.0060519999824464321
   vertex -0.030423000454902649 0.020222999155521393 -0.0055709998123347759
  endloop
 endfacet
 facet normal -0.18791335414934615 -0.43671803998981579 -0.87975333183784876
  outer loop
   vertex -0.037204999476671219 0.015901999548077583 -0.0060519999824464321
   vertex -0.018223000690340996 0.019943999126553535 -0.012113000266253948
   vertex -0.03121500089764595 0.015192000195384026 -0.0069789998233318329
  endloop
 endfacet
 facet normal -0.69233000540775047 0.68546533036770751 -0.22542503072195336
  outer loop
   vertex -0.015297999605536461 0.025151999667286873 -0.005260000005364418
   vertex -0.011272000148892403 0.023452999070286751 -0.022791000083088875
   vertex -0.018223000690340996 0.019943999126553535 -0.012113000266253948
  endloop
 endfacet
 facet normal -0.4296145918827215 0.23159893218323613 -0.87280767472165799
  outer loop
   vertex -0.03121500089764595 0.015192000195384026 -0.0069789998233318329
   vertex -0.018223000690340996 0.019943999126553535 -0.012113000266253948
   vertex -0.021126000210642815 0.012848000042140484 -0.012567000463604927
  endloop
 endfacet
 facet normal -0.83022019391763779 0.36651759514169335 -0.41999914531211791
  outer loop
   vertex -0.021126000210642815 0.012848000042140484 -0.012567000463604927
   vertex -0.018223000690340996 0.019943999126553535 -0.012113000266253948
   vertex -0.011272000148892403 0.023452999070286751 -0.022791000083088875
  endloop
 endfacet
 facet normal 0.46206346691533817 -0.041505563089260206 0.88587507063627313
  outer loop
   vertex -0.014427999965846539 0.014352999627590179 -0.010138999670743942
   vertex -0.0062710000202059746 0.022071000188589096 -0.014031999744474888
   vertex -0.008830999955534935 0.026461999863386154 -0.012490999884903431
  endloop
 endfacet
 facet normal 0.75443175894339654 0.56000180123001464 -0.34238969569295141
  outer loop
   vertex -0.011272000148892403 0.023452999070286751 -0.022791000083088875
   vertex -0.008830999955534935 0.026461999863386154 -0.012490999884903431
   vertex -0.0062710000202059746 0.022071000188589096 -0.014031999744474888
  endloop
 endfacet
 facet normal 0.078001197641212508 0.23826846894546019 -0.96806195559629482
  outer loop
   vertex -0.0052519999444484711 0.021226000040769577 0.012268999591469765
   vertex -0.0025430000387132168 0.014902999624609947 0.010931000113487244
   vertex -0.014427999965846539 0.014352999627590179 0.0098379999399185181
  endloop
 endfacet
 facet normal 0.08310861111178415 0.15909590037410762 -0.98375883896574079
  outer loop
   vertex -0.0025430000387132168 0.014902999624609947 0.010931000113487244
   vertex -0.0066260001622140408 0.01019699964672327 0.0098249996080994606
   vertex -0.014427999965846539 0.014352999627590179 0.0098379999399185181
  endloop
 endfacet
 facet normal -0.3331153593638615 -0.62755401001778277 0.70371167523815192
  outer loop
   vertex -0.0030499999411404133 0.020895000547170639 0.02105800062417984
   vertex -0.014427999965846539 0.014352999627590179 0.0098379999399185181
   vertex -0.0066260001622140408 0.01019699964672327 0.0098249996080994606
  endloop
 endfacet
 facet normal 0.29490901981314144 -0.92484601189901483 0.24018435483465503
  outer loop
   vertex -0.0030499999411404133 0.020895000547170639 0.02105800062417984
   vertex -0.021126000210642815 0.012848000042140484 0.012267000041902065
   vertex -0.014427999965846539 0.014352999627590179 0.0098379999399185181
  endloop
 endfacet
 facet normal 0.11782181192882633 0.99303446759478309 -0.00075286290510097526
  outer loop
   vertex -0.037209000438451767 0.015898000448942184 -0.0001500000071246177
   vertex -0.037204999476671219 0.015901999548077583 0.0057509997859597206
   vertex -0.03121500089764595 0.015192000195384026 0.0066789998672902584
  endloop
 endfacet
 facet normal -0.76890883201471205 0.63387548011460926 0.083552880017656539
  outer loop
   vertex -0.021126000210642815 0.012848000042140484 0.012267000041902065
   vertex -0.014942999929189682 0.018778000026941299 0.024179000407457352
   vertex -0.011272000148892403 0.023452999070286751 0.022494999691843987
  endloop
 endfacet
 facet normal -0.84768069167696924 0.49366937757507506 0.19423694448454684
  outer loop
   vertex -0.021126000210642815 0.012848000042140484 0.012267000041902065
   vertex -0.019693000242114067 0.013288999907672405 0.017400000244379044
   vertex -0.014942999929189682 0.018778000026941299 0.024179000407457352
  endloop
 endfacet
 facet normal -0.71543546513501322 0.68431610057960945 0.14093817692366081
  outer loop
   vertex -0.021126000210642815 0.012848000042140484 0.012267000041902065
   vertex -0.018587000668048859 0.013356000185012817 0.022688999772071838
   vertex -0.019693000242114067 0.013288999907672405 0.017400000244379044
  endloop
 endfacet
 facet normal -0.1178309166617767 -0.99303333957413975 -0.00081337130306941669
  outer loop
   vertex -0.031220000237226486 0.015186999924480915 -0.0001500000071246177
   vertex -0.037204999476671219 0.015901999548077583 -0.0060519999824464321
   vertex -0.03121500089764595 0.015192000195384026 -0.0069789998233318329
  endloop
 endfacet
 facet normal 0.077912726249509359 0.23837956262052082 0.96804173009907901
  outer loop
   vertex -0.0025430000387132168 0.014902999624609947 -0.011230999603867531
   vertex -0.0052519999444484711 0.021226000040769577 -0.012570000253617764
   vertex -0.014427999965846539 0.014352999627590179 -0.010138999670743942
  endloop
 endfacet
 facet normal 0.083034861544362765 0.15895732045333696 0.9837874679231301
  outer loop
   vertex -0.0066260001622140408 0.01019699964672327 -0.010126000270247459
   vertex -0.0025430000387132168 0.014902999624609947 -0.011230999603867531
   vertex -0.014427999965846539 0.014352999627590179 -0.010138999670743942
  endloop
 endfacet
 facet normal -0.33304151908258312 -0.62741572794803746 -0.70386991048815251
  outer loop
   vertex -0.014427999965846539 0.014352999627590179 -0.010138999670743942
   vertex -0.0030499999411404133 0.020895000547170639 -0.021353999152779579
   vertex -0.0066260001622140408 0.01019699964672327 -0.010126000270247459
  endloop
 endfacet
 facet normal 0.21736776951067663 -0.97607494933003969 0.0053801550455085095
  outer loop
   vertex -0.018587000668048859 0.013356000185012817 -0.022985000163316727
   vertex -0.014427999965846539 0.014352999627590179 -0.010138999670743942
   vertex -0.021126000210642815 0.012848000042140484 -0.012567000463604927
  endloop
 endfacet
 facet normal -0.7689031249438899 0.63387934744162211 -0.083576057208413018
  outer loop
   vertex -0.014942999929189682 0.018778000026941299 -0.02447500079870224
   vertex -0.021126000210642815 0.012848000042140484 -0.012567000463604927
   vertex -0.011272000148892403 0.023452999070286751 -0.022791000083088875
  endloop
 endfacet
 facet normal -0.84761669647039339 0.49379034889440288 -0.19420872071912981
  outer loop
   vertex -0.019693000242114067 0.013288999907672405 -0.017699999734759331
   vertex -0.021126000210642815 0.012848000042140484 -0.012567000463604927
   vertex -0.014942999929189682 0.018778000026941299 -0.02447500079870224
  endloop
 endfacet
 facet normal -0.71613586390371597 0.683528781633152 -0.1412013778614683
  outer loop
   vertex -0.018587000668048859 0.013356000185012817 -0.022985000163316727
   vertex -0.021126000210642815 0.012848000042140484 -0.012567000463604927
   vertex -0.019693000242114067 0.013288999907672405 -0.017699999734759331
  endloop
 endfacet
 facet normal -0.56919498441831728 0.56719220207224597 -0.59523951113939688
  outer loop
   vertex 0.00056499999482184649 0.02456899918615818 0.0098919998854398727
   vertex -0.0052519999444484711 0.021226000040769577 0.012268999591469765
   vertex 0.00080699997488409281 0.025961000472307205 0.010986999608576298
  endloop
 endfacet
 facet normal -0.28012519711377681 0.56798685424717121 0.77389973985288973
  outer loop
   vertex 0.00080699997488409281 0.025961000472307205 0.010986999608576298
   vertex -0.0052519999444484711 0.021226000040769577 0.012268999591469765
   vertex -0.0020330001134425402 0.021619999781250954 0.013144999742507935
  endloop
 endfacet
 facet normal 0.02553318305241525 0.87325647440519683 -0.48659139580619154
  outer loop
   vertex -0.0020330001134425402 0.021619999781250954 0.013144999742507935
   vertex -0.0052519999444484711 0.021226000040769577 0.012268999591469765
   vertex -0.0062710000202059746 0.022071000188589096 0.013732000254094601
  endloop
 endfacet
 facet normal 0.36057106252286875 0.69249072407133627 -0.62485606818393458
  outer loop
   vertex -0.00060099997790530324 0.021748999133706093 0.01664699986577034
   vertex -0.0062710000202059746 0.022071000188589096 0.013732000254094601
   vertex -0.0039539998397231102 0.0252119991928339 0.018549999222159386
  endloop
 endfacet
 facet normal -0.39687517629314989 0.84446700759006676 -0.35967425197553321
  outer loop
   vertex -0.0039539998397231102 0.0252119991928339 0.018549999222159386
   vertex -0.0062710000202059746 0.022071000188589096 0.013732000254094601
   vertex -0.011272000148892403 0.023452999070286751 0.022494999691843987
  endloop
 endfacet
 facet normal -0.56645705817997472 0.6343117138153499 0.52609414647449027
  outer loop
   vertex -0.011272000148892403 0.023452999070286751 0.022494999691843987
   vertex -0.014942999929189682 0.018778000026941299 0.024179000407457352
   vertex -0.0086009996011853218 0.024035999551415443 0.024668000638484955
  endloop
 endfacet
 facet normal -0.35461994869509522 0.89900469996841847 -0.25697323094474644
  outer loop
   vertex -0.011272000148892403 0.023452999070286751 0.022494999691843987
   vertex -0.00058799999533221126 0.028069000691175461 0.023900000378489494
   vertex -0.0039539998397231102 0.0252119991928339 0.018549999222159386
  endloop
 endfacet
 facet normal -0.1660657392320832 0.98611451873031808 -0.00057114146642562485
  outer loop
   vertex -0.043871000409126282 0.014775999821722507 -0.0001500000071246177
   vertex -0.043866999447345734 0.014779999852180481 0.0055929999798536301
   vertex -0.037204999476671219 0.015901999548077583 0.0057509997859597206
  endloop
 endfacet
 facet normal -0.024367582277479906 -0.99970279839416099 0.00073199510512482761
  outer loop
   vertex -0.047977998852729797 0.01487599965184927 -0.0001500000071246177
   vertex -0.043866999447345734 0.014779999852180481 0.0055929999798536301
   vertex -0.047974001616239548 0.014879999682307243 0.0054460000246763229
  endloop
 endfacet
 facet normal -0.99416073862910082 -0.10790646868995617 0.00078726317333063746
  outer loop
   vertex -0.047977998852729797 0.01487599965184927 -0.0001500000071246177
   vertex -0.047974001616239548 0.014879999682307243 0.0054460000246763229
   vertex -0.049267999827861786 0.026760999113321304 -0.0001500000071246177
  endloop
 endfacet
 facet normal -0.021600380449915895 -0.42793010016691174 -0.90355368016269844
  outer loop
   vertex -0.052060000598430634 0.017696000635623932 0.0042099999263882637
   vertex -0.049267999827861786 0.026760999113321304 -0.0001500000071246177
   vertex -0.047974001616239548 0.014879999682307243 0.0054460000246763229
  endloop
 endfacet
 facet normal -0.25658113849901854 0.051330232611153388 0.96515870538820325
  outer loop
   vertex -0.052060000598430634 0.017696000635623932 0.0042099999263882637
   vertex -0.047974001616239548 0.014879999682307243 0.0054460000246763229
   vertex -0.050666999071836472 0.022665999829769135 0.0043159998022019863
  endloop
 endfacet
 facet normal -0.96124357416995465 0.27055053795702882 -0.053039584539597381
  outer loop
   vertex -0.050666999071836472 0.022665999829769135 0.0043159998022019863
   vertex -0.049267999827861786 0.026760999113321304 -0.0001500000071246177
   vertex -0.052060000598430634 0.017696000635623932 0.0042099999263882637
  endloop
 endfacet
 facet normal -0.99416073862909438 -0.10790646868995547 -0.00078726318151947226
  outer loop
   vertex -0.047974001616239548 0.014879999682307243 -0.0057459999807178974
   vertex -0.047977998852729797 0.01487599965184927 -0.0001500000071246177
   vertex -0.049267999827861786 0.026760999113321304 -0.0001500000071246177
  endloop
 endfacet
 facet normal -0.96124580708588514 0.27054069951941279 0.053049300309729527
  outer loop
   vertex -0.049267999827861786 0.026760999113321304 -0.0001500000071246177
   vertex -0.050666999071836472 0.022665999829769135 -0.0046160002239048481
   vertex -0.052060000598430634 0.017696000635623932 -0.0045110001228749752
  endloop
 endfacet
 facet normal -0.021839157527451039 -0.42794914889918345 0.90353891845064183
  outer loop
   vertex -0.049267999827861786 0.026760999113321304 -0.0001500000071246177
   vertex -0.052060000598430634 0.017696000635623932 -0.0045110001228749752
   vertex -0.047974001616239548 0.014879999682307243 -0.0057459999807178974
  endloop
 endfacet
 facet normal -0.25628994851339082 0.051441260929530101 -0.96523015854509209
  outer loop
   vertex -0.047974001616239548 0.014879999682307243 -0.0057459999807178974
   vertex -0.052060000598430634 0.017696000635623932 -0.0045110001228749752
   vertex -0.050666999071836472 0.022665999829769135 -0.0046160002239048481
  endloop
 endfacet
 facet normal -0.024366912930687074 -0.99970282824164802 -0.00071327405537881543
  outer loop
   vertex -0.043871000409126282 0.014775999821722507 -0.0001500000071246177
   vertex -0.047974001616239548 0.014879999682307243 -0.0057459999807178974
   vertex -0.043866999447345734 0.014779999852180481 -0.0058929999358952045
  endloop
 endfacet
 facet normal -0.16606601801439586 0.9861144806616019 0.00055559908329479504
  outer loop
   vertex -0.037209000438451767 0.015898000448942184 -0.0001500000071246177
   vertex -0.037204999476671219 0.015901999548077583 -0.0060519999824464321
   vertex -0.043866999447345734 0.014779999852180481 -0.0058929999358952045
  endloop
 endfacet
 facet normal -0.56598432688393996 0.63418057530341354 -0.52676060941338887
  outer loop
   vertex -0.014942999929189682 0.018778000026941299 -0.02447500079870224
   vertex -0.011272000148892403 0.023452999070286751 -0.022791000083088875
   vertex -0.0086009996011853218 0.024035999551415443 -0.024958999827504158
  endloop
 endfacet
 facet normal -0.45637277446789459 0.871550325584036 0.17923147240046036
  outer loop
   vertex -0.0086009996011853218 0.024035999551415443 -0.024958999827504158
   vertex -0.0039539998397231102 0.0252119991928339 -0.018844999372959137
   vertex -0.00058799999533221126 0.028069000691175461 -0.024166999384760857
  endloop
 endfacet
 facet normal -0.39700310543979384 0.84431593400253335 0.35988767394923304
  outer loop
   vertex -0.0062710000202059746 0.022071000188589096 -0.014031999744474888
   vertex -0.0039539998397231102 0.0252119991928339 -0.018844999372959137
   vertex -0.011272000148892403 0.023452999070286751 -0.022791000083088875
  endloop
 endfacet
 facet normal 0.012661077639681478 0.83457681317054055 0.55074607581997959
  outer loop
   vertex -0.0020330001134425402 0.021619999781250954 -0.013446000404655933
   vertex -0.0039539998397231102 0.0252119991928339 -0.018844999372959137
   vertex -0.0062710000202059746 0.022071000188589096 -0.014031999744474888
  endloop
 endfacet
 facet normal 0.025605864636046621 0.87313574758764911 0.48680417621544458
  outer loop
   vertex -0.0052519999444484711 0.021226000040769577 -0.012570000253617764
   vertex -0.0020330001134425402 0.021619999781250954 -0.013446000404655933
   vertex -0.0062710000202059746 0.022071000188589096 -0.014031999744474888
  endloop
 endfacet
 facet normal -0.2708247750322389 0.086987602904164962 0.95869030357552087
  outer loop
   vertex -0.0025430000387132168 0.014902999624609947 -0.011230999603867531
   vertex 0.00080699997488409281 0.025961000472307205 -0.011288000270724297
   vertex -0.0052519999444484711 0.021226000040769577 -0.012570000253617764
  endloop
 endfacet
 facet normal -0.28012519711377681 0.56798685424717121 -0.77389973985288973
  outer loop
   vertex -0.0052519999444484711 0.021226000040769577 -0.012570000253617764
   vertex 0.00080699997488409281 0.025961000472307205 -0.011288000270724297
   vertex -0.0020330001134425402 0.021619999781250954 -0.013446000404655933
  endloop
 endfacet
 facet normal -0.51401248594553139 0.25336463612362042 0.8195105401726327
  outer loop
   vertex 0.00056499999482184649 0.02456899918615818 0.0098919998854398727
   vertex -0.0066260001622140408 0.01019699964672327 0.0098249996080994606
   vertex -0.0025430000387132168 0.014902999624609947 0.010931000113487244
  endloop
 endfacet
 facet normal -0.86091414098224051 0.43200920524931652 -0.26869106504806778
  outer loop
   vertex 0.00056499999482184649 0.02456899918615818 0.0098919998854398727
   vertex -0.0055240001529455185 0.008833000436425209 0.0041009997949004173
   vertex -0.0066260001622140408 0.01019699964672327 0.0098249996080994606
  endloop
 endfacet
 facet normal -0.30723915777878558 -0.93735639226742307 0.16421660635509247
  outer loop
   vertex 0.012721000239253044 0.0036309999413788319 0.0085429996252059937
   vertex -0.0066260001622140408 0.01019699964672327 0.0098249996080994606
   vertex -0.0055240001529455185 0.008833000436425209 0.0041009997949004173
  endloop
 endfacet
 facet normal -0.28065802815162433 -0.9583093714474421 0.053611750857911665
  outer loop
   vertex 0.0099640004336833954 0.0056280000135302544 0.015003000386059284
   vertex 0.0064269998110830784 0.0067619998008012772 0.016757000237703323
   vertex -0.0066260001622140408 0.01019699964672327 0.0098249996080994606
  endloop
 endfacet
 facet normal -0.50952368782364699 -0.41448959886270431 0.75404508086799782
  outer loop
   vertex 0.0064269998110830784 0.0067619998008012772 0.016757000237703323
   vertex 0.0040549999102950096 0.012664999812841415 0.01839900016784668
   vertex -0.0066260001622140408 0.01019699964672327 0.0098249996080994606
  endloop
 endfacet
 facet normal -0.42026685856499651 -0.58651391889561399 0.69237070311619808
  outer loop
   vertex -0.0066260001622140408 0.01019699964672327 0.0098249996080994606
   vertex 0.0040549999102950096 0.012664999812841415 0.01839900016784668
   vertex -0.0030499999411404133 0.020895000547170639 0.02105800062417984
  endloop
 endfacet
 facet normal 0.83396776244727322 0.39718459754916252 0.38306940189526778
  outer loop
   vertex -0.00084200000856071711 0.018942000344395638 0.018276000395417213
   vertex -0.0039539998397231102 0.0252119991928339 0.018549999222159386
   vertex -0.0030499999411404133 0.020895000547170639 0.02105800062417984
  endloop
 endfacet
 facet normal 0.8658016549168287 -0.10315730767267788 -0.48963870784181796
  outer loop
   vertex -0.0030499999411404133 0.020895000547170639 0.02105800062417984
   vertex -0.0039539998397231102 0.0252119991928339 0.018549999222159386
   vertex -0.00058799999533221126 0.028069000691175461 0.023900000378489494
  endloop
 endfacet
 facet normal 0.76812615666092499 -0.4457172958020808 0.4596937020192865
  outer loop
   vertex -0.0030499999411404133 0.020895000547170639 0.02105800062417984
   vertex -0.00058799999533221126 0.028069000691175461 0.023900000378489494
   vertex -0.0028039999306201935 0.026386000216007233 0.025970999151468277
  endloop
 endfacet
 facet normal 0.925814348382209 -0.37396332561385059 -0.054947460591503246
  outer loop
   vertex -0.0030499999411404133 0.020895000547170639 0.02105800062417984
   vertex -0.0014149999478831887 0.023886000737547874 0.028249999508261681
   vertex -0.0029959999956190586 0.02056100033223629 0.024241000413894653
  endloop
 endfacet
 facet normal 0.36855054972616214 -0.84389052778811213 -0.38989648550101769
  outer loop
   vertex -0.0030499999411404133 0.020895000547170639 0.02105800062417984
   vertex -0.0044590001925826073 0.015986999496817589 0.030348999425768852
   vertex -0.018587000668048859 0.013356000185012817 0.022688999772071838
  endloop
 endfacet
 facet normal 0.32960257448725105 -0.85452995403183396 -0.40142334330943913
  outer loop
   vertex -0.0030499999411404133 0.020895000547170639 0.02105800062417984
   vertex -0.0015330000314861536 0.017551999539136887 0.029419999569654465
   vertex -0.0044590001925826073 0.015986999496817589 0.030348999425768852
  endloop
 endfacet
 facet normal 0.47560961161549925 0.87565427038001831 0.083815846378783546
  outer loop
   vertex -0.0029959999956190586 0.02056100033223629 0.024241000413894653
   vertex 0.0021979999728500843 0.018188999965786934 0.019548999145627022
   vertex -0.0030499999411404133 0.020895000547170639 0.02105800062417984
  endloop
 endfacet
 facet normal 0.35531362192572297 0.87397589534050069 -0.33153938595255089
  outer loop
   vertex -0.0030499999411404133 0.020895000547170639 0.02105800062417984
   vertex 0.0021979999728500843 0.018188999965786934 0.019548999145627022
   vertex -0.00084200000856071711 0.018942000344395638 0.018276000395417213
  endloop
 endfacet
 facet normal -0.62852755085842882 -0.76386729816385379 -0.14649187215596424
  outer loop
   vertex 0.0013660000404343009 0.016161000356078148 0.026796000078320503
   vertex -0.0030499999411404133 0.020895000547170639 0.02105800062417984
   vertex 0.0036919999402016401 0.015107999555766582 0.022306999191641808
  endloop
 endfacet
 facet normal -0.64498915988780059 -0.6734911754964692 0.3611074911374913
  outer loop
   vertex 0.0036919999402016401 0.015107999555766582 0.022306999191641808
   vertex -0.0030499999411404133 0.020895000547170639 0.02105800062417984
   vertex 0.0040549999102950096 0.012664999812841415 0.01839900016784668
  endloop
 endfacet
 facet normal -0.57247838097535775 -0.79184730290164829 -0.21271189953366174
  outer loop
   vertex -0.0030499999411404133 0.020895000547170639 0.02105800062417984
   vertex 0.0013660000404343009 0.016161000356078148 0.026796000078320503
   vertex -0.0015330000314861536 0.017551999539136887 0.029419999569654465
  endloop
 endfacet
 facet normal -0.8389118422617533 0.51740583025392051 0.16887311133582658
  outer loop
   vertex -0.019693000242114067 0.013288999907672405 0.017400000244379044
   vertex -0.018587000668048859 0.013356000185012817 0.022688999772071838
   vertex -0.014942999929189682 0.018778000026941299 0.024179000407457352
  endloop
 endfacet
 facet normal -0.52522213786425176 0.12153625905010944 0.84224144022566938
  outer loop
   vertex -0.014942999929189682 0.018778000026941299 0.024179000407457352
   vertex -0.018587000668048859 0.013356000185012817 0.022688999772071838
   vertex -0.0067389998584985733 0.02314399927854538 0.028665000572800636
  endloop
 endfacet
 facet normal -0.48341201264975864 0.051616136865314639 0.87386989903589818
  outer loop
   vertex -0.0067389998584985733 0.02314399927854538 0.028665000572800636
   vertex -0.018587000668048859 0.013356000185012817 0.022688999772071838
   vertex -0.0044590001925826073 0.015986999496817589 0.030348999425768852
  endloop
 endfacet
 facet normal -0.59588466682045116 0.6788281662388691 0.4290848221145257
  outer loop
   vertex -0.0086009996011853218 0.024035999551415443 0.024668000638484955
   vertex -0.014942999929189682 0.018778000026941299 0.024179000407457352
   vertex -0.0067389998584985733 0.02314399927854538 0.028665000572800636
  endloop
 endfacet
 facet normal -0.51369407614491769 0.25320421184959369 -0.81975973506585786
  outer loop
   vertex -0.0066260001622140408 0.01019699964672327 -0.010126000270247459
   vertex 0.00056499999482184649 0.02456899918615818 -0.010192999616265297
   vertex -0.0025430000387132168 0.014902999624609947 -0.011230999603867531
  endloop
 endfacet
 facet normal -0.86092510037681713 0.43201446818355926 0.26864748430097707
  outer loop
   vertex -0.0055240001529455185 0.008833000436425209 -0.0044010002166032791
   vertex 0.00056499999482184649 0.02456899918615818 -0.010192999616265297
   vertex -0.0066260001622140408 0.01019699964672327 -0.010126000270247459
  endloop
 endfacet
 facet normal -0.3090961844598562 -0.93683500013862464 -0.16370623466325854
  outer loop
   vertex 0.0099640004336833954 0.0056280000135302544 -0.015302999876439571
   vertex -0.0055240001529455185 0.008833000436425209 -0.0044010002166032791
   vertex -0.0066260001622140408 0.01019699964672327 -0.010126000270247459
  endloop
 endfacet
 facet normal -0.28065102785311818 -0.95831223796431042 -0.053597156014318977
  outer loop
   vertex 0.0064269998110830784 0.0067619998008012772 -0.017057999968528748
   vertex 0.0099640004336833954 0.0056280000135302544 -0.015302999876439571
   vertex -0.0066260001622140408 0.01019699964672327 -0.010126000270247459
  endloop
 endfacet
 facet normal -0.50952598119989612 -0.41437918851651978 -0.75410421203350508
  outer loop
   vertex 0.0040549999102950096 0.012664999812841415 -0.018698999658226967
   vertex 0.0064269998110830784 0.0067619998008012772 -0.017057999968528748
   vertex -0.0066260001622140408 0.01019699964672327 -0.010126000270247459
  endloop
 endfacet
 facet normal -0.42035638165757011 -0.58629648572927195 -0.69250050052058487
  outer loop
   vertex 0.0040549999102950096 0.012664999812841415 -0.018698999658226967
   vertex -0.0066260001622140408 0.01019699964672327 -0.010126000270247459
   vertex -0.0030499999411404133 0.020895000547170639 -0.021353999152779579
  endloop
 endfacet
 facet normal 0.74292020298067907 0.44578541670935756 -0.49934450457816298
  outer loop
   vertex -0.00060099997790530324 0.021748999133706093 -0.016947999596595764
   vertex -0.0030499999411404133 0.020895000547170639 -0.021353999152779579
   vertex -0.0039539998397231102 0.0252119991928339 -0.018844999372959137
  endloop
 endfacet
 facet normal 0.86487848903209397 -0.10427351512484985 0.4910318047266079
  outer loop
   vertex -0.0039539998397231102 0.0252119991928339 -0.018844999372959137
   vertex -0.0030499999411404133 0.020895000547170639 -0.021353999152779579
   vertex -0.00058799999533221126 0.028069000691175461 -0.024166999384760857
  endloop
 endfacet
 facet normal 0.76828547999392349 -0.44433396933506192 -0.46076539032945474
  outer loop
   vertex -0.00058799999533221126 0.028069000691175461 -0.024166999384760857
   vertex -0.0030499999411404133 0.020895000547170639 -0.021353999152779579
   vertex -0.0028039999306201935 0.026386000216007233 -0.026239000260829926
  endloop
 endfacet
 facet normal 0.89412203876508789 0.098545123274685634 0.43684624122606319
  outer loop
   vertex -0.0028039999306201935 0.026386000216007233 -0.026239000260829926
   vertex -0.0029959999956190586 0.02056100033223629 -0.024531999602913857
   vertex -0.0014149999478831887 0.023886000737547874 -0.028518000617623329
  endloop
 endfacet
 facet normal 0.36826966185534826 -0.84353521156308686 0.39092940924182945
  outer loop
   vertex -0.0044590001925826073 0.015986999496817589 -0.030617000535130501
   vertex -0.0030499999411404133 0.020895000547170639 -0.021353999152779579
   vertex -0.018587000668048859 0.013356000185012817 -0.022985000163316727
  endloop
 endfacet
 facet normal 0.33209654631270713 -0.8534425367447297 0.40168111780601889
  outer loop
   vertex -0.0015330000314861536 0.017551999539136887 -0.029711000621318817
   vertex -0.0030499999411404133 0.020895000547170639 -0.021353999152779579
   vertex -0.0044590001925826073 0.015986999496817589 -0.030617000535130501
  endloop
 endfacet
 facet normal 0.50312663666496293 0.84151742780702599 -0.19675366877201833
  outer loop
   vertex 0.0024540000595152378 0.017128000035881996 -0.023391000926494598
   vertex -0.0030499999411404133 0.020895000547170639 -0.021353999152779579
   vertex 0.0021979999728500843 0.018187999725341797 -0.019511999562382698
  endloop
 endfacet
 facet normal 0.32672918089208691 0.87556602059029343 0.35585416386669416
  outer loop
   vertex 0.0021979999728500843 0.018187999725341797 -0.019511999562382698
   vertex -0.0030499999411404133 0.020895000547170639 -0.021353999152779579
   vertex -0.00084200000856071711 0.018942000344395638 -0.018575999885797501
  endloop
 endfacet
 facet normal -0.6284910070758436 -0.76386319949390746 0.14666992358258971
  outer loop
   vertex -0.0030499999411404133 0.020895000547170639 -0.021353999152779579
   vertex 0.0013660000404343009 0.016161000356078148 -0.027086000889539719
   vertex 0.0036919999402016401 0.015107999555766582 -0.022602999582886696
  endloop
 endfacet
 facet normal -0.64494383885112938 -0.67337341797004879 -0.36140792008380584
  outer loop
   vertex -0.0030499999411404133 0.020895000547170639 -0.021353999152779579
   vertex 0.0036919999402016401 0.015107999555766582 -0.022602999582886696
   vertex 0.0040549999102950096 0.012664999812841415 -0.018698999658226967
  endloop
 endfacet
 facet normal -0.57257532836158309 -0.79175741547294654 0.2127855455505033
  outer loop
   vertex 0.0013660000404343009 0.016161000356078148 -0.027086000889539719
   vertex -0.0030499999411404133 0.020895000547170639 -0.021353999152779579
   vertex -0.0015330000314861536 0.017551999539136887 -0.029711000621318817
  endloop
 endfacet
 facet normal -0.83890896405442494 0.51736881648591104 -0.16900076259324801
  outer loop
   vertex -0.018587000668048859 0.013356000185012817 -0.022985000163316727
   vertex -0.019693000242114067 0.013288999907672405 -0.017699999734759331
   vertex -0.014942999929189682 0.018778000026941299 -0.02447500079870224
  endloop
 endfacet
 facet normal -0.52467715828086881 0.12105773527504433 -0.84264992986909426
  outer loop
   vertex -0.018587000668048859 0.013356000185012817 -0.022985000163316727
   vertex -0.014942999929189682 0.018778000026941299 -0.02447500079870224
   vertex -0.0067389998584985733 0.02314399927854538 -0.028955999761819839
  endloop
 endfacet
 facet normal -0.48183037274304541 0.049542382055211852 -0.87486287170195609
  outer loop
   vertex -0.018587000668048859 0.013356000185012817 -0.022985000163316727
   vertex -0.0067389998584985733 0.02314399927854538 -0.028955999761819839
   vertex -0.0044590001925826073 0.015986999496817589 -0.030617000535130501
  endloop
 endfacet
 facet normal -0.59570011701076286 0.67901771771725872 -0.42904115142886784
  outer loop
   vertex -0.014942999929189682 0.018778000026941299 -0.02447500079870224
   vertex -0.0086009996011853218 0.024035999551415443 -0.024958999827504158
   vertex -0.0067389998584985733 0.02314399927854538 -0.028955999761819839
  endloop
 endfacet
 facet normal -0.54550266345510701 0.69402804599848811 -0.46984243691997923
  outer loop
   vertex 0.0035039999056607485 0.02807999961078167 0.011665999889373779
   vertex 0.0028540000785142183 0.023164000362157822 0.0051589999347925186
   vertex 0.00056499999482184649 0.02456899918615818 0.0098919998854398727
  endloop
 endfacet
 facet normal 0.50672931388158637 0.47687172296163399 -0.71820523688754812
  outer loop
   vertex 0.0047089997678995132 0.026847999542951584 0.014329000376164913
   vertex 0.00056499999482184649 0.02456899918615818 0.0098919998854398727
   vertex 0.00080699997488409281 0.025961000472307205 0.010986999608576298
  endloop
 endfacet
 facet normal 0.30006453266955574 0.94428997246469037 -0.13519513355308113
  outer loop
   vertex 0.0028540000785142183 0.023164000362157822 0.0051589999347925186
   vertex 0.0018329999875277281 0.023091999813914299 0.0023900000378489494
   vertex 0.00056499999482184649 0.02456899918615818 0.0098919998854398727
  endloop
 endfacet
 facet normal -0.8755885786183093 0.42398924665196214 -0.23146870137595371
  outer loop
   vertex 0.0018329999875277281 0.023091999813914299 0.0023900000378489494
   vertex -0.0055240001529455185 0.008833000436425209 0.0041009997949004173
   vertex 0.00056499999482184649 0.02456899918615818 0.0098919998854398727
  endloop
 endfacet
 facet normal -0.59759417034846241 0.79472371089568761 -0.10627996474275124
  outer loop
   vertex 0.0047089997678995132 0.026847999542951584 0.014329000376164913
   vertex -0.0020330001134425402 0.021619999781250954 0.013144999742507935
   vertex 0.0036410000175237656 0.026229999959468842 0.015713000670075417
  endloop
 endfacet
 facet normal -0.67628996610110448 0.6925427339617688 0.25103076183552814
  outer loop
   vertex 0.0036410000175237656 0.026229999959468842 0.015713000670075417
   vertex -0.0020330001134425402 0.021619999781250954 0.013144999742507935
   vertex -0.00060099997790530324 0.021748999133706093 0.01664699986577034
  endloop
 endfacet
 facet normal -0.34503640844700217 0.49309570228628335 0.79862788909027638
  outer loop
   vertex -0.00084200000856071711 0.018942000344395638 0.018276000395417213
   vertex 0.0036410000175237656 0.026229999959468842 0.015713000670075417
   vertex -0.00060099997790530324 0.021748999133706093 0.01664699986577034
  endloop
 endfacet
 facet normal -0.4129071954943534 0.87105024569229716 0.26604345018882997
  outer loop
   vertex -0.0028039999306201935 0.026386000216007233 0.025970999151468277
   vertex -0.00058799999533221126 0.028069000691175461 0.023900000378489494
   vertex -0.0086009996011853218 0.024035999551415443 0.024668000638484955
  endloop
 endfacet
 facet normal -0.41957172589830732 0.82459368358981955 0.37947967509537084
  outer loop
   vertex -0.0067389998584985733 0.02314399927854538 0.028665000572800636
   vertex -0.0028039999306201935 0.026386000216007233 0.025970999151468277
   vertex -0.0086009996011853218 0.024035999551415443 0.024668000638484955
  endloop
 endfacet
 facet normal -0.41209058770213447 0.87117751651739961 -0.26689151774060826
  outer loop
   vertex -0.00058799999533221126 0.028069000691175461 -0.024166999384760857
   vertex -0.0028039999306201935 0.026386000216007233 -0.026239000260829926
   vertex -0.0086009996011853218 0.024035999551415443 -0.024958999827504158
  endloop
 endfacet
 facet normal -0.41831174034943691 0.82541870861935207 -0.37907683040115553
  outer loop
   vertex -0.0028039999306201935 0.026386000216007233 -0.026239000260829926
   vertex -0.0067389998584985733 0.02314399927854538 -0.028955999761819839
   vertex -0.0086009996011853218 0.024035999551415443 -0.024958999827504158
  endloop
 endfacet
 facet normal -0.68087309665537088 0.63061218334829916 -0.37247832213917781
  outer loop
   vertex 0.00080699997488409281 0.025961000472307205 -0.011288000270724297
   vertex 0.0036410000175237656 0.026229999959468842 -0.016013000160455704
   vertex -0.0020330001134425402 0.021619999781250954 -0.013446000404655933
  endloop
 endfacet
 facet normal -0.67626425237184185 0.69257202118550454 -0.25101923518921598
  outer loop
   vertex -0.0020330001134425402 0.021619999781250954 -0.013446000404655933
   vertex 0.0036410000175237656 0.026229999959468842 -0.016013000160455704
   vertex -0.00060099997790530324 0.021748999133706093 -0.016947999596595764
  endloop
 endfacet
 facet normal -0.34461880639124159 0.49293673210358041 -0.79890628763611515
  outer loop
   vertex 0.0036410000175237656 0.026229999959468842 -0.016013000160455704
   vertex -0.00084200000856071711 0.018942000344395638 -0.018575999885797501
   vertex -0.00060099997790530324 0.021748999133706093 -0.016947999596595764
  endloop
 endfacet
 facet normal -0.306417696634393 0.62086768074917276 0.72154800130720098
  outer loop
   vertex 0.0035039999056607485 0.02807999961078167 -0.011966000311076641
   vertex 0.00080699997488409281 0.025961000472307205 -0.011288000270724297
   vertex 0.00056499999482184649 0.02456899918615818 -0.010192999616265297
  endloop
 endfacet
 facet normal -0.54557417074431125 0.6939617204451155 0.46985737705554059
  outer loop
   vertex 0.0028540000785142183 0.023164000362157822 -0.0054600001312792301
   vertex 0.0035039999056607485 0.02807999961078167 -0.011966000311076641
   vertex 0.00056499999482184649 0.02456899918615818 -0.010192999616265297
  endloop
 endfacet
 facet normal 0.30006455903434731 0.94428996435274803 0.1351951316956671
  outer loop
   vertex 0.0018329999875277281 0.023091999813914299 -0.0026910000015050173
   vertex 0.0028540000785142183 0.023164000362157822 -0.0054600001312792301
   vertex 0.00056499999482184649 0.02456899918615818 -0.010192999616265297
  endloop
 endfacet
 facet normal -0.92903619829970563 0.3690715424569817 0.026037257867420265
  outer loop
   vertex -0.0056750001385807991 0.0081529999151825905 -0.0001500000071246177
   vertex 0.00056499999482184649 0.02456899918615818 -0.010192999616265297
   vertex -0.0055240001529455185 0.008833000436425209 -0.0044010002166032791
  endloop
 endfacet
 facet normal -0.27027700259514897 -0.96262899325496798 -0.017197767678063761
  outer loop
   vertex -0.0055240001529455185 0.008833000436425209 0.0041009997949004173
   vertex 0.013996000401675701 0.0033869999460875988 0.00216299993917346
   vertex 0.012721000239253044 0.0036309999413788319 0.0085429996252059937
  endloop
 endfacet
 facet normal 0.96323437753505792 -0.18007239483446158 0.19938271377737632
  outer loop
   vertex 0.012721000239253044 0.0036309999413788319 0.0085429996252059937
   vertex 0.013996000401675701 0.0033869999460875988 0.00216299993917346
   vertex 0.01549299992620945 0.017334999516606331 0.0075280000455677509
  endloop
 endfacet
 facet normal 0.81124293062863073 -0.0098470796371044351 0.58462632726185981
  outer loop
   vertex 0.0099640004336833954 0.0056280000135302544 0.015003000386059284
   vertex 0.01549299992620945 0.017334999516606331 0.0075280000455677509
   vertex 0.012490999884903431 0.019195999950170517 0.011725000105798244
  endloop
 endfacet
 facet normal 0.4722559829194275 0.12292209003755813 0.87284846701910623
  outer loop
   vertex 0.0064269998110830784 0.0067619998008012772 0.016757000237703323
   vertex 0.0099640004336833954 0.0056280000135302544 0.015003000386059284
   vertex 0.012490999884903431 0.019195999950170517 0.011725000105798244
  endloop
 endfacet
 facet normal 0.62118278787058989 -0.0015500260521546245 0.78366417646371933
  outer loop
   vertex 0.0040549999102950096 0.012664999812841415 0.01839900016784668
   vertex 0.012490999884903431 0.019195999950170517 0.011725000105798244
   vertex 0.010456999763846397 0.021076999604701996 0.01334100030362606
  endloop
 endfacet
 facet normal 0.70673287776113125 -0.11847337536687572 0.69749028582529327
  outer loop
   vertex 0.0040549999102950096 0.012664999812841415 0.01839900016784668
   vertex 0.010456999763846397 0.021076999604701996 0.01334100030362606
   vertex 0.0062600001692771912 0.01916000060737133 0.017268000170588493
  endloop
 endfacet
 facet normal 0.92734353991090868 -0.27249209471422564 0.25648005244805772
  outer loop
   vertex 0.0040549999102950096 0.012664999812841415 0.01839900016784668
   vertex 0.0039160000160336494 0.016419999301433563 0.022890999913215637
   vertex 0.0036919999402016401 0.015107999555766582 0.022306999191641808
  endloop
 endfacet
 facet normal -0.24656660333067498 0.45296614692295251 0.85675351173120262
  outer loop
   vertex 0.0021979999728500843 0.018188999965786934 0.019548999145627022
   vertex 0.0036410000175237656 0.026229999959468842 0.015713000670075417
   vertex -0.00084200000856071711 0.018942000344395638 0.018276000395417213
  endloop
 endfacet
 facet normal -0.034084603964115917 0.66288748757222704 0.74794279098925076
  outer loop
   vertex -0.0028039999306201935 0.026386000216007233 0.025970999151468277
   vertex -0.0067389998584985733 0.02314399927854538 0.028665000572800636
   vertex -0.0014149999478831887 0.023886000737547874 0.028249999508261681
  endloop
 endfacet
 facet normal 0.44041631987028906 0.59799606338310118 -0.66965227795492877
  outer loop
   vertex -0.00018200000340584666 0.0193060003221035 0.024971000850200653
   vertex -0.0029959999956190586 0.02056100033223629 0.024241000413894653
   vertex -0.0014149999478831887 0.023886000737547874 0.028249999508261681
  endloop
 endfacet
 facet normal 0.45423443540562591 0.82954895363625591 -0.32483782294050256
  outer loop
   vertex -0.00018200000340584666 0.0193060003221035 0.024971000850200653
   vertex 0.0024540000595152378 0.017128000035881996 0.02309500053524971
   vertex -0.0029959999956190586 0.02056100033223629 0.024241000413894653
  endloop
 endfacet
 facet normal 0.048478736792174869 0.19953700108197914 0.97869034800504973
  outer loop
   vertex -0.0014149999478831887 0.023886000737547874 0.028249999508261681
   vertex -0.0067389998584985733 0.02314399927854538 0.028665000572800636
   vertex -0.0019880000036209822 0.01666799932718277 0.029750000685453415
  endloop
 endfacet
 facet normal 0.93559699812393737 -0.00089966624642696816 0.35306861613873602
  outer loop
   vertex -0.00018200000340584666 0.0193060003221035 0.024971000850200653
   vertex -0.0014149999478831887 0.023886000737547874 0.028249999508261681
   vertex -0.0019880000036209822 0.01666799932718277 0.029750000685453415
  endloop
 endfacet
 facet normal 0.15499165608421611 0.27278886798320551 0.94950714586500795
  outer loop
   vertex -0.0067389998584985733 0.02314399927854538 0.028665000572800636
   vertex -0.0044590001925826073 0.015986999496817589 0.030348999425768852
   vertex -0.0019880000036209822 0.01666799932718277 0.029750000685453415
  endloop
 endfacet
 facet normal -0.15430567794044325 -0.27485261358078389 -0.94902360274292052
  outer loop
   vertex -0.0015330000314861536 0.017551999539136887 0.029419999569654465
   vertex -0.0019880000036209822 0.01666799932718277 0.029750000685453415
   vertex -0.0044590001925826073 0.015986999496817589 0.030348999425768852
  endloop
 endfacet
 facet normal -0.65513072231426206 0.055936363230735475 -0.75344200835134778
  outer loop
   vertex 0.0013660000404343009 0.016161000356078148 0.026796000078320503
   vertex -0.0019880000036209822 0.01666799932718277 0.029750000685453415
   vertex -0.0015330000314861536 0.017551999539136887 0.029419999569654465
  endloop
 endfacet
 facet normal 0.449938739875544 0.86398251242090363 0.22602953034962153
  outer loop
   vertex 0.0039160000160336494 0.016419999301433563 0.022890999913215637
   vertex 0.0021979999728500843 0.018188999965786934 0.019548999145627022
   vertex 0.0024540000595152378 0.017128000035881996 0.02309500053524971
  endloop
 endfacet
 facet normal 0.39900516507778122 0.33549928523711903 0.85336692450940166
  outer loop
   vertex 0.0062600001692771912 0.01916000060737133 0.017268000170588493
   vertex 0.0036410000175237656 0.026229999959468842 0.015713000670075417
   vertex 0.0021979999728500843 0.018188999965786934 0.019548999145627022
  endloop
 endfacet
 facet normal 0.70216878325877818 0.68620226517560579 0.18996170952261568
  outer loop
   vertex 0.0013650000328198075 0.017464999109506607 0.025902999565005302
   vertex 0.0024540000595152378 0.017128000035881996 0.02309500053524971
   vertex -0.00018200000340584666 0.0193060003221035 0.024971000850200653
  endloop
 endfacet
 facet normal 0.87941374686375362 0.2694435845107539 0.39246861860924648
  outer loop
   vertex 0.0036919999402016401 0.015107999555766582 0.022306999191641808
   vertex 0.0013650000328198075 0.017464999109506607 0.025902999565005302
   vertex 0.0013660000404343009 0.016161000356078148 0.026796000078320503
  endloop
 endfacet
 facet normal -0.22790163943744404 -0.97159369761046233 0.063769346126135773
  outer loop
   vertex -0.0056750001385807991 0.0081529999151825905 -0.0001500000071246177
   vertex 0.013996000401675701 0.0033869999460875988 -0.0024639999028295279
   vertex 0.014004000462591648 0.003536999924108386 -0.0001500000071246177
  endloop
 endfacet
 facet normal 0.78359995925237791 -0.11326047781729567 -0.61085445731718269
  outer loop
   vertex 0.012721000239253044 0.0036309999413788319 -0.0088440002873539925
   vertex 0.012490999884903431 0.019195999950170517 -0.012024999596178532
   vertex 0.01549299992620945 0.017334999516606331 -0.0078290002420544624
  endloop
 endfacet
 facet normal 0.47243944974244506 0.12286584509524828 -0.87275709704137394
  outer loop
   vertex 0.0099640004336833954 0.0056280000135302544 -0.015302999876439571
   vertex 0.0064269998110830784 0.0067619998008012772 -0.017057999968528748
   vertex 0.012490999884903431 0.019195999950170517 -0.012024999596178532
  endloop
 endfacet
 facet normal 0.9632343826572739 -0.18007239064835662 -0.19938269281220516
  outer loop
   vertex 0.013996000401675701 0.0033869999460875988 -0.0024639999028295279
   vertex 0.012721000239253044 0.0036309999413788319 -0.0088440002873539925
   vertex 0.01549299992620945 0.017334999516606331 -0.0078290002420544624
  endloop
 endfacet
 facet normal 0.62728746874678676 0.0092881803725706532 -0.77873240670888721
  outer loop
   vertex 0.0064269998110830784 0.0067619998008012772 -0.017057999968528748
   vertex 0.010456999763846397 0.021076999604701996 -0.013640999794006348
   vertex 0.012490999884903431 0.019195999950170517 -0.012024999596178532
  endloop
 endfacet
 facet normal 0.70684413191130846 -0.11864319854000216 -0.69734866790060368
  outer loop
   vertex 0.010456999763846397 0.021076999604701996 -0.013640999794006348
   vertex 0.0040549999102950096 0.012664999812841415 -0.018698999658226967
   vertex 0.0062600001692771912 0.01916000060737133 -0.017568999901413918
  endloop
 endfacet
 facet normal 0.92806003179164787 -0.27165794790730075 -0.25476761318833224
  outer loop
   vertex 0.0062600001692771912 0.01916000060737133 -0.017568999901413918
   vertex 0.0036919999402016401 0.015107999555766582 -0.022602999582886696
   vertex 0.0039160000160336494 0.016419999301433563 -0.023186000064015388
  endloop
 endfacet
 facet normal -0.17076700352334342 0.41870762612481133 -0.89192071078800705
  outer loop
   vertex 0.0036410000175237656 0.026229999959468842 -0.016013000160455704
   vertex 0.0021979999728500843 0.018187999725341797 -0.019511999562382698
   vertex -0.00084200000856071711 0.018942000344395638 -0.018575999885797501
  endloop
 endfacet
 facet normal -0.031054624755946076 0.66388463900206052 -0.74718993326889183
  outer loop
   vertex -0.0067389998584985733 0.02314399927854538 -0.028955999761819839
   vertex -0.0028039999306201935 0.026386000216007233 -0.026239000260829926
   vertex -0.0014149999478831887 0.023886000737547874 -0.028518000617623329
  endloop
 endfacet
 facet normal 0.43986266791450962 0.59609348403740614 0.6717093059227901
  outer loop
   vertex -0.0029959999956190586 0.02056100033223629 -0.024531999602913857
   vertex -0.00018200000340584666 0.0193060003221035 -0.025260999798774719
   vertex -0.0014149999478831887 0.023886000737547874 -0.028518000617623329
  endloop
 endfacet
 facet normal 0.05274587636534761 0.19916777086889881 -0.97854487458346295
  outer loop
   vertex -0.0067389998584985733 0.02314399927854538 -0.028955999761819839
   vertex -0.0014149999478831887 0.023886000737547874 -0.028518000617623329
   vertex -0.0019880000036209822 0.01666799932718277 -0.030017999932169914
  endloop
 endfacet
 facet normal 0.93498664480867788 -0.00051590803308737847 -0.35468254519825554
  outer loop
   vertex -0.0014149999478831887 0.023886000737547874 -0.028518000617623329
   vertex -0.00018200000340584666 0.0193060003221035 -0.025260999798774719
   vertex -0.0019880000036209822 0.01666799932718277 -0.030017999932169914
  endloop
 endfacet
 facet normal 0.45419391169363482 0.82926818756439125 0.3256104477348728
  outer loop
   vertex 0.0024540000595152378 0.017128000035881996 -0.023391000926494598
   vertex -0.00018200000340584666 0.0193060003221035 -0.025260999798774719
   vertex -0.0029959999956190586 0.02056100033223629 -0.024531999602913857
  endloop
 endfacet
 facet normal 0.15586525559620706 0.27015742653549579 -0.9501163018208072
  outer loop
   vertex -0.0044590001925826073 0.015986999496817589 -0.030617000535130501
   vertex -0.0067389998584985733 0.02314399927854538 -0.028955999761819839
   vertex -0.0019880000036209822 0.01666799932718277 -0.030017999932169914
  endloop
 endfacet
 facet normal -0.16325887534811848 -0.24762661059285934 0.95500136196047369
  outer loop
   vertex -0.0019880000036209822 0.01666799932718277 -0.030017999932169914
   vertex -0.0015330000314861536 0.017551999539136887 -0.029711000621318817
   vertex -0.0044590001925826073 0.015986999496817589 -0.030617000535130501
  endloop
 endfacet
 facet normal -0.75818784799221117 0.17180359915935176 0.62899500035599043
  outer loop
   vertex 0.0013650000328198075 0.017464999109506607 -0.026194000616669655
   vertex -0.0015330000314861536 0.017551999539136887 -0.029711000621318817
   vertex -0.0019880000036209822 0.01666799932718277 -0.030017999932169914
  endloop
 endfacet
 facet normal -0.10083509061334789 0.95800303591104918 -0.26844453372384147
  outer loop
   vertex 0.0062600001692771912 0.01916000060737133 -0.017568999901413918
   vertex 0.0024540000595152378 0.017128000035881996 -0.023391000926494598
   vertex 0.0021979999728500843 0.018187999725341797 -0.019511999562382698
  endloop
 endfacet
 facet normal 0.32435228042403214 0.81083796597273128 0.48717285548451272
  outer loop
   vertex 0.0039160000160336494 0.016419999301433563 -0.023186000064015388
   vertex -0.00018200000340584666 0.0193060003221035 -0.025260999798774719
   vertex 0.0024540000595152378 0.017128000035881996 -0.023391000926494598
  endloop
 endfacet
 facet normal 0.34479246880867015 0.32179462698476241 -0.88179723944711907
  outer loop
   vertex 0.0036410000175237656 0.026229999959468842 -0.016013000160455704
   vertex 0.0062600001692771912 0.01916000060737133 -0.017568999901413918
   vertex 0.0021979999728500843 0.018187999725341797 -0.019511999562382698
  endloop
 endfacet
 facet normal 0.76933603788390059 0.36108924885168209 -0.52700722497592933
  outer loop
   vertex 0.0039160000160336494 0.016419999301433563 -0.023186000064015388
   vertex 0.0013660000404343009 0.016161000356078148 -0.027086000889539719
   vertex 0.0013650000328198075 0.017464999109506607 -0.026194000616669655
  endloop
 endfacet
 facet normal 0.7166729592394393 0.65295191286633791 -0.24501769115550698
  outer loop
   vertex 0.010456999763846397 0.021076999604701996 0.01334100030362606
   vertex 0.0035039999056607485 0.02807999961078167 0.011665999889373779
   vertex 0.0066209998913109303 0.025322999805212021 0.013435999862849712
  endloop
 endfacet
 facet normal 0.64043265624783019 0.76532036572899209 0.064270915753477584
  outer loop
   vertex 0.0066209998913109303 0.025322999805212021 0.013435999862849712
   vertex 0.0035039999056607485 0.02807999961078167 0.011665999889373779
   vertex 0.0047089997678995132 0.026847999542951584 0.014329000376164913
  endloop
 endfacet
 facet normal 0.52239464555267789 0.80542661283125117 -0.27998536683382175
  outer loop
   vertex 0.010456999763846397 0.021076999604701996 0.01334100030362606
   vertex 0.012490999884903431 0.019195999950170517 0.011725000105798244
   vertex 0.0028540000785142183 0.023164000362157822 0.0051589999347925186
  endloop
 endfacet
 facet normal 0.43094733166236315 0.89788875851634953 -0.089889791762233953
  outer loop
   vertex 0.012490999884903431 0.019195999950170517 0.011725000105798244
   vertex 0.01549299992620945 0.017334999516606331 0.0075280000455677509
   vertex 0.0028540000785142183 0.023164000362157822 0.0051589999347925186
  endloop
 endfacet
 facet normal 0.3408326582237044 0.9196452188073273 -0.19515575987653222
  outer loop
   vertex 0.0028540000785142183 0.023164000362157822 0.0051589999347925186
   vertex 0.016357000917196274 0.01703299954533577 -0.0001500000071246177
   vertex 0.0043040001764893532 0.021500000730156898 -0.0001500000071246177
  endloop
 endfacet
 facet normal 0.40262536142651317 0.89909120419969513 -0.17183662260098032
  outer loop
   vertex 0.0028540000785142183 0.023164000362157822 0.0051589999347925186
   vertex 0.0043040001764893532 0.021500000730156898 -0.0001500000071246177
   vertex 0.0018329999875277281 0.023091999813914299 0.0023900000378489494
  endloop
 endfacet
 facet normal 0.64036656770639855 0.38357410705046091 0.66543336508201034
  outer loop
   vertex 0.0062600001692771912 0.01916000060737133 0.017268000170588493
   vertex 0.0047089997678995132 0.026847999542951584 0.014329000376164913
   vertex 0.0036410000175237656 0.026229999959468842 0.015713000670075417
  endloop
 endfacet
 facet normal -0.52437591757375723 0.39205417900424366 -0.75585939022677262
  outer loop
   vertex 0.0043040001764893532 0.021500000730156898 -0.0001500000071246177
   vertex -0.0056750001385807991 0.0081529999151825905 -0.0001500000071246177
   vertex 0.0018329999875277281 0.023091999813914299 0.0023900000378489494
  endloop
 endfacet
 facet normal -0.52449382987913917 0.39214233715669072 0.75573183724652016
  outer loop
   vertex -0.0056750001385807991 0.0081529999151825905 -0.0001500000071246177
   vertex 0.0043040001764893532 0.021500000730156898 -0.0001500000071246177
   vertex 0.0018329999875277281 0.023091999813914299 -0.0026910000015050173
  endloop
 endfacet
 facet normal 0.63021067703579281 0.40004410829223525 -0.66543159976872002
  outer loop
   vertex 0.0066209998913109303 0.025322999805212021 -0.013736000284552574
   vertex 0.0036410000175237656 0.026229999959468842 -0.016013000160455704
   vertex 0.0047089997678995132 0.026847999542951584 -0.014630000106990337
  endloop
 endfacet
 facet normal 0.64044485737442824 0.76531293162680136 -0.064237849803984615
  outer loop
   vertex 0.0035039999056607485 0.02807999961078167 -0.011966000311076641
   vertex 0.0066209998913109303 0.025322999805212021 -0.013736000284552574
   vertex 0.0047089997678995132 0.026847999542951584 -0.014630000106990337
  endloop
 endfacet
 facet normal 0.72010291306750296 0.51709770125448229 0.46266809048066693
  outer loop
   vertex 0.0028540000785142183 0.023164000362157822 -0.0054600001312792301
   vertex 0.0066209998913109303 0.025322999805212021 -0.013736000284552574
   vertex 0.0035039999056607485 0.02807999961078167 -0.011966000311076641
  endloop
 endfacet
 facet normal 0.52238038273036536 0.80542875561564087 0.28000581309308065
  outer loop
   vertex 0.012490999884903431 0.019195999950170517 -0.012024999596178532
   vertex 0.010456999763846397 0.021076999604701996 -0.013640999794006348
   vertex 0.0028540000785142183 0.023164000362157822 -0.0054600001312792301
  endloop
 endfacet
 facet normal 0.43094948440482467 0.89788586171063212 0.089908404675934833
  outer loop
   vertex 0.01549299992620945 0.017334999516606331 -0.0078290002420544624
   vertex 0.012490999884903431 0.019195999950170517 -0.012024999596178532
   vertex 0.0028540000785142183 0.023164000362157822 -0.0054600001312792301
  endloop
 endfacet
 facet normal 0.34751371842092393 0.93767226204596021 -0.0022236229164887193
  outer loop
   vertex 0.01549299992620945 0.017334999516606331 -0.0078290002420544624
   vertex 0.0043040001764893532 0.021500000730156898 -0.0001500000071246177
   vertex 0.016357000917196274 0.01703299954533577 -0.0001500000071246177
  endloop
 endfacet
 facet normal 0.40258440941882845 0.89911232552516673 0.17182205731983194
  outer loop
   vertex 0.0043040001764893532 0.021500000730156898 -0.0001500000071246177
   vertex 0.0028540000785142183 0.023164000362157822 -0.0054600001312792301
   vertex 0.0018329999875277281 0.023091999813914299 -0.0026910000015050173
  endloop
 endfacet
 facet normal 0.9783956018572354 -0.17058131005963031 0.11680780335559063
  outer loop
   vertex 0.01549299992620945 0.017334999516606331 0.0075280000455677509
   vertex 0.014004000462591648 0.003536999924108386 -0.0001500000071246177
   vertex 0.016357000917196274 0.01703299954533577 -0.0001500000071246177
  endloop
 endfacet
 facet normal 0.98510992015219967 -0.17175193798226018 0.0077276786336233074
  outer loop
   vertex 0.013996000401675701 0.0033869999460875988 -0.0024639999028295279
   vertex 0.016357000917196274 0.01703299954533577 -0.0001500000071246177
   vertex 0.014004000462591648 0.003536999924108386 -0.0001500000071246177
  endloop
 endfacet
 facet normal 0.50079078773890906 0.43569992600342006 0.74791320445387044
  outer loop
   vertex 0.010456999763846397 0.021076999604701996 0.01334100030362606
   vertex 0.0066209998913109303 0.025322999805212021 0.013435999862849712
   vertex 0.0062600001692771912 0.01916000060737133 0.017268000170588493
  endloop
 endfacet
 facet normal 0.47595025098334853 0.68141768374417677 0.55600476515009178
  outer loop
   vertex -0.0019880000036209822 0.01666799932718277 0.029750000685453415
   vertex 0.0013650000328198075 0.017464999109506607 0.025902999565005302
   vertex -0.00018200000340584666 0.0193060003221035 0.024971000850200653
  endloop
 endfacet
 facet normal 0.5008605014350388 0.43576463202336368 -0.74782881970393733
  outer loop
   vertex 0.0066209998913109303 0.025322999805212021 -0.013736000284552574
   vertex 0.010456999763846397 0.021076999604701996 -0.013640999794006348
   vertex 0.0062600001692771912 0.01916000060737133 -0.017568999901413918
  endloop
 endfacet
 facet normal 0.47422247116173677 0.68116939995375203 -0.55778248127016417
  outer loop
   vertex 0.0013650000328198075 0.017464999109506607 -0.026194000616669655
   vertex -0.0019880000036209822 0.01666799932718277 -0.030017999932169914
   vertex -0.00018200000340584666 0.0193060003221035 -0.025260999798774719
  endloop
 endfacet
endsolid
