solid Visualization Toolkit generated SLA File
 facet normal -0.031779182847738605 0.9994762950720355 -0.0061007480366998684
  outer loop
   vertex -0.019494999200105667 0.041165001690387726 -0.0001500000071246177
   vertex -0.0077459998428821564 0.041565001010894775 0.0041800001636147499
   vertex -0.0083929998800158501 0.041517999023199081 -0.0001500000071246177
  endloop
 endfacet
 facet normal 0.072594187175267222 0.9556962687394015 -0.28526255608815537
  outer loop
   vertex -0.019494999200105667 0.041165001690387726 -0.0001500000071246177
   vertex -0.020455999299883842 0.041237998753786087 -0.0001500000071246177
   vertex -0.0077459998428821564 0.041565001010894775 0.0041800001636147499
  endloop
 endfacet
 facet normal -0.031779182847722708 0.99947629507153546 0.0061007481187084238
  outer loop
   vertex -0.019494999200105667 0.041165001690387726 -0.0001500000071246177
   vertex -0.0083929998800158501 0.041517999023199081 -0.0001500000071246177
   vertex -0.0077459998428821564 0.041565001010894775 -0.0044800001196563244
  endloop
 endfacet
 facet normal 0.072594187095855689 0.95569626769395544 0.28526255961085323
  outer loop
   vertex -0.019494999200105667 0.041165001690387726 -0.0001500000071246177
   vertex -0.0077459998428821564 0.041565001010894775 -0.0044800001196563244
   vertex -0.020455999299883842 0.041237998753786087 -0.0001500000071246177
  endloop
 endfacet
 facet normal 0.92073686495951323 -0.38999214374675123 0.012237373915192374
  outer loop
   vertex -0.014592000283300877 0.026954000815749168 0.0021220000926405191
   vertex -0.0083929998800158501 0.041517999023199081 -0.0001500000071246177
   vertex -0.0086820004507899284 0.040886998176574707 0.0014850000152364373
  endloop
 endfacet
 facet normal 0.92009301662130583 -0.39169966129792289 -0.00046486965673296746
  outer loop
   vertex -0.014593999832868576 0.026952000334858894 -0.0001500000071246177
   vertex -0.0083929998800158501 0.041517999023199081 -0.0001500000071246177
   vertex -0.014592000283300877 0.026954000815749168 0.0021220000926405191
  endloop
 endfacet
 facet normal 0.76797914130894473 -0.63132045663047887 -0.10790050766451255
  outer loop
   vertex -0.0083929998800158501 0.041517999023199081 -0.0001500000071246177
   vertex -0.0077459998428821564 0.041565001010894775 0.0041800001636147499
   vertex -0.0086820004507899284 0.040886998176574707 0.0014850000152364373
  endloop
 endfacet
 facet normal 0.92073650877076141 -0.38999323446999595 -0.012229410626038363
  outer loop
   vertex -0.0083929998800158501 0.041517999023199081 -0.0001500000071246177
   vertex -0.014592000283300877 0.026954000815749168 -0.0024220000486820936
   vertex -0.0086820004507899284 0.040886998176574707 -0.0017859999788925052
  endloop
 endfacet
 facet normal 0.92009301662130083 -0.39169966129792072 0.00046486966864272503
  outer loop
   vertex -0.0083929998800158501 0.041517999023199081 -0.0001500000071246177
   vertex -0.014593999832868576 0.026952000334858894 -0.0001500000071246177
   vertex -0.014592000283300877 0.026954000815749168 -0.0024220000486820936
  endloop
 endfacet
 facet normal 0.76789865726403406 -0.63142059037557208 0.10788739602871832
  outer loop
   vertex -0.0077459998428821564 0.041565001010894775 -0.0044800001196563244
   vertex -0.0083929998800158501 0.041517999023199081 -0.0001500000071246177
   vertex -0.0086820004507899284 0.040886998176574707 -0.0017859999788925052
  endloop
 endfacet
 facet normal 0.24803035812941646 0.91559635767746073 -0.31648736349807227
  outer loop
   vertex -0.0022060000337660313 0.042833000421524048 0.012190000154078007
   vertex -0.0086820004507899284 0.040886998176574707 0.0014850000152364373
   vertex -0.0077459998428821564 0.041565001010894775 0.0041800001636147499
  endloop
 endfacet
 facet normal -0.001635910643658464 0.98787370531800478 -0.15525097789592701
  outer loop
   vertex -0.0022060000337660313 0.042833000421524048 0.012190000154078007
   vertex -0.0077459998428821564 0.041565001010894775 0.0041800001636147499
   vertex -0.0087029999122023582 0.041685998439788818 0.0049600000493228436
  endloop
 endfacet
 facet normal -0.20519971456660963 0.86408542072309169 0.45961882341303162
  outer loop
   vertex -0.0077459998428821564 0.041565001010894775 0.0041800001636147499
   vertex -0.023938000202178955 0.037140000611543655 0.0052700000815093517
   vertex -0.011745999567210674 0.036554999649524689 0.011812999844551086
  endloop
 endfacet
 facet normal -0.58282218470200797 -0.50482198547399726 -0.63676766877823632
  outer loop
   vertex -0.011745999567210674 0.036554999649524689 0.011812999844551086
   vertex -0.0087029999122023582 0.041685998439788818 0.0049600000493228436
   vertex -0.0077459998428821564 0.041565001010894775 0.0041800001636147499
  endloop
 endfacet
 facet normal 0.12784089897575643 0.66773524477708934 0.73333917625581091
  outer loop
   vertex -0.020455999299883842 0.041237998753786087 -0.0001500000071246177
   vertex -0.036784999072551727 0.04032599925994873 0.003527000080794096
   vertex -0.031295999884605408 0.039028000086545944 0.003751999931409955
  endloop
 endfacet
 facet normal 0.068758578286818986 0.77402819928780653 0.62940654955223574
  outer loop
   vertex -0.023938000202178955 0.037140000611543655 0.0052700000815093517
   vertex -0.020455999299883842 0.041237998753786087 -0.0001500000071246177
   vertex -0.031295999884605408 0.039028000086545944 0.003751999931409955
  endloop
 endfacet
 facet normal 0.18239495344722456 0.85536182932999727 -0.48485897112688908
  outer loop
   vertex -0.036448001861572266 0.042339000850915909 -0.0001500000071246177
   vertex -0.031295999884605408 0.039028000086545944 -0.0040529998950660229
   vertex -0.036784999072551727 0.04032599925994873 -0.0038280000444501638
  endloop
 endfacet
 facet normal 0.06878407669994685 0.77407699923701323 -0.62934374553558314
  outer loop
   vertex -0.020455999299883842 0.041237998753786087 -0.0001500000071246177
   vertex -0.023938000202178955 0.037140000611543655 -0.0055709998123347759
   vertex -0.031295999884605408 0.039028000086545944 -0.0040529998950660229
  endloop
 endfacet
 facet normal -0.22374656359840808 0.84122931872602447 -0.49221002488130228
  outer loop
   vertex -0.020455999299883842 0.041237998753786087 -0.0001500000071246177
   vertex -0.011745999567210674 0.036554999649524689 -0.012113000266253948
   vertex -0.023938000202178955 0.037140000611543655 -0.0055709998123347759
  endloop
 endfacet
 facet normal 0.24843670174770993 0.91541271498218313 0.31669980497889139
  outer loop
   vertex -0.0086820004507899284 0.040886998176574707 -0.0017859999788925052
   vertex -0.0022060000337660313 0.042833000421524048 -0.012490999884903431
   vertex -0.0077459998428821564 0.041565001010894775 -0.0044800001196563244
  endloop
 endfacet
 facet normal -0.0016258144290890399 0.98787562192924128 0.15523888792875676
  outer loop
   vertex -0.0077459998428821564 0.041565001010894775 -0.0044800001196563244
   vertex -0.0022060000337660313 0.042833000421524048 -0.012490999884903431
   vertex -0.0087029999122023582 0.041685998439788818 -0.005260000005364418
  endloop
 endfacet
 facet normal -0.58282217337321551 -0.50482202353263661 0.63676764897483251
  outer loop
   vertex -0.0087029999122023582 0.041685998439788818 -0.005260000005364418
   vertex -0.011745999567210674 0.036554999649524689 -0.012113000266253948
   vertex -0.0077459998428821564 0.041565001010894775 -0.0044800001196563244
  endloop
 endfacet
 facet normal 0.79499727371257778 -0.35955314563533691 -0.48857023062534521
  outer loop
   vertex -0.0080789998173713684 0.030869999900460243 0.0098379999399185181
   vertex -0.014592000283300877 0.026954000815749168 0.0021220000926405191
   vertex -0.0086820004507899284 0.040886998176574707 0.0014850000152364373
  endloop
 endfacet
 facet normal -0.16575100385737904 -0.81586671499354824 0.55397482622038663
  outer loop
   vertex -0.0080789998173713684 0.030869999900460243 0.0098379999399185181
   vertex -0.024844000115990639 0.032131001353263855 0.0066789998672902584
   vertex -0.014592000283300877 0.026954000815749168 0.0021220000926405191
  endloop
 endfacet
 facet normal -0.4503433936189446 -0.89285465196511682 0.0011824922927394599
  outer loop
   vertex -0.024844000115990639 0.032131001353263855 0.0066789998672902584
   vertex -0.014593999832868576 0.026952000334858894 -0.0001500000071246177
   vertex -0.014592000283300877 0.026954000815749168 0.0021220000926405191
  endloop
 endfacet
 facet normal 0.83482413994182447 -0.32205929081705426 -0.44648232727489812
  outer loop
   vertex -0.0022060000337660313 0.042833000421524048 0.012190000154078007
   vertex -0.0080789998173713684 0.030869999900460243 0.0098379999399185181
   vertex -0.0086820004507899284 0.040886998176574707 0.0014850000152364373
  endloop
 endfacet
 facet normal -0.45051839528576498 -0.89276636195627623 -0.0011825686003357136
  outer loop
   vertex -0.024848999455571175 0.032127000391483307 -0.0001500000071246177
   vertex -0.014592000283300877 0.026954000815749168 -0.0024220000486820936
   vertex -0.014593999832868576 0.026952000334858894 -0.0001500000071246177
  endloop
 endfacet
 facet normal 0.83482413672043909 -0.32205928759432501 0.44648233562282091
  outer loop
   vertex -0.0080789998173713684 0.030869999900460243 -0.010138999670743942
   vertex -0.0022060000337660313 0.042833000421524048 -0.012490999884903431
   vertex -0.0086820004507899284 0.040886998176574707 -0.0017859999788925052
  endloop
 endfacet
 facet normal 0.79502515105864768 -0.35952865642414888 0.48854288900159087
  outer loop
   vertex -0.014592000283300877 0.026954000815749168 -0.0024220000486820936
   vertex -0.0080789998173713684 0.030869999900460243 -0.010138999670743942
   vertex -0.0086820004507899284 0.040886998176574707 -0.0017859999788925052
  endloop
 endfacet
 facet normal -0.35865918017115517 -0.9064634503881408 -0.22290716809780139
  outer loop
   vertex -0.014809999614953995 0.029534999281167984 -0.012567000463604927
   vertex -0.014592000283300877 0.026954000815749168 -0.0024220000486820936
   vertex -0.024844000115990639 0.032131001353263855 -0.0069789998233318329
  endloop
 endfacet
 facet normal 0.81261163416881621 0.53145005775115561 0.23921364536702219
  outer loop
   vertex 0.0012519999872893095 0.037510000169277191 0.012268999591469765
   vertex -0.0022060000337660313 0.042833000421524048 0.012190000154078007
   vertex 0.00025300000561401248 0.038378998637199402 0.013732000254094601
  endloop
 endfacet
 facet normal -0.54973566093157733 0.8294060442647514 0.099379660078000726
  outer loop
   vertex -0.0022060000337660313 0.042833000421524048 0.012190000154078007
   vertex -0.011745999567210674 0.036554999649524689 0.011812999844551086
   vertex -0.0047160000540316105 0.039887998253107071 0.022884000092744827
  endloop
 endfacet
 facet normal 0.7731534330644102 0.54127981549992621 0.33052977214327073
  outer loop
   vertex -0.0022060000337660313 0.042833000421524048 0.012190000154078007
   vertex -0.0047160000540316105 0.039887998253107071 0.022884000092744827
   vertex 0.00025300000561401248 0.038378998637199402 0.013732000254094601
  endloop
 endfacet
 facet normal -0.43683820753697233 0.31592853065216991 0.84223603814836023
  outer loop
   vertex -0.023938000202178955 0.037140000611543655 0.0052700000815093517
   vertex -0.024844000115990639 0.032131001353263855 0.0066789998672902584
   vertex -0.011745999567210674 0.036554999649524689 0.011812999844551086
  endloop
 endfacet
 facet normal -0.42373564504225764 0.24140725740797206 0.87302384800839372
  outer loop
   vertex -0.011745999567210674 0.036554999649524689 0.011812999844551086
   vertex -0.024844000115990639 0.032131001353263855 0.0066789998672902584
   vertex -0.014809999614953995 0.029534999281167984 0.012267000041902065
  endloop
 endfacet
 facet normal -0.82663802241615747 0.38720853153222246 0.40833703359426543
  outer loop
   vertex -0.011745999567210674 0.036554999649524689 0.011812999844551086
   vertex -0.014809999614953995 0.029534999281167984 0.012267000041902065
   vertex -0.0047160000540316105 0.039887998253107071 0.022884000092744827
  endloop
 endfacet
 facet normal -0.11710028774038674 0.30383760881259297 0.94549998946703562
  outer loop
   vertex -0.031295999884605408 0.039028000086545944 0.003751999931409955
   vertex -0.030817000195384026 0.032992001622915268 0.0057509997859597206
   vertex -0.023938000202178955 0.037140000611543655 0.0052700000815093517
  endloop
 endfacet
 facet normal -0.02099696121346447 0.27206499292675418 0.96204977378697287
  outer loop
   vertex -0.031295999884605408 0.039028000086545944 0.003751999931409955
   vertex -0.041607998311519623 0.032242000102996826 0.0054460000246763229
   vertex -0.037503000348806381 0.03203900158405304 0.0055929999798536301
  endloop
 endfacet
 facet normal 0.012933885809112351 0.22363352210158371 0.97458748318984545
  outer loop
   vertex -0.036784999072551727 0.04032599925994873 0.003527000080794096
   vertex -0.041607998311519623 0.032242000102996826 0.0054460000246763229
   vertex -0.031295999884605408 0.039028000086545944 0.003751999931409955
  endloop
 endfacet
 facet normal 0.023985548432600666 0.87597599431413775 0.48175797954133059
  outer loop
   vertex -0.036448001861572266 0.042339000850915909 -0.0001500000071246177
   vertex -0.044123001396656036 0.04009300097823143 0.0043159998022019863
   vertex -0.036784999072551727 0.04032599925994873 0.003527000080794096
  endloop
 endfacet
 facet normal 0.099861316263541222 0.1730192376145363 0.97984287563333217
  outer loop
   vertex -0.041607998311519623 0.032242000102996826 0.0054460000246763229
   vertex -0.036784999072551727 0.04032599925994873 0.003527000080794096
   vertex -0.044123001396656036 0.04009300097823143 0.0043159998022019863
  endloop
 endfacet
 facet normal 0.049896654723239661 0.73082449976594133 -0.68073921173184337
  outer loop
   vertex -0.042629998177289963 0.044151000678539276 -0.0001500000071246177
   vertex -0.036784999072551727 0.04032599925994873 -0.0038280000444501638
   vertex -0.044123001396656036 0.04009300097823143 -0.0046160002239048481
  endloop
 endfacet
 facet normal 0.012909210907483348 0.2235332218277781 -0.97461082028317303
  outer loop
   vertex -0.041607998311519623 0.032242000102996826 -0.0057459999807178974
   vertex -0.036784999072551727 0.04032599925994873 -0.0038280000444501638
   vertex -0.031295999884605408 0.039028000086545944 -0.0040529998950660229
  endloop
 endfacet
 facet normal 0.09973123949273216 0.17298040412290752 -0.97986298004298478
  outer loop
   vertex -0.036784999072551727 0.04032599925994873 -0.0038280000444501638
   vertex -0.041607998311519623 0.032242000102996826 -0.0057459999807178974
   vertex -0.044123001396656036 0.04009300097823143 -0.0046160002239048481
  endloop
 endfacet
 facet normal -0.021004232470698814 0.27194284754579057 -0.96208414906753548
  outer loop
   vertex -0.041607998311519623 0.032242000102996826 -0.0057459999807178974
   vertex -0.031295999884605408 0.039028000086545944 -0.0040529998950660229
   vertex -0.037503000348806381 0.03203900158405304 -0.0058929999358952045
  endloop
 endfacet
 facet normal 0.051658221860171105 -0.1991483061369608 0.97860685685162907
  outer loop
   vertex -0.037503000348806381 0.03203900158405304 -0.0058929999358952045
   vertex -0.030817000195384026 0.032992001622915268 -0.0060519999824464321
   vertex -0.023938000202178955 0.037140000611543655 -0.0055709998123347759
  endloop
 endfacet
 facet normal -0.19880954175558888 -0.43216459033660387 -0.87960703326322276
  outer loop
   vertex -0.030817000195384026 0.032992001622915268 -0.0060519999824464321
   vertex -0.011745999567210674 0.036554999649524689 -0.012113000266253948
   vertex -0.024844000115990639 0.032131001353263855 -0.0069789998233318329
  endloop
 endfacet
 facet normal -0.68003375729925764 0.6989635590247929 -0.22136854358478589
  outer loop
   vertex -0.0087029999122023582 0.041685998439788818 -0.005260000005364418
   vertex -0.0047160000540316105 0.039887998253107071 -0.023184999823570251
   vertex -0.011745999567210674 0.036554999649524689 -0.012113000266253948
  endloop
 endfacet
 facet normal -0.42373567328501555 0.24140726864747972 -0.87302383119240123
  outer loop
   vertex -0.024844000115990639 0.032131001353263855 -0.0069789998233318329
   vertex -0.011745999567210674 0.036554999649524689 -0.012113000266253948
   vertex -0.014809999614953995 0.029534999281167984 -0.012567000463604927
  endloop
 endfacet
 facet normal -0.82665097313357538 0.38721225982479252 -0.40830727945836326
  outer loop
   vertex -0.014809999614953995 0.029534999281167984 -0.012567000463604927
   vertex -0.011745999567210674 0.036554999649524689 -0.012113000266253948
   vertex -0.0047160000540316105 0.039887998253107071 -0.023184999823570251
  endloop
 endfacet
 facet normal 0.46087233869630273 -0.052075439544497691 0.88593726415635532
  outer loop
   vertex -0.0080789998173713684 0.030869999900460243 -0.010138999670743942
   vertex 0.00025300000561401248 0.038378998637199402 -0.014031999744474888
   vertex -0.0022060000337660313 0.042833000421524048 -0.012490999884903431
  endloop
 endfacet
 facet normal 0.77319354235437465 0.54122584690608722 -0.33052432391925796
  outer loop
   vertex -0.0047160000540316105 0.039887998253107071 -0.023184999823570251
   vertex -0.0022060000337660313 0.042833000421524048 -0.012490999884903431
   vertex 0.00025300000561401248 0.038378998637199402 -0.014031999744474888
  endloop
 endfacet
 facet normal 0.083973260040508355 0.23640093516735775 -0.96802019062112943
  outer loop
   vertex 0.0012519999872893095 0.037510000169277191 0.012268999591469765
   vertex 0.0038169999606907368 0.031120000407099724 0.010931000113487244
   vertex -0.0080789998173713684 0.030869999900460243 0.0098379999399185181
  endloop
 endfacet
 facet normal 0.087080806976636949 0.1571830944627424 -0.98372272916275261
  outer loop
   vertex 0.0038169999606907368 0.031120000407099724 0.010931000113487244
   vertex -0.00037399999564513564 0.026520000770688057 0.0098249996080994606
   vertex -0.0080789998173713684 0.030869999900460243 0.0098379999399185181
  endloop
 endfacet
 facet normal -0.35407907890658252 -0.62923549173782245 0.69187477321992796
  outer loop
   vertex 0.0034459999296814203 0.037122998386621475 0.02142300084233284
   vertex -0.0080789998173713684 0.030869999900460243 0.0098379999399185181
   vertex -0.00037399999564513564 0.026520000770688057 0.0098249996080994606
  endloop
 endfacet
 facet normal 0.27007598868839128 -0.93365443598477293 0.23526230998598915
  outer loop
   vertex 0.0034459999296814203 0.037122998386621475 0.02142300084233284
   vertex -0.014809999614953995 0.029534999281167984 0.012267000041902065
   vertex -0.0080789998173713684 0.030869999900460243 0.0098379999399185181
  endloop
 endfacet
 facet normal 0.14279085612622472 0.98975258617262662 -0.00076783548849851749
  outer loop
   vertex -0.030820999294519424 0.03298800066113472 -0.0001500000071246177
   vertex -0.030817000195384026 0.032992001622915268 0.0057509997859597206
   vertex -0.024844000115990639 0.032131001353263855 0.0066789998672902584
  endloop
 endfacet
 facet normal -0.75388239801143975 0.65200270395104232 0.080955568116411011
  outer loop
   vertex -0.014809999614953995 0.029534999281167984 0.012267000041902065
   vertex -0.0084929997101426125 0.035307999700307846 0.024598000571131706
   vertex -0.0047160000540316105 0.039887998253107071 0.022884000092744827
  endloop
 endfacet
 facet normal -0.84283165206151922 0.5006803943195316 0.19736754806018272
  outer loop
   vertex -0.014809999614953995 0.029534999281167984 0.012267000041902065
   vertex -0.013368000276386738 0.029938999563455582 0.017400000244379044
   vertex -0.0084929997101426125 0.035307999700307846 0.024598000571131706
  endloop
 endfacet
 facet normal -0.63523978453323038 0.76318713949833383 0.11838837041925082
  outer loop
   vertex -0.014809999614953995 0.029534999281167984 0.012267000041902065
   vertex -0.012261000461876392 0.029978999868035316 0.023081999272108078
   vertex -0.013368000276386738 0.029938999563455582 0.017400000244379044
  endloop
 endfacet
 facet normal -0.14277805351401715 -0.9897544943225608 -0.00068439976627068517
  outer loop
   vertex -0.024848999455571175 0.032127000391483307 -0.0001500000071246177
   vertex -0.030817000195384026 0.032992001622915268 -0.0060519999824464321
   vertex -0.024844000115990639 0.032131001353263855 -0.0069789998233318329
  endloop
 endfacet
 facet normal 0.083887636949457708 0.23651400094323846 0.96799999572564976
  outer loop
   vertex 0.0038169999606907368 0.031120000407099724 -0.011230999603867531
   vertex 0.0012519999872893095 0.037510000169277191 -0.012570000253617764
   vertex -0.0080789998173713684 0.030869999900460243 -0.010138999670743942
  endloop
 endfacet
 facet normal 0.087003603686508973 0.15704622212927047 0.98375142036008512
  outer loop
   vertex -0.00037399999564513564 0.026520000770688057 -0.010126000270247459
   vertex 0.0038169999606907368 0.031120000407099724 -0.011230999603867531
   vertex -0.0080789998173713684 0.030869999900460243 -0.010138999670743942
  endloop
 endfacet
 facet normal -0.35407913158101229 -0.62923543697800655 -0.69187479606496227
  outer loop
   vertex -0.0080789998173713684 0.030869999900460243 -0.010138999670743942
   vertex 0.0034459999296814203 0.037122998386621475 -0.021724000573158264
   vertex -0.00037399999564513564 0.026520000770688057 -0.010126000270247459
  endloop
 endfacet
 facet normal 0.19275733918452681 -0.98123295718502912 0.0051470306414717849
  outer loop
   vertex -0.012261000461876392 0.029978999868035316 -0.023383000865578651
   vertex -0.0080789998173713684 0.030869999900460243 -0.010138999670743942
   vertex -0.014809999614953995 0.029534999281167984 -0.012567000463604927
  endloop
 endfacet
 facet normal -0.75388936224967407 0.65199368324620899 -0.080963365134003318
  outer loop
   vertex -0.0084929997101426125 0.035307999700307846 -0.024898000061511993
   vertex -0.014809999614953995 0.029534999281167984 -0.012567000463604927
   vertex -0.0047160000540316105 0.039887998253107071 -0.023184999823570251
  endloop
 endfacet
 facet normal -0.84283166805110865 0.50068035014557888 -0.19736759183889918
  outer loop
   vertex -0.013368000276386738 0.029938999563455582 -0.017699999734759331
   vertex -0.014809999614953995 0.029534999281167984 -0.012567000463604927
   vertex -0.0084929997101426125 0.035307999700307846 -0.024898000061511993
  endloop
 endfacet
 facet normal -0.63510016513707779 0.76331091983063992 -0.118339426693553
  outer loop
   vertex -0.012261000461876392 0.029978999868035316 -0.023383000865578651
   vertex -0.014809999614953995 0.029534999281167984 -0.012567000463604927
   vertex -0.013368000276386738 0.029938999563455582 -0.017699999734759331
  endloop
 endfacet
 facet normal -0.55494307043557856 0.58025624765046091 -0.59610475223582937
  outer loop
   vertex 0.0071450001560151577 0.040704000741243362 0.0098919998854398727
   vertex 0.0012519999872893095 0.037510000169277191 0.012268999591469765
   vertex 0.0074180001392960548 0.042089998722076416 0.010986999608576298
  endloop
 endfacet
 facet normal -0.26564080667593076 0.57436543540801233 0.77429923701184489
  outer loop
   vertex 0.0074180001392960548 0.042089998722076416 0.010986999608576298
   vertex 0.0012519999872893095 0.037510000169277191 0.012268999591469765
   vertex 0.0044800001196563244 0.037822000682353973 0.013144999742507935
  endloop
 endfacet
 facet normal 0.047517581552231881 0.87270694879851018 -0.48592660038551239
  outer loop
   vertex 0.0044800001196563244 0.037822000682353973 0.013144999742507935
   vertex 0.0012519999872893095 0.037510000169277191 0.012268999591469765
   vertex 0.00025300000561401248 0.038378998637199402 0.013732000254094601
  endloop
 endfacet
 facet normal 0.36638307320533348 0.7127995229702363 -0.59806377897513507
  outer loop
   vertex 0.0059139998629689217 0.037914998829364777 0.01664699986577034
   vertex 0.00025300000561401248 0.038378998637199402 0.013732000254094601
   vertex 0.0026420000940561295 0.041462000459432602 0.018869999796152115
  endloop
 endfacet
 facet normal -0.37215944884309748 0.8619930627532113 -0.34418789113235826
  outer loop
   vertex 0.0026420000940561295 0.041462000459432602 0.018869999796152115
   vertex 0.00025300000561401248 0.038378998637199402 0.013732000254094601
   vertex -0.0047160000540316105 0.039887998253107071 0.022884000092744827
  endloop
 endfacet
 facet normal -0.58788180389593003 0.65990898302853274 0.46788365943502996
  outer loop
   vertex -0.0047160000540316105 0.039887998253107071 0.022884000092744827
   vertex -0.0084929997101426125 0.035307999700307846 0.024598000571131706
   vertex -0.0020320001058280468 0.040403001010417938 0.025529999285936356
  endloop
 endfacet
 facet normal -0.42765582895222942 0.76297652404033256 -0.48474458813535354
  outer loop
   vertex -0.0047160000540316105 0.039887998253107071 0.022884000092744827
   vertex 0.0059639997780323029 0.048379998654127121 0.026828000321984291
   vertex 0.0026420000940561295 0.041462000459432602 0.018869999796152115
  endloop
 endfacet
 facet normal -0.14109668335646272 0.98999564453153654 -0.00059140036686566627
  outer loop
   vertex -0.037507001310586929 0.032035000622272491 -0.0001500000071246177
   vertex -0.037503000348806381 0.03203900158405304 0.0055929999798536301
   vertex -0.030817000195384026 0.032992001622915268 0.0057509997859597206
  endloop
 endfacet
 facet normal -0.049417954177241243 -0.9987779053246163 0.00074942665270965345
  outer loop
   vertex -0.041611999273300171 0.032237999141216278 -0.0001500000071246177
   vertex -0.037503000348806381 0.03203900158405304 0.0055929999798536301
   vertex -0.041607998311519623 0.032242000102996826 0.0054460000246763229
  endloop
 endfacet
 facet normal -0.9963684894832403 -0.08514244097813066 0.00077324586730361129
  outer loop
   vertex -0.041611999273300171 0.032237999141216278 -0.0001500000071246177
   vertex -0.041607998311519623 0.032242000102996826 0.0054460000246763229
   vertex -0.042629998177289963 0.044151000678539276 -0.0001500000071246177
  endloop
 endfacet
 facet normal -0.032395540916915849 -0.42733726513430831 -0.90351169929128783
  outer loop
   vertex -0.045628000050783157 0.035160001367330551 0.0042099999263882637
   vertex -0.042629998177289963 0.044151000678539276 -0.0001500000071246177
   vertex -0.041607998311519623 0.032242000102996826 0.0054460000246763229
  endloop
 endfacet
 facet normal -0.25527790914448906 0.057142554166553478 0.96517766116199577
  outer loop
   vertex -0.045628000050783157 0.035160001367330551 0.0042099999263882637
   vertex -0.041607998311519623 0.032242000102996826 0.0054460000246763229
   vertex -0.044123001396656036 0.04009300097823143 0.0043159998022019863
  endloop
 endfacet
 facet normal -0.9547873154501979 0.29244290434594772 -0.053463351495311923
  outer loop
   vertex -0.044123001396656036 0.04009300097823143 0.0043159998022019863
   vertex -0.042629998177289963 0.044151000678539276 -0.0001500000071246177
   vertex -0.045628000050783157 0.035160001367330551 0.0042099999263882637
  endloop
 endfacet
 facet normal -0.99636848948323409 -0.085142440978130118 -0.00077324587534664314
  outer loop
   vertex -0.041607998311519623 0.032242000102996826 -0.0057459999807178974
   vertex -0.041611999273300171 0.032237999141216278 -0.0001500000071246177
   vertex -0.042629998177289963 0.044151000678539276 -0.0001500000071246177
  endloop
 endfacet
 facet normal -0.95478979067228986 0.29243303248601438 0.05347314409120172
  outer loop
   vertex -0.042629998177289963 0.044151000678539276 -0.0001500000071246177
   vertex -0.044123001396656036 0.04009300097823143 -0.0046160002239048481
   vertex -0.045628000050783157 0.035160001367330551 -0.0045110001228749752
  endloop
 endfacet
 facet normal -0.032634738445173214 -0.42735074673269408 0.90349671450073576
  outer loop
   vertex -0.042629998177289963 0.044151000678539276 -0.0001500000071246177
   vertex -0.045628000050783157 0.035160001367330551 -0.0045110001228749752
   vertex -0.041607998311519623 0.032242000102996826 -0.0057459999807178974
  endloop
 endfacet
 facet normal -0.25498394332729846 0.057246959795858088 -0.96524917727983195
  outer loop
   vertex -0.041607998311519623 0.032242000102996826 -0.0057459999807178974
   vertex -0.045628000050783157 0.035160001367330551 -0.0045110001228749752
   vertex -0.044123001396656036 0.04009300097823143 -0.0046160002239048481
  endloop
 endfacet
 facet normal -0.049417269610409084 -0.99877795340531805 -0.00073024361446175101
  outer loop
   vertex -0.037507001310586929 0.032035000622272491 -0.0001500000071246177
   vertex -0.041607998311519623 0.032242000102996826 -0.0057459999807178974
   vertex -0.037503000348806381 0.03203900158405304 -0.0058929999358952045
  endloop
 endfacet
 facet normal -0.14109696826224091 0.98999561328964703 0.00057551234532358898
  outer loop
   vertex -0.030820999294519424 0.03298800066113472 -0.0001500000071246177
   vertex -0.030817000195384026 0.032992001622915268 -0.0060519999824464321
   vertex -0.037503000348806381 0.03203900158405304 -0.0058929999358952045
  endloop
 endfacet
 facet normal -0.58784448083010421 0.65983341311707533 -0.46803710674673665
  outer loop
   vertex -0.0084929997101426125 0.035307999700307846 -0.024898000061511993
   vertex -0.0047160000540316105 0.039887998253107071 -0.023184999823570251
   vertex -0.0020320001058280468 0.040403001010417938 -0.025830000638961792
  endloop
 endfacet
 facet normal -0.63700094954257991 0.69337154382398269 0.33684668990061112
  outer loop
   vertex -0.0020320001058280468 0.040403001010417938 -0.025830000638961792
   vertex 0.0026420000940561295 0.041462000459432602 -0.019170999526977539
   vertex 0.0059639997780323029 0.048379998654127121 -0.027129000052809715
  endloop
 endfacet
 facet normal -0.37214117799781182 0.86201826920856861 0.3441445149774508
  outer loop
   vertex 0.00025300000561401248 0.038378998637199402 -0.014031999744474888
   vertex 0.0026420000940561295 0.041462000459432602 -0.019170999526977539
   vertex -0.0047160000540316105 0.039887998253107071 -0.023184999823570251
  endloop
 endfacet
 facet normal 0.038757509502734308 0.84882709599033634 0.52724796497450577
  outer loop
   vertex 0.0044800001196563244 0.037822000682353973 -0.013446000404655933
   vertex 0.0026420000940561295 0.041462000459432602 -0.019170999526977539
   vertex 0.00025300000561401248 0.038378998637199402 -0.014031999744474888
  endloop
 endfacet
 facet normal 0.047587093972865209 0.87258473831442651 0.48613922177495772
  outer loop
   vertex 0.0012519999872893095 0.037510000169277191 -0.012570000253617764
   vertex 0.0044800001196563244 0.037822000682353973 -0.013446000404655933
   vertex 0.00025300000561401248 0.038378998637199402 -0.014031999744474888
  endloop
 endfacet
 facet normal -0.26851109706442616 0.093122962375314741 0.95876478065879334
  outer loop
   vertex 0.0038169999606907368 0.031120000407099724 -0.011230999603867531
   vertex 0.0074180001392960548 0.042089998722076416 -0.011288000270724297
   vertex 0.0012519999872893095 0.037510000169277191 -0.012570000253617764
  endloop
 endfacet
 facet normal -0.26564080667593076 0.57436543540801233 -0.77429923701184489
  outer loop
   vertex 0.0012519999872893095 0.037510000169277191 -0.012570000253617764
   vertex 0.0074180001392960548 0.042089998722076416 -0.011288000270724297
   vertex 0.0044800001196563244 0.037822000682353973 -0.013446000404655933
  endloop
 endfacet
 facet normal -0.5073178832541142 0.26505810307977057 0.81998339454059588
  outer loop
   vertex 0.0071450001560151577 0.040704000741243362 0.0098919998854398727
   vertex -0.00037399999564513564 0.026520000770688057 0.0098249996080994606
   vertex 0.0038169999606907368 0.031120000407099724 0.010931000113487244
  endloop
 endfacet
 facet normal -0.85042603092127989 0.45208549676841125 -0.26906183219315444
  outer loop
   vertex 0.0071450001560151577 0.040704000741243362 0.0098919998854398727
   vertex 0.0006970000104047358 0.025127999484539032 0.0041009997949004173
   vertex -0.00037399999564513564 0.026520000770688057 0.0098249996080994606
  endloop
 endfacet
 facet normal -0.33052242564576778 -0.92940887417428875 0.16417694951277131
  outer loop
   vertex 0.018819000571966171 0.019468000158667564 0.0085429996252059937
   vertex -0.00037399999564513564 0.026520000770688057 0.0098249996080994606
   vertex 0.0006970000104047358 0.025127999484539032 0.0041009997949004173
  endloop
 endfacet
 facet normal -0.30440823385043209 -0.95104249909789285 0.053420895478222104
  outer loop
   vertex 0.016109000891447067 0.021534999832510948 0.015003000386059284
   vertex 0.01259899977594614 0.022756999358534813 0.016757000237703323
   vertex -0.00037399999564513564 0.026520000770688057 0.0098249996080994606
  endloop
 endfacet
 facet normal -0.51950113542957266 -0.40262459566512104 0.75366571187289833
  outer loop
   vertex 0.01259899977594614 0.022756999358534813 0.016757000237703323
   vertex 0.010362000204622746 0.028717000037431717 0.01839900016784668
   vertex -0.00037399999564513564 0.026520000770688057 0.0098249996080994606
  endloop
 endfacet
 facet normal -0.42394260135397405 -0.5945721028505625 0.68319593475743512
  outer loop
   vertex -0.00037399999564513564 0.026520000770688057 0.0098249996080994606
   vertex 0.010362000204622746 0.028717000037431717 0.01839900016784668
   vertex 0.0034459999296814203 0.037122998386621475 0.02142300084233284
  endloop
 endfacet
 facet normal 0.85906942227958571 0.36831973412526314 0.35544380872103326
  outer loop
   vertex 0.005609000101685524 0.035114999860525131 0.018276000395417213
   vertex 0.0026420000940561295 0.041462000459432602 0.018869999796152115
   vertex 0.0034459999296814203 0.037122998386621475 0.02142300084233284
  endloop
 endfacet
 facet normal 0.93328032117958437 -0.037245023282081305 -0.35721233228942306
  outer loop
   vertex 0.0034459999296814203 0.037122998386621475 0.02142300084233284
   vertex 0.0026420000940561295 0.041462000459432602 0.018869999796152115
   vertex 0.0059639997780323029 0.048379998654127121 0.026828000321984291
  endloop
 endfacet
 facet normal 0.78344055208660357 -0.40256930423594478 0.47345417585361438
  outer loop
   vertex 0.0034459999296814203 0.037122998386621475 0.02142300084233284
   vertex 0.0059639997780323029 0.048379998654127121 0.026828000321984291
   vertex 0.0037110000848770142 0.046730998903512955 0.029154000803828239
  endloop
 endfacet
 facet normal 0.98313024917942815 -0.18058158792134293 -0.029072379541441668
  outer loop
   vertex 0.0034459999296814203 0.037122998386621475 0.02142300084233284
   vertex 0.0050429999828338623 0.044160999357700348 0.031711999326944351
   vertex 0.0034930000547319651 0.036789000034332275 0.025087000802159309
  endloop
 endfacet
 facet normal 0.41301748008271633 -0.91065516774502175 -0.011123246172281592
  outer loop
   vertex 0.0034459999296814203 0.037122998386621475 0.02142300084233284
   vertex 0.0018220000201836228 0.036231998354196548 0.034067999571561813
   vertex -0.012261000461876392 0.029978999868035316 0.023081999272108078
  endloop
 endfacet
 facet normal -0.7186186069212358 -0.68110749741657206 -0.14028497692025549
  outer loop
   vertex 0.0034459999296814203 0.037122998386621475 0.02142300084233284
   vertex 0.0048870001919567585 0.033743999898433685 0.03044700063765049
   vertex 0.0018220000201836228 0.036231998354196548 0.034067999571561813
  endloop
 endfacet
 facet normal 0.49873815590274539 0.86372888707312323 0.072337137641413377
  outer loop
   vertex 0.0034930000547319651 0.036789000034332275 0.025087000802159309
   vertex 0.0086310002952814102 0.034285999834537506 0.019548999145627022
   vertex 0.0034459999296814203 0.037122998386621475 0.02142300084233284
  endloop
 endfacet
 facet normal 0.36954226295939402 0.87743071897802005 -0.30586573734330702
  outer loop
   vertex 0.0034459999296814203 0.037122998386621475 0.02142300084233284
   vertex 0.0086310002952814102 0.034285999834537506 0.019548999145627022
   vertex 0.005609000101685524 0.035114999860525131 0.018276000395417213
  endloop
 endfacet
 facet normal -0.64943469543839116 -0.74894616983464912 -0.13158347559953296
  outer loop
   vertex 0.0077530001290142536 0.032280001789331436 0.027730999514460564
   vertex 0.0034459999296814203 0.037122998386621475 0.02142300084233284
   vertex 0.010054999962449074 0.031168999150395393 0.022693000733852386
  endloop
 endfacet
 facet normal -0.66556247139077074 -0.66761448011148061 0.3336427769661543
  outer loop
   vertex 0.010054999962449074 0.031168999150395393 0.022693000733852386
   vertex 0.0034459999296814203 0.037122998386621475 0.02142300084233284
   vertex 0.010362000204622746 0.028717000037431717 0.01839900016784668
  endloop
 endfacet
 facet normal -0.58891351894482669 -0.7832512892442236 -0.19924428499026706
  outer loop
   vertex 0.0034459999296814203 0.037122998386621475 0.02142300084233284
   vertex 0.0077530001290142536 0.032280001789331436 0.027730999514460564
   vertex 0.0048870001919567585 0.033743999898433685 0.03044700063765049
  endloop
 endfacet
 facet normal -0.82688655860383264 0.53992222267084278 0.15729784698617902
  outer loop
   vertex -0.013368000276386738 0.029938999563455582 0.017400000244379044
   vertex -0.012261000461876392 0.029978999868035316 0.023081999272108078
   vertex -0.0084929997101426125 0.035307999700307846 0.024598000571131706
  endloop
 endfacet
 facet normal -0.57697990241678454 0.18141972655783209 0.79635486752000151
  outer loop
   vertex -0.0084929997101426125 0.035307999700307846 0.024598000571131706
   vertex -0.012261000461876392 0.029978999868035316 0.023081999272108078
   vertex -0.00019099999917671084 0.039464998990297318 0.029665999114513397
  endloop
 endfacet
 facet normal -0.66667176103051795 0.42170769151519061 0.61458228575301188
  outer loop
   vertex -0.00019099999917671084 0.039464998990297318 0.029665999114513397
   vertex -0.012261000461876392 0.029978999868035316 0.023081999272108078
   vertex 0.0018220000201836228 0.036231998354196548 0.034067999571561813
  endloop
 endfacet
 facet normal -0.59834024486202853 0.68175734864267734 0.42094639676585288
  outer loop
   vertex -0.0020320001058280468 0.040403001010417938 0.025529999285936356
   vertex -0.0084929997101426125 0.035307999700307846 0.024598000571131706
   vertex -0.00019099999917671084 0.039464998990297318 0.029665999114513397
  endloop
 endfacet
 facet normal -0.50700334461578078 0.2648902436362402 -0.82023214236869868
  outer loop
   vertex -0.00037399999564513564 0.026520000770688057 -0.010126000270247459
   vertex 0.0071450001560151577 0.040704000741243362 -0.010192999616265297
   vertex 0.0038169999606907368 0.031120000407099724 -0.011230999603867531
  endloop
 endfacet
 facet normal -0.85043689227567709 0.45209103065549289 0.26901820060609738
  outer loop
   vertex 0.0006970000104047358 0.025127999484539032 -0.0044010002166032791
   vertex 0.0071450001560151577 0.040704000741243362 -0.010192999616265297
   vertex -0.00037399999564513564 0.026520000770688057 -0.010126000270247459
  endloop
 endfacet
 facet normal -0.33232384389895819 -0.92885459942388904 -0.16367649771823556
  outer loop
   vertex 0.016109000891447067 0.021534999832510948 -0.015302999876439571
   vertex 0.0006970000104047358 0.025127999484539032 -0.0044010002166032791
   vertex -0.00037399999564513564 0.026520000770688057 -0.010126000270247459
  endloop
 endfacet
 facet normal -0.30440133577676715 -0.95104552384800634 -0.053406351176529948
  outer loop
   vertex 0.01259899977594614 0.022756999358534813 -0.017057999968528748
   vertex 0.016109000891447067 0.021534999832510948 -0.015302999876439571
   vertex -0.00037399999564513564 0.026520000770688057 -0.010126000270247459
  endloop
 endfacet
 facet normal -0.51950072027655425 -0.40251426060671119 -0.75372493101951588
  outer loop
   vertex 0.010362000204622746 0.028717000037431717 -0.018698999658226967
   vertex 0.01259899977594614 0.022756999358534813 -0.017057999968528748
   vertex -0.00037399999564513564 0.026520000770688057 -0.010126000270247459
  endloop
 endfacet
 facet normal -0.42387996070079681 -0.59460541403939893 -0.68320581123942881
  outer loop
   vertex 0.010362000204622746 0.028717000037431717 -0.018698999658226967
   vertex -0.00037399999564513564 0.026520000770688057 -0.010126000270247459
   vertex 0.0034459999296814203 0.037122998386621475 -0.021724000573158264
  endloop
 endfacet
 facet normal 0.77566293186857427 0.42060483577347385 -0.47057261740247536
  outer loop
   vertex 0.0059139998629689217 0.037914998829364777 -0.016947999596595764
   vertex 0.0034459999296814203 0.037122998386621475 -0.021724000573158264
   vertex 0.0026420000940561295 0.041462000459432602 -0.019170999526977539
  endloop
 endfacet
 facet normal 0.93328032117958437 -0.037245023282081305 0.35721233228942306
  outer loop
   vertex 0.0026420000940561295 0.041462000459432602 -0.019170999526977539
   vertex 0.0034459999296814203 0.037122998386621475 -0.021724000573158264
   vertex 0.0059639997780323029 0.048379998654127121 -0.027129000052809715
  endloop
 endfacet
 facet normal 0.78336118501341312 -0.40260146871547114 -0.47355813919995798
  outer loop
   vertex 0.0059639997780323029 0.048379998654127121 -0.027129000052809715
   vertex 0.0034459999296814203 0.037122998386621475 -0.021724000573158264
   vertex 0.0037110000848770142 0.046730998903512955 -0.029454000294208527
  endloop
 endfacet
 facet normal 0.92595936873257412 0.12537348560883699 0.35620322368370488
  outer loop
   vertex 0.0037110000848770142 0.046730998903512955 -0.029454000294208527
   vertex 0.0034930000547319651 0.036789000034332275 -0.025388000532984734
   vertex 0.0050429999828338623 0.044160999357700348 -0.032012000679969788
  endloop
 endfacet
 facet normal 0.41301747897282243 -0.91065516824622939 0.011123246350141922
  outer loop
   vertex 0.0018220000201836228 0.036231998354196548 -0.034368999302387238
   vertex 0.0034459999296814203 0.037122998386621475 -0.021724000573158264
   vertex -0.012261000461876392 0.029978999868035316 -0.023383000865578651
  endloop
 endfacet
 facet normal -0.7186186069212358 -0.68110749741657206 0.14028497692025549
  outer loop
   vertex 0.0048870001919567585 0.033743999898433685 -0.030748000368475914
   vertex 0.0034459999296814203 0.037122998386621475 -0.021724000573158264
   vertex 0.0018220000201836228 0.036231998354196548 -0.034368999302387238
  endloop
 endfacet
 facet normal 0.52383275996611667 0.82954930778058666 -0.19351275293124878
  outer loop
   vertex 0.0088630001991987228 0.033218998461961746 -0.023795999586582184
   vertex 0.0034459999296814203 0.037122998386621475 -0.021724000573158264
   vertex 0.0086310002952814102 0.034285999834537506 -0.019850000739097595
  endloop
 endfacet
 facet normal 0.36959736118474446 0.87745023803492428 0.30574314444927186
  outer loop
   vertex 0.0086310002952814102 0.034285999834537506 -0.019850000739097595
   vertex 0.0034459999296814203 0.037122998386621475 -0.021724000573158264
   vertex 0.005609000101685524 0.035114999860525131 -0.018575999885797501
  endloop
 endfacet
 facet normal -0.64943469543839116 -0.74894616983464912 0.13158347559953296
  outer loop
   vertex 0.0034459999296814203 0.037122998386621475 -0.021724000573158264
   vertex 0.0077530001290142536 0.032280001789331436 -0.028031999245285988
   vertex 0.010054999962449074 0.031168999150395393 -0.022994000464677811
  endloop
 endfacet
 facet normal -0.66557128614316663 -0.66763809673371788 -0.3335779292032216
  outer loop
   vertex 0.0034459999296814203 0.037122998386621475 -0.021724000573158264
   vertex 0.010054999962449074 0.031168999150395393 -0.022994000464677811
   vertex 0.010362000204622746 0.028717000037431717 -0.018698999658226967
  endloop
 endfacet
 facet normal -0.58891351894482669 -0.7832512892442236 0.19924428499026706
  outer loop
   vertex 0.0077530001290142536 0.032280001789331436 -0.028031999245285988
   vertex 0.0034459999296814203 0.037122998386621475 -0.021724000573158264
   vertex 0.0048870001919567585 0.033743999898433685 -0.030748000368475914
  endloop
 endfacet
 facet normal -0.82687344017175868 0.53995119622296694 -0.15726735082625348
  outer loop
   vertex -0.012261000461876392 0.029978999868035316 -0.023383000865578651
   vertex -0.013368000276386738 0.029938999563455582 -0.017699999734759331
   vertex -0.0084929997101426125 0.035307999700307846 -0.024898000061511993
  endloop
 endfacet
 facet normal -0.57712126105584338 0.18171788148474274 -0.79618443942720329
  outer loop
   vertex -0.012261000461876392 0.029978999868035316 -0.023383000865578651
   vertex -0.0084929997101426125 0.035307999700307846 -0.024898000061511993
   vertex -0.00019099999917671084 0.039464998990297318 -0.029967000707983971
  endloop
 endfacet
 facet normal -0.66667172406755804 0.42170754858112264 -0.61458242392578233
  outer loop
   vertex -0.012261000461876392 0.029978999868035316 -0.023383000865578651
   vertex -0.00019099999917671084 0.039464998990297318 -0.029967000707983971
   vertex 0.0018220000201836228 0.036231998354196548 -0.034368999302387238
  endloop
 endfacet
 facet normal -0.59835763278653387 0.68179488936960897 -0.42086087025949337
  outer loop
   vertex -0.0084929997101426125 0.035307999700307846 -0.024898000061511993
   vertex -0.0020320001058280468 0.040403001010417938 -0.025830000638961792
   vertex -0.00019099999917671084 0.039464998990297318 -0.029967000707983971
  endloop
 endfacet
 facet normal -0.52839769998409425 0.70688877825718377 -0.47021710499043429
  outer loop
   vertex 0.010162999853491783 0.044139999896287918 0.011665999889373779
   vertex 0.0094010001048445702 0.039241999387741089 0.0051589999347925186
   vertex 0.0071450001560151577 0.040704000741243362 0.0098919998854398727
  endloop
 endfacet
 facet normal 0.51821037147118953 0.46501307492109767 -0.71778886244641427
  outer loop
   vertex 0.011339999735355377 0.042877998203039169 0.014329000376164913
   vertex 0.0071450001560151577 0.040704000741243362 0.0098919998854398727
   vertex 0.0074180001392960548 0.042089998722076416 0.010986999608576298
  endloop
 endfacet
 facet normal 0.32352103997123999 0.93652921235406361 -0.13508209023924828
  outer loop
   vertex 0.0094010001048445702 0.039241999387741089 0.0051589999347925186
   vertex 0.0083779999986290932 0.039195999503135681 0.0023900000378489494
   vertex 0.0071450001560151577 0.040704000741243362 0.0098919998854398727
  endloop
 endfacet
 facet normal -0.86541299892630907 0.44434506348371522 -0.23155518963526853
  outer loop
   vertex 0.0083779999986290932 0.039195999503135681 0.0023900000378489494
   vertex 0.0006970000104047358 0.025127999484539032 0.0041009997949004173
   vertex 0.0071450001560151577 0.040704000741243362 0.0098919998854398727
  endloop
 endfacet
 facet normal -0.57797074870862508 0.80909797442858455 -0.10634980682988023
  outer loop
   vertex 0.011339999735355377 0.042877998203039169 0.014329000376164913
   vertex 0.0044800001196563244 0.037822000682353973 0.013144999742507935
   vertex 0.01025800034403801 0.042286999523639679 0.015713000670075417
  endloop
 endfacet
 facet normal -0.65928275700099526 0.70871257012878464 0.25114286623875898
  outer loop
   vertex 0.01025800034403801 0.042286999523639679 0.015713000670075417
   vertex 0.0044800001196563244 0.037822000682353973 0.013144999742507935
   vertex 0.0059139998629689217 0.037914998829364777 0.01664699986577034
  endloop
 endfacet
 facet normal -0.33249928261072798 0.5010594499214166 0.79898914555067557
  outer loop
   vertex 0.005609000101685524 0.035114999860525131 0.018276000395417213
   vertex 0.01025800034403801 0.042286999523639679 0.015713000670075417
   vertex 0.0059139998629689217 0.037914998829364777 0.01664699986577034
  endloop
 endfacet
 facet normal -0.6843634166676279 0.71175103619591329 -0.15829458740290031
  outer loop
   vertex 0.0037110000848770142 0.046730998903512955 0.029154000803828239
   vertex 0.0059639997780323029 0.048379998654127121 0.026828000321984291
   vertex -0.0020320001058280468 0.040403001010417938 0.025529999285936356
  endloop
 endfacet
 facet normal -0.77485647736516017 0.44757073289080507 0.44640550908881366
  outer loop
   vertex -0.00019099999917671084 0.039464998990297318 0.029665999114513397
   vertex 0.0037110000848770142 0.046730998903512955 0.029154000803828239
   vertex -0.0020320001058280468 0.040403001010417938 0.025529999285936356
  endloop
 endfacet
 facet normal -0.68434467397641641 0.71175924454218353 0.1583387034456599
  outer loop
   vertex 0.0059639997780323029 0.048379998654127121 -0.027129000052809715
   vertex 0.0037110000848770142 0.046730998903512955 -0.029454000294208527
   vertex -0.0020320001058280468 0.040403001010417938 -0.025830000638961792
  endloop
 endfacet
 facet normal -0.77487049368068428 0.44763365410487166 -0.44631808134532552
  outer loop
   vertex 0.0037110000848770142 0.046730998903512955 -0.029454000294208527
   vertex -0.00019099999917671084 0.039464998990297318 -0.029967000707983971
   vertex -0.0020320001058280468 0.040403001010417938 -0.025830000638961792
  endloop
 endfacet
 facet normal -0.66539565147589919 0.64663248149964281 -0.37298131436652132
  outer loop
   vertex 0.0074180001392960548 0.042089998722076416 -0.011288000270724297
   vertex 0.01025800034403801 0.042286999523639679 -0.016013000160455704
   vertex 0.0044800001196563244 0.037822000682353973 -0.013446000404655933
  endloop
 endfacet
 facet normal -0.6592562962490055 0.70874127019373034 -0.25113133571942237
  outer loop
   vertex 0.0044800001196563244 0.037822000682353973 -0.013446000404655933
   vertex 0.01025800034403801 0.042286999523639679 -0.016013000160455704
   vertex 0.0059139998629689217 0.037914998829364777 -0.016947999596595764
  endloop
 endfacet
 facet normal -0.33208550368686041 0.50089055612846312 -0.7992670824088548
  outer loop
   vertex 0.01025800034403801 0.042286999523639679 -0.016013000160455704
   vertex 0.005609000101685524 0.035114999860525131 -0.018575999885797501
   vertex 0.0059139998629689217 0.037914998829364777 -0.016947999596595764
  endloop
 endfacet
 facet normal -0.2904490109734652 0.6277667416138738 0.72218300322566154
  outer loop
   vertex 0.010162999853491783 0.044139999896287918 -0.011966000311076641
   vertex 0.0074180001392960548 0.042089998722076416 -0.011288000270724297
   vertex 0.0071450001560151577 0.040704000741243362 -0.010192999616265297
  endloop
 endfacet
 facet normal -0.52847093569176307 0.70682407199172559 0.4702320718348636
  outer loop
   vertex 0.0094010001048445702 0.039241999387741089 -0.0054600001312792301
   vertex 0.010162999853491783 0.044139999896287918 -0.011966000311076641
   vertex 0.0071450001560151577 0.040704000741243362 -0.010192999616265297
  endloop
 endfacet
 facet normal 0.32352106608007103 0.93652920360282543 0.13508208838136859
  outer loop
   vertex 0.0083779999986290932 0.039195999503135681 -0.0026910000015050173
   vertex 0.0094010001048445702 0.039241999387741089 -0.0054600001312792301
   vertex 0.0071450001560151577 0.040704000741243362 -0.010192999616265297
  endloop
 endfacet
 facet normal -0.92016272412842348 0.39065917514847098 0.026191028938842155
  outer loop
   vertex 0.00053100002696737647 0.024452000856399536 -0.0001500000071246177
   vertex 0.0071450001560151577 0.040704000741243362 -0.010192999616265297
   vertex 0.0006970000104047358 0.025127999484539032 -0.0044010002166032791
  endloop
 endfacet
 facet normal -0.29419747293213727 -0.9555867334697743 -0.017373593091556807
  outer loop
   vertex 0.0006970000104047358 0.025127999484539032 0.0041009997949004173
   vertex 0.020089000463485718 0.019192999228835106 0.00216299993917346
   vertex 0.018819000571966171 0.019468000158667564 0.0085429996252059937
  endloop
 endfacet
 facet normal 0.95878678516378635 -0.20223412870226617 0.1995726879693879
  outer loop
   vertex 0.018819000571966171 0.019468000158667564 0.0085429996252059937
   vertex 0.020089000463485718 0.019192999228835106 0.00216299993917346
   vertex 0.021904999390244484 0.033096998929977417 0.0075280000455677509
  endloop
 endfacet
 facet normal 0.81074924934959047 -0.028406783537980554 0.58470395015606125
  outer loop
   vertex 0.016109000891447067 0.021534999832510948 0.015003000386059284
   vertex 0.021904999390244484 0.033096998929977417 0.0075280000455677509
   vertex 0.018945999443531036 0.035032998770475388 0.011725000105798244
  endloop
 endfacet
 facet normal 0.47514256459857457 0.11208087566001941 0.87274132514621572
  outer loop
   vertex 0.01259899977594614 0.022756999358534813 0.016757000237703323
   vertex 0.016109000891447067 0.021534999832510948 0.015003000386059284
   vertex 0.018945999443531036 0.035032998770475388 0.011725000105798244
  endloop
 endfacet
 facet normal 0.6208972935303062 -0.015696014421762581 0.78373476764656325
  outer loop
   vertex 0.010362000204622746 0.028717000037431717 0.01839900016784668
   vertex 0.018945999443531036 0.035032998770475388 0.011725000105798244
   vertex 0.016954999417066574 0.036963999271392822 0.01334100030362606
  endloop
 endfacet
 facet normal 0.70364705337303457 -0.13462891669359864 0.69767892262082409
  outer loop
   vertex 0.010362000204622746 0.028717000037431717 0.01839900016784668
   vertex 0.016954999417066574 0.036963999271392822 0.01334100030362606
   vertex 0.012714999727904797 0.035153999924659729 0.017268000170588493
  endloop
 endfacet
 facet normal 0.93054761739779079 -0.28534849638649318 0.2294719315412278
  outer loop
   vertex 0.010362000204622746 0.028717000037431717 0.01839900016784668
   vertex 0.010308999568223953 0.032474998384714127 0.023287000134587288
   vertex 0.010054999962449074 0.031168999150395393 0.022693000733852386
  endloop
 endfacet
 facet normal -0.23515463663382935 0.45866495644606764 0.85692984228461699
  outer loop
   vertex 0.0086310002952814102 0.034285999834537506 0.019548999145627022
   vertex 0.01025800034403801 0.042286999523639679 0.015713000670075417
   vertex 0.005609000101685524 0.035114999860525131 0.018276000395417213
  endloop
 endfacet
 facet normal -0.61048406117348308 0.37692823785112073 0.69658762159801535
  outer loop
   vertex 0.0037110000848770142 0.046730998903512955 0.029154000803828239
   vertex -0.00019099999917671084 0.039464998990297318 0.029665999114513397
   vertex 0.0050429999828338623 0.044160999357700348 0.031711999326944351
  endloop
 endfacet
 facet normal 0.45035807376072506 0.5425521363867758 -0.70909434118506043
  outer loop
   vertex 0.0062779998406767845 0.035463999956846237 0.025841999799013138
   vertex 0.0034930000547319651 0.036789000034332275 0.025087000802159309
   vertex 0.0050429999828338623 0.044160999357700348 0.031711999326944351
  endloop
 endfacet
 facet normal 0.47313674469469913 0.83584312338456412 -0.27840239566217673
  outer loop
   vertex 0.0062779998406767845 0.035463999956846237 0.025841999799013138
   vertex 0.0088630001991987228 0.033218998461961746 0.02349499985575676
   vertex 0.0034930000547319651 0.036789000034332275 0.025087000802159309
  endloop
 endfacet
 facet normal -0.53302710815314513 0.24068706519148811 0.8111423047920775
  outer loop
   vertex 0.0050429999828338623 0.044160999357700348 0.031711999326944351
   vertex -0.00019099999917671084 0.039464998990297318 0.029665999114513397
   vertex 0.0043080002069473267 0.036857999861240387 0.033395998179912567
  endloop
 endfacet
 facet normal 0.96524384989594869 -0.03750438681093287 0.25864595726201339
  outer loop
   vertex 0.0062779998406767845 0.035463999956846237 0.025841999799013138
   vertex 0.0050429999828338623 0.044160999357700348 0.031711999326944351
   vertex 0.0043080002069473267 0.036857999861240387 0.033395998179912567
  endloop
 endfacet
 facet normal -0.037797264882454391 0.7970793559547904 0.60269052346797547
  outer loop
   vertex -0.00019099999917671084 0.039464998990297318 0.029665999114513397
   vertex 0.0018220000201836228 0.036231998354196548 0.034067999571561813
   vertex 0.0043080002069473267 0.036857999861240387 0.033395998179912567
  endloop
 endfacet
 facet normal 0.34627416992148013 -0.61032404102156346 0.71245965794302968
  outer loop
   vertex 0.0048870001919567585 0.033743999898433685 0.03044700063765049
   vertex 0.0043080002069473267 0.036857999861240387 0.033395998179912567
   vertex 0.0018220000201836228 0.036231998354196548 0.034067999571561813
  endloop
 endfacet
 facet normal 0.36354056661187834 -0.60403606476626548 0.70920990467505352
  outer loop
   vertex 0.0077530001290142536 0.032280001789331436 0.027730999514460564
   vertex 0.0043080002069473267 0.036857999861240387 0.033395998179912567
   vertex 0.0048870001919567585 0.033743999898433685 0.03044700063765049
  endloop
 endfacet
 facet normal 0.47094271412363653 0.85816653123871056 0.20436037941729807
  outer loop
   vertex 0.010308999568223953 0.032474998384714127 0.023287000134587288
   vertex 0.0086310002952814102 0.034285999834537506 0.019548999145627022
   vertex 0.0088630001991987228 0.033218998461961746 0.02349499985575676
  endloop
 endfacet
 facet normal 0.40714860751592669 0.32622452866322116 0.85311638613749607
  outer loop
   vertex 0.012714999727904797 0.035153999924659729 0.017268000170588493
   vertex 0.01025800034403801 0.042286999523639679 0.015713000670075417
   vertex 0.0086310002952814102 0.034285999834537506 0.019548999145627022
  endloop
 endfacet
 facet normal 0.72748609937964148 0.66624142793746599 0.16397053061218253
  outer loop
   vertex 0.0077820001170039177 0.033583998680114746 0.026807999238371849
   vertex 0.0088630001991987228 0.033218998461961746 0.02349499985575676
   vertex 0.0062779998406767845 0.035463999956846237 0.025841999799013138
  endloop
 endfacet
 facet normal 0.90260503914697765 0.23514638619838218 0.36056943903265598
  outer loop
   vertex 0.010054999962449074 0.031168999150395393 0.022693000733852386
   vertex 0.0077820001170039177 0.033583998680114746 0.026807999238371849
   vertex 0.0077530001290142536 0.032280001789331436 0.027730999514460564
  endloop
 endfacet
 facet normal -0.25213372728066552 -0.96560778681909998 0.063483742815610894
  outer loop
   vertex 0.00053100002696737647 0.024452000856399536 -0.0001500000071246177
   vertex 0.020089000463485718 0.019192999228835106 -0.0024639999028295279
   vertex 0.020100999623537064 0.019341999664902687 -0.0001500000071246177
  endloop
 endfacet
 facet normal 0.78063112202690943 -0.13124996641653605 -0.61105523288706598
  outer loop
   vertex 0.018819000571966171 0.019468000158667564 -0.0088440002873539925
   vertex 0.018945999443531036 0.035032998770475388 -0.012024999596178532
   vertex 0.021904999390244484 0.033096998929977417 -0.0078290002420544624
  endloop
 endfacet
 facet normal 0.47532455589435424 0.11202044158076203 -0.87264997979252024
  outer loop
   vertex 0.016109000891447067 0.021534999832510948 -0.015302999876439571
   vertex 0.01259899977594614 0.022756999358534813 -0.017057999968528748
   vertex 0.018945999443531036 0.035032998770475388 -0.012024999596178532
  endloop
 endfacet
 facet normal 0.95878679039074444 -0.20223412462980692 -0.19957266698481144
  outer loop
   vertex 0.020089000463485718 0.019192999228835106 -0.0024639999028295279
   vertex 0.018819000571966171 0.019468000158667564 -0.0088440002873539925
   vertex 0.021904999390244484 0.033096998929977417 -0.0078290002420544624
  endloop
 endfacet
 facet normal 0.62725484885126359 -0.0050094416118263013 -0.77879795845091704
  outer loop
   vertex 0.01259899977594614 0.022756999358534813 -0.017057999968528748
   vertex 0.016954999417066574 0.036963999271392822 -0.013640999794006348
   vertex 0.018945999443531036 0.035032998770475388 -0.012024999596178532
  endloop
 endfacet
 facet normal 0.70375423492307621 -0.13480133261805449 -0.69753750978154017
  outer loop
   vertex 0.016954999417066574 0.036963999271392822 -0.013640999794006348
   vertex 0.010362000204622746 0.028717000037431717 -0.018698999658226967
   vertex 0.012714999727904797 0.035153999924659729 -0.017568999901413918
  endloop
 endfacet
 facet normal 0.92619219108391704 -0.28970749832851062 -0.24132465805923989
  outer loop
   vertex 0.012714999727904797 0.035153999924659729 -0.017568999901413918
   vertex 0.010054999962449074 0.031168999150395393 -0.022994000464677811
   vertex 0.010308999568223953 0.032474998384714127 -0.023586999624967575
  endloop
 endfacet
 facet normal -0.2353656525724161 0.45876239537675101 -0.85681974427375696
  outer loop
   vertex 0.01025800034403801 0.042286999523639679 -0.016013000160455704
   vertex 0.0086310002952814102 0.034285999834537506 -0.019850000739097595
   vertex 0.005609000101685524 0.035114999860525131 -0.018575999885797501
  endloop
 endfacet
 facet normal -0.61041633201245826 0.37698977626215507 -0.69661367357113124
  outer loop
   vertex -0.00019099999917671084 0.039464998990297318 -0.029967000707983971
   vertex 0.0037110000848770142 0.046730998903512955 -0.029454000294208527
   vertex 0.0050429999828338623 0.044160999357700348 -0.032012000679969788
  endloop
 endfacet
 facet normal 0.45034629306952983 0.54250067875087149 0.70914119177592327
  outer loop
   vertex 0.0034930000547319651 0.036789000034332275 -0.025388000532984734
   vertex 0.0062779998406767845 0.035463999956846237 -0.026142999529838562
   vertex 0.0050429999828338623 0.044160999357700348 -0.032012000679969788
  endloop
 endfacet
 facet normal -0.53290730544401177 0.24069276818307186 -0.81121932616819037
  outer loop
   vertex -0.00019099999917671084 0.039464998990297318 -0.029967000707983971
   vertex 0.0050429999828338623 0.044160999357700348 -0.032012000679969788
   vertex 0.0043080002069473267 0.036857999861240387 -0.033695999532938004
  endloop
 endfacet
 facet normal 0.96523593621174419 -0.037496517655463309 -0.25867662942204722
  outer loop
   vertex 0.0050429999828338623 0.044160999357700348 -0.032012000679969788
   vertex 0.0062779998406767845 0.035463999956846237 -0.026142999529838562
   vertex 0.0043080002069473267 0.036857999861240387 -0.033695999532938004
  endloop
 endfacet
 facet normal 0.47313674469469913 0.83584312338456412 0.27840239566217673
  outer loop
   vertex 0.0088630001991987228 0.033218998461961746 -0.023795999586582184
   vertex 0.0062779998406767845 0.035463999956846237 -0.026142999529838562
   vertex 0.0034930000547319651 0.036789000034332275 -0.025388000532984734
  endloop
 endfacet
 facet normal -0.037584356774974993 0.79713303471098373 -0.60263284103861192
  outer loop
   vertex 0.0018220000201836228 0.036231998354196548 -0.034368999302387238
   vertex -0.00019099999917671084 0.039464998990297318 -0.029967000707983971
   vertex 0.0043080002069473267 0.036857999861240387 -0.033695999532938004
  endloop
 endfacet
 facet normal 0.34652322349542636 -0.61010902050624449 -0.71252272853239562
  outer loop
   vertex 0.0043080002069473267 0.036857999861240387 -0.033695999532938004
   vertex 0.0048870001919567585 0.033743999898433685 -0.030748000368475914
   vertex 0.0018220000201836228 0.036231998354196548 -0.034368999302387238
  endloop
 endfacet
 facet normal 0.70279747145199312 -0.41578686416408506 -0.57723218700041445
  outer loop
   vertex 0.0077820001170039177 0.033583998680114746 -0.027108000591397285
   vertex 0.0048870001919567585 0.033743999898433685 -0.030748000368475914
   vertex 0.0043080002069473267 0.036857999861240387 -0.033695999532938004
  endloop
 endfacet
 facet normal -0.057346219445541101 0.96288835778695614 -0.26373741022775421
  outer loop
   vertex 0.012714999727904797 0.035153999924659729 -0.017568999901413918
   vertex 0.0088630001991987228 0.033218998461961746 -0.023795999586582184
   vertex 0.0086310002952814102 0.034285999834537506 -0.019850000739097595
  endloop
 endfacet
 facet normal 0.37617199702066706 0.84059221720650856 0.38974267540176971
  outer loop
   vertex 0.010308999568223953 0.032474998384714127 -0.023586999624967575
   vertex 0.0062779998406767845 0.035463999956846237 -0.026142999529838562
   vertex 0.0088630001991987228 0.033218998461961746 -0.023795999586582184
  endloop
 endfacet
 facet normal 0.4071143221685693 0.32632734069941904 -0.85309342712112812
  outer loop
   vertex 0.01025800034403801 0.042286999523639679 -0.016013000160455704
   vertex 0.012714999727904797 0.035153999924659729 -0.017568999901413918
   vertex 0.0086310002952814102 0.034285999834537506 -0.019850000739097595
  endloop
 endfacet
 facet normal 0.81403422111427637 0.32364233472947934 -0.48229029227813103
  outer loop
   vertex 0.010308999568223953 0.032474998384714127 -0.023586999624967575
   vertex 0.0077530001290142536 0.032280001789331436 -0.028031999245285988
   vertex 0.0077820001170039177 0.033583998680114746 -0.027108000591397285
  endloop
 endfacet
 facet normal 0.73205086412710396 0.63572129626011009 -0.24486724119842102
  outer loop
   vertex 0.016954999417066574 0.036963999271392822 0.01334100030362606
   vertex 0.010162999853491783 0.044139999896287918 0.011665999889373779
   vertex 0.013217000290751457 0.041305001825094223 0.013435999862849712
  endloop
 endfacet
 facet normal 0.65872991581826479 0.74964309152113662 0.06411032163929857
  outer loop
   vertex 0.013217000290751457 0.041305001825094223 0.013435999862849712
   vertex 0.010162999853491783 0.044139999896287918 0.011665999889373779
   vertex 0.011339999735355377 0.042877998203039169 0.014329000376164913
  endloop
 endfacet
 facet normal 0.54183316679157478 0.79262876956533379 -0.27956475640172979
  outer loop
   vertex 0.016954999417066574 0.036963999271392822 0.01334100030362606
   vertex 0.018945999443531036 0.035032998770475388 0.011725000105798244
   vertex 0.0094010001048445702 0.039241999387741089 0.0051589999347925186
  endloop
 endfacet
 facet normal 0.45293271974694371 0.88700757168851285 -0.089830502335700335
  outer loop
   vertex 0.018945999443531036 0.035032998770475388 0.011725000105798244
   vertex 0.021904999390244484 0.033096998929977417 0.0075280000455677509
   vertex 0.0094010001048445702 0.039241999387741089 0.0051589999347925186
  endloop
 endfacet
 facet normal 0.36349709758412974 0.91095385940156282 -0.19502032224696761
  outer loop
   vertex 0.0094010001048445702 0.039241999387741089 0.0051589999347925186
   vertex 0.022762000560760498 0.032774001359939575 -0.0001500000071246177
   vertex 0.010812999680638313 0.037542000412940979 -0.0001500000071246177
  endloop
 endfacet
 facet normal 0.42471523932670152 0.88890046703483483 -0.17167680445801428
  outer loop
   vertex 0.0094010001048445702 0.039241999387741089 0.0051589999347925186
   vertex 0.010812999680638313 0.037542000412940979 -0.0001500000071246177
   vertex 0.0083779999986290932 0.039195999503135681 0.0023900000378489494
  endloop
 endfacet
 facet normal 0.64938229445632867 0.36867884707326432 0.66511543612170265
  outer loop
   vertex 0.012714999727904797 0.035153999924659729 0.017268000170588493
   vertex 0.011339999735355377 0.042877998203039169 0.014329000376164913
   vertex 0.01025800034403801 0.042286999523639679 0.015713000670075417
  endloop
 endfacet
 facet normal -0.5144574922257279 0.40409869641668272 -0.75633176070237373
  outer loop
   vertex 0.010812999680638313 0.037542000412940979 -0.0001500000071246177
   vertex 0.00053100002696737647 0.024452000856399536 -0.0001500000071246177
   vertex 0.0083779999986290932 0.039195999503135681 0.0023900000378489494
  endloop
 endfacet
 facet normal -0.51457331893630454 0.40418967657240323 0.75620434063232678
  outer loop
   vertex 0.00053100002696737647 0.024452000856399536 -0.0001500000071246177
   vertex 0.010812999680638313 0.037542000412940979 -0.0001500000071246177
   vertex 0.0083779999986290932 0.039195999503135681 -0.0026910000015050173
  endloop
 endfacet
 facet normal 0.63967548482635228 0.38529589124861136 -0.6651032628841248
  outer loop
   vertex 0.013217000290751457 0.041305001825094223 -0.013736000284552574
   vertex 0.01025800034403801 0.042286999523639679 -0.016013000160455704
   vertex 0.011339999735355377 0.042877998203039169 -0.014630000106990337
  endloop
 endfacet
 facet normal 0.65874188606208983 0.74963539297886517 -0.064077337185489872
  outer loop
   vertex 0.010162999853491783 0.044139999896287918 -0.011966000311076641
   vertex 0.013217000290751457 0.041305001825094223 -0.013736000284552574
   vertex 0.011339999735355377 0.042877998203039169 -0.014630000106990337
  endloop
 endfacet
 facet normal 0.73221331097965003 0.50014905945750432 0.46229274875125609
  outer loop
   vertex 0.0094010001048445702 0.039241999387741089 -0.0054600001312792301
   vertex 0.013217000290751457 0.041305001825094223 -0.013736000284552574
   vertex 0.010162999853491783 0.044139999896287918 -0.011966000311076641
  endloop
 endfacet
 facet normal 0.54181899802449962 0.79263125163721471 0.2795851789844197
  outer loop
   vertex 0.018945999443531036 0.035032998770475388 -0.012024999596178532
   vertex 0.016954999417066574 0.036963999271392822 -0.013640999794006348
   vertex 0.0094010001048445702 0.039241999387741089 -0.0054600001312792301
  endloop
 endfacet
 facet normal 0.45293479672472403 0.88700462718056949 0.08984910281239103
  outer loop
   vertex 0.021904999390244484 0.033096998929977417 -0.0078290002420544624
   vertex 0.018945999443531036 0.035032998770475388 -0.012024999596178532
   vertex 0.0094010001048445702 0.039241999387741089 -0.0054600001312792301
  endloop
 endfacet
 facet normal 0.37061219063409362 0.92878487240536189 -0.0022945466554272738
  outer loop
   vertex 0.021904999390244484 0.033096998929977417 -0.0078290002420544624
   vertex 0.010812999680638313 0.037542000412940979 -0.0001500000071246177
   vertex 0.022762000560760498 0.032774001359939575 -0.0001500000071246177
  endloop
 endfacet
 facet normal 0.4246749134209028 0.88892254270826165 0.17166225844962921
  outer loop
   vertex 0.010812999680638313 0.037542000412940979 -0.0001500000071246177
   vertex 0.0094010001048445702 0.039241999387741089 -0.0054600001312792301
   vertex 0.0083779999986290932 0.039195999503135681 -0.0026910000015050173
  endloop
 endfacet
 facet normal 0.97421492091844974 -0.19300078100637325 0.11685883103466699
  outer loop
   vertex 0.021904999390244484 0.033096998929977417 0.0075280000455677509
   vertex 0.020100999623537064 0.019341999664902687 -0.0001500000071246177
   vertex 0.022762000560760498 0.032774001359939575 -0.0001500000071246177
  endloop
 endfacet
 facet normal 0.98090871704775151 -0.19432688251961505 0.0074264089533266995
  outer loop
   vertex 0.020089000463485718 0.019192999228835106 -0.0024639999028295279
   vertex 0.022762000560760498 0.032774001359939575 -0.0001500000071246177
   vertex 0.020100999623537064 0.019341999664902687 -0.0001500000071246177
  endloop
 endfacet
 facet normal 0.51135004797149597 0.42396022643733072 0.74751512014055999
  outer loop
   vertex 0.016954999417066574 0.036963999271392822 0.01334100030362606
   vertex 0.013217000290751457 0.041305001825094223 0.013435999862849712
   vertex 0.012714999727904797 0.035153999924659729 0.017268000170588493
  endloop
 endfacet
 facet normal 0.758430212958911 0.64702289866011486 0.078389927162636944
  outer loop
   vertex 0.0043080002069473267 0.036857999861240387 0.033395998179912567
   vertex 0.0077820001170039177 0.033583998680114746 0.026807999238371849
   vertex 0.0062779998406767845 0.035463999956846237 0.025841999799013138
  endloop
 endfacet
 facet normal 0.51142125540798211 0.42402323040827533 -0.74743066540720282
  outer loop
   vertex 0.013217000290751457 0.041305001825094223 -0.013736000284552574
   vertex 0.016954999417066574 0.036963999271392822 -0.013640999794006348
   vertex 0.012714999727904797 0.035153999924659729 -0.017568999901413918
  endloop
 endfacet
 facet normal 0.75844550926234944 0.64700277919418592 -0.07840799190627766
  outer loop
   vertex 0.0077820001170039177 0.033583998680114746 -0.027108000591397285
   vertex 0.0043080002069473267 0.036857999861240387 -0.033695999532938004
   vertex 0.0062779998406767845 0.035463999956846237 -0.026142999529838562
  endloop
 endfacet
endsolid
