solid Visualization Toolkit generated SLA File
 facet normal -0.75629105992103929 0.64784089901520503 0.091246930067164181
  outer loop
   vertex -0.0082569997757673264 0.08298800140619278 -0.00013200000103097409
   vertex -0.00084400002378970385 0.09110800176858902 0.0036589999217540026
   vertex -0.0014649999793618917 0.090916998684406281 -0.00013200000103097409
  endloop
 endfacet
 facet normal -0.071299063040464086 0.47466553455744587 -0.87727365964837101
  outer loop
   vertex -0.0082569997757673264 0.08298800140619278 -0.00013200000103097409
   vertex -0.0092089995741844177 0.082845002412796021 -0.00013200000103097409
   vertex -0.00084400002378970385 0.09110800176858902 0.0036589999217540026
  endloop
 endfacet
 facet normal -0.75628939849034305 0.64783947582932744 -0.0912708019483634
  outer loop
   vertex -0.0082569997757673264 0.08298800140619278 -0.00013200000103097409
   vertex -0.0014649999793618917 0.090916998684406281 -0.00013200000103097409
   vertex -0.00084400002378970385 0.09110800176858902 -0.0039220000617206097
  endloop
 endfacet
 facet normal -0.071284589328864653 0.47456917744193261 0.87732696478924121
  outer loop
   vertex -0.0082569997757673264 0.08298800140619278 -0.00013200000103097409
   vertex -0.00084400002378970385 0.09110800176858902 -0.0039220000617206097
   vertex -0.0092089995741844177 0.082845002412796021 -0.00013200000103097409
  endloop
 endfacet
 facet normal 0.98120689667920591 -0.19245007291947011 0.013999833658034859
  outer loop
   vertex -0.0045590000227093697 0.075286999344825745 0.0018579999450594187
   vertex -0.0014649999793618917 0.090916998684406281 -0.00013200000103097409
   vertex -0.0016189999878406525 0.090236000716686249 0.0013000000035390258
  endloop
 endfacet
 facet normal 0.98095772734764219 -0.19422113268512903 -0.00029795210128871649
  outer loop
   vertex -0.0045599997974932194 0.075285002589225769 -0.00013200000103097409
   vertex -0.0014649999793618917 0.090916998684406281 -0.00013200000103097409
   vertex -0.0045590000227093697 0.075286999344825745 0.0018579999450594187
  endloop
 endfacet
 facet normal 0.88209994063640895 -0.45510587490948617 -0.12156618506852535
  outer loop
   vertex -0.0014649999793618917 0.090916998684406281 -0.00013200000103097409
   vertex -0.00084400002378970385 0.09110800176858902 0.0036589999217540026
   vertex -0.0016189999878406525 0.090236000716686249 0.0013000000035390258
  endloop
 endfacet
 facet normal 0.98120672289406596 -0.1924509921406567 -0.013999377542038751
  outer loop
   vertex -0.0014649999793618917 0.090916998684406281 -0.00013200000103097409
   vertex -0.0045590000227093697 0.075286999344825745 -0.0021210000850260258
   vertex -0.0016189999878406525 0.090236000716686249 -0.0015640000347048044
  endloop
 endfacet
 facet normal 0.98095772730385389 -0.19422113267645932 0.00029810188056134492
  outer loop
   vertex -0.0014649999793618917 0.090916998684406281 -0.00013200000103097409
   vertex -0.0045599997974932194 0.075285002589225769 -0.00013200000103097409
   vertex -0.0045590000227093697 0.075286999344825745 -0.0021210000850260258
  endloop
 endfacet
 facet normal 0.88207234934811474 -0.45515261940061186 0.12159137949813424
  outer loop
   vertex -0.00084400002378970385 0.09110800176858902 -0.0039220000617206097
   vertex -0.0014649999793618917 0.090916998684406281 -0.00013200000103097409
   vertex -0.0016189999878406525 0.090236000716686249 -0.0015640000347048044
  endloop
 endfacet
 facet normal -0.25100065562311802 0.93185598502234601 -0.26199827109123874
  outer loop
   vertex 0.0041539999656379223 0.094425998628139496 0.010672000236809254
   vertex -0.0016189999878406525 0.090236000716686249 0.0013000000035390258
   vertex -0.00084400002378970385 0.09110800176858902 0.0036589999217540026
  endloop
 endfacet
 facet normal -0.26930471176615778 0.93049329370204636 -0.24830868409313378
  outer loop
   vertex 0.0041539999656379223 0.094425998628139496 0.010672000236809254
   vertex -0.00084400002378970385 0.09110800176858902 0.0036589999217540026
   vertex -0.0018019999843090773 0.091012999415397644 0.0043420000001788139
  endloop
 endfacet
 facet normal -0.77237407584793338 0.6056101603131725 0.19150618967413169
  outer loop
   vertex -0.00084400002378970385 0.09110800176858902 0.0036589999217540026
   vertex -0.010670999996364117 0.078272998332977295 0.0046140002086758614
   vertex -0.0037299999967217445 0.085313998162746429 0.010342000052332878
  endloop
 endfacet
 facet normal -0.43432935857877092 -0.57927620360054155 -0.68978046378445468
  outer loop
   vertex -0.0037299999967217445 0.085313998162746429 0.010342000052332878
   vertex -0.0018019999843090773 0.091012999415397644 0.0043420000001788139
   vertex -0.00084400002378970385 0.09110800176858902 0.0036589999217540026
  endloop
 endfacet
 facet normal -0.025477858438050956 0.53905919988691686 0.84188244888861274
  outer loop
   vertex -0.0092089995741844177 0.082845002412796021 -0.00013200000103097409
   vertex -0.021970000118017197 0.077212996780872345 0.0030879999976605177
   vertex -0.016349000856280327 0.077170997858047485 0.0032850001007318497
  endloop
 endfacet
 facet normal -0.28668382378256652 0.73255894653259834 0.61738948406695104
  outer loop
   vertex -0.010670999996364117 0.078272998332977295 0.0046140002086758614
   vertex -0.0092089995741844177 0.082845002412796021 -0.00013200000103097409
   vertex -0.016349000856280327 0.077170997858047485 0.0032850001007318497
  endloop
 endfacet
 facet normal -0.012479600987133271 0.84410261465960235 -0.53603641246096789
  outer loop
   vertex -0.022050000727176666 0.079255998134613037 -0.00013200000103097409
   vertex -0.016349000856280327 0.077170997858047485 -0.0035480000078678131
   vertex -0.021970000118017197 0.077212996780872345 -0.0033509999047964811
  endloop
 endfacet
 facet normal -0.2866884135503695 0.73249808839217856 -0.61745955660089702
  outer loop
   vertex -0.0092089995741844177 0.082845002412796021 -0.00013200000103097409
   vertex -0.010670999996364117 0.078272998332977295 -0.0048770001158118248
   vertex -0.016349000856280327 0.077170997858047485 -0.0035480000078678131
  endloop
 endfacet
 facet normal -0.78814608871311742 0.54629078733988012 -0.28353503930517743
  outer loop
   vertex -0.0092089995741844177 0.082845002412796021 -0.00013200000103097409
   vertex -0.0037299999967217445 0.085313998162746429 -0.010604999959468842
   vertex -0.010670999996364117 0.078272998332977295 -0.0048770001158118248
  endloop
 endfacet
 facet normal -0.2506226264654306 0.93188818269615259 0.26224552246860461
  outer loop
   vertex -0.0016189999878406525 0.090236000716686249 -0.0015640000347048044
   vertex 0.0041539999656379223 0.094425998628139496 -0.010936000384390354
   vertex -0.00084400002378970385 0.09110800176858902 -0.0039220000617206097
  endloop
 endfacet
 facet normal -0.26929071926039477 0.93050291502591176 0.24828780406717502
  outer loop
   vertex -0.00084400002378970385 0.09110800176858902 -0.0039220000617206097
   vertex 0.0041539999656379223 0.094425998628139496 -0.010936000384390354
   vertex -0.0018019999843090773 0.091012999415397644 -0.0046049999073147774
  endloop
 endfacet
 facet normal -0.43432920307406431 -0.57927628623454375 0.68978049230415539
  outer loop
   vertex -0.0018019999843090773 0.091012999415397644 -0.0046049999073147774
   vertex -0.0037299999967217445 0.085313998162746429 -0.010604999959468842
   vertex -0.00084400002378970385 0.09110800176858902 -0.0039220000617206097
  endloop
 endfacet
 facet normal 0.82424957390109366 -0.18211650787100464 -0.5361401099383778
  outer loop
   vertex 0.0010029999539256096 0.080573998391628265 0.0086129996925592422
   vertex -0.0045590000227093697 0.075286999344825745 0.0018579999450594187
   vertex -0.0016189999878406525 0.090236000716686249 0.0013000000035390258
  endloop
 endfacet
 facet normal 0.42810611058789466 -0.84835129853990143 0.31148873549932471
  outer loop
   vertex 0.0010029999539256096 0.080573998391628265 0.0086129996925592422
   vertex -0.010631999932229519 0.073687002062797546 0.0058470000512897968
   vertex -0.0045590000227093697 0.075286999344825745 0.0018579999450594187
  endloop
 endfacet
 facet normal 0.25528418003970865 -0.96686569834541347 0.00084189339550864355
  outer loop
   vertex -0.010631999932229519 0.073687002062797546 0.0058470000512897968
   vertex -0.0045599997974932194 0.075285002589225769 -0.00013200000103097409
   vertex -0.0045590000227093697 0.075286999344825745 0.0018579999450594187
  endloop
 endfacet
 facet normal 0.86884919947174899 -0.12649551104667955 -0.47864386997259289
  outer loop
   vertex 0.0041539999656379223 0.094425998628139496 0.010672000236809254
   vertex 0.0010029999539256096 0.080573998391628265 0.0086129996925592422
   vertex -0.0016189999878406525 0.090236000716686249 0.0013000000035390258
  endloop
 endfacet
 facet normal 0.25524592543867475 -0.96687579760805153 -0.00084234597921964416
  outer loop
   vertex -0.010635999962687492 0.073680996894836426 -0.00013200000103097409
   vertex -0.0045590000227093697 0.075286999344825745 -0.0021210000850260258
   vertex -0.0045599997974932194 0.075285002589225769 -0.00013200000103097409
  endloop
 endfacet
 facet normal 0.86884920201627691 -0.12649551236380729 0.47864386500559747
  outer loop
   vertex 0.0010029999539256096 0.080573998391628265 -0.0088769998401403427
   vertex 0.0041539999656379223 0.094425998628139496 -0.010936000384390354
   vertex -0.0016189999878406525 0.090236000716686249 -0.0015640000347048044
  endloop
 endfacet
 facet normal 0.82427726117139888 -0.18208490624916729 0.53610827603387112
  outer loop
   vertex -0.0045590000227093697 0.075286999344825745 -0.0021210000850260258
   vertex 0.0010029999539256096 0.080573998391628265 -0.0088769998401403427
   vertex -0.0016189999878406525 0.090236000716686249 -0.0015640000347048044
  endloop
 endfacet
 facet normal 0.41041281399765234 -0.86904974692183645 -0.27624963254567492
  outer loop
   vertex -0.005295999813824892 0.077762000262737274 -0.011002000421285629
   vertex -0.0045590000227093697 0.075286999344825745 -0.0021210000850260258
   vertex -0.010631999932229519 0.073687002062797546 -0.0061099999584257603
  endloop
 endfacet
 facet normal 0.75266125801514006 0.65828432405289805 0.01275850262710412
  outer loop
   vertex 0.0087620001286268234 0.089156001806259155 0.010742000304162502
   vertex 0.0041539999656379223 0.094425998628139496 0.010672000236809254
   vertex 0.0074590002186596394 0.090621002018451691 0.012021999806165695
  endloop
 endfacet
 facet normal -0.74958259657229898 0.64285232947737558 0.15769214755796199
  outer loop
   vertex 0.0041539999656379223 0.094425998628139496 0.010672000236809254
   vertex -0.0037299999967217445 0.085313998162746429 0.010342000052332878
   vertex 0.0024540000595152378 0.090147003531455994 0.020035000517964363
  endloop
 endfacet
 facet normal 0.60669429339467251 0.6755998585118661 0.41891152471743442
  outer loop
   vertex 0.0041539999656379223 0.094425998628139496 0.010672000236809254
   vertex 0.0024540000595152378 0.090147003531455994 0.020035000517964363
   vertex 0.0074590002186596394 0.090621002018451691 0.012021999806165695
  endloop
 endfacet
 facet normal -0.72533497292067728 0.17297686183961727 0.66630937433468429
  outer loop
   vertex -0.010670999996364117 0.078272998332977295 0.0046140002086758614
   vertex -0.010631999932229519 0.073687002062797546 0.0058470000512897968
   vertex -0.0037299999967217445 0.085313998162746429 0.010342000052332878
  endloop
 endfacet
 facet normal -0.73763890536018528 0.18706332425119054 0.64876510234376938
  outer loop
   vertex -0.0037299999967217445 0.085313998162746429 0.010342000052332878
   vertex -0.010631999932229519 0.073687002062797546 0.0058470000512897968
   vertex -0.005295999813824892 0.077762000262737274 0.010738999582827091
  endloop
 endfacet
 facet normal -0.86825837603926592 0.20382146261682108 0.45230985376663679
  outer loop
   vertex -0.0037299999967217445 0.085313998162746429 0.010342000052332878
   vertex -0.005295999813824892 0.077762000262737274 0.010738999582827091
   vertex 0.0024540000595152378 0.090147003531455994 0.020035000517964363
  endloop
 endfacet
 facet normal -0.26357704635845769 0.22755636567004833 0.9374141246407538
  outer loop
   vertex -0.016349000856280327 0.077170997858047485 0.0032850001007318497
   vertex -0.013214999809861183 0.073591999709606171 0.0050349999219179153
   vertex -0.010670999996364117 0.078272998332977295 0.0046140002086758614
  endloop
 endfacet
 facet normal -0.18705336365940267 0.3184977677304614 0.92928478471048703
  outer loop
   vertex -0.016349000856280327 0.077170997858047485 0.0032850001007318497
   vertex -0.023290999233722687 0.0687670037150383 0.0047679999843239784
   vertex -0.019454000517725945 0.070647001266479492 0.0048960000276565552
  endloop
 endfacet
 facet normal -0.032826603048088078 0.19992016169286059 0.979262142166756
  outer loop
   vertex -0.021970000118017197 0.077212996780872345 0.0030879999976605177
   vertex -0.023290999233722687 0.0687670037150383 0.0047679999843239784
   vertex -0.016349000856280327 0.077170997858047485 0.0032850001007318497
  endloop
 endfacet
 facet normal -0.37854545709811577 0.77726396912551821 0.50255751830971951
  outer loop
   vertex -0.022050000727176666 0.079255998134613037 -0.00013200000103097409
   vertex -0.027809999883174896 0.073922000825405121 0.0037789999041706324
   vertex -0.021970000118017197 0.077212996780872345 0.0030879999976605177
  endloop
 endfacet
 facet normal 0.0067024462634335275 0.19407604079970006 0.9809635913741136
  outer loop
   vertex -0.023290999233722687 0.0687670037150383 0.0047679999843239784
   vertex -0.021970000118017197 0.077212996780872345 0.0030879999976605177
   vertex -0.027809999883174896 0.073922000825405121 0.0037789999041706324
  endloop
 endfacet
 facet normal -0.29417809749128115 0.66596814482466227 -0.68552583980124904
  outer loop
   vertex -0.027178000658750534 0.078226000070571899 -0.00013200000103097409
   vertex -0.021970000118017197 0.077212996780872345 -0.0033509999047964811
   vertex -0.027809999883174896 0.073922000825405121 -0.0040420000441372395
  endloop
 endfacet
 facet normal -0.032826603048088078 0.19992016169286059 -0.979262142166756
  outer loop
   vertex -0.023290999233722687 0.0687670037150383 -0.0050309998914599419
   vertex -0.021970000118017197 0.077212996780872345 -0.0033509999047964811
   vertex -0.016349000856280327 0.077170997858047485 -0.0035480000078678131
  endloop
 endfacet
 facet normal 0.0067024891597721866 0.19407603428841944 -0.98096359236922925
  outer loop
   vertex -0.021970000118017197 0.077212996780872345 -0.0033509999047964811
   vertex -0.023290999233722687 0.0687670037150383 -0.0050309998914599419
   vertex -0.027809999883174896 0.073922000825405121 -0.0040420000441372395
  endloop
 endfacet
 facet normal -0.18742596190167843 0.31877549239089392 -0.92911446778971951
  outer loop
   vertex -0.023290999233722687 0.0687670037150383 -0.0050309998914599419
   vertex -0.016349000856280327 0.077170997858047485 -0.0035480000078678131
   vertex -0.019454000517725945 0.070647001266479492 -0.0051600001752376556
  endloop
 endfacet
 facet normal -0.085731180856640679 0.13536859410486132 -0.98707928169878989
  outer loop
   vertex -0.019454000517725945 0.070647001266479492 -0.0051600001752376556
   vertex -0.010670999996364117 0.078272998332977295 -0.0048770001158118248
   vertex -0.013214999809861183 0.073591999709606171 -0.0052979998290538788
  endloop
 endfacet
 facet normal -0.28789663790976255 -0.19182788064642189 -0.93825241277971527
  outer loop
   vertex -0.013214999809861183 0.073591999709606171 -0.0052979998290538788
   vertex -0.0037299999967217445 0.085313998162746429 -0.010604999959468842
   vertex -0.010631999932229519 0.073687002062797546 -0.0061099999584257603
  endloop
 endfacet
 facet normal -0.80756366556849624 0.53485878589482638 -0.24852968676736839
  outer loop
   vertex -0.0018019999843090773 0.091012999415397644 -0.0046049999073147774
   vertex 0.0024540000595152378 0.090147003531455994 -0.020298000425100327
   vertex -0.0037299999967217445 0.085313998162746429 -0.010604999959468842
  endloop
 endfacet
 facet normal -0.7376389828235882 0.1870634143254481 -0.64876498829690865
  outer loop
   vertex -0.010631999932229519 0.073687002062797546 -0.0061099999584257603
   vertex -0.0037299999967217445 0.085313998162746429 -0.010604999959468842
   vertex -0.005295999813824892 0.077762000262737274 -0.011002000421285629
  endloop
 endfacet
 facet normal -0.86825837706355025 0.20382151721202343 -0.45230982719852381
  outer loop
   vertex -0.005295999813824892 0.077762000262737274 -0.011002000421285629
   vertex -0.0037299999967217445 0.085313998162746429 -0.010604999959468842
   vertex 0.0024540000595152378 0.090147003531455994 -0.020298000425100327
  endloop
 endfacet
 facet normal 0.4168736601170186 0.04015034974793992 0.90807725492700153
  outer loop
   vertex 0.0010029999539256096 0.080573998391628265 -0.0088769998401403427
   vertex 0.0074590002186596394 0.090621002018451691 -0.012284999713301659
   vertex 0.0041539999656379223 0.094425998628139496 -0.010936000384390354
  endloop
 endfacet
 facet normal 0.60674209002708668 0.67554059428475721 -0.41893787327354354
  outer loop
   vertex 0.0024540000595152378 0.090147003531455994 -0.020298000425100327
   vertex 0.0041539999656379223 0.094425998628139496 -0.010936000384390354
   vertex 0.0074590002186596394 0.090621002018451691 -0.012284999713301659
  endloop
 endfacet
 facet normal 0.025649585805189407 0.21879326751954761 -0.97543405970682717
  outer loop
   vertex 0.0087620001286268234 0.089156001806259155 0.010742000304162502
   vertex 0.012562000192701817 0.083480998873710632 0.0095690004527568817
   vertex 0.0010029999539256096 0.080573998391628265 0.0086129996925592422
  endloop
 endfacet
 facet normal 0.043926738059582623 0.15014807766713009 -0.98768719565270768
  outer loop
   vertex 0.012562000192701817 0.083480998873710632 0.0095690004527568817
   vertex 0.0094069996848702431 0.078042998909950256 0.0086019998416304588
   vertex 0.0010029999539256096 0.080573998391628265 0.0086129996925592422
  endloop
 endfacet
 facet normal -0.19273558560529527 -0.64318516875363108 0.74105723985178551
  outer loop
   vertex 0.010982000268995762 0.089268997311592102 0.018755000084638596
   vertex 0.0010029999539256096 0.080573998391628265 0.0086129996925592422
   vertex 0.0094069996848702431 0.078042998909950256 0.0086019998416304588
  endloop
 endfacet
 facet normal 0.4662226070804189 -0.8440714871046161 0.26491471326473964
  outer loop
   vertex 0.010982000268995762 0.089268997311592102 0.018755000084638596
   vertex -0.005295999813824892 0.077762000262737274 0.010738999582827091
   vertex 0.0010029999539256096 0.080573998391628265 0.0086129996925592422
  endloop
 endfacet
 facet normal -0.036458077286773784 0.99933473579839605 -0.0009457416674317126
  outer loop
   vertex -0.01321799959987402 0.073587000370025635 -0.00013200000103097409
   vertex -0.013214999809861183 0.073591999709606171 0.0050349999219179153
   vertex -0.010631999932229519 0.073687002062797546 0.0058470000512897968
  endloop
 endfacet
 facet normal -0.87362864010913233 0.47788288075175839 0.091656704421820126
  outer loop
   vertex -0.005295999813824892 0.077762000262737274 0.010738999582827091
   vertex -0.00030200000037439167 0.084821000695228577 0.021534999832510948
   vertex 0.0024540000595152378 0.090147003531455994 0.020035000517964363
  endloop
 endfacet
 facet normal -0.92332439786492693 0.31305137948651152 0.22242052537695836
  outer loop
   vertex -0.005295999813824892 0.077762000262737274 0.010738999582827091
   vertex -0.0039699999615550041 0.07847999781370163 0.015232999809086323
   vertex -0.00030200000037439167 0.084821000695228577 0.021534999832510948
  endloop
 endfacet
 facet normal -0.78232075648926591 0.60837192606653923 0.13363320523040589
  outer loop
   vertex -0.005295999813824892 0.077762000262737274 0.010738999582827091
   vertex -0.0028969999402761459 0.078767001628875732 0.020207999274134636
   vertex -0.0039699999615550041 0.07847999781370163 0.015232999809086323
  endloop
 endfacet
 facet normal 0.036447481448666434 -0.99933508979607633 -0.00097948880386203112
  outer loop
   vertex -0.010635999962687492 0.073680996894836426 -0.00013200000103097409
   vertex -0.013214999809861183 0.073591999709606171 -0.0052979998290538788
   vertex -0.010631999932229519 0.073687002062797546 -0.0061099999584257603
  endloop
 endfacet
 facet normal 0.025687291726978406 0.21865304037389424 0.97546451036364468
  outer loop
   vertex 0.012562000192701817 0.083480998873710632 -0.0098329996690154076
   vertex 0.0087620001286268234 0.089156001806259155 -0.011005000211298466
   vertex 0.0010029999539256096 0.080573998391628265 -0.0088769998401403427
  endloop
 endfacet
 facet normal 0.043871902530467119 0.15035619159159161 0.98765797309515491
  outer loop
   vertex 0.0094069996848702431 0.078042998909950256 -0.0088649997487664223
   vertex 0.012562000192701817 0.083480998873710632 -0.0098329996690154076
   vertex 0.0010029999539256096 0.080573998391628265 -0.0088769998401403427
  endloop
 endfacet
 facet normal -0.19266315172706186 -0.64323739443962302 -0.74103074454513695
  outer loop
   vertex 0.0010029999539256096 0.080573998391628265 -0.0088769998401403427
   vertex 0.010982000268995762 0.089268997311592102 -0.019019000232219696
   vertex 0.0094069996848702431 0.078042998909950256 -0.0088649997487664223
  endloop
 endfacet
 facet normal 0.40598679787459452 -0.91386012429340302 0.0058645697181788897
  outer loop
   vertex -0.0028969999402761459 0.078767001628875732 -0.020470999181270599
   vertex 0.0010029999539256096 0.080573998391628265 -0.0088769998401403427
   vertex -0.005295999813824892 0.077762000262737274 -0.011002000421285629
  endloop
 endfacet
 facet normal -0.87362863878934727 0.47788288191037315 -0.09165671096056538
  outer loop
   vertex -0.00030200000037439167 0.084821000695228577 -0.021797999739646912
   vertex -0.005295999813824892 0.077762000262737274 -0.011002000421285629
   vertex 0.0024540000595152378 0.090147003531455994 -0.020298000425100327
  endloop
 endfacet
 facet normal -0.9233244023527819 0.31305132655087181 -0.22242058125231448
  outer loop
   vertex -0.0039699999615550041 0.07847999781370163 -0.015495999716222286
   vertex -0.005295999813824892 0.077762000262737274 -0.011002000421285629
   vertex -0.00030200000037439167 0.084821000695228577 -0.021797999739646912
  endloop
 endfacet
 facet normal -0.78232062900361699 0.60837209822473393 -0.13363316780283149
  outer loop
   vertex -0.0028969999402761459 0.078767001628875732 -0.020470999181270599
   vertex -0.005295999813824892 0.077762000262737274 -0.011002000421285629
   vertex -0.0039699999615550041 0.07847999781370163 -0.015495999716222286
  endloop
 endfacet
 facet normal -0.63522072422654419 0.42846662563523957 -0.64258149851194468
  outer loop
   vertex 0.013864999637007713 0.093598999083042145 0.008659999817609787
   vertex 0.0087620001286268234 0.089156001806259155 0.010742000304162502
   vertex 0.013849999755620956 0.095014996826648712 0.0096190003678202629
  endloop
 endfacet
 facet normal -0.35616873236837882 0.46468492765227581 0.8106859762546168
  outer loop
   vertex 0.013849999755620956 0.095014996826648712 0.0096190003678202629
   vertex 0.0087620001286268234 0.089156001806259155 0.010742000304162502
   vertex 0.011849000118672848 0.090184003114700317 0.011509000323712826
  endloop
 endfacet
 facet normal -0.025039734381489331 0.6450299133359948 -0.76374696241874729
  outer loop
   vertex 0.011849000118672848 0.090184003114700317 0.011509000323712826
   vertex 0.0087620001286268234 0.089156001806259155 0.010742000304162502
   vertex 0.0074590002186596394 0.090621002018451691 0.012021999806165695
  endloop
 endfacet
 facet normal 0.25757719806258206 0.77687498482968464 -0.5745600447160476
  outer loop
   vertex 0.01322999969124794 0.090594999492168427 0.014573999680578709
   vertex 0.0074590002186596394 0.090621002018451691 0.012021999806165695
   vertex 0.0093149999156594276 0.09333299845457077 0.016520999372005463
  endloop
 endfacet
 facet normal -0.51724007068572564 0.81040956455768942 -0.27513459787973193
  outer loop
   vertex 0.0093149999156594276 0.09333299845457077 0.016520999372005463
   vertex 0.0074590002186596394 0.090621002018451691 0.012021999806165695
   vertex 0.0024540000595152378 0.090147003531455994 0.020035000517964363
  endloop
 endfacet
 facet normal 0.19258630939373753 0.17240965336717079 0.96601523013869273
  outer loop
   vertex 0.0024540000595152378 0.090147003531455994 0.020035000517964363
   vertex -0.00030200000037439167 0.084821000695228577 0.021534999832510948
   vertex 0.0052200001664459705 0.086116001009941101 0.0202029999345541
  endloop
 endfacet
 facet normal -0.49003321522433102 0.85199626804593287 -0.18430899927216654
  outer loop
   vertex 0.0024540000595152378 0.090147003531455994 0.020035000517964363
   vertex 0.0114120002835989 0.095558002591133118 0.021230999380350113
   vertex 0.0093149999156594276 0.09333299845457077 0.016520999372005463
  endloop
 endfacet
 facet normal -0.42685268135382221 0.90432094576021993 -0.00064457768620045683
  outer loop
   vertex -0.019456999376416206 0.070642001926898956 -0.00013200000103097409
   vertex -0.019454000517725945 0.070647001266479492 0.0048960000276565552
   vertex -0.013214999809861183 0.073591999709606171 0.0050349999219179153
  endloop
 endfacet
 facet normal 0.43997784565792997 -0.89800850787433528 0.00046380547282260049
  outer loop
   vertex -0.023293999955058098 0.068763002753257751 -0.00013200000103097409
   vertex -0.019454000517725945 0.070647001266479492 0.0048960000276565552
   vertex -0.023290999233722687 0.0687670037150383 0.0047679999843239784
  endloop
 endfacet
 facet normal -0.92510833379732837 -0.37970225489616694 0.0008765645994810318
  outer loop
   vertex -0.023293999955058098 0.068763002753257751 -0.00013200000103097409
   vertex -0.023290999233722687 0.0687670037150383 0.0047679999843239784
   vertex -0.027178000658750534 0.078226000070571899 -0.00013200000103097409
  endloop
 endfacet
 facet normal 0.016732809945191964 -0.45447780251126435 -0.89060088709582497
  outer loop
   vertex -0.027807999402284622 0.07072100043296814 0.0036859998945146799
   vertex -0.027178000658750534 0.078226000070571899 -0.00013200000103097409
   vertex -0.023290999233722687 0.0687670037150383 0.0047679999843239784
  endloop
 endfacet
 facet normal -0.2444227782705852 -0.02831293548242856 0.96925532402296155
  outer loop
   vertex -0.027807999402284622 0.07072100043296814 0.0036859998945146799
   vertex -0.023290999233722687 0.0687670037150383 0.0047679999843239784
   vertex -0.027809999883174896 0.073922000825405121 0.0037789999041706324
  endloop
 endfacet
 facet normal -0.98785260913560913 0.0038959379258297535 -0.15534492039216277
  outer loop
   vertex -0.027809999883174896 0.073922000825405121 0.0037789999041706324
   vertex -0.027178000658750534 0.078226000070571899 -0.00013200000103097409
   vertex -0.027807999402284622 0.07072100043296814 0.0036859998945146799
  endloop
 endfacet
 facet normal -0.92510833365220468 -0.37970225483660225 -0.00087674354358269625
  outer loop
   vertex -0.023290999233722687 0.0687670037150383 -0.0050309998914599419
   vertex -0.023293999955058098 0.068763002753257751 -0.00013200000103097409
   vertex -0.027178000658750534 0.078226000070571899 -0.00013200000103097409
  endloop
 endfacet
 facet normal -0.98784669700355032 0.0038970329737226285 0.15538248406167798
  outer loop
   vertex -0.027178000658750534 0.078226000070571899 -0.00013200000103097409
   vertex -0.027809999883174896 0.073922000825405121 -0.0040420000441372395
   vertex -0.027807999402284622 0.07072100043296814 -0.003949000034481287
  endloop
 endfacet
 facet normal 0.016783153494523698 -0.4543865706208231 0.89064649002745588
  outer loop
   vertex -0.027178000658750534 0.078226000070571899 -0.00013200000103097409
   vertex -0.027807999402284622 0.07072100043296814 -0.003949000034481287
   vertex -0.023290999233722687 0.0687670037150383 -0.0050309998914599419
  endloop
 endfacet
 facet normal -0.24442273128220515 -0.028312935797059575 -0.96925533586310397
  outer loop
   vertex -0.023290999233722687 0.0687670037150383 -0.0050309998914599419
   vertex -0.027807999402284622 0.07072100043296814 -0.003949000034481287
   vertex -0.027809999883174896 0.073922000825405121 -0.0040420000441372395
  endloop
 endfacet
 facet normal 0.43997318925164985 -0.89801068770775727 -0.00063047789238238961
  outer loop
   vertex -0.019456999376416206 0.070642001926898956 -0.00013200000103097409
   vertex -0.023290999233722687 0.0687670037150383 -0.0050309998914599419
   vertex -0.019454000517725945 0.070647001266479492 -0.0051600001752376556
  endloop
 endfacet
 facet normal 0.42685308341998723 -0.9043207681417903 -0.0006272816687878872
  outer loop
   vertex -0.01321799959987402 0.073587000370025635 -0.00013200000103097409
   vertex -0.019454000517725945 0.070647001266479492 -0.0051600001752376556
   vertex -0.013214999809861183 0.073591999709606171 -0.0052979998290538788
  endloop
 endfacet
 facet normal -0.69431953176055594 0.50397252950984373 -0.51374320172168897
  outer loop
   vertex -0.00030200000037439167 0.084821000695228577 -0.021797999739646912
   vertex 0.0024540000595152378 0.090147003531455994 -0.020298000425100327
   vertex 0.0049689998850226402 0.091251000761985779 -0.022614000365138054
  endloop
 endfacet
 facet normal -0.56700112731976837 0.81301810878489522 0.1323301794978923
  outer loop
   vertex 0.0049689998850226402 0.091251000761985779 -0.022614000365138054
   vertex 0.0093149999156594276 0.09333299845457077 -0.016783999279141426
   vertex 0.0114120002835989 0.095558002591133118 -0.021469000726938248
  endloop
 endfacet
 facet normal -0.51724007068572564 0.81040956455768942 0.27513459787973193
  outer loop
   vertex 0.0074590002186596394 0.090621002018451691 -0.012284999713301659
   vertex 0.0093149999156594276 0.09333299845457077 -0.016783999279141426
   vertex 0.0024540000595152378 0.090147003531455994 -0.020298000425100327
  endloop
 endfacet
 facet normal 0.023651348434319239 0.85184974743608954 0.52325196751690184
  outer loop
   vertex 0.011849000118672848 0.090184003114700317 -0.011772000230848789
   vertex 0.0093149999156594276 0.09333299845457077 -0.016783999279141426
   vertex 0.0074590002186596394 0.090621002018451691 -0.012284999713301659
  endloop
 endfacet
 facet normal -0.025039734381489331 0.6450299133359948 0.76374696241874729
  outer loop
   vertex 0.0087620001286268234 0.089156001806259155 -0.011005000211298466
   vertex 0.011849000118672848 0.090184003114700317 -0.011772000230848789
   vertex 0.0074590002186596394 0.090621002018451691 -0.012284999713301659
  endloop
 endfacet
 facet normal -0.25050706194386907 0.032084723708781591 0.96758295893467527
  outer loop
   vertex 0.012562000192701817 0.083480998873710632 -0.0098329996690154076
   vertex 0.013849999755620956 0.095014996826648712 -0.0098820002749562263
   vertex 0.0087620001286268234 0.089156001806259155 -0.011005000211298466
  endloop
 endfacet
 facet normal -0.35616873236837882 0.46468492765227581 -0.8106859762546168
  outer loop
   vertex 0.0087620001286268234 0.089156001806259155 -0.011005000211298466
   vertex 0.013849999755620956 0.095014996826648712 -0.0098820002749562263
   vertex 0.011849000118672848 0.090184003114700317 -0.011772000230848789
  endloop
 endfacet
 facet normal -0.50490690371516778 0.14152020635170923 0.85149342321296406
  outer loop
   vertex 0.013864999637007713 0.093598999083042145 0.008659999817609787
   vertex 0.0094069996848702431 0.078042998909950256 0.0086019998416304588
   vertex 0.012562000192701817 0.083480998873710632 0.0095690004527568817
  endloop
 endfacet
 facet normal -0.91625124635042476 0.26370140731738773 -0.30157125416744007
  outer loop
   vertex 0.013864999637007713 0.093598999083042145 0.008659999817609787
   vertex 0.010734000243246555 0.076921999454498291 0.003590000094845891
   vertex 0.0094069996848702431 0.078042998909950256 0.0086019998416304588
  endloop
 endfacet
 facet normal -0.11538431995707499 -0.97544093690615352 0.18762046081301667
  outer loop
   vertex 0.02957100048661232 0.075442001223564148 0.0074800001457333565
   vertex 0.0094069996848702431 0.078042998909950256 0.0086019998416304588
   vertex 0.010734000243246555 0.076921999454498291 0.003590000094845891
  endloop
 endfacet
 facet normal -0.085309898713100782 -0.99446125940967922 0.061392383199181257
  outer loop
   vertex 0.026505999267101288 0.07685600221157074 0.013135000132024288
   vertex 0.022832000628113747 0.077266000211238861 0.014670999720692635
   vertex 0.0094069996848702431 0.078042998909950256 0.0086019998416304588
  endloop
 endfacet
 facet normal -0.38742522141018437 -0.46182983333822825 0.79788150928195722
  outer loop
   vertex 0.022832000628113747 0.077266000211238861 0.014670999720692635
   vertex 0.019439000636339188 0.082594998180866241 0.01610800065100193
   vertex 0.0094069996848702431 0.078042998909950256 0.0086019998416304588
  endloop
 endfacet
 facet normal -0.26460936737861623 -0.62617944294939254 0.73340383686143662
  outer loop
   vertex 0.0094069996848702431 0.078042998909950256 0.0086019998416304588
   vertex 0.019439000636339188 0.082594998180866241 0.01610800065100193
   vertex 0.010982000268995762 0.089268997311592102 0.018755000084638596
  endloop
 endfacet
 facet normal 0.74876389331136228 0.52765508396919147 0.40116423623582936
  outer loop
   vertex 0.01350099965929985 0.087788999080657959 0.016000000759959221
   vertex 0.0093149999156594276 0.09333299845457077 0.016520999372005463
   vertex 0.010982000268995762 0.089268997311592102 0.018755000084638596
  endloop
 endfacet
 facet normal 0.88576403406818149 0.11633578271321629 -0.44931955400557066
  outer loop
   vertex 0.010982000268995762 0.089268997311592102 0.018755000084638596
   vertex 0.0093149999156594276 0.09333299845457077 0.016520999372005463
   vertex 0.0114120002835989 0.095558002591133118 0.021230999380350113
  endloop
 endfacet
 facet normal 0.80996964262876114 -0.26196183726273004 0.52471437357649342
  outer loop
   vertex 0.010982000268995762 0.089268997311592102 0.018755000084638596
   vertex 0.0114120002835989 0.095558002591133118 0.021230999380350113
   vertex 0.0095459995791316032 0.093474000692367554 0.023071000352501869
  endloop
 endfacet
 facet normal 0.99573809656403023 0.051250179925022239 -0.076675042280359221
  outer loop
   vertex 0.010982000268995762 0.089268997311592102 0.018755000084638596
   vertex 0.011366000398993492 0.091294996440410614 0.025095999240875244
   vertex 0.011345000006258488 0.083858996629714966 0.019852999597787857
  endloop
 endfacet
 facet normal 0.49472542045478829 -0.72094713238256281 -0.48526486650610984
  outer loop
   vertex 0.010982000268995762 0.089268997311592102 0.018755000084638596
   vertex 0.0098259998485445976 0.082952998578548431 0.026960000395774841
   vertex -0.0028969999402761459 0.078767001628875732 0.020207999274134636
  endloop
 endfacet
 facet normal -0.67719928867178936 -0.53385565774664945 -0.5063588254531709
  outer loop
   vertex 0.010982000268995762 0.089268997311592102 0.018755000084638596
   vertex 0.013321000151336193 0.081237003207206726 0.024095000699162483
   vertex 0.0098259998485445976 0.082952998578548431 0.026960000395774841
  endloop
 endfacet
 facet normal 0.32791341806515301 0.20898730561749462 0.92130184865958464
  outer loop
   vertex 0.011345000006258488 0.083858996629714966 0.019852999597787857
   vertex 0.0166190005838871 0.087654002010822296 0.017115000635385513
   vertex 0.010982000268995762 0.089268997311592102 0.018755000084638596
  endloop
 endfacet
 facet normal 0.16385729202144148 0.92367279288308479 -0.34638036829324187
  outer loop
   vertex 0.010982000268995762 0.089268997311592102 0.018755000084638596
   vertex 0.0166190005838871 0.087654002010822296 0.017115000635385513
   vertex 0.01350099965929985 0.087788999080657959 0.016000000759959221
  endloop
 endfacet
 facet normal -0.08531383594563835 -0.38551587728739506 -0.91874863687276875
  outer loop
   vertex 0.016414999961853027 0.080462001264095306 0.021945999935269356
   vertex 0.010982000268995762 0.089268997311592102 0.018755000084638596
   vertex 0.018641000613570213 0.084923997521400452 0.019866999238729477
  endloop
 endfacet
 facet normal -0.4977353641667876 -0.78062695877548272 0.37799610909465214
  outer loop
   vertex 0.018641000613570213 0.084923997521400452 0.019866999238729477
   vertex 0.010982000268995762 0.089268997311592102 0.018755000084638596
   vertex 0.019439000636339188 0.082594998180866241 0.01610800065100193
  endloop
 endfacet
 facet normal -0.56138677010198534 -0.56530089975982822 -0.6043838077622441
  outer loop
   vertex 0.010982000268995762 0.089268997311592102 0.018755000084638596
   vertex 0.016414999961853027 0.080462001264095306 0.021945999935269356
   vertex 0.013321000151336193 0.081237003207206726 0.024095000699162483
  endloop
 endfacet
 facet normal -0.91801403391140846 0.35458388102124394 0.17754014999885373
  outer loop
   vertex -0.0039699999615550041 0.07847999781370163 0.015232999809086323
   vertex -0.0028969999402761459 0.078767001628875732 0.020207999274134636
   vertex -0.00030200000037439167 0.084821000695228577 0.021534999832510948
  endloop
 endfacet
 facet normal -0.2301288238126333 -0.11321942468070953 0.96655164700370932
  outer loop
   vertex -0.00030200000037439167 0.084821000695228577 0.021534999832510948
   vertex -0.0028969999402761459 0.078767001628875732 0.020207999274134636
   vertex 0.0070560001768171787 0.086443997919559479 0.023476999253034592
  endloop
 endfacet
 facet normal -0.52660039723654217 0.35351199383514931 0.7731243702309567
  outer loop
   vertex 0.0070560001768171787 0.086443997919559479 0.023476999253034592
   vertex -0.0028969999402761459 0.078767001628875732 0.020207999274134636
   vertex 0.0098259998485445976 0.082952998578548431 0.026960000395774841
  endloop
 endfacet
 facet normal -0.22208479708909037 0.97465627283749834 0.026897819993702162
  outer loop
   vertex 0.0052200001664459705 0.086116001009941101 0.0202029999345541
   vertex -0.00030200000037439167 0.084821000695228577 0.021534999832510948
   vertex 0.0070560001768171787 0.086443997919559479 0.023476999253034592
  endloop
 endfacet
 facet normal -0.50529290705371377 0.14163174923634037 -0.85124586676791647
  outer loop
   vertex 0.0094069996848702431 0.078042998909950256 -0.0088649997487664223
   vertex 0.013864999637007713 0.093598999083042145 -0.0089229997247457504
   vertex 0.012562000192701817 0.083480998873710632 -0.0098329996690154076
  endloop
 endfacet
 facet normal -0.91625124635042476 0.26370140731738773 0.30157125416744007
  outer loop
   vertex 0.010734000243246555 0.076921999454498291 -0.0038530000019818544
   vertex 0.013864999637007713 0.093598999083042145 -0.0089229997247457504
   vertex 0.0094069996848702431 0.078042998909950256 -0.0088649997487664223
  endloop
 endfacet
 facet normal -0.11730218857639549 -0.97531511485019651 -0.18708453517042947
  outer loop
   vertex 0.026505999267101288 0.07685600221157074 -0.013398000039160252
   vertex 0.010734000243246555 0.076921999454498291 -0.0038530000019818544
   vertex 0.0094069996848702431 0.078042998909950256 -0.0088649997487664223
  endloop
 endfacet
 facet normal -0.085309898713100782 -0.99446125940967922 -0.061392383199181257
  outer loop
   vertex 0.022832000628113747 0.077266000211238861 -0.014933999627828598
   vertex 0.026505999267101288 0.07685600221157074 -0.013398000039160252
   vertex 0.0094069996848702431 0.078042998909950256 -0.0088649997487664223
  endloop
 endfacet
 facet normal -0.38742522141018437 -0.46182983333822825 -0.79788150928195722
  outer loop
   vertex 0.019439000636339188 0.082594998180866241 -0.016371000558137894
   vertex 0.022832000628113747 0.077266000211238861 -0.014933999627828598
   vertex 0.0094069996848702431 0.078042998909950256 -0.0088649997487664223
  endloop
 endfacet
 facet normal -0.26456835507671617 -0.62622711169017153 -0.73337793127158257
  outer loop
   vertex 0.019439000636339188 0.082594998180866241 -0.016371000558137894
   vertex 0.0094069996848702431 0.078042998909950256 -0.0088649997487664223
   vertex 0.010982000268995762 0.089268997311592102 -0.019019000232219696
  endloop
 endfacet
 facet normal 0.64757126989586389 0.55359423561775345 -0.52362665392076202
  outer loop
   vertex 0.01322999969124794 0.090594999492168427 -0.014836999587714672
   vertex 0.010982000268995762 0.089268997311592102 -0.019019000232219696
   vertex 0.0093149999156594276 0.09333299845457077 -0.016783999279141426
  endloop
 endfacet
 facet normal 0.88513935373482122 0.11512139372652418 0.45086072037422581
  outer loop
   vertex 0.0093149999156594276 0.09333299845457077 -0.016783999279141426
   vertex 0.010982000268995762 0.089268997311592102 -0.019019000232219696
   vertex 0.0114120002835989 0.095558002591133118 -0.021469000726938248
  endloop
 endfacet
 facet normal 0.80956252724808642 -0.26032598193791656 -0.52615482284566284
  outer loop
   vertex 0.0114120002835989 0.095558002591133118 -0.021469000726938248
   vertex 0.010982000268995762 0.089268997311592102 -0.019019000232219696
   vertex 0.0095459995791316032 0.093474000692367554 -0.023308999836444855
  endloop
 endfacet
 facet normal 0.85293875583848044 0.37825140591628775 0.35975179320061312
  outer loop
   vertex 0.0095459995791316032 0.093474000692367554 -0.023308999836444855
   vertex 0.011095000430941582 0.088951997458934784 -0.022227000445127487
   vertex 0.011366000398993492 0.091294996440410614 -0.025333000347018242
  endloop
 endfacet
 facet normal 0.49425365460300824 -0.72044649984263143 0.48648758028964251
  outer loop
   vertex 0.0098259998485445976 0.082952998578548431 -0.027197999879717827
   vertex 0.010982000268995762 0.089268997311592102 -0.019019000232219696
   vertex -0.0028969999402761459 0.078767001628875732 -0.020470999181270599
  endloop
 endfacet
 facet normal -0.67738203272478603 -0.5328254510323075 0.50719879778431565
  outer loop
   vertex 0.013321000151336193 0.081237003207206726 -0.024333000183105469
   vertex 0.010982000268995762 0.089268997311592102 -0.019019000232219696
   vertex 0.0098259998485445976 0.082952998578548431 -0.027197999879717827
  endloop
 endfacet
 facet normal 0.32763044776694283 0.91846733850793627 -0.2215311214935288
  outer loop
   vertex 0.017061000689864159 0.086663000285625458 -0.020833000540733337
   vertex 0.010982000268995762 0.089268997311592102 -0.019019000232219696
   vertex 0.0166190005838871 0.087654002010822296 -0.017378000542521477
  endloop
 endfacet
 facet normal 0.16382969642949866 0.92370823110735167 0.34629890896788212
  outer loop
   vertex 0.0166190005838871 0.087654002010822296 -0.017378000542521477
   vertex 0.010982000268995762 0.089268997311592102 -0.019019000232219696
   vertex 0.01350099965929985 0.087788999080657959 -0.016263000667095184
  endloop
 endfacet
 facet normal -0.083190782494330401 -0.38198819414451707 0.92041529389846166
  outer loop
   vertex 0.010982000268995762 0.089268997311592102 -0.019019000232219696
   vertex 0.016414999961853027 0.080462001264095306 -0.022182999178767204
   vertex 0.018641000613570213 0.084923997521400452 -0.02012999914586544
  endloop
 endfacet
 facet normal -0.49769742419929375 -0.78064256595988479 -0.37801383328782462
  outer loop
   vertex 0.010982000268995762 0.089268997311592102 -0.019019000232219696
   vertex 0.018641000613570213 0.084923997521400452 -0.02012999914586544
   vertex 0.019439000636339188 0.082594998180866241 -0.016371000558137894
  endloop
 endfacet
 facet normal -0.56181921947304581 -0.56400509612499772 0.6051920490024052
  outer loop
   vertex 0.016414999961853027 0.080462001264095306 -0.022182999178767204
   vertex 0.010982000268995762 0.089268997311592102 -0.019019000232219696
   vertex 0.013321000151336193 0.081237003207206726 -0.024333000183105469
  endloop
 endfacet
 facet normal -0.91801403391140846 0.35458388102124394 -0.17754014999885373
  outer loop
   vertex -0.0028969999402761459 0.078767001628875732 -0.020470999181270599
   vertex -0.0039699999615550041 0.07847999781370163 -0.015495999716222286
   vertex -0.00030200000037439167 0.084821000695228577 -0.021797999739646912
  endloop
 endfacet
 facet normal -0.22651027901860785 -0.11491396471213719 -0.96720622114058497
  outer loop
   vertex -0.0028969999402761459 0.078767001628875732 -0.020470999181270599
   vertex -0.00030200000037439167 0.084821000695228577 -0.021797999739646912
   vertex 0.0070560001768171787 0.086443997919559479 -0.023714000359177589
  endloop
 endfacet
 facet normal -0.52556000515468526 0.35471514977974539 -0.77328121889681245
  outer loop
   vertex -0.0028969999402761459 0.078767001628875732 -0.020470999181270599
   vertex 0.0070560001768171787 0.086443997919559479 -0.023714000359177589
   vertex 0.0098259998485445976 0.082952998578548431 -0.027197999879717827
  endloop
 endfacet
 facet normal -0.27153267162679678 0.10112804313186578 -0.95710141945957528
  outer loop
   vertex -0.00030200000037439167 0.084821000695228577 -0.021797999739646912
   vertex 0.0049689998850226402 0.091251000761985779 -0.022614000365138054
   vertex 0.0070560001768171787 0.086443997919559479 -0.023714000359177589
  endloop
 endfacet
 facet normal -0.64839763647190429 0.55981286441438771 -0.5159361024911967
  outer loop
   vertex 0.016112999990582466 0.097634002566337585 0.010212999768555164
   vertex 0.016363000497221947 0.092674002051353455 0.0045170001685619354
   vertex 0.013864999637007713 0.093598999083042145 0.008659999817609787
  endloop
 endfacet
 facet normal 0.37575914845606379 0.5223901364156992 -0.76544993809338113
  outer loop
   vertex 0.017518000677227974 0.096663996577262878 0.012544999830424786
   vertex 0.013864999637007713 0.093598999083042145 0.008659999817609787
   vertex 0.013849999755620956 0.095014996826648712 0.0096190003678202629
  endloop
 endfacet
 facet normal 0.10673275851937526 0.98214348948152119 -0.15492670630948646
  outer loop
   vertex 0.016363000497221947 0.092674002051353455 0.0045170001685619354
   vertex 0.015375000424683094 0.092399001121520996 0.0020930001046508551
   vertex 0.013864999637007713 0.093598999083042145 0.008659999817609787
  endloop
 endfacet
 facet normal -0.9314112877967764 0.25409096256734548 -0.26059699865184638
  outer loop
   vertex 0.015375000424683094 0.092399001121520996 0.0020930001046508551
   vertex 0.010734000243246555 0.076921999454498291 0.003590000094845891
   vertex 0.013864999637007713 0.093598999083042145 0.008659999817609787
  endloop
 endfacet
 facet normal -0.73766482103113407 0.66447649407281073 -0.11967289015399901
  outer loop
   vertex 0.017518000677227974 0.096663996577262878 0.012544999830424786
   vertex 0.011849000118672848 0.090184003114700317 0.011509000323712826
   vertex 0.016581999137997627 0.095843002200126648 0.013756000436842442
  endloop
 endfacet
 facet normal -0.7881076641607131 0.54728924066333273 0.28171048391087133
  outer loop
   vertex 0.016581999137997627 0.095843002200126648 0.013756000436842442
   vertex 0.011849000118672848 0.090184003114700317 0.011509000323712826
   vertex 0.01322999969124794 0.090594999492168427 0.014573999680578709
  endloop
 endfacet
 facet normal -0.39889254514734707 0.38453717512802671 0.83247576443427418
  outer loop
   vertex 0.01350099965929985 0.087788999080657959 0.016000000759959221
   vertex 0.016581999137997627 0.095843002200126648 0.013756000436842442
   vertex 0.01322999969124794 0.090594999492168427 0.014573999680578709
  endloop
 endfacet
 facet normal -0.81014390455244811 0.55259552697529235 -0.19571672765354742
  outer loop
   vertex 0.0095459995791316032 0.093474000692367554 0.023071000352501869
   vertex 0.0114120002835989 0.095558002591133118 0.021230999380350113
   vertex 0.0052200001664459705 0.086116001009941101 0.0202029999345541
  endloop
 endfacet
 facet normal -0.83903249149098202 0.32248946042645898 0.43820660211398749
  outer loop
   vertex 0.0070560001768171787 0.086443997919559479 0.023476999253034592
   vertex 0.0095459995791316032 0.093474000692367554 0.023071000352501869
   vertex 0.0052200001664459705 0.086116001009941101 0.0202029999345541
  endloop
 endfacet
 facet normal -0.44605572401877214 0.78267717064175735 -0.43410913101005205
  outer loop
   vertex 0.0114120002835989 0.095558002591133118 -0.021469000726938248
   vertex 0.0095459995791316032 0.093474000692367554 -0.023308999836444855
   vertex 0.0049689998850226402 0.091251000761985779 -0.022614000365138054
  endloop
 endfacet
 facet normal -0.21043072897335882 0.13035117081988626 -0.96887949744518054
  outer loop
   vertex 0.0095459995791316032 0.093474000692367554 -0.023308999836444855
   vertex 0.0070560001768171787 0.086443997919559479 -0.023714000359177589
   vertex 0.0049689998850226402 0.091251000761985779 -0.022614000365138054
  endloop
 endfacet
 facet normal -0.7724747279460904 0.48180720826522444 -0.41369627596617808
  outer loop
   vertex 0.013849999755620956 0.095014996826648712 -0.0098820002749562263
   vertex 0.016581999137997627 0.095843002200126648 -0.014019000343978405
   vertex 0.011849000118672848 0.090184003114700317 -0.011772000230848789
  endloop
 endfacet
 facet normal -0.7881076641607131 0.54728924066333273 -0.28171048391087133
  outer loop
   vertex 0.011849000118672848 0.090184003114700317 -0.011772000230848789
   vertex 0.016581999137997627 0.095843002200126648 -0.014019000343978405
   vertex 0.01322999969124794 0.090594999492168427 -0.014836999587714672
  endloop
 endfacet
 facet normal -0.39889254514734707 0.38453717512802671 -0.83247576443427418
  outer loop
   vertex 0.016581999137997627 0.095843002200126648 -0.014019000343978405
   vertex 0.01350099965929985 0.087788999080657959 -0.016263000667095184
   vertex 0.01322999969124794 0.090594999492168427 -0.014836999587714672
  endloop
 endfacet
 facet normal -0.39308379810340077 0.51276064884310513 0.76325725981912718
  outer loop
   vertex 0.016112999990582466 0.097634002566337585 -0.010475999675691128
   vertex 0.013849999755620956 0.095014996826648712 -0.0098820002749562263
   vertex 0.013864999637007713 0.093598999083042145 -0.0089229997247457504
  endloop
 endfacet
 facet normal -0.64839763647190429 0.55981286441438771 0.5159361024911967
  outer loop
   vertex 0.016363000497221947 0.092674002051353455 -0.0047800000756978989
   vertex 0.016112999990582466 0.097634002566337585 -0.010475999675691128
   vertex 0.013864999637007713 0.093598999083042145 -0.0089229997247457504
  endloop
 endfacet
 facet normal 0.10673275851937526 0.98214348948152119 0.15492670630948646
  outer loop
   vertex 0.015375000424683094 0.092399001121520996 -0.0023560000117868185
   vertex 0.016363000497221947 0.092674002051353455 -0.0047800000756978989
   vertex 0.013864999637007713 0.093598999083042145 -0.0089229997247457504
  endloop
 endfacet
 facet normal -0.98070002400653244 0.19321576395947698 0.029918747820427093
  outer loop
   vertex 0.010710000060498714 0.076223999261856079 -0.00013200000103097409
   vertex 0.013864999637007713 0.093598999083042145 -0.0089229997247457504
   vertex 0.010734000243246555 0.076921999454498291 -0.0038530000019818544
  endloop
 endfacet
 facet normal -0.074229786231163428 -0.99704287752140353 -0.019885653620519323
  outer loop
   vertex 0.010734000243246555 0.076921999454498291 0.003590000094845891
   vertex 0.030866000801324844 0.075456999242305756 0.0018939999863505363
   vertex 0.02957100048661232 0.075442001223564148 0.0074800001457333565
  endloop
 endfacet
 facet normal 0.97416254733408691 -0.002634247379330414 0.2258326639622959
  outer loop
   vertex 0.02957100048661232 0.075442001223564148 0.0074800001457333565
   vertex 0.030866000801324844 0.075456999242305756 0.0018939999863505363
   vertex 0.029814999550580978 0.089460998773574829 0.0065910001285374165
  endloop
 endfacet
 facet normal 0.76082343822557441 0.13032211714580272 0.63573881557543044
  outer loop
   vertex 0.026505999267101288 0.07685600221157074 0.013135000132024288
   vertex 0.029814999550580978 0.089460998773574829 0.0065910001285374165
   vertex 0.026534000411629677 0.090692996978759766 0.01026500016450882
  endloop
 endfacet
 facet normal 0.39657912618693641 0.18566939891835413 0.89902829264606732
  outer loop
   vertex 0.022832000628113747 0.077266000211238861 0.014670999720692635
   vertex 0.026505999267101288 0.07685600221157074 0.013135000132024288
   vertex 0.026534000411629677 0.090692996978759766 0.01026500016450882
  endloop
 endfacet
 facet normal 0.56058496200804164 0.10181630546786294 0.82181381121961994
  outer loop
   vertex 0.019439000636339188 0.082594998180866241 0.01610800065100193
   vertex 0.026534000411629677 0.090692996978759766 0.01026500016450882
   vertex 0.024198999628424644 0.092136003077030182 0.011679000221192837
  endloop
 endfacet
 facet normal 0.6695656327334466 0.010709478156123718 0.74267568328300793
  outer loop
   vertex 0.019439000636339188 0.082594998180866241 0.01610800065100193
   vertex 0.024198999628424644 0.092136003077030182 0.011679000221192837
   vertex 0.020428000018000603 0.089415997266769409 0.015118000097572803
  endloop
 endfacet
 facet normal 0.96199230174008044 -0.087753918730213848 0.25859246149165549
  outer loop
   vertex 0.019439000636339188 0.082594998180866241 0.01610800065100193
   vertex 0.018623000010848045 0.08625900000333786 0.020386999472975731
   vertex 0.018641000613570213 0.084923997521400452 0.019866999238729477
  endloop
 endfacet
 facet normal -0.30014247343552863 0.36084111519468293 0.88301086359402192
  outer loop
   vertex 0.0166190005838871 0.087654002010822296 0.017115000635385513
   vertex 0.016581999137997627 0.095843002200126648 0.013756000436842442
   vertex 0.01350099965929985 0.087788999080657959 0.016000000759959221
  endloop
 endfacet
 facet normal -0.57260499518599317 0.24794435791448341 0.78143913062146009
  outer loop
   vertex 0.0095459995791316032 0.093474000692367554 0.023071000352501869
   vertex 0.0070560001768171787 0.086443997919559479 0.023476999253034592
   vertex 0.011366000398993492 0.091294996440410614 0.025095999240875244
  endloop
 endfacet
 facet normal 0.27940828830524783 0.55276953027681008 -0.78509671685970395
  outer loop
   vertex 0.014330999925732613 0.083199001848697662 0.020450999960303307
   vertex 0.011345000006258488 0.083858996629714966 0.019852999597787857
   vertex 0.011366000398993492 0.091294996440410614 0.025095999240875244
  endloop
 endfacet
 facet normal -0.17333113983316786 0.10323910084073014 0.97943759577715428
  outer loop
   vertex 0.014330999925732613 0.083199001848697662 0.020450999960303307
   vertex 0.017061000689864159 0.086663000285625458 0.020569000393152237
   vertex 0.011345000006258488 0.083858996629714966 0.019852999597787857
  endloop
 endfacet
 facet normal -0.45974249271362616 0.11456356453781621 0.88063160860478484
  outer loop
   vertex 0.011366000398993492 0.091294996440410614 0.025095999240875244
   vertex 0.0070560001768171787 0.086443997919559479 0.023476999253034592
   vertex 0.012125999666750431 0.084105998277664185 0.026427999138832092
  endloop
 endfacet
 facet normal 0.9339404612880029 0.15812564311600921 0.32054874162645031
  outer loop
   vertex 0.014330999925732613 0.083199001848697662 0.020450999960303307
   vertex 0.011366000398993492 0.091294996440410614 0.025095999240875244
   vertex 0.012125999666750431 0.084105998277664185 0.026427999138832092
  endloop
 endfacet
 facet normal -0.14534869371352488 0.63861443382785832 0.75567543439131069
  outer loop
   vertex 0.0070560001768171787 0.086443997919559479 0.023476999253034592
   vertex 0.0098259998485445976 0.082952998578548431 0.026960000395774841
   vertex 0.012125999666750431 0.084105998277664185 0.026427999138832092
  endloop
 endfacet
 facet normal 0.41388363906873105 -0.46432989011382753 0.78300580231445627
  outer loop
   vertex 0.013321000151336193 0.081237003207206726 0.024095000699162483
   vertex 0.012125999666750431 0.084105998277664185 0.026427999138832092
   vertex 0.0098259998485445976 0.082952998578548431 0.026960000395774841
  endloop
 endfacet
 facet normal 0.42764225720478061 -0.45638262441349547 0.78028007791193188
  outer loop
   vertex 0.016414999961853027 0.080462001264095306 0.021945999935269356
   vertex 0.012125999666750431 0.084105998277664185 0.026427999138832092
   vertex 0.013321000151336193 0.081237003207206726 0.024095000699162483
  endloop
 endfacet
 facet normal 0.26890149544630126 0.93439069103698014 0.23367931498140265
  outer loop
   vertex 0.018623000010848045 0.08625900000333786 0.020386999472975731
   vertex 0.0166190005838871 0.087654002010822296 0.017115000635385513
   vertex 0.017061000689864159 0.086663000285625458 0.020569000393152237
  endloop
 endfacet
 facet normal 0.29496805886768546 0.36375485881977232 0.88355885312345606
  outer loop
   vertex 0.020428000018000603 0.089415997266769409 0.015118000097572803
   vertex 0.016581999137997627 0.095843002200126648 0.013756000436842442
   vertex 0.0166190005838871 0.087654002010822296 0.017115000635385513
  endloop
 endfacet
 facet normal -0.25722305572082321 0.17031595181056083 0.95122488201502853
  outer loop
   vertex 0.016178999096155167 0.08172299712896347 0.021214999258518219
   vertex 0.017061000689864159 0.086663000285625458 0.020569000393152237
   vertex 0.014330999925732613 0.083199001848697662 0.020450999960303307
  endloop
 endfacet
 facet normal -0.14387334462546472 0.47601545617072871 0.86758846591736993
  outer loop
   vertex 0.018641000613570213 0.084923997521400452 0.019866999238729477
   vertex 0.016178999096155167 0.08172299712896347 0.021214999258518219
   vertex 0.016414999961853027 0.080462001264095306 0.021945999935269356
  endloop
 endfacet
 facet normal -0.030642437508356865 -0.99689132382086165 0.072586014591216899
  outer loop
   vertex 0.010710000060498714 0.076223999261856079 -0.00013200000103097409
   vertex 0.030866000801324844 0.075456999242305756 -0.0021569998934864998
   vertex 0.030848000198602676 0.075604997575283051 -0.00013200000103097409
  endloop
 endfacet
 facet normal 0.75034503692763832 0.028820034261113153 -0.66041784590004016
  outer loop
   vertex 0.02957100048661232 0.075442001223564148 -0.0077430000528693199
   vertex 0.026534000411629677 0.090692996978759766 -0.010528000071644783
   vertex 0.029814999550580978 0.089460998773574829 -0.0068540000356733799
  endloop
 endfacet
 facet normal 0.39657912618693641 0.18566939891835413 -0.89902829264606732
  outer loop
   vertex 0.026505999267101288 0.07685600221157074 -0.013398000039160252
   vertex 0.022832000628113747 0.077266000211238861 -0.014933999627828598
   vertex 0.026534000411629677 0.090692996978759766 -0.010528000071644783
  endloop
 endfacet
 facet normal 0.97416254733408691 -0.002634247379330414 -0.2258326639622959
  outer loop
   vertex 0.030866000801324844 0.075456999242305756 -0.0021569998934864998
   vertex 0.02957100048661232 0.075442001223564148 -0.0077430000528693199
   vertex 0.029814999550580978 0.089460998773574829 -0.0068540000356733799
  endloop
 endfacet
 facet normal 0.56489648107387147 0.11249506669277774 -0.81745753751503503
  outer loop
   vertex 0.022832000628113747 0.077266000211238861 -0.014933999627828598
   vertex 0.024198999628424644 0.092136003077030182 -0.011943000368773937
   vertex 0.026534000411629677 0.090692996978759766 -0.010528000071644783
  endloop
 endfacet
 facet normal 0.66944400704072582 0.010742955288687291 -0.74278483449039412
  outer loop
   vertex 0.024198999628424644 0.092136003077030182 -0.011943000368773937
   vertex 0.019439000636339188 0.082594998180866241 -0.016371000558137894
   vertex 0.020428000018000603 0.089415997266769409 -0.015381000004708767
  endloop
 endfacet
 facet normal 0.95770151832564843 -0.093140553051730829 -0.2722730966767839
  outer loop
   vertex 0.020428000018000603 0.089415997266769409 -0.015381000004708767
   vertex 0.018641000613570213 0.084923997521400452 -0.02012999914586544
   vertex 0.018623000010848045 0.08625900000333786 -0.020649999380111694
  endloop
 endfacet
 facet normal -0.30014247343552863 0.36084111519468293 -0.88301086359402192
  outer loop
   vertex 0.016581999137997627 0.095843002200126648 -0.014019000343978405
   vertex 0.0166190005838871 0.087654002010822296 -0.017378000542521477
   vertex 0.01350099965929985 0.087788999080657959 -0.016263000667095184
  endloop
 endfacet
 facet normal -0.57249155411515296 0.24780061464307859 -0.78156783189261925
  outer loop
   vertex 0.0070560001768171787 0.086443997919559479 -0.023714000359177589
   vertex 0.0095459995791316032 0.093474000692367554 -0.023308999836444855
   vertex 0.011366000398993492 0.091294996440410614 -0.025333000347018242
  endloop
 endfacet
 facet normal 0.7162863168506528 0.52560878672974765 0.45898727172440051
  outer loop
   vertex 0.011095000430941582 0.088951997458934784 -0.022227000445127487
   vertex 0.014330999925732613 0.083199001848697662 -0.020688999444246292
   vertex 0.011366000398993492 0.091294996440410614 -0.025333000347018242
  endloop
 endfacet
 facet normal -0.45983390730696599 0.1146651257484385 -0.88057065964515502
  outer loop
   vertex 0.0070560001768171787 0.086443997919559479 -0.023714000359177589
   vertex 0.011366000398993492 0.091294996440410614 -0.025333000347018242
   vertex 0.012125999666750431 0.084105998277664185 -0.026666000485420227
  endloop
 endfacet
 facet normal 0.93393605664135471 0.15816825808613455 -0.32054055007002497
  outer loop
   vertex 0.011366000398993492 0.091294996440410614 -0.025333000347018242
   vertex 0.014330999925732613 0.083199001848697662 -0.020688999444246292
   vertex 0.012125999666750431 0.084105998277664185 -0.026666000485420227
  endloop
 endfacet
 facet normal 0.16251699520862961 -0.16849637826716357 -0.97221252654921453
  outer loop
   vertex 0.017061000689864159 0.086663000285625458 -0.020833000540733337
   vertex 0.014330999925732613 0.083199001848697662 -0.020688999444246292
   vertex 0.011095000430941582 0.088951997458934784 -0.022227000445127487
  endloop
 endfacet
 facet normal -0.14541066552880702 0.63869853531736587 -0.75559242937837923
  outer loop
   vertex 0.0098259998485445976 0.082952998578548431 -0.027197999879717827
   vertex 0.0070560001768171787 0.086443997919559479 -0.023714000359177589
   vertex 0.012125999666750431 0.084105998277664185 -0.026666000485420227
  endloop
 endfacet
 facet normal 0.41388325624572009 -0.46433045167384213 -0.78300567165749535
  outer loop
   vertex 0.012125999666750431 0.084105998277664185 -0.026666000485420227
   vertex 0.013321000151336193 0.081237003207206726 -0.024333000183105469
   vertex 0.0098259998485445976 0.082952998578548431 -0.027197999879717827
  endloop
 endfacet
 facet normal 0.70869871112229044 -0.24331763113387972 -0.66222554106059783
  outer loop
   vertex 0.016178999096155167 0.08172299712896347 -0.021453000605106354
   vertex 0.013321000151336193 0.081237003207206726 -0.024333000183105469
   vertex 0.012125999666750431 0.084105998277664185 -0.026666000485420227
  endloop
 endfacet
 facet normal -0.26812513614401118 0.91640986017678383 -0.29715632172061046
  outer loop
   vertex 0.020428000018000603 0.089415997266769409 -0.015381000004708767
   vertex 0.017061000689864159 0.086663000285625458 -0.020833000540733337
   vertex 0.0166190005838871 0.087654002010822296 -0.017378000542521477
  endloop
 endfacet
 facet normal 0.087510401257572396 -0.11012501172415447 -0.9900577818816908
  outer loop
   vertex 0.018623000010848045 0.08625900000333786 -0.020649999380111694
   vertex 0.014330999925732613 0.083199001848697662 -0.020688999444246292
   vertex 0.017061000689864159 0.086663000285625458 -0.020833000540733337
  endloop
 endfacet
 facet normal 0.29496805886768546 0.36375485881977232 -0.88355885312345606
  outer loop
   vertex 0.016581999137997627 0.095843002200126648 -0.014019000343978405
   vertex 0.020428000018000603 0.089415997266769409 -0.015381000004708767
   vertex 0.0166190005838871 0.087654002010822296 -0.017378000542521477
  endloop
 endfacet
 facet normal -0.44720140895017341 0.38396073900112138 -0.80782736444038128
  outer loop
   vertex 0.018623000010848045 0.08625900000333786 -0.020649999380111694
   vertex 0.016414999961853027 0.080462001264095306 -0.022182999178767204
   vertex 0.016178999096155167 0.08172299712896347 -0.021453000605106354
  endloop
 endfacet
 facet normal 0.57400190398730933 0.76964364563972398 -0.27958982983173503
  outer loop
   vertex 0.024198999628424644 0.092136003077030182 0.011679000221192837
   vertex 0.016112999990582466 0.097634002566337585 0.010212999768555164
   vertex 0.019669000059366226 0.095545001327991486 0.011762999929487705
  endloop
 endfacet
 facet normal 0.48115133462164872 0.87355333460284734 0.073470843169601729
  outer loop
   vertex 0.019669000059366226 0.095545001327991486 0.011762999929487705
   vertex 0.016112999990582466 0.097634002566337585 0.010212999768555164
   vertex 0.017518000677227974 0.096663996577262878 0.012544999830424786
  endloop
 endfacet
 facet normal 0.35137024140727768 0.88046906059486407 -0.31829732450743126
  outer loop
   vertex 0.024198999628424644 0.092136003077030182 0.011679000221192837
   vertex 0.026534000411629677 0.090692996978759766 0.01026500016450882
   vertex 0.016363000497221947 0.092674002051353455 0.0045170001685619354
  endloop
 endfacet
 facet normal 0.24611915049562666 0.96371178070816221 -0.10336811637837834
  outer loop
   vertex 0.026534000411629677 0.090692996978759766 0.01026500016450882
   vertex 0.029814999550580978 0.089460998773574829 0.0065910001285374165
   vertex 0.016363000497221947 0.092674002051353455 0.0045170001685619354
  endloop
 endfacet
 facet normal 0.1517306225306817 0.96299490962075274 -0.22275237873246179
  outer loop
   vertex 0.016363000497221947 0.092674002051353455 0.0045170001685619354
   vertex 0.030717000365257263 0.089336998760700226 -0.00013200000103097409
   vertex 0.018086999654769897 0.091326996684074402 -0.00013200000103097409
  endloop
 endfacet
 facet normal 0.21656169375662687 0.95623706663559116 -0.19675290389069458
  outer loop
   vertex 0.016363000497221947 0.092674002051353455 0.0045170001685619354
   vertex 0.018086999654769897 0.091326996684074402 -0.00013200000103097409
   vertex 0.015375000424683094 0.092399001121520996 0.0020930001046508551
  endloop
 endfacet
 facet normal 0.5208204035731574 0.46357476177320134 0.71682951074074308
  outer loop
   vertex 0.020428000018000603 0.089415997266769409 0.015118000097572803
   vertex 0.017518000677227974 0.096663996577262878 0.012544999830424786
   vertex 0.016581999137997627 0.095843002200126648 0.013756000436842442
  endloop
 endfacet
 facet normal -0.54608914495913163 0.26673509159665254 -0.79412784655163038
  outer loop
   vertex 0.018086999654769897 0.091326996684074402 -0.00013200000103097409
   vertex 0.010710000060498714 0.076223999261856079 -0.00013200000103097409
   vertex 0.015375000424683094 0.092399001121520996 0.0020930001046508551
  endloop
 endfacet
 facet normal -0.54593431188558172 0.26665946399182511 0.79425969139168151
  outer loop
   vertex 0.010710000060498714 0.076223999261856079 -0.00013200000103097409
   vertex 0.018086999654769897 0.091326996684074402 -0.00013200000103097409
   vertex 0.015375000424683094 0.092399001121520996 -0.0023560000117868185
  endloop
 endfacet
 facet normal 0.50872936586820228 0.47708842498234033 -0.71664570538809946
  outer loop
   vertex 0.019669000059366226 0.095545001327991486 -0.012025999836623669
   vertex 0.016581999137997627 0.095843002200126648 -0.014019000343978405
   vertex 0.017518000677227974 0.096663996577262878 -0.012807999737560749
  endloop
 endfacet
 facet normal 0.48115133462164872 0.87355333460284734 -0.073470843169601729
  outer loop
   vertex 0.016112999990582466 0.097634002566337585 -0.010475999675691128
   vertex 0.019669000059366226 0.095545001327991486 -0.012025999836623669
   vertex 0.017518000677227974 0.096663996577262878 -0.012807999737560749
  endloop
 endfacet
 facet normal 0.58984503979523439 0.62163128148017988 0.51541961440584272
  outer loop
   vertex 0.016363000497221947 0.092674002051353455 -0.0047800000756978989
   vertex 0.019669000059366226 0.095545001327991486 -0.012025999836623669
   vertex 0.016112999990582466 0.097634002566337585 -0.010475999675691128
  endloop
 endfacet
 facet normal 0.35132558464224845 0.88052204086090391 0.31820004577927247
  outer loop
   vertex 0.026534000411629677 0.090692996978759766 -0.010528000071644783
   vertex 0.024198999628424644 0.092136003077030182 -0.011943000368773937
   vertex 0.016363000497221947 0.092674002051353455 -0.0047800000756978989
  endloop
 endfacet
 facet normal 0.24611915049562666 0.96371178070816221 0.10336811637837834
  outer loop
   vertex 0.029814999550580978 0.089460998773574829 -0.0068540000356733799
   vertex 0.026534000411629677 0.090692996978759766 -0.010528000071644783
   vertex 0.016363000497221947 0.092674002051353455 -0.0047800000756978989
  endloop
 endfacet
 facet normal 0.15564054432568053 0.98781016920909148 -0.0026628122562610316
  outer loop
   vertex 0.029814999550580978 0.089460998773574829 -0.0068540000356733799
   vertex 0.018086999654769897 0.091326996684074402 -0.00013200000103097409
   vertex 0.030717000365257263 0.089336998760700226 -0.00013200000103097409
  endloop
 endfacet
 facet normal 0.21661257743392362 0.95622163409019567 0.196771892798002
  outer loop
   vertex 0.018086999654769897 0.091326996684074402 -0.00013200000103097409
   vertex 0.016363000497221947 0.092674002051353455 -0.0047800000756978989
   vertex 0.015375000424683094 0.092399001121520996 -0.0023560000117868185
  endloop
 endfacet
 facet normal 0.99109806811244516 0.0094548259935754581 0.13279768691212324
  outer loop
   vertex 0.029814999550580978 0.089460998773574829 0.0065910001285374165
   vertex 0.030848000198602676 0.075604997575283051 -0.00013200000103097409
   vertex 0.030717000365257263 0.089336998760700226 -0.00013200000103097409
  endloop
 endfacet
 facet normal 0.99992095179999696 0.0095389940821948103 0.0081913212174864365
  outer loop
   vertex 0.030866000801324844 0.075456999242305756 -0.0021569998934864998
   vertex 0.030717000365257263 0.089336998760700226 -0.00013200000103097409
   vertex 0.030848000198602676 0.075604997575283051 -0.00013200000103097409
  endloop
 endfacet
 facet normal 0.3761445756373808 0.48031050554530019 0.79234908751218536
  outer loop
   vertex 0.024198999628424644 0.092136003077030182 0.011679000221192837
   vertex 0.019669000059366226 0.095545001327991486 0.011762999929487705
   vertex 0.020428000018000603 0.089415997266769409 0.015118000097572803
  endloop
 endfacet
 facet normal 0.59575709422805723 0.79706079015603504 0.098831075440766844
  outer loop
   vertex 0.012125999666750431 0.084105998277664185 0.026427999138832092
   vertex 0.016178999096155167 0.08172299712896347 0.021214999258518219
   vertex 0.014330999925732613 0.083199001848697662 0.020450999960303307
  endloop
 endfacet
 facet normal 0.37598323648670401 0.48032697565536836 -0.7924156752227649
  outer loop
   vertex 0.019669000059366226 0.095545001327991486 -0.012025999836623669
   vertex 0.024198999628424644 0.092136003077030182 -0.011943000368773937
   vertex 0.020428000018000603 0.089415997266769409 -0.015381000004708767
  endloop
 endfacet
 facet normal 0.59575704905073812 0.79706083056938637 -0.098831021842317249
  outer loop
   vertex 0.016178999096155167 0.08172299712896347 -0.021453000605106354
   vertex 0.012125999666750431 0.084105998277664185 -0.026666000485420227
   vertex 0.014330999925732613 0.083199001848697662 -0.020688999444246292
  endloop
 endfacet
endsolid
