solid Visualization Toolkit generated SLA File
 facet normal -0.66066068746839501 0.74566859863749668 0.086636003138300027
  outer loop
   vertex -0.023066999390721321 0.020431000739336014 -0.00014000000373926014
   vertex -0.014662999659776688 0.027408000081777573 0.0038960000965744257
   vertex -0.015304000116884708 0.027309000492095947 -0.00014000000373926014
  endloop
 endfacet
 facet normal -0.0031414499442940463 0.50355824107062264 -0.86395557127789169
  outer loop
   vertex -0.023066999390721321 0.020431000739336014 -0.00014000000373926014
   vertex -0.024028999730944633 0.020424999296665192 -0.00014000000373926014
   vertex -0.014662999659776688 0.027408000081777573 0.0038960000965744257
  endloop
 endfacet
 facet normal -0.66066191541304842 0.74566998458309064 -0.08661470784234962
  outer loop
   vertex -0.023066999390721321 0.020431000739336014 -0.00014000000373926014
   vertex -0.015304000116884708 0.027309000492095947 -0.00014000000373926014
   vertex -0.014662999659776688 0.027408000081777573 -0.0041769999079406261
  endloop
 endfacet
 facet normal -0.0031420307564444454 0.50365134226594122 0.86390129822592665
  outer loop
   vertex -0.023066999390721321 0.020431000739336014 -0.00014000000373926014
   vertex -0.014662999659776688 0.027408000081777573 -0.0041769999079406261
   vertex -0.024028999730944633 0.020424999296665192 -0.00014000000373926014
  endloop
 endfacet
 facet normal 0.94751297860755102 -0.31945498964806684 0.012948550467136841
  outer loop
   vertex -0.020400999113917351 0.012276999652385712 0.0019779999274760485
   vertex -0.015304000116884708 0.027309000492095947 -0.00014000000373926014
   vertex -0.015545000322163105 0.026655999943614006 0.0013849999522790313
  endloop
 endfacet
 facet normal 0.94703277033073174 -0.32113690408414453 -0.00014406578466982786
  outer loop
   vertex -0.020401999354362488 0.012275000102818012 -0.00014000000373926014
   vertex -0.015304000116884708 0.027309000492095947 -0.00014000000373926014
   vertex -0.020400999113917351 0.012276999652385712 0.0019779999274760485
  endloop
 endfacet
 facet normal 0.81381635341900216 -0.56957310174213061 -0.11527976700031294
  outer loop
   vertex -0.015304000116884708 0.027309000492095947 -0.00014000000373926014
   vertex -0.014662999659776688 0.027408000081777573 0.0038960000965744257
   vertex -0.015545000322163105 0.026655999943614006 0.0013849999522790313
  endloop
 endfacet
 facet normal 0.94753289629917103 -0.3193947321509944 -0.012977499955652149
  outer loop
   vertex -0.015304000116884708 0.027309000492095947 -0.00014000000373926014
   vertex -0.020400000736117363 0.012276999652385712 -0.0022579999640583992
   vertex -0.015545000322163105 0.026655999943614006 -0.001664999988861382
  endloop
 endfacet
 facet normal 0.94703261506154013 -0.32113685143267451 0.00059047574795386521
  outer loop
   vertex -0.015304000116884708 0.027309000492095947 -0.00014000000373926014
   vertex -0.020401999354362488 0.012275000102818012 -0.00014000000373926014
   vertex -0.020400000736117363 0.012276999652385712 -0.0022579999640583992
  endloop
 endfacet
 facet normal 0.81384811629356202 -0.56953227062826739 0.11525726145640827
  outer loop
   vertex -0.014662999659776688 0.027408000081777573 -0.0041769999079406261
   vertex -0.015304000116884708 0.027309000492095947 -0.00014000000373926014
   vertex -0.015545000322163105 0.026655999943614006 -0.001664999988861382
  endloop
 endfacet
 facet normal -0.116147256025479 0.96195472786828318 -0.24729115724103254
  outer loop
   vertex -0.0092780003324151039 0.029977999627590179 0.011363999918103218
   vertex -0.015545000322163105 0.026655999943614006 0.0013849999522790313
   vertex -0.014662999659776688 0.027408000081777573 0.0038960000965744257
  endloop
 endfacet
 facet normal -0.1337260188406687 0.9627772378360715 -0.23489857851798465
  outer loop
   vertex -0.0092780003324151039 0.029977999627590179 0.011363999918103218
   vertex -0.014662999659776688 0.027408000081777573 0.0038960000965744257
   vertex -0.015625 0.027451999485492706 0.0046239998191595078
  endloop
 endfacet
 facet normal -0.68382446844434841 0.70674432466990689 0.18137407726486626
  outer loop
   vertex -0.014662999659776688 0.027408000081777573 0.0038960000965744257
   vertex -0.026071999222040176 0.01610800065100193 0.0049129999242722988
   vertex -0.01827700063586235 0.022084999829530716 0.011012000031769276
  endloop
 endfacet
 facet normal -0.52691706135900529 -0.53023340081169767 -0.66423711964361942
  outer loop
   vertex -0.01827700063586235 0.022084999829530716 0.011012000031769276
   vertex -0.015625 0.027451999485492706 0.0046239998191595078
   vertex -0.014662999659776688 0.027408000081777573 0.0038960000965744257
  endloop
 endfacet
 facet normal 0.054321594215846758 0.56139415342787535 0.82576374884033765
  outer loop
   vertex -0.024028999730944633 0.020424999296665192 -0.00014000000373926014
   vertex -0.03740999847650528 0.016675999388098717 0.0032889998983591795
   vertex -0.031844001263380051 0.01583000086247921 0.0034980000928044319
  endloop
 endfacet
 facet normal -0.18346942248888426 0.78280497001191829 0.59460520510355019
  outer loop
   vertex -0.026071999222040176 0.01610800065100193 0.0049129999242722988
   vertex -0.024028999730944633 0.020424999296665192 -0.00014000000373926014
   vertex -0.031844001263380051 0.01583000086247921 0.0034980000928044319
  endloop
 endfacet
 facet normal 0.11029797950331266 0.85207694297573933 -0.51166320853331393
  outer loop
   vertex -0.037223998457193375 0.018711000680923462 -0.00014000000373926014
   vertex -0.031844001263380051 0.01583000086247921 -0.003777999896556139
   vertex -0.03740999847650528 0.016675999388098717 -0.0035689999349415302
  endloop
 endfacet
 facet normal -0.18346946300512468 0.78280498599756165 -0.59460517155669623
  outer loop
   vertex -0.024028999730944633 0.020424999296665192 -0.00014000000373926014
   vertex -0.026071999222040176 0.01610800065100193 -0.0051930001936852932
   vertex -0.031844001263380051 0.01583000086247921 -0.003777999896556139
  endloop
 endfacet
 facet normal -0.70978324834900908 0.65096416343994212 -0.26917168922467577
  outer loop
   vertex -0.024028999730944633 0.020424999296665192 -0.00014000000373926014
   vertex -0.01827700063586235 0.022084999829530716 -0.011292999610304832
   vertex -0.026071999222040176 0.01610800065100193 -0.0051930001936852932
  endloop
 endfacet
 facet normal -0.11641514527937782 0.96197058793577161 0.24710342348111514
  outer loop
   vertex -0.015545000322163105 0.026655999943614006 -0.001664999988861382
   vertex -0.0092780003324151039 0.029977999627590179 -0.011645000427961349
   vertex -0.014662999659776688 0.027408000081777573 -0.0041769999079406261
  endloop
 endfacet
 facet normal -0.13356727558385503 0.9627718013503942 0.23501115168779466
  outer loop
   vertex -0.014662999659776688 0.027408000081777573 -0.0041769999079406261
   vertex -0.0092780003324151039 0.029977999627590179 -0.011645000427961349
   vertex -0.015625 0.027451999485492706 -0.0049040000885725021
  endloop
 endfacet
 facet normal -0.52630633178080244 -0.53074697605534615 0.66431114136038816
  outer loop
   vertex -0.015625 0.027451999485492706 -0.0049040000885725021
   vertex -0.01827700063586235 0.022084999829530716 -0.011292999610304832
   vertex -0.014662999659776688 0.027408000081777573 -0.0041769999079406261
  endloop
 endfacet
 facet normal 0.80618491590042307 -0.29344844478329574 -0.51376443203952216
  outer loop
   vertex -0.014201000332832336 0.016714999452233315 0.009171999990940094
   vertex -0.020400999113917351 0.012276999652385712 0.0019779999274760485
   vertex -0.015545000322163105 0.026655999943614006 0.0013849999522790313
  endloop
 endfacet
 facet normal 0.30526638389268362 -0.90529368904742369 0.29539087906702749
  outer loop
   vertex -0.014201000332832336 0.016714999452233315 0.009171999990940094
   vertex -0.026629000902175903 0.01156300026923418 0.0062259999103844166
   vertex -0.020400999113917351 0.012276999652385712 0.0019779999274760485
  endloop
 endfacet
 facet normal 0.11449230890841076 -0.99342374146443402 0.00088379614520863663
  outer loop
   vertex -0.026629000902175903 0.01156300026923418 0.0062259999103844166
   vertex -0.020401999354362488 0.012275000102818012 -0.00014000000373926014
   vertex -0.020400999113917351 0.012276999652385712 0.0019779999274760485
  endloop
 endfacet
 facet normal 0.8559111423483089 -0.24218617830735559 -0.45690477283662806
  outer loop
   vertex -0.0092780003324151039 0.029977999627590179 0.011363999918103218
   vertex -0.014201000332832336 0.016714999452233315 0.009171999990940094
   vertex -0.015545000322163105 0.026655999943614006 0.0013849999522790313
  endloop
 endfacet
 facet normal 0.11445469082682598 -0.99342812274923664 -0.00082986665391260794
  outer loop
   vertex -0.026634000241756439 0.011556999757885933 -0.00014000000373926014
   vertex -0.020400000736117363 0.012276999652385712 -0.0022579999640583992
   vertex -0.020401999354362488 0.012275000102818012 -0.00014000000373926014
  endloop
 endfacet
 facet normal 0.85593124856445191 -0.24216341663590815 0.45687917152582241
  outer loop
   vertex -0.014201000332832336 0.016714999452233315 -0.0094520002603530884
   vertex -0.0092780003324151039 0.029977999627590179 -0.011645000427961349
   vertex -0.015545000322163105 0.026655999943614006 -0.001664999988861382
  endloop
 endfacet
 facet normal 0.80623014392327152 -0.29340581693899015 0.513717803483415
  outer loop
   vertex -0.020400000736117363 0.012276999652385712 -0.0022579999640583992
   vertex -0.014201000332832336 0.016714999452233315 -0.0094520002603530884
   vertex -0.015545000322163105 0.026655999943614006 -0.001664999988861382
  endloop
 endfacet
 facet normal 0.28413168696512653 -0.92240827313073082 -0.26159541686033866
  outer loop
   vertex -0.020810000598430634 0.014832999557256699 -0.01171599980443716
   vertex -0.020400000736117363 0.012276999652385712 -0.0022579999640583992
   vertex -0.026629000902175903 0.01156300026923418 -0.006506000179797411
  endloop
 endfacet
 facet normal 0.83413935222035984 0.55142013695617942 0.012139754389056482
  outer loop
   vertex -0.005394000094383955 0.024101000279188156 0.01143800001591444
   vertex -0.0092780003324151039 0.029977999627590179 0.011363999918103218
   vertex -0.0064960001036524773 0.025738000869750977 0.012800999917089939
  endloop
 endfacet
 facet normal -0.6553036977132668 0.7404709652208914 0.14926424028601354
  outer loop
   vertex -0.0092780003324151039 0.029977999627590179 0.011363999918103218
   vertex -0.01827700063586235 0.022084999829530716 0.011012000031769276
   vertex -0.011518999934196472 0.025985000655055046 0.021333999931812286
  endloop
 endfacet
 facet normal 0.70079313434006185 0.59379893895229541 0.3953375810126834
  outer loop
   vertex -0.0092780003324151039 0.029977999627590179 0.011363999918103218
   vertex -0.011518999934196472 0.025985000655055046 0.021333999931812286
   vertex -0.0064960001036524773 0.025738000869750977 0.012800999917089939
  endloop
 endfacet
 facet normal -0.71403827743509951 0.27366808276958338 0.64440291652873227
  outer loop
   vertex -0.026071999222040176 0.01610800065100193 0.0049129999242722988
   vertex -0.026629000902175903 0.01156300026923418 0.0062259999103844166
   vertex -0.01827700063586235 0.022084999829530716 0.011012000031769276
  endloop
 endfacet
 facet normal -0.72357180802986554 0.28928613052749186 0.62670357690763379
  outer loop
   vertex -0.01827700063586235 0.022084999829530716 0.011012000031769276
   vertex -0.026629000902175903 0.01156300026923418 0.0062259999103844166
   vertex -0.020810000598430634 0.014832999557256699 0.011435000225901604
  endloop
 endfacet
 facet normal -0.84354817279432881 0.3198031528964404 0.43145384871715464
  outer loop
   vertex -0.01827700063586235 0.022084999829530716 0.011012000031769276
   vertex -0.020810000598430634 0.014832999557256699 0.011435000225901604
   vertex -0.011518999934196472 0.025985000655055046 0.021333999931812286
  endloop
 endfacet
 facet normal -0.2413964021844397 0.27481393666735693 0.93070138993438611
  outer loop
   vertex -0.031844001263380051 0.01583000086247921 0.0034980000928044319
   vertex -0.029201999306678772 0.011838000267744064 0.0053619998507201672
   vertex -0.026071999222040176 0.01610800065100193 0.0049129999242722988
  endloop
 endfacet
 facet normal -0.14763332173792759 0.35928110220689419 0.92147788465574421
  outer loop
   vertex -0.031844001263380051 0.01583000086247921 0.0034980000928044319
   vertex -0.039817001670598984 0.0085039995610713959 0.0050769997760653496
   vertex -0.035769000649452209 0.0098160002380609512 0.0052140001207590103
  endloop
 endfacet
 facet normal -0.0040137719703470633 0.21486600327341207 0.97663529030640717
  outer loop
   vertex -0.03740999847650528 0.016675999388098717 0.0032889998983591795
   vertex -0.039817001670598984 0.0085039995610713959 0.0050769997760653496
   vertex -0.031844001263380051 0.01583000086247921 0.0034980000928044319
  endloop
 endfacet
 facet normal -0.2683804849630021 0.8347311358573295 0.48082829172310199
  outer loop
   vertex -0.037223998457193375 0.018711000680923462 -0.00014000000373926014
   vertex -0.043627999722957611 0.014254000037908554 0.0040230001322925091
   vertex -0.03740999847650528 0.016675999388098717 0.0032889998983591795
  endloop
 endfacet
 facet normal 0.03627387876676335 0.20339123132811099 0.97842537412827191
  outer loop
   vertex -0.039817001670598984 0.0085039995610713959 0.0050769997760653496
   vertex -0.03740999847650528 0.016675999388098717 0.0032889998983591795
   vertex -0.043627999722957611 0.014254000037908554 0.0040230001322925091
  endloop
 endfacet
 facet normal -0.20207775066509706 0.72020115670494111 -0.66368281322255118
  outer loop
   vertex -0.042442001402378082 0.018424000591039658 -0.00014000000373926014
   vertex -0.03740999847650528 0.016675999388098717 -0.0035689999349415302
   vertex -0.043627999722957611 0.014254000037908554 -0.0043040001764893532
  endloop
 endfacet
 facet normal -0.0040137288069731136 0.21486601772852632 -0.97663528730358118
  outer loop
   vertex -0.039817001670598984 0.0085039995610713959 -0.005357000045478344
   vertex -0.03740999847650528 0.016675999388098717 -0.0035689999349415302
   vertex -0.031844001263380051 0.01583000086247921 -0.003777999896556139
  endloop
 endfacet
 facet normal 0.036451766389136955 0.203339758041965 -0.97842946170204148
  outer loop
   vertex -0.03740999847650528 0.016675999388098717 -0.0035689999349415302
   vertex -0.039817001670598984 0.0085039995610713959 -0.005357000045478344
   vertex -0.043627999722957611 0.014254000037908554 -0.0043040001764893532
  endloop
 endfacet
 facet normal -0.14763319488205351 0.35928103292231917 -0.92147793199359318
  outer loop
   vertex -0.039817001670598984 0.0085039995610713959 -0.005357000045478344
   vertex -0.031844001263380051 0.01583000086247921 -0.003777999896556139
   vertex -0.035769000649452209 0.0098160002380609512 -0.0054939999245107174
  endloop
 endfacet
 facet normal 0.069889290630360035 -0.15485383794004617 0.98546221435954762
  outer loop
   vertex -0.035769000649452209 0.0098160002380609512 -0.0054939999245107174
   vertex -0.029201999306678772 0.011838000267744064 -0.0056420001201331615
   vertex -0.026071999222040176 0.01610800065100193 -0.0051930001936852932
  endloop
 endfacet
 facet normal -0.32961939404658241 -0.16155058910294642 -0.93018947652016304
  outer loop
   vertex -0.029201999306678772 0.011838000267744064 -0.0056420001201331615
   vertex -0.01827700063586235 0.022084999829530716 -0.011292999610304832
   vertex -0.026629000902175903 0.01156300026923418 -0.006506000179797411
  endloop
 endfacet
 facet normal -0.73012164449754446 0.64137465780667902 -0.23571366646753145
  outer loop
   vertex -0.015625 0.027451999485492706 -0.0049040000885725021
   vertex -0.011518999934196472 0.025985000655055046 -0.021614000201225281
   vertex -0.01827700063586235 0.022084999829530716 -0.011292999610304832
  endloop
 endfacet
 facet normal -0.72362580891547901 0.28930095591666538 -0.62663437950460588
  outer loop
   vertex -0.026629000902175903 0.01156300026923418 -0.006506000179797411
   vertex -0.01827700063586235 0.022084999829530716 -0.011292999610304832
   vertex -0.020810000598430634 0.014832999557256699 -0.01171599980443716
  endloop
 endfacet
 facet normal -0.84353265327711868 0.31979965325893989 -0.43148678384247885
  outer loop
   vertex -0.020810000598430634 0.014832999557256699 -0.01171599980443716
   vertex -0.01827700063586235 0.022084999829530716 -0.011292999610304832
   vertex -0.011518999934196472 0.025985000655055046 -0.021614000201225281
  endloop
 endfacet
 facet normal 0.44041773306141047 -0.015048855525912912 0.89766683817127191
  outer loop
   vertex -0.014201000332832336 0.016714999452233315 -0.0094520002603530884
   vertex -0.0064960001036524773 0.025738000869750977 -0.013081000186502934
   vertex -0.0092780003324151039 0.029977999627590179 -0.011645000427961349
  endloop
 endfacet
 facet normal 0.70083082626795523 0.59373851425011515 -0.39536151766281052
  outer loop
   vertex -0.011518999934196472 0.025985000655055046 -0.021614000201225281
   vertex -0.0092780003324151039 0.029977999627590179 -0.011645000427961349
   vertex -0.0064960001036524773 0.025738000869750977 -0.013081000186502934
  endloop
 endfacet
 facet normal 0.060208921104955369 0.2264620002622027 -0.9721573166193932
  outer loop
   vertex -0.005394000094383955 0.024101000279188156 0.01143800001591444
   vertex -0.0023640000727027655 0.017937999218702316 0.01018999982625246
   vertex -0.014201000332832336 0.016714999452233315 0.009171999990940094
  endloop
 endfacet
 facet normal 0.069062865613768093 0.15223096366916047 -0.98592903106337904
  outer loop
   vertex -0.0023640000727027655 0.017937999218702316 0.01018999982625246
   vertex -0.0061989999376237392 0.013007000088691711 0.0091599998995661736
   vertex -0.014201000332832336 0.016714999452233315 0.009171999990940094
  endloop
 endfacet
 facet normal -0.29176769384122547 -0.63196908238373795 0.71797401884861334
  outer loop
   vertex -0.0031789999920874834 0.023894999176263809 0.019971000030636787
   vertex -0.014201000332832336 0.016714999452233315 0.009171999990940094
   vertex -0.0061989999376237392 0.013007000088691711 0.0091599998995661736
  endloop
 endfacet
 facet normal 0.34362818367351877 -0.90495298432007987 0.25095770072946538
  outer loop
   vertex -0.0031789999920874834 0.023894999176263809 0.019971000030636787
   vertex -0.020810000598430634 0.014832999557256699 0.011435000225901604
   vertex -0.014201000332832336 0.016714999452233315 0.009171999990940094
  endloop
 endfacet
 facet normal 0.1065996134237976 0.99430154368069856 -0.00098114834600348286
  outer loop
   vertex -0.02920600026845932 0.011832999996840954 -0.00014000000373926014
   vertex -0.029201999306678772 0.011838000267744064 0.0053619998507201672
   vertex -0.026629000902175903 0.01156300026923418 0.0062259999103844166
  endloop
 endfacet
 facet normal -0.80186563534874855 0.59119766202263324 0.086584220650878049
  outer loop
   vertex -0.020810000598430634 0.014832999557256699 0.011435000225901604
   vertex -0.014942999929189682 0.02110699936747551 0.022931000217795372
   vertex -0.011518999934196472 0.025985000655055046 0.021333999931812286
  endloop
 endfacet
 facet normal -0.87619915267187665 0.43351077403936034 0.21057885375526261
  outer loop
   vertex -0.020810000598430634 0.014832999557256699 0.011435000225901604
   vertex -0.019401999190449715 0.01535400003194809 0.016220999881625175
   vertex -0.014942999929189682 0.02110699936747551 0.022931000217795372
  endloop
 endfacet
 facet normal -0.69231058013523183 0.71045491053470811 0.12633242153120675
  outer loop
   vertex -0.020810000598430634 0.014832999557256699 0.011435000225901604
   vertex -0.018301999196410179 0.015483999624848366 0.021517999470233917
   vertex -0.019401999190449715 0.01535400003194809 0.016220999881625175
  endloop
 endfacet
 facet normal -0.10661281956550782 -0.9943000876930026 -0.0010209397531679208
  outer loop
   vertex -0.026634000241756439 0.011556999757885933 -0.00014000000373926014
   vertex -0.029201999306678772 0.011838000267744064 -0.0056420001201331615
   vertex -0.026629000902175903 0.01156300026923418 -0.006506000179797411
  endloop
 endfacet
 facet normal 0.060208921104955369 0.2264620002622027 0.9721573166193932
  outer loop
   vertex -0.0023640000727027655 0.017937999218702316 -0.010470000095665455
   vertex -0.005394000094383955 0.024101000279188156 -0.011718000285327435
   vertex -0.014201000332832336 0.016714999452233315 -0.0094520002603530884
  endloop
 endfacet
 facet normal 0.069062865613768093 0.15223096366916047 0.98592903106337904
  outer loop
   vertex -0.0061989999376237392 0.013007000088691711 -0.0094400001689791679
   vertex -0.0023640000727027655 0.017937999218702316 -0.010470000095665455
   vertex -0.014201000332832336 0.016714999452233315 -0.0094520002603530884
  endloop
 endfacet
 facet normal -0.29176769384122547 -0.63196908238373795 -0.71797401884861334
  outer loop
   vertex -0.014201000332832336 0.016714999452233315 -0.0094520002603530884
   vertex -0.0031789999920874834 0.023894999176263809 -0.020251000300049782
   vertex -0.0061989999376237392 0.013007000088691711 -0.0094400001689791679
  endloop
 endfacet
 facet normal 0.27210975574796142 -0.96225017507112431 0.0055571037758362788
  outer loop
   vertex -0.018301999196410179 0.015483999624848366 -0.021797999739646912
   vertex -0.014201000332832336 0.016714999452233315 -0.0094520002603530884
   vertex -0.020810000598430634 0.014832999557256699 -0.01171599980443716
  endloop
 endfacet
 facet normal -0.80186420083688192 0.59119869509306511 -0.086590451762799531
  outer loop
   vertex -0.014942999929189682 0.02110699936747551 -0.023211000487208366
   vertex -0.020810000598430634 0.014832999557256699 -0.01171599980443716
   vertex -0.011518999934196472 0.025985000655055046 -0.021614000201225281
  endloop
 endfacet
 facet normal -0.8762121732354865 0.4334584603973799 -0.21063235882427653
  outer loop
   vertex -0.019401999190449715 0.01535400003194809 -0.01650100015103817
   vertex -0.020810000598430634 0.014832999557256699 -0.01171599980443716
   vertex -0.014942999929189682 0.02110699936747551 -0.023211000487208366
  endloop
 endfacet
 facet normal -0.6921574045228347 0.71061047492172968 -0.12629679447922201
  outer loop
   vertex -0.018301999196410179 0.015483999624848366 -0.021797999739646912
   vertex -0.020810000598430634 0.014832999557256699 -0.01171599980443716
   vertex -0.019401999190449715 0.01535400003194809 -0.01650100015103817
  endloop
 endfacet
 facet normal -0.58416437335473326 0.52189845514284061 -0.62158988684066296
  outer loop
   vertex 0.00024100000155158341 0.027768999338150024 0.0092219999060034752
   vertex -0.005394000094383955 0.024101000279188156 0.01143800001591444
   vertex 0.00041000000783242285 0.029172999784350395 0.010242000222206116
  endloop
 endfacet
 facet normal -0.29867497423679112 0.52907402460139541 0.79427573062302126
  outer loop
   vertex 0.00041000000783242285 0.029172999784350395 0.010242000222206116
   vertex -0.005394000094383955 0.024101000279188156 0.01143800001591444
   vertex -0.0022009999956935644 0.02467699907720089 0.012254999950528145
  endloop
 endfacet
 facet normal 0.07000542185516738 0.66570215151156731 -0.74292656863498308
  outer loop
   vertex -0.0022009999956935644 0.02467699907720089 0.012254999950528145
   vertex -0.005394000094383955 0.024101000279188156 0.01143800001591444
   vertex -0.0064960001036524773 0.025738000869750977 0.012800999917089939
  endloop
 endfacet
 facet normal 0.37226467979600181 0.74875005925291216 -0.54844540014949594
  outer loop
   vertex -0.00077799998689442873 0.024886000901460648 0.01551899965852499
   vertex -0.0064960001036524773 0.025738000869750977 0.012800999917089939
   vertex -0.0043029999360442162 0.028156999498605728 0.017591999843716621
  endloop
 endfacet
 facet normal -0.39971739461535793 0.8787742250642363 -0.26073332315732334
  outer loop
   vertex -0.0043029999360442162 0.028156999498605728 0.017591999843716621
   vertex -0.0064960001036524773 0.025738000869750977 0.012800999917089939
   vertex -0.011518999934196472 0.025985000655055046 0.021333999931812286
  endloop
 endfacet
 facet normal -0.28106458779811694 0.47102986267956143 0.83614207282611264
  outer loop
   vertex -0.011518999934196472 0.025985000655055046 0.021333999931812286
   vertex -0.014942999929189682 0.02110699936747551 0.022931000217795372
   vertex -0.0087620001286268234 0.024267999455332756 0.023228000849485397
  endloop
 endfacet
 facet normal -0.35265407450974778 0.92471444608458719 -0.14331188692550423
  outer loop
   vertex -0.011518999934196472 0.025985000655055046 0.021333999931812286
   vertex -0.0012450000504031777 0.03000899963080883 0.022017000243067741
   vertex -0.0043029999360442162 0.028156999498605728 0.017591999843716621
  endloop
 endfacet
 facet normal -0.2942559591753956 0.9557264137699043 -0.00067269033395587249
  outer loop
   vertex -0.035773001611232758 0.0098109999671578407 -0.00014000000373926014
   vertex -0.035769000649452209 0.0098160002380609512 0.0052140001207590103
   vertex -0.029201999306678772 0.011838000267744064 0.0053619998507201672
  endloop
 endfacet
 facet normal 0.30830572973909259 -0.95128719846972809 0.00049298850074831334
  outer loop
   vertex -0.039820998907089233 0.008500000461935997 -0.00014000000373926014
   vertex -0.035769000649452209 0.0098160002380609512 0.0052140001207590103
   vertex -0.039817001670598984 0.0085039995610713959 0.0050769997760653496
  endloop
 endfacet
 facet normal -0.96684777773133401 -0.25535171352594355 0.00093653368615470112
  outer loop
   vertex -0.039820998907089233 0.008500000461935997 -0.00014000000373926014
   vertex -0.039817001670598984 0.0085039995610713959 0.0050769997760653496
   vertex -0.042442001402378082 0.018424000591039658 -0.00014000000373926014
  endloop
 endfacet
 facet normal -0.050805331199309467 -0.47536034260536109 -0.8783230402305533
  outer loop
   vertex -0.044041000306606293 0.011083999648690224 0.0039249998517334461
   vertex -0.042442001402378082 0.018424000591039658 -0.00014000000373926014
   vertex -0.039817001670598984 0.0085039995610713959 0.0050769997760653496
  endloop
 endfacet
 facet normal -0.26076719612751653 0.0041287788644197125 0.96539288510371879
  outer loop
   vertex -0.044041000306606293 0.011083999648690224 0.0039249998517334461
   vertex -0.039817001670598984 0.0085039995610713959 0.0050769997760653496
   vertex -0.043627999722957611 0.014254000037908554 0.0040230001322925091
  endloop
 endfacet
 facet normal -0.98028536702240665 0.13225381103986117 -0.14679757718429251
  outer loop
   vertex -0.043627999722957611 0.014254000037908554 0.0040230001322925091
   vertex -0.042442001402378082 0.018424000591039658 -0.00014000000373926014
   vertex -0.044041000306606293 0.011083999648690224 0.0039249998517334461
  endloop
 endfacet
 facet normal -0.96684777773137665 -0.25535171352595482 -0.0009365336391333783
  outer loop
   vertex -0.039817001670598984 0.0085039995610713959 -0.005357000045478344
   vertex -0.039820998907089233 0.008500000461935997 -0.00014000000373926014
   vertex -0.042442001402378082 0.018424000591039658 -0.00014000000373926014
  endloop
 endfacet
 facet normal -0.98029107033905638 0.132298406987157 0.14671928612887866
  outer loop
   vertex -0.042442001402378082 0.018424000591039658 -0.00014000000373926014
   vertex -0.043627999722957611 0.014254000037908554 -0.0043040001764893532
   vertex -0.044041000306606293 0.011083999648690224 -0.0042050001211464405
  endloop
 endfacet
 facet normal -0.050805347383999507 -0.4753603636092909 0.87832302792676098
  outer loop
   vertex -0.042442001402378082 0.018424000591039658 -0.00014000000373926014
   vertex -0.044041000306606293 0.011083999648690224 -0.0042050001211464405
   vertex -0.039817001670598984 0.0085039995610713959 -0.005357000045478344
  endloop
 endfacet
 facet normal -0.26092802693632861 0.003846581616992788 -0.96535059360264464
  outer loop
   vertex -0.039817001670598984 0.0085039995610713959 -0.005357000045478344
   vertex -0.044041000306606293 0.011083999648690224 -0.0042050001211464405
   vertex -0.043627999722957611 0.014254000037908554 -0.0043040001764893532
  endloop
 endfacet
 facet normal 0.30830064518594386 -0.95128874646316841 -0.00065805050303050958
  outer loop
   vertex -0.035773001611232758 0.0098109999671578407 -0.00014000000373926014
   vertex -0.039817001670598984 0.0085039995610713959 -0.005357000045478344
   vertex -0.035769000649452209 0.0098160002380609512 -0.0054939999245107174
  endloop
 endfacet
 facet normal -0.29425633516515137 0.95572631057247637 0.00065459506274480415
  outer loop
   vertex -0.02920600026845932 0.011832999996840954 -0.00014000000373926014
   vertex -0.029201999306678772 0.011838000267744064 -0.0056420001201331615
   vertex -0.035769000649452209 0.0098160002380609512 -0.0054939999245107174
  endloop
 endfacet
 facet normal -0.62815082924183419 0.60222110374673143 -0.49270303218558004
  outer loop
   vertex -0.014942999929189682 0.02110699936747551 -0.023211000487208366
   vertex -0.011518999934196472 0.025985000655055046 -0.021614000201225281
   vertex -0.0088820001110434532 0.026717999950051308 -0.024080000817775726
  endloop
 endfacet
 facet normal -0.41284891740853358 0.9058801697394846 0.094535122929863713
  outer loop
   vertex -0.0088820001110434532 0.026717999950051308 -0.024080000817775726
   vertex -0.0043029999360442162 0.028156999498605728 -0.017872000113129616
   vertex -0.0012450000504031777 0.03000899963080883 -0.022264000028371811
  endloop
 endfacet
 facet normal -0.39971739461535793 0.8787742250642363 0.26073332315732334
  outer loop
   vertex -0.0064960001036524773 0.025738000869750977 -0.013081000186502934
   vertex -0.0043029999360442162 0.028156999498605728 -0.017872000113129616
   vertex -0.011518999934196472 0.025985000655055046 -0.021614000201225281
  endloop
 endfacet
 facet normal 0.14757673038766314 0.85407418598726259 0.49877689749855281
  outer loop
   vertex -0.0022009999956935644 0.02467699907720089 -0.012535000219941139
   vertex -0.0043029999360442162 0.028156999498605728 -0.017872000113129616
   vertex -0.0064960001036524773 0.025738000869750977 -0.013081000186502934
  endloop
 endfacet
 facet normal 0.07000542185516738 0.66570215151156731 0.74292656863498308
  outer loop
   vertex -0.005394000094383955 0.024101000279188156 -0.011718000285327435
   vertex -0.0022009999956935644 0.02467699907720089 -0.012535000219941139
   vertex -0.0064960001036524773 0.025738000869750977 -0.013081000186502934
  endloop
 endfacet
 facet normal -0.25807811332361524 0.068267464790153984 0.96370910583767355
  outer loop
   vertex -0.0023640000727027655 0.017937999218702316 -0.010470000095665455
   vertex 0.00041000000783242285 0.029172999784350395 -0.010522999800741673
   vertex -0.005394000094383955 0.024101000279188156 -0.011718000285327435
  endloop
 endfacet
 facet normal -0.29867373152277166 0.52893762351681362 -0.79436703892259319
  outer loop
   vertex -0.005394000094383955 0.024101000279188156 -0.011718000285327435
   vertex 0.00041000000783242285 0.029172999784350395 -0.010522999800741673
   vertex -0.0022009999956935644 0.02467699907720089 -0.012535000219941139
  endloop
 endfacet
 facet normal -0.50203934111451487 0.21549955317584599 0.83756578401598669
  outer loop
   vertex 0.00024100000155158341 0.027768999338150024 0.0092219999060034752
   vertex -0.0061989999376237392 0.013007000088691711 0.0091599998995661736
   vertex -0.0023640000727027655 0.017937999218702316 0.01018999982625246
  endloop
 endfacet
 facet normal -0.87778380843977755 0.38414000156546163 -0.28623774181307232
  outer loop
   vertex 0.00024100000155158341 0.027768999338150024 0.0092219999060034752
   vertex -0.0050280001014471054 0.011706000193953514 0.003823000006377697
   vertex -0.0061989999376237392 0.013007000088691711 0.0091599998995661736
  endloop
 endfacet
 facet normal -0.25362633694265546 -0.95111794986307308 0.17620535365679241
  outer loop
   vertex 0.013453000225126743 0.0075449999421834946 0.0079640001058578491
   vertex -0.0061989999376237392 0.013007000088691711 0.0091599998995661736
   vertex -0.0050280001014471054 0.011706000193953514 0.003823000006377697
  endloop
 endfacet
 facet normal -0.22626902447885303 -0.97236285701195035 0.057556953228483934
  outer loop
   vertex 0.010598000138998032 0.0093839997425675392 0.01398599985986948
   vertex 0.007009000051766634 0.010316000320017338 0.015622000209987164
   vertex -0.0061989999376237392 0.013007000088691711 0.0091599998995661736
  endloop
 endfacet
 facet normal -0.46631876587178062 -0.42259579115488688 0.77714838087330185
  outer loop
   vertex 0.007009000051766634 0.010316000320017338 0.015622000209987164
   vertex 0.0043379999697208405 0.016077000647783279 0.017152000218629837
   vertex -0.0061989999376237392 0.013007000088691711 0.0091599998995661736
  endloop
 endfacet
 facet normal -0.3622558162692569 -0.60421603601376428 0.70971381936870015
  outer loop
   vertex -0.0061989999376237392 0.013007000088691711 0.0091599998995661736
   vertex 0.0043379999697208405 0.016077000647783279 0.017152000218629837
   vertex -0.0031789999920874834 0.023894999176263809 0.019971000030636787
  endloop
 endfacet
 facet normal 0.82077833021978941 0.42778172320919716 0.37858384795152589
  outer loop
   vertex -0.00087400001939386129 0.022068999707698822 0.017037000507116318
   vertex -0.0043029999360442162 0.028156999498605728 0.017591999843716621
   vertex -0.0031789999920874834 0.023894999176263809 0.019971000030636787
  endloop
 endfacet
 facet normal 0.83569840800166983 -0.082663062365256945 -0.54293184561588581
  outer loop
   vertex -0.0031789999920874834 0.023894999176263809 0.019971000030636787
   vertex -0.0043029999360442162 0.028156999498605728 0.017591999843716621
   vertex -0.0012450000504031777 0.03000899963080883 0.022017000243067741
  endloop
 endfacet
 facet normal 0.7764801397210912 -0.40669228583565942 0.48133146298624713
  outer loop
   vertex -0.0031789999920874834 0.023894999176263809 0.019971000030636787
   vertex -0.0012450000504031777 0.03000899963080883 0.022017000243067741
   vertex -0.0033700000494718552 0.028209999203681946 0.023925000801682472
  endloop
 endfacet
 facet normal 0.9772471555854273 -0.11644579252160113 -0.17728049611902552
  outer loop
   vertex -0.0031789999920874834 0.023894999176263809 0.019971000030636787
   vertex -0.001854000031016767 0.025798000395298004 0.026024999096989632
   vertex -0.002988999942317605 0.021143000572919846 0.022825999185442924
  endloop
 endfacet
 facet normal 0.37147755812314764 -0.76474800860435632 -0.52646453550693684
  outer loop
   vertex -0.0031789999920874834 0.023894999176263809 0.019971000030636787
   vertex -0.0044820001348853111 0.017762999981641769 0.027959000319242477
   vertex -0.018301999196410179 0.015483999624848366 0.021517999470233917
  endloop
 endfacet
 facet normal -0.36142818893596901 -0.71019915531533939 -0.60414139407248346
  outer loop
   vertex -0.0031789999920874834 0.023894999176263809 0.019971000030636787
   vertex -0.0013170000165700912 0.017054000869393349 0.026899000629782677
   vertex -0.0044820001348853111 0.017762999981641769 0.027959000319242477
  endloop
 endfacet
 facet normal 0.48140872638287618 0.64684474753690213 0.59147063388332155
  outer loop
   vertex -0.002988999942317605 0.021143000572919846 0.022825999185442924
   vertex 0.0021989999804645777 0.02148899994790554 0.018224999308586121
   vertex -0.0031789999920874834 0.023894999176263809 0.019971000030636787
  endloop
 endfacet
 facet normal 0.2956569180222684 0.89777853736831037 -0.32646697331643054
  outer loop
   vertex -0.0031789999920874834 0.023894999176263809 0.019971000030636787
   vertex 0.0021989999804645777 0.02148899994790554 0.018224999308586121
   vertex -0.00087400001939386129 0.022068999707698822 0.017037000507116318
  endloop
 endfacet
 facet normal -0.3478935705758413 -0.60934056155227478 -0.71251255680103676
  outer loop
   vertex 0.0016469999682158232 0.015845000743865967 0.024498999118804932
   vertex -0.0031789999920874834 0.023894999176263809 0.019971000030636787
   vertex 0.003848999971523881 0.018497999757528305 0.021154999732971191
  endloop
 endfacet
 facet normal -0.6061374422199074 -0.7111970294083777 0.35608452156729237
  outer loop
   vertex 0.003848999971523881 0.018497999757528305 0.021154999732971191
   vertex -0.0031789999920874834 0.023894999176263809 0.019971000030636787
   vertex 0.0043379999697208405 0.016077000647783279 0.017152000218629837
  endloop
 endfacet
 facet normal -0.62678184886826538 -0.632066128076612 -0.4556719474221767
  outer loop
   vertex -0.0031789999920874834 0.023894999176263809 0.019971000030636787
   vertex 0.0016469999682158232 0.015845000743865967 0.024498999118804932
   vertex -0.0013170000165700912 0.017054000869393349 0.026899000629782677
  endloop
 endfacet
 facet normal -0.86430712066468118 0.47413035985148244 0.16784994201795772
  outer loop
   vertex -0.019401999190449715 0.01535400003194809 0.016220999881625175
   vertex -0.018301999196410179 0.015483999624848366 0.021517999470233917
   vertex -0.014942999929189682 0.02110699936747551 0.022931000217795372
  endloop
 endfacet
 facet normal -0.37264081707897828 -0.01057175498845093 0.92791543765753548
  outer loop
   vertex -0.014942999929189682 0.02110699936747551 0.022931000217795372
   vertex -0.018301999196410179 0.015483999624848366 0.021517999470233917
   vertex -0.0068399999290704727 0.023119000717997551 0.026208000257611275
  endloop
 endfacet
 facet normal -0.43396633225136028 0.10160025075659294 0.8951818873941203
  outer loop
   vertex -0.0068399999290704727 0.023119000717997551 0.026208000257611275
   vertex -0.018301999196410179 0.015483999624848366 0.021517999470233917
   vertex -0.0044820001348853111 0.017762999981641769 0.027959000319242477
  endloop
 endfacet
 facet normal -0.40271212591026528 0.73637950053409418 0.54366182028720067
  outer loop
   vertex -0.0087620001286268234 0.024267999455332756 0.023228000849485397
   vertex -0.014942999929189682 0.02110699936747551 0.022931000217795372
   vertex -0.0068399999290704727 0.023119000717997551 0.026208000257611275
  endloop
 endfacet
 facet normal -0.50203934111451487 0.21549955317584599 -0.83756578401598669
  outer loop
   vertex -0.0061989999376237392 0.013007000088691711 -0.0094400001689791679
   vertex 0.00024100000155158341 0.027768999338150024 -0.0095020001754164696
   vertex -0.0023640000727027655 0.017937999218702316 -0.010470000095665455
  endloop
 endfacet
 facet normal -0.87778381475662148 0.38414000422486899 0.2862377188726723
  outer loop
   vertex -0.0050280001014471054 0.011706000193953514 -0.0041029998101294041
   vertex 0.00024100000155158341 0.027768999338150024 -0.0095020001754164696
   vertex -0.0061989999376237392 0.013007000088691711 -0.0094400001689791679
  endloop
 endfacet
 facet normal -0.25554611411461103 -0.95070072794428762 -0.17568241075054697
  outer loop
   vertex 0.010598000138998032 0.0093839997425675392 -0.014267000369727612
   vertex -0.0050280001014471054 0.011706000193953514 -0.0041029998101294041
   vertex -0.0061989999376237392 0.013007000088691711 -0.0094400001689791679
  endloop
 endfacet
 facet normal -0.2262766897041732 -0.97236007671287994 -0.057573786669314078
  outer loop
   vertex 0.007009000051766634 0.010316000320017338 -0.015901999548077583
   vertex 0.010598000138998032 0.0093839997425675392 -0.014267000369727612
   vertex -0.0061989999376237392 0.013007000088691711 -0.0094400001689791679
  endloop
 endfacet
 facet normal -0.4663187188247736 -0.42259588842579543 -0.77714835620956846
  outer loop
   vertex 0.0043379999697208405 0.016077000647783279 -0.017432000488042831
   vertex 0.007009000051766634 0.010316000320017338 -0.015901999548077583
   vertex -0.0061989999376237392 0.013007000088691711 -0.0094400001689791679
  endloop
 endfacet
 facet normal -0.3622558162692569 -0.60421603601376428 -0.70971381936870015
  outer loop
   vertex 0.0043379999697208405 0.016077000647783279 -0.017432000488042831
   vertex -0.0061989999376237392 0.013007000088691711 -0.0094400001689791679
   vertex -0.0031789999920874834 0.023894999176263809 -0.020251000300049782
  endloop
 endfacet
 facet normal 0.72890262376022796 0.470061979599457 -0.49773758187472178
  outer loop
   vertex -0.00077799998689442873 0.024886000901460648 -0.015799000859260559
   vertex -0.0031789999920874834 0.023894999176263809 -0.020251000300049782
   vertex -0.0043029999360442162 0.028156999498605728 -0.017872000113129616
  endloop
 endfacet
 facet normal 0.83407155749134509 -0.084341810107596227 0.54517070358900976
  outer loop
   vertex -0.0043029999360442162 0.028156999498605728 -0.017872000113129616
   vertex -0.0031789999920874834 0.023894999176263809 -0.020251000300049782
   vertex -0.0012450000504031777 0.03000899963080883 -0.022264000028371811
  endloop
 endfacet
 facet normal 0.77640469779729371 -0.4046704175211685 -0.48315380410541764
  outer loop
   vertex -0.0012450000504031777 0.03000899963080883 -0.022264000028371811
   vertex -0.0031789999920874834 0.023894999176263809 -0.020251000300049782
   vertex -0.0033700000494718552 0.028209999203681946 -0.024172000586986542
  endloop
 endfacet
 facet normal 0.85873863160670127 0.10290315751751122 0.50197500212577983
  outer loop
   vertex -0.0033700000494718552 0.028209999203681946 -0.024172000586986542
   vertex -0.0031079999171197414 0.023564999923110008 -0.023668000474572182
   vertex -0.001854000031016767 0.025798000395298004 -0.026271000504493713
  endloop
 endfacet
 facet normal 0.37082808788112437 -0.7638924297256886 0.52816179817004283
  outer loop
   vertex -0.0044820001348853111 0.017762999981641769 -0.02820499986410141
   vertex -0.0031789999920874834 0.023894999176263809 -0.020251000300049782
   vertex -0.018301999196410179 0.015483999624848366 -0.021797999739646912
  endloop
 endfacet
 facet normal -0.3584157195458933 -0.71004629279740816 0.60611255890886861
  outer loop
   vertex -0.0013170000165700912 0.017054000869393349 -0.027163999155163765
   vertex -0.0031789999920874834 0.023894999176263809 -0.020251000300049782
   vertex -0.0044820001348853111 0.017762999981641769 -0.02820499986410141
  endloop
 endfacet
 facet normal 0.45482645227623952 0.86606994749034005 -0.2074987815961567
  outer loop
   vertex 0.0025090000126510859 0.020445000380277634 -0.022182999178767204
   vertex -0.0031789999920874834 0.023894999176263809 -0.020251000300049782
   vertex 0.0021989999804645777 0.02148899994790554 -0.018504999577999115
  endloop
 endfacet
 facet normal 0.2956569180222684 0.89777853736831037 0.32646697331643054
  outer loop
   vertex 0.0021989999804645777 0.02148899994790554 -0.018504999577999115
   vertex -0.0031789999920874834 0.023894999176263809 -0.020251000300049782
   vertex -0.00087400001939386129 0.022068999707698822 -0.017317000776529312
  endloop
 endfacet
 facet normal -0.3466092143827893 -0.60815882672725818 0.71414626931649694
  outer loop
   vertex -0.0031789999920874834 0.023894999176263809 -0.020251000300049782
   vertex 0.0016469999682158232 0.015845000743865967 -0.024763999506831169
   vertex 0.003848999971523881 0.018497999757528305 -0.021436000242829323
  endloop
 endfacet
 facet normal -0.60617967646952198 -0.71120556369016319 -0.35599557021325856
  outer loop
   vertex -0.0031789999920874834 0.023894999176263809 -0.020251000300049782
   vertex 0.003848999971523881 0.018497999757528305 -0.021436000242829323
   vertex 0.0043379999697208405 0.016077000647783279 -0.017432000488042831
  endloop
 endfacet
 facet normal -0.62694864366090897 -0.63157221846076461 0.45612709969951898
  outer loop
   vertex 0.0016469999682158232 0.015845000743865967 -0.024763999506831169
   vertex -0.0031789999920874834 0.023894999176263809 -0.020251000300049782
   vertex -0.0013170000165700912 0.017054000869393349 -0.027163999155163765
  endloop
 endfacet
 facet normal -0.86430712066468118 0.47413035985148244 -0.16784994201795772
  outer loop
   vertex -0.018301999196410179 0.015483999624848366 -0.021797999739646912
   vertex -0.019401999190449715 0.01535400003194809 -0.01650100015103817
   vertex -0.014942999929189682 0.02110699936747551 -0.023211000487208366
  endloop
 endfacet
 facet normal -0.37101347042550131 -0.011704273721640927 -0.92855372205353548
  outer loop
   vertex -0.018301999196410179 0.015483999624848366 -0.021797999739646912
   vertex -0.014942999929189682 0.02110699936747551 -0.023211000487208366
   vertex -0.0068399999290704727 0.023119000717997551 -0.026474000886082649
  endloop
 endfacet
 facet normal -0.43197535483296906 0.09952035508992628 -0.8963777059586574
  outer loop
   vertex -0.018301999196410179 0.015483999624848366 -0.021797999739646912
   vertex -0.0068399999290704727 0.023119000717997551 -0.026474000886082649
   vertex -0.0044820001348853111 0.017762999981641769 -0.02820499986410141
  endloop
 endfacet
 facet normal -0.42152839973440126 0.32417289239878011 -0.84689181366403821
  outer loop
   vertex -0.014942999929189682 0.02110699936747551 -0.023211000487208366
   vertex -0.0088820001110434532 0.026717999950051308 -0.024080000817775726
   vertex -0.0068399999290704727 0.023119000717997551 -0.026474000886082649
  endloop
 endfacet
 facet normal -0.57363500742455653 0.65268591567268774 -0.49491814852512128
  outer loop
   vertex 0.0029939999803900719 0.031442001461982727 0.010874999687075615
   vertex 0.0025979999918490648 0.026495000347495079 0.0048099998384714127
   vertex 0.00024100000155158341 0.027768999338150024 0.0092219999060034752
  endloop
 endfacet
 facet normal 0.462028359655623 0.48419120593720566 -0.74302669599887783
  outer loop
   vertex 0.0042610000818967819 0.030279999598860741 0.013357999734580517
   vertex 0.00024100000155158341 0.027768999338150024 0.0092219999060034752
   vertex 0.00041000000783242285 0.029172999784350395 0.010242000222206116
  endloop
 endfacet
 facet normal 0.24620326392112668 0.9582826694008465 -0.14518360224409635
  outer loop
   vertex 0.0025979999918490648 0.026495000347495079 0.0048099998384714127
   vertex 0.0015820000553503633 0.026365000754594803 0.0022289999760687351
   vertex 0.00024100000155158341 0.027768999338150024 0.0092219999060034752
  endloop
 endfacet
 facet normal -0.89319223263323333 0.37592406257986222 -0.24675642795500108
  outer loop
   vertex 0.0015820000553503633 0.026365000754594803 0.0022289999760687351
   vertex -0.0050280001014471054 0.011706000193953514 0.003823000006377697
   vertex 0.00024100000155158341 0.027768999338150024 0.0092219999060034752
  endloop
 endfacet
 facet normal -0.63977817005695115 0.76016445809673894 -0.11328675900152761
  outer loop
   vertex 0.0042610000818967819 0.030279999598860741 0.013357999734580517
   vertex -0.0022009999956935644 0.02467699907720089 0.012254999950528145
   vertex 0.0032269998919218779 0.029602000489830971 0.014647999778389931
  endloop
 endfacet
 facet normal -0.70949051530026708 0.65194295130773638 0.26756979825667926
  outer loop
   vertex 0.0032269998919218779 0.029602000489830971 0.014647999778389931
   vertex -0.0022009999956935644 0.02467699907720089 0.012254999950528145
   vertex -0.00077799998689442873 0.024886000901460648 0.01551899965852499
  endloop
 endfacet
 facet normal -0.35531431458578072 0.4527796144678779 0.81776668957151633
  outer loop
   vertex -0.00087400001939386129 0.022068999707698822 0.017037000507116318
   vertex 0.0032269998919218779 0.029602000489830971 0.014647999778389931
   vertex -0.00077799998689442873 0.024886000901460648 0.01551899965852499
  endloop
 endfacet
 facet normal -0.59533565616216289 0.79844457013553871 0.08978710889120943
  outer loop
   vertex -0.0033700000494718552 0.028209999203681946 0.023925000801682472
   vertex -0.0012450000504031777 0.03000899963080883 0.022017000243067741
   vertex -0.0087620001286268234 0.024267999455332756 0.023228000849485397
  endloop
 endfacet
 facet normal -0.52834407988529097 0.62015638833916886 0.57987807964457772
  outer loop
   vertex -0.0068399999290704727 0.023119000717997551 0.026208000257611275
   vertex -0.0033700000494718552 0.028209999203681946 0.023925000801682472
   vertex -0.0087620001286268234 0.024267999455332756 0.023228000849485397
  endloop
 endfacet
 facet normal -0.23148366693760067 0.8232221990748575 -0.51838260280557025
  outer loop
   vertex -0.0012450000504031777 0.03000899963080883 -0.022264000028371811
   vertex -0.0033700000494718552 0.028209999203681946 -0.024172000586986542
   vertex -0.0088820001110434532 0.026717999950051308 -0.024080000817775726
  endloop
 endfacet
 facet normal -0.1466684113369853 0.48882030836093882 -0.85996690822949784
  outer loop
   vertex -0.0033700000494718552 0.028209999203681946 -0.024172000586986542
   vertex -0.0068399999290704727 0.023119000717997551 -0.026474000886082649
   vertex -0.0088820001110434532 0.026717999950051308 -0.024080000817775726
  endloop
 endfacet
 facet normal -0.70673234620666336 0.58709367011103297 -0.39477894237254163
  outer loop
   vertex 0.00041000000783242285 0.029172999784350395 -0.010522999800741673
   vertex 0.0032269998919218779 0.029602000489830971 -0.014928000047802925
   vertex -0.0022009999956935644 0.02467699907720089 -0.012535000219941139
  endloop
 endfacet
 facet normal -0.7094905125495905 0.65194298706705045 -0.26756971842159438
  outer loop
   vertex -0.0022009999956935644 0.02467699907720089 -0.012535000219941139
   vertex 0.0032269998919218779 0.029602000489830971 -0.014928000047802925
   vertex -0.00077799998689442873 0.024886000901460648 -0.015799000859260559
  endloop
 endfacet
 facet normal -0.3553138980897898 0.45277947041152816 -0.8177669502970234
  outer loop
   vertex 0.0032269998919218779 0.029602000489830971 -0.014928000047802925
   vertex -0.00087400001939386129 0.022068999707698822 -0.017317000776529312
   vertex -0.00077799998689442873 0.024886000901460648 -0.015799000859260559
  endloop
 endfacet
 facet normal -0.32781982218174432 0.58113019905823105 0.74486364921861403
  outer loop
   vertex 0.0029939999803900719 0.031442001461982727 -0.011156000196933746
   vertex 0.00041000000783242285 0.029172999784350395 -0.010522999800741673
   vertex 0.00024100000155158341 0.027768999338150024 -0.0095020001754164696
  endloop
 endfacet
 facet normal -0.57356430936913894 0.65276037779863993 0.4949018813806223
  outer loop
   vertex 0.0025979999918490648 0.026495000347495079 -0.005090000107884407
   vertex 0.0029939999803900719 0.031442001461982727 -0.011156000196933746
   vertex 0.00024100000155158341 0.027768999338150024 -0.0095020001754164696
  endloop
 endfacet
 facet normal 0.24620327745010914 0.95828266711975263 0.1451835943578946
  outer loop
   vertex 0.0015820000553503633 0.026365000754594803 -0.0025090000126510859
   vertex 0.0025979999918490648 0.026495000347495079 -0.005090000107884407
   vertex 0.00024100000155158341 0.027768999338150024 -0.0095020001754164696
  endloop
 endfacet
 facet normal -0.94698893571994225 0.32004361968468892 0.028000662905248584
  outer loop
   vertex -0.0051429998129606247 0.011018999852240086 -0.00014000000373926014
   vertex 0.00024100000155158341 0.027768999338150024 -0.0095020001754164696
   vertex -0.0050280001014471054 0.011706000193953514 -0.0041029998101294041
  endloop
 endfacet
 facet normal -0.21562707867887881 -0.97629703084481279 -0.018683428593681207
  outer loop
   vertex -0.0050280001014471054 0.011706000193953514 0.003823000006377697
   vertex 0.014737999998033047 0.0073750000447034836 0.0020169999916106462
   vertex 0.013453000225126743 0.0075449999421834946 0.0079640001058578491
  endloop
 endfacet
 facet normal 0.96840808672793621 -0.12974843960956225 0.21295802398318214
  outer loop
   vertex 0.013453000225126743 0.0075449999421834946 0.0079640001058578491
   vertex 0.014737999998033047 0.0073750000447034836 0.0020169999916106462
   vertex 0.015515999868512154 0.021390000358223915 0.0070179998874664307
  endloop
 endfacet
 facet normal 0.79055093961765888 0.031128740733065666 0.61160462176966102
  outer loop
   vertex 0.010598000138998032 0.0093839997425675392 0.01398599985986948
   vertex 0.015515999868512154 0.021390000358223915 0.0070179998874664307
   vertex 0.012423000298440456 0.023079000413417816 0.010929999873042107
  endloop
 endfacet
 facet normal 0.44044416289253113 0.13921987548823811 0.88691981917360307
  outer loop
   vertex 0.007009000051766634 0.010316000320017338 0.015622000209987164
   vertex 0.010598000138998032 0.0093839997425675392 0.01398599985986948
   vertex 0.012423000298440456 0.023079000413417816 0.010929999873042107
  endloop
 endfacet
 facet normal 0.59374692130069484 0.028970860374997402 0.80413014039711195
  outer loop
   vertex 0.0043379999697208405 0.016077000647783279 0.017152000218629837
   vertex 0.012423000298440456 0.023079000413417816 0.010929999873042107
   vertex 0.01029600016772747 0.024841999635100365 0.012436999939382076
  endloop
 endfacet
 facet normal 0.68743106380383179 -0.078918980084665039 0.72194897818331194
  outer loop
   vertex 0.0043379999697208405 0.016077000647783279 0.017152000218629837
   vertex 0.01029600016772747 0.024841999635100365 0.012436999939382076
   vertex 0.0062040002085268497 0.022688999772071838 0.016098000109195709
  endloop
 endfacet
 facet normal 0.94559269696287906 -0.21408778352631189 0.24499157617203843
  outer loop
   vertex 0.0043379999697208405 0.016077000647783279 0.017152000218629837
   vertex 0.0040049999952316284 0.019820999354124069 0.021709000691771507
   vertex 0.003848999971523881 0.018497999757528305 0.021154999732971191
  endloop
 endfacet
 facet normal -0.25821214321083946 0.41695139665165054 0.87148036233107573
  outer loop
   vertex 0.0021989999804645777 0.02148899994790554 0.018224999308586121
   vertex 0.0032269998919218779 0.029602000489830971 0.014647999778389931
   vertex -0.00087400001939386129 0.022068999707698822 0.017037000507116318
  endloop
 endfacet
 facet normal -0.25883378334009938 0.53659041460495849 0.80316610956633949
  outer loop
   vertex -0.0033700000494718552 0.028209999203681946 0.023925000801682472
   vertex -0.0068399999290704727 0.023119000717997551 0.026208000257611275
   vertex -0.001854000031016767 0.025798000395298004 0.026024999096989632
  endloop
 endfacet
 facet normal 0.36779562213747119 0.46409510783108088 -0.80581766623955808
  outer loop
   vertex -0.00011600000289035961 0.020059000700712204 0.023513000458478928
   vertex -0.002988999942317605 0.021143000572919846 0.022825999185442924
   vertex -0.001854000031016767 0.025798000395298004 0.026024999096989632
  endloop
 endfacet
 facet normal 0.19242742232472973 0.83584477992318129 0.51413538198866326
  outer loop
   vertex -0.00011600000289035961 0.020059000700712204 0.023513000458478928
   vertex 0.0025090000126510859 0.020445000380277634 0.021903000771999359
   vertex -0.002988999942317605 0.021143000572919846 0.022825999185442924
  endloop
 endfacet
 facet normal -0.065775136544147433 0.18934013786739054 0.97970604959087404
  outer loop
   vertex -0.001854000031016767 0.025798000395298004 0.026024999096989632
   vertex -0.0068399999290704727 0.023119000717997551 0.026208000257611275
   vertex -0.0020500000100582838 0.018579000607132912 0.027406999841332436
  endloop
 endfacet
 facet normal 0.88372003320436443 0.064741771070994686 0.46351634921744456
  outer loop
   vertex -0.00011600000289035961 0.020059000700712204 0.023513000458478928
   vertex -0.001854000031016767 0.025798000395298004 0.026024999096989632
   vertex -0.0020500000100582838 0.018579000607132912 0.027406999841332436
  endloop
 endfacet
 facet normal 0.09534188401585926 0.34699636022267988 0.93300774441829715
  outer loop
   vertex -0.0068399999290704727 0.023119000717997551 0.026208000257611275
   vertex -0.0044820001348853111 0.017762999981641769 0.027959000319242477
   vertex -0.0020500000100582838 0.018579000607132912 0.027406999841332436
  endloop
 endfacet
 facet normal 0.27534721959584502 -0.18209323591064031 0.94394171541278393
  outer loop
   vertex -0.0013170000165700912 0.017054000869393349 0.026899000629782677
   vertex -0.0020500000100582838 0.018579000607132912 0.027406999841332436
   vertex -0.0044820001348853111 0.017762999981641769 0.027959000319242477
  endloop
 endfacet
 facet normal 0.64145374076043182 0.053385448348058112 0.76530196156100738
  outer loop
   vertex 0.0016469999682158232 0.015845000743865967 0.024498999118804932
   vertex -0.0020500000100582838 0.018579000607132912 0.027406999841332436
   vertex -0.0013170000165700912 0.017054000869393349 0.026899000629782677
  endloop
 endfacet
 facet normal 0.3996759947003119 0.89011791821501385 0.21897303699973203
  outer loop
   vertex 0.0040049999952316284 0.019820999354124069 0.021709000691771507
   vertex 0.0021989999804645777 0.02148899994790554 0.018224999308586121
   vertex 0.0025090000126510859 0.020445000380277634 0.021903000771999359
  endloop
 endfacet
 facet normal 0.36058985237309282 0.33765325352091685 0.86946261492504129
  outer loop
   vertex 0.0062040002085268497 0.022688999772071838 0.016098000109195709
   vertex 0.0032269998919218779 0.029602000489830971 0.014647999778389931
   vertex 0.0021989999804645777 0.02148899994790554 0.018224999308586121
  endloop
 endfacet
 facet normal 0.46190326032055667 0.31577908126816179 0.82881176990838856
  outer loop
   vertex 0.0015800000401213765 0.017131999135017395 0.023683000355958939
   vertex 0.0025090000126510859 0.020445000380277634 0.021903000771999359
   vertex -0.00011600000289035961 0.020059000700712204 0.023513000458478928
  endloop
 endfacet
 facet normal 0.50797383009339214 0.47994914543204464 0.71527016276320377
  outer loop
   vertex 0.003848999971523881 0.018497999757528305 0.021154999732971191
   vertex 0.0015800000401213765 0.017131999135017395 0.023683000355958939
   vertex 0.0016469999682158232 0.015845000743865967 0.024498999118804932
  endloop
 endfacet
 facet normal -0.17273225403657255 -0.9826217006236253 0.067957059081300578
  outer loop
   vertex -0.0051429998129606247 0.011018999852240086 -0.00014000000373926014
   vertex 0.014737999998033047 0.0073750000447034836 -0.002297000028192997
   vertex 0.014739000238478184 0.0075240000151097775 -0.00014000000373926014
  endloop
 endfacet
 facet normal 0.76738184630060824 -0.070755494039710654 -0.63727447935051207
  outer loop
   vertex 0.013453000225126743 0.0075449999421834946 -0.0082449996843934059
   vertex 0.012423000298440456 0.023079000413417816 -0.011210000142455101
   vertex 0.015515999868512154 0.021390000358223915 -0.007298000156879425
  endloop
 endfacet
 facet normal 0.44025870179075965 0.13932619475913222 -0.8869952011997897
  outer loop
   vertex 0.010598000138998032 0.0093839997425675392 -0.014267000369727612
   vertex 0.007009000051766634 0.010316000320017338 -0.015901999548077583
   vertex 0.012423000298440456 0.023079000413417816 -0.011210000142455101
  endloop
 endfacet
 facet normal 0.96841716312392889 -0.12973675764113179 -0.212923864054192
  outer loop
   vertex 0.014737999998033047 0.0073750000447034836 -0.002297000028192997
   vertex 0.013453000225126743 0.0075449999421834946 -0.0082449996843934059
   vertex 0.015515999868512154 0.021390000358223915 -0.007298000156879425
  endloop
 endfacet
 facet normal 0.59934614867753944 0.039678860345040007 -0.79950596127053331
  outer loop
   vertex 0.007009000051766634 0.010316000320017338 -0.015901999548077583
   vertex 0.01029600016772747 0.024841999635100365 -0.012717000208795071
   vertex 0.012423000298440456 0.023079000413417816 -0.011210000142455101
  endloop
 endfacet
 facet normal 0.68743106380383179 -0.078918980084665039 -0.72194897818331194
  outer loop
   vertex 0.01029600016772747 0.024841999635100365 -0.012717000208795071
   vertex 0.0043379999697208405 0.016077000647783279 -0.017432000488042831
   vertex 0.0062040002085268497 0.022688999772071838 -0.016378000378608704
  endloop
 endfacet
 facet normal 0.94132301592981793 -0.21851141401814497 -0.25722313586569695
  outer loop
   vertex 0.0062040002085268497 0.022688999772071838 -0.016378000378608704
   vertex 0.003848999971523881 0.018497999757528305 -0.021436000242829323
   vertex 0.0040049999952316284 0.019820999354124069 -0.021988999098539352
  endloop
 endfacet
 facet normal -0.25821214321083946 0.41695139665165054 -0.87148036233107573
  outer loop
   vertex 0.0032269998919218779 0.029602000489830971 -0.014928000047802925
   vertex 0.0021989999804645777 0.02148899994790554 -0.018504999577999115
   vertex -0.00087400001939386129 0.022068999707698822 -0.017317000776529312
  endloop
 endfacet
 facet normal -0.25628558216217745 0.53784211015666628 -0.80314604208575813
  outer loop
   vertex -0.0068399999290704727 0.023119000717997551 -0.026474000886082649
   vertex -0.0033700000494718552 0.028209999203681946 -0.024172000586986542
   vertex -0.001854000031016767 0.025798000395298004 -0.026271000504493713
  endloop
 endfacet
 facet normal 0.58058993737247111 0.45836828206702596 0.67291443929875172
  outer loop
   vertex -0.0031079999171197414 0.023564999923110008 -0.023668000474572182
   vertex -5.8000001445179805e-05 0.018861999735236168 -0.023096000775694847
   vertex -0.001854000031016767 0.025798000395298004 -0.026271000504493713
  endloop
 endfacet
 facet normal -0.061804141127749859 0.18928365042800921 -0.97997548327501971
  outer loop
   vertex -0.0068399999290704727 0.023119000717997551 -0.026474000886082649
   vertex -0.001854000031016767 0.025798000395298004 -0.026271000504493713
   vertex -0.0020500000100582838 0.018579000607132912 -0.027652999386191368
  endloop
 endfacet
 facet normal 0.9138329463160898 0.052283460401057316 -0.40271054865218736
  outer loop
   vertex -0.001854000031016767 0.025798000395298004 -0.026271000504493713
   vertex -5.8000001445179805e-05 0.018861999735236168 -0.023096000775694847
   vertex -0.0020500000100582838 0.018579000607132912 -0.027652999386191368
  endloop
 endfacet
 facet normal 0.29322750182878216 0.074237481708183381 -0.95315603574696983
  outer loop
   vertex 0.0025090000126510859 0.020445000380277634 -0.022182999178767204
   vertex -5.8000001445179805e-05 0.018861999735236168 -0.023096000775694847
   vertex -0.0031079999171197414 0.023564999923110008 -0.023668000474572182
  endloop
 endfacet
 facet normal 0.096452236747393783 0.34428825382515105 -0.9338964419594139
  outer loop
   vertex -0.0044820001348853111 0.017762999981641769 -0.02820499986410141
   vertex -0.0068399999290704727 0.023119000717997551 -0.026474000886082649
   vertex -0.0020500000100582838 0.018579000607132912 -0.027652999386191368
  endloop
 endfacet
 facet normal 0.27269284756931877 -0.17243656129106036 -0.94652218316035819
  outer loop
   vertex -0.0020500000100582838 0.018579000607132912 -0.027652999386191368
   vertex -0.0013170000165700912 0.017054000869393349 -0.027163999155163765
   vertex -0.0044820001348853111 0.017762999981641769 -0.02820499986410141
  endloop
 endfacet
 facet normal 0.73392849289223405 0.13961996317475081 -0.66472192171163968
  outer loop
   vertex 0.0015800000401213765 0.017131999135017395 -0.023948999121785164
   vertex -0.0013170000165700912 0.017054000869393349 -0.027163999155163765
   vertex -0.0020500000100582838 0.018579000607132912 -0.027652999386191368
  endloop
 endfacet
 facet normal -0.1353851341692765 0.95008326307754054 -0.28109190430515812
  outer loop
   vertex 0.0062040002085268497 0.022688999772071838 -0.016378000378608704
   vertex 0.0025090000126510859 0.020445000380277634 -0.022182999178767204
   vertex 0.0021989999804645777 0.02148899994790554 -0.018504999577999115
  endloop
 endfacet
 facet normal 0.2109126426247144 0.20875640348809651 -0.95495372724743821
  outer loop
   vertex 0.0040049999952316284 0.019820999354124069 -0.021988999098539352
   vertex -5.8000001445179805e-05 0.018861999735236168 -0.023096000775694847
   vertex 0.0025090000126510859 0.020445000380277634 -0.022182999178767204
  endloop
 endfacet
 facet normal 0.36058985237309282 0.33765325352091685 -0.86946261492504129
  outer loop
   vertex 0.0032269998919218779 0.029602000489830971 -0.014928000047802925
   vertex 0.0062040002085268497 0.022688999772071838 -0.016378000378608704
   vertex 0.0021989999804645777 0.02148899994790554 -0.018504999577999115
  endloop
 endfacet
 facet normal 0.084206692654252624 0.53623099150918851 -0.83986043879760464
  outer loop
   vertex 0.0040049999952316284 0.019820999354124069 -0.021988999098539352
   vertex 0.0016469999682158232 0.015845000743865967 -0.024763999506831169
   vertex 0.0015800000401213765 0.017131999135017395 -0.023948999121785164
  endloop
 endfacet
 facet normal 0.67734126294612074 0.68728963540292065 -0.26237715330850442
  outer loop
   vertex 0.01029600016772747 0.024841999635100365 0.012436999939382076
   vertex 0.0029939999803900719 0.031442001461982727 0.010874999687075615
   vertex 0.0062480000779032707 0.028865000233054161 0.012524999678134918
  endloop
 endfacet
 facet normal 0.59768393835326361 0.79877164409763723 0.068831463881642962
  outer loop
   vertex 0.0062480000779032707 0.028865000233054161 0.012524999678134918
   vertex 0.0029939999803900719 0.031442001461982727 0.010874999687075615
   vertex 0.0042610000818967819 0.030279999598860741 0.013357999734580517
  endloop
 endfacet
 facet normal 0.47426495596718216 0.82796837835177917 -0.29923421594291622
  outer loop
   vertex 0.01029600016772747 0.024841999635100365 0.012436999939382076
   vertex 0.012423000298440456 0.023079000413417816 0.010929999873042107
   vertex 0.0025979999918490648 0.026495000347495079 0.0048099998384714127
  endloop
 endfacet
 facet normal 0.38005432318962917 0.91989798117965005 -0.096676862001603386
  outer loop
   vertex 0.012423000298440456 0.023079000413417816 0.010929999873042107
   vertex 0.015515999868512154 0.021390000358223915 0.0070179998874664307
   vertex 0.0025979999918490648 0.026495000347495079 0.0048099998384714127
  endloop
 endfacet
 facet normal 0.28797375483050852 0.93458050081203869 -0.2088789219398097
  outer loop
   vertex 0.0025979999918490648 0.026495000347495079 0.0048099998384714127
   vertex 0.016393000259995461 0.02113799937069416 -0.00014000000373926014
   vertex 0.0041319997981190681 0.024916000664234161 -0.00014000000373926014
  endloop
 endfacet
 facet normal 0.35058927335039741 0.91822463937844767 -0.18425708412422015
  outer loop
   vertex 0.0025979999918490648 0.026495000347495079 0.0048099998384714127
   vertex 0.0041319997981190681 0.024916000664234161 -0.00014000000373926014
   vertex 0.0015820000553503633 0.026365000754594803 0.0022289999760687351
  endloop
 endfacet
 facet normal 0.59895928977653967 0.4030691584500683 0.69194148791406984
  outer loop
   vertex 0.0062040002085268497 0.022688999772071838 0.016098000109195709
   vertex 0.0042610000818967819 0.030279999598860741 0.013357999734580517
   vertex 0.0032269998919218779 0.029602000489830971 0.014647999778389931
  endloop
 endfacet
 facet normal -0.5234563066355068 0.34936006021322868 -0.77713643806690957
  outer loop
   vertex 0.0041319997981190681 0.024916000664234161 -0.00014000000373926014
   vertex -0.0051429998129606247 0.011018999852240086 -0.00014000000373926014
   vertex 0.0015820000553503633 0.026365000754594803 0.0022289999760687351
  endloop
 endfacet
 facet normal -0.5234563105193355 0.34936006280533544 0.7771364342856002
  outer loop
   vertex -0.0051429998129606247 0.011018999852240086 -0.00014000000373926014
   vertex 0.0041319997981190681 0.024916000664234161 -0.00014000000373926014
   vertex 0.0015820000553503633 0.026365000754594803 -0.0025090000126510859
  endloop
 endfacet
 facet normal 0.58834854565617256 0.41832397763506746 -0.69199063473420086
  outer loop
   vertex 0.0062480000779032707 0.028865000233054161 -0.012804999947547913
   vertex 0.0032269998919218779 0.029602000489830971 -0.014928000047802925
   vertex 0.0042610000818967819 0.030279999598860741 -0.013639000244438648
  endloop
 endfacet
 facet normal 0.59770287988992521 0.79875882054717628 -0.068815797382385566
  outer loop
   vertex 0.0029939999803900719 0.031442001461982727 -0.011156000196933746
   vertex 0.0062480000779032707 0.028865000233054161 -0.012804999947547913
   vertex 0.0042610000818967819 0.030279999598860741 -0.013639000244438648
  endloop
 endfacet
 facet normal 0.68019352486167117 0.54569896682738861 0.48943784726947276
  outer loop
   vertex 0.0025979999918490648 0.026495000347495079 -0.005090000107884407
   vertex 0.0062480000779032707 0.028865000233054161 -0.012804999947547913
   vertex 0.0029939999803900719 0.031442001461982727 -0.011156000196933746
  endloop
 endfacet
 facet normal 0.47426495596718216 0.82796837835177917 0.29923421594291622
  outer loop
   vertex 0.012423000298440456 0.023079000413417816 -0.011210000142455101
   vertex 0.01029600016772747 0.024841999635100365 -0.012717000208795071
   vertex 0.0025979999918490648 0.026495000347495079 -0.005090000107884407
  endloop
 endfacet
 facet normal 0.38005432318962917 0.91989798117965005 0.096676862001603386
  outer loop
   vertex 0.015515999868512154 0.021390000358223915 -0.007298000156879425
   vertex 0.012423000298440456 0.023079000413417816 -0.011210000142455101
   vertex 0.0025979999918490648 0.026495000347495079 -0.005090000107884407
  endloop
 endfacet
 facet normal 0.29446843093322939 0.95565810786086602 -0.002433939915259609
  outer loop
   vertex 0.015515999868512154 0.021390000358223915 -0.007298000156879425
   vertex 0.0041319997981190681 0.024916000664234161 -0.00014000000373926014
   vertex 0.016393000259995461 0.02113799937069416 -0.00014000000373926014
  endloop
 endfacet
 facet normal 0.35058928274234802 0.91822463839596002 0.18425707115010315
  outer loop
   vertex 0.0041319997981190681 0.024916000664234161 -0.00014000000373926014
   vertex 0.0025979999918490648 0.026495000347495079 -0.005090000107884407
   vertex 0.0015820000553503633 0.026365000754594803 -0.0025090000126510859
  endloop
 endfacet
 facet normal 0.9849286655688172 -0.11966153306563589 0.12488651346406682
  outer loop
   vertex 0.015515999868512154 0.021390000358223915 0.0070179998874664307
   vertex 0.014739000238478184 0.0075240000151097775 -0.00014000000373926014
   vertex 0.016393000259995461 0.02113799937069416 -0.00014000000373926014
  endloop
 endfacet
 facet normal 0.99266973767918776 -0.12060201595407291 0.0078705554915815806
  outer loop
   vertex 0.014737999998033047 0.0073750000447034836 -0.002297000028192997
   vertex 0.016393000259995461 0.02113799937069416 -0.00014000000373926014
   vertex 0.014739000238478184 0.0075240000151097775 -0.00014000000373926014
  endloop
 endfacet
 facet normal 0.45700365151312494 0.44297171671124919 0.77131298491439837
  outer loop
   vertex 0.01029600016772747 0.024841999635100365 0.012436999939382076
   vertex 0.0062480000779032707 0.028865000233054161 0.012524999678134918
   vertex 0.0062040002085268497 0.022688999772071838 0.016098000109195709
  endloop
 endfacet
 facet normal 0.72088351114876703 0.44839616248843267 0.52845798775254826
  outer loop
   vertex -0.0020500000100582838 0.018579000607132912 0.027406999841332436
   vertex 0.0015800000401213765 0.017131999135017395 0.023683000355958939
   vertex -0.00011600000289035961 0.020059000700712204 0.023513000458478928
  endloop
 endfacet
 facet normal 0.45700365151312494 0.44297171671124919 -0.77131298491439837
  outer loop
   vertex 0.0062480000779032707 0.028865000233054161 -0.012804999947547913
   vertex 0.01029600016772747 0.024841999635100365 -0.012717000208795071
   vertex 0.0062040002085268497 0.022688999772071838 -0.016378000378608704
  endloop
 endfacet
 facet normal 0.6086376223870027 0.72979822444440468 -0.31137565128457106
  outer loop
   vertex 0.0015800000401213765 0.017131999135017395 -0.023948999121785164
   vertex -0.0020500000100582838 0.018579000607132912 -0.027652999386191368
   vertex -5.8000001445179805e-05 0.018861999735236168 -0.023096000775694847
  endloop
 endfacet
endsolid
