solid Visualization Toolkit generated SLA File
 facet normal -1 0 0
  outer loop
   vertex -0.5 -0.05000000074505806 1.1000000238418579
   vertex -0.5 0 -0.20000000298023224
   vertex -0.5 -0.05000000074505806 -0.20000000298023224
  endloop
 endfacet
 facet normal 1 0 -0
  outer loop
   vertex 2.2000000476837158 -0.05000000074505806 1.1000000238418579
   vertex 2.2000000476837158 0 -0.20000000298023224
   vertex 2.2000000476837158 0 1.1000000238418579
  endloop
 endfacet
 facet normal 0 -1 0
  outer loop
   vertex -0.5 -0.05000000074505806 1.1000000238418579
   vertex 2.2000000476837158 -0.05000000074505806 -0.20000000298023224
   vertex 2.2000000476837158 -0.05000000074505806 1.1000000238418579
  endloop
 endfacet
 facet normal 0 1 0
  outer loop
   vertex -0.5 0 1.1000000238418579
   vertex 2.2000000476837158 0 -0.20000000298023224
   vertex -0.5 0 -0.20000000298023224
  endloop
 endfacet
 facet normal 0 0 1
  outer loop
   vertex -0.5 -0.05000000074505806 1.1000000238418579
   vertex 2.2000000476837158 0 1.1000000238418579
   vertex -0.5 0 1.1000000238418579
  endloop
 endfacet
 facet normal 0 -0 -1
  outer loop
   vertex -0.5 -0.05000000074505806 -0.20000000298023224
   vertex 2.2000000476837158 0 -0.20000000298023224
   vertex 2.2000000476837158 -0.05000000074505806 -0.20000000298023224
  endloop
 endfacet
endsolid
