solid Visualization Toolkit generated SLA File
 facet normal 0.31090663904685462 0.77246153441889276 0.55375106287915921
  outer loop
   vertex 0.029128000140190125 -0.0023139999248087406 -0.038100998848676682
   vertex 0.033000998198986053 -0.0027280000504106283 -0.039698000997304916
   vertex 0.02777400054037571 -0.001601999974809587 -0.03833400085568428
  endloop
 endfacet
 facet normal 0.4840866823327139 0.83558690236491961 -0.259720258324807
  outer loop
   vertex 0.02777400054037571 -0.001601999974809587 -0.03833400085568428
   vertex 0.028115000575780869 -0.0014850000152364373 -0.037321999669075012
   vertex 0.029128000140190125 -0.0023139999248087406 -0.038100998848676682
  endloop
 endfacet
 facet normal 0.3395903071472639 0.68321356217740914 0.64645003809148494
  outer loop
   vertex 0.03112499974668026 -0.0040029999800026417 -0.037365000694990158
   vertex 0.033000998198986053 -0.0027280000504106283 -0.039698000997304916
   vertex 0.029128000140190125 -0.0023139999248087406 -0.038100998848676682
  endloop
 endfacet
 facet normal 0.74599014774964401 0.45191242280780719 0.48915627520501265
  outer loop
   vertex 0.029128000140190125 -0.0023139999248087406 -0.038100998848676682
   vertex 0.028115000575780869 -0.0014850000152364373 -0.037321999669075012
   vertex 0.029301999136805534 -0.0038459999486804008 -0.036951001733541489
  endloop
 endfacet
 facet normal 0.22585958187007654 0.60109791413854996 0.76659555627185738
  outer loop
   vertex 0.029301999136805534 -0.0038459999486804008 -0.036951001733541489
   vertex 0.03112499974668026 -0.0040029999800026417 -0.037365000694990158
   vertex 0.029128000140190125 -0.0023139999248087406 -0.038100998848676682
  endloop
 endfacet
 facet normal 0.13698965706518318 0.95492590060510107 -0.26334456176405102
  outer loop
   vertex 0.033000998198986053 -0.0027280000504106283 -0.039698000997304916
   vertex 0.030403999611735344 -0.0024550000671297312 -0.040059000253677368
   vertex 0.02777400054037571 -0.001601999974809587 -0.03833400085568428
  endloop
 endfacet
 facet normal -0.58695355616991707 0.8090714435736297 -0.029814796547538248
  outer loop
   vertex 0.033000998198986053 -0.0027280000504106283 -0.039698000997304916
   vertex 0.03112499974668026 -0.0040029999800026417 -0.037365000694990158
   vertex 0.031567998230457306 -0.0036869999021291733 -0.037510998547077179
  endloop
 endfacet
 facet normal -0.38096008875148629 0.92458657204029271 -0.0030135661997651056
  outer loop
   vertex 0.032761998474597931 -0.0028210000600665808 -0.03801799938082695
   vertex 0.03325200080871582 -0.0026209999341517687 -0.038600001484155655
   vertex 0.033000998198986053 -0.0027280000504106283 -0.039698000997304916
  endloop
 endfacet
 facet normal -0.63027194313825996 0.77496479552152853 -0.0467636974051183
  outer loop
   vertex 0.032407999038696289 -0.0030940000433474779 -0.03777100145816803
   vertex 0.032761998474597931 -0.0028210000600665808 -0.03801799938082695
   vertex 0.033000998198986053 -0.0027280000504106283 -0.039698000997304916
  endloop
 endfacet
 facet normal -0.20609413870647875 0.97734781811664129 -0.048129496293597009
  outer loop
   vertex 0.033000998198986053 -0.0027280000504106283 -0.039698000997304916
   vertex 0.03325200080871582 -0.0026209999341517687 -0.038600001484155655
   vertex 0.033298999071121216 -0.0026430001016706228 -0.039248000830411911
  endloop
 endfacet
 facet normal -0.58160639927758795 0.81309996716598798 -0.02454464736003191
  outer loop
   vertex 0.033000998198986053 -0.0027280000504106283 -0.039698000997304916
   vertex 0.031567998230457306 -0.0036869999021291733 -0.037510998547077179
   vertex 0.032407999038696289 -0.0030940000433474779 -0.03777100145816803
  endloop
 endfacet
 facet normal 0.1351078544490952 0.95977043027043762 -0.24614343144731934
  outer loop
   vertex 0.033000998198986053 -0.0027280000504106283 -0.039698000997304916
   vertex 0.032368998974561691 -0.0029949999880045652 -0.041085999459028244
   vertex 0.030403999611735344 -0.0024550000671297312 -0.040059000253677368
  endloop
 endfacet
 facet normal 0.15430127116165943 0.94719377409057526 -0.28109619713177952
  outer loop
   vertex 0.033000998198986053 -0.0027280000504106283 -0.039698000997304916
   vertex 0.033298999071121216 -0.0026430001016706228 -0.039248000830411911
   vertex 0.032896999269723892 -0.0032579998951405287 -0.041540998965501785
  endloop
 endfacet
 facet normal 0.22280685500982564 0.93348048265248229 -0.28101831589332266
  outer loop
   vertex 0.032896999269723892 -0.0032579998951405287 -0.041540998965501785
   vertex 0.032368998974561691 -0.0029949999880045652 -0.041085999459028244
   vertex 0.033000998198986053 -0.0027280000504106283 -0.039698000997304916
  endloop
 endfacet
 facet normal 0.026839825817593192 0.91172600855908337 -0.40992110102677481
  outer loop
   vertex 0.02777400054037571 -0.001601999974809587 -0.03833400085568428
   vertex 0.030403999611735344 -0.0024550000671297312 -0.040059000253677368
   vertex 0.027814999222755432 -0.0026489999145269394 -0.040660001337528229
  endloop
 endfacet
 facet normal -0.05287981008040888 0.91025250898247789 -0.41066299513952315
  outer loop
   vertex 0.027814999222755432 -0.0026489999145269394 -0.040660001337528229
   vertex 0.026398999616503716 -0.0018469999777153134 -0.038699999451637268
   vertex 0.02777400054037571 -0.001601999974809587 -0.03833400085568428
  endloop
 endfacet
 facet normal -0.11039204300296505 0.96638905822616028 -0.23217619383215554
  outer loop
   vertex 0.027010999619960785 -0.0013849999522790313 -0.037067998200654984
   vertex 0.02777400054037571 -0.001601999974809587 -0.03833400085568428
   vertex 0.026398999616503716 -0.0018469999777153134 -0.038699999451637268
  endloop
 endfacet
 facet normal 0.058736896732819573 0.98921772003595299 -0.13415766593478323
  outer loop
   vertex 0.027010999619960785 -0.0013849999522790313 -0.037067998200654984
   vertex 0.028115000575780869 -0.0014850000152364373 -0.037321999669075012
   vertex 0.02777400054037571 -0.001601999974809587 -0.03833400085568428
  endloop
 endfacet
 facet normal 0.81297605101467385 0.33926909997772925 0.47325090414798782
  outer loop
   vertex 0.028115000575780869 -0.0014850000152364373 -0.037321999669075012
   vertex 0.02741600014269352 -0.0015689999563619494 -0.03606100007891655
   vertex 0.027289999648928642 -0.0019450000254437327 -0.035574998706579208
  endloop
 endfacet
 facet normal 0.67474561351558338 0.61052874004256741 0.41469629203010028
  outer loop
   vertex 0.028115000575780869 -0.0014850000152364373 -0.037321999669075012
   vertex 0.027507999911904335 -0.0013099999632686377 -0.036591999232769012
   vertex 0.02741600014269352 -0.0015689999563619494 -0.03606100007891655
  endloop
 endfacet
 facet normal 0.8440740486608963 0.26232920723030306 0.4676776533159604
  outer loop
   vertex 0.027411999180912971 -0.0029740000609308481 -0.035218000411987305
   vertex 0.028115000575780869 -0.0014850000152364373 -0.037321999669075012
   vertex 0.027289999648928642 -0.0019450000254437327 -0.035574998706579208
  endloop
 endfacet
 facet normal 0.70837503301959392 0.44254223412269983 0.5498737888026477
  outer loop
   vertex 0.028115000575780869 -0.0014850000152364373 -0.037321999669075012
   vertex 0.027411999180912971 -0.0029740000609308481 -0.035218000411987305
   vertex 0.029301999136805534 -0.0038459999486804008 -0.036951001733541489
  endloop
 endfacet
 facet normal 0.042887753531980641 0.97905191549590886 -0.19904267723473723
  outer loop
   vertex 0.027507999911904335 -0.0013099999632686377 -0.036591999232769012
   vertex 0.028115000575780869 -0.0014850000152364373 -0.037321999669075012
   vertex 0.027010999619960785 -0.0013849999522790313 -0.037067998200654984
  endloop
 endfacet
 facet normal 0.58880905005101691 -0.55316558658039883 0.58933160139363161
  outer loop
   vertex 0.03112499974668026 -0.0040029999800026417 -0.037365000694990158
   vertex 0.031452000141143799 -0.0042590000666677952 -0.037932001054286957
   vertex 0.031567998230457306 -0.0036869999021291733 -0.037510998547077179
  endloop
 endfacet
 facet normal 0.17826437503812295 -0.35253902829396921 0.91866100718481103
  outer loop
   vertex 0.03112499974668026 -0.0040029999800026417 -0.037365000694990158
   vertex 0.029301999136805534 -0.0038459999486804008 -0.036951001733541489
   vertex 0.02910899929702282 -0.0044829999096691608 -0.037158001214265823
  endloop
 endfacet
 facet normal 0.24718904608508319 -0.94406087608583267 0.21828109798971804
  outer loop
   vertex 0.03112499974668026 -0.0040029999800026417 -0.037365000694990158
   vertex 0.02910899929702282 -0.0044829999096691608 -0.037158001214265823
   vertex 0.029662000015377998 -0.0050699999555945396 -0.040323000401258469
  endloop
 endfacet
 facet normal -0.078365398630956817 -0.92478091197426082 0.37234275761113628
  outer loop
   vertex 0.031452000141143799 -0.0042590000666677952 -0.037932001054286957
   vertex 0.03112499974668026 -0.0040029999800026417 -0.037365000694990158
   vertex 0.029662000015377998 -0.0050699999555945396 -0.040323000401258469
  endloop
 endfacet
 facet normal 0.54356666234791839 -0.40381206114072243 0.7358472007565332
  outer loop
   vertex 0.029301999136805534 -0.0038459999486804008 -0.036951001733541489
   vertex 0.027483999729156494 -0.004542000126093626 -0.035989999771118164
   vertex 0.02910899929702282 -0.0044829999096691608 -0.037158001214265823
  endloop
 endfacet
 facet normal 0.54275796166539192 -0.58318716617195732 0.60440592672569882
  outer loop
   vertex 0.029301999136805534 -0.0038459999486804008 -0.036951001733541489
   vertex 0.027509000152349472 -0.004155999980866909 -0.03564000129699707
   vertex 0.027483999729156494 -0.004542000126093626 -0.035989999771118164
  endloop
 endfacet
 facet normal 0.60015238944424931 -0.22481440626887939 0.7676428806276584
  outer loop
   vertex 0.027509000152349472 -0.004155999980866909 -0.03564000129699707
   vertex 0.029301999136805534 -0.0038459999486804008 -0.036951001733541489
   vertex 0.027411999180912971 -0.0029740000609308481 -0.035218000411987305
  endloop
 endfacet
 facet normal -0.19338591083899037 0.66617238731595474 -0.72028899746333475
  outer loop
   vertex 0.02931700088083744 -0.003481999970972538 -0.040716998279094696
   vertex 0.030403999611735344 -0.0024550000671297312 -0.040059000253677368
   vertex 0.032368998974561691 -0.0029949999880045652 -0.041085999459028244
  endloop
 endfacet
 facet normal 0.180760420830093 0.38777838199288439 -0.90385485379031305
  outer loop
   vertex 0.030403999611735344 -0.0024550000671297312 -0.040059000253677368
   vertex 0.02931700088083744 -0.003481999970972538 -0.040716998279094696
   vertex 0.027814999222755432 -0.0026489999145269394 -0.040660001337528229
  endloop
 endfacet
 facet normal 0.54196898689592343 -0.82877810865374379 -0.13927118818811668
  outer loop
   vertex 0.032761998474597931 -0.0028210000600665808 -0.03801799938082695
   vertex 0.032407999038696289 -0.0030940000433474779 -0.03777100145816803
   vertex 0.031567998230457306 -0.0036869999021291733 -0.037510998547077179
  endloop
 endfacet
 facet normal 0.63990237988174758 -0.70962105037986489 0.29489474237336416
  outer loop
   vertex 0.032761998474597931 -0.0028210000600665808 -0.03801799938082695
   vertex 0.031567998230457306 -0.0036869999021291733 -0.037510998547077179
   vertex 0.03325200080871582 -0.0026209999341517687 -0.038600001484155655
  endloop
 endfacet
 facet normal 0.17259429249711469 0.55715093912089109 0.81227707171514441
  outer loop
   vertex 0.031567998230457306 -0.0036869999021291733 -0.037510998547077179
   vertex 0.033045001327991486 -0.0032800000626593828 -0.038104001432657242
   vertex 0.03325200080871582 -0.0026209999341517687 -0.038600001484155655
  endloop
 endfacet
 facet normal 0.43558189451697105 -0.58920654313761212 0.68051749624299274
  outer loop
   vertex 0.033045001327991486 -0.0032800000626593828 -0.038104001432657242
   vertex 0.031567998230457306 -0.0036869999021291733 -0.037510998547077179
   vertex 0.031452000141143799 -0.0042590000666677952 -0.037932001054286957
  endloop
 endfacet
 facet normal 0.96645749194969122 -0.24456808198733637 0.078398785241533389
  outer loop
   vertex 0.033045001327991486 -0.0032800000626593828 -0.038104001432657242
   vertex 0.033298999071121216 -0.0026430001016706228 -0.039248000830411911
   vertex 0.03325200080871582 -0.0026209999341517687 -0.038600001484155655
  endloop
 endfacet
 facet normal 0.97541286823371498 0.098140292048329761 -0.19732769587857146
  outer loop
   vertex 0.033298999071121216 -0.0026430001016706228 -0.039248000830411911
   vertex 0.03286299854516983 -0.0036599999293684959 -0.041909001767635345
   vertex 0.032896999269723892 -0.0032579998951405287 -0.041540998965501785
  endloop
 endfacet
 facet normal 0.76724972484498066 -0.63088057276711451 0.11540174448568367
  outer loop
   vertex 0.03286299854516983 -0.0036599999293684959 -0.041909001767635345
   vertex 0.033298999071121216 -0.0026430001016706228 -0.039248000830411911
   vertex 0.032485999166965485 -0.0041880002245306969 -0.042289000004529953
  endloop
 endfacet
 facet normal 0.90821284117547774 -0.41737691790177539 -0.030756194933394342
  outer loop
   vertex 0.033045001327991486 -0.0032800000626593828 -0.038104001432657242
   vertex 0.032485999166965485 -0.0041880002245306969 -0.042289000004529953
   vertex 0.033298999071121216 -0.0026430001016706228 -0.039248000830411911
  endloop
 endfacet
 facet normal -0.27187322804805675 0.66220465176299759 -0.69826209051771981
  outer loop
   vertex 0.032368998974561691 -0.0029949999880045652 -0.041085999459028244
   vertex 0.032896999269723892 -0.0032579998951405287 -0.041540998965501785
   vertex 0.03286299854516983 -0.0036599999293684959 -0.041909001767635345
  endloop
 endfacet
 facet normal -0.24683830115094837 0.67597110648840253 -0.69435863664086339
  outer loop
   vertex 0.032368998974561691 -0.0029949999880045652 -0.041085999459028244
   vertex 0.03286299854516983 -0.0036599999293684959 -0.041909001767635345
   vertex 0.032485999166965485 -0.0041880002245306969 -0.042289000004529953
  endloop
 endfacet
 facet normal -0.42324010902512627 0.62240382691217488 -0.65839295740270398
  outer loop
   vertex 0.030934000387787819 -0.0043950001709163189 -0.04148700088262558
   vertex 0.032368998974561691 -0.0029949999880045652 -0.041085999459028244
   vertex 0.032485999166965485 -0.0041880002245306969 -0.042289000004529953
  endloop
 endfacet
 facet normal -0.17603430164703249 0.43356955359945315 -0.88375865870452019
  outer loop
   vertex 0.030934000387787819 -0.0043950001709163189 -0.04148700088262558
   vertex 0.02931700088083744 -0.003481999970972538 -0.040716998279094696
   vertex 0.032368998974561691 -0.0029949999880045652 -0.041085999459028244
  endloop
 endfacet
 facet normal -0.06947242726226098 -0.057120954009580296 -0.99594717654267439
  outer loop
   vertex 0.02931700088083744 -0.003481999970972538 -0.040716998279094696
   vertex 0.029051000252366066 -0.0045010000467300415 -0.040640000253915787
   vertex 0.027814999222755432 -0.0026489999145269394 -0.040660001337528229
  endloop
 endfacet
 facet normal 0.42573257062947467 0.033515865033056418 -0.90422810457113378
  outer loop
   vertex 0.027814999222755432 -0.0026489999145269394 -0.040660001337528229
   vertex 0.028694000095129013 -0.0052889999933540821 -0.040343999862670898
   vertex 0.026424000039696693 -0.0030020000413060188 -0.041328001767396927
  endloop
 endfacet
 facet normal 0.11489849704353264 0.94572820013336079 -0.30396793720662585
  outer loop
   vertex 0.027814999222755432 -0.0026489999145269394 -0.040660001337528229
   vertex 0.026109000667929649 -0.0021559998858720064 -0.039771001785993576
   vertex 0.026398999616503716 -0.0018469999777153134 -0.038699999451637268
  endloop
 endfacet
 facet normal 0.005737345161544693 0.87914280171050196 -0.47652388929738482
  outer loop
   vertex 0.026109000667929649 -0.0021559998858720064 -0.039771001785993576
   vertex 0.027814999222755432 -0.0026489999145269394 -0.040660001337528229
   vertex 0.026424000039696693 -0.0030020000413060188 -0.041328001767396927
  endloop
 endfacet
 facet normal -0.3025830565440174 -0.21197569866431418 -0.92925227848429615
  outer loop
   vertex 0.028694000095129013 -0.0052889999933540821 -0.040343999862670898
   vertex 0.027814999222755432 -0.0026489999145269394 -0.040660001337528229
   vertex 0.029051000252366066 -0.0045010000467300415 -0.040640000253915787
  endloop
 endfacet
 facet normal -0.93927553250887608 -0.1637497243045338 0.30157503514110112
  outer loop
   vertex 0.026409000158309937 -0.0032579998951405287 -0.039434999227523804
   vertex 0.026398999616503716 -0.0018469999777153134 -0.038699999451637268
   vertex 0.026109000667929649 -0.0021559998858720064 -0.039771001785993576
  endloop
 endfacet
 facet normal -0.9399126293950254 0.1302394809982928 0.31559772922666113
  outer loop
   vertex 0.026398999616503716 -0.0018469999777153134 -0.038699999451637268
   vertex 0.027411999180912971 -0.0029740000609308481 -0.035218000411987305
   vertex 0.027010999619960785 -0.0013849999522790313 -0.037067998200654984
  endloop
 endfacet
 facet normal -0.96250435516448174 -0.13065580007030356 0.23772763448407522
  outer loop
   vertex 0.027411999180912971 -0.0029740000609308481 -0.035218000411987305
   vertex 0.026398999616503716 -0.0018469999777153134 -0.038699999451637268
   vertex 0.026409000158309937 -0.0032579998951405287 -0.039434999227523804
  endloop
 endfacet
 facet normal -0.44208946986018888 0.83398563742378573 0.33018912339684786
  outer loop
   vertex 0.02741600014269352 -0.0015689999563619494 -0.03606100007891655
   vertex 0.027507999911904335 -0.0013099999632686377 -0.036591999232769012
   vertex 0.027010999619960785 -0.0013849999522790313 -0.037067998200654984
  endloop
 endfacet
 facet normal -0.98503559285104503 -0.060841719280355935 0.16125497205233977
  outer loop
   vertex 0.027289999648928642 -0.0019450000254437327 -0.035574998706579208
   vertex 0.027010999619960785 -0.0013849999522790313 -0.037067998200654984
   vertex 0.027411999180912971 -0.0029740000609308481 -0.035218000411987305
  endloop
 endfacet
 facet normal -0.61768952196794458 0.69138747146296209 0.3747572797892843
  outer loop
   vertex 0.02741600014269352 -0.0015689999563619494 -0.03606100007891655
   vertex 0.027010999619960785 -0.0013849999522790313 -0.037067998200654984
   vertex 0.027289999648928642 -0.0019450000254437327 -0.035574998706579208
  endloop
 endfacet
 facet normal -0.95223871402836435 -0.16895543306045413 0.25435308754752961
  outer loop
   vertex 0.027483999729156494 -0.004542000126093626 -0.035989999771118164
   vertex 0.027509000152349472 -0.004155999980866909 -0.03564000129699707
   vertex 0.027411999180912971 -0.0029740000609308481 -0.035218000411987305
  endloop
 endfacet
 facet normal -0.95759268793327113 -0.16146209446843382 0.23863410499465365
  outer loop
   vertex 0.027483999729156494 -0.004542000126093626 -0.035989999771118164
   vertex 0.027411999180912971 -0.0029740000609308481 -0.035218000411987305
   vertex 0.026409000158309937 -0.0032579998951405287 -0.039434999227523804
  endloop
 endfacet
 facet normal 0.35174277567663886 -0.9345573222904261 0.053662194444900765
  outer loop
   vertex 0.029662000015377998 -0.0050699999555945396 -0.040323000401258469
   vertex 0.031821001321077347 -0.0042260000482201576 -0.039776001125574112
   vertex 0.031452000141143799 -0.0042590000666677952 -0.037932001054286957
  endloop
 endfacet
 facet normal 0.528520418601787 -0.8440660987327735 0.090656428845545672
  outer loop
   vertex 0.031452000141143799 -0.0042590000666677952 -0.037932001054286957
   vertex 0.031821001321077347 -0.0042260000482201576 -0.039776001125574112
   vertex 0.033045001327991486 -0.0032800000626593828 -0.038104001432657242
  endloop
 endfacet
 facet normal 0.21114692437638719 -0.95378811710082334 0.21378775456900773
  outer loop
   vertex 0.029662000015377998 -0.0050699999555945396 -0.040323000401258469
   vertex 0.02910899929702282 -0.0044829999096691608 -0.037158001214265823
   vertex 0.028694000095129013 -0.0052889999933540821 -0.040343999862670898
  endloop
 endfacet
 facet normal 0.40024049213022955 -0.89946506530530757 0.17541420910140185
  outer loop
   vertex 0.02910899929702282 -0.0044829999096691608 -0.037158001214265823
   vertex 0.027126999571919441 -0.0058639999479055405 -0.039716999977827072
   vertex 0.028694000095129013 -0.0052889999933540821 -0.040343999862670898
  endloop
 endfacet
 facet normal 0.25061944028784899 -0.91970252864585844 0.30222037481318059
  outer loop
   vertex 0.027483999729156494 -0.004542000126093626 -0.035989999771118164
   vertex 0.027126999571919441 -0.0058639999479055405 -0.039716999977827072
   vertex 0.02910899929702282 -0.0044829999096691608 -0.037158001214265823
  endloop
 endfacet
 facet normal 0.10856792068646275 -0.39229501367563074 -0.91340989092687996
  outer loop
   vertex 0.029051000252366066 -0.0045010000467300415 -0.040640000253915787
   vertex 0.029662000015377998 -0.0050699999555945396 -0.040323000401258469
   vertex 0.028694000095129013 -0.0052889999933540821 -0.040343999862670898
  endloop
 endfacet
 facet normal -0.35089488731094187 -0.71420262978037619 -0.6056297397534538
  outer loop
   vertex 0.030456999316811562 -0.0050789997912943363 -0.040773000568151474
   vertex 0.029662000015377998 -0.0050699999555945396 -0.040323000401258469
   vertex 0.029051000252366066 -0.0045010000467300415 -0.040640000253915787
  endloop
 endfacet
 facet normal 0.23270378062979979 -0.8730274584948543 0.42856972267603488
  outer loop
   vertex 0.029662000015377998 -0.0050699999555945396 -0.040323000401258469
   vertex 0.030456999316811562 -0.0050789997912943363 -0.040773000568151474
   vertex 0.031821001321077347 -0.0042260000482201576 -0.039776001125574112
  endloop
 endfacet
 facet normal -0.94245917382760491 0.081127910463395445 0.32432848751232374
  outer loop
   vertex 0.026200000196695328 -0.0055780000984668732 -0.039462000131607056
   vertex 0.027483999729156494 -0.004542000126093626 -0.035989999771118164
   vertex 0.026409000158309937 -0.0032579998951405287 -0.039434999227523804
  endloop
 endfacet
 facet normal -0.18901492189868294 -0.9196335059519668 0.34430738306073039
  outer loop
   vertex 0.027483999729156494 -0.004542000126093626 -0.035989999771118164
   vertex 0.026200000196695328 -0.0055780000984668732 -0.039462000131607056
   vertex 0.027126999571919441 -0.0058639999479055405 -0.039716999977827072
  endloop
 endfacet
 facet normal -0.41172709827038578 0.038679137890335585 -0.9104859805850436
  outer loop
   vertex 0.029051000252366066 -0.0045010000467300415 -0.040640000253915787
   vertex 0.02931700088083744 -0.003481999970972538 -0.040716998279094696
   vertex 0.030934000387787819 -0.0043950001709163189 -0.04148700088262558
  endloop
 endfacet
 facet normal 0.49995843784699368 -0.85778900569420802 0.11932972025332167
  outer loop
   vertex 0.032485999166965485 -0.0041880002245306969 -0.042289000004529953
   vertex 0.033045001327991486 -0.0032800000626593828 -0.038104001432657242
   vertex 0.031821001321077347 -0.0042260000482201576 -0.039776001125574112
  endloop
 endfacet
 facet normal 0.13668280198675986 -0.99038812997454317 0.02119348122833711
  outer loop
   vertex 0.032485999166965485 -0.0041880002245306969 -0.042289000004529953
   vertex 0.031821001321077347 -0.0042260000482201576 -0.039776001125574112
   vertex 0.032092999666929245 -0.0042489999905228615 -0.042605001479387283
  endloop
 endfacet
 facet normal -0.38464571239197509 0.8692478531164205 0.31057341449480802
  outer loop
   vertex 0.032092999666929245 -0.0042489999905228615 -0.042605001479387283
   vertex 0.031028000637888908 -0.0049399998970329762 -0.041990000754594803
   vertex 0.032485999166965485 -0.0041880002245306969 -0.042289000004529953
  endloop
 endfacet
 facet normal -0.43625436867563078 0.56849596062340679 -0.69749155447668099
  outer loop
   vertex 0.032485999166965485 -0.0041880002245306969 -0.042289000004529953
   vertex 0.031028000637888908 -0.0049399998970329762 -0.041990000754594803
   vertex 0.030934000387787819 -0.0043950001709163189 -0.04148700088262558
  endloop
 endfacet
 facet normal -0.41056885162104345 0.007622111310979153 -0.91179774155112958
  outer loop
   vertex 0.030348999425768852 -0.0046839998103678226 -0.041225999593734741
   vertex 0.029051000252366066 -0.0045010000467300415 -0.040640000253915787
   vertex 0.030934000387787819 -0.0043950001709163189 -0.04148700088262558
  endloop
 endfacet
 facet normal -0.54827545831496338 0.51416948795686601 -0.65956330967064192
  outer loop
   vertex 0.030934000387787819 -0.0043950001709163189 -0.04148700088262558
   vertex 0.031028000637888908 -0.0049399998970329762 -0.041990000754594803
   vertex 0.030348999425768852 -0.0046839998103678226 -0.041225999593734741
  endloop
 endfacet
 facet normal -0.35919286676045137 -0.74414343030479591 -0.5632326691542493
  outer loop
   vertex 0.030456999316811562 -0.0050789997912943363 -0.040773000568151474
   vertex 0.029051000252366066 -0.0045010000467300415 -0.040640000253915787
   vertex 0.030348999425768852 -0.0046839998103678226 -0.041225999593734741
  endloop
 endfacet
 facet normal -0.014386537244833497 -0.40720252870474904 -0.91322457706883964
  outer loop
   vertex 0.028694000095129013 -0.0052889999933540821 -0.040343999862670898
   vertex 0.025958999991416931 -0.0048469998873770237 -0.040497999638319016
   vertex 0.026424000039696693 -0.0030020000413060188 -0.041328001767396927
  endloop
 endfacet
 facet normal -0.062884288868812185 -0.65229175091543135 -0.75535490857023269
  outer loop
   vertex 0.028694000095129013 -0.0052889999933540821 -0.040343999862670898
   vertex 0.027126999571919441 -0.0058639999479055405 -0.039716999977827072
   vertex 0.025958999991416931 -0.0048469998873770237 -0.040497999638319016
  endloop
 endfacet
 facet normal -0.96638902010775873 0.25567103443076916 0.026918097411707392
  outer loop
   vertex 0.026409000158309937 -0.0032579998951405287 -0.039434999227523804
   vertex 0.026424000039696693 -0.0030020000413060188 -0.041328001767396927
   vertex 0.025958999991416931 -0.0048469998873770237 -0.040497999638319016
  endloop
 endfacet
 facet normal -0.96036866805861543 -0.27510678145535322 -0.044813839476187729
  outer loop
   vertex 0.026409000158309937 -0.0032579998951405287 -0.039434999227523804
   vertex 0.026109000667929649 -0.0021559998858720064 -0.039771001785993576
   vertex 0.026424000039696693 -0.0030020000413060188 -0.041328001767396927
  endloop
 endfacet
 facet normal -0.95615373099649725 0.082867071067525888 0.28089694059239473
  outer loop
   vertex 0.025958999991416931 -0.0048469998873770237 -0.040497999638319016
   vertex 0.026200000196695328 -0.0055780000984668732 -0.039462000131607056
   vertex 0.026409000158309937 -0.0032579998951405287 -0.039434999227523804
  endloop
 endfacet
 facet normal 0.25948201369684371 -0.87997742844406257 0.39788039659777868
  outer loop
   vertex 0.030456999316811562 -0.0050789997912943363 -0.040773000568151474
   vertex 0.030797999352216721 -0.0052000000141561031 -0.041262999176979065
   vertex 0.031821001321077347 -0.0042260000482201576 -0.039776001125574112
  endloop
 endfacet
 facet normal 0.58206440055405506 -0.80335756033273764 0.1257682943506844
  outer loop
   vertex 0.031821001321077347 -0.0042260000482201576 -0.039776001125574112
   vertex 0.030797999352216721 -0.0052000000141561031 -0.041262999176979065
   vertex 0.031479001045227051 -0.0048549999482929707 -0.042210999876260757
  endloop
 endfacet
 facet normal 0.72450276380263356 -0.6851542787115773 0.075228715299169829
  outer loop
   vertex 0.032092999666929245 -0.0042489999905228615 -0.042605001479387283
   vertex 0.031821001321077347 -0.0042260000482201576 -0.039776001125574112
   vertex 0.031479001045227051 -0.0048549999482929707 -0.042210999876260757
  endloop
 endfacet
 facet normal -0.37604904985603471 -0.79605583159518389 -0.47421748711500916
  outer loop
   vertex 0.027126999571919441 -0.0058639999479055405 -0.039716999977827072
   vertex 0.026200000196695328 -0.0055780000984668732 -0.039462000131607056
   vertex 0.025958999991416931 -0.0048469998873770237 -0.040497999638319016
  endloop
 endfacet
 facet normal -0.71849300318595921 -0.59997017008072651 -0.35185735658946427
  outer loop
   vertex 0.030797999352216721 -0.0052000000141561031 -0.041262999176979065
   vertex 0.030456999316811562 -0.0050789997912943363 -0.040773000568151474
   vertex 0.030348999425768852 -0.0046839998103678226 -0.041225999593734741
  endloop
 endfacet
 facet normal -0.40750729625699911 -0.17041820115221934 -0.8971596514630783
  outer loop
   vertex 0.032092999666929245 -0.0042489999905228615 -0.042605001479387283
   vertex 0.031479001045227051 -0.0048549999482929707 -0.042210999876260757
   vertex 0.031028000637888908 -0.0049399998970329762 -0.041990000754594803
  endloop
 endfacet
 facet normal -0.69721879728237968 -0.57609814987633279 -0.42661091221999725
  outer loop
   vertex 0.030797999352216721 -0.0052000000141561031 -0.041262999176979065
   vertex 0.030348999425768852 -0.0046839998103678226 -0.041225999593734741
   vertex 0.031028000637888908 -0.0049399998970329762 -0.041990000754594803
  endloop
 endfacet
 facet normal 0.014755683672293551 -0.94296408506765383 -0.33256729254676481
  outer loop
   vertex 0.030797999352216721 -0.0052000000141561031 -0.041262999176979065
   vertex 0.031028000637888908 -0.0049399998970329762 -0.041990000754594803
   vertex 0.031479001045227051 -0.0048549999482929707 -0.042210999876260757
  endloop
 endfacet
endsolid
