solid Visualization Toolkit generated SLA File
 facet normal 0.30025521482075368 0.82294980804546325 0.48228665688662625
  outer loop
   vertex 0.062665000557899475 -0.0033889999613165855 0.01925400085747242
   vertex 0.065056003630161285 -0.0029410000424832106 0.017000999301671982
   vertex 0.056696001440286636 -0.0014209999935701489 0.01961199939250946
  endloop
 endfacet
 facet normal 0.30678995543281745 0.85410302524135318 0.41998564918232439
  outer loop
   vertex 0.058423999696969986 -0.003212000010535121 0.021991999819874763
   vertex 0.062665000557899475 -0.0033889999613165855 0.01925400085747242
   vertex 0.056696001440286636 -0.0014209999935701489 0.01961199939250946
  endloop
 endfacet
 facet normal 0.37932386652381789 0.74372319172470613 0.55044456430801159
  outer loop
   vertex 0.062665000557899475 -0.0033889999613165855 0.01925400085747242
   vertex 0.065300002694129944 -0.0046160002239048481 0.019096000120043755
   vertex 0.065056003630161285 -0.0029410000424832106 0.017000999301671982
  endloop
 endfacet
 facet normal 0.48363982855572829 0.50250612541269735 0.71664503776786481
  outer loop
   vertex 0.062563002109527588 -0.0061260000802576542 0.021242000162601471
   vertex 0.062665000557899475 -0.0033889999613165855 0.01925400085747242
   vertex 0.058423999696969986 -0.003212000010535121 0.021991999819874763
  endloop
 endfacet
 facet normal 0.2719584223142264 0.47636652457983703 0.83613010398626619
  outer loop
   vertex 0.062665000557899475 -0.0033889999613165855 0.01925400085747242
   vertex 0.06414400041103363 -0.0069679999724030495 0.020811999216675758
   vertex 0.065300002694129944 -0.0046160002239048481 0.019096000120043755
  endloop
 endfacet
 facet normal 0.46736340634162415 0.50807910229602715 0.72348259980653096
  outer loop
   vertex 0.062665000557899475 -0.0033889999613165855 0.01925400085747242
   vertex 0.062563002109527588 -0.0061260000802576542 0.021242000162601471
   vertex 0.06414400041103363 -0.0069679999724030495 0.020811999216675758
  endloop
 endfacet
 facet normal 0.18272041793733484 0.9830823989618086 0.012737571208871146
  outer loop
   vertex 0.065056003630161285 -0.0029410000424832106 0.017000999301671982
   vertex 0.063285000622272491 -0.0026070000603795052 0.016628000885248184
   vertex 0.056696001440286636 -0.0014209999935701489 0.01961199939250946
  endloop
 endfacet
 facet normal 0.20347559660261216 0.77613309611705783 0.59683758150686284
  outer loop
   vertex 0.065056003630161285 -0.0029410000424832106 0.017000999301671982
   vertex 0.065300002694129944 -0.0046160002239048481 0.019096000120043755
   vertex 0.068010002374649048 -0.0026650000363588333 0.015635000541806221
  endloop
 endfacet
 facet normal 0.092148842539323164 0.9183754141574435 0.3848313779953596
  outer loop
   vertex 0.065056003630161285 -0.0029410000424832106 0.017000999301671982
   vertex 0.068010002374649048 -0.0026650000363588333 0.015635000541806221
   vertex 0.063285000622272491 -0.0026070000603795052 0.016628000885248184
  endloop
 endfacet
 facet normal 0.30608879022998486 0.93945614576053882 -0.1540512988854604
  outer loop
   vertex 0.056924000382423401 -0.0026110000908374786 0.012807999737560749
   vertex 0.053353000432252884 -0.0016619999660179019 0.011500000022351742
   vertex 0.056696001440286636 -0.0014209999935701489 0.01961199939250946
  endloop
 endfacet
 facet normal 0.10036201210332213 0.98063945090278726 -0.16814795229098922
  outer loop
   vertex 0.056924000382423401 -0.0026110000908374786 0.012807999737560749
   vertex 0.056696001440286636 -0.0014209999935701489 0.01961199939250946
   vertex 0.063285000622272491 -0.0026070000603795052 0.016628000885248184
  endloop
 endfacet
 facet normal 0.30411201043107111 0.9402273077134663 -0.15325956721020309
  outer loop
   vertex 0.056696001440286636 -0.0014209999935701489 0.01961199939250946
   vertex 0.053353000432252884 -0.0016619999660179019 0.011500000022351742
   vertex 0.050243999809026718 -7.4000003223773092e-05 0.015073000453412533
  endloop
 endfacet
 facet normal 0.43551225024335477 0.87009711507201104 0.23078147722755657
  outer loop
   vertex 0.056696001440286636 -0.0014209999935701489 0.01961199939250946
   vertex 0.053043000400066376 -6.6000000515487045e-05 0.021397000178694725
   vertex 0.052751000970602036 -0.0011149999918416142 0.025902999565005302
  endloop
 endfacet
 facet normal 0.49090657572047663 0.82912506483375648 0.26751142177263237
  outer loop
   vertex 0.056696001440286636 -0.0014209999935701489 0.01961199939250946
   vertex 0.052751000970602036 -0.0011149999918416142 0.025902999565005302
   vertex 0.058423999696969986 -0.003212000010535121 0.021991999819874763
  endloop
 endfacet
 facet normal 0.28882752102630582 0.9486456772886237 -0.12903504198242977
  outer loop
   vertex 0.056696001440286636 -0.0014209999935701489 0.01961199939250946
   vertex 0.050243999809026718 -7.4000003223773092e-05 0.015073000453412533
   vertex 0.053043000400066376 -6.6000000515487045e-05 0.021397000178694725
  endloop
 endfacet
 facet normal 0.50498789432226321 0.42146100211717802 0.75323160467571382
  outer loop
   vertex 0.058589000254869461 -0.0051540001295506954 0.022967999801039696
   vertex 0.058423999696969986 -0.003212000010535121 0.021991999819874763
   vertex 0.056744001805782318 -0.0051970002241432667 0.024228999391198158
  endloop
 endfacet
 facet normal 0.61521624348765269 0.3235482586677586 0.71890576438223275
  outer loop
   vertex 0.054076999425888062 -0.0054850000888109207 0.026735000312328339
   vertex 0.058423999696969986 -0.003212000010535121 0.021991999819874763
   vertex 0.052751000970602036 -0.0011149999918416142 0.025902999565005302
  endloop
 endfacet
 facet normal 0.64570639665088514 0.26185308161917453 0.71728391378217282
  outer loop
   vertex 0.056744001805782318 -0.0051970002241432667 0.024228999391198158
   vertex 0.058423999696969986 -0.003212000010535121 0.021991999819874763
   vertex 0.054076999425888062 -0.0054850000888109207 0.026735000312328339
  endloop
 endfacet
 facet normal 0.4460936874132419 0.43186756986863201 0.78389465117821733
  outer loop
   vertex 0.058423999696969986 -0.003212000010535121 0.021991999819874763
   vertex 0.058589000254869461 -0.0051540001295506954 0.022967999801039696
   vertex 0.062563002109527588 -0.0061260000802576542 0.021242000162601471
  endloop
 endfacet
 facet normal 0.042131700783207021 0.85587899203927442 0.51545714737012827
  outer loop
   vertex 0.065300002694129944 -0.0046160002239048481 0.019096000120043755
   vertex 0.068001002073287964 -0.0049200002104043961 0.019379999488592148
   vertex 0.068010002374649048 -0.0026650000363588333 0.015635000541806221
  endloop
 endfacet
 facet normal -0.081097319044590985 0.19297388010997213 0.97784677042933577
  outer loop
   vertex 0.067247003316879272 -0.0063769998960196972 0.019604999572038651
   vertex 0.068001002073287964 -0.0049200002104043961 0.019379999488592148
   vertex 0.065300002694129944 -0.0046160002239048481 0.019096000120043755
  endloop
 endfacet
 facet normal 0.23075523237700196 0.49692491133672001 0.83655104758982213
  outer loop
   vertex 0.065300002694129944 -0.0046160002239048481 0.019096000120043755
   vertex 0.06414400041103363 -0.0069679999724030495 0.020811999216675758
   vertex 0.067247003316879272 -0.0063769998960196972 0.019604999572038651
  endloop
 endfacet
 facet normal -0.10261554930463382 -0.5984519563115539 0.79455981840751433
  outer loop
   vertex 0.06414400041103363 -0.0069679999724030495 0.020811999216675758
   vertex 0.062563002109527588 -0.0061260000802576542 0.021242000162601471
   vertex 0.06215900182723999 -0.007091000210493803 0.020462999120354652
  endloop
 endfacet
 facet normal 0.31993731317810509 -0.29227488432600718 0.90122999707543816
  outer loop
   vertex 0.058871999382972717 -0.0070520001463592052 0.022252000868320465
   vertex 0.062563002109527588 -0.0061260000802576542 0.021242000162601471
   vertex 0.058589000254869461 -0.0051540001295506954 0.022967999801039696
  endloop
 endfacet
 facet normal 0.34751410693765272 -0.67276031646345025 0.65316728490588372
  outer loop
   vertex 0.062563002109527588 -0.0061260000802576542 0.021242000162601471
   vertex 0.058871999382972717 -0.0070520001463592052 0.022252000868320465
   vertex 0.06215900182723999 -0.007091000210493803 0.020462999120354652
  endloop
 endfacet
 facet normal 0.054068615127170358 -0.99756498117592474 0.044053299419076687
  outer loop
   vertex 0.06215900182723999 -0.007091000210493803 0.020462999120354652
   vertex 0.063055001199245453 -0.0073629999533295631 0.0132039999589324
   vertex 0.06414400041103363 -0.0069679999724030495 0.020811999216675758
  endloop
 endfacet
 facet normal -0.382378662618862 -0.91831286797946376 0.10241110719615443
  outer loop
   vertex 0.06414400041103363 -0.0069679999724030495 0.020811999216675758
   vertex 0.063055001199245453 -0.0073629999533295631 0.0132039999589324
   vertex 0.065875999629497528 -0.0077579999342560768 0.020194999873638153
  endloop
 endfacet
 facet normal 0.13185735489712089 -0.41426060083241129 0.90055637944412137
  outer loop
   vertex 0.06414400041103363 -0.0069679999724030495 0.020811999216675758
   vertex 0.065875999629497528 -0.0077579999342560768 0.020194999873638153
   vertex 0.066325001418590546 -0.0072889998555183411 0.020345000550150871
  endloop
 endfacet
 facet normal 0.24965636996966339 0.44530678237946358 0.85986834253879796
  outer loop
   vertex 0.06414400041103363 -0.0069679999724030495 0.020811999216675758
   vertex 0.066325001418590546 -0.0072889998555183411 0.020345000550150871
   vertex 0.067247003316879272 -0.0063769998960196972 0.019604999572038651
  endloop
 endfacet
 facet normal 0.0089284997148098375 0.99983349082464712 -0.01591453795253487
  outer loop
   vertex 0.056924000382423401 -0.0026110000908374786 0.012807999737560749
   vertex 0.063285000622272491 -0.0026070000603795052 0.016628000885248184
   vertex 0.068010002374649048 -0.0026650000363588333 0.015635000541806221
  endloop
 endfacet
 facet normal 0.1578220198613518 0.78122345561789663 -0.60397195501059098
  outer loop
   vertex 0.068010002374649048 -0.0026650000363588333 0.015635000541806221
   vertex 0.064102001488208771 -0.0039659999310970306 0.01293100044131279
   vertex 0.056924000382423401 -0.0026110000908374786 0.012807999737560749
  endloop
 endfacet
 facet normal 0.06334300516996727 0.88718313544891059 -0.45704895566129189
  outer loop
   vertex 0.067684002220630646 -0.0036359999794512987 0.013705000281333923
   vertex 0.068010002374649048 -0.0026650000363588333 0.015635000541806221
   vertex 0.073076002299785614 -0.0037839999422430992 0.014165000058710575
  endloop
 endfacet
 facet normal -0.13822827640303631 0.84860735819439859 0.5106451754603869
  outer loop
   vertex 0.068010002374649048 -0.0026650000363588333 0.015635000541806221
   vertex 0.068001002073287964 -0.0049200002104043961 0.019379999488592148
   vertex 0.069743998348712921 -0.0050200000405311584 0.020018000155687332
  endloop
 endfacet
 facet normal 0.14844541938711253 0.89442977143705682 0.42185227441610218
  outer loop
   vertex 0.07339400053024292 -0.0038590000476688147 0.016271999105811119
   vertex 0.068010002374649048 -0.0026650000363588333 0.015635000541806221
   vertex 0.069743998348712921 -0.0050200000405311584 0.020018000155687332
  endloop
 endfacet
 facet normal 0.015356703030662146 0.8921644458626774 -0.45144963529785886
  outer loop
   vertex 0.064102001488208771 -0.0039659999310970306 0.01293100044131279
   vertex 0.068010002374649048 -0.0026650000363588333 0.015635000541806221
   vertex 0.067684002220630646 -0.0036359999794512987 0.013705000281333923
  endloop
 endfacet
 facet normal 0.21626937263855556 0.97633144705189867 0.0021128076276481227
  outer loop
   vertex 0.073076002299785614 -0.0037839999422430992 0.014165000058710575
   vertex 0.068010002374649048 -0.0026650000363588333 0.015635000541806221
   vertex 0.07339400053024292 -0.0038590000476688147 0.016271999105811119
  endloop
 endfacet
 facet normal 0.39644418096002892 0.29225945123984537 -0.87029674510704469
  outer loop
   vertex 0.056313000619411469 -0.0069099999964237213 0.011086000129580498
   vertex 0.053353000432252884 -0.0016619999660179019 0.011500000022351742
   vertex 0.056924000382423401 -0.0026110000908374786 0.012807999737560749
  endloop
 endfacet
 facet normal 0.090232174500456688 0.39500741803282113 -0.91423590740244032
  outer loop
   vertex 0.056924000382423401 -0.0026110000908374786 0.012807999737560749
   vertex 0.064102001488208771 -0.0039659999310970306 0.01293100044131279
   vertex 0.059606000781059265 -0.0046540000475943089 0.012190000154078007
  endloop
 endfacet
 facet normal 0.0626504612145342 0.36342100415243023 -0.9295160533581146
  outer loop
   vertex 0.056313000619411469 -0.0069099999964237213 0.011086000129580498
   vertex 0.056924000382423401 -0.0026110000908374786 0.012807999737560749
   vertex 0.059606000781059265 -0.0046540000475943089 0.012190000154078007
  endloop
 endfacet
 facet normal 0.12181604099528641 0.94201589447262013 -0.31267700062074277
  outer loop
   vertex 0.050243999809026718 -7.4000003223773092e-05 0.015073000453412533
   vertex 0.053353000432252884 -0.0016619999660179019 0.011500000022351742
   vertex 0.051970001310110092 -0.0014420000370591879 0.011624000035226345
  endloop
 endfacet
 facet normal 0.026203272488999518 0.61077056532568208 -0.79137393502857667
  outer loop
   vertex 0.051970001310110092 -0.0014420000370591879 0.011624000035226345
   vertex 0.053353000432252884 -0.0016619999660179019 0.011500000022351742
   vertex 0.052411001175642014 -0.0022499999031424522 0.011014999821782112
  endloop
 endfacet
 facet normal 0.38960958874261464 0.12809839116953906 -0.91202805359242467
  outer loop
   vertex 0.052290000021457672 -0.0057479999959468842 0.010471999645233154
   vertex 0.052411001175642014 -0.0022499999031424522 0.011014999821782112
   vertex 0.053353000432252884 -0.0016619999660179019 0.011500000022351742
  endloop
 endfacet
 facet normal 0.20137947864298608 0.18939575765009495 -0.96102838280959502
  outer loop
   vertex 0.056313000619411469 -0.0069099999964237213 0.011086000129580498
   vertex 0.052290000021457672 -0.0057479999959468842 0.010471999645233154
   vertex 0.053353000432252884 -0.0016619999660179019 0.011500000022351742
  endloop
 endfacet
 facet normal -0.82728297956594388 -0.54090840769371507 -0.15172661667203824
  outer loop
   vertex 0.052411001175642014 -0.0022499999031424522 0.011014999821782112
   vertex 0.052434001117944717 -0.004594000056385994 0.019246000796556473
   vertex 0.050243999809026718 -7.4000003223773092e-05 0.015073000453412533
  endloop
 endfacet
 facet normal -0.20967996819268347 0.97347250970586985 0.091572833229458681
  outer loop
   vertex 0.051438998430967331 -0.00065399997401982546 0.023974999785423279
   vertex 0.053043000400066376 -6.6000000515487045e-05 0.021397000178694725
   vertex 0.050243999809026718 -7.4000003223773092e-05 0.015073000453412533
  endloop
 endfacet
 facet normal -0.90465250322433988 -0.21757517963146084 -0.36642173737139694
  outer loop
   vertex 0.050243999809026718 -7.4000003223773092e-05 0.015073000453412533
   vertex 0.051970001310110092 -0.0014420000370591879 0.011624000035226345
   vertex 0.052411001175642014 -0.0022499999031424522 0.011014999821782112
  endloop
 endfacet
 facet normal -0.92882625340823721 -0.35635118179368652 0.10146736526519194
  outer loop
   vertex 0.051438998430967331 -0.00065399997401982546 0.023974999785423279
   vertex 0.050243999809026718 -7.4000003223773092e-05 0.015073000453412533
   vertex 0.052434001117944717 -0.004594000056385994 0.019246000796556473
  endloop
 endfacet
 facet normal 0.0082409073955540414 0.97380473582942906 0.22723649337523641
  outer loop
   vertex 0.051438998430967331 -0.00065399997401982546 0.023974999785423279
   vertex 0.052751000970602036 -0.0011149999918416142 0.025902999565005302
   vertex 0.053043000400066376 -6.6000000515487045e-05 0.021397000178694725
  endloop
 endfacet
 facet normal -0.63144195819384663 0.53807303606280632 0.55835334806417558
  outer loop
   vertex 0.052751000970602036 -0.0011149999918416142 0.025902999565005302
   vertex 0.051438998430967331 -0.00065399997401982546 0.023974999785423279
   vertex 0.051518999040126801 -0.0036679999902844429 0.026969999074935913
  endloop
 endfacet
 facet normal 0.26865512155944238 0.25819715838809437 0.92798634314314909
  outer loop
   vertex 0.051518999040126801 -0.0036679999902844429 0.026969999074935913
   vertex 0.054076999425888062 -0.0054850000888109207 0.026735000312328339
   vertex 0.052751000970602036 -0.0011149999918416142 0.025902999565005302
  endloop
 endfacet
 facet normal 0.55389853009144185 -0.22030020816279405 0.80290985586550734
  outer loop
   vertex 0.058871999382972717 -0.0070520001463592052 0.022252000868320465
   vertex 0.058589000254869461 -0.0051540001295506954 0.022967999801039696
   vertex 0.056744001805782318 -0.0051970002241432667 0.024228999391198158
  endloop
 endfacet
 facet normal 0.59012082845076652 -0.16522887963825494 0.79022580643893681
  outer loop
   vertex 0.058871999382972717 -0.0070520001463592052 0.022252000868320465
   vertex 0.056744001805782318 -0.0051970002241432667 0.024228999391198158
   vertex 0.056565999984741211 -0.0066410000436007977 0.024059999734163284
  endloop
 endfacet
 facet normal 0.66982567831157835 0.1408185880893611 0.72904299319241284
  outer loop
   vertex 0.055194001644849777 -0.0067599997855722904 0.025955000892281532
   vertex 0.056744001805782318 -0.0051970002241432667 0.024228999391198158
   vertex 0.054076999425888062 -0.0054850000888109207 0.026735000312328339
  endloop
 endfacet
 facet normal 0.80368131774582163 -0.16595006251222566 0.57145158697699661
  outer loop
   vertex 0.055194001644849777 -0.0067599997855722904 0.025955000892281532
   vertex 0.056565999984741211 -0.0066410000436007977 0.024059999734163284
   vertex 0.056744001805782318 -0.0051970002241432667 0.024228999391198158
  endloop
 endfacet
 facet normal 0.44946220114850449 -0.14543270464861613 0.88138133526716433
  outer loop
   vertex 0.054076999425888062 -0.0054850000888109207 0.026735000312328339
   vertex 0.053686000406742096 -0.0065540000796318054 0.026758000254631042
   vertex 0.055194001644849777 -0.0067599997855722904 0.025955000892281532
  endloop
 endfacet
 facet normal 0.084743563567350313 -0.0095589318519362192 0.99635694169095679
  outer loop
   vertex 0.053686000406742096 -0.0065540000796318054 0.026758000254631042
   vertex 0.054076999425888062 -0.0054850000888109207 0.026735000312328339
   vertex 0.051518999040126801 -0.0036679999902844429 0.026969999074935913
  endloop
 endfacet
 facet normal -0.75116215330647196 0.33347992136491439 0.56968988185365799
  outer loop
   vertex 0.068144001066684723 -0.0070219999179244041 0.020798999816179276
   vertex 0.068001002073287964 -0.0049200002104043961 0.019379999488592148
   vertex 0.067844003438949585 -0.0068879998289048672 0.020324999466538429
  endloop
 endfacet
 facet normal -0.16115234500410233 0.54464602168098586 0.82303744311346738
  outer loop
   vertex 0.069132000207901001 -0.0067750001326203346 0.020828999578952789
   vertex 0.068001002073287964 -0.0049200002104043961 0.019379999488592148
   vertex 0.068144001066684723 -0.0070219999179244041 0.020798999816179276
  endloop
 endfacet
 facet normal -0.27689802321887003 0.48096943781257029 0.83186290013904474
  outer loop
   vertex 0.069132000207901001 -0.0067750001326203346 0.020828999578952789
   vertex 0.069743998348712921 -0.0050200000405311584 0.020018000155687332
   vertex 0.068001002073287964 -0.0049200002104043961 0.019379999488592148
  endloop
 endfacet
 facet normal -0.54789604677815906 0.39722889997458388 0.73621948014830962
  outer loop
   vertex 0.067844003438949585 -0.0068879998289048672 0.020324999466538429
   vertex 0.068001002073287964 -0.0049200002104043961 0.019379999488592148
   vertex 0.067247003316879272 -0.0063769998960196972 0.019604999572038651
  endloop
 endfacet
 facet normal -0.072496083799307789 0.67159272750065846 0.73736525969290845
  outer loop
   vertex 0.067247003316879272 -0.0063769998960196972 0.019604999572038651
   vertex 0.066325001418590546 -0.0072889998555183411 0.020345000550150871
   vertex 0.067148000001907349 -0.0070190001279115677 0.020179999992251396
  endloop
 endfacet
 facet normal -0.27021358559606373 0.66513774308929219 0.69611522097810896
  outer loop
   vertex 0.067148000001907349 -0.0070190001279115677 0.020179999992251396
   vertex 0.067844003438949585 -0.0068879998289048672 0.020324999466538429
   vertex 0.067247003316879272 -0.0063769998960196972 0.019604999572038651
  endloop
 endfacet
 facet normal 0.14861306412046096 -0.94429383114844745 0.29363807251055707
  outer loop
   vertex 0.058871999382972717 -0.0070520001463592052 0.022252000868320465
   vertex 0.056892000138759613 -0.0078030000440776348 0.02083900012075901
   vertex 0.06215900182723999 -0.007091000210493803 0.020462999120354652
  endloop
 endfacet
 facet normal 0.13755448903912504 -0.98901903881373199 0.054037981172013035
  outer loop
   vertex 0.06215900182723999 -0.007091000210493803 0.020462999120354652
   vertex 0.056892000138759613 -0.0078030000440776348 0.02083900012075901
   vertex 0.063055001199245453 -0.0073629999533295631 0.0132039999589324
  endloop
 endfacet
 facet normal 0.10589702167769614 -0.9319014722032003 0.34690844167489099
  outer loop
   vertex 0.056892000138759613 -0.0078030000440776348 0.02083900012075901
   vertex 0.058871999382972717 -0.0070520001463592052 0.022252000868320465
   vertex 0.056565999984741211 -0.0066410000436007977 0.024059999734163284
  endloop
 endfacet
 facet normal -0.2875156085686591 -0.35433746323862159 -0.88982005876188919
  outer loop
   vertex 0.063055001199245453 -0.0073629999533295631 0.0132039999589324
   vertex 0.063337996602058411 -0.005437999963760376 0.012346000410616398
   vertex 0.064970999956130981 -0.0071999998763203621 0.012520000338554382
  endloop
 endfacet
 facet normal 0.09812540418940853 -0.99493372454900508 0.021869814990298522
  outer loop
   vertex 0.063055001199245453 -0.0073629999533295631 0.0132039999589324
   vertex 0.056892000138759613 -0.0078030000440776348 0.02083900012075901
   vertex 0.059868000447750092 -0.0076799998059868813 0.013082000426948071
  endloop
 endfacet
 facet normal 0.09723719746289719 -0.98783267377417538 -0.1213735393474426
  outer loop
   vertex 0.070040002465248108 -0.0075289998203516006 0.020151000469923019
   vertex 0.068199001252651215 -0.0076939999125897884 0.020019000396132469
   vertex 0.063055001199245453 -0.0073629999533295631 0.0132039999589324
  endloop
 endfacet
 facet normal -0.045178211880541976 -0.99874625940138839 0.021560113705904441
  outer loop
   vertex 0.072172999382019043 -0.0076759997755289078 0.017811000347137451
   vertex 0.070040002465248108 -0.0075289998203516006 0.020151000469923019
   vertex 0.063055001199245453 -0.0073629999533295631 0.0132039999589324
  endloop
 endfacet
 facet normal 0.022525357073785966 -0.99760124328194866 -0.065455081475839741
  outer loop
   vertex 0.068199001252651215 -0.0076939999125897884 0.020019000396132469
   vertex 0.065875999629497528 -0.0077579999342560768 0.020194999873638153
   vertex 0.063055001199245453 -0.0073629999533295631 0.0132039999589324
  endloop
 endfacet
 facet normal 0.035279769667056281 -0.98993146938091714 -0.13708035519934159
  outer loop
   vertex 0.072172999382019043 -0.0076759997755289078 0.017811000347137451
   vertex 0.063055001199245453 -0.0073629999533295631 0.0132039999589324
   vertex 0.064970999956130981 -0.0071999998763203621 0.012520000338554382
  endloop
 endfacet
 facet normal 0.076003947856285517 -0.41522933843539572 -0.9065362631537488
  outer loop
   vertex 0.063055001199245453 -0.0073629999533295631 0.0132039999589324
   vertex 0.059868000447750092 -0.0076799998059868813 0.013082000426948071
   vertex 0.063337996602058411 -0.005437999963760376 0.012346000410616398
  endloop
 endfacet
 facet normal -0.054678549566887426 -0.25630509659817857 0.96504816132411742
  outer loop
   vertex 0.066325001418590546 -0.0072889998555183411 0.020345000550150871
   vertex 0.065875999629497528 -0.0077579999342560768 0.020194999873638153
   vertex 0.067359998822212219 -0.007683000061661005 0.020299000665545464
  endloop
 endfacet
 facet normal 0.038981346244191743 -0.98705360739441572 0.15558158880362732
  outer loop
   vertex 0.065875999629497528 -0.0077579999342560768 0.020194999873638153
   vertex 0.068199001252651215 -0.0076939999125897884 0.020019000396132469
   vertex 0.067359998822212219 -0.007683000061661005 0.020299000665545464
  endloop
 endfacet
 facet normal 0.12428605614800824 0.2133504238131067 0.96903796257212849
  outer loop
   vertex 0.067148000001907349 -0.0070190001279115677 0.020179999992251396
   vertex 0.066325001418590546 -0.0072889998555183411 0.020345000550150871
   vertex 0.067359998822212219 -0.007683000061661005 0.020299000665545464
  endloop
 endfacet
 facet normal 0.1063900470679441 0.31904889811023129 -0.94174782107500943
  outer loop
   vertex 0.063337996602058411 -0.005437999963760376 0.012346000410616398
   vertex 0.059606000781059265 -0.0046540000475943089 0.012190000154078007
   vertex 0.064102001488208771 -0.0039659999310970306 0.01293100044131279
  endloop
 endfacet
 facet normal 0.19258362035326304 0.17446982302278308 -0.96564580982160786
  outer loop
   vertex 0.064970999956130981 -0.0071999998763203621 0.012520000338554382
   vertex 0.064102001488208771 -0.0039659999310970306 0.01293100044131279
   vertex 0.067684002220630646 -0.0036359999794512987 0.013705000281333923
  endloop
 endfacet
 facet normal 0.31782930553817812 0.20310341207937443 -0.92613904816870518
  outer loop
   vertex 0.064102001488208771 -0.0039659999310970306 0.01293100044131279
   vertex 0.064970999956130981 -0.0071999998763203621 0.012520000338554382
   vertex 0.063337996602058411 -0.005437999963760376 0.012346000410616398
  endloop
 endfacet
 facet normal 0.07652914049284161 0.75151370155063779 -0.65526364696745221
  outer loop
   vertex 0.070032000541687012 -0.0057479999959468842 0.011556999757885933
   vertex 0.067684002220630646 -0.0036359999794512987 0.013705000281333923
   vertex 0.073076002299785614 -0.0037839999422430992 0.014165000058710575
  endloop
 endfacet
 facet normal -0.29777314126550053 0.49755907726686965 -0.81471843048394188
  outer loop
   vertex 0.064970999956130981 -0.0071999998763203621 0.012520000338554382
   vertex 0.067684002220630646 -0.0036359999794512987 0.013705000281333923
   vertex 0.070032000541687012 -0.0057479999959468842 0.011556999757885933
  endloop
 endfacet
 facet normal 0.29355024204478725 0.56701412960933928 -0.76962538433890681
  outer loop
   vertex 0.074492998421192169 -0.0053699999116361141 0.013536999933421612
   vertex 0.070032000541687012 -0.0057479999959468842 0.011556999757885933
   vertex 0.073076002299785614 -0.0037839999422430992 0.014165000058710575
  endloop
 endfacet
 facet normal 0.70955864726096118 0.69018508230881903 -0.14202492124822175
  outer loop
   vertex 0.075158998370170593 -0.0055100000463426113 0.016184000298380852
   vertex 0.074492998421192169 -0.0053699999116361141 0.013536999933421612
   vertex 0.073076002299785614 -0.0037839999422430992 0.014165000058710575
  endloop
 endfacet
 facet normal 0.67909002756941539 0.73005738537575293 -0.076504565315345135
  outer loop
   vertex 0.07339400053024292 -0.0038590000476688147 0.016271999105811119
   vertex 0.075158998370170593 -0.0055100000463426113 0.016184000298380852
   vertex 0.073076002299785614 -0.0037839999422430992 0.014165000058710575
  endloop
 endfacet
 facet normal 0.36940015418471234 0.28056710802765883 0.8859038457876266
  outer loop
   vertex 0.072172001004219055 -0.0069789998233318329 0.01962600089609623
   vertex 0.069743998348712921 -0.0050200000405311584 0.020018000155687332
   vertex 0.069132000207901001 -0.0067750001326203346 0.020828999578952789
  endloop
 endfacet
 facet normal 0.41761456969806715 0.66942275834312992 0.61438688282561327
  outer loop
   vertex 0.069743998348712921 -0.0050200000405311584 0.020018000155687332
   vertex 0.074923001229763031 -0.005681999959051609 0.017218999564647675
   vertex 0.07339400053024292 -0.0038590000476688147 0.016271999105811119
  endloop
 endfacet
 facet normal 0.47119350903662177 0.42988781832479511 0.77017734366683566
  outer loop
   vertex 0.069743998348712921 -0.0050200000405311584 0.020018000155687332
   vertex 0.072172001004219055 -0.0069789998233318329 0.01962600089609623
   vertex 0.074923001229763031 -0.005681999959051609 0.017218999564647675
  endloop
 endfacet
 facet normal 0.66530902057558561 0.69698770858994319 0.26752951466201891
  outer loop
   vertex 0.075158998370170593 -0.0055100000463426113 0.016184000298380852
   vertex 0.07339400053024292 -0.0038590000476688147 0.016271999105811119
   vertex 0.074923001229763031 -0.005681999959051609 0.017218999564647675
  endloop
 endfacet
 facet normal 0.027764931081286401 -0.39017251623586602 -0.92032304989944924
  outer loop
   vertex 0.052290000021457672 -0.0057479999959468842 0.010471999645233154
   vertex 0.056313000619411469 -0.0069099999964237213 0.011086000129580498
   vertex 0.051853999495506287 -0.0071990001015365124 0.011074000038206577
  endloop
 endfacet
 facet normal 0.32759251493985292 -0.015881765025179028 -0.94468561632697001
  outer loop
   vertex 0.059606000781059265 -0.0046540000475943089 0.012190000154078007
   vertex 0.059935998171567917 -0.0068290000781416893 0.012341000139713287
   vertex 0.056313000619411469 -0.0069099999964237213 0.011086000129580498
  endloop
 endfacet
 facet normal 0.36614935421839639 -0.43792139819891551 -0.82107216455373644
  outer loop
   vertex 0.056313000619411469 -0.0069099999964237213 0.011086000129580498
   vertex 0.059868000447750092 -0.0076799998059868813 0.013082000426948071
   vertex 0.054239999502897263 -0.008662000298500061 0.011095999740064144
  endloop
 endfacet
 facet normal 0.26284928005096109 -0.64545260689911987 -0.71714795420737387
  outer loop
   vertex 0.059868000447750092 -0.0076799998059868813 0.013082000426948071
   vertex 0.056313000619411469 -0.0069099999964237213 0.011086000129580498
   vertex 0.059935998171567917 -0.0068290000781416893 0.012341000139713287
  endloop
 endfacet
 facet normal 0.0033152041231942924 -0.0096298577663276961 -0.99994813628558854
  outer loop
   vertex 0.056313000619411469 -0.0069099999964237213 0.011086000129580498
   vertex 0.054239999502897263 -0.008662000298500061 0.011095999740064144
   vertex 0.051853999495506287 -0.0071990001015365124 0.011074000038206577
  endloop
 endfacet
 facet normal 0.028041732614888095 -0.064996546112998932 -0.99749140859725505
  outer loop
   vertex 0.063337996602058411 -0.005437999963760376 0.012346000410616398
   vertex 0.059935998171567917 -0.0068290000781416893 0.012341000139713287
   vertex 0.059606000781059265 -0.0046540000475943089 0.012190000154078007
  endloop
 endfacet
 facet normal -0.96131879613713433 0.074419968064405581 -0.26519396777970544
  outer loop
   vertex 0.051844999194145203 -0.0065680001862347126 0.011854999698698521
   vertex 0.052411001175642014 -0.0022499999031424522 0.011014999821782112
   vertex 0.052290000021457672 -0.0057479999959468842 0.010471999645233154
  endloop
 endfacet
 facet normal -0.95766748428392101 0.1706345518377228 0.23185521185525584
  outer loop
   vertex 0.052041001617908478 -0.0066269999369978905 0.012707999907433987
   vertex 0.052411001175642014 -0.0022499999031424522 0.011014999821782112
   vertex 0.051844999194145203 -0.0065680001862347126 0.011854999698698521
  endloop
 endfacet
 facet normal -0.97877220468388271 0.14046575744280132 0.14924591225313918
  outer loop
   vertex 0.052411001175642014 -0.0022499999031424522 0.011014999821782112
   vertex 0.052041001617908478 -0.0066269999369978905 0.012707999907433987
   vertex 0.052395999431610107 -0.0064929998479783535 0.014910000376403332
  endloop
 endfacet
 facet normal -0.99995264463471223 0.0082597489177369098 0.0051463614195628535
  outer loop
   vertex 0.052411001175642014 -0.0022499999031424522 0.011014999821782112
   vertex 0.052395999431610107 -0.0064929998479783535 0.014910000376403332
   vertex 0.052434001117944717 -0.004594000056385994 0.019246000796556473
  endloop
 endfacet
 facet normal -0.95521339007622108 0.24918254435472217 -0.15961027225088062
  outer loop
   vertex 0.052290000021457672 -0.0057479999959468842 0.010471999645233154
   vertex 0.051690001040697098 -0.0072479997761547565 0.011721000075340271
   vertex 0.051844999194145203 -0.0065680001862347126 0.011854999698698521
  endloop
 endfacet
 facet normal -0.95458895080828376 0.19249813052575115 -0.22738602582135731
  outer loop
   vertex 0.051690001040697098 -0.0072479997761547565 0.011721000075340271
   vertex 0.052290000021457672 -0.0057479999959468842 0.010471999645233154
   vertex 0.051853999495506287 -0.0071990001015365124 0.011074000038206577
  endloop
 endfacet
 facet normal -0.97369617492807026 0.025820452227587144 -0.2263825593485681
  outer loop
   vertex 0.051438998430967331 -0.00065399997401982546 0.023974999785423279
   vertex 0.052434001117944717 -0.004594000056385994 0.019246000796556473
   vertex 0.052354000508785248 -0.0068129999563097954 0.019337000325322151
  endloop
 endfacet
 facet normal -0.99907920559445484 0.041824855498208094 -0.0095615067487889362
  outer loop
   vertex 0.052395999431610107 -0.0064929998479783535 0.014910000376403332
   vertex 0.052377998828887939 -0.006490000057965517 0.016804000362753868
   vertex 0.052434001117944717 -0.004594000056385994 0.019246000796556473
  endloop
 endfacet
 facet normal -0.98317827569591243 0.15450390863005836 -0.0974116030955606
  outer loop
   vertex 0.05226299911737442 -0.0064400001429021358 0.018044000491499901
   vertex 0.052434001117944717 -0.004594000056385994 0.019246000796556473
   vertex 0.052377998828887939 -0.006490000057965517 0.016804000362753868
  endloop
 endfacet
 facet normal -0.99590756235545463 0.039243691267931986 0.081412897865653935
  outer loop
   vertex 0.052434001117944717 -0.004594000056385994 0.019246000796556473
   vertex 0.05226299911737442 -0.0064400001429021358 0.018044000491499901
   vertex 0.052354000508785248 -0.0068129999563097954 0.019337000325322151
  endloop
 endfacet
 facet normal -0.94299756874467566 0.036839321524964642 -0.33075436464423413
  outer loop
   vertex 0.051224999129772186 -0.0069039999507367611 0.023888999596238136
   vertex 0.051438998430967331 -0.00065399997401982546 0.023974999785423279
   vertex 0.051913000643253326 -0.0078330002725124359 0.021824000403285027
  endloop
 endfacet
 facet normal -0.9993321747975995 0.034387075896057981 -0.012358536548417847
  outer loop
   vertex 0.051215998828411102 -0.0063579999841749668 0.026135999709367752
   vertex 0.051438998430967331 -0.00065399997401982546 0.023974999785423279
   vertex 0.051224999129772186 -0.0069039999507367611 0.023888999596238136
  endloop
 endfacet
 facet normal -0.99125419011572935 0.078845248232627507 0.10582323662194817
  outer loop
   vertex 0.051215998828411102 -0.0063579999841749668 0.026135999709367752
   vertex 0.051518999040126801 -0.0036679999902844429 0.026969999074935913
   vertex 0.051438998430967331 -0.00065399997401982546 0.023974999785423279
  endloop
 endfacet
 facet normal -0.9837700002066625 -0.011298578259725698 -0.17907799647832787
  outer loop
   vertex 0.051913000643253326 -0.0078330002725124359 0.021824000403285027
   vertex 0.051438998430967331 -0.00065399997401982546 0.023974999785423279
   vertex 0.052354000508785248 -0.0068129999563097954 0.019337000325322151
  endloop
 endfacet
 facet normal -0.85117116666596193 -0.065583943766177766 0.5207747990797752
  outer loop
   vertex 0.051215998828411102 -0.0063579999841749668 0.026135999709367752
   vertex 0.051812000572681427 -0.0062239998951554298 0.027126999571919441
   vertex 0.051518999040126801 -0.0036679999902844429 0.026969999074935913
  endloop
 endfacet
 facet normal 0.20666583501797536 0.083569313362706649 0.97483609006868877
  outer loop
   vertex 0.053686000406742096 -0.0065540000796318054 0.026758000254631042
   vertex 0.051518999040126801 -0.0036679999902844429 0.026969999074935913
   vertex 0.051812000572681427 -0.0062239998951554298 0.027126999571919441
  endloop
 endfacet
 facet normal 0.50061960088588286 -0.79688967512071585 0.33815212685248502
  outer loop
   vertex 0.056565999984741211 -0.0066410000436007977 0.024059999734163284
   vertex 0.052023999392986298 -0.0095020001754164696 0.024041999131441116
   vertex 0.056892000138759613 -0.0078030000440776348 0.02083900012075901
  endloop
 endfacet
 facet normal 0.3906702718772615 -0.89214749727763121 0.22682500252971616
  outer loop
   vertex 0.051931999623775482 -0.0081030000001192093 0.026290999725461006
   vertex 0.056565999984741211 -0.0066410000436007977 0.024059999734163284
   vertex 0.055194001644849777 -0.0067599997855722904 0.025955000892281532
  endloop
 endfacet
 facet normal 0.46589553437254577 -0.74266221799373133 0.48103449046440683
  outer loop
   vertex 0.051931999623775482 -0.0081030000001192093 0.026290999725461006
   vertex 0.052023999392986298 -0.0095020001754164696 0.024041999131441116
   vertex 0.056565999984741211 -0.0066410000436007977 0.024059999734163284
  endloop
 endfacet
 facet normal 0.31762109772364083 -0.58470898037658736 0.74647990364630779
  outer loop
   vertex 0.053686000406742096 -0.0065540000796318054 0.026758000254631042
   vertex 0.051931999623775482 -0.0081030000001192093 0.026290999725461006
   vertex 0.055194001644849777 -0.0067599997855722904 0.025955000892281532
  endloop
 endfacet
 facet normal 0.10920522518688698 -0.39823802092538646 0.91075830903775601
  outer loop
   vertex 0.051812000572681427 -0.0062239998951554298 0.027126999571919441
   vertex 0.051931999623775482 -0.0081030000001192093 0.026290999725461006
   vertex 0.053686000406742096 -0.0065540000796318054 0.026758000254631042
  endloop
 endfacet
 facet normal -0.79337522357665935 -0.48772589444320935 0.36425157035249334
  outer loop
   vertex 0.068144001066684723 -0.0070219999179244041 0.020798999816179276
   vertex 0.067844003438949585 -0.0068879998289048672 0.020324999466538429
   vertex 0.068199001252651215 -0.0076939999125897884 0.020019000396132469
  endloop
 endfacet
 facet normal 0.12044026538557076 -0.5796452760427715 0.80591903838732626
  outer loop
   vertex 0.070040002465248108 -0.0075289998203516006 0.020151000469923019
   vertex 0.069132000207901001 -0.0067750001326203346 0.020828999578952789
   vertex 0.068144001066684723 -0.0070219999179244041 0.020798999816179276
  endloop
 endfacet
 facet normal 0.020970404710057181 -0.75671016845578398 0.65341408240251098
  outer loop
   vertex 0.070040002465248108 -0.0075289998203516006 0.020151000469923019
   vertex 0.068144001066684723 -0.0070219999179244041 0.020798999816179276
   vertex 0.068199001252651215 -0.0076939999125897884 0.020019000396132469
  endloop
 endfacet
 facet normal -0.22142583361460877 0.10309401368545928 0.96971244425875958
  outer loop
   vertex 0.067148000001907349 -0.0070190001279115677 0.020179999992251396
   vertex 0.067359998822212219 -0.007683000061661005 0.020299000665545464
   vertex 0.067844003438949585 -0.0068879998289048672 0.020324999466538429
  endloop
 endfacet
 facet normal 0.30647081413828936 -0.21689305207836082 0.92684035520770647
  outer loop
   vertex 0.068199001252651215 -0.0076939999125897884 0.020019000396132469
   vertex 0.067844003438949585 -0.0068879998289048672 0.020324999466538429
   vertex 0.067359998822212219 -0.007683000061661005 0.020299000665545464
  endloop
 endfacet
 facet normal 0.31466289860843111 -0.39654424001860245 0.86240357486933528
  outer loop
   vertex 0.070040002465248108 -0.0075289998203516006 0.020151000469923019
   vertex 0.072172001004219055 -0.0069789998233318329 0.01962600089609623
   vertex 0.069132000207901001 -0.0067750001326203346 0.020828999578952789
  endloop
 endfacet
 facet normal 0.39754534004943881 -0.90712525946352662 0.1381356805760395
  outer loop
   vertex 0.059868000447750092 -0.0076799998059868813 0.013082000426948071
   vertex 0.056892000138759613 -0.0078030000440776348 0.02083900012075901
   vertex 0.053417999297380447 -0.0098719997331500053 0.017249999567866325
  endloop
 endfacet
 facet normal 0.40296011351721489 -0.90564267684827304 0.1320397242699638
  outer loop
   vertex 0.053417999297380447 -0.0098719997331500053 0.017249999567866325
   vertex 0.056892000138759613 -0.0078030000440776348 0.02083900012075901
   vertex 0.052023999392986298 -0.0095020001754164696 0.024041999131441116
  endloop
 endfacet
 facet normal 0.26485376185445364 -0.64518227637143888 -0.71665355304199296
  outer loop
   vertex 0.059868000447750092 -0.0076799998059868813 0.013082000426948071
   vertex 0.059935998171567917 -0.0068290000781416893 0.012341000139713287
   vertex 0.063337996602058411 -0.005437999963760376 0.012346000410616398
  endloop
 endfacet
 facet normal 0.1963027017475478 -0.91609599998054769 -0.34961888980181521
  outer loop
   vertex 0.070032000541687012 -0.0057479999959468842 0.011556999757885933
   vertex 0.072172999382019043 -0.0076759997755289078 0.017811000347137451
   vertex 0.064970999956130981 -0.0071999998763203621 0.012520000338554382
  endloop
 endfacet
 facet normal 0.32526757474055212 -0.77846717177631297 -0.53683318385601653
  outer loop
   vertex 0.059868000447750092 -0.0076799998059868813 0.013082000426948071
   vertex 0.054177001118659973 -0.0097709996625781059 0.012666000053286552
   vertex 0.054239999502897263 -0.008662000298500061 0.011095999740064144
  endloop
 endfacet
 facet normal 0.34233691542598005 -0.93888748458827354 0.035996216747455671
  outer loop
   vertex 0.053417999297380447 -0.0098719997331500053 0.017249999567866325
   vertex 0.054177001118659973 -0.0097709996625781059 0.012666000053286552
   vertex 0.059868000447750092 -0.0076799998059868813 0.013082000426948071
  endloop
 endfacet
 facet normal 0.31263106978572008 -0.8866799565204162 0.34067648716867593
  outer loop
   vertex 0.072172999382019043 -0.0076759997755289078 0.017811000347137451
   vertex 0.072172001004219055 -0.0069789998233318329 0.01962600089609623
   vertex 0.070040002465248108 -0.0075289998203516006 0.020151000469923019
  endloop
 endfacet
 facet normal -0.15200176234054 -0.95796968216980127 -0.24328903035044552
  outer loop
   vertex 0.073330000042915344 -0.0067810001783072948 0.013563999906182289
   vertex 0.072172999382019043 -0.0076759997755289078 0.017811000347137451
   vertex 0.070032000541687012 -0.0057479999959468842 0.011556999757885933
  endloop
 endfacet
 facet normal 0.5397905807468053 -0.78574646216956279 0.30204076897836613
  outer loop
   vertex 0.072172001004219055 -0.0069789998233318329 0.01962600089609623
   vertex 0.072172999382019043 -0.0076759997755289078 0.017811000347137451
   vertex 0.074778996407985687 -0.0063769998960196972 0.016533000394701958
  endloop
 endfacet
 facet normal 0.413655690528279 -0.90704657400345812 -0.078456881674979356
  outer loop
   vertex 0.073330000042915344 -0.0067810001783072948 0.013563999906182289
   vertex 0.074778996407985687 -0.0063769998960196972 0.016533000394701958
   vertex 0.072172999382019043 -0.0076759997755289078 0.017811000347137451
  endloop
 endfacet
 facet normal 0.40466373955893498 -0.34970729365306669 -0.8449568430707135
  outer loop
   vertex 0.070032000541687012 -0.0057479999959468842 0.011556999757885933
   vertex 0.074492998421192169 -0.0053699999116361141 0.013536999933421612
   vertex 0.073330000042915344 -0.0067810001783072948 0.013563999906182289
  endloop
 endfacet
 facet normal 0.85040179701337837 -0.46883809308144481 -0.23876269832654204
  outer loop
   vertex 0.074778996407985687 -0.0063769998960196972 0.016533000394701958
   vertex 0.074492998421192169 -0.0053699999116361141 0.013536999933421612
   vertex 0.075158998370170593 -0.0055100000463426113 0.016184000298380852
  endloop
 endfacet
 facet normal 0.73885777818535314 -0.61429436837317897 -0.27700471584433439
  outer loop
   vertex 0.074492998421192169 -0.0053699999116361141 0.013536999933421612
   vertex 0.074778996407985687 -0.0063769998960196972 0.016533000394701958
   vertex 0.073330000042915344 -0.0067810001783072948 0.013563999906182289
  endloop
 endfacet
 facet normal 0.92625987487852268 -0.34396809595493261 0.15404088144113484
  outer loop
   vertex 0.074923001229763031 -0.005681999959051609 0.017218999564647675
   vertex 0.074778996407985687 -0.0063769998960196972 0.016533000394701958
   vertex 0.075158998370170593 -0.0055100000463426113 0.016184000298380852
  endloop
 endfacet
 facet normal 0.67220791777927991 -0.58595826247644178 0.45253666139931059
  outer loop
   vertex 0.074778996407985687 -0.0063769998960196972 0.016533000394701958
   vertex 0.074923001229763031 -0.005681999959051609 0.017218999564647675
   vertex 0.072172001004219055 -0.0069789998233318329 0.01962600089609623
  endloop
 endfacet
 facet normal -0.43865315673706734 -0.88087186112479143 -0.1778993321042884
  outer loop
   vertex 0.051853999495506287 -0.0071990001015365124 0.011074000038206577
   vertex 0.052496001124382019 -0.0077969999983906746 0.012451999820768833
   vertex 0.051690001040697098 -0.0072479997761547565 0.011721000075340271
  endloop
 endfacet
 facet normal -0.19869685773059192 -0.33788775282655181 -0.91997360028307984
  outer loop
   vertex 0.051853999495506287 -0.0071990001015365124 0.011074000038206577
   vertex 0.054239999502897263 -0.008662000298500061 0.011095999740064144
   vertex 0.052636001259088516 -0.0087179997935891151 0.011463000439107418
  endloop
 endfacet
 facet normal -0.86853503304005597 -0.47937298376560311 -0.12589058272075621
  outer loop
   vertex 0.051853999495506287 -0.0071990001015365124 0.011074000038206577
   vertex 0.052636001259088516 -0.0087179997935891151 0.011463000439107418
   vertex 0.052715998142957687 -0.0090880002826452255 0.012319999746978283
  endloop
 endfacet
 facet normal -0.91885042670517758 -0.19183789677489685 0.34483635931365614
  outer loop
   vertex 0.052496001124382019 -0.0077969999983906746 0.012451999820768833
   vertex 0.051853999495506287 -0.0071990001015365124 0.011074000038206577
   vertex 0.052715998142957687 -0.0090880002826452255 0.012319999746978283
  endloop
 endfacet
 facet normal -0.057439694314416034 -0.91851287465548137 -0.39119660096835002
  outer loop
   vertex 0.054239999502897263 -0.008662000298500061 0.011095999740064144
   vertex 0.052715998142957687 -0.0090880002826452255 0.012319999746978283
   vertex 0.052636001259088516 -0.0087179997935891151 0.011463000439107418
  endloop
 endfacet
 facet normal -0.23477435446699657 -0.78948723797627729 -0.56708985492353314
  outer loop
   vertex 0.054239999502897263 -0.008662000298500061 0.011095999740064144
   vertex 0.054177001118659973 -0.0097709996625781059 0.012666000053286552
   vertex 0.052715998142957687 -0.0090880002826452255 0.012319999746978283
  endloop
 endfacet
 facet normal -0.66347067329302256 0.0037929324938586317 0.74819267528037225
  outer loop
   vertex 0.051690001040697098 -0.0072479997761547565 0.011721000075340271
   vertex 0.052650000900030136 -0.0071899998001754284 0.012571999803185463
   vertex 0.051844999194145203 -0.0065680001862347126 0.011854999698698521
  endloop
 endfacet
 facet normal -0.66309240370055278 -0.74168342483791472 0.10106513481574363
  outer loop
   vertex 0.052041001617908478 -0.0066269999369978905 0.012707999907433987
   vertex 0.051844999194145203 -0.0065680001862347126 0.011854999698698521
   vertex 0.052650000900030136 -0.0071899998001754284 0.012571999803185463
  endloop
 endfacet
 facet normal -0.3001416228932498 -0.94797834687125326 0.10607572799774724
  outer loop
   vertex 0.052395999431610107 -0.0064929998479783535 0.014910000376403332
   vertex 0.052041001617908478 -0.0066269999369978905 0.012707999907433987
   vertex 0.053272999823093414 -0.006802000105381012 0.014630000106990337
  endloop
 endfacet
 facet normal -0.57262638540040833 -0.71590881072558377 0.39946664124647951
  outer loop
   vertex 0.052650000900030136 -0.0071899998001754284 0.012571999803185463
   vertex 0.053240999579429626 -0.0068859998136758804 0.013964000158011913
   vertex 0.052041001617908478 -0.0066269999369978905 0.012707999907433987
  endloop
 endfacet
 facet normal -0.34083246324688854 -0.93056203897644707 0.13374424702788479
  outer loop
   vertex 0.053272999823093414 -0.006802000105381012 0.014630000106990337
   vertex 0.052041001617908478 -0.0066269999369978905 0.012707999907433987
   vertex 0.053240999579429626 -0.0068859998136758804 0.013964000158011913
  endloop
 endfacet
 facet normal -0.3584556922360515 -0.92836584394838717 -0.098215968628181549
  outer loop
   vertex 0.053272999823093414 -0.006802000105381012 0.014630000106990337
   vertex 0.052905000746250153 -0.0068350001238286495 0.016285000368952751
   vertex 0.052395999431610107 -0.0064929998479783535 0.014910000376403332
  endloop
 endfacet
 facet normal -0.55040603979510305 -0.83488796440923418 -0.0039087391415593645
  outer loop
   vertex 0.052395999431610107 -0.0064929998479783535 0.014910000376403332
   vertex 0.052905000746250153 -0.0068350001238286495 0.016285000368952751
   vertex 0.052377998828887939 -0.006490000057965517 0.016804000362753868
  endloop
 endfacet
 facet normal -0.66390410577571302 0.020654366830274971 0.74753243104563127
  outer loop
   vertex 0.051690001040697098 -0.0072479997761547565 0.011721000075340271
   vertex 0.052496001124382019 -0.0077969999983906746 0.012451999820768833
   vertex 0.052650000900030136 -0.0071899998001754284 0.012571999803185463
  endloop
 endfacet
 facet normal -0.42340077162633544 0.86207678968763024 0.2784876932076048
  outer loop
   vertex 0.052354000508785248 -0.0068129999563097954 0.019337000325322151
   vertex 0.05226299911737442 -0.0064400001429021358 0.018044000491499901
   vertex 0.051913000643253326 -0.0078330002725124359 0.021824000403285027
  endloop
 endfacet
 facet normal -0.94686640995599858 -0.31271113712024678 -0.075204696781523778
  outer loop
   vertex 0.05226299911737442 -0.0064400001429021358 0.018044000491499901
   vertex 0.052377998828887939 -0.006490000057965517 0.016804000362753868
   vertex 0.052776999771595001 -0.0075880000367760658 0.016346000134944916
  endloop
 endfacet
 facet normal -0.68144815233174771 0.056728644236196148 -0.72966449592039939
  outer loop
   vertex 0.052905000746250153 -0.0068350001238286495 0.016285000368952751
   vertex 0.052776999771595001 -0.0075880000367760658 0.016346000134944916
   vertex 0.052377998828887939 -0.006490000057965517 0.016804000362753868
  endloop
 endfacet
 facet normal -0.69913893559036699 0.4760329365710948 -0.53347670243513767
  outer loop
   vertex 0.05226299911737442 -0.0064400001429021358 0.018044000491499901
   vertex 0.052776999771595001 -0.0075880000367760658 0.016346000134944916
   vertex 0.0520160011947155 -0.0070000002160668373 0.017867999151349068
  endloop
 endfacet
 facet normal -0.98757588425289833 0.15319892597530374 -0.034985167172952261
  outer loop
   vertex 0.051913000643253326 -0.0078330002725124359 0.021824000403285027
   vertex 0.05226299911737442 -0.0064400001429021358 0.018044000491499901
   vertex 0.051968000829219818 -0.0079739997163414955 0.019654000177979469
  endloop
 endfacet
 facet normal -0.92036906275011554 0.3531842231312779 0.16787403868266668
  outer loop
   vertex 0.05226299911737442 -0.0064400001429021358 0.018044000491499901
   vertex 0.0520160011947155 -0.0070000002160668373 0.017867999151349068
   vertex 0.051968000829219818 -0.0079739997163414955 0.019654000177979469
  endloop
 endfacet
 facet normal -0.76454699593301079 0.45301279928159677 -0.45852731074262149
  outer loop
   vertex 0.051353998482227325 -0.008740999735891819 0.021858999505639076
   vertex 0.051224999129772186 -0.0069039999507367611 0.023888999596238136
   vertex 0.051913000643253326 -0.0078330002725124359 0.021824000403285027
  endloop
 endfacet
 facet normal -0.99311375714903416 0.048239083937634104 -0.10676167918399931
  outer loop
   vertex 0.051171999424695969 -0.0089490003883838654 0.023458000272512436
   vertex 0.051224999129772186 -0.0069039999507367611 0.023888999596238136
   vertex 0.051353998482227325 -0.008740999735891819 0.021858999505639076
  endloop
 endfacet
 facet normal -0.79819957413196974 0.14396657511939687 -0.58493680436773099
  outer loop
   vertex 0.051171999424695969 -0.0089490003883838654 0.023458000272512436
   vertex 0.050579998642206192 -0.0071849999949336052 0.024700000882148743
   vertex 0.051224999129772186 -0.0069039999507367611 0.023888999596238136
  endloop
 endfacet
 facet normal -0.58610497065374845 0.78678311098143128 -0.19352854995930061
  outer loop
   vertex 0.050579998642206192 -0.0071849999949336052 0.024700000882148743
   vertex 0.051215998828411102 -0.0063579999841749668 0.026135999709367752
   vertex 0.051224999129772186 -0.0069039999507367611 0.023888999596238136
  endloop
 endfacet
 facet normal -0.85172931153538445 0.52344994344054263 -0.023607977116911812
  outer loop
   vertex 0.051913000643253326 -0.0078330002725124359 0.021824000403285027
   vertex 0.05122699961066246 -0.0091110002249479294 0.018237000331282616
   vertex 0.051353998482227325 -0.008740999735891819 0.021858999505639076
  endloop
 endfacet
 facet normal -0.80109428391762938 0.59562257651458661 -0.05900588632184204
  outer loop
   vertex 0.051913000643253326 -0.0078330002725124359 0.021824000403285027
   vertex 0.051968000829219818 -0.0079739997163414955 0.019654000177979469
   vertex 0.05122699961066246 -0.0091110002249479294 0.018237000331282616
  endloop
 endfacet
 facet normal -0.80433594382203411 -0.28365645226868214 0.52209453795482541
  outer loop
   vertex 0.051215998828411102 -0.0063579999841749668 0.026135999709367752
   vertex 0.051931999623775482 -0.0081030000001192093 0.026290999725461006
   vertex 0.051812000572681427 -0.0062239998951554298 0.027126999571919441
  endloop
 endfacet
 facet normal -0.80528468546830112 -0.28420227197318881 0.52033224381686849
  outer loop
   vertex 0.050579998642206192 -0.0071849999949336052 0.024700000882148743
   vertex 0.051931999623775482 -0.0081030000001192093 0.026290999725461006
   vertex 0.051215998828411102 -0.0063579999841749668 0.026135999709367752
  endloop
 endfacet
 facet normal 0.070648407952827327 -0.99513198014092985 0.068710585461942517
  outer loop
   vertex 0.053417999297380447 -0.0098719997331500053 0.017249999567866325
   vertex 0.052023999392986298 -0.0095020001754164696 0.024041999131441116
   vertex 0.051924001425504684 -0.0096300002187490463 0.022290999069809914
  endloop
 endfacet
 facet normal -0.51076935761145559 -0.85481783529071342 0.091657688134055962
  outer loop
   vertex 0.052023999392986298 -0.0095020001754164696 0.024041999131441116
   vertex 0.051316998898983002 -0.0090549997985363007 0.024271000176668167
   vertex 0.051924001425504684 -0.0096300002187490463 0.022290999069809914
  endloop
 endfacet
 facet normal -0.35000813089542687 -0.8017654891081174 0.48442379047927747
  outer loop
   vertex 0.051316998898983002 -0.0090549997985363007 0.024271000176668167
   vertex 0.052023999392986298 -0.0095020001754164696 0.024041999131441116
   vertex 0.051931999623775482 -0.0081030000001192093 0.026290999725461006
  endloop
 endfacet
 facet normal -0.797400965061556 -0.41481442994849616 0.43827011034908991
  outer loop
   vertex 0.051316998898983002 -0.0090549997985363007 0.024271000176668167
   vertex 0.051931999623775482 -0.0081030000001192093 0.026290999725461006
   vertex 0.050579998642206192 -0.0071849999949336052 0.024700000882148743
  endloop
 endfacet
 facet normal -0.38715926668477196 -0.91814784086423107 -0.084334124389005616
  outer loop
   vertex 0.053417999297380447 -0.0098719997331500053 0.017249999567866325
   vertex 0.052790999412536621 -0.0093799997121095657 0.014771999791264534
   vertex 0.054177001118659973 -0.0097709996625781059 0.012666000053286552
  endloop
 endfacet
 facet normal -0.089236565496442627 -0.99131748364173589 -0.096573712803308454
  outer loop
   vertex 0.051465000957250595 -0.0098130004480481148 0.018448999151587486
   vertex 0.051713000982999802 -0.0097230002284049988 0.017295999452471733
   vertex 0.053417999297380447 -0.0098719997331500053 0.017249999567866325
  endloop
 endfacet
 facet normal 0.30874114502831307 -0.91498077041698589 -0.25978663386276302
  outer loop
   vertex 0.053417999297380447 -0.0098719997331500053 0.017249999567866325
   vertex 0.052726000547409058 -0.0097540002316236496 0.016011999920010567
   vertex 0.052790999412536621 -0.0093799997121095657 0.014771999791264534
  endloop
 endfacet
 facet normal -0.088187208920102636 -0.99506189654596999 -0.045550392152202017
  outer loop
   vertex 0.053417999297380447 -0.0098719997331500053 0.017249999567866325
   vertex 0.051713000982999802 -0.0097230002284049988 0.017295999452471733
   vertex 0.052726000547409058 -0.0097540002316236496 0.016011999920010567
  endloop
 endfacet
 facet normal -0.00090017452203865807 -0.99886202525743806 0.047684842292274821
  outer loop
   vertex 0.053417999297380447 -0.0098719997331500053 0.017249999567866325
   vertex 0.051924001425504684 -0.0096300002187490463 0.022290999069809914
   vertex 0.051465000957250595 -0.0098130004480481148 0.018448999151587486
  endloop
 endfacet
 facet normal -0.30251101514939699 -0.85770449606227561 -0.41572837664494228
  outer loop
   vertex 0.054177001118659973 -0.0097709996625781059 0.012666000053286552
   vertex 0.053134001791477203 -0.0096450001001358032 0.013164999894797802
   vertex 0.052715998142957687 -0.0090880002826452255 0.012319999746978283
  endloop
 endfacet
 facet normal -0.046077597165976564 -0.98715892610900879 0.15295133096092506
  outer loop
   vertex 0.053134001791477203 -0.0096450001001358032 0.013164999894797802
   vertex 0.054177001118659973 -0.0097709996625781059 0.012666000053286552
   vertex 0.052790999412536621 -0.0093799997121095657 0.014771999791264534
  endloop
 endfacet
 facet normal -0.9204427794848915 0.16331650231856876 0.35512365418901098
  outer loop
   vertex 0.052650000900030136 -0.0071899998001754284 0.012571999803185463
   vertex 0.052496001124382019 -0.0077969999983906746 0.012451999820768833
   vertex 0.053240999579429626 -0.0068859998136758804 0.013964000158011913
  endloop
 endfacet
 facet normal -0.88066731840764023 0.44341288499706549 0.16676356828538721
  outer loop
   vertex 0.053240999579429626 -0.0068859998136758804 0.013964000158011913
   vertex 0.052496001124382019 -0.0077969999983906746 0.012451999820768833
   vertex 0.05256899818778038 -0.0084640001878142357 0.014611000195145607
  endloop
 endfacet
 facet normal -0.98593272437503143 -0.16617040875854369 -0.018001618245219224
  outer loop
   vertex 0.052715998142957687 -0.0090880002826452255 0.012319999746978283
   vertex 0.05256899818778038 -0.0084640001878142357 0.014611000195145607
   vertex 0.052496001124382019 -0.0077969999983906746 0.012451999820768833
  endloop
 endfacet
 facet normal -0.75733012759540763 -0.65076805565864482 -0.0543324541189764
  outer loop
   vertex 0.052790999412536621 -0.0093799997121095657 0.014771999791264534
   vertex 0.052715998142957687 -0.0090880002826452255 0.012319999746978283
   vertex 0.053134001791477203 -0.0096450001001358032 0.013164999894797802
  endloop
 endfacet
 facet normal -0.97193197638762963 -0.23525581204097715 0.0017135274075910909
  outer loop
   vertex 0.05256899818778038 -0.0084640001878142357 0.014611000195145607
   vertex 0.052715998142957687 -0.0090880002826452255 0.012319999746978283
   vertex 0.052790999412536621 -0.0093799997121095657 0.014771999791264534
  endloop
 endfacet
 facet normal -0.92076694732458197 0.3900815911610756 -0.0049579180927035458
  outer loop
   vertex 0.053272999823093414 -0.006802000105381012 0.014630000106990337
   vertex 0.053240999579429626 -0.0068859998136758804 0.013964000158011913
   vertex 0.05256899818778038 -0.0084640001878142357 0.014611000195145607
  endloop
 endfacet
 facet normal -0.96616201081468045 0.14707023074735434 -0.21189930647940605
  outer loop
   vertex 0.052905000746250153 -0.0068350001238286495 0.016285000368952751
   vertex 0.053272999823093414 -0.006802000105381012 0.014630000106990337
   vertex 0.052776999771595001 -0.0075880000367760658 0.016346000134944916
  endloop
 endfacet
 facet normal -0.90226259412163234 0.38441942344292818 -0.19530468025295547
  outer loop
   vertex 0.053272999823093414 -0.006802000105381012 0.014630000106990337
   vertex 0.05256899818778038 -0.0084640001878142357 0.014611000195145607
   vertex 0.052039999514818192 -0.0086580002680420876 0.016673000529408455
  endloop
 endfacet
 facet normal -0.81967049808088088 0.5722804084259393 0.025207314567025071
  outer loop
   vertex 0.052776999771595001 -0.0075880000367760658 0.016346000134944916
   vertex 0.053272999823093414 -0.006802000105381012 0.014630000106990337
   vertex 0.052039999514818192 -0.0086580002680420876 0.016673000529408455
  endloop
 endfacet
 facet normal -0.77379217141677392 0.37753202833515348 -0.50864058335455176
  outer loop
   vertex 0.052776999771595001 -0.0075880000367760658 0.016346000134944916
   vertex 0.052039999514818192 -0.0086580002680420876 0.016673000529408455
   vertex 0.051398001611232758 -0.0090549997985363007 0.017355000600218773
  endloop
 endfacet
 facet normal -0.77447389997361682 0.38032339888702166 -0.5055138875626265
  outer loop
   vertex 0.051398001611232758 -0.0090549997985363007 0.017355000600218773
   vertex 0.051626000553369522 -0.0078609995543956757 0.017904000356793404
   vertex 0.052776999771595001 -0.0075880000367760658 0.016346000134944916
  endloop
 endfacet
 facet normal -0.78518215887782905 0.33384980969507239 -0.52156809904988954
  outer loop
   vertex 0.0520160011947155 -0.0070000002160668373 0.017867999151349068
   vertex 0.052776999771595001 -0.0075880000367760658 0.016346000134944916
   vertex 0.051626000553369522 -0.0078609995543956757 0.017904000356793404
  endloop
 endfacet
 facet normal -0.8892661715930491 0.41118128555778133 0.20033877923979684
  outer loop
   vertex 0.051968000829219818 -0.0079739997163414955 0.019654000177979469
   vertex 0.0520160011947155 -0.0070000002160668373 0.017867999151349068
   vertex 0.051626000553369522 -0.0078609995543956757 0.017904000356793404
  endloop
 endfacet
 facet normal -0.76577610850637212 0.63393670736814267 -0.10821831033644362
  outer loop
   vertex 0.05122699961066246 -0.0091110002249479294 0.018237000331282616
   vertex 0.051968000829219818 -0.0079739997163414955 0.019654000177979469
   vertex 0.051398001611232758 -0.0090549997985363007 0.017355000600218773
  endloop
 endfacet
 facet normal -0.97573745877779539 0.095798860650932696 0.1968730297319396
  outer loop
   vertex 0.051398001611232758 -0.0090549997985363007 0.017355000600218773
   vertex 0.051968000829219818 -0.0079739997163414955 0.019654000177979469
   vertex 0.051626000553369522 -0.0078609995543956757 0.017904000356793404
  endloop
 endfacet
 facet normal -0.9233344047528016 -0.37738967499823189 0.070926794686621872
  outer loop
   vertex 0.051642000675201416 -0.0094680003821849823 0.021740000694990158
   vertex 0.051353998482227325 -0.008740999735891819 0.021858999505639076
   vertex 0.05122699961066246 -0.0091110002249479294 0.018237000331282616
  endloop
 endfacet
 facet normal -0.9273364950620484 -0.34278978655767539 -0.15014055800408765
  outer loop
   vertex 0.051353998482227325 -0.008740999735891819 0.021858999505639076
   vertex 0.051642000675201416 -0.0094680003821849823 0.021740000694990158
   vertex 0.051171999424695969 -0.0089490003883838654 0.023458000272512436
  endloop
 endfacet
 facet normal -0.91530780840052672 -0.38662547563428307 0.11283774843370911
  outer loop
   vertex 0.051316998898983002 -0.0090549997985363007 0.024271000176668167
   vertex 0.050579998642206192 -0.0071849999949336052 0.024700000882148743
   vertex 0.051171999424695969 -0.0089490003883838654 0.023458000272512436
  endloop
 endfacet
 facet normal -0.60287956133361054 -0.79429722324422281 0.075021034868300029
  outer loop
   vertex 0.051924001425504684 -0.0096300002187490463 0.022290999069809914
   vertex 0.051171999424695969 -0.0089490003883838654 0.023458000272512436
   vertex 0.051642000675201416 -0.0094680003821849823 0.021740000694990158
  endloop
 endfacet
 facet normal -0.65528404164780629 -0.75515812724416831 0.018412702647806527
  outer loop
   vertex 0.051924001425504684 -0.0096300002187490463 0.022290999069809914
   vertex 0.051316998898983002 -0.0090549997985363007 0.024271000176668167
   vertex 0.051171999424695969 -0.0089490003883838654 0.023458000272512436
  endloop
 endfacet
 facet normal -0.90813638218869952 -0.36811837694237998 -0.19944215176970012
  outer loop
   vertex 0.051465000957250595 -0.0098130004480481148 0.018448999151587486
   vertex 0.05122699961066246 -0.0091110002249479294 0.018237000331282616
   vertex 0.051398001611232758 -0.0090549997985363007 0.017355000600218773
  endloop
 endfacet
 facet normal -0.95113339444823664 -0.29759602232496835 0.082352130887622693
  outer loop
   vertex 0.051465000957250595 -0.0098130004480481148 0.018448999151587486
   vertex 0.051642000675201416 -0.0094680003821849823 0.021740000694990158
   vertex 0.05122699961066246 -0.0091110002249479294 0.018237000331282616
  endloop
 endfacet
 facet normal -0.65245663274598587 -0.74925765991478577 0.11363670817473122
  outer loop
   vertex 0.051924001425504684 -0.0096300002187490463 0.022290999069809914
   vertex 0.051642000675201416 -0.0094680003821849823 0.021740000694990158
   vertex 0.051465000957250595 -0.0098130004480481148 0.018448999151587486
  endloop
 endfacet
 facet normal -0.95864414562562283 -0.25466952024221373 -0.12706233713150547
  outer loop
   vertex 0.05256899818778038 -0.0084640001878142357 0.014611000195145607
   vertex 0.052790999412536621 -0.0093799997121095657 0.014771999791264534
   vertex 0.052726000547409058 -0.0097540002316236496 0.016011999920010567
  endloop
 endfacet
 facet normal -0.88924878433650489 -0.39968082704511781 -0.22246760673990026
  outer loop
   vertex 0.051713000982999802 -0.0097230002284049988 0.017295999452471733
   vertex 0.051465000957250595 -0.0098130004480481148 0.018448999151587486
   vertex 0.051398001611232758 -0.0090549997985363007 0.017355000600218773
  endloop
 endfacet
 facet normal -0.78090703114193649 -0.11894691473164307 -0.61321761242556438
  outer loop
   vertex 0.052039999514818192 -0.0086580002680420876 0.016673000529408455
   vertex 0.052726000547409058 -0.0097540002316236496 0.016011999920010567
   vertex 0.051713000982999802 -0.0097230002284049988 0.017295999452471733
  endloop
 endfacet
 facet normal -0.63580845655552609 -0.23487888164679804 -0.73524112883381931
  outer loop
   vertex 0.051713000982999802 -0.0097230002284049988 0.017295999452471733
   vertex 0.051398001611232758 -0.0090549997985363007 0.017355000600218773
   vertex 0.052039999514818192 -0.0086580002680420876 0.016673000529408455
  endloop
 endfacet
 facet normal -0.8811624518031409 -0.39290058533610422 -0.26302445432853594
  outer loop
   vertex 0.05256899818778038 -0.0084640001878142357 0.014611000195145607
   vertex 0.052726000547409058 -0.0097540002316236496 0.016011999920010567
   vertex 0.052039999514818192 -0.0086580002680420876 0.016673000529408455
  endloop
 endfacet
endsolid
