solid Visualization Toolkit generated SLA File
 facet normal 0.34522107160913074 -0.44993739744994476 -0.82363751134404617
  outer loop
   vertex -0.0018110000528395176 -0.063740000128746033 0.031160999089479446
   vertex -0.0015950000379234552 -0.069918997585773468 0.034627001732587814
   vertex -0.0059429998509585857 -0.066913999617099762 0.03116299957036972
  endloop
 endfacet
 facet normal -0.30468536075500491 0.30743114811465005 0.9014726396904682
  outer loop
   vertex -0.001749000046402216 -0.058490999042987823 0.029707999899983406
   vertex -0.0058320001699030399 -0.061608001589775085 0.029391000047326088
   vertex -0.0059429998509585857 -0.066913999617099762 0.03116299957036972
  endloop
 endfacet
 facet normal 0.18085324417382873 0.20119792231874478 0.9627104965286406
  outer loop
   vertex 0.0045449999161064625 -0.065811999142169952 0.030400000512599945
   vertex -0.0018110000528395176 -0.063740000128746033 0.031160999089479446
   vertex -0.0019340000580996275 -0.069089002907276154 0.032301999628543854
  endloop
 endfacet
 facet normal 0.11262753293672334 0.26384849382599179 0.95796608036524067
  outer loop
   vertex -0.0018110000528395176 -0.063740000128746033 0.031160999089479446
   vertex 0.0051629999652504921 -0.060109000653028488 0.029340999200940132
   vertex -0.001749000046402216 -0.058490999042987823 0.029707999899983406
  endloop
 endfacet
 facet normal -0.77752652861053395 -0.47698035589398408 0.40980756142133429
  outer loop
   vertex -0.0059429998509585857 -0.066913999617099762 0.03116299957036972
   vertex -0.0015699999639764428 -0.068896003067493439 0.037152998149394989
   vertex -0.0035800000187009573 -0.063896000385284424 0.039158999919891357
  endloop
 endfacet
 facet normal -0.95076843499936192 -0.26745254919628014 0.15655196241911307
  outer loop
   vertex -0.0058320001699030399 -0.061608001589775085 0.029391000047326088
   vertex -0.0035800000187009573 -0.063896000385284424 0.039158999919891357
   vertex -0.005044999998062849 -0.058451000601053238 0.039563998579978943
  endloop
 endfacet
 facet normal 0.16532248399067398 -0.91468838714022349 0.36880025856548682
  outer loop
   vertex -0.0015950000379234552 -0.069918997585773468 0.034627001732587814
   vertex 0.00044999999227002263 -0.068745002150535583 0.036621998995542526
   vertex -0.0015699999639764428 -0.068896003067493439 0.037152998149394989
  endloop
 endfacet
 facet normal 0.69119249189071785 -0.64279685280730647 -0.33025012517018348
  outer loop
   vertex -0.0019340000580996275 -0.069089002907276154 0.032301999628543854
   vertex 0.00044999999227002263 -0.068745002150535583 0.036621998995542526
   vertex -0.0015950000379234552 -0.069918997585773468 0.034627001732587814
  endloop
 endfacet
 facet normal -0.053843697696957626 -0.99260928692525807 0.10875504460965954
  outer loop
   vertex 0.0019799999427050352 -0.069048002362251282 0.034614000469446182
   vertex 0.00044999999227002263 -0.068745002150535583 0.036621998995542526
   vertex -0.0019340000580996275 -0.069089002907276154 0.032301999628543854
  endloop
 endfacet
 facet normal 0.23480845152721294 -0.080302377940984757 0.96871900940799949
  outer loop
   vertex -0.0025160000659525394 -0.053082000464200974 0.029293999075889587
   vertex -0.0064730001613497734 -0.055810000747442245 0.030027000233530998
   vertex -0.0058320001699030399 -0.061608001589775085 0.029391000047326088
  endloop
 endfacet
 facet normal -0.16231905307720124 0.052400703168534291 0.98534597543987756
  outer loop
   vertex 0.0029750000685453415 -0.054575998336076736 0.030277999117970467
   vertex -0.0025160000659525394 -0.053082000464200974 0.029293999075889587
   vertex -0.001749000046402216 -0.058490999042987823 0.029707999899983406
  endloop
 endfacet
 facet normal -0.98964451690032662 -0.052068560220612431 0.13376320572441303
  outer loop
   vertex -0.0064730001613497734 -0.055810000747442245 0.030027000233530998
   vertex -0.005044999998062849 -0.058451000601053238 0.039563998579978943
   vertex -0.0055049997754395008 -0.05298599973320961 0.038288000971078873
  endloop
 endfacet
 facet normal 0.49384966494010657 -0.80843953057042484 -0.32021560525623266
  outer loop
   vertex 0.0054460000246763229 -0.066316001117229462 0.033061999827623367
   vertex 0.0019799999427050352 -0.069048002362251282 0.034614000469446182
   vertex 0.0045449999161064625 -0.065811999142169952 0.030400000512599945
  endloop
 endfacet
 facet normal 0.95656235345968499 -0.1500681061712654 -0.2499360467276347
  outer loop
   vertex 0.0060259997844696045 -0.060826998203992844 0.033075001090764999
   vertex 0.0045449999161064625 -0.065811999142169952 0.030400000512599945
   vertex 0.0051629999652504921 -0.060109000653028488 0.029340999200940132
  endloop
 endfacet
 facet normal -0.64291890957151254 -0.65894700353968827 -0.39044093310184996
  outer loop
   vertex 0.0016509999986737967 -0.069408997893333435 0.035764999687671661
   vertex 0.00044999999227002263 -0.068745002150535583 0.036621998995542526
   vertex 0.0019799999427050352 -0.069048002362251282 0.034614000469446182
  endloop
 endfacet
 facet normal -0.88395657734719191 -0.39256889543024115 0.25398903855347427
  outer loop
   vertex 0.0038189999759197235 -0.055153999477624893 0.032322000712156296
   vertex 0.0029750000685453415 -0.054575998336076736 0.030277999117970467
   vertex 0.0051629999652504921 -0.060109000653028488 0.029340999200940132
  endloop
 endfacet
 facet normal -0.41568337135044564 -0.27278337031160343 0.86763850056585778
  outer loop
   vertex -0.0035800000187009573 -0.063896000385284424 0.039158999919891357
   vertex -0.0013289999915286899 -0.068414002656936646 0.038816999644041061
   vertex -0.0002730000123847276 -0.063171997666358948 0.040970999747514725
  endloop
 endfacet
 facet normal -0.26447640120281818 0.020022682354475893 0.96418427979206234
  outer loop
   vertex -0.005044999998062849 -0.058451000601053238 0.039563998579978943
   vertex -0.0002730000123847276 -0.063171997666358948 0.040970999747514725
   vertex 0.00014800000644754618 -0.057562999427318573 0.040970001369714737
  endloop
 endfacet
 facet normal 0.13902314243991423 -0.95638759093557357 0.25689558534661772
  outer loop
   vertex -0.0015699999639764428 -0.068896003067493439 0.037152998149394989
   vertex 0.00044999999227002263 -0.068745002150535583 0.036621998995542526
   vertex -0.0013289999915286899 -0.068414002656936646 0.038816999644041061
  endloop
 endfacet
 facet normal -0.33089712717304143 0.13830533167357603 0.93347668768924819
  outer loop
   vertex -0.0055049997754395008 -0.05298599973320961 0.038288000971078873
   vertex 0.00014800000644754618 -0.057562999427318573 0.040970001369714737
   vertex -0.0012919999426230788 -0.052152998745441437 0.039657998830080032
  endloop
 endfacet
 facet normal -0.2017101001246748 -0.89068648396050054 0.40741946786791461
  outer loop
   vertex 0.0024359999224543571 -0.067800998687744141 0.03966899961233139
   vertex 0.00044999999227002263 -0.068745002150535583 0.036621998995542526
   vertex 0.0016509999986737967 -0.069408997893333435 0.035764999687671661
  endloop
 endfacet
 facet normal -0.6799652584944712 -0.44659024140580672 0.58155343995341491
  outer loop
   vertex 0.0027630000840872526 -0.066717997193336487 0.040883000940084457
   vertex 0.00044999999227002263 -0.068745002150535583 0.036621998995542526
   vertex 0.0024359999224543571 -0.067800998687744141 0.03966899961233139
  endloop
 endfacet
 facet normal 0.2213073325488146 -0.92177357155637951 0.31836543050451399
  outer loop
   vertex -0.0013289999915286899 -0.068414002656936646 0.038816999644041061
   vertex 0.00044999999227002263 -0.068745002150535583 0.036621998995542526
   vertex 0.0027630000840872526 -0.066717997193336487 0.040883000940084457
  endloop
 endfacet
 facet normal 0.29198535948788612 0.0058428259819363459 0.9564049410313995
  outer loop
   vertex -0.0033219999168068171 -0.047623001039028168 0.029015000909566879
   vertex -0.0067369998432695866 -0.04998299852013588 0.030071999877691269
   vertex -0.0064730001613497734 -0.055810000747442245 0.030027000233530998
  endloop
 endfacet
 facet normal -0.31531175099854863 0.0019461755702540238 0.94898614957378546
  outer loop
   vertex 0.00063899997621774673 -0.049042001366615295 0.030333999544382095
   vertex -0.0033219999168068171 -0.047623001039028168 0.029015000909566879
   vertex -0.0025160000659525394 -0.053082000464200974 0.029293999075889587
  endloop
 endfacet
 facet normal -0.98935878690151391 -0.0085031748117409163 0.14524767398786689
  outer loop
   vertex -0.0067369998432695866 -0.04998299852013588 0.030071999877691269
   vertex -0.0055049997754395008 -0.05298599973320961 0.038288000971078873
   vertex -0.0058129997923970222 -0.047572001814842224 0.036506999284029007
  endloop
 endfacet
 facet normal -0.70934111782079456 -0.30585200011683311 0.635050968500386
  outer loop
   vertex 0.0021500000730156898 -0.049734998494386673 0.03168800100684166
   vertex 0.00063899997621774673 -0.049042001366615295 0.030333999544382095
   vertex 0.0029750000685453415 -0.054575998336076736 0.030277999117970467
  endloop
 endfacet
 facet normal -0.62018075570308362 -0.07494289941446923 0.78087091896350236
  outer loop
   vertex -0.0058129997923970222 -0.047572001814842224 0.036506999284029007
   vertex -0.0012919999426230788 -0.052152998745441437 0.039657998830080032
   vertex -0.003292999928817153 -0.04692000150680542 0.038571000099182129
  endloop
 endfacet
 facet normal 0.69255300761783023 -0.70401305352422072 0.15727667375361232
  outer loop
   vertex 0.0066260001622140408 -0.063850998878479004 0.038899999111890793
   vertex 0.0024359999224543571 -0.067800998687744141 0.03966899961233139
   vertex 0.0054460000246763229 -0.066316001117229462 0.033061999827623367
  endloop
 endfacet
 facet normal 0.96206603247625233 -0.10105722890597016 -0.25340952160731633
  outer loop
   vertex 0.0074599999934434891 -0.058812998235225677 0.037716001272201538
   vertex 0.0054460000246763229 -0.066316001117229462 0.033061999827623367
   vertex 0.0060259997844696045 -0.060826998203992844 0.033075001090764999
  endloop
 endfacet
 facet normal 0.68779239521217916 -0.7094066338087599 0.15389557822243502
  outer loop
   vertex 0.0016509999986737967 -0.069408997893333435 0.035764999687671661
   vertex 0.0054460000246763229 -0.066316001117229462 0.033061999827623367
   vertex 0.0024359999224543571 -0.067800998687744141 0.03966899961233139
  endloop
 endfacet
 facet normal -0.92469884753854192 -0.33597792535539062 0.17902758177102218
  outer loop
   vertex 0.0041390000842511654 -0.054166000336408615 0.035829000174999237
   vertex 0.0038189999759197235 -0.055153999477624893 0.032322000712156296
   vertex 0.0060259997844696045 -0.060826998203992844 0.033075001090764999
  endloop
 endfacet
 facet normal -0.94230298943857116 -0.30608134092459749 -0.13557023579286315
  outer loop
   vertex 0.0014090000186115503 -0.04922499880194664 0.035686999559402466
   vertex 0.0021500000730156898 -0.049734998494386673 0.03168800100684166
   vertex 0.0038189999759197235 -0.055153999477624893 0.032322000712156296
  endloop
 endfacet
 facet normal -0.18265699171058894 -0.18037131504382095 0.96648984065462407
  outer loop
   vertex -0.0002730000123847276 -0.063171997666358948 0.040970999747514725
   vertex 0.0027630000840872526 -0.066717997193336487 0.040883000940084457
   vertex 0.0063579999841749668 -0.062380000948905945 0.042371999472379684
  endloop
 endfacet
 facet normal -0.030689888401916988 0.24264757357723057 0.96962894232121621
  outer loop
   vertex 0.00014800000644754618 -0.057562999427318573 0.040970001369714737
   vertex 0.0063579999841749668 -0.062380000948905945 0.042371999472379684
   vertex 0.0060930000618100166 -0.056887000799179077 0.040989000350236893
  endloop
 endfacet
 facet normal -0.54954588689501638 -0.82966892420222071 0.098228277038230713
  outer loop
   vertex -0.0012919999426230788 -0.052152998745441437 0.039657998830080032
   vertex 0.0017140000127255917 -0.054308999329805374 0.038265001028776169
   vertex 0.0060930000618100166 -0.056887000799179077 0.040989000350236893
  endloop
 endfacet
 facet normal 0.51633563220279644 0.31693682944094764 0.79558064397121808
  outer loop
   vertex -0.003292999928817153 -0.04692000150680542 0.038571000099182129
   vertex 0.0017140000127255917 -0.054308999329805374 0.038265001028776169
   vertex 0.0001900000061141327 -0.048588000237941742 0.03697500005364418
  endloop
 endfacet
 facet normal 0.67885753028239026 -0.65581028278876052 0.33025039979903087
  outer loop
   vertex 0.0063579999841749668 -0.062380000948905945 0.042371999472379684
   vertex 0.0024359999224543571 -0.067800998687744141 0.03966899961233139
   vertex 0.0066260001622140408 -0.063850998878479004 0.038899999111890793
  endloop
 endfacet
 facet normal 0.4253784935312887 0.03698344022682773 0.90425956582722433
  outer loop
   vertex -0.00355300004594028 -0.04220300167798996 0.028255999088287354
   vertex -0.0072050001472234726 -0.04416000097990036 0.030053999274969101
   vertex -0.0067369998432695866 -0.04998299852013588 0.030071999877691269
  endloop
 endfacet
 facet normal -0.26817772818288699 0.12238484203088409 0.95556405151498924
  outer loop
   vertex -0.00043899999582208693 -0.043320000171661377 0.029272999614477158
   vertex -0.00355300004594028 -0.04220300167798996 0.028255999088287354
   vertex -0.0033219999168068171 -0.047623001039028168 0.029015000909566879
  endloop
 endfacet
 facet normal -0.98192394126559901 -0.063113206815944553 0.17844353923535677
  outer loop
   vertex -0.0072050001472234726 -0.04416000097990036 0.030053999274969101
   vertex -0.0058129997923970222 -0.047572001814842224 0.036506999284029007
   vertex -0.0064400001429021358 -0.042174000293016434 0.03496599942445755
  endloop
 endfacet
 facet normal -0.81017138947998779 -0.044248215861621504 0.58452067120088191
  outer loop
   vertex 0.001395000028423965 -0.044006999582052231 0.031762998551130295
   vertex -0.00043899999582208693 -0.043320000171661377 0.029272999614477158
   vertex 0.00063899997621774673 -0.049042001366615295 0.030333999544382095
  endloop
 endfacet
 facet normal -0.76562047472263672 -0.019253404150837896 0.64300435077384122
  outer loop
   vertex -0.0064400001429021358 -0.042174000293016434 0.03496599942445755
   vertex -0.003292999928817153 -0.04692000150680542 0.038571000099182129
   vertex -0.0049950000829994678 -0.041825000196695328 0.03669700026512146
  endloop
 endfacet
 facet normal 0.96703430207102226 0.12455547373894583 0.22210491345235425
  outer loop
   vertex 0.00056700001005083323 -0.043717999011278152 0.035206001251935959
   vertex 0.0021500000730156898 -0.049734998494386673 0.03168800100684166
   vertex 0.001395000028423965 -0.044006999582052231 0.031762998551130295
  endloop
 endfacet
 facet normal 0.11131915143449374 0.12586676257980342 0.98578172259460339
  outer loop
   vertex -0.0049950000829994678 -0.041825000196695328 0.03669700026512146
   vertex 0.0001900000061141327 -0.048588000237941742 0.03697500005364418
   vertex -0.000653000024612993 -0.042688999325037003 0.036316998302936554
  endloop
 endfacet
 facet normal 0.90974646242391377 -0.053856341848030856 0.41165625046866766
  outer loop
   vertex 0.0060930000618100166 -0.056887000799179077 0.040989000350236893
   vertex 0.0066260001622140408 -0.063850998878479004 0.038899999111890793
   vertex 0.0074599999934434891 -0.058812998235225677 0.037716001272201538
  endloop
 endfacet
 facet normal -0.53890685039358988 -0.61770176374354513 -0.57273374063955296
  outer loop
   vertex 0.0017140000127255917 -0.054308999329805374 0.038265001028776169
   vertex 0.0041390000842511654 -0.054166000336408615 0.035829000174999237
   vertex 0.0074599999934434891 -0.058812998235225677 0.037716001272201538
  endloop
 endfacet
 facet normal -0.75222659869881248 -0.42996888646113629 -0.49928138447711645
  outer loop
   vertex 0.0001900000061141327 -0.048588000237941742 0.03697500005364418
   vertex 0.0014090000186115503 -0.04922499880194664 0.035686999559402466
   vertex 0.0041390000842511654 -0.054166000336408615 0.035829000174999237
  endloop
 endfacet
 facet normal 0.7380004191234979 0.16987844311064151 0.65306714504700514
  outer loop
   vertex -0.000653000024612993 -0.042688999325037003 0.036316998302936554
   vertex 0.0014090000186115503 -0.04922499880194664 0.035686999559402466
   vertex 0.00056700001005083323 -0.043717999011278152 0.035206001251935959
  endloop
 endfacet
 facet normal 0.4360715398826116 0.082580011970858555 0.89611503375811119
  outer loop
   vertex -0.0032140000257641077 -0.036804001778364182 0.027434000745415688
   vertex -0.0071370000950992107 -0.038387998938560486 0.029488999396562576
   vertex -0.0072050001472234726 -0.04416000097990036 0.030053999274969101
  endloop
 endfacet
 facet normal -0.36980308802491818 0.16249658116859175 0.91478988691160856
  outer loop
   vertex -0.00013299999409355223 -0.037443000823259354 0.028792999684810638
   vertex -0.0032140000257641077 -0.036804001778364182 0.027434000745415688
   vertex -0.00355300004594028 -0.04220300167798996 0.028255999088287354
  endloop
 endfacet
 facet normal -0.99443150744394193 -0.045700057144064866 0.094960422175758688
  outer loop
   vertex -0.0071370000950992107 -0.038387998938560486 0.029488999396562576
   vertex -0.0064400001429021358 -0.042174000293016434 0.03496599942445755
   vertex -0.0068160002119839191 -0.036706000566482544 0.033659998327493668
  endloop
 endfacet
 facet normal -0.87885323598870013 0.084115368986832015 0.46961856255092743
  outer loop
   vertex 0.0011149999918416142 -0.038244001567363739 0.031272001564502716
   vertex -0.00013299999409355223 -0.037443000823259354 0.028792999684810638
   vertex -0.00043899999582208693 -0.043320000171661377 0.029272999614477158
  endloop
 endfacet
 facet normal -0.70082804932368059 0.16273650206755755 0.69451916904861655
  outer loop
   vertex -0.0068160002119839191 -0.036706000566482544 0.033659998327493668
   vertex -0.0049950000829994678 -0.041825000196695328 0.03669700026512146
   vertex -0.0056509999558329582 -0.036520000547170639 0.034791998565196991
  endloop
 endfacet
 facet normal 0.9814063943583794 0.063125803948796202 0.18126395667176443
  outer loop
   vertex 0.00053800002206116915 -0.03799699991941452 0.034309998154640198
   vertex 0.001395000028423965 -0.044006999582052231 0.031762998551130295
   vertex 0.0011149999918416142 -0.038244001567363739 0.031272001564502716
  endloop
 endfacet
 facet normal -0.18270748124672964 0.093905549399373248 0.97867242941061627
  outer loop
   vertex -0.0056509999558329582 -0.036520000547170639 0.034791998565196991
   vertex -0.000653000024612993 -0.042688999325037003 0.036316998302936554
   vertex -0.0012779999524354935 -0.037110000848770142 0.035665001720190048
  endloop
 endfacet
 facet normal 0.63139909393862803 0.12310987378471799 0.76562336899430539
  outer loop
   vertex -0.0012779999524354935 -0.037110000848770142 0.035665001720190048
   vertex 0.00056700001005083323 -0.043717999011278152 0.035206001251935959
   vertex 0.00053800002206116915 -0.03799699991941452 0.034309998154640198
  endloop
 endfacet
 facet normal 0.37926606352679737 0.12840815970435274 0.9163343263123066
  outer loop
   vertex -0.0025700000114738941 -0.031424999237060547 0.026622999459505081
   vertex -0.0064630000852048397 -0.032685998827219009 0.028410999104380608
   vertex -0.0071370000950992107 -0.038387998938560486 0.029488999396562576
  endloop
 endfacet
 facet normal -0.33007106525595897 0.17924998779747703 0.92678073661217242
  outer loop
   vertex 0.00060899998061358929 -0.03166700154542923 0.027801999822258949
   vertex -0.0025700000114738941 -0.031424999237060547 0.026622999459505081
   vertex -0.0032140000257641077 -0.036804001778364182 0.027434000745415688
  endloop
 endfacet
 facet normal -0.99794645323000586 0.004171967377957185 -0.06391769061729953
  outer loop
   vertex -0.0064630000852048397 -0.032685998827219009 0.028410999104380608
   vertex -0.0068160002119839191 -0.036706000566482544 0.033659998327493668
   vertex -0.0067170001566410065 -0.031179999932646751 0.032474998384714127
  endloop
 endfacet
 facet normal -0.91943973998589057 0.178251289238229 0.3505096894803153
  outer loop
   vertex 0.0011909999884665012 -0.032641001045703888 0.029823999851942062
   vertex 0.00060899998061358929 -0.03166700154542923 0.027801999822258949
   vertex -0.00013299999409355223 -0.037443000823259354 0.028792999684810638
  endloop
 endfacet
 facet normal -0.59883500313731841 0.21517478947723118 0.77142494708879938
  outer loop
   vertex -0.0067170001566410065 -0.031179999932646751 0.032474998384714127
   vertex -0.0056509999558329582 -0.036520000547170639 0.034791998565196991
   vertex -0.0054660001769661903 -0.0309859998524189 0.033392000943422318
  endloop
 endfacet
 facet normal 0.97401439276423563 0.044194706611665073 0.22213237178679343
  outer loop
   vertex 0.00044699999853037298 -0.032372999936342239 0.033032998442649841
   vertex 0.0011149999918416142 -0.038244001567363739 0.031272001564502716
   vertex 0.0011909999884665012 -0.032641001045703888 0.029823999851942062
  endloop
 endfacet
 facet normal -0.27574272845256326 0.16303291536646947 0.94730471138522565
  outer loop
   vertex -0.0054660001769661903 -0.0309859998524189 0.033392000943422318
   vertex -0.0012779999524354935 -0.037110000848770142 0.035665001720190048
   vertex -0.0012949999654665589 -0.031426999717950821 0.034681998193264008
  endloop
 endfacet
 facet normal 0.72364950783826687 0.16393531327051508 0.67041524659596774
  outer loop
   vertex -0.0012949999654665589 -0.031426999717950821 0.034681998193264008
   vertex 0.00053800002206116915 -0.03799699991941452 0.034309998154640198
   vertex 0.00044699999853037298 -0.032372999936342239 0.033032998442649841
  endloop
 endfacet
 facet normal 0.4077951081263958 0.13175134860994914 0.90351797543139156
  outer loop
   vertex -0.0021069999784231186 -0.026095999404788017 0.025483999401330948
   vertex -0.0056599997915327549 -0.027045000344514847 0.027225999161601067
   vertex -0.0064630000852048397 -0.032685998827219009 0.028410999104380608
  endloop
 endfacet
 facet normal -0.057781547874804169 0.21346443863861889 0.97524059911484973
  outer loop
   vertex 0.00086600001668557525 -0.026172999292612076 0.025676999241113663
   vertex -0.0021069999784231186 -0.026095999404788017 0.025483999401330948
   vertex -0.0025700000114738941 -0.031424999237060547 0.026622999459505081
  endloop
 endfacet
 facet normal 0.98562640345433994 -0.045375653889944474 0.1627318126480575
  outer loop
   vertex -0.0056599997915327549 -0.027045000344514847 0.027225999161601067
   vertex -0.0062629999592900276 -0.025683000683784485 0.031257998198270798
   vertex -0.0067170001566410065 -0.031179999932646751 0.032474998384714127
  endloop
 endfacet
 facet normal -0.87492726856256542 0.20974864522293754 0.4364719699508674
  outer loop
   vertex 0.0019020000472664833 -0.027134999632835388 0.028216000646352768
   vertex 0.00086600001668557525 -0.026172999292612076 0.025676999241113663
   vertex 0.00060899998061358929 -0.03166700154542923 0.027801999822258949
  endloop
 endfacet
 facet normal -0.62717526585314265 0.20781020857606272 0.75064379242994694
  outer loop
   vertex -0.0062629999592900276 -0.025683000683784485 0.031257998198270798
   vertex -0.0054660001769661903 -0.0309859998524189 0.033392000943422318
   vertex -0.0048960000276565552 -0.025426000356674194 0.032329000532627106
  endloop
 endfacet
 facet normal 0.94807903619168454 -0.029959801908937638 0.31662051639687488
  outer loop
   vertex 0.00073400000110268593 -0.026907000690698624 0.031734999269247055
   vertex 0.0011909999884665012 -0.032641001045703888 0.029823999851942062
   vertex 0.0019020000472664833 -0.027134999632835388 0.028216000646352768
  endloop
 endfacet
 facet normal -0.24848730922102788 0.22070356998008278 0.94315639814091279
  outer loop
   vertex -0.0048960000276565552 -0.025426000356674194 0.032329000532627106
   vertex -0.0012949999654665589 -0.031426999717950821 0.034681998193264008
   vertex -0.00063899997621774673 -0.025727000087499619 0.033521000295877457
  endloop
 endfacet
 facet normal 0.8178749977176567 0.091938847889891345 0.56800328903715203
  outer loop
   vertex -0.00063899997621774673 -0.025727000087499619 0.033521000295877457
   vertex 0.00044699999853037298 -0.032372999936342239 0.033032998442649841
   vertex 0.00073400000110268593 -0.026907000690698624 0.031734999269247055
  endloop
 endfacet
 facet normal 0.51761040161992355 0.12766059928689918 0.84603915011338049
  outer loop
   vertex -0.0018119999440386891 -0.020850000903010368 0.023936999961733818
   vertex -0.0049379998818039894 -0.021409999579191208 0.025933999568223953
   vertex -0.0056599997915327549 -0.027045000344514847 0.027225999161601067
  endloop
 endfacet
 facet normal 0.20093656300426527 0.26666802668368833 0.94260949559860707
  outer loop
   vertex 0.00043399998685345054 -0.020774999633431435 0.023437000811100006
   vertex -0.0018119999440386891 -0.020850000903010368 0.023936999961733818
   vertex -0.0021069999784231186 -0.026095999404788017 0.025483999401330948
  endloop
 endfacet
 facet normal 0.97545626263390228 -0.030824881338104914 0.218025013195255
  outer loop
   vertex -0.0049379998818039894 -0.021409999579191208 0.025933999568223953
   vertex -0.0057899998500943184 -0.020221000537276268 0.029913999140262604
   vertex -0.0062629999592900276 -0.025683000683784485 0.031257998198270798
  endloop
 endfacet
 facet normal -0.81087721439787575 0.16776005069110178 0.56065560602071962
  outer loop
   vertex 0.0028329999186098576 -0.021517999470233917 0.027129000052809715
   vertex 0.00043399998685345054 -0.020774999633431435 0.023437000811100006
   vertex 0.00086600001668557525 -0.026172999292612076 0.025676999241113663
  endloop
 endfacet
 facet normal -0.69820730225809213 0.19912857450645655 0.68764407500428859
  outer loop
   vertex -0.0057899998500943184 -0.020221000537276268 0.029913999140262604
   vertex -0.0048960000276565552 -0.025426000356674194 0.032329000532627106
   vertex -0.0042849997989833355 -0.019858000800013542 0.03133700042963028
  endloop
 endfacet
 facet normal 0.95625715574119763 -0.10571243592067564 0.27275837839646988
  outer loop
   vertex 0.0018279999494552612 -0.021421000361442566 0.030689999461174011
   vertex 0.0019020000472664833 -0.027134999632835388 0.028216000646352768
   vertex 0.0028329999186098576 -0.021517999470233917 0.027129000052809715
  endloop
 endfacet
 facet normal -0.13749359687589799 0.26929164478810702 0.95319332816876357
  outer loop
   vertex -0.0042849997989833355 -0.019858000800013542 0.03133700042963028
   vertex -0.00063899997621774673 -0.025727000087499619 0.033521000295877457
   vertex 0.00044699999853037298 -0.020124999806284904 0.032095000147819519
  endloop
 endfacet
 facet normal 0.70975192048844149 -0.0073563251275852769 0.70441329902521443
  outer loop
   vertex 0.00044699999853037298 -0.020124999806284904 0.032095000147819519
   vertex 0.00073400000110268593 -0.026907000690698624 0.031734999269247055
   vertex 0.0018279999494552612 -0.021421000361442566 0.030689999461174011
  endloop
 endfacet
 facet normal 0.61849979394342702 0.14360871419355412 0.77255067283616574
  outer loop
   vertex -0.0014189999783411622 -0.015720000490546227 0.022058999165892601
   vertex -0.0047820000909268856 -0.015734000131487846 0.024754000827670097
   vertex -0.0049379998818039894 -0.021409999579191208 0.025933999568223953
  endloop
 endfacet
 facet normal -0.18646681534732626 0.35030656716138159 0.91788639589975107
  outer loop
   vertex 0.00062599999364465475 -0.014675999991595745 0.022075999528169632
   vertex -0.0014189999783411622 -0.015720000490546227 0.022058999165892601
   vertex -0.0018119999440386891 -0.020850000903010368 0.023936999961733818
  endloop
 endfacet
 facet normal 0.97684895736433486 0.024897374597135528 0.21247643453894352
  outer loop
   vertex -0.0047820000909268856 -0.015734000131487846 0.024754000827670097
   vertex -0.005607999861240387 -0.014774000272154808 0.028439000248908997
   vertex -0.0057899998500943184 -0.020221000537276268 0.029913999140262604
  endloop
 endfacet
 facet normal -0.71773579566891998 0.17310073662239317 0.67445642008678874
  outer loop
   vertex 0.0039820000529289246 -0.01597600057721138 0.025980999693274498
   vertex 0.00062599999364465475 -0.014675999991595745 0.022075999528169632
   vertex 0.00043399998685345054 -0.020774999633431435 0.023437000811100006
  endloop
 endfacet
 facet normal -0.7869210823522188 0.13804158381297166 0.60141477475035399
  outer loop
   vertex -0.005607999861240387 -0.014774000272154808 0.028439000248908997
   vertex -0.0042849997989833355 -0.019858000800013542 0.03133700042963028
   vertex -0.0038560000248253345 -0.014232000336050987 0.03060699999332428
  endloop
 endfacet
 facet normal 0.93619497382247296 -0.12613997552757791 0.32806657489515928
  outer loop
   vertex 0.0026700000744313002 -0.015807000920176506 0.029789999127388
   vertex 0.0028329999186098576 -0.021517999470233917 0.027129000052809715
   vertex 0.0039820000529289246 -0.01597600057721138 0.025980999693274498
  endloop
 endfacet
 facet normal -0.090870457080190606 0.18092127288280516 0.97929058662304258
  outer loop
   vertex -0.0038560000248253345 -0.014232000336050987 0.03060699999332428
   vertex 0.00044699999853037298 -0.020124999806284904 0.032095000147819519
   vertex 0.00065399997401982546 -0.014343000017106533 0.031045999377965927
  endloop
 endfacet
 facet normal 0.55408481813815391 0.050109801488753346 0.83095067368861708
  outer loop
   vertex 0.00065399997401982546 -0.014343000017106533 0.031045999377965927
   vertex 0.0018279999494552612 -0.021421000361442566 0.030689999461174011
   vertex 0.0026700000744313002 -0.015807000920176506 0.029789999127388
  endloop
 endfacet
 facet normal 0.54235092636521809 0.23191494533371571 0.8075090902284936
  outer loop
   vertex -0.0012619999470189214 -0.010347999632358551 0.020842999219894409
   vertex -0.0057509997859597206 -0.0099860001355409622 0.023754000663757324
   vertex -0.0047820000909268856 -0.015734000131487846 0.024754000827670097
  endloop
 endfacet
 facet normal -0.036444149899762371 0.2216398801141021 0.97444732411818447
  outer loop
   vertex 0.0043810000643134117 -0.011103999800980091 0.021226000040769577
   vertex -0.0012619999470189214 -0.010347999632358551 0.020842999219894409
   vertex -0.0014189999783411622 -0.015720000490546227 0.022058999165892601
  endloop
 endfacet
 facet normal -0.97509888136633438 0.13953858344122788 0.17236924113466068
  outer loop
   vertex -0.0057509997859597206 -0.0099860001355409622 0.023754000663757324
   vertex -0.005607999861240387 -0.014774000272154808 0.028439000248908997
   vertex -0.0050149997696280479 -0.009254000149667263 0.027325000613927841
  endloop
 endfacet
 facet normal 0.62974329928733053 -0.72707888329088599 -0.27345872535939636
  outer loop
   vertex 0.0055459998548030853 -0.010916000232100487 0.023408999666571617
   vertex 0.00062599999364465475 -0.014675999991595745 0.022075999528169632
   vertex 0.0043810000643134117 -0.011103999800980091 0.021226000040769577
  endloop
 endfacet
 facet normal -0.86317550589746639 0.12204418717125744 0.48993189567159218
  outer loop
   vertex -0.0050149997696280479 -0.009254000149667263 0.027325000613927841
   vertex -0.0038560000248253345 -0.014232000336050987 0.03060699999332428
   vertex -0.0034350000787526369 -0.0086249997839331627 0.029952000826597214
  endloop
 endfacet
 facet normal 0.94637003762907546 -0.14601972656770934 0.28820477326205707
  outer loop
   vertex 0.0041780001483857632 -0.010324000380933285 0.028201000764966011
   vertex 0.0039820000529289246 -0.01597600057721138 0.025980999693274498
   vertex 0.0055459998548030853 -0.010916000232100487 0.023408999666571617
  endloop
 endfacet
 facet normal -0.17741490126761461 0.061056304886926281 0.98224033741328154
  outer loop
   vertex -0.0034350000787526369 -0.0086249997839331627 0.029952000826597214
   vertex 0.00065399997401982546 -0.014343000017106533 0.031045999377965927
   vertex 0.00084300001617521048 -0.008678000420331955 0.030727999284863472
  endloop
 endfacet
 facet normal 0.62041417531754695 0.056070943029087057 0.78226740978573117
  outer loop
   vertex 0.00084300001617521048 -0.008678000420331955 0.030727999284863472
   vertex 0.0026700000744313002 -0.015807000920176506 0.029789999127388
   vertex 0.0041780001483857632 -0.010324000380933285 0.028201000764966011
  endloop
 endfacet
 facet normal -0.29957324573730693 -0.46777396575360852 -0.83153074952256401
  outer loop
   vertex 0.00024500000290572643 -0.0066550001502037048 0.01971999928355217
   vertex -0.0057509997859597206 -0.0099860001355409622 0.023754000663757324
   vertex -0.0052370000630617142 -0.0056239999830722809 0.021114999428391457
  endloop
 endfacet
 facet normal 0.12916574216567503 -0.3363715461918555 -0.93282924158888303
  outer loop
   vertex 0.005394000094383955 -0.0073899999260902405 0.020697999745607376
   vertex -0.0012619999470189214 -0.010347999632358551 0.020842999219894409
   vertex 0.00024500000290572643 -0.0066550001502037048 0.01971999928355217
  endloop
 endfacet
 facet normal -0.99868818945423377 0.019745719584174398 0.047244119239620824
  outer loop
   vertex -0.0052370000630617142 -0.0056239999830722809 0.021114999428391457
   vertex -0.0050149997696280479 -0.009254000149667263 0.027325000613927841
   vertex -0.0049540000036358833 -0.0039579998701810837 0.02640100009739399
  endloop
 endfacet
 facet normal 0.573544316314198 -0.26655522022020472 -0.77459359137359074
  outer loop
   vertex 0.0069019999355077744 -0.0062230001203715801 0.021413000300526619
   vertex 0.0043810000643134117 -0.011103999800980091 0.021226000040769577
   vertex 0.005394000094383955 -0.0073899999260902405 0.020697999745607376
  endloop
 endfacet
 facet normal -0.86448500056872535 0.094299776106157293 0.49373397292268612
  outer loop
   vertex -0.0049540000036358833 -0.0039579998701810837 0.02640100009739399
   vertex -0.0034350000787526369 -0.0086249997839331627 0.029952000826597214
   vertex -0.0032579998951405287 -0.0038189999759197235 0.029343999922275543
  endloop
 endfacet
 facet normal 0.9436781710186718 -0.14648999556452172 0.29666848626431647
  outer loop
   vertex 0.0047160000540316105 -0.0058229998685419559 0.028564000502228737
   vertex 0.0055459998548030853 -0.010916000232100487 0.023408999666571617
   vertex 0.0069019999355077744 -0.0062230001203715801 0.021413000300526619
  endloop
 endfacet
 facet normal -0.046189965105387414 0.23739251906036091 0.97031504111692468
  outer loop
   vertex -0.0032579998951405287 -0.0038189999759197235 0.029343999922275543
   vertex 0.00084300001617521048 -0.008678000420331955 0.030727999284863472
   vertex 0.001858999952673912 -0.004629999864846468 0.029786000028252602
  endloop
 endfacet
 facet normal 0.34897862028760174 -0.11670306552799474 0.92983563981949546
  outer loop
   vertex 0.001858999952673912 -0.004629999864846468 0.029786000028252602
   vertex 0.0041780001483857632 -0.010324000380933285 0.028201000764966011
   vertex 0.0047160000540316105 -0.0058229998685419559 0.028564000502228737
  endloop
 endfacet
 facet normal 0.13785772250799078 0.97427013101633919 -0.17830580516156833
  outer loop
   vertex 0.00068100000498816371 -0.0058320001699030399 0.024553999304771423
   vertex 0.00024500000290572643 -0.0066550001502037048 0.01971999928355217
   vertex -0.0052370000630617142 -0.0056239999830722809 0.021114999428391457
  endloop
 endfacet
 facet normal 0.17249677385868475 0.96834549188355734 -0.18042137167513422
  outer loop
   vertex 0.00068100000498816371 -0.0058320001699030399 0.024553999304771423
   vertex 0.005394000094383955 -0.0073899999260902405 0.020697999745607376
   vertex 0.00024500000290572643 -0.0066550001502037048 0.01971999928355217
  endloop
 endfacet
 facet normal 0.20938572377069853 0.92934030194824491 -0.30411218629934178
  outer loop
   vertex 0.00068100000498816371 -0.0058320001699030399 0.024553999304771423
   vertex -0.0052370000630617142 -0.0056239999830722809 0.021114999428391457
   vertex -0.0049540000036358833 -0.0039579998701810837 0.02640100009739399
  endloop
 endfacet
 facet normal -0.26985469811422003 0.73199469830275909 -0.62558948485595223
  outer loop
   vertex 0.00068100000498816371 -0.0058320001699030399 0.024553999304771423
   vertex 0.0069019999355077744 -0.0062230001203715801 0.021413000300526619
   vertex 0.005394000094383955 -0.0073899999260902405 0.020697999745607376
  endloop
 endfacet
 facet normal 0.25297429246316272 0.948515595467748 -0.19058376769081239
  outer loop
   vertex 0.00068100000498816371 -0.0058320001699030399 0.024553999304771423
   vertex -0.0049540000036358833 -0.0039579998701810837 0.02640100009739399
   vertex -0.0032579998951405287 -0.0038189999759197235 0.029343999922275543
  endloop
 endfacet
 facet normal 0.040853281866942266 0.9982243844518609 -0.043348444567290555
  outer loop
   vertex 0.00068100000498816371 -0.0058320001699030399 0.024553999304771423
   vertex 0.0047160000540316105 -0.0058229998685419559 0.028564000502228737
   vertex 0.0069019999355077744 -0.0062230001203715801 0.021413000300526619
  endloop
 endfacet
 facet normal 0.17291078545335775 0.95072217564827621 -0.25735035458400135
  outer loop
   vertex 0.00068100000498816371 -0.0058320001699030399 0.024553999304771423
   vertex -0.0032579998951405287 -0.0038189999759197235 0.029343999922275543
   vertex 0.001858999952673912 -0.004629999864846468 0.029786000028252602
  endloop
 endfacet
 facet normal 0.26903266272117887 0.92369412542164053 -0.2727830439208111
  outer loop
   vertex 0.00068100000498816371 -0.0058320001699030399 0.024553999304771423
   vertex 0.001858999952673912 -0.004629999864846468 0.029786000028252602
   vertex 0.0047160000540316105 -0.0058229998685419559 0.028564000502228737
  endloop
 endfacet
endsolid
