solid Visualization Toolkit generated SLA File
 facet normal 0.025402972614364357 0.9990848807717484 0.034410608766120197
  outer loop
   vertex 0.0053440001793205738 -0.0073850001208484173 -0.0044590001925826073
   vertex -0.00083099998300895095 -0.007602000143378973 0.006399999838322401
   vertex 0.0044399998150765896 -0.0075790002010762691 0.001841000048443675
  endloop
 endfacet
 facet normal 0.88294016014653054 -0.45576787431722182 0.11266018968908256
  outer loop
   vertex 0.00291600008495152 -0.012147000059485435 -0.0046950001269578934
   vertex 0.0053440001793205738 -0.0073850001208484173 -0.0044590001925826073
   vertex 0.0044399998150765896 -0.0075790002010762691 0.001841000048443675
  endloop
 endfacet
 facet normal 0.4617279428949973 -0.12615843846144195 -0.8780041885748181
  outer loop
   vertex 0.0053440001793205738 -0.0073850001208484173 -0.0044590001925826073
   vertex 0.00025899999309331179 -0.011311000213027 -0.0065689999610185623
   vertex 0.00065699999686330557 -0.0068199997767806053 -0.0070050000213086605
  endloop
 endfacet
 facet normal 0.60522723370515397 -0.383083824403815 0.6978157199875582
  outer loop
   vertex -0.00083099998300895095 -0.007602000143378973 0.006399999838322401
   vertex 0.0028890001121908426 -0.0122079998254776 0.00064500002190470695
   vertex 0.0044399998150765896 -0.0075790002010762691 0.001841000048443675
  endloop
 endfacet
 facet normal -0.70904061116447359 -0.24051666320065027 0.66288245296005133
  outer loop
   vertex -0.0055359997786581516 -0.0071290000341832638 0.001538999960757792
   vertex -0.00018899999849963933 -0.012620000168681145 0.0052660000510513783
   vertex -0.00083099998300895095 -0.007602000143378973 0.006399999838322401
  endloop
 endfacet
 facet normal -0.99072764729376328 -0.10617275685506122 -0.08477071776008864
  outer loop
   vertex -0.0051099997945129871 -0.0070170001126825809 -0.0035800000187009573
   vertex -0.0049680001102387905 -0.012005999684333801 0.0010089999996125698
   vertex -0.0055359997786581516 -0.0071290000341832638 0.001538999960757792
  endloop
 endfacet
 facet normal -0.50491019395405567 -0.10806114149672562 -0.85638104003983095
  outer loop
   vertex 0.00065699999686330557 -0.0068199997767806053 -0.0070050000213086605
   vertex -0.0045650000683963299 -0.011726999655365944 -0.0033070000354200602
   vertex -0.0051099997945129871 -0.0070170001126825809 -0.0035800000187009573
  endloop
 endfacet
 facet normal 0.98585831507287391 -0.16755283790226663 0.0030706860098095872
  outer loop
   vertex 0.0028890001121908426 -0.0122079998254776 0.00064500002190470695
   vertex 0.0020500000100582838 -0.017247999086976051 -0.0049990001134574413
   vertex 0.00291600008495152 -0.012147000059485435 -0.0046950001269578934
  endloop
 endfacet
 facet normal 0.55770087735166607 -0.07957300817872115 -0.82621901925008423
  outer loop
   vertex 0.00291600008495152 -0.012147000059485435 -0.0046950001269578934
   vertex 7.0000000960135367e-06 -0.016025999560952187 -0.0062850001268088818
   vertex 0.00025899999309331179 -0.011311000213027 -0.0065689999610185623
  endloop
 endfacet
 facet normal 0.78333127820389392 -0.38582836708373974 0.48736903855389591
  outer loop
   vertex -0.00018899999849963933 -0.012620000168681145 0.0052660000510513783
   vertex 0.0014600000577047467 -0.016860000789165497 -0.00074099999619647861
   vertex 0.0028890001121908426 -0.0122079998254776 0.00064500002190470695
  endloop
 endfacet
 facet normal -0.56325386810081235 0.10843733943861024 -0.81913760961449478
  outer loop
   vertex 0.00025899999309331179 -0.011311000213027 -0.0065689999610185623
   vertex -0.0036420000251382589 -0.016277000308036804 -0.0045440001413226128
   vertex -0.0045650000683963299 -0.011726999655365944 -0.0033070000354200602
  endloop
 endfacet
 facet normal -0.6630379398937275 -0.23658356231841871 0.71021750774126124
  outer loop
   vertex -0.0049680001102387905 -0.012005999684333801 0.0010089999996125698
   vertex -0.00059399998281151056 -0.017620999366044998 0.0032220000866800547
   vertex -0.00018899999849963933 -0.012620000168681145 0.0052660000510513783
  endloop
 endfacet
 facet normal -0.98804637645887206 -0.11744957224275425 -0.099849666731976719
  outer loop
   vertex -0.0045650000683963299 -0.011726999655365944 -0.0033070000354200602
   vertex -0.0043480000458657742 -0.01688000001013279 0.00060700002359226346
   vertex -0.0049680001102387905 -0.012005999684333801 0.0010089999996125698
  endloop
 endfacet
 facet normal 0.98996617865181213 -0.023588227372193397 0.1393217881559311
  outer loop
   vertex 0.0014600000577047467 -0.016860000789165497 -0.00074099999619647861
   vertex 0.0020779999904334545 -0.022817999124526978 -0.0061409999616444111
   vertex 0.0020500000100582838 -0.017247999086976051 -0.0049990001134574413
  endloop
 endfacet
 facet normal 0.52400236027845115 -0.020023153055351635 -0.85148141480852901
  outer loop
   vertex 0.0020500000100582838 -0.017247999086976051 -0.0049990001134574413
   vertex -0.00046400001156143844 -0.020655000582337379 -0.0064659998752176762
   vertex 7.0000000960135367e-06 -0.016025999560952187 -0.0062850001268088818
  endloop
 endfacet
 facet normal 0.89084198230895961 -0.11325412539504293 0.43997052814574655
  outer loop
   vertex -0.00059399998281151056 -0.017620999366044998 0.0032220000866800547
   vertex 0.0012179999612271786 -0.021817000582814217 -0.0015269999857991934
   vertex 0.0014600000577047467 -0.016860000789165497 -0.00074099999619647861
  endloop
 endfacet
 facet normal -0.4341922682876303 0.11525821057878387 -0.89341626303387778
  outer loop
   vertex 7.0000000960135367e-06 -0.016025999560952187 -0.0062850001268088818
   vertex -0.0031330001074820757 -0.020956000313162804 -0.0053949998691678047
   vertex -0.0036420000251382589 -0.016277000308036804 -0.0045440001413226128
  endloop
 endfacet
 facet normal -0.58530860047227085 -0.16051880615093708 0.794762577808662
  outer loop
   vertex -0.0043480000458657742 -0.01688000001013279 0.00060700002359226346
   vertex -0.00077099999180063605 -0.022921999916434288 0.0020210000220686197
   vertex -0.00059399998281151056 -0.017620999366044998 0.0032220000866800547
  endloop
 endfacet
 facet normal -0.99076509980736038 0.0018650672134155966 -0.13557668873372233
  outer loop
   vertex -0.0036420000251382589 -0.016277000308036804 -0.0045440001413226128
   vertex -0.0042039998807013035 -0.021726999431848526 -0.00051199999870732427
   vertex -0.0043480000458657742 -0.01688000001013279 0.00060700002359226346
  endloop
 endfacet
 facet normal -0.96516651988318269 -0.22663547656168681 -0.13072853422356978
  outer loop
   vertex 0.0012179999612271786 -0.021817000582814217 -0.0015269999857991934
   vertex 0.0020779999904334545 -0.022817999124526978 -0.0061409999616444111
   vertex 0.0033609999809414148 -0.02779100090265274 -0.0069920001551508904
  endloop
 endfacet
 facet normal 0.25893823381017628 0.16121556294643472 -0.95234475550355746
  outer loop
   vertex 0.0020779999904334545 -0.022817999124526978 -0.0061409999616444111
   vertex 0.00010299999848939478 -0.025304999202489853 -0.0070989998057484627
   vertex -0.00046400001156143844 -0.020655000582337379 -0.0064659998752176762
  endloop
 endfacet
 facet normal -0.86412673804979145 -0.051899620217149646 -0.50059106065604342
  outer loop
   vertex -0.00077099999180063605 -0.022921999916434288 0.0020210000220686197
   vertex 0.0012179999612271786 -0.021817000582814217 -0.0015269999857991934
   vertex 0.0020220000296831131 -0.026706000789999962 -0.0024079999420791864
  endloop
 endfacet
 facet normal -0.37077094745525424 -0.016351835877533895 -0.92858037992764375
  outer loop
   vertex -0.00046400001156143844 -0.020655000582337379 -0.0064659998752176762
   vertex -0.0028959999326616526 -0.025761999189853668 -0.0054049999453127384
   vertex -0.0031330001074820757 -0.020956000313162804 -0.0053949998691678047
  endloop
 endfacet
 facet normal -0.6318434208542576 -0.30255101765125131 0.71360827716708952
  outer loop
   vertex -0.0042039998807013035 -0.021726999431848526 -0.00051199999870732427
   vertex -3.1999999919207767e-05 -0.028132999315857887 0.00046599999768659472
   vertex -0.00077099999180063605 -0.022921999916434288 0.0020210000220686197
  endloop
 endfacet
 facet normal -0.97732125953688154 0.036361113795878024 -0.20861693378239082
  outer loop
   vertex -0.0031330001074820757 -0.020956000313162804 -0.0053949998691678047
   vertex -0.004207999911159277 -0.026607999578118324 -0.0013439999893307686
   vertex -0.0042039998807013035 -0.021726999431848526 -0.00051199999870732427
  endloop
 endfacet
 facet normal -0.84582739890234782 -0.51877848023273287 -0.12427751089197346
  outer loop
   vertex 0.0020220000296831131 -0.026706000789999962 -0.0024079999420791864
   vertex 0.0033609999809414148 -0.02779100090265274 -0.0069920001551508904
   vertex 0.0060560000129044056 -0.032133001834154129 -0.0072090001776814461
  endloop
 endfacet
 facet normal 0.13222531020514594 0.13099757211460575 -0.98252537038044552
  outer loop
   vertex 0.0033609999809414148 -0.02779100090265274 -0.0069920001551508904
   vertex 0.00056299997959285975 -0.029976999387145042 -0.0076600001193583012
   vertex 0.00010299999848939478 -0.025304999202489853 -0.0070989998057484627
  endloop
 endfacet
 facet normal -0.78890852055739658 -0.089033336817590028 -0.60802665330318006
  outer loop
   vertex -3.1999999919207767e-05 -0.028132999315857887 0.00046599999768659472
   vertex 0.0020220000296831131 -0.026706000789999962 -0.0024079999420791864
   vertex 0.0032599999103695154 -0.031665999442338943 -0.0032879998907446861
  endloop
 endfacet
 facet normal -0.47589700418500663 -0.11102854940055933 -0.87246472858548463
  outer loop
   vertex 0.00010299999848939478 -0.025304999202489853 -0.0070989998057484627
   vertex -0.0021480000577867031 -0.030469000339508057 -0.0052140001207590103
   vertex -0.0028959999326616526 -0.025761999189853668 -0.0054049999453127384
  endloop
 endfacet
 facet normal 0.36380010593710921 -0.1026118821446773 -0.92580790910581179
  outer loop
   vertex -0.004207999911159277 -0.026607999578118324 -0.0013439999893307686
   vertex -3.1999999919207767e-05 -0.028132999315857887 0.00046599999768659472
   vertex 0.00070999999297782779 -0.033424001187086105 0.0013439999893307686
  endloop
 endfacet
 facet normal -0.94821610055154171 -0.041248500626595061 -0.31493616472372027
  outer loop
   vertex -0.0028959999326616526 -0.025761999189853668 -0.0054049999453127384
   vertex -0.0037370000500231981 -0.031541001051664352 -0.0021160000469535589
   vertex -0.004207999911159277 -0.026607999578118324 -0.0013439999893307686
  endloop
 endfacet
 facet normal 0.42503138469672108 -0.8120981802707401 0.39980603750286275
  outer loop
   vertex 0.0032599999103695154 -0.031665999442338943 -0.0032879998907446861
   vertex 0.0020969999022781849 -0.034752000123262405 -0.008320000022649765
   vertex 0.0060560000129044056 -0.032133001834154129 -0.0072090001776814461
  endloop
 endfacet
 facet normal 0.11032165995584212 0.073740782669484181 -0.99115661139694755
  outer loop
   vertex 0.0060560000129044056 -0.032133001834154129 -0.0072090001776814461
   vertex 0.00059200002579018474 -0.034671001136302948 -0.0080059999600052834
   vertex 0.00056299997959285975 -0.029976999387145042 -0.0076600001193583012
  endloop
 endfacet
 facet normal 0.85949264592174068 -0.39638519664331856 0.32272460006712039
  outer loop
   vertex 0.00070999999297782779 -0.033424001187086105 0.0013439999893307686
   vertex 0.0021180000621825457 -0.035645999014377594 -0.005135000217705965
   vertex 0.0032599999103695154 -0.031665999442338943 -0.0032879998907446861
  endloop
 endfacet
 facet normal -0.64718405017006864 -0.14989784960407185 -0.74745129599830173
  outer loop
   vertex 0.00056299997959285975 -0.029976999387145042 -0.0076600001193583012
   vertex -0.00020500000391621143 -0.034788999706506729 -0.006029999814927578
   vertex -0.0021480000577867031 -0.030469000339508057 -0.0052140001207590103
  endloop
 endfacet
 facet normal -0.66307271466176188 -0.35523417068166102 0.65889548416360721
  outer loop
   vertex -0.0037370000500231981 -0.031541001051664352 -0.0021160000469535589
   vertex -0.0012189999688416719 -0.03627999871969223 -0.002136999974027276
   vertex 0.00070999999297782779 -0.033424001187086105 0.0013439999893307686
  endloop
 endfacet
 facet normal -0.77388814225067226 -0.35956282458984962 -0.52135565447856436
  outer loop
   vertex -0.0021480000577867031 -0.030469000339508057 -0.0052140001207590103
   vertex -0.0015899999998509884 -0.035930000245571136 -0.0022760001011192799
   vertex -0.0037370000500231981 -0.031541001051664352 -0.0021160000469535589
  endloop
 endfacet
 facet normal -0.10744745747041431 -0.95740151408572116 -0.26802497030969352
  outer loop
   vertex 0.0021180000621825457 -0.035645999014377594 -0.005135000217705965
   vertex 0.00059200002579018474 -0.034671001136302948 -0.0080059999600052834
   vertex 0.0020969999022781849 -0.034752000123262405 -0.008320000022649765
  endloop
 endfacet
 facet normal -0.1813877611413473 -0.90165581467751976 -0.39257518001823211
  outer loop
   vertex -0.0012189999688416719 -0.03627999871969223 -0.002136999974027276
   vertex -0.00020500000391621143 -0.034788999706506729 -0.006029999814927578
   vertex 0.0021180000621825457 -0.035645999014377594 -0.005135000217705965
  endloop
 endfacet
endsolid
