solid Visualization Toolkit generated SLA File
 facet normal -0.92216484805004273 -0.35572828082891478 -0.15188608639156695
  outer loop
   vertex 0.0046370001509785652 -0.10104800015687943 0.039110001176595688
   vertex 0.0049470001831650734 -0.10064499825239182 0.036283999681472778
   vertex 0.0068259998224675655 -0.1061210036277771 0.037700999528169632
  endloop
 endfacet
 facet normal 0.82758561421983357 0.20368615984479971 0.5230812550876387
  outer loop
   vertex 0.0022780001163482666 -0.096166998147964478 0.038763001561164856
   vertex 0.0049470001831650734 -0.10064499825239182 0.036283999681472778
   vertex 0.0038449999410659075 -0.095147997140884399 0.035886999219655991
  endloop
 endfacet
 facet normal 0.18198182051867165 0.060765969514035324 0.98142249513129121
  outer loop
   vertex 0.0074189999140799046 -0.10600399971008301 0.038901001214981079
   vertex 0.0046370001509785652 -0.10104800015687943 0.039110001176595688
   vertex 0.0020779999904334545 -0.098600998520851135 0.03943299874663353
  endloop
 endfacet
 facet normal -0.85803302339374765 -0.39101618689371986 0.33299500349536787
  outer loop
   vertex 0.0046370001509785652 -0.10104800015687943 0.039110001176595688
   vertex 0.0013670000480487943 -0.093387000262737274 0.039680000394582748
   vertex 0.0022780001163482666 -0.096166998147964478 0.038763001561164856
  endloop
 endfacet
 facet normal -0.58769999365587833 -0.2033572833337404 0.78310569706266431
  outer loop
   vertex 0.0049470001831650734 -0.10064499825239182 0.036283999681472778
   vertex 0.0030380000825971365 -0.10006099939346313 0.035002999007701874
   vertex 0.0050869998522102833 -0.10501600056886673 0.035254001617431641
  endloop
 endfacet
 facet normal -0.77291171813188875 0.012811690362178762 0.63438421840748482
  outer loop
   vertex 0.0038449999410659075 -0.095147997140884399 0.035886999219655991
   vertex 0.0026539999525994062 -0.09450799971818924 0.034423001110553741
   vertex 0.0030380000825971365 -0.10006099939346313 0.035002999007701874
  endloop
 endfacet
 facet normal 0.6951696099458089 -0.32540268383929338 -0.64097761798519692
  outer loop
   vertex 0.0068259998224675655 -0.1061210036277771 0.037700999528169632
   vertex 0.0032140000257641077 -0.10975799709558487 0.0356299988925457
   vertex 0.0050869998522102833 -0.10501600056886673 0.035254001617431641
  endloop
 endfacet
 facet normal 0.75704225411624271 -0.57048876012918037 -0.31848014074486447
  outer loop
   vertex 0.0074189999140799046 -0.10600399971008301 0.038901001214981079
   vertex 0.0032140000257641077 -0.10975799709558487 0.0356299988925457
   vertex 0.0068259998224675655 -0.1061210036277771 0.037700999528169632
  endloop
 endfacet
 facet normal 0.64010743848010698 -0.76620780728860516 0.056462936980145165
  outer loop
   vertex 0.0032140000257641077 -0.10975799709558487 0.0356299988925457
   vertex 0.0074189999140799046 -0.10600399971008301 0.038901001214981079
   vertex 0.0034980000928044319 -0.10930600017309189 0.038543999195098877
  endloop
 endfacet
 facet normal -0.025350226093901918 -0.077653144922695969 0.99665809339040778
  outer loop
   vertex 0.0034980000928044319 -0.10930600017309189 0.038543999195098877
   vertex 0.0074189999140799046 -0.10600399971008301 0.038901001214981079
   vertex 0.0033619999885559082 -0.10371699929237366 0.038975998759269714
  endloop
 endfacet
 facet normal -0.95118432404796194 -0.18763826526719327 -0.24503114718937294
  outer loop
   vertex 0.002125999890267849 -0.090157002210617065 0.038738001137971878
   vertex 0.0026579999830573797 -0.089486002922058105 0.036159001290798187
   vertex 0.0038449999410659075 -0.095147997140884399 0.035886999219655991
  endloop
 endfacet
 facet normal 0.82135169027509225 0.023143891570885661 0.56995242008890878
  outer loop
   vertex 0.0013310000067576766 -0.088072001934051514 0.039799001067876816
   vertex 0.0022780001163482666 -0.096166998147964478 0.038763001561164856
   vertex 0.002125999890267849 -0.090157002210617065 0.038738001137971878
  endloop
 endfacet
 facet normal -0.96307519070076786 -0.087275440045806174 0.2546942767741166
  outer loop
   vertex 0.0026579999830573797 -0.089486002922058105 0.036159001290798187
   vertex 0.0020119999535381794 -0.089051999151706696 0.033865001052618027
   vertex 0.0026539999525994062 -0.09450799971818924 0.034423001110553741
  endloop
 endfacet
 facet normal -0.37151082418159875 -0.17469371460946595 0.9118452794152393
  outer loop
   vertex -0.00018499999714549631 -0.09872099757194519 0.038488000631332397
   vertex 0.0033619999885559082 -0.10371699929237366 0.038975998759269714
   vertex 0.0020779999904334545 -0.098600998520851135 0.03943299874663353
  endloop
 endfacet
 facet normal -0.4281249794624396 -0.10092460448975861 0.89806638182757492
  outer loop
   vertex -0.0012710000155493617 -0.093452997505664825 0.038414999842643738
   vertex 0.0020779999904334545 -0.098600998520851135 0.03943299874663353
   vertex 0.0013670000480487943 -0.093387000262737274 0.039680000394582748
  endloop
 endfacet
 facet normal -0.04838109415860916 -0.078144719743118346 0.99576737871065313
  outer loop
   vertex 0.0033619999885559082 -0.10371699929237366 0.038975998759269714
   vertex 0.0013000000035390258 -0.10389299690723419 0.038862001150846481
   vertex 0.0034980000928044319 -0.10930600017309189 0.038543999195098877
  endloop
 endfacet
 facet normal -0.25082018521798749 -0.023366448401183171 0.96775164364434385
  outer loop
   vertex -0.0017559999832883477 -0.088109999895095825 0.03899800032377243
   vertex 0.0013670000480487943 -0.093387000262737274 0.039680000394582748
   vertex 0.0013310000067576766 -0.088072001934051514 0.039799001067876816
  endloop
 endfacet
 facet normal -0.83269934697552372 -0.48958062748764181 0.25869404078050062
  outer loop
   vertex 0.0030380000825971365 -0.10006099939346313 0.035002999007701874
   vertex 0.0028699999675154686 -0.10205899924039841 0.030680999159812927
   vertex 0.0057319998741149902 -0.10685600340366364 0.030814999714493752
  endloop
 endfacet
 facet normal -0.76580820978888664 -0.30299664284806993 0.56721320527887897
  outer loop
   vertex 0.0026539999525994062 -0.09450799971818924 0.034423001110553741
   vertex 0.00086199998622760177 -0.096675001084804535 0.030845999717712402
   vertex 0.0028699999675154686 -0.10205899924039841 0.030680999159812927
  endloop
 endfacet
 facet normal 0.81244274310712583 -0.48734014812244658 0.32005682183099998
  outer loop
   vertex 0.0050869998522102833 -0.10501600056886673 0.035254001617431641
   vertex 0.0028019999153912067 -0.10994900017976761 0.033543001860380173
   vertex 0.0057319998741149902 -0.10685600340366364 0.030814999714493752
  endloop
 endfacet
 facet normal 0.97703120725726023 -0.067322127706744381 -0.20218246997813019
  outer loop
   vertex 0.0020119999535381794 -0.089051999151706696 0.033865001052618027
   vertex 0.00086199998622760177 -0.096675001084804535 0.030845999717712402
   vertex 0.0011449999874457717 -0.090805001556873322 0.030259000137448311
  endloop
 endfacet
 facet normal 0.063974006115915985 -0.99486552923038585 0.078421331859547139
  outer loop
   vertex 0.0018660000059753656 -0.10968600213527679 0.037643000483512878
   vertex 0.0028019999153912067 -0.10994900017976761 0.033543001860380173
   vertex 0.0032140000257641077 -0.10975799709558487 0.0356299988925457
  endloop
 endfacet
 facet normal 0.15228224791084741 -0.97879826540302595 0.13698201566354146
  outer loop
   vertex 0.0032140000257641077 -0.10975799709558487 0.0356299988925457
   vertex 0.0034980000928044319 -0.10930600017309189 0.038543999195098877
   vertex 0.0018660000059753656 -0.10968600213527679 0.037643000483512878
  endloop
 endfacet
 facet normal -0.68058431245530304 -0.31521315536168892 0.6613967495585914
  outer loop
   vertex -0.00025899999309331179 -0.10488499701023102 0.036784999072551727
   vertex 0.0034980000928044319 -0.10930600017309189 0.038543999195098877
   vertex 0.0013000000035390258 -0.10389299690723419 0.038862001150846481
  endloop
 endfacet
 facet normal 0.99985061938895392 0.012942649928174317 -0.011455423185630061
  outer loop
   vertex 0.0026179999113082886 -0.083991996943950653 0.038874998688697815
   vertex 0.0026579999830573797 -0.089486002922058105 0.036159001290798187
   vertex 0.0025800000876188278 -0.083717003464698792 0.035868998616933823
  endloop
 endfacet
 facet normal 0.60881344143028471 -0.066153988349168344 0.7905503420777904
  outer loop
   vertex 0.0012720000231638551 -0.082755997776985168 0.040015000849962234
   vertex 0.002125999890267849 -0.090157002210617065 0.038738001137971878
   vertex 0.0026179999113082886 -0.083991996943950653 0.038874998688697815
  endloop
 endfacet
 facet normal -0.96290686121404268 0.0011601858400575682 0.26983148555299646
  outer loop
   vertex 0.0025800000876188278 -0.083717003464698792 0.035868998616933823
   vertex 0.001867000013589859 -0.08357200026512146 0.033323999494314194
   vertex 0.0020119999535381794 -0.089051999151706696 0.033865001052618027
  endloop
 endfacet
 facet normal -0.16673337216547243 -0.041877564936326959 0.98511230433962904
  outer loop
   vertex -0.0016570000443607569 -0.082714997231960297 0.039521001279354095
   vertex 0.0013310000067576766 -0.088072001934051514 0.039799001067876816
   vertex 0.0012720000231638551 -0.082755997776985168 0.040015000849962234
  endloop
 endfacet
 facet normal -0.95115654728549826 -0.035026616466037067 0.30671543602314971
  outer loop
   vertex 0.001867000013589859 -0.08357200026512146 0.033323999494314194
   vertex 0.0008360000210814178 -0.085005998611450195 0.029962999746203423
   vertex 0.0011449999874457717 -0.090805001556873322 0.030259000137448311
  endloop
 endfacet
 facet normal -0.86666477294553623 -0.21633147151710844 0.44954740102296753
  outer loop
   vertex -0.0011899999808520079 -0.09949299693107605 0.036178998649120331
   vertex 0.0013000000035390258 -0.10389299690723419 0.038862001150846481
   vertex -0.00018499999714549631 -0.09872099757194519 0.038488000631332397
  endloop
 endfacet
 facet normal -0.84919528867678573 -0.16812487055806727 0.50060102835390141
  outer loop
   vertex -0.0026179999113082886 -0.094254001975059509 0.035861000418663025
   vertex -0.00018499999714549631 -0.09872099757194519 0.038488000631332397
   vertex -0.0012710000155493617 -0.093452997505664825 0.038414999842643738
  endloop
 endfacet
 facet normal -0.84858887656033211 -0.13290527219255624 0.51208701135792956
  outer loop
   vertex -0.0035439999774098396 -0.088904000818729401 0.035829000174999237
   vertex -0.0012710000155493617 -0.093452997505664825 0.038414999842643738
   vertex -0.0017559999832883477 -0.088109999895095825 0.03899800032377243
  endloop
 endfacet
 facet normal -0.83822581376897087 -0.037358690930353919 0.54404210622277827
  outer loop
   vertex -0.0040159998461604118 -0.083448998630046844 0.035835999995470047
   vertex -0.0017559999832883477 -0.088109999895095825 0.03899800032377243
   vertex -0.0016570000443607569 -0.082714997231960297 0.039521001279354095
  endloop
 endfacet
 facet normal 0.2791213103435643 0.090818134260976707 0.95595154720385633
  outer loop
   vertex 0.0028699999675154686 -0.10205899924039841 0.030680999159812927
   vertex 0.00070799997774884105 -0.099751003086566925 0.031092999503016472
   vertex 0.0014850000152364373 -0.10496000200510025 0.031360998749732971
  endloop
 endfacet
 facet normal 0.15773105576547336 0.07119066030167108 0.9849125869501929
  outer loop
   vertex 0.00086199998622760177 -0.096675001084804535 0.030845999717712402
   vertex 9.9999999747524271e-07 -0.094545997679233551 0.030829999595880508
   vertex 0.00070799997774884105 -0.099751003086566925 0.031092999503016472
  endloop
 endfacet
 facet normal 0.60387182415426199 -0.76611140652778253 -0.22002757277356585
  outer loop
   vertex 0.0057319998741149902 -0.10685600340366364 0.030814999714493752
   vertex 0.0028019999153912067 -0.10994900017976761 0.033543001860380173
   vertex 0.0021069999784231186 -0.11011800169944763 0.032223999500274658
  endloop
 endfacet
 facet normal -0.20637839005266806 -0.18562529039373332 -0.96070349832063739
  outer loop
   vertex 0.0057319998741149902 -0.10685600340366364 0.030814999714493752
   vertex 0.0021069999784231186 -0.11011800169944763 0.032223999500274658
   vertex 0.0014850000152364373 -0.10496000200510025 0.031360998749732971
  endloop
 endfacet
 facet normal 0.21088874308844266 0.084156366436385299 0.97388071344841898
  outer loop
   vertex 0.0011449999874457717 -0.090805001556873322 0.030259000137448311
   vertex -0.00084200000856071711 -0.089308999478816986 0.030559999868273735
   vertex 9.9999999747524271e-07 -0.094545997679233551 0.030829999595880508
  endloop
 endfacet
 facet normal 0.12937636393272942 0.086597093011836004 0.98780701553362393
  outer loop
   vertex 0.0008360000210814178 -0.085005998611450195 0.029962999746203423
   vertex -0.0014479999663308263 -0.084068998694419861 0.030179999768733978
   vertex -0.00084200000856071711 -0.089308999478816986 0.030559999868273735
  endloop
 endfacet
 facet normal -0.9117472843799419 -0.40943232362650017 -0.032894707714251549
  outer loop
   vertex -0.00062700000125914812 -0.10380399972200394 0.033530000597238541
   vertex 0.0018660000059753656 -0.10968600213527679 0.037643000483512878
   vertex -0.00025899999309331179 -0.10488499701023102 0.036784999072551727
  endloop
 endfacet
 facet normal 0.69848851443718674 -0.061603816078973667 0.71296477125019297
  outer loop
   vertex 0.0014850000152364373 -0.10496000200510025 0.031360998749732971
   vertex -0.00062700000125914812 -0.10380399972200394 0.033530000597238541
   vertex -0.0011050000321120024 -0.10886500030755997 0.033560998737812042
  endloop
 endfacet
 facet normal -0.98558514715145418 -0.16750604498364899 0.023741158530748586
  outer loop
   vertex -0.0013749999925494194 -0.098879002034664154 0.032830998301506042
   vertex -0.00025899999309331179 -0.10488499701023102 0.036784999072551727
   vertex -0.0011899999808520079 -0.09949299693107605 0.036178998649120331
  endloop
 endfacet
 facet normal 0.98903408578041652 -0.14740179675533885 -0.0091808211938633442
  outer loop
   vertex 0.0034310000482946634 -0.078199997544288635 0.038968000560998917
   vertex 0.0025800000876188278 -0.083717003464698792 0.035868998616933823
   vertex 0.0034409998916089535 -0.077959999442100525 0.036191999912261963
  endloop
 endfacet
 facet normal 0.63175712564688014 -0.10101792757972348 0.7685559917806184
  outer loop
   vertex 0.0015650000423192978 -0.07749900221824646 0.040594000369310379
   vertex 0.0026179999113082886 -0.083991996943950653 0.038874998688697815
   vertex 0.0034310000482946634 -0.078199997544288635 0.038968000560998917
  endloop
 endfacet
 facet normal 0.95349788613568487 -0.12797176389525311 -0.272882774795915
  outer loop
   vertex 0.0034409998916089535 -0.077959999442100525 0.036191999912261963
   vertex 0.001867000013589859 -0.08357200026512146 0.033323999494314194
   vertex 0.0024949999060481787 -0.078024998307228088 0.032917000353336334
  endloop
 endfacet
 facet normal -0.20158991069104878 -0.096121323520941673 0.97474211926650511
  outer loop
   vertex -0.0015269999857991934 -0.077331997454166412 0.039971001446247101
   vertex 0.0012720000231638551 -0.082755997776985168 0.040015000849962234
   vertex 0.0015650000423192978 -0.07749900221824646 0.040594000369310379
  endloop
 endfacet
 facet normal -0.92598523099783403 0.062495751549858529 0.37235149121778249
  outer loop
   vertex 0.0024949999060481787 -0.078024998307228088 0.032917000353336334
   vertex 0.0011830000439658761 -0.079095996916294098 0.029834000393748283
   vertex 0.0008360000210814178 -0.085005998611450195 0.029962999746203423
  endloop
 endfacet
 facet normal -0.80781997280795448 -0.029702703255896083 0.5886804234487909
  outer loop
   vertex -0.0045369998551905155 -0.078015998005867004 0.035806000232696533
   vertex -0.0016570000443607569 -0.082714997231960297 0.039521001279354095
   vertex -0.0015269999857991934 -0.077331997454166412 0.039971001446247101
  endloop
 endfacet
 facet normal -0.29214944245610835 0.21933032104428132 0.93088286778906693
  outer loop
   vertex 0.0011830000439658761 -0.079095996916294098 0.029834000393748283
   vertex -0.00068200001260265708 -0.078970000147819519 0.029218999668955803
   vertex -0.0014479999663308263 -0.084068998694419861 0.030179999768733978
  endloop
 endfacet
 facet normal -0.96277458870853516 -0.26550362667485694 -0.050723915065864517
  outer loop
   vertex -0.0025090000126510859 -0.093959003686904907 0.032248001545667648
   vertex -0.0011899999808520079 -0.09949299693107605 0.036178998649120331
   vertex -0.0026179999113082886 -0.094254001975059509 0.035861000418663025
  endloop
 endfacet
 facet normal -0.98395223737280924 -0.17061883694499064 -0.052222667957331222
  outer loop
   vertex -0.0033390000462532043 -0.088962003588676453 0.032156001776456833
   vertex -0.0026179999113082886 -0.094254001975059509 0.035861000418663025
   vertex -0.0035439999774098396 -0.088904000818729401 0.035829000174999237
  endloop
 endfacet
 facet normal -0.99405933467009744 -0.085926319884467223 -0.066803493219708493
  outer loop
   vertex -0.0037219999358057976 -0.08391299843788147 0.032058000564575195
   vertex -0.0035439999774098396 -0.088904000818729401 0.035829000174999237
   vertex -0.0040159998461604118 -0.083448998630046844 0.035835999995470047
  endloop
 endfacet
 facet normal -0.99194829609799384 -0.095582082880893177 -0.083082147904569567
  outer loop
   vertex -0.0041310000233352184 -0.078855998814105988 0.031925000250339508
   vertex -0.0040159998461604118 -0.083448998630046844 0.035835999995470047
   vertex -0.0045369998551905155 -0.078015998005867004 0.035806000232696533
  endloop
 endfacet
 facet normal 0.67604369692684774 0.20320340716686147 0.70828899127493083
  outer loop
   vertex 0.00070799997774884105 -0.099751003086566925 0.031092999503016472
   vertex -0.0013749999925494194 -0.098879002034664154 0.032830998301506042
   vertex -0.00062700000125914812 -0.10380399972200394 0.033530000597238541
  endloop
 endfacet
 facet normal 0.51816043600450334 0.21744665593815046 0.82717997701887014
  outer loop
   vertex 9.9999999747524271e-07 -0.094545997679233551 0.030829999595880508
   vertex -0.0025090000126510859 -0.093959003686904907 0.032248001545667648
   vertex -0.0013749999925494194 -0.098879002034664154 0.032830998301506042
  endloop
 endfacet
 facet normal 0.54593738303904904 0.10598132147964714 0.83109586288099302
  outer loop
   vertex -0.00084200000856071711 -0.089308999478816986 0.030559999868273735
   vertex -0.0033390000462532043 -0.088962003588676453 0.032156001776456833
   vertex -0.0025090000126510859 -0.093959003686904907 0.032248001545667648
  endloop
 endfacet
 facet normal 0.63807752885786895 0.063296909169994087 0.76736599381009918
  outer loop
   vertex -0.0014479999663308263 -0.084068998694419861 0.030179999768733978
   vertex -0.0037219999358057976 -0.08391299843788147 0.032058000564575195
   vertex -0.0033390000462532043 -0.088962003588676453 0.032156001776456833
  endloop
 endfacet
 facet normal 0.61717224128425008 0.070526138060793789 0.78366095247779533
  outer loop
   vertex -0.00068200001260265708 -0.078970000147819519 0.029218999668955803
   vertex -0.0041310000233352184 -0.078855998814105988 0.031925000250339508
   vertex -0.0037219999358057976 -0.08391299843788147 0.032058000564575195
  endloop
 endfacet
 facet normal 0.8650295228815551 -0.43392370202879382 0.251861361389427
  outer loop
   vertex 0.0053460001945495605 -0.072737999260425568 0.038646001368761063
   vertex 0.0034409998916089535 -0.077959999442100525 0.036191999912261963
   vertex 0.0060169999487698078 -0.072870001196861267 0.036113999783992767
  endloop
 endfacet
 facet normal 0.63093549696242612 -0.17667284334386102 0.75545159017475882
  outer loop
   vertex 0.0026849999558180571 -0.072371996939182281 0.040954001247882843
   vertex 0.0034310000482946634 -0.078199997544288635 0.038968000560998917
   vertex 0.0053460001945495605 -0.072737999260425568 0.038646001368761063
  endloop
 endfacet
 facet normal 0.82087125213374468 -0.57088345669938612 0.016200811317290984
  outer loop
   vertex 0.0060169999487698078 -0.072870001196861267 0.036113999783992767
   vertex 0.0024949999060481787 -0.078024998307228088 0.032917000353336334
   vertex 0.0055160000920295715 -0.073706001043319702 0.032039999961853027
  endloop
 endfacet
 facet normal -0.0082451367880671117 -0.068249324130543271 0.99763422529255197
  outer loop
   vertex -0.0023610000498592854 -0.072084002196788788 0.040931999683380127
   vertex 0.0015650000423192978 -0.07749900221824646 0.040594000369310379
   vertex 0.0026849999558180571 -0.072371996939182281 0.040954001247882843
  endloop
 endfacet
 facet normal 0.79598230533425962 -0.50061527389392535 -0.34028887307531436
  outer loop
   vertex 0.0055160000920295715 -0.073706001043319702 0.032039999961853027
   vertex 0.0011830000439658761 -0.079095996916294098 0.029834000393748283
   vertex 0.003696999978274107 -0.074142999947071075 0.028427999466657639
  endloop
 endfacet
 facet normal -0.85468980659603 -0.22177749778886421 0.46938265410574237
  outer loop
   vertex -0.004889999981969595 -0.072575002908706665 0.036095000803470612
   vertex -0.0015269999857991934 -0.077331997454166412 0.039971001446247101
   vertex -0.0023610000498592854 -0.072084002196788788 0.040931999683380127
  endloop
 endfacet
 facet normal -0.14135375727599403 0.28365700445022096 0.94845021963742882
  outer loop
   vertex 0.003696999978274107 -0.074142999947071075 0.028427999466657639
   vertex -0.00067899998975917697 -0.073942996561527252 0.027715999633073807
   vertex -0.00068200001260265708 -0.078970000147819519 0.029218999668955803
  endloop
 endfacet
 facet normal -0.99790624004442197 -0.064462101598638008 -0.0052700605206244047
  outer loop
   vertex -0.0047860001213848591 -0.073834002017974854 0.031801998615264893
   vertex -0.0045369998551905155 -0.078015998005867004 0.035806000232696533
   vertex -0.004889999981969595 -0.072575002908706665 0.036095000803470612
  endloop
 endfacet
 facet normal 0.70255114329421686 0.10885570393765649 0.70325836417082588
  outer loop
   vertex -0.00067899998975917697 -0.073942996561527252 0.027715999633073807
   vertex -0.0047860001213848591 -0.073834002017974854 0.031801998615264893
   vertex -0.0041310000233352184 -0.078855998814105988 0.031925000250339508
  endloop
 endfacet
 facet normal 0.857181319283294 -0.047601596475086216 0.5128101733436794
  outer loop
   vertex 0.0044680000282824039 -0.067001000046730042 0.039248000830411911
   vertex 0.0060169999487698078 -0.072870001196861267 0.036113999783992767
   vertex 0.0060899998061358929 -0.067354001104831696 0.036504000425338745
  endloop
 endfacet
 facet normal 0.65675109403244369 0.021411600905338241 0.75380338539559411
  outer loop
   vertex 0.0044680000282824039 -0.067001000046730042 0.039248000830411911
   vertex 0.0026849999558180571 -0.072371996939182281 0.040954001247882843
   vertex 0.0053460001945495605 -0.072737999260425568 0.038646001368761063
  endloop
 endfacet
 facet normal 0.98622561774947581 0.025709091517251752 -0.16339545130762476
  outer loop
   vertex 0.0060899998061358929 -0.067354001104831696 0.036504000425338745
   vertex 0.0055160000920295715 -0.073706001043319702 0.032039999961853027
   vertex 0.0053449999541044235 -0.068213999271392822 0.03187200054526329
  endloop
 endfacet
 facet normal 0.055878732188860122 0.28535741517885499 0.95679084072299125
  outer loop
   vertex -0.0017699999734759331 -0.066953003406524658 0.039597999304533005
   vertex 0.0026849999558180571 -0.072371996939182281 0.040954001247882843
   vertex 0.0044680000282824039 -0.067001000046730042 0.039248000830411911
  endloop
 endfacet
 facet normal 0.9466290103965479 -0.082060055649702812 -0.31170444966734123
  outer loop
   vertex 0.0053449999541044235 -0.068213999271392822 0.03187200054526329
   vertex 0.003696999978274107 -0.074142999947071075 0.028427999466657639
   vertex 0.0041049998253583908 -0.068425998091697693 0.028162000700831413
  endloop
 endfacet
 facet normal -0.86107239401850411 0.21854634870233516 0.45912070932176385
  outer loop
   vertex -0.0042960001155734062 -0.067267000675201416 0.035009998828172684
   vertex -0.0023610000498592854 -0.072084002196788788 0.040931999683380127
   vertex -0.0017699999734759331 -0.066953003406524658 0.039597999304533005
  endloop
 endfacet
 facet normal 0.13510227134902844 -0.037108455757859246 -0.99013652532749274
  outer loop
   vertex 0.0041049998253583908 -0.068425998091697693 0.028162000700831413
   vertex -0.00067899998975917697 -0.073942996561527252 0.027715999633073807
   vertex -0.00039299999480135739 -0.068765997886657715 0.027560999616980553
  endloop
 endfacet
 facet normal -0.99360106466389586 0.10075807494911421 -0.051036600898972828
  outer loop
   vertex -0.0042559998109936714 -0.068847998976707458 0.031109999865293503
   vertex -0.004889999981969595 -0.072575002908706665 0.036095000803470612
   vertex -0.0042960001155734062 -0.067267000675201416 0.035009998828172684
  endloop
 endfacet
 facet normal -0.67588300133700396 -0.03035663083600312 -0.73638348940478704
  outer loop
   vertex -0.00039299999480135739 -0.068765997886657715 0.027560999616980553
   vertex -0.0047860001213848591 -0.073834002017974854 0.031801998615264893
   vertex -0.0042559998109936714 -0.068847998976707458 0.031109999865293503
  endloop
 endfacet
 facet normal -0.010879937739813147 0.94611212117558774 -0.32365642449889348
  outer loop
   vertex 0.0044680000282824039 -0.067001000046730042 0.039248000830411911
   vertex 0.0015170000260695815 -0.068677999079227448 0.034444998949766159
   vertex -0.0017699999734759331 -0.066953003406524658 0.039597999304533005
  endloop
 endfacet
 facet normal -0.17524338591811775 0.95803758873487066 -0.22683415585627448
  outer loop
   vertex 0.0060899998061358929 -0.067354001104831696 0.036504000425338745
   vertex 0.0015170000260695815 -0.068677999079227448 0.034444998949766159
   vertex 0.0044680000282824039 -0.067001000046730042 0.039248000830411911
  endloop
 endfacet
 facet normal -0.21444396108446145 0.9659360395993809 -0.14484942166770692
  outer loop
   vertex 0.0053449999541044235 -0.068213999271392822 0.03187200054526329
   vertex 0.0015170000260695815 -0.068677999079227448 0.034444998949766159
   vertex 0.0060899998061358929 -0.067354001104831696 0.036504000425338745
  endloop
 endfacet
 facet normal -0.12923431031435392 0.99152267566984442 -0.013463902483527301
  outer loop
   vertex 0.0041049998253583908 -0.068425998091697693 0.028162000700831413
   vertex 0.0015170000260695815 -0.068677999079227448 0.034444998949766159
   vertex 0.0053449999541044235 -0.068213999271392822 0.03187200054526329
  endloop
 endfacet
 facet normal 0.21493253392282644 0.95914354965097537 -0.18397732747390308
  outer loop
   vertex -0.0017699999734759331 -0.066953003406524658 0.039597999304533005
   vertex 0.0015170000260695815 -0.068677999079227448 0.034444998949766159
   vertex -0.0042960001155734062 -0.067267000675201416 0.035009998828172684
  endloop
 endfacet
 facet normal -0.076497883150928231 0.99703368608471865 0.0084795451378953182
  outer loop
   vertex -0.00039299999480135739 -0.068765997886657715 0.027560999616980553
   vertex 0.0015170000260695815 -0.068677999079227448 0.034444998949766159
   vertex 0.0041049998253583908 -0.068425998091697693 0.028162000700831413
  endloop
 endfacet
 facet normal 0.18548453069000514 0.91132532379403108 -0.36753454679310466
  outer loop
   vertex -0.0042960001155734062 -0.067267000675201416 0.035009998828172684
   vertex 0.0015170000260695815 -0.068677999079227448 0.034444998949766159
   vertex -0.0042559998109936714 -0.068847998976707458 0.031109999865293503
  endloop
 endfacet
 facet normal -0.026264570067344218 0.99963994442056747 -0.005491254685607079
  outer loop
   vertex -0.0042559998109936714 -0.068847998976707458 0.031109999865293503
   vertex 0.0015170000260695815 -0.068677999079227448 0.034444998949766159
   vertex -0.00039299999480135739 -0.068765997886657715 0.027560999616980553
  endloop
 endfacet
endsolid
