solid Visualization Toolkit generated SLA File
 facet normal -0.32194386894424176 0.94269437753831054 -0.087632504282772569
  outer loop
   vertex 0.00081100000534206629 -0.0049060001038014889 -0.0055530001409351826
   vertex 0.0014969999901950359 -0.0036869999021291733 0.0050400001928210258
   vertex 0.0037529999390244484 -0.0033700000494718552 0.00016199999663513154
  endloop
 endfacet
 facet normal 0.89311381138396817 -0.18493054835580025 -0.41005903501816021
  outer loop
   vertex 0.0006120000034570694 -0.0076210000552237034 -0.0047619999386370182
   vertex 0.00081100000534206629 -0.0049060001038014889 -0.0055530001409351826
   vertex 0.0037529999390244484 -0.0033700000494718552 0.00016199999663513154
  endloop
 endfacet
 facet normal -0.81076882105415971 -0.10180924661192493 -0.57644496364419762
  outer loop
   vertex 0.00081100000534206629 -0.0049060001038014889 -0.0055530001409351826
   vertex -0.0032009999267756939 -0.0070130000822246075 0.0004619999963324517
   vertex -0.0033130000811070204 -0.003375000087544322 -2.3000000510364771e-05
  endloop
 endfacet
 facet normal 0.90795971216404769 -0.031646610114321648 0.41786080595726122
  outer loop
   vertex 0.0014969999901950359 -0.0036869999021291733 0.0050400001928210258
   vertex 0.0036019999533891678 -0.0067779999226331711 0.00023200000578071922
   vertex 0.0037529999390244484 -0.0033700000494718552 0.00016199999663513154
  endloop
 endfacet
 facet normal -0.72555170009214154 -0.057899604088727998 0.68572761818361361
  outer loop
   vertex -0.0033130000811070204 -0.003375000087544322 -2.3000000510364771e-05
   vertex 0.0013640000252053142 -0.0074919997714459896 0.0045779999345541
   vertex 0.0014969999901950359 -0.0036869999021291733 0.0050400001928210258
  endloop
 endfacet
 facet normal 0.85555513163541408 -0.19610162473755285 -0.47913418737093
  outer loop
   vertex 0.0036019999533891678 -0.0067779999226331711 0.00023200000578071922
   vertex 0.00010900000052060932 -0.01039700023829937 -0.0045239999890327454
   vertex 0.0006120000034570694 -0.0076210000552237034 -0.0047619999386370182
  endloop
 endfacet
 facet normal -0.80917395439477391 -0.1003380113471399 -0.57893850710418759
  outer loop
   vertex 0.0006120000034570694 -0.0076210000552237034 -0.0047619999386370182
   vertex -0.0022559999488294125 -0.010444999672472477 -0.00026400000206194818
   vertex -0.0032009999267756939 -0.0070130000822246075 0.0004619999963324517
  endloop
 endfacet
 facet normal 0.8420004384659705 -0.39360825166808433 0.36892791415384568
  outer loop
   vertex 0.0013640000252053142 -0.0074919997714459896 0.0045779999345541
   vertex 0.0025239998940378428 -0.0098470002412796021 -0.00058200000785291195
   vertex 0.0036019999533891678 -0.0067779999226331711 0.00023200000578071922
  endloop
 endfacet
 facet normal -0.65490549045205904 -0.30676653091131223 0.69064686641465822
  outer loop
   vertex -0.0032009999267756939 -0.0070130000822246075 0.0004619999963324517
   vertex 0.00036000000545755029 -0.010510999709367752 0.0022849999368190765
   vertex 0.0013640000252053142 -0.0074919997714459896 0.0045779999345541
  endloop
 endfacet
 facet normal 0.85412518879300647 -0.1146911257555529 -0.50726335127055566
  outer loop
   vertex 0.0025239998940378428 -0.0098470002412796021 -0.00058200000785291195
   vertex 4.0999999328050762e-05 -0.012990999966859818 -0.0040520001202821732
   vertex 0.00010900000052060932 -0.01039700023829937 -0.0045239999890327454
  endloop
 endfacet
 facet normal -0.87124583088349583 0.089167355600366677 -0.48267989896344832
  outer loop
   vertex 0.00010900000052060932 -0.01039700023829937 -0.0045239999890327454
   vertex -0.0021460000425577164 -0.013965999707579613 -0.0011129999766126275
   vertex -0.0022559999488294125 -0.010444999672472477 -0.00026400000206194818
  endloop
 endfacet
 facet normal 0.80562282309874123 -0.13930370082032709 0.5758179797819577
  outer loop
   vertex 0.00036000000545755029 -0.010510999709367752 0.0022849999368190765
   vertex 0.0023109999019652605 -0.013220000080764294 -0.0010999999940395355
   vertex 0.0025239998940378428 -0.0098470002412796021 -0.00058200000785291195
  endloop
 endfacet
 facet normal -0.69001482747063703 -0.16905970119247959 0.70377436391458348
  outer loop
   vertex -0.0022559999488294125 -0.010444999672472477 -0.00026400000206194818
   vertex 7.4000003223773092e-05 -0.014131000265479088 0.0011350000277161598
   vertex 0.00036000000545755029 -0.010510999709367752 0.0022849999368190765
  endloop
 endfacet
 facet normal -0.71045978125681364 -0.48639784118410895 0.50859024696503863
  outer loop
   vertex 0.0023109999019652605 -0.013220000080764294 -0.0010999999940395355
   vertex 4.0999999328050762e-05 -0.012990999966859818 -0.0040520001202821732
   vertex 0.0012369999894872308 -0.015633000060915947 -0.0049080001190304756
  endloop
 endfacet
 facet normal -0.81146760938312479 0.072034395370724091 -0.57994082871066299
  outer loop
   vertex 4.0999999328050762e-05 -0.012990999966859818 -0.0040520001202821732
   vertex -0.0018960000015795231 -0.017518000677227974 -0.0019039999460801482
   vertex -0.0021460000425577164 -0.013965999707579613 -0.0011129999766126275
  endloop
 endfacet
 facet normal 0.73327662169382724 -0.23820490069067871 0.63683892890136029
  outer loop
   vertex 7.4000003223773092e-05 -0.014131000265479088 0.0011350000277161598
   vertex 0.0022660000249743462 -0.016417000442743301 -0.0022440000902861357
   vertex 0.0023109999019652605 -0.013220000080764294 -0.0010999999940395355
  endloop
 endfacet
 facet normal -0.70415457457948138 -0.20266915708829622 0.68050830109845772
  outer loop
   vertex -0.0021460000425577164 -0.013965999707579613 -0.0011129999766126275
   vertex 0.00059800001326948404 -0.018301999196410179 0.00043499999446794391
   vertex 7.4000003223773092e-05 -0.014131000265479088 0.0011350000277161598
  endloop
 endfacet
 facet normal -0.90250312767702301 -0.35476128930671053 0.24419773164923467
  outer loop
   vertex 0.0022660000249743462 -0.016417000442743301 -0.0022440000902861357
   vertex 0.0012369999894872308 -0.015633000060915947 -0.0049080001190304756
   vertex 0.0021180000621825457 -0.018290000036358833 -0.0055120000615715981
  endloop
 endfacet
 facet normal -0.68317414643323615 -0.027454706771598999 -0.72973921692705046
  outer loop
   vertex 0.0012369999894872308 -0.015633000060915947 -0.0049080001190304756
   vertex -0.00049300002865493298 -0.020666999742388725 -0.0030990000814199448
   vertex -0.0018960000015795231 -0.017518000677227974 -0.0019039999460801482
  endloop
 endfacet
 facet normal -0.8182655876735635 -0.084113871842843468 -0.56865304412518847
  outer loop
   vertex 0.00059800001326948404 -0.018301999196410179 0.00043499999446794391
   vertex 0.0022660000249743462 -0.016417000442743301 -0.0022440000902861357
   vertex 0.0031379999127238989 -0.019673999398946762 -0.0030169999226927757
  endloop
 endfacet
 facet normal -0.69009060871911687 -0.40417520216878927 0.60034769734671001
  outer loop
   vertex -0.0018960000015795231 -0.017518000677227974 -0.0019039999460801482
   vertex 0.00145800004247576 -0.021939000114798546 -0.0010250000050291419
   vertex 0.00059800001326948404 -0.018301999196410179 0.00043499999446794391
  endloop
 endfacet
 facet normal -0.93077913277759339 -0.29381676916077049 0.21753600195305045
  outer loop
   vertex 0.0031379999127238989 -0.019673999398946762 -0.0030169999226927757
   vertex 0.0021180000621825457 -0.018290000036358833 -0.0055120000615715981
   vertex 0.0028440000023692846 -0.020966000854969025 -0.0060200002044439316
  endloop
 endfacet
 facet normal -0.67203413812997437 -0.013420482350637735 -0.74039854662295146
  outer loop
   vertex 0.0021180000621825457 -0.018290000036358833 -0.0055120000615715981
   vertex 0.0016139999497681856 -0.023009000346064568 -0.0049689998850226402
   vertex -0.00049300002865493298 -0.020666999742388725 -0.0030990000814199448
  endloop
 endfacet
 facet normal 0.87173834169448394 -0.40806338645942669 0.27121308274310035
  outer loop
   vertex 0.00145800004247576 -0.021939000114798546 -0.0010250000050291419
   vertex 0.0020959998946636915 -0.022664999589323997 -0.0041680000722408295
   vertex 0.0031379999127238989 -0.019673999398946762 -0.0030169999226927757
  endloop
 endfacet
 facet normal -0.59265866180679161 -0.80281554654923126 0.065137614357927393
  outer loop
   vertex -0.00049300002865493298 -0.020666999742388725 -0.0030990000814199448
   vertex 0.0020959998946636915 -0.022664999589323997 -0.0041680000722408295
   vertex 0.00145800004247576 -0.021939000114798546 -0.0010250000050291419
  endloop
 endfacet
 facet normal 0.78170190436283715 -0.5836635284313989 -0.21972486954034864
  outer loop
   vertex 0.0020959998946636915 -0.022664999589323997 -0.0041680000722408295
   vertex 0.0016139999497681856 -0.023009000346064568 -0.0049689998850226402
   vertex 0.0028440000023692846 -0.020966000854969025 -0.0060200002044439316
  endloop
 endfacet
endsolid
