solid Visualization Toolkit generated SLA File
 facet normal -0.014204070992079092 0.99981804498046722 -0.012732686232229673
  outer loop
   vertex 0.0075909998267889023 -0.11032400280237198 0.031279001384973526
   vertex 0.0025969999842345715 -0.11028099805116653 0.040226999670267105
   vertex 0.0068970001302659512 -0.1102679967880249 0.036451000720262527
  endloop
 endfacet
 facet normal 0.90344254028693183 -0.40987758333866392 0.12566599809157697
  outer loop
   vertex 0.00559999980032444 -0.11470700055360794 0.031296998262405396
   vertex 0.0075909998267889023 -0.11032400280237198 0.031279001384973526
   vertex 0.0068970001302659512 -0.1102679967880249 0.036451000720262527
  endloop
 endfacet
 facet normal -0.45730534589728156 0.15286802382259121 0.87607259282912353
  outer loop
   vertex 0.0075909998267889023 -0.11032400280237198 0.031279001384973526
   vertex 0.0037140001077204943 -0.1100820004940033 0.02921300008893013
   vertex 0.0033980000298470259 -0.11412200331687927 0.029752999544143677
  endloop
 endfacet
 facet normal 0.62625087667599222 -0.31745109443050779 0.71206365032026731
  outer loop
   vertex 0.0025969999842345715 -0.11028099805116653 0.040226999670267105
   vertex 0.0056190001778304577 -0.11454100161790848 0.035670001059770584
   vertex 0.0068970001302659512 -0.1102679967880249 0.036451000720262527
  endloop
 endfacet
 facet normal -0.69978370178781812 -0.19250174949078724 0.68792866429239907
  outer loop
   vertex -0.001310999970883131 -0.11021900177001953 0.036269001662731171
   vertex 0.0031250000465661287 -0.114826999604702 0.039491999894380569
   vertex 0.0025969999842345715 -0.11028099805116653 0.040226999670267105
  endloop
 endfacet
 facet normal -0.99221080363149483 -0.1024112822491941 -0.07092002837717172
  outer loop
   vertex -0.0010010000551119447 -0.11031600087881088 0.032072000205516815
   vertex -0.00083999999333173037 -0.11461400240659714 0.0360260009765625
   vertex -0.001310999970883131 -0.11021900177001953 0.036269001662731171
  endloop
 endfacet
 facet normal 0.50855673694887527 0.13759912911507396 0.84996266092734085
  outer loop
   vertex 0.0037140001077204943 -0.1100820004940033 0.02921300008893013
   vertex -0.0010010000551119447 -0.11031600087881088 0.032072000205516815
   vertex -0.00054300000192597508 -0.11452899873256683 0.032480001449584961
  endloop
 endfacet
 facet normal -0.16285399708226694 -0.91036775423247285 -0.38040652950239018
  outer loop
   vertex 0.0022589999716728926 -0.13647900521755219 0.034387998282909393
   vertex 0.003060000017285347 -0.13526299595832825 0.031135000288486481
   vertex 0.0049789999611675739 -0.13591800630092621 0.031881000846624374
  endloop
 endfacet
 facet normal -0.65391928325877569 -0.30001467155178124 0.69453636898005999
  outer loop
   vertex 0.00018099999579135329 -0.13229699432849884 0.034237999469041824
   vertex 0.0022589999716728926 -0.13647900521755219 0.034387998282909393
   vertex 0.0038689998909831047 -0.13369600474834442 0.037105999886989594
  endloop
 endfacet
 facet normal 0.87724021201240687 -0.34549728344622743 0.33328851999387049
  outer loop
   vertex 0.0038689998909831047 -0.13369600474834442 0.037105999886989594
   vertex 0.0049789999611675739 -0.13591800630092621 0.031881000846624374
   vertex 0.0059259999543428421 -0.13221700489521027 0.033224999904632568
  endloop
 endfacet
 facet normal 0.98859954791690174 -0.15056200599958161 0.0014199323503173602
  outer loop
   vertex 0.0056190001778304577 -0.11454100161790848 0.035670001059770584
   vertex 0.0048940000124275684 -0.11934299767017365 0.031259000301361084
   vertex 0.00559999980032444 -0.11470700055360794 0.031296998262405396
  endloop
 endfacet
 facet normal -0.55134734118767292 0.10804503944545767 0.82724988897945062
  outer loop
   vertex 0.00559999980032444 -0.11470700055360794 0.031296998262405396
   vertex 0.0033980000298470259 -0.11412200331687927 0.029752999544143677
   vertex 0.0032009999267756939 -0.11836600303649902 0.030176000669598579
  endloop
 endfacet
 facet normal 0.80202323778753171 -0.32862987695572554 0.49875959140739262
  outer loop
   vertex 0.0031250000465661287 -0.114826999604702 0.039491999894380569
   vertex 0.0044410000555217266 -0.11883799731731415 0.03473300114274025
   vertex 0.0056190001778304577 -0.11454100161790848 0.035670001059770584
  endloop
 endfacet
 facet normal 0.57222239710276523 -0.061427683905196984 0.81779469789428727
  outer loop
   vertex 0.0033980000298470259 -0.11412200331687927 0.029752999544143677
   vertex -0.00054300000192597508 -0.11452899873256683 0.032480001449584961
   vertex 0.00021399999968707561 -0.11864700168371201 0.031640999019145966
  endloop
 endfacet
 facet normal -0.65229662098473795 -0.18605280264276852 0.73477443673597154
  outer loop
   vertex -0.00083999999333173037 -0.11461400240659714 0.0360260009765625
   vertex 0.0027840000111609697 -0.11942899972200394 0.038024000823497772
   vertex 0.0031250000465661287 -0.114826999604702 0.039491999894380569
  endloop
 endfacet
 facet normal -0.98984213831817092 -0.11349315483033766 -0.085626193517916754
  outer loop
   vertex -0.00054300000192597508 -0.11452899873256683 0.032480001449584961
   vertex -0.00032500000088475645 -0.11900000274181366 0.035886000841856003
   vertex -0.00083999999333173037 -0.11461400240659714 0.0360260009765625
  endloop
 endfacet
 facet normal 0.47938629958670509 -0.75201763695463519 0.45239169916979316
  outer loop
   vertex 0.0059259999543428421 -0.13221700489521027 0.033224999904632568
   vertex 0.004935000091791153 -0.13524599373340607 0.029239999130368233
   vertex 0.0081960000097751617 -0.1327040046453476 0.030009999871253967
  endloop
 endfacet
 facet normal -0.080049100510311721 -0.96632636072582312 -0.24455164295885726
  outer loop
   vertex 0.0049789999611675739 -0.13591800630092621 0.031881000846624374
   vertex 0.0037000000011175871 -0.13521100580692291 0.029505999758839607
   vertex 0.004935000091791153 -0.13524599373340607 0.029239999130368233
  endloop
 endfacet
 facet normal 0.65048572208282818 0.17160451376234667 0.73987851450273245
  outer loop
   vertex 0.0036700000055134296 -0.13097000122070312 0.029603000730276108
   vertex 0.0014609999489039183 -0.13140499591827393 0.031645998358726501
   vertex 0.003060000017285347 -0.13526299595832825 0.031135000288486481
  endloop
 endfacet
 facet normal -0.78158120299902201 -0.35960695219829503 -0.50971920019678929
  outer loop
   vertex 0.0014609999489039183 -0.13140499591827393 0.031645998358726501
   vertex 0.0019519999623298645 -0.1361829936504364 0.03426399827003479
   vertex 0.00018099999579135329 -0.13229699432849884 0.034237999469041824
  endloop
 endfacet
 facet normal 0.95076637743108017 0.053314343948975891 0.30528818561462756
  outer loop
   vertex 0.0008360000210814178 -0.12720000743865967 0.031307999044656754
   vertex -0.00020999999833293259 -0.12783800065517426 0.034676998853683472
   vertex 0.00018099999579135329 -0.13229699432849884 0.034237999469041824
  endloop
 endfacet
 facet normal -0.35865027090508123 0.13335809510005048 0.92389696484564643
  outer loop
   vertex -0.00020999999833293259 -0.12783800065517426 0.034676998853683472
   vertex 0.0038689998909831047 -0.13369600474834442 0.037105999886989594
   vertex 0.0032430000137537718 -0.12899200618267059 0.036184001713991165
  endloop
 endfacet
 facet normal 0.79296440139686208 0.10984144800121534 0.59928483579873137
  outer loop
   vertex 0.0032430000137537718 -0.12899200618267059 0.036184001713991165
   vertex 0.0059259999543428421 -0.13221700489521027 0.033224999904632568
   vertex 0.0049060001038014889 -0.12775599956512451 0.033757001161575317
  endloop
 endfacet
 facet normal -0.86104872508122521 -0.4992258949439245 -0.096791522632068333
  outer loop
   vertex 0.0049060001038014889 -0.12775599956512451 0.033757001161575317
   vertex 0.0059739998541772366 -0.12887699902057648 0.030037999153137207
   vertex 0.0081960000097751617 -0.1327040046453476 0.030009999871253967
  endloop
 endfacet
 facet normal 0.99124561021597524 -0.013983002845918236 0.13128829292427499
  outer loop
   vertex 0.0044410000555217266 -0.11883799731731415 0.03473300114274025
   vertex 0.0049169999547302723 -0.12440700083971024 0.030546000227332115
   vertex 0.0048940000124275684 -0.11934299767017365 0.031259000301361084
  endloop
 endfacet
 facet normal -0.51534506527743051 0.054985386191400802 0.85521697305396327
  outer loop
   vertex 0.0048940000124275684 -0.11934299767017365 0.031259000301361084
   vertex 0.0032009999267756939 -0.11836600303649902 0.030176000669598579
   vertex 0.0028200000524520874 -0.12255900353193283 0.030215999111533165
  endloop
 endfacet
 facet normal 0.89600401754097614 -0.082189439852760435 0.43637334534446476
  outer loop
   vertex 0.0027840000111609697 -0.11942899972200394 0.038024000823497772
   vertex 0.0042440001852810383 -0.12334299832582474 0.034288998693227768
   vertex 0.0044410000555217266 -0.11883799731731415 0.03473300114274025
  endloop
 endfacet
 facet normal 0.44430714436586766 -0.064341978741131747 0.89356100588439058
  outer loop
   vertex 0.0032009999267756939 -0.11836600303649902 0.030176000669598579
   vertex 0.00021399999968707561 -0.11864700168371201 0.031640999019145966
   vertex 0.00063299998873844743 -0.12287800014019012 0.031128000468015671
  endloop
 endfacet
 facet normal -0.5735067073995429 -0.1118473521738608 0.81152955976934782
  outer loop
   vertex -0.00032500000088475645 -0.11900000274181366 0.035886000841856003
   vertex 0.002638000063598156 -0.12426000088453293 0.037255000323057175
   vertex 0.0027840000111609697 -0.11942899972200394 0.038024000823497772
  endloop
 endfacet
 facet normal 0.99195777348958214 0.0058175866928703718 0.12643548275172578
  outer loop
   vertex 0.00021399999968707561 -0.11864700168371201 0.031640999019145966
   vertex -0.00032500000088475645 -0.11900000274181366 0.035886000841856003
   vertex -0.00020700000459328294 -0.12340699881315231 0.035163000226020813
  endloop
 endfacet
 facet normal -0.098447616068299659 -0.023451138153157587 0.99486587588970521
  outer loop
   vertex 0.0081960000097751617 -0.1327040046453476 0.030009999871253967
   vertex 0.0036700000055134296 -0.13097000122070312 0.029603000730276108
   vertex 0.0037000000011175871 -0.13521100580692291 0.029505999758839607
  endloop
 endfacet
 facet normal -0.11832158524203912 -0.075527157003097034 0.99009880871599898
  outer loop
   vertex 0.0059739998541772366 -0.12887699902057648 0.030037999153137207
   vertex 0.0032889998983591795 -0.1267549991607666 0.029879000037908554
   vertex 0.0036700000055134296 -0.13097000122070312 0.029603000730276108
  endloop
 endfacet
 facet normal 0.47914601974150595 0.14085535841372335 0.86635954416859406
  outer loop
   vertex 0.0032889998983591795 -0.1267549991607666 0.029879000037908554
   vertex 0.0008360000210814178 -0.12720000743865967 0.031307999044656754
   vertex 0.0014609999489039183 -0.13140499591827393 0.031645998358726501
  endloop
 endfacet
 facet normal 0.37728047081045779 0.056218561103094526 0.92439110755812492
  outer loop
   vertex 0.0028200000524520874 -0.12255900353193283 0.030215999111533165
   vertex 0.00063299998873844743 -0.12287800014019012 0.031128000468015671
   vertex 0.0008360000210814178 -0.12720000743865967 0.031307999044656754
  endloop
 endfacet
 facet normal 0.97934806386566853 -0.022698552767385114 0.20090332377746392
  outer loop
   vertex 0.00063299998873844743 -0.12287800014019012 0.031128000468015671
   vertex -0.00020700000459328294 -0.12340699881315231 0.035163000226020813
   vertex -0.00020999999833293259 -0.12783800065517426 0.034676998853683472
  endloop
 endfacet
 facet normal -0.62105301848968641 -0.24770229227488241 0.74359715076553234
  outer loop
   vertex -0.00020700000459328294 -0.12340699881315231 0.035163000226020813
   vertex 0.0032430000137537718 -0.12899200618267059 0.036184001713991165
   vertex 0.002638000063598156 -0.12426000088453293 0.037255000323057175
  endloop
 endfacet
 facet normal 0.86781098941666179 0.070892436408812654 0.49181129420510128
  outer loop
   vertex 0.002638000063598156 -0.12426000088453293 0.037255000323057175
   vertex 0.0049060001038014889 -0.12775599956512451 0.033757001161575317
   vertex 0.0042440001852810383 -0.12334299832582474 0.034288998693227768
  endloop
 endfacet
 facet normal -0.96974412843753799 -0.21648906725769923 -0.11282202408577356
  outer loop
   vertex 0.0042440001852810383 -0.12334299832582474 0.034288998693227768
   vertex 0.0049169999547302723 -0.12440700083971024 0.030546000227332115
   vertex 0.0059739998541772366 -0.12887699902057648 0.030037999153137207
  endloop
 endfacet
 facet normal -0.24399082535414315 -0.10470349574035191 0.96410873615103909
  outer loop
   vertex 0.0049169999547302723 -0.12440700083971024 0.030546000227332115
   vertex 0.0028200000524520874 -0.12255900353193283 0.030215999111533165
   vertex 0.0032889998983591795 -0.1267549991607666 0.029879000037908554
  endloop
 endfacet
endsolid
