solid Visualization Toolkit generated SLA File
 facet normal 0.69705433214991497 -0.55600583542943571 0.45273918429869897
  outer loop
   vertex 0.011346999555826187 -0.040541000664234161 -0.043304000049829483
   vertex 0.0072099999524652958 -0.040906999260187149 -0.037383999675512314
   vertex 0.0075079998932778835 -0.043853998184204102 -0.041462000459432602
  endloop
 endfacet
 facet normal -0.79556059963747494 0.26461590984820443 -0.54503371690168689
  outer loop
   vertex 0.010162999853491783 -0.045536000281572342 -0.046153999865055084
   vertex 0.0078940000385046005 -0.048333000391721725 -0.044199999421834946
   vertex 0.0075079998932778835 -0.043853998184204102 -0.041462000459432602
  endloop
 endfacet
 facet normal 0.76565157514641502 0.43500703758933057 -0.47386342201479148
  outer loop
   vertex 0.009430999867618084 -0.035879999399185181 -0.042121000587940216
   vertex 0.011346999555826187 -0.040541000664234161 -0.043304000049829483
   vertex 0.0070940000005066395 -0.040782999247312546 -0.050397999584674835
  endloop
 endfacet
 facet normal 0.89923608484061002 0.035622756641100088 -0.43601087478389838
  outer loop
   vertex 0.011346999555826187 -0.040541000664234161 -0.043304000049829483
   vertex 0.010162999853491783 -0.045536000281572342 -0.046153999865055084
   vertex 0.0074809999205172062 -0.046241000294685364 -0.051743000745773315
  endloop
 endfacet
 facet normal -0.43173564854970159 0.49068362570129076 -0.75685791879321984
  outer loop
   vertex 0.0075079998932778835 -0.043853998184204102 -0.041462000459432602
   vertex 0.0049100001342594624 -0.044491000473499298 -0.040392998605966568
   vertex 0.0041370000690221786 -0.040424998849630356 -0.03731599822640419
  endloop
 endfacet
 facet normal -0.11573019250721993 0.65233469327877269 -0.74904337023107781
  outer loop
   vertex 0.0078940000385046005 -0.048333000391721725 -0.044199999421834946
   vertex 0.0055269999429583549 -0.048312000930309296 -0.04381600022315979
   vertex 0.0049100001342594624 -0.044491000473499298 -0.040392998605966568
  endloop
 endfacet
 facet normal -0.15274771691726111 -0.92461784872086827 -0.34892688174366504
  outer loop
   vertex 0.0072099999524652958 -0.040906999260187149 -0.037383999675512314
   vertex 0.0041370000690221786 -0.040424998849630356 -0.03731599822640419
   vertex 0.0031059999018907547 -0.038538001477718353 -0.041864998638629913
  endloop
 endfacet
 facet normal 0.27726794752232098 -0.72095688969924043 -0.63509341712220313
  outer loop
   vertex 0.009430999867618084 -0.035879999399185181 -0.042121000587940216
   vertex 0.0072099999524652958 -0.040906999260187149 -0.037383999675512314
   vertex 0.0031059999018907547 -0.038538001477718353 -0.041864998638629913
  endloop
 endfacet
 facet normal 0.3724234792213198 -0.90571779483738146 -0.20242536461520405
  outer loop
   vertex 0.0065729999914765358 -0.035718001425266266 -0.048103999346494675
   vertex 0.009430999867618084 -0.035879999399185181 -0.042121000587940216
   vertex 0.0031059999018907547 -0.038538001477718353 -0.041864998638629913
  endloop
 endfacet
 facet normal -0.92437939361508525 -0.034875673165250989 -0.37987685383697445
  outer loop
   vertex 0.0098999999463558197 -0.050624001771211624 -0.048870999366044998
   vertex 0.0090549997985363007 -0.052735000848770142 -0.046620998531579971
   vertex 0.0078940000385046005 -0.048333000391721725 -0.044199999421834946
  endloop
 endfacet
 facet normal 0.94982011459234073 0.10772016422813732 -0.29366326997848369
  outer loop
   vertex 0.008491000160574913 -0.051433000713586807 -0.053725000470876694
   vertex 0.010162999853491783 -0.045536000281572342 -0.046153999865055084
   vertex 0.0098999999463558197 -0.050624001771211624 -0.048870999366044998
  endloop
 endfacet
 facet normal 0.064897932026325156 0.5708407313506344 -0.81849197787747396
  outer loop
   vertex 0.0090549997985363007 -0.052735000848770142 -0.046620998531579971
   vertex 0.0063220001757144928 -0.052538998425006866 -0.046700999140739441
   vertex 0.0055269999429583549 -0.048312000930309296 -0.04381600022315979
  endloop
 endfacet
 facet normal 0.038859574062223116 0.41557215329842906 -0.90872972819568842
  outer loop
   vertex 0.0027890000492334366 -0.041078001260757446 -0.050716999918222427
   vertex 0.0065729999914765358 -0.035718001425266266 -0.048103999346494675
   vertex 0.0070940000005066395 -0.040782999247312546 -0.050397999584674835
  endloop
 endfacet
 facet normal 0.11985722608491393 0.2455483800941351 -0.96194606833666918
  outer loop
   vertex 0.0034539999905973673 -0.046477001160383224 -0.052305001765489578
   vertex 0.0070940000005066395 -0.040782999247312546 -0.050397999584674835
   vertex 0.0074809999205172062 -0.046241000294685364 -0.051743000745773315
  endloop
 endfacet
 facet normal 0.11086565303909195 -0.92729887367906072 -0.3575270700936658
  outer loop
   vertex 0.0019660000689327717 -0.036348998546600342 -0.047896001487970352
   vertex 0.0065729999914765358 -0.035718001425266266 -0.048103999346494675
   vertex 0.0031059999018907547 -0.038538001477718353 -0.041864998638629913
  endloop
 endfacet
 facet normal 0.075926178454581841 0.36846648948024341 -0.92653529968123105
  outer loop
   vertex 0.0044329999946057796 -0.051750998944044113 -0.054184000939130783
   vertex 0.0074809999205172062 -0.046241000294685364 -0.051743000745773315
   vertex 0.008491000160574913 -0.051433000713586807 -0.053725000470876694
  endloop
 endfacet
 facet normal -0.4400809112508598 0.32792836151337901 -0.83593766589845886
  outer loop
   vertex 0.0049100001342594624 -0.044491000473499298 -0.040392998605966568
   vertex 0.00078000000212341547 -0.045937001705169678 -0.03878600150346756
   vertex -0.0010620000539347529 -0.041590001434087753 -0.036111000925302505
  endloop
 endfacet
 facet normal 0.23354493488518355 -0.77549589959388154 0.58656872837081231
  outer loop
   vertex 0.0055269999429583549 -0.048312000930309296 -0.04381600022315979
   vertex 0.00078000000212341547 -0.045937001705169678 -0.03878600150346756
   vertex 0.0020059999078512192 -0.048973001539707184 -0.043287999927997589
  endloop
 endfacet
 facet normal 0.11048162478998513 -0.90891743859301721 -0.40207325253649179
  outer loop
   vertex 0.0041370000690221786 -0.040424998849630356 -0.03731599822640419
   vertex -0.0010620000539347529 -0.041590001434087753 -0.036111000925302505
   vertex 0.0031059999018907547 -0.038538001477718353 -0.041864998638629913
  endloop
 endfacet
 facet normal -0.10025539203774196 0.62195062901612908 -0.77661204692806574
  outer loop
   vertex 0.0063220001757144928 -0.052538998425006866 -0.046700999140739441
   vertex 0.0031789999920874834 -0.053173001855611801 -0.046803001314401627
   vertex 0.0020059999078512192 -0.048973001539707184 -0.043287999927997589
  endloop
 endfacet
 facet normal 0.18381884605330429 -0.91232694610661136 -0.36588273427891588
  outer loop
   vertex -0.0041240002028644085 -0.038332000374794006 -0.046011000871658325
   vertex 0.0019660000689327717 -0.036348998546600342 -0.047896001487970352
   vertex 0.0031059999018907547 -0.038538001477718353 -0.041864998638629913
  endloop
 endfacet
 facet normal 0.21957419801914649 -0.87743049243980997 -0.42650076494782635
  outer loop
   vertex -0.005609000101685524 -0.041763000190258026 -0.039716999977827072
   vertex -0.0041240002028644085 -0.038332000374794006 -0.046011000871658325
   vertex 0.0031059999018907547 -0.038538001477718353 -0.041864998638629913
  endloop
 endfacet
 facet normal 0.26741523395045463 -0.91790264689809997 -0.29316177013499822
  outer loop
   vertex -0.0010620000539347529 -0.041590001434087753 -0.036111000925302505
   vertex -0.005609000101685524 -0.041763000190258026 -0.039716999977827072
   vertex 0.0031059999018907547 -0.038538001477718353 -0.041864998638629913
  endloop
 endfacet
 facet normal -0.95228925706808432 -0.11118713776751658 -0.28422278456834416
  outer loop
   vertex 0.010758999735116959 -0.05561399832367897 -0.051203999668359756
   vertex 0.010276000015437603 -0.057124000042676926 -0.048994999378919601
   vertex 0.0090549997985363007 -0.052735000848770142 -0.046620998531579971
  endloop
 endfacet
 facet normal 0.92269323808985149 0.28183256520001515 -0.26307336158578254
  outer loop
   vertex 0.0097059998661279678 -0.056522000581026077 -0.055870000272989273
   vertex 0.0098999999463558197 -0.050624001771211624 -0.048870999366044998
   vertex 0.010758999735116959 -0.05561399832367897 -0.051203999668359756
  endloop
 endfacet
 facet normal 0.018350167969644102 0.45998389112661636 -0.88773762522465105
  outer loop
   vertex 0.010276000015437603 -0.057124000042676926 -0.048994999378919601
   vertex 0.0071640000678598881 -0.057105999439954758 -0.049049999564886093
   vertex 0.0063220001757144928 -0.052538998425006866 -0.046700999140739441
  endloop
 endfacet
 facet normal 0.029971145554173299 0.39429823832883715 -0.91849367427595607
  outer loop
   vertex 0.0058300001546740532 -0.056853998452425003 -0.056138999760150909
   vertex 0.008491000160574913 -0.051433000713586807 -0.053725000470876694
   vertex 0.0097059998661279678 -0.056522000581026077 -0.055870000272989273
  endloop
 endfacet
 facet normal -0.11146641709522231 0.40542252612524765 -0.90730800347521279
  outer loop
   vertex 0.0071640000678598881 -0.057105999439954758 -0.049049999564886093
   vertex 0.0044880001805722713 -0.058164000511169434 -0.049194000661373138
   vertex 0.0031789999920874834 -0.053173001855611801 -0.046803001314401627
  endloop
 endfacet
 facet normal -0.44193457969957389 0.40158788507179755 -0.80213527402135965
  outer loop
   vertex -0.0038610000628978014 -0.043085001409053802 -0.048057999461889267
   vertex 0.0019660000689327717 -0.036348998546600342 -0.047896001487970352
   vertex 0.0027890000492334366 -0.041078001260757446 -0.050716999918222427
  endloop
 endfacet
 facet normal -0.56065864117181652 0.16934784397252661 -0.81054499925743118
  outer loop
   vertex -0.0014110000338405371 -0.047770000994205475 -0.049210000783205032
   vertex 0.0027890000492334366 -0.041078001260757446 -0.050716999918222427
   vertex 0.0034539999905973673 -0.046477001160383224 -0.052305001765489578
  endloop
 endfacet
 facet normal -0.65453303775192673 0.1429953549728932 -0.74238725133680139
  outer loop
   vertex 0.00065000000176951289 -0.052411999553442001 -0.050976000726222992
   vertex 0.0034539999905973673 -0.046477001160383224 -0.052305001765489578
   vertex 0.0044329999946057796 -0.051750998944044113 -0.054184000939130783
  endloop
 endfacet
 facet normal -0.64710934492305083 0.11177136351225991 -0.75415957065588601
  outer loop
   vertex 0.0022690000478178263 -0.057032998651266098 -0.053109999746084213
   vertex 0.0044329999946057796 -0.051750998944044113 -0.054184000939130783
   vertex 0.0058300001546740532 -0.056853998452425003 -0.056138999760150909
  endloop
 endfacet
 facet normal 0.36175014604176975 0.36210331403375301 -0.85907975287777072
  outer loop
   vertex 0.00078000000212341547 -0.045937001705169678 -0.03878600150346756
   vertex -0.0034509999677538872 -0.046633001416921616 -0.040860999375581741
   vertex -0.005609000101685524 -0.041763000190258026 -0.039716999977827072
  endloop
 endfacet
 facet normal -0.075372031888213065 0.6277723701318848 -0.77473925168926239
  outer loop
   vertex 0.0020059999078512192 -0.048973001539707184 -0.043287999927997589
   vertex -0.0018139999592676759 -0.050588000565767288 -0.044224999845027924
   vertex -0.0034509999677538872 -0.046633001416921616 -0.040860999375581741
  endloop
 endfacet
 facet normal 0.041648118171534361 -0.66405601778762835 0.74652196182885788
  outer loop
   vertex 0.0031789999920874834 -0.053173001855611801 -0.046803001314401627
   vertex -0.0018139999592676759 -0.050588000565767288 -0.044224999845027924
   vertex -5.8000001445179805e-05 -0.054779000580310822 -0.048050999641418457
  endloop
 endfacet
 facet normal 0.2312100850039964 0.57541146926333464 -0.78450209536536952
  outer loop
   vertex 0.0044880001805722713 -0.058164000511169434 -0.049194000661373138
   vertex 0.0017519999528303742 -0.05939599871635437 -0.05090399831533432
   vertex -5.8000001445179805e-05 -0.054779000580310822 -0.048050999641418457
  endloop
 endfacet
 facet normal -0.99753909459706658 -0.065718632484117398 0.02442981978815946
  outer loop
   vertex -0.0034509999677538872 -0.046633001416921616 -0.040860999375581741
   vertex -0.0041240002028644085 -0.038332000374794006 -0.046011000871658325
   vertex -0.0038610000628978014 -0.043085001409053802 -0.048057999461889267
  endloop
 endfacet
 facet normal -0.60528045742807701 0.33661614091216602 -0.72133566495291113
  outer loop
   vertex 0.013132000342011452 -0.060272999107837677 -0.052861001342535019
   vertex 0.010780000127851963 -0.061650000512599945 -0.051529999822378159
   vertex 0.010276000015437603 -0.057124000042676926 -0.048994999378919601
  endloop
 endfacet
 facet normal 0.68790799665148639 0.52763076209495685 -0.49838576126734768
  outer loop
   vertex 0.010739999823272228 -0.061677001416683197 -0.057649001479148865
   vertex 0.010758999735116959 -0.05561399832367897 -0.051203999668359756
   vertex 0.013132000342011452 -0.060272999107837677 -0.052861001342535019
  endloop
 endfacet
 facet normal -0.2826652613635211 0.27637793618205164 -0.91853992096698889
  outer loop
   vertex 0.010780000127851963 -0.061650000512599945 -0.051529999822378159
   vertex 0.0078309997916221619 -0.061994001269340515 -0.050726000219583511
   vertex 0.0071640000678598881 -0.057105999439954758 -0.049049999564886093
  endloop
 endfacet
 facet normal 0.0056310153232807057 0.32722644740094714 -0.9449291739531509
  outer loop
   vertex 0.0079539995640516281 -0.061758998781442642 -0.057693999260663986
   vertex 0.0097059998661279678 -0.056522000581026077 -0.055870000272989273
   vertex 0.010739999823272228 -0.061677001416683197 -0.057649001479148865
  endloop
 endfacet
 facet normal -0.31597995062689854 0.10152537123528325 -0.94331822297534385
  outer loop
   vertex 0.0078309997916221619 -0.061994001269340515 -0.050726000219583511
   vertex 0.0061249998398125172 -0.063299000263214111 -0.050294999033212662
   vertex 0.0044880001805722713 -0.058164000511169434 -0.049194000661373138
  endloop
 endfacet
 facet normal -0.4866065350501152 0.065465649469890891 -0.87116492628319597
  outer loop
   vertex 0.0035830000415444374 -0.061645999550819397 -0.055243998765945435
   vertex 0.0058300001546740532 -0.056853998452425003 -0.056138999760150909
   vertex 0.0079539995640516281 -0.061758998781442642 -0.057693999260663986
  endloop
 endfacet
 facet normal 0.20047728766599296 0.072168185464781154 -0.97703664728443407
  outer loop
   vertex 0.0061249998398125172 -0.063299000263214111 -0.050294999033212662
   vertex 0.0031049998942762613 -0.06419699639081955 -0.050981000065803528
   vertex 0.0017519999528303742 -0.05939599871635437 -0.05090399831533432
  endloop
 endfacet
 facet normal -0.87560487676937659 -0.38673179399798402 -0.28940390337517169
  outer loop
   vertex -0.0018139999592676759 -0.050588000565767288 -0.044224999845027924
   vertex -0.0038610000628978014 -0.043085001409053802 -0.048057999461889267
   vertex -0.0014110000338405371 -0.047770000994205475 -0.049210000783205032
  endloop
 endfacet
 facet normal -0.88257315201742659 -0.23747202845119647 -0.40579756904311109
  outer loop
   vertex -5.8000001445179805e-05 -0.054779000580310822 -0.048050999641418457
   vertex -0.0014110000338405371 -0.047770000994205475 -0.049210000783205032
   vertex 0.00065000000176951289 -0.052411999553442001 -0.050976000726222992
  endloop
 endfacet
 facet normal -0.91569425299829033 -0.14833731915245826 -0.3734970880375974
  outer loop
   vertex 0.0017519999528303742 -0.05939599871635437 -0.05090399831533432
   vertex 0.00065000000176951289 -0.052411999553442001 -0.050976000726222992
   vertex 0.0022690000478178263 -0.057032998651266098 -0.053109999746084213
  endloop
 endfacet
 facet normal -0.96123891377353632 -0.1753927319264382 -0.21273725633948723
  outer loop
   vertex 0.0031049998942762613 -0.06419699639081955 -0.050981000065803528
   vertex 0.0022690000478178263 -0.057032998651266098 -0.053109999746084213
   vertex 0.0035830000415444374 -0.061645999550819397 -0.055243998765945435
  endloop
 endfacet
 facet normal -0.5152036061591394 0.06843496586381663 -0.85433125873272153
  outer loop
   vertex 0.015381000004708767 -0.064837999641895294 -0.054559998214244843
   vertex 0.011785999871790409 -0.066422998905181885 -0.052519001066684723
   vertex 0.010780000127851963 -0.061650000512599945 -0.051529999822378159
  endloop
 endfacet
 facet normal 0.60851068472617353 0.52217850112532993 -0.59753188997457463
  outer loop
   vertex 0.011628000065684319 -0.066938996315002441 -0.060217998921871185
   vertex 0.013132000342011452 -0.060272999107837677 -0.052861001342535019
   vertex 0.015381000004708767 -0.064837999641895294 -0.054559998214244843
  endloop
 endfacet
 facet normal -0.43344901084035614 -0.022346966082422731 -0.90090097575062489
  outer loop
   vertex 0.011785999871790409 -0.066422998905181885 -0.052519001066684723
   vertex 0.0095149995759129524 -0.066760003566741943 -0.051417998969554901
   vertex 0.0078309997916221619 -0.061994001269340515 -0.050726000219583511
  endloop
 endfacet
 facet normal -0.033517685489779014 0.43390324090615073 -0.90033579418489595
  outer loop
   vertex 0.0096509996801614761 -0.066711999475955963 -0.060035001486539841
   vertex 0.010739999823272228 -0.061677001416683197 -0.057649001479148865
   vertex 0.011628000065684319 -0.066938996315002441 -0.060217998921871185
  endloop
 endfacet
 facet normal -0.50485044433297555 -0.22400134589149767 -0.8336362671426879
  outer loop
   vertex 0.0095149995759129524 -0.066760003566741943 -0.051417998969554901
   vertex 0.0074060000479221344 -0.068914003670215607 -0.0495619997382164
   vertex 0.0061249998398125172 -0.063299000263214111 -0.050294999033212662
  endloop
 endfacet
 facet normal -0.41102382230435436 0.27062466514934186 -0.87052955613874772
  outer loop
   vertex 0.0046870000660419464 -0.066276997327804565 -0.057555999606847763
   vertex 0.0079539995640516281 -0.061758998781442642 -0.057693999260663986
   vertex 0.0096509996801614761 -0.066711999475955963 -0.060035001486539841
  endloop
 endfacet
 facet normal 0.008219083235669656 -0.28118438255798472 -0.95961856467882589
  outer loop
   vertex 0.0074060000479221344 -0.068914003670215607 -0.0495619997382164
   vertex 0.0049470001831650734 -0.069392003118991852 -0.049442999064922333
   vertex 0.0031049998942762613 -0.06419699639081955 -0.050981000065803528
  endloop
 endfacet
 facet normal -0.97680174283756749 -0.20852096182934754 -0.048758216407642191
  outer loop
   vertex 0.0049470001831650734 -0.069392003118991852 -0.049442999064922333
   vertex 0.0035830000415444374 -0.061645999550819397 -0.055243998765945435
   vertex 0.0046870000660419464 -0.066276997327804565 -0.057555999606847763
  endloop
 endfacet
 facet normal 0.35446724524570761 -0.64968729586477503 0.67250233430065909
  outer loop
   vertex 0.01498700026422739 -0.069819003343582153 -0.057486999779939651
   vertex 0.011785999871790409 -0.066422998905181885 -0.052519001066684723
   vertex 0.012341000139713287 -0.069739997386932373 -0.056016001850366592
  endloop
 endfacet
 facet normal -0.14602910978791081 0.50976393804347486 -0.84783030528812708
  outer loop
   vertex 0.013073000125586987 -0.071143999695777893 -0.057953998446464539
   vertex 0.015381000004708767 -0.064837999641895294 -0.054559998214244843
   vertex 0.01498700026422739 -0.069819003343582153 -0.057486999779939651
  endloop
 endfacet
 facet normal 0.53541470909297395 -0.5196092982350774 0.66583576539153888
  outer loop
   vertex 0.012341000139713287 -0.069739997386932373 -0.056016001850366592
   vertex 0.0095149995759129524 -0.066760003566741943 -0.051417998969554901
   vertex 0.009421999566257 -0.070767998695373535 -0.054471001029014587
  endloop
 endfacet
 facet normal 0.061441628030174208 -0.45671569742429469 -0.8874884213730575
  outer loop
   vertex 0.010587000288069248 -0.071459002792835236 -0.057964000850915909
   vertex 0.011628000065684319 -0.066938996315002441 -0.060217998921871185
   vertex 0.013073000125586987 -0.071143999695777893 -0.057953998446464539
  endloop
 endfacet
 facet normal 0.70587560026052054 -0.51634868589751515 0.48489552640621386
  outer loop
   vertex 0.009421999566257 -0.070767998695373535 -0.054471001029014587
   vertex 0.0074060000479221344 -0.068914003670215607 -0.0495619997382164
   vertex 0.0077760000713169575 -0.071956999599933624 -0.053341001272201538
  endloop
 endfacet
 facet normal -0.27862046572720567 -0.4296666884056865 -0.85892792069675195
  outer loop
   vertex 0.0049910000525414944 -0.07045300304889679 -0.056651998311281204
   vertex 0.0096509996801614761 -0.066711999475955963 -0.060035001486539841
   vertex 0.010587000288069248 -0.071459002792835236 -0.057964000850915909
  endloop
 endfacet
 facet normal 0.42334534896144072 -0.58472296786929345 0.69200994671958382
  outer loop
   vertex 0.0077760000713169575 -0.071956999599933624 -0.053341001272201538
   vertex 0.0049470001831650734 -0.069392003118991852 -0.049442999064922333
   vertex 0.0047729997895658016 -0.073085002601146698 -0.052457001060247421
  endloop
 endfacet
 facet normal -0.98906959920387338 -0.096192488849698513 -0.11175121037192379
  outer loop
   vertex 0.0047729997895658016 -0.073085002601146698 -0.052457001060247421
   vertex 0.0046870000660419464 -0.066276997327804565 -0.057555999606847763
   vertex 0.0049910000525414944 -0.07045300304889679 -0.056651998311281204
  endloop
 endfacet
 facet normal 0.35764961044803861 -0.72436782886520157 0.58938782194025718
  outer loop
   vertex 0.01498700026422739 -0.069819003343582153 -0.057486999779939651
   vertex 0.010033000260591507 -0.070906996726989746 -0.055817998945713043
   vertex 0.013073000125586987 -0.071143999695777893 -0.057953998446464539
  endloop
 endfacet
 facet normal 0.36984242349125213 -0.61298499881413782 0.6981876345331165
  outer loop
   vertex 0.012341000139713287 -0.069739997386932373 -0.056016001850366592
   vertex 0.010033000260591507 -0.070906996726989746 -0.055817998945713043
   vertex 0.01498700026422739 -0.069819003343582153 -0.057486999779939651
  endloop
 endfacet
 facet normal 0.45141251277387989 -0.84326269425145095 0.29177863491858963
  outer loop
   vertex 0.009421999566257 -0.070767998695373535 -0.054471001029014587
   vertex 0.010033000260591507 -0.070906996726989746 -0.055817998945713043
   vertex 0.012341000139713287 -0.069739997386932373 -0.056016001850366592
  endloop
 endfacet
 facet normal 0.11972194754652735 -0.95361415133317717 0.27620048090611815
  outer loop
   vertex 0.013073000125586987 -0.071143999695777893 -0.057953998446464539
   vertex 0.010033000260591507 -0.070906996726989746 -0.055817998945713043
   vertex 0.010587000288069248 -0.071459002792835236 -0.057964000850915909
  endloop
 endfacet
 facet normal 0.69865355157235687 -0.60651848409722364 0.37949775140801267
  outer loop
   vertex 0.0077760000713169575 -0.071956999599933624 -0.053341001272201538
   vertex 0.010033000260591507 -0.070906996726989746 -0.055817998945713043
   vertex 0.009421999566257 -0.070767998695373535 -0.054471001029014587
  endloop
 endfacet
 facet normal -0.12313055180491349 -0.96831043944380235 0.21728727545893711
  outer loop
   vertex 0.010587000288069248 -0.071459002792835236 -0.057964000850915909
   vertex 0.010033000260591507 -0.070906996726989746 -0.055817998945713043
   vertex 0.0049910000525414944 -0.07045300304889679 -0.056651998311281204
  endloop
 endfacet
 facet normal 0.32247223644378892 -0.94074279122238225 -0.10495073837788084
  outer loop
   vertex 0.0047729997895658016 -0.073085002601146698 -0.052457001060247421
   vertex 0.010033000260591507 -0.070906996726989746 -0.055817998945713043
   vertex 0.0077760000713169575 -0.071956999599933624 -0.053341001272201538
  endloop
 endfacet
 facet normal 0.011541239033971459 -0.84729152087571347 -0.5310027104014452
  outer loop
   vertex 0.0049910000525414944 -0.07045300304889679 -0.056651998311281204
   vertex 0.010033000260591507 -0.070906996726989746 -0.055817998945713043
   vertex 0.0047729997895658016 -0.073085002601146698 -0.052457001060247421
  endloop
 endfacet
endsolid
