solid Visualization Toolkit generated SLA File
 facet normal -0.46229893402088107 0.87475896645436879 -0.14517729233885504
  outer loop
   vertex 0.0017180000431835651 -0.166485995054245 -0.0045280000194907188
   vertex 0.0025559999048709869 -0.1643030047416687 0.0059569999575614929
   vertex 0.0047100000083446503 -0.16398400068283081 0.0010199999669566751
  endloop
 endfacet
 facet normal 0.89648706608317608 -0.13969123751367973 -0.42047270839791251
  outer loop
   vertex 0.0017000000225380063 -0.16945500671863556 -0.0035800000187009573
   vertex 0.0017180000431835651 -0.166485995054245 -0.0045280000194907188
   vertex 0.0047100000083446503 -0.16398400068283081 0.0010199999669566751
  endloop
 endfacet
 facet normal -0.81048067554912395 -0.16835916455355204 -0.56104925476491418
  outer loop
   vertex 0.0017180000431835651 -0.166485995054245 -0.0045280000194907188
   vertex -0.0020729999523609877 -0.16894400119781494 0.001686000032350421
   vertex -0.0024210000410676003 -0.16497600078582764 0.00099800003226846457
  endloop
 endfacet
 facet normal 0.91469645782607834 0.042938035406328234 0.40185409685092205
  outer loop
   vertex 0.0025559999048709869 -0.1643030047416687 0.0059569999575614929
   vertex 0.0047699999995529652 -0.16776099801063538 0.0012870000209659338
   vertex 0.0047100000083446503 -0.16398400068283081 0.0010199999669566751
  endloop
 endfacet
 facet normal -0.70096116553017462 -0.055496225261452717 0.71103699861562009
  outer loop
   vertex -0.0024210000410676003 -0.16497600078582764 0.00099800003226846457
   vertex 0.0026469998992979527 -0.16855299472808838 0.0057149999774992466
   vertex 0.0025559999048709869 -0.1643030047416687 0.0059569999575614929
  endloop
 endfacet
 facet normal 0.85901986322170831 -0.15462076365285982 -0.48803411155160448
  outer loop
   vertex 0.0047699999995529652 -0.16776099801063538 0.0012870000209659338
   vertex 0.0013699999544769526 -0.17257300019264221 -0.0031729999464005232
   vertex 0.0017000000225380063 -0.16945500671863556 -0.0035800000187009573
  endloop
 endfacet
 facet normal -0.80909349858808399 -0.16677973831782625 -0.56351772769730279
  outer loop
   vertex 0.0017000000225380063 -0.16945500671863556 -0.0035800000187009573
   vertex -0.0009239999926649034 -0.17265300452709198 0.0011340000201016665
   vertex -0.0020729999523609877 -0.16894400119781494 0.001686000032350421
  endloop
 endfacet
 facet normal 0.88249416112402823 -0.28839297550586712 0.37152866277162244
  outer loop
   vertex 0.0026469998992979527 -0.16855299472808838 0.0057149999774992466
   vertex 0.0038540000095963478 -0.1713549941778183 0.00067300000227987766
   vertex 0.0047699999995529652 -0.16776099801063538 0.0012870000209659338
  endloop
 endfacet
 facet normal -0.6096707355283576 -0.28030911678629788 0.74143670888808644
  outer loop
   vertex -0.0020729999523609877 -0.16894400119781494 0.001686000032350421
   vertex 0.0017719999887049198 -0.17218600213527679 0.0036220001056790352
   vertex 0.0026469998992979527 -0.16855299472808838 0.0057149999774992466
  endloop
 endfacet
 facet normal 0.8489599575677057 -0.083830003659531929 -0.52176577209805775
  outer loop
   vertex 0.0038540000095963478 -0.1713549941778183 0.00067300000227987766
   vertex 0.0014700000174343586 -0.17541299760341644 -0.0025539998896420002
   vertex 0.0013699999544769526 -0.17257300019264221 -0.0031729999464005232
  endloop
 endfacet
 facet normal 0.88264697868929431 -0.0077611069486502992 0.46997242071167555
  outer loop
   vertex 0.0013699999544769526 -0.17257300019264221 -0.0031729999464005232
   vertex -0.0009239999926649034 -0.17265300452709198 0.0011340000201016665
   vertex -0.00061300001107156277 -0.17658400535583496 0.00048499999684281647
  endloop
 endfacet
 facet normal 0.82261790480231589 -0.051500391962893695 0.56625744350632268
  outer loop
   vertex 0.0017719999887049198 -0.17218600213527679 0.0036220001056790352
   vertex 0.0038370001129806042 -0.17514500021934509 0.00035300001036375761
   vertex 0.0038540000095963478 -0.1713549941778183 0.00067300000227987766
  endloop
 endfacet
 facet normal -0.65558045501345319 -0.15390231235909793 0.73927555434687298
  outer loop
   vertex -0.0009239999926649034 -0.17265300452709198 0.0011340000201016665
   vertex 0.0016830000095069408 -0.17630299925804138 0.0026859999634325504
   vertex 0.0017719999887049198 -0.17218600213527679 0.0036220001056790352
  endloop
 endfacet
 facet normal -0.66262474528607074 -0.47028211961383898 0.58289207826671008
  outer loop
   vertex 0.0038370001129806042 -0.17514500021934509 0.00035300001036375761
   vertex 0.0014700000174343586 -0.17541299760341644 -0.0025539998896420002
   vertex 0.0028220000676810741 -0.17822399735450745 -0.0032850001007318497
  endloop
 endfacet
 facet normal -0.82314077768446903 -0.0092455694353694145 -0.56776208006419648
  outer loop
   vertex 0.0014700000174343586 -0.17541299760341644 -0.0025539998896420002
   vertex -0.00015900000289548188 -0.18052700161933899 -0.00010900000052060932
   vertex -0.00061300001107156277 -0.17658400535583496 0.00048499999684281647
  endloop
 endfacet
 facet normal 0.76127932169477885 -0.14091081719525159 0.63292806538919089
  outer loop
   vertex 0.0016830000095069408 -0.17630299925804138 0.0026859999634325504
   vertex 0.0039650001563131809 -0.17876100540161133 -0.00060600001597777009
   vertex 0.0038370001129806042 -0.17514500021934509 0.00035300001036375761
  endloop
 endfacet
 facet normal -0.66779600553178353 -0.18694184637035779 0.72048680839515422
  outer loop
   vertex -0.00061300001107156277 -0.17658400535583496 0.00048499999684281647
   vertex 0.0024540000595152378 -0.18088400363922119 0.0022120000794529915
   vertex 0.0016830000095069408 -0.17630299925804138 0.0026859999634325504
  endloop
 endfacet
 facet normal -0.8789916967180097 -0.36993373157779535 0.30086979134124126
  outer loop
   vertex 0.0039650001563131809 -0.17876100540161133 -0.00060600001597777009
   vertex 0.0028220000676810741 -0.17822399735450745 -0.0032850001007318497
   vertex 0.0038620000705122948 -0.18107900023460388 -0.0037569999694824219
  endloop
 endfacet
 facet normal -0.68807102189480396 -0.1004421964877398 -0.71865821778739758
  outer loop
   vertex 0.0028220000676810741 -0.17822399735450745 -0.0032850001007318497
   vertex 0.0014250000240281224 -0.18389399349689484 -0.0011549999471753836
   vertex -0.00015900000289548188 -0.18052700161933899 -0.00010900000052060932
  endloop
 endfacet
 facet normal -0.81907325093075301 -0.15150391592264198 -0.5533223048728767
  outer loop
   vertex 0.0024540000595152378 -0.18088400363922119 0.0022120000794529915
   vertex 0.0039650001563131809 -0.17876100540161133 -0.00060600001597777009
   vertex 0.0050280001014471054 -0.18229100108146667 -0.0012130000395700336
  endloop
 endfacet
 facet normal -0.64242832939262107 -0.38165961031648704 0.66454629894904471
  outer loop
   vertex -0.00015900000289548188 -0.18052700161933899 -0.00010900000052060932
   vertex 0.0035149999894201756 -0.1848829984664917 0.00094100000569596887
   vertex 0.0024540000595152378 -0.18088400363922119 0.0022120000794529915
  endloop
 endfacet
 facet normal -0.91089294993583081 -0.31375459182891979 0.26801509260388234
  outer loop
   vertex 0.0050280001014471054 -0.18229100108146667 -0.0012130000395700336
   vertex 0.0038620000705122948 -0.18107900023460388 -0.0037569999694824219
   vertex 0.004747999832034111 -0.18396900594234467 -0.0041290000081062317
  endloop
 endfacet
 facet normal -0.67797296260313089 -0.087680700140767426 -0.72983885673616922
  outer loop
   vertex 0.0038620000705122948 -0.18107900023460388 -0.0037569999694824219
   vertex 0.0036559998989105225 -0.18632000684738159 -0.0029360000044107437
   vertex 0.0014250000240281224 -0.18389399349689484 -0.0011549999471753836
  endloop
 endfacet
 facet normal 0.91216292791514997 -0.30452413166720071 0.27426965958632438
  outer loop
   vertex 0.0035149999894201756 -0.1848829984664917 0.00094100000569596887
   vertex 0.0041379998438060284 -0.18581700325012207 -0.0021679999772459269
   vertex 0.0050280001014471054 -0.18229100108146667 -0.0012130000395700336
  endloop
 endfacet
 facet normal -0.53644367573319707 -0.83183492098524714 0.14240381664591778
  outer loop
   vertex 0.0014250000240281224 -0.18389399349689484 -0.0011549999471753836
   vertex 0.0041379998438060284 -0.18581700325012207 -0.0021679999772459269
   vertex 0.0035149999894201756 -0.1848829984664917 0.00094100000569596887
  endloop
 endfacet
 facet normal 0.84387546481244358 -0.49590358730919826 -0.20482634591636603
  outer loop
   vertex 0.0041379998438060284 -0.18581700325012207 -0.0021679999772459269
   vertex 0.0036559998989105225 -0.18632000684738159 -0.0029360000044107437
   vertex 0.004747999832034111 -0.18396900594234467 -0.0041290000081062317
  endloop
 endfacet
endsolid
