solid Visualization Toolkit generated SLA File
 facet normal -0.067328509240441675 0.99659646312076755 -0.047564288480293287
  outer loop
   vertex 0.00019700000120792538 -0.13676099479198456 -0.026993000879883766
   vertex -0.0058450000360608101 -0.13664600253105164 -0.016031000763177872
   vertex -0.00062100001377984881 -0.13651500642299652 -0.020680999383330345
  endloop
 endfacet
 facet normal 0.92523217800624158 -0.35504730673921964 0.13374164182876125
  outer loop
   vertex -0.0020220000296831131 -0.14244300127029419 -0.026726000010967255
   vertex 0.00019700000120792538 -0.13676099479198456 -0.026993000879883766
   vertex -0.00062100001377984881 -0.13651500642299652 -0.020680999383330345
  endloop
 endfacet
 facet normal 0.4590263408833965 -0.16508208233907939 -0.87295058535165282
  outer loop
   vertex 0.00019700000120792538 -0.13676099479198456 -0.026993000879883766
   vertex -0.0047470000572502613 -0.14191000163555145 -0.028619000688195229
   vertex -0.0045590000227093697 -0.13679200410842896 -0.029487999156117439
  endloop
 endfacet
 facet normal 0.64683574870711724 -0.25264669340332224 0.71956456451584039
  outer loop
   vertex -0.0058450000360608101 -0.13664600253105164 -0.016031000763177872
   vertex -0.0019799999427050352 -0.14204500615596771 -0.021400999277830124
   vertex -0.00062100001377984881 -0.13651500642299652 -0.020680999383330345
  endloop
 endfacet
 facet normal -0.68810707590410825 -0.18381473070225521 0.70194073600807294
  outer loop
   vertex -0.010642999783158302 -0.13698799908161163 -0.020824000239372253
   vertex -0.0049870000220835209 -0.14240500330924988 -0.016697999089956284
   vertex -0.0058450000360608101 -0.13664600253105164 -0.016031000763177872
  endloop
 endfacet
 facet normal -0.98837479401273998 -0.13914741812727602 -0.061263876703868944
  outer loop
   vertex -0.010285999625921249 -0.1372700035572052 -0.025942999869585037
   vertex -0.0098569998517632484 -0.14253799617290497 -0.020898999646306038
   vertex -0.010642999783158302 -0.13698799908161163 -0.020824000239372253
  endloop
 endfacet
 facet normal -0.5058477993848276 -0.18613146014051385 -0.84230225180957907
  outer loop
   vertex -0.0045590000227093697 -0.13679200410842896 -0.029487999156117439
   vertex -0.0095210000872612 -0.14256200194358826 -0.025233000516891479
   vertex -0.010285999625921249 -0.1372700035572052 -0.025942999869585037
  endloop
 endfacet
 facet normal -0.12227322645985085 -0.92476840708771924 -0.3603507337907616
  outer loop
   vertex -0.0050329999066889286 -0.1701200008392334 -0.02180200070142746
   vertex -0.0041339998133480549 -0.16866500675678253 -0.025840999558568001
   vertex -0.0017549999756738544 -0.16933999955654144 -0.024916000664234161
  endloop
 endfacet
 facet normal -0.63866946916533818 -0.28678987341940471 0.71403982918332154
  outer loop
   vertex -0.007772000040858984 -0.16495899856090546 -0.022179000079631805
   vertex -0.0050329999066889286 -0.1701200008392334 -0.02180200070142746
   vertex -0.003186000045388937 -0.16637299954891205 -0.018644999712705612
  endloop
 endfacet
 facet normal 0.89620118780057578 -0.28549407156587614 0.33958292961451331
  outer loop
   vertex -0.003186000045388937 -0.16637299954891205 -0.018644999712705612
   vertex -0.0017549999756738544 -0.16933999955654144 -0.024916000664234161
   vertex -0.00076899997657164931 -0.16453200578689575 -0.023476000875234604
  endloop
 endfacet
 facet normal 0.99423139460426913 -0.10725625158345677 0.00017458383727293546
  outer loop
   vertex -0.0019799999427050352 -0.14204500615596771 -0.021400999277830124
   vertex -0.0026610000059008598 -0.14836600422859192 -0.026527000591158867
   vertex -0.0020220000296831131 -0.14244300127029419 -0.026726000010967255
  endloop
 endfacet
 facet normal 0.55110685415080218 -0.11681736709712799 -0.82621724628120752
  outer loop
   vertex -0.0020220000296831131 -0.14244300127029419 -0.026726000010967255
   vertex -0.0047809998504817486 -0.14728300273418427 -0.027882000431418419
   vertex -0.0047470000572502613 -0.14191000163555145 -0.028619000688195229
  endloop
 endfacet
 facet normal 0.82143647897698124 -0.26515081606503282 0.50491301800007737
  outer loop
   vertex -0.0049870000220835209 -0.14240500330924988 -0.016697999089956284
   vertex -0.0032160000409930944 -0.14760699868202209 -0.022311000153422356
   vertex -0.0019799999427050352 -0.14204500615596771 -0.021400999277830124
  endloop
 endfacet
 facet normal -0.57887138412909678 0.0039194678976331122 -0.81540944218709099
  outer loop
   vertex -0.0047470000572502613 -0.14191000163555145 -0.028619000688195229
   vertex -0.0084039997309446335 -0.14776800572872162 -0.026050999760627747
   vertex -0.0095210000872612 -0.14256200194358826 -0.025233000516891479
  endloop
 endfacet
 facet normal -0.64047790756972922 -0.17409271731323031 0.74798380710654244
  outer loop
   vertex -0.0098569998517632484 -0.14253799617290497 -0.020898999646306038
   vertex -0.0051899999380111694 -0.14832200109958649 -0.018248999491333961
   vertex -0.0049870000220835209 -0.14240500330924988 -0.016697999089956284
  endloop
 endfacet
 facet normal -0.98578588675252543 -0.15003938819631402 -0.075593435357924704
  outer loop
   vertex -0.0095210000872612 -0.14256200194358826 -0.025233000516891479
   vertex -0.009019000455737114 -0.14806899428367615 -0.020849000662565231
   vertex -0.0098569998517632484 -0.14253799617290497 -0.020898999646306038
  endloop
 endfacet
 facet normal 0.52891886259262766 -0.69801577847651364 0.48272021895871287
  outer loop
   vertex -0.00076899997657164931 -0.16453200578689575 -0.023476000875234604
   vertex -0.0018570000538602471 -0.16860400140285492 -0.028171999379992485
   vertex 0.0020039998926222324 -0.16514100134372711 -0.02739500068128109
  endloop
 endfacet
 facet normal -0.032548269768315992 -0.97509324664569008 -0.21939409855567277
  outer loop
   vertex -0.0017549999756738544 -0.16933999955654144 -0.024916000664234161
   vertex -0.0033660000190138817 -0.1686290055513382 -0.027837000787258148
   vertex -0.0018570000538602471 -0.16860400140285492 -0.028171999379992485
  endloop
 endfacet
 facet normal -0.64626002289223683 -0.21980984230370737 -0.73077466844284145
  outer loop
   vertex -0.0036049999762326479 -0.16325199604034424 -0.027937000617384911
   vertex -0.0041339998133480549 -0.16866500675678253 -0.025840999558568001
   vertex -0.0062680002301931381 -0.16385699808597565 -0.025399999693036079
  endloop
 endfacet
 facet normal -0.77110598688474985 -0.39866236895858664 -0.49645127914713194
  outer loop
   vertex -0.0062680002301931381 -0.16385699808597565 -0.025399999693036079
   vertex -0.0054230000823736191 -0.16976900398731232 -0.021965000778436661
   vertex -0.007772000040858984 -0.16495899856090546 -0.022179000079631805
  endloop
 endfacet
 facet normal -0.94949018717233824 -0.099448097634625976 -0.29762133717240757
  outer loop
   vertex -0.0072349999099969864 -0.15858200192451477 -0.026023000478744507
   vertex -0.007772000040858984 -0.16495899856090546 -0.022179000079631805
   vertex -0.0084600001573562622 -0.15931500494480133 -0.021870000287890434
  endloop
 endfacet
 facet normal 0.35933505909177899 -0.15219234201570322 -0.92071483442990254
  outer loop
   vertex -0.0084600001573562622 -0.15931500494480133 -0.021870000287890434
   vertex -0.0041820001788437366 -0.16049100458621979 -0.020005999132990837
   vertex -0.003186000045388937 -0.16637299954891205 -0.018644999712705612
  endloop
 endfacet
 facet normal -0.79053446348270362 -0.16008110256805833 -0.59112545423683849
  outer loop
   vertex -0.0041820001788437366 -0.16049100458621979 -0.020005999132990837
   vertex -0.002225999953225255 -0.1589210033416748 -0.023047000169754028
   vertex -0.00076899997657164931 -0.16453200578689575 -0.023476000875234604
  endloop
 endfacet
 facet normal -0.84834824479837323 -0.52399473016401166 -0.075728319061391644
  outer loop
   vertex -0.002225999953225255 -0.1589210033416748 -0.023047000169754028
   vertex -0.00089199998183175921 -0.16043199598789215 -0.027535999193787575
   vertex 0.0020039998926222324 -0.16514100134372711 -0.02739500068128109
  endloop
 endfacet
 facet normal -0.99169005180174441 -0.029235796354436561 -0.12528411459149755
  outer loop
   vertex -0.0032160000409930944 -0.14760699868202209 -0.022311000153422356
   vertex -0.0026610000059008598 -0.14836600422859192 -0.026527000591158867
   vertex -0.0023940000683069229 -0.1548130065202713 -0.027135999873280525
  endloop
 endfacet
 facet normal 0.51231005819430109 -0.068234890486607316 -0.85608551207997474
  outer loop
   vertex -0.0026610000059008598 -0.14836600422859192 -0.026527000591158867
   vertex -0.0050440002232789993 -0.15262000262737274 -0.02761399932205677
   vertex -0.0047809998504817486 -0.14728300273418427 -0.027882000431418419
  endloop
 endfacet
 facet normal -0.90096825470179465 0.027392924903358956 -0.4330194356894862
  outer loop
   vertex -0.0051899999380111694 -0.14832200109958649 -0.018248999491333961
   vertex -0.0032160000409930944 -0.14760699868202209 -0.022311000153422356
   vertex -0.0032430000137537718 -0.15334799885749817 -0.022617999464273453
  endloop
 endfacet
 facet normal -0.45196260020131396 0.0086967129568937852 -0.89199449280980025
  outer loop
   vertex -0.0047809998504817486 -0.14728300273418427 -0.027882000431418419
   vertex -0.0076919998973608017 -0.15312600135803223 -0.026464000344276428
   vertex -0.0084039997309446335 -0.14776800572872162 -0.026050999760627747
  endloop
 endfacet
 facet normal -0.56349796614975123 -0.09617776876456019 0.82049977388209228
  outer loop
   vertex -0.009019000455737114 -0.14806899428367615 -0.020849000662565231
   vertex -0.005140999797731638 -0.1544869989156723 -0.018937999382615089
   vertex -0.0051899999380111694 -0.14832200109958649 -0.018248999491333961
  endloop
 endfacet
 facet normal -0.99161189129256988 -0.047996077968579021 -0.12000930608418146
  outer loop
   vertex -0.0084039997309446335 -0.14776800572872162 -0.026050999760627747
   vertex -0.0086679998785257339 -0.15367799997329712 -0.021506000310182571
   vertex -0.009019000455737114 -0.14806899428367615 -0.020849000662565231
  endloop
 endfacet
 facet normal 0.091347177028382007 -0.014457715623105993 -0.99571414959711546
  outer loop
   vertex 0.0020039998926222324 -0.16514100134372711 -0.02739500068128109
   vertex -0.0033660000190138817 -0.1686290055513382 -0.027837000787258148
   vertex -0.0036049999762326479 -0.16325199604034424 -0.027937000617384911
  endloop
 endfacet
 facet normal 0.1088621675175932 0.036526932632172042 -0.99338553023277731
  outer loop
   vertex -0.00089199998183175921 -0.16043199598789215 -0.027535999193787575
   vertex -0.0036049999762326479 -0.16325199604034424 -0.027937000617384911
   vertex -0.0042710001580417156 -0.15792199969291687 -0.027814000844955444
  endloop
 endfacet
 facet normal -0.47673284414877326 -0.18879048217389555 -0.85853593352309343
  outer loop
   vertex -0.0042710001580417156 -0.15792199969291687 -0.027814000844955444
   vertex -0.0062680002301931381 -0.16385699808597565 -0.025399999693036079
   vertex -0.0072349999099969864 -0.15858200192451477 -0.026023000478744507
  endloop
 endfacet
 facet normal -0.37898108666670366 -0.10605001534318004 -0.91930774509662194
  outer loop
   vertex -0.0050440002232789993 -0.15262000262737274 -0.02761399932205677
   vertex -0.0072349999099969864 -0.15858200192451477 -0.026023000478744507
   vertex -0.0076919998973608017 -0.15312600135803223 -0.026464000344276428
  endloop
 endfacet
 facet normal -0.98039788682050388 -0.023544103938982947 -0.19561610027705023
  outer loop
   vertex -0.0076919998973608017 -0.15312600135803223 -0.026464000344276428
   vertex -0.0084600001573562622 -0.15931500494480133 -0.021870000287890434
   vertex -0.0086679998785257339 -0.15367799997329712 -0.021506000310182571
  endloop
 endfacet
 facet normal -0.60676648271987776 -0.23214654827779801 0.76022524002459446
  outer loop
   vertex -0.0086679998785257339 -0.15367799997329712 -0.021506000310182571
   vertex -0.0041820001788437366 -0.16049100458621979 -0.020005999132990837
   vertex -0.005140999797731638 -0.1544869989156723 -0.018937999382615089
  endloop
 endfacet
 facet normal -0.86650834523200759 -0.12084470502116175 -0.48431378765386862
  outer loop
   vertex -0.005140999797731638 -0.1544869989156723 -0.018937999382615089
   vertex -0.0032430000137537718 -0.15334799885749817 -0.022617999464273453
   vertex -0.002225999953225255 -0.1589210033416748 -0.023047000169754028
  endloop
 endfacet
 facet normal -0.96300727080174953 -0.25031521914940497 -0.09979622961390576
  outer loop
   vertex -0.0032430000137537718 -0.15334799885749817 -0.022617999464273453
   vertex -0.0023940000683069229 -0.1548130065202713 -0.027135999873280525
   vertex -0.00089199998183175921 -0.16043199598789215 -0.027535999193787575
  endloop
 endfacet
 facet normal 0.2333643093249157 0.070606718539672417 -0.9698225561567253
  outer loop
   vertex -0.0023940000683069229 -0.1548130065202713 -0.027135999873280525
   vertex -0.0042710001580417156 -0.15792199969291687 -0.027814000844955444
   vertex -0.0050440002232789993 -0.15262000262737274 -0.02761399932205677
  endloop
 endfacet
endsolid
