solid Visualization Toolkit generated SLA File
 facet normal 0.36676277827897735 0.91045554780419602 -0.1911956064914852
  outer loop
   vertex 0 0.05291999876499176 0
   vertex 0.005481999833136797 0.049127001315355301 -0.0075460001826286316
   vertex 0 0.050273999571800232 -0.012600000016391277
  endloop
 endfacet
 facet normal 0.40041242149498585 0.7935259180228178 -0.45824285061369585
  outer loop
   vertex 0 0.050273999571800232 -0.012600000016391277
   vertex 0.010146999731659889 0.044364999979734421 -0.013965999707579613
   vertex 0 0.044982001185417175 -0.021764000877737999
  endloop
 endfacet
 facet normal 0.56314606893877539 0.24002282455578391 -0.79073102173309706
  outer loop
   vertex 0 0.044982001185417175 -0.021764000877737999
   vertex 0.012023000046610832 0.033957000821828842 -0.016548000276088715
   vertex 0 0.035280000418424606 -0.024708999320864677
  endloop
 endfacet
 facet normal 0.48067816692345849 -0.24069811146575301 -0.84321581992982308
  outer loop
   vertex 0 0.035280000418424606 -0.024708999320864677
   vertex 0.011013000272214413 0.023814000189304352 -0.015158000402152538
   vertex 0 0.023814000189304352 -0.021436000242829323
  endloop
 endfacet
 facet normal -0.14516666435496142 0.72504874255310303 0.67322430176146941
  outer loop
   vertex 0 0.023814000189304352 -0.021436000242829323
   vertex 0 0.018345000222325325 -0.015545999631285667
   vertex 0.0085119996219873428 0.016493000090122223 -0.01171599980443716
  endloop
 endfacet
 facet normal 0.48260446658057998 -0.18764247165147802 -0.85550174264521417
  outer loop
   vertex 0 0.018345000222325325 -0.015545999631285667
   vertex 0.0069249998778104782 0.0087320003658533096 -0.0095309996977448463
   vertex 0 0.0086430003866553307 -0.013418000191450119
  endloop
 endfacet
 facet normal 0.35776396122218984 -0.71423372545016817 -0.60156058172072835
  outer loop
   vertex 0 0.0086430003866553307 -0.013418000191450119
   vertex 0.0039909998886287212 0.0039690001867711544 -0.0054950001649558544
   vertex 0 0.0042329998686909676 -0.0081820003688335419
  endloop
 endfacet
 facet normal 0.24309725383058314 -0.86153282516140284 -0.4457184272042618
  outer loop
   vertex 0 0.0042329998686909676 -0.0081820003688335419
   vertex 0.0039909998886287212 0.0039690001867711544 -0.0054950001649558544
   vertex 0 0 0
  endloop
 endfacet
 facet normal 0.66819011258889305 0.73488637275470359 0.11603444565247517
  outer loop
   vertex 0 0.05291999876499176 0
   vertex 0.0057580000720918179 0.047979999333620071 -0.0018710000440478325
   vertex 0.005481999833136797 0.049127001315355301 -0.0075460001826286316
  endloop
 endfacet
 facet normal 0.65329476754712323 0.75249068741821645 -0.083448858856249572
  outer loop
   vertex 0.005481999833136797 0.049127001315355301 -0.0075460001826286316
   vertex 0.012138999998569489 0.043747000396251678 -0.0039440002292394638
   vertex 0.010146999731659889 0.044364999979734421 -0.013965999707579613
  endloop
 endfacet
 facet normal 0.94041689780471394 0.23132875624384294 -0.24920486523748883
  outer loop
   vertex 0.010146999731659889 0.044364999979734421 -0.013965999707579613
   vertex 0.015406999737024307 0.032634001225233078 -0.0050059999339282513
   vertex 0.012023000046610832 0.033957000821828842 -0.016548000276088715
  endloop
 endfacet
 facet normal 0.91400565786411214 -0.14304023344138228 -0.37964871790831367
  outer loop
   vertex 0.012023000046610832 0.033957000821828842 -0.016548000276088715
   vertex 0.015251000411808491 0.023814000189304352 -0.004954999778419733
   vertex 0.011013000272214413 0.023814000189304352 -0.015158000402152538
  endloop
 endfacet
 facet normal 0.70725926768640812 -0.48391808414883364 -0.51537133807130586
  outer loop
   vertex 0.011013000272214413 0.023814000189304352 -0.015158000402152538
   vertex 0.012760999612510204 0.014640999957919121 -0.0041459999047219753
   vertex 0.0085119996219873428 0.016493000090122223 -0.01171599980443716
  endloop
 endfacet
 facet normal 0.88318237920741027 -0.28538796110703779 -0.37221310658372314
  outer loop
   vertex 0.0085119996219873428 0.016493000090122223 -0.01171599980443716
   vertex 0.0096490001305937767 0.0088200001046061516 -0.0031349998898804188
   vertex 0.0069249998778104782 0.0087320003658533096 -0.0095309996977448463
  endloop
 endfacet
 facet normal 0.70992565104640959 -0.65551293879318029 -0.2575040913481953
  outer loop
   vertex 0.0069249998778104782 0.0087320003658533096 -0.0095309996977448463
   vertex 0.005135000217705965 0.0037050000391900539 -0.0016690000193193555
   vertex 0.0039909998886287212 0.0039690001867711544 -0.0054950001649558544
  endloop
 endfacet
 facet normal 0.52493296310843152 -0.82385223906866023 -0.21380568847380366
  outer loop
   vertex 0.0039909998886287212 0.0039690001867711544 -0.0054950001649558544
   vertex 0.005135000217705965 0.0037050000391900539 -0.0016690000193193555
   vertex 0 0 0
  endloop
 endfacet
 facet normal 0.65113861413804131 0.75895882969920769 0
  outer loop
   vertex 0 0.05291999876499176 0
   vertex 0.0057580000720918179 0.047979999333620071 0.0018710000440478325
   vertex 0.0057580000720918179 0.047979999333620071 -0.0018710000440478325
  endloop
 endfacet
 facet normal 0.55280003897592167 0.83331393658585806 0
  outer loop
   vertex 0.0057580000720918179 0.047979999333620071 -0.0018710000440478325
   vertex 0.012138999998569489 0.043747000396251678 0.0039440002292394638
   vertex 0.012138999998569489 0.043747000396251678 -0.0039440002292394638
  endloop
 endfacet
 facet normal 0.95937787310231193 0.28212425737905672 0
  outer loop
   vertex 0.012138999998569489 0.043747000396251678 -0.0039440002292394638
   vertex 0.015406999737024307 0.032634001225233078 0.0050059999339282513
   vertex 0.015406999737024307 0.032634001225233078 -0.0050059999339282513
  endloop
 endfacet
 facet normal 0.99984362177076536 -0.01768423038525796 0
  outer loop
   vertex 0.015406999737024307 0.032634001225233078 -0.0050059999339282513
   vertex 0.015251000411808491 0.023814000189304352 0.004954999778419733
   vertex 0.015251000411808491 0.023814000189304352 -0.004954999778419733
  endloop
 endfacet
 facet normal 0.96507631537549599 -0.26196890178274229 0
  outer loop
   vertex 0.015251000411808491 0.023814000189304352 -0.004954999778419733
   vertex 0.012760999612510204 0.014640999957919121 0.0041459999047219753
   vertex 0.012760999612510204 0.014640999957919121 -0.0041459999047219753
  endloop
 endfacet
 facet normal 0.88188282623883896 -0.47146864241961811 0
  outer loop
   vertex 0.012760999612510204 0.014640999957919121 -0.0041459999047219753
   vertex 0.0096490001305937767 0.0088200001046061516 0.0031349998898804188
   vertex 0.0096490001305937767 0.0088200001046061516 -0.0031349998898804188
  endloop
 endfacet
 facet normal 0.74978225221140837 -0.66168464865734056 0
  outer loop
   vertex 0.0096490001305937767 0.0088200001046061516 -0.0031349998898804188
   vertex 0.005135000217705965 0.0037050000391900539 0.0016690000193193555
   vertex 0.005135000217705965 0.0037050000391900539 -0.0016690000193193555
  endloop
 endfacet
 facet normal 0.58511568515863388 -0.81094983505845941 0
  outer loop
   vertex 0.005135000217705965 0.0037050000391900539 -0.0016690000193193555
   vertex 0.005135000217705965 0.0037050000391900539 0.0016690000193193555
   vertex 0 0 0
  endloop
 endfacet
 facet normal 0.65652272137808021 0.75369016108817377 -0.030480442798658539
  outer loop
   vertex 0 0.05291999876499176 0
   vertex 0.0038950000889599323 0.049743998795747757 0.0053619998507201672
   vertex 0.0057580000720918179 0.047979999333620071 0.0018710000440478325
  endloop
 endfacet
 facet normal 0.56600070970365179 0.8219254552323042 -0.063888517404397729
  outer loop
   vertex 0.0057580000720918179 0.047979999333620071 0.0018710000440478325
   vertex 0.008992999792098999 0.04656900092959404 0.012377999722957611
   vertex 0.012138999998569489 0.043747000396251678 0.0039440002292394638
  endloop
 endfacet
 facet normal 0.94275151260854306 0.29253749875265278 0.16012931429893018
  outer loop
   vertex 0.012138999998569489 0.043747000396251678 0.0039440002292394638
   vertex 0.012600000016391277 0.034926999360322952 0.017342999577522278
   vertex 0.015406999737024307 0.032634001225233078 0.0050059999339282513
  endloop
 endfacet
 facet normal 0.94882770834585273 -0.018604766664791769 0.31524568598555963
  outer loop
   vertex 0.015406999737024307 0.032634001225233078 0.0050059999339282513
   vertex 0.011590000241994858 0.02346000075340271 0.015953000634908676
   vertex 0.015251000411808491 0.023814000189304352 0.004954999778419733
  endloop
 endfacet
 facet normal 0.86118551281755318 -0.27165645516583115 0.42960712619776531
  outer loop
   vertex 0.015251000411808491 0.023814000189304352 0.004954999778419733
   vertex 0.0090889995917677879 0.016228999942541122 0.012511000037193298
   vertex 0.012760999612510204 0.014640999957919121 0.0041459999047219753
  endloop
 endfacet
 facet normal 0.84228831694104811 -0.48950041176668996 0.22569833412069643
  outer loop
   vertex 0.012760999612510204 0.014640999957919121 0.0041459999047219753
   vertex 0.0075509999878704548 0.0085559999570250511 0.010391999967396259
   vertex 0.0096490001305937767 0.0088200001046061516 0.0031349998898804188
  endloop
 endfacet
 facet normal 0.74271020522358167 -0.66814491605419135 0.044316161924094398
  outer loop
   vertex 0.0096490001305937767 0.0088200001046061516 0.0031349998898804188
   vertex 0.0046169999986886978 0.0034399998839944601 0.0063550001941621304
   vertex 0.005135000217705965 0.0037050000391900539 0.0016690000193193555
  endloop
 endfacet
 facet normal 0.58111583160308711 -0.81361673010713587 0.01822653971615432
  outer loop
   vertex 0.005135000217705965 0.0037050000391900539 0.0016690000193193555
   vertex 0.0046169999986886978 0.0034399998839944601 0.0063550001941621304
   vertex 0 0 0
  endloop
 endfacet
 facet normal 0.47203161447896108 0.86512554700265754 0.16954038709327654
  outer loop
   vertex 0 0.05291999876499176 0
   vertex 0 0.051509000360965729 0.0071999998763203621
   vertex 0.0038950000889599323 0.049743998795747757 0.0053619998507201672
  endloop
 endfacet
 facet normal 0.37424640899941686 0.91628173344072827 0.14271443624908969
  outer loop
   vertex 0.0038950000889599323 0.049743998795747757 0.0053619998507201672
   vertex 0 0.049391999840736389 0.017836000770330429
   vertex 0.008992999792098999 0.04656900092959404 0.012377999722957611
  endloop
 endfacet
 facet normal 0.5799453159738166 0.46496436828486165 0.66893315563327349
  outer loop
   vertex 0.008992999792098999 0.04656900092959404 0.012377999722957611
   vertex 0 0.037220001220703125 0.026673000305891037
   vertex 0.012600000016391277 0.034926999360322952 0.017342999577522278
  endloop
 endfacet
 facet normal 0.53778354759050861 -0.14797711528996194 0.82999495738915707
  outer loop
   vertex 0.012600000016391277 0.034926999360322952 0.017342999577522278
   vertex 0 0.02310900017619133 0.023399999365210533
   vertex 0.011590000241994858 0.02346000075340271 0.015953000634908676
  endloop
 endfacet
 facet normal 0.34926608140158377 -0.49847908011581105 0.79343040719982294
  outer loop
   vertex 0.011590000241994858 0.02346000075340271 0.015953000634908676
   vertex 0 0.017815999686717987 0.01750900037586689
   vertex 0.0090889995917677879 0.016228999942541122 0.012511000037193298
  endloop
 endfacet
 facet normal 0.5412599741836337 -0.32290060814017396 0.77638446507477077
  outer loop
   vertex 0.0090889995917677879 0.016228999942541122 0.012511000037193298
   vertex 0 0.0082909995689988136 0.015545999631285667
   vertex 0.0075509999878704548 0.0085559999570250511 0.010391999967396259
  endloop
 endfacet
 facet normal 0.49001482967944548 -0.69559812006331079 0.52538435650351434
  outer loop
   vertex 0.0075509999878704548 0.0085559999570250511 0.010391999967396259
   vertex 0 0.0031739999540150166 0.010308999568223953
   vertex 0.0046169999986886978 0.0034399998839944601 0.0063550001941621304
  endloop
 endfacet
 facet normal 0.29353594351422285 -0.91362522980739413 0.28129271111175502
  outer loop
   vertex 0.0046169999986886978 0.0034399998839944601 0.0063550001941621304
   vertex 0 0.0031739999540150166 0.010308999568223953
   vertex 0 0 0
  endloop
 endfacet
 facet normal -0.12038135987875354 0.9741969342550636 0.19091532542406747
  outer loop
   vertex 0 0.05291999876499176 0
   vertex -0.0033670000266283751 0.051596000790596008 0.0046330001205205917
   vertex 0 0.051509000360965729 0.0071999998763203621
  endloop
 endfacet
 facet normal -0.62152794477710982 0.76832041492645531 0.1529272829431739
  outer loop
   vertex 0 0.051509000360965729 0.0071999998763203621
   vertex -0.0067810001783072948 0.045598998665809631 0.009332999587059021
   vertex 0 0.049391999840736389 0.017836000770330429
  endloop
 endfacet
 facet normal -0.82047162217556402 0.33586824238967905 0.46262170394250468
  outer loop
   vertex 0 0.049391999840736389 0.017836000770330429
   vertex -0.0087519995868206024 0.035985998809337616 0.012047000229358673
   vertex 0 0.037220001220703125 0.026673000305891037
  endloop
 endfacet
 facet normal -0.84681785082463601 -0.12017813626210407 0.51812811455209762
  outer loop
   vertex 0 0.037220001220703125 0.026673000305891037
   vertex -0.0079349996522068977 0.025225000455975533 0.01092199981212616
   vertex 0 0.02310900017619133 0.023399999365210533
  endloop
 endfacet
 facet normal 0.22432441880433218 0.72489515503665702 -0.65131065501224483
  outer loop
   vertex 0 0.02310900017619133 0.023399999365210533
   vertex 0 0.017815999686717987 0.01750900037586689
   vertex -0.0084640001878142357 0.015170999802649021 0.011649999767541885
  endloop
 endfacet
 facet normal -0.54753993896178288 -0.16890175619479553 0.81955610667973233
  outer loop
   vertex 0 0.017815999686717987 0.01750900037586689
   vertex -0.0075509999878704548 0.0077610001899302006 0.010391999967396259
   vertex 0 0.0082909995689988136 0.015545999631285667
  endloop
 endfacet
 facet normal -0.41234575155109499 -0.65161596766957552 0.6366848607088168
  outer loop
   vertex 0 0.0082909995689988136 0.015545999631285667
   vertex -0.0050490000285208225 0.0030869999900460243 0.0069499998353421688
   vertex 0 0.0031739999540150166 0.010308999568223953
  endloop
 endfacet
 facet normal -0.17647977689594868 -0.94072603984839975 0.28963667982129498
  outer loop
   vertex 0 0.0031739999540150166 0.010308999568223953
   vertex -0.0050490000285208225 0.0030869999900460243 0.0069499998353421688
   vertex 0 0 0
  endloop
 endfacet
 facet normal -0.26700140945776391 0.96033650584017816 0.080399271751957144
  outer loop
   vertex 0 0.05291999876499176 0
   vertex -0.0040460000745952129 0.051685001701116562 0.0013150000013411045
   vertex -0.0033670000266283751 0.051596000790596008 0.0046330001205205917
  endloop
 endfacet
 facet normal -0.90720282097503369 0.25308277068208851 -0.33605379450144379
  outer loop
   vertex -0.0033670000266283751 0.051596000790596008 0.0046330001205205917
   vertex -0.0049809999763965607 0.04180699959397316 0.0016179999802261591
   vertex -0.0067810001783072948 0.045598998665809631 0.009332999587059021
  endloop
 endfacet
 facet normal -0.88289191860133376 0.049179003550685191 -0.46699388184238277
  outer loop
   vertex -0.0067810001783072948 0.045598998665809631 0.009332999587059021
   vertex -0.0029569999314844608 0.034751001745462418 0.00096099998336285353
   vertex -0.0087519995868206024 0.035985998809337616 0.012047000229358673
  endloop
 endfacet
 facet normal -0.90623762701269472 -0.02468101018855566 -0.42204764082088203
  outer loop
   vertex -0.0087519995868206024 0.035985998809337616 0.012047000229358673
   vertex -0.0034239999949932098 0.027341999113559723 0.0011119999689981341
   vertex -0.0079349996522068977 0.025225000455975533 0.01092199981212616
  endloop
 endfacet
 facet normal -0.96656646681978753 0.068743937080971831 0.24702942402499342
  outer loop
   vertex -0.0079349996522068977 0.025225000455975533 0.01092199981212616
   vertex -0.010738000273704529 0.012524000369012356 0.0034890000242739916
   vertex -0.0084640001878142357 0.015170999802649021 0.011649999767541885
  endloop
 endfacet
 facet normal -0.94426780069869276 -0.16472896079814461 0.28499594740630468
  outer loop
   vertex -0.0084640001878142357 0.015170999802649021 0.011649999767541885
   vertex -0.0096490001305937767 0.0072320001199841499 0.0031349998898804188
   vertex -0.0075509999878704548 0.0077610001899302006 0.010391999967396259
  endloop
 endfacet
 facet normal -0.76680660545699697 -0.59242092058599938 0.24707303106481365
  outer loop
   vertex -0.0075509999878704548 0.0077610001899302006 0.010391999967396259
   vertex -0.0065359999425709248 0.0029990000184625387 0.0021240001078695059
   vertex -0.0050490000285208225 0.0030869999900460243 0.0069499998353421688
  endloop
 endfacet
 facet normal -0.37731372607616664 -0.91648957797581232 0.13297069442639145
  outer loop
   vertex -0.0050490000285208225 0.0030869999900460243 0.0069499998353421688
   vertex -0.0065359999425709248 0.0029990000184625387 0.0021240001078695059
   vertex 0 0 0
  endloop
 endfacet
 facet normal -0.29194162198574403 0.95643613971468722 0
  outer loop
   vertex 0 0.05291999876499176 0
   vertex -0.0040460000745952129 0.051685001701116562 -0.0013150000013411045
   vertex -0.0040460000745952129 0.051685001701116562 0.0013150000013411045
  endloop
 endfacet
 facet normal -0.99555011775860669 0.094233555758149637 0
  outer loop
   vertex -0.0040460000745952129 0.051685001701116562 0.0013150000013411045
   vertex -0.0049809999763965607 0.04180699959397316 -0.0016179999802261591
   vertex -0.0049809999763965607 0.04180699959397316 0.0016179999802261591
  endloop
 endfacet
 facet normal 0.96123551454697709 0.27572864481879317 0
  outer loop
   vertex -0.0049809999763965607 0.04180699959397316 0.0016179999802261591
   vertex -0.0029569999314844608 0.034751001745462418 0.00096099998336285353
   vertex -0.0029569999314844608 0.034751001745462418 -0.00096099998336285353
  endloop
 endfacet
 facet normal -0.99801941876754063 0.062906595543712779 0
  outer loop
   vertex -0.0029569999314844608 0.034751001745462418 0.00096099998336285353
   vertex -0.0034239999949932098 0.027341999113559723 -0.0011119999689981341
   vertex -0.0034239999949932098 0.027341999113559723 0.0011119999689981341
  endloop
 endfacet
 facet normal -0.89671492429671862 0.44260856808644161 0
  outer loop
   vertex -0.0034239999949932098 0.027341999113559723 0.0011119999689981341
   vertex -0.010738000273704529 0.012524000369012356 -0.0034890000242739916
   vertex -0.010738000273704529 0.012524000369012356 0.0034890000242739916
  endloop
 endfacet
 facet normal -0.97947638880516907 -0.20155893374689571 0
  outer loop
   vertex -0.010738000273704529 0.012524000369012356 0.0034890000242739916
   vertex -0.0096490001305937767 0.0072320001199841499 -0.0031349998898804188
   vertex -0.0096490001305937767 0.0072320001199841499 0.0031349998898804188
  endloop
 endfacet
 facet normal -0.80560558499537405 -0.59245222712406198 0
  outer loop
   vertex -0.0096490001305937767 0.0072320001199841499 0.0031349998898804188
   vertex -0.0065359999425709248 0.0029990000184625387 -0.0021240001078695059
   vertex -0.0065359999425709248 0.0029990000184625387 0.0021240001078695059
  endloop
 endfacet
 facet normal -0.4170377391203246 -0.90888917044346396 0
  outer loop
   vertex -0.0065359999425709248 0.0029990000184625387 0.0021240001078695059
   vertex -0.0065359999425709248 0.0029990000184625387 -0.0021240001078695059
   vertex 0 0 0
  endloop
 endfacet
 facet normal -0.26742794425106986 0.96032749337407541 -0.07907844272310767
  outer loop
   vertex 0 0.05291999876499176 0
   vertex -0.0049540000036358833 0.050978999584913254 -0.0068180002272129059
   vertex -0.0040460000745952129 0.051685001701116562 -0.0013150000013411045
  endloop
 endfacet
 facet normal -0.94605058640956574 0.079916207677680873 0.31400905672374257
  outer loop
   vertex -0.0040460000745952129 0.051685001701116562 -0.0013150000013411045
   vertex -0.0079349996522068977 0.043395001441240311 -0.01092199981212616
   vertex -0.0049809999763965607 0.04180699959397316 -0.0016179999802261591
  endloop
 endfacet
 facet normal 0.87416097465437892 0.20997809983367238 -0.43789472248652028
  outer loop
   vertex -0.0049809999763965607 0.04180699959397316 -0.0016179999802261591
   vertex -0.0029569999314844608 0.034751001745462418 -0.00096099998336285353
   vertex -0.0081759998574852943 0.03501499816775322 -0.011253000237047672
  endloop
 endfacet
 facet normal -0.91895213854353131 0.049950120161886845 0.39119298634060834
  outer loop
   vertex -0.0029569999314844608 0.034751001745462418 -0.00096099998336285353
   vertex -0.0073580001480877399 0.0255769994109869 -0.010127999819815159
   vertex -0.0034239999949932098 0.027341999113559723 -0.0011119999689981341
  endloop
 endfacet
 facet normal -0.87516134272950641 0.45731224128166098 -0.1579814488027988
  outer loop
   vertex -0.0034239999949932098 0.027341999113559723 -0.0011119999689981341
   vertex -0.0078870002180337906 0.015434999950230122 -0.010855999775230885
   vertex -0.010738000273704529 0.012524000369012356 -0.0034890000242739916
  endloop
 endfacet
 facet normal -0.89089897013186292 -0.21026272153255898 -0.40260230122505197
  outer loop
   vertex -0.010738000273704529 0.012524000369012356 -0.0034890000242739916
   vertex -0.0069249998778104782 0.0079370001330971718 -0.0095309996977448463
   vertex -0.0096490001305937767 0.0072320001199841499 -0.0031349998898804188
  endloop
 endfacet
 facet normal -0.66601891603425245 -0.59670615891597945 -0.44761653610685276
  outer loop
   vertex -0.0096490001305937767 0.0072320001199841499 -0.0031349998898804188
   vertex -0.004424000158905983 0.003616000059992075 -0.0060890000313520432
   vertex -0.0065359999425709248 0.0029990000184625387 -0.0021240001078695059
  endloop
 endfacet
 facet normal -0.31286872464433063 -0.89896865482440824 -0.30654284983118407
  outer loop
   vertex -0.0065359999425709248 0.0029990000184625387 -0.0021240001078695059
   vertex -0.004424000158905983 0.003616000059992075 -0.0060890000313520432
   vertex 0 0 0
  endloop
 endfacet
 facet normal -0.10009022810771606 0.97373906825910339 -0.2044851417175306
  outer loop
   vertex 0 0.05291999876499176 0
   vertex 0 0.050273999571800232 -0.012600000016391277
   vertex -0.0049540000036358833 0.050978999584913254 -0.0068180002272129059
  endloop
 endfacet
 facet normal -0.72073525630879864 0.5269971822938756 -0.45034948669650549
  outer loop
   vertex -0.0049540000036358833 0.050978999584913254 -0.0068180002272129059
   vertex 0 0.044982001185417175 -0.021764000877737999
   vertex -0.0079349996522068977 0.043395001441240311 -0.01092199981212616
  endloop
 endfacet
 facet normal -0.85413682235290245 0.04502825396453565 -0.51809530498335132
  outer loop
   vertex -0.0079349996522068977 0.043395001441240311 -0.01092199981212616
   vertex 0 0.035280000418424606 -0.024708999320864677
   vertex -0.0081759998574852943 0.03501499816775322 -0.011253000237047672
  endloop
 endfacet
 facet normal -0.83997668322739194 -0.13543454130156399 -0.52544900481088053
  outer loop
   vertex -0.0081759998574852943 0.03501499816775322 -0.011253000237047672
   vertex 0 0.023814000189304352 -0.021436000242829323
   vertex -0.0073580001480877399 0.0255769994109869 -0.010127999819815159
  endloop
 endfacet
 facet normal -0.53295976783337695 0.088204504514445517 -0.84153065972331276
  outer loop
   vertex -0.0073580001480877399 0.0255769994109869 -0.010127999819815159
   vertex 0 0.018345000222325325 -0.015545999631285667
   vertex -0.0078870002180337906 0.015434999950230122 -0.010855999775230885
  endloop
 endfacet
 facet normal -0.46191276227385658 -0.21147534460793635 -0.86134475018513368
  outer loop
   vertex -0.0078870002180337906 0.015434999950230122 -0.010855999775230885
   vertex 0 0.0086430003866553307 -0.013418000191450119
   vertex -0.0069249998778104782 0.0079370001330971718 -0.0095309996977448463
  endloop
 endfacet
 facet normal -0.23152377027125545 -0.68458708245773781 -0.69118540951859331
  outer loop
   vertex -0.0069249998778104782 0.0079370001330971718 -0.0095309996977448463
   vertex 0 0.0042329998686909676 -0.0081820003688335419
   vertex -0.004424000158905983 0.003616000059992075 -0.0060890000313520432
  endloop
 endfacet
 facet normal -0.093114141315090757 -0.88431767700180608 -0.45750628720191666
  outer loop
   vertex -0.004424000158905983 0.003616000059992075 -0.0060890000313520432
   vertex 0 0.0042329998686909676 -0.0081820003688335419
   vertex 0 0 0
  endloop
 endfacet
endsolid
