solid Visualization Toolkit generated SLA File
 facet normal -0.72707283606907491 -0.61185314196354801 -0.31144955244759398
  outer loop
   vertex 0.16900299489498138 -0.005142000038176775 0.0010870000114664435
   vertex 0.16217499971389771 0.0033499998971819878 0.00034400000004097819
   vertex 0.16236799955368042 0.00356299988925457 -0.00052499998128041625
  endloop
 endfacet
 facet normal -0.53111110678037399 -0.82995226588915416 -0.17058789112942674
  outer loop
   vertex 0.16217499971389771 0.0033499998971819878 0.00034400000004097819
   vertex 0.15954099595546722 0.0050289998762309551 0.00037600001087412238
   vertex 0.15640400350093842 0.0075909998267889023 -0.0023219999857246876
  endloop
 endfacet
 facet normal -0.3301332866864724 0.24451096545266249 0.91171618434411617
  outer loop
   vertex 0.17037400603294373 0.00089600001228973269 0.0039710002020001411
   vertex 0.16217499971389771 0.0033499998971819878 0.00034400000004097819
   vertex 0.17218199372291565 -0.0020359999034553766 0.0054120002314448357
  endloop
 endfacet
 facet normal -0.46740559979939544 -0.82902197413622758 -0.30700907425585894
  outer loop
   vertex 0.15640400350093842 0.0075909998267889023 -0.0023219999857246876
   vertex 0.16236799955368042 0.00356299988925457 -0.00052499998128041625
   vertex 0.16217499971389771 0.0033499998971819878 0.00034400000004097819
  endloop
 endfacet
 facet normal -0.57750947341294034 -0.40717315511476621 0.70759651629455822
  outer loop
   vertex 0.17218199372291565 -0.0020359999034553766 0.0054120002314448357
   vertex 0.16217499971389771 0.0033499998971819878 0.00034400000004097819
   vertex 0.17207199335098267 -0.0046970001421868801 0.0037909999955445528
  endloop
 endfacet
 facet normal -0.43016984405946457 -0.78907447293672195 0.43853777650447662
  outer loop
   vertex 0.16745099425315857 0.0029329999815672636 0.0047690002247691154
   vertex 0.16217499971389771 0.0033499998971819878 0.00034400000004097819
   vertex 0.17037400603294373 0.00089600001228973269 0.0039710002020001411
  endloop
 endfacet
 facet normal -0.61771321562602877 -0.35172523799253957 0.70336316380660902
  outer loop
   vertex 0.16225400567054749 0.0051989997737109661 0.0013379999436438084
   vertex 0.16217499971389771 0.0033499998971819878 0.00034400000004097819
   vertex 0.16745099425315857 0.0029329999815672636 0.0047690002247691154
  endloop
 endfacet
 facet normal -0.27410795854737663 -0.44625490296054071 0.85189282697101532
  outer loop
   vertex 0.16217499971389771 0.0033499998971819878 0.00034400000004097819
   vertex 0.16225400567054749 0.0051989997737109661 0.0013379999436438084
   vertex 0.15954099595546722 0.0050289998762309551 0.00037600001087412238
  endloop
 endfacet
 facet normal -0.57321276515537145 -0.39823512434984609 0.71612562556928205
  outer loop
   vertex 0.16217499971389771 0.0033499998971819878 0.00034400000004097819
   vertex 0.16900299489498138 -0.005142000038176775 0.0010870000114664435
   vertex 0.17207199335098267 -0.0046970001421868801 0.0037909999955445528
  endloop
 endfacet
 facet normal -0.57826997113761014 -0.5520065413471642 -0.60074338847002628
  outer loop
   vertex 0.16900299489498138 -0.005142000038176775 0.0010870000114664435
   vertex 0.16236799955368042 0.00356299988925457 -0.00052499998128041625
   vertex 0.16954499483108521 -0.0029390000272542238 -0.0014590000500902534
  endloop
 endfacet
 facet normal -0.10193040795632943 -0.52726021830010295 -0.8435679309527977
  outer loop
   vertex 0.16236799955368042 0.00356299988925457 -0.00052499998128041625
   vertex 0.15640400350093842 0.0075909998267889023 -0.0023219999857246876
   vertex 0.17082600295543671 0.0069980002008378506 -0.0036939999554306269
  endloop
 endfacet
 facet normal -0.30824945760613431 -0.11247908384750699 -0.94463258867262745
  outer loop
   vertex 0.16236799955368042 0.00356299988925457 -0.00052499998128041625
   vertex 0.17082600295543671 0.0069980002008378506 -0.0036939999554306269
   vertex 0.17053699493408203 -0.0038920000661164522 -0.0023030000738799572
  endloop
 endfacet
 facet normal -0.66627944209729517 -0.74356062070198681 0.056473961962953248
  outer loop
   vertex 0.17053699493408203 -0.0038920000661164522 -0.0023030000738799572
   vertex 0.16954499483108521 -0.0029390000272542238 -0.0014590000500902534
   vertex 0.16236799955368042 0.00356299988925457 -0.00052499998128041625
  endloop
 endfacet
 facet normal -0.14992820795960904 -0.96069676069066223 0.23363061968947585
  outer loop
   vertex 0.16900299489498138 -0.005142000038176775 0.0010870000114664435
   vertex 0.174235999584198 -0.0059469998814165592 0.0011350000277161598
   vertex 0.1732490062713623 -0.0051669999957084656 0.0037090000696480274
  endloop
 endfacet
 facet normal -0.11754763397302838 -0.73844721611083863 -0.6639866435143823
  outer loop
   vertex 0.16900299489498138 -0.005142000038176775 0.0010870000114664435
   vertex 0.16954499483108521 -0.0029390000272542238 -0.0014590000500902534
   vertex 0.17215399444103241 -0.0051939999684691429 0.00058699998771771789
  endloop
 endfacet
 facet normal -0.11253297903385386 -0.76905267285425449 -0.62920133105826559
  outer loop
   vertex 0.16900299489498138 -0.005142000038176775 0.0010870000114664435
   vertex 0.17215399444103241 -0.0051939999684691429 0.00058699998771771789
   vertex 0.174235999584198 -0.0059469998814165592 0.0011350000277161598
  endloop
 endfacet
 facet normal -0.29777562464920287 -0.82846693152917583 0.47431236619701228
  outer loop
   vertex 0.16900299489498138 -0.005142000038176775 0.0010870000114664435
   vertex 0.1732490062713623 -0.0051669999957084656 0.0037090000696480274
   vertex 0.17207199335098267 -0.0046970001421868801 0.0037909999955445528
  endloop
 endfacet
 facet normal -0.30901420757354531 -0.25433413191145215 0.91641931934161114
  outer loop
   vertex 0.15954099595546722 0.0050289998762309551 0.00037600001087412238
   vertex 0.16225400567054749 0.0051989997737109661 0.0013379999436438084
   vertex 0.15221799910068512 0.014611000195145607 0.00056600000243633986
  endloop
 endfacet
 facet normal -0.43352692247643215 -0.89336450892960639 0.11812815783324768
  outer loop
   vertex 0.15954099595546722 0.0050289998762309551 0.00037600001087412238
   vertex 0.1390949934720993 0.014758000150322914 -0.0010829999810084701
   vertex 0.13212299346923828 0.017558999359607697 -0.0054870001040399075
  endloop
 endfacet
 facet normal -0.28321375280777139 -0.83798378294230669 -0.46644737082144605
  outer loop
   vertex 0.13212299346923828 0.017558999359607697 -0.0054870001040399075
   vertex 0.15640400350093842 0.0075909998267889023 -0.0023219999857246876
   vertex 0.15954099595546722 0.0050289998762309551 0.00037600001087412238
  endloop
 endfacet
 facet normal -0.12511708943278416 -0.11516017762801452 0.98543586672119499
  outer loop
   vertex 0.15221799910068512 0.014611000195145607 0.00056600000243633986
   vertex 0.1390949934720993 0.014758000150322914 -0.0010829999810084701
   vertex 0.15954099595546722 0.0050289998762309551 0.00037600001087412238
  endloop
 endfacet
 facet normal -0.068874545186227334 -0.45041150855194001 -0.8901605304602962
  outer loop
   vertex 0.15640400350093842 0.0075909998267889023 -0.0023219999857246876
   vertex 0.13212299346923828 0.017558999359607697 -0.0054870001040399075
   vertex 0.13933199644088745 0.01859699934720993 -0.0065700002014636993
  endloop
 endfacet
 facet normal -0.10246928129206043 -0.49252043555355496 -0.86424745701310868
  outer loop
   vertex 0.13933199644088745 0.01859699934720993 -0.0065700002014636993
   vertex 0.17082600295543671 0.0069980002008378506 -0.0036939999554306269
   vertex 0.15640400350093842 0.0075909998267889023 -0.0023219999857246876
  endloop
 endfacet
 facet normal -0.01113674158951161 0.43551423403595646 0.9001129512115924
  outer loop
   vertex 0.17037400603294373 0.00089600001228973269 0.0039710002020001411
   vertex 0.17218199372291565 -0.0020359999034553766 0.0054120002314448357
   vertex 0.17681799829006195 -0.0022130000870674849 0.0055550001561641693
  endloop
 endfacet
 facet normal -0.046129000793447929 -0.51829692888892709 0.85395574170451283
  outer loop
   vertex 0.17218199372291565 -0.0020359999034553766 0.0054120002314448357
   vertex 0.17207199335098267 -0.0046970001421868801 0.0037909999955445528
   vertex 0.17681799829006195 -0.0022130000870674849 0.0055550001561641693
  endloop
 endfacet
 facet normal -0.12722005302321213 0.22811489996179116 0.96528682293098422
  outer loop
   vertex 0.17037400603294373 0.00089600001228973269 0.0039710002020001411
   vertex 0.17681799829006195 -0.0022130000870674849 0.0055550001561641693
   vertex 0.17816400527954102 0.0026549999602138996 0.0045819999650120735
  endloop
 endfacet
 facet normal 0.14855905766559716 -0.1685600790679144 0.97443199153667381
  outer loop
   vertex 0.17037400603294373 0.00089600001228973269 0.0039710002020001411
   vertex 0.16830599308013916 0.0055479998700320721 0.0050909998826682568
   vertex 0.16745099425315857 0.0029329999815672636 0.0047690002247691154
  endloop
 endfacet
 facet normal 0.5658788792490107 0.053474285856688598 0.82275245048070245
  outer loop
   vertex 0.16830599308013916 0.0055479998700320721 0.0050909998826682568
   vertex 0.17037400603294373 0.00089600001228973269 0.0039710002020001411
   vertex 0.16961599886417389 0.0074249999597668648 0.0040679997764527798
  endloop
 endfacet
 facet normal -0.072946442064842854 -0.02328208267893183 0.99706407076787795
  outer loop
   vertex 0.17037400603294373 0.00089600001228973269 0.0039710002020001411
   vertex 0.17816400527954102 0.0026549999602138996 0.0045819999650120735
   vertex 0.16961599886417389 0.0074249999597668648 0.0040679997764527798
  endloop
 endfacet
 facet normal -0.10880668370190646 -0.42893817905601156 0.89675701509935568
  outer loop
   vertex 0.1732490062713623 -0.0051669999957084656 0.0037090000696480274
   vertex 0.17681799829006195 -0.0022130000870674849 0.0055550001561641693
   vertex 0.17207199335098267 -0.0046970001421868801 0.0037909999955445528
  endloop
 endfacet
 facet normal -0.52863054790518516 0.068659283668661017 0.84607071015818192
  outer loop
   vertex 0.16830599308013916 0.0055479998700320721 0.0050909998826682568
   vertex 0.16225400567054749 0.0051989997737109661 0.0013379999436438084
   vertex 0.16745099425315857 0.0029329999815672636 0.0047690002247691154
  endloop
 endfacet
 facet normal -0.29748653776004413 -0.24144571513951535 0.92369135889230325
  outer loop
   vertex 0.15221799910068512 0.014611000195145607 0.00056600000243633986
   vertex 0.16225400567054749 0.0051989997737109661 0.0013379999436438084
   vertex 0.16399599611759186 0.0077200001105666161 0.0025579999200999737
  endloop
 endfacet
 facet normal -0.52433679869197103 -0.049078416059703152 0.85009542441688635
  outer loop
   vertex 0.16399599611759186 0.0077200001105666161 0.0025579999200999737
   vertex 0.16225400567054749 0.0051989997737109661 0.0013379999436438084
   vertex 0.16830599308013916 0.0055479998700320721 0.0050909998826682568
  endloop
 endfacet
 facet normal -0.67261995403282604 -0.73870606925748461 0.043540104260730711
  outer loop
   vertex 0.17215399444103241 -0.0051939999684691429 0.00058699998771771789
   vertex 0.16954499483108521 -0.0029390000272542238 -0.0014590000500902534
   vertex 0.17053699493408203 -0.0038920000661164522 -0.0023030000738799572
  endloop
 endfacet
 facet normal 0.31993164599722101 0.71641387148947833 -0.6199958924274952
  outer loop
   vertex 0.17082600295543671 0.0069980002008378506 -0.0036939999554306269
   vertex 0.15394900739192963 0.01676500029861927 -0.001117000007070601
   vertex 0.16837100684642792 0.0099419998005032539 -0.0015589999966323376
  endloop
 endfacet
 facet normal -0.01546687958646677 0.57852104981991814 -0.81552079712973446
  outer loop
   vertex 0.16837100684642792 0.0099419998005032539 -0.0015589999966323376
   vertex 0.17256399989128113 0.0079100001603364944 -0.0030799999367445707
   vertex 0.17082600295543671 0.0069980002008378506 -0.0036939999554306269
  endloop
 endfacet
 facet normal 0.32969002457230223 0.14948087751181932 -0.93218021592169131
  outer loop
   vertex 0.17082600295543671 0.0069980002008378506 -0.0036939999554306269
   vertex 0.17866599559783936 0.0051469998434185982 -0.0012179999612271786
   vertex 0.17706799507141113 -0.0022229999303817749 -0.0029649999924004078
  endloop
 endfacet
 facet normal 0.025229294025899456 -0.06180379487066489 -0.99776939904095052
  outer loop
   vertex 0.17082600295543671 0.0069980002008378506 -0.0036939999554306269
   vertex 0.17706799507141113 -0.0022229999303817749 -0.0029649999924004078
   vertex 0.17525200545787811 -0.0043850000947713852 -0.0028770000208169222
  endloop
 endfacet
 facet normal 0.31084422805152861 0.046743962539829341 -0.94931073303377544
  outer loop
   vertex 0.17256399989128113 0.0079100001603364944 -0.0030799999367445707
   vertex 0.17866599559783936 0.0051469998434185982 -0.0012179999612271786
   vertex 0.17082600295543671 0.0069980002008378506 -0.0036939999554306269
  endloop
 endfacet
 facet normal -0.13251506871326188 -0.12212392237446328 -0.98362874304678372
  outer loop
   vertex 0.17082600295543671 0.0069980002008378506 -0.0036939999554306269
   vertex 0.17525200545787811 -0.0043850000947713852 -0.0028770000208169222
   vertex 0.17053699493408203 -0.0038920000661164522 -0.0023030000738799572
  endloop
 endfacet
 facet normal 0.44528025780541391 0.846457459815812 -0.29195078477528885
  outer loop
   vertex 0.17082600295543671 0.0069980002008378506 -0.0036939999554306269
   vertex 0.15004000067710876 0.017380999401211739 -0.0052930000238120556
   vertex 0.15394900739192963 0.01676500029861927 -0.001117000007070601
  endloop
 endfacet
 facet normal 0.12981822926148598 0.10809816963557194 -0.98562772539780519
  outer loop
   vertex 0.13933199644088745 0.01859699934720993 -0.0065700002014636993
   vertex 0.15004000067710876 0.017380999401211739 -0.0052930000238120556
   vertex 0.17082600295543671 0.0069980002008378506 -0.0036939999554306269
  endloop
 endfacet
 facet normal -0.13874686467498618 -0.92969008679265597 -0.34121203094604541
  outer loop
   vertex 0.17215399444103241 -0.0051939999684691429 0.00058699998771771789
   vertex 0.17053699493408203 -0.0038920000661164522 -0.0023030000738799572
   vertex 0.17525200545787811 -0.0043850000947713852 -0.0028770000208169222
  endloop
 endfacet
 facet normal -0.23946908275522905 -0.9094698459158429 -0.33988109358153806
  outer loop
   vertex 0.174235999584198 -0.0059469998814165592 0.0011350000277161598
   vertex 0.17215399444103241 -0.0051939999684691429 0.00058699998771771789
   vertex 0.17575700581073761 -0.0053280000574886799 -0.0015930000226944685
  endloop
 endfacet
 facet normal 0.44521856533434012 -0.79517325207862544 0.41167939984936669
  outer loop
   vertex 0.1732490062713623 -0.0051669999957084656 0.0037090000696480274
   vertex 0.174235999584198 -0.0059469998814165592 0.0011350000277161598
   vertex 0.17681799829006195 -0.0022130000870674849 0.0055550001561641693
  endloop
 endfacet
 facet normal 0.66203357309482092 -0.72072717948593157 0.20558181059023198
  outer loop
   vertex 0.17721700668334961 -0.0040970002301037312 -0.0019789999350905418
   vertex 0.174235999584198 -0.0059469998814165592 0.0011350000277161598
   vertex 0.17575700581073761 -0.0053280000574886799 -0.0015930000226944685
  endloop
 endfacet
 facet normal 0.66657896289855556 -0.71409421120005778 0.21387366306222344
  outer loop
   vertex 0.17721700668334961 -0.0040970002301037312 -0.0019789999350905418
   vertex 0.17681799829006195 -0.0022130000870674849 0.0055550001561641693
   vertex 0.174235999584198 -0.0059469998814165592 0.0011350000277161598
  endloop
 endfacet
 facet normal -0.31873758995813056 -0.8194033424794479 -0.47642891503475215
  outer loop
   vertex 0.17215399444103241 -0.0051939999684691429 0.00058699998771771789
   vertex 0.17525200545787811 -0.0043850000947713852 -0.0028770000208169222
   vertex 0.17575700581073761 -0.0053280000574886799 -0.0015930000226944685
  endloop
 endfacet
 facet normal 0.20719706370710272 0.62975910665252 0.7486473431325158
  outer loop
   vertex 0.15221799910068512 0.014611000195145607 0.00056600000243633986
   vertex 0.1645050048828125 0.0086449999362230301 0.0021840000990778208
   vertex 0.16396699845790863 0.011939000338315964 -0.00043799998820759356
  endloop
 endfacet
 facet normal 0.18719760056752166 0.50697211244223661 0.84138952664483446
  outer loop
   vertex 0.15221799910068512 0.014611000195145607 0.00056600000243633986
   vertex 0.16396699845790863 0.011939000338315964 -0.00043799998820759356
   vertex 0.15394900739192963 0.01676500029861927 -0.001117000007070601
  endloop
 endfacet
 facet normal 0.047686529464323203 0.3517526893165297 0.93487755372895598
  outer loop
   vertex 0.1645050048828125 0.0086449999362230301 0.0021840000990778208
   vertex 0.15221799910068512 0.014611000195145607 0.00056600000243633986
   vertex 0.16399599611759186 0.0077200001105666161 0.0025579999200999737
  endloop
 endfacet
 facet normal -0.12430591746677336 -0.2038847187627455 0.9710710892297123
  outer loop
   vertex 0.15221799910068512 0.014611000195145607 0.00056600000243633986
   vertex 0.13838799297809601 0.018323000520467758 -0.00042500000563450158
   vertex 0.1390949934720993 0.014758000150322914 -0.0010829999810084701
  endloop
 endfacet
 facet normal 0.0061808583138079579 0.27936548649222875 0.9601649451773715
  outer loop
   vertex 0.13838799297809601 0.018323000520467758 -0.00042500000563450158
   vertex 0.15221799910068512 0.014611000195145607 0.00056600000243633986
   vertex 0.13660599291324615 0.02492699958384037 -0.0023350000847131014
  endloop
 endfacet
 facet normal 0.18138572180111173 0.510818906541878 0.84033520969078168
  outer loop
   vertex 0.15221799910068512 0.014611000195145607 0.00056600000243633986
   vertex 0.15394900739192963 0.01676500029861927 -0.001117000007070601
   vertex 0.13660599291324615 0.02492699958384037 -0.0023350000847131014
  endloop
 endfacet
 facet normal -0.16996180276645392 -0.93099303927787058 -0.32305563981538854
  outer loop
   vertex 0.12771600484848022 0.017071999609470367 -0.0017650000518187881
   vertex 0.13212299346923828 0.017558999359607697 -0.0054870001040399075
   vertex 0.1390949934720993 0.014758000150322914 -0.0010829999810084701
  endloop
 endfacet
 facet normal -0.099012676802657629 -0.19956952416620549 0.97486845002618017
  outer loop
   vertex 0.13838799297809601 0.018323000520467758 -0.00042500000563450158
   vertex 0.12771600484848022 0.017071999609470367 -0.0017650000518187881
   vertex 0.1390949934720993 0.014758000150322914 -0.0010829999810084701
  endloop
 endfacet
 facet normal -0.065357197601551092 -0.46645697934122149 -0.88212602452571098
  outer loop
   vertex 0.13933199644088745 0.01859699934720993 -0.0065700002014636993
   vertex 0.13212299346923828 0.017558999359607697 -0.0054870001040399075
   vertex 0.13450099527835846 0.021720999851822853 -0.0078640002757310867
  endloop
 endfacet
 facet normal -0.10202897885517025 -0.96365619154863436 -0.24689437410308279
  outer loop
   vertex 0.11963299661874771 0.020092999562621117 -0.010215999558568001
   vertex 0.13212299346923828 0.017558999359607697 -0.0054870001040399075
   vertex 0.12771600484848022 0.017071999609470367 -0.0017650000518187881
  endloop
 endfacet
 facet normal 0.34153822531923983 -0.60562234816017213 -0.71873027768053799
  outer loop
   vertex 0.13450099527835846 0.021720999851822853 -0.0078640002757310867
   vertex 0.13212299346923828 0.017558999359607697 -0.0054870001040399075
   vertex 0.12930800020694733 0.019386999309062958 -0.0083649996668100357
  endloop
 endfacet
 facet normal 0.04901497472806169 -0.82071566998843937 -0.56923046412488743
  outer loop
   vertex 0.11963299661874771 0.020092999562621117 -0.010215999558568001
   vertex 0.12930800020694733 0.019386999309062958 -0.0083649996668100357
   vertex 0.13212299346923828 0.017558999359607697 -0.0054870001040399075
  endloop
 endfacet
 facet normal 0.36039865883902933 0.17805335981458406 -0.9156472070430659
  outer loop
   vertex 0.13933199644088745 0.01859699934720993 -0.0065700002014636993
   vertex 0.13450099527835846 0.021720999851822853 -0.0078640002757310867
   vertex 0.13523100316524506 0.02426999993622303 -0.0070810001343488693
  endloop
 endfacet
 facet normal 0.11794821731545622 -0.0041818572104682745 -0.99301094158240633
  outer loop
   vertex 0.13523100316524506 0.02426999993622303 -0.0070810001343488693
   vertex 0.15004000067710876 0.017380999401211739 -0.0052930000238120556
   vertex 0.13933199644088745 0.01859699934720993 -0.0065700002014636993
  endloop
 endfacet
 facet normal 0.5202684770054854 0.026756758177713998 0.8535834978056992
  outer loop
   vertex 0.17979800701141357 -0.00031000000308267772 0.00367900007404387
   vertex 0.17816400527954102 0.0026549999602138996 0.0045819999650120735
   vertex 0.17681799829006195 -0.0022130000870674849 0.0055550001561641693
  endloop
 endfacet
 facet normal 0.61994708708746027 -0.75284954327075948 0.22109539662503569
  outer loop
   vertex 0.17721700668334961 -0.0040970002301037312 -0.0019789999350905418
   vertex 0.17979800701141357 -0.00031000000308267772 0.00367900007404387
   vertex 0.17681799829006195 -0.0022130000870674849 0.0055550001561641693
  endloop
 endfacet
 facet normal 0.8155165141697176 0.29841071176117046 0.49586677870438578
  outer loop
   vertex 0.17982199788093567 0.0032220000866800547 0.0015140000032261014
   vertex 0.17816400527954102 0.0026549999602138996 0.0045819999650120735
   vertex 0.17979800701141357 -0.00031000000308267772 0.00367900007404387
  endloop
 endfacet
 facet normal 0.60928894949088985 0.65293388295722754 0.44993812965193936
  outer loop
   vertex 0.17737099528312683 0.0059750000946223736 0.00083799997810274363
   vertex 0.17816400527954102 0.0026549999602138996 0.0045819999650120735
   vertex 0.17982199788093567 0.0032220000866800547 0.0015140000032261014
  endloop
 endfacet
 facet normal 0.37410122737246343 0.73178914912828941 0.56967790276305286
  outer loop
   vertex 0.16961599886417389 0.0074249999597668648 0.0040679997764527798
   vertex 0.17816400527954102 0.0026549999602138996 0.0045819999650120735
   vertex 0.17737099528312683 0.0059750000946223736 0.00083799997810274363
  endloop
 endfacet
 facet normal -0.10543340497297564 0.60871205819741148 0.78635451758152675
  outer loop
   vertex 0.1645050048828125 0.0086449999362230301 0.0021840000990778208
   vertex 0.16830599308013916 0.0055479998700320721 0.0050909998826682568
   vertex 0.16396699845790863 0.011939000338315964 -0.00043799998820759356
  endloop
 endfacet
 facet normal -0.25269903354605983 0.47896154148766856 0.84067772673043017
  outer loop
   vertex 0.16399599611759186 0.0077200001105666161 0.0025579999200999737
   vertex 0.16830599308013916 0.0055479998700320721 0.0050909998826682568
   vertex 0.1645050048828125 0.0086449999362230301 0.0021840000990778208
  endloop
 endfacet
 facet normal -0.18648260227313443 0.56731499555817766 0.80210843086472083
  outer loop
   vertex 0.16961599886417389 0.0074249999597668648 0.0040679997764527798
   vertex 0.16396699845790863 0.011939000338315964 -0.00043799998820759356
   vertex 0.16830599308013916 0.0055479998700320721 0.0050909998826682568
  endloop
 endfacet
 facet normal 0.45449578873410712 0.84626246403944083 0.27798097053729398
  outer loop
   vertex 0.16396699845790863 0.011939000338315964 -0.00043799998820759356
   vertex 0.16961599886417389 0.0074249999597668648 0.0040679997764527798
   vertex 0.16837100684642792 0.0099419998005032539 -0.0015589999966323376
  endloop
 endfacet
 facet normal 0.30509670848675685 0.89265497425487284 0.33178772642847904
  outer loop
   vertex 0.16961599886417389 0.0074249999597668648 0.0040679997764527798
   vertex 0.17737099528312683 0.0059750000946223736 0.00083799997810274363
   vertex 0.16837100684642792 0.0099419998005032539 -0.0015589999966323376
  endloop
 endfacet
 facet normal 0.42541327954959696 0.86352243157459441 -0.27083676218408076
  outer loop
   vertex 0.13660599291324615 0.02492699958384037 -0.0023350000847131014
   vertex 0.15394900739192963 0.01676500029861927 -0.001117000007070601
   vertex 0.15004000067710876 0.017380999401211739 -0.0052930000238120556
  endloop
 endfacet
 facet normal 0.42829341062977883 0.90018085356370459 0.078988513648707778
  outer loop
   vertex 0.16837100684642792 0.0099419998005032539 -0.0015589999966323376
   vertex 0.15394900739192963 0.01676500029861927 -0.001117000007070601
   vertex 0.16396699845790863 0.011939000338315964 -0.00043799998820759356
  endloop
 endfacet
 facet normal 0.4165750599970352 0.9069018273364079 -0.06320043482722737
  outer loop
   vertex 0.17256399989128113 0.0079100001603364944 -0.0030799999367445707
   vertex 0.16837100684642792 0.0099419998005032539 -0.0015589999966323376
   vertex 0.17737099528312683 0.0059750000946223736 0.00083799997810274363
  endloop
 endfacet
 facet normal 0.43313617084629991 0.8969811402943797 -0.088418841096224304
  outer loop
   vertex 0.17866599559783936 0.0051469998434185982 -0.0012179999612271786
   vertex 0.17256399989128113 0.0079100001603364944 -0.0030799999367445707
   vertex 0.17737099528312683 0.0059750000946223736 0.00083799997810274363
  endloop
 endfacet
 facet normal 0.93927732437666733 0.27744095041301303 -0.20195204120219487
  outer loop
   vertex 0.17982199788093567 0.0032220000866800547 0.0015140000032261014
   vertex 0.18021200597286224 4.400000034365803e-05 -0.0010379999876022339
   vertex 0.17866599559783936 0.0051469998434185982 -0.0012179999612271786
  endloop
 endfacet
 facet normal 0.71333514189998415 0.67833129292776007 0.17612391196394314
  outer loop
   vertex 0.17737099528312683 0.0059750000946223736 0.00083799997810274363
   vertex 0.17982199788093567 0.0032220000866800547 0.0015140000032261014
   vertex 0.17866599559783936 0.0051469998434185982 -0.0012179999612271786
  endloop
 endfacet
 facet normal 0.46131930436015145 0.10870183420857933 -0.8805500614186319
  outer loop
   vertex 0.18021200597286224 4.400000034365803e-05 -0.0010379999876022339
   vertex 0.17706799507141113 -0.0022229999303817749 -0.0029649999924004078
   vertex 0.17866599559783936 0.0051469998434185982 -0.0012179999612271786
  endloop
 endfacet
 facet normal 0.6499991801539895 -0.31272765058780339 -0.69260557488152974
  outer loop
   vertex 0.17721700668334961 -0.0040970002301037312 -0.0019789999350905418
   vertex 0.17706799507141113 -0.0022229999303817749 -0.0029649999924004078
   vertex 0.18021200597286224 4.400000034365803e-05 -0.0010379999876022339
  endloop
 endfacet
 facet normal 0.42919834352347808 -0.39359771848555963 -0.8129388771117203
  outer loop
   vertex 0.17525200545787811 -0.0043850000947713852 -0.0028770000208169222
   vertex 0.17706799507141113 -0.0022229999303817749 -0.0029649999924004078
   vertex 0.17721700668334961 -0.0040970002301037312 -0.0019789999350905418
  endloop
 endfacet
 facet normal 0.38948587941201718 -0.66255537676819654 -0.63978208981980778
  outer loop
   vertex 0.17525200545787811 -0.0043850000947713852 -0.0028770000208169222
   vertex 0.17721700668334961 -0.0040970002301037312 -0.0019789999350905418
   vertex 0.17575700581073761 -0.0053280000574886799 -0.0015930000226944685
  endloop
 endfacet
 facet normal 0.47969504789355411 0.87568797915774965 -0.055346401735049837
  outer loop
   vertex 0.13660599291324615 0.02492699958384037 -0.0023350000847131014
   vertex 0.15004000067710876 0.017380999401211739 -0.0052930000238120556
   vertex 0.1203169971704483 0.03363800048828125 -0.005688999779522419
  endloop
 endfacet
 facet normal 0.4052541265281201 0.72744673622256995 -0.55370600402294845
  outer loop
   vertex 0.13523100316524506 0.02426999993622303 -0.0070810001343488693
   vertex 0.1203169971704483 0.03363800048828125 -0.005688999779522419
   vertex 0.15004000067710876 0.017380999401211739 -0.0052930000238120556
  endloop
 endfacet
 facet normal 0.80711817305955513 -0.58979145520681453 0.026576193896681914
  outer loop
   vertex 0.18021200597286224 4.400000034365803e-05 -0.0010379999876022339
   vertex 0.17979800701141357 -0.00031000000308267772 0.00367900007404387
   vertex 0.17721700668334961 -0.0040970002301037312 -0.0019789999350905418
  endloop
 endfacet
 facet normal 0.36195899090097222 0.58573487673134783 0.72518986692207899
  outer loop
   vertex 0.13838799297809601 0.018323000520467758 -0.00042500000563450158
   vertex 0.11841399967670441 0.033401001244783401 -0.0026340000331401825
   vertex 0.12200000137090683 0.025860000401735306 0.0016670000040903687
  endloop
 endfacet
 facet normal 0.12758657391838374 0.30717826668214687 0.94306053815962454
  outer loop
   vertex 0.13660599291324615 0.02492699958384037 -0.0023350000847131014
   vertex 0.11841399967670441 0.033401001244783401 -0.0026340000331401825
   vertex 0.13838799297809601 0.018323000520467758 -0.00042500000563450158
  endloop
 endfacet
 facet normal -0.067728479073291839 -0.40085655914501467 0.9136338829710936
  outer loop
   vertex 0.12200000137090683 0.025860000401735306 0.0016670000040903687
   vertex 0.12771600484848022 0.017071999609470367 -0.0017650000518187881
   vertex 0.13838799297809601 0.018323000520467758 -0.00042500000563450158
  endloop
 endfacet
 facet normal 0.39664652189139232 0.86260015705995419 0.31399443579720265
  outer loop
   vertex 0.13660599291324615 0.02492699958384037 -0.0023350000847131014
   vertex 0.1203169971704483 0.03363800048828125 -0.005688999779522419
   vertex 0.11841399967670441 0.033401001244783401 -0.0026340000331401825
  endloop
 endfacet
 facet normal -0.23772778233673122 -0.96422228360109097 -0.1173068169901344
  outer loop
   vertex 0.12771600484848022 0.017071999609470367 -0.0017650000518187881
   vertex 0.11862999945878983 0.019809000194072723 -0.0058490000665187836
   vertex 0.11963299661874771 0.020092999562621117 -0.010215999558568001
  endloop
 endfacet
 facet normal -0.47350894954677397 -0.57016643881821838 0.67134157233442759
  outer loop
   vertex 0.11862999945878983 0.019809000194072723 -0.0058490000665187836
   vertex 0.12771600484848022 0.017071999609470367 -0.0017650000518187881
   vertex 0.12200000137090683 0.025860000401735306 0.0016670000040903687
  endloop
 endfacet
 facet normal 0.33205851996571201 0.1887886768490456 -0.92417313032340831
  outer loop
   vertex 0.13523100316524506 0.02426999993622303 -0.0070810001343488693
   vertex 0.13450099527835846 0.021720999851822853 -0.0078640002757310867
   vertex 0.13122899830341339 0.025282999500632286 -0.0083119999617338181
  endloop
 endfacet
 facet normal 0.10762791449016104 -0.026132865910932317 -0.99384772744207639
  outer loop
   vertex 0.12930800020694733 0.019386999309062958 -0.0083649996668100357
   vertex 0.13122899830341339 0.025282999500632286 -0.0083119999617338181
   vertex 0.13450099527835846 0.021720999851822853 -0.0078640002757310867
  endloop
 endfacet
 facet normal 0.075871950512924002 -0.99599285105338375 -0.047346465294852515
  outer loop
   vertex 0.11963299661874771 0.020092999562621117 -0.010215999558568001
   vertex 0.11862999945878983 0.019809000194072723 -0.0058490000665187836
   vertex 0.1128230020403862 0.019598999992012978 -0.010737000033259392
  endloop
 endfacet
 facet normal 0.1047023470878433 -0.64515852862207446 -0.7568407305771121
  outer loop
   vertex 0.11963299661874771 0.020092999562621117 -0.010215999558568001
   vertex 0.1128230020403862 0.019598999992012978 -0.010737000033259392
   vertex 0.11416099965572357 0.020912999287247658 -0.011672000400722027
  endloop
 endfacet
 facet normal 0.20116202240824521 -0.30844732683940851 -0.9297279641412578
  outer loop
   vertex 0.12171799689531326 0.024252999573945999 -0.011145000346004963
   vertex 0.11963299661874771 0.020092999562621117 -0.010215999558568001
   vertex 0.11416099965572357 0.020912999287247658 -0.011672000400722027
  endloop
 endfacet
 facet normal 0.24556403879569222 -0.32687799429754177 -0.91260565398991689
  outer loop
   vertex 0.12171799689531326 0.024252999573945999 -0.011145000346004963
   vertex 0.12431299686431885 0.025537999346852303 -0.010906999930739403
   vertex 0.11963299661874771 0.020092999562621117 -0.010215999558568001
  endloop
 endfacet
 facet normal 0.16300666556504501 -0.26085748754871879 -0.95151573721675009
  outer loop
   vertex 0.12930800020694733 0.019386999309062958 -0.0083649996668100357
   vertex 0.11963299661874771 0.020092999562621117 -0.010215999558568001
   vertex 0.12431299686431885 0.025537999346852303 -0.010906999930739403
  endloop
 endfacet
 facet normal 0.34600837146837787 -0.10435277128301025 -0.93241015974696284
  outer loop
   vertex 0.12431299686431885 0.025537999346852303 -0.010906999930739403
   vertex 0.13122899830341339 0.025282999500632286 -0.0083119999617338181
   vertex 0.12930800020694733 0.019386999309062958 -0.0083649996668100357
  endloop
 endfacet
 facet normal 0.36736309134632 0.67925387013956673 -0.63534127759566816
  outer loop
   vertex 0.1203169971704483 0.03363800048828125 -0.005688999779522419
   vertex 0.13523100316524506 0.02426999993622303 -0.0070810001343488693
   vertex 0.13122899830341339 0.025282999500632286 -0.0083119999617338181
  endloop
 endfacet
 facet normal 0.9060778819032187 0.2166278790535055 0.36344908026098616
  outer loop
   vertex 0.17979800701141357 -0.00031000000308267772 0.00367900007404387
   vertex 0.18053099513053894 0.00058200000785291195 0.0013200000394135714
   vertex 0.17982199788093567 0.0032220000866800547 0.0015140000032261014
  endloop
 endfacet
 facet normal 0.8052466081718882 -0.59236007253880218 0.026219162639083242
  outer loop
   vertex 0.18053099513053894 0.00058200000785291195 0.0013200000394135714
   vertex 0.17979800701141357 -0.00031000000308267772 0.00367900007404387
   vertex 0.18021200597286224 4.400000034365803e-05 -0.0010379999876022339
  endloop
 endfacet
 facet normal 0.94482995516814916 0.26762269422860802 -0.18887680998675904
  outer loop
   vertex 0.18053099513053894 0.00058200000785291195 0.0013200000394135714
   vertex 0.18021200597286224 4.400000034365803e-05 -0.0010379999876022339
   vertex 0.17982199788093567 0.0032220000866800547 0.0015140000032261014
  endloop
 endfacet
 facet normal 0.52242763006717663 0.78605295426956767 -0.33043929007682843
  outer loop
   vertex 0.11879199743270874 0.032304998487234116 -0.011270999908447266
   vertex 0.1203169971704483 0.03363800048828125 -0.005688999779522419
   vertex 0.13122899830341339 0.025282999500632286 -0.0083119999617338181
  endloop
 endfacet
 facet normal 0.20444032636538534 0.97524611818802676 -0.084256524464281932
  outer loop
   vertex 0.11271300166845322 0.035181999206542969 -0.0062680002301931381
   vertex 0.1203169971704483 0.03363800048828125 -0.005688999779522419
   vertex 0.1122170016169548 0.034894000738859177 -0.010804999619722366
  endloop
 endfacet
 facet normal 0.33037208698933895 0.89366651283610699 -0.30366831901543673
  outer loop
   vertex 0.11879199743270874 0.032304998487234116 -0.011270999908447266
   vertex 0.1122170016169548 0.034894000738859177 -0.010804999619722366
   vertex 0.1203169971704483 0.03363800048828125 -0.005688999779522419
  endloop
 endfacet
 facet normal 0.18166908391712328 0.9652130672016549 0.18804275804158729
  outer loop
   vertex 0.11271300166845322 0.035181999206542969 -0.0062680002301931381
   vertex 0.11841399967670441 0.033401001244783401 -0.0026340000331401825
   vertex 0.1203169971704483 0.03363800048828125 -0.005688999779522419
  endloop
 endfacet
 facet normal 0.25339558230407305 0.56736995541968027 0.78350623006830622
  outer loop
   vertex 0.11265499889850616 0.028875000774860382 0.0025059999898076057
   vertex 0.12200000137090683 0.025860000401735306 0.0016670000040903687
   vertex 0.11841399967670441 0.033401001244783401 -0.0026340000331401825
  endloop
 endfacet
 facet normal 0.17456483621373839 0.96437294231807724 0.19877612050355875
  outer loop
   vertex 0.11271300166845322 0.035181999206542969 -0.0062680002301931381
   vertex 0.11165300011634827 0.034306999295949936 -0.0010920000495389104
   vertex 0.11841399967670441 0.033401001244783401 -0.0026340000331401825
  endloop
 endfacet
 facet normal 0.25466746610554164 0.56622432530964817 0.7839225058224929
  outer loop
   vertex 0.11265499889850616 0.028875000774860382 0.0025059999898076057
   vertex 0.11841399967670441 0.033401001244783401 -0.0026340000331401825
   vertex 0.11165300011634827 0.034306999295949936 -0.0010920000495389104
  endloop
 endfacet
 facet normal -0.20375781965823309 -0.7361174283820463 0.64545633667996938
  outer loop
   vertex 0.11354999989271164 0.02225399948656559 -0.0051130000501871109
   vertex 0.11672999709844589 0.022376000881195068 -0.0039699999615550041
   vertex 0.12200000137090683 0.025860000401735306 0.0016670000040903687
  endloop
 endfacet
 facet normal -0.062546047903931173 -0.7948425662228179 0.60358370323586796
  outer loop
   vertex 0.11228500306606293 0.021462999284267426 -0.0051299999468028545
   vertex 0.12200000137090683 0.025860000401735306 0.0016670000040903687
   vertex 0.11355800181627274 0.023097999393939972 -0.002845000009983778
  endloop
 endfacet
 facet normal 0.52055298769356839 -0.82800901589728793 -0.20838823526318459
  outer loop
   vertex 0.11354999989271164 0.02225399948656559 -0.0051130000501871109
   vertex 0.12200000137090683 0.025860000401735306 0.0016670000040903687
   vertex 0.11228500306606293 0.021462999284267426 -0.0051299999468028545
  endloop
 endfacet
 facet normal -0.18260057093683585 -0.64874497214089277 0.73877397938439449
  outer loop
   vertex 0.11061199754476547 0.026773000136017799 -0.00034599998616613448
   vertex 0.11355800181627274 0.023097999393939972 -0.002845000009983778
   vertex 0.12200000137090683 0.025860000401735306 0.0016670000040903687
  endloop
 endfacet
 facet normal -0.17548450387271233 -0.72825901246573232 0.6624530169476055
  outer loop
   vertex 0.11061199754476547 0.026773000136017799 -0.00034599998616613448
   vertex 0.12200000137090683 0.025860000401735306 0.0016670000040903687
   vertex 0.11265499889850616 0.028875000774860382 0.0025059999898076057
  endloop
 endfacet
 facet normal -0.26506943345536937 -0.68954545360273223 0.67399203471810554
  outer loop
   vertex 0.11862999945878983 0.019809000194072723 -0.0058490000665187836
   vertex 0.12200000137090683 0.025860000401735306 0.0016670000040903687
   vertex 0.11672999709844589 0.022376000881195068 -0.0039699999615550041
  endloop
 endfacet
 facet normal -0.43239876817163142 -0.71866189863155616 0.5445699043639326
  outer loop
   vertex 0.11862999945878983 0.019809000194072723 -0.0058490000665187836
   vertex 0.11672999709844589 0.022376000881195068 -0.0039699999615550041
   vertex 0.1128230020403862 0.019598999992012978 -0.010737000033259392
  endloop
 endfacet
 facet normal 0.34899644110183015 0.23595176699009918 -0.90693343071722021
  outer loop
   vertex 0.13122899830341339 0.025282999500632286 -0.0083119999617338181
   vertex 0.12431299686431885 0.025537999346852303 -0.010906999930739403
   vertex 0.11879199743270874 0.032304998487234116 -0.011270999908447266
  endloop
 endfacet
 facet normal -0.30483391058304182 -0.32628833117569617 -0.89476936240420601
  outer loop
   vertex 0.10965599864721298 0.021321000531315804 -0.010285999625921249
   vertex 0.11416099965572357 0.020912999287247658 -0.011672000400722027
   vertex 0.1128230020403862 0.019598999992012978 -0.010737000033259392
  endloop
 endfacet
 facet normal -0.34920127812486496 -0.77873193624797443 0.521186184413441
  outer loop
   vertex 0.1128230020403862 0.019598999992012978 -0.010737000033259392
   vertex 0.11672999709844589 0.022376000881195068 -0.0039699999615550041
   vertex 0.10965599864721298 0.021321000531315804 -0.010285999625921249
  endloop
 endfacet
 facet normal 0.060695526669108692 0.020133379330927171 -0.99795325545792801
  outer loop
   vertex 0.12120600044727325 0.025053000077605247 -0.01116000022739172
   vertex 0.12171799689531326 0.024252999573945999 -0.011145000346004963
   vertex 0.11416099965572357 0.020912999287247658 -0.011672000400722027
  endloop
 endfacet
 facet normal 0.23831784428749583 -0.29095161879272863 -0.92658068219451439
  outer loop
   vertex 0.11997900158166885 0.027860000729560852 -0.012357000261545181
   vertex 0.12120600044727325 0.025053000077605247 -0.01116000022739172
   vertex 0.11416099965572357 0.020912999287247658 -0.011672000400722027
  endloop
 endfacet
 facet normal 0.1742676867116171 -0.24011045195394026 -0.9549752584390111
  outer loop
   vertex 0.11416099965572357 0.020912999287247658 -0.011672000400722027
   vertex 0.11948399990797043 0.028503000736236572 -0.012609000317752361
   vertex 0.11997900158166885 0.027860000729560852 -0.012357000261545181
  endloop
 endfacet
 facet normal -0.16658431196769333 -0.0048969278331618977 -0.98601505419747371
  outer loop
   vertex 0.11948399990797043 0.028503000736236572 -0.012609000317752361
   vertex 0.11416099965572357 0.020912999287247658 -0.011672000400722027
   vertex 0.11103899776935577 0.028857000172138214 -0.011184000410139561
  endloop
 endfacet
 facet normal -0.29840532289676275 -0.058753640360162229 -0.95262913718367215
  outer loop
   vertex 0.11103899776935577 0.028857000172138214 -0.011184000410139561
   vertex 0.11416099965572357 0.020912999287247658 -0.011672000400722027
   vertex 0.10965599864721298 0.021321000531315804 -0.010285999625921249
  endloop
 endfacet
 facet normal -0.19259108040791673 -0.14146399028971082 -0.97102863768203262
  outer loop
   vertex 0.12120600044727325 0.025053000077605247 -0.01116000022739172
   vertex 0.12236200273036957 0.025661999359726906 -0.011478000320494175
   vertex 0.12171799689531326 0.024252999573945999 -0.011145000346004963
  endloop
 endfacet
 facet normal 0.24608319779918342 -0.32802882566324387 -0.91205271190590798
  outer loop
   vertex 0.12171799689531326 0.024252999573945999 -0.011145000346004963
   vertex 0.12236200273036957 0.025661999359726906 -0.011478000320494175
   vertex 0.12431299686431885 0.025537999346852303 -0.010906999930739403
  endloop
 endfacet
 facet normal 0.28684349339131798 0.1834509562862969 -0.94024813583261535
  outer loop
   vertex 0.11879199743270874 0.032304998487234116 -0.011270999908447266
   vertex 0.12431299686431885 0.025537999346852303 -0.010906999930739403
   vertex 0.12236200273036957 0.025661999359726906 -0.011478000320494175
  endloop
 endfacet
 facet normal 0.28573673644054742 0.36398225858374933 -0.88649389895507902
  outer loop
   vertex 0.11879199743270874 0.032304998487234116 -0.011270999908447266
   vertex 0.11948399990797043 0.028503000736236572 -0.012609000317752361
   vertex 0.11406199634075165 0.032209001481533051 -0.012834999710321426
  endloop
 endfacet
 facet normal 0.73796838534678688 0.33955297834947296 -0.5831864514224061
  outer loop
   vertex 0.11948399990797043 0.028503000736236572 -0.012609000317752361
   vertex 0.11879199743270874 0.032304998487234116 -0.011270999908447266
   vertex 0.11997900158166885 0.027860000729560852 -0.012357000261545181
  endloop
 endfacet
 facet normal 0.58305010372533916 0.33638036078256839 -0.73952743656044329
  outer loop
   vertex 0.11997900158166885 0.027860000729560852 -0.012357000261545181
   vertex 0.11879199743270874 0.032304998487234116 -0.011270999908447266
   vertex 0.12236200273036957 0.025661999359726906 -0.011478000320494175
  endloop
 endfacet
 facet normal 0.21788052738977853 0.67943604220202847 -0.70063880876040208
  outer loop
   vertex 0.11406199634075165 0.032209001481533051 -0.012834999710321426
   vertex 0.1122170016169548 0.034894000738859177 -0.010804999619722366
   vertex 0.11879199743270874 0.032304998487234116 -0.011270999908447266
  endloop
 endfacet
 facet normal -0.97911898884550219 0.19472183920987851 -0.058390161987134016
  outer loop
   vertex 0.1122170016169548 0.034894000738859177 -0.010804999619722366
   vertex 0.11103899776935577 0.028857000172138214 -0.011184000410139561
   vertex 0.11026400327682495 0.028276000171899796 -0.00012599999899975955
  endloop
 endfacet
 facet normal -0.98132646651875433 0.19210082591224223 -0.0097795088655051512
  outer loop
   vertex 0.11184199899435043 0.032919999212026596 -0.011951000429689884
   vertex 0.11103899776935577 0.028857000172138214 -0.011184000410139561
   vertex 0.1122170016169548 0.034894000738859177 -0.010804999619722366
  endloop
 endfacet
 facet normal -0.97016840401242133 0.24078549161796498 -0.028206646065881115
  outer loop
   vertex 0.11187099665403366 0.033966001123189926 -0.0068259998224675655
   vertex 0.1122170016169548 0.034894000738859177 -0.010804999619722366
   vertex 0.11026400327682495 0.028276000171899796 -0.00012599999899975955
  endloop
 endfacet
 facet normal -0.16775750582629043 0.518598983441933 -0.83839877958638265
  outer loop
   vertex 0.11406199634075165 0.032209001481533051 -0.012834999710321426
   vertex 0.11184199899435043 0.032919999212026596 -0.011951000429689884
   vertex 0.1122170016169548 0.034894000738859177 -0.010804999619722366
  endloop
 endfacet
 facet normal -0.83270548941729139 0.55087035978526844 0.056066162739732181
  outer loop
   vertex 0.11271300166845322 0.035181999206542969 -0.0062680002301931381
   vertex 0.1122170016169548 0.034894000738859177 -0.010804999619722366
   vertex 0.11187099665403366 0.033966001123189926 -0.0068259998224675655
  endloop
 endfacet
 facet normal -0.80602216995687082 0.58823595299420617 -0.065625643943623441
  outer loop
   vertex 0.11165300011634827 0.034306999295949936 -0.0010920000495389104
   vertex 0.11271300166845322 0.035181999206542969 -0.0062680002301931381
   vertex 0.11187099665403366 0.033966001123189926 -0.0068259998224675655
  endloop
 endfacet
 facet normal -0.62488744562367948 -0.41402112953656162 0.66189288000339042
  outer loop
   vertex 0.1100120022892952 0.029817000031471252 0.00060000002849847078
   vertex 0.11026400327682495 0.028276000171899796 -0.00012599999899975955
   vertex 0.11265499889850616 0.028875000774860382 0.0025059999898076057
  endloop
 endfacet
 facet normal -0.41168015109574457 0.44925452210609895 0.79289963271589803
  outer loop
   vertex 0.1100120022892952 0.029817000031471252 0.00060000002849847078
   vertex 0.11265499889850616 0.028875000774860382 0.0025059999898076057
   vertex 0.11165300011634827 0.034306999295949936 -0.0010920000495389104
  endloop
 endfacet
 facet normal -0.68507538227090625 -0.25831788339860096 0.68113404827745805
  outer loop
   vertex 0.11026400327682495 0.028276000171899796 -0.00012599999899975955
   vertex 0.11061199754476547 0.026773000136017799 -0.00034599998616613448
   vertex 0.11265499889850616 0.028875000774860382 0.0025059999898076057
  endloop
 endfacet
 facet normal -0.94433093042662875 0.32433497474585754 -0.05518983598618131
  outer loop
   vertex 0.1100120022892952 0.029817000031471252 0.00060000002849847078
   vertex 0.11165300011634827 0.034306999295949936 -0.0010920000495389104
   vertex 0.11187099665403366 0.033966001123189926 -0.0068259998224675655
  endloop
 endfacet
 facet normal 0.19570452660840154 -0.97908267979850805 -0.055649298140711054
  outer loop
   vertex 0.10965599864721298 0.021321000531315804 -0.010285999625921249
   vertex 0.11672999709844589 0.022376000881195068 -0.0039699999615550041
   vertex 0.111626997590065 0.021529000252485275 -0.0070139998570084572
  endloop
 endfacet
 facet normal -0.13532643243068632 -0.87243541606512742 0.46962027371148585
  outer loop
   vertex 0.11354999989271164 0.02225399948656559 -0.0051130000501871109
   vertex 0.111626997590065 0.021529000252485275 -0.0070139998570084572
   vertex 0.11672999709844589 0.022376000881195068 -0.0039699999615550041
  endloop
 endfacet
 facet normal 0.52031100224444604 -0.82757200637525274 -0.2107155314812332
  outer loop
   vertex 0.11354999989271164 0.02225399948656559 -0.0051130000501871109
   vertex 0.11228500306606293 0.021462999284267426 -0.0051299999468028545
   vertex 0.111626997590065 0.021529000252485275 -0.0070139998570084572
  endloop
 endfacet
 facet normal -0.66999844626160832 -0.37430409473760179 0.64109166791473371
  outer loop
   vertex 0.11228500306606293 0.021462999284267426 -0.0051299999468028545
   vertex 0.11355800181627274 0.023097999393939972 -0.002845000009983778
   vertex 0.11183299869298935 0.021562999114394188 -0.0055439998395740986
  endloop
 endfacet
 facet normal -0.35863638415037047 -0.70418645408620917 0.61278167551342377
  outer loop
   vertex 0.11355800181627274 0.023097999393939972 -0.002845000009983778
   vertex 0.11061199754476547 0.026773000136017799 -0.00034599998616613448
   vertex 0.11001099646091461 0.024330999702215195 -0.0035039999056607485
  endloop
 endfacet
 facet normal -0.36501270360610821 -0.86184652588474664 0.35211687268086483
  outer loop
   vertex 0.11355800181627274 0.023097999393939972 -0.002845000009983778
   vertex 0.11001099646091461 0.024330999702215195 -0.0035039999056607485
   vertex 0.10945399850606918 0.022633999586105347 -0.0082350000739097595
  endloop
 endfacet
 facet normal -0.77206192350239777 -0.19561143614091439 0.60469542112427699
  outer loop
   vertex 0.11183299869298935 0.021562999114394188 -0.0055439998395740986
   vertex 0.11355800181627274 0.023097999393939972 -0.002845000009983778
   vertex 0.10945399850606918 0.022633999586105347 -0.0082350000739097595
  endloop
 endfacet
 facet normal -0.26746966946515655 -0.96171350353107277 0.059725313244795762
  outer loop
   vertex 0.11183299869298935 0.021562999114394188 -0.0055439998395740986
   vertex 0.111626997590065 0.021529000252485275 -0.0070139998570084572
   vertex 0.11228500306606293 0.021462999284267426 -0.0051299999468028545
  endloop
 endfacet
 facet normal -0.89121791961736896 -0.26067810299815347 0.37118397913995832
  outer loop
   vertex 0.11026400327682495 0.028276000171899796 -0.00012599999899975955
   vertex 0.11001099646091461 0.024330999702215195 -0.0035039999056607485
   vertex 0.11061199754476547 0.026773000136017799 -0.00034599998616613448
  endloop
 endfacet
 facet normal -0.58327105936110712 -0.70897417254818984 0.39642211589589865
  outer loop
   vertex 0.10965599864721298 0.021321000531315804 -0.010285999625921249
   vertex 0.111626997590065 0.021529000252485275 -0.0070139998570084572
   vertex 0.10945399850606918 0.022633999586105347 -0.0082350000739097595
  endloop
 endfacet
 facet normal -0.96866618767011281 0.15460631405964062 -0.19437773668180613
  outer loop
   vertex 0.10945399850606918 0.022633999586105347 -0.0082350000739097595
   vertex 0.11103899776935577 0.028857000172138214 -0.011184000410139561
   vertex 0.10965599864721298 0.021321000531315804 -0.010285999625921249
  endloop
 endfacet
 facet normal -0.037435912503354762 -0.40578420907659313 -0.91320190983107619
  outer loop
   vertex 0.12120600044727325 0.025053000077605247 -0.01116000022739172
   vertex 0.11997900158166885 0.027860000729560852 -0.012357000261545181
   vertex 0.12236200273036957 0.025661999359726906 -0.011478000320494175
  endloop
 endfacet
 facet normal -0.17084969550468954 -0.30705212472465021 -0.9362314747155388
  outer loop
   vertex 0.11948399990797043 0.028503000736236572 -0.012609000317752361
   vertex 0.11103899776935577 0.028857000172138214 -0.011184000410139561
   vertex 0.11406199634075165 0.032209001481533051 -0.012834999710321426
  endloop
 endfacet
 facet normal -0.97359600938629121 0.22114606742357718 -0.056614727502439087
  outer loop
   vertex 0.11103899776935577 0.028857000172138214 -0.011184000410139561
   vertex 0.10945399850606918 0.022633999586105347 -0.0082350000739097595
   vertex 0.11026400327682495 0.028276000171899796 -0.00012599999899975955
  endloop
 endfacet
 facet normal -0.39429949744186321 -0.094631866276378082 -0.91409666677115919
  outer loop
   vertex 0.11103899776935577 0.028857000172138214 -0.011184000410139561
   vertex 0.11184199899435043 0.032919999212026596 -0.011951000429689884
   vertex 0.11406199634075165 0.032209001481533051 -0.012834999710321426
  endloop
 endfacet
 facet normal -0.98942246164160963 -0.052378422403262299 0.13527635885698144
  outer loop
   vertex 0.11001099646091461 0.024330999702215195 -0.0035039999056607485
   vertex 0.11026400327682495 0.028276000171899796 -0.00012599999899975955
   vertex 0.10945399850606918 0.022633999586105347 -0.0082350000739097595
  endloop
 endfacet
 facet normal -0.96472200324898461 -0.034818505637895167 -0.26095809646839813
  outer loop
   vertex 0.11187099665403366 0.033966001123189926 -0.0068259998224675655
   vertex 0.11026400327682495 0.028276000171899796 -0.00012599999899975955
   vertex 0.1100120022892952 0.029817000031471252 0.00060000002849847078
  endloop
 endfacet
 facet normal -0.49068216773038897 -0.86680085407115848 0.088810414101707327
  outer loop
   vertex 0.10945399850606918 0.022633999586105347 -0.0082350000739097595
   vertex 0.111626997590065 0.021529000252485275 -0.0070139998570084572
   vertex 0.11183299869298935 0.021562999114394188 -0.0055439998395740986
  endloop
 endfacet
endsolid
