solid Visualization Toolkit generated SLA File
 facet normal 0.079159530169912742 0.14490864288449828 0.9862734174662986
  outer loop
   vertex 0.056591000407934189 -0.0056019998155534267 -0.0065230000764131546
   vertex 0.057277999818325043 -0.0027920000720769167 -0.0069909999147057533
   vertex 0.053892999887466431 -0.0032909999135881662 -0.0066459998488426208
  endloop
 endfacet
 facet normal -0.14913374532142543 0.1978171345848144 0.96882790384621853
  outer loop
   vertex 0.056591000407934189 -0.0056019998155534267 -0.0065230000764131546
   vertex 0.057610001415014267 -0.0045839999802410603 -0.0065740002319216728
   vertex 0.057277999818325043 -0.0027920000720769167 -0.0069909999147057533
  endloop
 endfacet
 facet normal 0.29886652113221213 0.39514701245541195 0.86864126145025555
  outer loop
   vertex 0.056591000407934189 -0.0056019998155534267 -0.0065230000764131546
   vertex 0.053892999887466431 -0.0032909999135881662 -0.0066459998488426208
   vertex 0.054951999336481094 -0.0045579997822642326 -0.0064340000972151756
  endloop
 endfacet
 facet normal 0.034680949447221505 -0.99576395648574367 0.08515500401795198
  outer loop
   vertex 0.056591000407934189 -0.0056019998155534267 -0.0065230000764131546
   vertex 0.055465001612901688 -0.0056360000744462013 -0.0064619998447597027
   vertex 0.055442001670598984 -0.0059349997900426388 -0.0099489996209740639
  endloop
 endfacet
 facet normal 0.39938864894298287 -0.91567942215463227 -0.044943330295581237
  outer loop
   vertex 0.056591000407934189 -0.0056019998155534267 -0.0065230000764131546
   vertex 0.055442001670598984 -0.0059349997900426388 -0.0099489996209740639
   vertex 0.057659998536109924 -0.0049399998970329762 -0.010510999709367752
  endloop
 endfacet
 facet normal 0.42636843392735874 -0.90384298863990775 -0.035746474466878723
  outer loop
   vertex 0.057597000151872635 -0.0051170000806450844 -0.0067870002239942551
   vertex 0.056591000407934189 -0.0056019998155534267 -0.0065230000764131546
   vertex 0.057659998536109924 -0.0049399998970329762 -0.010510999709367752
  endloop
 endfacet
 facet normal 0.054100731593152485 -0.00019011355574327584 0.99853546491745671
  outer loop
   vertex 0.055465001612901688 -0.0056360000744462013 -0.0064619998447597027
   vertex 0.056591000407934189 -0.0056019998155534267 -0.0065230000764131546
   vertex 0.054951999336481094 -0.0045579997822642326 -0.0064340000972151756
  endloop
 endfacet
 facet normal 0.39188314686618908 -0.34963535800464407 0.8509892570621661
  outer loop
   vertex 0.056591000407934189 -0.0056019998155534267 -0.0065230000764131546
   vertex 0.057597000151872635 -0.0051170000806450844 -0.0067870002239942551
   vertex 0.057610001415014267 -0.0045839999802410603 -0.0065740002319216728
  endloop
 endfacet
 facet normal -0.079066958008214366 0.099874396550969857 0.99185357844033961
  outer loop
   vertex 0.053895000368356705 -0.0042130001820623875 -0.0065529998391866684
   vertex 0.054951999336481094 -0.0045579997822642326 -0.0064340000972151756
   vertex 0.053892999887466431 -0.0032909999135881662 -0.0066459998488426208
  endloop
 endfacet
 facet normal 0.040985780417979512 0.36502278288177864 0.93009598095076784
  outer loop
   vertex 0.054202999919652939 -0.0023550000041723251 -0.0070270001888275146
   vertex 0.053892999887466431 -0.0032909999135881662 -0.0066459998488426208
   vertex 0.057277999818325043 -0.0027920000720769167 -0.0069909999147057533
  endloop
 endfacet
 facet normal -0.42323711286325644 0.458307133018792 0.78155288888166119
  outer loop
   vertex 0.053383000195026398 -0.0026449998840689659 -0.0073009999468922615
   vertex 0.053892999887466431 -0.0032909999135881662 -0.0066459998488426208
   vertex 0.054202999919652939 -0.0023550000041723251 -0.0070270001888275146
  endloop
 endfacet
 facet normal -0.75577934341238806 0.064093820751741568 0.65168210518057268
  outer loop
   vertex 0.053383000195026398 -0.0026449998840689659 -0.0073009999468922615
   vertex 0.053895000368356705 -0.0042130001820623875 -0.0065529998391866684
   vertex 0.053892999887466431 -0.0032909999135881662 -0.0066459998488426208
  endloop
 endfacet
 facet normal 0.084993863215136772 0.56262728382414295 0.82232997191664725
  outer loop
   vertex 0.057277999818325043 -0.0027920000720769167 -0.0069909999147057533
   vertex 0.057075001299381256 -0.0020129999611526728 -0.0075030000880360603
   vertex 0.054590001702308655 -0.0020409999415278435 -0.0072269998490810394
  endloop
 endfacet
 facet normal 0.13200812846440732 0.56822909042134895 0.81221275218888977
  outer loop
   vertex 0.057075001299381256 -0.0020129999611526728 -0.0075030000880360603
   vertex 0.057277999818325043 -0.0027920000720769167 -0.0069909999147057533
   vertex 0.058161001652479172 -0.002503999974578619 -0.0073359999805688858
  endloop
 endfacet
 facet normal 0.27435518448144591 0.26587792555422263 0.92414185136868188
  outer loop
   vertex 0.058161001652479172 -0.002503999974578619 -0.0073359999805688858
   vertex 0.057277999818325043 -0.0027920000720769167 -0.0069909999147057533
   vertex 0.057610001415014267 -0.0045839999802410603 -0.0065740002319216728
  endloop
 endfacet
 facet normal 0.058555644521310179 0.48396202504487607 0.87312770819002006
  outer loop
   vertex 0.054202999919652939 -0.0023550000041723251 -0.0070270001888275146
   vertex 0.057277999818325043 -0.0027920000720769167 -0.0069909999147057533
   vertex 0.054590001702308655 -0.0020409999415278435 -0.0072269998490810394
  endloop
 endfacet
 facet normal 0.63305054932378269 0.11286430848566145 0.76583852728294521
  outer loop
   vertex 0.058616999536752701 -0.003785999957472086 -0.0075240000151097775
   vertex 0.058161001652479172 -0.002503999974578619 -0.0073359999805688858
   vertex 0.057610001415014267 -0.0045839999802410603 -0.0065740002319216728
  endloop
 endfacet
 facet normal 0.76289599940038177 -0.25587839401205992 0.59373052942955662
  outer loop
   vertex 0.057597000151872635 -0.0051170000806450844 -0.0067870002239942551
   vertex 0.058616999536752701 -0.003785999957472086 -0.0075240000151097775
   vertex 0.057610001415014267 -0.0045839999802410603 -0.0065740002319216728
  endloop
 endfacet
 facet normal -0.3253899438277732 -0.9160609158362133 0.23442223216469163
  outer loop
   vertex 0.054951999336481094 -0.0045579997822642326 -0.0064340000972151756
   vertex 0.053895000368356705 -0.0042130001820623875 -0.0065529998391866684
   vertex 0.054265998303890228 -0.0044410000555217266 -0.0069289999082684517
  endloop
 endfacet
 facet normal -0.59125024007182558 -0.30080206394013909 0.74829223699324932
  outer loop
   vertex 0.055465001612901688 -0.0056360000744462013 -0.0064619998447597027
   vertex 0.054951999336481094 -0.0045579997822642326 -0.0064340000972151756
   vertex 0.054265998303890228 -0.0044410000555217266 -0.0069289999082684517
  endloop
 endfacet
 facet normal -0.2530701834384016 -0.90321673193647023 0.34663383765070649
  outer loop
   vertex 0.055442001670598984 -0.0059349997900426388 -0.0099489996209740639
   vertex 0.054150998592376709 -0.0047140000388026237 -0.0077100000344216824
   vertex 0.049663998186588287 -0.0054770000278949738 -0.012973999604582787
  endloop
 endfacet
 facet normal -0.45546073522122177 -0.88696454849134798 0.076481425138940629
  outer loop
   vertex 0.055314000695943832 -0.0061690001748502254 -0.013425000011920929
   vertex 0.055442001670598984 -0.0059349997900426388 -0.0099489996209740639
   vertex 0.054134000092744827 -0.0055140000768005848 -0.012856000103056431
  endloop
 endfacet
 facet normal 0.078399416136381947 -0.99486005827887314 0.064085848600385825
  outer loop
   vertex 0.056407999247312546 -0.0060919998213648796 -0.013567999936640263
   vertex 0.055442001670598984 -0.0059349997900426388 -0.0099489996209740639
   vertex 0.055314000695943832 -0.0061690001748502254 -0.013425000011920929
  endloop
 endfacet
 facet normal -0.5118583802079496 -0.85239730691586424 0.10686360359578054
  outer loop
   vertex 0.055442001670598984 -0.0059349997900426388 -0.0099489996209740639
   vertex 0.053369998931884766 -0.0051070000045001507 -0.013268999755382538
   vertex 0.054134000092744827 -0.0055140000768005848 -0.012856000103056431
  endloop
 endfacet
 facet normal 0.072853543164559553 -0.95607881175798137 -0.28391137165639552
  outer loop
   vertex 0.053369998931884766 -0.0051070000045001507 -0.013268999755382538
   vertex 0.055442001670598984 -0.0059349997900426388 -0.0099489996209740639
   vertex 0.049663998186588287 -0.0054770000278949738 -0.012973999604582787
  endloop
 endfacet
 facet normal 0.43679063068449137 -0.88610346886185221 0.15503092406754398
  outer loop
   vertex 0.056407999247312546 -0.0060919998213648796 -0.013567999936640263
   vertex 0.057659998536109924 -0.0049399998970329762 -0.010510999709367752
   vertex 0.055442001670598984 -0.0059349997900426388 -0.0099489996209740639
  endloop
 endfacet
 facet normal -0.61738186009541052 -0.78343041806927416 0.071248992055561428
  outer loop
   vertex 0.055465001612901688 -0.0056360000744462013 -0.0064619998447597027
   vertex 0.054150998592376709 -0.0047140000388026237 -0.0077100000344216824
   vertex 0.055442001670598984 -0.0059349997900426388 -0.0099489996209740639
  endloop
 endfacet
 facet normal -0.72847340365854374 -0.60618791306324971 0.31915938685578149
  outer loop
   vertex 0.054265998303890228 -0.0044410000555217266 -0.0069289999082684517
   vertex 0.054150998592376709 -0.0047140000388026237 -0.0077100000344216824
   vertex 0.055465001612901688 -0.0056360000744462013 -0.0064619998447597027
  endloop
 endfacet
 facet normal 0.41997541127748611 -0.89253178916417986 0.16434007196570941
  outer loop
   vertex 0.058049999177455902 -0.0050220000557601452 -0.011952999979257584
   vertex 0.057659998536109924 -0.0049399998970329762 -0.010510999709367752
   vertex 0.056407999247312546 -0.0060919998213648796 -0.013567999936640263
  endloop
 endfacet
 facet normal 0.78938502884605954 -0.61369468807283534 -0.015814742011531917
  outer loop
   vertex 0.057597000151872635 -0.0051170000806450844 -0.0067870002239942551
   vertex 0.057659998536109924 -0.0049399998970329762 -0.010510999709367752
   vertex 0.058616999536752701 -0.003785999957472086 -0.0075240000151097775
  endloop
 endfacet
 facet normal 0.965299899031138 -0.0011947121457568871 0.26114110667101764
  outer loop
   vertex 0.057659998536109924 -0.0049399998970329762 -0.010510999709367752
   vertex 0.058049999177455902 -0.0050220000557601452 -0.011952999979257584
   vertex 0.057833001017570496 -0.0028639999218285084 -0.011141000315546989
  endloop
 endfacet
 facet normal 0.95666072073745012 -0.15461012664208079 -0.2467710966418519
  outer loop
   vertex 0.057833001017570496 -0.0028639999218285084 -0.011141000315546989
   vertex 0.058616999536752701 -0.003785999957472086 -0.0075240000151097775
   vertex 0.057659998536109924 -0.0049399998970329762 -0.010510999709367752
  endloop
 endfacet
 facet normal -0.7397888831211783 0.077283568972675312 0.66838586039589842
  outer loop
   vertex 0.053895000368356705 -0.0042130001820623875 -0.0065529998391866684
   vertex 0.053383000195026398 -0.0026449998840689659 -0.0073009999468922615
   vertex 0.053412001579999924 -0.0042960001155734062 -0.0070779998786747456
  endloop
 endfacet
 facet normal -0.21970171347792303 -0.91203003583243547 0.34631253346414026
  outer loop
   vertex 0.054150998592376709 -0.0047140000388026237 -0.0077100000344216824
   vertex 0.053895000368356705 -0.0042130001820623875 -0.0065529998391866684
   vertex 0.053412001579999924 -0.0042960001155734062 -0.0070779998786747456
  endloop
 endfacet
 facet normal -0.20693932013306593 -0.91366563084491548 0.34984458377346245
  outer loop
   vertex 0.054265998303890228 -0.0044410000555217266 -0.0069289999082684517
   vertex 0.053895000368356705 -0.0042130001820623875 -0.0065529998391866684
   vertex 0.054150998592376709 -0.0047140000388026237 -0.0077100000344216824
  endloop
 endfacet
 facet normal -0.42517441576888249 0.79711613376281754 0.42875702381489611
  outer loop
   vertex 0.054590001702308655 -0.0020409999415278435 -0.0072269998490810394
   vertex 0.053383000195026398 -0.0026449998840689659 -0.0073009999468922615
   vertex 0.054202999919652939 -0.0023550000041723251 -0.0070270001888275146
  endloop
 endfacet
 facet normal -0.30291573986332221 0.29732987589204335 0.90544850734046622
  outer loop
   vertex 0.053383000195026398 -0.0026449998840689659 -0.0073009999468922615
   vertex 0.05164400115609169 -0.0027570000384002924 -0.0078459996730089188
   vertex 0.052712999284267426 -0.0032879998907446861 -0.0073139998130500317
  endloop
 endfacet
 facet normal -0.39245422888981546 0.71308508971993945 0.58093832120596611
  outer loop
   vertex 0.052152998745441437 -0.0022929999977350235 -0.0085640000179409981
   vertex 0.053383000195026398 -0.0026449998840689659 -0.0073009999468922615
   vertex 0.054590001702308655 -0.0020409999415278435 -0.0072269998490810394
  endloop
 endfacet
 facet normal -0.19236090536647477 0.88072989777675881 0.43279571306648823
  outer loop
   vertex 0.052152998745441437 -0.0022929999977350235 -0.0085640000179409981
   vertex 0.05164400115609169 -0.0027570000384002924 -0.0078459996730089188
   vertex 0.053383000195026398 -0.0026449998840689659 -0.0073009999468922615
  endloop
 endfacet
 facet normal -0.14377916348330846 0.12998262835925184 0.98103622179451688
  outer loop
   vertex 0.052712999284267426 -0.0032879998907446861 -0.0073139998130500317
   vertex 0.053412001579999924 -0.0042960001155734062 -0.0070779998786747456
   vertex 0.053383000195026398 -0.0026449998840689659 -0.0073009999468922615
  endloop
 endfacet
 facet normal -0.037036585830540869 0.97130768723068706 -0.23492481358211392
  outer loop
   vertex 0.054590001702308655 -0.0020409999415278435 -0.0072269998490810394
   vertex 0.057075001299381256 -0.0020129999611526728 -0.0075030000880360603
   vertex 0.057833001017570496 -0.0028639999218285084 -0.011141000315546989
  endloop
 endfacet
 facet normal -0.20341174767854719 0.96053566154559555 0.18972322948317155
  outer loop
   vertex 0.054590001702308655 -0.0020409999415278435 -0.0072269998490810394
   vertex 0.048395998775959015 -0.0023099998943507671 -0.012505999766290188
   vertex 0.052152998745441437 -0.0022929999977350235 -0.0085640000179409981
  endloop
 endfacet
 facet normal 0.24237852253153971 0.91202093563831832 -0.33086321157365645
  outer loop
   vertex 0.054152999073266983 -0.0042550000362098217 -0.013650000095367432
   vertex 0.048395998775959015 -0.0023099998943507671 -0.012505999766290188
   vertex 0.054590001702308655 -0.0020409999415278435 -0.0072269998490810394
  endloop
 endfacet
 facet normal -0.26406932020247859 0.91724587481864417 -0.29820697385537637
  outer loop
   vertex 0.054590001702308655 -0.0020409999415278435 -0.0072269998490810394
   vertex 0.057245999574661255 -0.0033070000354200602 -0.013473000377416611
   vertex 0.054152999073266983 -0.0042550000362098217 -0.013650000095367432
  endloop
 endfacet
 facet normal 0.018446535744918637 0.98140189490186469 -0.19107602152557171
  outer loop
   vertex 0.057245999574661255 -0.0033070000354200602 -0.013473000377416611
   vertex 0.054590001702308655 -0.0020409999415278435 -0.0072269998490810394
   vertex 0.057833001017570496 -0.0028639999218285084 -0.011141000315546989
  endloop
 endfacet
 facet normal 0.40317012080273062 0.91298935418672211 0.062484340707282648
  outer loop
   vertex 0.057075001299381256 -0.0020129999611526728 -0.0075030000880360603
   vertex 0.058161001652479172 -0.002503999974578619 -0.0073359999805688858
   vertex 0.058130998164415359 -0.0024000001139938831 -0.008662000298500061
  endloop
 endfacet
 facet normal 0.13806430009552004 0.97038391783906841 -0.19822537940040447
  outer loop
   vertex 0.058130998164415359 -0.0024000001139938831 -0.008662000298500061
   vertex 0.057833001017570496 -0.0028639999218285084 -0.011141000315546989
   vertex 0.057075001299381256 -0.0020129999611526728 -0.0075030000880360603
  endloop
 endfacet
 facet normal 0.9423897149649586 0.33448096292498763 0.004910251423012324
  outer loop
   vertex 0.058616999536752701 -0.003785999957472086 -0.0075240000151097775
   vertex 0.058130998164415359 -0.0024000001139938831 -0.008662000298500061
   vertex 0.058161001652479172 -0.002503999974578619 -0.0073359999805688858
  endloop
 endfacet
 facet normal 0.96509543102502693 0.21076594272562249 -0.15546229897179908
  outer loop
   vertex 0.057833001017570496 -0.0028639999218285084 -0.011141000315546989
   vertex 0.058130998164415359 -0.0024000001139938831 -0.008662000298500061
   vertex 0.058616999536752701 -0.003785999957472086 -0.0075240000151097775
  endloop
 endfacet
 facet normal -0.15506730219076384 -0.023390603686102081 -0.98762695966163161
  outer loop
   vertex 0.05019799992442131 -0.003696999978274107 -0.013100000098347664
   vertex 0.049663998186588287 -0.0054770000278949738 -0.012973999604582787
   vertex 0.045797999948263168 -0.0066169998608529568 -0.01233999989926815
  endloop
 endfacet
 facet normal -0.035563942576554285 -0.38054821873905359 -0.9240769768817666
  outer loop
   vertex 0.049663998186588287 -0.0054770000278949738 -0.012973999604582787
   vertex 0.054152999073266983 -0.0042550000362098217 -0.013650000095367432
   vertex 0.053369998931884766 -0.0051070000045001507 -0.013268999755382538
  endloop
 endfacet
 facet normal -0.14150506376658209 -0.02759561436836459 -0.98955282779447806
  outer loop
   vertex 0.054152999073266983 -0.0042550000362098217 -0.013650000095367432
   vertex 0.049663998186588287 -0.0054770000278949738 -0.012973999604582787
   vertex 0.05019799992442131 -0.003696999978274107 -0.013100000098347664
  endloop
 endfacet
 facet normal 0.28611759145069959 -0.95793704202445207 0.022211424535446035
  outer loop
   vertex 0.045797999948263168 -0.0066169998608529568 -0.01233999989926815
   vertex 0.049663998186588287 -0.0054770000278949738 -0.012973999604582787
   vertex 0.049042001366615295 -0.0055260001681745052 -0.0070750000886619091
  endloop
 endfacet
 facet normal 0.28174363937677965 -0.95940066139769642 0.013072588893946821
  outer loop
   vertex 0.049663998186588287 -0.0054770000278949738 -0.012973999604582787
   vertex 0.053412001579999924 -0.0042960001155734062 -0.0070779998786747456
   vertex 0.05098700150847435 -0.0050139999948441982 -0.0075079998932778835
  endloop
 endfacet
 facet normal 0.25852240595707465 -0.96581371350266965 0.019236330948202658
  outer loop
   vertex 0.049042001366615295 -0.0055260001681745052 -0.0070750000886619091
   vertex 0.049663998186588287 -0.0054770000278949738 -0.012973999604582787
   vertex 0.05098700150847435 -0.0050139999948441982 -0.0075079998932778835
  endloop
 endfacet
 facet normal -0.23350605935405178 -0.91408994807887578 0.33153353837296823
  outer loop
   vertex 0.049663998186588287 -0.0054770000278949738 -0.012973999604582787
   vertex 0.054150998592376709 -0.0047140000388026237 -0.0077100000344216824
   vertex 0.053412001579999924 -0.0042960001155734062 -0.0070779998786747456
  endloop
 endfacet
 facet normal -0.1146269669588931 -0.18428396180309586 -0.97616601040394768
  outer loop
   vertex 0.055314000695943832 -0.0061690001748502254 -0.013425000011920929
   vertex 0.054152999073266983 -0.0042550000362098217 -0.013650000095367432
   vertex 0.056407999247312546 -0.0060919998213648796 -0.013567999936640263
  endloop
 endfacet
 facet normal -0.57765004586242319 -0.73843947073123772 -0.3478901731600218
  outer loop
   vertex 0.055314000695943832 -0.0061690001748502254 -0.013425000011920929
   vertex 0.054134000092744827 -0.0055140000768005848 -0.012856000103056431
   vertex 0.054280001670122147 -0.0053869998082518578 -0.013368000276386738
  endloop
 endfacet
 facet normal -0.24829445243078219 -0.26029683179734714 -0.93305703161616105
  outer loop
   vertex 0.054280001670122147 -0.0053869998082518578 -0.013368000276386738
   vertex 0.054152999073266983 -0.0042550000362098217 -0.013650000095367432
   vertex 0.055314000695943832 -0.0061690001748502254 -0.013425000011920929
  endloop
 endfacet
 facet normal -0.31024784346399453 -0.8982494282173592 -0.31127839683011699
  outer loop
   vertex 0.054280001670122147 -0.0053869998082518578 -0.013368000276386738
   vertex 0.054134000092744827 -0.0055140000768005848 -0.012856000103056431
   vertex 0.053369998931884766 -0.0051070000045001507 -0.013268999755382538
  endloop
 endfacet
 facet normal 0.45840275287548587 -0.88093173869376307 0.1175848115963946
  outer loop
   vertex 0.057436000555753708 -0.005555999930948019 -0.013559999875724316
   vertex 0.058049999177455902 -0.0050220000557601452 -0.011952999979257584
   vertex 0.056407999247312546 -0.0060919998213648796 -0.013567999936640263
  endloop
 endfacet
 facet normal 0.018928650727737199 -0.021384108448616445 -0.9995921298647189
  outer loop
   vertex 0.057436000555753708 -0.005555999930948019 -0.013559999875724316
   vertex 0.056407999247312546 -0.0060919998213648796 -0.013567999936640263
   vertex 0.054152999073266983 -0.0042550000362098217 -0.013650000095367432
  endloop
 endfacet
 facet normal -0.18229506746114368 -0.25688698666085391 -0.94909303256511324
  outer loop
   vertex 0.053369998931884766 -0.0051070000045001507 -0.013268999755382538
   vertex 0.054152999073266983 -0.0042550000362098217 -0.013650000095367432
   vertex 0.054280001670122147 -0.0053869998082518578 -0.013368000276386738
  endloop
 endfacet
 facet normal 0.88963864889565647 -0.40847982071953837 -0.20417470572047997
  outer loop
   vertex 0.057436000555753708 -0.005555999930948019 -0.013559999875724316
   vertex 0.058217000216245651 -0.0039820000529289246 -0.013306000269949436
   vertex 0.058049999177455902 -0.0050220000557601452 -0.011952999979257584
  endloop
 endfacet
 facet normal 0.99054766425899077 -0.13602097597554685 0.017709289249365052
  outer loop
   vertex 0.058049999177455902 -0.0050220000557601452 -0.011952999979257584
   vertex 0.058217000216245651 -0.0039820000529289246 -0.013306000269949436
   vertex 0.058290999382734299 -0.0033400000538676977 -0.012513999827206135
  endloop
 endfacet
 facet normal 0.94540319571659004 -0.027137791718567002 0.32477120837521678
  outer loop
   vertex 0.058049999177455902 -0.0050220000557601452 -0.011952999979257584
   vertex 0.058290999382734299 -0.0033400000538676977 -0.012513999827206135
   vertex 0.057833001017570496 -0.0028639999218285084 -0.011141000315546989
  endloop
 endfacet
 facet normal 0.251012499305581 0.9374349251677998 -0.24126434935150945
  outer loop
   vertex 0.057245999574661255 -0.0033070000354200602 -0.013473000377416611
   vertex 0.057833001017570496 -0.0028639999218285084 -0.011141000315546989
   vertex 0.058290999382734299 -0.0033400000538676977 -0.012513999827206135
  endloop
 endfacet
 facet normal -0.037626411748891177 0.20299096516933374 0.97845741920562146
  outer loop
   vertex 0.052712999284267426 -0.0032879998907446861 -0.0073139998130500317
   vertex 0.050340000540018082 -0.0047160000540316105 -0.0071089998818933964
   vertex 0.053412001579999924 -0.0042960001155734062 -0.0070779998786747456
  endloop
 endfacet
 facet normal 0.091625340667308708 -0.7208796959281053 0.68697689986359944
  outer loop
   vertex 0.050340000540018082 -0.0047160000540316105 -0.0071089998818933964
   vertex 0.05098700150847435 -0.0050139999948441982 -0.0075079998932778835
   vertex 0.053412001579999924 -0.0042960001155734062 -0.0070779998786747456
  endloop
 endfacet
 facet normal -0.17804518603179845 0.49412817249761276 0.85096254963134055
  outer loop
   vertex 0.052712999284267426 -0.0032879998907446861 -0.0073139998130500317
   vertex 0.05164400115609169 -0.0027570000384002924 -0.0078459996730089188
   vertex 0.05155399814248085 -0.0037589999847114086 -0.0072829998098313808
  endloop
 endfacet
 facet normal -0.092661933674353894 0.29069455377403247 0.95231845642822954
  outer loop
   vertex 0.05155399814248085 -0.0037589999847114086 -0.0072829998098313808
   vertex 0.050340000540018082 -0.0047160000540316105 -0.0071089998818933964
   vertex 0.052712999284267426 -0.0032879998907446861 -0.0073139998130500317
  endloop
 endfacet
 facet normal -0.084271412091559764 0.86306815567141015 0.49800771858480786
  outer loop
   vertex 0.052152998745441437 -0.0022929999977350235 -0.0085640000179409981
   vertex 0.050413001328706741 -0.0021639999467879534 -0.009081999771296978
   vertex 0.05164400115609169 -0.0027570000384002924 -0.0078459996730089188
  endloop
 endfacet
 facet normal 0.35321847762924974 0.43395822283073349 0.82880454143233717
  outer loop
   vertex 0.05155399814248085 -0.0037589999847114086 -0.0072829998098313808
   vertex 0.05164400115609169 -0.0027570000384002924 -0.0078459996730089188
   vertex 0.051130000501871109 -0.0032420000061392784 -0.0073730000294744968
  endloop
 endfacet
 facet normal 0.1048301460399471 0.71919080179685579 0.68685896011629555
  outer loop
   vertex 0.046679001301527023 -0.0013810000382363796 -0.0085289999842643738
   vertex 0.04847399890422821 -0.0034620000515133142 -0.006624000146985054
   vertex 0.05164400115609169 -0.0027570000384002924 -0.0078459996730089188
  endloop
 endfacet
 facet normal 0.17447197743826637 0.58647668363467353 0.79095172333187069
  outer loop
   vertex 0.051130000501871109 -0.0032420000061392784 -0.0073730000294744968
   vertex 0.05164400115609169 -0.0027570000384002924 -0.0078459996730089188
   vertex 0.04847399890422821 -0.0034620000515133142 -0.006624000146985054
  endloop
 endfacet
 facet normal 0.23163807747290313 0.94677134740810731 0.22353482232460867
  outer loop
   vertex 0.05164400115609169 -0.0027570000384002924 -0.0078459996730089188
   vertex 0.050413001328706741 -0.0021639999467879534 -0.009081999771296978
   vertex 0.046679001301527023 -0.0013810000382363796 -0.0085289999842643738
  endloop
 endfacet
 facet normal 0.10415646416023838 0.98915727803578635 -0.10353410202667984
  outer loop
   vertex 0.048395998775959015 -0.0023099998943507671 -0.012505999766290188
   vertex 0.050413001328706741 -0.0021639999467879534 -0.009081999771296978
   vertex 0.052152998745441437 -0.0022929999977350235 -0.0085640000179409981
  endloop
 endfacet
 facet normal 0.1818306342341322 0.97204290320164655 -0.14856047519218446
  outer loop
   vertex 0.048395998775959015 -0.0023099998943507671 -0.012505999766290188
   vertex 0.046679001301527023 -0.0013810000382363796 -0.0085289999842643738
   vertex 0.050413001328706741 -0.0021639999467879534 -0.009081999771296978
  endloop
 endfacet
 facet normal -0.091762401686357478 0.28889565801409844 -0.952952758754259
  outer loop
   vertex 0.05019799992442131 -0.003696999978274107 -0.013100000098347664
   vertex 0.048395998775959015 -0.0023099998943507671 -0.012505999766290188
   vertex 0.054152999073266983 -0.0042550000362098217 -0.013650000095367432
  endloop
 endfacet
 facet normal 0.18227572058857208 0.96487357697758369 -0.18919445587648651
  outer loop
   vertex 0.045469999313354492 -0.0012390000047162175 -0.009863000363111496
   vertex 0.048395998775959015 -0.0023099998943507671 -0.012505999766290188
   vertex 0.045210998505353928 -0.0015439999988302588 -0.011668000370264053
  endloop
 endfacet
 facet normal -0.22512472429914684 0.12152685945168358 -0.96672130468974549
  outer loop
   vertex 0.05019799992442131 -0.003696999978274107 -0.013100000098347664
   vertex 0.045210998505353928 -0.0015439999988302588 -0.011668000370264053
   vertex 0.048395998775959015 -0.0023099998943507671 -0.012505999766290188
  endloop
 endfacet
 facet normal 0.24454926263185295 0.96228185419562129 -0.11920273164677879
  outer loop
   vertex 0.046679001301527023 -0.0013810000382363796 -0.0085289999842643738
   vertex 0.048395998775959015 -0.0023099998943507671 -0.012505999766290188
   vertex 0.045469999313354492 -0.0012390000047162175 -0.009863000363111496
  endloop
 endfacet
 facet normal 0.044141481736101065 0.042340388940230789 -0.99812765769441103
  outer loop
   vertex 0.057436000555753708 -0.005555999930948019 -0.013559999875724316
   vertex 0.054152999073266983 -0.0042550000362098217 -0.013650000095367432
   vertex 0.057245999574661255 -0.0033070000354200602 -0.013473000377416611
  endloop
 endfacet
 facet normal 0.53524343427065812 0.6310319219212247 -0.56152754125381676
  outer loop
   vertex 0.057245999574661255 -0.0033070000354200602 -0.013473000377416611
   vertex 0.058290999382734299 -0.0033400000538676977 -0.012513999827206135
   vertex 0.058217000216245651 -0.0039820000529289246 -0.013306000269949436
  endloop
 endfacet
 facet normal 0.20640812506530432 0.055228142762943661 -0.97690610508583753
  outer loop
   vertex 0.057245999574661255 -0.0033070000354200602 -0.013473000377416611
   vertex 0.058217000216245651 -0.0039820000529289246 -0.013306000269949436
   vertex 0.057436000555753708 -0.005555999930948019 -0.013559999875724316
  endloop
 endfacet
 facet normal 0.029900876813009361 0.60065508258903066 -0.79894894037465114
  outer loop
   vertex 0.045210998505353928 -0.0015439999988302588 -0.011668000370264053
   vertex 0.05019799992442131 -0.003696999978274107 -0.013100000098347664
   vertex 0.044996000826358795 -0.0029019999783486128 -0.012697000056505203
  endloop
 endfacet
 facet normal -0.060196350895620469 0.10908018325748574 -0.99220860355036467
  outer loop
   vertex 0.044548999518156052 -0.004503999836742878 -0.01284599956125021
   vertex 0.044996000826358795 -0.0029019999783486128 -0.012697000056505203
   vertex 0.05019799992442131 -0.003696999978274107 -0.013100000098347664
  endloop
 endfacet
 facet normal -0.0096304219028668318 -0.23825483179918014 -0.97115492589921881
  outer loop
   vertex 0.045797999948263168 -0.0066169998608529568 -0.01233999989926815
   vertex 0.044548999518156052 -0.004503999836742878 -0.01284599956125021
   vertex 0.05019799992442131 -0.003696999978274107 -0.013100000098347664
  endloop
 endfacet
 facet normal -0.26176753030758787 -0.3683557478278861 -0.89207163564302672
  outer loop
   vertex 0.044364001601934433 -0.0057819997891783714 -0.012264000251889229
   vertex 0.044548999518156052 -0.004503999836742878 -0.01284599956125021
   vertex 0.045797999948263168 -0.0066169998608529568 -0.01233999989926815
  endloop
 endfacet
 facet normal -0.46927013785763527 -0.7659032144367115 -0.43951996977451313
  outer loop
   vertex 0.045797999948263168 -0.0066169998608529568 -0.01233999989926815
   vertex 0.044566001743078232 -0.0063660000450909138 -0.011462000198662281
   vertex 0.044364001601934433 -0.0057819997891783714 -0.012264000251889229
  endloop
 endfacet
 facet normal -0.29205470769158204 -0.94620116163790968 -0.1393104785371681
  outer loop
   vertex 0.044566001743078232 -0.0063660000450909138 -0.011462000198662281
   vertex 0.045797999948263168 -0.0066169998608529568 -0.01233999989926815
   vertex 0.04456000030040741 -0.00648899981752038 -0.010614000260829926
  endloop
 endfacet
 facet normal -0.016349293759096224 -0.99792484321540398 0.06227927333463483
  outer loop
   vertex 0.045797999948263168 -0.0066169998608529568 -0.01233999989926815
   vertex 0.047067999839782715 -0.0064199999906122684 -0.0088499998673796654
   vertex 0.04456000030040741 -0.00648899981752038 -0.010614000260829926
  endloop
 endfacet
 facet normal 0.50821482342934177 -0.85027317115743006 -0.13694242460454176
  outer loop
   vertex 0.047067999839782715 -0.0064199999906122684 -0.0088499998673796654
   vertex 0.045797999948263168 -0.0066169998608529568 -0.01233999989926815
   vertex 0.049042001366615295 -0.0055260001681745052 -0.0070750000886619091
  endloop
 endfacet
 facet normal 0.33558910205524578 -0.93683058751247006 0.098632676546841547
  outer loop
   vertex 0.047067999839782715 -0.0064199999906122684 -0.0088499998673796654
   vertex 0.049042001366615295 -0.0055260001681745052 -0.0070750000886619091
   vertex 0.045818999409675598 -0.006632000207901001 -0.0066140000708401203
  endloop
 endfacet
 facet normal 0.34664301711031459 -0.89999434294863279 0.264289238050127
  outer loop
   vertex 0.04692399874329567 -0.0057850000448524952 -0.005179000087082386
   vertex 0.045818999409675598 -0.006632000207901001 -0.0066140000708401203
   vertex 0.049042001366615295 -0.0055260001681745052 -0.0070750000886619091
  endloop
 endfacet
 facet normal 0.30597818979830887 -0.45522271777390044 0.83615167558900094
  outer loop
   vertex 0.05098700150847435 -0.0050139999948441982 -0.0075079998932778835
   vertex 0.050340000540018082 -0.0047160000540316105 -0.0071089998818933964
   vertex 0.049042001366615295 -0.0055260001681745052 -0.0070750000886619091
  endloop
 endfacet
 facet normal 0.66547928233643194 0.020097967183912168 0.74614569388026486
  outer loop
   vertex 0.049042001366615295 -0.0055260001681745052 -0.0070750000886619091
   vertex 0.04847399890422821 -0.0034620000515133142 -0.006624000146985054
   vertex 0.04692399874329567 -0.0057850000448524952 -0.005179000087082386
  endloop
 endfacet
 facet normal 0.13527020151160887 -0.17583707578619778 0.97508117372963754
  outer loop
   vertex 0.050340000540018082 -0.0047160000540316105 -0.0071089998818933964
   vertex 0.04847399890422821 -0.0034620000515133142 -0.006624000146985054
   vertex 0.049042001366615295 -0.0055260001681745052 -0.0070750000886619091
  endloop
 endfacet
 facet normal 0.26914703124924144 0.028170535491500368 0.96268701897337428
  outer loop
   vertex 0.050340000540018082 -0.0047160000540316105 -0.0071089998818933964
   vertex 0.051130000501871109 -0.0032420000061392784 -0.0073730000294744968
   vertex 0.04847399890422821 -0.0034620000515133142 -0.006624000146985054
  endloop
 endfacet
 facet normal 0.0036472271200580306 0.17440369259110827 0.98466748181552177
  outer loop
   vertex 0.051130000501871109 -0.0032420000061392784 -0.0073730000294744968
   vertex 0.050340000540018082 -0.0047160000540316105 -0.0071089998818933964
   vertex 0.05155399814248085 -0.0037589999847114086 -0.0072829998098313808
  endloop
 endfacet
 facet normal 0.64269417351371005 0.73907466319185544 0.20177423413155252
  outer loop
   vertex 0.046835001558065414 -0.00228899996727705 -0.0057000000961124897
   vertex 0.04847399890422821 -0.0034620000515133142 -0.006624000146985054
   vertex 0.046679001301527023 -0.0013810000382363796 -0.0085289999842643738
  endloop
 endfacet
 facet normal -0.0079078516700933944 0.99357155088810578 0.11292935467702085
  outer loop
   vertex 0.045088998973369598 -0.0014140000566840172 -0.0083499997854232788
   vertex 0.046679001301527023 -0.0013810000382363796 -0.0085289999842643738
   vertex 0.045469999313354492 -0.0012390000047162175 -0.009863000363111496
  endloop
 endfacet
 facet normal 0.014554621458905282 0.95229045636412568 0.30484594422756089
  outer loop
   vertex 0.045088998973369598 -0.0014140000566840172 -0.0083499997854232788
   vertex 0.046835001558065414 -0.00228899996727705 -0.0057000000961124897
   vertex 0.046679001301527023 -0.0013810000382363796 -0.0085289999842643738
  endloop
 endfacet
 facet normal 0.81205750071740257 -0.20105241651233391 0.54785083858944372
  outer loop
   vertex 0.04847399890422821 -0.0034620000515133142 -0.006624000146985054
   vertex 0.047527000308036804 -0.0035620001144707203 -0.0052570002153515816
   vertex 0.04692399874329567 -0.0057850000448524952 -0.005179000087082386
  endloop
 endfacet
 facet normal 0.67217272654401117 0.54121405681737622 0.50524367427377825
  outer loop
   vertex 0.04847399890422821 -0.0034620000515133142 -0.006624000146985054
   vertex 0.046835001558065414 -0.00228899996727705 -0.0057000000961124897
   vertex 0.047527000308036804 -0.0035620001144707203 -0.0052570002153515816
  endloop
 endfacet
 facet normal -0.31234232498360037 0.94304012935340342 -0.11453203243178309
  outer loop
   vertex 0.045210998505353928 -0.0015439999988302588 -0.011668000370264053
   vertex 0.044578000903129578 -0.0015279999934136868 -0.0098099997267127037
   vertex 0.045469999313354492 -0.0012390000047162175 -0.009863000363111496
  endloop
 endfacet
 facet normal -0.30628093703851422 0.95137202940496013 0.032912752432719107
  outer loop
   vertex 0.044578000903129578 -0.0015279999934136868 -0.0098099997267127037
   vertex 0.045088998973369598 -0.0014140000566840172 -0.0083499997854232788
   vertex 0.045469999313354492 -0.0012390000047162175 -0.009863000363111496
  endloop
 endfacet
 facet normal -0.60964313474427068 0.76316690588913882 -0.21426974124868312
  outer loop
   vertex 0.045210998505353928 -0.0015439999988302588 -0.011668000370264053
   vertex 0.044024001806974411 -0.0023260000161826611 -0.011075999587774277
   vertex 0.044578000903129578 -0.0015279999934136868 -0.0098099997267127037
  endloop
 endfacet
 facet normal -0.63641587836075497 0.63941522092912906 -0.4314197550118235
  outer loop
   vertex 0.044241998344659805 -0.0026940000243484974 -0.011943000368773937
   vertex 0.044024001806974411 -0.0023260000161826611 -0.011075999587774277
   vertex 0.045210998505353928 -0.0015439999988302588 -0.011668000370264053
  endloop
 endfacet
 facet normal -0.49493178937163484 0.57319987020261054 -0.65305775599796845
  outer loop
   vertex 0.044996000826358795 -0.0029019999783486128 -0.012697000056505203
   vertex 0.044241998344659805 -0.0026940000243484974 -0.011943000368773937
   vertex 0.045210998505353928 -0.0015439999988302588 -0.011668000370264053
  endloop
 endfacet
 facet normal -0.64990363412043117 0.2481544698634798 -0.71836246104862134
  outer loop
   vertex 0.044548999518156052 -0.004503999836742878 -0.01284599956125021
   vertex 0.044241998344659805 -0.0026940000243484974 -0.011943000368773937
   vertex 0.044996000826358795 -0.0029019999783486128 -0.012697000056505203
  endloop
 endfacet
 facet normal -0.97360064798249579 -0.054560500591202037 -0.22164144473293299
  outer loop
   vertex 0.044241998344659805 -0.0026940000243484974 -0.011943000368773937
   vertex 0.044548999518156052 -0.004503999836742878 -0.01284599956125021
   vertex 0.044024001806974411 -0.0023260000161826611 -0.011075999587774277
  endloop
 endfacet
 facet normal -0.8343719196937126 0.32388950582882708 0.44600346146704645
  outer loop
   vertex 0.044566001743078232 -0.0063660000450909138 -0.011462000198662281
   vertex 0.044548999518156052 -0.004503999836742878 -0.01284599956125021
   vertex 0.044364001601934433 -0.0057819997891783714 -0.012264000251889229
  endloop
 endfacet
 facet normal -0.92698445086711023 0.21827531738967637 0.30505034612181381
  outer loop
   vertex 0.044548999518156052 -0.004503999836742878 -0.01284599956125021
   vertex 0.044566001743078232 -0.0063660000450909138 -0.011462000198662281
   vertex 0.045209001749753952 -0.0058419997803866863 -0.0098829995840787888
  endloop
 endfacet
 facet normal -0.88520030199531774 -0.40268498487181875 0.23294898219606236
  outer loop
   vertex 0.044548999518156052 -0.004503999836742878 -0.01284599956125021
   vertex 0.045311000198125839 -0.0042659998871386051 -0.0095389997586607933
   vertex 0.044024001806974411 -0.0023260000161826611 -0.011075999587774277
  endloop
 endfacet
 facet normal -0.97459061224660204 0.014282852035080789 0.22353777904089847
  outer loop
   vertex 0.045311000198125839 -0.0042659998871386051 -0.0095389997586607933
   vertex 0.044548999518156052 -0.004503999836742878 -0.01284599956125021
   vertex 0.045209001749753952 -0.0058419997803866863 -0.0098829995840787888
  endloop
 endfacet
 facet normal -0.75189549072200568 0.65318978920065651 0.089421867101486821
  outer loop
   vertex 0.04456000030040741 -0.00648899981752038 -0.010614000260829926
   vertex 0.045209001749753952 -0.0058419997803866863 -0.0098829995840787888
   vertex 0.044566001743078232 -0.0063660000450909138 -0.011462000198662281
  endloop
 endfacet
 facet normal 0.12182369621299993 -0.98336364191479864 -0.13474024937288179
  outer loop
   vertex 0.044511999934911728 -0.0067150001414120197 -0.0090079996734857559
   vertex 0.04456000030040741 -0.00648899981752038 -0.010614000260829926
   vertex 0.047067999839782715 -0.0064199999906122684 -0.0088499998673796654
  endloop
 endfacet
 facet normal -0.99445615580895796 -0.095862596651400386 -0.043212460435855568
  outer loop
   vertex 0.044511999934911728 -0.0067150001414120197 -0.0090079996734857559
   vertex 0.044518999755382538 -0.006372000090777874 -0.0099299997091293335
   vertex 0.04456000030040741 -0.00648899981752038 -0.010614000260829926
  endloop
 endfacet
 facet normal -0.49349127490211442 0.85190145622134994 -0.17530051478369685
  outer loop
   vertex 0.04456000030040741 -0.00648899981752038 -0.010614000260829926
   vertex 0.044518999755382538 -0.006372000090777874 -0.0099299997091293335
   vertex 0.044987998902797699 -0.0059750000946223736 -0.0093210004270076752
  endloop
 endfacet
 facet normal -0.65662195040324067 0.74988489112693568 -0.080748153589961541
  outer loop
   vertex 0.044987998902797699 -0.0059750000946223736 -0.0093210004270076752
   vertex 0.045209001749753952 -0.0058419997803866863 -0.0098829995840787888
   vertex 0.04456000030040741 -0.00648899981752038 -0.010614000260829926
  endloop
 endfacet
 facet normal 0.11638117932204223 -0.99277768635430774 -0.02911849200419311
  outer loop
   vertex 0.047067999839782715 -0.0064199999906122684 -0.0088499998673796654
   vertex 0.045818999409675598 -0.006632000207901001 -0.0066140000708401203
   vertex 0.044511999934911728 -0.0067150001414120197 -0.0090079996734857559
  endloop
 endfacet
 facet normal -0.28965063594600432 -0.70985850755274327 0.64203069112859945
  outer loop
   vertex 0.045818999409675598 -0.006632000207901001 -0.0066140000708401203
   vertex 0.04692399874329567 -0.0057850000448524952 -0.005179000087082386
   vertex 0.044969998300075531 -0.0057419999502599239 -0.0060129999183118343
  endloop
 endfacet
 facet normal -0.24919858864443378 -0.95357323702589136 0.1691098608762531
  outer loop
   vertex 0.045818999409675598 -0.006632000207901001 -0.0066140000708401203
   vertex 0.044642999768257141 -0.0065819998271763325 -0.0080650001764297485
   vertex 0.044511999934911728 -0.0067150001414120197 -0.0090079996734857559
  endloop
 endfacet
 facet normal -0.51779138914591294 -0.75964822294952339 0.39348018335867546
  outer loop
   vertex 0.044642999768257141 -0.0065819998271763325 -0.0080650001764297485
   vertex 0.045818999409675598 -0.006632000207901001 -0.0066140000708401203
   vertex 0.044969998300075531 -0.0057419999502599239 -0.0060129999183118343
  endloop
 endfacet
 facet normal -0.33659979851276634 -0.55602174248684766 0.75996078683248824
  outer loop
   vertex 0.045749999582767487 -0.004749000072479248 -0.0049410001374781132
   vertex 0.044969998300075531 -0.0057419999502599239 -0.0060129999183118343
   vertex 0.04692399874329567 -0.0057850000448524952 -0.005179000087082386
  endloop
 endfacet
 facet normal -0.31697307476986281 -0.53854568360983013 0.78070264283923096
  outer loop
   vertex 0.045749999582767487 -0.004749000072479248 -0.0049410001374781132
   vertex 0.04692399874329567 -0.0057850000448524952 -0.005179000087082386
   vertex 0.046645998954772949 -0.0051139998249709606 -0.0048290002159774303
  endloop
 endfacet
 facet normal 0.62395853869433548 -0.14229112589835161 0.76839376460315512
  outer loop
   vertex 0.04692399874329567 -0.0057850000448524952 -0.005179000087082386
   vertex 0.047527000308036804 -0.0035620001144707203 -0.0052570002153515816
   vertex 0.046645998954772949 -0.0051139998249709606 -0.0048290002159774303
  endloop
 endfacet
 facet normal -0.35162561033180068 0.79506537824005896 0.49419679732145216
  outer loop
   vertex 0.045088998973369598 -0.0014140000566840172 -0.0083499997854232788
   vertex 0.045308001339435577 -0.0026610000059008598 -0.0061880000866949558
   vertex 0.046835001558065414 -0.00228899996727705 -0.0057000000961124897
  endloop
 endfacet
 facet normal -0.37258033017479014 0.5309227503614905 0.76112083844514122
  outer loop
   vertex 0.045878998935222626 -0.0040150000713765621 -0.004964000079780817
   vertex 0.046835001558065414 -0.00228899996727705 -0.0057000000961124897
   vertex 0.045308001339435577 -0.0026610000059008598 -0.0061880000866949558
  endloop
 endfacet
 facet normal 0.066496837689680371 0.35998772805130419 0.93058422844454691
  outer loop
   vertex 0.047527000308036804 -0.0035620001144707203 -0.0052570002153515816
   vertex 0.046835001558065414 -0.00228899996727705 -0.0057000000961124897
   vertex 0.045878998935222626 -0.0040150000713765621 -0.004964000079780817
  endloop
 endfacet
 facet normal -0.89555556407628134 0.34011221731208746 0.28688658261945454
  outer loop
   vertex 0.045308001339435577 -0.0026610000059008598 -0.0061880000866949558
   vertex 0.045088998973369598 -0.0014140000566840172 -0.0083499997854232788
   vertex 0.044578000903129578 -0.0015279999934136868 -0.0098099997267127037
  endloop
 endfacet
 facet normal 0.11751034690811292 0.20146251120536504 0.9724218091694381
  outer loop
   vertex 0.046645998954772949 -0.0051139998249709606 -0.0048290002159774303
   vertex 0.047527000308036804 -0.0035620001144707203 -0.0052570002153515816
   vertex 0.045878998935222626 -0.0040150000713765621 -0.004964000079780817
  endloop
 endfacet
 facet normal -0.93619578546759497 0.23431318902002349 0.26198240537100903
  outer loop
   vertex 0.044578000903129578 -0.0015279999934136868 -0.0098099997267127037
   vertex 0.044024001806974411 -0.0023260000161826611 -0.011075999587774277
   vertex 0.045308001339435577 -0.0026610000059008598 -0.0061880000866949558
  endloop
 endfacet
 facet normal -0.882324270030165 -0.42477355357180524 0.20266058003893381
  outer loop
   vertex 0.045308001339435577 -0.0026610000059008598 -0.0061880000866949558
   vertex 0.044024001806974411 -0.0023260000161826611 -0.011075999587774277
   vertex 0.045311000198125839 -0.0042659998871386051 -0.0095389997586607933
  endloop
 endfacet
 facet normal -0.97679083563168223 0.016605154225187817 0.2135507721342112
  outer loop
   vertex 0.045311000198125839 -0.0042659998871386051 -0.0095389997586607933
   vertex 0.045209001749753952 -0.0058419997803866863 -0.0098829995840787888
   vertex 0.045334000140428543 -0.0054979999549686909 -0.0093379998579621315
  endloop
 endfacet
 facet normal -0.79946103344160979 0.57353760638767992 -0.1786523721296864
  outer loop
   vertex 0.044987998902797699 -0.0059750000946223736 -0.0093210004270076752
   vertex 0.045334000140428543 -0.0054979999549686909 -0.0093379998579621315
   vertex 0.045209001749753952 -0.0058419997803866863 -0.0098829995840787888
  endloop
 endfacet
 facet normal -0.9998199259633388 -0.017447976356979818 0.0074621557012717046
  outer loop
   vertex 0.045308001339435577 -0.0026610000059008598 -0.0061880000866949558
   vertex 0.045311000198125839 -0.0042659998871386051 -0.0095389997586607933
   vertex 0.045334000140428543 -0.0054979999549686909 -0.0093379998579621315
  endloop
 endfacet
 facet normal -0.99681259391012578 0.076949239893324375 0.021058658599403583
  outer loop
   vertex 0.044518999755382538 -0.006372000090777874 -0.0099299997091293335
   vertex 0.044511999934911728 -0.0067150001414120197 -0.0090079996734857559
   vertex 0.044541001319885254 -0.0064599998295307159 -0.0085669998079538345
  endloop
 endfacet
 facet normal -0.97385638711135669 -0.16295543172895566 0.15826959452922471
  outer loop
   vertex 0.044642999768257141 -0.0065819998271763325 -0.0080650001764297485
   vertex 0.044541001319885254 -0.0064599998295307159 -0.0085669998079538345
   vertex 0.044511999934911728 -0.0067150001414120197 -0.0090079996734857559
  endloop
 endfacet
 facet normal -0.68768708042959781 0.72370071997904617 0.057825144288845935
  outer loop
   vertex 0.044518999755382538 -0.006372000090777874 -0.0099299997091293335
   vertex 0.044541001319885254 -0.0064599998295307159 -0.0085669998079538345
   vertex 0.044987998902797699 -0.0059750000946223736 -0.0093210004270076752
  endloop
 endfacet
 facet normal -0.7941234295295394 0.58224253292016148 0.17424583648098263
  outer loop
   vertex 0.04526200145483017 -0.0057999999262392521 -0.0086570000275969505
   vertex 0.045334000140428543 -0.0054979999549686909 -0.0093379998579621315
   vertex 0.044987998902797699 -0.0059750000946223736 -0.0093210004270076752
  endloop
 endfacet
 facet normal -0.66755200238616341 0.74021147271503318 0.080382210539802171
  outer loop
   vertex 0.04526200145483017 -0.0057999999262392521 -0.0086570000275969505
   vertex 0.044987998902797699 -0.0059750000946223736 -0.0093210004270076752
   vertex 0.044541001319885254 -0.0064599998295307159 -0.0085669998079538345
  endloop
 endfacet
 facet normal -0.84078395372022152 0.12219494445816512 0.52739997982125331
  outer loop
   vertex 0.044969998300075531 -0.0057419999502599239 -0.0060129999183118343
   vertex 0.045878998935222626 -0.0040150000713765621 -0.004964000079780817
   vertex 0.045308001339435577 -0.0026610000059008598 -0.0061880000866949558
  endloop
 endfacet
 facet normal -0.86435132547438276 0.16677466439519459 0.47442912797018244
  outer loop
   vertex 0.044969998300075531 -0.0057419999502599239 -0.0060129999183118343
   vertex 0.045749999582767487 -0.004749000072479248 -0.0049410001374781132
   vertex 0.045878998935222626 -0.0040150000713765621 -0.004964000079780817
  endloop
 endfacet
 facet normal -0.98957891264994802 0.10283770747766229 -0.10078681242744572
  outer loop
   vertex 0.045334000140428543 -0.0054979999549686909 -0.0093379998579621315
   vertex 0.044969998300075531 -0.0057419999502599239 -0.0060129999183118343
   vertex 0.045308001339435577 -0.0026610000059008598 -0.0061880000866949558
  endloop
 endfacet
 facet normal -0.81628846052414206 0.56845592080339902 -0.10262073532520494
  outer loop
   vertex 0.04526200145483017 -0.0057999999262392521 -0.0086570000275969505
   vertex 0.044642999768257141 -0.0065819998271763325 -0.0080650001764297485
   vertex 0.044969998300075531 -0.0057419999502599239 -0.0060129999183118343
  endloop
 endfacet
 facet normal -0.99393042385751107 -0.010069427044132993 -0.10954870683596064
  outer loop
   vertex 0.045334000140428543 -0.0054979999549686909 -0.0093379998579621315
   vertex 0.04526200145483017 -0.0057999999262392521 -0.0086570000275969505
   vertex 0.044969998300075531 -0.0057419999502599239 -0.0060129999183118343
  endloop
 endfacet
 facet normal -0.62291662528985625 0.72166478494652297 0.30195167842816428
  outer loop
   vertex 0.044642999768257141 -0.0065819998271763325 -0.0080650001764297485
   vertex 0.04526200145483017 -0.0057999999262392521 -0.0086570000275969505
   vertex 0.044541001319885254 -0.0064599998295307159 -0.0085669998079538345
  endloop
 endfacet
 facet normal -0.10403962157210407 0.049411336927255127 0.99334499391006881
  outer loop
   vertex 0.045878998935222626 -0.0040150000713765621 -0.004964000079780817
   vertex 0.045749999582767487 -0.004749000072479248 -0.0049410001374781132
   vertex 0.046645998954772949 -0.0051139998249709606 -0.0048290002159774303
  endloop
 endfacet
endsolid
