solid Visualization Toolkit generated SLA File
 facet normal 0.11983832058561725 0.24985319014423429 -0.96083929993207906
  outer loop
   vertex 0.038869000971317291 -0.0037879999727010727 0.020511999726295471
   vertex 0.036481998860836029 -0.0017740000039339066 0.020738000050187111
   vertex 0.039319999516010284 -0.0034890000242739916 0.020646000280976295
  endloop
 endfacet
 facet normal 0.29976306436890837 0.44969546587700615 -0.84137749744679058
  outer loop
   vertex 0.037689000368118286 -0.0029639999847859144 0.020532000809907913
   vertex 0.036481998860836029 -0.0017740000039339066 0.020738000050187111
   vertex 0.038869000971317291 -0.0037879999727010727 0.020511999726295471
  endloop
 endfacet
 facet normal 0.54922058063131041 -0.54419700205071964 -0.63419742728113904
  outer loop
   vertex 0.039319999516010284 -0.0034890000242739916 0.020646000280976295
   vertex 0.039976999163627625 -0.0035240000579506159 0.021245000883936882
   vertex 0.038869000971317291 -0.0037879999727010727 0.020511999726295471
  endloop
 endfacet
 facet normal -0.49594232937633792 -0.69765926769728237 -0.51702297060078839
  outer loop
   vertex 0.038869000971317291 -0.0037879999727010727 0.020511999726295471
   vertex 0.037039998918771744 -0.0028679999522864819 0.021025000140070915
   vertex 0.037689000368118286 -0.0029639999847859144 0.020532000809907913
  endloop
 endfacet
 facet normal -0.39370900682758347 -0.90279362358770365 -0.17308059149489102
  outer loop
   vertex 0.038554999977350235 -0.0043330001644790173 0.024069000035524368
   vertex 0.035790998488664627 -0.0037020000163465738 0.02706499956548214
   vertex 0.038869000971317291 -0.0037879999727010727 0.020511999726295471
  endloop
 endfacet
 facet normal -0.4866003553062585 -0.84612819192287747 -0.21745614971562668
  outer loop
   vertex 0.035790998488664627 -0.0037020000163465738 0.02706499956548214
   vertex 0.037039998918771744 -0.0028679999522864819 0.021025000140070915
   vertex 0.038869000971317291 -0.0037879999727010727 0.020511999726295471
  endloop
 endfacet
 facet normal 0.30340671456014262 -0.94551561615762114 -0.11808719304773932
  outer loop
   vertex 0.038869000971317291 -0.0037879999727010727 0.020511999726295471
   vertex 0.039976999163627625 -0.0035240000579506159 0.021245000883936882
   vertex 0.038554999977350235 -0.0043330001644790173 0.024069000035524368
  endloop
 endfacet
 facet normal -0.50770838759969206 0.4649640404573267 -0.72528658766208975
  outer loop
   vertex 0.034616999328136444 -0.00088100001448765397 0.022616000846028328
   vertex 0.036766000092029572 -0.00058100000023841858 0.021304000169038773
   vertex 0.036481998860836029 -0.0017740000039339066 0.020738000050187111
  endloop
 endfacet
 facet normal -0.65795457593887119 -0.081692375331900074 -0.74861347290422975
  outer loop
   vertex 0.03669000044465065 -0.0026519999373704195 0.020650999620556831
   vertex 0.036221999675035477 -0.0027590000536292791 0.021074000746011734
   vertex 0.036481998860836029 -0.0017740000039339066 0.020738000050187111
  endloop
 endfacet
 facet normal -0.094513337734906097 0.075967564692570988 -0.99262085314831439
  outer loop
   vertex 0.03669000044465065 -0.0026519999373704195 0.020650999620556831
   vertex 0.036481998860836029 -0.0017740000039339066 0.020738000050187111
   vertex 0.037689000368118286 -0.0029639999847859144 0.020532000809907913
  endloop
 endfacet
 facet normal 0.20068122879587946 0.3805160761642174 -0.90273725977693164
  outer loop
   vertex 0.036766000092029572 -0.00058100000023841858 0.021304000169038773
   vertex 0.039319999516010284 -0.0034890000242739916 0.020646000280976295
   vertex 0.036481998860836029 -0.0017740000039339066 0.020738000050187111
  endloop
 endfacet
 facet normal -0.39085237469637835 0.61809238152258039 -0.68205295182848291
  outer loop
   vertex 0.036481998860836029 -0.0017740000039339066 0.020738000050187111
   vertex 0.034513998776674271 -0.0022670000325888395 0.021418999880552292
   vertex 0.034616999328136444 -0.00088100001448765397 0.022616000846028328
  endloop
 endfacet
 facet normal -0.26026933331501706 -0.24947673352620178 -0.9327492876249508
  outer loop
   vertex 0.034513998776674271 -0.0022670000325888395 0.021418999880552292
   vertex 0.036481998860836029 -0.0017740000039339066 0.020738000050187111
   vertex 0.036221999675035477 -0.0027590000536292791 0.021074000746011734
  endloop
 endfacet
 facet normal 0.29351180537932059 0.44877141554543704 -0.84407051642165332
  outer loop
   vertex 0.036766000092029572 -0.00058100000023841858 0.021304000169038773
   vertex 0.039739001542329788 -0.001095999963581562 0.022064000368118286
   vertex 0.039319999516010284 -0.0034890000242739916 0.020646000280976295
  endloop
 endfacet
 facet normal 0.65155816905977315 0.29903374543534816 -0.69717341560216095
  outer loop
   vertex 0.039739001542329788 -0.001095999963581562 0.022064000368118286
   vertex 0.039976999163627625 -0.0035240000579506159 0.021245000883936882
   vertex 0.039319999516010284 -0.0034890000242739916 0.020646000280976295
  endloop
 endfacet
 facet normal -0.31519167504304485 -0.9192340397615214 -0.23593004922492025
  outer loop
   vertex 0.037689000368118286 -0.0029639999847859144 0.020532000809907913
   vertex 0.037039998918771744 -0.0028679999522864819 0.021025000140070915
   vertex 0.03669000044465065 -0.0026519999373704195 0.020650999620556831
  endloop
 endfacet
 facet normal 0.59611592782832956 -0.79974740524354626 0.0710625667674947
  outer loop
   vertex 0.039737001061439514 -0.0034030000679194927 0.024620000272989273
   vertex 0.038554999977350235 -0.0043330001644790173 0.024069000035524368
   vertex 0.039976999163627625 -0.0035240000579506159 0.021245000883936882
  endloop
 endfacet
 facet normal 0.91845755627614623 -0.38750780650176569 0.079204906536399694
  outer loop
   vertex 0.039976999163627625 -0.0035240000579506159 0.021245000883936882
   vertex 0.0404059998691082 -0.0023119999095797539 0.022199999541044235
   vertex 0.039737001061439514 -0.0034030000679194927 0.024620000272989273
  endloop
 endfacet
 facet normal 0.67475630958022692 0.29442531473499056 -0.67677001760189892
  outer loop
   vertex 0.039976999163627625 -0.0035240000579506159 0.021245000883936882
   vertex 0.039739001542329788 -0.001095999963581562 0.022064000368118286
   vertex 0.0404059998691082 -0.0023119999095797539 0.022199999541044235
  endloop
 endfacet
 facet normal -0.14454123415427542 -0.90941722845923878 -0.38995914684832789
  outer loop
   vertex 0.037039998918771744 -0.0028679999522864819 0.021025000140070915
   vertex 0.036221999675035477 -0.0027590000536292791 0.021074000746011734
   vertex 0.03669000044465065 -0.0026519999373704195 0.020650999620556831
  endloop
 endfacet
 facet normal 0.2387445365041676 -0.9674241079549234 -0.08421188536679769
  outer loop
   vertex 0.037039998918771744 -0.0028679999522864819 0.021025000140070915
   vertex 0.035790998488664627 -0.0037020000163465738 0.02706499956548214
   vertex 0.03426399827003479 -0.0038169999606907368 0.024057000875473022
  endloop
 endfacet
 facet normal -0.14455708724778329 -0.89886702215498326 -0.41369230716641264
  outer loop
   vertex 0.03426399827003479 -0.0038169999606907368 0.024057000875473022
   vertex 0.036221999675035477 -0.0027590000536292791 0.021074000746011734
   vertex 0.037039998918771744 -0.0028679999522864819 0.021025000140070915
  endloop
 endfacet
 facet normal -0.24511728482554979 -0.95880632766237361 -0.14355466803396968
  outer loop
   vertex 0.038554999977350235 -0.0043330001644790173 0.024069000035524368
   vertex 0.038217999041080475 -0.0048110000789165497 0.027837000787258148
   vertex 0.037478998303413391 -0.0046359999105334282 0.027930000796914101
  endloop
 endfacet
 facet normal -0.40270577279580028 -0.89692776410788155 -0.18261611793424318
  outer loop
   vertex 0.038554999977350235 -0.0043330001644790173 0.024069000035524368
   vertex 0.037478998303413391 -0.0046359999105334282 0.027930000796914101
   vertex 0.035790998488664627 -0.0037020000163465738 0.02706499956548214
  endloop
 endfacet
 facet normal 0.14969476968234433 -0.98245424787665603 -0.11124354704370053
  outer loop
   vertex 0.039287000894546509 -0.0044339997693896294 0.025946000590920448
   vertex 0.038217999041080475 -0.0048110000789165497 0.027837000787258148
   vertex 0.038554999977350235 -0.0043330001644790173 0.024069000035524368
  endloop
 endfacet
 facet normal 0.67222355070027173 -0.67745669432744426 -0.29860998843784703
  outer loop
   vertex 0.038554999977350235 -0.0043330001644790173 0.024069000035524368
   vertex 0.039737001061439514 -0.0034030000679194927 0.024620000272989273
   vertex 0.039287000894546509 -0.0044339997693896294 0.025946000590920448
  endloop
 endfacet
 facet normal 0.15180443168227037 -0.98762875814328643 -0.039304587645373597
  outer loop
   vertex 0.035790998488664627 -0.0037020000163465738 0.02706499956548214
   vertex 0.031771000474691391 -0.0042920000851154327 0.026364000514149666
   vertex 0.03426399827003479 -0.0038169999606907368 0.024057000875473022
  endloop
 endfacet
 facet normal -0.17061310774186694 -0.0081912700739316269 0.98530404980454533
  outer loop
   vertex 0.035790998488664627 -0.0037020000163465738 0.02706499956548214
   vertex 0.032623998820781708 -0.0024520000442862511 0.026527000591158867
   vertex 0.031771000474691391 -0.0042920000851154327 0.026364000514149666
  endloop
 endfacet
 facet normal -0.56152473247514212 -0.30100206022819209 0.77077087033508462
  outer loop
   vertex 0.035790998488664627 -0.0037020000163465738 0.02706499956548214
   vertex 0.037478998303413391 -0.0046359999105334282 0.027930000796914101
   vertex 0.037133000791072845 -0.0042209997773170471 0.02783999964594841
  endloop
 endfacet
 facet normal -0.36973750644963083 -0.92895914489319331 0.01814065720188968
  outer loop
   vertex 0.035790998488664627 -0.0037020000163465738 0.02706499956548214
   vertex 0.037133000791072845 -0.0042209997773170471 0.02783999964594841
   vertex 0.032623998820781708 -0.0024520000442862511 0.026527000591158867
  endloop
 endfacet
 facet normal 0.16065872422170205 0.97526541412979961 0.15180957260227523
  outer loop
   vertex 0.031045999377965927 -0.00061899999855086207 0.024712000042200089
   vertex 0.035486001521348953 -0.0016580000519752502 0.026688000187277794
   vertex 0.034616999328136444 -0.00088100001448765397 0.022616000846028328
  endloop
 endfacet
 facet normal 0.089887396777351539 0.64713972028782785 -0.75705378826499703
  outer loop
   vertex 0.034513998776674271 -0.0022670000325888395 0.021418999880552292
   vertex 0.03110400028526783 -0.00068200001260265708 0.022368999198079109
   vertex 0.034616999328136444 -0.00088100001448765397 0.022616000846028328
  endloop
 endfacet
 facet normal -0.020058025398838199 0.98128287138850723 0.19152441603259338
  outer loop
   vertex 0.036766000092029572 -0.00058100000023841858 0.021304000169038773
   vertex 0.034616999328136444 -0.00088100001448765397 0.022616000846028328
   vertex 0.035486001521348953 -0.0016580000519752502 0.026688000187277794
  endloop
 endfacet
 facet normal 0.058317282314499751 0.99797515822100635 -0.025390513134007146
  outer loop
   vertex 0.034616999328136444 -0.00088100001448765397 0.022616000846028328
   vertex 0.03110400028526783 -0.00068200001260265708 0.022368999198079109
   vertex 0.031045999377965927 -0.00061899999855086207 0.024712000042200089
  endloop
 endfacet
 facet normal 0.025946075106231266 0.97903916469881591 0.20201266092110773
  outer loop
   vertex 0.039329998195171356 -0.00145800004247576 0.025225000455975533
   vertex 0.036766000092029572 -0.00058100000023841858 0.021304000169038773
   vertex 0.035486001521348953 -0.0016580000519752502 0.026688000187277794
  endloop
 endfacet
 facet normal 0.13683380954108409 0.98200488866762492 0.13016492307591881
  outer loop
   vertex 0.039739001542329788 -0.001095999963581562 0.022064000368118286
   vertex 0.036766000092029572 -0.00058100000023841858 0.021304000169038773
   vertex 0.039329998195171356 -0.00145800004247576 0.025225000455975533
  endloop
 endfacet
 facet normal -0.22708350065117106 -0.1097853538388283 -0.96766743244489362
  outer loop
   vertex 0.034513998776674271 -0.0022670000325888395 0.021418999880552292
   vertex 0.036221999675035477 -0.0027590000536292791 0.021074000746011734
   vertex 0.035468000918626785 -0.0030680000782012939 0.021285999566316605
  endloop
 endfacet
 facet normal 0.35373872759762687 -0.93022362459574925 -0.097739044611446113
  outer loop
   vertex 0.036221999675035477 -0.0027590000536292791 0.021074000746011734
   vertex 0.03426399827003479 -0.0038169999606907368 0.024057000875473022
   vertex 0.035468000918626785 -0.0030680000782012939 0.021285999566316605
  endloop
 endfacet
 facet normal 0.24323504498517584 -0.0066523764642340329 -0.96994456479658542
  outer loop
   vertex 0.033578000962734222 -0.0032470000442117453 0.021190999075770378
   vertex 0.031619001179933548 -0.002119000069797039 0.020692000165581703
   vertex 0.034513998776674271 -0.0022670000325888395 0.021418999880552292
  endloop
 endfacet
 facet normal 0.19126103344762974 0.77358515652019411 -0.60414006877227688
  outer loop
   vertex 0.034513998776674271 -0.0022670000325888395 0.021418999880552292
   vertex 0.031619001179933548 -0.002119000069797039 0.020692000165581703
   vertex 0.03110400028526783 -0.00068200001260265708 0.022368999198079109
  endloop
 endfacet
 facet normal 0.03040345823100821 0.1988592467851458 -0.97955634329814834
  outer loop
   vertex 0.035468000918626785 -0.0030680000782012939 0.021285999566316605
   vertex 0.033578000962734222 -0.0032470000442117453 0.021190999075770378
   vertex 0.034513998776674271 -0.0022670000325888395 0.021418999880552292
  endloop
 endfacet
 facet normal 0.8565035602614548 0.48845885998223287 0.16676208611165119
  outer loop
   vertex 0.039329998195171356 -0.00145800004247576 0.025225000455975533
   vertex 0.0404059998691082 -0.0023119999095797539 0.022199999541044235
   vertex 0.039739001542329788 -0.001095999963581562 0.022064000368118286
  endloop
 endfacet
 facet normal 0.89993405316386987 0.28968465347993466 -0.3258857184570369
  outer loop
   vertex 0.039737001061439514 -0.0034030000679194927 0.024620000272989273
   vertex 0.039329998195171356 -0.00145800004247576 0.025225000455975533
   vertex 0.04008600115776062 -0.0028919999022036791 0.026038000360131264
  endloop
 endfacet
 facet normal 0.94599675840624542 0.10226838446321554 0.3076220255836043
  outer loop
   vertex 0.039329998195171356 -0.00145800004247576 0.025225000455975533
   vertex 0.039737001061439514 -0.0034030000679194927 0.024620000272989273
   vertex 0.0404059998691082 -0.0023119999095797539 0.022199999541044235
  endloop
 endfacet
 facet normal 0.88790455752450925 -0.45685972172899181 -0.05389518892177244
  outer loop
   vertex 0.04008600115776062 -0.0028919999022036791 0.026038000360131264
   vertex 0.039287000894546509 -0.0044339997693896294 0.025946000590920448
   vertex 0.039737001061439514 -0.0034030000679194927 0.024620000272989273
  endloop
 endfacet
 facet normal 0.30279356561896309 -0.94497321044406501 -0.12386156854646811
  outer loop
   vertex 0.035468000918626785 -0.0030680000782012939 0.021285999566316605
   vertex 0.03426399827003479 -0.0038169999606907368 0.024057000875473022
   vertex 0.034209001809358597 -0.0035109999589622021 0.021587999537587166
  endloop
 endfacet
 facet normal 0.18587505723757963 -0.98237986499700514 -0.01950035757088539
  outer loop
   vertex 0.03426399827003479 -0.0038169999606907368 0.024057000875473022
   vertex 0.031062999740242958 -0.0044700000435113907 0.026442000642418861
   vertex 0.032536998391151428 -0.0040859999135136604 0.021146999672055244
  endloop
 endfacet
 facet normal 0.2506528618532658 -0.96538895141108783 0.072092408325480126
  outer loop
   vertex 0.03426399827003479 -0.0038169999606907368 0.024057000875473022
   vertex 0.031771000474691391 -0.0042920000851154327 0.026364000514149666
   vertex 0.031062999740242958 -0.0044700000435113907 0.026442000642418861
  endloop
 endfacet
 facet normal 0.35156442442957675 -0.92806770540339156 -0.12285271532523875
  outer loop
   vertex 0.032536998391151428 -0.0040859999135136604 0.021146999672055244
   vertex 0.034209001809358597 -0.0035109999589622021 0.021587999537587166
   vertex 0.03426399827003479 -0.0038169999606907368 0.024057000875473022
  endloop
 endfacet
 facet normal 0.51215036151442717 -0.85047612181369736 0.11996821839710166
  outer loop
   vertex 0.03931799903512001 -0.0042059998959302902 0.027429999783635139
   vertex 0.038217999041080475 -0.0048110000789165497 0.027837000787258148
   vertex 0.039287000894546509 -0.0044339997693896294 0.025946000590920448
  endloop
 endfacet
 facet normal 0.5431422858770365 -0.57750824254529642 0.60949215506396048
  outer loop
   vertex 0.03931799903512001 -0.0042059998959302902 0.027429999783635139
   vertex 0.038807999342679977 -0.0042539997957646847 0.027838999405503273
   vertex 0.038217999041080475 -0.0048110000789165497 0.027837000787258148
  endloop
 endfacet
 facet normal 0.098850260941914098 -0.10825615583297264 0.98919625486350404
  outer loop
   vertex 0.038217999041080475 -0.0048110000789165497 0.027837000787258148
   vertex 0.038807999342679977 -0.0042539997957646847 0.027838999405503273
   vertex 0.037478998303413391 -0.0046359999105334282 0.027930000796914101
  endloop
 endfacet
 facet normal 0.089921123831416622 0.28211493632229184 0.95515724055925166
  outer loop
   vertex 0.037478998303413391 -0.0046359999105334282 0.027930000796914101
   vertex 0.037686999887228012 -0.003777999896556139 0.027657000347971916
   vertex 0.037133000791072845 -0.0042209997773170471 0.02783999964594841
  endloop
 endfacet
 facet normal -0.023493895520516429 0.30828787547568459 0.95100295620358599
  outer loop
   vertex 0.038807999342679977 -0.0042539997957646847 0.027838999405503273
   vertex 0.037686999887228012 -0.003777999896556139 0.027657000347971916
   vertex 0.037478998303413391 -0.0046359999105334282 0.027930000796914101
  endloop
 endfacet
 facet normal 0.87991359703695882 -0.46244275290914666 0.1090814467784991
  outer loop
   vertex 0.039287000894546509 -0.0044339997693896294 0.025946000590920448
   vertex 0.04008600115776062 -0.0028919999022036791 0.026038000360131264
   vertex 0.039540998637676239 -0.0036200000904500484 0.027348000556230545
  endloop
 endfacet
 facet normal 0.93565191682952709 -0.35124170909075819 0.034420231379739964
  outer loop
   vertex 0.03931799903512001 -0.0042059998959302902 0.027429999783635139
   vertex 0.039287000894546509 -0.0044339997693896294 0.025946000590920448
   vertex 0.039540998637676239 -0.0036200000904500484 0.027348000556230545
  endloop
 endfacet
 facet normal 0.10179704898527868 0.030816345044640769 0.99432776974998471
  outer loop
   vertex 0.031062999740242958 -0.0044700000435113907 0.026442000642418861
   vertex 0.031771000474691391 -0.0042920000851154327 0.026364000514149666
   vertex 0.031259998679161072 -0.0037010000087320805 0.026397999376058578
  endloop
 endfacet
 facet normal -0.023307388900726658 -0.077491498532356734 0.99672053920737491
  outer loop
   vertex 0.032623998820781708 -0.0024520000442862511 0.026527000591158867
   vertex 0.031259998679161072 -0.0037010000087320805 0.026397999376058578
   vertex 0.031771000474691391 -0.0042920000851154327 0.026364000514149666
  endloop
 endfacet
 facet normal -0.16964440714786699 0.43186776934562704 0.88583915296394578
  outer loop
   vertex 0.032623998820781708 -0.0024520000442862511 0.026527000591158867
   vertex 0.035486001521348953 -0.0016580000519752502 0.026688000187277794
   vertex 0.032648999243974686 -0.0013530000578612089 0.025995999574661255
  endloop
 endfacet
 facet normal -0.19664110357232964 0.54330258330887549 0.81618293253152419
  outer loop
   vertex 0.032623998820781708 -0.0024520000442862511 0.026527000591158867
   vertex 0.035987000912427902 -0.0030239999759942293 0.027718000113964081
   vertex 0.035486001521348953 -0.0016580000519752502 0.026688000187277794
  endloop
 endfacet
 facet normal -0.24507400009347768 0.16903877178079038 0.95465419294790921
  outer loop
   vertex 0.032085999846458435 -0.0019499999471008778 0.02630000002682209
   vertex 0.031259998679161072 -0.0037010000087320805 0.026397999376058578
   vertex 0.032623998820781708 -0.0024520000442862511 0.026527000591158867
  endloop
 endfacet
 facet normal 0.025481306924488672 0.43443630861330973 0.90034204431197207
  outer loop
   vertex 0.032085999846458435 -0.0019499999471008778 0.02630000002682209
   vertex 0.032623998820781708 -0.0024520000442862511 0.026527000591158867
   vertex 0.032648999243974686 -0.0013530000578612089 0.025995999574661255
  endloop
 endfacet
 facet normal -0.3609939623119327 -0.25416305431877351 0.89726501157332728
  outer loop
   vertex 0.037133000791072845 -0.0042209997773170471 0.02783999964594841
   vertex 0.035987000912427902 -0.0030239999759942293 0.027718000113964081
   vertex 0.032623998820781708 -0.0024520000442862511 0.026527000591158867
  endloop
 endfacet
 facet normal -0.037368315094192465 0.065852339993922468 0.99712941905469121
  outer loop
   vertex 0.036791000515222549 -0.0032339999452233315 0.027761999517679214
   vertex 0.035987000912427902 -0.0030239999759942293 0.027718000113964081
   vertex 0.037133000791072845 -0.0042209997773170471 0.02783999964594841
  endloop
 endfacet
 facet normal 0.20252708946103265 0.14669320137266717 0.96822718548152797
  outer loop
   vertex 0.037686999887228012 -0.003777999896556139 0.027657000347971916
   vertex 0.036791000515222549 -0.0032339999452233315 0.027761999517679214
   vertex 0.037133000791072845 -0.0042209997773170471 0.02783999964594841
  endloop
 endfacet
 facet normal 0.087208646271663026 0.90785967669305101 0.41010420559932448
  outer loop
   vertex 0.029443999752402306 -0.00078900001244619489 0.025428999215364456
   vertex 0.032648999243974686 -0.0013530000578612089 0.025995999574661255
   vertex 0.031045999377965927 -0.00061899999855086207 0.024712000042200089
  endloop
 endfacet
 facet normal 0.14151485328436028 0.98966640211157519 -0.023107549230415282
  outer loop
   vertex 0.028706999495625496 -0.00035899999784305692 0.021523000672459602
   vertex 0.031045999377965927 -0.00061899999855086207 0.024712000042200089
   vertex 0.03110400028526783 -0.00068200001260265708 0.022368999198079109
  endloop
 endfacet
 facet normal -0.051975892308931862 0.99153740755213238 0.11896249847530471
  outer loop
   vertex 0.028706999495625496 -0.00035899999784305692 0.021523000672459602
   vertex 0.029443999752402306 -0.00078900001244619489 0.025428999215364456
   vertex 0.031045999377965927 -0.00061899999855086207 0.024712000042200089
  endloop
 endfacet
 facet normal -0.038832429588250672 0.84584727789210601 0.53200979774322577
  outer loop
   vertex 0.032648999243974686 -0.0013530000578612089 0.025995999574661255
   vertex 0.035486001521348953 -0.0016580000519752502 0.026688000187277794
   vertex 0.031045999377965927 -0.00061899999855086207 0.024712000042200089
  endloop
 endfacet
 facet normal -0.041490769606551105 0.99875981680348558 0.027519890554357173
  outer loop
   vertex 0.03699599951505661 -0.001614999957382679 0.027403999119997025
   vertex 0.039329998195171356 -0.00145800004247576 0.025225000455975533
   vertex 0.035486001521348953 -0.0016580000519752502 0.026688000187277794
  endloop
 endfacet
 facet normal -0.78464670002844294 0.1631877881210464 0.59807967859026534
  outer loop
   vertex 0.035987000912427902 -0.0030239999759942293 0.027718000113964081
   vertex 0.036060001701116562 -0.0019399999873712659 0.027518000453710556
   vertex 0.035486001521348953 -0.0016580000519752502 0.026688000187277794
  endloop
 endfacet
 facet normal -0.24138479659315773 0.85572641826484008 0.45767420405492359
  outer loop
   vertex 0.035486001521348953 -0.0016580000519752502 0.026688000187277794
   vertex 0.036060001701116562 -0.0019399999873712659 0.027518000453710556
   vertex 0.03699599951505661 -0.001614999957382679 0.027403999119997025
  endloop
 endfacet
 facet normal 0.62099059847707405 0.67917388373656418 -0.39127166042696893
  outer loop
   vertex 0.029881000518798828 -0.0010720000136643648 0.019750999286770821
   vertex 0.03110400028526783 -0.00068200001260265708 0.022368999198079109
   vertex 0.031619001179933548 -0.002119000069797039 0.020692000165581703
  endloop
 endfacet
 facet normal 0.21245800384735075 0.94715127053841286 -0.24034572456914927
  outer loop
   vertex 0.03110400028526783 -0.00068200001260265708 0.022368999198079109
   vertex 0.029881000518798828 -0.0010720000136643648 0.019750999286770821
   vertex 0.028706999495625496 -0.00035899999784305692 0.021523000672459602
  endloop
 endfacet
 facet normal 0.21610836268183289 0.9296329586002372 0.29846228884592235
  outer loop
   vertex 0.03699599951505661 -0.001614999957382679 0.027403999119997025
   vertex 0.039492998272180557 -0.0021379999816417694 0.027225000783801079
   vertex 0.039329998195171356 -0.00145800004247576 0.025225000455975533
  endloop
 endfacet
 facet normal 0.85445148978711605 0.50912449900128431 0.1034644678972881
  outer loop
   vertex 0.039329998195171356 -0.00145800004247576 0.025225000455975533
   vertex 0.039492998272180557 -0.0021379999816417694 0.027225000783801079
   vertex 0.04008600115776062 -0.0028919999022036791 0.026038000360131264
  endloop
 endfacet
 facet normal 0.10365529817584002 -0.74432844217768823 -0.65972020533360465
  outer loop
   vertex 0.034209001809358597 -0.0035109999589622021 0.021587999537587166
   vertex 0.033578000962734222 -0.0032470000442117453 0.021190999075770378
   vertex 0.035468000918626785 -0.0030680000782012939 0.021285999566316605
  endloop
 endfacet
 facet normal 0.3605056370806462 -0.40319293912124937 -0.84111303608721089
  outer loop
   vertex 0.034209001809358597 -0.0035109999589622021 0.021587999537587166
   vertex 0.032536998391151428 -0.0040859999135136604 0.021146999672055244
   vertex 0.033578000962734222 -0.0032470000442117453 0.021190999075770378
  endloop
 endfacet
 facet normal 0.2364876048037495 -0.24410495529629397 -0.94047136244224894
  outer loop
   vertex 0.032570000737905502 -0.0034529999829828739 0.020990999415516853
   vertex 0.033578000962734222 -0.0032470000442117453 0.021190999075770378
   vertex 0.032536998391151428 -0.0040859999135136604 0.021146999672055244
  endloop
 endfacet
 facet normal 0.20796111540188605 -0.070414197498261513 -0.97559931081949802
  outer loop
   vertex 0.033578000962734222 -0.0032470000442117453 0.021190999075770378
   vertex 0.032570000737905502 -0.0034529999829828739 0.020990999415516853
   vertex 0.031619001179933548 -0.002119000069797039 0.020692000165581703
  endloop
 endfacet
 facet normal 0.62247028596460285 0.47261439735450766 -0.62383200823970308
  outer loop
   vertex 0.031619001179933548 -0.002119000069797039 0.020692000165581703
   vertex 0.031396001577377319 -0.0035319998860359192 0.019399000331759453
   vertex 0.029881000518798828 -0.0010720000136643648 0.019750999286770821
  endloop
 endfacet
 facet normal 0.76177816417926736 0.36779536217063924 -0.53331097883451972
  outer loop
   vertex 0.032203998416662216 -0.0034799999557435513 0.02058899961411953
   vertex 0.031396001577377319 -0.0035319998860359192 0.019399000331759453
   vertex 0.031619001179933548 -0.002119000069797039 0.020692000165581703
  endloop
 endfacet
 facet normal 0.6831633433112676 0.34245627380256116 -0.64498957114750055
  outer loop
   vertex 0.032570000737905502 -0.0034529999829828739 0.020990999415516853
   vertex 0.032203998416662216 -0.0034799999557435513 0.02058899961411953
   vertex 0.031619001179933548 -0.002119000069797039 0.020692000165581703
  endloop
 endfacet
 facet normal 0.90835426342827807 0.063724255739226382 0.41331797848890184
  outer loop
   vertex 0.04008600115776062 -0.0028919999022036791 0.026038000360131264
   vertex 0.039492998272180557 -0.0021379999816417694 0.027225000783801079
   vertex 0.039540998637676239 -0.0036200000904500484 0.027348000556230545
  endloop
 endfacet
 facet normal 0.23799083632149279 -0.97125837899073897 -0.0041860562918551256
  outer loop
   vertex 0.031879998743534088 -0.004244999960064888 0.02068600058555603
   vertex 0.032536998391151428 -0.0040859999135136604 0.021146999672055244
   vertex 0.031062999740242958 -0.0044700000435113907 0.026442000642418861
  endloop
 endfacet
 facet normal 0.39181952569938383 -0.56293060806890127 0.72772700223358966
  outer loop
   vertex 0.0292930006980896 -0.0050750002264976501 0.026926999911665916
   vertex 0.029679000377655029 -0.0055069997906684875 0.026384999975562096
   vertex 0.031062999740242958 -0.0044700000435113907 0.026442000642418861
  endloop
 endfacet
 facet normal 0.26859703841206806 -0.013697374388251323 0.9631552382098818
  outer loop
   vertex 0.031062999740242958 -0.0044700000435113907 0.026442000642418861
   vertex 0.031259998679161072 -0.0037010000087320805 0.026397999376058578
   vertex 0.0292930006980896 -0.0050750002264976501 0.026926999911665916
  endloop
 endfacet
 facet normal 0.4477050831600784 -0.89372341966016211 0.028611320549271315
  outer loop
   vertex 0.029683999717235565 -0.0053460001945495605 0.020656999200582504
   vertex 0.031879998743534088 -0.004244999960064888 0.02068600058555603
   vertex 0.031062999740242958 -0.0044700000435113907 0.026442000642418861
  endloop
 endfacet
 facet normal 0.60006432932547105 -0.79965048110064474 -0.02195242006430995
  outer loop
   vertex 0.029683999717235565 -0.0053460001945495605 0.020656999200582504
   vertex 0.031062999740242958 -0.0044700000435113907 0.026442000642418861
   vertex 0.029679000377655029 -0.0055069997906684875 0.026384999975562096
  endloop
 endfacet
 facet normal 0.59370632737909634 -0.34370840867292196 -0.72758320942525401
  outer loop
   vertex 0.032203998416662216 -0.0034799999557435513 0.02058899961411953
   vertex 0.032536998391151428 -0.0040859999135136604 0.021146999672055244
   vertex 0.031879998743534088 -0.004244999960064888 0.02068600058555603
  endloop
 endfacet
 facet normal 0.73127562575225591 -0.19891550176092845 -0.65243281825782229
  outer loop
   vertex 0.032570000737905502 -0.0034529999829828739 0.020990999415516853
   vertex 0.032536998391151428 -0.0040859999135136604 0.021146999672055244
   vertex 0.032203998416662216 -0.0034799999557435513 0.02058899961411953
  endloop
 endfacet
 facet normal 0.62769705496651729 -0.13150283913256672 0.76727010269294038
  outer loop
   vertex 0.038807999342679977 -0.0042539997957646847 0.027838999405503273
   vertex 0.03931799903512001 -0.0042059998959302902 0.027429999783635139
   vertex 0.039540998637676239 -0.0036200000904500484 0.027348000556230545
  endloop
 endfacet
 facet normal -0.11749193078178556 0.10103423278886141 0.98792091282953121
  outer loop
   vertex 0.038807999342679977 -0.0042539997957646847 0.027838999405503273
   vertex 0.038619998842477798 -0.002340999897569418 0.02762099914252758
   vertex 0.037686999887228012 -0.003777999896556139 0.027657000347971916
  endloop
 endfacet
 facet normal 0.46096437048876543 0.1450688050027954 0.87548094836778556
  outer loop
   vertex 0.038807999342679977 -0.0042539997957646847 0.027838999405503273
   vertex 0.039540998637676239 -0.0036200000904500484 0.027348000556230545
   vertex 0.038619998842477798 -0.002340999897569418 0.02762099914252758
  endloop
 endfacet
 facet normal 0.094475063399615949 -0.036415407625693549 0.99486098550656465
  outer loop
   vertex 0.037686999887228012 -0.003777999896556139 0.027657000347971916
   vertex 0.038619998842477798 -0.002340999897569418 0.02762099914252758
   vertex 0.036791000515222549 -0.0032339999452233315 0.027761999517679214
  endloop
 endfacet
 facet normal 0.39429007740540434 0.088686600551897643 0.91469668291854456
  outer loop
   vertex 0.039492998272180557 -0.0021379999816417694 0.027225000783801079
   vertex 0.038619998842477798 -0.002340999897569418 0.02762099914252758
   vertex 0.039540998637676239 -0.0036200000904500484 0.027348000556230545
  endloop
 endfacet
 facet normal 0.18410649757298669 0.11238068935669225 0.97646063833168539
  outer loop
   vertex 0.0292930006980896 -0.0050750002264976501 0.026926999911665916
   vertex 0.031259998679161072 -0.0037010000087320805 0.026397999376058578
   vertex 0.027829999104142189 -0.0042770002037286758 0.027110999450087547
  endloop
 endfacet
 facet normal 0.21049900871658278 -0.044642367309476315 0.97657422983116948
  outer loop
   vertex 0.027829999104142189 -0.0042770002037286758 0.027110999450087547
   vertex 0.031259998679161072 -0.0037010000087320805 0.026397999376058578
   vertex 0.032085999846458435 -0.0019499999471008778 0.02630000002682209
  endloop
 endfacet
 facet normal 0.12855716991864982 0.96410444794042405 0.23232663972088446
  outer loop
   vertex 0.028082000091671944 -0.00081800000043585896 0.026303000748157501
   vertex 0.032648999243974686 -0.0013530000578612089 0.025995999574661255
   vertex 0.029443999752402306 -0.00078900001244619489 0.025428999215364456
  endloop
 endfacet
 facet normal 0.10543520364549357 0.3704888547031539 0.92283336869284183
  outer loop
   vertex 0.032085999846458435 -0.0019499999471008778 0.02630000002682209
   vertex 0.032648999243974686 -0.0013530000578612089 0.025995999574661255
   vertex 0.028082000091671944 -0.00081800000043585896 0.026303000748157501
  endloop
 endfacet
 facet normal -0.011026833612771049 0.18214627153557283 0.98320961381902972
  outer loop
   vertex 0.035987000912427902 -0.0030239999759942293 0.027718000113964081
   vertex 0.038619998842477798 -0.002340999897569418 0.02762099914252758
   vertex 0.036060001701116562 -0.0019399999873712659 0.027518000453710556
  endloop
 endfacet
 facet normal -0.0086516709219408919 0.1732221352934992 0.98484477986869545
  outer loop
   vertex 0.038619998842477798 -0.002340999897569418 0.02762099914252758
   vertex 0.035987000912427902 -0.0030239999759942293 0.027718000113964081
   vertex 0.036791000515222549 -0.0032339999452233315 0.027761999517679214
  endloop
 endfacet
 facet normal 0.14806389385749538 0.52148964479462334 0.84031281895954324
  outer loop
   vertex 0.028082000091671944 -0.00081800000043585896 0.026303000748157501
   vertex 0.028041999787092209 -0.001310999970883131 0.026615999639034271
   vertex 0.032085999846458435 -0.0019499999471008778 0.02630000002682209
  endloop
 endfacet
 facet normal 0.11759236322566982 0.27187055040942021 0.95512221203942338
  outer loop
   vertex 0.028041999787092209 -0.001310999970883131 0.026615999639034271
   vertex 0.027674000710248947 -0.0018649999983608723 0.026819000020623207
   vertex 0.032085999846458435 -0.0019499999471008778 0.02630000002682209
  endloop
 endfacet
 facet normal 0.11755205575999669 0.27470880707345718 0.95431472036371556
  outer loop
   vertex 0.0277670007199049 -0.0034090001136064529 0.027251999825239182
   vertex 0.032085999846458435 -0.0019499999471008778 0.02630000002682209
   vertex 0.027674000710248947 -0.0018649999983608723 0.026819000020623207
  endloop
 endfacet
 facet normal 0.25706497081140345 -0.13674674106358345 0.95667023032506948
  outer loop
   vertex 0.032085999846458435 -0.0019499999471008778 0.02630000002682209
   vertex 0.0277670007199049 -0.0034090001136064529 0.027251999825239182
   vertex 0.027829999104142189 -0.0042770002037286758 0.027110999450087547
  endloop
 endfacet
 facet normal 0.23423360409370053 0.97016240177297053 0.062606173013345784
  outer loop
   vertex 0.029443999752402306 -0.00078900001244619489 0.025428999215364456
   vertex 0.028706999495625496 -0.00035899999784305692 0.021523000672459602
   vertex 0.027963999658823013 -0.00045200000749900937 0.025744000449776649
  endloop
 endfacet
 facet normal 0.29066931369308802 0.82747061158391522 0.4804203753403164
  outer loop
   vertex 0.028082000091671944 -0.00081800000043585896 0.026303000748157501
   vertex 0.029443999752402306 -0.00078900001244619489 0.025428999215364456
   vertex 0.027963999658823013 -0.00045200000749900937 0.025744000449776649
  endloop
 endfacet
 facet normal -0.54352088881560512 0.79638705608908344 -0.26524083455391595
  outer loop
   vertex 0.027357000857591629 -0.00050399999599903822 0.023854000493884087
   vertex 0.028706999495625496 -0.00035899999784305692 0.021523000672459602
   vertex 0.027829999104142189 -0.00080400001024827361 0.021983999758958817
  endloop
 endfacet
 facet normal -0.58404098215291966 0.65658452134379552 -0.47727654195192931
  outer loop
   vertex 0.028706999495625496 -0.00035899999784305692 0.021523000672459602
   vertex 0.0284620001912117 -0.0015269999857991934 0.020215999335050583
   vertex 0.027829999104142189 -0.00080400001024827361 0.021983999758958817
  endloop
 endfacet
 facet normal -0.41382434318806016 0.71597295580450482 -0.56225629346547235
  outer loop
   vertex 0.0284620001912117 -0.0015269999857991934 0.020215999335050583
   vertex 0.028706999495625496 -0.00035899999784305692 0.021523000672459602
   vertex 0.029881000518798828 -0.0010720000136643648 0.019750999286770821
  endloop
 endfacet
 facet normal -0.099160144413953863 0.99506145109634325 0.0044692618902099253
  outer loop
   vertex 0.027357000857591629 -0.00050399999599903822 0.023854000493884087
   vertex 0.027963999658823013 -0.00045200000749900937 0.025744000449776649
   vertex 0.028706999495625496 -0.00035899999784305692 0.021523000672459602
  endloop
 endfacet
 facet normal 0.0096507966154127517 0.30612208377360767 0.95194334492699317
  outer loop
   vertex 0.038619998842477798 -0.002340999897569418 0.02762099914252758
   vertex 0.03699599951505661 -0.001614999957382679 0.027403999119997025
   vertex 0.036060001701116562 -0.0019399999873712659 0.027518000453710556
  endloop
 endfacet
 facet normal 0.18778386092459465 0.64219316911808988 0.74318581466166123
  outer loop
   vertex 0.038619998842477798 -0.002340999897569418 0.02762099914252758
   vertex 0.039492998272180557 -0.0021379999816417694 0.027225000783801079
   vertex 0.03699599951505661 -0.001614999957382679 0.027403999119997025
  endloop
 endfacet
 facet normal -0.40753012231900498 0.47206294877908495 -0.78171335653975627
  outer loop
   vertex 0.029317999258637428 -0.00279999990016222 0.019000999629497528
   vertex 0.0284620001912117 -0.0015269999857991934 0.020215999335050583
   vertex 0.029881000518798828 -0.0010720000136643648 0.019750999286770821
  endloop
 endfacet
 facet normal 0.32746329727389234 0.32843841165818827 -0.88594356405244967
  outer loop
   vertex 0.031396001577377319 -0.0035319998860359192 0.019399000331759453
   vertex 0.030274000018835068 -0.0038159999530762434 0.018879000097513199
   vertex 0.029881000518798828 -0.0010720000136643648 0.019750999286770821
  endloop
 endfacet
 facet normal 0.22755271596596435 0.32436508799692843 -0.9181541543473285
  outer loop
   vertex 0.030274000018835068 -0.0038159999530762434 0.018879000097513199
   vertex 0.029317999258637428 -0.00279999990016222 0.019000999629497528
   vertex 0.029881000518798828 -0.0010720000136643648 0.019750999286770821
  endloop
 endfacet
 facet normal 0.76961688654708071 -0.39005397103438905 -0.50551730694594621
  outer loop
   vertex 0.031879998743534088 -0.004244999960064888 0.02068600058555603
   vertex 0.031396001577377319 -0.0035319998860359192 0.019399000331759453
   vertex 0.032203998416662216 -0.0034799999557435513 0.02058899961411953
  endloop
 endfacet
 facet normal 0.4545568114297508 -0.21163230531310395 -0.865210883271055
  outer loop
   vertex 0.030274000018835068 -0.0038159999530762434 0.018879000097513199
   vertex 0.031396001577377319 -0.0035319998860359192 0.019399000331759453
   vertex 0.030655000358819962 -0.0044490001164376736 0.019233999773859978
  endloop
 endfacet
 facet normal 0.70457155390701731 -0.4743790274416993 -0.52777217030506507
  outer loop
   vertex 0.031396001577377319 -0.0035319998860359192 0.019399000331759453
   vertex 0.031879998743534088 -0.004244999960064888 0.02068600058555603
   vertex 0.030655000358819962 -0.0044490001164376736 0.019233999773859978
  endloop
 endfacet
 facet normal 0.43690007848929607 -0.86491034354720564 -0.24707978274456532
  outer loop
   vertex 0.030655000358819962 -0.0044490001164376736 0.019233999773859978
   vertex 0.031879998743534088 -0.004244999960064888 0.02068600058555603
   vertex 0.029683999717235565 -0.0053460001945495605 0.020656999200582504
  endloop
 endfacet
 facet normal -0.055396496122710172 -0.79964945966670442 0.59790632198704374
  outer loop
   vertex 0.029679000377655029 -0.0055069997906684875 0.026384999975562096
   vertex 0.0292930006980896 -0.0050750002264976501 0.026926999911665916
   vertex 0.028311999514698982 -0.0051020001992583275 0.026799999177455902
  endloop
 endfacet
 facet normal -0.10645106263465275 -0.40458841313145871 0.90828210773069906
  outer loop
   vertex 0.028311999514698982 -0.0051020001992583275 0.026799999177455902
   vertex 0.0292930006980896 -0.0050750002264976501 0.026926999911665916
   vertex 0.027829999104142189 -0.0042770002037286758 0.027110999450087547
  endloop
 endfacet
 facet normal -0.13123795628429474 -0.89013469074875551 0.43639068637625511
  outer loop
   vertex 0.029679000377655029 -0.0055069997906684875 0.026384999975562096
   vertex 0.028311999514698982 -0.0051020001992583275 0.026799999177455902
   vertex 0.028598999604582787 -0.0054870001040399075 0.026101000607013702
  endloop
 endfacet
 facet normal -0.023061113863041428 -0.99958427217800072 0.017305139172297059
  outer loop
   vertex 0.028598999604582787 -0.0054870001040399075 0.026101000607013702
   vertex 0.028320999816060066 -0.0055309999734163284 0.0231890007853508
   vertex 0.029679000377655029 -0.0055069997906684875 0.026384999975562096
  endloop
 endfacet
 facet normal 0.083327475282699306 -0.99613085036263327 -0.027925988233692283
  outer loop
   vertex 0.029683999717235565 -0.0053460001945495605 0.020656999200582504
   vertex 0.029679000377655029 -0.0055069997906684875 0.026384999975562096
   vertex 0.028320999816060066 -0.0055309999734163284 0.0231890007853508
  endloop
 endfacet
 facet normal -0.2221413658291026 -0.74927409069405171 -0.62389225880930987
  outer loop
   vertex 0.029683999717235565 -0.0053460001945495605 0.020656999200582504
   vertex 0.028829999268054962 -0.0048580002039670944 0.020375000312924385
   vertex 0.030655000358819962 -0.0044490001164376736 0.019233999773859978
  endloop
 endfacet
 facet normal -0.16647912212647925 -0.97286202135002431 -0.16069906443642334
  outer loop
   vertex 0.028320999816060066 -0.0055309999734163284 0.0231890007853508
   vertex 0.028465000912547112 -0.005386000033468008 0.022161999717354774
   vertex 0.029683999717235565 -0.0053460001945495605 0.020656999200582504
  endloop
 endfacet
 facet normal -0.38260996853016449 -0.86188651047507914 -0.3328081354811479
  outer loop
   vertex 0.028465000912547112 -0.005386000033468008 0.022161999717354774
   vertex 0.028829999268054962 -0.0048580002039670944 0.020375000312924385
   vertex 0.029683999717235565 -0.0053460001945495605 0.020656999200582504
  endloop
 endfacet
 facet normal -0.94033872338484326 -0.24531008788352884 -0.23576693170489052
  outer loop
   vertex 0.028295999392867088 -0.0023650000803172588 0.023262999951839447
   vertex 0.027829999104142189 -0.0042770002037286758 0.027110999450087547
   vertex 0.027728000655770302 -0.0021569998934864998 0.025312000885605812
  endloop
 endfacet
 facet normal -0.92901535255885026 -0.27403406433716104 -0.24866806448117104
  outer loop
   vertex 0.028295999392867088 -0.0023650000803172588 0.023262999951839447
   vertex 0.028832999989390373 -0.0044649997726082802 0.023570999503135681
   vertex 0.027829999104142189 -0.0042770002037286758 0.027110999450087547
  endloop
 endfacet
 facet normal -0.68084853924947975 -0.57079340995026806 0.45895549866974572
  outer loop
   vertex 0.027829999104142189 -0.0042770002037286758 0.027110999450087547
   vertex 0.028080999851226807 -0.0052100000903010368 0.026322999969124794
   vertex 0.028311999514698982 -0.0051020001992583275 0.026799999177455902
  endloop
 endfacet
 facet normal 0.020510385694635615 0.64832340463169602 -0.76108875112264218
  outer loop
   vertex 0.028080999851226807 -0.0052100000903010368 0.026322999969124794
   vertex 0.027829999104142189 -0.0042770002037286758 0.027110999450087547
   vertex 0.028598999604582787 -0.0054870001040399075 0.026101000607013702
  endloop
 endfacet
 facet normal -0.95553639904725374 -0.11355728341393526 0.27213036118642608
  outer loop
   vertex 0.027307000011205673 -0.0016039999900385737 0.026389999315142632
   vertex 0.027829999104142189 -0.0042770002037286758 0.027110999450087547
   vertex 0.0277670007199049 -0.0034090001136064529 0.027251999825239182
  endloop
 endfacet
 facet normal -0.89710512666306308 -0.37458243733453966 -0.23428698076368895
  outer loop
   vertex 0.027829999104142189 -0.0042770002037286758 0.027110999450087547
   vertex 0.028832999989390373 -0.0044649997726082802 0.023570999503135681
   vertex 0.028598999604582787 -0.0054870001040399075 0.026101000607013702
  endloop
 endfacet
 facet normal -0.93869283841463325 -0.24820413382917819 -0.23927068992918218
  outer loop
   vertex 0.027728000655770302 -0.0021569998934864998 0.025312000885605812
   vertex 0.027829999104142189 -0.0042770002037286758 0.027110999450087547
   vertex 0.027307000011205673 -0.0016039999900385737 0.026389999315142632
  endloop
 endfacet
 facet normal -0.563344456514004 0.63171220155435104 0.53252485174149056
  outer loop
   vertex 0.027481000870466232 -0.00099400000181049109 0.0258760005235672
   vertex 0.028082000091671944 -0.00081800000043585896 0.026303000748157501
   vertex 0.027963999658823013 -0.00045200000749900937 0.025744000449776649
  endloop
 endfacet
 facet normal -0.59944730835521587 0.46311158534458718 0.65283273816905796
  outer loop
   vertex 0.028041999787092209 -0.001310999970883131 0.026615999639034271
   vertex 0.028082000091671944 -0.00081800000043585896 0.026303000748157501
   vertex 0.027481000870466232 -0.00099400000181049109 0.0258760005235672
  endloop
 endfacet
 facet normal -0.43807957357476113 0.55120266838346377 0.71011400886301679
  outer loop
   vertex 0.027307000011205673 -0.0016039999900385737 0.026389999315142632
   vertex 0.027674000710248947 -0.0018649999983608723 0.026819000020623207
   vertex 0.028041999787092209 -0.001310999970883131 0.026615999639034271
  endloop
 endfacet
 facet normal -0.44772854773879212 0.64741146168247665 0.61676376905738484
  outer loop
   vertex 0.028041999787092209 -0.001310999970883131 0.026615999639034271
   vertex 0.027481000870466232 -0.00099400000181049109 0.0258760005235672
   vertex 0.027307000011205673 -0.0016039999900385737 0.026389999315142632
  endloop
 endfacet
 facet normal -0.67694460533785206 0.20841630836533692 0.70590979856589653
  outer loop
   vertex 0.027627000585198402 -0.0027119999285787344 0.027024000883102417
   vertex 0.027674000710248947 -0.0018649999983608723 0.026819000020623207
   vertex 0.027307000011205673 -0.0016039999900385737 0.026389999315142632
  endloop
 endfacet
 facet normal -0.30579893990063678 0.23996699423204823 0.92135924048922568
  outer loop
   vertex 0.0277670007199049 -0.0034090001136064529 0.027251999825239182
   vertex 0.027674000710248947 -0.0018649999983608723 0.026819000020623207
   vertex 0.027627000585198402 -0.0027119999285787344 0.027024000883102417
  endloop
 endfacet
 facet normal -0.93834222286746582 -0.078331415709670754 0.33671659017200473
  outer loop
   vertex 0.027307000011205673 -0.0016039999900385737 0.026389999315142632
   vertex 0.0277670007199049 -0.0034090001136064529 0.027251999825239182
   vertex 0.027627000585198402 -0.0027119999285787344 0.027024000883102417
  endloop
 endfacet
 facet normal -0.68061939817839956 0.70503880989056611 0.1991921468616859
  outer loop
   vertex 0.027963999658823013 -0.00045200000749900937 0.025744000449776649
   vertex 0.027357000857591629 -0.00050399999599903822 0.023854000493884087
   vertex 0.027000999078154564 -0.0012870000209659338 0.025408999994397163
  endloop
 endfacet
 facet normal -0.68266874877885875 0.67595566352116365 0.27757399084635237
  outer loop
   vertex 0.027481000870466232 -0.00099400000181049109 0.0258760005235672
   vertex 0.027963999658823013 -0.00045200000749900937 0.025744000449776649
   vertex 0.027000999078154564 -0.0012870000209659338 0.025408999994397163
  endloop
 endfacet
 facet normal -0.95056910081022727 0.30369762360720498 -0.064700370943082133
  outer loop
   vertex 0.027357000857591629 -0.00050399999599903822 0.023854000493884087
   vertex 0.027092000469565392 -0.0013000000035390258 0.024010999128222466
   vertex 0.027000999078154564 -0.0012870000209659338 0.025408999994397163
  endloop
 endfacet
 facet normal -0.92710042900068756 0.25434604345451955 -0.27530507573557889
  outer loop
   vertex 0.027357000857591629 -0.00050399999599903822 0.023854000493884087
   vertex 0.027829999104142189 -0.00080400001024827361 0.021983999758958817
   vertex 0.027092000469565392 -0.0013000000035390258 0.024010999128222466
  endloop
 endfacet
 facet normal -0.73398397856872277 -0.54792347964865507 -0.40130708896571793
  outer loop
   vertex 0.027829999104142189 -0.00080400001024827361 0.021983999758958817
   vertex 0.028295999392867088 -0.0023650000803172588 0.023262999951839447
   vertex 0.027092000469565392 -0.0013000000035390258 0.024010999128222466
  endloop
 endfacet
 facet normal -0.91922605197133744 -0.34655750654608575 -0.1868725769976633
  outer loop
   vertex 0.027829999104142189 -0.00080400001024827361 0.021983999758958817
   vertex 0.0284620001912117 -0.0015269999857991934 0.020215999335050583
   vertex 0.028940999880433083 -0.0042750001884996891 0.02295600064098835
  endloop
 endfacet
 facet normal -0.94858606619021424 -0.31424070257034997 -0.037911157696215177
  outer loop
   vertex 0.027829999104142189 -0.00080400001024827361 0.021983999758958817
   vertex 0.028940999880433083 -0.0042750001884996891 0.02295600064098835
   vertex 0.028295999392867088 -0.0023650000803172588 0.023262999951839447
  endloop
 endfacet
 facet normal -0.99208150922877347 -0.10641820146817887 0.066704163607955502
  outer loop
   vertex 0.028940999880433083 -0.0042750001884996891 0.02295600064098835
   vertex 0.0284620001912117 -0.0015269999857991934 0.020215999335050583
   vertex 0.028829999268054962 -0.0048580002039670944 0.020375000312924385
  endloop
 endfacet
 facet normal -0.86605061363985858 -0.11885925761513556 -0.48562208711425336
  outer loop
   vertex 0.028829999268054962 -0.0048580002039670944 0.020375000312924385
   vertex 0.0284620001912117 -0.0015269999857991934 0.020215999335050583
   vertex 0.029317999258637428 -0.00279999990016222 0.019000999629497528
  endloop
 endfacet
 facet normal -0.092093600137578391 0.032847841835801944 -0.99520841440395291
  outer loop
   vertex 0.029317999258637428 -0.00279999990016222 0.019000999629497528
   vertex 0.030274000018835068 -0.0038159999530762434 0.018879000097513199
   vertex 0.02933100052177906 -0.0035210000351071358 0.01897599920630455
  endloop
 endfacet
 facet normal -0.93988042359099644 -0.005107974532897604 -0.34146551501810601
  outer loop
   vertex 0.028829999268054962 -0.0048580002039670944 0.020375000312924385
   vertex 0.029317999258637428 -0.00279999990016222 0.019000999629497528
   vertex 0.02933100052177906 -0.0035210000351071358 0.01897599920630455
  endloop
 endfacet
 facet normal -0.26249088301663331 -0.58734830059016852 -0.76558507700123657
  outer loop
   vertex 0.02933100052177906 -0.0035210000351071358 0.01897599920630455
   vertex 0.030274000018835068 -0.0038159999530762434 0.018879000097513199
   vertex 0.030655000358819962 -0.0044490001164376736 0.019233999773859978
  endloop
 endfacet
 facet normal -0.30404741982188793 -0.63197756814852679 -0.71285308434257821
  outer loop
   vertex 0.02933100052177906 -0.0035210000351071358 0.01897599920630455
   vertex 0.030655000358819962 -0.0044490001164376736 0.019233999773859978
   vertex 0.028829999268054962 -0.0048580002039670944 0.020375000312924385
  endloop
 endfacet
 facet normal -0.31878207398126102 -0.87944149548386763 0.35349773030290355
  outer loop
   vertex 0.028080999851226807 -0.0052100000903010368 0.026322999969124794
   vertex 0.028598999604582787 -0.0054870001040399075 0.026101000607013702
   vertex 0.028311999514698982 -0.0051020001992583275 0.026799999177455902
  endloop
 endfacet
 facet normal -0.64376531838646267 -0.76173609629605499 0.072968037128756019
  outer loop
   vertex 0.028320999816060066 -0.0055309999734163284 0.0231890007853508
   vertex 0.028598999604582787 -0.0054870001040399075 0.026101000607013702
   vertex 0.028269000351428986 -0.005313000176101923 0.025005999952554703
  endloop
 endfacet
 facet normal -0.50680452596318104 0.81457172665111077 0.28217383756093267
  outer loop
   vertex 0.028269000351428986 -0.005313000176101923 0.025005999952554703
   vertex 0.028598999604582787 -0.0054870001040399075 0.026101000607013702
   vertex 0.028832999989390373 -0.0044649997726082802 0.023570999503135681
  endloop
 endfacet
 facet normal -0.91709572959897778 0.39187758720852639 -0.073262400963541932
  outer loop
   vertex 0.028269000351428986 -0.005313000176101923 0.025005999952554703
   vertex 0.028465000912547112 -0.005386000033468008 0.022161999717354774
   vertex 0.028320999816060066 -0.0055309999734163284 0.0231890007853508
  endloop
 endfacet
 facet normal -0.90202115136038163 0.4277996045291062 -0.057838921698385594
  outer loop
   vertex 0.028465000912547112 -0.005386000033468008 0.022161999717354774
   vertex 0.028940999880433083 -0.0042750001884996891 0.02295600064098835
   vertex 0.028829999268054962 -0.0048580002039670944 0.020375000312924385
  endloop
 endfacet
 facet normal -0.91016271413817307 0.41299430269085891 -0.032241894136754178
  outer loop
   vertex 0.028940999880433083 -0.0042750001884996891 0.02295600064098835
   vertex 0.028465000912547112 -0.005386000033468008 0.022161999717354774
   vertex 0.028832999989390373 -0.0044649997726082802 0.023570999503135681
  endloop
 endfacet
 facet normal -0.88281927911383484 0.46404438149537797 -0.072752542412628005
  outer loop
   vertex 0.028465000912547112 -0.005386000033468008 0.022161999717354774
   vertex 0.028269000351428986 -0.005313000176101923 0.025005999952554703
   vertex 0.028832999989390373 -0.0044649997726082802 0.023570999503135681
  endloop
 endfacet
 facet normal -0.69911595503559387 -0.70447338225809508 -0.12228710113707597
  outer loop
   vertex 0.028295999392867088 -0.0023650000803172588 0.023262999951839447
   vertex 0.027728000655770302 -0.0021569998934864998 0.025312000885605812
   vertex 0.027092000469565392 -0.0013000000035390258 0.024010999128222466
  endloop
 endfacet
 facet normal -0.93084942838692553 -0.27582190493904596 -0.23966981125609038
  outer loop
   vertex 0.028295999392867088 -0.0023650000803172588 0.023262999951839447
   vertex 0.028940999880433083 -0.0042750001884996891 0.02295600064098835
   vertex 0.02873699925839901 -0.0038419999182224274 0.023250000551342964
  endloop
 endfacet
 facet normal -0.9269914513230918 -0.27452998546971258 -0.25557804336818024
  outer loop
   vertex 0.028832999989390373 -0.0044649997726082802 0.023570999503135681
   vertex 0.028295999392867088 -0.0023650000803172588 0.023262999951839447
   vertex 0.02873699925839901 -0.0038419999182224274 0.023250000551342964
  endloop
 endfacet
 facet normal -0.76902019069964245 -0.63769946893690266 -0.04412860312629345
  outer loop
   vertex 0.027000999078154564 -0.0012870000209659338 0.025408999994397163
   vertex 0.027092000469565392 -0.0013000000035390258 0.024010999128222466
   vertex 0.027728000655770302 -0.0021569998934864998 0.025312000885605812
  endloop
 endfacet
 facet normal -0.76528398357754324 -0.64294824987656474 0.030951130195019844
  outer loop
   vertex 0.027000999078154564 -0.0012870000209659338 0.025408999994397163
   vertex 0.027728000655770302 -0.0021569998934864998 0.025312000885605812
   vertex 0.027307000011205673 -0.0016039999900385737 0.026389999315142632
  endloop
 endfacet
 facet normal -0.93044876456189174 -0.27064859359763521 -0.24701100240449092
  outer loop
   vertex 0.028940999880433083 -0.0042750001884996891 0.02295600064098835
   vertex 0.028832999989390373 -0.0044649997726082802 0.023570999503135681
   vertex 0.02873699925839901 -0.0038419999182224274 0.023250000551342964
  endloop
 endfacet
 facet normal -0.730178566131785 0.54993921524984335 0.40547024686420213
  outer loop
   vertex 0.027307000011205673 -0.0016039999900385737 0.026389999315142632
   vertex 0.027481000870466232 -0.00099400000181049109 0.0258760005235672
   vertex 0.027000999078154564 -0.0012870000209659338 0.025408999994397163
  endloop
 endfacet
endsolid
