solid Visualization Toolkit generated SLA File
 facet normal 0.47649836778133831 -0.8086771791219094 -0.3449500332934492
  outer loop
   vertex 0.0088879996910691261 -0.0029760000761598349 0.045598000288009644
   vertex 0.0095440000295639038 -0.0026879999786615372 0.045829001814126968
   vertex 0.007977999746799469 -0.0060399998910725117 0.051523998379707336
  endloop
 endfacet
 facet normal 0.21460801163344412 0.26515016292068133 -0.94002063405325076
  outer loop
   vertex 0.0095440000295639038 -0.0026879999786615372 0.045829001814126968
   vertex 0.0088879996910691261 -0.0029760000761598349 0.045598000288009644
   vertex 0.0081430003046989441 -0.0026459998916834593 0.045520998537540436
  endloop
 endfacet
 facet normal -0.3153134079904597 -0.82235512759228935 -0.47361323763606028
  outer loop
   vertex 0.0081430003046989441 -0.0026459998916834593 0.045520998537540436
   vertex 0.0088879996910691261 -0.0029760000761598349 0.045598000288009644
   vertex 0.007977999746799469 -0.0060399998910725117 0.051523998379707336
  endloop
 endfacet
 facet normal 0.64829477889441534 -0.72059890690484985 -0.24586804392961831
  outer loop
   vertex 0.0095440000295639038 -0.0026879999786615372 0.045829001814126968
   vertex 0.0093280002474784851 -0.0043139997869729996 0.050025001168251038
   vertex 0.007977999746799469 -0.0060399998910725117 0.051523998379707336
  endloop
 endfacet
 facet normal 0.15242184134598669 0.79683463599572468 -0.584655578232398
  outer loop
   vertex 0.0099390000104904175 -0.0024619998876005411 0.046239998191595078
   vertex 0.0095440000295639038 -0.0026879999786615372 0.045829001814126968
   vertex 0.0081430003046989441 -0.0026459998916834593 0.045520998537540436
  endloop
 endfacet
 facet normal 0.65915737877198277 -0.71200920481229657 -0.24198025182442023
  outer loop
   vertex 0.0095440000295639038 -0.0026879999786615372 0.045829001814126968
   vertex 0.0099390000104904175 -0.0024619998876005411 0.046239998191595078
   vertex 0.0093280002474784851 -0.0043139997869729996 0.050025001168251038
  endloop
 endfacet
 facet normal 0.84771355732597953 -0.26293033173529373 0.46070529124300463
  outer loop
   vertex 0.0093280002474784851 -0.0043139997869729996 0.050025001168251038
   vertex 0.008662000298500061 -0.0030690000858157873 0.051961001008749008
   vertex 0.007977999746799469 -0.0060399998910725117 0.051523998379707336
  endloop
 endfacet
 facet normal 0.14795369136621558 -0.17717984058836628 0.97299383826424701
  outer loop
   vertex 0.008662000298500061 -0.0030690000858157873 0.051961001008749008
   vertex 0.0066700000315904617 -0.0037000000011175871 0.052149001508951187
   vertex 0.007977999746799469 -0.0060399998910725117 0.051523998379707336
  endloop
 endfacet
 facet normal -0.21079501002650372 -0.71038829185592511 0.67150125728992283
  outer loop
   vertex 0.003229999914765358 -0.0062389997765421867 0.049823001027107239
   vertex 0.007977999746799469 -0.0060399998910725117 0.051523998379707336
   vertex 0.0059239999391138554 -0.0056119998916983604 0.051332000643014908
  endloop
 endfacet
 facet normal -0.017814332298954325 -0.98611740906125311 0.1650912024035921
  outer loop
   vertex 0.007977999746799469 -0.0060399998910725117 0.051523998379707336
   vertex 0.003229999914765358 -0.0062389997765421867 0.049823001027107239
   vertex 0.0037070000544190407 -0.0062959999777376652 0.04953400045633316
  endloop
 endfacet
 facet normal 0.23446421810922172 -0.89108353667654172 -0.38858288831400906
  outer loop
   vertex 0.007977999746799469 -0.0060399998910725117 0.051523998379707336
   vertex 0.0037070000544190407 -0.0062959999777376652 0.04953400045633316
   vertex 0.0047969999723136425 -0.0039980001747608185 0.044922001659870148
  endloop
 endfacet
 facet normal 0.42734339465882876 -0.78490063926552822 -0.44867427998720155
  outer loop
   vertex 0.0068959998898208141 -0.0031330001074820757 0.045407999306917191
   vertex 0.007977999746799469 -0.0060399998910725117 0.051523998379707336
   vertex 0.0047969999723136425 -0.0039980001747608185 0.044922001659870148
  endloop
 endfacet
 facet normal 0.25093924277197382 -0.85630708125106447 -0.45140633473214714
  outer loop
   vertex 0.0068959998898208141 -0.0031330001074820757 0.045407999306917191
   vertex 0.0076609998941421509 -0.0029899999499320984 0.045561999082565308
   vertex 0.007977999746799469 -0.0060399998910725117 0.051523998379707336
  endloop
 endfacet
 facet normal 0.50513929564048543 -0.75714989918777786 -0.41419599486206043
  outer loop
   vertex 0.0081430003046989441 -0.0026459998916834593 0.045520998537540436
   vertex 0.007977999746799469 -0.0060399998910725117 0.051523998379707336
   vertex 0.0076609998941421509 -0.0029899999499320984 0.045561999082565308
  endloop
 endfacet
 facet normal -0.035516927079180416 -0.2763700460114708 0.96039478630325237
  outer loop
   vertex 0.007977999746799469 -0.0060399998910725117 0.051523998379707336
   vertex 0.0066700000315904617 -0.0037000000011175871 0.052149001508951187
   vertex 0.0060180001892149448 -0.0042730001732707024 0.051959998905658722
  endloop
 endfacet
 facet normal -0.16900939188259012 -0.40876473840254912 0.89685406510433596
  outer loop
   vertex 0.0060180001892149448 -0.0042730001732707024 0.051959998905658722
   vertex 0.0059239999391138554 -0.0056119998916983604 0.051332000643014908
   vertex 0.007977999746799469 -0.0060399998910725117 0.051523998379707336
  endloop
 endfacet
 facet normal 0.55172794113690227 0.54189695174299168 -0.6339905146455177
  outer loop
   vertex 0.0092010004445910454 -0.00074099999619647861 0.048069998621940613
   vertex 0.0081430003046989441 -0.0026459998916834593 0.045520998537540436
   vertex 0.0073339999653398991 0.00013499999477062374 0.047194000333547592
  endloop
 endfacet
 facet normal 0.17733923354523143 0.7516084233706164 -0.63532320449038071
  outer loop
   vertex 0.0092010004445910454 -0.00074099999619647861 0.048069998621940613
   vertex 0.0099390000104904175 -0.0024619998876005411 0.046239998191595078
   vertex 0.0081430003046989441 -0.0026459998916834593 0.045520998537540436
  endloop
 endfacet
 facet normal 0.49462423591259175 0.54913889294275608 -0.67364184957994488
  outer loop
   vertex 0.0072679999284446239 -0.00023000000510364771 0.046847999095916748
   vertex 0.0073339999653398991 0.00013499999477062374 0.047194000333547592
   vertex 0.0081430003046989441 -0.0026459998916834593 0.045520998537540436
  endloop
 endfacet
 facet normal -0.30471841225076313 0.32004173265528663 -0.89706185884496059
  outer loop
   vertex 0.0081430003046989441 -0.0026459998916834593 0.045520998537540436
   vertex 0.0076609998941421509 -0.0029899999499320984 0.045561999082565308
   vertex 0.0058100000023841858 -0.00060400000074878335 0.047042001038789749
  endloop
 endfacet
 facet normal -0.22216491330743213 0.40634362504650229 -0.88629995468755862
  outer loop
   vertex 0.0058100000023841858 -0.00060400000074878335 0.047042001038789749
   vertex 0.0072679999284446239 -0.00023000000510364771 0.046847999095916748
   vertex 0.0081430003046989441 -0.0026459998916834593 0.045520998537540436
  endloop
 endfacet
 facet normal 0.94795708913696253 0.28435805216481763 0.14324055055747215
  outer loop
   vertex 0.0093280002474784851 -0.0043139997869729996 0.050025001168251038
   vertex 0.0086099999025464058 -0.0026060000527650118 0.051385998725891113
   vertex 0.008662000298500061 -0.0030690000858157873 0.051961001008749008
  endloop
 endfacet
 facet normal 0.94752647568610471 0.19888991936247408 0.25027260707048676
  outer loop
   vertex 0.0086099999025464058 -0.0026060000527650118 0.051385998725891113
   vertex 0.0093280002474784851 -0.0043139997869729996 0.050025001168251038
   vertex 0.0099390000104904175 -0.0024619998876005411 0.046239998191595078
  endloop
 endfacet
 facet normal 0.95725375071155228 0.1433474191541943 0.25123051998214085
  outer loop
   vertex 0.0086099999025464058 -0.0026060000527650118 0.051385998725891113
   vertex 0.0099390000104904175 -0.0024619998876005411 0.046239998191595078
   vertex 0.0092010004445910454 -0.00074099999619647861 0.048069998621940613
  endloop
 endfacet
 facet normal -0.18095339612219286 0.75796742512777104 0.62669071389084874
  outer loop
   vertex 0.0086099999025464058 -0.0026060000527650118 0.051385998725891113
   vertex 0.0066700000315904617 -0.0037000000011175871 0.052149001508951187
   vertex 0.008662000298500061 -0.0030690000858157873 0.051961001008749008
  endloop
 endfacet
 facet normal -0.0060721714555687549 0.57926525717375976 0.81511648895432864
  outer loop
   vertex 0.0066700000315904617 -0.0037000000011175871 0.052149001508951187
   vertex 0.0086099999025464058 -0.0026060000527650118 0.051385998725891113
   vertex 0.0060519999824464321 -0.003258999902755022 0.051830999553203583
  endloop
 endfacet
 facet normal -0.37921230522794713 0.12927687592951426 0.91623442246709497
  outer loop
   vertex 0.0060180001892149448 -0.0042730001732707024 0.051959998905658722
   vertex 0.0066700000315904617 -0.0037000000011175871 0.052149001508951187
   vertex 0.0060519999824464321 -0.003258999902755022 0.051830999553203583
  endloop
 endfacet
 facet normal 0.18939910924814535 -0.36253690749903633 0.91252121515997875
  outer loop
   vertex 0.0026169999036937952 -0.0017969999462366104 0.051715001463890076
   vertex 0.0013689999468624592 -0.0050340001471340656 0.050687998533248901
   vertex 0.003229999914765358 -0.0062389997765421867 0.049823001027107239
  endloop
 endfacet
 facet normal 0.23218662565418355 -0.80735495397530377 0.54246414550535904
  outer loop
   vertex 0.0025150000583380461 -0.006748999934643507 0.049369998276233673
   vertex 0.0037070000544190407 -0.0062959999777376652 0.04953400045633316
   vertex 0.003229999914765358 -0.0062389997765421867 0.049823001027107239
  endloop
 endfacet
 facet normal -0.37257191849646781 -0.40670254780025117 0.83413620180438497
  outer loop
   vertex 0.0026169999036937952 -0.0017969999462366104 0.051715001463890076
   vertex 0.003229999914765358 -0.0062389997765421867 0.049823001027107239
   vertex 0.0059239999391138554 -0.0056119998916983604 0.051332000643014908
  endloop
 endfacet
 facet normal -0.01859005029290282 -0.6492836519794406 0.7603191101783171
  outer loop
   vertex 0.0017079999670386314 -0.0059460001066327095 0.050035998225212097
   vertex 0.0025150000583380461 -0.006748999934643507 0.049369998276233673
   vertex 0.003229999914765358 -0.0062389997765421867 0.049823001027107239
  endloop
 endfacet
 facet normal 0.002031915407664649 -0.58107471675094624 0.8138476791590572
  outer loop
   vertex 0.0013689999468624592 -0.0050340001471340656 0.050687998533248901
   vertex 0.0017079999670386314 -0.0059460001066327095 0.050035998225212097
   vertex 0.003229999914765358 -0.0062389997765421867 0.049823001027107239
  endloop
 endfacet
 facet normal -0.76982763443269642 -0.22592017190422492 0.59693005385097198
  outer loop
   vertex 0.0059239999391138554 -0.0056119998916983604 0.051332000643014908
   vertex 0.0060180001892149448 -0.0042730001732707024 0.051959998905658722
   vertex 0.0056440001353621483 -0.0036379999946802855 0.051718000322580338
  endloop
 endfacet
 facet normal -0.1272860793287901 -0.20770584736460207 0.9698744944474299
  outer loop
   vertex 0.0056440001353621483 -0.0036379999946802855 0.051718000322580338
   vertex 0.0026169999036937952 -0.0017969999462366104 0.051715001463890076
   vertex 0.0059239999391138554 -0.0056119998916983604 0.051332000643014908
  endloop
 endfacet
 facet normal 0.37458445200556362 -0.86218321771211925 -0.34106683716138086
  outer loop
   vertex 0.0047969999723136425 -0.0039980001747608185 0.044922001659870148
   vertex 0.0037070000544190407 -0.0062959999777376652 0.04953400045633316
   vertex 0.0025150000583380461 -0.006748999934643507 0.049369998276233673
  endloop
 endfacet
 facet normal 0.29858079190925552 -0.87261560773358293 -0.38651198149939858
  outer loop
   vertex 0.0025150000583380461 -0.006748999934643507 0.049369998276233673
   vertex 0.0031210000161081553 -0.0044820001348853111 0.044720001518726349
   vertex 0.0047969999723136425 -0.0039980001747608185 0.044922001659870148
  endloop
 endfacet
 facet normal 0.25345840752994209 -0.54377660453452437 -0.80004114895003331
  outer loop
   vertex 0.0047969999723136425 -0.0039980001747608185 0.044922001659870148
   vertex 0.0031210000161081553 -0.0044820001348853111 0.044720001518726349
   vertex 0.0035339999012649059 -0.0035979999229311943 0.044250000268220901
  endloop
 endfacet
 facet normal 0.13592190363621312 0.2137022987307883 -0.96739679740481099
  outer loop
   vertex 0.0048389998264610767 -0.0032279998995363712 0.045097999274730682
   vertex 0.0068959998898208141 -0.0031330001074820757 0.045407999306917191
   vertex 0.0047969999723136425 -0.0039980001747608185 0.044922001659870148
  endloop
 endfacet
 facet normal 0.50370778054707022 0.16628674112042732 -0.84771881632053703
  outer loop
   vertex 0.0047969999723136425 -0.0039980001747608185 0.044922001659870148
   vertex 0.0035339999012649059 -0.0035979999229311943 0.044250000268220901
   vertex 0.0048389998264610767 -0.0032279998995363712 0.045097999274730682
  endloop
 endfacet
 facet normal 0.061582112065704214 0.56017914931186341 -0.82607927231577727
  outer loop
   vertex 0.0076609998941421509 -0.0029899999499320984 0.045561999082565308
   vertex 0.0068959998898208141 -0.0031330001074820757 0.045407999306917191
   vertex 0.0058100000023841858 -0.00060400000074878335 0.047042001038789749
  endloop
 endfacet
 facet normal 0.096771835996641728 0.56912477173402221 -0.81653671439595177
  outer loop
   vertex 0.0048389998264610767 -0.0032279998995363712 0.045097999274730682
   vertex 0.0058100000023841858 -0.00060400000074878335 0.047042001038789749
   vertex 0.0068959998898208141 -0.0031330001074820757 0.045407999306917191
  endloop
 endfacet
 facet normal -0.37446542985469933 0.12936425589704226 0.91817238639589882
  outer loop
   vertex 0.0056440001353621483 -0.0036379999946802855 0.051718000322580338
   vertex 0.0060180001892149448 -0.0042730001732707024 0.051959998905658722
   vertex 0.0060519999824464321 -0.003258999902755022 0.051830999553203583
  endloop
 endfacet
 facet normal 0.16062668588153067 0.84777920773460236 0.50543989030903158
  outer loop
   vertex 0.0086099999025464058 -0.0026060000527650118 0.051385998725891113
   vertex 0.0092010004445910454 -0.00074099999619647861 0.048069998621940613
   vertex 0.0073339999653398991 0.00013499999477062374 0.047194000333547592
  endloop
 endfacet
 facet normal -0.59338728117548944 0.60767235325763724 -0.52785021135307486
  outer loop
   vertex 0.0068169999867677689 -0.00014400000509340316 0.047453999519348145
   vertex 0.0073339999653398991 0.00013499999477062374 0.047194000333547592
   vertex 0.0072679999284446239 -0.00023000000510364771 0.046847999095916748
  endloop
 endfacet
 facet normal 0.057416530292154412 0.8434971503151546 0.53405608269115667
  outer loop
   vertex 0.0073339999653398991 0.00013499999477062374 0.047194000333547592
   vertex 0.0064770001918077469 -0.0018149999668821692 0.050365999341011047
   vertex 0.0086099999025464058 -0.0026060000527650118 0.051385998725891113
  endloop
 endfacet
 facet normal -0.22824786772150027 0.85571466977105237 0.46438703127801439
  outer loop
   vertex 0.0073339999653398991 0.00013499999477062374 0.047194000333547592
   vertex 0.0068169999867677689 -0.00014400000509340316 0.047453999519348145
   vertex 0.0064770001918077469 -0.0018149999668821692 0.050365999341011047
  endloop
 endfacet
 facet normal -0.23079314681096144 0.9246285214369192 -0.30297957147383803
  outer loop
   vertex 0.0058109997771680355 -0.00020799999765586108 0.048025000840425491
   vertex 0.0068169999867677689 -0.00014400000509340316 0.047453999519348145
   vertex 0.0072679999284446239 -0.00023000000510364771 0.046847999095916748
  endloop
 endfacet
 facet normal -0.27643817445457119 0.89151467760179093 -0.35886420178780543
  outer loop
   vertex 0.0058109997771680355 -0.00020799999765586108 0.048025000840425491
   vertex 0.0072679999284446239 -0.00023000000510364771 0.046847999095916748
   vertex 0.0058100000023841858 -0.00060400000074878335 0.047042001038789749
  endloop
 endfacet
 facet normal 0.40788690057271909 0.84675108912618668 -0.34152726011959506
  outer loop
   vertex 0.0039530000649392605 0.00046800001291558146 0.047481998801231384
   vertex 0.0058109997771680355 -0.00020799999765586108 0.048025000840425491
   vertex 0.0058100000023841858 -0.00060400000074878335 0.047042001038789749
  endloop
 endfacet
 facet normal 0.30550558783223875 0.76301872557547024 -0.56962159388884093
  outer loop
   vertex 0.0058100000023841858 -0.00060400000074878335 0.047042001038789749
   vertex 0.0036190000828355551 -0.0010189999593421817 0.045311000198125839
   vertex 0.0039530000649392605 0.00046800001291558146 0.047481998801231384
  endloop
 endfacet
 facet normal 0.53262820980843162 0.36766884159154078 -0.76231674062623067
  outer loop
   vertex 0.0036190000828355551 -0.0010189999593421817 0.045311000198125839
   vertex 0.0058100000023841858 -0.00060400000074878335 0.047042001038789749
   vertex 0.0048389998264610767 -0.0032279998995363712 0.045097999274730682
  endloop
 endfacet
 facet normal -0.063539920122559476 0.71990783374076983 0.69115511245269035
  outer loop
   vertex 0.0086099999025464058 -0.0026060000527650118 0.051385998725891113
   vertex 0.0064770001918077469 -0.0018149999668821692 0.050365999341011047
   vertex 0.0060519999824464321 -0.003258999902755022 0.051830999553203583
  endloop
 endfacet
 facet normal -0.67994093832714797 0.61116987096211139 0.40515640093049693
  outer loop
   vertex 0.0064770001918077469 -0.0018149999668821692 0.050365999341011047
   vertex 0.0056440001353621483 -0.0036379999946802855 0.051718000322580338
   vertex 0.0060519999824464321 -0.003258999902755022 0.051830999553203583
  endloop
 endfacet
 facet normal 0.21847942278446456 0.7576210433152003 0.61504235345686131
  outer loop
   vertex 0.0064770001918077469 -0.0018149999668821692 0.050365999341011047
   vertex 0.0034370000939816236 0.0003499999875202775 0.048778999596834183
   vertex 0.0026169999036937952 -0.0017969999462366104 0.051715001463890076
  endloop
 endfacet
 facet normal 0.29134940283842931 0.4803886431019489 0.8272498274671074
  outer loop
   vertex 0.0056440001353621483 -0.0036379999946802855 0.051718000322580338
   vertex 0.0064770001918077469 -0.0018149999668821692 0.050365999341011047
   vertex 0.0026169999036937952 -0.0017969999462366104 0.051715001463890076
  endloop
 endfacet
 facet normal 0.17345963673693457 0.80204411903504591 0.57152164048650667
  outer loop
   vertex 0.00075499998638406396 -0.0011620000004768372 0.051389001309871674
   vertex 0.0026169999036937952 -0.0017969999462366104 0.051715001463890076
   vertex 0.0027199999894946814 3.7000001611886546e-05 0.049109999090433121
  endloop
 endfacet
 facet normal -0.092686466021477343 0.81588235102587114 0.5707409292322978
  outer loop
   vertex 0.0034370000939816236 0.0003499999875202775 0.048778999596834183
   vertex 0.0027199999894946814 3.7000001611886546e-05 0.049109999090433121
   vertex 0.0026169999036937952 -0.0017969999462366104 0.051715001463890076
  endloop
 endfacet
 facet normal 0.1301889868461997 0.72755781419643351 0.67358032535523782
  outer loop
   vertex 0.00089600001228973269 -0.0015269999857991934 0.051755998283624649
   vertex 0.0026169999036937952 -0.0017969999462366104 0.051715001463890076
   vertex 0.00075499998638406396 -0.0011620000004768372 0.051389001309871674
  endloop
 endfacet
 facet normal -0.023383698752749933 -0.29412953439278672 0.95547947106702558
  outer loop
   vertex 0.00089600001228973269 -0.0015269999857991934 0.051755998283624649
   vertex 0.0013689999468624592 -0.0050340001471340656 0.050687998533248901
   vertex 0.0026169999036937952 -0.0017969999462366104 0.051715001463890076
  endloop
 endfacet
 facet normal -0.29010693492405421 -0.31438925709809595 0.90387906344282465
  outer loop
   vertex 0.0013689999468624592 -0.0050340001471340656 0.050687998533248901
   vertex 0.00089600001228973269 -0.0015269999857991934 0.051755998283624649
   vertex 0.00062900001648813486 -0.0021230001002550125 0.051463000476360321
  endloop
 endfacet
 facet normal -0.92987561783581141 -0.14654890477922253 -0.33742370080134881
  outer loop
   vertex 0.0013419999741017818 -0.0023529999889433384 0.049598000943660736
   vertex 0.0013689999468624592 -0.0050340001471340656 0.050687998533248901
   vertex 0.00062900001648813486 -0.0021230001002550125 0.051463000476360321
  endloop
 endfacet
 facet normal -0.94053908638368489 -0.33938430520218038 -0.014301061742991613
  outer loop
   vertex 0.0016449999529868364 -0.005735000129789114 0.049171999096870422
   vertex 0.0017079999670386314 -0.0059460001066327095 0.050035998225212097
   vertex 0.0013689999468624592 -0.0050340001471340656 0.050687998533248901
  endloop
 endfacet
 facet normal -0.96548766763854199 0.11989196848352768 -0.23121306090061863
  outer loop
   vertex 0.0013689999468624592 -0.0050340001471340656 0.050687998533248901
   vertex 0.0018560000462457538 -0.0051910001784563065 0.048572998493909836
   vertex 0.0016449999529868364 -0.005735000129789114 0.049171999096870422
  endloop
 endfacet
 facet normal -0.98575389860623097 -0.071770808867917563 -0.15211246621188301
  outer loop
   vertex 0.0013689999468624592 -0.0050340001471340656 0.050687998533248901
   vertex 0.0013419999741017818 -0.0023529999889433384 0.049598000943660736
   vertex 0.0018710000440478325 -0.0045130001381039619 0.047189000993967056
  endloop
 endfacet
 facet normal -0.91598656686867397 -0.35628696368925228 -0.18446736519296197
  outer loop
   vertex 0.0018560000462457538 -0.0051910001784563065 0.048572998493909836
   vertex 0.0013689999468624592 -0.0050340001471340656 0.050687998533248901
   vertex 0.0018710000440478325 -0.0045130001381039619 0.047189000993967056
  endloop
 endfacet
 facet normal -0.74420407850048642 -0.65936517802588246 -0.10676072100795357
  outer loop
   vertex 0.0025150000583380461 -0.006748999934643507 0.049369998276233673
   vertex 0.0017079999670386314 -0.0059460001066327095 0.050035998225212097
   vertex 0.0016449999529868364 -0.005735000129789114 0.049171999096870422
  endloop
 endfacet
 facet normal -0.62806292259033392 -0.62847186445481051 -0.45886826089410709
  outer loop
   vertex 0.0018710000440478325 -0.0045130001381039619 0.047189000993967056
   vertex 0.0025150000583380461 -0.006748999934643507 0.049369998276233673
   vertex 0.0016449999529868364 -0.005735000129789114 0.049171999096870422
  endloop
 endfacet
 facet normal -0.72681586781793495 -0.57529824762231896 -0.3751941105224747
  outer loop
   vertex 0.0025150000583380461 -0.006748999934643507 0.049369998276233673
   vertex 0.0018710000440478325 -0.0045130001381039619 0.047189000993967056
   vertex 0.0031210000161081553 -0.0044820001348853111 0.044720001518726349
  endloop
 endfacet
 facet normal -0.65083788161798373 -0.096327005813391403 -0.75308111103787645
  outer loop
   vertex 0.0035339999012649059 -0.0035979999229311943 0.044250000268220901
   vertex 0.0031210000161081553 -0.0044820001348853111 0.044720001518726349
   vertex 0.0023690001107752323 -0.0016370000084862113 0.045005999505519867
  endloop
 endfacet
 facet normal -0.60068747822714008 -0.73551783332321874 -0.31334975724362196
  outer loop
   vertex 0.0021089999936521053 -0.0040759998373687267 0.045706998556852341
   vertex 0.0031210000161081553 -0.0044820001348853111 0.044720001518726349
   vertex 0.0018710000440478325 -0.0045130001381039619 0.047189000993967056
  endloop
 endfacet
 facet normal -0.71749619356616723 -0.12068701020030045 -0.68602759258427337
  outer loop
   vertex 0.0023690001107752323 -0.0016370000084862113 0.045005999505519867
   vertex 0.0031210000161081553 -0.0044820001348853111 0.044720001518726349
   vertex 0.0021089999936521053 -0.0040759998373687267 0.045706998556852341
  endloop
 endfacet
 facet normal 0.44777746496389059 0.32752599918541891 -0.83199883517232442
  outer loop
   vertex 0.0048389998264610767 -0.0032279998995363712 0.045097999274730682
   vertex 0.0035339999012649059 -0.0035979999229311943 0.044250000268220901
   vertex 0.0036190000828355551 -0.0010189999593421817 0.045311000198125839
  endloop
 endfacet
 facet normal 0.038163369830781134 0.37910804235730422 -0.92456511367408378
  outer loop
   vertex 0.0036190000828355551 -0.0010189999593421817 0.045311000198125839
   vertex 0.0035339999012649059 -0.0035979999229311943 0.044250000268220901
   vertex 0.0023690001107752323 -0.0016370000084862113 0.045005999505519867
  endloop
 endfacet
 facet normal 0.23336001948046775 0.83138545796669538 0.50432263640410191
  outer loop
   vertex 0.0068169999867677689 -0.00014400000509340316 0.047453999519348145
   vertex 0.0058109997771680355 -0.00020799999765586108 0.048025000840425491
   vertex 0.0064770001918077469 -0.0018149999668821692 0.050365999341011047
  endloop
 endfacet
 facet normal 0.3397775158797352 0.81770684730397392 0.46465767138269837
  outer loop
   vertex 0.0034370000939816236 0.0003499999875202775 0.048778999596834183
   vertex 0.0064770001918077469 -0.0018149999668821692 0.050365999341011047
   vertex 0.0058109997771680355 -0.00020799999765586108 0.048025000840425491
  endloop
 endfacet
 facet normal 0.28347216058513014 0.93828754203452391 0.19814142079840247
  outer loop
   vertex 0.0058109997771680355 -0.00020799999765586108 0.048025000840425491
   vertex 0.0039530000649392605 0.00046800001291558146 0.047481998801231384
   vertex 0.0034370000939816236 0.0003499999875202775 0.048778999596834183
  endloop
 endfacet
 facet normal 0.18870949535450887 0.90452601523433984 0.38238908735387989
  outer loop
   vertex 0.0039530000649392605 0.00046800001291558146 0.047481998801231384
   vertex 0.0021069999784231186 0.00052000000141561031 0.048269998282194138
   vertex 0.0027199999894946814 3.7000001611886546e-05 0.049109999090433121
  endloop
 endfacet
 facet normal 0.65824062028274244 0.57003719705747213 -0.49170812458271523
  outer loop
   vertex 0.0028460000175982714 0.00052399997366592288 0.046064998954534531
   vertex 0.0039530000649392605 0.00046800001291558146 0.047481998801231384
   vertex 0.0036190000828355551 -0.0010189999593421817 0.045311000198125839
  endloop
 endfacet
 facet normal -0.43334965461418729 0.89663715135360877 -0.09082893623867995
  outer loop
   vertex 0.0027199999894946814 3.7000001611886546e-05 0.049109999090433121
   vertex 0.0034370000939816236 0.0003499999875202775 0.048778999596834183
   vertex 0.0039530000649392605 0.00046800001291558146 0.047481998801231384
  endloop
 endfacet
 facet normal 0.18763095450002548 0.97628411996127085 -0.10799973159622377
  outer loop
   vertex 0.0028460000175982714 0.00052399997366592288 0.046064998954534531
   vertex 0.0026730000972747803 0.00066399999195709825 0.047029998153448105
   vertex 0.0039530000649392605 0.00046800001291558146 0.047481998801231384
  endloop
 endfacet
 facet normal 0.094907861652203981 0.98295251549417617 0.15747015615753207
  outer loop
   vertex 0.0026730000972747803 0.00066399999195709825 0.047029998153448105
   vertex 0.0021069999784231186 0.00052000000141561031 0.048269998282194138
   vertex 0.0039530000649392605 0.00046800001291558146 0.047481998801231384
  endloop
 endfacet
 facet normal 0.0017334892792990359 0.43974269823487633 -0.89812212664204483
  outer loop
   vertex 0.0036190000828355551 -0.0010189999593421817 0.045311000198125839
   vertex 0.0023690001107752323 -0.0016370000084862113 0.045005999505519867
   vertex 0.0028460000175982714 0.00052399997366592288 0.046064998954534531
  endloop
 endfacet
 facet normal -0.014563447829179637 0.89001982967165183 0.45568915806563898
  outer loop
   vertex 0.0027199999894946814 3.7000001611886546e-05 0.049109999090433121
   vertex 0.0010239999974146485 -0.00023600000713486224 0.049589000642299652
   vertex 0.00075499998638406396 -0.0011620000004768372 0.051389001309871674
  endloop
 endfacet
 facet normal -0.86359685949174925 0.1502874400518602 0.48126307736896506
  outer loop
   vertex 0.00089600001228973269 -0.0015269999857991934 0.051755998283624649
   vertex 0.00075499998638406396 -0.0011620000004768372 0.051389001309871674
   vertex 0.00062900001648813486 -0.0021230001002550125 0.051463000476360321
  endloop
 endfacet
 facet normal -0.98879175958507848 0.12314337687960342 -0.084418984282757875
  outer loop
   vertex 0.00062900001648813486 -0.0021230001002550125 0.051463000476360321
   vertex 0.00075499998638406396 -0.0011620000004768372 0.051389001309871674
   vertex 0.0010239999974146485 -0.00023600000713486224 0.049589000642299652
  endloop
 endfacet
 facet normal 0.0010283603654194452 0.86723016192218982 0.49790640558981708
  outer loop
   vertex 0.0021069999784231186 0.00052000000141561031 0.048269998282194138
   vertex 0.0010239999974146485 -0.00023600000713486224 0.049589000642299652
   vertex 0.0027199999894946814 3.7000001611886546e-05 0.049109999090433121
  endloop
 endfacet
 facet normal -0.93039221162337915 -0.14119477541289821 -0.33828149217280351
  outer loop
   vertex 0.0010239999974146485 -0.00023600000713486224 0.049589000642299652
   vertex 0.0013419999741017818 -0.0023529999889433384 0.049598000943660736
   vertex 0.00062900001648813486 -0.0021230001002550125 0.051463000476360321
  endloop
 endfacet
 facet normal -0.96992091732259844 -0.146520711063542 -0.19438388659949005
  outer loop
   vertex 0.0013419999741017818 -0.0023529999889433384 0.049598000943660736
   vertex 0.0010239999974146485 -0.00023600000713486224 0.049589000642299652
   vertex 0.001373999984934926 0.00038700000732205808 0.047373000532388687
  endloop
 endfacet
 facet normal -0.98675656134624878 -0.095152331512393593 -0.13136788971389535
  outer loop
   vertex 0.0013419999741017818 -0.0023529999889433384 0.049598000943660736
   vertex 0.001373999984934926 0.00038700000732205808 0.047373000532388687
   vertex 0.0018710000440478325 -0.0045130001381039619 0.047189000993967056
  endloop
 endfacet
 facet normal -0.7417534920648069 0.60542598832617744 0.28855004707838061
  outer loop
   vertex 0.0018710000440478325 -0.0045130001381039619 0.047189000993967056
   vertex 0.0016449999529868364 -0.005735000129789114 0.049171999096870422
   vertex 0.0018560000462457538 -0.0051910001784563065 0.048572998493909836
  endloop
 endfacet
 facet normal -0.85217922052493011 -0.066948297819816441 -0.5189494209694735
  outer loop
   vertex 0.0018710000440478325 -0.0045130001381039619 0.047189000993967056
   vertex 0.001373999984934926 0.00038700000732205808 0.047373000532388687
   vertex 0.0023020000662654638 -0.0039840000681579113 0.046413000673055649
  endloop
 endfacet
 facet normal -0.69649019445075078 0.71087510111501939 0.097765022623974379
  outer loop
   vertex 0.0021089999936521053 -0.0040759998373687267 0.045706998556852341
   vertex 0.0018710000440478325 -0.0045130001381039619 0.047189000993967056
   vertex 0.0023020000662654638 -0.0039840000681579113 0.046413000673055649
  endloop
 endfacet
 facet normal -0.95589311606081317 0.17061386749673826 0.2390800261112461
  outer loop
   vertex 0.0023020000662654638 -0.0039840000681579113 0.046413000673055649
   vertex 0.0023690001107752323 -0.0016370000084862113 0.045005999505519867
   vertex 0.0021089999936521053 -0.0040759998373687267 0.045706998556852341
  endloop
 endfacet
 facet normal -0.94989231818289599 -0.14032577909889515 -0.27930853831813307
  outer loop
   vertex 0.0023690001107752323 -0.0016370000084862113 0.045005999505519867
   vertex 0.0023020000662654638 -0.0039840000681579113 0.046413000673055649
   vertex 0.001373999984934926 0.00038700000732205808 0.047373000532388687
  endloop
 endfacet
 facet normal -0.6156013933952218 0.45217353777368907 -0.645425453625039
  outer loop
   vertex 0.0023690001107752323 -0.0016370000084862113 0.045005999505519867
   vertex 0.001373999984934926 0.00038700000732205808 0.047373000532388687
   vertex 0.0028460000175982714 0.00052399997366592288 0.046064998954534531
  endloop
 endfacet
 facet normal 0.30220299132994227 0.92124135392779816 0.24492390623316471
  outer loop
   vertex 0.0026730000972747803 0.00066399999195709825 0.047029998153448105
   vertex 0.00216299993917346 0.00077599997166544199 0.047237999737262726
   vertex 0.0021069999784231186 0.00052000000141561031 0.048269998282194138
  endloop
 endfacet
 facet normal -0.38221160182424924 0.90152547371775404 0.20289433621695999
  outer loop
   vertex 0.00216299993917346 0.00077599997166544199 0.047237999737262726
   vertex 0.0010239999974146485 -0.00023600000713486224 0.049589000642299652
   vertex 0.0021069999784231186 0.00052000000141561031 0.048269998282194138
  endloop
 endfacet
 facet normal -0.25099184765636223 0.95055270773360867 -0.18290063485496769
  outer loop
   vertex 0.0026730000972747803 0.00066399999195709825 0.047029998153448105
   vertex 0.0028460000175982714 0.00052399997366592288 0.046064998954534531
   vertex 0.001373999984934926 0.00038700000732205808 0.047373000532388687
  endloop
 endfacet
 facet normal -0.30288432187042985 0.30045613726744325 -0.90442644650818182
  outer loop
   vertex 0.001373999984934926 0.00038700000732205808 0.047373000532388687
   vertex 0.00216299993917346 0.00077599997166544199 0.047237999737262726
   vertex 0.0026730000972747803 0.00066399999195709825 0.047029998153448105
  endloop
 endfacet
 facet normal -0.40855709074936553 0.89344399353438864 0.18665190600617457
  outer loop
   vertex 0.001373999984934926 0.00038700000732205808 0.047373000532388687
   vertex 0.0010239999974146485 -0.00023600000713486224 0.049589000642299652
   vertex 0.00216299993917346 0.00077599997166544199 0.047237999737262726
  endloop
 endfacet
endsolid
