solid Visualization Toolkit generated SLA File
 facet normal 0.40233136975116096 0.43049018806864808 0.8079651396506996
  outer loop
   vertex 0.040697000920772552 -0.00023099999816622585 0.028596999123692513
   vertex 0.045127000659704208 -0.0012199999764561653 0.026917999610304832
   vertex 0.043003998696804047 0.00062900001648813486 0.026990000158548355
  endloop
 endfacet
 facet normal 0.080794478597699546 0.82591082103432856 0.55798169139007348
  outer loop
   vertex 0.040697000920772552 -0.00023099999816622585 0.028596999123692513
   vertex 0.043003998696804047 0.00062900001648813486 0.026990000158548355
   vertex 0.038619000464677811 0.0014140000566840172 0.026463000103831291
  endloop
 endfacet
 facet normal 0.39455791444523214 0.28348105727924533 0.87404950792988267
  outer loop
   vertex 0.045127000659704208 -0.0012199999764561653 0.026917999610304832
   vertex 0.040697000920772552 -0.00023099999816622585 0.028596999123692513
   vertex 0.043570999056100845 -0.0061889998614788055 0.029231999069452286
  endloop
 endfacet
 facet normal 0.34064763708017964 0.26059919890479821 0.90335333335404677
  outer loop
   vertex 0.040697000920772552 -0.00023099999816622585 0.028596999123692513
   vertex 0.039868999272584915 -0.0065009999088943005 0.0307180006057024
   vertex 0.043570999056100845 -0.0061889998614788055 0.029231999069452286
  endloop
 endfacet
 facet normal 0.13204313611192606 0.30194326818349942 0.94413710498231918
  outer loop
   vertex 0.040697000920772552 -0.00023099999816622585 0.028596999123692513
   vertex 0.038561001420021057 -0.0048940000124275684 0.030386999249458313
   vertex 0.039868999272584915 -0.0065009999088943005 0.0307180006057024
  endloop
 endfacet
 facet normal -0.2228712743123499 0.43666728886437189 0.87157906923137418
  outer loop
   vertex 0.038561001420021057 -0.0048940000124275684 0.030386999249458313
   vertex 0.040697000920772552 -0.00023099999816622585 0.028596999123692513
   vertex 0.03830999881029129 -0.0011060000397264957 0.028425000607967377
  endloop
 endfacet
 facet normal -0.081645608369998013 0.74933923183838047 0.65713370805472981
  outer loop
   vertex 0.038619000464677811 0.0014140000566840172 0.026463000103831291
   vertex 0.038957998156547546 0.00052399997366592288 0.027519999071955681
   vertex 0.040697000920772552 -0.00023099999816622585 0.028596999123692513
  endloop
 endfacet
 facet normal -0.25735902102060298 0.54525537319934991 0.79778625727481312
  outer loop
   vertex 0.03830999881029129 -0.0011060000397264957 0.028425000607967377
   vertex 0.040697000920772552 -0.00023099999816622585 0.028596999123692513
   vertex 0.038957998156547546 0.00052399997366592288 0.027519999071955681
  endloop
 endfacet
 facet normal 0.65624450896385778 0.7542785340304976 -0.020175171761068911
  outer loop
   vertex 0.041969001293182373 0.0014639999717473984 0.024542000144720078
   vertex 0.043003998696804047 0.00062900001648813486 0.026990000158548355
   vertex 0.045127000659704208 -0.0012199999764561653 0.026917999610304832
  endloop
 endfacet
 facet normal 0.99245063209777484 0.1226094813044353 0.0029424382720068228
  outer loop
   vertex 0.045602999627590179 -0.0050699999555945396 0.026796000078320503
   vertex 0.0455159991979599 -0.0042300000786781311 0.02113799937069416
   vertex 0.045127000659704208 -0.0012199999764561653 0.026917999610304832
  endloop
 endfacet
 facet normal 0.70582591539112127 0.69051682053931707 -0.15810217492039214
  outer loop
   vertex 0.041969001293182373 0.0014639999717473984 0.024542000144720078
   vertex 0.045127000659704208 -0.0012199999764561653 0.026917999610304832
   vertex 0.045295000076293945 -0.0037640000227838755 0.016557000577449799
  endloop
 endfacet
 facet normal 0.98279665303672037 0.18242281792368267 -0.028855749524202095
  outer loop
   vertex 0.045295000076293945 -0.0037640000227838755 0.016557000577449799
   vertex 0.045127000659704208 -0.0012199999764561653 0.026917999610304832
   vertex 0.0455159991979599 -0.0042300000786781311 0.02113799937069416
  endloop
 endfacet
 facet normal 0.7494571608180115 0.071804455570826528 0.65814746391578727
  outer loop
   vertex 0.045602999627590179 -0.0050699999555945396 0.026796000078320503
   vertex 0.045127000659704208 -0.0012199999764561653 0.026917999610304832
   vertex 0.043570999056100845 -0.0061889998614788055 0.029231999069452286
  endloop
 endfacet
 facet normal 0.13868974602677761 0.95375324111670023 0.26668316296012634
  outer loop
   vertex 0.038619000464677811 0.0014140000566840172 0.026463000103831291
   vertex 0.043003998696804047 0.00062900001648813486 0.026990000158548355
   vertex 0.041969001293182373 0.0014639999717473984 0.024542000144720078
  endloop
 endfacet
 facet normal 0.030295770084367839 0.95509796112837519 0.29473725750813345
  outer loop
   vertex 0.036848999559879303 0.00065699999686330557 0.029098000377416611
   vertex 0.038619000464677811 0.0014140000566840172 0.026463000103831291
   vertex 0.023902000859379768 0.0044689998030662537 0.018076000735163689
  endloop
 endfacet
 facet normal -0.52103529279917593 0.56321483013610019 0.64133554304470053
  outer loop
   vertex 0.038957998156547546 0.00052399997366592288 0.027519999071955681
   vertex 0.038619000464677811 0.0014140000566840172 0.026463000103831291
   vertex 0.03830999881029129 -0.0011060000397264957 0.028425000607967377
  endloop
 endfacet
 facet normal 0.094469301291559241 0.9771938883910174 0.19017795772572749
  outer loop
   vertex 0.038619000464677811 0.0014140000566840172 0.026463000103831291
   vertex 0.041969001293182373 0.0014639999717473984 0.024542000144720078
   vertex 0.023902000859379768 0.0044689998030662537 0.018076000735163689
  endloop
 endfacet
 facet normal 0.71829479437340438 0.37043953881455938 0.58892031418429214
  outer loop
   vertex 0.036848999559879303 0.00065699999686330557 0.029098000377416611
   vertex 0.03830999881029129 -0.0011060000397264957 0.028425000607967377
   vertex 0.038619000464677811 0.0014140000566840172 0.026463000103831291
  endloop
 endfacet
 facet normal 0.78130418385562461 -0.42626293113996827 0.45592070124711265
  outer loop
   vertex 0.045602999627590179 -0.0050699999555945396 0.026796000078320503
   vertex 0.043570999056100845 -0.0061889998614788055 0.029231999069452286
   vertex 0.043058998882770538 -0.0080890003591775894 0.028333000838756561
  endloop
 endfacet
 facet normal 0.38799585903893735 -0.47754278209561152 0.78829696475187605
  outer loop
   vertex 0.040134001523256302 -0.0084119997918605804 0.029577000066637993
   vertex 0.043058998882770538 -0.0080890003591775894 0.028333000838756561
   vertex 0.043570999056100845 -0.0061889998614788055 0.029231999069452286
  endloop
 endfacet
 facet normal 0.36631487158890075 -0.43903919744145192 0.82040112016182221
  outer loop
   vertex 0.043570999056100845 -0.0061889998614788055 0.029231999069452286
   vertex 0.039868999272584915 -0.0065009999088943005 0.0307180006057024
   vertex 0.040134001523256302 -0.0084119997918605804 0.029577000066637993
  endloop
 endfacet
 facet normal -0.44972217763838335 -0.1861140472241645 0.87356254748359707
  outer loop
   vertex 0.038846001029014587 -0.0080140000209212303 0.029868999496102333
   vertex 0.039868999272584915 -0.0065009999088943005 0.0307180006057024
   vertex 0.038561001420021057 -0.0048940000124275684 0.030386999249458313
  endloop
 endfacet
 facet normal 0.037937975867144695 -0.50839209844917432 0.86028959323099397
  outer loop
   vertex 0.038846001029014587 -0.0080140000209212303 0.029868999496102333
   vertex 0.040134001523256302 -0.0084119997918605804 0.029577000066637993
   vertex 0.039868999272584915 -0.0065009999088943005 0.0307180006057024
  endloop
 endfacet
 facet normal -0.88392984212899006 -0.15404666312047141 0.44151745126921826
  outer loop
   vertex 0.038846001029014587 -0.0080140000209212303 0.029868999496102333
   vertex 0.038561001420021057 -0.0048940000124275684 0.030386999249458313
   vertex 0.037174001336097717 -0.0034930000547319651 0.028099000453948975
  endloop
 endfacet
 facet normal -0.88564508292786392 -0.17308544447521526 0.43089931074035631
  outer loop
   vertex 0.036848999559879303 0.00065699999686330557 0.029098000377416611
   vertex 0.037174001336097717 -0.0034930000547319651 0.028099000453948975
   vertex 0.038561001420021057 -0.0048940000124275684 0.030386999249458313
  endloop
 endfacet
 facet normal 0.71185729890178029 0.35962989879727253 0.60326239887077726
  outer loop
   vertex 0.03830999881029129 -0.0011060000397264957 0.028425000607967377
   vertex 0.036848999559879303 0.00065699999686330557 0.029098000377416611
   vertex 0.038561001420021057 -0.0048940000124275684 0.030386999249458313
  endloop
 endfacet
 facet normal 0.29668244535945987 0.85090006297018406 -0.43353040199375631
  outer loop
   vertex 0.023902000859379768 0.0044689998030662537 0.018076000735163689
   vertex 0.041969001293182373 0.0014639999717473984 0.024542000144720078
   vertex 0.045295000076293945 -0.0037640000227838755 0.016557000577449799
  endloop
 endfacet
 facet normal 0.89036364113391375 -0.44812637123115856 -0.080220583106539886
  outer loop
   vertex 0.044174998998641968 -0.0077829998917877674 0.026102000847458839
   vertex 0.0455159991979599 -0.0042300000786781311 0.02113799937069416
   vertex 0.045602999627590179 -0.0050699999555945396 0.026796000078320503
  endloop
 endfacet
 facet normal 0.79793556054174974 -0.50440357295031069 0.32996344769971725
  outer loop
   vertex 0.044174998998641968 -0.0077829998917877674 0.026102000847458839
   vertex 0.045602999627590179 -0.0050699999555945396 0.026796000078320503
   vertex 0.043058998882770538 -0.0080890003591775894 0.028333000838756561
  endloop
 endfacet
 facet normal 0.64603495641181263 -0.69247521625617325 -0.32111821805209589
  outer loop
   vertex 0.042461000382900238 -0.0074140001088380814 0.021857999265193939
   vertex 0.0455159991979599 -0.0042300000786781311 0.02113799937069416
   vertex 0.044174998998641968 -0.0077829998917877674 0.026102000847458839
  endloop
 endfacet
 facet normal 0.61213177222921444 -0.43853379644427881 0.65801428768962844
  outer loop
   vertex 0.0455159991979599 -0.0042300000786781311 0.02113799937069416
   vertex 0.042461000382900238 -0.0074140001088380814 0.021857999265193939
   vertex 0.0438230000436306 -0.0090960003435611725 0.019470000639557838
  endloop
 endfacet
 facet normal 0.94142162991232203 -0.33626962592910759 0.025456893186818725
  outer loop
   vertex 0.044109001755714417 -0.0085389995947480202 0.016250999644398689
   vertex 0.0455159991979599 -0.0042300000786781311 0.02113799937069416
   vertex 0.0438230000436306 -0.0090960003435611725 0.019470000639557838
  endloop
 endfacet
 facet normal 0.96912980351858635 -0.2361734666079858 -0.070777945734480097
  outer loop
   vertex 0.044109001755714417 -0.0085389995947480202 0.016250999644398689
   vertex 0.045295000076293945 -0.0037640000227838755 0.016557000577449799
   vertex 0.0455159991979599 -0.0042300000786781311 0.02113799937069416
  endloop
 endfacet
 facet normal 0.46313901465935708 -0.058359470842318954 -0.88436215729946543
  outer loop
   vertex 0.04147300124168396 -0.0047880001366138458 0.014623000286519527
   vertex 0.045295000076293945 -0.0037640000227838755 0.016557000577449799
   vertex 0.044109001755714417 -0.0085389995947480202 0.016250999644398689
  endloop
 endfacet
 facet normal 0.19770273449375927 0.64922694771630896 -0.73445081464496653
  outer loop
   vertex 0.045295000076293945 -0.0037640000227838755 0.016557000577449799
   vertex 0.04147300124168396 -0.0047880001366138458 0.014623000286519527
   vertex 0.023902000859379768 0.0044689998030662537 0.018076000735163689
  endloop
 endfacet
 facet normal 0.19277967338403748 0.97497213159281348 0.11074899614583124
  outer loop
   vertex 0.036848999559879303 0.00065699999686330557 0.029098000377416611
   vertex 0.023902000859379768 0.0044689998030662537 0.018076000735163689
   vertex 0.025537999346852303 0.0029670000076293945 0.028450999408960342
  endloop
 endfacet
 facet normal -0.0066736392344411187 0.239267368284931 0.97093078487262519
  outer loop
   vertex 0.025678999722003937 -3.600000127335079e-05 0.0291920006275177
   vertex 0.036848999559879303 0.00065699999686330557 0.029098000377416611
   vertex 0.025537999346852303 0.0029670000076293945 0.028450999408960342
  endloop
 endfacet
 facet normal 0.022595450542167314 -0.23230470819876942 0.97238056755751812
  outer loop
   vertex 0.036848999559879303 0.00065699999686330557 0.029098000377416611
   vertex 0.025678999722003937 -3.600000127335079e-05 0.0291920006275177
   vertex 0.037174001336097717 -0.0034930000547319651 0.028099000453948975
  endloop
 endfacet
 facet normal 0.15326692655697527 0.19710640635985863 -0.96832758599333568
  outer loop
   vertex 0.023902000859379768 0.0044689998030662537 0.018076000735163689
   vertex 0.023653000593185425 0.00013800000306218863 0.017154999077320099
   vertex 0.021123999729752541 0.0052290000021457672 0.017790999263525009
  endloop
 endfacet
 facet normal -0.016022075390831666 0.32260831628226577 -0.94639693964302962
  outer loop
   vertex 0.023902000859379768 0.0044689998030662537 0.018076000735163689
   vertex 0.04147300124168396 -0.0047880001366138458 0.014623000286519527
   vertex 0.035950999706983566 -0.0037040000315755606 0.015085999853909016
  endloop
 endfacet
 facet normal 0.62333463613669415 0.78181337079251367 0.014892435743776463
  outer loop
   vertex 0.025537999346852303 0.0029670000076293945 0.028450999408960342
   vertex 0.023902000859379768 0.0044689998030662537 0.018076000735163689
   vertex 0.021415999159216881 0.0063299997709691525 0.024431999772787094
  endloop
 endfacet
 facet normal 0.46324328059961389 0.88285289385805277 -0.077307378598482607
  outer loop
   vertex 0.021415999159216881 0.0063299997709691525 0.024431999772787094
   vertex 0.023902000859379768 0.0044689998030662537 0.018076000735163689
   vertex 0.021247999742627144 0.0059650000184774399 0.019256999716162682
  endloop
 endfacet
 facet normal 0.27832581244399929 0.84873594535482277 -0.44964656919634449
  outer loop
   vertex 0.021123999729752541 0.0052290000021457672 0.017790999263525009
   vertex 0.021247999742627144 0.0059650000184774399 0.019256999716162682
   vertex 0.023902000859379768 0.0044689998030662537 0.018076000735163689
  endloop
 endfacet
 facet normal -0.097241559009097756 0.21236217701637425 -0.97234067331072105
  outer loop
   vertex 0.023902000859379768 0.0044689998030662537 0.018076000735163689
   vertex 0.035950999706983566 -0.0037040000315755606 0.015085999853909016
   vertex 0.023653000593185425 0.00013800000306218863 0.017154999077320099
  endloop
 endfacet
 facet normal 0.50307285469226914 -0.85370503722059443 0.13455635360678742
  outer loop
   vertex 0.04171999916434288 -0.0090239997953176498 0.027406999841332436
   vertex 0.044174998998641968 -0.0077829998917877674 0.026102000847458839
   vertex 0.043058998882770538 -0.0080890003591775894 0.028333000838756561
  endloop
 endfacet
 facet normal 0.28365808529963693 -0.84856024787892648 0.44663586551440171
  outer loop
   vertex 0.04171999916434288 -0.0090239997953176498 0.027406999841332436
   vertex 0.043058998882770538 -0.0080890003591775894 0.028333000838756561
   vertex 0.040134001523256302 -0.0084119997918605804 0.029577000066637993
  endloop
 endfacet
 facet normal -0.1280559858523686 -0.97503726316957062 0.18139459726841706
  outer loop
   vertex 0.040134001523256302 -0.0084119997918605804 0.029577000066637993
   vertex 0.039174001663923264 -0.0085540004074573517 0.028136000037193298
   vertex 0.04171999916434288 -0.0090239997953176498 0.027406999841332436
  endloop
 endfacet
 facet normal -0.23408344874709322 -0.93990357311645356 0.24856832514540239
  outer loop
   vertex 0.039174001663923264 -0.0085540004074573517 0.028136000037193298
   vertex 0.040134001523256302 -0.0084119997918605804 0.029577000066637993
   vertex 0.038846001029014587 -0.0080140000209212303 0.029868999496102333
  endloop
 endfacet
 facet normal -0.87845610762697612 -0.47750343725738709 -0.017473819852661849
  outer loop
   vertex 0.039174001663923264 -0.0085540004074573517 0.028136000037193298
   vertex 0.038846001029014587 -0.0080140000209212303 0.029868999496102333
   vertex 0.03767399862408638 -0.0056280000135302544 0.023586999624967575
  endloop
 endfacet
 facet normal -0.94302921877453272 -0.3287677288464339 0.051065379726897141
  outer loop
   vertex 0.03767399862408638 -0.0056280000135302544 0.023586999624967575
   vertex 0.038846001029014587 -0.0080140000209212303 0.029868999496102333
   vertex 0.037174001336097717 -0.0034930000547319651 0.028099000453948975
  endloop
 endfacet
 facet normal -0.12135687171158888 -0.90236434477924687 0.41353488239747993
  outer loop
   vertex 0.03767399862408638 -0.0056280000135302544 0.023586999624967575
   vertex 0.037174001336097717 -0.0034930000547319651 0.028099000453948975
   vertex 0.025838000699877739 -0.001879999996162951 0.028292000293731689
  endloop
 endfacet
 facet normal -0.047555486010582071 -0.44142820904632246 0.89603549706942598
  outer loop
   vertex 0.037174001336097717 -0.0034930000547319651 0.028099000453948975
   vertex 0.025678999722003937 -3.600000127335079e-05 0.0291920006275177
   vertex 0.025838000699877739 -0.001879999996162951 0.028292000293731689
  endloop
 endfacet
 facet normal 0.34510694615083026 -0.91271943721838389 -0.21873368428800444
  outer loop
   vertex 0.042461000382900238 -0.0074140001088380814 0.021857999265193939
   vertex 0.044174998998641968 -0.0077829998917877674 0.026102000847458839
   vertex 0.04171999916434288 -0.0090239997953176498 0.027406999841332436
  endloop
 endfacet
 facet normal 0.15033354695208137 -0.59694688860610523 0.78806994413205267
  outer loop
   vertex 0.040295999497175217 -0.0077479998581111431 0.022018000483512878
   vertex 0.040849998593330383 -0.010731999762356281 0.019651999697089195
   vertex 0.042461000382900238 -0.0074140001088380814 0.021857999265193939
  endloop
 endfacet
 facet normal 0.38956605353687163 -0.63357188311517409 0.66844966815580031
  outer loop
   vertex 0.042461000382900238 -0.0074140001088380814 0.021857999265193939
   vertex 0.040849998593330383 -0.010731999762356281 0.019651999697089195
   vertex 0.0438230000436306 -0.0090960003435611725 0.019470000639557838
  endloop
 endfacet
 facet normal 0.12837208383083637 -0.95690268670415979 -0.26049540547059391
  outer loop
   vertex 0.04171999916434288 -0.0090239997953176498 0.027406999841332436
   vertex 0.040295999497175217 -0.0077479998581111431 0.022018000483512878
   vertex 0.042461000382900238 -0.0074140001088380814 0.021857999265193939
  endloop
 endfacet
 facet normal 0.48337882488785078 -0.86054101173395747 0.16066760337397579
  outer loop
   vertex 0.040849998593330383 -0.010731999762356281 0.019651999697089195
   vertex 0.043570000678300858 -0.0097200004383921623 0.016889000311493874
   vertex 0.0438230000436306 -0.0090960003435611725 0.019470000639557838
  endloop
 endfacet
 facet normal 0.91170304546199166 -0.41072972579061889 0.009932232744582636
  outer loop
   vertex 0.044109001755714417 -0.0085389995947480202 0.016250999644398689
   vertex 0.0438230000436306 -0.0090960003435611725 0.019470000639557838
   vertex 0.043570000678300858 -0.0097200004383921623 0.016889000311493874
  endloop
 endfacet
 facet normal 0.32015310466186064 -0.17879766252006629 -0.93034046749173072
  outer loop
   vertex 0.04147300124168396 -0.0047880001366138458 0.014623000286519527
   vertex 0.044109001755714417 -0.0085389995947480202 0.016250999644398689
   vertex 0.04175800085067749 -0.010120999999344349 0.015745999291539192
  endloop
 endfacet
 facet normal 0.52317425820803654 -0.57739459686944972 -0.62682068811936653
  outer loop
   vertex 0.044109001755714417 -0.0085389995947480202 0.016250999644398689
   vertex 0.043570000678300858 -0.0097200004383921623 0.016889000311493874
   vertex 0.04175800085067749 -0.010120999999344349 0.015745999291539192
  endloop
 endfacet
 facet normal 0.026502722699224709 -0.16533216140344942 -0.98588177896499929
  outer loop
   vertex 0.039000000804662704 -0.010253000073134899 0.015472999773919582
   vertex 0.037246000021696091 -0.0089480001479387283 0.015207000076770782
   vertex 0.04147300124168396 -0.0047880001366138458 0.014623000286519527
  endloop
 endfacet
 facet normal 0.10597331033458142 -0.19947022076418466 -0.97415670634914686
  outer loop
   vertex 0.04147300124168396 -0.0047880001366138458 0.014623000286519527
   vertex 0.04175800085067749 -0.010120999999344349 0.015745999291539192
   vertex 0.039000000804662704 -0.010253000073134899 0.015472999773919582
  endloop
 endfacet
 facet normal -0.092383476082309082 -0.045765077324755168 -0.99467122761463678
  outer loop
   vertex 0.037246000021696091 -0.0089480001479387283 0.015207000076770782
   vertex 0.035950999706983566 -0.0037040000315755606 0.015085999853909016
   vertex 0.04147300124168396 -0.0047880001366138458 0.014623000286519527
  endloop
 endfacet
 facet normal 0.32176470216719294 0.32462982277419195 0.8894284426556498
  outer loop
   vertex 0.018262999132275581 0.0044680000282824039 0.030534999445080757
   vertex 0.017746999859809875 -0.00089199998183175921 0.032678000628948212
   vertex 0.025537999346852303 0.0029670000076293945 0.028450999408960342
  endloop
 endfacet
 facet normal 0.29644998332886474 0.85992186795559977 0.41551388472115786
  outer loop
   vertex 0.021415999159216881 0.0063299997709691525 0.024431999772787094
   vertex 0.018262999132275581 0.0044680000282824039 0.030534999445080757
   vertex 0.025537999346852303 0.0029670000076293945 0.028450999408960342
  endloop
 endfacet
 facet normal 0.36895935091036391 0.23895856818663916 0.89820253844330356
  outer loop
   vertex 0.025537999346852303 0.0029670000076293945 0.028450999408960342
   vertex 0.017746999859809875 -0.00089199998183175921 0.032678000628948212
   vertex 0.025678999722003937 -3.600000127335079e-05 0.0291920006275177
  endloop
 endfacet
 facet normal 0.40681443699313707 -0.37211204080532495 0.83428690685018736
  outer loop
   vertex 0.025838000699877739 -0.001879999996162951 0.028292000293731689
   vertex 0.025678999722003937 -3.600000127335079e-05 0.0291920006275177
   vertex 0.017746999859809875 -0.00089199998183175921 0.032678000628948212
  endloop
 endfacet
 facet normal 0.2481583717090286 0.24050455254453579 -0.93838956875919932
  outer loop
   vertex 0.021123999729752541 0.0052290000021457672 0.017790999263525009
   vertex 0.023653000593185425 0.00013800000306218863 0.017154999077320099
   vertex 0.015969999134540558 0.00026199998683296144 0.015154999680817127
  endloop
 endfacet
 facet normal -0.27073169073250763 -0.39346490390930888 -0.87857254738852164
  outer loop
   vertex 0.035950999706983566 -0.0037040000315755606 0.015085999853909016
   vertex 0.031021000817418098 -0.0042730001732707024 0.016860000789165497
   vertex 0.023653000593185425 0.00013800000306218863 0.017154999077320099
  endloop
 endfacet
 facet normal -0.057946780467540857 -0.03005731192968392 -0.99786708966325177
  outer loop
   vertex 0.023653000593185425 0.00013800000306218863 0.017154999077320099
   vertex 0.031021000817418098 -0.0042730001732707024 0.016860000789165497
   vertex 0.019953999668359756 -0.0044499998912215233 0.017508000135421753
  endloop
 endfacet
 facet normal 0.23894450747029039 -0.26453078281282372 -0.93430668802819505
  outer loop
   vertex 0.023653000593185425 0.00013800000306218863 0.017154999077320099
   vertex 0.019953999668359756 -0.0044499998912215233 0.017508000135421753
   vertex 0.015969999134540558 0.00026199998683296144 0.015154999680817127
  endloop
 endfacet
 facet normal -0.0076095722186314699 0.89392657483412086 -0.44814882931453315
  outer loop
   vertex 0.021123999729752541 0.0052290000021457672 0.017790999263525009
   vertex 0.01856599934399128 0.0053110001608729362 0.017998000606894493
   vertex 0.021247999742627144 0.0059650000184774399 0.019256999716162682
  endloop
 endfacet
 facet normal -0.05308339486307298 0.51053863614162542 -0.85821469003767359
  outer loop
   vertex 0.015969999134540558 0.00026199998683296144 0.015154999680817127
   vertex 0.01856599934399128 0.0053110001608729362 0.017998000606894493
   vertex 0.021123999729752541 0.0052290000021457672 0.017790999263525009
  endloop
 endfacet
 facet normal -0.27921586279111332 -0.35830606585863267 -0.89087331598534436
  outer loop
   vertex 0.035950999706983566 -0.0037040000315755606 0.015085999853909016
   vertex 0.035346999764442444 -0.0061150002293288708 0.016245000064373016
   vertex 0.031021000817418098 -0.0042730001732707024 0.016860000789165497
  endloop
 endfacet
 facet normal -0.66583368436655288 -0.18112746429254664 -0.72378059275018836
  outer loop
   vertex 0.035950999706983566 -0.0037040000315755606 0.015085999853909016
   vertex 0.037246000021696091 -0.0089480001479387283 0.015207000076770782
   vertex 0.035346999764442444 -0.0061150002293288708 0.016245000064373016
  endloop
 endfacet
 facet normal 0.42032152652608434 0.78422842232383938 0.4564160338531546
  outer loop
   vertex 0.018262999132275581 0.0044680000282824039 0.030534999445080757
   vertex 0.021415999159216881 0.0063299997709691525 0.024431999772787094
   vertex 0.016790999099612236 0.0071879997849464417 0.027217000722885132
  endloop
 endfacet
 facet normal 0.16172587141467462 0.98620580902699573 -0.035254003411994042
  outer loop
   vertex 0.016790999099612236 0.0071879997849464417 0.027217000722885132
   vertex 0.021415999159216881 0.0063299997709691525 0.024431999772787094
   vertex 0.017083000391721725 0.0068589998409152031 0.019353000447154045
  endloop
 endfacet
 facet normal 0.20760177342437966 0.97529328134630766 -0.075528266442469433
  outer loop
   vertex 0.021415999159216881 0.0063299997709691525 0.024431999772787094
   vertex 0.021247999742627144 0.0059650000184774399 0.019256999716162682
   vertex 0.017083000391721725 0.0068589998409152031 0.019353000447154045
  endloop
 endfacet
 facet normal 0.14000223027506958 0.72469844695023833 -0.67469366123146512
  outer loop
   vertex 0.01856599934399128 0.0053110001608729362 0.017998000606894493
   vertex 0.017083000391721725 0.0068589998409152031 0.019353000447154045
   vertex 0.021247999742627144 0.0059650000184774399 0.019256999716162682
  endloop
 endfacet
 facet normal -0.22520541527518848 -0.95976295222972285 -0.16774264949027334
  outer loop
   vertex 0.04171999916434288 -0.0090239997953176498 0.027406999841332436
   vertex 0.039174001663923264 -0.0085540004074573517 0.028136000037193298
   vertex 0.040295999497175217 -0.0077479998581111431 0.022018000483512878
  endloop
 endfacet
 facet normal -0.6890681522474168 -0.69130526395218639 -0.21744450692148704
  outer loop
   vertex 0.040295999497175217 -0.0077479998581111431 0.022018000483512878
   vertex 0.039174001663923264 -0.0085540004074573517 0.028136000037193298
   vertex 0.03767399862408638 -0.0056280000135302544 0.023586999624967575
  endloop
 endfacet
 facet normal -0.53101194155199505 -0.81864344346241469 0.21874466943260787
  outer loop
   vertex 0.038575999438762665 -0.0066700000315904617 0.021877000108361244
   vertex 0.040295999497175217 -0.0077479998581111431 0.022018000483512878
   vertex 0.03767399862408638 -0.0056280000135302544 0.023586999624967575
  endloop
 endfacet
 facet normal -0.45299329450460951 -0.84727586660730847 0.27734577876487421
  outer loop
   vertex 0.038575999438762665 -0.0066700000315904617 0.021877000108361244
   vertex 0.03767399862408638 -0.0056280000135302544 0.023586999624967575
   vertex 0.031021000817418098 -0.0042730001732707024 0.016860000789165497
  endloop
 endfacet
 facet normal -0.27307392798140268 -0.95891298552110549 0.076918892710490738
  outer loop
   vertex 0.03767399862408638 -0.0056280000135302544 0.023586999624967575
   vertex 0.025838000699877739 -0.001879999996162951 0.028292000293731689
   vertex 0.031021000817418098 -0.0042730001732707024 0.016860000789165497
  endloop
 endfacet
 facet normal 0.054515538996725108 -0.97208731070431398 0.22819797627400418
  outer loop
   vertex 0.016927000135183334 -0.0046540000475943089 0.01860399916768074
   vertex 0.031021000817418098 -0.0042730001732707024 0.016860000789165497
   vertex 0.025838000699877739 -0.001879999996162951 0.028292000293731689
  endloop
 endfacet
 facet normal 0.47261970350747928 -0.038110108910633524 0.88044206819944837
  outer loop
   vertex 0.017746999859809875 -0.00089199998183175921 0.032678000628948212
   vertex 0.015619999729096889 -0.0034280000254511833 0.033709999173879623
   vertex 0.025838000699877739 -0.001879999996162951 0.028292000293731689
  endloop
 endfacet
 facet normal 0.32757458444495136 -0.94431951344479148 -0.030911941917484382
  outer loop
   vertex 0.016927000135183334 -0.0046540000475943089 0.01860399916768074
   vertex 0.025838000699877739 -0.001879999996162951 0.028292000293731689
   vertex 0.011137999594211578 -0.007091000210493803 0.031704999506473541
  endloop
 endfacet
 facet normal 0.39011641727051227 -0.76103830781858239 0.51829516205406367
  outer loop
   vertex 0.025838000699877739 -0.001879999996162951 0.028292000293731689
   vertex 0.015619999729096889 -0.0034280000254511833 0.033709999173879623
   vertex 0.011137999594211578 -0.007091000210493803 0.031704999506473541
  endloop
 endfacet
 facet normal -0.25725197907707559 -0.62925892475741851 0.73338572720913064
  outer loop
   vertex 0.040849998593330383 -0.010731999762356281 0.019651999697089195
   vertex 0.040295999497175217 -0.0077479998581111431 0.022018000483512878
   vertex 0.038116998970508575 -0.01013800036162138 0.019202999770641327
  endloop
 endfacet
 facet normal -0.39284430534394771 -0.5283536412846791 0.75267242642470422
  outer loop
   vertex 0.038575999438762665 -0.0066700000315904617 0.021877000108361244
   vertex 0.038116998970508575 -0.01013800036162138 0.019202999770641327
   vertex 0.040295999497175217 -0.0077479998581111431 0.022018000483512878
  endloop
 endfacet
 facet normal 0.41604793454064515 -0.90601452508494373 0.077728993944131852
  outer loop
   vertex 0.040403001010417938 -0.01118099968880415 0.016811000183224678
   vertex 0.043570000678300858 -0.0097200004383921623 0.016889000311493874
   vertex 0.040849998593330383 -0.010731999762356281 0.019651999697089195
  endloop
 endfacet
 facet normal -0.1812034231509049 -0.96659462852050304 0.18127367032667696
  outer loop
   vertex 0.040849998593330383 -0.010731999762356281 0.019651999697089195
   vertex 0.038759998977184296 -0.010905999690294266 0.016635000705718994
   vertex 0.040403001010417938 -0.01118099968880415 0.016811000183224678
  endloop
 endfacet
 facet normal -0.24176963856634051 -0.94460585092077565 0.22196222262749601
  outer loop
   vertex 0.040849998593330383 -0.010731999762356281 0.019651999697089195
   vertex 0.038116998970508575 -0.01013800036162138 0.019202999770641327
   vertex 0.038759998977184296 -0.010905999690294266 0.016635000705718994
  endloop
 endfacet
 facet normal 0.40119299260507535 -0.85166000534894049 -0.33722309822078711
  outer loop
   vertex 0.040403001010417938 -0.01118099968880415 0.016811000183224678
   vertex 0.04175800085067749 -0.010120999999344349 0.015745999291539192
   vertex 0.043570000678300858 -0.0097200004383921623 0.016889000311493874
  endloop
 endfacet
 facet normal 0.099546665845786725 -0.76569849870429996 -0.63544966000539227
  outer loop
   vertex 0.04175800085067749 -0.010120999999344349 0.015745999291539192
   vertex 0.040403001010417938 -0.01118099968880415 0.016811000183224678
   vertex 0.039000000804662704 -0.010253000073134899 0.015472999773919582
  endloop
 endfacet
 facet normal -0.46470257407522786 -0.72748256465162586 -0.50479761863121952
  outer loop
   vertex 0.038759998977184296 -0.010905999690294266 0.016635000705718994
   vertex 0.037246000021696091 -0.0089480001479387283 0.015207000076770782
   vertex 0.039000000804662704 -0.010253000073134899 0.015472999773919582
  endloop
 endfacet
 facet normal -0.090194494404942982 -0.8601512842007194 -0.50200071859200557
  outer loop
   vertex 0.040403001010417938 -0.01118099968880415 0.016811000183224678
   vertex 0.038759998977184296 -0.010905999690294266 0.016635000705718994
   vertex 0.039000000804662704 -0.010253000073134899 0.015472999773919582
  endloop
 endfacet
 facet normal -0.40317424649475658 -0.72191446948661664 -0.56239668003042309
  outer loop
   vertex 0.037246000021696091 -0.0089480001479387283 0.015207000076770782
   vertex 0.038759998977184296 -0.010905999690294266 0.016635000705718994
   vertex 0.036449998617172241 -0.0094640003517270088 0.016440000385046005
  endloop
 endfacet
 facet normal -0.74822348187998944 -0.28141152155154436 -0.60080710440326002
  outer loop
   vertex 0.037246000021696091 -0.0089480001479387283 0.015207000076770782
   vertex 0.036449998617172241 -0.0094640003517270088 0.016440000385046005
   vertex 0.035346999764442444 -0.0061150002293288708 0.016245000064373016
  endloop
 endfacet
 facet normal 0.74768228058179764 0.18321540628122557 0.63828153835529944
  outer loop
   vertex 0.014615999534726143 -0.0015829999465495348 0.036543998867273331
   vertex 0.017746999859809875 -0.00089199998183175921 0.032678000628948212
   vertex 0.018262999132275581 0.0044680000282824039 0.030534999445080757
  endloop
 endfacet
 facet normal 0.67826199698427903 0.5335828429047268 0.50522273623087022
  outer loop
   vertex 0.015045999549329281 0.0038769999518990517 0.035477999597787857
   vertex 0.018262999132275581 0.0044680000282824039 0.030534999445080757
   vertex 0.012618999928236008 0.0084419995546340942 0.033914998173713684
  endloop
 endfacet
 facet normal 0.65909608507106776 0.69805459636051959 0.27984304733893967
  outer loop
   vertex 0.012618999928236008 0.0084419995546340942 0.033914998173713684
   vertex 0.018262999132275581 0.0044680000282824039 0.030534999445080757
   vertex 0.016790999099612236 0.0071879997849464417 0.027217000722885132
  endloop
 endfacet
 facet normal 0.83514900188823138 0.041310400710740193 0.54847023204382672
  outer loop
   vertex 0.018262999132275581 0.0044680000282824039 0.030534999445080757
   vertex 0.015045999549329281 0.0038769999518990517 0.035477999597787857
   vertex 0.014615999534726143 -0.0015829999465495348 0.036543998867273331
  endloop
 endfacet
 facet normal 0.74369085875554952 -0.40835161314897778 0.5293135806325594
  outer loop
   vertex 0.015619999729096889 -0.0034280000254511833 0.033709999173879623
   vertex 0.017746999859809875 -0.00089199998183175921 0.032678000628948212
   vertex 0.014615999534726143 -0.0015829999465495348 0.036543998867273331
  endloop
 endfacet
 facet normal 0.61643352074899238 0.12114912899589786 -0.77803123526021556
  outer loop
   vertex 0.015969999134540558 0.00026199998683296144 0.015154999680817127
   vertex 0.014189999550580978 0.0065190000459551811 0.014719000086188316
   vertex 0.01856599934399128 0.0053110001608729362 0.017998000606894493
  endloop
 endfacet
 facet normal 0.34363798266604972 -0.17060372973704876 -0.92347566522838909
  outer loop
   vertex 0.019953999668359756 -0.0044499998912215233 0.017508000135421753
   vertex 0.015092999674379826 -0.0050499998033046722 0.015809999778866768
   vertex 0.015969999134540558 0.00026199998683296144 0.015154999680817127
  endloop
 endfacet
 facet normal 0.1950078296284172 -0.012862155764673661 -0.98071734527982091
  outer loop
   vertex 0.0072590000927448273 0.0053619998507201672 0.013356000185012817
   vertex 0.014189999550580978 0.0065190000459551811 0.014719000086188316
   vertex 0.015969999134540558 0.00026199998683296144 0.015154999680817127
  endloop
 endfacet
 facet normal 0.12036531440663527 -0.14103963122086252 -0.98265966311479114
  outer loop
   vertex 0.0072590000927448273 0.0053619998507201672 0.013356000185012817
   vertex 0.015969999134540558 0.00026199998683296144 0.015154999680817127
   vertex 0.015092999674379826 -0.0050499998033046722 0.015809999778866768
  endloop
 endfacet
 facet normal 0.0059924625936745093 -0.98594458337887914 -0.16696517270949604
  outer loop
   vertex 0.019953999668359756 -0.0044499998912215233 0.017508000135421753
   vertex 0.031021000817418098 -0.0042730001732707024 0.016860000789165497
   vertex 0.016927000135183334 -0.0046540000475943089 0.01860399916768074
  endloop
 endfacet
 facet normal -0.37380927434659117 -0.91921526664031461 0.12373326144513562
  outer loop
   vertex 0.038575999438762665 -0.0066700000315904617 0.021877000108361244
   vertex 0.031021000817418098 -0.0042730001732707024 0.016860000789165497
   vertex 0.035346999764442444 -0.0061150002293288708 0.016245000064373016
  endloop
 endfacet
 facet normal 0.0951848026022519 -0.99238542404666663 0.078173035589567438
  outer loop
   vertex 0.016927000135183334 -0.0046540000475943089 0.01860399916768074
   vertex 0.015092999674379826 -0.0050499998033046722 0.015809999778866768
   vertex 0.019953999668359756 -0.0044499998912215233 0.017508000135421753
  endloop
 endfacet
 facet normal 0.49172676367335966 0.79056194253567613 -0.36498849968395203
  outer loop
   vertex 0.017083000391721725 0.0068589998409152031 0.019353000447154045
   vertex 0.01856599934399128 0.0053110001608729362 0.017998000606894493
   vertex 0.014189999550580978 0.0065190000459551811 0.014719000086188316
  endloop
 endfacet
 facet normal -0.84985856136825788 -0.25298309878463859 0.46232021089110625
  outer loop
   vertex 0.038575999438762665 -0.0066700000315904617 0.021877000108361244
   vertex 0.035346999764442444 -0.0061150002293288708 0.016245000064373016
   vertex 0.036449998617172241 -0.0094640003517270088 0.016440000385046005
  endloop
 endfacet
 facet normal 0.87278747388614142 0.4879530472588483 0.011993710779076587
  outer loop
   vertex 0.016790999099612236 0.0071879997849464417 0.027217000722885132
   vertex 0.017083000391721725 0.0068589998409152031 0.019353000447154045
   vertex 0.015699999406933784 0.0091899996623396873 0.02515999972820282
  endloop
 endfacet
 facet normal 0.77762252455337 0.60381792740179085 0.17523447108217396
  outer loop
   vertex 0.016790999099612236 0.0071879997849464417 0.027217000722885132
   vertex 0.015699999406933784 0.0091899996623396873 0.02515999972820282
   vertex 0.013274000026285648 0.011013000272214413 0.02964399941265583
  endloop
 endfacet
 facet normal 0.78675176435098026 0.46806375916134479 0.40241518193324932
  outer loop
   vertex 0.013274000026285648 0.011013000272214413 0.02964399941265583
   vertex 0.012618999928236008 0.0084419995546340942 0.033914998173713684
   vertex 0.016790999099612236 0.0071879997849464417 0.027217000722885132
  endloop
 endfacet
 facet normal 0.6358421810037288 0.6318065797906055 -0.4433115908587531
  outer loop
   vertex 0.017083000391721725 0.0068589998409152031 0.019353000447154045
   vertex 0.014189999550580978 0.0065190000459551811 0.014719000086188316
   vertex 0.014891999773681164 0.0086430003866553307 0.018752999603748322
  endloop
 endfacet
 facet normal 0.64834532722030203 0.74730122447283476 -0.14556516263516289
  outer loop
   vertex 0.014891999773681164 0.0086430003866553307 0.018752999603748322
   vertex 0.015699999406933784 0.0091899996623396873 0.02515999972820282
   vertex 0.017083000391721725 0.0068589998409152031 0.019353000447154045
  endloop
 endfacet
 facet normal -0.85601520577337098 -0.2398136608799101 0.45796001521983187
  outer loop
   vertex 0.038116998970508575 -0.01013800036162138 0.019202999770641327
   vertex 0.038575999438762665 -0.0066700000315904617 0.021877000108361244
   vertex 0.036449998617172241 -0.0094640003517270088 0.016440000385046005
  endloop
 endfacet
 facet normal 0.50509770752291139 -0.86075419309477907 0.063075549342476625
  outer loop
   vertex 0.016927000135183334 -0.0046540000475943089 0.01860399916768074
   vertex 0.011137999594211578 -0.007091000210493803 0.031704999506473541
   vertex 0.010826000012457371 -0.0074970000423491001 0.028663000091910362
  endloop
 endfacet
 facet normal 0.44597033002741948 -0.87911297367783381 -0.16813935959956128
  outer loop
   vertex 0.015092999674379826 -0.0050499998033046722 0.015809999778866768
   vertex 0.016927000135183334 -0.0046540000475943089 0.01860399916768074
   vertex 0.0091159995645284653 -0.0085089998319745064 0.018042000010609627
  endloop
 endfacet
 facet normal 0.44026688640422529 -0.89718171324501517 0.035071956812649817
  outer loop
   vertex 0.010525000281631947 -0.0075599998235702515 0.024630999192595482
   vertex 0.0091159995645284653 -0.0085089998319745064 0.018042000010609627
   vertex 0.016927000135183334 -0.0046540000475943089 0.01860399916768074
  endloop
 endfacet
 facet normal 0.40104488929018445 -0.91592508890600377 -0.01562780492432991
  outer loop
   vertex 0.010826000012457371 -0.0074970000423491001 0.028663000091910362
   vertex 0.010525000281631947 -0.0075599998235702515 0.024630999192595482
   vertex 0.016927000135183334 -0.0046540000475943089 0.01860399916768074
  endloop
 endfacet
 facet normal 0.50229997099654822 -0.79751578230729336 0.33416061423760407
  outer loop
   vertex 0.011137999594211578 -0.007091000210493803 0.031704999506473541
   vertex 0.015619999729096889 -0.0034280000254511833 0.033709999173879623
   vertex 0.010834000073373318 -0.0051950002089142799 0.036687001585960388
  endloop
 endfacet
 facet normal 0.57409485791307657 -0.5781606053096543 0.57978048310178432
  outer loop
   vertex 0.010834000073373318 -0.0051950002089142799 0.036687001585960388
   vertex 0.015619999729096889 -0.0034280000254511833 0.033709999173879623
   vertex 0.014615999534726143 -0.0015829999465495348 0.036543998867273331
  endloop
 endfacet
 facet normal 0.26672122078094829 -0.8952268292712896 0.35697158785818528
  outer loop
   vertex 0.0088820001110434532 -0.0067889997735619545 0.034148000180721283
   vertex 0.011137999594211578 -0.007091000210493803 0.031704999506473541
   vertex 0.010834000073373318 -0.0051950002089142799 0.036687001585960388
  endloop
 endfacet
 facet normal -0.41294777554247075 -0.86857143699771155 -0.27396677445678652
  outer loop
   vertex 0.011137999594211578 -0.007091000210493803 0.031704999506473541
   vertex 0.0088820001110434532 -0.0067889997735619545 0.034148000180721283
   vertex 0.010033999569714069 -0.006444999948143959 0.031321000307798386
  endloop
 endfacet
 facet normal -0.54032739185865264 -0.82501313808954591 0.16552834073615835
  outer loop
   vertex 0.010826000012457371 -0.0074970000423491001 0.028663000091910362
   vertex 0.011137999594211578 -0.007091000210493803 0.031704999506473541
   vertex 0.010033999569714069 -0.006444999948143959 0.031321000307798386
  endloop
 endfacet
 facet normal -0.53298771871891815 -0.8379731500867601 0.11715413534517503
  outer loop
   vertex 0.038116998970508575 -0.01013800036162138 0.019202999770641327
   vertex 0.036449998617172241 -0.0094640003517270088 0.016440000385046005
   vertex 0.038759998977184296 -0.010905999690294266 0.016635000705718994
  endloop
 endfacet
 facet normal 0.29348819615672272 0.16086517999395 0.94233065989714415
  outer loop
   vertex 0.012191000394523144 0.0041709998622536659 0.036316998302936554
   vertex 0.014615999534726143 -0.0015829999465495348 0.036543998867273331
   vertex 0.015045999549329281 0.0038769999518990517 0.035477999597787857
  endloop
 endfacet
 facet normal 9.5320496745611701e-05 0.039460361582335478 0.99922113207127206
  outer loop
   vertex 0.012191000394523144 0.0041709998622536659 0.036316998302936554
   vertex 0.010834000073373318 -0.0051950002089142799 0.036687001585960388
   vertex 0.014615999534726143 -0.0015829999465495348 0.036543998867273331
  endloop
 endfacet
 facet normal 0.29432785191882249 0.44590309112072229 0.84530559498552749
  outer loop
   vertex 0.012191000394523144 0.0041709998622536659 0.036316998302936554
   vertex 0.015045999549329281 0.0038769999518990517 0.035477999597787857
   vertex 0.012618999928236008 0.0084419995546340942 0.033914998173713684
  endloop
 endfacet
 facet normal -0.097512485819869044 0.85920256889041158 0.50225716592334202
  outer loop
   vertex 0.01053600013256073 0.0095079997554421425 0.031686998903751373
   vertex 0.012618999928236008 0.0084419995546340942 0.033914998173713684
   vertex 0.013274000026285648 0.011013000272214413 0.02964399941265583
  endloop
 endfacet
 facet normal -0.53136194595944131 0.45509435184892799 0.71452334692534702
  outer loop
   vertex 0.01053600013256073 0.0095079997554421425 0.031686998903751373
   vertex 0.012191000394523144 0.0041709998622536659 0.036316998302936554
   vertex 0.012618999928236008 0.0084419995546340942 0.033914998173713684
  endloop
 endfacet
 facet normal 0.075092534723418869 0.53870565479798671 -0.83914082770264764
  outer loop
   vertex 0.010087000206112862 0.0089959995821118355 0.015941999852657318
   vertex 0.014189999550580978 0.0065190000459551811 0.014719000086188316
   vertex 0.0072590000927448273 0.0053619998507201672 0.013356000185012817
  endloop
 endfacet
 facet normal 0.34215484974962668 0.80558253437424276 -0.48370118782568872
  outer loop
   vertex 0.010087000206112862 0.0089959995821118355 0.015941999852657318
   vertex 0.014891999773681164 0.0086430003866553307 0.018752999603748322
   vertex 0.014189999550580978 0.0065190000459551811 0.014719000086188316
  endloop
 endfacet
 facet normal 0.23567033402402079 -0.051411560955750217 -0.97047222786698006
  outer loop
   vertex 0.015092999674379826 -0.0050499998033046722 0.015809999778866768
   vertex 0.0062959999777376652 0.0010420000180602074 0.013350999914109707
   vertex 0.0072590000927448273 0.0053619998507201672 0.013356000185012817
  endloop
 endfacet
 facet normal 0.24045853427132199 -0.78441898721078751 -0.57172243772593878
  outer loop
   vertex 0.0091159995645284653 -0.0085089998319745064 0.018042000010609627
   vertex 0.0087090004235506058 -0.0075659998692572117 0.016576999798417091
   vertex 0.015092999674379826 -0.0050499998033046722 0.015809999778866768
  endloop
 endfacet
 facet normal 0.023282580084070758 -0.34510818520510106 -0.93827408680463431
  outer loop
   vertex 0.0087090004235506058 -0.0075659998692572117 0.016576999798417091
   vertex 0.0062959999777376652 0.0010420000180602074 0.013350999914109707
   vertex 0.015092999674379826 -0.0050499998033046722 0.015809999778866768
  endloop
 endfacet
 facet normal -0.94327191475252126 0.31333254854585657 -0.10982171397711259
  outer loop
   vertex 0.0077519998885691166 0.0078710000962018967 0.016279999166727066
   vertex 0.0072590000927448273 0.0053619998507201672 0.013356000185012817
   vertex 0.0043819998390972614 -0.0022630000021308661 0.016311999410390854
  endloop
 endfacet
 facet normal -0.42637147797268032 0.72074642475322248 -0.54656376935984297
  outer loop
   vertex 0.0077519998885691166 0.0078710000962018967 0.016279999166727066
   vertex 0.010087000206112862 0.0089959995821118355 0.015941999852657318
   vertex 0.0072590000927448273 0.0053619998507201672 0.013356000185012817
  endloop
 endfacet
 facet normal -0.91000655858565682 0.20327390293978662 -0.36134164403610575
  outer loop
   vertex 0.0043819998390972614 -0.0022630000021308661 0.016311999410390854
   vertex 0.0072590000927448273 0.0053619998507201672 0.013356000185012817
   vertex 0.0062959999777376652 0.0010420000180602074 0.013350999914109707
  endloop
 endfacet
 facet normal 0.24129962236978261 0.96388181058021327 -0.11272243555215686
  outer loop
   vertex 0.01018499955534935 0.010745000094175339 0.02665100060403347
   vertex 0.015699999406933784 0.0091899996623396873 0.02515999972820282
   vertex 0.014891999773681164 0.0086430003866553307 0.018752999603748322
  endloop
 endfacet
 facet normal 0.18964761738760721 0.94108196725811077 -0.27999734306026564
  outer loop
   vertex 0.015699999406933784 0.0091899996623396873 0.02515999972820282
   vertex 0.01018499955534935 0.010745000094175339 0.02665100060403347
   vertex 0.013274000026285648 0.011013000272214413 0.02964399941265583
  endloop
 endfacet
 facet normal -0.31871040846345744 0.91510567903569862 0.24699245278685952
  outer loop
   vertex 0.013274000026285648 0.011013000272214413 0.02964399941265583
   vertex 0.01018499955534935 0.010745000094175339 0.02665100060403347
   vertex 0.01053600013256073 0.0095079997554421425 0.031686998903751373
  endloop
 endfacet
 facet normal 0.16534850332815684 0.97309756735297537 -0.16044001015600826
  outer loop
   vertex 0.014891999773681164 0.0086430003866553307 0.018752999603748322
   vertex 0.010087000206112862 0.0089959995821118355 0.015941999852657318
   vertex 0.01018499955534935 0.010745000094175339 0.02665100060403347
  endloop
 endfacet
 facet normal -0.15526180257886441 -0.9875037572513613 0.027020401077817533
  outer loop
   vertex 0.0086949998512864113 -0.0071550002321600914 0.028916999697685242
   vertex 0.010525000281631947 -0.0075599998235702515 0.024630999192595482
   vertex 0.010826000012457371 -0.0074970000423491001 0.028663000091910362
  endloop
 endfacet
 facet normal -0.10984459040929076 -0.93496146876060493 0.33731471638638494
  outer loop
   vertex 0.010826000012457371 -0.0074970000423491001 0.028663000091910362
   vertex 0.010033999569714069 -0.006444999948143959 0.031321000307798386
   vertex 0.0086949998512864113 -0.0071550002321600914 0.028916999697685242
  endloop
 endfacet
 facet normal 0.0019419704354672221 -0.84061413619049119 -0.54163096549915069
  outer loop
   vertex 0.0071849999949336052 -0.0074979998171329498 0.016465999186038971
   vertex 0.0087090004235506058 -0.0075659998692572117 0.016576999798417091
   vertex 0.0091159995645284653 -0.0085089998319745064 0.018042000010609627
  endloop
 endfacet
 facet normal -0.054588011151354074 -0.9865975334224365 0.15377079073511946
  outer loop
   vertex 0.0088369995355606079 -0.0071459999307990074 0.026688000187277794
   vertex 0.0091159995645284653 -0.0085089998319745064 0.018042000010609627
   vertex 0.010525000281631947 -0.0075599998235702515 0.024630999192595482
  endloop
 endfacet
 facet normal -0.43875212966873506 -0.89778954559916713 -0.038347105809834005
  outer loop
   vertex 0.0091159995645284653 -0.0085089998319745064 0.018042000010609627
   vertex 0.0079589998349547386 -0.0079899998381733894 0.019129000604152679
   vertex 0.0071849999949336052 -0.0074979998171329498 0.016465999186038971
  endloop
 endfacet
 facet normal -0.29307694770289833 -0.94583512209250797 0.13964893319106678
  outer loop
   vertex 0.0091159995645284653 -0.0085089998319745064 0.018042000010609627
   vertex 0.0088369995355606079 -0.0071459999307990074 0.026688000187277794
   vertex 0.0079589998349547386 -0.0079899998381733894 0.019129000604152679
  endloop
 endfacet
 facet normal -0.2617236093780686 -0.96492365003561553 -0.020569440830054561
  outer loop
   vertex 0.010525000281631947 -0.0075599998235702515 0.024630999192595482
   vertex 0.0086949998512864113 -0.0071550002321600914 0.028916999697685242
   vertex 0.0088369995355606079 -0.0071459999307990074 0.026688000187277794
  endloop
 endfacet
 facet normal -0.38043664507049341 0.091475148883641569 0.92027183822184999
  outer loop
   vertex 0.0053730001673102379 -0.0052709998562932014 0.034437000751495361
   vertex 0.010834000073373318 -0.0051950002089142799 0.036687001585960388
   vertex 0.012191000394523144 0.0041709998622536659 0.036316998302936554
  endloop
 endfacet
 facet normal -0.25691195060666555 -0.71720195852444935 0.64777897490129499
  outer loop
   vertex 0.0088820001110434532 -0.0067889997735619545 0.034148000180721283
   vertex 0.010834000073373318 -0.0051950002089142799 0.036687001585960388
   vertex 0.0053730001673102379 -0.0052709998562932014 0.034437000751495361
  endloop
 endfacet
 facet normal 0.24247212045091496 -0.96996792696440925 -0.019222160763119132
  outer loop
   vertex 0.010033999569714069 -0.006444999948143959 0.031321000307798386
   vertex 0.0088820001110434532 -0.0067889997735619545 0.034148000180721283
   vertex 0.0068239998072385788 -0.0072619998827576637 0.032056000083684921
  endloop
 endfacet
 facet normal -0.31163703069579329 -0.81377354338419372 0.49056598046240746
  outer loop
   vertex 0.0053730001673102379 -0.0052709998562932014 0.034437000751495361
   vertex 0.0068239998072385788 -0.0072619998827576637 0.032056000083684921
   vertex 0.0088820001110434532 -0.0067889997735619545 0.034148000180721283
  endloop
 endfacet
 facet normal 0.27238652807529307 -0.95338478978183838 0.12985769879266731
  outer loop
   vertex 0.0068239998072385788 -0.0072619998827576637 0.032056000083684921
   vertex 0.0086949998512864113 -0.0071550002321600914 0.028916999697685242
   vertex 0.010033999569714069 -0.006444999948143959 0.031321000307798386
  endloop
 endfacet
 facet normal -0.67165056732077433 0.35558044051969367 0.64996004933957485
  outer loop
   vertex 0.01053600013256073 0.0095079997554421425 0.031686998903751373
   vertex 0.0053730001673102379 -0.0052709998562932014 0.034437000751495361
   vertex 0.012191000394523144 0.0041709998622536659 0.036316998302936554
  endloop
 endfacet
 facet normal -0.93788580397215215 0.34025934656880352 0.067777546282532283
  outer loop
   vertex 0.01053600013256073 0.0095079997554421425 0.031686998903751373
   vertex 0.0045679998584091663 -0.0044979997910559177 0.019416999071836472
   vertex 0.0053730001673102379 -0.0052709998562932014 0.034437000751495361
  endloop
 endfacet
 facet normal -0.94880360171674827 0.28502195445968909 0.13614040856889342
  outer loop
   vertex 0.01018499955534935 0.010745000094175339 0.02665100060403347
   vertex 0.0045679998584091663 -0.0044979997910559177 0.019416999071836472
   vertex 0.01053600013256073 0.0095079997554421425 0.031686998903751373
  endloop
 endfacet
 facet normal -0.4461622508854155 0.88389041872684404 -0.1402746362238865
  outer loop
   vertex 0.0077519998885691166 0.0078710000962018967 0.016279999166727066
   vertex 0.01018499955534935 0.010745000094175339 0.02665100060403347
   vertex 0.010087000206112862 0.0089959995821118355 0.015941999852657318
  endloop
 endfacet
 facet normal 0.25230083612768534 -0.27676826727666354 -0.92722360534983372
  outer loop
   vertex 0.0059000002220273018 -0.0068769999779760838 0.015607000328600407
   vertex 0.0062959999777376652 0.0010420000180602074 0.013350999914109707
   vertex 0.0087090004235506058 -0.0075659998692572117 0.016576999798417091
  endloop
 endfacet
 facet normal -0.82803020801438065 -0.022393034566357436 -0.56023613469551536
  outer loop
   vertex 0.0062959999777376652 0.0010420000180602074 0.013350999914109707
   vertex 0.0037769998889416456 -0.0060109999030828476 0.01735600084066391
   vertex 0.0043819998390972614 -0.0022630000021308661 0.016311999410390854
  endloop
 endfacet
 facet normal -0.66733889094465126 -0.17299454574285136 -0.72438366338287019
  outer loop
   vertex 0.0062959999777376652 0.0010420000180602074 0.013350999914109707
   vertex 0.0059000002220273018 -0.0068769999779760838 0.015607000328600407
   vertex 0.0037769998889416456 -0.0060109999030828476 0.01735600084066391
  endloop
 endfacet
 facet normal 0.0072613103367872023 -0.80519504759850047 -0.59296560498484363
  outer loop
   vertex 0.0087090004235506058 -0.0075659998692572117 0.016576999798417091
   vertex 0.0071849999949336052 -0.0074979998171329498 0.016465999186038971
   vertex 0.0059000002220273018 -0.0068769999779760838 0.015607000328600407
  endloop
 endfacet
 facet normal -0.91241946217049308 0.30428374879266523 0.2736825264301509
  outer loop
   vertex 0.0045679998584091663 -0.0044979997910559177 0.019416999071836472
   vertex 0.0077519998885691166 0.0078710000962018967 0.016279999166727066
   vertex 0.0043819998390972614 -0.0022630000021308661 0.016311999410390854
  endloop
 endfacet
 facet normal -0.94875358100019491 0.28093037013216809 0.14472307928146652
  outer loop
   vertex 0.0077519998885691166 0.0078710000962018967 0.016279999166727066
   vertex 0.0045679998584091663 -0.0044979997910559177 0.019416999071836472
   vertex 0.01018499955534935 0.010745000094175339 0.02665100060403347
  endloop
 endfacet
 facet normal -0.98703596306578578 0.13526087405321033 -0.086397358554287193
  outer loop
   vertex 0.0043819998390972614 -0.0022630000021308661 0.016311999410390854
   vertex 0.0037769998889416456 -0.0060109999030828476 0.01735600084066391
   vertex 0.0036830001045018435 -0.0053229997865855694 0.019507000222802162
  endloop
 endfacet
 facet normal -0.56014417533231631 0.65605964438350151 0.50579071348995008
  outer loop
   vertex 0.0036830001045018435 -0.0053229997865855694 0.019507000222802162
   vertex 0.0045679998584091663 -0.0044979997910559177 0.019416999071836472
   vertex 0.0043819998390972614 -0.0022630000021308661 0.016311999410390854
  endloop
 endfacet
 facet normal -0.15828423324225052 -0.91053088495838741 0.38194189223468111
  outer loop
   vertex 0.0086949998512864113 -0.0071550002321600914 0.028916999697685242
   vertex 0.0041820001788437366 -0.0091909999027848244 0.022192999720573425
   vertex 0.0073130000382661819 -0.0092940004542469978 0.023244999349117279
  endloop
 endfacet
 facet normal -0.081070685755857533 -0.93754097447896656 0.33829641600836491
  outer loop
   vertex 0.0041820001788437366 -0.0091909999027848244 0.022192999720573425
   vertex 0.0086949998512864113 -0.0071550002321600914 0.028916999697685242
   vertex 0.001588999992236495 -0.0066559999249875546 0.028596999123692513
  endloop
 endfacet
 facet normal 0.77757587890728896 -0.62702979910796541 0.04700408037800001
  outer loop
   vertex 0.0088369995355606079 -0.0071459999307990074 0.026688000187277794
   vertex 0.0086949998512864113 -0.0071550002321600914 0.028916999697685242
   vertex 0.0073130000382661819 -0.0092940004542469978 0.023244999349117279
  endloop
 endfacet
 facet normal -0.066561742825719347 -0.99506462021879427 -0.073593043019225021
  outer loop
   vertex 0.001588999992236495 -0.0066559999249875546 0.028596999123692513
   vertex 0.0086949998512864113 -0.0071550002321600914 0.028916999697685242
   vertex 0.0068239998072385788 -0.0072619998827576637 0.032056000083684921
  endloop
 endfacet
 facet normal -0.0015095513791219969 -0.81147507486338899 -0.58438508205642214
  outer loop
   vertex 0.0048440000973641872 -0.0086070001125335693 0.018012000247836113
   vertex 0.0059000002220273018 -0.0068769999779760838 0.015607000328600407
   vertex 0.0071849999949336052 -0.0074979998171329498 0.016465999186038971
  endloop
 endfacet
 facet normal 0.27394378752716519 -0.9283760669865212 -0.25114274730103098
  outer loop
   vertex 0.0079589998349547386 -0.0079899998381733894 0.019129000604152679
   vertex 0.0048440000973641872 -0.0086070001125335693 0.018012000247836113
   vertex 0.0071849999949336052 -0.0074979998171329498 0.016465999186038971
  endloop
 endfacet
 facet normal 0.84266280808592753 -0.53710560884517511 -0.037907213242243921
  outer loop
   vertex 0.0088369995355606079 -0.0071459999307990074 0.026688000187277794
   vertex 0.0073130000382661819 -0.0092940004542469978 0.023244999349117279
   vertex 0.0079589998349547386 -0.0079899998381733894 0.019129000604152679
  endloop
 endfacet
 facet normal 0.67077985253824768 -0.73083047675767721 -0.12625847960003728
  outer loop
   vertex 0.0064590000547468662 -0.0095440000295639038 0.020154999569058418
   vertex 0.0079589998349547386 -0.0079899998381733894 0.019129000604152679
   vertex 0.0073130000382661819 -0.0092940004542469978 0.023244999349117279
  endloop
 endfacet
 facet normal 0.3544238815454987 -0.72886154515193624 -0.5857854216254913
  outer loop
   vertex 0.0079589998349547386 -0.0079899998381733894 0.019129000604152679
   vertex 0.0064590000547468662 -0.0095440000295639038 0.020154999569058418
   vertex 0.0048440000973641872 -0.0086070001125335693 0.018012000247836113
  endloop
 endfacet
 facet normal -0.38581094499465385 -0.80978876329849891 0.44203175627755487
  outer loop
   vertex 0.0068239998072385788 -0.0072619998827576637 0.032056000083684921
   vertex 0.0053730001673102379 -0.0052709998562932014 0.034437000751495361
   vertex 0.001588999992236495 -0.0066559999249875546 0.028596999123692513
  endloop
 endfacet
 facet normal -0.43577059327978973 0.8973675161561282 0.069537982285662464
  outer loop
   vertex 0.0045679998584091663 -0.0044979997910559177 0.019416999071836472
   vertex 0.001588999992236495 -0.0066559999249875546 0.028596999123692513
   vertex 0.0053730001673102379 -0.0052709998562932014 0.034437000751495361
  endloop
 endfacet
 facet normal -0.49609513081074874 0.60058099498639994 0.62705030870498102
  outer loop
   vertex 0.0036830001045018435 -0.0053229997865855694 0.019507000222802162
   vertex 0.0030930000357329845 -0.0068680001422762871 0.020519999787211418
   vertex 0.0045679998584091663 -0.0044979997910559177 0.019416999071836472
  endloop
 endfacet
 facet normal -0.86812686653266635 0.41030724716262201 -0.27929143654971778
  outer loop
   vertex 0.0030930000357329845 -0.0068680001422762871 0.020519999787211418
   vertex 0.0018129999516531825 -0.0070250001735985279 0.024267999455332756
   vertex 0.0045679998584091663 -0.0044979997910559177 0.019416999071836472
  endloop
 endfacet
 facet normal -0.75796706591269492 0.64544957476717757 -0.094237855581342178
  outer loop
   vertex 0.0045679998584091663 -0.0044979997910559177 0.019416999071836472
   vertex 0.0018129999516531825 -0.0070250001735985279 0.024267999455332756
   vertex 0.001588999992236495 -0.0066559999249875546 0.028596999123692513
  endloop
 endfacet
 facet normal -0.67216989584231768 -0.42879795748171262 -0.60358921692061318
  outer loop
   vertex 0.0037769998889416456 -0.0060109999030828476 0.01735600084066391
   vertex 0.0059000002220273018 -0.0068769999779760838 0.015607000328600407
   vertex 0.0048440000973641872 -0.0086070001125335693 0.018012000247836113
  endloop
 endfacet
 facet normal -0.68316232285881806 -0.42995271932341855 -0.59027950987014743
  outer loop
   vertex 0.0042139999568462372 -0.0082430001348257065 0.018476000055670738
   vertex 0.0037769998889416456 -0.0060109999030828476 0.01735600084066391
   vertex 0.0048440000973641872 -0.0086070001125335693 0.018012000247836113
  endloop
 endfacet
 facet normal -0.99570780794933689 0.066194817353591104 -0.064685449246730392
  outer loop
   vertex 0.0036830001045018435 -0.0053229997865855694 0.019507000222802162
   vertex 0.0037769998889416456 -0.0060109999030828476 0.01735600084066391
   vertex 0.0035620001144707203 -0.00684700021520257 0.01981000043451786
  endloop
 endfacet
 facet normal -0.94564069214122159 -0.27346639015728152 -0.17601083722605529
  outer loop
   vertex 0.0035620001144707203 -0.00684700021520257 0.01981000043451786
   vertex 0.0037769998889416456 -0.0060109999030828476 0.01735600084066391
   vertex 0.0042139999568462372 -0.0082430001348257065 0.018476000055670738
  endloop
 endfacet
 facet normal -0.83300998299460727 -0.043519443719532931 -0.55154367574079455
  outer loop
   vertex 0.0035620001144707203 -0.00684700021520257 0.01981000043451786
   vertex 0.0030930000357329845 -0.0068680001422762871 0.020519999787211418
   vertex 0.0036830001045018435 -0.0053229997865855694 0.019507000222802162
  endloop
 endfacet
 facet normal 0.010730153185912786 -0.99158383792441285 -0.12902075871617966
  outer loop
   vertex 0.0054919999092817307 -0.0089809997007250786 0.020687999203801155
   vertex 0.0073130000382661819 -0.0092940004542469978 0.023244999349117279
   vertex 0.0041820001788437366 -0.0091909999027848244 0.022192999720573425
  endloop
 endfacet
 facet normal -0.14176527694799426 -0.9560122392748116 -0.25679408990204367
  outer loop
   vertex 0.0041820001788437366 -0.0091909999027848244 0.022192999720573425
   vertex 0.0035470000002533197 -0.0086770001798868179 0.020630000159144402
   vertex 0.0054919999092817307 -0.0089809997007250786 0.020687999203801155
  endloop
 endfacet
 facet normal -0.66330209732136303 -0.7479825994487147 0.023502310759261083
  outer loop
   vertex 0.0041820001788437366 -0.0091909999027848244 0.022192999720573425
   vertex 0.0018129999516531825 -0.0070250001735985279 0.024267999455332756
   vertex 0.0035470000002533197 -0.0086770001798868179 0.020630000159144402
  endloop
 endfacet
 facet normal -0.66012703076622026 -0.75056185228707673 0.029819610043828819
  outer loop
   vertex 0.0018129999516531825 -0.0070250001735985279 0.024267999455332756
   vertex 0.0041820001788437366 -0.0091909999027848244 0.022192999720573425
   vertex 0.001588999992236495 -0.0066559999249875546 0.028596999123692513
  endloop
 endfacet
 facet normal -0.41535282472142215 -0.89026949258367594 0.1868214697799479
  outer loop
   vertex 0.0054919999092817307 -0.0089809997007250786 0.020687999203801155
   vertex 0.0064590000547468662 -0.0095440000295639038 0.020154999569058418
   vertex 0.0073130000382661819 -0.0092940004542469978 0.023244999349117279
  endloop
 endfacet
 facet normal -0.50276422775326768 -0.86442307953022479 0.00093320262695899747
  outer loop
   vertex 0.0048440000973641872 -0.0086070001125335693 0.018012000247836113
   vertex 0.0064590000547468662 -0.0095440000295639038 0.020154999569058418
   vertex 0.0054919999092817307 -0.0089809997007250786 0.020687999203801155
  endloop
 endfacet
 facet normal -0.50021680500787791 -0.86590018819178272 0.00010989606844454991
  outer loop
   vertex 0.0054919999092817307 -0.0089809997007250786 0.020687999203801155
   vertex 0.0042139999568462372 -0.0082430001348257065 0.018476000055670738
   vertex 0.0048440000973641872 -0.0086070001125335693 0.018012000247836113
  endloop
 endfacet
 facet normal -0.80769198290748101 -0.23557065304376695 -0.54049988730018683
  outer loop
   vertex 0.0030930000357329845 -0.0068680001422762871 0.020519999787211418
   vertex 0.0035620001144707203 -0.00684700021520257 0.01981000043451786
   vertex 0.0035470000002533197 -0.0086770001798868179 0.020630000159144402
  endloop
 endfacet
 facet normal -0.91333737567890283 -0.24881859013856666 -0.32234166250956559
  outer loop
   vertex 0.0030930000357329845 -0.0068680001422762871 0.020519999787211418
   vertex 0.0035470000002533197 -0.0086770001798868179 0.020630000159144402
   vertex 0.0018129999516531825 -0.0070250001735985279 0.024267999455332756
  endloop
 endfacet
 facet normal -0.93855257953417781 -0.13469462664405982 -0.31776786024228149
  outer loop
   vertex 0.0035470000002533197 -0.0086770001798868179 0.020630000159144402
   vertex 0.0035620001144707203 -0.00684700021520257 0.01981000043451786
   vertex 0.0042139999568462372 -0.0082430001348257065 0.018476000055670738
  endloop
 endfacet
 facet normal -0.14306290548728598 -0.96070373218170901 -0.23786833342349498
  outer loop
   vertex 0.0054919999092817307 -0.0089809997007250786 0.020687999203801155
   vertex 0.0035470000002533197 -0.0086770001798868179 0.020630000159144402
   vertex 0.0042139999568462372 -0.0082430001348257065 0.018476000055670738
  endloop
 endfacet
endsolid
