solid Visualization Toolkit generated SLA File
 facet normal 0.42551118099361679 0.40283649016475631 0.81034745451636836
  outer loop
   vertex -0.0065020001493394375 0.0013889999827370048 -0.044319998472929001
   vertex -0.0065460000187158585 -0.0021150000393390656 -0.042555000633001328
   vertex -0.0057680001482367516 0.00066800002241507173 -0.044346999377012253
  endloop
 endfacet
 facet normal 0.40033453583164286 0.81830309304004545 -0.41244673273231014
  outer loop
   vertex -0.0085530001670122147 0.0020920000970363617 -0.044916000217199326
   vertex -0.0065020001493394375 0.0013889999827370048 -0.044319998472929001
   vertex -0.0059139998629689217 -6.7000000854022801e-05 -0.046638000756502151
  endloop
 endfacet
 facet normal 0.35434448735128726 0.92651279644660289 -0.12654652229298524
  outer loop
   vertex -0.0065020001493394375 0.0013889999827370048 -0.044319998472929001
   vertex -0.0085530001670122147 0.0020920000970363617 -0.044916000217199326
   vertex -0.0077209998853504658 0.0019249999895691872 -0.04380900040268898
  endloop
 endfacet
 facet normal 0.4957730760860421 0.38570997559869463 0.77809824042458664
  outer loop
   vertex -0.0065020001493394375 0.0013889999827370048 -0.044319998472929001
   vertex -0.0077209998853504658 0.0019249999895691872 -0.04380900040268898
   vertex -0.0065460000187158585 -0.0021150000393390656 -0.042555000633001328
  endloop
 endfacet
 facet normal 0.67073063292723634 0.69274802724628015 -0.26499167684932268
  outer loop
   vertex -0.0059139998629689217 -6.7000000854022801e-05 -0.046638000756502151
   vertex -0.0065020001493394375 0.0013889999827370048 -0.044319998472929001
   vertex -0.0057680001482367516 0.00066800002241507173 -0.044346999377012253
  endloop
 endfacet
 facet normal 0.87194285424859896 0.068414347565900493 0.48480422437509602
  outer loop
   vertex -0.0053579998202621937 -0.0012339999666437507 -0.044815998524427414
   vertex -0.0057680001482367516 0.00066800002241507173 -0.044346999377012253
   vertex -0.0065460000187158585 -0.0021150000393390656 -0.042555000633001328
  endloop
 endfacet
 facet normal 0.96051953270261692 0.24122917135193131 -0.13860272070059371
  outer loop
   vertex -0.0053579998202621937 -0.0012339999666437507 -0.044815998524427414
   vertex -0.0059139998629689217 -6.7000000854022801e-05 -0.046638000756502151
   vertex -0.0057680001482367516 0.00066800002241507173 -0.044346999377012253
  endloop
 endfacet
 facet normal 0.57440447402364847 -0.27260440816673132 0.77184605775354054
  outer loop
   vertex -0.0065460000187158585 -0.0021150000393390656 -0.042555000633001328
   vertex -0.0078039998188614845 -0.003653000108897686 -0.042162001132965088
   vertex -0.0069459998048841953 -0.0034419998992234468 -0.042725998908281326
  endloop
 endfacet
 facet normal 0.16002642641594028 0.33477883466187058 0.92860899990845636
  outer loop
   vertex -0.0096340002492070198 -0.0032130000181496143 -0.041627001017332077
   vertex -0.0065460000187158585 -0.0021150000393390656 -0.042555000633001328
   vertex -0.0077209998853504658 0.0019249999895691872 -0.04380900040268898
  endloop
 endfacet
 facet normal 0.28348954995886783 0.01314150626812099 0.95888527774553067
  outer loop
   vertex -0.0065460000187158585 -0.0021150000393390656 -0.042555000633001328
   vertex -0.0096340002492070198 -0.0032130000181496143 -0.041627001017332077
   vertex -0.0078039998188614845 -0.003653000108897686 -0.042162001132965088
  endloop
 endfacet
 facet normal 0.89630937023968338 -0.099860862259713939 0.43203856426167392
  outer loop
   vertex -0.0065460000187158585 -0.0021150000393390656 -0.042555000633001328
   vertex -0.0057330001145601273 -0.0024280000943690538 -0.044314000755548477
   vertex -0.0053579998202621937 -0.0012339999666437507 -0.044815998524427414
  endloop
 endfacet
 facet normal 0.84059739115828647 -0.31056886327527033 0.44378261248249623
  outer loop
   vertex -0.0069459998048841953 -0.0034419998992234468 -0.042725998908281326
   vertex -0.0057330001145601273 -0.0024280000943690538 -0.044314000755548477
   vertex -0.0065460000187158585 -0.0021150000393390656 -0.042555000633001328
  endloop
 endfacet
 facet normal 0.21519974425265967 0.7560524125209106 -0.61812120137955218
  outer loop
   vertex -0.012070000171661377 -0.00067099998705089092 -0.049520000815391541
   vertex -0.0085530001670122147 0.0020920000970363617 -0.044916000217199326
   vertex -0.0059139998629689217 -6.7000000854022801e-05 -0.046638000756502151
  endloop
 endfacet
 facet normal 0.17360010740372708 0.82159274962513873 -0.54299940743321118
  outer loop
   vertex -0.0059139998629689217 -6.7000000854022801e-05 -0.046638000756502151
   vertex -0.009684000164270401 -0.0014990000054240227 -0.050009999424219131
   vertex -0.012070000171661377 -0.00067099998705089092 -0.049520000815391541
  endloop
 endfacet
 facet normal 0.35208498125094401 0.65270552214810462 -0.67082908951154796
  outer loop
   vertex -0.0069149998016655445 -0.0027830000035464764 -0.049805998802185059
   vertex -0.009684000164270401 -0.0014990000054240227 -0.050009999424219131
   vertex -0.0059139998629689217 -6.7000000854022801e-05 -0.046638000756502151
  endloop
 endfacet
 facet normal 0.92709606869439898 0.084310893192280884 -0.36521849994285621
  outer loop
   vertex -0.0069149998016655445 -0.0027830000035464764 -0.049805998802185059
   vertex -0.0059139998629689217 -6.7000000854022801e-05 -0.046638000756502151
   vertex -0.0062389997765421867 -0.0028870000969618559 -0.048114001750946045
  endloop
 endfacet
 facet normal 0.97293009482010295 0.0087435584196971696 -0.23093414814510782
  outer loop
   vertex -0.0062389997765421867 -0.0028870000969618559 -0.048114001750946045
   vertex -0.0059139998629689217 -6.7000000854022801e-05 -0.046638000756502151
   vertex -0.0060279997996985912 -0.0021460000425577164 -0.047196999192237854
  endloop
 endfacet
 facet normal 0.91936798035040357 0.054349492678824073 -0.38962629448225716
  outer loop
   vertex -0.0059139998629689217 -6.7000000854022801e-05 -0.046638000756502151
   vertex -0.005528000183403492 -0.0017790000420063734 -0.045965999364852905
   vertex -0.0060279997996985912 -0.0021460000425577164 -0.047196999192237854
  endloop
 endfacet
 facet normal 0.96852956275479141 0.13673625874599554 -0.2079751947087938
  outer loop
   vertex -0.0059139998629689217 -6.7000000854022801e-05 -0.046638000756502151
   vertex -0.0053579998202621937 -0.0012339999666437507 -0.044815998524427414
   vertex -0.005528000183403492 -0.0017790000420063734 -0.045965999364852905
  endloop
 endfacet
 facet normal -0.049328121507193012 0.98147380069102419 0.18513755692913125
  outer loop
   vertex -0.011270999908447266 0.0016499999910593033 -0.043297000229358673
   vertex -0.0077209998853504658 0.0019249999895691872 -0.04380900040268898
   vertex -0.0085530001670122147 0.0020920000970363617 -0.044916000217199326
  endloop
 endfacet
 facet normal 0.039367307578204704 0.94519127721052254 0.32413525661239651
  outer loop
   vertex -0.0085530001670122147 0.0020920000970363617 -0.044916000217199326
   vertex -0.013330000452697277 0.0021969999652355909 -0.044642001390457153
   vertex -0.011270999908447266 0.0016499999910593033 -0.043297000229358673
  endloop
 endfacet
 facet normal -0.010260894714494756 0.86083756893226915 -0.50877636929641179
  outer loop
   vertex -0.0085530001670122147 0.0020920000970363617 -0.044916000217199326
   vertex -0.012070000171661377 -0.00067099998705089092 -0.049520000815391541
   vertex -0.013330000452697277 0.0021969999652355909 -0.044642001390457153
  endloop
 endfacet
 facet normal 0.17472063341917399 0.32905224785505771 0.92800717585541137
  outer loop
   vertex -0.0096340002492070198 -0.0032130000181496143 -0.041627001017332077
   vertex -0.0077209998853504658 0.0019249999895691872 -0.04380900040268898
   vertex -0.010793999768793583 0.00072800001362338662 -0.042805999517440796
  endloop
 endfacet
 facet normal 0.085191417201079978 0.5023126146680621 0.86047920345619422
  outer loop
   vertex -0.010793999768793583 0.00072800001362338662 -0.042805999517440796
   vertex -0.0077209998853504658 0.0019249999895691872 -0.04380900040268898
   vertex -0.011270999908447266 0.0016499999910593033 -0.043297000229358673
  endloop
 endfacet
 facet normal 0.95414918169264173 -0.29933039598053346 0.00080815679112798179
  outer loop
   vertex -0.0057330001145601273 -0.0024280000943690538 -0.044314000755548477
   vertex -0.005528000183403492 -0.0017790000420063734 -0.045965999364852905
   vertex -0.0053579998202621937 -0.0012339999666437507 -0.044815998524427414
  endloop
 endfacet
 facet normal 0.47894865683084409 -0.7562950855835624 0.44567468813259115
  outer loop
   vertex -0.0078039998188614845 -0.003653000108897686 -0.042162001132965088
   vertex -0.0079030003398656845 -0.0041499999351799488 -0.042899001389741898
   vertex -0.0069459998048841953 -0.0034419998992234468 -0.042725998908281326
  endloop
 endfacet
 facet normal 0.54482378656800834 -0.79878592531591908 0.25516286388675025
  outer loop
   vertex -0.0069459998048841953 -0.0034419998992234468 -0.042725998908281326
   vertex -0.0079030003398656845 -0.0041499999351799488 -0.042899001389741898
   vertex -0.0065279998816549778 -0.0035989999305456877 -0.044110000133514404
  endloop
 endfacet
 facet normal 0.81235325929451585 -0.49891010141998066 0.30194518180405139
  outer loop
   vertex -0.0069459998048841953 -0.0034419998992234468 -0.042725998908281326
   vertex -0.0065279998816549778 -0.0035989999305456877 -0.044110000133514404
   vertex -0.0057330001145601273 -0.0024280000943690538 -0.044314000755548477
  endloop
 endfacet
 facet normal -0.023782280799625577 -0.8273782672858746 0.56114134221512457
  outer loop
   vertex -0.0079030003398656845 -0.0041499999351799488 -0.042899001389741898
   vertex -0.0078039998188614845 -0.003653000108897686 -0.042162001132965088
   vertex -0.0094990003854036331 -0.0037249999586492777 -0.042339999228715897
  endloop
 endfacet
 facet normal -0.026294888902745776 -0.81433903827638121 0.57979350596284784
  outer loop
   vertex -0.0096340002492070198 -0.0032130000181496143 -0.041627001017332077
   vertex -0.0094990003854036331 -0.0037249999586492777 -0.042339999228715897
   vertex -0.0078039998188614845 -0.003653000108897686 -0.042162001132965088
  endloop
 endfacet
 facet normal -0.76295122929155412 -0.58481483126596712 0.27549416482725164
  outer loop
   vertex -0.01015700027346611 -0.002655999967828393 -0.041893001645803452
   vertex -0.0094990003854036331 -0.0037249999586492777 -0.042339999228715897
   vertex -0.0096340002492070198 -0.0032130000181496143 -0.041627001017332077
  endloop
 endfacet
 facet normal -0.26103924296269942 0.20534557220241828 0.94323470547384036
  outer loop
   vertex -0.010793999768793583 0.00072800001362338662 -0.042805999517440796
   vertex -0.01015700027346611 -0.002655999967828393 -0.041893001645803452
   vertex -0.0096340002492070198 -0.0032130000181496143 -0.041627001017332077
  endloop
 endfacet
 facet normal 0.81076569324167735 -0.57205876790541488 -0.12412798526070136
  outer loop
   vertex -0.0057330001145601273 -0.0024280000943690538 -0.044314000755548477
   vertex -0.0065279998816549778 -0.0035989999305456877 -0.044110000133514404
   vertex -0.005528000183403492 -0.0017790000420063734 -0.045965999364852905
  endloop
 endfacet
 facet normal -0.65434820288459816 -0.18880672748357891 -0.73224343564052397
  outer loop
   vertex -0.012070000171661377 -0.00067099998705089092 -0.049520000815391541
   vertex -0.016146000474691391 -0.0016080000204965472 -0.045635998249053955
   vertex -0.016078000888228416 0.0024999999441206455 -0.046755999326705933
  endloop
 endfacet
 facet normal 0.3913491365811958 0.83389000900864008 -0.3891957170534161
  outer loop
   vertex -0.012070000171661377 -0.00067099998705089092 -0.049520000815391541
   vertex -0.016078000888228416 0.0024999999441206455 -0.046755999326705933
   vertex -0.013330000452697277 0.0021969999652355909 -0.044642001390457153
  endloop
 endfacet
 facet normal -0.61389930690416006 -0.32024780986372953 -0.72150466475281805
  outer loop
   vertex -0.016146000474691391 -0.0016080000204965472 -0.045635998249053955
   vertex -0.012070000171661377 -0.00067099998705089092 -0.049520000815391541
   vertex -0.012556999921798706 -0.0037769998889416456 -0.047726999968290329
  endloop
 endfacet
 facet normal -0.32341935166759617 -0.43453367645260643 -0.8405833730186989
  outer loop
   vertex -0.009684000164270401 -0.0014990000054240227 -0.050009999424219131
   vertex -0.012556999921798706 -0.0037769998889416456 -0.047726999968290329
   vertex -0.012070000171661377 -0.00067099998705089092 -0.049520000815391541
  endloop
 endfacet
 facet normal -0.27469721266062369 -0.43773237084125988 -0.85611436903849114
  outer loop
   vertex -0.009684000164270401 -0.0014990000054240227 -0.050009999424219131
   vertex -0.0098489997908473015 -0.0065919999033212662 -0.047352999448776245
   vertex -0.011373000219464302 -0.0060169999487698078 -0.047157999128103256
  endloop
 endfacet
 facet normal -0.17322495250108508 -0.45112656808356938 -0.87548725598956456
  outer loop
   vertex -0.0098489997908473015 -0.0065919999033212662 -0.047352999448776245
   vertex -0.009684000164270401 -0.0014990000054240227 -0.050009999424219131
   vertex -0.0075079998932778835 -0.0053289998322725296 -0.048466999083757401
  endloop
 endfacet
 facet normal -0.1366385278040006 -0.43599234140421117 -0.88951705489913402
  outer loop
   vertex -0.0075079998932778835 -0.0053289998322725296 -0.048466999083757401
   vertex -0.009684000164270401 -0.0014990000054240227 -0.050009999424219131
   vertex -0.0069149998016655445 -0.0027830000035464764 -0.049805998802185059
  endloop
 endfacet
 facet normal -0.35325575934997444 -0.40137838807097642 -0.84504778449246143
  outer loop
   vertex -0.009684000164270401 -0.0014990000054240227 -0.050009999424219131
   vertex -0.011373000219464302 -0.0060169999487698078 -0.047157999128103256
   vertex -0.012556999921798706 -0.0037769998889416456 -0.047726999968290329
  endloop
 endfacet
 facet normal 0.01765774733051791 -0.46862013305769745 -0.88322328708667863
  outer loop
   vertex -0.0075079998932778835 -0.0053289998322725296 -0.048466999083757401
   vertex -0.0069149998016655445 -0.0027830000035464764 -0.049805998802185059
   vertex -0.0069400002248585224 -0.0043689999729394913 -0.048964999616146088
  endloop
 endfacet
 facet normal 0.90286400850519577 -0.21243246952031039 -0.37377670879742103
  outer loop
   vertex -0.0069149998016655445 -0.0027830000035464764 -0.049805998802185059
   vertex -0.0062389997765421867 -0.0028870000969618559 -0.048114001750946045
   vertex -0.0069400002248585224 -0.0043689999729394913 -0.048964999616146088
  endloop
 endfacet
 facet normal 0.87760340679363757 -0.46982428684097288 0.09527538967945616
  outer loop
   vertex -0.0075079998932778835 -0.0053289998322725296 -0.048466999083757401
   vertex -0.0069400002248585224 -0.0043689999729394913 -0.048964999616146088
   vertex -0.0062389997765421867 -0.0028870000969618559 -0.048114001750946045
  endloop
 endfacet
 facet normal 0.84182918920820637 -0.49781823940379466 0.20856801459945815
  outer loop
   vertex -0.0060279997996985912 -0.0021460000425577164 -0.047196999192237854
   vertex -0.0064570000395178795 -0.0029100000392645597 -0.047288998961448669
   vertex -0.0062389997765421867 -0.0028870000969618559 -0.048114001750946045
  endloop
 endfacet
 facet normal 0.85417549804863735 -0.47459176142284665 0.21247794832151881
  outer loop
   vertex -0.0064570000395178795 -0.0029100000392645597 -0.047288998961448669
   vertex -0.0075079998932778835 -0.0053289998322725296 -0.048466999083757401
   vertex -0.0062389997765421867 -0.0028870000969618559 -0.048114001750946045
  endloop
 endfacet
 facet normal 0.79539550552123861 -0.58778562433182568 -0.14783115241876219
  outer loop
   vertex -0.0065279998816549778 -0.0035989999305456877 -0.044110000133514404
   vertex -0.0060279997996985912 -0.0021460000425577164 -0.047196999192237854
   vertex -0.005528000183403492 -0.0017790000420063734 -0.045965999364852905
  endloop
 endfacet
 facet normal 0.72874421257190913 -0.65748416871914728 -0.19143260048027416
  outer loop
   vertex -0.0065279998816549778 -0.0035989999305456877 -0.044110000133514404
   vertex -0.0063450001180171967 -0.0026310000102967024 -0.046737998723983765
   vertex -0.0060279997996985912 -0.0021460000425577164 -0.047196999192237854
  endloop
 endfacet
 facet normal 0.86563485247590088 -0.49506828046156892 0.074724158475360847
  outer loop
   vertex -0.0060279997996985912 -0.0021460000425577164 -0.047196999192237854
   vertex -0.0063450001180171967 -0.0026310000102967024 -0.046737998723983765
   vertex -0.0064570000395178795 -0.0029100000392645597 -0.047288998961448669
  endloop
 endfacet
 facet normal -0.50884816446032943 0.18452878621543375 0.84084640249168707
  outer loop
   vertex -0.010793999768793583 0.00072800001362338662 -0.042805999517440796
   vertex -0.011270999908447266 0.0016499999910593033 -0.043297000229358673
   vertex -0.011332999914884567 0.00047200001426972449 -0.043076001107692719
  endloop
 endfacet
 facet normal 0.17249966218130008 0.9760079794050146 0.13286192338317948
  outer loop
   vertex -0.011270999908447266 0.0016499999910593033 -0.043297000229358673
   vertex -0.013330000452697277 0.0021969999652355909 -0.044642001390457153
   vertex -0.023361999541521072 0.0034769999329000711 -0.041019998490810394
  endloop
 endfacet
 facet normal 0.17597832364434407 -0.059962180885510377 0.98256611302791219
  outer loop
   vertex -0.013736999593675137 0.00036100001307204366 -0.042934000492095947
   vertex -0.011270999908447266 0.0016499999910593033 -0.043297000229358673
   vertex -0.023361999541521072 0.0034769999329000711 -0.041019998490810394
  endloop
 endfacet
 facet normal 0.049625130778167909 0.1816377407389968 0.9821125584852699
  outer loop
   vertex -0.013736999593675137 0.00036100001307204366 -0.042934000492095947
   vertex -0.011332999914884567 0.00047200001426972449 -0.043076001107692719
   vertex -0.011270999908447266 0.0016499999910593033 -0.043297000229358673
  endloop
 endfacet
 facet normal 0.20388985915564167 0.97086680246943935 -0.12588318869594592
  outer loop
   vertex -0.023434000089764595 0.0041820001788437366 -0.045697998255491257
   vertex -0.013330000452697277 0.0021969999652355909 -0.044642001390457153
   vertex -0.016078000888228416 0.0024999999441206455 -0.046755999326705933
  endloop
 endfacet
 facet normal 0.23234151310818776 0.91890819993745176 0.31878698432387403
  outer loop
   vertex -0.021053999662399292 0.00407399982213974 -0.044422999024391174
   vertex -0.023361999541521072 0.0034769999329000711 -0.041019998490810394
   vertex -0.013330000452697277 0.0021969999652355909 -0.044642001390457153
  endloop
 endfacet
 facet normal 0.21482853979629837 0.92171545695249424 -0.32293856211955396
  outer loop
   vertex -0.013330000452697277 0.0021969999652355909 -0.044642001390457153
   vertex -0.023434000089764595 0.0041820001788437366 -0.045697998255491257
   vertex -0.021053999662399292 0.00407399982213974 -0.044422999024391174
  endloop
 endfacet
 facet normal -0.44401062847439376 -0.010117260607999005 0.89596439819870277
  outer loop
   vertex -0.010897000320255756 -0.00068499997723847628 -0.042872998863458633
   vertex -0.010793999768793583 0.00072800001362338662 -0.042805999517440796
   vertex -0.011332999914884567 0.00047200001426972449 -0.043076001107692719
  endloop
 endfacet
 facet normal -0.77178854297888966 0.02613386184970477 0.63534200726171342
  outer loop
   vertex -0.01015700027346611 -0.002655999967828393 -0.041893001645803452
   vertex -0.010793999768793583 0.00072800001362338662 -0.042805999517440796
   vertex -0.010897000320255756 -0.00068499997723847628 -0.042872998863458633
  endloop
 endfacet
 facet normal 0.013931347770155467 -0.99957734778468843 0.025515551043141967
  outer loop
   vertex -0.0088440002873539925 -0.0042400001548230648 -0.045910999178886414
   vertex -0.0079030003398656845 -0.0041499999351799488 -0.042899001389741898
   vertex -0.0094640003517270088 -0.0042429999448359013 -0.045690000057220459
  endloop
 endfacet
 facet normal 0.31676624235371814 -0.94586501370494591 -0.070700237298386689
  outer loop
   vertex -0.0088440002873539925 -0.0042400001548230648 -0.045910999178886414
   vertex -0.0065279998816549778 -0.0035989999305456877 -0.044110000133514404
   vertex -0.0079030003398656845 -0.0041499999351799488 -0.042899001389741898
  endloop
 endfacet
 facet normal -0.20596814574789615 -0.96738866613134367 0.14743232880814536
  outer loop
   vertex -0.0079030003398656845 -0.0041499999351799488 -0.042899001389741898
   vertex -0.0094990003854036331 -0.0037249999586492777 -0.042339999228715897
   vertex -0.0094640003517270088 -0.0042429999448359013 -0.045690000057220459
  endloop
 endfacet
 facet normal 0.70897284246610526 -0.67635316970400516 -0.1997596017138514
  outer loop
   vertex -0.0065279998816549778 -0.0035989999305456877 -0.044110000133514404
   vertex -0.0071279997937381268 -0.0034239999949932098 -0.046831998974084854
   vertex -0.0063450001180171967 -0.0026310000102967024 -0.046737998723983765
  endloop
 endfacet
 facet normal 0.36328878551505395 -0.92120345834066897 -0.1393034337702721
  outer loop
   vertex -0.0071279997937381268 -0.0034239999949932098 -0.046831998974084854
   vertex -0.0065279998816549778 -0.0035989999305456877 -0.044110000133514404
   vertex -0.0088440002873539925 -0.0042400001548230648 -0.045910999178886414
  endloop
 endfacet
 facet normal -0.83474132584522398 -0.54542561569932146 0.075616246039946711
  outer loop
   vertex -0.01015700027346611 -0.002655999967828393 -0.041893001645803452
   vertex -0.0094640003517270088 -0.0042429999448359013 -0.045690000057220459
   vertex -0.0094990003854036331 -0.0037249999586492777 -0.042339999228715897
  endloop
 endfacet
 facet normal -0.70882777566785782 -0.68746659847677716 0.15796474423277707
  outer loop
   vertex -0.010811000131070614 -0.0026740001048892736 -0.044906001538038254
   vertex -0.0094640003517270088 -0.0042429999448359013 -0.045690000057220459
   vertex -0.01015700027346611 -0.002655999967828393 -0.041893001645803452
  endloop
 endfacet
 facet normal -0.94535320151328373 -0.25215215995880658 0.20670416690694332
  outer loop
   vertex -0.010897000320255756 -0.00068499997723847628 -0.042872998863458633
   vertex -0.010811000131070614 -0.0026740001048892736 -0.044906001538038254
   vertex -0.01015700027346611 -0.002655999967828393 -0.041893001645803452
  endloop
 endfacet
 facet normal -0.20321732005661483 -0.30310912303055859 -0.93103575675945605
  outer loop
   vertex -0.024362999945878983 -0.00080699997488409281 -0.043871000409126282
   vertex -0.023434000089764595 0.0041820001788437366 -0.045697998255491257
   vertex -0.016078000888228416 0.0024999999441206455 -0.046755999326705933
  endloop
 endfacet
 facet normal -0.22667628524896352 -0.25269698483709158 -0.94061793282925077
  outer loop
   vertex -0.016146000474691391 -0.0016080000204965472 -0.045635998249053955
   vertex -0.024362999945878983 -0.00080699997488409281 -0.043871000409126282
   vertex -0.016078000888228416 0.0024999999441206455 -0.046755999326705933
  endloop
 endfacet
 facet normal -0.22331364380919511 -0.58231295249553616 0.7816921656538407
  outer loop
   vertex -0.0094640003517270088 -0.0042429999448359013 -0.045690000057220459
   vertex -0.010811000131070614 -0.0026740001048892736 -0.044906001538038254
   vertex -0.016146000474691391 -0.0016080000204965472 -0.045635998249053955
  endloop
 endfacet
 facet normal -0.51085986196683064 -0.85953731098581077 0.01475847060207652
  outer loop
   vertex -0.012556999921798706 -0.0037769998889416456 -0.047726999968290329
   vertex -0.012016000226140022 -0.004083000123500824 -0.046822000294923782
   vertex -0.016146000474691391 -0.0016080000204965472 -0.045635998249053955
  endloop
 endfacet
 facet normal -0.085867076212565382 -0.99496008622239096 0.051781000830787093
  outer loop
   vertex -0.024362999945878983 -0.00080699997488409281 -0.043871000409126282
   vertex -0.016146000474691391 -0.0016080000204965472 -0.045635998249053955
   vertex -0.024299999698996544 -0.00074400001903995872 -0.042555999010801315
  endloop
 endfacet
 facet normal -0.29877179394529191 -0.76922018848464679 0.56483246787906627
  outer loop
   vertex -0.012016000226140022 -0.004083000123500824 -0.046822000294923782
   vertex -0.0094640003517270088 -0.0042429999448359013 -0.045690000057220459
   vertex -0.016146000474691391 -0.0016080000204965472 -0.045635998249053955
  endloop
 endfacet
 facet normal 0.10721830795411348 -0.84658964890273836 0.52133501782461844
  outer loop
   vertex -0.016146000474691391 -0.0016080000204965472 -0.045635998249053955
   vertex -0.013736999593675137 0.00036100001307204366 -0.042934000492095947
   vertex -0.024299999698996544 -0.00074400001903995872 -0.042555999010801315
  endloop
 endfacet
 facet normal -0.23088111964133501 -0.67678939894661327 0.69903506211537436
  outer loop
   vertex -0.016146000474691391 -0.0016080000204965472 -0.045635998249053955
   vertex -0.010811000131070614 -0.0026740001048892736 -0.044906001538038254
   vertex -0.013736999593675137 0.00036100001307204366 -0.042934000492095947
  endloop
 endfacet
 facet normal -0.8573317996445623 -0.31758008636679691 0.40512352938514179
  outer loop
   vertex -0.012016000226140022 -0.004083000123500824 -0.046822000294923782
   vertex -0.012556999921798706 -0.0037769998889416456 -0.047726999968290329
   vertex -0.011071999557316303 -0.0059030000120401382 -0.046250998973846436
  endloop
 endfacet
 facet normal -0.47832732977924652 0.25029155937609188 0.84175833877149109
  outer loop
   vertex -0.012276999652385712 -0.0049100001342594624 -0.047230999916791916
   vertex -0.011071999557316303 -0.0059030000120401382 -0.046250998973846436
   vertex -0.012556999921798706 -0.0037769998889416456 -0.047726999968290329
  endloop
 endfacet
 facet normal -0.48866209463597399 -0.44840650655685371 -0.74842565572237085
  outer loop
   vertex -0.012556999921798706 -0.0037769998889416456 -0.047726999968290329
   vertex -0.011373000219464302 -0.0060169999487698078 -0.047157999128103256
   vertex -0.012276999652385712 -0.0049100001342594624 -0.047230999916791916
  endloop
 endfacet
 facet normal -0.74391761581089344 -0.58635839843590154 0.32057824235265958
  outer loop
   vertex -0.011373000219464302 -0.0060169999487698078 -0.047157999128103256
   vertex -0.011071999557316303 -0.0059030000120401382 -0.046250998973846436
   vertex -0.012276999652385712 -0.0049100001342594624 -0.047230999916791916
  endloop
 endfacet
 facet normal -0.31925184208949764 -0.92135980112847704 0.22175296657983115
  outer loop
   vertex -0.0098489997908473015 -0.0065919999033212662 -0.047352999448776245
   vertex -0.011071999557316303 -0.0059030000120401382 -0.046250998973846436
   vertex -0.011373000219464302 -0.0060169999487698078 -0.047157999128103256
  endloop
 endfacet
 facet normal -0.018721266224124462 -0.64162721169478965 -0.76678812940977048
  outer loop
   vertex -0.0098489997908473015 -0.0065919999033212662 -0.047352999448776245
   vertex -0.0075079998932778835 -0.0053289998322725296 -0.048466999083757401
   vertex -0.0087449997663497925 -0.0064329998567700386 -0.047513000667095184
  endloop
 endfacet
 facet normal -0.20724903757766502 -0.91624185239579248 0.34285376524322791
  outer loop
   vertex -0.0098489997908473015 -0.0065919999033212662 -0.047352999448776245
   vertex -0.0094619998708367348 -0.006289999932050705 -0.046312000602483749
   vertex -0.011071999557316303 -0.0059030000120401382 -0.046250998973846436
  endloop
 endfacet
 facet normal 0.16976672114874033 -0.96155697875407187 0.21584123100035216
  outer loop
   vertex -0.0094619998708367348 -0.006289999932050705 -0.046312000602483749
   vertex -0.0098489997908473015 -0.0065919999033212662 -0.047352999448776245
   vertex -0.0087449997663497925 -0.0064329998567700386 -0.047513000667095184
  endloop
 endfacet
 facet normal 0.91775250743513337 -0.39713913969641723 -0.0032922359749885527
  outer loop
   vertex -0.0075240000151097775 -0.0053770001977682114 -0.047136999666690826
   vertex -0.0075079998932778835 -0.0053289998322725296 -0.048466999083757401
   vertex -0.0064570000395178795 -0.0029100000392645597 -0.047288998961448669
  endloop
 endfacet
 facet normal 0.65741983748939914 -0.75327786537897212 -0.019277313233724495
  outer loop
   vertex -0.0087449997663497925 -0.0064329998567700386 -0.047513000667095184
   vertex -0.0075079998932778835 -0.0053289998322725296 -0.048466999083757401
   vertex -0.0075240000151097775 -0.0053770001977682114 -0.047136999666690826
  endloop
 endfacet
 facet normal 0.68201693203815728 -0.69893443078434725 0.21527555801209752
  outer loop
   vertex -0.0063450001180171967 -0.0026310000102967024 -0.046737998723983765
   vertex -0.0071279997937381268 -0.0034239999949932098 -0.046831998974084854
   vertex -0.0064570000395178795 -0.0029100000392645597 -0.047288998961448669
  endloop
 endfacet
 facet normal 0.66697478855500847 -0.24512142987582891 0.7036050852911957
  outer loop
   vertex -0.0064570000395178795 -0.0029100000392645597 -0.047288998961448669
   vertex -0.0071279997937381268 -0.0034239999949932098 -0.046831998974084854
   vertex -0.0075240000151097775 -0.0053770001977682114 -0.047136999666690826
  endloop
 endfacet
 facet normal 0.049116196475402087 0.19053448695249162 0.98045102301213427
  outer loop
   vertex -0.010897000320255756 -0.00068499997723847628 -0.042872998863458633
   vertex -0.011332999914884567 0.00047200001426972449 -0.043076001107692719
   vertex -0.013736999593675137 0.00036100001307204366 -0.042934000492095947
  endloop
 endfacet
 facet normal 0.37006306099406094 0.83932414658956156 0.3982314751992993
  outer loop
   vertex -0.021053999662399292 0.00407399982213974 -0.044422999024391174
   vertex -0.028869999572634697 0.0059150001034140587 -0.041039999574422836
   vertex -0.023361999541521072 0.0034769999329000711 -0.041019998490810394
  endloop
 endfacet
 facet normal 0.2610089122422275 0.23040982372619856 0.93743568358612817
  outer loop
   vertex -0.019424999132752419 0.00096600002143532038 -0.041499000042676926
   vertex -0.013736999593675137 0.00036100001307204366 -0.042934000492095947
   vertex -0.023361999541521072 0.0034769999329000711 -0.041019998490810394
  endloop
 endfacet
 facet normal 0.32039492517580798 0.33318942379142741 0.88675357331962568
  outer loop
   vertex -0.023361999541521072 0.0034769999329000711 -0.041019998490810394
   vertex -0.025169000029563904 0.0011399999493733048 -0.039489001035690308
   vertex -0.019424999132752419 0.00096600002143532038 -0.041499000042676926
  endloop
 endfacet
 facet normal 0.24147206843487903 0.394200767242887 0.88673389202787345
  outer loop
   vertex -0.025169000029563904 0.0011399999493733048 -0.039489001035690308
   vertex -0.023361999541521072 0.0034769999329000711 -0.041019998490810394
   vertex -0.028333000838756561 -0.00040399999124929309 -0.037941001355648041
  endloop
 endfacet
 facet normal 0.1938843111300132 0.44520075016410154 0.87418828975854024
  outer loop
   vertex -0.028333000838756561 -0.00040399999124929309 -0.037941001355648041
   vertex -0.023361999541521072 0.0034769999329000711 -0.041019998490810394
   vertex -0.028869999572634697 0.0059150001034140587 -0.041039999574422836
  endloop
 endfacet
 facet normal 0.099400842410577284 -0.71263995524536738 0.69445213421512952
  outer loop
   vertex -0.024299999698996544 -0.00074400001903995872 -0.042555999010801315
   vertex -0.013736999593675137 0.00036100001307204366 -0.042934000492095947
   vertex -0.019424999132752419 0.00096600002143532038 -0.041499000042676926
  endloop
 endfacet
 facet normal -0.26992665352539513 -0.69395046221472656 0.6675120655902399
  outer loop
   vertex -0.010897000320255756 -0.00068499997723847628 -0.042872998863458633
   vertex -0.013736999593675137 0.00036100001307204366 -0.042934000492095947
   vertex -0.010811000131070614 -0.0026740001048892736 -0.044906001538038254
  endloop
 endfacet
 facet normal 0.18809670269004641 0.94397856679360614 -0.27115327007325868
  outer loop
   vertex -0.02739500068128109 0.0052430001087486744 -0.044752001762390137
   vertex -0.021053999662399292 0.00407399982213974 -0.044422999024391174
   vertex -0.023434000089764595 0.0041820001788437366 -0.045697998255491257
  endloop
 endfacet
 facet normal -0.29333209291745749 -0.28011006137486644 -0.91405395725921601
  outer loop
   vertex -0.02739500068128109 0.0052430001087486744 -0.044752001762390137
   vertex -0.023434000089764595 0.0041820001788437366 -0.045697998255491257
   vertex -0.024362999945878983 -0.00080699997488409281 -0.043871000409126282
  endloop
 endfacet
 facet normal 0.32485002878197916 0.91077029974099022 0.2548919769432802
  outer loop
   vertex -0.021053999662399292 0.00407399982213974 -0.044422999024391174
   vertex -0.028224999085068703 0.0063109998591244221 -0.043276999145746231
   vertex -0.028869999572634697 0.0059150001034140587 -0.041039999574422836
  endloop
 endfacet
 facet normal 0.18160612236357196 0.84221786447456537 -0.50763006715517756
  outer loop
   vertex -0.021053999662399292 0.00407399982213974 -0.044422999024391174
   vertex -0.02739500068128109 0.0052430001087486744 -0.044752001762390137
   vertex -0.028224999085068703 0.0063109998591244221 -0.043276999145746231
  endloop
 endfacet
 facet normal 0.32401458372030256 -0.27475963501141015 0.90527437415678336
  outer loop
   vertex -0.0088440002873539925 -0.0042400001548230648 -0.045910999178886414
   vertex -0.0094640003517270088 -0.0042429999448359013 -0.045690000057220459
   vertex -0.0094619998708367348 -0.006289999932050705 -0.046312000602483749
  endloop
 endfacet
 facet normal 0.56142174763230268 -0.31864037977650544 0.76372372600396232
  outer loop
   vertex -0.0088440002873539925 -0.0042400001548230648 -0.045910999178886414
   vertex -0.0094619998708367348 -0.006289999932050705 -0.046312000602483749
   vertex -0.0071279997937381268 -0.0034239999949932098 -0.046831998974084854
  endloop
 endfacet
 facet normal -0.033620525970090513 -0.29059974788247767 0.95625386104534749
  outer loop
   vertex -0.0094640003517270088 -0.0042429999448359013 -0.045690000057220459
   vertex -0.011071999557316303 -0.0059030000120401382 -0.046250998973846436
   vertex -0.0094619998708367348 -0.006289999932050705 -0.046312000602483749
  endloop
 endfacet
 facet normal -0.40006714758462819 0.078958902696921976 0.91307818345878644
  outer loop
   vertex -0.011071999557316303 -0.0059030000120401382 -0.046250998973846436
   vertex -0.0094640003517270088 -0.0042429999448359013 -0.045690000057220459
   vertex -0.012016000226140022 -0.004083000123500824 -0.046822000294923782
  endloop
 endfacet
 facet normal 0.47047525665454365 -0.22850216786675603 0.85231437401702559
  outer loop
   vertex -0.0075240000151097775 -0.0053770001977682114 -0.047136999666690826
   vertex -0.0071279997937381268 -0.0034239999949932098 -0.046831998974084854
   vertex -0.0094619998708367348 -0.006289999932050705 -0.046312000602483749
  endloop
 endfacet
 facet normal -0.41010390764893734 -0.32937439389116835 -0.85048650405511861
  outer loop
   vertex -0.029848000034689903 -0.0019280000124126673 -0.04079199954867363
   vertex -0.02739500068128109 0.0052430001087486744 -0.044752001762390137
   vertex -0.024362999945878983 -0.00080699997488409281 -0.043871000409126282
  endloop
 endfacet
 facet normal 0.21956540448629222 -0.97492637735136178 0.036188283978674907
  outer loop
   vertex -0.024362999945878983 -0.00080699997488409281 -0.043871000409126282
   vertex -0.024299999698996544 -0.00074400001903995872 -0.042555999010801315
   vertex -0.029848000034689903 -0.0019280000124126673 -0.04079199954867363
  endloop
 endfacet
 facet normal 0.31954323627451087 -0.83782402107263765 0.44265452653834725
  outer loop
   vertex -0.025429999455809593 0.00042799999937415123 -0.039521999657154083
   vertex -0.029848000034689903 -0.0019280000124126673 -0.04079199954867363
   vertex -0.024299999698996544 -0.00074400001903995872 -0.042555999010801315
  endloop
 endfacet
 facet normal 0.21754202935013292 -0.88051341843975517 0.42115506100931799
  outer loop
   vertex -0.019424999132752419 0.00096600002143532038 -0.041499000042676926
   vertex -0.025429999455809593 0.00042799999937415123 -0.039521999657154083
   vertex -0.024299999698996544 -0.00074400001903995872 -0.042555999010801315
  endloop
 endfacet
 facet normal 0.52473097960581105 -0.75006128162579444 0.40257356203282441
  outer loop
   vertex -0.0075240000151097775 -0.0053770001977682114 -0.047136999666690826
   vertex -0.0094619998708367348 -0.006289999932050705 -0.046312000602483749
   vertex -0.0087449997663497925 -0.0064329998567700386 -0.047513000667095184
  endloop
 endfacet
 facet normal 0.48448411049438367 0.82671417731006691 0.28603988482903075
  outer loop
   vertex -0.028224999085068703 0.0063109998591244221 -0.043276999145746231
   vertex -0.031367998570203781 0.0082099996507167816 -0.043441999703645706
   vertex -0.028869999572634697 0.0059150001034140587 -0.041039999574422836
  endloop
 endfacet
 facet normal 0.76043015657313617 0.61762612872106171 -0.20070859995324089
  outer loop
   vertex -0.028869999572634697 0.0059150001034140587 -0.041039999574422836
   vertex -0.031367998570203781 0.0082099996507167816 -0.043441999703645706
   vertex -0.031000999733805656 0.0084629999473690987 -0.041273001581430435
  endloop
 endfacet
 facet normal 0.76696532406279727 0.64168328217357073 0.0025994353621090148
  outer loop
   vertex -0.030691999942064285 0.0080890003591775894 -0.040119998157024384
   vertex -0.028869999572634697 0.0059150001034140587 -0.041039999574422836
   vertex -0.031000999733805656 0.0084629999473690987 -0.041273001581430435
  endloop
 endfacet
 facet normal 0.79120608816768434 0.54960085495878075 0.26820109297869732
  outer loop
   vertex -0.030691999942064285 0.0080890003591775894 -0.040119998157024384
   vertex -0.030635999515652657 0.007393999956548214 -0.038860999047756195
   vertex -0.028869999572634697 0.0059150001034140587 -0.041039999574422836
  endloop
 endfacet
 facet normal 0.82773797636648871 0.24374502000194467 0.50540895095453309
  outer loop
   vertex -0.030799999833106995 0.00098600005730986595 -0.035502001643180847
   vertex -0.028869999572634697 0.0059150001034140587 -0.041039999574422836
   vertex -0.030635999515652657 0.007393999956548214 -0.038860999047756195
  endloop
 endfacet
 facet normal 0.75106425777741459 0.34106869642552601 0.56530931799135753
  outer loop
   vertex -0.030799999833106995 0.00098600005730986595 -0.035502001643180847
   vertex -0.028333000838756561 -0.00040399999124929309 -0.037941001355648041
   vertex -0.028869999572634697 0.0059150001034140587 -0.041039999574422836
  endloop
 endfacet
 facet normal 0.32162277645890447 -0.16114172164408327 0.93305526910705905
  outer loop
   vertex -0.025169000029563904 0.0011399999493733048 -0.039489001035690308
   vertex -0.025429999455809593 0.00042799999937415123 -0.039521999657154083
   vertex -0.019424999132752419 0.00096600002143532038 -0.041499000042676926
  endloop
 endfacet
 facet normal 0.51518312914778519 -0.22715390619398734 0.82643054538316141
  outer loop
   vertex -0.025429999455809593 0.00042799999937415123 -0.039521999657154083
   vertex -0.025169000029563904 0.0011399999493733048 -0.039489001035690308
   vertex -0.028333000838756561 -0.00040399999124929309 -0.037941001355648041
  endloop
 endfacet
 facet normal 0.29508338884617308 -0.89895685454919028 0.32373193738969319
  outer loop
   vertex -0.031652998179197311 -0.0013980000512674451 -0.037675000727176666
   vertex -0.029848000034689903 -0.0019280000124126673 -0.04079199954867363
   vertex -0.028333000838756561 -0.00040399999124929309 -0.037941001355648041
  endloop
 endfacet
 facet normal 0.39469709719232937 -0.88091584039550364 0.26115413764333217
  outer loop
   vertex -0.028333000838756561 -0.00040399999124929309 -0.037941001355648041
   vertex -0.029848000034689903 -0.0019280000124126673 -0.04079199954867363
   vertex -0.025429999455809593 0.00042799999937415123 -0.039521999657154083
  endloop
 endfacet
 facet normal 0.29320403327216199 -0.87816922916229989 0.37795528812999685
  outer loop
   vertex -0.030628999695181847 -0.00035499999648891389 -0.036045998334884644
   vertex -0.031652998179197311 -0.0013980000512674451 -0.037675000727176666
   vertex -0.028333000838756561 -0.00040399999124929309 -0.037941001355648041
  endloop
 endfacet
 facet normal 0.61680291079561667 -0.22846930191494563 0.75323034147367696
  outer loop
   vertex -0.030364999547600746 0.00048300001071766019 -0.036008000373840332
   vertex -0.030628999695181847 -0.00035499999648891389 -0.036045998334884644
   vertex -0.028333000838756561 -0.00040399999124929309 -0.037941001355648041
  endloop
 endfacet
 facet normal 0.61953924575043917 -0.22170914017687765 0.75300476767216185
  outer loop
   vertex -0.030799999833106995 0.00098600005730986595 -0.035502001643180847
   vertex -0.030364999547600746 0.00048300001071766019 -0.036008000373840332
   vertex -0.028333000838756561 -0.00040399999124929309 -0.037941001355648041
  endloop
 endfacet
 facet normal 0.30274694626202819 0.69387307348895466 -0.6533639448393278
  outer loop
   vertex -0.02739500068128109 0.0052430001087486744 -0.044752001762390137
   vertex -0.03256399929523468 0.006713000126183033 -0.045586001127958298
   vertex -0.031367998570203781 0.0082099996507167816 -0.043441999703645706
  endloop
 endfacet
 facet normal 0.29033741512491534 -0.37295715515171501 -0.88125316782393592
  outer loop
   vertex -0.02739500068128109 0.0052430001087486744 -0.044752001762390137
   vertex -0.033121999353170395 -0.00049599999329075217 -0.044210001826286316
   vertex -0.033922001719474792 0.0035290000960230827 -0.046176999807357788
  endloop
 endfacet
 facet normal 0.50458384242234411 0.80890731355695444 -0.30176829528692006
  outer loop
   vertex -0.028224999085068703 0.0063109998591244221 -0.043276999145746231
   vertex -0.02739500068128109 0.0052430001087486744 -0.044752001762390137
   vertex -0.031367998570203781 0.0082099996507167816 -0.043441999703645706
  endloop
 endfacet
 facet normal 0.18660562851729026 0.10178463650091314 -0.97714800679223823
  outer loop
   vertex -0.033922001719474792 0.0035290000960230827 -0.046176999807357788
   vertex -0.03256399929523468 0.006713000126183033 -0.045586001127958298
   vertex -0.02739500068128109 0.0052430001087486744 -0.044752001762390137
  endloop
 endfacet
 facet normal 0.48925745190856718 -0.55200296958428796 -0.67521838491118091
  outer loop
   vertex -0.031975001096725464 -0.0014720000326633453 -0.042580999433994293
   vertex -0.033121999353170395 -0.00049599999329075217 -0.044210001826286316
   vertex -0.02739500068128109 0.0052430001087486744 -0.044752001762390137
  endloop
 endfacet
 facet normal 0.46847295985209858 -0.54446908568852603 -0.69576325040700049
  outer loop
   vertex -0.029848000034689903 -0.0019280000124126673 -0.04079199954867363
   vertex -0.031975001096725464 -0.0014720000326633453 -0.042580999433994293
   vertex -0.02739500068128109 0.0052430001087486744 -0.044752001762390137
  endloop
 endfacet
 facet normal 0.30919767353941718 -0.76645473225399918 -0.56297774563766056
  outer loop
   vertex -0.031273998320102692 -0.001803999999538064 -0.04174400120973587
   vertex -0.031975001096725464 -0.0014720000326633453 -0.042580999433994293
   vertex -0.029848000034689903 -0.0019280000124126673 -0.04079199954867363
  endloop
 endfacet
 facet normal 0.16000144677350939 -0.91935923346296644 -0.35941360140758516
  outer loop
   vertex -0.032669998705387115 -0.0022780001163482666 -0.041152998805046082
   vertex -0.031273998320102692 -0.001803999999538064 -0.04174400120973587
   vertex -0.029848000034689903 -0.0019280000124126673 -0.04079199954867363
  endloop
 endfacet
 facet normal 0.16182442916599976 -0.90927936528123743 -0.38343694396712502
  outer loop
   vertex -0.029848000034689903 -0.0019280000124126673 -0.04079199954867363
   vertex -0.033638998866081238 -0.0027759999502450228 -0.040380999445915222
   vertex -0.032669998705387115 -0.0022780001163482666 -0.041152998805046082
  endloop
 endfacet
 facet normal 0.23894793607574918 -0.9249323722954601 0.29564165898099037
  outer loop
   vertex -0.029848000034689903 -0.0019280000124126673 -0.04079199954867363
   vertex -0.031652998179197311 -0.0013980000512674451 -0.037675000727176666
   vertex -0.033638998866081238 -0.0027759999502450228 -0.040380999445915222
  endloop
 endfacet
 facet normal -0.82906516482028869 0.55400981242274772 0.075657651436052659
  outer loop
   vertex -0.03256399929523468 0.006713000126183033 -0.045586001127958298
   vertex -0.031000999733805656 0.0084629999473690987 -0.041273001581430435
   vertex -0.031367998570203781 0.0082099996507167816 -0.043441999703645706
  endloop
 endfacet
 facet normal -0.33584237079564511 0.86583813243366659 0.37085607774733959
  outer loop
   vertex -0.031000999733805656 0.0084629999473690987 -0.041273001581430435
   vertex -0.03130900114774704 0.0077880001626908779 -0.039976000785827637
   vertex -0.030691999942064285 0.0080890003591775894 -0.040119998157024384
  endloop
 endfacet
 facet normal -0.83641659902879051 0.54172633301378315 0.0833057800428708
  outer loop
   vertex -0.03130900114774704 0.0077880001626908779 -0.039976000785827637
   vertex -0.031000999733805656 0.0084629999473690987 -0.041273001581430435
   vertex -0.03256399929523468 0.006713000126183033 -0.045586001127958298
  endloop
 endfacet
 facet normal -0.49361791541839412 0.75189859976627416 0.43702385432321122
  outer loop
   vertex -0.030691999942064285 0.0080890003591775894 -0.040119998157024384
   vertex -0.031223999336361885 0.0070259999483823776 -0.038892000913619995
   vertex -0.030635999515652657 0.007393999956548214 -0.038860999047756195
  endloop
 endfacet
 facet normal -0.24898131159003017 0.78303920449084774 0.56996307837372118
  outer loop
   vertex -0.030691999942064285 0.0080890003591775894 -0.040119998157024384
   vertex -0.03130900114774704 0.0077880001626908779 -0.039976000785827637
   vertex -0.031223999336361885 0.0070259999483823776 -0.038892000913619995
  endloop
 endfacet
 facet normal -0.39989925823429451 0.57912027392516763 0.71042261478115953
  outer loop
   vertex -0.03284899890422821 0.0016680000117048621 -0.035438999533653259
   vertex -0.030635999515652657 0.007393999956548214 -0.038860999047756195
   vertex -0.031223999336361885 0.0070259999483823776 -0.038892000913619995
  endloop
 endfacet
 facet normal 0.17773751760441844 0.45330577039160447 0.87345478037817903
  outer loop
   vertex -0.030799999833106995 0.00098600005730986595 -0.035502001643180847
   vertex -0.030635999515652657 0.007393999956548214 -0.038860999047756195
   vertex -0.03284899890422821 0.0016680000117048621 -0.035438999533653259
  endloop
 endfacet
 facet normal -0.091400444154989061 -0.36036046992579818 0.92832445326142765
  outer loop
   vertex -0.03110400028526783 0.00044999999227002263 -0.035739999264478683
   vertex -0.030799999833106995 0.00098600005730986595 -0.035502001643180847
   vertex -0.03284899890422821 0.0016680000117048621 -0.035438999533653259
  endloop
 endfacet
 facet normal 0.31039643629680014 -0.52726123737532682 0.79098017667681531
  outer loop
   vertex -0.030799999833106995 0.00098600005730986595 -0.035502001643180847
   vertex -0.03110400028526783 0.00044999999227002263 -0.035739999264478683
   vertex -0.030364999547600746 0.00048300001071766019 -0.036008000373840332
  endloop
 endfacet
 facet normal 0.02404695967341685 -0.89787853341849766 0.43958603589822198
  outer loop
   vertex -0.031652998179197311 -0.0013980000512674451 -0.037675000727176666
   vertex -0.033348001539707184 -0.00085100001888349652 -0.036465000361204147
   vertex -0.033638998866081238 -0.0027759999502450228 -0.040380999445915222
  endloop
 endfacet
 facet normal -0.40003215199122372 -0.63676907803044958 0.65916569892366339
  outer loop
   vertex -0.030628999695181847 -0.00035499999648891389 -0.036045998334884644
   vertex -0.03284899890422821 0.0016680000117048621 -0.035438999533653259
   vertex -0.031652998179197311 -0.0013980000512674451 -0.037675000727176666
  endloop
 endfacet
 facet normal 0.43749630819415886 -0.41217998736045386 0.79918998888625836
  outer loop
   vertex -0.031652998179197311 -0.0013980000512674451 -0.037675000727176666
   vertex -0.03284899890422821 0.0016680000117048621 -0.035438999533653259
   vertex -0.033348001539707184 -0.00085100001888349652 -0.036465000361204147
  endloop
 endfacet
 facet normal 0.34298116576079107 -0.15009731547621927 0.92727273001000143
  outer loop
   vertex -0.030364999547600746 0.00048300001071766019 -0.036008000373840332
   vertex -0.03110400028526783 0.00044999999227002263 -0.035739999264478683
   vertex -0.030628999695181847 -0.00035499999648891389 -0.036045998334884644
  endloop
 endfacet
 facet normal -0.14123817256911381 -0.4234834109181535 0.89482600503475729
  outer loop
   vertex -0.030628999695181847 -0.00035499999648891389 -0.036045998334884644
   vertex -0.03110400028526783 0.00044999999227002263 -0.035739999264478683
   vertex -0.03284899890422821 0.0016680000117048621 -0.035438999533653259
  endloop
 endfacet
 facet normal -0.90447150901759976 0.33730681216465452 0.26106589942530656
  outer loop
   vertex -0.033922001719474792 0.0035290000960230827 -0.046176999807357788
   vertex -0.034657001495361328 0.00023000000510364771 -0.044461000710725784
   vertex -0.03256399929523468 0.006713000126183033 -0.045586001127958298
  endloop
 endfacet
 facet normal -0.96970103914598071 0.1574940529207749 0.18674988078655688
  outer loop
   vertex -0.03256399929523468 0.006713000126183033 -0.045586001127958298
   vertex -0.031223999336361885 0.0070259999483823776 -0.038892000913619995
   vertex -0.03130900114774704 0.0077880001626908779 -0.039976000785827637
  endloop
 endfacet
 facet normal -0.92866821547055423 0.32940223834425714 0.1704978326798596
  outer loop
   vertex -0.031223999336361885 0.0070259999483823776 -0.038892000913619995
   vertex -0.03256399929523468 0.006713000126183033 -0.045586001127958298
   vertex -0.034657001495361328 0.00023000000510364771 -0.044461000710725784
  endloop
 endfacet
 facet normal -0.066512704311765689 -0.44873768987400608 -0.89118491114452558
  outer loop
   vertex -0.033922001719474792 0.0035290000960230827 -0.046176999807357788
   vertex -0.033121999353170395 -0.00049599999329075217 -0.044210001826286316
   vertex -0.034657001495361328 0.00023000000510364771 -0.044461000710725784
  endloop
 endfacet
 facet normal 0.027310186324937643 -0.66320537860375117 -0.74793902125370648
  outer loop
   vertex -0.032841999083757401 -0.0018220000201836228 -0.043023999780416489
   vertex -0.034598000347614288 -0.0019710001070052385 -0.042955998331308365
   vertex -0.033121999353170395 -0.00049599999329075217 -0.044210001826286316
  endloop
 endfacet
 facet normal 0.54535785734613218 -0.49188497674038678 -0.67870021149837934
  outer loop
   vertex -0.032841999083757401 -0.0018220000201836228 -0.043023999780416489
   vertex -0.033121999353170395 -0.00049599999329075217 -0.044210001826286316
   vertex -0.031975001096725464 -0.0014720000326633453 -0.042580999433994293
  endloop
 endfacet
 facet normal -0.13223484008050101 -0.56189874597422929 -0.81656827414581379
  outer loop
   vertex -0.034657001495361328 0.00023000000510364771 -0.044461000710725784
   vertex -0.033121999353170395 -0.00049599999329075217 -0.044210001826286316
   vertex -0.034598000347614288 -0.0019710001070052385 -0.042955998331308365
  endloop
 endfacet
 facet normal 0.48716942493602611 -0.81729587700299566 -0.3077229286897642
  outer loop
   vertex -0.032841999083757401 -0.0018220000201836228 -0.043023999780416489
   vertex -0.031975001096725464 -0.0014720000326633453 -0.042580999433994293
   vertex -0.033004999160766602 -0.0023769999388605356 -0.041808001697063446
  endloop
 endfacet
 facet normal 0.28106940279241599 -0.78789528797010266 -0.54792427032248137
  outer loop
   vertex -0.033004999160766602 -0.0023769999388605356 -0.041808001697063446
   vertex -0.031975001096725464 -0.0014720000326633453 -0.042580999433994293
   vertex -0.031273998320102692 -0.001803999999538064 -0.04174400120973587
  endloop
 endfacet
 facet normal 0.31478925149192022 -0.94899908796160726 -0.017562977913617474
  outer loop
   vertex -0.033004999160766602 -0.0023769999388605356 -0.041808001697063446
   vertex -0.031273998320102692 -0.001803999999538064 -0.04174400120973587
   vertex -0.032669998705387115 -0.0022780001163482666 -0.041152998805046082
  endloop
 endfacet
 facet normal 0.40982448121228887 -0.90930503790065453 -0.072168155356554367
  outer loop
   vertex -0.033004999160766602 -0.0023769999388605356 -0.041808001697063446
   vertex -0.032669998705387115 -0.0022780001163482666 -0.041152998805046082
   vertex -0.033638998866081238 -0.0027759999502450228 -0.040380999445915222
  endloop
 endfacet
 facet normal 0.10427581984170897 -0.96886213653942543 -0.22457229075867571
  outer loop
   vertex -0.033004999160766602 -0.0023769999388605356 -0.041808001697063446
   vertex -0.033638998866081238 -0.0027759999502450228 -0.040380999445915222
   vertex -0.034908000379800797 -0.0025539998896420002 -0.041928000748157501
  endloop
 endfacet
 facet normal -0.16443497716644717 -0.9863654323487806 -0.0066612425022247648
  outer loop
   vertex -0.033638998866081238 -0.0027759999502450228 -0.040380999445915222
   vertex -0.035376999527215958 -0.0024820000398904085 -0.041012000292539597
   vertex -0.034908000379800797 -0.0025539998896420002 -0.041928000748157501
  endloop
 endfacet
 facet normal -0.3023704439557372 -0.84633634401853763 0.43850531058967307
  outer loop
   vertex -0.033638998866081238 -0.0027759999502450228 -0.040380999445915222
   vertex -0.033348001539707184 -0.00085100001888349652 -0.036465000361204147
   vertex -0.035376999527215958 -0.0024820000398904085 -0.041012000292539597
  endloop
 endfacet
 facet normal -0.9233967552385518 0.36211195946891023 0.12733169764241858
  outer loop
   vertex -0.031223999336361885 0.0070259999483823776 -0.038892000913619995
   vertex -0.034657001495361328 0.00023000000510364771 -0.044461000710725784
   vertex -0.03284899890422821 0.0016680000117048621 -0.035438999533653259
  endloop
 endfacet
 facet normal -0.45965345593729534 -0.25539180160247077 0.85058434509409186
  outer loop
   vertex -0.034430999308824539 -0.00026400000206194818 -0.036873999983072281
   vertex -0.033348001539707184 -0.00085100001888349652 -0.036465000361204147
   vertex -0.03284899890422821 0.0016680000117048621 -0.035438999533653259
  endloop
 endfacet
 facet normal -0.7945956141915812 0.60386285284181584 0.062987815212525361
  outer loop
   vertex -0.03284899890422821 0.0016680000117048621 -0.035438999533653259
   vertex -0.034657001495361328 0.00023000000510364771 -0.044461000710725784
   vertex -0.034430999308824539 -0.00026400000206194818 -0.036873999983072281
  endloop
 endfacet
 facet normal -0.55114012016052283 -0.67642303964757433 0.48856569607718092
  outer loop
   vertex -0.034430999308824539 -0.00026400000206194818 -0.036873999983072281
   vertex -0.035376999527215958 -0.0024820000398904085 -0.041012000292539597
   vertex -0.033348001539707184 -0.00085100001888349652 -0.036465000361204147
  endloop
 endfacet
 facet normal -0.65233289455069388 -0.43964731336800034 -0.61739131394555002
  outer loop
   vertex -0.035519000142812729 -0.0021589999087154865 -0.041848998516798019
   vertex -0.034657001495361328 0.00023000000510364771 -0.044461000710725784
   vertex -0.034598000347614288 -0.0019710001070052385 -0.042955998331308365
  endloop
 endfacet
 facet normal -0.91953218982257456 0.38945868154063162 0.052749286750947116
  outer loop
   vertex -0.034657001495361328 0.00023000000510364771 -0.044461000710725784
   vertex -0.035519000142812729 -0.0021589999087154865 -0.041848998516798019
   vertex -0.034430999308824539 -0.00026400000206194818 -0.036873999983072281
  endloop
 endfacet
 facet normal 0.061523868280086512 -0.91109076455553006 -0.40758855770675695
  outer loop
   vertex -0.034598000347614288 -0.0019710001070052385 -0.042955998331308365
   vertex -0.032841999083757401 -0.0018220000201836228 -0.043023999780416489
   vertex -0.033004999160766602 -0.0023769999388605356 -0.041808001697063446
  endloop
 endfacet
 facet normal -0.50615366452410127 -0.67575877795174233 -0.53587175882853832
  outer loop
   vertex -0.034908000379800797 -0.0025539998896420002 -0.041928000748157501
   vertex -0.035519000142812729 -0.0021589999087154865 -0.041848998516798019
   vertex -0.034598000347614288 -0.0019710001070052385 -0.042955998331308365
  endloop
 endfacet
 facet normal 0.1110117009126672 -0.87846970829301685 -0.46472290009430167
  outer loop
   vertex -0.034598000347614288 -0.0019710001070052385 -0.042955998331308365
   vertex -0.033004999160766602 -0.0023769999388605356 -0.041808001697063446
   vertex -0.034908000379800797 -0.0025539998896420002 -0.041928000748157501
  endloop
 endfacet
 facet normal -0.54957524369286359 -0.80650221336545969 -0.21799364980784194
  outer loop
   vertex -0.034908000379800797 -0.0025539998896420002 -0.041928000748157501
   vertex -0.035376999527215958 -0.0024820000398904085 -0.041012000292539597
   vertex -0.035519000142812729 -0.0021589999087154865 -0.041848998516798019
  endloop
 endfacet
 facet normal -0.97970705787657886 0.062654479304357247 0.19039038045530954
  outer loop
   vertex -0.035519000142812729 -0.0021589999087154865 -0.041848998516798019
   vertex -0.035376999527215958 -0.0024820000398904085 -0.041012000292539597
   vertex -0.034430999308824539 -0.00026400000206194818 -0.036873999983072281
  endloop
 endfacet
endsolid
