solid Visualization Toolkit generated SLA File
 facet normal 0.2862029447978125 0.52330058270130297 -0.80264835048328409
  outer loop
   vertex -0.017121000215411186 0.0038300000596791506 0.028959000483155251
   vertex -0.014654000289738178 0.0015849999617785215 0.028374999761581421
   vertex -0.016806000843644142 0.00054099998669698834 0.026926999911665916
  endloop
 endfacet
 facet normal 0.49858706633222488 0.75143856679721321 -0.43214698612390634
  outer loop
   vertex -0.016405999660491943 0.0046529998071491718 0.03121500089764595
   vertex -0.017121000215411186 0.0038300000596791506 0.028959000483155251
   vertex -0.018974000588059425 0.0062389997765421867 0.03101000003516674
  endloop
 endfacet
 facet normal 0.7545606505157938 0.65097488272271098 -0.082885021308645709
  outer loop
   vertex -0.017121000215411186 0.0038300000596791506 0.028959000483155251
   vertex -0.019435999915003777 0.0064929998479783535 0.028798999264836311
   vertex -0.018974000588059425 0.0062389997765421867 0.03101000003516674
  endloop
 endfacet
 facet normal 0.80745586920195078 0.36410005722402899 -0.464161790349853
  outer loop
   vertex -0.016806000843644142 0.00054099998669698834 0.026926999911665916
   vertex -0.019067000597715378 0.0049560000188648701 0.026457000523805618
   vertex -0.017121000215411186 0.0038300000596791506 0.028959000483155251
  endloop
 endfacet
 facet normal 0.54779189367924219 0.71497333317761314 -0.43443891868040985
  outer loop
   vertex -0.017121000215411186 0.0038300000596791506 0.028959000483155251
   vertex -0.016405999660491943 0.0046529998071491718 0.03121500089764595
   vertex -0.014654000289738178 0.0015849999617785215 0.028374999761581421
  endloop
 endfacet
 facet normal 0.75245182381013098 0.64658162876051095 -0.1254928292541552
  outer loop
   vertex -0.019121000543236732 0.005903999786823988 0.027652999386191368
   vertex -0.019435999915003777 0.0064929998479783535 0.028798999264836311
   vertex -0.017121000215411186 0.0038300000596791506 0.028959000483155251
  endloop
 endfacet
 facet normal 0.77412525867632498 0.51264068780630279 -0.37138875734840654
  outer loop
   vertex -0.019121000543236732 0.005903999786823988 0.027652999386191368
   vertex -0.017121000215411186 0.0038300000596791506 0.028959000483155251
   vertex -0.019067000597715378 0.0049560000188648701 0.026457000523805618
  endloop
 endfacet
 facet normal 0.21149938622825809 0.71613216627171994 -0.66514865260033684
  outer loop
   vertex -0.011225000023841858 0.0013849999522790313 0.029249999672174454
   vertex -0.014654000289738178 0.0015849999617785215 0.028374999761581421
   vertex -0.0068720001727342606 0.0021659999620169401 0.031475000083446503
  endloop
 endfacet
 facet normal 0.20718711384850855 0.72566697334892305 -0.65611046603886636
  outer loop
   vertex -0.016405999660491943 0.0046529998071491718 0.03121500089764595
   vertex -0.0068720001727342606 0.0021659999620169401 0.031475000083446503
   vertex -0.014654000289738178 0.0015849999617785215 0.028374999761581421
  endloop
 endfacet
 facet normal 0.23809485297250829 0.21225167562589348 -0.94776582929645659
  outer loop
   vertex -0.014654000289738178 0.0015849999617785215 0.028374999761581421
   vertex -0.013113999739289284 -0.0013660000404343009 0.028100999072194099
   vertex -0.016462000086903572 -0.0033170001115649939 0.026822999119758606
  endloop
 endfacet
 facet normal 0.53318439453488653 0.070268629856781742 -0.84307575050081773
  outer loop
   vertex -0.014654000289738178 0.0015849999617785215 0.028374999761581421
   vertex -0.016462000086903572 -0.0033170001115649939 0.026822999119758606
   vertex -0.016806000843644142 0.00054099998669698834 0.026926999911665916
  endloop
 endfacet
 facet normal 0.25322374710919598 0.21962516519935216 -0.94214782317380297
  outer loop
   vertex -0.013113999739289284 -0.0013660000404343009 0.028100999072194099
   vertex -0.014654000289738178 0.0015849999617785215 0.028374999761581421
   vertex -0.011225000023841858 0.0013849999522790313 0.029249999672174454
  endloop
 endfacet
 facet normal 0.71768853308782765 0.30067591041182135 -0.628106015233308
  outer loop
   vertex -0.016806000843644142 0.00054099998669698834 0.026926999911665916
   vertex -0.018712999299168587 -0.00058499997248873115 0.024209000170230865
   vertex -0.019067000597715378 0.0049560000188648701 0.026457000523805618
  endloop
 endfacet
 facet normal 0.798136730744753 0.087236217836992744 -0.59612716875979943
  outer loop
   vertex -0.018712999299168587 -0.00058499997248873115 0.024209000170230865
   vertex -0.016806000843644142 0.00054099998669698834 0.026926999911665916
   vertex -0.016462000086903572 -0.0033170001115649939 0.026822999119758606
  endloop
 endfacet
 facet normal 0.16405931809878321 0.91787528803804752 0.36137168643106721
  outer loop
   vertex -0.015474000014364719 0.0038119999226182699 0.032928001135587692
   vertex -0.011339000426232815 0.002529999939724803 0.034306999295949936
   vertex -0.016405999660491943 0.0046529998071491718 0.03121500089764595
  endloop
 endfacet
 facet normal 0.23761278489254462 0.93748198589321485 0.25429842819278964
  outer loop
   vertex -0.016405999660491943 0.0046529998071491718 0.03121500089764595
   vertex -0.011339000426232815 0.002529999939724803 0.034306999295949936
   vertex -0.0068720001727342606 0.0021659999620169401 0.031475000083446503
  endloop
 endfacet
 facet normal 0.51253281373191784 0.84762190719633368 0.13728516776729113
  outer loop
   vertex -0.016405999660491943 0.0046529998071491718 0.03121500089764595
   vertex -0.018974000588059425 0.0062389997765421867 0.03101000003516674
   vertex -0.015474000014364719 0.0038119999226182699 0.032928001135587692
  endloop
 endfacet
 facet normal 0.28494264456653817 0.81264838058790823 0.50834073104097988
  outer loop
   vertex -0.015474000014364719 0.0038119999226182699 0.032928001135587692
   vertex -0.018974000588059425 0.0062389997765421867 0.03101000003516674
   vertex -0.019241999834775925 0.0050550000742077827 0.033052999526262283
  endloop
 endfacet
 facet normal 0.41417579283712064 0.76288439619307147 0.49645323110326844
  outer loop
   vertex -0.019241999834775925 0.0050550000742077827 0.033052999526262283
   vertex -0.018974000588059425 0.0062389997765421867 0.03101000003516674
   vertex -0.019780000671744347 0.0066049997694790363 0.031120000407099724
  endloop
 endfacet
 facet normal 0.41539727899822187 0.90946825030438638 0.017680562467060651
  outer loop
   vertex -0.019435999915003777 0.0064929998479783535 0.028798999264836311
   vertex -0.019780000671744347 0.0066049997694790363 0.031120000407099724
   vertex -0.018974000588059425 0.0062389997765421867 0.03101000003516674
  endloop
 endfacet
 facet normal -0.36124379118216676 0.78524714568261034 -0.50288154025540499
  outer loop
   vertex -0.019435999915003777 0.0064929998479783535 0.028798999264836311
   vertex -0.019121000543236732 0.005903999786823988 0.027652999386191368
   vertex -0.019770000129938126 0.0055510001257061958 0.027567999437451363
  endloop
 endfacet
 facet normal -0.84161739553168624 0.51889016004025268 -0.14977703880055207
  outer loop
   vertex -0.020975999534130096 0.0053960001096129417 0.03365200012922287
   vertex -0.019780000671744347 0.0066049997694790363 0.031120000407099724
   vertex -0.019435999915003777 0.0064929998479783535 0.028798999264836311
  endloop
 endfacet
 facet normal -0.84936219167608906 0.50437986898645748 -0.15551467812523215
  outer loop
   vertex -0.019770000129938126 0.0055510001257061958 0.027567999437451363
   vertex -0.020975999534130096 0.0053960001096129417 0.03365200012922287
   vertex -0.019435999915003777 0.0064929998479783535 0.028798999264836311
  endloop
 endfacet
 facet normal -0.42511760799636011 0.44488823240153674 -0.78825724230233951
  outer loop
   vertex -0.021344000473618507 -0.0016830000095069408 0.023938000202178955
   vertex -0.019681999459862709 0.0045650000683963299 0.026567999273538589
   vertex -0.019067000597715378 0.0049560000188648701 0.026457000523805618
  endloop
 endfacet
 facet normal -0.059828476786054671 0.37198405802122375 -0.92630902723849318
  outer loop
   vertex -0.018712999299168587 -0.00058499997248873115 0.024209000170230865
   vertex -0.021344000473618507 -0.0016830000095069408 0.023938000202178955
   vertex -0.019067000597715378 0.0049560000188648701 0.026457000523805618
  endloop
 endfacet
 facet normal -0.51750490899089163 0.65904601857240053 -0.54575362076141642
  outer loop
   vertex -0.019121000543236732 0.005903999786823988 0.027652999386191368
   vertex -0.019067000597715378 0.0049560000188648701 0.026457000523805618
   vertex -0.019681999459862709 0.0045650000683963299 0.026567999273538589
  endloop
 endfacet
 facet normal -0.27565527238887405 0.67224733936714531 -0.68709365119902677
  outer loop
   vertex -0.019121000543236732 0.005903999786823988 0.027652999386191368
   vertex -0.019681999459862709 0.0045650000683963299 0.026567999273538589
   vertex -0.019770000129938126 0.0055510001257061958 0.027567999437451363
  endloop
 endfacet
 facet normal 0.41945168662850318 0.19064050341038452 -0.88753393233382305
  outer loop
   vertex -0.011235999874770641 -0.0011559999547898769 0.028698999434709549
   vertex -0.011225000023841858 0.0013849999522790313 0.029249999672174454
   vertex -0.0068720001727342606 0.0021659999620169401 0.031475000083446503
  endloop
 endfacet
 facet normal 0.27649359466963985 0.20251393681539073 -0.93943568034336067
  outer loop
   vertex -0.011225000023841858 0.0013849999522790313 0.029249999672174454
   vertex -0.011235999874770641 -0.0011559999547898769 0.028698999434709549
   vertex -0.013113999739289284 -0.0013660000404343009 0.028100999072194099
  endloop
 endfacet
 facet normal 0.12542400061798692 0.98958497659082267 0.070642722022300861
  outer loop
   vertex -0.011339000426232815 0.002529999939724803 0.034306999295949936
   vertex -0.0036989999935030937 0.0014959999825805426 0.035227000713348389
   vertex -0.0068720001727342606 0.0021659999620169401 0.031475000083446503
  endloop
 endfacet
 facet normal 0.36053520077260115 0.73737814262839185 -0.57121610952227442
  outer loop
   vertex -0.0028240000829100609 9.9999997473787516e-05 0.031362999230623245
   vertex -0.0068720001727342606 0.0021659999620169401 0.031475000083446503
   vertex 0.00039800000376999378 0.0008609999786131084 0.034379001706838608
  endloop
 endfacet
 facet normal 0.16109295901742113 0.9861339112487264 0.03986185696001221
  outer loop
   vertex 0.00039800000376999378 0.0008609999786131084 0.034379001706838608
   vertex -0.0068720001727342606 0.0021659999620169401 0.031475000083446503
   vertex -0.0036989999935030937 0.0014959999825805426 0.035227000713348389
  endloop
 endfacet
 facet normal 0.20706204810667622 0.45272163913363322 -0.86727644133460968
  outer loop
   vertex -0.0068720001727342606 0.0021659999620169401 0.031475000083446503
   vertex -0.0028240000829100609 9.9999997473787516e-05 0.031362999230623245
   vertex -0.011235999874770641 -0.0011559999547898769 0.028698999434709549
  endloop
 endfacet
 facet normal 0.31976770752300027 -0.31252311484075607 -0.89447074626044443
  outer loop
   vertex -0.013113999739289284 -0.0013660000404343009 0.028100999072194099
   vertex -0.011235999874770641 -0.0011559999547898769 0.028698999434709549
   vertex -0.013373999856412411 -0.0021100000012665987 0.028268000110983849
  endloop
 endfacet
 facet normal 0.50625266046238082 -0.35348225371296854 -0.7866120645431024
  outer loop
   vertex -0.013373999856412411 -0.0021100000012665987 0.028268000110983849
   vertex -0.016462000086903572 -0.0033170001115649939 0.026822999119758606
   vertex -0.013113999739289284 -0.0013660000404343009 0.028100999072194099
  endloop
 endfacet
 facet normal 0.30919821644485701 -0.93467765259332947 -0.17542562153215474
  outer loop
   vertex -0.019965000450611115 -0.0044700000435113907 0.026791999116539955
   vertex -0.016462000086903572 -0.0033170001115649939 0.026822999119758606
   vertex -0.017982000485062599 -0.0044359997846186161 0.030106000602245331
  endloop
 endfacet
 facet normal 0.40922871683474715 -0.90465442138823293 -0.11887907797635335
  outer loop
   vertex -0.016462000086903572 -0.0033170001115649939 0.026822999119758606
   vertex -0.013373999856412411 -0.0021100000012665987 0.028268000110983849
   vertex -0.017982000485062599 -0.0044359997846186161 0.030106000602245331
  endloop
 endfacet
 facet normal 0.30593378538588445 -0.92322503949213686 -0.23250816203782118
  outer loop
   vertex -0.018933000043034554 -0.0036470000632107258 0.024881999939680099
   vertex -0.016462000086903572 -0.0033170001115649939 0.026822999119758606
   vertex -0.019965000450611115 -0.0044700000435113907 0.026791999116539955
  endloop
 endfacet
 facet normal 0.60852101521106972 -0.34043784689047002 -0.71680139958782862
  outer loop
   vertex -0.018672000616788864 -0.0027719999197870493 0.024687999859452248
   vertex -0.016462000086903572 -0.0033170001115649939 0.026822999119758606
   vertex -0.018933000043034554 -0.0036470000632107258 0.024881999939680099
  endloop
 endfacet
 facet normal 0.66821348190686558 -0.14719735234570736 -0.72926242331572022
  outer loop
   vertex -0.018712999299168587 -0.00058499997248873115 0.024209000170230865
   vertex -0.016462000086903572 -0.0033170001115649939 0.026822999119758606
   vertex -0.018672000616788864 -0.0027719999197870493 0.024687999859452248
  endloop
 endfacet
 facet normal 0.72874293704588322 -0.13344625730672829 -0.67165901178839726
  outer loop
   vertex -0.019153999164700508 -0.0023439999204128981 0.024080000817775726
   vertex -0.018712999299168587 -0.00058499997248873115 0.024209000170230865
   vertex -0.018672000616788864 -0.0027719999197870493 0.024687999859452248
  endloop
 endfacet
 facet normal 0.08048133771722854 0.052818637218558291 -0.99535568810431774
  outer loop
   vertex -0.019153999164700508 -0.0023439999204128981 0.024080000817775726
   vertex -0.021344000473618507 -0.0016830000095069408 0.023938000202178955
   vertex -0.018712999299168587 -0.00058499997248873115 0.024209000170230865
  endloop
 endfacet
 facet normal 0.15135024263881741 0.36648023551889902 0.91803340953757417
  outer loop
   vertex -0.015474000014364719 0.0038119999226182699 0.032928001135587692
   vertex -0.019241999834775925 0.0050550000742077827 0.033052999526262283
   vertex -0.017559999600052834 0.0039269998669624329 0.033225998282432556
  endloop
 endfacet
 facet normal -0.17988785290759551 0.39080896216930316 0.90272294501937167
  outer loop
   vertex -0.011339000426232815 0.002529999939724803 0.034306999295949936
   vertex -0.015474000014364719 0.0038119999226182699 0.032928001135587692
   vertex -0.016196999698877335 0.002449000021442771 0.03337400034070015
  endloop
 endfacet
 facet normal 0.1501366383036849 0.23462824778410801 0.96042104057576105
  outer loop
   vertex -0.015474000014364719 0.0038119999226182699 0.032928001135587692
   vertex -0.017559999600052834 0.0039269998669624329 0.033225998282432556
   vertex -0.016196999698877335 0.002449000021442771 0.03337400034070015
  endloop
 endfacet
 facet normal -0.23305921246212538 -0.20376160324531431 0.95087570824447554
  outer loop
   vertex -0.01753699965775013 -0.0037320000119507313 0.031445998698472977
   vertex -0.012136000208556652 -0.0026110000908374786 0.033009998500347137
   vertex -0.011339000426232815 0.002529999939724803 0.034306999295949936
  endloop
 endfacet
 facet normal -0.34152695211932504 -0.17979112537242747 0.92251530730573805
  outer loop
   vertex -0.011339000426232815 0.002529999939724803 0.034306999295949936
   vertex -0.012136000208556652 -0.0026110000908374786 0.033009998500347137
   vertex -0.0018840000266209245 -0.003860000055283308 0.036561999469995499
  endloop
 endfacet
 facet normal -0.088410820862113326 0.21259610369131901 0.97313227438501759
  outer loop
   vertex -0.0018840000266209245 -0.003860000055283308 0.036561999469995499
   vertex -0.0036989999935030937 0.0014959999825805426 0.035227000713348389
   vertex -0.011339000426232815 0.002529999939724803 0.034306999295949936
  endloop
 endfacet
 facet normal -0.18320401110992629 -0.16842187945191872 0.96854032483687402
  outer loop
   vertex -0.016747999936342239 1.2000000424450263e-05 0.032846000045537949
   vertex -0.011339000426232815 0.002529999939724803 0.034306999295949936
   vertex -0.016196999698877335 0.002449000021442771 0.03337400034070015
  endloop
 endfacet
 facet normal -0.099950297095692461 -0.32994449994907588 0.93869407426692397
  outer loop
   vertex -0.011339000426232815 0.002529999939724803 0.034306999295949936
   vertex -0.016747999936342239 1.2000000424450263e-05 0.032846000045537949
   vertex -0.01753699965775013 -0.0037320000119507313 0.031445998698472977
  endloop
 endfacet
 facet normal 0.54379294455746019 0.083062676657465875 0.83509869188978147
  outer loop
   vertex -0.021712999790906906 0.003848999971523881 0.034781999886035919
   vertex -0.02011599950492382 0.0020200000144541264 0.033923998475074768
   vertex -0.019241999834775925 0.0050550000742077827 0.033052999526262283
  endloop
 endfacet
 facet normal 0.072400681592234839 0.25580755491500201 0.96401277800316953
  outer loop
   vertex -0.02011599950492382 0.0020200000144541264 0.033923998475074768
   vertex -0.017559999600052834 0.0039269998669624329 0.033225998282432556
   vertex -0.019241999834775925 0.0050550000742077827 0.033052999526262283
  endloop
 endfacet
 facet normal 0.33626469233692041 0.77819447920171081 0.53041437501969579
  outer loop
   vertex -0.019780000671744347 0.0066049997694790363 0.031120000407099724
   vertex -0.020975999534130096 0.0053960001096129417 0.03365200012922287
   vertex -0.019241999834775925 0.0050550000742077827 0.033052999526262283
  endloop
 endfacet
 facet normal 0.36913003902821095 0.42708069343321625 0.82543630619426633
  outer loop
   vertex -0.021712999790906906 0.003848999971523881 0.034781999886035919
   vertex -0.019241999834775925 0.0050550000742077827 0.033052999526262283
   vertex -0.020975999534130096 0.0053960001096129417 0.03365200012922287
  endloop
 endfacet
 facet normal -0.97586507841809722 0.10634337091951553 -0.19073131936185864
  outer loop
   vertex -0.020975999534130096 0.0053960001096129417 0.03365200012922287
   vertex -0.019770000129938126 0.0055510001257061958 0.027567999437451363
   vertex -0.019681999459862709 0.0045650000683963299 0.026567999273538589
  endloop
 endfacet
 facet normal -0.93841353286689333 0.27877590531652191 -0.20411770120993805
  outer loop
   vertex -0.019681999459862709 0.0045650000683963299 0.026567999273538589
   vertex -0.023065000772476196 -0.0016250000335276127 0.033666998147964478
   vertex -0.020975999534130096 0.0053960001096129417 0.03365200012922287
  endloop
 endfacet
 facet normal -0.93310006096144138 0.27714144887016434 -0.2291656465352099
  outer loop
   vertex -0.021712999790906906 0.003848999971523881 0.034781999886035919
   vertex -0.020975999534130096 0.0053960001096129417 0.03365200012922287
   vertex -0.023065000772476196 -0.0016250000335276127 0.033666998147964478
  endloop
 endfacet
 facet normal -0.098998922285588625 -0.51138278871234066 -0.85363156970386322
  outer loop
   vertex -0.019460000097751617 -0.0028689999599009752 0.02442999929189682
   vertex -0.021344000473618507 -0.0016830000095069408 0.023938000202178955
   vertex -0.019153999164700508 -0.0023439999204128981 0.024080000817775726
  endloop
 endfacet
 facet normal -0.39723695740572579 -0.74513373102931169 -0.53570376380363349
  outer loop
   vertex -0.018933000043034554 -0.0036470000632107258 0.024881999939680099
   vertex -0.019965000450611115 -0.0044700000435113907 0.026791999116539955
   vertex -0.021344000473618507 -0.0016830000095069408 0.023938000202178955
  endloop
 endfacet
 facet normal 0.43327384736584917 -0.53120003403658911 -0.72807986995131335
  outer loop
   vertex -0.019965000450611115 -0.0044700000435113907 0.026791999116539955
   vertex -0.021795999258756638 -0.0041459999047219753 0.025466000661253929
   vertex -0.021344000473618507 -0.0016830000095069408 0.023938000202178955
  endloop
 endfacet
 facet normal -0.46876610892369314 -0.40194904649380148 -0.7865718652146565
  outer loop
   vertex -0.022950999438762665 -0.0034799999557435513 0.025814000517129898
   vertex -0.021344000473618507 -0.0016830000095069408 0.023938000202178955
   vertex -0.021795999258756638 -0.0041459999047219753 0.025466000661253929
  endloop
 endfacet
 facet normal -0.147433365197809 -0.56962931644590409 -0.80857024720912252
  outer loop
   vertex -0.018933000043034554 -0.0036470000632107258 0.024881999939680099
   vertex -0.021344000473618507 -0.0016830000095069408 0.023938000202178955
   vertex -0.019460000097751617 -0.0028689999599009752 0.02442999929189682
  endloop
 endfacet
 facet normal -0.93310682925396415 0.31849040559489306 -0.16695959614114428
  outer loop
   vertex -0.019681999459862709 0.0045650000683963299 0.026567999273538589
   vertex -0.021344000473618507 -0.0016830000095069408 0.023938000202178955
   vertex -0.023065000772476196 -0.0016250000335276127 0.033666998147964478
  endloop
 endfacet
 facet normal -0.80842169446554146 0.57010556649514976 -0.14640357566913154
  outer loop
   vertex -0.021344000473618507 -0.0016830000095069408 0.023938000202178955
   vertex -0.022950999438762665 -0.0034799999557435513 0.025814000517129898
   vertex -0.023065000772476196 -0.0016250000335276127 0.033666998147964478
  endloop
 endfacet
 facet normal 0.43940565476052246 -0.83414798016629543 -0.33334639303428243
  outer loop
   vertex -0.011235999874770641 -0.0011559999547898769 0.028698999434709549
   vertex -0.01209499966353178 -0.0027769999578595161 0.031622998416423798
   vertex -0.013373999856412411 -0.0021100000012665987 0.028268000110983849
  endloop
 endfacet
 facet normal 0.10683682156622269 -0.89426599360823367 -0.43459662473782018
  outer loop
   vertex -0.011235999874770641 -0.0011559999547898769 0.028698999434709549
   vertex -0.00093899999046698213 -0.0013760000001639128 0.031683001667261124
   vertex -0.0018840000266209245 -0.003860000055283308 0.036561999469995499
  endloop
 endfacet
 facet normal 0.12529516169712465 -0.88285386143182643 -0.45262587399551601
  outer loop
   vertex -0.011235999874770641 -0.0011559999547898769 0.028698999434709549
   vertex -0.0018840000266209245 -0.003860000055283308 0.036561999469995499
   vertex -0.01209499966353178 -0.0027769999578595161 0.031622998416423798
  endloop
 endfacet
 facet normal 0.27815804371141872 0.14952673556414925 -0.94882551508175894
  outer loop
   vertex -0.00093899999046698213 -0.0013760000001639128 0.031683001667261124
   vertex -0.011235999874770641 -0.0011559999547898769 0.028698999434709549
   vertex -0.0028240000829100609 9.9999997473787516e-05 0.031362999230623245
  endloop
 endfacet
 facet normal 0.22229822054540896 0.88342993743980769 0.41247429832347371
  outer loop
   vertex -0.0036989999935030937 0.0014959999825805426 0.035227000713348389
   vertex 0.0030829999595880508 -0.0018830000190064311 0.038809001445770264
   vertex 0.00039800000376999378 0.0008609999786131084 0.034379001706838608
  endloop
 endfacet
 facet normal 0.044461188395766675 0.76735170034637601 0.63968317994297919
  outer loop
   vertex 8.2999998994637281e-05 -0.0012039999710395932 0.038203001022338867
   vertex 0.0030829999595880508 -0.0018830000190064311 0.038809001445770264
   vertex -0.0036989999935030937 0.0014959999825805426 0.035227000713348389
  endloop
 endfacet
 facet normal -0.62614908896246257 -0.017892395941980558 0.77949803114500149
  outer loop
   vertex -0.0018840000266209245 -0.003860000055283308 0.036561999469995499
   vertex 8.2999998994637281e-05 -0.0012039999710395932 0.038203001022338867
   vertex -0.0036989999935030937 0.0014959999825805426 0.035227000713348389
  endloop
 endfacet
 facet normal 0.041453593258238837 0.95737703808474572 -0.2858510216075148
  outer loop
   vertex 0.0016489999834448099 5.8000001445179805e-05 0.031870998442173004
   vertex -0.0028240000829100609 9.9999997473787516e-05 0.031362999230623245
   vertex 0.00039800000376999378 0.0008609999786131084 0.034379001706838608
  endloop
 endfacet
 facet normal 0.11188456995879544 -0.071988659937407731 -0.99111022386289183
  outer loop
   vertex -0.00093899999046698213 -0.0013760000001639128 0.031683001667261124
   vertex -0.0028240000829100609 9.9999997473787516e-05 0.031362999230623245
   vertex 0.0016489999834448099 5.8000001445179805e-05 0.031870998442173004
  endloop
 endfacet
 facet normal -0.028128415541171143 0.94783931277850042 -0.31750500687504624
  outer loop
   vertex 0.0016489999834448099 5.8000001445179805e-05 0.031870998442173004
   vertex 0.00039800000376999378 0.0008609999786131084 0.034379001706838608
   vertex 0.006155999843031168 0.00044599999091587961 0.03263000026345253
  endloop
 endfacet
 facet normal 0.1131445718603931 0.98379960453323045 0.13905626191864848
  outer loop
   vertex 0.00039800000376999378 0.0008609999786131084 0.034379001706838608
   vertex 0.0058059999719262123 0.00010900000052060932 0.035298999398946762
   vertex 0.006155999843031168 0.00044599999091587961 0.03263000026345253
  endloop
 endfacet
 facet normal 0.032231219167845118 0.858312149385558 0.51211463826773973
  outer loop
   vertex 0.0058059999719262123 0.00010900000052060932 0.035298999398946762
   vertex 0.00039800000376999378 0.0008609999786131084 0.034379001706838608
   vertex 0.0030829999595880508 -0.0018830000190064311 0.038809001445770264
  endloop
 endfacet
 facet normal 0.33010007915889999 -0.89381122447377326 -0.30353818992670767
  outer loop
   vertex -0.013373999856412411 -0.0021100000012665987 0.028268000110983849
   vertex -0.01209499966353178 -0.0027769999578595161 0.031622998416423798
   vertex -0.017982000485062599 -0.0044359997846186161 0.030106000602245331
  endloop
 endfacet
 facet normal 0.25403732490283809 -0.95668497007164954 -0.14219319813274101
  outer loop
   vertex -0.017982000485062599 -0.0044359997846186161 0.030106000602245331
   vertex -0.021989999338984489 -0.0054709999822080135 0.029908999800682068
   vertex -0.019965000450611115 -0.0044700000435113907 0.026791999116539955
  endloop
 endfacet
 facet normal 0.036237080256205499 -0.95809679695558836 -0.28414327667208217
  outer loop
   vertex -0.019965000450611115 -0.0044700000435113907 0.026791999116539955
   vertex -0.021989999338984489 -0.0054709999822080135 0.029908999800682068
   vertex -0.021795999258756638 -0.0041459999047219753 0.025466000661253929
  endloop
 endfacet
 facet normal 0.33814496212495415 -0.65263427394756324 0.67803133338987398
  outer loop
   vertex -0.01947999931871891 -0.0041669998317956924 0.031112000346183777
   vertex -0.017982000485062599 -0.0044359997846186161 0.030106000602245331
   vertex -0.020215999335050583 -0.0036849998869001865 0.031943000853061676
  endloop
 endfacet
 facet normal 0.14330329239271425 -0.89492465443184643 0.42258020455228179
  outer loop
   vertex -0.01753699965775013 -0.0037320000119507313 0.031445998698472977
   vertex -0.017982000485062599 -0.0044359997846186161 0.030106000602245331
   vertex -0.01209499966353178 -0.0027769999578595161 0.031622998416423798
  endloop
 endfacet
 facet normal 0.18599579932557583 -0.84421504679479809 0.50269923154754992
  outer loop
   vertex -0.02096099965274334 -0.004794000182300806 0.03060699999332428
   vertex -0.017982000485062599 -0.0044359997846186161 0.030106000602245331
   vertex -0.01947999931871891 -0.0041669998317956924 0.031112000346183777
  endloop
 endfacet
 facet normal 0.067174050679231406 -0.8922739133457438 0.44646938358415617
  outer loop
   vertex -0.01753699965775013 -0.0037320000119507313 0.031445998698472977
   vertex -0.020215999335050583 -0.0036849998869001865 0.031943000853061676
   vertex -0.017982000485062599 -0.0044359997846186161 0.030106000602245331
  endloop
 endfacet
 facet normal 0.18819196135570704 -0.82900387512730456 0.5266273451929786
  outer loop
   vertex -0.017982000485062599 -0.0044359997846186161 0.030106000602245331
   vertex -0.02096099965274334 -0.004794000182300806 0.03060699999332428
   vertex -0.021989999338984489 -0.0054709999822080135 0.029908999800682068
  endloop
 endfacet
 facet normal 0.32994271739474978 -0.29708101761789912 -0.8960360886757196
  outer loop
   vertex -0.018672000616788864 -0.0027719999197870493 0.024687999859452248
   vertex -0.018933000043034554 -0.0036470000632107258 0.024881999939680099
   vertex -0.019460000097751617 -0.0028689999599009752 0.02442999929189682
  endloop
 endfacet
 facet normal 0.30824934287413386 -0.64551609534656751 -0.69877844361870944
  outer loop
   vertex -0.019153999164700508 -0.0023439999204128981 0.024080000817775726
   vertex -0.018672000616788864 -0.0027719999197870493 0.024687999859452248
   vertex -0.019460000097751617 -0.0028689999599009752 0.02442999929189682
  endloop
 endfacet
 facet normal 0.2864839549518573 -0.03351798039790068 0.95749855798595762
  outer loop
   vertex -0.02011599950492382 0.0020200000144541264 0.033923998475074768
   vertex -0.016747999936342239 1.2000000424450263e-05 0.032846000045537949
   vertex -0.017559999600052834 0.0039269998669624329 0.033225998282432556
  endloop
 endfacet
 facet normal -0.26305664338989715 -0.14710851931243532 0.95349897006454254
  outer loop
   vertex -0.016196999698877335 0.002449000021442771 0.03337400034070015
   vertex -0.017559999600052834 0.0039269998669624329 0.033225998282432556
   vertex -0.016747999936342239 1.2000000424450263e-05 0.032846000045537949
  endloop
 endfacet
 facet normal 0.16268699807806883 -0.37547556366972623 0.91244234981901617
  outer loop
   vertex -0.020215999335050583 -0.0036849998869001865 0.031943000853061676
   vertex -0.01753699965775013 -0.0037320000119507313 0.031445998698472977
   vertex -0.016747999936342239 1.2000000424450263e-05 0.032846000045537949
  endloop
 endfacet
 facet normal 0.16770176843061391 -0.97825505700958337 0.12203753644031645
  outer loop
   vertex -0.012136000208556652 -0.0026110000908374786 0.033009998500347137
   vertex -0.01753699965775013 -0.0037320000119507313 0.031445998698472977
   vertex -0.01209499966353178 -0.0027769999578595161 0.031622998416423798
  endloop
 endfacet
 facet normal -0.158552794778067 -0.98089632918276681 0.11270937256429679
  outer loop
   vertex -0.012136000208556652 -0.0026110000908374786 0.033009998500347137
   vertex -0.01209499966353178 -0.0027769999578595161 0.031622998416423798
   vertex -0.0018840000266209245 -0.003860000055283308 0.036561999469995499
  endloop
 endfacet
 facet normal -0.31759064237758816 -0.22450876349470317 -0.92126651897714729
  outer loop
   vertex -0.0018840000266209245 -0.003860000055283308 0.036561999469995499
   vertex 0.003625999903306365 -0.0055689997971057892 0.035078998655080795
   vertex 0.00043799998820759356 -0.0052530001848936081 0.036100998520851135
  endloop
 endfacet
 facet normal -0.52982514174296336 -0.83609226567775163 -0.14224992952860346
  outer loop
   vertex -0.00049900001613423228 -0.0047949999570846558 0.036899000406265259
   vertex -0.0018840000266209245 -0.003860000055283308 0.036561999469995499
   vertex 0.00043799998820759356 -0.0052530001848936081 0.036100998520851135
  endloop
 endfacet
 facet normal -0.38932213864322707 -0.2579934891718923 0.88423279282504363
  outer loop
   vertex -0.0018840000266209245 -0.003860000055283308 0.036561999469995499
   vertex -0.00049900001613423228 -0.0047949999570846558 0.036899000406265259
   vertex 8.2999998994637281e-05 -0.0012039999710395932 0.038203001022338867
  endloop
 endfacet
 facet normal -0.34153095049449522 -0.80917283577664478 -0.4781170690275654
  outer loop
   vertex -0.00093899999046698213 -0.0013760000001639128 0.031683001667261124
   vertex 0.0021770000457763672 -0.0041140001267194748 0.034090999513864517
   vertex -0.0018840000266209245 -0.003860000055283308 0.036561999469995499
  endloop
 endfacet
 facet normal -0.37872028383925621 -0.74761686876419031 -0.54556389556855822
  outer loop
   vertex 0.0021770000457763672 -0.0041140001267194748 0.034090999513864517
   vertex 0.003625999903306365 -0.0055689997971057892 0.035078998655080795
   vertex -0.0018840000266209245 -0.003860000055283308 0.036561999469995499
  endloop
 endfacet
 facet normal 0.21520127251376073 -0.15653887579372924 0.96394190316309702
  outer loop
   vertex -0.016747999936342239 1.2000000424450263e-05 0.032846000045537949
   vertex -0.02011599950492382 0.0020200000144541264 0.033923998475074768
   vertex -0.021425999701023102 -0.0023980000987648964 0.033498998731374741
  endloop
 endfacet
 facet normal 0.38381092733315303 -0.54254594712668736 0.74721688104329598
  outer loop
   vertex -0.016747999936342239 1.2000000424450263e-05 0.032846000045537949
   vertex -0.021425999701023102 -0.0023980000987648964 0.033498998731374741
   vertex -0.020215999335050583 -0.0036849998869001865 0.031943000853061676
  endloop
 endfacet
 facet normal 0.14554976318625842 -0.0057563792135604166 0.9893341854675668
  outer loop
   vertex -0.022330999374389648 0.0021440000273287296 0.034862998872995377
   vertex -0.021831000223755836 0.0015529999509453773 0.034786000847816467
   vertex -0.021712999790906906 0.003848999971523881 0.034781999886035919
  endloop
 endfacet
 facet normal 0.45370776912796029 -0.021765382014880694 0.89088468859817971
  outer loop
   vertex -0.02011599950492382 0.0020200000144541264 0.033923998475074768
   vertex -0.021712999790906906 0.003848999971523881 0.034781999886035919
   vertex -0.021831000223755836 0.0015529999509453773 0.034786000847816467
  endloop
 endfacet
 facet normal -0.86797335102522866 0.29565248492044077 -0.39901362140960006
  outer loop
   vertex -0.022330999374389648 0.0021440000273287296 0.034862998872995377
   vertex -0.021712999790906906 0.003848999971523881 0.034781999886035919
   vertex -0.023065000772476196 -0.0016250000335276127 0.033666998147964478
  endloop
 endfacet
 facet normal 0.48582586415528817 -0.22529494883194068 0.84452082019840136
  outer loop
   vertex -0.02011599950492382 0.0020200000144541264 0.033923998475074768
   vertex -0.021831000223755836 0.0015529999509453773 0.034786000847816467
   vertex -0.021425999701023102 -0.0023980000987648964 0.033498998731374741
  endloop
 endfacet
 facet normal -0.92845794023167327 0.35824826777776098 -0.098102150103819188
  outer loop
   vertex -0.023065000772476196 -0.0016250000335276127 0.033666998147964478
   vertex -0.022950999438762665 -0.0034799999557435513 0.025814000517129898
   vertex -0.023972000926733017 -0.0046029998920857906 0.031376000493764877
  endloop
 endfacet
 facet normal -0.041232480426023461 -0.2949012142415261 0.95463770949863025
  outer loop
   vertex -0.022330999374389648 0.0021440000273287296 0.034862998872995377
   vertex -0.023065000772476196 -0.0016250000335276127 0.033666998147964478
   vertex -0.021425999701023102 -0.0023980000987648964 0.033498998731374741
  endloop
 endfacet
 facet normal -0.10573858717776016 -0.42008309973787211 0.90130435508560158
  outer loop
   vertex -0.023065000772476196 -0.0016250000335276127 0.033666998147964478
   vertex -0.022980000823736191 -0.0041910000145435333 0.032480999827384949
   vertex -0.021425999701023102 -0.0023980000987648964 0.033498998731374741
  endloop
 endfacet
 facet normal -0.63218558627842103 -0.3422327860947425 0.69513891030760133
  outer loop
   vertex -0.023972000926733017 -0.0046029998920857906 0.031376000493764877
   vertex -0.022980000823736191 -0.0041910000145435333 0.032480999827384949
   vertex -0.023065000772476196 -0.0016250000335276127 0.033666998147964478
  endloop
 endfacet
 facet normal -0.29130689087895256 -0.91317451574385877 -0.28504841540062492
  outer loop
   vertex -0.021989999338984489 -0.0054709999822080135 0.029908999800682068
   vertex -0.023829000070691109 -0.0050860000774264336 0.030555000528693199
   vertex -0.021795999258756638 -0.0041459999047219753 0.025466000661253929
  endloop
 endfacet
 facet normal -0.54502337579184634 -0.7582460572276466 -0.3577882565697042
  outer loop
   vertex -0.022950999438762665 -0.0034799999557435513 0.025814000517129898
   vertex -0.021795999258756638 -0.0041459999047219753 0.025466000661253929
   vertex -0.023829000070691109 -0.0050860000774264336 0.030555000528693199
  endloop
 endfacet
 facet normal -0.98391499323322051 0.011689804604512036 -0.17825440964862549
  outer loop
   vertex -0.023972000926733017 -0.0046029998920857906 0.031376000493764877
   vertex -0.022950999438762665 -0.0034799999557435513 0.025814000517129898
   vertex -0.023829000070691109 -0.0050860000774264336 0.030555000528693199
  endloop
 endfacet
 facet normal -0.25538017797260371 -0.78590711323413798 -0.56314383070993934
  outer loop
   vertex 0.0020949998870491982 -0.0024399999529123306 0.031791999936103821
   vertex 0.0021770000457763672 -0.0041140001267194748 0.034090999513864517
   vertex -0.00093899999046698213 -0.0013760000001639128 0.031683001667261124
  endloop
 endfacet
 facet normal 0.052122118209132533 0.046434327709522806 -0.99756059365010907
  outer loop
   vertex 0.0020949998870491982 -0.0024399999529123306 0.031791999936103821
   vertex -0.00093899999046698213 -0.0013760000001639128 0.031683001667261124
   vertex 0.0016090000281110406 -0.0012069999938830733 0.031824000179767609
  endloop
 endfacet
 facet normal 0.052876455462045939 0.035405495010543929 -0.99797321175511955
  outer loop
   vertex -0.00093899999046698213 -0.0013760000001639128 0.031683001667261124
   vertex 0.0016489999834448099 5.8000001445179805e-05 0.031870998442173004
   vertex 0.0016090000281110406 -0.0012069999938830733 0.031824000179767609
  endloop
 endfacet
 facet normal 0.38940930103532034 0.63809223375613988 0.66422789574609353
  outer loop
   vertex 0.0074570002034306526 -0.00098600005730986595 0.03538300096988678
   vertex 0.0058059999719262123 0.00010900000052060932 0.035298999398946762
   vertex 0.0030829999595880508 -0.0018830000190064311 0.038809001445770264
  endloop
 endfacet
 facet normal 0.2702904225507094 0.78905069582267406 0.55167208276213564
  outer loop
   vertex 0.0064849997870624065 -0.0032629999332129955 0.039115998893976212
   vertex 0.0074570002034306526 -0.00098600005730986595 0.03538300096988678
   vertex 0.0030829999595880508 -0.0018830000190064311 0.038809001445770264
  endloop
 endfacet
 facet normal -0.085746012361133397 0.010248322667779872 0.99626431896694034
  outer loop
   vertex 0.0027779999654740095 -0.0031709999311715364 0.038796000182628632
   vertex 0.0064849997870624065 -0.0032629999332129955 0.039115998893976212
   vertex 0.0030829999595880508 -0.0018830000190064311 0.038809001445770264
  endloop
 endfacet
 facet normal -0.19023031525622194 0.035143303757658235 0.98111027685908736
  outer loop
   vertex 8.2999998994637281e-05 -0.0012039999710395932 0.038203001022338867
   vertex 0.0027779999654740095 -0.0031709999311715364 0.038796000182628632
   vertex 0.0030829999595880508 -0.0018830000190064311 0.038809001445770264
  endloop
 endfacet
 facet normal -0.38431374261497869 -0.25944586764305738 0.88599705925031658
  outer loop
   vertex 0.0027779999654740095 -0.0031709999311715364 0.038796000182628632
   vertex 8.2999998994637281e-05 -0.0012039999710395932 0.038203001022338867
   vertex -0.00049900001613423228 -0.0047949999570846558 0.036899000406265259
  endloop
 endfacet
 facet normal -0.48688438312188598 0.047798613308727735 -0.87215760619155491
  outer loop
   vertex 0.0021659999620169401 -0.00098899996373802423 0.031525000929832458
   vertex 0.0016090000281110406 -0.0012069999938830733 0.031824000179767609
   vertex 0.0016489999834448099 5.8000001445179805e-05 0.031870998442173004
  endloop
 endfacet
 facet normal 0.12382578109493446 0.36595212585833947 -0.92235905021634146
  outer loop
   vertex 0.0021659999620169401 -0.00098899996373802423 0.031525000929832458
   vertex 0.0016489999834448099 5.8000001445179805e-05 0.031870998442173004
   vertex 0.006155999843031168 0.00044599999091587961 0.03263000026345253
  endloop
 endfacet
 facet normal 0.39115113973284782 0.26087394052724405 -0.88257893303629342
  outer loop
   vertex 0.0067440001294016838 -0.0038999998942017555 0.031605999916791916
   vertex 0.006155999843031168 0.00044599999091587961 0.03263000026345253
   vertex 0.0075449999421834946 -0.00064199999906122684 0.032924000173807144
  endloop
 endfacet
 facet normal 0.098102841154724563 0.24078839781637545 -0.96560694904002931
  outer loop
   vertex 0.0034700001124292612 -0.0052849999628961086 0.030928000807762146
   vertex 0.006155999843031168 0.00044599999091587961 0.03263000026345253
   vertex 0.0067440001294016838 -0.0038999998942017555 0.031605999916791916
  endloop
 endfacet
 facet normal 0.19669055290206222 0.19328130119370265 -0.96122586576098246
  outer loop
   vertex 0.0034700001124292612 -0.0052849999628961086 0.030928000807762146
   vertex 0.0021659999620169401 -0.00098899996373802423 0.031525000929832458
   vertex 0.006155999843031168 0.00044599999091587961 0.03263000026345253
  endloop
 endfacet
 facet normal 0.59372117457395324 0.79372283796017851 0.13228463010858671
  outer loop
   vertex 0.0074570002034306526 -0.00098600005730986595 0.03538300096988678
   vertex 0.0075449999421834946 -0.00064199999906122684 0.032924000173807144
   vertex 0.006155999843031168 0.00044599999091587961 0.03263000026345253
  endloop
 endfacet
 facet normal 0.53803312186215768 0.82462633342727498 0.17467618612034511
  outer loop
   vertex 0.0058059999719262123 0.00010900000052060932 0.035298999398946762
   vertex 0.0074570002034306526 -0.00098600005730986595 0.03538300096988678
   vertex 0.006155999843031168 0.00044599999091587961 0.03263000026345253
  endloop
 endfacet
 facet normal 0.25452670475272965 -0.84832787255414199 0.46428006334052319
  outer loop
   vertex -0.021734999492764473 -0.0048679998144507408 0.03087100014090538
   vertex -0.023313000798225403 -0.0049890000373125076 0.031514998525381088
   vertex -0.021989999338984489 -0.0054709999822080135 0.029908999800682068
  endloop
 endfacet
 facet normal -0.14247322381338579 -0.97420286509518106 0.17501473691252806
  outer loop
   vertex -0.021989999338984489 -0.0054709999822080135 0.029908999800682068
   vertex -0.023313000798225403 -0.0049890000373125076 0.031514998525381088
   vertex -0.023829000070691109 -0.0050860000774264336 0.030555000528693199
  endloop
 endfacet
 facet normal 0.24112752980479635 -0.84978540759997923 0.46874542707142669
  outer loop
   vertex -0.021734999492764473 -0.0048679998144507408 0.03087100014090538
   vertex -0.021989999338984489 -0.0054709999822080135 0.029908999800682068
   vertex -0.02096099965274334 -0.004794000182300806 0.03060699999332428
  endloop
 endfacet
 facet normal 0.2277571625088616 -0.87764758597616199 0.42173616130956498
  outer loop
   vertex -0.021734999492764473 -0.0048679998144507408 0.03087100014090538
   vertex -0.02096099965274334 -0.004794000182300806 0.03060699999332428
   vertex -0.01947999931871891 -0.0041669998317956924 0.031112000346183777
  endloop
 endfacet
 facet normal 0.17634187431165363 -0.77562357855820618 0.60606237942048091
  outer loop
   vertex -0.021734999492764473 -0.0048679998144507408 0.03087100014090538
   vertex -0.01947999931871891 -0.0041669998317956924 0.031112000346183777
   vertex -0.020215999335050583 -0.0036849998869001865 0.031943000853061676
  endloop
 endfacet
 facet normal 0.56724879806176576 -0.36138302865288108 0.74002101841714785
  outer loop
   vertex -0.021120000630617142 -0.0039900001138448715 0.032487001270055771
   vertex -0.020215999335050583 -0.0036849998869001865 0.031943000853061676
   vertex -0.021425999701023102 -0.0023980000987648964 0.033498998731374741
  endloop
 endfacet
 facet normal 0.45584307563586501 -0.84329929103598467 0.28469878140420751
  outer loop
   vertex -0.021120000630617142 -0.0039900001138448715 0.032487001270055771
   vertex -0.021734999492764473 -0.0048679998144507408 0.03087100014090538
   vertex -0.020215999335050583 -0.0036849998869001865 0.031943000853061676
  endloop
 endfacet
 facet normal 0.33327086605121015 -0.68834357097982024 -0.64429314611613375
  outer loop
   vertex 0.0050369999371469021 -0.0053369998931884766 0.035560999065637589
   vertex 0.0015770000172778964 -0.0072200000286102295 0.035783000290393829
   vertex 0.003625999903306365 -0.0055689997971057892 0.035078998655080795
  endloop
 endfacet
 facet normal -0.7007230877650803 -0.71307995457575812 -0.022452898592528771
  outer loop
   vertex 0.0021770000457763672 -0.0041140001267194748 0.034090999513864517
   vertex 0.0034700001124292612 -0.0052849999628961086 0.030928000807762146
   vertex 0.003625999903306365 -0.0055689997971057892 0.035078998655080795
  endloop
 endfacet
 facet normal -0.30735804066863248 -0.024185757086761607 -0.95128654147448088
  outer loop
   vertex 0.0015770000172778964 -0.0072200000286102295 0.035783000290393829
   vertex 0.00043799998820759356 -0.0052530001848936081 0.036100998520851135
   vertex 0.003625999903306365 -0.0055689997971057892 0.035078998655080795
  endloop
 endfacet
 facet normal 0.09167604537856569 -0.97528007827520213 0.20105788127617064
  outer loop
   vertex 0.0050369999371469021 -0.0053369998931884766 0.035560999065637589
   vertex 0.003625999903306365 -0.0055689997971057892 0.035078998655080795
   vertex 0.0053590000607073307 -0.0059790001250803471 0.03229999914765358
  endloop
 endfacet
 facet normal -0.31003159475083047 -0.9492314409852376 -0.053292416921607119
  outer loop
   vertex 0.003625999903306365 -0.0055689997971057892 0.035078998655080795
   vertex 0.0034700001124292612 -0.0052849999628961086 0.030928000807762146
   vertex 0.0053590000607073307 -0.0059790001250803471 0.03229999914765358
  endloop
 endfacet
 facet normal -0.69925751175139716 -0.30000726959379437 -0.64887176733937268
  outer loop
   vertex 0.00043799998820759356 -0.0052530001848936081 0.036100998520851135
   vertex 0.0015770000172778964 -0.0072200000286102295 0.035783000290393829
   vertex -0.00049900001613423228 -0.0047949999570846558 0.036899000406265259
  endloop
 endfacet
 facet normal -0.31644172545124694 0.1594459142816774 -0.93511584031729333
  outer loop
   vertex -0.00013699999544769526 -0.0060530002228915691 0.036561999469995499
   vertex -0.00049900001613423228 -0.0047949999570846558 0.036899000406265259
   vertex 0.0015770000172778964 -0.0072200000286102295 0.035783000290393829
  endloop
 endfacet
 facet normal -0.33369420860591686 -0.34938109073125678 0.87554613161289674
  outer loop
   vertex 0.00083700002869591117 -0.0073190000839531422 0.036400999873876572
   vertex 0.0027779999654740095 -0.0031709999311715364 0.038796000182628632
   vertex -0.00049900001613423228 -0.0047949999570846558 0.036899000406265259
  endloop
 endfacet
 facet normal -0.26570452756187757 -0.32006702491637851 0.90937242293479403
  outer loop
   vertex -0.00049900001613423228 -0.0047949999570846558 0.036899000406265259
   vertex -0.00013699999544769526 -0.0060530002228915691 0.036561999469995499
   vertex 0.00083700002869591117 -0.0073190000839531422 0.036400999873876572
  endloop
 endfacet
 facet normal -0.90137088804586829 -0.36474402979729525 -0.23343589036528389
  outer loop
   vertex 0.0020949998870491982 -0.0024399999529123306 0.031791999936103821
   vertex 0.0034700001124292612 -0.0052849999628961086 0.030928000807762146
   vertex 0.0021770000457763672 -0.0041140001267194748 0.034090999513864517
  endloop
 endfacet
 facet normal 0.054346546616946899 -0.52820945730122115 0.84737313037903284
  outer loop
   vertex -0.021120000630617142 -0.0039900001138448715 0.032487001270055771
   vertex -0.021425999701023102 -0.0023980000987648964 0.033498998731374741
   vertex -0.022980000823736191 -0.0041910000145435333 0.032480999827384949
  endloop
 endfacet
 facet normal -0.24062979814421015 -0.32283454061241862 0.915355209540343
  outer loop
   vertex -0.021831000223755836 0.0015529999509453773 0.034786000847816467
   vertex -0.022330999374389648 0.0021440000273287296 0.034862998872995377
   vertex -0.021425999701023102 -0.0023980000987648964 0.033498998731374741
  endloop
 endfacet
 facet normal -0.52685885159337142 -0.76950796615193762 0.36093938622215016
  outer loop
   vertex -0.023313000798225403 -0.0049890000373125076 0.031514998525381088
   vertex -0.023972000926733017 -0.0046029998920857906 0.031376000493764877
   vertex -0.023829000070691109 -0.0050860000774264336 0.030555000528693199
  endloop
 endfacet
 facet normal -0.48120800909138306 -0.5871495726159196 0.65091799127328664
  outer loop
   vertex -0.023313000798225403 -0.0049890000373125076 0.031514998525381088
   vertex -0.022980000823736191 -0.0041910000145435333 0.032480999827384949
   vertex -0.023972000926733017 -0.0046029998920857906 0.031376000493764877
  endloop
 endfacet
 facet normal 0.09467054862961162 -0.88940886752182091 0.4472016922997053
  outer loop
   vertex -0.022980000823736191 -0.0041910000145435333 0.032480999827384949
   vertex -0.021734999492764473 -0.0048679998144507408 0.03087100014090538
   vertex -0.021120000630617142 -0.0039900001138448715 0.032487001270055771
  endloop
 endfacet
 facet normal 0.28475641382712663 -0.78493582163958864 0.550263155854813
  outer loop
   vertex -0.022980000823736191 -0.0041910000145435333 0.032480999827384949
   vertex -0.023313000798225403 -0.0049890000373125076 0.031514998525381088
   vertex -0.021734999492764473 -0.0048679998144507408 0.03087100014090538
  endloop
 endfacet
 facet normal -0.42376383849446542 -0.14382152681620664 -0.89428159860789469
  outer loop
   vertex 0.0020949998870491982 -0.0024399999529123306 0.031791999936103821
   vertex 0.0016090000281110406 -0.0012069999938830733 0.031824000179767609
   vertex 0.0021659999620169401 -0.00098899996373802423 0.031525000929832458
  endloop
 endfacet
 facet normal -0.67205876307903978 -0.10207345291514737 -0.73342895305452072
  outer loop
   vertex 0.0034700001124292612 -0.0052849999628961086 0.030928000807762146
   vertex 0.0020949998870491982 -0.0024399999529123306 0.031791999936103821
   vertex 0.0021659999620169401 -0.00098899996373802423 0.031525000929832458
  endloop
 endfacet
 facet normal 0.95299826232522522 0.074602635964536437 0.29364733731509257
  outer loop
   vertex 0.0064849997870624065 -0.0032629999332129955 0.039115998893976212
   vertex 0.0068129999563097954 -0.0048630000092089176 0.038458000868558884
   vertex 0.0074570002034306526 -0.00098600005730986595 0.03538300096988678
  endloop
 endfacet
 facet normal 0.91945444530833353 0.13899540303851873 0.3678094628158774
  outer loop
   vertex 0.0068129999563097954 -0.0048630000092089176 0.038458000868558884
   vertex 0.007395000196993351 -0.0030580000020563602 0.036320999264717102
   vertex 0.0074570002034306526 -0.00098600005730986595 0.03538300096988678
  endloop
 endfacet
 facet normal 0.95622303116543506 0.28317137256283004 0.073834195530732033
  outer loop
   vertex 0.0080429995432496071 -0.0025200000964105129 0.033677000552415848
   vertex 0.0075449999421834946 -0.00064199999906122684 0.032924000173807144
   vertex 0.0074570002034306526 -0.00098600005730986595 0.03538300096988678
  endloop
 endfacet
 facet normal 0.96347243379412939 0.085987907669815913 0.25362757944155845
  outer loop
   vertex 0.0074570002034306526 -0.00098600005730986595 0.03538300096988678
   vertex 0.007395000196993351 -0.0030580000020563602 0.036320999264717102
   vertex 0.0080429995432496071 -0.0025200000964105129 0.033677000552415848
  endloop
 endfacet
 facet normal -0.088743470936157143 -0.39434778489966676 0.91466628937057115
  outer loop
   vertex 0.0027779999654740095 -0.0031709999311715364 0.038796000182628632
   vertex 0.0068129999563097954 -0.0048630000092089176 0.038458000868558884
   vertex 0.0064849997870624065 -0.0032629999332129955 0.039115998893976212
  endloop
 endfacet
 facet normal -0.23192693183456661 -0.40272128499682419 0.88545212456705469
  outer loop
   vertex 0.0029700000304728746 -0.0078790001571178436 0.036704998463392258
   vertex 0.0027779999654740095 -0.0031709999311715364 0.038796000182628632
   vertex 0.00083700002869591117 -0.0073190000839531422 0.036400999873876572
  endloop
 endfacet
 facet normal -0.075907578708319157 -0.36628163900117527 0.92740271749938985
  outer loop
   vertex 0.0063299997709691525 -0.0059199999086558819 0.038001000881195068
   vertex 0.0068129999563097954 -0.0048630000092089176 0.038458000868558884
   vertex 0.0027779999654740095 -0.0031709999311715364 0.038796000182628632
  endloop
 endfacet
 facet normal -0.095504268050036936 -0.38845152975485336 0.91650659780240584
  outer loop
   vertex 0.0043319999240338802 -0.0074720000848174095 0.03713500127196312
   vertex 0.0063299997709691525 -0.0059199999086558819 0.038001000881195068
   vertex 0.0027779999654740095 -0.0031709999311715364 0.038796000182628632
  endloop
 endfacet
 facet normal -0.16258192081797476 -0.40603442978275855 0.8992792452036954
  outer loop
   vertex 0.0029700000304728746 -0.0078790001571178436 0.036704998463392258
   vertex 0.0043319999240338802 -0.0074720000848174095 0.03713500127196312
   vertex 0.0027779999654740095 -0.0031709999311715364 0.038796000182628632
  endloop
 endfacet
 facet normal 0.54878297219172512 -0.36989330415269528 -0.74967739259992228
  outer loop
   vertex 0.0067440001294016838 -0.0038999998942017555 0.031605999916791916
   vertex 0.0063579999841749668 -0.0052550002001225948 0.031991999596357346
   vertex 0.0054370001889765263 -0.0056039998307824135 0.031490001827478409
  endloop
 endfacet
 facet normal 0.84436631087376224 0.0091162193988667331 -0.53568874134641387
  outer loop
   vertex 0.0080429995432496071 -0.0025200000964105129 0.033677000552415848
   vertex 0.0067440001294016838 -0.0038999998942017555 0.031605999916791916
   vertex 0.0075449999421834946 -0.00064199999906122684 0.032924000173807144
  endloop
 endfacet
 facet normal 0.25306004341648453 -0.128830112009472 -0.95883440523673003
  outer loop
   vertex 0.0067440001294016838 -0.0038999998942017555 0.031605999916791916
   vertex 0.0054370001889765263 -0.0056039998307824135 0.031490001827478409
   vertex 0.0034700001124292612 -0.0052849999628961086 0.030928000807762146
  endloop
 endfacet
 facet normal 0.87953625086110598 -0.15045470321576937 -0.45141927927531444
  outer loop
   vertex 0.0067440001294016838 -0.0038999998942017555 0.031605999916791916
   vertex 0.0080429995432496071 -0.0025200000964105129 0.033677000552415848
   vertex 0.0076609998941421509 -0.003868000116199255 0.033381998538970947
  endloop
 endfacet
 facet normal 0.83236673487212565 -0.35771129032412746 -0.42332995577086691
  outer loop
   vertex 0.0063579999841749668 -0.0052550002001225948 0.031991999596357346
   vertex 0.0067440001294016838 -0.0038999998942017555 0.031605999916791916
   vertex 0.0076609998941421509 -0.003868000116199255 0.033381998538970947
  endloop
 endfacet
 facet normal -0.026369208737859397 -0.90618019530091809 -0.4220688551349519
  outer loop
   vertex 0.0053590000607073307 -0.0059790001250803471 0.03229999914765358
   vertex 0.0034700001124292612 -0.0052849999628961086 0.030928000807762146
   vertex 0.0054370001889765263 -0.0056039998307824135 0.031490001827478409
  endloop
 endfacet
 facet normal 0.65447924421448378 -0.52932449679878713 -0.53988192781491462
  outer loop
   vertex 0.0050369999371469021 -0.0053369998931884766 0.035560999065637589
   vertex 0.0062150000594556332 -0.0044700000435113907 0.036139000207185745
   vertex 0.0035419999621808529 -0.0075699998997151852 0.035937998443841934
  endloop
 endfacet
 facet normal 0.042737862758047036 -0.19407667357688796 -0.98005495757136207
  outer loop
   vertex 0.0050369999371469021 -0.0053369998931884766 0.035560999065637589
   vertex 0.0035419999621808529 -0.0075699998997151852 0.035937998443841934
   vertex 0.0015770000172778964 -0.0072200000286102295 0.035783000290393829
  endloop
 endfacet
 facet normal 0.54334779954502266 -0.82851703136334842 0.13539829197758024
  outer loop
   vertex 0.0062150000594556332 -0.0044700000435113907 0.036139000207185745
   vertex 0.0050369999371469021 -0.0053369998931884766 0.035560999065637589
   vertex 0.0074780001305043697 -0.0039380001835525036 0.034325998276472092
  endloop
 endfacet
 facet normal 0.60390109392157965 -0.66255929490590881 0.44307860419354972
  outer loop
   vertex 0.0074780001305043697 -0.0039380001835525036 0.034325998276472092
   vertex 0.0050369999371469021 -0.0053369998931884766 0.035560999065637589
   vertex 0.0068350001238286495 -0.0051460000686347485 0.033395998179912567
  endloop
 endfacet
 facet normal 0.35460379223500871 -0.91015127832304676 0.21419804177320223
  outer loop
   vertex 0.0050369999371469021 -0.0053369998931884766 0.035560999065637589
   vertex 0.0053590000607073307 -0.0059790001250803471 0.03229999914765358
   vertex 0.0068350001238286495 -0.0051460000686347485 0.033395998179912567
  endloop
 endfacet
 facet normal -0.57345297555955965 -0.34679859350565895 -0.74221453796350823
  outer loop
   vertex -0.00013699999544769526 -0.0060530002228915691 0.036561999469995499
   vertex 0.0015770000172778964 -0.0072200000286102295 0.035783000290393829
   vertex 0.00083700002869591117 -0.0073190000839531422 0.036400999873876572
  endloop
 endfacet
 facet normal -0.18643828673107024 -0.91049764110978804 -0.36910000104889573
  outer loop
   vertex 0.0029700000304728746 -0.0078790001571178436 0.036704998463392258
   vertex 0.00083700002869591117 -0.0073190000839531422 0.036400999873876572
   vertex 0.0015770000172778964 -0.0072200000286102295 0.035783000290393829
  endloop
 endfacet
 facet normal -0.12239604949385317 -0.88558832128032994 -0.44805416221723166
  outer loop
   vertex 0.0029700000304728746 -0.0078790001571178436 0.036704998463392258
   vertex 0.0015770000172778964 -0.0072200000286102295 0.035783000290393829
   vertex 0.0035419999621808529 -0.0075699998997151852 0.035937998443841934
  endloop
 endfacet
 facet normal 0.55657071343791686 -0.82129251862528663 -0.12533012324793025
  outer loop
   vertex 0.0068350001238286495 -0.0051460000686347485 0.033395998179912567
   vertex 0.0053590000607073307 -0.0059790001250803471 0.03229999914765358
   vertex 0.0063579999841749668 -0.0052550002001225948 0.031991999596357346
  endloop
 endfacet
 facet normal 0.48586853523627427 -0.81005580182926351 -0.32823979708454931
  outer loop
   vertex 0.0054370001889765263 -0.0056039998307824135 0.031490001827478409
   vertex 0.0063579999841749668 -0.0052550002001225948 0.031991999596357346
   vertex 0.0053590000607073307 -0.0059790001250803471 0.03229999914765358
  endloop
 endfacet
 facet normal 0.75174265728576883 -0.59034519211222536 -0.29389714419658969
  outer loop
   vertex 0.0068129999563097954 -0.0048630000092089176 0.038458000868558884
   vertex 0.0062150000594556332 -0.0044700000435113907 0.036139000207185745
   vertex 0.007395000196993351 -0.0030580000020563602 0.036320999264717102
  endloop
 endfacet
 facet normal 0.91241080732887758 -0.29368502420278098 -0.28505372340749729
  outer loop
   vertex 0.0068129999563097954 -0.0048630000092089176 0.038458000868558884
   vertex 0.0063299997709691525 -0.0059199999086558819 0.038001000881195068
   vertex 0.0062150000594556332 -0.0044700000435113907 0.036139000207185745
  endloop
 endfacet
 facet normal 0.70987651490322401 -0.63303819549462514 0.30876848387385913
  outer loop
   vertex 0.0074780001305043697 -0.0039380001835525036 0.034325998276472092
   vertex 0.007395000196993351 -0.0030580000020563602 0.036320999264717102
   vertex 0.0062150000594556332 -0.0044700000435113907 0.036139000207185745
  endloop
 endfacet
 facet normal 0.93974095837730487 -0.29665362431586745 0.16995163526240292
  outer loop
   vertex 0.0074780001305043697 -0.0039380001835525036 0.034325998276472092
   vertex 0.0080429995432496071 -0.0025200000964105129 0.033677000552415848
   vertex 0.007395000196993351 -0.0030580000020563602 0.036320999264717102
  endloop
 endfacet
 facet normal 0.9400078751914781 -0.30137029446229296 0.1598785169862206
  outer loop
   vertex 0.0076609998941421509 -0.003868000116199255 0.033381998538970947
   vertex 0.0080429995432496071 -0.0025200000964105129 0.033677000552415848
   vertex 0.0074780001305043697 -0.0039380001835525036 0.034325998276472092
  endloop
 endfacet
 facet normal 0.32294132955497618 -0.93652942067688905 -0.13646077045024649
  outer loop
   vertex 0.0035419999621808529 -0.0075699998997151852 0.035937998443841934
   vertex 0.0043319999240338802 -0.0074720000848174095 0.03713500127196312
   vertex 0.0029700000304728746 -0.0078790001571178436 0.036704998463392258
  endloop
 endfacet
 facet normal 0.5862168140896965 -0.80509916394058612 0.090361402715405326
  outer loop
   vertex 0.0043319999240338802 -0.0074720000848174095 0.03713500127196312
   vertex 0.0057999999262392521 -0.0064480002038180828 0.036734998226165771
   vertex 0.0063299997709691525 -0.0059199999086558819 0.038001000881195068
  endloop
 endfacet
 facet normal 0.92229343120090834 -0.27525427198137209 -0.27131146772604414
  outer loop
   vertex 0.0062150000594556332 -0.0044700000435113907 0.036139000207185745
   vertex 0.0063299997709691525 -0.0059199999086558819 0.038001000881195068
   vertex 0.0057999999262392521 -0.0064480002038180828 0.036734998226165771
  endloop
 endfacet
 facet normal 0.50234560580549426 -0.82333677225238799 -0.264131504718635
  outer loop
   vertex 0.0057999999262392521 -0.0064480002038180828 0.036734998226165771
   vertex 0.0043319999240338802 -0.0074720000848174095 0.03713500127196312
   vertex 0.0035419999621808529 -0.0075699998997151852 0.035937998443841934
  endloop
 endfacet
 facet normal 0.81499144060635609 -0.52933004281845575 -0.23579367571711515
  outer loop
   vertex 0.0063579999841749668 -0.0052550002001225948 0.031991999596357346
   vertex 0.0076609998941421509 -0.003868000116199255 0.033381998538970947
   vertex 0.0068350001238286495 -0.0051460000686347485 0.033395998179912567
  endloop
 endfacet
 facet normal 0.83420364444908834 -0.53782974700722641 0.12183366867168527
  outer loop
   vertex 0.0076609998941421509 -0.003868000116199255 0.033381998538970947
   vertex 0.0074780001305043697 -0.0039380001835525036 0.034325998276472092
   vertex 0.0068350001238286495 -0.0051460000686347485 0.033395998179912567
  endloop
 endfacet
 facet normal 0.45966517405687979 -0.34324142983715666 -0.81908073387340918
  outer loop
   vertex 0.0057999999262392521 -0.0064480002038180828 0.036734998226165771
   vertex 0.0035419999621808529 -0.0075699998997151852 0.035937998443841934
   vertex 0.0062150000594556332 -0.0044700000435113907 0.036139000207185745
  endloop
 endfacet
endsolid
