solid Visualization Toolkit generated SLA File
 facet normal -0.91368467458366809 0.20510876137169032 -0.35087136024404642
  outer loop
   vertex -0.015336000360548496 -0.0017089999746531248 -0.0050200000405311584
   vertex -0.014888999983668327 -0.0042630000971257687 -0.0076770000159740448
   vertex -0.017534000799059868 -0.0057729999534785748 -0.0016720000421628356
  endloop
 endfacet
 facet normal -0.92148371662470596 0.33115221394195588 -0.20299253975666101
  outer loop
   vertex -0.016408000141382217 -0.00091599998995661736 0.0011399999493733048
   vertex -0.015336000360548496 -0.0017089999746531248 -0.0050200000405311584
   vertex -0.017534000799059868 -0.0057729999534785748 -0.0016720000421628356
  endloop
 endfacet
 facet normal -0.84573978272807737 0.28229714990333427 -0.45280518886991439
  outer loop
   vertex -0.0098120002076029778 0.0084020001813769341 -0.0090340003371238708
   vertex -0.008588000200688839 0.00036299999919719994 -0.016332000494003296
   vertex -0.015336000360548496 -0.0017089999746531248 -0.0050200000405311584
  endloop
 endfacet
 facet normal -0.83952628328030443 0.31419776388736032 -0.44325543972944176
  outer loop
   vertex -0.008588000200688839 0.00036299999919719994 -0.016332000494003296
   vertex -0.014888999983668327 -0.0042630000971257687 -0.0076770000159740448
   vertex -0.015336000360548496 -0.0017089999746531248 -0.0050200000405311584
  endloop
 endfacet
 facet normal -0.89079963653448169 0.40446219056485522 -0.20709018314134017
  outer loop
   vertex -0.0098120002076029778 0.0084020001813769341 -0.0090340003371238708
   vertex -0.015336000360548496 -0.0017089999746531248 -0.0050200000405311584
   vertex -0.016408000141382217 -0.00091599998995661736 0.0011399999493733048
  endloop
 endfacet
 facet normal -0.90873286609264659 -0.054066100718050951 -0.41386161314645969
  outer loop
   vertex -0.014888999983668327 -0.0042630000971257687 -0.0076770000159740448
   vertex -0.015134000219404697 -0.0093919998034834862 -0.0064690001308917999
   vertex -0.017534000799059868 -0.0057729999534785748 -0.0016720000421628356
  endloop
 endfacet
 facet normal -0.83956764922520144 0.31357227631668705 -0.44361987094813543
  outer loop
   vertex -0.008588000200688839 0.00036299999919719994 -0.016332000494003296
   vertex -0.0081089995801448822 -0.002377999946475029 -0.019176000729203224
   vertex -0.014888999983668327 -0.0042630000971257687 -0.0076770000159740448
  endloop
 endfacet
 facet normal -0.8527451766962123 -0.080805643532050456 -0.51603886636058427
  outer loop
   vertex -0.0081089995801448822 -0.002377999946475029 -0.019176000729203224
   vertex -0.015134000219404697 -0.0093919998034834862 -0.0064690001308917999
   vertex -0.014888999983668327 -0.0042630000971257687 -0.0076770000159740448
  endloop
 endfacet
 facet normal -0.92613340286284007 -0.28172472013653704 -0.25081487628465376
  outer loop
   vertex -0.015134000219404697 -0.0093919998034834862 -0.0064690001308917999
   vertex -0.016145000234246254 -0.01116000022739172 -0.00075000000651925802
   vertex -0.017534000799059868 -0.0057729999534785748 -0.0016720000421628356
  endloop
 endfacet
 facet normal -0.96698062219027703 -0.25361609503031651 -0.025047008805008316
  outer loop
   vertex -0.016145000234246254 -0.01116000022739172 -0.00075000000651925802
   vertex -0.016893999651074409 -0.0087369997054338455 0.0036319999489933252
   vertex -0.017534000799059868 -0.0057729999534785748 -0.0016720000421628356
  endloop
 endfacet
 facet normal -0.99292236423540603 -0.10014333496617307 0.063847404512828221
  outer loop
   vertex -0.016893999651074409 -0.0087369997054338455 0.0036319999489933252
   vertex -0.017212999984622002 -0.0043060001917183399 0.0056210001930594444
   vertex -0.017534000799059868 -0.0057729999534785748 -0.0016720000421628356
  endloop
 endfacet
 facet normal -0.97379128598194131 0.22742516244788083 -0.0028856249222350681
  outer loop
   vertex -0.017212999984622002 -0.0043060001917183399 0.0056210001930594444
   vertex -0.016408000141382217 -0.00091599998995661736 0.0011399999493733048
   vertex -0.017534000799059868 -0.0057729999534785748 -0.0016720000421628356
  endloop
 endfacet
 facet normal -0.84774388433859782 0.48503333864379466 0.21464614361912043
  outer loop
   vertex -0.011834000237286091 0.00648899981752038 0.0024719999637454748
   vertex -0.016408000141382217 -0.00091599998995661736 0.0011399999493733048
   vertex -0.017212999984622002 -0.0043060001917183399 0.0056210001930594444
  endloop
 endfacet
 facet normal -0.84440296010719396 0.53235126256528598 -0.059881334381879786
  outer loop
   vertex -0.011834000237286091 0.00648899981752038 0.0024719999637454748
   vertex -0.0098120002076029778 0.0084020001813769341 -0.0090340003371238708
   vertex -0.016408000141382217 -0.00091599998995661736 0.0011399999493733048
  endloop
 endfacet
 facet normal -0.54959623973854899 0.57272604992578713 -0.60821776116918214
  outer loop
   vertex -0.0024029999040067196 0.0090720001608133316 -0.015097999945282936
   vertex -0.0018189999973401427 0.0059580001980066299 -0.018557999283075333
   vertex -0.0098120002076029778 0.0084020001813769341 -0.0090340003371238708
  endloop
 endfacet
 facet normal -0.60634378867542715 0.48191408719602186 -0.63253934462352146
  outer loop
   vertex -0.0018189999973401427 0.0059580001980066299 -0.018557999283075333
   vertex -0.008588000200688839 0.00036299999919719994 -0.016332000494003296
   vertex -0.0098120002076029778 0.0084020001813769341 -0.0090340003371238708
  endloop
 endfacet
 facet normal -0.10649187498678946 0.98370798856809882 0.14483809508932124
  outer loop
   vertex -0.0040400000289082527 0.0085420003160834312 -0.0057410001754760742
   vertex -0.0098120002076029778 0.0084020001813769341 -0.0090340003371238708
   vertex -0.011834000237286091 0.00648899981752038 0.0024719999637454748
  endloop
 endfacet
 facet normal -0.051310233362015463 0.99755123905657872 0.047526681022558102
  outer loop
   vertex -0.0040400000289082527 0.0085420003160834312 -0.0057410001754760742
   vertex -0.0024029999040067196 0.0090720001608133316 -0.015097999945282936
   vertex -0.0098120002076029778 0.0084020001813769341 -0.0090340003371238708
  endloop
 endfacet
 facet normal -0.31670094643239199 0.0057858032345955773 -0.94850779385820416
  outer loop
   vertex -0.0018189999973401427 0.0059580001980066299 -0.018557999283075333
   vertex -0.0018489999929443002 0.00070899998536333442 -0.018580000847578049
   vertex -0.008588000200688839 0.00036299999919719994 -0.016332000494003296
  endloop
 endfacet
 facet normal -0.26527436265114812 0.67151791576662723 -0.69187657954614423
  outer loop
   vertex -0.0018489999929443002 0.00070899998536333442 -0.018580000847578049
   vertex -0.0081089995801448822 -0.002377999946475029 -0.019176000729203224
   vertex -0.008588000200688839 0.00036299999919719994 -0.016332000494003296
  endloop
 endfacet
 facet normal -0.87682897752903988 0.007251599540649474 -0.48074770771110342
  outer loop
   vertex -0.0081089995801448822 -0.002377999946475029 -0.019176000729203224
   vertex -0.0081559997051954269 -0.010315000079572201 -0.019209999591112137
   vertex -0.015134000219404697 -0.0093919998034834862 -0.0064690001308917999
  endloop
 endfacet
 facet normal -0.76117783053411914 -0.52646119513358502 -0.37874387166248535
  outer loop
   vertex -0.0081559997051954269 -0.010315000079572201 -0.019209999591112137
   vertex -0.0095089999958872795 -0.01384000014513731 -0.01159099955111742
   vertex -0.015134000219404697 -0.0093919998034834862 -0.0064690001308917999
  endloop
 endfacet
 facet normal -0.74794005652678719 -0.58525502520603523 -0.31314889000887347
  outer loop
   vertex -0.0095089999958872795 -0.01384000014513731 -0.01159099955111742
   vertex -0.016145000234246254 -0.01116000022739172 -0.00075000000651925802
   vertex -0.015134000219404697 -0.0093919998034834862 -0.0064690001308917999
  endloop
 endfacet
 facet normal 0.092962961339578154 0.0037145174826632445 -0.99566263873806526
  outer loop
   vertex -0.0018489999929443002 0.00070899998536333442 -0.018580000847578049
   vertex -0.0081559997051954269 -0.010315000079572201 -0.019209999591112137
   vertex -0.0081089995801448822 -0.002377999946475029 -0.019176000729203224
  endloop
 endfacet
 facet normal -0.073729944395265437 -0.97771398243263696 0.19656872552668242
  outer loop
   vertex -0.0095089999958872795 -0.01384000014513731 -0.01159099955111742
   vertex -0.011753000319004059 -0.011068999767303467 0.0013500000350177288
   vertex -0.016145000234246254 -0.01116000022739172 -0.00075000000651925802
  endloop
 endfacet
 facet normal -0.1964039339795593 -0.87191189128927893 0.44854782191613157
  outer loop
   vertex -0.011753000319004059 -0.011068999767303467 0.0013500000350177288
   vertex -0.016893999651074409 -0.0087369997054338455 0.0036319999489933252
   vertex -0.016145000234246254 -0.01116000022739172 -0.00075000000651925802
  endloop
 endfacet
 facet normal 0.015047729472212289 -0.68218109940542337 0.73102839442236367
  outer loop
   vertex -0.011753000319004059 -0.011068999767303467 0.0013500000350177288
   vertex -0.012790000066161156 -0.0044639999978244305 0.0075349998660385609
   vertex -0.016893999651074409 -0.0087369997054338455 0.0036319999489933252
  endloop
 endfacet
 facet normal -0.375717176414681 -0.40189168604570946 0.83505669031169172
  outer loop
   vertex -0.012790000066161156 -0.0044639999978244305 0.0075349998660385609
   vertex -0.017212999984622002 -0.0043060001917183399 0.0056210001930594444
   vertex -0.016893999651074409 -0.0087369997054338455 0.0036319999489933252
  endloop
 endfacet
 facet normal -0.37285588311553125 -0.42103977450842517 0.82686395417144154
  outer loop
   vertex -0.012790000066161156 -0.0044639999978244305 0.0075349998660385609
   vertex -0.013199999928474426 0.00090300000738352537 0.010083000175654888
   vertex -0.017212999984622002 -0.0043060001917183399 0.0056210001930594444
  endloop
 endfacet
 facet normal -0.85184001275823584 0.48334419955680274 0.20185880565098555
  outer loop
   vertex -0.013199999928474426 0.00090300000738352537 0.010083000175654888
   vertex -0.011834000237286091 0.00648899981752038 0.0024719999637454748
   vertex -0.017212999984622002 -0.0043060001917183399 0.0056210001930594444
  endloop
 endfacet
 facet normal -0.30546669623240164 0.79296337376925163 0.52716144145161814
  outer loop
   vertex -0.0060530002228915691 0.0065680001862347126 0.0057029998861253262
   vertex -0.011834000237286091 0.00648899981752038 0.0024719999637454748
   vertex -0.013199999928474426 0.00090300000738352537 0.010083000175654888
  endloop
 endfacet
 facet normal -0.09855605465415504 0.98340894294862446 0.15229430396333354
  outer loop
   vertex -0.0060530002228915691 0.0065680001862347126 0.0057029998861253262
   vertex -0.0040400000289082527 0.0085420003160834312 -0.0057410001754760742
   vertex -0.011834000237286091 0.00648899981752038 0.0024719999637454748
  endloop
 endfacet
 facet normal -0.30786785694991614 0.68077029270879641 -0.66465719827761272
  outer loop
   vertex 0.0042240000329911709 0.01054100040346384 -0.016662999987602234
   vertex -0.0018189999973401427 0.0059580001980066299 -0.018557999283075333
   vertex -0.0024029999040067196 0.0090720001608133316 -0.015097999945282936
  endloop
 endfacet
 facet normal -0.088885346177438249 0.99520506363438799 0.040820050849925127
  outer loop
   vertex 0.0027860000263899565 0.0092639997601509094 -0.0084800003096461296
   vertex -0.0024029999040067196 0.0090720001608133316 -0.015097999945282936
   vertex -0.0040400000289082527 0.0085420003160834312 -0.0057410001754760742
  endloop
 endfacet
 facet normal -0.18798237462498507 0.9749235615881735 0.11910783303621429
  outer loop
   vertex 0.0027860000263899565 0.0092639997601509094 -0.0084800003096461296
   vertex 0.0042240000329911709 0.01054100040346384 -0.016662999987602234
   vertex -0.0024029999040067196 0.0090720001608133316 -0.015097999945282936
  endloop
 endfacet
 facet normal -0.029929427614461396 0.41538475311376649 -0.90915330733781408
  outer loop
   vertex 0.0042240000329911709 0.01054100040346384 -0.016662999987602234
   vertex 0.0044040000066161156 0.0081070000305771828 -0.017781000584363937
   vertex -0.0018189999973401427 0.0059580001980066299 -0.018557999283075333
  endloop
 endfacet
 facet normal 0.12272033662652708 0.0034584717533311868 -0.99243526637831814
  outer loop
   vertex 0.0044040000066161156 0.0081070000305771828 -0.017781000584363937
   vertex -0.0018489999929443002 0.00070899998536333442 -0.018580000847578049
   vertex -0.0018189999973401427 0.0059580001980066299 -0.018557999283075333
  endloop
 endfacet
 facet normal -0.29980425061077859 0.94755509421392115 0.11071022872777612
  outer loop
   vertex 0.0010969999711960554 0.0093580000102519989 0.0011859999503940344
   vertex -0.0040400000289082527 0.0085420003160834312 -0.0057410001754760742
   vertex -0.0060530002228915691 0.0065680001862347126 0.0057029998861253262
  endloop
 endfacet
 facet normal -0.11707873831385515 0.99266604268699843 -0.030111405330374041
  outer loop
   vertex 0.0010969999711960554 0.0093580000102519989 0.0011859999503940344
   vertex 0.0027860000263899565 0.0092639997601509094 -0.0084800003096461296
   vertex -0.0040400000289082527 0.0085420003160834312 -0.0057410001754760742
  endloop
 endfacet
 facet normal -0.35063367119833982 0.25214635300094285 -0.90193028848703061
  outer loop
   vertex -0.0018489999929443002 0.00070899998536333442 -0.018580000847578049
   vertex -0.00145800004247576 -0.0079079996794462204 -0.021141000092029572
   vertex -0.0081559997051954269 -0.010315000079572201 -0.019209999591112137
  endloop
 endfacet
 facet normal 0.12260741744806967 0.0035553846100273962 -0.99244888051072411
  outer loop
   vertex 0.0044040000066161156 0.0081070000305771828 -0.017781000584363937
   vertex 0.0043649999424815178 0.0013569999719038606 -0.017810000106692314
   vertex -0.0018489999929443002 0.00070899998536333442 -0.018580000847578049
  endloop
 endfacet
 facet normal 0.075638990848821405 0.37334228832067462 -0.9246049312083805
  outer loop
   vertex 0.0043649999424815178 0.0013569999719038606 -0.017810000106692314
   vertex 0.0047010001726448536 -0.003949000034481287 -0.01992500014603138
   vertex -0.0018489999929443002 0.00070899998536333442 -0.018580000847578049
  endloop
 endfacet
 facet normal 0.0059535983583212495 0.28513049249784694 -0.95847021702008206
  outer loop
   vertex 0.0047010001726448536 -0.003949000034481287 -0.01992500014603138
   vertex -0.00145800004247576 -0.0079079996794462204 -0.021141000092029572
   vertex -0.0018489999929443002 0.00070899998536333442 -0.018580000847578049
  endloop
 endfacet
 facet normal 0.21445368258674072 -0.90041437397401947 -0.37850174790344099
  outer loop
   vertex -0.00145800004247576 -0.0079079996794462204 -0.021141000092029572
   vertex -0.0095089999958872795 -0.01384000014513731 -0.01159099955111742
   vertex -0.0081559997051954269 -0.010315000079572201 -0.019209999591112137
  endloop
 endfacet
 facet normal 0.50884851974034939 -0.85479437898761967 -0.10197918223453745
  outer loop
   vertex -0.00145800004247576 -0.0079079996794462204 -0.021141000092029572
   vertex -0.002951999893411994 -0.0098099997267127037 -0.012652999721467495
   vertex -0.0095089999958872795 -0.01384000014513731 -0.01159099955111742
  endloop
 endfacet
 facet normal 0.53139452907830842 -0.84323421211423388 0.081092034046077857
  outer loop
   vertex -0.002951999893411994 -0.0098099997267127037 -0.012652999721467495
   vertex -0.0039840000681579113 -0.0098919998854398727 -0.0067429998889565468
   vertex -0.0095089999958872795 -0.01384000014513731 -0.01159099955111742
  endloop
 endfacet
 facet normal 0.40169399748547291 -0.87873417020323008 0.25781425581488215
  outer loop
   vertex -0.0039840000681579113 -0.0098919998854398727 -0.0067429998889565468
   vertex -0.011753000319004059 -0.011068999767303467 0.0013500000350177288
   vertex -0.0095089999958872795 -0.01384000014513731 -0.01159099955111742
  endloop
 endfacet
 facet normal 0.54628026546185182 -0.72531371734524419 0.41892467461078492
  outer loop
   vertex -0.0039840000681579113 -0.0098919998854398727 -0.0067429998889565468
   vertex -0.0053429999388754368 -0.0063550001941621304 0.0011530000483617187
   vertex -0.011753000319004059 -0.011068999767303467 0.0013500000350177288
  endloop
 endfacet
 facet normal 0.55385447649298269 -0.7369245434189392 0.38754023813724409
  outer loop
   vertex -0.0053429999388754368 -0.0063550001941621304 0.0011530000483617187
   vertex -0.0069019999355077744 -0.0027590000536292791 0.010219000279903412
   vertex -0.011753000319004059 -0.011068999767303467 0.0013500000350177288
  endloop
 endfacet
 facet normal -0.12615515438469574 -0.68853833350589011 0.71414273105248738
  outer loop
   vertex -0.0069019999355077744 -0.0027590000536292791 0.010219000279903412
   vertex -0.012790000066161156 -0.0044639999978244305 0.0075349998660385609
   vertex -0.011753000319004059 -0.011068999767303467 0.0013500000350177288
  endloop
 endfacet
 facet normal 0.019797897730765394 -0.86301287436364704 0.50479384101634817
  outer loop
   vertex -0.0069019999355077744 -0.0027590000536292791 0.010219000279903412
   vertex -0.0074510001577436924 -0.00089399999706074595 0.013429000042378902
   vertex -0.012790000066161156 -0.0044639999978244305 0.0075349998660385609
  endloop
 endfacet
 facet normal -0.55121070540047912 -0.39182990476863383 0.73663836716594489
  outer loop
   vertex -0.0074510001577436924 -0.00089399999706074595 0.013429000042378902
   vertex -0.013199999928474426 0.00090300000738352537 0.010083000175654888
   vertex -0.012790000066161156 -0.0044639999978244305 0.0075349998660385609
  endloop
 endfacet
 facet normal -0.45410775963377426 0.17414615806985922 0.87376155687344237
  outer loop
   vertex -0.0074510001577436924 -0.00089399999706074595 0.013429000042378902
   vertex -0.0073119997978210449 0.0027950000949203968 0.012765999883413315
   vertex -0.013199999928474426 0.00090300000738352537 0.010083000175654888
  endloop
 endfacet
 facet normal -0.43118910897942897 0.82552251182184477 0.36412708601926091
  outer loop
   vertex -0.0073119997978210449 0.0027950000949203968 0.012765999883413315
   vertex -0.0060530002228915691 0.0065680001862347126 0.0057029998861253262
   vertex -0.013199999928474426 0.00090300000738352537 0.010083000175654888
  endloop
 endfacet
 facet normal -0.51060685750441348 0.79290244441210234 0.33254526115219329
  outer loop
   vertex -0.0011129999766126275 0.0063809999264776707 0.0137339998036623
   vertex -0.0060530002228915691 0.0065680001862347126 0.0057029998861253262
   vertex -0.0073119997978210449 0.0027950000949203968 0.012765999883413315
  endloop
 endfacet
 facet normal -0.84761262547450711 0.087149744634316226 0.52340974307552413
  outer loop
   vertex -0.0011129999766126275 0.0063809999264776707 0.0137339998036623
   vertex -0.00096400000620633364 0.011757999658584595 0.013079999946057796
   vertex -0.0060530002228915691 0.0065680001862347126 0.0057029998861253262
  endloop
 endfacet
 facet normal -0.68724905881289144 0.72551286531983405 -0.036329236383375409
  outer loop
   vertex -0.00096400000620633364 0.011757999658584595 0.013079999946057796
   vertex -0.0002840000088326633 0.0122079998254776 0.0092029999941587448
   vertex -0.0060530002228915691 0.0065680001862347126 0.0057029998861253262
  endloop
 endfacet
 facet normal -0.52896299671630154 0.76676072529619321 -0.36369786670829618
  outer loop
   vertex -0.0002840000088326633 0.0122079998254776 0.0092029999941587448
   vertex 0.0010969999711960554 0.0093580000102519989 0.0011859999503940344
   vertex -0.0060530002228915691 0.0065680001862347126 0.0057029998861253262
  endloop
 endfacet
 facet normal -0.2973333927151699 0.28753511551261673 -0.91044846692365444
  outer loop
   vertex 0.010816000401973724 0.01319700013846159 -0.017976999282836914
   vertex 0.011067000217735767 0.008326999843120575 -0.019596999511122704
   vertex 0.0042240000329911709 0.01054100040346384 -0.016662999987602234
  endloop
 endfacet
 facet normal -0.25425356375819658 0.38809375027013227 -0.88585459660009724
  outer loop
   vertex 0.011067000217735767 0.008326999843120575 -0.019596999511122704
   vertex 0.0044040000066161156 0.0081070000305771828 -0.017781000584363937
   vertex 0.0042240000329911709 0.01054100040346384 -0.016662999987602234
  endloop
 endfacet
 facet normal -0.44251212271370521 0.89462716955565502 0.061848595329626679
  outer loop
   vertex 0.0093719996511936188 0.012608000077307224 -0.0097289998084306717
   vertex 0.0042240000329911709 0.01054100040346384 -0.016662999987602234
   vertex 0.0027860000263899565 0.0092639997601509094 -0.0084800003096461296
  endloop
 endfacet
 facet normal -0.37357450380393975 0.92759979911860446 0.00083832139707290651
  outer loop
   vertex 0.0093719996511936188 0.012608000077307224 -0.0097289998084306717
   vertex 0.010816000401973724 0.01319700013846159 -0.017976999282836914
   vertex 0.0042240000329911709 0.01054100040346384 -0.016662999987602234
  endloop
 endfacet
 facet normal -0.24633921467581321 0.96776308550327317 -0.052455711320007106
  outer loop
   vertex 0.0078440001234412193 0.010954000055789948 -0.001053999993018806
   vertex 0.0027860000263899565 0.0092639997601509094 -0.0084800003096461296
   vertex 0.0010969999711960554 0.0093580000102519989 0.0011859999503940344
  endloop
 endfacet
 facet normal -0.43655062477588757 0.89478608777294211 0.093709173167704496
  outer loop
   vertex 0.0078440001234412193 0.010954000055789948 -0.001053999993018806
   vertex 0.0093719996511936188 0.012608000077307224 -0.0097289998084306717
   vertex 0.0027860000263899565 0.0092639997601509094 -0.0084800003096461296
  endloop
 endfacet
 facet normal -0.25605379518200871 -0.14013075915451123 -0.95645168425366378
  outer loop
   vertex 0.011067000217735767 0.008326999843120575 -0.019596999511122704
   vertex 0.010820000432431698 0.0010110000148415565 -0.018458999693393707
   vertex 0.0044040000066161156 0.0081070000305771828 -0.017781000584363937
  endloop
 endfacet
 facet normal -0.099779174432144291 0.0048512376666710964 -0.99499777981799586
  outer loop
   vertex 0.010820000432431698 0.0010110000148415565 -0.018458999693393707
   vertex 0.0043649999424815178 0.0013569999719038606 -0.017810000106692314
   vertex 0.0044040000066161156 0.0081070000305771828 -0.017781000584363937
  endloop
 endfacet
 facet normal -0.19747074022249536 0.91244951374176286 -0.35838693004684247
  outer loop
   vertex 0.0062970002181828022 0.013113000430166721 0.0078809997066855431
   vertex 0.0010969999711960554 0.0093580000102519989 0.0011859999503940344
   vertex -0.0002840000088326633 0.0122079998254776 0.0092029999941587448
  endloop
 endfacet
 facet normal -0.30644391925455111 0.91178801639133444 -0.27337654895229374
  outer loop
   vertex 0.0062970002181828022 0.013113000430166721 0.0078809997066855431
   vertex 0.0078440001234412193 0.010954000055789948 -0.001053999993018806
   vertex 0.0010969999711960554 0.0093580000102519989 0.0011859999503940344
  endloop
 endfacet
 facet normal 0.4107769046003884 -0.38523110378405689 -0.82635303068618349
  outer loop
   vertex 0.0047010001726448536 -0.003949000034481287 -0.01992500014603138
   vertex 0.0043770000338554382 -0.0079539995640516281 -0.018218999728560448
   vertex -0.00145800004247576 -0.0079079996794462204 -0.021141000092029572
  endloop
 endfacet
 facet normal 0.09347362744745942 -0.97491325454117483 -0.20200699763064675
  outer loop
   vertex 0.0043770000338554382 -0.0079539995640516281 -0.018218999728560448
   vertex -0.002951999893411994 -0.0098099997267127037 -0.012652999721467495
   vertex -0.00145800004247576 -0.0079079996794462204 -0.021141000092029572
  endloop
 endfacet
 facet normal -0.081272706230667624 -0.94985264829327554 -0.30195147582383947
  outer loop
   vertex 0.010820000432431698 0.0010110000148415565 -0.018458999693393707
   vertex 0.0097899995744228363 -0.00075800000922754407 -0.012617000378668308
   vertex 0.0043649999424815178 0.0013569999719038606 -0.017810000106692314
  endloop
 endfacet
 facet normal 0.39005230660163626 -0.63552096519198431 -0.66631246492632257
  outer loop
   vertex 0.0097899995744228363 -0.00075800000922754407 -0.012617000378668308
   vertex 0.0088750002905726433 -0.006587000098079443 -0.007592999842017889
   vertex 0.0043649999424815178 0.0013569999719038606 -0.017810000106692314
  endloop
 endfacet
 facet normal 0.94364680440157656 0.17237100829316701 -0.28252246643884754
  outer loop
   vertex 0.0088750002905726433 -0.006587000098079443 -0.007592999842017889
   vertex 0.0047010001726448536 -0.003949000034481287 -0.01992500014603138
   vertex 0.0043649999424815178 0.0013569999719038606 -0.017810000106692314
  endloop
 endfacet
 facet normal 0.90738503512919633 -0.22470579583720374 -0.35518967234529214
  outer loop
   vertex 0.0088750002905726433 -0.006587000098079443 -0.007592999842017889
   vertex 0.0043770000338554382 -0.0079539995640516281 -0.018218999728560448
   vertex 0.0047010001726448536 -0.003949000034481287 -0.01992500014603138
  endloop
 endfacet
 facet normal 0.36193994508012867 -0.91638107397222091 0.17101229026275358
  outer loop
   vertex 0.0043770000338554382 -0.0079539995640516281 -0.018218999728560448
   vertex 0.0024900001008063555 -0.006676000077277422 -0.0073770000599324703
   vertex -0.002951999893411994 -0.0098099997267127037 -0.012652999721467495
  endloop
 endfacet
 facet normal 0.44909748487883239 -0.89103747062913696 0.06605811842867583
  outer loop
   vertex 0.0024900001008063555 -0.006676000077277422 -0.0073770000599324703
   vertex -0.0039840000681579113 -0.0098919998854398727 -0.0067429998889565468
   vertex -0.002951999893411994 -0.0098099997267127037 -0.012652999721467495
  endloop
 endfacet
 facet normal 0.44587559197127868 -0.83299230241257927 0.32759545266326856
  outer loop
   vertex 0.0024900001008063555 -0.006676000077277422 -0.0073770000599324703
   vertex 0.001319000031799078 -0.0046359999105334282 -0.0005959999980404973
   vertex -0.0039840000681579113 -0.0098919998854398727 -0.0067429998889565468
  endloop
 endfacet
 facet normal 0.33006274294876747 -0.83898219570070942 0.43262854854291871
  outer loop
   vertex 0.001319000031799078 -0.0046359999105334282 -0.0005959999980404973
   vertex -0.0053429999388754368 -0.0063550001941621304 0.0011530000483617187
   vertex -0.0039840000681579113 -0.0098919998854398727 -0.0067429998889565468
  endloop
 endfacet
 facet normal 0.12450029755316222 -0.90234500528331696 -0.41264169366343095
  outer loop
   vertex 0.001319000031799078 -0.0046359999105334282 -0.0005959999980404973
   vertex 1.9999999494757503e-05 -0.008159000426530838 0.0067159999161958694
   vertex -0.0053429999388754368 -0.0063550001941621304 0.0011530000483617187
  endloop
 endfacet
 facet normal -0.52070282504401033 -0.82049765397764152 0.23590711690911972
  outer loop
   vertex 1.9999999494757503e-05 -0.008159000426530838 0.0067159999161958694
   vertex -0.0069019999355077744 -0.0027590000536292791 0.010219000279903412
   vertex -0.0053429999388754368 -0.0063550001941621304 0.0011530000483617187
  endloop
 endfacet
 facet normal -0.66765549690604598 -0.70944332787978515 -0.22566856665915239
  outer loop
   vertex 1.9999999494757503e-05 -0.008159000426530838 0.0067159999161958694
   vertex -0.0010829999810084701 -0.0091169998049736023 0.012990999966859818
   vertex -0.0069019999355077744 -0.0027590000536292791 0.010219000279903412
  endloop
 endfacet
 facet normal -0.73410465387693402 -0.45026740490805534 0.50828104551870934
  outer loop
   vertex -0.0010829999810084701 -0.0091169998049736023 0.012990999966859818
   vertex -0.0013200000394135714 -0.0071220002137124538 0.014415999874472618
   vertex -0.0069019999355077744 -0.0027590000536292791 0.010219000279903412
  endloop
 endfacet
 facet normal -0.34112842151435413 0.38743641756619723 0.85646040327536233
  outer loop
   vertex -0.0013200000394135714 -0.0071220002137124538 0.014415999874472618
   vertex -0.00087899999925866723 -0.0016139999497681856 0.012099999934434891
   vertex -0.0069019999355077744 -0.0027590000536292791 0.010219000279903412
  endloop
 endfacet
 facet normal 0.0071018131848411036 -0.86410695855399589 0.50325811312690272
  outer loop
   vertex -0.00087899999925866723 -0.0016139999497681856 0.012099999934434891
   vertex -0.0074510001577436924 -0.00089399999706074595 0.013429000042378902
   vertex -0.0069019999355077744 -0.0027590000536292791 0.010219000279903412
  endloop
 endfacet
 facet normal 0.17423026271321934 -0.1922783419919871 0.96574989244405052
  outer loop
   vertex -0.00087899999925866723 -0.0016139999497681856 0.012099999934434891
   vertex -0.0011129999766126275 0.0063809999264776707 0.0137339998036623
   vertex -0.0074510001577436924 -0.00089399999706074595 0.013429000042378902
  endloop
 endfacet
 facet normal -0.25277157503466624 0.18036342596790572 0.95056591850729311
  outer loop
   vertex -0.0011129999766126275 0.0063809999264776707 0.0137339998036623
   vertex -0.0073119997978210449 0.0027950000949203968 0.012765999883413315
   vertex -0.0074510001577436924 -0.00089399999706074595 0.013429000042378902
  endloop
 endfacet
 facet normal -0.67547797805440579 -0.16657834080882214 0.7183182842841408
  outer loop
   vertex 0.0045869997702538967 -0.0021659999620169401 0.017111999914050102
   vertex -0.0011129999766126275 0.0063809999264776707 0.0137339998036623
   vertex -0.00087899999925866723 -0.0016139999497681856 0.012099999934434891
  endloop
 endfacet
 facet normal -0.66423097747263682 -0.15385922137358404 0.73152207660743906
  outer loop
   vertex 0.0045869997702538967 -0.0021659999620169401 0.017111999914050102
   vertex 0.0043930001556873322 0.0052660000510513783 0.018498999997973442
   vertex -0.0011129999766126275 0.0063809999264776707 0.0137339998036623
  endloop
 endfacet
 facet normal -0.63751345116222546 0.11040657351363425 0.76248736914929105
  outer loop
   vertex 0.0043930001556873322 0.0052660000510513783 0.018498999997973442
   vertex -0.00096400000620633364 0.011757999658584595 0.013079999946057796
   vertex -0.0011129999766126275 0.0063809999264776707 0.0137339998036623
  endloop
 endfacet
 facet normal -0.6677624215060296 0.067748064444497699 0.74128506540225658
  outer loop
   vertex 0.0043930001556873322 0.0052660000510513783 0.018498999997973442
   vertex 0.0045590000227093697 0.013894000090658665 0.017859999090433121
   vertex -0.00096400000620633364 0.011757999658584595 0.013079999946057796
  endloop
 endfacet
 facet normal -0.38928395581346409 0.92031110033338837 0.038541929756679381
  outer loop
   vertex 0.0045590000227093697 0.013894000090658665 0.017859999090433121
   vertex -0.0002840000088326633 0.0122079998254776 0.0092029999941587448
   vertex -0.00096400000620633364 0.011757999658584595 0.013079999946057796
  endloop
 endfacet
 facet normal -0.15597860396617449 0.9822656638228402 -0.10404249506542294
  outer loop
   vertex 0.0045590000227093697 0.013894000090658665 0.017859999090433121
   vertex 0.0062970002181828022 0.013113000430166721 0.0078809997066855431
   vertex -0.0002840000088326633 0.0122079998254776 0.0092029999941587448
  endloop
 endfacet
 facet normal 0.43087669475800522 0.30475702245499198 -0.84939297806067615
  outer loop
   vertex 0.016814999282360077 0.0099050002172589302 -0.01611500047147274
   vertex 0.011067000217735767 0.008326999843120575 -0.019596999511122704
   vertex 0.010816000401973724 0.01319700013846159 -0.017976999282836914
  endloop
 endfacet
 facet normal 0.44237725673149192 0.88572353879439369 0.14069888255510804
  outer loop
   vertex 0.016814999282360077 0.0099050002172589302 -0.01611500047147274
   vertex 0.010816000401973724 0.01319700013846159 -0.017976999282836914
   vertex 0.0093719996511936188 0.012608000077307224 -0.0097289998084306717
  endloop
 endfacet
 facet normal 0.24520383933565421 0.6644958406164404 -0.70591809367553726
  outer loop
   vertex 0.016814999282360077 0.0099050002172589302 -0.01611500047147274
   vertex 0.017353000119328499 0.006289999932050705 -0.019331000745296478
   vertex 0.011067000217735767 0.008326999843120575 -0.019596999511122704
  endloop
 endfacet
 facet normal -0.0079077046441117359 -0.15343564416642891 -0.98812700160783706
  outer loop
   vertex 0.017353000119328499 0.006289999932050705 -0.019331000745296478
   vertex 0.010820000432431698 0.0010110000148415565 -0.018458999693393707
   vertex 0.011067000217735767 0.008326999843120575 -0.019596999511122704
  endloop
 endfacet
 facet normal 0.51092586234262916 0.82338014146954186 0.24698159004880882
  outer loop
   vertex 0.016814999282360077 0.0099050002172589302 -0.01611500047147274
   vertex 0.0093719996511936188 0.012608000077307224 -0.0097289998084306717
   vertex 0.0078440001234412193 0.010954000055789948 -0.001053999993018806
  endloop
 endfacet
 facet normal 0.17735131046767691 0.96318712907300341 -0.20203234162753056
  outer loop
   vertex 0.013559999875724316 0.01065600011497736 0.0025430000387132168
   vertex 0.0078440001234412193 0.010954000055789948 -0.001053999993018806
   vertex 0.0062970002181828022 0.013113000430166721 0.0078809997066855431
  endloop
 endfacet
 facet normal 0.069604015959933915 0.99718182187115445 -0.027994554684341016
  outer loop
   vertex 0.013559999875724316 0.01065600011497736 0.0025430000387132168
   vertex 0.016814999282360077 0.0099050002172589302 -0.01611500047147274
   vertex 0.0078440001234412193 0.010954000055789948 -0.001053999993018806
  endloop
 endfacet
 facet normal -0.21770050357326604 0.10920532172585447 -0.96988694622141347
  outer loop
   vertex 0.017353000119328499 0.006289999932050705 -0.019331000745296478
   vertex 0.017450999468564987 -0.00089500000467523932 -0.020161999389529228
   vertex 0.010820000432431698 0.0010110000148415565 -0.018458999693393707
  endloop
 endfacet
 facet normal -0.33765955372510581 -0.8827076428362719 -0.32682295368684722
  outer loop
   vertex 0.017450999468564987 -0.00089500000467523932 -0.020161999389529228
   vertex 0.0097899995744228363 -0.00075800000922754407 -0.012617000378668308
   vertex 0.010820000432431698 0.0010110000148415565 -0.018458999693393707
  endloop
 endfacet
 facet normal 0.16639768353400455 0.98488483918908754 -0.048100566005010885
  outer loop
   vertex 0.011494000442326069 0.012555000372231007 0.014433999545872211
   vertex 0.0062970002181828022 0.013113000430166721 0.0078809997066855431
   vertex 0.0045590000227093697 0.013894000090658665 0.017859999090433121
  endloop
 endfacet
 facet normal 0.2439757698396971 0.96335494080260797 -0.11145887924400935
  outer loop
   vertex 0.011494000442326069 0.012555000372231007 0.014433999545872211
   vertex 0.013559999875724316 0.01065600011497736 0.0025430000387132168
   vertex 0.0062970002181828022 0.013113000430166721 0.0078809997066855431
  endloop
 endfacet
 facet normal 0.017899235446146577 -0.99259828626191238 0.12011769012247102
  outer loop
   vertex 0.0088750002905726433 -0.006587000098079443 -0.007592999842017889
   vertex 0.0024900001008063555 -0.006676000077277422 -0.0073770000599324703
   vertex 0.0043770000338554382 -0.0079539995640516281 -0.018218999728560448
  endloop
 endfacet
 facet normal -0.63181400862056603 -0.44676125699328817 -0.63341569112281138
  outer loop
   vertex 0.017450999468564987 -0.00089500000467523932 -0.020161999389529228
   vertex 0.0088750002905726433 -0.006587000098079443 -0.007592999842017889
   vertex 0.0097899995744228363 -0.00075800000922754407 -0.012617000378668308
  endloop
 endfacet
 facet normal 0.0008118359267180272 -0.93281437619210683 -0.3603563243398939
  outer loop
   vertex 0.0088750002905726433 -0.006587000098079443 -0.007592999842017889
   vertex 0.0081219999119639397 -0.0082259997725486755 -0.0033519999124109745
   vertex 0.0024900001008063555 -0.006676000077277422 -0.0073770000599324703
  endloop
 endfacet
 facet normal -0.48994738362397933 -0.61846209014734543 -0.61437464492815308
  outer loop
   vertex 0.017450999468564987 -0.00089500000467523932 -0.020161999389529228
   vertex 0.01613599993288517 -0.0071060000918805599 -0.012861000373959541
   vertex 0.0088750002905726433 -0.006587000098079443 -0.007592999842017889
  endloop
 endfacet
 facet normal -0.34468632381390379 -0.85340564972178368 -0.39101168166513506
  outer loop
   vertex 0.01613599993288517 -0.0071060000918805599 -0.012861000373959541
   vertex 0.0081219999119639397 -0.0082259997725486755 -0.0033519999124109745
   vertex 0.0088750002905726433 -0.006587000098079443 -0.007592999842017889
  endloop
 endfacet
 facet normal -0.39166515635492494 -0.89757260933525684 0.20239025734597699
  outer loop
   vertex 0.0081219999119639397 -0.0082259997725486755 -0.0033519999124109745
   vertex 0.001319000031799078 -0.0046359999105334282 -0.0005959999980404973
   vertex 0.0024900001008063555 -0.006676000077277422 -0.0073770000599324703
  endloop
 endfacet
 facet normal -0.5249654273404134 -0.8201568251320408 -0.22749523574490071
  outer loop
   vertex 0.0081219999119639397 -0.0082259997725486755 -0.0033519999124109745
   vertex 0.0064249997958540916 -0.0098190000280737877 0.0063069998286664486
   vertex 0.001319000031799078 -0.0046359999105334282 -0.0005959999980404973
  endloop
 endfacet
 facet normal -0.25045673811289243 -0.85402566757295295 -0.45597322449944583
  outer loop
   vertex 0.0064249997958540916 -0.0098190000280737877 0.0063069998286664486
   vertex 1.9999999494757503e-05 -0.008159000426530838 0.0067159999161958694
   vertex 0.001319000031799078 -0.0046359999105334282 -0.0005959999980404973
  endloop
 endfacet
 facet normal -0.23763929997271194 -0.77150471457780967 -0.59017627747368129
  outer loop
   vertex 0.0064249997958540916 -0.0098190000280737877 0.0063069998286664486
   vertex 0.0048079998232424259 -0.016224000602960587 0.015331000089645386
   vertex 1.9999999494757503e-05 -0.008159000426530838 0.0067159999161958694
  endloop
 endfacet
 facet normal -0.711902142007383 -0.66471059097538965 -0.22661679207518626
  outer loop
   vertex 0.0048079998232424259 -0.016224000602960587 0.015331000089645386
   vertex -0.0010829999810084701 -0.0091169998049736023 0.012990999966859818
   vertex 1.9999999494757503e-05 -0.008159000426530838 0.0067159999161958694
  endloop
 endfacet
 facet normal -0.78538982881052455 -0.57849665146405571 0.22023723809984946
  outer loop
   vertex 0.0048079998232424259 -0.016224000602960587 0.015331000089645386
   vertex 0.0040270001627504826 -0.013425000011920929 0.019897999241948128
   vertex -0.0010829999810084701 -0.0091169998049736023 0.012990999966859818
  endloop
 endfacet
 facet normal -0.84137637931941478 -0.37673738300833687 0.38749804201748189
  outer loop
   vertex 0.0040270001627504826 -0.013425000011920929 0.019897999241948128
   vertex -0.0013200000394135714 -0.0071220002137124538 0.014415999874472618
   vertex -0.0010829999810084701 -0.0091169998049736023 0.012990999966859818
  endloop
 endfacet
 facet normal -0.75665582686621757 -0.077220516301322067 0.64923720744544355
  outer loop
   vertex 0.0040270001627504826 -0.013425000011920929 0.019897999241948128
   vertex 0.0039690001867711544 -0.0085519999265670776 0.020409999415278435
   vertex -0.0013200000394135714 -0.0071220002137124538 0.014415999874472618
  endloop
 endfacet
 facet normal -0.66586975892312816 0.33385718952596216 0.667200750264477
  outer loop
   vertex 0.0039690001867711544 -0.0085519999265670776 0.020409999415278435
   vertex -0.00087899999925866723 -0.0016139999497681856 0.012099999934434891
   vertex -0.0013200000394135714 -0.0071220002137124538 0.014415999874472618
  endloop
 endfacet
 facet normal -0.59202277879520693 0.41429794249083923 0.69127870228689869
  outer loop
   vertex 0.0039690001867711544 -0.0085519999265670776 0.020409999415278435
   vertex 0.0045869997702538967 -0.0021659999620169401 0.017111999914050102
   vertex -0.00087899999925866723 -0.0016139999497681856 0.012099999934434891
  endloop
 endfacet
 facet normal 0.35481425326966198 0.40167200290637833 0.84425496608422179
  outer loop
   vertex 0.01143100019544363 -0.0021939999423921108 0.014248999767005444
   vertex 0.0045869997702538967 -0.0021659999620169401 0.017111999914050102
   vertex 0.0039690001867711544 -0.0085519999265670776 0.020409999415278435
  endloop
 endfacet
 facet normal 0.36101259568898514 -0.34505673654908159 0.86637506561303967
  outer loop
   vertex 0.01143100019544363 -0.0021939999423921108 0.014248999767005444
   vertex 0.011222999542951584 0.00086500000907108188 0.015553999692201614
   vertex 0.0045869997702538967 -0.0021659999620169401 0.017111999914050102
  endloop
 endfacet
 facet normal 0.29726307245493605 -0.16766085251048499 0.93995984184969783
  outer loop
   vertex 0.011222999542951584 0.00086500000907108188 0.015553999692201614
   vertex 0.0043930001556873322 0.0052660000510513783 0.018498999997973442
   vertex 0.0045869997702538967 -0.0021659999620169401 0.017111999914050102
  endloop
 endfacet
 facet normal 0.2533614934488792 -0.23478128680414814 0.93844856065952909
  outer loop
   vertex 0.011222999542951584 0.00086500000907108188 0.015553999692201614
   vertex 0.010978999547660351 0.0071089998818933964 0.017181999981403351
   vertex 0.0043930001556873322 0.0052660000510513783 0.018498999997973442
  endloop
 endfacet
 facet normal 0.17693136445237989 0.069307793822331251 0.98177987450777393
  outer loop
   vertex 0.010978999547660351 0.0071089998818933964 0.017181999981403351
   vertex 0.0045590000227093697 0.013894000090658665 0.017859999090433121
   vertex 0.0043930001556873322 0.0052660000510513783 0.018498999997973442
  endloop
 endfacet
 facet normal 0.258227312740617 0.14895316917284032 0.95453214107652062
  outer loop
   vertex 0.010978999547660351 0.0071089998818933964 0.017181999981403351
   vertex 0.011171000078320503 0.012550000101327896 0.016280999407172203
   vertex 0.0045590000227093697 0.013894000090658665 0.017859999090433121
  endloop
 endfacet
 facet normal 0.20798133158508264 0.97735429110269689 0.039017372736266855
  outer loop
   vertex 0.011171000078320503 0.012550000101327896 0.016280999407172203
   vertex 0.011494000442326069 0.012555000372231007 0.014433999545872211
   vertex 0.0045590000227093697 0.013894000090658665 0.017859999090433121
  endloop
 endfacet
 facet normal 0.58557314729226184 0.58570179938639877 -0.56040832556785747
  outer loop
   vertex 0.02274399995803833 0.0061110001988708973 -0.013884999789297581
   vertex 0.017353000119328499 0.006289999932050705 -0.019331000745296478
   vertex 0.016814999282360077 0.0099050002172589302 -0.01611500047147274
  endloop
 endfacet
 facet normal 0.43325769139536163 0.900411001632479 0.039342101951439244
  outer loop
   vertex 0.020858999341726303 0.0073879999108612537 -0.0030439998954534531
   vertex 0.016814999282360077 0.0099050002172589302 -0.01611500047147274
   vertex 0.013559999875724316 0.01065600011497736 0.0025430000387132168
  endloop
 endfacet
 facet normal 0.40949037540484579 0.91101172583486001 0.048736719649440242
  outer loop
   vertex 0.020858999341726303 0.0073879999108612537 -0.0030439998954534531
   vertex 0.022406000643968582 0.0071669998578727245 -0.011911000125110149
   vertex 0.016814999282360077 0.0099050002172589302 -0.01611500047147274
  endloop
 endfacet
 facet normal 0.59160305228253995 0.74865593439383749 -0.29919913172813978
  outer loop
   vertex 0.022406000643968582 0.0071669998578727245 -0.011911000125110149
   vertex 0.02274399995803833 0.0061110001988708973 -0.013884999789297581
   vertex 0.016814999282360077 0.0099050002172589302 -0.01611500047147274
  endloop
 endfacet
 facet normal 0.65543312882026394 0.40826574880862182 -0.63539475288564862
  outer loop
   vertex 0.02274399995803833 0.0061110001988708973 -0.013884999789297581
   vertex 0.023483000695705414 -0.0021240001078695059 -0.018414000049233437
   vertex 0.017353000119328499 0.006289999932050705 -0.019331000745296478
  endloop
 endfacet
 facet normal 0.29783097435604755 0.11368526108045944 -0.94782507464573607
  outer loop
   vertex 0.023483000695705414 -0.0021240001078695059 -0.018414000049233437
   vertex 0.017450999468564987 -0.00089500000467523932 -0.020161999389529228
   vertex 0.017353000119328499 0.006289999932050705 -0.019331000745296478
  endloop
 endfacet
 facet normal 0.52543114725090379 0.84967669433770332 -0.044402979606692275
  outer loop
   vertex 0.01888200081884861 0.0076649999246001244 0.0082849999889731407
   vertex 0.013559999875724316 0.01065600011497736 0.0025430000387132168
   vertex 0.011494000442326069 0.012555000372231007 0.014433999545872211
  endloop
 endfacet
 facet normal 0.44305686567792374 0.89477769425738007 0.055439080395518571
  outer loop
   vertex 0.01888200081884861 0.0076649999246001244 0.0082849999889731407
   vertex 0.020858999341726303 0.0073879999108612537 -0.0030439998954534531
   vertex 0.013559999875724316 0.01065600011497736 0.0025430000387132168
  endloop
 endfacet
 facet normal 0.26721467740500954 -0.056696206340920319 -0.96196770027162781
  outer loop
   vertex 0.023483000695705414 -0.0021240001078695059 -0.018414000049233437
   vertex 0.02341499924659729 -0.0063129998743534088 -0.018185999244451523
   vertex 0.017450999468564987 -0.00089500000467523932 -0.020161999389529228
  endloop
 endfacet
 facet normal -0.39282035874836818 -0.66432493354789846 -0.63589664916508515
  outer loop
   vertex 0.02341499924659729 -0.0063129998743534088 -0.018185999244451523
   vertex 0.01613599993288517 -0.0071060000918805599 -0.012861000373959541
   vertex 0.017450999468564987 -0.00089500000467523932 -0.020161999389529228
  endloop
 endfacet
 facet normal 0.65912731581349859 0.74283041027043306 0.11727814428081861
  outer loop
   vertex 0.018275000154972076 0.006965000182390213 0.011730000376701355
   vertex 0.011494000442326069 0.012555000372231007 0.014433999545872211
   vertex 0.011171000078320503 0.012550000101327896 0.016280999407172203
  endloop
 endfacet
 facet normal 0.673797261939583 0.69191990266762449 0.25931467003458564
  outer loop
   vertex 0.018275000154972076 0.006965000182390213 0.011730000376701355
   vertex 0.01888200081884861 0.0076649999246001244 0.0082849999889731407
   vertex 0.011494000442326069 0.012555000372231007 0.014433999545872211
  endloop
 endfacet
 facet normal -0.64980008760986996 -0.46372921205509027 -0.60225830341222386
  outer loop
   vertex 0.01613599993288517 -0.0071060000918805599 -0.012861000373959541
   vertex 0.015589999966323376 -0.010240999981760979 -0.0098580000922083855
   vertex 0.0081219999119639397 -0.0082259997725486755 -0.0033519999124109745
  endloop
 endfacet
 facet normal 0.038325133581569699 -0.94125591280695453 0.33551228105972741
  outer loop
   vertex 0.015589999966323376 -0.010240999981760979 -0.0098580000922083855
   vertex 0.014124000445008278 -0.0072679999284446239 -0.0013500000350177288
   vertex 0.0081219999119639397 -0.0082259997725486755 -0.0033519999124109745
  endloop
 endfacet
 facet normal 0.1971241865828206 -0.97228418853794063 -0.12571997368429438
  outer loop
   vertex 0.014124000445008278 -0.0072679999284446239 -0.0013500000350177288
   vertex 0.0064249997958540916 -0.0098190000280737877 0.0063069998286664486
   vertex 0.0081219999119639397 -0.0082259997725486755 -0.0033519999124109745
  endloop
 endfacet
 facet normal -0.29251018668176737 -0.80289887361560675 -0.51941427534694062
  outer loop
   vertex 0.02341499924659729 -0.0063129998743534088 -0.018185999244451523
   vertex 0.022779999300837517 -0.0083860000595450401 -0.01462399959564209
   vertex 0.01613599993288517 -0.0071060000918805599 -0.012861000373959541
  endloop
 endfacet
 facet normal -0.2184239028378884 -0.96844499923097249 -0.12002200687201681
  outer loop
   vertex 0.022779999300837517 -0.0083860000595450401 -0.01462399959564209
   vertex 0.022242000326514244 -0.0086460001766681671 -0.011547000147402287
   vertex 0.01613599993288517 -0.0071060000918805599 -0.012861000373959541
  endloop
 endfacet
 facet normal -0.018295024638308448 -0.68996103748465942 -0.72361526989594127
  outer loop
   vertex 0.022242000326514244 -0.0086460001766681671 -0.011547000147402287
   vertex 0.015589999966323376 -0.010240999981760979 -0.0098580000922083855
   vertex 0.01613599993288517 -0.0071060000918805599 -0.012861000373959541
  endloop
 endfacet
 facet normal 0.41595172134618341 -0.90172252838828548 0.11781615893494796
  outer loop
   vertex 0.014124000445008278 -0.0072679999284446239 -0.0013500000350177288
   vertex 0.012082000263035297 -0.0066809998825192451 0.010351999662816525
   vertex 0.0064249997958540916 -0.0098190000280737877 0.0063069998286664486
  endloop
 endfacet
 facet normal 0.63782201184414078 -0.67739067089342531 -0.36650369738059668
  outer loop
   vertex 0.012082000263035297 -0.0066809998825192451 0.010351999662816525
   vertex 0.0048079998232424259 -0.016224000602960587 0.015331000089645386
   vertex 0.0064249997958540916 -0.0098190000280737877 0.0063069998286664486
  endloop
 endfacet
 facet normal 0.8036228029756991 -0.59408600890334728 0.035386502550727228
  outer loop
   vertex 0.012082000263035297 -0.0066809998825192451 0.010351999662816525
   vertex 0.011013999581336975 -0.0077630002051591873 0.016441000625491142
   vertex 0.0048079998232424259 -0.016224000602960587 0.015331000089645386
  endloop
 endfacet
 facet normal 0.6850192395689918 -0.56309266457069673 0.46225024881225663
  outer loop
   vertex 0.011013999581336975 -0.0077630002051591873 0.016441000625491142
   vertex 0.0040270001627504826 -0.013425000011920929 0.019897999241948128
   vertex 0.0048079998232424259 -0.016224000602960587 0.015331000089645386
  endloop
 endfacet
 facet normal 0.29009157868707369 0.21183445401987752 0.93325936377029817
  outer loop
   vertex 0.011013999581336975 -0.0077630002051591873 0.016441000625491142
   vertex 0.011146999895572662 -0.0050110002048313618 0.015775000676512718
   vertex 0.0040270001627504826 -0.013425000011920929 0.019897999241948128
  endloop
 endfacet
 facet normal 0.56806770952278196 -0.079305958183750525 0.81915178226876695
  outer loop
   vertex 0.011146999895572662 -0.0050110002048313618 0.015775000676512718
   vertex 0.0039690001867711544 -0.0085519999265670776 0.020409999415278435
   vertex 0.0040270001627504826 -0.013425000011920929 0.019897999241948128
  endloop
 endfacet
 facet normal 0.33540421674116949 0.42235648449118068 0.84209204449424269
  outer loop
   vertex 0.011146999895572662 -0.0050110002048313618 0.015775000676512718
   vertex 0.01143100019544363 -0.0021939999423921108 0.014248999767005444
   vertex 0.0039690001867711544 -0.0085519999265670776 0.020409999415278435
  endloop
 endfacet
 facet normal 0.29749422891018334 0.43138638371424953 0.85170591856055444
  outer loop
   vertex 0.017952000722289085 -0.0045389998704195023 0.013159000314772129
   vertex 0.01143100019544363 -0.0021939999423921108 0.014248999767005444
   vertex 0.011146999895572662 -0.0050110002048313618 0.015775000676512718
  endloop
 endfacet
 facet normal 0.30876341817501451 0.47579806387593743 0.82357838364589819
  outer loop
   vertex 0.017952000722289085 -0.0045389998704195023 0.013159000314772129
   vertex 0.018188999965786934 -0.0024719999637454748 0.011876000091433525
   vertex 0.01143100019544363 -0.0021939999423921108 0.014248999767005444
  endloop
 endfacet
 facet normal 0.29625953414566697 -0.35766564138563023 0.88561028528354291
  outer loop
   vertex 0.018188999965786934 -0.0024719999637454748 0.011876000091433525
   vertex 0.011222999542951584 0.00086500000907108188 0.015553999692201614
   vertex 0.01143100019544363 -0.0021939999423921108 0.014248999767005444
  endloop
 endfacet
 facet normal 0.47424618786480016 0.019880861971617536 0.88016777072497399
  outer loop
   vertex 0.018188999965786934 -0.0024719999637454748 0.011876000091433525
   vertex 0.018252000212669373 0.0031530000269412994 0.011714999563992023
   vertex 0.011222999542951584 0.00086500000907108188 0.015553999692201614
  endloop
 endfacet
 facet normal 0.51851304653739261 -0.19670130268453856 0.83213749951117899
  outer loop
   vertex 0.018252000212669373 0.0031530000269412994 0.011714999563992023
   vertex 0.010978999547660351 0.0071089998818933964 0.017181999981403351
   vertex 0.011222999542951584 0.00086500000907108188 0.015553999692201614
  endloop
 endfacet
 facet normal 0.59849430521873559 -0.006763500036118004 0.80109850935325333
  outer loop
   vertex 0.018252000212669373 0.0031530000269412994 0.011714999563992023
   vertex 0.018275000154972076 0.006965000182390213 0.011730000376701355
   vertex 0.010978999547660351 0.0071089998818933964 0.017181999981403351
  endloop
 endfacet
 facet normal 0.59632003602321337 0.11061962901512627 0.79508849338537746
  outer loop
   vertex 0.018275000154972076 0.006965000182390213 0.011730000376701355
   vertex 0.011171000078320503 0.012550000101327896 0.016280999407172203
   vertex 0.010978999547660351 0.0071089998818933964 0.017181999981403351
  endloop
 endfacet
 facet normal 0.53131967779114098 0.44436129583285494 -0.72127833653705709
  outer loop
   vertex 0.028565999120473862 0.003877999959513545 -0.010971999727189541
   vertex 0.023483000695705414 -0.0021240001078695059 -0.018414000049233437
   vertex 0.02274399995803833 0.0061110001988708973 -0.013884999789297581
  endloop
 endfacet
 facet normal 0.48231179617370601 0.80409585013516738 -0.34757041742227718
  outer loop
   vertex 0.028565999120473862 0.003877999959513545 -0.010971999727189541
   vertex 0.02274399995803833 0.0061110001988708973 -0.013884999789297581
   vertex 0.022406000643968582 0.0071669998578727245 -0.011911000125110149
  endloop
 endfacet
 facet normal 0.27360224363784241 0.9615375432471408 0.02423561846933818
  outer loop
   vertex 0.0263069998472929 0.0057100001722574234 0.0020260000601410866
   vertex 0.020858999341726303 0.0073879999108612537 -0.0030439998954534531
   vertex 0.01888200081884861 0.0076649999246001244 0.0082849999889731407
  endloop
 endfacet
 facet normal 0.2739501635599923 0.96144855764441717 0.023832307670957849
  outer loop
   vertex 0.0263069998472929 0.0057100001722574234 0.0020260000601410866
   vertex 0.022406000643968582 0.0071669998578727245 -0.011911000125110149
   vertex 0.020858999341726303 0.0073879999108612537 -0.0030439998954534531
  endloop
 endfacet
 facet normal 0.47547904623786241 0.87876080511242993 -0.041220431667884957
  outer loop
   vertex 0.0263069998472929 0.0057100001722574234 0.0020260000601410866
   vertex 0.028565999120473862 0.003877999959513545 -0.010971999727189541
   vertex 0.022406000643968582 0.0071669998578727245 -0.011911000125110149
  endloop
 endfacet
 facet normal 0.84082218372398554 -0.043018910655839696 -0.53959932235281127
  outer loop
   vertex 0.028565999120473862 0.003877999959513545 -0.010971999727189541
   vertex 0.02341499924659729 -0.0063129998743534088 -0.018185999244451523
   vertex 0.023483000695705414 -0.0021240001078695059 -0.018414000049233437
  endloop
 endfacet
 facet normal 0.65612553735116597 0.70859883762038467 0.25958999703124852
  outer loop
   vertex 0.025728000327944756 0.0024510000366717577 0.0052140001207590103
   vertex 0.01888200081884861 0.0076649999246001244 0.0082849999889731407
   vertex 0.018275000154972076 0.006965000182390213 0.011730000376701355
  endloop
 endfacet
 facet normal 0.63610680179625223 0.47884705861959087 0.60504018970636109
  outer loop
   vertex 0.025728000327944756 0.0024510000366717577 0.0052140001207590103
   vertex 0.0263069998472929 0.0057100001722574234 0.0020260000601410866
   vertex 0.01888200081884861 0.0076649999246001244 0.0082849999889731407
  endloop
 endfacet
 facet normal 0.92389440419516289 -0.3306480927530257 -0.19259015721383907
  outer loop
   vertex 0.028565999120473862 0.003877999959513545 -0.010971999727189541
   vertex 0.027208000421524048 -0.0042710001580417156 -0.0034960000775754452
   vertex 0.02341499924659729 -0.0063129998743534088 -0.018185999244451523
  endloop
 endfacet
 facet normal 0.84612571220824262 -0.51223359063688056 -0.14726855660100283
  outer loop
   vertex 0.027208000421524048 -0.0042710001580417156 -0.0034960000775754452
   vertex 0.022779999300837517 -0.0083860000595450401 -0.01462399959564209
   vertex 0.02341499924659729 -0.0063129998743534088 -0.018185999244451523
  endloop
 endfacet
 facet normal 0.65579994621218418 -0.0069274704575342603 0.75490293462216473
  outer loop
   vertex 0.025728000327944756 0.0024510000366717577 0.0052140001207590103
   vertex 0.018275000154972076 0.006965000182390213 0.011730000376701355
   vertex 0.018252000212669373 0.0031530000269412994 0.011714999563992023
  endloop
 endfacet
 facet normal 0.047553106637864245 -0.81293603130924941 -0.58040822792949354
  outer loop
   vertex 0.022242000326514244 -0.0086460001766681671 -0.011547000147402287
   vertex 0.021712999790906906 -0.0107810003682971 -0.0086000002920627594
   vertex 0.015589999966323376 -0.010240999981760979 -0.0098580000922083855
  endloop
 endfacet
 facet normal -0.12778066726260945 -0.97029206550426694 0.20543954997367336
  outer loop
   vertex 0.021712999790906906 -0.0107810003682971 -0.0086000002920627594
   vertex 0.020847000181674957 -0.0096100000664591789 -0.003607999999076128
   vertex 0.015589999966323376 -0.010240999981760979 -0.0098580000922083855
  endloop
 endfacet
 facet normal -0.2281907018352351 -0.93069382327159222 0.28589860251503363
  outer loop
   vertex 0.020847000181674957 -0.0096100000664591789 -0.003607999999076128
   vertex 0.014124000445008278 -0.0072679999284446239 -0.0013500000350177288
   vertex 0.015589999966323376 -0.010240999981760979 -0.0098580000922083855
  endloop
 endfacet
 facet normal -0.33213545995099231 -0.94317161748130929 -0.010645948564297089
  outer loop
   vertex 0.020847000181674957 -0.0096100000664591789 -0.003607999999076128
   vertex 0.012082000263035297 -0.0066809998825192451 0.010351999662816525
   vertex 0.014124000445008278 -0.0072679999284446239 -0.0013500000350177288
  endloop
 endfacet
 facet normal 0.6208586308928008 -0.78277444610208924 0.042411401479839898
  outer loop
   vertex 0.027208000421524048 -0.0042710001580417156 -0.0034960000775754452
   vertex 0.022242000326514244 -0.0086460001766681671 -0.011547000147402287
   vertex 0.022779999300837517 -0.0083860000595450401 -0.01462399959564209
  endloop
 endfacet
 facet normal 0.82467738691041226 -0.51795995653459992 -0.2272106752450018
  outer loop
   vertex 0.027208000421524048 -0.0042710001580417156 -0.0034960000775754452
   vertex 0.021712999790906906 -0.0107810003682971 -0.0086000002920627594
   vertex 0.022242000326514244 -0.0086460001766681671 -0.011547000147402287
  endloop
 endfacet
 facet normal 0.046537827690710118 -0.97135691538019364 0.23302354717260945
  outer loop
   vertex 0.020847000181674957 -0.0096100000664591789 -0.003607999999076128
   vertex 0.018541000783443451 -0.0065270001068711281 0.0097040003165602684
   vertex 0.012082000263035297 -0.0066809998825192451 0.010351999662816525
  endloop
 endfacet
 facet normal -0.006623887693737159 -0.95602005955391522 -0.29322648216412683
  outer loop
   vertex 0.018541000783443451 -0.0065270001068711281 0.0097040003165602684
   vertex 0.018139999359846115 -0.0072220000438392162 0.011978999711573124
   vertex 0.012082000263035297 -0.0066809998825192451 0.010351999662816525
  endloop
 endfacet
 facet normal -0.039018646250919505 -0.98262508101850476 -0.18145383820168251
  outer loop
   vertex 0.018139999359846115 -0.0072220000438392162 0.011978999711573124
   vertex 0.011013999581336975 -0.0077630002051591873 0.016441000625491142
   vertex 0.012082000263035297 -0.0066809998825192451 0.010351999662816525
  endloop
 endfacet
 facet normal 0.51240841546924454 0.17851648883392957 0.83998183252419434
  outer loop
   vertex 0.018139999359846115 -0.0072220000438392162 0.011978999711573124
   vertex 0.011146999895572662 -0.0050110002048313618 0.015775000676512718
   vertex 0.011013999581336975 -0.0077630002051591873 0.016441000625491142
  endloop
 endfacet
 facet normal 0.3568004494291761 -0.35503005492025175 0.86408743735252913
  outer loop
   vertex 0.018139999359846115 -0.0072220000438392162 0.011978999711573124
   vertex 0.017952000722289085 -0.0045389998704195023 0.013159000314772129
   vertex 0.011146999895572662 -0.0050110002048313618 0.015775000676512718
  endloop
 endfacet
 facet normal 0.42402609210790521 -0.33954527618048119 0.83958970850959036
  outer loop
   vertex 0.024664999917149544 -0.0010689999908208847 0.01117200031876564
   vertex 0.017952000722289085 -0.0045389998704195023 0.013159000314772129
   vertex 0.018139999359846115 -0.0072220000438392162 0.011978999711573124
  endloop
 endfacet
 facet normal -0.022411957457687887 0.52909447988260805 0.84826690111112268
  outer loop
   vertex 0.024664999917149544 -0.0010689999908208847 0.01117200031876564
   vertex 0.018188999965786934 -0.0024719999637454748 0.011876000091433525
   vertex 0.017952000722289085 -0.0045389998704195023 0.013159000314772129
  endloop
 endfacet
 facet normal -0.13421511595952521 0.86347925358140287 0.48619942542384231
  outer loop
   vertex 0.024664999917149544 -0.0010689999908208847 0.01117200031876564
   vertex 0.025728000327944756 0.0024510000366717577 0.0052140001207590103
   vertex 0.018188999965786934 -0.0024719999637454748 0.011876000091433525
  endloop
 endfacet
 facet normal 0.65687982793788458 0.014220170020638974 0.75386117980227596
  outer loop
   vertex 0.025728000327944756 0.0024510000366717577 0.0052140001207590103
   vertex 0.018252000212669373 0.0031530000269412994 0.011714999563992023
   vertex 0.018188999965786934 -0.0024719999637454748 0.011876000091433525
  endloop
 endfacet
 facet normal 0.8466584872358498 -0.42941599798813468 -0.31427902676341068
  outer loop
   vertex 0.028606999665498734 -0.0023469999432563782 -0.0023560000117868185
   vertex 0.027208000421524048 -0.0042710001580417156 -0.0034960000775754452
   vertex 0.028565999120473862 0.003877999959513545 -0.010971999727189541
  endloop
 endfacet
 facet normal 0.96835359174961932 0.20723426659283412 0.13908731105079866
  outer loop
   vertex 0.027172999456524849 -0.00093600002583116293 0.0058989999815821648
   vertex 0.028565999120473862 0.003877999959513545 -0.010971999727189541
   vertex 0.0263069998472929 0.0057100001722574234 0.0020260000601410866
  endloop
 endfacet
 facet normal 0.97156808830678199 0.19408267014748251 0.1356000255616821
  outer loop
   vertex 0.027172999456524849 -0.00093600002583116293 0.0058989999815821648
   vertex 0.028606999665498734 -0.0023469999432563782 -0.0023560000117868185
   vertex 0.028565999120473862 0.003877999959513545 -0.010971999727189541
  endloop
 endfacet
 facet normal 0.71654293039534767 0.41855412274309262 0.55801314969739557
  outer loop
   vertex 0.027172999456524849 -0.00093600002583116293 0.0058989999815821648
   vertex 0.0263069998472929 0.0057100001722574234 0.0020260000601410866
   vertex 0.025728000327944756 0.0024510000366717577 0.0052140001207590103
  endloop
 endfacet
 facet normal 0.81240044031918046 0.42692047813029588 0.39717053002734393
  outer loop
   vertex 0.027172999456524849 -0.00093600002583116293 0.0058989999815821648
   vertex 0.025728000327944756 0.0024510000366717577 0.0052140001207590103
   vertex 0.024664999917149544 -0.0010689999908208847 0.01117200031876564
  endloop
 endfacet
 facet normal 0.61434919305415026 -0.7378153406576381 0.27964905164145965
  outer loop
   vertex 0.027208000421524048 -0.0042710001580417156 -0.0034960000775754452
   vertex 0.020847000181674957 -0.0096100000664591789 -0.003607999999076128
   vertex 0.021712999790906906 -0.0107810003682971 -0.0086000002920627594
  endloop
 endfacet
 facet normal 0.61651478356281686 -0.7401607815904766 0.26846142934110268
  outer loop
   vertex 0.027208000421524048 -0.0042710001580417156 -0.0034960000775754452
   vertex 0.024664999917149544 -0.0010689999908208847 0.01117200031876564
   vertex 0.020847000181674957 -0.0096100000664591789 -0.003607999999076128
  endloop
 endfacet
 facet normal 0.69775492080134938 -0.665057604711777 0.26615118431548745
  outer loop
   vertex 0.028606999665498734 -0.0023469999432563782 -0.0023560000117868185
   vertex 0.024664999917149544 -0.0010689999908208847 0.01117200031876564
   vertex 0.027208000421524048 -0.0042710001580417156 -0.0034960000775754452
  endloop
 endfacet
 facet normal 0.60122935519625431 -0.74927818193816209 0.27767871456368182
  outer loop
   vertex 0.024664999917149544 -0.0010689999908208847 0.01117200031876564
   vertex 0.018541000783443451 -0.0065270001068711281 0.0097040003165602684
   vertex 0.020847000181674957 -0.0096100000664591789 -0.003607999999076128
  endloop
 endfacet
 facet normal 0.67551314515751115 -0.72998557916207629 -0.10393769737114346
  outer loop
   vertex 0.024664999917149544 -0.0010689999908208847 0.01117200031876564
   vertex 0.018139999359846115 -0.0072220000438392162 0.011978999711573124
   vertex 0.018541000783443451 -0.0065270001068711281 0.0097040003165602684
  endloop
 endfacet
 facet normal 0.52999875557371035 -0.81578536685224845 0.23150713665038747
  outer loop
   vertex 0.028606999665498734 -0.0023469999432563782 -0.0023560000117868185
   vertex 0.027172999456524849 -0.00093600002583116293 0.0058989999815821648
   vertex 0.024664999917149544 -0.0010689999908208847 0.01117200031876564
  endloop
 endfacet
endsolid
