solid Visualization Toolkit generated SLA File
 facet normal -0.23642861549314256 0.80653635198479667 -0.54184926197518435
  outer loop
   vertex 0.096698999404907227 0.026870999485254288 -0.0074780001305043697
   vertex 0.096248000860214233 0.028286000713706017 -0.0051750000566244125
   vertex 0.097880996763706207 0.028891000896692276 -0.0049870000220835209
  endloop
 endfacet
 facet normal 0.1822440350951802 0.71961748753196486 -0.6700281959070149
  outer loop
   vertex 0.09740699827671051 0.027728000655770302 -0.0063649998046457767
   vertex 0.096698999404907227 0.026870999485254288 -0.0074780001305043697
   vertex 0.097880996763706207 0.028891000896692276 -0.0049870000220835209
  endloop
 endfacet
 facet normal -0.30665773354970433 0.91218389493754926 -0.27181165587722794
  outer loop
   vertex 0.096248000860214233 0.028286000713706017 -0.0051750000566244125
   vertex 0.098691999912261963 0.02980400063097477 -0.0028379999566823244
   vertex 0.097880996763706207 0.028891000896692276 -0.0049870000220835209
  endloop
 endfacet
 facet normal 0.80405604386999652 -0.56100349898579693 0.19689833021593389
  outer loop
   vertex 0.09740699827671051 0.027728000655770302 -0.0063649998046457767
   vertex 0.097880996763706207 0.028891000896692276 -0.0049870000220835209
   vertex 0.096730999648571014 0.026298999786376953 -0.0076759997755289078
  endloop
 endfacet
 facet normal 0.87885078368156244 0.29193256084684083 -0.37735484618553555
  outer loop
   vertex 0.097880996763706207 0.028891000896692276 -0.0049870000220835209
   vertex 0.098651997745037079 0.028429999947547913 -0.0035480000078678131
   vertex 0.098176002502441406 0.027915000915527344 -0.0050550000742077827
  endloop
 endfacet
 facet normal 0.88948860482405667 0.18907108188289748 -0.41600738921776836
  outer loop
   vertex 0.097880996763706207 0.028891000896692276 -0.0049870000220835209
   vertex 0.098691999912261963 0.02980400063097477 -0.0028379999566823244
   vertex 0.098651997745037079 0.028429999947547913 -0.0035480000078678131
  endloop
 endfacet
 facet normal 0.76230991201581033 0.27135379217191713 -0.58758039238589943
  outer loop
   vertex 0.097880996763706207 0.028891000896692276 -0.0049870000220835209
   vertex 0.098176002502441406 0.027915000915527344 -0.0050550000742077827
   vertex 0.096730999648571014 0.026298999786376953 -0.0076759997755289078
  endloop
 endfacet
 facet normal -0.18321872457667548 0.82119456349245012 -0.5404353688045781
  outer loop
   vertex 0.096248000860214233 0.028286000713706017 -0.0051750000566244125
   vertex 0.096698999404907227 0.026870999485254288 -0.0074780001305043697
   vertex 0.095614001154899597 0.027186999097466469 -0.0066300001926720142
  endloop
 endfacet
 facet normal -0.42454477358283044 0.89493267893548312 -0.13732164941065422
  outer loop
   vertex 0.098691999912261963 0.02980400063097477 -0.0028379999566823244
   vertex 0.096248000860214233 0.028286000713706017 -0.0051750000566244125
   vertex 0.096772998571395874 0.029434999451041222 0.00069000001531094313
  endloop
 endfacet
 facet normal -0.23247978933722244 0.9235343182938005 -0.30502050829956623
  outer loop
   vertex 0.093725003302097321 0.029727000743150711 0.0011109999613836408
   vertex 0.096248000860214233 0.028286000713706017 -0.0051750000566244125
   vertex 0.095146000385284424 0.028180999681353569 -0.0046529998071491718
  endloop
 endfacet
 facet normal 0.066411001104001346 0.97804060393695325 -0.19755038846583894
  outer loop
   vertex 0.096248000860214233 0.028286000713706017 -0.0051750000566244125
   vertex 0.093725003302097321 0.029727000743150711 0.0011109999613836408
   vertex 0.096772998571395874 0.029434999451041222 0.00069000001531094313
  endloop
 endfacet
 facet normal -0.30754889797289398 0.81892121574737764 -0.48454279249050353
  outer loop
   vertex 0.095146000385284424 0.028180999681353569 -0.0046529998071491718
   vertex 0.096248000860214233 0.028286000713706017 -0.0051750000566244125
   vertex 0.095614001154899597 0.027186999097466469 -0.0066300001926720142
  endloop
 endfacet
 facet normal -0.26803005479936043 0.7388547918746694 -0.61826651716560788
  outer loop
   vertex 0.095830000936985016 0.025887999683618546 -0.0082759996876120567
   vertex 0.095614001154899597 0.027186999097466469 -0.0066300001926720142
   vertex 0.096698999404907227 0.026870999485254288 -0.0074780001305043697
  endloop
 endfacet
 facet normal 0.44838018898502857 0.3146826556351715 -0.83661821183150575
  outer loop
   vertex 0.096698999404907227 0.026870999485254288 -0.0074780001305043697
   vertex 0.096730999648571014 0.026298999786376953 -0.0076759997755289078
   vertex 0.095859996974468231 0.025359999388456345 -0.0084960004314780235
  endloop
 endfacet
 facet normal 0.35875411880233915 0.37630637176497839 -0.85421835429323034
  outer loop
   vertex 0.095830000936985016 0.025887999683618546 -0.0082759996876120567
   vertex 0.096698999404907227 0.026870999485254288 -0.0074780001305043697
   vertex 0.095859996974468231 0.025359999388456345 -0.0084960004314780235
  endloop
 endfacet
 facet normal 0.70724256221795057 0.26626646579173774 -0.65491230510822263
  outer loop
   vertex 0.096730999648571014 0.026298999786376953 -0.0076759997755289078
   vertex 0.096698999404907227 0.026870999485254288 -0.0074780001305043697
   vertex 0.09740699827671051 0.027728000655770302 -0.0063649998046457767
  endloop
 endfacet
 facet normal -0.3610816084264572 0.92721882515281095 -0.099424958327391816
  outer loop
   vertex 0.098691001534461975 0.030020000413060188 -0.00082000001566484571
   vertex 0.098691999912261963 0.02980400063097477 -0.0028379999566823244
   vertex 0.096772998571395874 0.029434999451041222 0.00069000001531094313
  endloop
 endfacet
 facet normal 0.94739815925712945 0.31704894997077715 -0.043780031505592329
  outer loop
   vertex 0.099063999950885773 0.028952000662684441 -0.00095800001872703433
   vertex 0.099045999348163605 0.02885499969124794 -0.0020500000100582838
   vertex 0.098691999912261963 0.02980400063097477 -0.0028379999566823244
  endloop
 endfacet
 facet normal 0.9420666710942569 0.3335695816463467 -0.035238067677817814
  outer loop
   vertex 0.098691001534461975 0.030020000413060188 -0.00082000001566484571
   vertex 0.099063999950885773 0.028952000662684441 -0.00095800001872703433
   vertex 0.098691999912261963 0.02980400063097477 -0.0028379999566823244
  endloop
 endfacet
 facet normal 0.95139872477805043 0.11906296748991201 -0.28401492260653399
  outer loop
   vertex 0.098691999912261963 0.02980400063097477 -0.0028379999566823244
   vertex 0.099045999348163605 0.02885499969124794 -0.0020500000100582838
   vertex 0.098651997745037079 0.028429999947547913 -0.0035480000078678131
  endloop
 endfacet
 facet normal 0.8196371566871905 -0.4208788523964852 -0.38865913469665908
  outer loop
   vertex 0.095859996974468231 0.025359999388456345 -0.0084960004314780235
   vertex 0.096730999648571014 0.026298999786376953 -0.0076759997755289078
   vertex 0.094334997236728668 0.021632000803947449 -0.0076750000007450581
  endloop
 endfacet
 facet normal 0.8708069909865116 -0.44710959528356797 -0.20442160906905535
  outer loop
   vertex 0.094334997236728668 0.021632000803947449 -0.0076750000007450581
   vertex 0.096730999648571014 0.026298999786376953 -0.0076759997755289078
   vertex 0.098176002502441406 0.027915000915527344 -0.0050550000742077827
  endloop
 endfacet
 facet normal 0.86763164413104732 -0.48529074196278155 -0.10820455566965964
  outer loop
   vertex 0.098176002502441406 0.027915000915527344 -0.0050550000742077827
   vertex 0.098651997745037079 0.028429999947547913 -0.0035480000078678131
   vertex 0.094334997236728668 0.021632000803947449 -0.0076750000007450581
  endloop
 endfacet
 facet normal 0.86392924542593375 -0.49613419071517578 -0.086470363137749182
  outer loop
   vertex 0.098651997745037079 0.028429999947547913 -0.0035480000078678131
   vertex 0.099045999348163605 0.02885499969124794 -0.0020500000100582838
   vertex 0.094334997236728668 0.021632000803947449 -0.0076750000007450581
  endloop
 endfacet
 facet normal -0.30796390866670992 0.72677194510721199 -0.61397131102666513
  outer loop
   vertex 0.095830000936985016 0.025887999683618546 -0.0082759996876120567
   vertex 0.089573003351688385 0.028362000361084938 -0.0022090000566095114
   vertex 0.095614001154899597 0.027186999097466469 -0.0066300001926720142
  endloop
 endfacet
 facet normal -0.18061383281086932 0.86091542168047341 -0.47560832636750577
  outer loop
   vertex 0.095146000385284424 0.028180999681353569 -0.0046529998071491718
   vertex 0.095614001154899597 0.027186999097466469 -0.0066300001926720142
   vertex 0.089573003351688385 0.028362000361084938 -0.0022090000566095114
  endloop
 endfacet
 facet normal 0.16573279867454113 0.54463698986158782 0.82213331565994363
  outer loop
   vertex 0.096772998571395874 0.029434999451041222 0.00069000001531094313
   vertex 0.093725003302097321 0.029727000743150711 0.0011109999613836408
   vertex 0.09519600123167038 0.029299000278115273 0.0010979999788105488
  endloop
 endfacet
 facet normal 0.32070238003424184 0.67186092499854588 0.66764727281736946
  outer loop
   vertex 0.096772998571395874 0.029434999451041222 0.00069000001531094313
   vertex 0.097901999950408936 0.02922699972987175 0.00035700001171790063
   vertex 0.098691001534461975 0.030020000413060188 -0.00082000001566484571
  endloop
 endfacet
 facet normal 0.335088325482573 -0.03487337997941075 0.94154110982691397
  outer loop
   vertex 0.096772998571395874 0.029434999451041222 0.00069000001531094313
   vertex 0.089777000248432159 0.019827999174594879 0.0028240000829100609
   vertex 0.095398001372814178 0.01727600023150444 0.00072900002123787999
  endloop
 endfacet
 facet normal 0.24750300904641598 0.034843045258328813 0.96826041058699486
  outer loop
   vertex 0.096772998571395874 0.029434999451041222 0.00069000001531094313
   vertex 0.09519600123167038 0.029299000278115273 0.0010979999788105488
   vertex 0.089777000248432159 0.019827999174594879 0.0028240000829100609
  endloop
 endfacet
 facet normal 0.27797862629917502 -0.028355396919475393 0.96016865955224895
  outer loop
   vertex 0.095398001372814178 0.01727600023150444 0.00072900002123787999
   vertex 0.097901999950408936 0.02922699972987175 0.00035700001171790063
   vertex 0.096772998571395874 0.029434999451041222 0.00069000001531094313
  endloop
 endfacet
 facet normal 0.058497881371153151 0.96772181289637471 -0.24513769746744449
  outer loop
   vertex 0.095146000385284424 0.028180999681353569 -0.0046529998071491718
   vertex 0.090368002653121948 0.02932400070130825 -0.0012809999752789736
   vertex 0.093725003302097321 0.029727000743150711 0.0011109999613836408
  endloop
 endfacet
 facet normal -0.23583919403500106 0.7685784934164448 -0.59469906172334674
  outer loop
   vertex 0.095146000385284424 0.028180999681353569 -0.0046529998071491718
   vertex 0.089573003351688385 0.028362000361084938 -0.0022090000566095114
   vertex 0.090368002653121948 0.02932400070130825 -0.0012809999752789736
  endloop
 endfacet
 facet normal 0.23465893211094893 0.84954121311373287 -0.47245625490810894
  outer loop
   vertex 0.093725003302097321 0.029727000743150711 0.0011109999613836408
   vertex 0.090368002653121948 0.02932400070130825 -0.0012809999752789736
   vertex 0.090677998960018158 0.030810000374913216 0.0015450000064447522
  endloop
 endfacet
 facet normal 0.34902782668852556 0.92702078821433542 0.13715696998533033
  outer loop
   vertex 0.090677998960018158 0.030810000374913216 0.0015450000064447522
   vertex 0.092583999037742615 0.029903000220656395 0.0028250000905245543
   vertex 0.093725003302097321 0.029727000743150711 0.0011109999613836408
  endloop
 endfacet
 facet normal 0.7581603870609871 0.46518899247621665 0.45693766398765673
  outer loop
   vertex 0.093165002763271332 0.029570000246167183 0.002199999988079071
   vertex 0.093725003302097321 0.029727000743150711 0.0011109999613836408
   vertex 0.092583999037742615 0.029903000220656395 0.0028250000905245543
  endloop
 endfacet
 facet normal 0.8165610793309388 0.33721954755194034 0.46851998940360795
  outer loop
   vertex 0.093689002096652985 0.029131999239325523 0.001601999974809587
   vertex 0.093725003302097321 0.029727000743150711 0.0011109999613836408
   vertex 0.093165002763271332 0.029570000246167183 0.002199999988079071
  endloop
 endfacet
 facet normal 0.18671515327284008 0.61854000187477087 0.76324682614411077
  outer loop
   vertex 0.093725003302097321 0.029727000743150711 0.0011109999613836408
   vertex 0.093689002096652985 0.029131999239325523 0.001601999974809587
   vertex 0.09519600123167038 0.029299000278115273 0.0010979999788105488
  endloop
 endfacet
 facet normal -0.25333972111828051 0.77594728042466787 -0.57768919299678223
  outer loop
   vertex 0.085979998111724854 0.024033000692725182 -0.0064480002038180828
   vertex 0.089573003351688385 0.028362000361084938 -0.0022090000566095114
   vertex 0.095830000936985016 0.025887999683618546 -0.0082759996876120567
  endloop
 endfacet
 facet normal -0.23361643101927357 0.34446492945492518 -0.90926743894930628
  outer loop
   vertex 0.095830000936985016 0.025887999683618546 -0.0082759996876120567
   vertex 0.093241997063159943 0.02180200070142746 -0.0091589996591210365
   vertex 0.085979998111724854 0.024033000692725182 -0.0064480002038180828
  endloop
 endfacet
 facet normal -0.81945933071316412 0.55220190160648608 -0.15349092862222746
  outer loop
   vertex 0.095830000936985016 0.025887999683618546 -0.0082759996876120567
   vertex 0.094980001449584961 0.024372000247240067 -0.0091920001432299614
   vertex 0.093241997063159943 0.02180200070142746 -0.0091589996591210365
  endloop
 endfacet
 facet normal 0.26840797676500172 0.38345612204565194 -0.88369596608484546
  outer loop
   vertex 0.095830000936985016 0.025887999683618546 -0.0082759996876120567
   vertex 0.095859996974468231 0.025359999388456345 -0.0084960004314780235
   vertex 0.094980001449584961 0.024372000247240067 -0.0091920001432299614
  endloop
 endfacet
 facet normal 0.80303737707580258 -0.41181361553818763 -0.43074414340369283
  outer loop
   vertex 0.094980001449584961 0.024372000247240067 -0.0091920001432299614
   vertex 0.095859996974468231 0.025359999388456345 -0.0084960004314780235
   vertex 0.094682998955249786 0.023090999573469162 -0.0085209999233484268
  endloop
 endfacet
 facet normal 0.81962137287492032 -0.42087955767703927 -0.38869165550113188
  outer loop
   vertex 0.094682998955249786 0.023090999573469162 -0.0085209999233484268
   vertex 0.095859996974468231 0.025359999388456345 -0.0084960004314780235
   vertex 0.094334997236728668 0.021632000803947449 -0.0076750000007450581
  endloop
 endfacet
 facet normal 0.93991207521652242 0.30969333913460834 0.14371961090201563
  outer loop
   vertex 0.098897002637386322 0.029023999348282814 -2.0999999833293259e-05
   vertex 0.099063999950885773 0.028952000662684441 -0.00095800001872703433
   vertex 0.098691001534461975 0.030020000413060188 -0.00082000001566484571
  endloop
 endfacet
 facet normal 0.38545606863207355 0.62458531276557827 0.67920306700737965
  outer loop
   vertex 0.097901999950408936 0.02922699972987175 0.00035700001171790063
   vertex 0.098897002637386322 0.029023999348282814 -2.0999999833293259e-05
   vertex 0.098691001534461975 0.030020000413060188 -0.00082000001566484571
  endloop
 endfacet
 facet normal 0.95446555324946458 -0.29812744058323881 0.010748806049077481
  outer loop
   vertex 0.099045999348163605 0.02885499969124794 -0.0020500000100582838
   vertex 0.099063999950885773 0.028952000662684441 -0.00095800001872703433
   vertex 0.095398001372814178 0.01727600023150444 0.00072900002123787999
  endloop
 endfacet
 facet normal 0.88905521185286251 -0.35071824081761449 -0.29424062573862836
  outer loop
   vertex 0.094334997236728668 0.021632000803947449 -0.0076750000007450581
   vertex 0.099045999348163605 0.02885499969124794 -0.0020500000100582838
   vertex 0.095398001372814178 0.01727600023150444 0.00072900002123787999
  endloop
 endfacet
 facet normal 0.94435822881095544 -0.2692003226589943 0.18899397333599949
  outer loop
   vertex 0.099063999950885773 0.028952000662684441 -0.00095800001872703433
   vertex 0.098897002637386322 0.029023999348282814 -2.0999999833293259e-05
   vertex 0.095398001372814178 0.01727600023150444 0.00072900002123787999
  endloop
 endfacet
 facet normal 0.88591839449985066 -0.3564431303479223 -0.29681120786550702
  outer loop
   vertex 0.094012998044490814 0.01998399943113327 -0.0066570001654326916
   vertex 0.094334997236728668 0.021632000803947449 -0.0076750000007450581
   vertex 0.095398001372814178 0.01727600023150444 0.00072900002123787999
  endloop
 endfacet
 facet normal 0.70728586619040346 -0.47322356377171593 -0.52517250706647556
  outer loop
   vertex 0.094682998955249786 0.023090999573469162 -0.0085209999233484268
   vertex 0.094334997236728668 0.021632000803947449 -0.0076750000007450581
   vertex 0.093652002513408661 0.020952999591827393 -0.0079830000177025795
  endloop
 endfacet
 facet normal 0.51721898427304469 -0.52065379010386059 -0.6792673650029456
  outer loop
   vertex 0.094012998044490814 0.01998399943113327 -0.0066570001654326916
   vertex 0.09343399852514267 0.019627999514341354 -0.0068250000476837158
   vertex 0.094334997236728668 0.021632000803947449 -0.0076750000007450581
  endloop
 endfacet
 facet normal 0.72211106306950179 -0.51876945185538548 -0.45763945242329884
  outer loop
   vertex 0.09343399852514267 0.019627999514341354 -0.0068250000476837158
   vertex 0.093652002513408661 0.020952999591827393 -0.0079830000177025795
   vertex 0.094334997236728668 0.021632000803947449 -0.0076750000007450581
  endloop
 endfacet
 facet normal -0.065895831106824079 0.72550511804439333 -0.68505478841778189
  outer loop
   vertex 0.085979998111724854 0.024033000692725182 -0.0064480002038180828
   vertex 0.084999002516269684 0.031631000339984894 0.0016929999692365527
   vertex 0.089573003351688385 0.028362000361084938 -0.0022090000566095114
  endloop
 endfacet
 facet normal -0.083026144999669454 0.71384388326978632 -0.69536578112875647
  outer loop
   vertex 0.088505998253822327 0.029776999726891518 -0.00062900001648813486
   vertex 0.089573003351688385 0.028362000361084938 -0.0022090000566095114
   vertex 0.084999002516269684 0.031631000339984894 0.0016929999692365527
  endloop
 endfacet
 facet normal -0.066354525447067395 0.72060563819760159 -0.69016272802182099
  outer loop
   vertex 0.089573003351688385 0.028362000361084938 -0.0022090000566095114
   vertex 0.088505998253822327 0.029776999726891518 -0.00062900001648813486
   vertex 0.090368002653121948 0.02932400070130825 -0.0012809999752789736
  endloop
 endfacet
 facet normal 0.31807764624952417 -0.0092261473410309141 0.94801977255835967
  outer loop
   vertex 0.09519600123167038 0.029299000278115273 0.0010979999788105488
   vertex 0.093689002096652985 0.029131999239325523 0.001601999974809587
   vertex 0.089777000248432159 0.019827999174594879 0.0028240000829100609
  endloop
 endfacet
 facet normal 0.34702166241243576 -0.043547420024454407 0.93684555185245089
  outer loop
   vertex 0.095398001372814178 0.01727600023150444 0.00072900002123787999
   vertex 0.098897002637386322 0.029023999348282814 -2.0999999833293259e-05
   vertex 0.097901999950408936 0.02922699972987175 0.00035700001171790063
  endloop
 endfacet
 facet normal 0.87135081971894601 -0.38477069247518775 -0.30446553694512796
  outer loop
   vertex 0.095398001372814178 0.01727600023150444 0.00072900002123787999
   vertex 0.093762002885341644 0.014090999960899353 7.200000254670158e-05
   vertex 0.094012998044490814 0.01998399943113327 -0.0066570001654326916
  endloop
 endfacet
 facet normal 0.46850251761883294 0.37538881240316885 0.7997428527391498
  outer loop
   vertex 0.089777000248432159 0.019827999174594879 0.0028240000829100609
   vertex 0.093736998736858368 0.015282000415027142 0.002638000063598156
   vertex 0.095398001372814178 0.01727600023150444 0.00072900002123787999
  endloop
 endfacet
 facet normal 0.91068657943315356 -0.41030694636826509 0.047939167726317337
  outer loop
   vertex 0.094279997050762177 0.014968999661505222 0.0022219999227672815
   vertex 0.094241999089717865 0.014751000329852104 0.0010779999429360032
   vertex 0.095398001372814178 0.01727600023150444 0.00072900002123787999
  endloop
 endfacet
 facet normal 0.89197444059701547 -0.42834790679289791 -0.1445671749318779
  outer loop
   vertex 0.095398001372814178 0.01727600023150444 0.00072900002123787999
   vertex 0.094241999089717865 0.014751000329852104 0.0010779999429360032
   vertex 0.093762002885341644 0.014090999960899353 7.200000254670158e-05
  endloop
 endfacet
 facet normal 0.65654337175511956 0.15900633294100003 0.73733831250591786
  outer loop
   vertex 0.095398001372814178 0.01727600023150444 0.00072900002123787999
   vertex 0.093736998736858368 0.015282000415027142 0.002638000063598156
   vertex 0.094279997050762177 0.014968999661505222 0.0022219999227672815
  endloop
 endfacet
 facet normal 0.58704299476800914 0.27325399905042563 0.76204512615510978
  outer loop
   vertex 0.089281998574733734 0.016922999173402786 0.0042469999752938747
   vertex 0.090418003499507904 0.01574300043284893 0.0037950000260025263
   vertex 0.089777000248432159 0.019827999174594879 0.0028240000829100609
  endloop
 endfacet
 facet normal 0.2982598290069286 0.22504593479354382 0.92757501132450615
  outer loop
   vertex 0.092316001653671265 0.015820000320672989 0.0029800001066178083
   vertex 0.093143999576568604 0.015514000318944454 0.0027880000416189432
   vertex 0.089777000248432159 0.019827999174594879 0.0028240000829100609
  endloop
 endfacet
 facet normal 0.71296852960323043 -0.23926856537056171 0.65911033175100564
  outer loop
   vertex 0.089777000248432159 0.019827999174594879 0.0028240000829100609
   vertex 0.090935997664928436 0.030003000050783157 0.0052640000358223915
   vertex 0.087828002870082855 0.020684000104665756 0.0052430001087486744
  endloop
 endfacet
 facet normal 0.37072041391919963 0.26943939015227997 0.88880188441403774
  outer loop
   vertex 0.089777000248432159 0.019827999174594879 0.0028240000829100609
   vertex 0.090418003499507904 0.01574300043284893 0.0037950000260025263
   vertex 0.092316001653671265 0.015820000320672989 0.0029800001066178083
  endloop
 endfacet
 facet normal 0.79523634691624601 0.15200247409128723 0.58693645347126944
  outer loop
   vertex 0.087828002870082855 0.020684000104665756 0.0052430001087486744
   vertex 0.089281998574733734 0.016922999173402786 0.0042469999752938747
   vertex 0.089777000248432159 0.019827999174594879 0.0028240000829100609
  endloop
 endfacet
 facet normal 0.79865030001207082 -0.26482826213987276 0.54039216302848458
  outer loop
   vertex 0.093689002096652985 0.029131999239325523 0.001601999974809587
   vertex 0.092671997845172882 0.029588999226689339 0.0033289999701082706
   vertex 0.089777000248432159 0.019827999174594879 0.0028240000829100609
  endloop
 endfacet
 facet normal 0.69608243182996898 -0.24143152274566704 0.67615092096541951
  outer loop
   vertex 0.089777000248432159 0.019827999174594879 0.0028240000829100609
   vertex 0.092671997845172882 0.029588999226689339 0.0033289999701082706
   vertex 0.090935997664928436 0.030003000050783157 0.0052640000358223915
  endloop
 endfacet
 facet normal 0.32767551341634571 0.24813747117878046 0.91162303245603349
  outer loop
   vertex 0.089777000248432159 0.019827999174594879 0.0028240000829100609
   vertex 0.093143999576568604 0.015514000318944454 0.0027880000416189432
   vertex 0.093736998736858368 0.015282000415027142 0.002638000063598156
  endloop
 endfacet
 facet normal 0.050232114625381165 0.8816971075353357 -0.46913425074714515
  outer loop
   vertex 0.088505998253822327 0.029776999726891518 -0.00062900001648813486
   vertex 0.090677998960018158 0.030810000374913216 0.0015450000064447522
   vertex 0.090368002653121948 0.02932400070130825 -0.0012809999752789736
  endloop
 endfacet
 facet normal 0.10961759722753676 0.85086819044077089 -0.51381641164340952
  outer loop
   vertex 0.090677998960018158 0.030810000374913216 0.0015450000064447522
   vertex 0.088505998253822327 0.029776999726891518 -0.00062900001648813486
   vertex 0.084999002516269684 0.031631000339984894 0.0016929999692365527
  endloop
 endfacet
 facet normal 0.13044605174982998 0.95214549106670698 -0.27641054868477838
  outer loop
   vertex 0.090677998960018158 0.030810000374913216 0.0015450000064447522
   vertex 0.084999002516269684 0.031631000339984894 0.0016929999692365527
   vertex 0.085740000009536743 0.03293599933385849 0.0065379999577999115
  endloop
 endfacet
 facet normal 0.32999727290019187 0.94367111054074071 -0.024220549317501578
  outer loop
   vertex 0.090677998960018158 0.030810000374913216 0.0015450000064447522
   vertex 0.089234001934528351 0.031433999538421631 0.0061829998157918453
   vertex 0.091116003692150116 0.030722999945282936 0.0041229999624192715
  endloop
 endfacet
 facet normal 0.4549272488904802 0.88927251348590197 -0.047282078797419545
  outer loop
   vertex 0.090677998960018158 0.030810000374913216 0.0015450000064447522
   vertex 0.091116003692150116 0.030722999945282936 0.0041229999624192715
   vertex 0.092583999037742615 0.029903000220656395 0.0028250000905245543
  endloop
 endfacet
 facet normal 0.39487714013076158 0.91873369428247886 -0.00066572683558520156
  outer loop
   vertex 0.085740000009536743 0.03293599933385849 0.0065379999577999115
   vertex 0.089234001934528351 0.031433999538421631 0.0061829998157918453
   vertex 0.090677998960018158 0.030810000374913216 0.0015450000064447522
  endloop
 endfacet
 facet normal 0.69178245868527544 0.66089201397790764 0.29096181143851235
  outer loop
   vertex 0.092583999037742615 0.029903000220656395 0.0028250000905245543
   vertex 0.092671997845172882 0.029588999226689339 0.0033289999701082706
   vertex 0.093165002763271332 0.029570000246167183 0.002199999988079071
  endloop
 endfacet
 facet normal 0.65838425859126315 0.6850442963781308 0.31184047209915594
  outer loop
   vertex 0.092671997845172882 0.029588999226689339 0.0033289999701082706
   vertex 0.092583999037742615 0.029903000220656395 0.0028250000905245543
   vertex 0.091116003692150116 0.030722999945282936 0.0041229999624192715
  endloop
 endfacet
 facet normal 0.80087494276248128 0.491951486542968 0.34144261735078774
  outer loop
   vertex 0.093165002763271332 0.029570000246167183 0.002199999988079071
   vertex 0.092671997845172882 0.029588999226689339 0.0033289999701082706
   vertex 0.093689002096652985 0.029131999239325523 0.001601999974809587
  endloop
 endfacet
 facet normal -0.3700292063882063 -0.24366338345006994 -0.89649681649483748
  outer loop
   vertex 0.085979998111724854 0.024033000692725182 -0.0064480002038180828
   vertex 0.091301999986171722 0.021031999960541725 -0.0078290002420544624
   vertex 0.08855699747800827 0.021811999380588531 -0.0069079999811947346
  endloop
 endfacet
 facet normal 0.11099233975320519 0.73318642079893315 -0.67090861737807406
  outer loop
   vertex 0.084999002516269684 0.031631000339984894 0.0016929999692365527
   vertex 0.085979998111724854 0.024033000692725182 -0.0064480002038180828
   vertex 0.082290001213550568 0.026311000809073448 -0.0045690000988543034
  endloop
 endfacet
 facet normal -0.41932549845785466 -0.34405930167616744 -0.84011268486625035
  outer loop
   vertex 0.085979998111724854 0.024033000692725182 -0.0064480002038180828
   vertex 0.093241997063159943 0.02180200070142746 -0.0091589996591210365
   vertex 0.092315003275871277 0.020910000428557396 -0.0083309998735785484
  endloop
 endfacet
 facet normal -0.44292494890724421 -0.42129725686506331 -0.79140767686034474
  outer loop
   vertex 0.091301999986171722 0.021031999960541725 -0.0078290002420544624
   vertex 0.085979998111724854 0.024033000692725182 -0.0064480002038180828
   vertex 0.092315003275871277 0.020910000428557396 -0.0083309998735785484
  endloop
 endfacet
 facet normal -0.44754327261830379 -0.34872794695923592 -0.82346453362831284
  outer loop
   vertex 0.085979998111724854 0.024033000692725182 -0.0064480002038180828
   vertex 0.08855699747800827 0.021811999380588531 -0.0069079999811947346
   vertex 0.085644997656345367 0.021771000698208809 -0.0053079999051988125
  endloop
 endfacet
 facet normal -0.6056913799135859 -0.28475508997447863 -0.74300234927757991
  outer loop
   vertex 0.085979998111724854 0.024033000692725182 -0.0064480002038180828
   vertex 0.085644997656345367 0.021771000698208809 -0.0053079999051988125
   vertex 0.083994001150131226 0.022756999358534813 -0.0043399999849498272
  endloop
 endfacet
 facet normal -0.58119910414756659 -0.32668499070270418 -0.74530833766142723
  outer loop
   vertex 0.085979998111724854 0.024033000692725182 -0.0064480002038180828
   vertex 0.083994001150131226 0.022756999358534813 -0.0043399999849498272
   vertex 0.082290001213550568 0.026311000809073448 -0.0045690000988543034
  endloop
 endfacet
 facet normal 0.67540440059661278 -0.46411212974701305 -0.57308710217245518
  outer loop
   vertex 0.093241997063159943 0.02180200070142746 -0.0091589996591210365
   vertex 0.094980001449584961 0.024372000247240067 -0.0091920001432299614
   vertex 0.093116998672485352 0.021120000630617142 -0.0087540000677108765
  endloop
 endfacet
 facet normal -0.32724112088380869 -0.43742375464491173 -0.8375999687649569
  outer loop
   vertex 0.092315003275871277 0.020910000428557396 -0.0083309998735785484
   vertex 0.093241997063159943 0.02180200070142746 -0.0091589996591210365
   vertex 0.093116998672485352 0.021120000630617142 -0.0087540000677108765
  endloop
 endfacet
 facet normal 0.73448389304581818 -0.48473771673624333 -0.47493447635394148
  outer loop
   vertex 0.093116998672485352 0.021120000630617142 -0.0087540000677108765
   vertex 0.094980001449584961 0.024372000247240067 -0.0091920001432299614
   vertex 0.092958003282546997 0.020301999524235725 -0.0081650000065565109
  endloop
 endfacet
 facet normal 0.60485086125450804 -0.4638324665217225 -0.64731358601535238
  outer loop
   vertex 0.094980001449584961 0.024372000247240067 -0.0091920001432299614
   vertex 0.093652002513408661 0.020952999591827393 -0.0079830000177025795
   vertex 0.092958003282546997 0.020301999524235725 -0.0081650000065565109
  endloop
 endfacet
 facet normal 0.65155183576897413 -0.46501701779025567 -0.59936581356591956
  outer loop
   vertex 0.094980001449584961 0.024372000247240067 -0.0091920001432299614
   vertex 0.094682998955249786 0.023090999573469162 -0.0085209999233484268
   vertex 0.093652002513408661 0.020952999591827393 -0.0079830000177025795
  endloop
 endfacet
 facet normal 0.89390242175570467 -0.35690464635665453 -0.27121492176559509
  outer loop
   vertex 0.093073002994060516 0.013722999952733517 -0.0015160000184550881
   vertex 0.092900998890399933 0.013948000036180019 -0.0023789999540895224
   vertex 0.094012998044490814 0.01998399943113327 -0.0066570001654326916
  endloop
 endfacet
 facet normal 0.41190565570860699 -0.54780300206242882 -0.72817964934942625
  outer loop
   vertex 0.092565998435020447 0.01779399998486042 -0.0058280001394450665
   vertex 0.094012998044490814 0.01998399943113327 -0.0066570001654326916
   vertex 0.091182000935077667 0.013372999615967274 -0.0032850001007318497
  endloop
 endfacet
 facet normal 0.53616087918777322 -0.58471363837993218 -0.60880331201554416
  outer loop
   vertex 0.094012998044490814 0.01998399943113327 -0.0066570001654326916
   vertex 0.092565998435020447 0.01779399998486042 -0.0058280001394450665
   vertex 0.09343399852514267 0.019627999514341354 -0.0068250000476837158
  endloop
 endfacet
 facet normal 0.73773012371947422 -0.47553410827560239 -0.47918845606230626
  outer loop
   vertex 0.092900998890399933 0.013948000036180019 -0.0023789999540895224
   vertex 0.092402003705501556 0.01371499989181757 -0.00291600008495152
   vertex 0.094012998044490814 0.01998399943113327 -0.0066570001654326916
  endloop
 endfacet
 facet normal 0.87928591375683529 -0.37408730292330777 -0.2948134523056446
  outer loop
   vertex 0.093762002885341644 0.014090999960899353 7.200000254670158e-05
   vertex 0.093073002994060516 0.013722999952733517 -0.0015160000184550881
   vertex 0.094012998044490814 0.01998399943113327 -0.0066570001654326916
  endloop
 endfacet
 facet normal 0.37893771943965948 -0.54409056209301021 -0.74857976530706605
  outer loop
   vertex 0.092402003705501556 0.01371499989181757 -0.00291600008495152
   vertex 0.091182000935077667 0.013372999615967274 -0.0032850001007318497
   vertex 0.094012998044490814 0.01998399943113327 -0.0066570001654326916
  endloop
 endfacet
 facet normal 0.65982599756966409 -0.56487357713262154 -0.49552749145591701
  outer loop
   vertex 0.092565998435020447 0.01779399998486042 -0.0058280001394450665
   vertex 0.092958003282546997 0.020301999524235725 -0.0081650000065565109
   vertex 0.093652002513408661 0.020952999591827393 -0.0079830000177025795
  endloop
 endfacet
 facet normal 0.59374104044164866 -0.58268174825150409 -0.55493563333943474
  outer loop
   vertex 0.09343399852514267 0.019627999514341354 -0.0068250000476837158
   vertex 0.092565998435020447 0.01779399998486042 -0.0058280001394450665
   vertex 0.093652002513408661 0.020952999591827393 -0.0079830000177025795
  endloop
 endfacet
 facet normal -0.30008376100443179 0.78711425953209135 -0.53888855881590458
  outer loop
   vertex 0.084999002516269684 0.031631000339984894 0.0016929999692365527
   vertex 0.082290001213550568 0.026311000809073448 -0.0045690000988543034
   vertex 0.076995998620986938 0.027238000184297562 -0.00026699999580159783
  endloop
 endfacet
 facet normal -0.33345517505815042 0.81720958006463595 -0.47008100203849923
  outer loop
   vertex 0.084999002516269684 0.031631000339984894 0.0016929999692365527
   vertex 0.076995998620986938 0.027238000184297562 -0.00026699999580159783
   vertex 0.080551996827125549 0.031047999858856201 0.0038340000901371241
  endloop
 endfacet
 facet normal -0.22575127471566767 0.95131327202454907 -0.20985571337039513
  outer loop
   vertex 0.08412499725818634 0.032483998686075211 0.0065000001341104507
   vertex 0.084999002516269684 0.031631000339984894 0.0016929999692365527
   vertex 0.080551996827125549 0.031047999858856201 0.0038340000901371241
  endloop
 endfacet
 facet normal -0.25858945203743278 0.94194751108903085 -0.2141643799705272
  outer loop
   vertex 0.085740000009536743 0.03293599933385849 0.0065379999577999115
   vertex 0.084999002516269684 0.031631000339984894 0.0016929999692365527
   vertex 0.08412499725818634 0.032483998686075211 0.0065000001341104507
  endloop
 endfacet
 facet normal 0.7347445535189927 -0.67684442748616969 0.045078398985492825
  outer loop
   vertex 0.093437999486923218 0.01375299971550703 0.00027799999224953353
   vertex 0.093762002885341644 0.014090999960899353 7.200000254670158e-05
   vertex 0.093875996768474579 0.014294000342488289 0.0012619999470189214
  endloop
 endfacet
 facet normal 0.68832771445913077 -0.71889547821023858 -0.096923933661102274
  outer loop
   vertex 0.093762002885341644 0.014090999960899353 7.200000254670158e-05
   vertex 0.093437999486923218 0.01375299971550703 0.00027799999224953353
   vertex 0.093120001256465912 0.013546000234782696 -0.00044500001240521669
  endloop
 endfacet
 facet normal 0.70577742854504755 -0.69331985297039045 -0.14555343635055984
  outer loop
   vertex 0.093073002994060516 0.013722999952733517 -0.0015160000184550881
   vertex 0.093762002885341644 0.014090999960899353 7.200000254670158e-05
   vertex 0.093120001256465912 0.013546000234782696 -0.00044500001240521669
  endloop
 endfacet
 facet normal 0.78604609888683685 -0.61743803651994034 0.030030009710055271
  outer loop
   vertex 0.093875996768474579 0.014294000342488289 0.0012619999470189214
   vertex 0.093762002885341644 0.014090999960899353 7.200000254670158e-05
   vertex 0.094241999089717865 0.014751000329852104 0.0010779999429360032
  endloop
 endfacet
 facet normal 0.6668585907299156 -0.12411668927612848 0.73477524959190343
  outer loop
   vertex 0.093133002519607544 0.014096999540925026 0.0029859999194741249
   vertex 0.093952998518943787 0.01448300015181303 0.0023070001043379307
   vertex 0.093736998736858368 0.015282000415027142 0.002638000063598156
  endloop
 endfacet
 facet normal 0.29071254648275152 0.13019699818765806 0.94791083809630372
  outer loop
   vertex 0.093133002519607544 0.014096999540925026 0.0029859999194741249
   vertex 0.093736998736858368 0.015282000415027142 0.002638000063598156
   vertex 0.093143999576568604 0.015514000318944454 0.0027880000416189432
  endloop
 endfacet
 facet normal 0.5186778762186337 -0.20376230875453583 0.83033377761738014
  outer loop
   vertex 0.093952998518943787 0.01448300015181303 0.0023070001043379307
   vertex 0.094279997050762177 0.014968999661505222 0.0022219999227672815
   vertex 0.093736998736858368 0.015282000415027142 0.002638000063598156
  endloop
 endfacet
 facet normal 0.7945058774102095 -0.60083114397050241 0.088104183758380236
  outer loop
   vertex 0.093875996768474579 0.014294000342488289 0.0012619999470189214
   vertex 0.094241999089717865 0.014751000329852104 0.0010779999429360032
   vertex 0.094279997050762177 0.014968999661505222 0.0022219999227672815
  endloop
 endfacet
 facet normal 0.83218129293722187 -0.55314989393410419 0.038723255622725113
  outer loop
   vertex 0.094279997050762177 0.014968999661505222 0.0022219999227672815
   vertex 0.093952998518943787 0.01448300015181303 0.0023070001043379307
   vertex 0.093875996768474579 0.014294000342488289 0.0012619999470189214
  endloop
 endfacet
 facet normal 0.32906967832521722 -0.077624641592380902 0.94110975014851073
  outer loop
   vertex 0.090418003499507904 0.01574300043284893 0.0037950000260025263
   vertex 0.091606996953487396 0.014770000241696835 0.0032989999745041132
   vertex 0.091964997351169586 0.015244999900460243 0.0032130000181496143
  endloop
 endfacet
 facet normal -0.042970260666522507 -0.49492028560230317 0.86787526039033158
  outer loop
   vertex 0.090204998850822449 0.014042999595403671 0.0028150000143796206
   vertex 0.091606996953487396 0.014770000241696835 0.0032989999745041132
   vertex 0.090418003499507904 0.01574300043284893 0.0037950000260025263
  endloop
 endfacet
 facet normal 0.064999447577733391 -0.50447234618819981 0.86097777192327241
  outer loop
   vertex 0.089617997407913208 0.015429999679327011 0.0036720000207424164
   vertex 0.090204998850822449 0.014042999595403671 0.0028150000143796206
   vertex 0.090418003499507904 0.01574300043284893 0.0037950000260025263
  endloop
 endfacet
 facet normal 0.38641797923354493 0.13389623374115728 0.91255298142902219
  outer loop
   vertex 0.090418003499507904 0.01574300043284893 0.0037950000260025263
   vertex 0.091964997351169586 0.015244999900460243 0.0032130000181496143
   vertex 0.092316001653671265 0.015820000320672989 0.0029800001066178083
  endloop
 endfacet
 facet normal -0.002630092181112949 -0.35991211469991491 0.93298250375200187
  outer loop
   vertex 0.089617997407913208 0.015429999679327011 0.0036720000207424164
   vertex 0.090418003499507904 0.01574300043284893 0.0037950000260025263
   vertex 0.089281998574733734 0.016922999173402786 0.0042469999752938747
  endloop
 endfacet
 facet normal 0.2847238375995409 -0.28805107961605925 0.91430788678355668
  outer loop
   vertex 0.089281998574733734 0.016922999173402786 0.0042469999752938747
   vertex 0.088532999157905579 0.016188999637961388 0.0042489999905228615
   vertex 0.089617997407913208 0.015429999679327011 0.0036720000207424164
  endloop
 endfacet
 facet normal 0.25994327082418056 -0.65227331129044108 0.71201757234736152
  outer loop
   vertex 0.089281998574733734 0.016922999173402786 0.0042469999752938747
   vertex 0.087825998663902283 0.018038000911474228 0.0057999999262392521
   vertex 0.084444999694824219 0.017457999289035797 0.0065029999241232872
  endloop
 endfacet
 facet normal 0.36004869035324488 -0.3650672148465966 0.85853996367033614
  outer loop
   vertex 0.088532999157905579 0.016188999637961388 0.0042489999905228615
   vertex 0.089281998574733734 0.016922999173402786 0.0042469999752938747
   vertex 0.084444999694824219 0.017457999289035797 0.0065029999241232872
  endloop
 endfacet
 facet normal 0.76848921921166025 0.13124905798754649 0.62625713946655692
  outer loop
   vertex 0.087825998663902283 0.018038000911474228 0.0057999999262392521
   vertex 0.089281998574733734 0.016922999173402786 0.0042469999752938747
   vertex 0.087828002870082855 0.020684000104665756 0.0052430001087486744
  endloop
 endfacet
 facet normal 0.26969895672934047 0.13120591113374122 0.95396408822485046
  outer loop
   vertex 0.093133002519607544 0.014096999540925026 0.0029859999194741249
   vertex 0.093143999576568604 0.015514000318944454 0.0027880000416189432
   vertex 0.092316001653671265 0.015820000320672989 0.0029800001066178083
  endloop
 endfacet
 facet normal 0.34253566330449464 0.16564153059988462 0.92478765276417785
  outer loop
   vertex 0.091964997351169586 0.015244999900460243 0.0032130000181496143
   vertex 0.093133002519607544 0.014096999540925026 0.0029859999194741249
   vertex 0.092316001653671265 0.015820000320672989 0.0029800001066178083
  endloop
 endfacet
 facet normal 0.56332579338952815 0.16978903239451554 0.80860109756331189
  outer loop
   vertex 0.087828002870082855 0.020684000104665756 0.0052430001087486744
   vertex 0.084046997129917145 0.027608999982476234 0.0064229997806251049
   vertex 0.087825998663902283 0.018038000911474228 0.0057999999262392521
  endloop
 endfacet
 facet normal 0.32895192259710576 -0.11182235840403766 0.93770272089859419
  outer loop
   vertex 0.085775002837181091 0.028439000248908997 0.0068879998289048672
   vertex 0.087828002870082855 0.020684000104665756 0.0052430001087486744
   vertex 0.090935997664928436 0.030003000050783157 0.0052640000358223915
  endloop
 endfacet
 facet normal -0.14240369949403622 -0.24132245915663864 0.9599399236811671
  outer loop
   vertex 0.087828002870082855 0.020684000104665756 0.0052430001087486744
   vertex 0.085775002837181091 0.028439000248908997 0.0068879998289048672
   vertex 0.084046997129917145 0.027608999982476234 0.0064229997806251049
  endloop
 endfacet
 facet normal 0.66739727285730266 0.38402665160127525 0.63804734232073079
  outer loop
   vertex 0.089234001934528351 0.031433999538421631 0.0061829998157918453
   vertex 0.089009001851081848 0.030981000512838364 0.0066909999586641788
   vertex 0.090935997664928436 0.030003000050783157 0.0052640000358223915
  endloop
 endfacet
 facet normal 0.73165165208951066 0.35872675284144623 0.57965591240883718
  outer loop
   vertex 0.091122999787330627 0.030456999316811562 0.0047470000572502613
   vertex 0.090935997664928436 0.030003000050783157 0.0052640000358223915
   vertex 0.092671997845172882 0.029588999226689339 0.0033289999701082706
  endloop
 endfacet
 facet normal 0.67683811458195153 0.41420215076903738 0.60854477645235983
  outer loop
   vertex 0.091122999787330627 0.030456999316811562 0.0047470000572502613
   vertex 0.089234001934528351 0.031433999538421631 0.0061829998157918453
   vertex 0.090935997664928436 0.030003000050783157 0.0052640000358223915
  endloop
 endfacet
 facet normal 0.38684663561048416 -0.42889214465501774 0.81633400564356551
  outer loop
   vertex 0.090935997664928436 0.030003000050783157 0.0052640000358223915
   vertex 0.089009001851081848 0.030981000512838364 0.0066909999586641788
   vertex 0.085775002837181091 0.028439000248908997 0.0068879998289048672
  endloop
 endfacet
 facet normal 0.65586915636352949 0.69703802631120748 0.28978205535741586
  outer loop
   vertex 0.091122999787330627 0.030456999316811562 0.0047470000572502613
   vertex 0.092671997845172882 0.029588999226689339 0.0033289999701082706
   vertex 0.091116003692150116 0.030722999945282936 0.0041229999624192715
  endloop
 endfacet
 facet normal 0.30562733421819449 0.68821005346077979 0.65799609033351436
  outer loop
   vertex 0.085740000009536743 0.03293599933385849 0.0065379999577999115
   vertex 0.085248999297618866 0.032283999025821686 0.0074479999020695686
   vertex 0.087073996663093567 0.031702999025583267 0.0072079999372363091
  endloop
 endfacet
 facet normal -0.24785044699213837 0.84586420552677133 0.47231758567129511
  outer loop
   vertex 0.08412499725818634 0.032483998686075211 0.0065000001341104507
   vertex 0.085248999297618866 0.032283999025821686 0.0074479999020695686
   vertex 0.085740000009536743 0.03293599933385849 0.0065379999577999115
  endloop
 endfacet
 facet normal 0.36896962250300358 0.7191439717344339 0.58880673025027064
  outer loop
   vertex 0.087073996663093567 0.031702999025583267 0.0072079999372363091
   vertex 0.089234001934528351 0.031433999538421631 0.0061829998157918453
   vertex 0.085740000009536743 0.03293599933385849 0.0065379999577999115
  endloop
 endfacet
 facet normal 0.61005126970567625 0.73134244127406789 0.30491913997284409
  outer loop
   vertex 0.091122999787330627 0.030456999316811562 0.0047470000572502613
   vertex 0.091116003692150116 0.030722999945282936 0.0041229999624192715
   vertex 0.089234001934528351 0.031433999538421631 0.0061829998157918453
  endloop
 endfacet
 facet normal 0.40593508253798477 0.58539264888344289 0.70180635177953876
  outer loop
   vertex 0.089009001851081848 0.030981000512838364 0.0066909999586641788
   vertex 0.089234001934528351 0.031433999538421631 0.0061829998157918453
   vertex 0.087073996663093567 0.031702999025583267 0.0072079999372363091
  endloop
 endfacet
 facet normal -0.41225767428343013 -0.49777215185047263 -0.76306388647122281
  outer loop
   vertex 0.08855699747800827 0.021811999380588531 -0.0069079999811947346
   vertex 0.092169001698493958 0.020121999084949493 -0.0077570001594722271
   vertex 0.085644997656345367 0.021771000698208809 -0.0053079999051988125
  endloop
 endfacet
 facet normal -0.39557890940743756 -0.44064449032518027 -0.8058224119358337
  outer loop
   vertex 0.08855699747800827 0.021811999380588531 -0.0069079999811947346
   vertex 0.091301999986171722 0.021031999960541725 -0.0078290002420544624
   vertex 0.092169001698493958 0.020121999084949493 -0.0077570001594722271
  endloop
 endfacet
 facet normal -0.43589108218260997 -0.47574141979824575 -0.76398237280844539
  outer loop
   vertex 0.091301999986171722 0.021031999960541725 -0.0078290002420544624
   vertex 0.092315003275871277 0.020910000428557396 -0.0083309998735785484
   vertex 0.092169001698493958 0.020121999084949493 -0.0077570001594722271
  endloop
 endfacet
 facet normal -0.72544677502720878 -0.38460134816890024 -0.57079661841087215
  outer loop
   vertex 0.082727998495101929 0.022290999069809914 -0.0024170000106096268
   vertex 0.082290001213550568 0.026311000809073448 -0.0045690000988543034
   vertex 0.083994001150131226 0.022756999358534813 -0.0043399999849498272
  endloop
 endfacet
 facet normal -0.56868070533004655 -0.43551155600725361 -0.69780508737717117
  outer loop
   vertex 0.082727998495101929 0.022290999069809914 -0.0024170000106096268
   vertex 0.080104000866413116 0.023486999794840813 -0.0010250000050291419
   vertex 0.082290001213550568 0.026311000809073448 -0.0045690000988543034
  endloop
 endfacet
 facet normal -0.62287696248994262 -0.37765247264771418 -0.68512984134568988
  outer loop
   vertex 0.082290001213550568 0.026311000809073448 -0.0045690000988543034
   vertex 0.080104000866413116 0.023486999794840813 -0.0010250000050291419
   vertex 0.076995998620986938 0.027238000184297562 -0.00026699999580159783
  endloop
 endfacet
 facet normal -0.2829028350581656 -0.52993119430655555 -0.79946164086645211
  outer loop
   vertex 0.092169001698493958 0.020121999084949493 -0.0077570001594722271
   vertex 0.092315003275871277 0.020910000428557396 -0.0083309998735785484
   vertex 0.093116998672485352 0.021120000630617142 -0.0087540000677108765
  endloop
 endfacet
 facet normal -0.54596316555171598 -0.6692475642507093 -0.5040157930117295
  outer loop
   vertex 0.085887998342514038 0.015633000060915947 0.0025790000800043344
   vertex 0.085644997656345367 0.021771000698208809 -0.0053079999051988125
   vertex 0.087151996791362762 0.015607999637722969 0.001243000035174191
  endloop
 endfacet
 facet normal -0.52233916404898195 -0.68068444113964999 -0.51364432177433172
  outer loop
   vertex 0.085887998342514038 0.015633000060915947 0.0025790000800043344
   vertex 0.084701001644134521 0.015704000368714333 0.0036919999402016401
   vertex 0.085644997656345367 0.021771000698208809 -0.0053079999051988125
  endloop
 endfacet
 facet normal -0.41042988934221025 -0.58533487070796819 -0.69923557909178746
  outer loop
   vertex 0.090544000267982483 0.015703000128269196 -0.003103999886661768
   vertex 0.085644997656345367 0.021771000698208809 -0.0053079999051988125
   vertex 0.092169001698493958 0.020121999084949493 -0.0077570001594722271
  endloop
 endfacet
 facet normal -0.59174101079002472 -0.65061890649578713 -0.47595967755622548
  outer loop
   vertex 0.087151996791362762 0.015607999637722969 0.001243000035174191
   vertex 0.085644997656345367 0.021771000698208809 -0.0053079999051988125
   vertex 0.090544000267982483 0.015703000128269196 -0.003103999886661768
  endloop
 endfacet
 facet normal -0.64167237508536923 -0.53292431703527809 -0.55158701522496301
  outer loop
   vertex 0.082727998495101929 0.022290999069809914 -0.0024170000106096268
   vertex 0.083994001150131226 0.022756999358534813 -0.0043399999849498272
   vertex 0.085644997656345367 0.021771000698208809 -0.0053079999051988125
  endloop
 endfacet
 facet normal -0.46299672593610741 -0.71169379631439766 -0.52832373792973331
  outer loop
   vertex 0.084701001644134521 0.015704000368714333 0.0036919999402016401
   vertex 0.081843003630638123 0.016693999990820885 0.0048630000092089176
   vertex 0.085644997656345367 0.021771000698208809 -0.0053079999051988125
  endloop
 endfacet
 facet normal -0.62234747492458542 -0.58216124116403523 -0.52323217575120751
  outer loop
   vertex 0.081843003630638123 0.016693999990820885 0.0048630000092089176
   vertex 0.082727998495101929 0.022290999069809914 -0.0024170000106096268
   vertex 0.085644997656345367 0.021771000698208809 -0.0053079999051988125
  endloop
 endfacet
 facet normal -0.29592940544695523 -0.51961102754575039 -0.80151741530964937
  outer loop
   vertex 0.092169001698493958 0.020121999084949493 -0.0077570001594722271
   vertex 0.093116998672485352 0.021120000630617142 -0.0087540000677108765
   vertex 0.092958003282546997 0.020301999524235725 -0.0081650000065565109
  endloop
 endfacet
 facet normal -0.23040604671227027 -0.64386442114854325 -0.72962432855372517
  outer loop
   vertex 0.092565998435020447 0.01779399998486042 -0.0058280001394450665
   vertex 0.092169001698493958 0.020121999084949493 -0.0077570001594722271
   vertex 0.092958003282546997 0.020301999524235725 -0.0081650000065565109
  endloop
 endfacet
 facet normal 0.59220193496463824 -0.77709669294739325 -0.21311404935940578
  outer loop
   vertex 0.091669000685214996 0.01308399997651577 -0.0026519999373704195
   vertex 0.092402003705501556 0.01371499989181757 -0.00291600008495152
   vertex 0.092900998890399933 0.013948000036180019 -0.0023789999540895224
  endloop
 endfacet
 facet normal 0.5793905681194963 -0.68817768552624869 -0.43671276912623375
  outer loop
   vertex 0.09267599880695343 0.013505999930202961 -0.0019809999503195286
   vertex 0.091669000685214996 0.01308399997651577 -0.0026519999373704195
   vertex 0.092900998890399933 0.013948000036180019 -0.0023789999540895224
  endloop
 endfacet
 facet normal 0.70749491189221148 -0.63656670341763855 -0.30697521357046403
  outer loop
   vertex 0.09267599880695343 0.013505999930202961 -0.0019809999503195286
   vertex 0.092900998890399933 0.013948000036180019 -0.0023789999540895224
   vertex 0.093073002994060516 0.013722999952733517 -0.0015160000184550881
  endloop
 endfacet
 facet normal 0.65353858669575615 -0.72421275258881956 -0.22000728325998359
  outer loop
   vertex 0.09267599880695343 0.013505999930202961 -0.0019809999503195286
   vertex 0.093073002994060516 0.013722999952733517 -0.0015160000184550881
   vertex 0.09278000146150589 0.01335499994456768 -0.0011749999830499291
  endloop
 endfacet
 facet normal 0.70369145498185115 -0.69538462876016149 -0.1458031353216305
  outer loop
   vertex 0.093073002994060516 0.013722999952733517 -0.0015160000184550881
   vertex 0.093120001256465912 0.013546000234782696 -0.00044500001240521669
   vertex 0.09278000146150589 0.01335499994456768 -0.0011749999830499291
  endloop
 endfacet
 facet normal 0.28932706787373813 -0.76696732450444249 -0.57275734036159021
  outer loop
   vertex 0.091016001999378204 0.012586000375449657 -0.002314999932423234
   vertex 0.091182000935077667 0.013372999615967274 -0.0032850001007318497
   vertex 0.091669000685214996 0.01308399997651577 -0.0026519999373704195
  endloop
 endfacet
 facet normal -0.73529474689545071 -0.14999483920113665 -0.66094113459594905
  outer loop
   vertex 0.090544000267982483 0.015703000128269196 -0.003103999886661768
   vertex 0.092565998435020447 0.01779399998486042 -0.0058280001394450665
   vertex 0.091182000935077667 0.013372999615967274 -0.0032850001007318497
  endloop
 endfacet
 facet normal -0.54458474324101092 -0.60327382539061336 -0.58265611558422536
  outer loop
   vertex 0.091016001999378204 0.012586000375449657 -0.002314999932423234
   vertex 0.089833997189998627 0.013822999782860279 -0.0024910001084208488
   vertex 0.091182000935077667 0.013372999615967274 -0.0032850001007318497
  endloop
 endfacet
 facet normal 0.37948362400758379 -0.69590712012135525 -0.60967652019285801
  outer loop
   vertex 0.091669000685214996 0.01308399997651577 -0.0026519999373704195
   vertex 0.091182000935077667 0.013372999615967274 -0.0032850001007318497
   vertex 0.092402003705501556 0.01371499989181757 -0.00291600008495152
  endloop
 endfacet
 facet normal -0.52517359129085284 -0.077973690549181587 -0.84741536603533973
  outer loop
   vertex 0.090544000267982483 0.015703000128269196 -0.003103999886661768
   vertex 0.091182000935077667 0.013372999615967274 -0.0032850001007318497
   vertex 0.089833997189998627 0.013822999782860279 -0.0024910001084208488
  endloop
 endfacet
 facet normal -0.29596785117264635 -0.63887018347130242 -0.71010416119298325
  outer loop
   vertex 0.092565998435020447 0.01779399998486042 -0.0058280001394450665
   vertex 0.090544000267982483 0.015703000128269196 -0.003103999886661768
   vertex 0.092169001698493958 0.020121999084949493 -0.0077570001594722271
  endloop
 endfacet
 facet normal -0.57139516219932041 0.78629670630647419 -0.23504267328892123
  outer loop
   vertex 0.080551996827125549 0.031047999858856201 0.0038340000901371241
   vertex 0.076995998620986938 0.027238000184297562 -0.00026699999580159783
   vertex 0.076318003237247467 0.027135999873280525 0.0010400000028312206
  endloop
 endfacet
 facet normal -0.61934106071044293 -0.37363397893337685 -0.69051741491759377
  outer loop
   vertex 0.077986001968383789 0.024330999702215195 0.0004180000105407089
   vertex 0.076995998620986938 0.027238000184297562 -0.00026699999580159783
   vertex 0.080104000866413116 0.023486999794840813 -0.0010250000050291419
  endloop
 endfacet
 facet normal -0.91562515882765272 -0.35589039697134639 -0.18700960901893043
  outer loop
   vertex 0.077986001968383789 0.024330999702215195 0.0004180000105407089
   vertex 0.077761001884937286 0.024406999349594116 0.0013749999925494194
   vertex 0.076995998620986938 0.027238000184297562 -0.00026699999580159783
  endloop
 endfacet
 facet normal -0.77208778190493821 -0.46184242585380952 -0.43655701885845433
  outer loop
   vertex 0.077761001884937286 0.024406999349594116 0.0013749999925494194
   vertex 0.076318003237247467 0.027135999873280525 0.0010400000028312206
   vertex 0.076995998620986938 0.027238000184297562 -0.00026699999580159783
  endloop
 endfacet
 facet normal -0.56946917905307171 0.81765017448286625 -0.084575683720316347
  outer loop
   vertex 0.080551996827125549 0.031047999858856201 0.0038340000901371241
   vertex 0.077545002102851868 0.028881000354886055 0.003131000092253089
   vertex 0.080173000693321228 0.030834000557661057 0.0043170000426471233
  endloop
 endfacet
 facet normal -0.48174953405757837 0.79090464126712579 -0.37734233112311322
  outer loop
   vertex 0.076318003237247467 0.027135999873280525 0.0010400000028312206
   vertex 0.077545002102851868 0.028881000354886055 0.003131000092253089
   vertex 0.080551996827125549 0.031047999858856201 0.0038340000901371241
  endloop
 endfacet
 facet normal -0.26245246541626688 0.95146136484439692 -0.16074817139040931
  outer loop
   vertex 0.081444002687931061 0.031500000506639481 0.005053000058978796
   vertex 0.08412499725818634 0.032483998686075211 0.0065000001341104507
   vertex 0.080551996827125549 0.031047999858856201 0.0038340000901371241
  endloop
 endfacet
 facet normal -0.47280543898486144 0.88095498959436058 0.01932157279137308
  outer loop
   vertex 0.080551996827125549 0.031047999858856201 0.0038340000901371241
   vertex 0.080173000693321228 0.030834000557661057 0.0043170000426471233
   vertex 0.081444002687931061 0.031500000506639481 0.005053000058978796
  endloop
 endfacet
 facet normal -0.48485222480156998 0.79944709512776513 0.35468670992404844
  outer loop
   vertex 0.082500003278255463 0.031699001789093018 0.0060479999519884586
   vertex 0.08412499725818634 0.032483998686075211 0.0065000001341104507
   vertex 0.081444002687931061 0.031500000506639481 0.005053000058978796
  endloop
 endfacet
 facet normal -0.48086962888878082 0.66930693119672102 0.56638558585507248
  outer loop
   vertex 0.08412499725818634 0.032483998686075211 0.0065000001341104507
   vertex 0.082500003278255463 0.031699001789093018 0.0060479999519884586
   vertex 0.083855003118515015 0.032047998160123825 0.006785999983549118
  endloop
 endfacet
 facet normal -0.40952013008328192 0.66398674625156839 0.62563157198052843
  outer loop
   vertex 0.08412499725818634 0.032483998686075211 0.0065000001341104507
   vertex 0.083855003118515015 0.032047998160123825 0.006785999983549118
   vertex 0.085248999297618866 0.032283999025821686 0.0074479999020695686
  endloop
 endfacet
 facet normal 0.70267073810749547 -0.70742640799413736 0.076168964020655774
  outer loop
   vertex 0.093875996768474579 0.014294000342488289 0.0012619999470189214
   vertex 0.093952998518943787 0.01448300015181303 0.0023070001043379307
   vertex 0.093437999486923218 0.01375299971550703 0.00027799999224953353
  endloop
 endfacet
 facet normal 0.5023234313977909 -0.86427335433047137 0.026509229771996212
  outer loop
   vertex 0.092038996517658234 0.012981999665498734 0.0016509999986737967
   vertex 0.093120001256465912 0.013546000234782696 -0.00044500001240521669
   vertex 0.093437999486923218 0.01375299971550703 0.00027799999224953353
  endloop
 endfacet
 facet normal 0.58050120902803237 -0.80192717576006878 0.14117772874810075
  outer loop
   vertex 0.092038996517658234 0.012981999665498734 0.0016509999986737967
   vertex 0.093437999486923218 0.01375299971550703 0.00027799999224953353
   vertex 0.093952998518943787 0.01448300015181303 0.0023070001043379307
  endloop
 endfacet
 facet normal 0.38924186706396824 -0.91922994418912563 0.059220592960667971
  outer loop
   vertex 0.091486997902393341 0.012741000391542912 -0.0022070000413805246
   vertex 0.09278000146150589 0.01335499994456768 -0.0011749999830499291
   vertex 0.093120001256465912 0.013546000234782696 -0.00044500001240521669
  endloop
 endfacet
 facet normal 0.44951579884937937 -0.8932317638039724 -0.0085183752235137439
  outer loop
   vertex 0.092038996517658234 0.012981999665498734 0.0016509999986737967
   vertex 0.091486997902393341 0.012741000391542912 -0.0022070000413805246
   vertex 0.093120001256465912 0.013546000234782696 -0.00044500001240521669
  endloop
 endfacet
 facet normal 0.55597807767523622 -0.8029133438432654 0.2149849748772584
  outer loop
   vertex 0.093133002519607544 0.014096999540925026 0.0029859999194741249
   vertex 0.092038996517658234 0.012981999665498734 0.0016509999986737967
   vertex 0.093952998518943787 0.01448300015181303 0.0023070001043379307
  endloop
 endfacet
 facet normal -0.024132671246683529 -0.75747205517361627 0.65242141274605459
  outer loop
   vertex 0.092038996517658234 0.012981999665498734 0.0016509999986737967
   vertex 0.093133002519607544 0.014096999540925026 0.0029859999194741249
   vertex 0.090204998850822449 0.014042999595403671 0.0028150000143796206
  endloop
 endfacet
 facet normal -0.041450034554919774 -0.49707925256362773 0.86671455007181064
  outer loop
   vertex 0.093133002519607544 0.014096999540925026 0.0029859999194741249
   vertex 0.091606996953487396 0.014770000241696835 0.0032989999745041132
   vertex 0.090204998850822449 0.014042999595403671 0.0028150000143796206
  endloop
 endfacet
 facet normal 0.20910111790632505 0.019418912482840934 0.97770119583045878
  outer loop
   vertex 0.091964997351169586 0.015244999900460243 0.0032130000181496143
   vertex 0.091606996953487396 0.014770000241696835 0.0032989999745041132
   vertex 0.093133002519607544 0.014096999540925026 0.0029859999194741249
  endloop
 endfacet
 facet normal -0.3242978156191228 -0.75011409412295538 0.57633303964180593
  outer loop
   vertex 0.088694997131824493 0.014608999714255333 0.0027020000852644444
   vertex 0.088381998240947723 0.014426999725401402 0.00228899996727705
   vertex 0.090204998850822449 0.014042999595403671 0.0028150000143796206
  endloop
 endfacet
 facet normal -0.3329417340782837 -0.78348474223964581 0.52469177655707666
  outer loop
   vertex 0.089161999523639679 0.014879999682307243 0.0034030000679194927
   vertex 0.088694997131824493 0.014608999714255333 0.0027020000852644444
   vertex 0.090204998850822449 0.014042999595403671 0.0028150000143796206
  endloop
 endfacet
 facet normal -0.28952950064004612 -0.88917668987243292 0.35431269021392503
  outer loop
   vertex 0.092038996517658234 0.012981999665498734 0.0016509999986737967
   vertex 0.090204998850822449 0.014042999595403671 0.0028150000143796206
   vertex 0.088381998240947723 0.014426999725401402 0.00228899996727705
  endloop
 endfacet
 facet normal 0.088826706768284705 -0.49608252013956761 0.86371983268689423
  outer loop
   vertex 0.089617997407913208 0.015429999679327011 0.0036720000207424164
   vertex 0.089161999523639679 0.014879999682307243 0.0034030000679194927
   vertex 0.090204998850822449 0.014042999595403671 0.0028150000143796206
  endloop
 endfacet
 facet normal 0.10289955978507154 -0.50456969774430849 0.85721706744222925
  outer loop
   vertex 0.089617997407913208 0.015429999679327011 0.0036720000207424164
   vertex 0.088532999157905579 0.016188999637961388 0.0042489999905228615
   vertex 0.089161999523639679 0.014879999682307243 0.0034030000679194927
  endloop
 endfacet
 facet normal 0.35209159967612708 -0.38281302685842439 0.85409934545402688
  outer loop
   vertex 0.088532999157905579 0.016188999637961388 0.0042489999905228615
   vertex 0.084444999694824219 0.017457999289035797 0.0065029999241232872
   vertex 0.089161999523639679 0.014879999682307243 0.0034030000679194927
  endloop
 endfacet
 facet normal -0.17745190265608132 -0.87238467280356036 0.45547316595070853
  outer loop
   vertex 0.084444999694824219 0.017457999289035797 0.0065029999241232872
   vertex 0.088694997131824493 0.014608999714255333 0.0027020000852644444
   vertex 0.089161999523639679 0.014879999682307243 0.0034030000679194927
  endloop
 endfacet
 facet normal -0.081102114883304433 -0.84801697124575448 0.52372670682392419
  outer loop
   vertex 0.084444999694824219 0.017457999289035797 0.0065029999241232872
   vertex 0.081843003630638123 0.016693999990820885 0.0048630000092089176
   vertex 0.083801001310348511 0.016256000846624374 0.0044570001773536205
  endloop
 endfacet
 facet normal -0.061339313445348626 -0.84928998875181794 0.52435103092488555
  outer loop
   vertex 0.087315000593662262 0.015003999695181847 0.0028639999218285084
   vertex 0.084444999694824219 0.017457999289035797 0.0065029999241232872
   vertex 0.084701001644134521 0.015704000368714333 0.0036919999402016401
  endloop
 endfacet
 facet normal 0.0057860747568594297 -0.90993290555010997 0.41471511756390406
  outer loop
   vertex 0.081843003630638123 0.016693999990820885 0.0048630000092089176
   vertex 0.084444999694824219 0.017457999289035797 0.0065029999241232872
   vertex 0.081017002463340759 0.017361000180244446 0.0063379998318850994
  endloop
 endfacet
 facet normal -0.075621658539213793 -0.60663896501519887 0.79137256136731648
  outer loop
   vertex 0.083628997206687927 0.019026000052690506 0.0076270001009106636
   vertex 0.082410998642444611 0.019456999376416206 0.0078410003334283829
   vertex 0.084444999694824219 0.017457999289035797 0.0065029999241232872
  endloop
 endfacet
 facet normal -0.023260198325868474 -0.572321035437794 0.81969969840744261
  outer loop
   vertex 0.084444999694824219 0.017457999289035797 0.0065029999241232872
   vertex 0.082410998642444611 0.019456999376416206 0.0078410003334283829
   vertex 0.081017002463340759 0.017361000180244446 0.0063379998318850994
  endloop
 endfacet
 facet normal -0.27253801474769018 -0.88354460221609743 0.38088314009967134
  outer loop
   vertex 0.084444999694824219 0.017457999289035797 0.0065029999241232872
   vertex 0.087315000593662262 0.015003999695181847 0.0028639999218285084
   vertex 0.088381998240947723 0.014426999725401402 0.00228899996727705
  endloop
 endfacet
 facet normal -0.14186477941210923 -0.8616713079503544 0.48723396989278045
  outer loop
   vertex 0.088694997131824493 0.014608999714255333 0.0027020000852644444
   vertex 0.084444999694824219 0.017457999289035797 0.0065029999241232872
   vertex 0.088381998240947723 0.014426999725401402 0.00228899996727705
  endloop
 endfacet
 facet normal -0.076338479827766439 -0.84902013296299861 0.52281665076877382
  outer loop
   vertex 0.084701001644134521 0.015704000368714333 0.0036919999402016401
   vertex 0.084444999694824219 0.017457999289035797 0.0065029999241232872
   vertex 0.083801001310348511 0.016256000846624374 0.0044570001773536205
  endloop
 endfacet
 facet normal 0.25632979367021647 -0.47147395972676348 0.84380527503479774
  outer loop
   vertex 0.084444999694824219 0.017457999289035797 0.0065029999241232872
   vertex 0.087825998663902283 0.018038000911474228 0.0057999999262392521
   vertex 0.083628997206687927 0.019026000052690506 0.0076270001009106636
  endloop
 endfacet
 facet normal 0.41779227635469685 0.10622693794021199 0.90231117219848656
  outer loop
   vertex 0.087825998663902283 0.018038000911474228 0.0057999999262392521
   vertex 0.084046997129917145 0.027608999982476234 0.0064229997806251049
   vertex 0.083628997206687927 0.019026000052690506 0.0076270001009106636
  endloop
 endfacet
 facet normal -0.43459207635899311 0.23829356185286324 0.86853088922930932
  outer loop
   vertex 0.084046997129917145 0.027608999982476234 0.0064229997806251049
   vertex 0.077449999749660492 0.025454999879002571 0.0037130001001060009
   vertex 0.082410998642444611 0.019456999376416206 0.0078410003334283829
  endloop
 endfacet
 facet normal -0.21877262029086192 -0.088924557220103673 0.97171547468087527
  outer loop
   vertex 0.084046997129917145 0.027608999982476234 0.0064229997806251049
   vertex 0.085775002837181091 0.028439000248908997 0.0068879998289048672
   vertex 0.083855003118515015 0.032047998160123825 0.006785999983549118
  endloop
 endfacet
 facet normal -0.39317741425682662 0.021259402804257619 0.91921681811785949
  outer loop
   vertex 0.084046997129917145 0.027608999982476234 0.0064229997806251049
   vertex 0.079798996448516846 0.029252000153064728 0.0045679998584091663
   vertex 0.079659000039100647 0.027960000559687614 0.0045380000956356525
  endloop
 endfacet
 facet normal -0.39147550098640965 0.042484419957777367 0.91920727052623497
  outer loop
   vertex 0.077449999749660492 0.025454999879002571 0.0037130001001060009
   vertex 0.084046997129917145 0.027608999982476234 0.0064229997806251049
   vertex 0.079659000039100647 0.027960000559687614 0.0045380000956356525
  endloop
 endfacet
 facet normal -0.42816823081336164 -0.092034961420002961 0.8990002958834743
  outer loop
   vertex 0.084046997129917145 0.027608999982476234 0.0064229997806251049
   vertex 0.083855003118515015 0.032047998160123825 0.006785999983549118
   vertex 0.079798996448516846 0.029252000153064728 0.0045679998584091663
  endloop
 endfacet
 facet normal 0.21456831025211615 0.12542604847546426 0.96862208657421289
  outer loop
   vertex 0.082410998642444611 0.019456999376416206 0.0078410003334283829
   vertex 0.083628997206687927 0.019026000052690506 0.0076270001009106636
   vertex 0.084046997129917145 0.027608999982476234 0.0064229997806251049
  endloop
 endfacet
 facet normal -0.39580914801311484 -0.18515033924477126 0.89947455229521545
  outer loop
   vertex 0.085248999297618866 0.032283999025821686 0.0074479999020695686
   vertex 0.083855003118515015 0.032047998160123825 0.006785999983549118
   vertex 0.085775002837181091 0.028439000248908997 0.0068879998289048672
  endloop
 endfacet
 facet normal 0.087893346376956338 -0.1317809572457227 0.98737456872762386
  outer loop
   vertex 0.087073996663093567 0.031702999025583267 0.0072079999372363091
   vertex 0.085248999297618866 0.032283999025821686 0.0074479999020695686
   vertex 0.085775002837181091 0.028439000248908997 0.0068879998289048672
  endloop
 endfacet
 facet normal 0.19392791282690122 -0.17186926251785975 0.96584311418996449
  outer loop
   vertex 0.089009001851081848 0.030981000512838364 0.0066909999586641788
   vertex 0.087073996663093567 0.031702999025583267 0.0072079999372363091
   vertex 0.085775002837181091 0.028439000248908997 0.0068879998289048672
  endloop
 endfacet
 facet normal -0.52339648593654486 -0.7478062461261068 -0.40846289521088325
  outer loop
   vertex 0.078951999545097351 0.020922999829053879 0.004925999790430069
   vertex 0.077844999730587006 0.023212999105453491 0.0021520000882446766
   vertex 0.082727998495101929 0.022290999069809914 -0.0024170000106096268
  endloop
 endfacet
 facet normal -0.63116024843638463 -0.57595451269139886 -0.51953165457374639
  outer loop
   vertex 0.081843003630638123 0.016693999990820885 0.0048630000092089176
   vertex 0.079458996653556824 0.018059000372886658 0.006246000062674284
   vertex 0.082727998495101929 0.022290999069809914 -0.0024170000106096268
  endloop
 endfacet
 facet normal -0.72697533902981826 -0.46766627463800059 -0.50278734272920489
  outer loop
   vertex 0.079458996653556824 0.018059000372886658 0.006246000062674284
   vertex 0.079106003046035767 0.019213000312447548 0.0056830001994967461
   vertex 0.082727998495101929 0.022290999069809914 -0.0024170000106096268
  endloop
 endfacet
 facet normal -0.55803102929475157 -0.69293850073089835 -0.45654967369285782
  outer loop
   vertex 0.082727998495101929 0.022290999069809914 -0.0024170000106096268
   vertex 0.077844999730587006 0.023212999105453491 0.0021520000882446766
   vertex 0.080104000866413116 0.023486999794840813 -0.0010250000050291419
  endloop
 endfacet
 facet normal -0.8290728309386548 -0.28707736607223971 -0.47981749331218626
  outer loop
   vertex 0.082727998495101929 0.022290999069809914 -0.0024170000106096268
   vertex 0.079106003046035767 0.019213000312447548 0.0056830001994967461
   vertex 0.078951999545097351 0.020922999829053879 0.004925999790430069
  endloop
 endfacet
 facet normal -0.58473984731708328 -0.65931032525049893 -0.47264067321557862
  outer loop
   vertex 0.077844999730587006 0.023212999105453491 0.0021520000882446766
   vertex 0.077986001968383789 0.024330999702215195 0.0004180000105407089
   vertex 0.080104000866413116 0.023486999794840813 -0.0010250000050291419
  endloop
 endfacet
 facet normal -0.55911518320652676 -0.64827053996231054 -0.51685154437701586
  outer loop
   vertex 0.087151996791362762 0.015607999637722969 0.001243000035174191
   vertex 0.087177000939846039 0.01512799970805645 0.0018179999897256494
   vertex 0.085887998342514038 0.015633000060915947 0.0025790000800043344
  endloop
 endfacet
 facet normal -0.795197281582673 -0.48204498710020727 -0.3678232099461482
  outer loop
   vertex 0.087177000939846039 0.01512799970805645 0.0018179999897256494
   vertex 0.087151996791362762 0.015607999637722969 0.001243000035174191
   vertex 0.088552996516227722 0.01472300011664629 -0.00062599999364465475
  endloop
 endfacet
 facet normal -0.78796039716894284 0.048849761580907675 -0.61378507092210233
  outer loop
   vertex 0.090544000267982483 0.015703000128269196 -0.003103999886661768
   vertex 0.088552996516227722 0.01472300011664629 -0.00062599999364465475
   vertex 0.087151996791362762 0.015607999637722969 0.001243000035174191
  endloop
 endfacet
 facet normal -0.47877991143109783 -0.74590507501760317 -0.46302852555000734
  outer loop
   vertex 0.085887998342514038 0.015633000060915947 0.0025790000800043344
   vertex 0.085965998470783234 0.015262000262737274 0.0030960000585764647
   vertex 0.084701001644134521 0.015704000368714333 0.0036919999402016401
  endloop
 endfacet
 facet normal -0.53948723484512484 -0.72052519395208925 -0.43565693879412182
  outer loop
   vertex 0.085887998342514038 0.015633000060915947 0.0025790000800043344
   vertex 0.087177000939846039 0.01512799970805645 0.0018179999897256494
   vertex 0.085965998470783234 0.015262000262737274 0.0030960000585764647
  endloop
 endfacet
 facet normal -0.083489402992140679 -0.85212144874754447 0.51664161289273036
  outer loop
   vertex 0.083801001310348511 0.016256000846624374 0.0044570001773536205
   vertex 0.081843003630638123 0.016693999990820885 0.0048630000092089176
   vertex 0.084701001644134521 0.015704000368714333 0.0036919999402016401
  endloop
 endfacet
 facet normal -0.088356960019435951 -0.88060869904537853 0.46553342176661133
  outer loop
   vertex 0.087315000593662262 0.015003999695181847 0.0028639999218285084
   vertex 0.084701001644134521 0.015704000368714333 0.0036919999402016401
   vertex 0.085965998470783234 0.015262000262737274 0.0030960000585764647
  endloop
 endfacet
 facet normal -0.79516379390015746 0.10560038900708892 -0.59712904695037194
  outer loop
   vertex 0.089833997189998627 0.013822999782860279 -0.0024910001084208488
   vertex 0.088552996516227722 0.01472300011664629 -0.00062599999364465475
   vertex 0.090544000267982483 0.015703000128269196 -0.003103999886661768
  endloop
 endfacet
 facet normal -0.41114654782112203 -0.89473828991892068 0.17436143142260338
  outer loop
   vertex 0.081843003630638123 0.016693999990820885 0.0048630000092089176
   vertex 0.081017002463340759 0.017361000180244446 0.0063379998318850994
   vertex 0.079458996653556824 0.018059000372886658 0.006246000062674284
  endloop
 endfacet
 facet normal 0.55261451231008862 -0.7539832331684807 -0.35514290769363144
  outer loop
   vertex 0.091486997902393341 0.012741000391542912 -0.0022070000413805246
   vertex 0.091669000685214996 0.01308399997651577 -0.0026519999373704195
   vertex 0.09267599880695343 0.013505999930202961 -0.0019809999503195286
  endloop
 endfacet
 facet normal 0.37119702535609223 -0.80265586065971006 -0.46685794168612882
  outer loop
   vertex 0.091669000685214996 0.01308399997651577 -0.0026519999373704195
   vertex 0.091486997902393341 0.012741000391542912 -0.0022070000413805246
   vertex 0.091016001999378204 0.012586000375449657 -0.002314999932423234
  endloop
 endfacet
 facet normal 0.55706900820905758 -0.80029563610989984 -0.22181301791470165
  outer loop
   vertex 0.09267599880695343 0.013505999930202961 -0.0019809999503195286
   vertex 0.09278000146150589 0.01335499994456768 -0.0011749999830499291
   vertex 0.091486997902393341 0.012741000391542912 -0.0022070000413805246
  endloop
 endfacet
 facet normal -0.50399607518623069 -0.57347944618496549 -0.64583998095523665
  outer loop
   vertex 0.091016001999378204 0.012586000375449657 -0.002314999932423234
   vertex 0.090020999312400818 0.012555000372231007 -0.0015109999803826213
   vertex 0.089833997189998627 0.013822999782860279 -0.0024910001084208488
  endloop
 endfacet
 facet normal 0.30362804548645461 -0.9518662386153971 0.041960383437849948
  outer loop
   vertex 0.091486997902393341 0.012741000391542912 -0.0022070000413805246
   vertex 0.090621002018451691 0.012481999583542347 -0.0018159999744966626
   vertex 0.091016001999378204 0.012586000375449657 -0.002314999932423234
  endloop
 endfacet
 facet normal -0.3213125980174299 -0.84362851350164136 -0.43017339011414962
  outer loop
   vertex 0.091016001999378204 0.012586000375449657 -0.002314999932423234
   vertex 0.090621002018451691 0.012481999583542347 -0.0018159999744966626
   vertex 0.090020999312400818 0.012555000372231007 -0.0015109999803826213
  endloop
 endfacet
 facet normal -0.84563691140355801 -0.3228864963175952 -0.42502061663829732
  outer loop
   vertex 0.088552996516227722 0.01472300011664629 -0.00062599999364465475
   vertex 0.089833997189998627 0.013822999782860279 -0.0024910001084208488
   vertex 0.089203000068664551 0.013508999720215797 -0.0009970000246539712
  endloop
 endfacet
 facet normal -0.78734773424223559 -0.44549123495180576 -0.4261702769606685
  outer loop
   vertex 0.089203000068664551 0.013508999720215797 -0.0009970000246539712
   vertex 0.089833997189998627 0.013822999782860279 -0.0024910001084208488
   vertex 0.090020999312400818 0.012555000372231007 -0.0015109999803826213
  endloop
 endfacet
 facet normal -0.77885952520994761 -0.4636790949642503 -0.42235001702719116
  outer loop
   vertex 0.077761001884937286 0.024406999349594116 0.0013749999925494194
   vertex 0.077178001403808594 0.024305999279022217 0.0025609999429434538
   vertex 0.076318003237247467 0.027135999873280525 0.0010400000028312206
  endloop
 endfacet
 facet normal -0.91551434912060381 -0.36689123567972859 -0.16499787191257631
  outer loop
   vertex 0.077178001403808594 0.024305999279022217 0.0025609999429434538
   vertex 0.07687000185251236 0.024770999327301979 0.0032359999604523182
   vertex 0.076318003237247467 0.027135999873280525 0.0010400000028312206
  endloop
 endfacet
 facet normal -0.77933830210375166 0.32605062852773486 0.53509139267111239
  outer loop
   vertex 0.077449999749660492 0.025454999879002571 0.0037130001001060009
   vertex 0.077660001814365387 0.026660999283194542 0.0032840000931173563
   vertex 0.076318003237247467 0.027135999873280525 0.0010400000028312206
  endloop
 endfacet
 facet normal -0.79307788699150028 0.30465840932478744 0.52745684069200127
  outer loop
   vertex 0.07687000185251236 0.024770999327301979 0.0032359999604523182
   vertex 0.077449999749660492 0.025454999879002571 0.0037130001001060009
   vertex 0.076318003237247467 0.027135999873280525 0.0010400000028312206
  endloop
 endfacet
 facet normal -0.85901214084224398 -0.0086975085499546058 0.5118813292459965
  outer loop
   vertex 0.077587001025676727 0.027808999642729759 0.0031810000073164701
   vertex 0.076318003237247467 0.027135999873280525 0.0010400000028312206
   vertex 0.077660001814365387 0.026660999283194542 0.0032840000931173563
  endloop
 endfacet
 facet normal -0.85885629839139122 -0.0097620307147199444 0.512123580271171
  outer loop
   vertex 0.077587001025676727 0.027808999642729759 0.0031810000073164701
   vertex 0.077545002102851868 0.028881000354886055 0.003131000092253089
   vertex 0.076318003237247467 0.027135999873280525 0.0010400000028312206
  endloop
 endfacet
 facet normal -0.95662775645923703 -0.20316212695064426 -0.20877855671657658
  outer loop
   vertex 0.077986001968383789 0.024330999702215195 0.0004180000105407089
   vertex 0.077844999730587006 0.023212999105453491 0.0021520000882446766
   vertex 0.077761001884937286 0.024406999349594116 0.0013749999925494194
  endloop
 endfacet
 facet normal -0.69449902597087754 -0.60285304645255999 -0.39273312479133976
  outer loop
   vertex 0.077880002558231354 0.023237999528646469 0.0029589999467134476
   vertex 0.077178001403808594 0.024305999279022217 0.0025609999429434538
   vertex 0.077761001884937286 0.024406999349594116 0.0013749999925494194
  endloop
 endfacet
 facet normal -0.99815565816429563 -0.041215539062054982 0.044570858354153864
  outer loop
   vertex 0.077844999730587006 0.023212999105453491 0.0021520000882446766
   vertex 0.077880002558231354 0.023237999528646469 0.0029589999467134476
   vertex 0.077761001884937286 0.024406999349594116 0.0013749999925494194
  endloop
 endfacet
 facet normal -0.65571489827665619 0.66304587103413315 0.36112067938934495
  outer loop
   vertex 0.080173000693321228 0.030834000557661057 0.0043170000426471233
   vertex 0.077545002102851868 0.028881000354886055 0.003131000092253089
   vertex 0.079930000007152557 0.030445000156760216 0.0045900000259280205
  endloop
 endfacet
 facet normal -0.60122077555297471 0.67533881257216177 0.42714291200616034
  outer loop
   vertex 0.081444002687931061 0.031500000506639481 0.005053000058978796
   vertex 0.080173000693321228 0.030834000557661057 0.0043170000426471233
   vertex 0.079930000007152557 0.030445000156760216 0.0045900000259280205
  endloop
 endfacet
 facet normal -0.57982085650483961 0.015278083195685334 0.81460073320361059
  outer loop
   vertex 0.077545002102851868 0.028881000354886055 0.003131000092253089
   vertex 0.077587001025676727 0.027808999642729759 0.0031810000073164701
   vertex 0.078579001128673553 0.028506999835371971 0.0038739999290555716
  endloop
 endfacet
 facet normal -0.56053724308470154 0.086473698650704325 0.8236020268046147
  outer loop
   vertex 0.079930000007152557 0.030445000156760216 0.0045900000259280205
   vertex 0.077545002102851868 0.028881000354886055 0.003131000092253089
   vertex 0.078579001128673553 0.028506999835371971 0.0038739999290555716
  endloop
 endfacet
 facet normal -0.59240051526333148 0.62946720353938546 0.50282469030870536
  outer loop
   vertex 0.081444002687931061 0.031500000506639481 0.005053000058978796
   vertex 0.079930000007152557 0.030445000156760216 0.0045900000259280205
   vertex 0.082500003278255463 0.031699001789093018 0.0060479999519884586
  endloop
 endfacet
 facet normal -0.50769663694834177 0.039879671921559154 0.8606124195006557
  outer loop
   vertex 0.082500003278255463 0.031699001789093018 0.0060479999519884586
   vertex 0.079930000007152557 0.030445000156760216 0.0045900000259280205
   vertex 0.079798996448516846 0.029252000153064728 0.0045679998584091663
  endloop
 endfacet
 facet normal -0.47741540966755658 -0.0044642527693087306 0.87866637414844251
  outer loop
   vertex 0.082500003278255463 0.031699001789093018 0.0060479999519884586
   vertex 0.079798996448516846 0.029252000153064728 0.0045679998584091663
   vertex 0.083855003118515015 0.032047998160123825 0.006785999983549118
  endloop
 endfacet
 facet normal 0.14490469781429666 -0.98859486739379732 0.04102214906593403
  outer loop
   vertex 0.091486997902393341 0.012741000391542912 -0.0022070000413805246
   vertex 0.092038996517658234 0.012981999665498734 0.0016509999986737967
   vertex 0.090020999312400818 0.012555000372231007 -0.0015109999803826213
  endloop
 endfacet
 facet normal -0.30108094190282475 -0.90050413873570634 0.31375557770782608
  outer loop
   vertex 0.092038996517658234 0.012981999665498734 0.0016509999986737967
   vertex 0.088381998240947723 0.014426999725401402 0.00228899996727705
   vertex 0.090020999312400818 0.012555000372231007 -0.0015109999803826213
  endloop
 endfacet
 facet normal 0.43818185899863349 -0.120314768767177 0.89079796523173682
  outer loop
   vertex 0.091486997902393341 0.012741000391542912 -0.0022070000413805246
   vertex 0.090020999312400818 0.012555000372231007 -0.0015109999803826213
   vertex 0.090621002018451691 0.012481999583542347 -0.0018159999744966626
  endloop
 endfacet
 facet normal -0.064782754502863887 -0.92163382644260683 0.38261506070171952
  outer loop
   vertex 0.088023997843265533 0.014063999988138676 0.0013539999490603805
   vertex 0.088381998240947723 0.014426999725401402 0.00228899996727705
   vertex 0.088117003440856934 0.014275000430643559 0.0018779999809339643
  endloop
 endfacet
 facet normal -0.10006281689075265 -0.91400792927195662 0.39316273717619499
  outer loop
   vertex 0.089378997683525085 0.01295899972319603 -0.00086999998893588781
   vertex 0.088381998240947723 0.014426999725401402 0.00228899996727705
   vertex 0.088023997843265533 0.014063999988138676 0.0013539999490603805
  endloop
 endfacet
 facet normal -0.21948689183399045 -0.90938823271219571 0.35332498711192761
  outer loop
   vertex 0.090020999312400818 0.012555000372231007 -0.0015109999803826213
   vertex 0.088381998240947723 0.014426999725401402 0.00228899996727705
   vertex 0.089378997683525085 0.01295899972319603 -0.00086999998893588781
  endloop
 endfacet
 facet normal -0.21822596824725435 -0.8611266761446994 0.45917129093022607
  outer loop
   vertex 0.088381998240947723 0.014426999725401402 0.00228899996727705
   vertex 0.087315000593662262 0.015003999695181847 0.0028639999218285084
   vertex 0.088117003440856934 0.014275000430643559 0.0018779999809339643
  endloop
 endfacet
 facet normal -0.19031250951775031 -0.87102771224100883 0.45287070255123663
  outer loop
   vertex 0.087200000882148743 0.014790999703109264 0.0024059999268501997
   vertex 0.088023997843265533 0.014063999988138676 0.0013539999490603805
   vertex 0.087315000593662262 0.015003999695181847 0.0028639999218285084
  endloop
 endfacet
 facet normal -0.29464530398918043 -0.86717584420299409 0.40148499357752859
  outer loop
   vertex 0.087315000593662262 0.015003999695181847 0.0028639999218285084
   vertex 0.088023997843265533 0.014063999988138676 0.0013539999490603805
   vertex 0.088117003440856934 0.014275000430643559 0.0018779999809339643
  endloop
 endfacet
 facet normal -0.095278960583701042 -0.89325168277354905 0.43934422824513408
  outer loop
   vertex 0.087315000593662262 0.015003999695181847 0.0028639999218285084
   vertex 0.085965998470783234 0.015262000262737274 0.0030960000585764647
   vertex 0.087200000882148743 0.014790999703109264 0.0024059999268501997
  endloop
 endfacet
 facet normal -0.12798675347758676 -0.52032633248738103 0.8443221533600187
  outer loop
   vertex 0.082410998642444611 0.019456999376416206 0.0078410003334283829
   vertex 0.081146001815795898 0.017867999151349068 0.0066700000315904617
   vertex 0.081017002463340759 0.017361000180244446 0.0063379998318850994
  endloop
 endfacet
 facet normal -0.26455751091125324 -0.48029603980979968 0.83625656204508525
  outer loop
   vertex 0.081146001815795898 0.017867999151349068 0.0066700000315904617
   vertex 0.079458996653556824 0.018059000372886658 0.006246000062674284
   vertex 0.081017002463340759 0.017361000180244446 0.0063379998318850994
  endloop
 endfacet
 facet normal -0.30583448426470305 0.35503201632932124 0.88341243800145797
  outer loop
   vertex 0.077449999749660492 0.025454999879002571 0.0037130001001060009
   vertex 0.077303998172283173 0.024212000891566277 0.0041620000265538692
   vertex 0.082410998642444611 0.019456999376416206 0.0078410003334283829
  endloop
 endfacet
 facet normal -0.47084895284595807 -0.19954234054337261 0.85935098646265451
  outer loop
   vertex 0.079660996794700623 0.01869799941778183 0.0061579998582601547
   vertex 0.082410998642444611 0.019456999376416206 0.0078410003334283829
   vertex 0.079383999109268188 0.019665999338030815 0.0062310001812875271
  endloop
 endfacet
 facet normal -0.44631370436436429 -0.27277838058914111 0.85228870248274713
  outer loop
   vertex 0.082410998642444611 0.019456999376416206 0.0078410003334283829
   vertex 0.079660996794700623 0.01869799941778183 0.0061579998582601547
   vertex 0.081146001815795898 0.017867999151349068 0.0066700000315904617
  endloop
 endfacet
 facet normal -0.40267388109646729 0.2490180331956979 0.88081993882180842
  outer loop
   vertex 0.078340001404285431 0.021341999992728233 0.0054469997994601727
   vertex 0.082410998642444611 0.019456999376416206 0.0078410003334283829
   vertex 0.077303998172283173 0.024212000891566277 0.0041620000265538692
  endloop
 endfacet
 facet normal -0.4591176635134071 0.12541382531786457 0.87947844969000244
  outer loop
   vertex 0.079383999109268188 0.019665999338030815 0.0062310001812875271
   vertex 0.082410998642444611 0.019456999376416206 0.0078410003334283829
   vertex 0.078340001404285431 0.021341999992728233 0.0054469997994601727
  endloop
 endfacet
 facet normal -0.78794692224684482 0.28895933206481228 0.54372985216408909
  outer loop
   vertex 0.077303998172283173 0.024212000891566277 0.0041620000265538692
   vertex 0.077449999749660492 0.025454999879002571 0.0037130001001060009
   vertex 0.07687000185251236 0.024770999327301979 0.0032359999604523182
  endloop
 endfacet
 facet normal -0.65087060876225644 0.35251790323279336 0.67238276193683377
  outer loop
   vertex 0.077449999749660492 0.025454999879002571 0.0037130001001060009
   vertex 0.079659000039100647 0.027960000559687614 0.0045380000956356525
   vertex 0.077660001814365387 0.026660999283194542 0.0032840000931173563
  endloop
 endfacet
 facet normal -0.51036455556897453 0.035350220787936107 0.85923127405206068
  outer loop
   vertex 0.079798996448516846 0.029252000153064728 0.0045679998584091663
   vertex 0.078579001128673553 0.028506999835371971 0.0038739999290555716
   vertex 0.079659000039100647 0.027960000559687614 0.0045380000956356525
  endloop
 endfacet
 facet normal -0.52709554949653159 -0.0091850892705984261 0.84975638616961313
  outer loop
   vertex 0.078579001128673553 0.028506999835371971 0.0038739999290555716
   vertex 0.077660001814365387 0.026660999283194542 0.0032840000931173563
   vertex 0.079659000039100647 0.027960000559687614 0.0045380000956356525
  endloop
 endfacet
 facet normal -0.5126047728554517 0.040472891579309306 0.85767026991322259
  outer loop
   vertex 0.079798996448516846 0.029252000153064728 0.0045679998584091663
   vertex 0.079930000007152557 0.030445000156760216 0.0045900000259280205
   vertex 0.078579001128673553 0.028506999835371971 0.0038739999290555716
  endloop
 endfacet
 facet normal -0.92228758403187872 -0.38300815859576526 0.051868707230098288
  outer loop
   vertex 0.077880002558231354 0.023237999528646469 0.0029589999467134476
   vertex 0.077844999730587006 0.023212999105453491 0.0021520000882446766
   vertex 0.078951999545097351 0.020922999829053879 0.004925999790430069
  endloop
 endfacet
 facet normal -0.71330527254308151 -0.60766928829925271 -0.34918995435166794
  outer loop
   vertex 0.079383999109268188 0.019665999338030815 0.0062310001812875271
   vertex 0.078340001404285431 0.021341999992728233 0.0054469997994601727
   vertex 0.078951999545097351 0.020922999829053879 0.004925999790430069
  endloop
 endfacet
 facet normal -0.71056559429144017 -0.61677814488023686 -0.33864621097444175
  outer loop
   vertex 0.078340001404285431 0.021341999992728233 0.0054469997994601727
   vertex 0.077880002558231354 0.023237999528646469 0.0029589999467134476
   vertex 0.078951999545097351 0.020922999829053879 0.004925999790430069
  endloop
 endfacet
 facet normal -0.91628356478525463 0.090231885165105372 0.39023407821969769
  outer loop
   vertex 0.079106003046035767 0.019213000312447548 0.0056830001994967461
   vertex 0.079383999109268188 0.019665999338030815 0.0062310001812875271
   vertex 0.078951999545097351 0.020922999829053879 0.004925999790430069
  endloop
 endfacet
 facet normal -0.47298368613071423 0.26522851009442955 0.8402025173059714
  outer loop
   vertex 0.079106003046035767 0.019213000312447548 0.0056830001994967461
   vertex 0.079458996653556824 0.018059000372886658 0.006246000062674284
   vertex 0.079660996794700623 0.01869799941778183 0.0061579998582601547
  endloop
 endfacet
 facet normal -0.21742302665104524 0.20029237260711882 0.95530633461592296
  outer loop
   vertex 0.079660996794700623 0.01869799941778183 0.0061579998582601547
   vertex 0.079458996653556824 0.018059000372886658 0.006246000062674284
   vertex 0.081146001815795898 0.017867999151349068 0.0066700000315904617
  endloop
 endfacet
 facet normal -0.75614162583124001 -0.2616096579462277 0.59984183628232113
  outer loop
   vertex 0.079660996794700623 0.01869799941778183 0.0061579998582601547
   vertex 0.079383999109268188 0.019665999338030815 0.0062310001812875271
   vertex 0.079106003046035767 0.019213000312447548 0.0056830001994967461
  endloop
 endfacet
 facet normal -0.7357499107957195 -0.59960600791428253 -0.31487252029541768
  outer loop
   vertex 0.087200000882148743 0.014790999703109264 0.0024059999268501997
   vertex 0.087177000939846039 0.01512799970805645 0.0018179999897256494
   vertex 0.088552996516227722 0.01472300011664629 -0.00062599999364465475
  endloop
 endfacet
 facet normal -0.51639744964164336 -0.75153293756653305 -0.41052639105936173
  outer loop
   vertex 0.087177000939846039 0.01512799970805645 0.0018179999897256494
   vertex 0.087200000882148743 0.014790999703109264 0.0024059999268501997
   vertex 0.085965998470783234 0.015262000262737274 0.0030960000585764647
  endloop
 endfacet
 facet normal -0.83239829035305368 -0.41957271560604115 -0.36203842687798421
  outer loop
   vertex 0.087200000882148743 0.014790999703109264 0.0024059999268501997
   vertex 0.088552996516227722 0.01472300011664629 -0.00062599999364465475
   vertex 0.088023997843265533 0.014063999988138676 0.0013539999490603805
  endloop
 endfacet
 facet normal -0.86611095289738871 -0.35673503088298536 -0.35013131109926848
  outer loop
   vertex 0.088023997843265533 0.014063999988138676 0.0013539999490603805
   vertex 0.088552996516227722 0.01472300011664629 -0.00062599999364465475
   vertex 0.089203000068664551 0.013508999720215797 -0.0009970000246539712
  endloop
 endfacet
 facet normal -0.76268129024995424 -0.36702540055024707 -0.53255009609763082
  outer loop
   vertex 0.089378997683525085 0.01295899972319603 -0.00086999998893588781
   vertex 0.089203000068664551 0.013508999720215797 -0.0009970000246539712
   vertex 0.090020999312400818 0.012555000372231007 -0.0015109999803826213
  endloop
 endfacet
 facet normal -0.86582561347524389 -0.35781695087472837 -0.34973280760736447
  outer loop
   vertex 0.088023997843265533 0.014063999988138676 0.0013539999490603805
   vertex 0.089203000068664551 0.013508999720215797 -0.0009970000246539712
   vertex 0.089378997683525085 0.01295899972319603 -0.00086999998893588781
  endloop
 endfacet
 facet normal -0.84099672571038431 -0.53994012662581226 0.034484300829719504
  outer loop
   vertex 0.077880002558231354 0.023237999528646469 0.0029589999467134476
   vertex 0.077303998172283173 0.024212000891566277 0.0041620000265538692
   vertex 0.077178001403808594 0.024305999279022217 0.0025609999429434538
  endloop
 endfacet
 facet normal -0.81286038364016278 -0.5816948119747366 0.029818491411254765
  outer loop
   vertex 0.077178001403808594 0.024305999279022217 0.0025609999429434538
   vertex 0.077303998172283173 0.024212000891566277 0.0041620000265538692
   vertex 0.07687000185251236 0.024770999327301979 0.0032359999604523182
  endloop
 endfacet
 facet normal -0.58877405435464913 0.035013587625125443 0.80753895361177852
  outer loop
   vertex 0.078579001128673553 0.028506999835371971 0.0038739999290555716
   vertex 0.077587001025676727 0.027808999642729759 0.0031810000073164701
   vertex 0.077660001814365387 0.026660999283194542 0.0032840000931173563
  endloop
 endfacet
 facet normal -0.91399008492931955 -0.38595714905858058 -0.12513674017437057
  outer loop
   vertex 0.077303998172283173 0.024212000891566277 0.0041620000265538692
   vertex 0.077880002558231354 0.023237999528646469 0.0029589999467134476
   vertex 0.078340001404285431 0.021341999992728233 0.0054469997994601727
  endloop
 endfacet
endsolid
