solid Visualization Toolkit generated SLA File
 facet normal -0.27335143048809069 -0.93588242910742914 -0.22226802365183476
  outer loop
   vertex 0.0060000000521540642 -0.031254999339580536 0.0031810000073164701
   vertex 0.0060000000521540642 -0.028519999235868454 -0.0083349999040365219
   vertex 0.016459999606013298 -0.031254999339580536 -0.009682999923825264
  endloop
 endfacet
 facet normal -0.30187002205880936 -0.84595496970392858 0.439584666492633
  outer loop
   vertex 0.0060000000521540642 -0.028519999235868454 -0.0083349999040365219
   vertex 0.0060000000521540642 -0.038777001202106476 -0.028074000030755997
   vertex 0.023854000493884087 -0.040316998958587646 -0.018776999786496162
  endloop
 endfacet
 facet normal 0.49997386417045808 0.14171959860960273 -0.85436625080605411
  outer loop
   vertex 0.0060000000521540642 -0.038777001202106476 -0.028074000030755997
   vertex 0.024484999477863312 -0.052627000957727432 -0.019554000347852707
   vertex 0.0060000000521540642 -0.048693999648094177 -0.029719000682234764
  endloop
 endfacet
 facet normal 0.17512907735425959 -0.2910596093144675 -0.94053926557627321
  outer loop
   vertex 0.0060000000521540642 -0.048693999648094177 -0.029719000682234764
   vertex 0.024937000125646591 -0.068356998264789581 -0.020107999444007874
   vertex 0.0060000000521540642 -0.068185999989509583 -0.023686999455094337
  endloop
 endfacet
 facet normal -0.21332481952955634 -0.65430915582796434 -0.72551502394669876
  outer loop
   vertex 0.0060000000521540642 -0.068185999989509583 -0.023686999455094337
   vertex 0.022681999951601028 -0.080666996538639069 -0.017335999757051468
   vertex 0.0060000000521540642 -0.07912900298833847 -0.013818000443279743
  endloop
 endfacet
 facet normal -0.27883294395415703 -0.10591113416359205 -0.95448154567075816
  outer loop
   vertex 0.0060000000521540642 -0.07912900298833847 -0.013818000443279743
   vertex 0.019616000354290009 -0.11725600063800812 -0.013565000146627426
   vertex 0.0060000000521540642 -0.13349899649620056 -0.0077849999070167542
  endloop
 endfacet
 facet normal -0.31407555104901264 -0.017935896090308566 -0.94922855617848789
  outer loop
   vertex 0.0060000000521540642 -0.13349899649620056 -0.0077849999070167542
   vertex 0.017092000693082809 -0.18616099655628204 -0.010459999553859234
   vertex 0.0060000000521540642 -0.23505899310112 -0.0058659999631345272
  endloop
 endfacet
 facet normal -0.17716863262235466 0.011667511156632036 -0.98411134776413134
  outer loop
   vertex 0.0060000000521540642 -0.23505899310112 -0.0058659999631345272
   vertex 0.014836999587714672 -0.25455000996589661 -0.0076879998669028282
   vertex 0.0060000000521540642 -0.30447599291801453 -0.0066889999434351921
  endloop
 endfacet
 facet normal -0.0034904747884627928 -0.073083980867488546 0.99731968211116329
  outer loop
   vertex 0.0060000000521540642 -0.30447599291801453 -0.0066889999434351921
   vertex 0.0060000000521540642 -0.36808100342750549 -0.011350000277161598
   vertex 0.014926999807357788 -0.32003599405288696 -0.0077979997731745243
  endloop
 endfacet
 facet normal 0.16158687269995531 -0.3911521482196792 0.90602962397163289
  outer loop
   vertex 0.0060000000521540642 -0.36808100342750549 -0.011350000277161598
   vertex 0.0060000000521540642 -0.39030599594116211 -0.020944999530911446
   vertex 0.018624000251293182 -0.36517301201820374 -0.012346000410616398
  endloop
 endfacet
 facet normal -0.41016965652142801 -0.14768267201703686 0.89997260028014314
  outer loop
   vertex 0.0060000000521540642 -0.39030599594116211 -0.020944999530911446
   vertex 0.0060000000521540642 -0.40535199642181396 -0.023414000868797302
   vertex 0.020879000425338745 -0.39612099528312683 -0.015118000097572803
  endloop
 endfacet
 facet normal 0.396244556171989 -0.47724658725427749 -0.78436340216650136
  outer loop
   vertex 0.0060000000521540642 -0.40535199642181396 -0.023414000868797302
   vertex 0.020788000896573067 -0.40689098834991455 -0.015007000416517258
   vertex 0.0060000000521540642 -0.41526898741722107 -0.017379999160766602
  endloop
 endfacet
 facet normal -0.14899563800452972 -0.32126612415534428 0.93519429923723674
  outer loop
   vertex 0.0060000000521540642 -0.41526898741722107 -0.017379999160766602
   vertex 0.018262999132275581 -0.40501001477241516 -0.011901999823749065
   vertex 0.0060000000521540642 -0.40330201387405396 -0.013268999755382538
  endloop
 endfacet
 facet normal -0.59313535641829185 -0.68306560160096308 0.4261593984368528
  outer loop
   vertex 0.0060000000521540642 -0.40330201387405396 -0.013268999755382538
   vertex 0.013213999569416046 -0.40483900904655457 -0.0056920000351965427
   vertex 0.0060000000521540642 -0.40056499838829041 -0.0088820001110434532
  endloop
 endfacet
 facet normal -0.40992936800488233 -0.87755023186663761 -0.24872374996756608
  outer loop
   vertex 0.0060000000521540642 -0.40056499838829041 -0.0088820001110434532
   vertex 0.013213999569416046 -0.40483900904655457 -0.0056920000351965427
   vertex 0.0060000000521540642 -0.40398401021957397 0.0031810000073164701
  endloop
 endfacet
 facet normal -0.16214154302119677 -0.97792030082182924 -0.13184083308007596
  outer loop
   vertex 0.0060000000521540642 -0.031254999339580536 0.0031810000073164701
   vertex 0.016459999606013298 -0.031254999339580536 -0.009682999923825264
   vertex 0.027592999860644341 -0.033989999443292618 -0.0030879999976605177
  endloop
 endfacet
 facet normal -0.64227832247069383 -0.73662212450356102 0.21181690720075141
  outer loop
   vertex 0.016459999606013298 -0.031254999339580536 -0.009682999923825264
   vertex 0.023854000493884087 -0.040316998958587646 -0.018776999786496162
   vertex 0.030511999502778053 -0.041854999959468842 -0.0039369999431073666
  endloop
 endfacet
 facet normal 0.93008130889346097 0.070432080697556548 -0.36053859828822693
  outer loop
   vertex 0.023854000493884087 -0.040316998958587646 -0.018776999786496162
   vertex 0.030804000794887543 -0.056559000164270401 -0.0040210001170635223
   vertex 0.024484999477863312 -0.052627000957727432 -0.019554000347852707
  endloop
 endfacet
 facet normal 0.70804997905362943 0.045165382268909454 -0.70471647873925747
  outer loop
   vertex 0.024484999477863312 -0.052627000957727432 -0.019554000347852707
   vertex 0.038683000952005386 -0.068529002368450165 -0.0063080000691115856
   vertex 0.024937000125646591 -0.068356998264789581 -0.020107999444007874
  endloop
 endfacet
 facet normal 0.48676457792002981 -0.27581000895325353 -0.82884804677548785
  outer loop
   vertex 0.022681999951601028 -0.080666996538639069 -0.017335999757051468
   vertex 0.024937000125646591 -0.068356998264789581 -0.020107999444007874
   vertex 0.039000000804662704 -0.082204997539520264 -0.0072409999556839466
  endloop
 endfacet
 facet normal 0.70742146932292871 0.064415417099050895 -0.7038504946229307
  outer loop
   vertex 0.024937000125646591 -0.068356998264789581 -0.020107999444007874
   vertex 0.038683000952005386 -0.068529002368450165 -0.0063080000691115856
   vertex 0.039000000804662704 -0.082204997539520264 -0.0072409999556839466
  endloop
 endfacet
 facet normal 0.45593575925303326 -0.12896536444544482 -0.88061939463528371
  outer loop
   vertex 0.019616000354290009 -0.11725600063800812 -0.013565000146627426
   vertex 0.022681999951601028 -0.080666996538639069 -0.017335999757051468
   vertex 0.038389001041650772 -0.10101400315761566 -0.0062239998951554298
  endloop
 endfacet
 facet normal 0.5207640483078515 -0.062950521773898399 -0.85137655464454254
  outer loop
   vertex 0.022681999951601028 -0.080666996538639069 -0.017335999757051468
   vertex 0.039000000804662704 -0.082204997539520264 -0.0072409999556839466
   vertex 0.038389001041650772 -0.10101400315761566 -0.0062239998951554298
  endloop
 endfacet
 facet normal 0.5225591696804639 -0.057474066325347843 -0.85066365026542279
  outer loop
   vertex 0.019616000354290009 -0.11725600063800812 -0.013565000146627426
   vertex 0.032262001186609268 -0.13726100325584412 -0.0044450000859797001
   vertex 0.017092000693082809 -0.18616099655628204 -0.010459999553859234
  endloop
 endfacet
 facet normal 0.70757822837746376 -0.051895648696338371 -0.70472682109637075
  outer loop
   vertex 0.017092000693082809 -0.18616099655628204 -0.010459999553859234
   vertex 0.024091999977827072 -0.20462499558925629 -0.0020719999447464943
   vertex 0.014836999587714672 -0.25455000996589661 -0.0076879998669028282
  endloop
 endfacet
 facet normal 0.83782936401148145 0.0020684866757903491 -0.54592827199458038
  outer loop
   vertex 0.014836999587714672 -0.25455000996589661 -0.0076879998669028282
   vertex 0.019423000514507294 -0.27199000120162964 -0.00071599998045712709
   vertex 0.014926999807357788 -0.32003599405288696 -0.0077979997731745243
  endloop
 endfacet
 facet normal -0.87489580494684305 -0.11896342696935167 0.4694731446314297
  outer loop
   vertex 0.014926999807357788 -0.32003599405288696 -0.0077979997731745243
   vertex 0.018624000251293182 -0.36517301201820374 -0.012346000410616398
   vertex 0.021174000576138496 -0.34003901481628418 -0.0012250000145286322
  endloop
 endfacet
 facet normal -0.89620127331635835 -0.1039325454724972 0.4313018707329534
  outer loop
   vertex 0.018624000251293182 -0.36517301201820374 -0.012346000410616398
   vertex 0.020879000425338745 -0.39612099528312683 -0.015118000097572803
   vertex 0.025841999799013138 -0.38688600063323975 -0.0025800000876188278
  endloop
 endfacet
 facet normal 0.69467599541326819 -0.01328191896849403 -0.71920014740341887
  outer loop
   vertex 0.020879000425338745 -0.39612099528312683 -0.015118000097572803
   vertex 0.031970001757144928 -0.39851400256156921 -0.0043609999120235443
   vertex 0.020788000896573067 -0.40689098834991455 -0.015007000416517258
  endloop
 endfacet
 facet normal -0.3677913966973162 -0.89720895907833331 0.24442907409923861
  outer loop
   vertex 0.020788000896573067 -0.40689098834991455 -0.015007000416517258
   vertex 0.028176000341773033 -0.40671899914741516 -0.003258999902755022
   vertex 0.018262999132275581 -0.40501001477241516 -0.011901999823749065
  endloop
 endfacet
 facet normal -0.45384137675963193 -0.82100284121591227 -0.34638466977671134
  outer loop
   vertex 0.018262999132275581 -0.40501001477241516 -0.011901999823749065
   vertex 0.016504999250173569 -0.40911498665809631 0.00013099999341648072
   vertex 0.013213999569416046 -0.40483900904655457 -0.0056920000351965427
  endloop
 endfacet
 facet normal -0.48915866808189229 -0.81156964657034703 -0.31949727104629705
  outer loop
   vertex 0.013213999569416046 -0.40483900904655457 -0.0056920000351965427
   vertex 0.016504999250173569 -0.40911498665809631 0.00013099999341648072
   vertex 0.0060000000521540642 -0.40398401021957397 0.0031810000073164701
  endloop
 endfacet
 facet normal -0.12565746593916605 -0.99207368741124624 0
  outer loop
   vertex 0.0060000000521540642 -0.031254999339580536 0.0031810000073164701
   vertex 0.027592999860644341 -0.033989999443292618 -0.0030879999976605177
   vertex 0.027592999860644341 -0.033989999443292618 0.0094489995390176773
  endloop
 endfacet
 facet normal 0.93751419308214812 0.34794703299428881 0
  outer loop
   vertex 0.027592999860644341 -0.033989999443292618 -0.0030879999976605177
   vertex 0.030511999502778053 -0.041854999959468842 0.01029799971729517
   vertex 0.030511999502778053 -0.041854999959468842 -0.0039369999431073666
  endloop
 endfacet
 facet normal 0.99980287571965676 0.019854714873411759 0
  outer loop
   vertex 0.030511999502778053 -0.041854999959468842 -0.0039369999431073666
   vertex 0.030804000794887543 -0.056559000164270401 0.010382000356912613
   vertex 0.030804000794887543 -0.056559000164270401 -0.0040210001170635223
  endloop
 endfacet
 facet normal 0.83528893710633301 0.54981123264969101 0
  outer loop
   vertex 0.030804000794887543 -0.056559000164270401 -0.0040210001170635223
   vertex 0.038683000952005386 -0.068529002368450165 0.012668999843299389
   vertex 0.038683000952005386 -0.068529002368450165 -0.0063080000691115856
  endloop
 endfacet
 facet normal 0.99973146846930239 0.023173065231263581 0
  outer loop
   vertex 0.039000000804662704 -0.082204997539520264 -0.0072409999556839466
   vertex 0.038683000952005386 -0.068529002368450165 -0.0063080000691115856
   vertex 0.039000000804662704 -0.082204997539520264 0.013602999970316887
  endloop
 endfacet
 facet normal 0.99973146846930228 0.023173065231263577 0
  outer loop
   vertex 0.038683000952005386 -0.068529002368450165 -0.0063080000691115856
   vertex 0.038683000952005386 -0.068529002368450165 0.012668999843299389
   vertex 0.039000000804662704 -0.082204997539520264 0.013602999970316887
  endloop
 endfacet
 facet normal 0.99947279821904522 -0.032467300783896882 0
  outer loop
   vertex 0.038389001041650772 -0.10101400315761566 -0.0062239998951554298
   vertex 0.039000000804662704 -0.082204997539520264 -0.0072409999556839466
   vertex 0.038389001041650772 -0.10101400315761566 0.01258500013500452
  endloop
 endfacet
 facet normal 0.999472798219045 -0.032467300783896869 0
  outer loop
   vertex 0.039000000804662704 -0.082204997539520264 -0.0072409999556839466
   vertex 0.039000000804662704 -0.082204997539520264 0.013602999970316887
   vertex 0.038389001041650772 -0.10101400315761566 0.01258500013500452
  endloop
 endfacet
 facet normal 0.98601267765593359 -0.16667033179836183 0
  outer loop
   vertex 0.038389001041650772 -0.10101400315761566 -0.0062239998951554298
   vertex 0.032262001186609268 -0.13726100325584412 0.010805999860167503
   vertex 0.032262001186609268 -0.13726100325584412 -0.0044450000859797001
  endloop
 endfacet
 facet normal 0.99272556072236628 -0.12039917395257939 0
  outer loop
   vertex 0.032262001186609268 -0.13726100325584412 -0.0044450000859797001
   vertex 0.024091999977827072 -0.20462499558925629 0.0084330001845955849
   vertex 0.024091999977827072 -0.20462499558925629 -0.0020719999447464943
  endloop
 endfacet
 facet normal 0.99760675197128257 -0.069143101039133195 0
  outer loop
   vertex 0.024091999977827072 -0.20462499558925629 -0.0020719999447464943
   vertex 0.019423000514507294 -0.27199000120162964 0.0070779998786747456
   vertex 0.019423000514507294 -0.27199000120162964 -0.00071599998045712709
  endloop
 endfacet
 facet normal 0.99966911044259188 0.025722939702080123 0
  outer loop
   vertex 0.019423000514507294 -0.27199000120162964 -0.00071599998045712709
   vertex 0.021174000576138496 -0.34003901481628418 0.0075860000215470791
   vertex 0.021174000576138496 -0.34003901481628418 -0.0012250000145286322
  endloop
 endfacet
 facet normal -0.99507224797998794 -0.099152515349098927 0
  outer loop
   vertex 0.021174000576138496 -0.34003901481628418 -0.0012250000145286322
   vertex 0.025841999799013138 -0.38688600063323975 -0.0025800000876188278
   vertex 0.025841999799013138 -0.38688600063323975 0.0089419996365904808
  endloop
 endfacet
 facet normal -0.88466721246139512 -0.46622304018118288 0
  outer loop
   vertex 0.025841999799013138 -0.38688600063323975 -0.0025800000876188278
   vertex 0.031970001757144928 -0.39851400256156921 -0.0043609999120235443
   vertex 0.031970001757144928 -0.39851400256156921 0.010722000151872635
  endloop
 endfacet
 facet normal 0.90766115642697864 -0.41970373492934254 0
  outer loop
   vertex 0.031970001757144928 -0.39851400256156921 -0.0043609999120235443
   vertex 0.028176000341773033 -0.40671899914741516 0.0096199996769428253
   vertex 0.028176000341773033 -0.40671899914741516 -0.003258999902755022
  endloop
 endfacet
 facet normal 0.20110007273972405 -0.97957070226915099 0
  outer loop
   vertex 0.028176000341773033 -0.40671899914741516 -0.003258999902755022
   vertex 0.016504999250173569 -0.40911498665809631 0.0062299999408423901
   vertex 0.016504999250173569 -0.40911498665809631 0.00013099999341648072
  endloop
 endfacet
 facet normal -0.43887866911701523 -0.89854633369352599 -0
  outer loop
   vertex 0.016504999250173569 -0.40911498665809631 0.00013099999341648072
   vertex 0.016504999250173569 -0.40911498665809631 0.0062299999408423901
   vertex 0.0060000000521540642 -0.40398401021957397 0.0031810000073164701
  endloop
 endfacet
 facet normal -0.058612128804705003 -0.97312356826785762 -0.22269966151436532
  outer loop
   vertex 0.0060000000521540642 -0.031254999339580536 0.0031810000073164701
   vertex 0.027592999860644341 -0.033989999443292618 0.0094489995390176773
   vertex 0.016008999198675156 -0.034674998372793198 0.01549100037664175
  endloop
 endfacet
 facet normal 0.67849165467631223 0.32303402824139632 0.6597712415168886
  outer loop
   vertex 0.027592999860644341 -0.033989999443292618 0.0094489995390176773
   vertex 0.019164999946951866 -0.036554999649524689 0.019371999427676201
   vertex 0.030511999502778053 -0.041854999959468842 0.01029799971729517
  endloop
 endfacet
 facet normal 0.9335995555007276 0.020583618034418043 0.35772641031584068
  outer loop
   vertex 0.030511999502778053 -0.041854999959468842 0.01029799971729517
   vertex 0.024576000869274139 -0.045958999544382095 0.026025999337434769
   vertex 0.030804000794887543 -0.056559000164270401 0.010382000356912613
  endloop
 endfacet
 facet normal 0.7677562580208499 0.56359658081592845 0.30481014150191399
  outer loop
   vertex 0.030804000794887543 -0.056559000164270401 0.010382000356912613
   vertex 0.027371000498533249 -0.062201999127864838 0.029463000595569611
   vertex 0.038683000952005386 -0.068529002368450165 0.012668999843299389
  endloop
 endfacet
 facet normal 0.87327964081148202 0.053316742640316314 0.48429329326183645
  outer loop
   vertex 0.039000000804662704 -0.082204997539520264 0.013602999970316887
   vertex 0.038683000952005386 -0.068529002368450165 0.012668999843299389
   vertex 0.028633000329136848 -0.070579998195171356 0.03101699985563755
  endloop
 endfacet
 facet normal 0.84553580699438435 0.21778615654910294 0.48748168079008314
  outer loop
   vertex 0.038683000952005386 -0.068529002368450165 0.012668999843299389
   vertex 0.027371000498533249 -0.062201999127864838 0.029463000595569611
   vertex 0.028633000329136848 -0.070579998195171356 0.03101699985563755
  endloop
 endfacet
 facet normal 0.6387922509725289 -0.062255369611558448 0.76685639402170835
  outer loop
   vertex 0.038389001041650772 -0.10101400315761566 0.01258500013500452
   vertex 0.039000000804662704 -0.082204997539520264 0.013602999970316887
   vertex 0.024304000660777092 -0.084086999297142029 0.02569199912250042
  endloop
 endfacet
 facet normal 0.60039310008931368 -0.45240336652545404 0.65943863954243631
  outer loop
   vertex 0.039000000804662704 -0.082204997539520264 0.013602999970316887
   vertex 0.028633000329136848 -0.070579998195171356 0.03101699985563755
   vertex 0.024304000660777092 -0.084086999297142029 0.02569199912250042
  endloop
 endfacet
 facet normal 0.42394767442410364 -0.11574838666286362 0.89825980670145666
  outer loop
   vertex 0.038389001041650772 -0.10101400315761566 0.01258500013500452
   vertex 0.019796999171376228 -0.11041799932718277 0.020147999748587608
   vertex 0.032262001186609268 -0.13726100325584412 0.010805999860167503
  endloop
 endfacet
 facet normal 0.3788607400380718 -0.078432005667326721 0.92212415657806346
  outer loop
   vertex 0.032262001186609268 -0.13726100325584412 0.010805999860167503
   vertex 0.015557999722659588 -0.16940400004386902 0.014934999868273735
   vertex 0.024091999977827072 -0.20462499558925629 0.0084330001845955849
  endloop
 endfacet
 facet normal 0.60227401341041142 -0.057757948698340271 0.79619723192979985
  outer loop
   vertex 0.024091999977827072 -0.20462499558925629 0.0084330001845955849
   vertex 0.013753999955952168 -0.25335600972175598 0.012718000449240208
   vertex 0.019423000514507294 -0.27199000120162964 0.0070779998786747456
  endloop
 endfacet
 facet normal 0.71622477157393716 0.023636259076763744 0.69746928523105434
  outer loop
   vertex 0.019423000514507294 -0.27199000120162964 0.0070779998786747456
   vertex 0.014565999619662762 -0.32071998715400696 0.013717000372707844
   vertex 0.021174000576138496 -0.34003901481628418 0.0075860000215470791
  endloop
 endfacet
 facet normal -0.77775138448847836 -0.095480964431209667 -0.62127785197731056
  outer loop
   vertex 0.021174000576138496 -0.34003901481628418 0.0075860000215470791
   vertex 0.025841999799013138 -0.38688600063323975 0.0089419996365904808
   vertex 0.017812000587582588 -0.37850901484489441 0.017706999555230141
  endloop
 endfacet
 facet normal -0.77782417058736797 -0.47322630344355654 -0.41357759293658547
  outer loop
   vertex 0.025841999799013138 -0.38688600063323975 0.0089419996365904808
   vertex 0.031970001757144928 -0.39851400256156921 0.010722000151872635
   vertex 0.022050999104976654 -0.39287099242210388 0.022919999435544014
  endloop
 endfacet
 facet normal 0.64574803748348086 -0.38699808865194663 0.65821117543382146
  outer loop
   vertex 0.031970001757144928 -0.39851400256156921 0.010722000151872635
   vertex 0.019616000354290009 -0.40347200632095337 0.019927000626921654
   vertex 0.028176000341773033 -0.40671899914741516 0.0096199996769428253
  endloop
 endfacet
 facet normal 0.17724028749046286 -0.98066825496231202 0.082919564636289592
  outer loop
   vertex 0.028176000341773033 -0.40671899914741516 0.0096199996769428253
   vertex 0.01357400044798851 -0.40911498665809631 0.012494999915361404
   vertex 0.016504999250173569 -0.40911498665809631 0.0062299999408423901
  endloop
 endfacet
 facet normal -0.38847825041442974 -0.90335684297292951 -0.1817444998037781
  outer loop
   vertex 0.016504999250173569 -0.40911498665809631 0.0062299999408423901
   vertex 0.01357400044798851 -0.40911498665809631 0.012494999915361404
   vertex 0.0060000000521540642 -0.40398401021957397 0.0031810000073164701
  endloop
 endfacet
 facet normal 0.14306808119192749 -0.91745836329948771 -0.37121648098634447
  outer loop
   vertex 0.0060000000521540642 -0.031254999339580536 0.0031810000073164701
   vertex 0.016008999198675156 -0.034674998372793198 0.01549100037664175
   vertex 0.0060000000521540642 -0.03535899892449379 0.01332399994134903
  endloop
 endfacet
 facet normal -0.37714013587347939 -0.91596496011230777 -0.13701645798878254
  outer loop
   vertex 0.016008999198675156 -0.034674998372793198 0.01549100037664175
   vertex 0.019164999946951866 -0.036554999649524689 0.019371999427676201
   vertex 0.0060000000521540642 -0.031254999339580536 0.020177999511361122
  endloop
 endfacet
 facet normal -0.61593571425469906 -0.65940616312370925 -0.43105302219103164
  outer loop
   vertex 0.019164999946951866 -0.036554999649524689 0.019371999427676201
   vertex 0.024576000869274139 -0.045958999544382095 0.026025999337434769
   vertex 0.0060000000521540642 -0.03535899892449379 0.036354001611471176
  endloop
 endfacet
 facet normal 0.40390317924241442 0.25537680247185074 0.87843321348701475
  outer loop
   vertex 0.024576000869274139 -0.045958999544382095 0.026025999337434769
   vertex 0.0060000000521540642 -0.055874999612569809 0.037450000643730164
   vertex 0.027371000498533249 -0.062201999127864838 0.029463000595569611
  endloop
 endfacet
 facet normal 0.4003986062074763 0.22507437731015317 0.88826937402206829
  outer loop
   vertex 0.027371000498533249 -0.062201999127864838 0.029463000595569611
   vertex 0.0060000000521540642 -0.058952998369932175 0.038272999227046967
   vertex 0.028633000329136848 -0.070579998195171356 0.03101699985563755
  endloop
 endfacet
 facet normal -0.15613302263508322 -0.31855668902180867 0.9349567450541737
  outer loop
   vertex 0.028633000329136848 -0.070579998195171356 0.03101699985563755
   vertex 0.0060000000521540642 -0.067158997058868408 0.02840300090610981
   vertex 0.024304000660777092 -0.084086999297142029 0.02569199912250042
  endloop
 endfacet
 facet normal -0.27594032764540954 -0.15257763960012841 0.94898735474873286
  outer loop
   vertex 0.024304000660777092 -0.084086999297142029 0.02569199912250042
   vertex 0.0060000000521540642 -0.08357500284910202 0.020452000200748444
   vertex 0.019796999171376228 -0.11041799932718277 0.020147999748587608
  endloop
 endfacet
 facet normal -0.22545154260766515 -0.069679124919916499 0.97175944630665601
  outer loop
   vertex 0.019796999171376228 -0.11041799932718277 0.020147999748587608
   vertex 0.0060000000521540642 -0.13418300449848175 0.015243000350892544
   vertex 0.015557999722659588 -0.16940400004386902 0.014934999868273735
  endloop
 endfacet
 facet normal 0.11408473432615759 -0.02867609486118923 0.99305707538753385
  outer loop
   vertex 0.015557999722659588 -0.16940400004386902 0.014934999868273735
   vertex 0.0060000000521540642 -0.23471799492835999 0.014147000387310982
   vertex 0.013753999955952168 -0.25335600972175598 0.012718000449240208
  endloop
 endfacet
 facet normal 0.1816483769906905 0.016770619843927137 0.98322053144078447
  outer loop
   vertex 0.013753999955952168 -0.25335600972175598 0.012718000449240208
   vertex 0.0060000000521540642 -0.30139899253845215 0.014969999901950359
   vertex 0.014565999619662762 -0.32071998715400696 0.013717000372707844
  endloop
 endfacet
 facet normal -0.28027003491775226 -0.081778796361642536 -0.95643135456385109
  outer loop
   vertex 0.014565999619662762 -0.32071998715400696 0.013717000372707844
   vertex 0.017812000587582588 -0.37850901484489441 0.017706999555230141
   vertex 0.0060000000521540642 -0.3701309859752655 0.020452000200748444
  endloop
 endfacet
 facet normal -0.38484622006303115 -0.41316497542703007 -0.82534119610230194
  outer loop
   vertex 0.017812000587582588 -0.37850901484489441 0.017706999555230141
   vertex 0.022050999104976654 -0.39287099242210388 0.022919999435544014
   vertex 0.0060000000521540642 -0.38722899556159973 0.027580000460147858
  endloop
 endfacet
 facet normal 0.18824361976908002 -0.30665914178125137 0.93301903001933484
  outer loop
   vertex 0.022050999104976654 -0.39287099242210388 0.022919999435544014
   vertex 0.0060000000521540642 -0.40022298693656921 0.023741999641060829
   vertex 0.019616000354290009 -0.40347200632095337 0.019927000626921654
  endloop
 endfacet
 facet normal 0.23363615787128833 -0.85644501665348094 0.46034343612629147
  outer loop
   vertex 0.019616000354290009 -0.40347200632095337 0.019927000626921654
   vertex 0.0060000000521540642 -0.40911498665809631 0.016339000314474106
   vertex 0.01357400044798851 -0.40911498665809631 0.012494999915361404
  endloop
 endfacet
 facet normal -0.18133029274478707 -0.91622499198020035 -0.35728292571010395
  outer loop
   vertex 0.01357400044798851 -0.40911498665809631 0.012494999915361404
   vertex 0.0060000000521540642 -0.40911498665809631 0.016339000314474106
   vertex 0.0060000000521540642 -0.40398401021957397 0.0031810000073164701
  endloop
 endfacet
 facet normal -0.23215665771150379 -0.90166753037283975 -0.36482728920897328
  outer loop
   vertex 0.0060000000521540642 -0.031254999339580536 0.0031810000073164701
   vertex 0.0060000000521540642 -0.03535899892449379 0.01332399994134903
   vertex -0.0075249997898936272 -0.034503001719713211 0.019814999774098396
  endloop
 endfacet
 facet normal 0.57586536281247558 -0.70141763518651212 0.41999093438098994
  outer loop
   vertex 0.0060000000521540642 -0.03535899892449379 0.01332399994134903
   vertex 0.0060000000521540642 -0.031254999339580536 0.020177999511361122
   vertex -0.011132000014185905 -0.04288100078701973 0.024251999333500862
  endloop
 endfacet
 facet normal 0.53292829584581425 -0.82017537890771397 -0.20808599020708757
  outer loop
   vertex 0.0060000000521540642 -0.031254999339580536 0.020177999511361122
   vertex 0.0060000000521540642 -0.03535899892449379 0.036354001611471176
   vertex -0.015371000394225121 -0.04749700054526329 0.029463000595569611
  endloop
 endfacet
 facet normal -0.47396262015054647 0.046973203042659846 0.87929116502779769
  outer loop
   vertex 0.0060000000521540642 -0.03535899892449379 0.036354001611471176
   vertex -0.013477000407874584 -0.059294000267982483 0.027133999392390251
   vertex 0.0060000000521540642 -0.055874999612569809 0.037450000643730164
  endloop
 endfacet
 facet normal -0.68032720121276413 0.18931534762951588 0.70803573246123852
  outer loop
   vertex 0.0060000000521540642 -0.055874999612569809 0.037450000643730164
   vertex -0.011312000453472137 -0.069554001092910767 0.024473000317811966
   vertex 0.0060000000521540642 -0.058952998369932175 0.038272999227046967
  endloop
 endfacet
 facet normal 0.8376549809647581 -0.41999960165756717 0.34919116179023724
  outer loop
   vertex 0.0060000000521540642 -0.058952998369932175 0.038272999227046967
   vertex -0.0072559998370707035 -0.10101400315761566 0.019481999799609184
   vertex 0.0060000000521540642 -0.067158997058868408 0.02840300090610981
  endloop
 endfacet
 facet normal 0.81587851513229148 -0.25205112098825955 0.52039646516294558
  outer loop
   vertex 0.0060000000521540642 -0.067158997058868408 0.02840300090610981
   vertex -0.0046410001814365387 -0.12666000425815582 0.016266999766230583
   vertex 0.0060000000521540642 -0.08357500284910202 0.020452000200748444
  endloop
 endfacet
 facet normal 0.47708989536834501 -0.089983674752909748 0.87423576340446296
  outer loop
   vertex 0.0060000000521540642 -0.08357500284910202 0.020452000200748444
   vertex -0.0013940000208094716 -0.20223100483417511 0.012273999862372875
   vertex 0.0060000000521540642 -0.13418300449848175 0.015243000350892544
  endloop
 endfacet
 facet normal 0.040636404567267435 -0.010892024705086359 0.99911463127194222
  outer loop
   vertex 0.0060000000521540642 -0.13418300449848175 0.015243000350892544
   vertex -0.0027469999622553587 -0.28652301430702209 0.013938000425696373
   vertex 0.0060000000521540642 -0.23471799492835999 0.014147000387310982
  endloop
 endfacet
 facet normal -0.099190159834360567 0.012280537932894872 0.99499271383267562
  outer loop
   vertex 0.0060000000521540642 -0.23471799492835999 0.014147000387310982
   vertex -0.0031979999039322138 -0.3369629979133606 0.014492000453174114
   vertex 0.0060000000521540642 -0.30139899253845215 0.014969999901950359
  endloop
 endfacet
 facet normal 0.031742262651528949 -0.079466521723208811 -0.99633202331701454
  outer loop
   vertex 0.0060000000521540642 -0.30139899253845215 0.014969999901950359
   vertex 0.0060000000521540642 -0.3701309859752655 0.020452000200748444
   vertex -0.0088790003210306168 -0.38893800973892212 0.021477999165654182
  endloop
 endfacet
 facet normal 0.47991488157132994 -0.3375834018524746 -0.80976487528176166
  outer loop
   vertex 0.0060000000521540642 -0.3701309859752655 0.020452000200748444
   vertex 0.0060000000521540642 -0.38722899556159973 0.027580000460147858
   vertex -0.010320999659597874 -0.40005201101303101 0.023252999410033226
  endloop
 endfacet
 facet normal -0.35003852640346156 -0.26534828953802325 0.89836702703991667
  outer loop
   vertex 0.0060000000521540642 -0.38722899556159973 0.027580000460147858
   vertex -0.0055419998243451118 -0.40654999017715454 0.017376000061631203
   vertex 0.0060000000521540642 -0.40022298693656921 0.023741999641060829
  endloop
 endfacet
 facet normal 0.11107841869859374 -0.63586778221651175 0.76376288757602939
  outer loop
   vertex 0.0060000000521540642 -0.40022298693656921 0.023741999641060829
   vertex -0.001934999949298799 -0.41458499431610107 0.012938999570906162
   vertex 0.0060000000521540642 -0.40911498665809631 0.016339000314474106
  endloop
 endfacet
 facet normal 0.62370235292737275 -0.72825095795695094 -0.28398224801498112
  outer loop
   vertex 0.0060000000521540642 -0.40911498665809631 0.016339000314474106
   vertex -0.001934999949298799 -0.41458499431610107 0.012938999570906162
   vertex 0.0060000000521540642 -0.40398401021957397 0.0031810000073164701
  endloop
 endfacet
 facet normal 0.020504475244435064 -0.98426268704718167 -0.17551788906436921
  outer loop
   vertex 0.0060000000521540642 -0.031254999339580536 0.0031810000073164701
   vertex -0.0075249997898936272 -0.034503001719713211 0.019814999774098396
   vertex -0.026972999796271324 -0.033649001270532608 0.012753999792039394
  endloop
 endfacet
 facet normal -0.60713710557881861 0.5599614011773143 0.56376215217138625
  outer loop
   vertex -0.0075249997898936272 -0.034503001719713211 0.019814999774098396
   vertex -0.031351000070571899 -0.054506998509168625 0.014024999924004078
   vertex -0.011132000014185905 -0.04288100078701973 0.024251999333500862
  endloop
 endfacet
 facet normal -0.49166035085002124 -0.47970340076033957 0.72674255875172145
  outer loop
   vertex -0.015371000394225121 -0.04749700054526329 0.029463000595569611
   vertex -0.031351000070571899 -0.054506998509168625 0.014024999924004078
   vertex -0.027850000187754631 -0.059636000543832779 0.013008000329136848
  endloop
 endfacet
 facet normal -0.57069119602284812 0.78735279812182402 0.23321048448074824
  outer loop
   vertex -0.011132000014185905 -0.04288100078701973 0.024251999333500862
   vertex -0.031351000070571899 -0.054506998509168625 0.014024999924004078
   vertex -0.015371000394225121 -0.04749700054526329 0.029463000595569611
  endloop
 endfacet
 facet normal 0.8749971452865708 0.22509865843042104 -0.42861473342989065
  outer loop
   vertex -0.015371000394225121 -0.04749700054526329 0.029463000595569611
   vertex -0.013477000407874584 -0.059294000267982483 0.027133999392390251
   vertex -0.02055400051176548 -0.062715001404285431 0.010889999568462372
  endloop
 endfacet
 facet normal -0.93050732892546173 -0.262578882122466 0.25535943585330617
  outer loop
   vertex -0.013477000407874584 -0.059294000267982483 0.027133999392390251
   vertex -0.012675999663770199 -0.08015500009059906 0.0086019998416304588
   vertex -0.011312000453472137 -0.069554001092910767 0.024473000317811966
  endloop
 endfacet
 facet normal -0.64561860469878163 -0.20015304665698036 0.73696361862762738
  outer loop
   vertex -0.011312000453472137 -0.069554001092910767 0.024473000317811966
   vertex -0.010049000382423401 -0.13486699759960175 0.0078410003334283829
   vertex -0.0072559998370707035 -0.10101400315761566 0.019481999799609184
  endloop
 endfacet
 facet normal -0.29162520565536126 -0.14819925407253184 0.9449823916448461
  outer loop
   vertex -0.0072559998370707035 -0.10101400315761566 0.019481999799609184
   vertex -0.010049000382423401 -0.16974599659442902 0.0078410003334283829
   vertex -0.0046410001814365387 -0.12666000425815582 0.016266999766230583
  endloop
 endfacet
 facet normal -0.3247194692934039 -0.063812566161523213 0.9436552456600299
  outer loop
   vertex -0.0046410001814365387 -0.12666000425815582 0.016266999766230583
   vertex -0.0050880000926554203 -0.27028301358222961 0.0064010000787675381
   vertex -0.0013940000208094716 -0.20223100483417511 0.012273999862372875
  endloop
 endfacet
 facet normal -0.70172795484325723 0.025319100905423407 0.71199495821307646
  outer loop
   vertex -0.0013940000208094716 -0.20223100483417511 0.012273999862372875
   vertex -0.010631999932229519 -0.33833000063896179 0.0080089997500181198
   vertex -0.0027469999622553587 -0.28652301430702209 0.013938000425696373
  endloop
 endfacet
 facet normal -0.65661092847997471 0.014153475238759894 0.75409665676180493
  outer loop
   vertex -0.0027469999622553587 -0.28652301430702209 0.013938000425696373
   vertex -0.011215999722480774 -0.37252599000930786 0.0081780003383755684
   vertex -0.0031979999039322138 -0.3369629979133606 0.014492000453174114
  endloop
 endfacet
 facet normal 0.67861749864208443 -0.17021072653776889 -0.71449744513766145
  outer loop
   vertex -0.0031979999039322138 -0.3369629979133606 0.014492000453174114
   vertex -0.0088790003210306168 -0.38893800973892212 0.021477999165654182
   vertex -0.023763999342918396 -0.40774598717689514 0.011820999905467033
  endloop
 endfacet
 facet normal 0.83485653947623961 -0.19078468842821952 -0.51634848809220424
  outer loop
   vertex -0.0088790003210306168 -0.38893800973892212 0.021477999165654182
   vertex -0.010320999659597874 -0.40005201101303101 0.023252999410033226
   vertex -0.02084599994122982 -0.41287600994110107 0.010974000208079815
  endloop
 endfacet
 facet normal -0.27915623671328332 -0.74889445630777751 0.60102320156176636
  outer loop
   vertex -0.010320999659597874 -0.40005201101303101 0.023252999410033226
   vertex -0.0094659999012947083 -0.41287600994110107 0.0076709999702870846
   vertex -0.0055419998243451118 -0.40654999017715454 0.017376000061631203
  endloop
 endfacet
 facet normal -0.38981062936274335 -0.57305971793489141 0.72086769446008936
  outer loop
   vertex -0.0055419998243451118 -0.40654999017715454 0.017376000061631203
   vertex -0.0056719998829066753 -0.42005598545074463 0.0065689999610185623
   vertex -0.001934999949298799 -0.41458499431610107 0.012938999570906162
  endloop
 endfacet
 facet normal 0.81141928066702573 -0.58390897001878783 0.025476767718934777
  outer loop
   vertex -0.001934999949298799 -0.41458499431610107 0.012938999570906162
   vertex -0.0056719998829066753 -0.42005598545074463 0.0065689999610185623
   vertex 0.0060000000521540642 -0.40398401021957397 0.0031810000073164701
  endloop
 endfacet
 facet normal 0.072414303230679627 -0.99737463808120519 0
  outer loop
   vertex 0.0060000000521540642 -0.031254999339580536 0.0031810000073164701
   vertex -0.026972999796271324 -0.033649001270532608 0.012753999792039394
   vertex -0.026972999796271324 -0.033649001270532608 -0.0063930000178515911
  endloop
 endfacet
 facet normal -0.97867405671404839 0.20541930463047414 0
  outer loop
   vertex -0.026972999796271324 -0.033649001270532608 0.012753999792039394
   vertex -0.031351000070571899 -0.054506998509168625 -0.0076640001498162746
   vertex -0.031351000070571899 -0.054506998509168625 0.014024999924004078
  endloop
 endfacet
 facet normal -0.82593094337899831 -0.56377129828422257 0
  outer loop
   vertex -0.031351000070571899 -0.054506998509168625 0.014024999924004078
   vertex -0.027850000187754631 -0.059636000543832779 -0.0066470000892877579
   vertex -0.027850000187754631 -0.059636000543832779 0.013008000329136848
  endloop
 endfacet
 facet normal -0.38880780793559094 -0.9213188853422688 0
  outer loop
   vertex -0.027850000187754631 -0.059636000543832779 0.013008000329136848
   vertex -0.02055400051176548 -0.062715001404285431 -0.0045280000194907188
   vertex -0.02055400051176548 -0.062715001404285431 0.010889999568462372
  endloop
 endfacet
 facet normal -0.91133389416725918 -0.4116679892121064 0
  outer loop
   vertex -0.02055400051176548 -0.062715001404285431 0.010889999568462372
   vertex -0.012675999663770199 -0.08015500009059906 -0.0022420000750571489
   vertex -0.012675999663770199 -0.08015500009059906 0.0086019998416304588
  endloop
 endfacet
 facet normal -0.9988492668318012 -0.047959797221974042 0
  outer loop
   vertex -0.012675999663770199 -0.08015500009059906 0.0086019998416304588
   vertex -0.010049000382423401 -0.13486699759960175 -0.0014799999771639705
   vertex -0.010049000382423401 -0.13486699759960175 0.0078410003334283829
  endloop
 endfacet
 facet normal -1 0 0
  outer loop
   vertex -0.010049000382423401 -0.13486699759960175 0.0078410003334283829
   vertex -0.010049000382423401 -0.16974599659442902 -0.0014799999771639705
   vertex -0.010049000382423401 -0.16974599659442902 0.0078410003334283829
  endloop
 endfacet
 facet normal -0.99878475373524123 -0.049285045460396158 0
  outer loop
   vertex -0.010049000382423401 -0.16974599659442902 0.0078410003334283829
   vertex -0.0050880000926554203 -0.27028301358222961 -3.9999998989515007e-05
   vertex -0.0050880000926554203 -0.27028301358222961 0.0064010000787675381
  endloop
 endfacet
 facet normal 0.99669749807503405 -0.081204047503602356 0
  outer loop
   vertex -0.0050880000926554203 -0.27028301358222961 0.0064010000787675381
   vertex -0.010631999932229519 -0.33833000063896179 0.0080089997500181198
   vertex -0.010631999932229519 -0.33833000063896179 -0.0016479999758303165
  endloop
 endfacet
 facet normal -0.99985420250806978 0.017075530063560763 0
  outer loop
   vertex -0.010631999932229519 -0.33833000063896179 0.0080089997500181198
   vertex -0.011215999722480774 -0.37252599000930786 -0.001816999982111156
   vertex -0.011215999722480774 -0.37252599000930786 0.0081780003383755684
  endloop
 endfacet
 facet normal 0.94200061727206796 -0.33561113965278749 0
  outer loop
   vertex -0.011215999722480774 -0.37252599000930786 0.0081780003383755684
   vertex -0.023763999342918396 -0.40774598717689514 0.011820999905467033
   vertex -0.023763999342918396 -0.40774598717689514 -0.0054589998908340931
  endloop
 endfacet
 facet normal -0.86922257322068175 -0.49442099288320746 0
  outer loop
   vertex -0.023763999342918396 -0.40774598717689514 0.011820999905467033
   vertex -0.02084599994122982 -0.41287600994110107 -0.0046140002086758614
   vertex -0.02084599994122982 -0.41287600994110107 0.010974000208079815
  endloop
 endfacet
 facet normal 0 -1 0
  outer loop
   vertex -0.02084599994122982 -0.41287600994110107 0.010974000208079815
   vertex -0.0094659999012947083 -0.41287600994110107 -0.0013099999632686377
   vertex -0.0094659999012947083 -0.41287600994110107 0.0076709999702870846
  endloop
 endfacet
 facet normal -0.88415241712096559 -0.46719856945324012 0
  outer loop
   vertex -0.0094659999012947083 -0.41287600994110107 0.0076709999702870846
   vertex -0.0056719998829066753 -0.42005598545074463 -0.00020700000459328294
   vertex -0.0056719998829066753 -0.42005598545074463 0.0065689999610185623
  endloop
 endfacet
 facet normal 0.80913604649529347 -0.58762135619969269 0
  outer loop
   vertex -0.0056719998829066753 -0.42005598545074463 0.0065689999610185623
   vertex -0.0056719998829066753 -0.42005598545074463 -0.00020700000459328294
   vertex 0.0060000000521540642 -0.40398401021957397 0.0031810000073164701
  endloop
 endfacet
 facet normal 0.097971792542912411 -0.99114958245968643 -0.089576967217683989
  outer loop
   vertex 0.0060000000521540642 -0.031254999339580536 0.0031810000073164701
   vertex -0.026972999796271324 -0.033649001270532608 -0.0063930000178515911
   vertex -0.0079770004376769066 -0.0310830008238554 -0.014008999802172184
  endloop
 endfacet
 facet normal -0.74991428352656897 0.19590668867544062 -0.63186164363336417
  outer loop
   vertex -0.026972999796271324 -0.033649001270532608 -0.0063930000178515911
   vertex -0.015821000561118126 -0.0466420017182827 -0.023656999692320824
   vertex -0.031351000070571899 -0.054506998509168625 -0.0076640001498162746
  endloop
 endfacet
 facet normal -0.58305624848121296 -0.52150985203843392 -0.62295496252447091
  outer loop
   vertex -0.031351000070571899 -0.054506998509168625 -0.0076640001498162746
   vertex -0.015279999934136868 -0.054164998233318329 -0.022991999983787537
   vertex -0.027850000187754631 -0.059636000543832779 -0.0066470000892877579
  endloop
 endfacet
 facet normal -0.36942504502997392 -0.92631021154683701 -0.073990053984679297
  outer loop
   vertex -0.027850000187754631 -0.059636000543832779 -0.0066470000892877579
   vertex -0.011041999794542789 -0.065449997782707214 -0.0177800003439188
   vertex -0.02055400051176548 -0.062715001404285431 -0.0045280000194907188
  endloop
 endfacet
 facet normal -0.68776669318380512 -0.3908614925874776 -0.61172237931867657
  outer loop
   vertex -0.02055400051176548 -0.062715001404285431 -0.0045280000194907188
   vertex -0.0053619998507201672 -0.079641997814178467 -0.010793000459671021
   vertex -0.012675999663770199 -0.08015500009059906 -0.0022420000750571489
  endloop
 endfacet
 facet normal -0.6147305724109835 -0.040486956017707951 -0.78769735922858397
  outer loop
   vertex -0.012675999663770199 -0.08015500009059906 -0.0022420000750571489
   vertex -0.0025659999810159206 -0.13418300449848175 -0.0073549998924136162
   vertex -0.010049000382423401 -0.13486699759960175 -0.0014799999771639705
  endloop
 endfacet
 facet normal -0.5320048007597733 0 -0.84674133710865562
  outer loop
   vertex -0.010049000382423401 -0.13486699759960175 -0.0014799999771639705
   vertex -0.001934999949298799 -0.2024029940366745 -0.006577999796718359
   vertex -0.010049000382423401 -0.16974599659442902 -0.0014799999771639705
  endloop
 endfacet
 facet normal -0.82492585064255641 -0.048771774658799887 -0.56313289278667222
  outer loop
   vertex -0.010049000382423401 -0.16974599659442902 -0.0014799999771639705
   vertex -0.00067300000227987766 -0.2873769998550415 -0.0050269998610019684
   vertex -0.0050880000926554203 -0.27028301358222961 -3.9999998989515007e-05
  endloop
 endfacet
 facet normal 0.66135208791487887 -0.071526474223445449 0.74665747119800052
  outer loop
   vertex -0.0050880000926554203 -0.27028301358222961 -3.9999998989515007e-05
   vertex -0.010631999932229519 -0.33833000063896179 -0.0016479999758303165
   vertex -0.0039189998060464859 -0.35320499539375305 -0.009019000455737114
  endloop
 endfacet
 facet normal -0.93918304582321099 0.017734323318509968 -0.34295874418750549
  outer loop
   vertex -0.010631999932229519 -0.33833000063896179 -0.0016479999758303165
   vertex -0.0072559998370707035 -0.38141500949859619 -0.013120999559760094
   vertex -0.011215999722480774 -0.37252599000930786 -0.001816999982111156
  endloop
 endfacet
 facet normal 0.72488092315053354 -0.32127018412662023 0.60937108238221949
  outer loop
   vertex -0.011215999722480774 -0.37252599000930786 -0.001816999982111156
   vertex -0.023763999342918396 -0.40774598717689514 -0.0054589998908340931
   vertex -0.0119439996778965 -0.40654999017715454 -0.01888900063931942
  endloop
 endfacet
 facet normal -0.62304298634711153 -0.45874608330231376 -0.63353726663745635
  outer loop
   vertex -0.023763999342918396 -0.40774598717689514 -0.0054589998908340931
   vertex -0.0090579995885491371 -0.41407299041748047 -0.01534000039100647
   vertex -0.02084599994122982 -0.41287600994110107 -0.0046140002086758614
  endloop
 endfacet
 facet normal 0.12876250018986227 -0.8869779072336097 -0.44349792629091483
  outer loop
   vertex -0.02084599994122982 -0.41287600994110107 -0.0046140002086758614
   vertex -0.0041899997740983963 -0.40808901190757751 -0.009352000430226326
   vertex -0.0094659999012947083 -0.41287600994110107 -0.0013099999632686377
  endloop
 endfacet
 facet normal -0.40570247062811216 -0.34443829616332294 -0.84662138259221442
  outer loop
   vertex -0.0094659999012947083 -0.41287600994110107 -0.0013099999632686377
   vertex -0.0015739999944344163 -0.4103119969367981 -0.0061349999159574509
   vertex -0.0056719998829066753 -0.42005598545074463 -0.00020700000459328294
  endloop
 endfacet
 facet normal 0.80100404519125168 -0.518710128009233 -0.29888513293219582
  outer loop
   vertex -0.0056719998829066753 -0.42005598545074463 -0.00020700000459328294
   vertex -0.0015739999944344163 -0.4103119969367981 -0.0061349999159574509
   vertex 0.0060000000521540642 -0.40398401021957397 0.0031810000073164701
  endloop
 endfacet
 facet normal 0.26265560485673223 -0.93877732022194815 -0.22295554775390072
  outer loop
   vertex 0.0060000000521540642 -0.031254999339580536 0.0031810000073164701
   vertex -0.0079770004376769066 -0.0310830008238554 -0.014008999802172184
   vertex 0.0060000000521540642 -0.028519999235868454 -0.0083349999040365219
  endloop
 endfacet
 facet normal 0.36355810110541437 -0.61640548531679085 0.69847676038075646
  outer loop
   vertex -0.0079770004376769066 -0.0310830008238554 -0.014008999802172184
   vertex -0.015821000561118126 -0.0466420017182827 -0.023656999692320824
   vertex 0.0060000000521540642 -0.038777001202106476 -0.028074000030755997
  endloop
 endfacet
 facet normal -0.27530104103339526 -0.10427613232908242 -0.955686049407658
  outer loop
   vertex -0.015821000561118126 -0.0466420017182827 -0.023656999692320824
   vertex 0.0060000000521540642 -0.048693999648094177 -0.029719000682234764
   vertex -0.015279999934136868 -0.054164998233318329 -0.022991999983787537
  endloop
 endfacet
 facet normal -0.35427257889613661 -0.49846844321008466 -0.79121435209808677
  outer loop
   vertex -0.015279999934136868 -0.054164998233318329 -0.022991999983787537
   vertex 0.0060000000521540642 -0.068185999989509583 -0.023686999455094337
   vertex -0.011041999794542789 -0.065449997782707214 -0.0177800003439188
  endloop
 endfacet
 facet normal -0.2023145726476607 -0.49654150066652047 -0.84410624438528725
  outer loop
   vertex -0.011041999794542789 -0.065449997782707214 -0.0177800003439188
   vertex 0.0060000000521540642 -0.07912900298833847 -0.013818000443279743
   vertex -0.0053619998507201672 -0.079641997814178467 -0.010793000459671021
  endloop
 endfacet
 facet normal -0.044840016750350133 -0.065136436599447581 -0.99686840531985699
  outer loop
   vertex -0.0053619998507201672 -0.079641997814178467 -0.010793000459671021
   vertex 0.0060000000521540642 -0.13349899649620056 -0.0077849999070167542
   vertex -0.0025659999810159206 -0.13418300449848175 -0.0073549998924136162
  endloop
 endfacet
 facet normal 0.04450479827141484 -0.010966007631029258 -0.99894898248481978
  outer loop
   vertex -0.0025659999810159206 -0.13418300449848175 -0.0073549998924136162
   vertex 0.0060000000521540642 -0.23505899310112 -0.0058659999631345272
   vertex -0.001934999949298799 -0.2024029940366745 -0.006577999796718359
  endloop
 endfacet
 facet normal -0.29388110719337784 -0.021806703291547047 -0.9555931992884571
  outer loop
   vertex -0.001934999949298799 -0.2024029940366745 -0.006577999796718359
   vertex 0.0060000000521540642 -0.30447599291801453 -0.0066889999434351921
   vertex -0.00067300000227987766 -0.2873769998550415 -0.0050269998610019684
  endloop
 endfacet
 facet normal 0.13264968494212953 -0.066512509217879448 0.98892878773059056
  outer loop
   vertex -0.00067300000227987766 -0.2873769998550415 -0.0050269998610019684
   vertex -0.0039189998060464859 -0.35320499539375305 -0.009019000455737114
   vertex 0.0060000000521540642 -0.36808100342750549 -0.011350000277161598
  endloop
 endfacet
 facet normal 0.40859149671299538 -0.17848798774886643 0.89509498213496574
  outer loop
   vertex -0.0039189998060464859 -0.35320499539375305 -0.009019000455737114
   vertex -0.0072559998370707035 -0.38141500949859619 -0.013120999559760094
   vertex 0.0060000000521540642 -0.39030599594116211 -0.020944999530911446
  endloop
 endfacet
 facet normal 0.25239079044224094 -0.26090184809217748 0.93178812750647733
  outer loop
   vertex -0.0072559998370707035 -0.38141500949859619 -0.013120999559760094
   vertex -0.0119439996778965 -0.40654999017715454 -0.01888900063931942
   vertex 0.0060000000521540642 -0.40535199642181396 -0.023414000868797302
  endloop
 endfacet
 facet normal -0.1550481453190905 -0.46952697116541514 -0.86919761618480151
  outer loop
   vertex -0.0119439996778965 -0.40654999017715454 -0.01888900063931942
   vertex 0.0060000000521540642 -0.41526898741722107 -0.017379999160766602
   vertex -0.0090579995885491371 -0.41407299041748047 -0.01534000039100647
  endloop
 endfacet
 facet normal 0.50732688119045055 -0.77978239749238321 0.36682263859064279
  outer loop
   vertex -0.0090579995885491371 -0.41407299041748047 -0.01534000039100647
   vertex 0.0060000000521540642 -0.40330201387405396 -0.013268999755382538
   vertex -0.0041899997740983963 -0.40808901190757751 -0.009352000430226326
  endloop
 endfacet
 facet normal 0.43142380698880273 -0.53910488222444353 -0.72335290469110392
  outer loop
   vertex -0.0041899997740983963 -0.40808901190757751 -0.009352000430226326
   vertex 0.0060000000521540642 -0.40056499838829041 -0.0088820001110434532
   vertex -0.0015739999944344163 -0.4103119969367981 -0.0061349999159574509
  endloop
 endfacet
 facet normal 0.75153847809952401 -0.63468863041325863 -0.17988957268278039
  outer loop
   vertex -0.0015739999944344163 -0.4103119969367981 -0.0061349999159574509
   vertex 0.0060000000521540642 -0.40056499838829041 -0.0088820001110434532
   vertex 0.0060000000521540642 -0.40398401021957397 0.0031810000073164701
  endloop
 endfacet
 facet normal -0.67648969313832297 -0.24567422870879427 0.69426642467136235
  outer loop
   vertex -0.015371000394225121 -0.04749700054526329 0.029463000595569611
   vertex -0.027850000187754631 -0.059636000543832779 0.013008000329136848
   vertex -0.013477000407874584 -0.059294000267982483 0.027133999392390251
  endloop
 endfacet
endsolid
