solid Visualization Toolkit generated SLA File
 facet normal -1 0 0
  outer loop
   vertex -0.25 -0.05000000074505806 0.25
   vertex -0.25 0 -0.30000001192092896
   vertex -0.25 -0.05000000074505806 -0.30000001192092896
  endloop
 endfacet
 facet normal 1 0 -0
  outer loop
   vertex 1.5 -0.05000000074505806 0.25
   vertex 1.5 0 -0.30000001192092896
   vertex 1.5 0 0.25
  endloop
 endfacet
 facet normal 0 -1 0
  outer loop
   vertex -0.25 -0.05000000074505806 0.25
   vertex 1.5 -0.05000000074505806 -0.30000001192092896
   vertex 1.5 -0.05000000074505806 0.25
  endloop
 endfacet
 facet normal 0 1 0
  outer loop
   vertex -0.25 0 0.25
   vertex 1.5 0 -0.30000001192092896
   vertex -0.25 0 -0.30000001192092896
  endloop
 endfacet
 facet normal 0 0 1
  outer loop
   vertex -0.25 -0.05000000074505806 0.25
   vertex 1.5 0 0.25
   vertex -0.25 0 0.25
  endloop
 endfacet
 facet normal 0 -0 -1
  outer loop
   vertex -0.25 -0.05000000074505806 -0.30000001192092896
   vertex 1.5 0 -0.30000001192092896
   vertex 1.5 -0.05000000074505806 -0.30000001192092896
  endloop
 endfacet
endsolid
