solid Visualization Toolkit generated SLA File
 facet normal 0 -0.98768843169917897 0.15643388983086839
  outer loop
   vertex 0.64999997615814209 -0.029999999329447746 0
   vertex 6.3353101370946347e-18 -0.028531700372695923 0.0092705097049474716
   vertex 6.6613400668099604e-18 -0.029999999329447746 0
  endloop
 endfacet
 facet normal 0 -0.89100679034973207 0.45398997736807883
  outer loop
   vertex 0.64999997615814209 -0.028531700372695923 0.0092705097049474716
   vertex 5.3891400070161603e-18 -0.024270499125123024 0.017633600160479546
   vertex 6.3353101370946347e-18 -0.028531700372695923 0.0092705097049474716
  endloop
 endfacet
 facet normal 0 -0.70710678118654746 0.70710678118654746
  outer loop
   vertex 0.64999997615814209 -0.024270499125123024 0.017633600160479546
   vertex 3.9154399907753615e-18 -0.017633600160479546 0.024270499125123024
   vertex 5.3891400070161603e-18 -0.024270499125123024 0.017633600160479546
  endloop
 endfacet
 facet normal 0 -0.45398997736807883 0.89100679034973207
  outer loop
   vertex 0.64999997615814209 -0.017633600160479546 0.024270499125123024
   vertex 2.0584699736111801e-18 -0.0092705097049474716 0.028531700372695923
   vertex 3.9154399907753615e-18 -0.017633600160479546 0.024270499125123024
  endloop
 endfacet
 facet normal 0 -0.15643388972957967 0.98768843171522158
  outer loop
   vertex 0.64999997615814209 -0.0092705097049474716 0.028531700372695923
   vertex -1.3662599988556522e-27 6.1531001648018613e-12 0.029999999329447746
   vertex 2.0584699736111801e-18 -0.0092705097049474716 0.028531700372695923
  endloop
 endfacet
 facet normal -3.6097461784774211e-17 0.15643388993215715 0.98768843168313647
  outer loop
   vertex 0.64999997615814209 6.1532497847016643e-12 0.029999999329447746
   vertex -2.0584699736111801e-18 0.0092705097049474716 0.028531700372695923
   vertex -1.3662599988556522e-27 6.1531001648018613e-12 0.029999999329447746
  endloop
 endfacet
 facet normal 0 0.45398997736807883 0.89100679034973207
  outer loop
   vertex 0.64999997615814209 0.0092705097049474716 0.028531700372695923
   vertex -3.9154399907753615e-18 0.017633600160479546 0.024270499125123024
   vertex -2.0584699736111801e-18 0.0092705097049474716 0.028531700372695923
  endloop
 endfacet
 facet normal 0 0.70710678118654746 0.70710678118654746
  outer loop
   vertex 0.64999997615814209 0.017633600160479546 0.024270499125123024
   vertex -5.3891400070161603e-18 0.024270499125123024 0.017633600160479546
   vertex -3.9154399907753615e-18 0.017633600160479546 0.024270499125123024
  endloop
 endfacet
 facet normal 0 0.89100679034973207 0.45398997736807883
  outer loop
   vertex 0.64999997615814209 0.024270499125123024 0.017633600160479546
   vertex -6.3353101370946347e-18 0.028531700372695923 0.0092705097049474716
   vertex -5.3891400070161603e-18 0.024270499125123024 0.017633600160479546
  endloop
 endfacet
 facet normal 0 0.98768843173126397 0.15643388962829094
  outer loop
   vertex 0.64999997615814209 0.028531700372695923 0.0092705097049474716
   vertex -6.6613400668099604e-18 0.029999999329447746 -1.2306200329603723e-11
   vertex -6.3353101370946347e-18 0.028531700372695923 0.0092705097049474716
  endloop
 endfacet
 facet normal 0 0.98768843166709397 -0.15643389003344588
  outer loop
   vertex 0.64999997615814209 0.029999999329447746 -1.2306200329603723e-11
   vertex -6.3353101370946347e-18 0.028531700372695923 -0.0092705097049474716
   vertex -6.6613400668099604e-18 0.029999999329447746 -1.2306200329603723e-11
  endloop
 endfacet
 facet normal 0 0.89100679034973207 -0.45398997736807883
  outer loop
   vertex 0.64999997615814209 0.028531700372695923 -0.0092705097049474716
   vertex -5.3891400070161603e-18 0.024270499125123024 -0.017633600160479546
   vertex -6.3353101370946347e-18 0.028531700372695923 -0.0092705097049474716
  endloop
 endfacet
 facet normal 0 0.70710678118654746 -0.70710678118654746
  outer loop
   vertex 0.64999997615814209 0.024270499125123024 -0.017633600160479546
   vertex -3.9154399907753615e-18 0.017633600160479546 -0.024270499125123024
   vertex -5.3891400070161603e-18 0.024270499125123024 -0.017633600160479546
  endloop
 endfacet
 facet normal 0 0.45398997736807883 -0.89100679034973207
  outer loop
   vertex 0.64999997615814209 0.017633600160479546 -0.024270499125123024
   vertex -2.0584699736111801e-18 0.0092705097049474716 -0.028531700372695923
   vertex -3.9154399907753615e-18 0.017633600160479546 -0.024270499125123024
  endloop
 endfacet
 facet normal 0 0.15643388952700221 -0.98768843174730647
  outer loop
   vertex 0.64999997615814209 0.0092705097049474716 -0.028531700372695923
   vertex 4.0987899151061701e-27 -1.8459300060724715e-11 -0.029999999329447746
   vertex -2.0584699736111801e-18 0.0092705097049474716 -0.028531700372695923
  endloop
 endfacet
 facet normal 2.4157532148786061e-17 -0.15643389013473458 -0.98768843165105136
  outer loop
   vertex 0.64999997615814209 -1.8459199446763108e-11 -0.029999999329447746
   vertex 2.0584699736111801e-18 -0.0092705097049474716 -0.028531700372695923
   vertex 4.0987899151061701e-27 -1.8459300060724715e-11 -0.029999999329447746
  endloop
 endfacet
 facet normal 0 -0.45398997736807883 -0.89100679034973207
  outer loop
   vertex 0.64999997615814209 -0.0092705097049474716 -0.028531700372695923
   vertex 3.9154399907753615e-18 -0.017633600160479546 -0.024270499125123024
   vertex 2.0584699736111801e-18 -0.0092705097049474716 -0.028531700372695923
  endloop
 endfacet
 facet normal 0 -0.70710678118654746 -0.70710678118654746
  outer loop
   vertex 0.64999997615814209 -0.017633600160479546 -0.024270499125123024
   vertex 5.3891400070161603e-18 -0.024270499125123024 -0.017633600160479546
   vertex 3.9154399907753615e-18 -0.017633600160479546 -0.024270499125123024
  endloop
 endfacet
 facet normal 0 -0.89100679034973207 -0.45398997736807883
  outer loop
   vertex 0.64999997615814209 -0.024270499125123024 -0.017633600160479546
   vertex 6.3353101370946347e-18 -0.028531700372695923 -0.0092705097049474716
   vertex 5.3891400070161603e-18 -0.024270499125123024 -0.017633600160479546
  endloop
 endfacet
 facet normal 0 -0.98768843169917897 -0.15643388983086839
  outer loop
   vertex 0.64999997615814209 -0.028531700372695923 -0.0092705097049474716
   vertex 6.6613400668099604e-18 -0.029999999329447746 0
   vertex 6.3353101370946347e-18 -0.028531700372695923 -0.0092705097049474716
  endloop
 endfacet
 facet normal 1 0 0
  outer loop
   vertex 0.64999997615814209 -0.029999999329447746 0
   vertex 0.64999997615814209 -0.024270499125123024 0.017633600160479546
   vertex 0.64999997615814209 -0.028531700372695923 0.0092705097049474716
  endloop
 endfacet
 facet normal -1 -2.220500298097282e-16 -3.5553806929143207e-21
  outer loop
   vertex 6.3353101370946347e-18 -0.028531700372695923 -0.0092705097049474716
   vertex 3.9154399907753615e-18 -0.017633600160479546 -0.024270499125123024
   vertex 5.3891400070161603e-18 -0.024270499125123024 -0.017633600160479546
  endloop
 endfacet
 facet normal -1 0 0
  outer loop
   vertex 0.64999997615814209 0.095105603337287903 0.030901700258255005
   vertex 0.64999997615814209 0.058778498321771622 0.080901697278022766
   vertex 0.64999997615814209 0.080901697278022766 0.058778498321771622
  endloop
 endfacet
 facet normal 0.27158969783394826 0.95056399300634153 -0.15055607337568458
  outer loop
   vertex 1 0 0
   vertex 0.64999997615814209 0.095105603337287903 -0.030901700258255005
   vertex 0.64999997615814209 0.10000000149011612 0
  endloop
 endfacet
 facet normal 0.27158968421010093 0.85751678095107453 -0.43692563877388158
  outer loop
   vertex 1 0 0
   vertex 0.64999997615814209 0.080901697278022766 -0.058778498321771622
   vertex 0.64999997615814209 0.095105603337287903 -0.030901700258255005
  endloop
 endfacet
 facet normal 0.27158970418963063 0.68052885044580924 -0.68052885044580924
  outer loop
   vertex 1 0 0
   vertex 0.64999997615814209 0.058778498321771622 -0.080901697278022766
   vertex 0.64999997615814209 0.080901697278022766 -0.058778498321771622
  endloop
 endfacet
 facet normal 0.27158968421010093 0.43692563877388158 -0.85751678095107453
  outer loop
   vertex 1 0 0
   vertex 0.64999997615814209 0.030901700258255005 -0.095105603337287903
   vertex 0.64999997615814209 0.058778498321771622 -0.080901697278022766
  endloop
 endfacet
 facet normal 0.27158969782986236 0.15055607327838225 -0.95056399302292027
  outer loop
   vertex 1 0 0
   vertex 0.64999997615814209 -2.0510300055565089e-11 -0.10000000149011612
   vertex 0.64999997615814209 0.030901700258255005 -0.095105603337287903
  endloop
 endfacet
 facet normal 0.27158969783803422 -0.15055607347298691 -0.9505639929897628
  outer loop
   vertex 1 0 0
   vertex 0.64999997615814209 -0.030901700258255005 -0.095105603337287903
   vertex 0.64999997615814209 -2.0510300055565089e-11 -0.10000000149011612
  endloop
 endfacet
 facet normal 0.27158968421010093 -0.43692563877388158 -0.85751678095107453
  outer loop
   vertex 1 0 0
   vertex 0.64999997615814209 -0.058778498321771622 -0.080901697278022766
   vertex 0.64999997615814209 -0.030901700258255005 -0.095105603337287903
  endloop
 endfacet
 facet normal 0.27158970418963063 -0.68052885044580924 -0.68052885044580924
  outer loop
   vertex 1 0 0
   vertex 0.64999997615814209 -0.080901697278022766 -0.058778498321771622
   vertex 0.64999997615814209 -0.058778498321771622 -0.080901697278022766
  endloop
 endfacet
 facet normal 0.27158968421010093 -0.85751678095107453 -0.43692563877388158
  outer loop
   vertex 1 0 0
   vertex 0.64999997615814209 -0.095105603337287903 -0.030901700258255005
   vertex 0.64999997615814209 -0.080901697278022766 -0.058778498321771622
  endloop
 endfacet
 facet normal 0.27158969782577641 -0.95056399303949912 -0.15055607318107944
  outer loop
   vertex 1 0 0
   vertex 0.64999997615814209 -0.10000000149011612 4.1020700725091785e-11
   vertex 0.64999997615814209 -0.095105603337287903 -0.030901700258255005
  endloop
 endfacet
 facet normal 0.27158969784212017 -0.95056399297318406 0.15055607357028972
  outer loop
   vertex 1 0 0
   vertex 0.64999997615814209 -0.095105603337287903 0.030901700258255005
   vertex 0.64999997615814209 -0.10000000149011612 4.1020700725091785e-11
  endloop
 endfacet
 facet normal 0.27158968421010093 -0.85751678095107453 0.43692563877388158
  outer loop
   vertex 1 0 0
   vertex 0.64999997615814209 -0.080901697278022766 0.058778498321771622
   vertex 0.64999997615814209 -0.095105603337287903 0.030901700258255005
  endloop
 endfacet
 facet normal 0.27158970418963063 -0.68052885044580924 0.68052885044580924
  outer loop
   vertex 1 0 0
   vertex 0.64999997615814209 -0.058778498321771622 0.080901697278022766
   vertex 0.64999997615814209 -0.080901697278022766 0.058778498321771622
  endloop
 endfacet
 facet normal 0.27158968421010093 -0.43692563877388158 0.85751678095107453
  outer loop
   vertex 1 0 0
   vertex 0.64999997615814209 -0.030901700258255005 0.095105603337287903
   vertex 0.64999997615814209 -0.058778498321771622 0.080901697278022766
  endloop
 endfacet
 facet normal 0.27158969782169046 -0.15055607308377711 0.95056399305607786
  outer loop
   vertex 1 0 0
   vertex 0.64999997615814209 6.1531002515380351e-11 0.10000000149011612
   vertex 0.64999997615814209 -0.030901700258255005 0.095105603337287903
  endloop
 endfacet
 facet normal 0.27158969784620612 0.15055607366759205 0.95056399295660521
  outer loop
   vertex 1 0 0
   vertex 0.64999997615814209 0.030901700258255005 0.095105603337287903
   vertex 0.64999997615814209 6.1531002515380351e-11 0.10000000149011612
  endloop
 endfacet
 facet normal 0.27158968421010093 0.43692563877388158 0.85751678095107453
  outer loop
   vertex 1 0 0
   vertex 0.64999997615814209 0.058778498321771622 0.080901697278022766
   vertex 0.64999997615814209 0.030901700258255005 0.095105603337287903
  endloop
 endfacet
 facet normal 0.27158970418963063 0.68052885044580924 0.68052885044580924
  outer loop
   vertex 1 0 0
   vertex 0.64999997615814209 0.080901697278022766 0.058778498321771622
   vertex 0.64999997615814209 0.058778498321771622 0.080901697278022766
  endloop
 endfacet
 facet normal 0.27158968421010093 0.85751678095107453 0.43692563877388158
  outer loop
   vertex 1 0 0
   vertex 0.64999997615814209 0.095105603337287903 0.030901700258255005
   vertex 0.64999997615814209 0.080901697278022766 0.058778498321771622
  endloop
 endfacet
 facet normal 0.27158969783394826 0.95056399300634153 0.15055607337568458
  outer loop
   vertex 1 0 0
   vertex 0.64999997615814209 0.10000000149011612 0
   vertex 0.64999997615814209 0.095105603337287903 0.030901700258255005
  endloop
 endfacet
endsolid
