solid Visualization Toolkit generated SLA File
 facet normal 0.16640691170154839 0.97713480464616609 0.13234920962004945
  outer loop
   vertex 0.018866999074816704 -0.0024419999681413174 0.050453998148441315
   vertex 0.018242999911308289 -0.0025110000278800726 0.051748000085353851
   vertex 0.019068000838160515 -0.0026110000908374786 0.051449000835418701
  endloop
 endfacet
 facet normal -0.43731772106479044 0.88427638684928977 -0.16373296095613549
  outer loop
   vertex 0.018866999074816704 -0.0024419999681413174 0.050453998148441315
   vertex 0.017721999436616898 -0.0032709999941289425 0.049035001546144485
   vertex 0.018242999911308289 -0.0025110000278800726 0.051748000085353851
  endloop
 endfacet
 facet normal 0.95697633270992322 0.24762097876856656 -0.15126185740881062
  outer loop
   vertex 0.018874000757932663 -0.002882000058889389 0.049777999520301819
   vertex 0.018866999074816704 -0.0024419999681413174 0.050453998148441315
   vertex 0.019068000838160515 -0.0026110000908374786 0.051449000835418701
  endloop
 endfacet
 facet normal 0.06824028793338674 0.83647229540833912 -0.54374383869343534
  outer loop
   vertex 0.017721999436616898 -0.0032709999941289425 0.049035001546144485
   vertex 0.018866999074816704 -0.0024419999681413174 0.050453998148441315
   vertex 0.018874000757932663 -0.002882000058889389 0.049777999520301819
  endloop
 endfacet
 facet normal 0.28722334275806022 0.80154399708904234 0.52443300058768927
  outer loop
   vertex 0.018650000914931297 -0.0028949999250471592 0.052111998200416565
   vertex 0.019068000838160515 -0.0026110000908374786 0.051449000835418701
   vertex 0.018242999911308289 -0.0025110000278800726 0.051748000085353851
  endloop
 endfacet
 facet normal 0.9455779134078004 -0.32021239823844533 -0.057848333508697627
  outer loop
   vertex 0.018874000757932663 -0.002882000058889389 0.049777999520301819
   vertex 0.019068000838160515 -0.0026110000908374786 0.051449000835418701
   vertex 0.018636999651789665 -0.0040119998157024384 0.052159000188112259
  endloop
 endfacet
 facet normal 0.61641006288325251 0.50437868550487452 0.60468237611546083
  outer loop
   vertex 0.01892399974167347 -0.003507999936118722 0.052344001829624176
   vertex 0.019068000838160515 -0.0026110000908374786 0.051449000835418701
   vertex 0.018650000914931297 -0.0028949999250471592 0.052111998200416565
  endloop
 endfacet
 facet normal 0.87676307655680141 -0.40284701875351403 -0.26268000888544651
  outer loop
   vertex 0.019068000838160515 -0.0026110000908374786 0.051449000835418701
   vertex 0.01892399974167347 -0.003507999936118722 0.052344001829624176
   vertex 0.018636999651789665 -0.0040119998157024384 0.052159000188112259
  endloop
 endfacet
 facet normal -0.077171556455326695 0.64160143317858054 0.76314621915950931
  outer loop
   vertex 0.018242999911308289 -0.0025110000278800726 0.051748000085353851
   vertex 0.016986999660730362 -0.0025800000876188278 0.05167900025844574
   vertex 0.018650000914931297 -0.0028949999250471592 0.052111998200416565
  endloop
 endfacet
 facet normal -0.3646130785237654 0.9124757204614844 -0.18559461882747924
  outer loop
   vertex 0.016684999689459801 -0.0037229999434202909 0.048849999904632568
   vertex 0.018242999911308289 -0.0025110000278800726 0.051748000085353851
   vertex 0.017721999436616898 -0.0032709999941289425 0.049035001546144485
  endloop
 endfacet
 facet normal -0.030558427218617925 0.92787856617330544 -0.37162824026450836
  outer loop
   vertex 0.016986999660730362 -0.0025800000876188278 0.05167900025844574
   vertex 0.018242999911308289 -0.0025110000278800726 0.051748000085353851
   vertex 0.016684999689459801 -0.0037229999434202909 0.048849999904632568
  endloop
 endfacet
 facet normal -0.076343441480278246 0.52268423492552107 -0.84910121275574091
  outer loop
   vertex 0.017721999436616898 -0.0032709999941289425 0.049035001546144485
   vertex 0.017305999994277954 -0.0037849999498575926 0.048755999654531479
   vertex 0.016684999689459801 -0.0037229999434202909 0.048849999904632568
  endloop
 endfacet
 facet normal 0.53607485704656099 0.024166883995459732 -0.84382445411380391
  outer loop
   vertex 0.018874000757932663 -0.002882000058889389 0.049777999520301819
   vertex 0.017305999994277954 -0.0037849999498575926 0.048755999654531479
   vertex 0.017721999436616898 -0.0032709999941289425 0.049035001546144485
  endloop
 endfacet
 facet normal 0.6120734837140388 -0.73629249499180305 -0.28851241282292489
  outer loop
   vertex 0.018636999651789665 -0.0040119998157024384 0.052159000188112259
   vertex 0.017305999994277954 -0.0037849999498575926 0.048755999654531479
   vertex 0.018874000757932663 -0.002882000058889389 0.049777999520301819
  endloop
 endfacet
 facet normal -0.13497455364603728 0.47940448313340661 0.86715235767403898
  outer loop
   vertex 0.016986999660730362 -0.0025800000876188278 0.05167900025844574
   vertex 0.016770999878644943 -0.003008000086992979 0.051881998777389526
   vertex 0.018650000914931297 -0.0028949999250471592 0.052111998200416565
  endloop
 endfacet
 facet normal -0.3740630164445386 0.67064283392760515 0.64055838846272506
  outer loop
   vertex 0.017790999263525009 -0.0039730002172291279 0.05273900181055069
   vertex 0.018349999561905861 -0.0036230001132935286 0.052698999643325806
   vertex 0.018650000914931297 -0.0028949999250471592 0.052111998200416565
  endloop
 endfacet
 facet normal -0.65362055240518391 0.69503790065497695 0.29950373975405525
  outer loop
   vertex 0.017790999263525009 -0.0039730002172291279 0.05273900181055069
   vertex 0.018650000914931297 -0.0028949999250471592 0.052111998200416565
   vertex 0.016975000500679016 -0.0044619999825954437 0.052092999219894409
  endloop
 endfacet
 facet normal -0.12794083891245744 0.12482958223794388 0.98389466770415868
  outer loop
   vertex 0.016975000500679016 -0.0044619999825954437 0.052092999219894409
   vertex 0.018650000914931297 -0.0028949999250471592 0.052111998200416565
   vertex 0.016770999878644943 -0.003008000086992979 0.051881998777389526
  endloop
 endfacet
 facet normal 0.39258771756210559 0.47381786651561525 0.78827121816667067
  outer loop
   vertex 0.018650000914931297 -0.0028949999250471592 0.052111998200416565
   vertex 0.018349999561905861 -0.0036230001132935286 0.052698999643325806
   vertex 0.01892399974167347 -0.003507999936118722 0.052344001829624176
  endloop
 endfacet
 facet normal 0.60457733014582049 -0.72665769536356206 -0.32627418782776541
  outer loop
   vertex 0.017805000767111778 -0.0040810001082718372 0.050771001726388931
   vertex 0.018636999651789665 -0.0040119998157024384 0.052159000188112259
   vertex 0.01699800044298172 -0.0052140001207590103 0.051798999309539795
  endloop
 endfacet
 facet normal 0.47341155464829787 -0.84704139995489769 -0.2416658161344486
  outer loop
   vertex 0.017305999994277954 -0.0037849999498575926 0.048755999654531479
   vertex 0.018636999651789665 -0.0040119998157024384 0.052159000188112259
   vertex 0.017805000767111778 -0.0040810001082718372 0.050771001726388931
  endloop
 endfacet
 facet normal 0.5572060444717325 -0.82492954934768548 -0.094935044199653651
  outer loop
   vertex 0.018636999651789665 -0.0040119998157024384 0.052159000188112259
   vertex 0.018280999734997749 -0.0042969998903572559 0.052545998245477676
   vertex 0.017566999420523643 -0.0047679999843239784 0.052448000758886337
  endloop
 endfacet
 facet normal 0.77494581384124739 -0.55337233994728596 0.30534904452313605
  outer loop
   vertex 0.018636999651789665 -0.0040119998157024384 0.052159000188112259
   vertex 0.01892399974167347 -0.003507999936118722 0.052344001829624176
   vertex 0.018280999734997749 -0.0042969998903572559 0.052545998245477676
  endloop
 endfacet
 facet normal 0.58444368105802957 -0.81021910738821512 0.044391234431856212
  outer loop
   vertex 0.018636999651789665 -0.0040119998157024384 0.052159000188112259
   vertex 0.017566999420523643 -0.0047679999843239784 0.052448000758886337
   vertex 0.01699800044298172 -0.0052140001207590103 0.051798999309539795
  endloop
 endfacet
 facet normal 0.54492900389576193 -0.23827867819640181 0.80391271431054523
  outer loop
   vertex 0.01892399974167347 -0.003507999936118722 0.052344001829624176
   vertex 0.018349999561905861 -0.0036230001132935286 0.052698999643325806
   vertex 0.018280999734997749 -0.0042969998903572559 0.052545998245477676
  endloop
 endfacet
 facet normal 0.37073280320293645 0.84669287513882063 -0.38166525099679988
  outer loop
   vertex 0.016684999689459801 -0.0037229999434202909 0.048849999904632568
   vertex 0.01497500017285347 -0.0017999999690800905 0.051454998552799225
   vertex 0.016986999660730362 -0.0025800000876188278 0.05167900025844574
  endloop
 endfacet
 facet normal 0.05537107359908941 0.40493075452786675 0.91266923266097699
  outer loop
   vertex 0.01497500017285347 -0.0017999999690800905 0.051454998552799225
   vertex 0.016770999878644943 -0.003008000086992979 0.051881998777389526
   vertex 0.016986999660730362 -0.0025800000876188278 0.05167900025844574
  endloop
 endfacet
 facet normal 0.29034113366710418 0.67914049542345423 -0.67414405995817084
  outer loop
   vertex 0.014809999614953995 -0.003381999908015132 0.048386000096797943
   vertex 0.014932000078260899 -0.0023759999312460423 0.049451999366283417
   vertex 0.016684999689459801 -0.0037229999434202909 0.048849999904632568
  endloop
 endfacet
 facet normal 0.53688803601083057 0.80766348288789835 -0.24378460820532241
  outer loop
   vertex 0.01497500017285347 -0.0017999999690800905 0.051454998552799225
   vertex 0.016684999689459801 -0.0037229999434202909 0.048849999904632568
   vertex 0.014932000078260899 -0.0023759999312460423 0.049451999366283417
  endloop
 endfacet
 facet normal 0.20962882283261888 -0.15990614726368899 -0.9646169087804205
  outer loop
   vertex 0.014684000052511692 -0.0040719998069107533 0.048473000526428223
   vertex 0.014809999614953995 -0.003381999908015132 0.048386000096797943
   vertex 0.016684999689459801 -0.0037229999434202909 0.048849999904632568
  endloop
 endfacet
 facet normal -0.15700011492867355 -0.87329699183758047 -0.46119771027165357
  outer loop
   vertex 0.016684999689459801 -0.0037229999434202909 0.048849999904632568
   vertex 0.017305999994277954 -0.0037849999498575926 0.048755999654531479
   vertex 0.017224999144673347 -0.0040440000593662262 0.049274001270532608
  endloop
 endfacet
 facet normal 0.24025201493061493 -0.82509213815114824 -0.51137259692219139
  outer loop
   vertex 0.015073000453412533 -0.0052020000293850899 0.050478998571634293
   vertex 0.014684000052511692 -0.0040719998069107533 0.048473000526428223
   vertex 0.016684999689459801 -0.0037229999434202909 0.048849999904632568
  endloop
 endfacet
 facet normal -0.30910100184957345 -0.90520744999414338 -0.29164369208109114
  outer loop
   vertex 0.017224999144673347 -0.0040440000593662262 0.049274001270532608
   vertex 0.016961000859737396 -0.0043060001917183399 0.050367001444101334
   vertex 0.016684999689459801 -0.0037229999434202909 0.048849999904632568
  endloop
 endfacet
 facet normal 0.37552868317421456 -0.84019401329087284 -0.39121890054497233
  outer loop
   vertex 0.015073000453412533 -0.0052020000293850899 0.050478998571634293
   vertex 0.016684999689459801 -0.0037229999434202909 0.048849999904632568
   vertex 0.016961000859737396 -0.0043060001917183399 0.050367001444101334
  endloop
 endfacet
 facet normal 0.63474476052311579 -0.72626968807019487 -0.26387767843998144
  outer loop
   vertex 0.017224999144673347 -0.0040440000593662262 0.049274001270532608
   vertex 0.017305999994277954 -0.0037849999498575926 0.048755999654531479
   vertex 0.017805000767111778 -0.0040810001082718372 0.050771001726388931
  endloop
 endfacet
 facet normal 0.25567076466267269 0.63713647285320552 0.72711042837864781
  outer loop
   vertex 0.01497500017285347 -0.0017999999690800905 0.051454998552799225
   vertex 0.014395000413060188 -0.0018479999853298068 0.051701001822948456
   vertex 0.016770999878644943 -0.003008000086992979 0.051881998777389526
  endloop
 endfacet
 facet normal 0.12652584523707239 -0.20969144633776085 0.96954665066711576
  outer loop
   vertex 0.014188000001013279 -0.0034429999068379402 0.052124999463558197
   vertex 0.014739999547600746 -0.0046080001629889011 0.051800999790430069
   vertex 0.016770999878644943 -0.003008000086992979 0.051881998777389526
  endloop
 endfacet
 facet normal 0.048739116236939072 0.25068894887521509 0.9668399813103935
  outer loop
   vertex 0.014395000413060188 -0.0018479999853298068 0.051701001822948456
   vertex 0.014188000001013279 -0.0034429999068379402 0.052124999463558197
   vertex 0.016770999878644943 -0.003008000086992979 0.051881998777389526
  endloop
 endfacet
 facet normal -0.065356630739203378 0.032472710085795914 0.99733346174592141
  outer loop
   vertex 0.016188999637961388 -0.0047630001790821552 0.051901001483201981
   vertex 0.016770999878644943 -0.003008000086992979 0.051881998777389526
   vertex 0.014739999547600746 -0.0046080001629889011 0.051800999790430069
  endloop
 endfacet
 facet normal -0.27230041637072078 0.10066279325149603 0.95693233057470617
  outer loop
   vertex 0.016188999637961388 -0.0047630001790821552 0.051901001483201981
   vertex 0.016975000500679016 -0.0044619999825954437 0.052092999219894409
   vertex 0.016770999878644943 -0.003008000086992979 0.051881998777389526
  endloop
 endfacet
 facet normal 0.21624951859613545 -0.23713534812935105 0.94710240859925554
  outer loop
   vertex 0.018280999734997749 -0.0042969998903572559 0.052545998245477676
   vertex 0.018349999561905861 -0.0036230001132935286 0.052698999643325806
   vertex 0.017790999263525009 -0.0039730002172291279 0.05273900181055069
  endloop
 endfacet
 facet normal -0.70246541173667099 0.36519759541858532 0.61087892549515277
  outer loop
   vertex 0.016975000500679016 -0.0044619999825954437 0.052092999219894409
   vertex 0.016808999702334404 -0.004972000140696764 0.052207000553607941
   vertex 0.017790999263525009 -0.0039730002172291279 0.05273900181055069
  endloop
 endfacet
 facet normal 0.11793264379225245 -0.37047057429629393 0.92132700226832809
  outer loop
   vertex 0.018280999734997749 -0.0042969998903572559 0.052545998245477676
   vertex 0.017790999263525009 -0.0039730002172291279 0.05273900181055069
   vertex 0.017566999420523643 -0.0047679999843239784 0.052448000758886337
  endloop
 endfacet
 facet normal -0.2218090352185324 -0.27945227657790528 0.93418797734227443
  outer loop
   vertex 0.017790999263525009 -0.0039730002172291279 0.05273900181055069
   vertex 0.016808999702334404 -0.004972000140696764 0.052207000553607941
   vertex 0.017566999420523643 -0.0047679999843239784 0.052448000758886337
  endloop
 endfacet
 facet normal -0.33547373318608248 0.30818498283244655 0.89021311532618852
  outer loop
   vertex 0.016808999702334404 -0.004972000140696764 0.052207000553607941
   vertex 0.016975000500679016 -0.0044619999825954437 0.052092999219894409
   vertex 0.016188999637961388 -0.0047630001790821552 0.051901001483201981
  endloop
 endfacet
 facet normal 0.31992015255985123 -0.93595802017339724 -0.14708392318392929
  outer loop
   vertex 0.017224999144673347 -0.0040440000593662262 0.049274001270532608
   vertex 0.017805000767111778 -0.0040810001082718372 0.050771001726388931
   vertex 0.016961000859737396 -0.0043060001917183399 0.050367001444101334
  endloop
 endfacet
 facet normal 0.38821784430097545 -0.8595683330383318 -0.33230887169018969
  outer loop
   vertex 0.017805000767111778 -0.0040810001082718372 0.050771001726388931
   vertex 0.015073000453412533 -0.0052020000293850899 0.050478998571634293
   vertex 0.016961000859737396 -0.0043060001917183399 0.050367001444101334
  endloop
 endfacet
 facet normal 0.38425771086136939 -0.83253520300129913 -0.39903777691738146
  outer loop
   vertex 0.016370000317692757 -0.0049129999242722988 0.051125001162290573
   vertex 0.015073000453412533 -0.0052020000293850899 0.050478998571634293
   vertex 0.017805000767111778 -0.0040810001082718372 0.050771001726388931
  endloop
 endfacet
 facet normal -0.36364921754071416 -0.47047189567429709 -0.80399965296177811
  outer loop
   vertex 0.016188999637961388 -0.0047630001790821552 0.051901001483201981
   vertex 0.017805000767111778 -0.0040810001082718372 0.050771001726388931
   vertex 0.01699800044298172 -0.0052140001207590103 0.051798999309539795
  endloop
 endfacet
 facet normal 0.53223854718805141 -0.79941565775938395 0.27866958035688788
  outer loop
   vertex 0.016188999637961388 -0.0047630001790821552 0.051901001483201981
   vertex 0.016370000317692757 -0.0049129999242722988 0.051125001162290573
   vertex 0.017805000767111778 -0.0040810001082718372 0.050771001726388931
  endloop
 endfacet
 facet normal 0.05941230936406159 -0.84625014209824345 0.52946281691421138
  outer loop
   vertex 0.01699800044298172 -0.0052140001207590103 0.051798999309539795
   vertex 0.017566999420523643 -0.0047679999843239784 0.052448000758886337
   vertex 0.016808999702334404 -0.004972000140696764 0.052207000553607941
  endloop
 endfacet
 facet normal -0.43492139881166803 -0.84840525592045024 0.30174807138117243
  outer loop
   vertex 0.016808999702334404 -0.004972000140696764 0.052207000553607941
   vertex 0.016188999637961388 -0.0047630001790821552 0.051901001483201981
   vertex 0.01699800044298172 -0.0052140001207590103 0.051798999309539795
  endloop
 endfacet
 facet normal 0.65868715176645676 0.71923785080768632 -0.22097092583263694
  outer loop
   vertex 0.01497500017285347 -0.0017999999690800905 0.051454998552799225
   vertex 0.014932000078260899 -0.0023759999312460423 0.049451999366283417
   vertex 0.012928999960422516 -0.00054899998940527439 0.049428001046180725
  endloop
 endfacet
 facet normal 0.13118487670267254 0.86813204441294445 0.47868286118045411
  outer loop
   vertex 0.014395000413060188 -0.0018479999853298068 0.051701001822948456
   vertex 0.01497500017285347 -0.0017999999690800905 0.051454998552799225
   vertex 0.012954000383615494 -0.0012359999818727374 0.050985999405384064
  endloop
 endfacet
 facet normal 0.1603886094455837 0.90409616754592625 0.39608788644552145
  outer loop
   vertex 0.01497500017285347 -0.0017999999690800905 0.051454998552799225
   vertex 0.012928999960422516 -0.00054899998940527439 0.049428001046180725
   vertex 0.012954000383615494 -0.0012359999818727374 0.050985999405384064
  endloop
 endfacet
 facet normal 0.53778118472174785 0.58156958271914749 -0.61038366443995684
  outer loop
   vertex 0.014932000078260899 -0.0023759999312460423 0.049451999366283417
   vertex 0.014809999614953995 -0.003381999908015132 0.048386000096797943
   vertex 0.012928999960422516 -0.00054899998940527439 0.049428001046180725
  endloop
 endfacet
 facet normal 0.74031958294140243 0.6017657157291354 -0.29967472113354737
  outer loop
   vertex 0.012350999750196934 -0.00093400001060217619 0.047226998955011368
   vertex 0.012928999960422516 -0.00054899998940527439 0.049428001046180725
   vertex 0.014809999614953995 -0.003381999908015132 0.048386000096797943
  endloop
 endfacet
 facet normal 0.59195313200826971 0.22871332682767531 -0.77284002460859713
  outer loop
   vertex 0.014809999614953995 -0.003381999908015132 0.048386000096797943
   vertex 0.013736999593675137 -0.0031999999191612005 0.047618001699447632
   vertex 0.012350999750196934 -0.00093400001060217619 0.047226998955011368
  endloop
 endfacet
 facet normal 0.54706646945091819 -0.20231623514893504 -0.8122723798072099
  outer loop
   vertex 0.014684000052511692 -0.0040719998069107533 0.048473000526428223
   vertex 0.013736999593675137 -0.0031999999191612005 0.047618001699447632
   vertex 0.014809999614953995 -0.003381999908015132 0.048386000096797943
  endloop
 endfacet
 facet normal 0.30370116727481289 -0.80373232579047393 -0.51164435839296762
  outer loop
   vertex 0.013116000220179558 -0.0045619998127222061 0.048312000930309296
   vertex 0.014684000052511692 -0.0040719998069107533 0.048473000526428223
   vertex 0.015073000453412533 -0.0052020000293850899 0.050478998571634293
  endloop
 endfacet
 facet normal 0.2482073354709412 -0.52725047385785706 -0.81265002087927185
  outer loop
   vertex 0.013116000220179558 -0.0045619998127222061 0.048312000930309296
   vertex 0.013736999593675137 -0.0031999999191612005 0.047618001699447632
   vertex 0.014684000052511692 -0.0040719998069107533 0.048473000526428223
  endloop
 endfacet
 facet normal 0.31638232690133988 -0.94320379457422909 -0.10133521167525762
  outer loop
   vertex 0.015472999773919582 -0.0051569999195635319 0.051309000700712204
   vertex 0.012678000144660473 -0.0060939998365938663 0.051304001361131668
   vertex 0.015073000453412533 -0.0052020000293850899 0.050478998571634293
  endloop
 endfacet
 facet normal 0.18287419280654033 -0.8856950868565644 -0.42673322195898844
  outer loop
   vertex 0.015073000453412533 -0.0052020000293850899 0.050478998571634293
   vertex 0.012678000144660473 -0.0060939998365938663 0.051304001361131668
   vertex 0.013116000220179558 -0.0045619998127222061 0.048312000930309296
  endloop
 endfacet
 facet normal 0.24894650493014453 -0.96615577921936791 -0.067591774381812478
  outer loop
   vertex 0.016370000317692757 -0.0049129999242722988 0.051125001162290573
   vertex 0.015472999773919582 -0.0051569999195635319 0.051309000700712204
   vertex 0.015073000453412533 -0.0052020000293850899 0.050478998571634293
  endloop
 endfacet
 facet normal 0.078616682651616185 0.8300874168140715 0.55206367174067617
  outer loop
   vertex 0.012954000383615494 -0.0012359999818727374 0.050985999405384064
   vertex 0.012260000221431255 -0.0023920000530779362 0.052822999656200409
   vertex 0.014395000413060188 -0.0018479999853298068 0.051701001822948456
  endloop
 endfacet
 facet normal 0.42079293988868594 0.1816536697625892 0.8887830140150188
  outer loop
   vertex 0.014395000413060188 -0.0018479999853298068 0.051701001822948456
   vertex 0.012260000221431255 -0.0023920000530779362 0.052822999656200409
   vertex 0.014188000001013279 -0.0034429999068379402 0.052124999463558197
  endloop
 endfacet
 facet normal 0.43213608626647887 -0.045726051621844684 0.90064839485193482
  outer loop
   vertex 0.014739999547600746 -0.0046080001629889011 0.051800999790430069
   vertex 0.014188000001013279 -0.0034429999068379402 0.052124999463558197
   vertex 0.012562000192701817 -0.0048250001855194569 0.052834998816251755
  endloop
 endfacet
 facet normal 0.45312159929329321 0.26620114764216513 0.85077480289902951
  outer loop
   vertex 0.014188000001013279 -0.0034429999068379402 0.052124999463558197
   vertex 0.012260000221431255 -0.0023920000530779362 0.052822999656200409
   vertex 0.011688999831676483 -0.0032130000181496143 0.053383998572826385
  endloop
 endfacet
 facet normal 0.44433156426781889 -0.063698384788151208 0.89359497355943862
  outer loop
   vertex 0.011688999831676483 -0.0032130000181496143 0.053383998572826385
   vertex 0.012562000192701817 -0.0048250001855194569 0.052834998816251755
   vertex 0.014188000001013279 -0.0034429999068379402 0.052124999463558197
  endloop
 endfacet
 facet normal 0.43637358388731823 -0.20294133322930791 0.87658023623194292
  outer loop
   vertex 0.015472999773919582 -0.0051569999195635319 0.051309000700712204
   vertex 0.014739999547600746 -0.0046080001629889011 0.051800999790430069
   vertex 0.012562000192701817 -0.0048250001855194569 0.052834998816251755
  endloop
 endfacet
 facet normal -0.12504016953119593 -0.74951968381292566 0.65006553483520546
  outer loop
   vertex 0.016188999637961388 -0.0047630001790821552 0.051901001483201981
   vertex 0.014739999547600746 -0.0046080001629889011 0.051800999790430069
   vertex 0.015472999773919582 -0.0051569999195635319 0.051309000700712204
  endloop
 endfacet
 facet normal 0.3013500940554551 -0.92063130905276724 0.2482460747012056
  outer loop
   vertex 0.015472999773919582 -0.0051569999195635319 0.051309000700712204
   vertex 0.016370000317692757 -0.0049129999242722988 0.051125001162290573
   vertex 0.016188999637961388 -0.0047630001790821552 0.051901001483201981
  endloop
 endfacet
 facet normal -0.098651257197892112 0.98788737291246742 0.11977674187161301
  outer loop
   vertex 0.012420999817550182 -0.00048200000310316682 0.048457000404596329
   vertex 0.012138999998569489 -0.00058799999533221126 0.049098998308181763
   vertex 0.012928999960422516 -0.00054899998940527439 0.049428001046180725
  endloop
 endfacet
 facet normal -0.209573849158638 0.89342881624666182 0.39732071686349429
  outer loop
   vertex 0.012928999960422516 -0.00054899998940527439 0.049428001046180725
   vertex 0.012138999998569489 -0.00058799999533221126 0.049098998308181763
   vertex 0.012954000383615494 -0.0012359999818727374 0.050985999405384064
  endloop
 endfacet
 facet normal 0.65328338971576883 0.69785686907819566 -0.29362663878104256
  outer loop
   vertex 0.012420999817550182 -0.00048200000310316682 0.048457000404596329
   vertex 0.012928999960422516 -0.00054899998940527439 0.049428001046180725
   vertex 0.012350999750196934 -0.00093400001060217619 0.047226998955011368
  endloop
 endfacet
 facet normal -0.16104197833913475 0.91000147864097769 0.38205076898738466
  outer loop
   vertex 0.012138999998569489 -0.00058799999533221126 0.049098998308181763
   vertex 0.011359999887645245 -0.0019480000482872128 0.052009999752044678
   vertex 0.012954000383615494 -0.0012359999818727374 0.050985999405384064
  endloop
 endfacet
 facet normal -0.047799634912932196 0.85343746326433645 0.51899873911130534
  outer loop
   vertex 0.011359999887645245 -0.0019480000482872128 0.052009999752044678
   vertex 0.012260000221431255 -0.0023920000530779362 0.052822999656200409
   vertex 0.012954000383615494 -0.0012359999818727374 0.050985999405384064
  endloop
 endfacet
 facet normal -0.7162310597362016 0.66724665279995221 -0.20443818967212959
  outer loop
   vertex 0.012420999817550182 -0.00048200000310316682 0.048457000404596329
   vertex 0.012350999750196934 -0.00093400001060217619 0.047226998955011368
   vertex 0.012138999998569489 -0.00058799999533221126 0.049098998308181763
  endloop
 endfacet
 facet normal 0.78669829549366244 0.400055282255591 -0.47017184412379004
  outer loop
   vertex 0.013736999593675137 -0.0031999999191612005 0.047618001699447632
   vertex 0.012511000037193298 -0.0019819999579340219 0.046603001654148102
   vertex 0.012350999750196934 -0.00093400001060217619 0.047226998955011368
  endloop
 endfacet
 facet normal -0.9702979110958917 -0.0041189747000949899 -0.24187806384699079
  outer loop
   vertex 0.012511000037193298 -0.0019819999579340219 0.046603001654148102
   vertex 0.012222999706864357 -0.0037249999586492777 0.047788001596927643
   vertex 0.012350999750196934 -0.00093400001060217619 0.047226998955011368
  endloop
 endfacet
 facet normal -0.99078945516537809 0.068873877077548565 0.11658749756899232
  outer loop
   vertex 0.012299000285565853 -0.0034950000699609518 0.048298001289367676
   vertex 0.012350999750196934 -0.00093400001060217619 0.047226998955011368
   vertex 0.012222999706864357 -0.0037249999586492777 0.047788001596927643
  endloop
 endfacet
 facet normal -0.96194119607582063 0.22772701522015015 -0.15102828156057732
  outer loop
   vertex 0.012350999750196934 -0.00093400001060217619 0.047226998955011368
   vertex 0.011359999887645245 -0.0019480000482872128 0.052009999752044678
   vertex 0.012138999998569489 -0.00058799999533221126 0.049098998308181763
  endloop
 endfacet
 facet normal -0.97364878195308713 -0.070878465988875386 -0.21675860412065198
  outer loop
   vertex 0.011359999887645245 -0.0019480000482872128 0.052009999752044678
   vertex 0.012350999750196934 -0.00093400001060217619 0.047226998955011368
   vertex 0.012299000285565853 -0.0034950000699609518 0.048298001289367676
  endloop
 endfacet
 facet normal 0.45665895262436096 -0.56031699227744469 -0.69101915252269208
  outer loop
   vertex 0.013736999593675137 -0.0031999999191612005 0.047618001699447632
   vertex 0.013116000220179558 -0.0045619998127222061 0.048312000930309296
   vertex 0.012536000460386276 -0.00381499994546175 0.047322999686002731
  endloop
 endfacet
 facet normal 0.38236053561207983 -0.33330064742714721 -0.86180688047328091
  outer loop
   vertex 0.013736999593675137 -0.0031999999191612005 0.047618001699447632
   vertex 0.012536000460386276 -0.00381499994546175 0.047322999686002731
   vertex 0.012511000037193298 -0.0019819999579340219 0.046603001654148102
  endloop
 endfacet
 facet normal -0.2781358505087928 -0.8378540131609199 -0.46972449509461572
  outer loop
   vertex 0.012678000144660473 -0.0060939998365938663 0.051304001361131668
   vertex 0.012536000460386276 -0.00381499994546175 0.047322999686002731
   vertex 0.013116000220179558 -0.0045619998127222061 0.048312000930309296
  endloop
 endfacet
 facet normal 0.29762530869362674 -0.88964163556709208 0.34634799824819629
  outer loop
   vertex 0.015472999773919582 -0.0051569999195635319 0.051309000700712204
   vertex 0.012269999831914902 -0.0058769998140633106 0.052211999893188477
   vertex 0.012678000144660473 -0.0060939998365938663 0.051304001361131668
  endloop
 endfacet
 facet normal 0.33878286281610559 -0.5472655079027845 0.76532779625597769
  outer loop
   vertex 0.012562000192701817 -0.0048250001855194569 0.052834998816251755
   vertex 0.012269999831914902 -0.0058769998140633106 0.052211999893188477
   vertex 0.015472999773919582 -0.0051569999195635319 0.051309000700712204
  endloop
 endfacet
 facet normal -0.29082580568153082 -0.8347778054617444 -0.46751081940224926
  outer loop
   vertex 0.011688999831676483 -0.0057080001570284367 0.051229998469352722
   vertex 0.012536000460386276 -0.00381499994546175 0.047322999686002731
   vertex 0.012678000144660473 -0.0060939998365938663 0.051304001361131668
  endloop
 endfacet
 facet normal -0.36669581553146807 -0.92858399169555639 0.057148484130887731
  outer loop
   vertex 0.012269999831914902 -0.0058769998140633106 0.052211999893188477
   vertex 0.011688999831676483 -0.0057080001570284367 0.051229998469352722
   vertex 0.012678000144660473 -0.0060939998365938663 0.051304001361131668
  endloop
 endfacet
 facet normal -0.28877425068389001 0.66889274821008848 0.68497585616860468
  outer loop
   vertex 0.011688999831676483 -0.0032130000181496143 0.053383998572826385
   vertex 0.012260000221431255 -0.0023920000530779362 0.052822999656200409
   vertex 0.011359999887645245 -0.0019480000482872128 0.052009999752044678
  endloop
 endfacet
 facet normal -0.11595950610673703 -0.375910418654059 0.91937193240320958
  outer loop
   vertex 0.012562000192701817 -0.0048250001855194569 0.052834998816251755
   vertex 0.011688999831676483 -0.0032130000181496143 0.053383998572826385
   vertex 0.011494000442326069 -0.0053759999573230743 0.052475001662969589
  endloop
 endfacet
 facet normal -0.031806979394232555 -0.50274644314150951 0.86384855731220378
  outer loop
   vertex 0.012562000192701817 -0.0048250001855194569 0.052834998816251755
   vertex 0.011494000442326069 -0.0053759999573230743 0.052475001662969589
   vertex 0.012269999831914902 -0.0058769998140633106 0.052211999893188477
  endloop
 endfacet
 facet normal -0.9848211303284844 -0.11342699108655714 0.13138363273854281
  outer loop
   vertex 0.011359999887645245 -0.0019480000482872128 0.052009999752044678
   vertex 0.011688999831676483 -0.0057080001570284367 0.051229998469352722
   vertex 0.011688999831676483 -0.0032130000181496143 0.053383998572826385
  endloop
 endfacet
 facet normal -0.965719208276131 0.16963761996777385 -0.19649297355934117
  outer loop
   vertex 0.011688999831676483 -0.0057080001570284367 0.051229998469352722
   vertex 0.011494000442326069 -0.0053759999573230743 0.052475001662969589
   vertex 0.011688999831676483 -0.0032130000181496143 0.053383998572826385
  endloop
 endfacet
 facet normal -0.9909951724718582 -0.062103824338266077 -0.11862412545529634
  outer loop
   vertex 0.011819999665021896 -0.0046620001085102558 0.049587998539209366
   vertex 0.011688999831676483 -0.0057080001570284367 0.051229998469352722
   vertex 0.011359999887645245 -0.0019480000482872128 0.052009999752044678
  endloop
 endfacet
 facet normal -0.95682105433426667 0.085700184866781881 -0.27775699504506035
  outer loop
   vertex 0.012299000285565853 -0.0034950000699609518 0.048298001289367676
   vertex 0.011819999665021896 -0.0046620001085102558 0.049587998539209366
   vertex 0.011359999887645245 -0.0019480000482872128 0.052009999752044678
  endloop
 endfacet
 facet normal -0.82901871862077858 -0.21421305653760334 -0.51656628866504617
  outer loop
   vertex 0.012222999706864357 -0.0037249999586492777 0.047788001596927643
   vertex 0.012511000037193298 -0.0019819999579340219 0.046603001654148102
   vertex 0.012536000460386276 -0.00381499994546175 0.047322999686002731
  endloop
 endfacet
 facet normal -0.76702395163959491 -0.48251861407261698 -0.42290666190617188
  outer loop
   vertex 0.011819999665021896 -0.0046620001085102558 0.049587998539209366
   vertex 0.012222999706864357 -0.0037249999586492777 0.047788001596927643
   vertex 0.012536000460386276 -0.00381499994546175 0.047322999686002731
  endloop
 endfacet
 facet normal -0.93335357095535709 0.35825399117439483 -0.022476418587040765
  outer loop
   vertex 0.011819999665021896 -0.0046620001085102558 0.049587998539209366
   vertex 0.012299000285565853 -0.0034950000699609518 0.048298001289367676
   vertex 0.012222999706864357 -0.0037249999586492777 0.047788001596927643
  endloop
 endfacet
 facet normal -0.66931824768553549 -0.60128200424553013 -0.43643216504474358
  outer loop
   vertex 0.011688999831676483 -0.0057080001570284367 0.051229998469352722
   vertex 0.011819999665021896 -0.0046620001085102558 0.049587998539209366
   vertex 0.012536000460386276 -0.00381499994546175 0.047322999686002731
  endloop
 endfacet
 facet normal -0.50016621973017483 -0.85299203456942241 0.14912525474225982
  outer loop
   vertex 0.012269999831914902 -0.0058769998140633106 0.052211999893188477
   vertex 0.011494000442326069 -0.0053759999573230743 0.052475001662969589
   vertex 0.011688999831676483 -0.0057080001570284367 0.051229998469352722
  endloop
 endfacet
endsolid
