solid Visualization Toolkit generated SLA File
 facet normal -0.9132790204671617 -0.33620669883344673 -0.229970620806349
  outer loop
   vertex 0.004118999931961298 -0.04592600092291832 -0.0024649999104440212
   vertex 0.0044979997910559177 -0.044727001339197159 -0.0057230000384151936
   vertex 0.0067920000292360783 -0.051137000322341919 -0.0054620001465082169
  endloop
 endfacet
 facet normal -0.82567716816458803 -0.093856727150453984 -0.55628062049680638
  outer loop
   vertex 0.0012390000047162175 -0.04045800119638443 -0.0016060000052675605
   vertex 0.0031510000117123127 -0.038566999137401581 -0.0047630001790821552
   vertex 0.0044979997910559177 -0.044727001339197159 -0.0057230000384151936
  endloop
 endfacet
 facet normal 0.18334962567442106 -0.16078630855730972 0.96980960901898838
  outer loop
   vertex 0.0075159999541938305 -0.051329001784324646 -0.0040029999800026417
   vertex 0.004118999931961298 -0.04592600092291832 -0.0024649999104440212
   vertex 0.00099500000942498446 -0.043317999690771103 -0.0014420000370591879
  endloop
 endfacet
 facet normal -0.84611667980449801 -0.48154339747618052 0.22847870908185297
  outer loop
   vertex 0.004118999931961298 -0.04592600092291832 -0.0024649999104440212
   vertex 0.00012700000661425292 -0.037641998380422592 0.00021100000594742596
   vertex 0.0012390000047162175 -0.04045800119638443 -0.0016060000052675605
  endloop
 endfacet
 facet normal -0.58423721697180164 -0.39215016778000938 0.71055268644566705
  outer loop
   vertex 0.0044979997910559177 -0.044727001339197159 -0.0057230000384151936
   vertex 0.0021669999696314335 -0.043742001056671143 -0.0070960000157356262
   vertex 0.0046689999289810658 -0.049267001450061798 -0.0080880001187324524
  endloop
 endfacet
 facet normal 0.77299316882251823 0.13270002036002437 -0.62038074240757268
  outer loop
   vertex 0.0031510000117123127 -0.038566999137401581 -0.0047630001790821552
   vertex 0.0021669999696314335 -0.043742001056671143 -0.0070960000157356262
   vertex 0.0016980000073090196 -0.037471000105142593 -0.0063390000723302364
  endloop
 endfacet
 facet normal 0.69102307008720731 -0.19349812288299409 -0.69645214699073787
  outer loop
   vertex 0.0067920000292360783 -0.051137000322341919 -0.0054620001465082169
   vertex 0.0023839999921619892 -0.054591000080108643 -0.0088759995996952057
   vertex 0.0046689999289810658 -0.049267001450061798 -0.0080880001187324524
  endloop
 endfacet
 facet normal 0.73945596374727518 -0.51412918840020316 -0.43459872907492131
  outer loop
   vertex 0.0075159999541938305 -0.051329001784324646 -0.0040029999800026417
   vertex 0.0023839999921619892 -0.054591000080108643 -0.0088759995996952057
   vertex 0.0067920000292360783 -0.051137000322341919 -0.0054620001465082169
  endloop
 endfacet
 facet normal 0.61141336689036752 -0.78210304450172419 -0.12036827891483243
  outer loop
   vertex 0.0023839999921619892 -0.054591000080108643 -0.0088759995996952057
   vertex 0.0075159999541938305 -0.051329001784324646 -0.0040029999800026417
   vertex 0.0027320000808686018 -0.054871000349521637 -0.0052889999933540821
  endloop
 endfacet
 facet normal -0.025556685345657287 -0.31048530015872605 0.95023456799860162
  outer loop
   vertex 0.0027320000808686018 -0.054871000349521637 -0.0052889999933540821
   vertex 0.0075159999541938305 -0.051329001784324646 -0.0040029999800026417
   vertex 0.0025629999581724405 -0.048831000924110413 -0.0033199999015778303
  endloop
 endfacet
 facet normal -0.94896380063950725 -0.14100425572046033 -0.28210903024281309
  outer loop
   vertex 0.0010519999777898192 -0.033831998705863953 -6.9000001531094313e-05
   vertex 0.0017000000225380063 -0.032402999699115753 -0.0029629999771714211
   vertex 0.0031510000117123127 -0.038566999137401581 -0.0047630001790821552
  endloop
 endfacet
 facet normal 0.82115403133338039 -0.10686748884889558 0.56061162728939995
  outer loop
   vertex 8.0999998317565769e-05 -0.031819000840187073 0.0017369999550282955
   vertex 0.0012390000047162175 -0.04045800119638443 -0.0016060000052675605
   vertex 0.0010519999777898192 -0.033831998705863953 -6.9000001531094313e-05
  endloop
 endfacet
 facet normal -0.96230491763915049 -0.15051779803896795 0.22652513759185394
  outer loop
   vertex 0.0017000000225380063 -0.032402999699115753 -0.0029629999771714211
   vertex 0.00091300002532079816 -0.031312998384237289 -0.0055820001289248466
   vertex 0.0016980000073090196 -0.037471000105142593 -0.0063390000723302364
  endloop
 endfacet
 facet normal -0.36986776154564249 -0.39212014649212257 0.84228239307503772
  outer loop
   vertex -0.001766999950632453 -0.043198000639677048 -0.0025989999994635582
   vertex 0.0025629999581724405 -0.048831000924110413 -0.0033199999015778303
   vertex 0.00099500000942498446 -0.043317999690771103 -0.0014420000370591879
  endloop
 endfacet
 facet normal -0.42726696871475806 -0.31242467169350446 0.84843017506599094
  outer loop
   vertex -0.0030930000357329845 -0.037376999855041504 -0.0013129999861121178
   vertex 0.00099500000942498446 -0.043317999690771103 -0.0014420000370591879
   vertex 0.00012700000661425292 -0.037641998380422592 0.00021100000594742596
  endloop
 endfacet
 facet normal -0.048031150609071142 -0.31079706262593121 0.94926192088077654
  outer loop
   vertex 0.0025629999581724405 -0.048831000924110413 -0.0033199999015778303
   vertex 4.7000001359265298e-05 -0.048994999378919601 -0.003501000115647912
   vertex 0.0027320000808686018 -0.054871000349521637 -0.0052889999933540821
  endloop
 endfacet
 facet normal -0.25073776360257055 -0.24725865225080215 0.93594536848616239
  outer loop
   vertex -0.0036869999021291733 -0.031647000461816788 0.00077300000702962279
   vertex 0.00012700000661425292 -0.037641998380422592 0.00021100000594742596
   vertex 8.0999998317565769e-05 -0.031819000840187073 0.0017369999550282955
  endloop
 endfacet
 facet normal -0.81556340778922098 -0.56309033001440489 0.13336269388213917
  outer loop
   vertex 0.0021669999696314335 -0.043742001056671143 -0.0070960000157356262
   vertex 0.0019630000460892916 -0.044787999242544174 -0.012760000303387642
   vertex 0.0054569998756051064 -0.050106998533010483 -0.013850999996066093
  endloop
 endfacet
 facet normal -0.75821842098035463 -0.44534959053251455 0.47620223466357153
  outer loop
   vertex 0.0016980000073090196 -0.037471000105142593 -0.0063390000723302364
   vertex -0.00049000000581145287 -0.038903001695871353 -0.011161999776959419
   vertex 0.0019630000460892916 -0.044787999242544174 -0.012760000303387642
  endloop
 endfacet
 facet normal 0.79575557188966706 -0.57420904873520784 0.19250204715056038
  outer loop
   vertex 0.0046689999289810658 -0.049267001450061798 -0.0080880001187324524
   vertex 0.0018820000113919377 -0.054242998361587524 -0.011409999802708626
   vertex 0.0054569998756051064 -0.050106998533010483 -0.013850999996066093
  endloop
 endfacet
 facet normal 0.97680950546253598 -0.024157804562555282 -0.2127430152008602
  outer loop
   vertex 0.00091300002532079816 -0.031312998384237289 -0.0055820001289248466
   vertex -0.00049000000581145287 -0.038903001695871353 -0.011161999776959419
   vertex -0.0001449999981559813 -0.032280001789331436 -0.010329999960958958
  endloop
 endfacet
 facet normal 0.058814560327887462 -0.98734954868915126 -0.14724712627676831
  outer loop
   vertex 0.00073899998096749187 -0.055048998445272446 -0.0064619998447597027
   vertex 0.0018820000113919377 -0.054242998361587524 -0.011409999802708626
   vertex 0.0023839999921619892 -0.054591000080108643 -0.0088759995996952057
  endloop
 endfacet
 facet normal 0.14140696699766794 -0.98579060706011412 -0.090669447536488867
  outer loop
   vertex 0.0023839999921619892 -0.054591000080108643 -0.0088759995996952057
   vertex 0.0027320000808686018 -0.054871000349521637 -0.0052889999933540821
   vertex 0.00073899998096749187 -0.055048998445272446 -0.0064619998447597027
  endloop
 endfacet
 facet normal -0.67325507582068211 -0.47903158235068621 0.56325513401325089
  outer loop
   vertex -0.0018550000386312604 -0.049532998353242874 -0.0062319999560713768
   vertex 0.0027320000808686018 -0.054871000349521637 -0.0052889999933540821
   vertex 4.7000001359265298e-05 -0.048994999378919601 -0.003501000115647912
  endloop
 endfacet
 facet normal 0.99982954653551792 0.016552184711071068 -0.0081794288230294457
  outer loop
   vertex 0.0016499999910593033 -0.027078000828623772 0.0017010000301524997
   vertex 0.0017000000225380063 -0.032402999699115753 -0.0029629999771714211
   vertex 0.0016029999824240804 -0.025971999391913414 -0.0018060000147670507
  endloop
 endfacet
 facet normal 0.60811184694367526 -0.25119481015512757 0.75306118540121392
  outer loop
   vertex 7.0000000960135367e-06 -0.02602200023829937 0.0033799998927861452
   vertex 0.0010519999777898192 -0.033831998705863953 -6.9000001531094313e-05
   vertex 0.0016499999910593033 -0.027078000828623772 0.0017010000301524997
  endloop
 endfacet
 facet normal 0.96300309708161413 0.061146482962494184 -0.26246169745800402
  outer loop
   vertex 0.0016029999824240804 -0.025971999391913414 -0.0018060000147670507
   vertex 0.00091300002532079816 -0.031312998384237289 -0.0055820001289248466
   vertex 0.00073400000110268593 -0.025133000686764717 -0.0047989999875426292
  endloop
 endfacet
 facet normal -0.1669968784887903 -0.27082541937270144 0.94803250724677179
  outer loop
   vertex -0.0035669999197125435 -0.025845000520348549 0.0028009999077767134
   vertex 8.0999998317565769e-05 -0.031819000840187073 0.0017369999550282955
   vertex 7.0000000960135367e-06 -0.02602200023829937 0.0033799998927861452
  endloop
 endfacet
 facet normal -0.95086640308218084 -0.10769047110998174 0.29026857549804769
  outer loop
   vertex 0.00073400000110268593 -0.025133000686764717 -0.0047989999875426292
   vertex -0.00052399997366592288 -0.025815000757575035 -0.009173000231385231
   vertex -0.0001449999981559813 -0.032280001789331436 -0.010329999960958958
  endloop
 endfacet
 facet normal -0.86216915266504102 -0.32964923103401406 0.38470214019618904
  outer loop
   vertex -0.0029929999727755785 -0.043432999402284622 -0.0055479998700320721
   vertex 4.7000001359265298e-05 -0.048994999378919601 -0.003501000115647912
   vertex -0.001766999950632453 -0.043198000639677048 -0.0025989999994635582
  endloop
 endfacet
 facet normal -0.84605282317584518 -0.29135615624095756 0.44643724152077291
  outer loop
   vertex -0.0047380002215504646 -0.037576999515295029 -0.0045610000379383564
   vertex -0.001766999950632453 -0.043198000639677048 -0.0025989999994635582
   vertex -0.0030930000357329845 -0.037376999855041504 -0.0013129999861121178
  endloop
 endfacet
 facet normal -0.84638772844471666 -0.25746016385548581 0.46619961085966072
  outer loop
   vertex -0.005869000218808651 -0.031677000224590302 -0.0032049999572336674
   vertex -0.0030930000357329845 -0.037376999855041504 -0.0013129999861121178
   vertex -0.0036869999021291733 -0.031647000461816788 0.00077300000702962279
  endloop
 endfacet
 facet normal -0.83761408386393843 -0.1647255744141744 0.52083407304696894
  outer loop
   vertex -0.0064469999633729458 -0.025668999180197716 -0.0017750000115483999
   vertex -0.0036869999021291733 -0.031647000461816788 0.00077300000702962279
   vertex -0.0035669999197125435 -0.025845000520348549 0.0028009999077767134
  endloop
 endfacet
 facet normal -0.27887355730247176 0.12449643938766246 -0.95222380542457508
  outer loop
   vertex 0.0019630000460892916 -0.044787999242544174 -0.012760000303387642
   vertex 0.00027399999089539051 -0.048165999352931976 -0.01270699966698885
   vertex -0.00067699997453019023 -0.042357001453638077 -0.011668999679386616
  endloop
 endfacet
 facet normal -0.15820610937527854 0.15178042268077019 -0.97567081039005377
  outer loop
   vertex -0.00049000000581145287 -0.038903001695871353 -0.011161999776959419
   vertex -0.00067699997453019023 -0.042357001453638077 -0.011668999679386616
   vertex -0.0015409999759867787 -0.036552999168634415 -0.010626000352203846
  endloop
 endfacet
 facet normal 0.57843389925274757 -0.72295790757919298 -0.37781753276413405
  outer loop
   vertex 0.0054569998756051064 -0.050106998533010483 -0.013850999996066093
   vertex 0.0018820000113919377 -0.054242998361587524 -0.011409999802708626
   vertex 0.0010339999571442604 -0.054078001528978348 -0.013024000450968742
  endloop
 endfacet
 facet normal -0.20618732848671897 0.025943467467326516 -0.97816855503910038
  outer loop
   vertex 0.0054569998756051064 -0.050106998533010483 -0.013850999996066093
   vertex 0.0010339999571442604 -0.054078001528978348 -0.013024000450968742
   vertex 0.00027399999089539051 -0.048165999352931976 -0.01270699966698885
  endloop
 endfacet
 facet normal -0.21045608753310502 0.1358206550858668 -0.9681224018027389
  outer loop
   vertex -0.0001449999981559813 -0.032280001789331436 -0.010329999960958958
   vertex -0.0015409999759867787 -0.036552999168634415 -0.010626000352203846
   vertex -0.0025700000114738941 -0.030712999403476715 -0.0095830000936985016
  endloop
 endfacet
 facet normal -0.12956638677870105 0.13633640252724707 -0.98215321450527282
  outer loop
   vertex -0.00052399997366592288 -0.025815000757575035 -0.009173000231385231
   vertex -0.0025700000114738941 -0.030712999403476715 -0.0095830000936985016
   vertex -0.003312000073492527 -0.024840999394655228 -0.008670000359416008
  endloop
 endfacet
 facet normal -0.89961834526401396 -0.41776098191399891 -0.12713219440680243
  outer loop
   vertex -0.0023040000814944506 -0.0474729984998703 -0.0098240002989768982
   vertex 0.00073899998096749187 -0.055048998445272446 -0.0064619998447597027
   vertex -0.0018550000386312604 -0.049532998353242874 -0.0062319999560713768
  endloop
 endfacet
 facet normal 0.69769612401606607 -0.2287853996302367 0.6788794881633935
  outer loop
   vertex 0.00027399999089539051 -0.048165999352931976 -0.01270699966698885
   vertex -0.0023040000814944506 -0.0474729984998703 -0.0098240002989768982
   vertex -0.0028870000969618559 -0.053054999560117722 -0.011106000281870365
  endloop
 endfacet
 facet normal -0.98323783313030999 -0.18157678555512508 -0.016529804859133558
  outer loop
   vertex -0.0032190000638365746 -0.041861001402139664 -0.0093729998916387558
   vertex -0.0018550000386312604 -0.049532998353242874 -0.0062319999560713768
   vertex -0.0029929999727755785 -0.043432999402284622 -0.0055479998700320721
  endloop
 endfacet
 facet normal 0.98732621886135197 -0.15256844482923104 -0.043701340841393405
  outer loop
   vertex 0.0026410000864416361 -0.020723000168800354 0.0033199999015778303
   vertex 0.0016029999824240804 -0.025971999391913414 -0.0018060000147670507
   vertex 0.0026529999449849129 -0.019717000424861908 7.8999997640494257e-05
  endloop
 endfacet
 facet normal 0.6305904121384327 -0.28249475743088148 0.72287789020217574
  outer loop
   vertex 0.00036400000681169331 -0.020385999232530594 0.005437999963760376
   vertex 0.0016499999910593033 -0.027078000828623772 0.0017010000301524997
   vertex 0.0026410000864416361 -0.020723000168800354 0.0033199999015778303
  endloop
 endfacet
 facet normal 0.95263302992404553 -0.071248163028760442 -0.2956586030589331
  outer loop
   vertex 0.0026529999449849129 -0.019717000424861908 7.8999997640494257e-05
   vertex 0.00073400000110268593 -0.025133000686764717 -0.0047989999875426292
   vertex 0.0014979999978095293 -0.018913999199867249 -0.0038360001053661108
  endloop
 endfacet
 facet normal -0.2009622255311076 -0.32474614457055068 0.92420459071362948
  outer loop
   vertex -0.0034099998883903027 -0.020036999136209488 0.0047399997711181641
   vertex 7.0000000960135367e-06 -0.02602200023829937 0.0033799998927861452
   vertex 0.00036400000681169331 -0.020385999232530594 0.005437999963760376
  endloop
 endfacet
 facet normal 0.92589628107446775 0.020443921041761903 -0.37722423409016093
  outer loop
   vertex 0.0014979999978095293 -0.018913999199867249 -0.0038360001053661108
   vertex -0.00052399997366592288 -0.025815000757575035 -0.009173000231385231
   vertex -0.00010299999848939478 -0.019270999357104301 -0.0077849999070167542
  endloop
 endfacet
 facet normal -0.80732776658095728 -0.16711717219010463 0.56594498678456906
  outer loop
   vertex -0.0070839999243617058 -0.01967800036072731 -0.00039500001003034413
   vertex -0.0035669999197125435 -0.025845000520348549 0.0028009999077767134
   vertex -0.0034099998883903027 -0.020036999136209488 0.0047399997711181641
  endloop
 endfacet
 facet normal 0.29194500517130567 -0.016252829782565103 -0.95629700380142635
  outer loop
   vertex -0.00010299999848939478 -0.019270999357104301 -0.0077849999070167542
   vertex -0.003312000073492527 -0.024840999394655228 -0.008670000359416008
   vertex -0.0023789999540895224 -0.018967000767588615 -0.0084849996492266655
  endloop
 endfacet
 facet normal -0.95735154127239297 -0.26644291327757591 -0.11174166808998198
  outer loop
   vertex -0.0046040001325309277 -0.03628699854016304 -0.0087850000709295273
   vertex -0.0029929999727755785 -0.043432999402284622 -0.0055479998700320721
   vertex -0.0047380002215504646 -0.037576999515295029 -0.0045610000379383564
  endloop
 endfacet
 facet normal -0.98170566326685182 -0.16728963627607188 -0.090929468844870895
  outer loop
   vertex -0.0056190001778304577 -0.030758999288082123 -0.007592999842017889
   vertex -0.0047380002215504646 -0.037576999515295029 -0.0045610000379383564
   vertex -0.005869000218808651 -0.031677000224590302 -0.0032049999572336674
  endloop
 endfacet
 facet normal -0.99350636520231839 -0.075273447890115294 -0.085317116367184503
  outer loop
   vertex -0.0060879997909069061 -0.025172000750899315 -0.0063939997926354408
   vertex -0.005869000218808651 -0.031677000224590302 -0.0032049999572336674
   vertex -0.0064469999633729458 -0.025668999180197716 -0.0017750000115483999
  endloop
 endfacet
 facet normal -0.99128223415787198 -0.081564601005793227 -0.10347341738699634
  outer loop
   vertex -0.0065879998728632927 -0.019565999507904053 -0.0052350000478327274
   vertex -0.0064469999633729458 -0.025668999180197716 -0.0017750000115483999
   vertex -0.0070839999243617058 -0.01967800036072731 -0.00039500001003034413
  endloop
 endfacet
 facet normal -0.6748665173187105 -0.050870198579622196 -0.73618435646146729
  outer loop
   vertex -0.00067699997453019023 -0.042357001453638077 -0.011668999679386616
   vertex -0.0023040000814944506 -0.0474729984998703 -0.0098240002989768982
   vertex -0.0032190000638365746 -0.041861001402139664 -0.0093729998916387558
  endloop
 endfacet
 facet normal -0.51721837585373298 -0.038322648632954918 -0.8549950445944009
  outer loop
   vertex -0.0015409999759867787 -0.036552999168634415 -0.010626000352203846
   vertex -0.0032190000638365746 -0.041861001402139664 -0.0093729998916387558
   vertex -0.0046040001325309277 -0.03628699854016304 -0.0087850000709295273
  endloop
 endfacet
 facet normal -0.54566563973171645 0.079689294779716119 -0.83420538592944138
  outer loop
   vertex -0.0025700000114738941 -0.030712999403476715 -0.0095830000936985016
   vertex -0.0046040001325309277 -0.03628699854016304 -0.0087850000709295273
   vertex -0.0056190001778304577 -0.030758999288082123 -0.007592999842017889
  endloop
 endfacet
 facet normal -0.63798960830789087 0.11000495202841634 -0.76214707912605018
  outer loop
   vertex -0.003312000073492527 -0.024840999394655228 -0.008670000359416008
   vertex -0.0056190001778304577 -0.030758999288082123 -0.007592999842017889
   vertex -0.0060879997909069061 -0.025172000750899315 -0.0063939997926354408
  endloop
 endfacet
 facet normal -0.61713077007263484 0.10614865506964076 -0.77966792652799499
  outer loop
   vertex -0.0023789999540895224 -0.018967000767588615 -0.0084849996492266655
   vertex -0.0060879997909069061 -0.025172000750899315 -0.0063939997926354408
   vertex -0.0065879998728632927 -0.019565999507904053 -0.0052350000478327274
  endloop
 endfacet
 facet normal 0.85111286563527788 -0.50589292124185059 0.14028272234132111
  outer loop
   vertex 0.0049769999459385872 -0.014619999565184116 0.0043600001372396946
   vertex 0.0026529999449849129 -0.019717000424861908 7.8999997640494257e-05
   vertex 0.0057950001209974289 -0.014089000411331654 0.0013119999784976244
  endloop
 endfacet
 facet normal 0.6281933671260217 -0.3581537035290403 0.69072354683136716
  outer loop
   vertex 0.0017290000105276704 -0.014833999797701836 0.0072030001319944859
   vertex 0.0026410000864416361 -0.020723000168800354 0.0033199999015778303
   vertex 0.0049769999459385872 -0.014619999565184116 0.0043600001372396946
  endloop
 endfacet
 facet normal 0.79993424681212255 -0.58880023716405749 -0.11584248569791725
  outer loop
   vertex 0.0057950001209974289 -0.014089000411331654 0.0013119999784976244
   vertex 0.0014979999978095293 -0.018913999199867249 -0.0038360001053661108
   vertex 0.0051839998923242092 -0.013922000303864479 -0.0037559999618679285
  endloop
 endfacet
 facet normal -0.008261864140772639 -0.30110710416575071 0.9535545361550305
  outer loop
   vertex -0.0044300002045929432 -0.014512999914586544 0.0072510000318288803
   vertex 0.00036400000681169331 -0.020385999232530594 0.005437999963760376
   vertex 0.0017290000105276704 -0.014833999797701836 0.0072030001319944859
  endloop
 endfacet
 facet normal 0.78184751061246882 -0.44029090889318495 -0.44142766756864965
  outer loop
   vertex 0.0051839998923242092 -0.013922000303864479 -0.0037559999618679285
   vertex -0.00010299999848939478 -0.019270999357104301 -0.0077849999070167542
   vertex 0.0029649999924004078 -0.013438000343739986 -0.0081690000370144844
  endloop
 endfacet
 facet normal -0.85005225078259739 -0.33986433447542314 0.40237222206685436
  outer loop
   vertex -0.0075159999541938305 -0.013763000257313251 0.0013650000328198075
   vertex -0.0034099998883903027 -0.020036999136209488 0.0047399997711181641
   vertex -0.0044300002045929432 -0.014512999914586544 0.0072510000318288803
  endloop
 endfacet
 facet normal 0.14061987917552832 -0.079512285185296919 -0.98686566770015471
  outer loop
   vertex 0.0029649999924004078 -0.013438000343739986 -0.0081690000370144844
   vertex -0.0023789999540895224 -0.018967000767588615 -0.0084849996492266655
   vertex -0.0023759999312460423 -0.013028999790549278 -0.0089630000293254852
  endloop
 endfacet
 facet normal -0.99755863836377578 -0.066741403781927958 -0.0205511081702974
  outer loop
   vertex -0.0073879999108612537 -0.014001999981701374 -0.0040719998069107533
   vertex -0.0070839999243617058 -0.01967800036072731 -0.00039500001003034413
   vertex -0.0075159999541938305 -0.013763000257313251 0.0013650000328198075
  endloop
 endfacet
 facet normal -0.70233321914061864 0.047478383401694649 -0.71026322754394189
  outer loop
   vertex -0.0023759999312460423 -0.013028999790549278 -0.0089630000293254852
   vertex -0.0065879998728632927 -0.019565999507904053 -0.0052350000478327274
   vertex -0.0073879999108612537 -0.014001999981701374 -0.0040719998069107533
  endloop
 endfacet
 facet normal 0.85660187268039767 -0.16795142116505168 0.48787862409525107
  outer loop
   vertex 0.0039029999170452356 -0.0084619997069239616 0.0065709999762475491
   vertex 0.0057950001209974289 -0.014089000411331654 0.0013119999784976244
   vertex 0.0058829998597502708 -0.0081179998815059662 0.0032130000181496143
  endloop
 endfacet
 facet normal 0.6567128066893968 -0.15076874537725776 0.73891614879328671
  outer loop
   vertex 0.0039029999170452356 -0.0084619997069239616 0.0065709999762475491
   vertex 0.0017290000105276704 -0.014833999797701836 0.0072030001319944859
   vertex 0.0049769999459385872 -0.014619999565184116 0.0043600001372396946
  endloop
 endfacet
 facet normal 0.98610415651920591 0.06487487993256523 -0.15293738081084229
  outer loop
   vertex 0.0058829998597502708 -0.0081179998815059662 0.0032130000181496143
   vertex 0.0051839998923242092 -0.013922000303864479 -0.0037559999618679285
   vertex 0.0049740001559257507 -0.0078280000016093254 -0.0025249999016523361
  endloop
 endfacet
 facet normal 0.05577177388297673 0.079685462860643194 0.99525862781823249
  outer loop
   vertex -0.0037090000696480274 -0.0085049998015165329 0.007000999990850687
   vertex 0.0017290000105276704 -0.014833999797701836 0.0072030001319944859
   vertex 0.0039029999170452356 -0.0084619997069239616 0.0065709999762475491
  endloop
 endfacet
 facet normal 0.94639893627398464 -0.014275294321523406 -0.32268447342799789
  outer loop
   vertex 0.0049740001559257507 -0.0078280000016093254 -0.0025249999016523361
   vertex 0.0029649999924004078 -0.013438000343739986 -0.0081690000370144844
   vertex 0.0034610000438988209 -0.0070699998177587986 -0.0069960001856088638
  endloop
 endfacet
 facet normal -0.85872731045560247 0.12374488983077707 0.49726713999464728
  outer loop
   vertex -0.0067920000292360783 -0.0076250000856816769 0.00145800004247576
   vertex -0.0044300002045929432 -0.014512999914586544 0.0072510000318288803
   vertex -0.0037090000696480274 -0.0085049998015165329 0.007000999990850687
  endloop
 endfacet
 facet normal 0.13505499494454057 0.18878338209927548 -0.97268750530871362
  outer loop
   vertex 0.0034610000438988209 -0.0070699998177587986 -0.0069960001856088638
   vertex -0.0023759999312460423 -0.013028999790549278 -0.0089630000293254852
   vertex -0.0020290000829845667 -0.0072849998250603676 -0.007799999788403511
  endloop
 endfacet
 facet normal -0.99273654464966155 0.11748927490473278 -0.025892531730417445
  outer loop
   vertex -0.0067429998889565468 -0.0083250002935528755 -0.0035969999153167009
   vertex -0.0075159999541938305 -0.013763000257313251 0.0013650000328198075
   vertex -0.0067920000292360783 -0.0076250000856816769 0.00145800004247576
  endloop
 endfacet
 facet normal -0.67589688722986396 0.1373773382833674 -0.72407932214582549
  outer loop
   vertex -0.0020290000829845667 -0.0072849998250603676 -0.007799999788403511
   vertex -0.0073879999108612537 -0.014001999981701374 -0.0040719998069107533
   vertex -0.0067429998889565468 -0.0083250002935528755 -0.0035969999153167009
  endloop
 endfacet
 facet normal -0.010449861730181097 0.99629562431227348 -0.085357069807003
  outer loop
   vertex 0.0039029999170452356 -0.0084619997069239616 0.0065709999762475491
   vertex 0.00030300000798888505 -0.0090269995853304863 0.00041700000292621553
   vertex -0.0037090000696480274 -0.0085049998015165329 0.007000999990850687
  endloop
 endfacet
 facet normal -0.163156147351047 0.98658826382555431 0.0048651067040633303
  outer loop
   vertex 0.0058829998597502708 -0.0081179998815059662 0.0032130000181496143
   vertex 0.00030300000798888505 -0.0090269995853304863 0.00041700000292621553
   vertex 0.0039029999170452356 -0.0084619997069239616 0.0065709999762475491
  endloop
 endfacet
 facet normal -0.19965539476947927 0.9765140105176211 0.080982162247217299
  outer loop
   vertex 0.0049740001559257507 -0.0078280000016093254 -0.0025249999016523361
   vertex 0.00030300000798888505 -0.0090269995853304863 0.00041700000292621553
   vertex 0.0058829998597502708 -0.0081179998815059662 0.0032130000181496143
  endloop
 endfacet
 facet normal -0.12002554887809552 0.97131335496207116 0.20529060886664408
  outer loop
   vertex 0.0034610000438988209 -0.0070699998177587986 -0.0069960001856088638
   vertex 0.00030300000798888505 -0.0090269995853304863 0.00041700000292621553
   vertex 0.0049740001559257507 -0.0078280000016093254 -0.0025249999016523361
  endloop
 endfacet
 facet normal 0.19990467154034089 0.97881747349815718 0.044209454543487785
  outer loop
   vertex -0.0037090000696480274 -0.0085049998015165329 0.007000999990850687
   vertex 0.00030300000798888505 -0.0090269995853304863 0.00041700000292621553
   vertex -0.0067920000292360783 -0.0076250000856816769 0.00145800004247576
  endloop
 endfacet
 facet normal -0.071165064359731731 0.9714889760358314 0.2261519468311666
  outer loop
   vertex -0.0020290000829845667 -0.0072849998250603676 -0.007799999788403511
   vertex 0.00030300000798888505 -0.0090269995853304863 0.00041700000292621553
   vertex 0.0034610000438988209 -0.0070699998177587986 -0.0069960001856088638
  endloop
 endfacet
 facet normal 0.17324164819555943 0.97579686238069263 -0.13344592424829527
  outer loop
   vertex -0.0067920000292360783 -0.0076250000856816769 0.00145800004247576
   vertex 0.00030300000798888505 -0.0090269995853304863 0.00041700000292621553
   vertex -0.0067429998889565468 -0.0083250002935528755 -0.0035969999153167009
  endloop
 endfacet
 facet normal -0.024627300887029448 0.97652071958876652 0.21401116855168398
  outer loop
   vertex -0.0067429998889565468 -0.0083250002935528755 -0.0035969999153167009
   vertex 0.00030300000798888505 -0.0090269995853304863 0.00041700000292621553
   vertex -0.0020290000829845667 -0.0072849998250603676 -0.007799999788403511
  endloop
 endfacet
endsolid
