solid Visualization Toolkit generated SLA File
 facet normal 0.34514570826940399 -0.28543920478650642 -0.89409110298339189
  outer loop
   vertex -0.0027139999438077211 -0.077016003429889679 0.0016629999736323953
   vertex -0.0024500000290572643 -0.085222996771335602 0.0043850000947713852
   vertex -0.0077570001594722271 -0.080821000039577484 0.00093099998775869608
  endloop
 endfacet
 facet normal 0.3049274977439751 -0.13096724983531896 -0.9433275150180721
  outer loop
   vertex -0.0026400000788271427 -0.070390999317169189 0.0011370000429451466
   vertex -0.0077570001594722271 -0.080821000039577484 0.00093099998775869608
   vertex -0.0076219998300075531 -0.074052996933460236 3.5000000934815034e-05
  endloop
 endfacet
 facet normal 0.18089377830768791 0.014794738704894821 0.98339135479025996
  outer loop
   vertex 0.0050420002080500126 -0.079323001205921173 0.00027099999715574086
   vertex -0.0027139999438077211 -0.077016003429889679 0.0016629999736323953
   vertex -0.0028639999218285084 -0.08369000256061554 0.001791000016964972
  endloop
 endfacet
 facet normal -0.11270208062671727 -0.077391801921644618 -0.9906102916978653
  outer loop
   vertex -0.0027139999438077211 -0.077016003429889679 0.0016629999736323953
   vertex -0.0026400000788271427 -0.070390999317169189 0.0011370000429451466
   vertex 0.0057959998957812786 -0.072244003415107727 0.00032200000714510679
  endloop
 endfacet
 facet normal -0.77748240323221607 -0.54609462342974646 0.31193232427143713
  outer loop
   vertex -0.0077570001594722271 -0.080821000039577484 0.00093099998775869608
   vertex -0.0024200000334531069 -0.084582000970840454 0.0076489998027682304
   vertex -0.0048730000853538513 -0.079054996371269226 0.011211000382900238
  endloop
 endfacet
 facet normal -0.95072610960598569 -0.29243284167788441 0.1029703725430992
  outer loop
   vertex -0.0076219998300075531 -0.074052996933460236 3.5000000934815034e-05
   vertex -0.0048730000853538513 -0.079054996371269226 0.011211000382900238
   vertex -0.0066619999706745148 -0.072623997926712036 0.01295700017362833
  endloop
 endfacet
 facet normal 0.1653727297389819 -0.96803269034770245 0.18858571175162461
  outer loop
   vertex -0.0024500000290572643 -0.085222996771335602 0.0043850000947713852
   vertex 4.6000001020729542e-05 -0.084278002381324768 0.0070469998754560947
   vertex -0.0024200000334531069 -0.084582000970840454 0.0076489998027682304
  endloop
 endfacet
 facet normal 0.691159670006813 -0.56846472947065307 -0.44625795444331373
  outer loop
   vertex -0.0028639999218285084 -0.08369000256061554 0.001791000016964972
   vertex 4.6000001020729542e-05 -0.084278002381324768 0.0070469998754560947
   vertex -0.0024500000290572643 -0.085222996771335602 0.0043850000947713852
  endloop
 endfacet
 facet normal -0.053777925406485946 -0.99521629302988612 -0.081562643574286151
  outer loop
   vertex 0.0019120000069960952 -0.084175996482372284 0.0045719998888671398
   vertex 4.6000001020729542e-05 -0.084278002381324768 0.0070469998754560947
   vertex -0.0028639999218285084 -0.08369000256061554 0.001791000016964972
  endloop
 endfacet
 facet normal 0.23466252386903211 -0.26256760085891723 0.93594431184264815
  outer loop
   vertex -0.0035759999882429838 -0.06381399929523468 0.001892999978736043
   vertex -0.0084039997309446335 -0.067252002656459808 0.0021389999892562628
   vertex -0.0076219998300075531 -0.074052996933460236 3.5000000934815034e-05
  endloop
 endfacet
 facet normal -0.16224477362322703 -0.13543925310832725 0.97741129630744816
  outer loop
   vertex 0.0031260000541806221 -0.065830998122692108 0.0027260000351816416
   vertex -0.0035759999882429838 -0.06381399929523468 0.001892999978736043
   vertex -0.0026400000788271427 -0.070390999317169189 0.0011370000429451466
  endloop
 endfacet
 facet normal -0.98965566913900804 -0.076431908997984369 0.12140765967576392
  outer loop
   vertex -0.0084039997309446335 -0.067252002656459808 0.0021389999892562628
   vertex -0.0066619999706745148 -0.072623997926712036 0.01295700017362833
   vertex -0.0072229998186230659 -0.065780997276306152 0.012691999785602093
  endloop
 endfacet
 facet normal 0.49378869875745512 -0.73304627567532343 -0.46777759533560059
  outer loop
   vertex 0.0061420002020895481 -0.080542996525764465 0.0033440000843256712
   vertex 0.0019120000069960952 -0.084175996482372284 0.0045719998888671398
   vertex 0.0050420002080500126 -0.079323001205921173 0.00027099999715574086
  endloop
 endfacet
 facet normal 0.95659294810653939 -0.099916520431615599 -0.2737638043600325
  outer loop
   vertex 0.0068490002304315567 -0.073968999087810516 0.004631000105291605
   vertex 0.0050420002080500126 -0.079323001205921173 0.00027099999715574086
   vertex 0.0057959998957812786 -0.072244003415107727 0.00032200000714510679
  endloop
 endfacet
 facet normal -0.64325624613846888 -0.57234845247965849 -0.50856528661321887
  outer loop
   vertex 0.0015109999803826213 -0.084876000881195068 0.0058670002035796642
   vertex 4.6000001020729542e-05 -0.084278002381324768 0.0070469998754560947
   vertex 0.0019120000069960952 -0.084175996482372284 0.0045719998888671398
  endloop
 endfacet
 facet normal -0.8839211013032936 -0.43363478403802436 0.17505530766894264
  outer loop
   vertex 0.004155999980866909 -0.066996000707149506 0.0050409999676048756
   vertex 0.0031260000541806221 -0.065830998122692108 0.0027260000351816416
   vertex 0.0057959998957812786 -0.072244003415107727 0.00032200000714510679
  endloop
 endfacet
 facet normal -0.41556679119674955 -0.43236924277967381 0.80022564314858646
  outer loop
   vertex -0.0048730000853538513 -0.079054996371269226 0.011211000382900238
   vertex -0.002125999890267849 -0.084389999508857727 0.009754999540746212
   vertex -0.00083700002869591117 -0.078607000410556793 0.013549000024795532
  endloop
 endfacet
 facet normal -0.26426766120229389 -0.16323620294422003 0.95053487326400765
  outer loop
   vertex -0.0066619999706745148 -0.072623997926712036 0.01295700017362833
   vertex -0.00083700002869591117 -0.078607000410556793 0.013549000024795532
   vertex -0.00032399999327026308 -0.071884997189044952 0.014845999889075756
  endloop
 endfacet
 facet normal 0.13901431608821446 -0.98776719144653047 0.070646977460889826
  outer loop
   vertex -0.0024200000334531069 -0.084582000970840454 0.0076489998027682304
   vertex 4.6000001020729542e-05 -0.084278002381324768 0.0070469998754560947
   vertex -0.002125999890267849 -0.084389999508857727 0.009754999540746212
  endloop
 endfacet
 facet normal -0.33100004171600006 -0.041439949397566199 0.94272037369409456
  outer loop
   vertex -0.0072229998186230659 -0.065780997276306152 0.012691999785602093
   vertex -0.00032399999327026308 -0.071884997189044952 0.014845999889075756
   vertex -0.002082000020891428 -0.065099999308586121 0.014526999555528164
  endloop
 endfacet
 facet normal -0.20217132125737802 -0.9516504495191549 0.23127511494113781
  outer loop
   vertex 0.0024689999409019947 -0.083852000534534454 0.010917999781668186
   vertex 4.6000001020729542e-05 -0.084278002381324768 0.0070469998754560947
   vertex 0.0015109999803826213 -0.084876000881195068 0.0058670002035796642
  endloop
 endfacet
 facet normal -0.68017159840519326 -0.54867849036013638 0.48612602372126318
  outer loop
   vertex 0.0028679999522864819 -0.082836002111434937 0.012622999958693981
   vertex 4.6000001020729542e-05 -0.084278002381324768 0.0070469998754560947
   vertex 0.0024689999409019947 -0.083852000534534454 0.010917999781668186
  endloop
 endfacet
 facet normal 0.22137546417191728 -0.9654278075019046 0.13763012884079448
  outer loop
   vertex -0.002125999890267849 -0.084389999508857727 0.009754999540746212
   vertex 4.6000001020729542e-05 -0.084278002381324768 0.0070469998754560947
   vertex 0.0028679999522864819 -0.082836002111434937 0.012622999958693981
  endloop
 endfacet
 facet normal 0.29197104286451669 -0.17579441895310124 0.94013256107505838
  outer loop
   vertex -0.0045590000227093697 -0.057208001613616943 0.0028230000752955675
   vertex -0.0087270000949501991 -0.060279998928308487 0.0035429999697953463
   vertex -0.0084039997309446335 -0.067252002656459808 0.0021389999892562628
  endloop
 endfacet
 facet normal -0.31530651988062275 -0.17814378919520271 0.932119406992444
  outer loop
   vertex 0.00027499999850988388 -0.059213001281023026 0.004075000062584877
   vertex -0.0045590000227093697 -0.057208001613616943 0.0028230000752955675
   vertex -0.0035759999882429838 -0.06381399929523468 0.001892999978736043
  endloop
 endfacet
 facet normal -0.98935206026934819 -0.035925001396039401 0.14103862986958748
  outer loop
   vertex -0.0087270000949501991 -0.060279998928308487 0.0035429999697953463
   vertex -0.0072229998186230659 -0.065780997276306152 0.012691999785602093
   vertex -0.0075989998877048492 -0.058880999684333801 0.011811999604105949
  endloop
 endfacet
 facet normal -0.70929184445888938 -0.42083251882554024 0.56551310372356334
  outer loop
   vertex 0.0021180000621825457 -0.060355998575687408 0.0055359997786581516
   vertex 0.00027499999850988388 -0.059213001281023026 0.004075000062584877
   vertex 0.0031260000541806221 -0.065830998122692108 0.0027260000351816416
  endloop
 endfacet
 facet normal -0.62022704680916507 -0.22173006607597306 0.75243218179735394
  outer loop
   vertex -0.0075989998877048492 -0.058880999684333801 0.011811999604105949
   vertex -0.002082000020891428 -0.065099999308586121 0.014526999555528164
   vertex -0.0045239999890327454 -0.058577999472618103 0.014436000026762486
  endloop
 endfacet
 facet normal 0.69251128421082919 -0.72110747440067524 0.020787775353504439
  outer loop
   vertex 0.0075830002315342426 -0.078941002488136292 0.010910999961197376
   vertex 0.0024689999409019947 -0.083852000534534454 0.010917999781668186
   vertex 0.0061420002020895481 -0.080542996525764465 0.0033440000843256712
  endloop
 endfacet
 facet normal 0.96202477378596851 -0.05096233860209342 -0.26816258998275933
  outer loop
   vertex 0.0086000002920627594 -0.072628997266292572 0.010657999664545059
   vertex 0.0061420002020895481 -0.080542996525764465 0.0033440000843256712
   vertex 0.0068490002304315567 -0.073968999087810516 0.004631000105291605
  endloop
 endfacet
 facet normal 0.68794103458667721 -0.72557628109120043 0.016619062839870923
  outer loop
   vertex 0.0015109999803826213 -0.084876000881195068 0.0058670002035796642
   vertex 0.0061420002020895481 -0.080542996525764465 0.0033440000843256712
   vertex 0.0024689999409019947 -0.083852000534534454 0.010917999781668186
  endloop
 endfacet
 facet normal -0.92474417228328565 -0.3637271312769933 0.11203030751144935
  outer loop
   vertex 0.0045469999313354492 -0.066624999046325684 0.0094729997217655182
   vertex 0.004155999980866909 -0.066996000707149506 0.0050409999676048756
   vertex 0.0068490002304315567 -0.073968999087810516 0.004631000105291605
  endloop
 endfacet
 facet normal -0.94227387057491618 -0.27496464714908841 -0.19108740316918729
  outer loop
   vertex 0.0012140000471845269 -0.060671001672744751 0.010447000153362751
   vertex 0.0021180000621825457 -0.060355998575687408 0.0055359997786581516
   vertex 0.004155999980866909 -0.066996000707149506 0.0050409999676048756
  endloop
 endfacet
 facet normal -0.18273769011706242 -0.36038798228695662 0.91472806824422781
  outer loop
   vertex -0.00083700002869591117 -0.078607000410556793 0.013549000024795532
   vertex 0.0028679999522864819 -0.082836002111434937 0.012622999958693981
   vertex 0.0072559998370707035 -0.077982001006603241 0.015412000007927418
  endloop
 endfacet
 facet normal -0.03080101422867455 0.054358282864750224 0.99804632888783318
  outer loop
   vertex -0.00032399999327026308 -0.071884997189044952 0.014845999889075756
   vertex 0.0072559998370707035 -0.077982001006603241 0.015412000007927418
   vertex 0.0069309999234974384 -0.07107900083065033 0.015026000328361988
  endloop
 endfacet
 facet normal -0.5494394349178261 -0.83332037503009448 -0.060773842373857329
  outer loop
   vertex -0.002082000020891428 -0.065099999308586121 0.014526999555528164
   vertex 0.0015869999770075083 -0.067360997200012207 0.012358999811112881
   vertex 0.0069309999234974384 -0.07107900083065033 0.015026000328361988
  endloop
 endfacet
 facet normal 0.51617035031939207 0.16017070431205876 0.84137596526840208
  outer loop
   vertex -0.0045239999890327454 -0.058577999472618103 0.014436000026762486
   vertex 0.0015869999770075083 -0.067360997200012207 0.012358999811112881
   vertex -0.0002730000123847276 -0.060205999761819839 0.012137999758124352
  endloop
 endfacet
 facet normal 0.67881328603690472 -0.70658800758337925 0.19986472985279249
  outer loop
   vertex 0.0072559998370707035 -0.077982001006603241 0.015412000007927418
   vertex 0.0024689999409019947 -0.083852000534534454 0.010917999781668186
   vertex 0.0075830002315342426 -0.078941002488136292 0.010910999961197376
  endloop
 endfacet
 facet normal 0.42525331622214235 -0.13512371415764149 0.89493083470976376
  outer loop
   vertex -0.0048420000821352005 -0.050537001341581345 0.0031679999083280563
   vertex -0.0092989997938275337 -0.053298000246286392 0.0048690000548958778
   vertex -0.0087270000949501991 -0.060279998928308487 0.0035429999697953463
  endloop
 endfacet
 facet normal -0.26819415019719556 -0.061098868388147466 0.96142541368620571
  outer loop
   vertex -0.0010420000180602074 -0.052110999822616577 0.0041279997676610947
   vertex -0.0048420000821352005 -0.050537001341581345 0.0031679999083280563
   vertex -0.0045590000227093697 -0.057208001613616943 0.0028230000752955675
  endloop
 endfacet
 facet normal -0.98190965454200052 -0.096075477663729869 0.16316535449933986
  outer loop
   vertex -0.0092989997938275337 -0.053298000246286392 0.0048690000548958778
   vertex -0.0075989998877048492 -0.058880999684333801 0.011811999604105949
   vertex -0.0083659999072551727 -0.052055999636650085 0.011215000413358212
  endloop
 endfacet
 facet normal -0.81010468573033401 -0.15444706197363703 0.56557625763947017
  outer loop
   vertex 0.0011970000341534615 -0.053509999066591263 0.0069530000910162926
   vertex -0.0010420000180602074 -0.052110999822616577 0.0041279997676610947
   vertex 0.00027499999850988388 -0.059213001281023026 0.004075000062584877
  endloop
 endfacet
 facet normal -0.76563989130391918 -0.14106948825644111 0.62761051323825723
  outer loop
   vertex -0.0083659999072551727 -0.052055999636650085 0.011215000413358212
   vertex -0.0045239999890327454 -0.058577999472618103 0.014436000026762486
   vertex -0.0066019999794661999 -0.052037999033927917 0.013371000066399574
  endloop
 endfacet
 facet normal -0.96701216246010724 -0.080038935826214269 -0.24182896105726087
  outer loop
   vertex 0.00018600000475998968 -0.053961001336574554 0.011145000346004963
   vertex 0.0011970000341534615 -0.053509999066591263 0.0069530000910162926
   vertex 0.0021180000621825457 -0.060355998575687408 0.0055359997786581516
  endloop
 endfacet
 facet normal 0.11166979502010234 -0.063179641389411526 0.99173493928270651
  outer loop
   vertex -0.0066019999794661999 -0.052037999033927917 0.013371000066399574
   vertex -0.0002730000123847276 -0.060205999761819839 0.012137999758124352
   vertex -0.0013030000263825059 -0.052985001355409622 0.012714000418782234
  endloop
 endfacet
 facet normal 0.90974802077977512 -0.13078666189839097 0.39402206506331316
  outer loop
   vertex 0.0069309999234974384 -0.07107900083065033 0.015026000328361988
   vertex 0.0075830002315342426 -0.078941002488136292 0.010910999961197376
   vertex 0.0086000002920627594 -0.072628997266292572 0.010657999664545059
  endloop
 endfacet
 facet normal -0.53880546308593169 -0.49784925894775395 -0.67958427609379457
  outer loop
   vertex 0.0015869999770075083 -0.067360997200012207 0.012358999811112881
   vertex 0.0045469999313354492 -0.066624999046325684 0.0094729997217655182
   vertex 0.0086000002920627594 -0.072628997266292572 0.010657999664545059
  endloop
 endfacet
 facet normal -0.75235318847273569 -0.32767342430001689 -0.57148473890595675
  outer loop
   vertex -0.0002730000123847276 -0.060205999761819839 0.012137999758124352
   vertex 0.0012140000471845269 -0.060671001672744751 0.010447000153362751
   vertex 0.0045469999313354492 -0.066624999046325684 0.0094729997217655182
  endloop
 endfacet
 facet normal 0.73790147237579706 0.042985538165139239 0.67353816564043656
  outer loop
   vertex -0.0013030000263825059 -0.052985001355409622 0.012714000418782234
   vertex 0.0012140000471845269 -0.060671001672744751 0.010447000153362751
   vertex 0.00018600000475998968 -0.053961001336574554 0.011145000346004963
  endloop
 endfacet
 facet normal 0.43610951722263686 -0.088943167838760925 0.89548735439571925
  outer loop
   vertex -0.0044289999641478062 -0.043877001851797104 0.0034330000635236502
   vertex -0.0092169996351003647 -0.046250998973846436 0.0055289999581873417
   vertex -0.0092989997938275337 -0.053298000246286392 0.0048690000548958778
  endloop
 endfacet
 facet normal -0.36992739771551086 -0.014022991346012191 0.92895482997460099
  outer loop
   vertex -0.00066899997182190418 -0.044957000762224197 0.0049140001647174358
   vertex -0.0044289999641478062 -0.043877001851797104 0.0034330000635236502
   vertex -0.0048420000821352005 -0.050537001341581345 0.0031679999083280563
  endloop
 endfacet
 facet normal -0.99442626373734877 -0.06289430194265469 0.084620994868431165
  outer loop
   vertex -0.0092169996351003647 -0.046250998973846436 0.0055289999581873417
   vertex -0.0083659999072551727 -0.052055999636650085 0.011215000413358212
   vertex -0.0088250003755092621 -0.045200999826192856 0.010916000232100487
  endloop
 endfacet
 facet normal -0.87875544937705186 -0.0066150930186289611 0.47722646692580933
  outer loop
   vertex 0.00085499999113380909 -0.046491000801324844 0.0076990001834928989
   vertex -0.00066899997182190418 -0.044957000762224197 0.0049140001647174358
   vertex -0.0010420000180602074 -0.052110999822616577 0.0041279997676610947
  endloop
 endfacet
 facet normal -0.70116316968188275 0.027847795085046669 0.71245681257923033
  outer loop
   vertex -0.0088250003755092621 -0.045200999826192856 0.010916000232100487
   vertex -0.0066019999794661999 -0.052037999033927917 0.013371000066399574
   vertex -0.0074040000326931477 -0.045239999890327454 0.012315999716520309
  endloop
 endfacet
 facet normal 0.98136115090119636 0.027603865258956334 0.19017969955977082
  outer loop
   vertex 0.0001500000071246177 -0.046897999942302704 0.011396000161767006
   vertex 0.0011970000341534615 -0.053509999066591263 0.0069530000910162926
   vertex 0.00085499999113380909 -0.046491000801324844 0.0076990001834928989
  endloop
 endfacet
 facet normal -0.18261459738678401 -0.093557007564734798 0.97872314530555315
  outer loop
   vertex -0.0074040000326931477 -0.045239999890327454 0.012315999716520309
   vertex -0.0013030000263825059 -0.052985001355409622 0.012714000418782234
   vertex -0.0020659998990595341 -0.046149998903274536 0.013225000351667404
  endloop
 endfacet
 facet normal 0.63146400408637193 -0.024323664544461859 0.7750235937610771
  outer loop
   vertex -0.0020659998990595341 -0.046149998903274536 0.013225000351667404
   vertex 0.00018600000475998968 -0.053961001336574554 0.011145000346004963
   vertex 0.0001500000071246177 -0.046897999942302704 0.011396000161767006
  endloop
 endfacet
 facet normal 0.37934355160210403 -0.047736853927202887 0.9240236266649432
  outer loop
   vertex -0.0036430000327527523 -0.037243999540805817 0.0037060000468045473
   vertex -0.0083940001204609871 -0.039168998599052429 0.0055570001713931561
   vertex -0.0092169996351003647 -0.046250998973846436 0.0055289999581873417
  endloop
 endfacet
 facet normal -0.33017396934249793 0.00027537416204271068 0.94392005706928905
  outer loop
   vertex 0.00023600000713486224 -0.037806000560522079 0.0050630001351237297
   vertex -0.0036430000327527523 -0.037243999540805817 0.0037060000468045473
   vertex -0.0044289999641478062 -0.043877001851797104 0.0034330000635236502
  endloop
 endfacet
 facet normal -0.99793806748350367 0.016106498302287373 -0.062130460965043051
  outer loop
   vertex -0.0083940001204609871 -0.039168998599052429 0.0055570001713931561
   vertex -0.0088250003755092621 -0.045200999826192856 0.010916000232100487
   vertex -0.0087050003930926323 -0.038306001573801041 0.01077600009739399
  endloop
 endfacet
 facet normal 0.91933231633284629 -0.10846572413253686 -0.37823706697584231
  outer loop
   vertex 0.00094699999317526817 -0.039441000670194626 0.007259999867528677
   vertex -0.00066899997182190418 -0.044957000762224197 0.0049140001647174358
   vertex 0.00023600000713486224 -0.037806000560522079 0.0050630001351237297
  endloop
 endfacet
 facet normal -0.59877575524772397 0.064946944744306304 0.79827907983104374
  outer loop
   vertex -0.0087050003930926323 -0.038306001573801041 0.01077600009739399
   vertex -0.0074040000326931477 -0.045239999890327454 0.012315999716520309
   vertex -0.007178999949246645 -0.038286000490188599 0.011919000186026096
  endloop
 endfacet
 facet normal 0.97396451643245774 0.0014063747885493404 0.22669614650549968
  outer loop
   vertex 3.7999998312443495e-05 -0.039863999933004379 0.011168000288307667
   vertex 0.00085499999113380909 -0.046491000801324844 0.0076990001834928989
   vertex 0.00094699999317526817 -0.039441000670194626 0.007259999867528677
  endloop
 endfacet
 facet normal -0.27571879704486685 -0.019663723728393166 0.96103719122896847
  outer loop
   vertex -0.007178999949246645 -0.038286000490188599 0.011919000186026096
   vertex -0.0020659998990595341 -0.046149998903274536 0.013225000351667404
   vertex -0.0020870000589638948 -0.039110999554395676 0.013363000005483627
  endloop
 endfacet
 facet normal 0.72383843334779985 0.033863135049112723 0.6891380199156395
  outer loop
   vertex -0.0020870000589638948 -0.039110999554395676 0.013363000005483627
   vertex 0.0001500000071246177 -0.046897999942302704 0.011396000161767006
   vertex 3.7999998312443495e-05 -0.039863999933004379 0.011168000288307667
  endloop
 endfacet
 facet normal 0.40767190323836916 -0.041956755892339583 0.91216404771564874
  outer loop
   vertex -0.0030789999291300774 -0.030594000592827797 0.0035759999882429838
   vertex -0.0074149998836219311 -0.032134998589754105 0.0054429997690021992
   vertex -0.0083940001204609871 -0.039168998599052429 0.0055570001713931561
  endloop
 endfacet
 facet normal -0.0576733411477292 0.024401909129275895 0.99803724006256611
  outer loop
   vertex 0.00054899998940527439 -0.030731000006198883 0.0037889999803155661
   vertex -0.0030789999291300774 -0.030594000592827797 0.0035759999882429838
   vertex -0.0036430000327527523 -0.037243999540805817 0.0037060000468045473
  endloop
 endfacet
 facet normal -0.98562633656725362 0.075376884087095877 -0.15119209638845416
  outer loop
   vertex -0.0074149998836219311 -0.032134998589754105 0.0054429997690021992
   vertex -0.0087050003930926323 -0.038306001573801041 0.01077600009739399
   vertex -0.0081510003656148911 -0.031436998397111893 0.010588999837636948
  endloop
 endfacet
 facet normal 0.87490958611077585 -0.12305006754039823 -0.46839288744575747
  outer loop
   vertex 0.0018139999592676759 -0.032471001148223877 0.0066089997999370098
   vertex 0.00023600000713486224 -0.037806000560522079 0.0050630001351237297
   vertex 0.00054899998940527439 -0.030731000006198883 0.0037889999803155661
  endloop
 endfacet
 facet normal -0.62757401856240969 0.061648029283138908 0.7761123447742172
  outer loop
   vertex -0.0081510003656148911 -0.031436998397111893 0.010588999837636948
   vertex -0.007178999949246645 -0.038286000490188599 0.011919000186026096
   vertex -0.0064829997718334198 -0.031376998871564865 0.011932999826967716
  endloop
 endfacet
 facet normal 0.94802603964543664 -0.08940310335328655 0.30537470960279373
  outer loop
   vertex 0.00038799998583272099 -0.033013999462127686 0.010877000167965889
   vertex 0.00094699999317526817 -0.039441000670194626 0.007259999867528677
   vertex 0.0018139999592676759 -0.032471001148223877 0.0066089997999370098
  endloop
 endfacet
 facet normal -0.24835366147506177 0.037804433647951372 0.96793144572768586
  outer loop
   vertex -0.0064829997718334198 -0.031376998871564865 0.011932999826967716
   vertex -0.0020870000589638948 -0.039110999554395676 0.013363000005483627
   vertex -0.0012870000209659338 -0.032012000679969788 0.013291000388562679
  endloop
 endfacet
 facet normal 0.81807426940640326 -0.017378769414321604 0.57484995269098127
  outer loop
   vertex -0.0012870000209659338 -0.032012000679969788 0.013291000388562679
   vertex 3.7999998312443495e-05 -0.039863999933004379 0.011168000288307667
   vertex 0.00038799998583272099 -0.033013999462127686 0.010877000167965889
  endloop
 endfacet
 facet normal 0.517373458840234 -0.034981947728338354 0.85504442423819382
  outer loop
   vertex -0.0027199999894946814 -0.023949999362230301 0.0029370000120252371
   vertex -0.006535000167787075 -0.025084000080823898 0.0051989997737109661
   vertex -0.0074149998836219311 -0.032134998589754105 0.0054429997690021992
  endloop
 endfacet
 facet normal 0.20103953538801947 0.083011548363151152 0.97605952075133273
  outer loop
   vertex 2.0999999833293259e-05 -0.02374500036239624 0.0023550000041723251
   vertex -0.0027199999894946814 -0.023949999362230301 0.0029370000120252371
   vertex -0.0030789999291300774 -0.030594000592827797 0.0035759999882429838
  endloop
 endfacet
 facet normal -0.97549384989218102 0.071628694515476557 -0.20804105110419746
  outer loop
   vertex -0.006535000167787075 -0.025084000080823898 0.0051989997737109661
   vertex -0.0081510003656148911 -0.031436998397111893 0.010588999837636948
   vertex -0.0075739999301731586 -0.024581000208854675 0.010243999771773815
  endloop
 endfacet
 facet normal 0.81089696599805727 -0.058236701961324813 -0.58228394884267021
  outer loop
   vertex 0.0029490001033991575 -0.025489000603556633 0.0066069997847080231
   vertex 0.00054899998940527439 -0.030731000006198883 0.0037889999803155661
   vertex 2.0999999833293259e-05 -0.02374500036239624 0.0023550000041723251
  endloop
 endfacet
 facet normal -0.69834419148687199 0.065042224513247537 0.71280074301793173
  outer loop
   vertex -0.0075739999301731586 -0.024581000208854675 0.010243999771773815
   vertex -0.0064829997718334198 -0.031376998871564865 0.011932999826967716
   vertex -0.0057379999198019505 -0.024474000558257103 0.012032999657094479
  endloop
 endfacet
 facet normal 0.97616275727940482 -0.15864344719839324 0.1481166025862066
  outer loop
   vertex 0.0021289999131113291 -0.026294000446796417 0.011149000376462936
   vertex 0.0018139999592676759 -0.032471001148223877 0.0066089997999370098
   vertex 0.0029490001033991575 -0.025489000603556633 0.0066069997847080231
  endloop
 endfacet
 facet normal -0.21744145304329821 0.034399881445177402 0.97546699721465557
  outer loop
   vertex -0.0057379999198019505 -0.024474000558257103 0.012032999657094479
   vertex -0.0012870000209659338 -0.032012000679969788 0.013291000388562679
   vertex 0.00012500000593718141 -0.025015000253915787 0.013358999975025654
  endloop
 endfacet
 facet normal 0.66480595193812031 -0.20135349157403776 0.71936765127338997
  outer loop
   vertex 0.00012500000593718141 -0.025015000253915787 0.013358999975025654
   vertex 0.00038799998583272099 -0.033013999462127686 0.010877000167965889
   vertex 0.0021289999131113291 -0.026294000446796417 0.011149000376462936
  endloop
 endfacet
 facet normal 0.61862376692867016 -0.0057069457363188641 0.78566663780597501
  outer loop
   vertex -0.0022410000674426556 -0.017369000241160393 0.0018739999504759908
   vertex -0.0063439998775720596 -0.018008999526500702 0.0051000001840293407
   vertex -0.006535000167787075 -0.025084000080823898 0.0051989997737109661
  endloop
 endfacet
 facet normal -0.12985376179159103 -0.14889061191094091 -0.98029056214642718
  outer loop
   vertex 0.00050299998838454485 -0.016378000378608704 0.0013599999947473407
   vertex -0.0027199999894946814 -0.023949999362230301 0.0029370000120252371
   vertex -0.0022410000674426556 -0.017369000241160393 0.0018739999504759908
  endloop
 endfacet
 facet normal -0.97680568170228921 0.015664915809538823 -0.21355390562292748
  outer loop
   vertex -0.0063439998775720596 -0.018008999526500702 0.0051000001840293407
   vertex -0.0075739999301731586 -0.024581000208854675 0.010243999771773815
   vertex -0.0073529998771846294 -0.017712000757455826 0.0097369998693466187
  endloop
 endfacet
 facet normal 0.76532990499528164 -0.13506840958412608 -0.62930649230111069
  outer loop
   vertex 0.0043520000763237476 -0.018581999465823174 0.0065139997750520706
   vertex 2.0999999833293259e-05 -0.02374500036239624 0.0023550000041723251
   vertex 0.00050299998838454485 -0.016378000378608704 0.0013599999947473407
  endloop
 endfacet
 facet normal -0.78701917135071631 0.021381383317418498 0.616557913235947
  outer loop
   vertex -0.0073529998771846294 -0.017712000757455826 0.0097369998693466187
   vertex -0.0057379999198019505 -0.024474000558257103 0.012032999657094479
   vertex -0.00521499989554286 -0.017565000802278519 0.012461000122129917
  endloop
 endfacet
 facet normal 0.97502684986687027 -0.19666526617384242 0.10317662099264242
  outer loop
   vertex 0.0036029999610036612 -0.019549999386072159 0.011746999807655811
   vertex 0.0029490001033991575 -0.025489000603556633 0.0066069997847080231
   vertex 0.0043520000763237476 -0.018581999465823174 0.0065139997750520706
  endloop
 endfacet
 facet normal -0.34152246075146109 -0.13264036237819796 0.93046705641330862
  outer loop
   vertex -0.00521499989554286 -0.017565000802278519 0.012461000122129917
   vertex 0.00012500000593718141 -0.025015000253915787 0.013358999975025654
   vertex -0.0015539999585598707 -0.017921000719070435 0.013753999955952168
  endloop
 endfacet
 facet normal 0.31634478816423184 -0.1521700596416416 0.93636010591544661
  outer loop
   vertex -0.0015539999585598707 -0.017921000719070435 0.013753999955952168
   vertex 0.0021289999131113291 -0.026294000446796417 0.011149000376462936
   vertex 0.0036029999610036612 -0.019549999386072159 0.011746999807655811
  endloop
 endfacet
 facet normal 0.52320329358388484 -0.016917503189022607 0.85203997069904225
  outer loop
   vertex -0.0020639998838305473 -0.010646999813616276 0.0026179999113082886
   vertex -0.0069360001944005489 -0.01093399990350008 0.0056039998307824135
   vertex -0.0063439998775720596 -0.018008999526500702 0.0051000001840293407
  endloop
 endfacet
 facet normal 0.32192237708619509 -0.11252329449407288 0.94005557885019431
  outer loop
   vertex 0.0057450002059340477 -0.010896000079810619 -8.6000000010244548e-05
   vertex -0.0020639998838305473 -0.010646999813616276 0.0026179999113082886
   vertex -0.0022410000674426556 -0.017369000241160393 0.0018739999504759908
  endloop
 endfacet
 facet normal -0.98910548976193058 -0.027347972319348351 -0.14464583828382943
  outer loop
   vertex -0.0069360001944005489 -0.01093399990350008 0.0056039998307824135
   vertex -0.0073529998771846294 -0.017712000757455826 0.0097369998693466187
   vertex -0.0075719999149441719 -0.01082799956202507 0.0099330004304647446
  endloop
 endfacet
 facet normal 0.5995025130975733 -0.68322256763258726 -0.41689766114386939
  outer loop
   vertex 0.0072449999861419201 -0.012404999695718288 0.0045440001413226128
   vertex 0.00050299998838454485 -0.016378000378608704 0.0013599999947473407
   vertex 0.0057450002059340477 -0.010896000079810619 -8.6000000010244548e-05
  endloop
 endfacet
 facet normal -0.85336298398726196 -0.10711052343209176 0.51019501499961684
  outer loop
   vertex -0.0075719999149441719 -0.01082799956202507 0.0099330004304647446
   vertex -0.00521499989554286 -0.017565000802278519 0.012461000122129917
   vertex -0.0053110001608729362 -0.010727000422775745 0.013736000284552574
  endloop
 endfacet
 facet normal 0.90830734707108507 -0.41758374584656166 0.024527096473927548
  outer loop
   vertex 0.0068180002272129059 -0.012955999933183193 0.010975999757647514
   vertex 0.0043520000763237476 -0.018581999465823174 0.0065139997750520706
   vertex 0.0072449999861419201 -0.012404999695718288 0.0045440001413226128
  endloop
 endfacet
 facet normal -0.048069598844249224 -0.022605397160698926 0.99858815819443802
  outer loop
   vertex -0.0053110001608729362 -0.010727000422775745 0.013736000284552574
   vertex -0.0015539999585598707 -0.017921000719070435 0.013753999955952168
   vertex -0.0013800000306218863 -0.010958000086247921 0.013919999822974205
  endloop
 endfacet
 facet normal 0.32695904647489127 -0.049064508656989629 0.94376398316447641
  outer loop
   vertex -0.0013800000306218863 -0.010958000086247921 0.013919999822974205
   vertex 0.0036029999610036612 -0.019549999386072159 0.011746999807655811
   vertex 0.0068180002272129059 -0.012955999933183193 0.010975999757647514
  endloop
 endfacet
 facet normal -0.48106672228381775 0.13335470308014652 -0.86648215900704506
  outer loop
   vertex -0.0012410000199452043 -0.0057370001450181007 0.0032420000061392784
   vertex -0.0069360001944005489 -0.01093399990350008 0.0056039998307824135
   vertex -0.0053719999268651009 -0.0052660000510513783 0.005607999861240387
  endloop
 endfacet
 facet normal -0.34321210760856646 0.17481063682351766 -0.92284705690826252
  outer loop
   vertex 0.0077439998276531696 -0.0058289999142289162 -0.00011700000322889537
   vertex -0.0020639998838305473 -0.010646999813616276 0.0026179999113082886
   vertex -0.0012410000199452043 -0.0057370001450181007 0.0032420000061392784
  endloop
 endfacet
 facet normal -0.94368576483451394 0.1402707847728708 -0.29963525191122142
  outer loop
   vertex -0.0053719999268651009 -0.0052660000510513783 0.005607999861240387
   vertex -0.0075719999149441719 -0.01082799956202507 0.0099330004304647446
   vertex -0.0065560000948607922 -0.0042790002189576626 0.0097989998757839203
  endloop
 endfacet
 facet normal 0.9290899920604091 -0.36682735729725613 -0.047217333591597327
  outer loop
   vertex 0.0079140001907944679 -0.0058380002155900002 0.0032979999668896198
   vertex 0.0057450002059340477 -0.010896000079810619 -8.6000000010244548e-05
   vertex 0.0077439998276531696 -0.0058289999142289162 -0.00011700000322889537
  endloop
 endfacet
 facet normal -0.93737675800722819 0.030847147746636387 0.34694850774107011
  outer loop
   vertex -0.0065560000948607922 -0.0042790002189576626 0.0097989998757839203
   vertex -0.0053110001608729362 -0.010727000422775745 0.013736000284552574
   vertex -0.0056590000167489052 -0.0041160001419484615 0.0122079998254776
  endloop
 endfacet
 facet normal 0.97646593249052649 -0.060180081334291709 0.20710538500001544
  outer loop
   vertex 0.0059569999575614929 -0.0061440002173185349 0.012435999698936939
   vertex 0.0072449999861419201 -0.012404999695718288 0.0045440001413226128
   vertex 0.0079140001907944679 -0.0058380002155900002 0.0032979999668896198
  endloop
 endfacet
 facet normal -0.21068465598821998 0.11125106966468168 0.97120295264665946
  outer loop
   vertex -0.0056590000167489052 -0.0041160001419484615 0.0122079998254776
   vertex -0.0013800000306218863 -0.010958000086247921 0.013919999822974205
   vertex 0.00095999997574836016 -0.0064480002038180828 0.013911000452935696
  endloop
 endfacet
 facet normal 0.28844697737151692 -0.16566470865632271 0.94305543079452714
  outer loop
   vertex 0.00095999997574836016 -0.0064480002038180828 0.013911000452935696
   vertex 0.0068180002272129059 -0.012955999933183193 0.010975999757647514
   vertex 0.0059569999575614929 -0.0061440002173185349 0.012435999698936939
  endloop
 endfacet
 facet normal -0.27207033614124843 0.73481380928181561 -0.62131022676335834
  outer loop
   vertex 0.00044599999091587961 -0.0024759999942034483 0.0063599999994039536
   vertex -0.0012410000199452043 -0.0057370001450181007 0.0032420000061392784
   vertex -0.0053719999268651009 -0.0052660000510513783 0.005607999861240387
  endloop
 endfacet
 facet normal -0.23189539800221365 0.73223801953908363 -0.64035303319877812
  outer loop
   vertex 0.00044599999091587961 -0.0024759999942034483 0.0063599999994039536
   vertex 0.0077439998276531696 -0.0058289999142289162 -0.00011700000322889537
   vertex -0.0012410000199452043 -0.0057370001450181007 0.0032420000061392784
  endloop
 endfacet
 facet normal -0.37772206537984004 0.87176418630300523 -0.31201481504032286
  outer loop
   vertex 0.00044599999091587961 -0.0024759999942034483 0.0063599999994039536
   vertex -0.0053719999268651009 -0.0052660000510513783 0.005607999861240387
   vertex -0.0065560000948607922 -0.0042790002189576626 0.0097989998757839203
  endloop
 endfacet
 facet normal 0.40439193773295212 0.91441409187974909 -0.01772087098090817
  outer loop
   vertex 0.00044599999091587961 -0.0024759999942034483 0.0063599999994039536
   vertex 0.0079140001907944679 -0.0058380002155900002 0.0032979999668896198
   vertex 0.0077439998276531696 -0.0058289999142289162 -0.00011700000322889537
  endloop
 endfacet
 facet normal -0.23861429539868059 0.97083823208741127 0.02315912668433175
  outer loop
   vertex 0.00044599999091587961 -0.0024759999942034483 0.0063599999994039536
   vertex -0.0065560000948607922 -0.0042790002189576626 0.0097989998757839203
   vertex -0.0056590000167489052 -0.0041160001419484615 0.0122079998254776
  endloop
 endfacet
 facet normal 0.44970962657526287 0.88425404826286325 0.12592072862033271
  outer loop
   vertex 0.00044599999091587961 -0.0024759999942034483 0.0063599999994039536
   vertex 0.0059569999575614929 -0.0061440002173185349 0.012435999698936939
   vertex 0.0079140001907944679 -0.0058380002155900002 0.0032979999668896198
  endloop
 endfacet
 facet normal 0.19296315644449522 0.87374276659969585 0.44647373726758743
  outer loop
   vertex 0.00044599999091587961 -0.0024759999942034483 0.0063599999994039536
   vertex -0.0056590000167489052 -0.0041160001419484615 0.0122079998254776
   vertex 0.00095999997574836016 -0.0064480002038180828 0.013911000452935696
  endloop
 endfacet
 facet normal 0.081866377729862619 0.88433947513981082 0.45961025761707641
  outer loop
   vertex 0.00044599999091587961 -0.0024759999942034483 0.0063599999994039536
   vertex 0.00095999997574836016 -0.0064480002038180828 0.013911000452935696
   vertex 0.0059569999575614929 -0.0061440002173185349 0.012435999698936939
  endloop
 endfacet
endsolid
