solid Visualization Toolkit generated SLA File
 facet normal -0.46360017750634819 0.85771215049792737 -0.22227177577079649
  outer loop
   vertex -0.0025170000735670328 -0.17003700137138367 -0.031507000327110291
   vertex -0.0012400000123307109 -0.1667180061340332 -0.021362999454140663
   vertex 0.00076399999670684338 -0.166935995221138 -0.026383999735116959
  endloop
 endfacet
 facet normal 0.87633199019477415 -0.21533405088269833 -0.43089846772959584
  outer loop
   vertex -0.002612000098451972 -0.17299899458885193 -0.030220000073313713
   vertex -0.0025170000735670328 -0.17003700137138367 -0.031507000327110291
   vertex 0.00076399999670684338 -0.166935995221138 -0.026383999735116959
  endloop
 endfacet
 facet normal -0.83319490941018692 -0.19256962419262361 -0.51836587732147454
  outer loop
   vertex -0.0025170000735670328 -0.17003700137138367 -0.031507000327110291
   vertex -0.0061980001628398895 -0.17186300456523895 -0.024911999702453613
   vertex -0.0064240000210702419 -0.16783800721168518 -0.026043999940156937
  endloop
 endfacet
 facet normal 0.92833926111847542 0.050050974341276588 0.36834917705010822
  outer loop
   vertex -0.0012400000123307109 -0.1667180061340332 -0.021362999454140663
   vertex 0.00069399998756125569 -0.17080399394035339 -0.025682000443339348
   vertex 0.00076399999670684338 -0.166935995221138 -0.026383999735116959
  endloop
 endfacet
 facet normal 0.67551396243103412 -0.052884644644947666 -0.73544823129945824
  outer loop
   vertex -0.0064240000210702419 -0.16783800721168518 -0.026043999940156937
   vertex -0.0012400000123307109 -0.1667180061340332 -0.021362999454140663
   vertex -0.0013139999937266111 -0.17112599313259125 -0.02111399918794632
  endloop
 endfacet
 facet normal 0.83620618728297103 -0.23577497140152129 -0.49514581206982727
  outer loop
   vertex 0.00069399998756125569 -0.17080399394035339 -0.025682000443339348
   vertex -0.0030439998954534531 -0.17616499960422516 -0.029441999271512032
   vertex -0.002612000098451972 -0.17299899458885193 -0.030220000073313713
  endloop
 endfacet
 facet normal -0.83181327802422855 -0.19149069233721489 -0.52097791244044267
  outer loop
   vertex -0.002612000098451972 -0.17299899458885193 -0.030220000073313713
   vertex -0.0052009997889399529 -0.17576399445533752 -0.025070000439882278
   vertex -0.0061980001628398895 -0.17186300456523895 -0.024911999702453613
  endloop
 endfacet
 facet normal 0.88833632929194506 -0.26994757749559717 0.3714658415848911
  outer loop
   vertex -0.0013139999937266111 -0.17112599313259125 -0.02111399918794632
   vertex -0.00037799999699927866 -0.17455600202083588 -0.025845000520348549
   vertex 0.00069399998756125569 -0.17080399394035339 -0.025682000443339348
  endloop
 endfacet
 facet normal -0.58989356874798782 -0.16464472192836097 0.79051735786818467
  outer loop
   vertex -0.0061980001628398895 -0.17186300456523895 -0.024911999702453613
   vertex -0.002397000091150403 -0.17507199943065643 -0.02274399995803833
   vertex -0.0013139999937266111 -0.17112599313259125 -0.02111399918794632
  endloop
 endfacet
 facet normal 0.82662463767224037 -0.1712870499540286 -0.53605266057662992
  outer loop
   vertex -0.00037799999699927866 -0.17455600202083588 -0.025845000520348549
   vertex -0.0030269999988377094 -0.17903099954128265 -0.028500000014901161
   vertex -0.0030439998954534531 -0.17616499960422516 -0.029441999271512032
  endloop
 endfacet
 facet normal -0.89711007319670022 -0.0099041000955105759 -0.44169607805629135
  outer loop
   vertex -0.0030439998954534531 -0.17616499960422516 -0.029441999271512032
   vertex -0.0050570000894367695 -0.17988799512386322 -0.025270000100135803
   vertex -0.0052009997889399529 -0.17576399445533752 -0.025070000439882278
  endloop
 endfacet
 facet normal -0.83931901574712608 0.018964777707702531 -0.54330831671507929
  outer loop
   vertex -0.002397000091150403 -0.17507199943065643 -0.02274399995803833
   vertex -0.00037799999699927866 -0.17455600202083588 -0.025845000520348549
   vertex -0.00054600002476945519 -0.17849600315093994 -0.02572299912571907
  endloop
 endfacet
 facet normal 0.63196579579548651 0.040648527057121103 -0.77392953826085753
  outer loop
   vertex -0.0052009997889399529 -0.17576399445533752 -0.025070000439882278
   vertex -0.002397000091150403 -0.17507199943065643 -0.02274399995803833
   vertex -0.0026690000668168068 -0.17941099405288696 -0.023194000124931335
  endloop
 endfacet
 facet normal -0.65734580619026473 -0.36726951607170677 0.65803464471752937
  outer loop
   vertex -0.00054600002476945519 -0.17849600315093994 -0.02572299912571907
   vertex -0.0030269999988377094 -0.17903099954128265 -0.028500000014901161
   vertex -0.0018009999766945839 -0.18202799558639526 -0.028947999700903893
  endloop
 endfacet
 facet normal -0.84124231715236342 -0.039578621394123048 -0.53920765625189615
  outer loop
   vertex -0.0030269999988377094 -0.17903099954128265 -0.028500000014901161
   vertex -0.0047670002095401287 -0.18402199447154999 -0.025419000536203384
   vertex -0.0050570000894367695 -0.17988799512386322 -0.025270000100135803
  endloop
 endfacet
 facet normal 0.77909872802809677 -0.094961308154130813 0.61966726711894182
  outer loop
   vertex -0.0026690000668168068 -0.17941099405288696 -0.023194000124931335
   vertex -0.00058400002308189869 -0.18232500553131104 -0.026262000203132629
   vertex -0.00054600002476945519 -0.17849600315093994 -0.02572299912571907
  endloop
 endfacet
 facet normal 0.64585392938335284 0.073830643475573943 -0.75988271330782731
  outer loop
   vertex -0.0050570000894367695 -0.17988799512386322 -0.025270000100135803
   vertex -0.0026690000668168068 -0.17941099405288696 -0.023194000124931335
   vertex -0.002082000020891428 -0.18419599533081055 -0.023159999400377274
  endloop
 endfacet
 facet normal -0.88291202406692348 -0.29192461302100059 0.36775858667145683
  outer loop
   vertex -0.00058400002308189869 -0.18232500553131104 -0.026262000203132629
   vertex -0.0018009999766945839 -0.18202799558639526 -0.028947999700903893
   vertex -0.00087899999925866723 -0.18503700196743011 -0.029123000800609589
  endloop
 endfacet
 facet normal -0.71392643247502097 -0.14895429628698528 -0.68419417319291631
  outer loop
   vertex -0.0018009999766945839 -0.18202799558639526 -0.028947999700903893
   vertex -0.0033390000462532043 -0.18762800097465515 -0.026124000549316406
   vertex -0.0047670002095401287 -0.18402199447154999 -0.025419000536203384
  endloop
 endfacet
 facet normal -0.84100936443218577 -0.1752625880741967 -0.51184594768241098
  outer loop
   vertex -0.002082000020891428 -0.18419599533081055 -0.023159999400377274
   vertex -0.00058400002308189869 -0.18232500553131104 -0.026262000203132629
   vertex 0.00033099998836405575 -0.18604399263858795 -0.026491999626159668
  endloop
 endfacet
 facet normal -0.62986118815362824 -0.27144431986599432 0.72773131365235844
  outer loop
   vertex -0.0047670002095401287 -0.18402199447154999 -0.025419000536203384
   vertex -0.0012080000014975667 -0.18846799433231354 -0.023996999487280846
   vertex -0.002082000020891428 -0.18419599533081055 -0.023159999400377274
  endloop
 endfacet
 facet normal -0.91371320631061215 -0.23871451023441512 0.32885188036124147
  outer loop
   vertex 0.00033099998836405575 -0.18604399263858795 -0.026491999626159668
   vertex -0.00087899999925866723 -0.18503700196743011 -0.029123000800609589
   vertex -0.00011000000085914508 -0.18806999921798706 -0.029187999665737152
  endloop
 endfacet
 facet normal -0.70377707734178963 -0.13835151478706695 -0.69681897488829381
  outer loop
   vertex -0.00087899999925866723 -0.18503700196743011 -0.029123000800609589
   vertex -0.0012519999872893095 -0.19035199284553528 -0.027690999209880829
   vertex -0.0033390000462532043 -0.18762800097465515 -0.026124000549316406
  endloop
 endfacet
 facet normal 0.9142916939934469 -0.29711790146184641 0.27530283493909397
  outer loop
   vertex -0.0012080000014975667 -0.18846799433231354 -0.023996999487280846
   vertex -0.00072399998316541314 -0.18976299464702606 -0.027001999318599701
   vertex 0.00033099998836405575 -0.18604399263858795 -0.026491999626159668
  endloop
 endfacet
 facet normal -0.56063113318228419 -0.78945237286042269 0.24991535265324549
  outer loop
   vertex -0.0033390000462532043 -0.18762800097465515 -0.026124000549316406
   vertex -0.00072399998316541314 -0.18976299464702606 -0.027001999318599701
   vertex -0.0012080000014975667 -0.18846799433231354 -0.023996999487280846
  endloop
 endfacet
 facet normal 0.82756822398214225 -0.5318959476450682 -0.17949243865354797
  outer loop
   vertex -0.00072399998316541314 -0.18976299464702606 -0.027001999318599701
   vertex -0.0012519999872893095 -0.19035199284553528 -0.027690999209880829
   vertex -0.00011000000085914508 -0.18806999921798706 -0.029187999665737152
  endloop
 endfacet
endsolid
