solid Visualization Toolkit generated SLA File
 facet normal 0.77570743281211141 -0.4076430895890874 0.48177286161666161
  outer loop
   vertex -0.0003499999875202775 -0.42443299293518066 0.024976000189781189
   vertex -0.0040000001899898052 -0.42544099688529968 0.029999999329447746
   vertex -0.0040000001899898052 -0.43182298541069031 0.024599999189376831
  endloop
 endfacet
 facet normal 0.040925805827494451 -0.30693502668205835 -0.95085012899670696
  outer loop
   vertex -0.0003499999875202775 -0.42443299293518066 0.024976000189781189
   vertex -0.0040000001899898052 -0.42208200693130493 0.024059999734163284
   vertex 0.0017130000051110983 -0.41536301374435425 0.022136999294161797
  endloop
 endfacet
 facet normal 0.75208467199026985 -0.48177265286851834 0.4497374312922135
  outer loop
   vertex -0.0040000001899898052 -0.42544099688529968 0.029999999329447746
   vertex -0.0003499999875202775 -0.42443299293518066 0.024976000189781189
   vertex 0.0026759998872876167 -0.4170440137386322 0.027830999344587326
  endloop
 endfacet
 facet normal 0.73212374880738129 -0.6096679963613133 -0.3038087402380123
  outer loop
   vertex 0.0026759998872876167 -0.4170440137386322 0.027830999344587326
   vertex 0.0017130000051110983 -0.41536301374435425 0.022136999294161797
   vertex 0.008839000016450882 -0.40864500403404236 0.025828000158071518
  endloop
 endfacet
 facet normal 0.38268814112292371 -0.59676228253178099 0.70528332235445634
  outer loop
   vertex -0.0040000001899898052 -0.43182298541069031 0.024599999189376831
   vertex -0.0040000001899898052 -0.42544099688529968 0.029999999329447746
   vertex -0.0062219998799264431 -0.43048000335693359 0.026941999793052673
  endloop
 endfacet
 facet normal 0.029292438194110173 0.055327116437912549 0.99803850790002591
  outer loop
   vertex -0.0040000001899898052 -0.43182298541069031 0.024599999189376831
   vertex -0.0040000001899898052 -0.42208200693130493 0.024059999734163284
   vertex -0.0082849999889731407 -0.42057099938392639 0.024102000519633293
  endloop
 endfacet
 facet normal 0.78275627358290856 -0.62232838290294845 0
  outer loop
   vertex 0.0026759998872876167 -0.4170440137386322 0.032168999314308167
   vertex -0.0040000001899898052 -0.42544099688529968 0.029999999329447746
   vertex 0.0026759998872876167 -0.4170440137386322 0.027830999344587326
  endloop
 endfacet
 facet normal 0.7923340437107389 -0.59407444622939554 -0.13886077745074618
  outer loop
   vertex 0.001475999946705997 -0.41989898681640625 0.037535998970270157
   vertex -0.0040000001899898052 -0.42544099688529968 0.029999999329447746
   vertex 0.0026759998872876167 -0.4170440137386322 0.032168999314308167
  endloop
 endfacet
 facet normal 0.55979419900475769 -0.80727774589568091 0.18690397465599876
  outer loop
   vertex -0.0040000001899898052 -0.42275300621986389 0.041609998792409897
   vertex -0.0040000001899898052 -0.42544099688529968 0.029999999329447746
   vertex 0.001475999946705997 -0.41989898681640625 0.037535998970270157
  endloop
 endfacet
 facet normal 0.39640062514446078 -0.89441867269674213 0.20707916919979885
  outer loop
   vertex -0.0080469995737075806 -0.42594501376152039 0.035569999366998672
   vertex -0.0040000001899898052 -0.42544099688529968 0.029999999329447746
   vertex -0.0040000001899898052 -0.42275300621986389 0.041609998792409897
  endloop
 endfacet
 facet normal 0.7763482020391641 -0.33527942017833839 0.53373324760167817
  outer loop
   vertex -0.0060549997724592686 -0.4291360080242157 0.030667999759316444
   vertex -0.0040000001899898052 -0.42544099688529968 0.029999999329447746
   vertex -0.0080469995737075806 -0.42594501376152039 0.035569999366998672
  endloop
 endfacet
 facet normal 0.87393471798607958 -0.48604331977570847 0
  outer loop
   vertex -0.0060549997724592686 -0.4291360080242157 0.029332000762224197
   vertex -0.0040000001899898052 -0.42544099688529968 0.029999999329447746
   vertex -0.0060549997724592686 -0.4291360080242157 0.030667999759316444
  endloop
 endfacet
 facet normal 0.83357710207029034 -0.50434070371840456 0.2253656350842361
  outer loop
   vertex -0.0062219998799264431 -0.43048000335693359 0.026941999793052673
   vertex -0.0040000001899898052 -0.42544099688529968 0.029999999329447746
   vertex -0.0060549997724592686 -0.4291360080242157 0.029332000762224197
  endloop
 endfacet
 facet normal -0.39821415287482159 -0.070087094057373525 0.91461100348551516
  outer loop
   vertex 0.0017130000051110983 -0.41536301374435425 0.022136999294161797
   vertex 0.0012369999894872308 -0.40411099791526794 0.022792000323534012
   vertex -0.0040000001899898052 -0.41065999865531921 0.020010000094771385
  endloop
 endfacet
 facet normal -0.52870344555020865 -0.37734296285721936 0.76031898243136931
  outer loop
   vertex 0.008839000016450882 -0.40864500403404236 0.025828000158071518
   vertex 0.0034469999372959137 -0.3975600004196167 0.027580000460147858
   vertex 0.0012369999894872308 -0.40411099791526794 0.022792000323534012
  endloop
 endfacet
 facet normal 0.032202802201671002 -0.33401876553041498 -0.94201615899298541
  outer loop
   vertex -0.0040000001899898052 -0.42208200693130493 0.024059999734163284
   vertex -0.011220999993383884 -0.41150000691413879 0.020060999318957329
   vertex -0.0040000001899898052 -0.41065999865531921 0.020010000094771385
  endloop
 endfacet
 facet normal 0.80623438383115664 -0.59159624603980987 0
  outer loop
   vertex 0.0026759998872876167 -0.4170440137386322 0.032168999314308167
   vertex 0.008839000016450882 -0.40864500403404236 0.025828000158071518
   vertex 0.008839000016450882 -0.40864500403404236 0.034171000123023987
  endloop
 endfacet
 facet normal -0.89925756639009946 -0.43741951178491773 -0
  outer loop
   vertex 0.008839000016450882 -0.40864500403404236 0.034171000123023987
   vertex 0.0034469999372959137 -0.3975600004196167 0.032419998198747635
   vertex 0.0034469999372959137 -0.3975600004196167 0.027580000460147858
  endloop
 endfacet
 facet normal -0.67154057087456032 -0.32995977715529295 -0.66344540629135351
  outer loop
   vertex -0.0062219998799264431 -0.43048000335693359 0.026941999793052673
   vertex -0.012217000126838684 -0.41905900835990906 0.027329999953508377
   vertex -0.0082849999889731407 -0.42057099938392639 0.024102000519633293
  endloop
 endfacet
 facet normal -0.517183716063503 -0.48235642356508152 -0.70700303003894505
  outer loop
   vertex -0.0082849999889731407 -0.42057099938392639 0.024102000519633293
   vertex -0.017866000533103943 -0.41233998537063599 0.025495000183582306
   vertex -0.011220999993383884 -0.41150000691413879 0.020060999318957329
  endloop
 endfacet
 facet normal 0.79400021563081458 -0.37684880164469187 0.47702058475204157
  outer loop
   vertex 0.001475999946705997 -0.41989898681640625 0.037535998970270157
   vertex 0.008839000016450882 -0.40864500403404236 0.034171000123023987
   vertex 0.0040939999744296074 -0.40982100367546082 0.041140001267194748
  endloop
 endfacet
 facet normal 0.35542731135910699 -0.18919059185871331 0.91535695020695951
  outer loop
   vertex -0.0040000001899898052 -0.42275300621986389 0.041609998792409897
   vertex 0.0040939999744296074 -0.40982100367546082 0.041140001267194748
   vertex -0.0040000001899898052 -0.41099599003791809 0.044039998203516006
  endloop
 endfacet
 facet normal -0.38998433891640655 -0.37174706266809621 0.84244663735905312
  outer loop
   vertex -0.0080469995737075806 -0.42594501376152039 0.035569999366998672
   vertex -0.0040000001899898052 -0.41099599003791809 0.044039998203516006
   vertex -0.010665000416338444 -0.41502898931503296 0.039175000041723251
  endloop
 endfacet
 facet normal -0.69668447953626567 -0.52346865467399362 0.49052146084252196
  outer loop
   vertex -0.0060549997724592686 -0.4291360080242157 0.030667999759316444
   vertex -0.010665000416338444 -0.41502898931503296 0.039175000041723251
   vertex -0.012217000126838684 -0.41905900835990906 0.032669998705387115
  endloop
 endfacet
 facet normal -0.8531373790839476 -0.52168631610362637 -0
  outer loop
   vertex -0.0060549997724592686 -0.4291360080242157 0.029332000762224197
   vertex -0.012217000126838684 -0.41905900835990906 0.032669998705387115
   vertex -0.012217000126838684 -0.41905900835990906 0.027329999953508377
  endloop
 endfacet
 facet normal -0.30619837160733571 -0.10962800894057953 0.94563431456390179
  outer loop
   vertex 0.0012369999894872308 -0.40411099791526794 0.022792000323534012
   vertex 0.00012599999899975955 -0.38781899213790894 0.024320999160408974
   vertex -0.0040000001899898052 -0.39252001047134399 0.022439999505877495
  endloop
 endfacet
 facet normal -0.81853848013668484 -0.089204023766712506 0.56748339066386211
  outer loop
   vertex 0.0034469999372959137 -0.3975600004196167 0.027580000460147858
   vertex 0.0021619999315589666 -0.38311600685119629 0.027997000142931938
   vertex 0.00012599999899975955 -0.38781899213790894 0.024320999160408974
  endloop
 endfacet
 facet normal -0.12986571484874279 -0.13164780206403637 0.98275314922849955
  outer loop
   vertex -0.0040000001899898052 -0.41065999865531921 0.020010000094771385
   vertex -0.0040000001899898052 -0.39252001047134399 0.022439999505877495
   vertex -0.010745000094175339 -0.39873600006103516 0.020716000348329544
  endloop
 endfacet
 facet normal -0.99606601201470435 -0.088614331285197842 -0
  outer loop
   vertex 0.0034469999372959137 -0.3975600004196167 0.032419998198747635
   vertex 0.0021619999315589666 -0.38311600685119629 0.032001998275518417
   vertex 0.0021619999315589666 -0.38311600685119629 0.027997000142931938
  endloop
 endfacet
 facet normal 0.53361985386165744 -0.063178088492399517 0.8433613583151115
  outer loop
   vertex -0.011220999993383884 -0.41150000691413879 0.020060999318957329
   vertex -0.010745000094175339 -0.39873600006103516 0.020716000348329544
   vertex -0.018636999651789665 -0.40494999289512634 0.025243999436497688
  endloop
 endfacet
 facet normal -0.7235139921497975 -0.42503147640446659 -0.54394461779569248
  outer loop
   vertex 0.0040939999744296074 -0.40982100367546082 0.041140001267194748
   vertex -0.00026999998954124749 -0.39470601081848145 0.035133998841047287
   vertex 0.0034469999372959137 -0.3975600004196167 0.032419998198747635
  endloop
 endfacet
 facet normal 0.76016930107565461 0.016012886220276946 0.64952769084700879
  outer loop
   vertex -0.00026999998954124749 -0.39470601081848145 0.035133998841047287
   vertex 0.0021619999315589666 -0.38311600685119629 0.032001998275518417
   vertex -0.00050899997586384416 -0.37001499533653259 0.034804999828338623
  endloop
 endfacet
 facet normal -0.76542308541715187 -0.64352738893576811 -0
  outer loop
   vertex -0.012217000126838684 -0.41905900835990906 0.027329999953508377
   vertex -0.017866000533103943 -0.41233998537063599 0.034504998475313187
   vertex -0.017866000533103943 -0.41233998537063599 0.025495000183582306
  endloop
 endfacet
 facet normal -0.9946016387902552 -0.10376695098025492 -0
  outer loop
   vertex -0.017866000533103943 -0.41233998537063599 0.025495000183582306
   vertex -0.018636999651789665 -0.40494999289512634 0.034756001085042953
   vertex -0.018636999651789665 -0.40494999289512634 0.025243999436497688
  endloop
 endfacet
 facet normal -0.25598094198159815 -0.41794025615101033 -0.87166490099730509
  outer loop
   vertex -0.0040000001899898052 -0.41099599003791809 0.044039998203516006
   vertex -0.0040000001899898052 -0.39184999465942383 0.034860000014305115
   vertex -0.00026999998954124749 -0.39470601081848145 0.035133998841047287
  endloop
 endfacet
 facet normal 0.36733810203068978 0.067068101590680246 0.92766620534840694
  outer loop
   vertex -0.010665000416338444 -0.41502898931503296 0.039175000041723251
   vertex -0.0040000001899898052 -0.39184999465942383 0.034860000014305115
   vertex -0.0097129996865987778 -0.40209600329399109 0.037863001227378845
  endloop
 endfacet
 facet normal -0.031984254871297045 -0.28825739408201573 0.95701864255476932
  outer loop
   vertex -0.012217000126838684 -0.41905900835990906 0.032669998705387115
   vertex -0.0097129996865987778 -0.40209600329399109 0.037863001227378845
   vertex -0.017866000533103943 -0.41233998537063599 0.034504998475313187
  endloop
 endfacet
 facet normal -0.07818752464548212 -0.061685103243127259 0.99502847146586559
  outer loop
   vertex 0.00012599999899975955 -0.38781899213790894 0.024320999160408974
   vertex -0.00082600000314414501 -0.36548098921775818 0.025630999356508255
   vertex -0.0040000001899898052 -0.38244399428367615 0.024329999461770058
  endloop
 endfacet
 facet normal -0.74091457376894998 -0.035558629712134297 0.67065727329968661
  outer loop
   vertex 0.0021619999315589666 -0.38311600685119629 0.027997000142931938
   vertex 0.00087899999925866723 -0.3485180139541626 0.028413999825716019
   vertex -0.00082600000314414501 -0.36548098921775818 0.025630999356508255
  endloop
 endfacet
 facet normal 0.28612041412407391 -0.17665154826523649 0.94176926001912131
  outer loop
   vertex -0.0040000001899898052 -0.39252001047134399 0.022439999505877495
   vertex -0.0040000001899898052 -0.38244399428367615 0.024329999461770058
   vertex -0.0084429997950792313 -0.39201799035072327 0.0238840002566576
  endloop
 endfacet
 facet normal -0.99931313114171694 -0.037057602833126986 -0
  outer loop
   vertex 0.0021619999315589666 -0.38311600685119629 0.032001998275518417
   vertex 0.00087899999925866723 -0.3485180139541626 0.031585998833179474
   vertex 0.00087899999925866723 -0.3485180139541626 0.028413999825716019
  endloop
 endfacet
 facet normal 0.91165742660947557 -0.38283645842694491 0.14938869638263305
  outer loop
   vertex -0.010745000094175339 -0.39873600006103516 0.020716000348329544
   vertex -0.0084429997950792313 -0.39201799035072327 0.0238840002566576
   vertex -0.012986999936401844 -0.40159198641777039 0.027078999206423759
  endloop
 endfacet
 facet normal 0.89050744649964353 0.010611808585713334 0.45484489361454261
  outer loop
   vertex -0.00050899997586384416 -0.37001499533653259 0.034804999828338623
   vertex 0.00087899999925866723 -0.3485180139541626 0.031585998833179474
   vertex -0.00098500004969537258 -0.30199599266052246 0.034150000661611557
  endloop
 endfacet
 facet normal 0.51091207757506285 -0.85963297341826816 0
  outer loop
   vertex -0.018636999651789665 -0.40494999289512634 0.025243999436497688
   vertex -0.012986999936401844 -0.40159198641777039 0.027078999206423759
   vertex -0.012986999936401844 -0.40159198641777039 0.032921001315116882
  endloop
 endfacet
 facet normal 0.11171750203178027 -0.015358666223447425 0.99362131172374513
  outer loop
   vertex -0.0040000001899898052 -0.39184999465942383 0.034860000014305115
   vertex -0.00050899997586384416 -0.37001499533653259 0.034804999828338623
   vertex -0.0040000001899898052 -0.35691499710083008 0.035399999469518661
  endloop
 endfacet
 facet normal 0.34379485328934845 0.0024993018096767946 0.93904145400627526
  outer loop
   vertex -0.0040000001899898052 -0.35691499710083008 0.035399999469518661
   vertex -0.00098500004969537258 -0.30199599266052246 0.034150000661611557
   vertex -0.0040000001899898052 -0.25547099113464355 0.035130001604557037
  endloop
 endfacet
 facet normal -0.24872041096245093 -0.0587862515583501 0.96678970505399353
  outer loop
   vertex -0.017866000533103943 -0.41233998537063599 0.034504998475313187
   vertex -0.010110000148415565 -0.38093400001525879 0.038410000503063202
   vertex -0.018636999651789665 -0.40494999289512634 0.034756001085042953
  endloop
 endfacet
 facet normal 0.34049459807278215 -0.06014763808994094 0.93832067563038168
  outer loop
   vertex -0.018636999651789665 -0.40494999289512634 0.034756001085042953
   vertex -0.012986999936401844 -0.40159198641777039 0.032921001315116882
   vertex -0.0082849999889731407 -0.32853201031684875 0.035898000001907349
  endloop
 endfacet
 facet normal 0.48417855749675826 -0.013530438617738892 0.87486459048881959
  outer loop
   vertex -0.0097129996865987778 -0.40209600329399109 0.037863001227378845
   vertex -0.0040000001899898052 -0.35691499710083008 0.035399999469518661
   vertex -0.010110000148415565 -0.38093400001525879 0.038410000503063202
  endloop
 endfacet
 facet normal -0.57718533299435748 0.04402850075164539 0.81542539971339811
  outer loop
   vertex -0.00082600000314414501 -0.36548098921775818 0.025630999356508255
   vertex 0.00083999999333173037 -0.30115500092506409 0.023336999118328094
   vertex -0.0040000001899898052 -0.32298898696899414 0.021090000867843628
  endloop
 endfacet
 facet normal 0.94175398877310712 -0.035077310314554064 -0.3344682450263986
  outer loop
   vertex 0.00087899999925866723 -0.3485180139541626 0.028413999825716019
   vertex 0.00083999999333173037 -0.30115500092506409 0.023336999118328094
   vertex 0.0031900000758469105 -0.27932101488113403 0.027664000168442726
  endloop
 endfacet
 facet normal 0.33927729492717151 0.051186725361835002 0.93929273194975438
  outer loop
   vertex -0.0040000001899898052 -0.38244399428367615 0.024329999461770058
   vertex -0.0040000001899898052 -0.32298898696899414 0.021090000867843628
   vertex -0.0082059996202588081 -0.35238200426101685 0.02421100065112114
  endloop
 endfacet
 facet normal 0.99944277283002103 -0.033378793235211535 0
  outer loop
   vertex 0.00087899999925866723 -0.3485180139541626 0.031585998833179474
   vertex 0.0031900000758469105 -0.27932101488113403 0.027664000168442726
   vertex 0.0031900000758469105 -0.27932101488113403 0.032336000353097916
  endloop
 endfacet
 facet normal -0.98539193960219318 0.0072957870249617269 -0.17014551671646885
  outer loop
   vertex -0.0084429997950792313 -0.39201799035072327 0.0238840002566576
   vertex -0.0091350004076957703 -0.38177299499511719 0.028331000357866287
   vertex -0.0082059996202588081 -0.35238200426101685 0.02421100065112114
  endloop
 endfacet
 facet normal 0.40575280169350531 -0.0015900929141707237 0.91398147438686916
  outer loop
   vertex -0.00098500004969537258 -0.30199599266052246 0.034150000661611557
   vertex 0.0031900000758469105 -0.27932101488113403 0.032336000353097916
   vertex -0.00090500002261251211 -0.2183540016412735 0.03426000103354454
  endloop
 endfacet
 facet normal 0.98163109957581984 -0.19078884753980493 0
  outer loop
   vertex -0.012986999936401844 -0.40159198641777039 0.027078999206423759
   vertex -0.0091350004076957703 -0.38177299499511719 0.028331000357866287
   vertex -0.0091350004076957703 -0.38177299499511719 0.031668998301029205
  endloop
 endfacet
 facet normal 0.01699237639064026 0.022013442078054769 0.9996132589719261
  outer loop
   vertex -0.0040000001899898052 -0.25547099113464355 0.035130001604557037
   vertex -0.00090500002261251211 -0.2183540016412735 0.03426000103354454
   vertex -0.0040000001899898052 -0.15738700330257416 0.032970000058412552
  endloop
 endfacet
 facet normal 0.41795559769813379 -0.023863638637535885 0.90815397653909591
  outer loop
   vertex -0.012986999936401844 -0.40159198641777039 0.032921001315116882
   vertex -0.0091350004076957703 -0.38177299499511719 0.031668998301029205
   vertex -0.0064599998295307159 -0.26958000659942627 0.033385999500751495
  endloop
 endfacet
 facet normal -0.84231619548988412 0.055037551184418831 0.53616629395652027
  outer loop
   vertex -0.010110000148415565 -0.38093400001525879 0.038410000503063202
   vertex -0.0040000001899898052 -0.25547099113464355 0.035130001604557037
   vertex -0.0082849999889731407 -0.32853201031684875 0.035898000001907349
  endloop
 endfacet
 facet normal 0.973893138900226 -0.020515793199815648 0.22607798705855359
  outer loop
   vertex -0.0082849999889731407 -0.32853201031684875 0.035898000001907349
   vertex -0.0064599998295307159 -0.26958000659942627 0.033385999500751495
   vertex -0.0040000001899898052 -0.15738700330257416 0.032970000058412552
  endloop
 endfacet
 facet normal -0.45866935594626634 0.016109554151678664 0.88846097504666544
  outer loop
   vertex 0.00083999999333173037 -0.30115500092506409 0.023336999118328094
   vertex 0.0015549999661743641 -0.22658400237560272 0.022353999316692352
   vertex -0.0040000001899898052 -0.25547099113464355 0.020010000094771385
  endloop
 endfacet
 facet normal -0.8982432778046151 0.016373509036413596 0.43919349048073958
  outer loop
   vertex 0.0031900000758469105 -0.27932101488113403 0.027664000168442726
   vertex 0.0044740000739693642 -0.19769600033760071 0.027247000485658646
   vertex 0.0015549999661743641 -0.22658400237560272 0.022353999316692352
  endloop
 endfacet
 facet normal 0.71464325894064584 0.011187419601936659 0.69939963832800411
  outer loop
   vertex -0.0040000001899898052 -0.32298898696899414 0.021090000867843628
   vertex -0.0040000001899898052 -0.25547099113464355 0.020010000094771385
   vertex -0.0079669998958706856 -0.28519999980926514 0.024538999423384666
  endloop
 endfacet
 facet normal 0.99987629908346498 -0.015728526032435068 0
  outer loop
   vertex 0.0031900000758469105 -0.27932101488113403 0.032336000353097916
   vertex 0.0044740000739693642 -0.19769600033760071 0.027247000485658646
   vertex 0.0044740000739693642 -0.19769600033760071 0.032752998173236847
  endloop
 endfacet
 facet normal -0.98705218793806426 0.0027284389190053112 0.16037622613013869
  outer loop
   vertex -0.0082059996202588081 -0.35238200426101685 0.02421100065112114
   vertex -0.0073379999957978725 -0.31492799520492554 0.028915999457240105
   vertex -0.0079669998958706856 -0.28519999980926514 0.024538999423384666
  endloop
 endfacet
 facet normal 0.3973041581012825 -0.036559203420407201 0.91695846721686158
  outer loop
   vertex -0.00090500002261251211 -0.2183540016412735 0.03426000103354454
   vertex 0.0044740000739693642 -0.19769600033760071 0.032752998173236847
   vertex 0.00036400000681169331 -0.16074599325656891 0.036006998270750046
  endloop
 endfacet
 facet normal 0.99963884537210534 -0.026873385032853209 0
  outer loop
   vertex -0.0091350004076957703 -0.38177299499511719 0.028331000357866287
   vertex -0.0073379999957978725 -0.31492799520492554 0.028915999457240105
   vertex -0.0073379999957978725 -0.31492799520492554 0.031083999201655388
  endloop
 endfacet
 facet normal -0.6055917786774011 -0.070088333595210467 0.79268292721124511
  outer loop
   vertex -0.0040000001899898052 -0.15738700330257416 0.032970000058412552
   vertex 0.00036400000681169331 -0.16074599325656891 0.036006998270750046
   vertex -0.0040000001899898052 -0.12379699945449829 0.035939998924732208
  endloop
 endfacet
 facet normal 0.8716724354007982 -0.019147476099764117 0.48971475322012747
  outer loop
   vertex -0.0091350004076957703 -0.38177299499511719 0.031668998301029205
   vertex -0.0073379999957978725 -0.31492799520492554 0.031083999201655388
   vertex -0.0067770001478493214 -0.21936200559139252 0.033822000026702881
  endloop
 endfacet
 facet normal -0.35611461961214785 -0.010360442894486259 0.9343848451904202
  outer loop
   vertex -0.0064599998295307159 -0.26958000659942627 0.033385999500751495
   vertex -0.0040000001899898052 -0.12379699945449829 0.035939998924732208
   vertex -0.0067770001478493214 -0.21936200559139252 0.033822000026702881
  endloop
 endfacet
 facet normal -0.4226954760458278 -0.010580629222170462 0.90621001142983071
  outer loop
   vertex 0.0015549999661743641 -0.22658400237560272 0.022353999316692352
   vertex 0.0012369999894872308 -0.17636600136756897 0.022792000323534012
   vertex -0.0040000001899898052 -0.20542100071907043 0.020010000094771385
  endloop
 endfacet
 facet normal -0.85362582438050616 -0.02083892943012235 0.52046968304686836
  outer loop
   vertex 0.0044740000739693642 -0.19769600033760071 0.027247000485658646
   vertex 0.0034469999372959137 -0.14731000363826752 0.027580000460147858
   vertex 0.0012369999894872308 -0.17636600136756897 0.022792000323534012
  endloop
 endfacet
 facet normal 0.72243796237822766 0 0.6914357457600776
  outer loop
   vertex -0.0040000001899898052 -0.25547099113464355 0.020010000094771385
   vertex -0.0040000001899898052 -0.20542100071907043 0.020010000094771385
   vertex -0.0081259999424219131 -0.21046000719070435 0.024320999160408974
  endloop
 endfacet
 facet normal 0.99979233849193172 0.020378417328993138 -0
  outer loop
   vertex 0.0044740000739693642 -0.19769600033760071 0.032752998173236847
   vertex 0.0034469999372959137 -0.14731000363826752 0.027580000460147858
   vertex 0.0034469999372959137 -0.14731000363826752 0.032419998198747635
  endloop
 endfacet
 facet normal -0.99822261749807539 -0.0019498609902536075 0.059563444808118315
  outer loop
   vertex -0.0079669998958706856 -0.28519999980926514 0.024538999423384666
   vertex -0.0078520001843571663 -0.21549899876117706 0.028748000040650368
   vertex -0.0081259999424219131 -0.21046000719070435 0.024320999160408974
  endloop
 endfacet
 facet normal 0.84019023110295477 -0.048595732290774109 0.54011001690608096
  outer loop
   vertex 0.00036400000681169331 -0.16074599325656891 0.036006998270750046
   vertex 0.0034469999372959137 -0.14731000363826752 0.032419998198747635
   vertex 0.0015549999661743641 -0.12194900214672089 0.037645000964403152
  endloop
 endfacet
 facet normal -0.99998663829914325 -0.0051694509552183141 -0
  outer loop
   vertex -0.0073379999957978725 -0.31492799520492554 0.028915999457240105
   vertex -0.0078520001843571663 -0.21549899876117706 0.031252000480890274
   vertex -0.0078520001843571663 -0.21549899876117706 0.028748000040650368
  endloop
 endfacet
 facet normal -0.23335513302770547 -0.18016109163419644 0.95555604908911362
  outer loop
   vertex -0.0040000001899898052 -0.12379699945449829 0.035939998924732208
   vertex 0.0015549999661743641 -0.12194900214672089 0.037645000964403152
   vertex -0.0040000001899898052 -0.096588000655174255 0.04106999933719635
  endloop
 endfacet
 facet normal -0.99821917226654322 -0.0050598838614380557 -0.059438049217705319
  outer loop
   vertex -0.0073379999957978725 -0.31492799520492554 0.031083999201655388
   vertex -0.0084429997950792313 -0.15604299306869507 0.036116000264883041
   vertex -0.0078520001843571663 -0.21549899876117706 0.031252000480890274
  endloop
 endfacet
 facet normal -0.42205268648164634 -0.043910563020614801 0.90550725689463007
  outer loop
   vertex -0.0067770001478493214 -0.21936200559139252 0.033822000026702881
   vertex -0.0040000001899898052 -0.096588000655174255 0.04106999933719635
   vertex -0.0084429997950792313 -0.15604299306869507 0.036116000264883041
  endloop
 endfacet
 facet normal -0.31764800972443846 -0.025547871035259882 0.94786446721230599
  outer loop
   vertex 0.0012369999894872308 -0.17636600136756897 0.022792000323534012
   vertex 0.00044299999717622995 -0.12597900629043579 0.0238840002566576
   vertex -0.0040000001899898052 -0.15436400473117828 0.021630000323057175
  endloop
 endfacet
 facet normal -0.83148732737693265 -0.020906317841152336 0.55515020515702806
  outer loop
   vertex 0.0034469999372959137 -0.14731000363826752 0.027580000460147858
   vertex 0.0024200000334531069 -0.097594998776912689 0.027914000675082207
   vertex 0.00044299999717622995 -0.12597900629043579 0.0238840002566576
  endloop
 endfacet
 facet normal 0.66481772742878664 -0.023690006578105827 0.74662987676944259
  outer loop
   vertex -0.0040000001899898052 -0.20542100071907043 0.020010000094771385
   vertex -0.0040000001899898052 -0.15436400473117828 0.021630000323057175
   vertex -0.0076500000432133675 -0.15133999288082123 0.024976000189781189
  endloop
 endfacet
 facet normal 0.99978669704793255 0.020653338858057639 -0
  outer loop
   vertex 0.0034469999372959137 -0.14731000363826752 0.032419998198747635
   vertex 0.0024200000334531069 -0.097594998776912689 0.027914000675082207
   vertex 0.0024200000334531069 -0.097594998776912689 0.032085999846458435
  endloop
 endfacet
 facet normal -0.99813462258324148 0.0087058851473715039 -0.060427500067526535
  outer loop
   vertex -0.0081259999424219131 -0.21046000719070435 0.024320999160408974
   vertex -0.0078520001843571663 -0.14831799268722534 0.028748000040650368
   vertex -0.0076500000432133675 -0.15133999288082123 0.024976000189781189
  endloop
 endfacet
 facet normal 0.9939711261757207 -0.056721162584015557 -0.093830219247783675
  outer loop
   vertex 0.0015549999661743641 -0.12194900214672089 0.037645000964403152
   vertex 0.0024200000334531069 -0.097594998776912689 0.032085999846458435
   vertex 0.0035379999317228794 -0.09171699732542038 0.040376000106334686
  endloop
 endfacet
 facet normal -1 0 -0
  outer loop
   vertex -0.0078520001843571663 -0.21549899876117706 0.028748000040650368
   vertex -0.0078520001843571663 -0.14831799268722534 0.031252000480890274
   vertex -0.0078520001843571663 -0.14831799268722534 0.028748000040650368
  endloop
 endfacet
 facet normal 0.41407659537002117 -0.53597275960623847 0.73571310585502359
  outer loop
   vertex -0.0040000001899898052 -0.096588000655174255 0.04106999933719635
   vertex 0.0035379999317228794 -0.09171699732542038 0.040376000106334686
   vertex -0.0040000001899898052 -0.085840001702308655 0.048900000751018524
  endloop
 endfacet
 facet normal 0.94083212407358641 0 0.33887300617072386
  outer loop
   vertex -0.0078520001843571663 -0.21549899876117706 0.031252000480890274
   vertex -0.0078520001843571663 -0.14831799268722534 0.031252000480890274
   vertex -0.010745000094175339 -0.117078997194767 0.039283998310565948
  endloop
 endfacet
 facet normal -0.63261089794730474 -0.099818443445726421 0.76801024091243553
  outer loop
   vertex -0.0084429997950792313 -0.15604299306869507 0.036116000264883041
   vertex -0.0040000001899898052 -0.085840001702308655 0.048900000751018524
   vertex -0.010745000094175339 -0.117078997194767 0.039283998310565948
  endloop
 endfacet
 facet normal 0.0791723276893571 -0.016740127292269476 0.99672037737094943
  outer loop
   vertex 0.00044299999717622995 -0.12597900629043579 0.0238840002566576
   vertex 0.00012599999899975955 -0.10145899653434753 0.024320999160408974
   vertex -0.0040000001899898052 -0.12043700367212296 0.024329999461770058
  endloop
 endfacet
 facet normal -0.88564264173439777 0.10522570201946443 0.45228825186624977
  outer loop
   vertex 0.0024200000334531069 -0.097594998776912689 0.027914000675082207
   vertex 0.0039599998854100704 -0.082479998469352722 0.027412999421358109
   vertex 0.00012599999899975955 -0.10145899653434753 0.024320999160408974
  endloop
 endfacet
 facet normal 0.19004589802221356 -0.077885977012874308 0.97868091389874379
  outer loop
   vertex -0.0040000001899898052 -0.15436400473117828 0.021630000323057175
   vertex -0.0040000001899898052 -0.12043700367212296 0.024329999461770058
   vertex -0.0074909999966621399 -0.11808600276708603 0.025195000693202019
  endloop
 endfacet
 facet normal 0.99484973203901217 -0.10136079450115654 0
  outer loop
   vertex 0.0024200000334531069 -0.097594998776912689 0.032085999846458435
   vertex 0.0039599998854100704 -0.082479998469352722 0.027412999421358109
   vertex 0.0039599998854100704 -0.082479998469352722 0.032586999237537384
  endloop
 endfacet
 facet normal 0.76370953424130938 -0.0079027276899958018 0.64551165303500146
  outer loop
   vertex -0.0076500000432133675 -0.15133999288082123 0.024976000189781189
   vertex -0.0074909999966621399 -0.11808600276708603 0.025195000693202019
   vertex -0.0099060004577040672 -0.11573400348424911 0.028080999851226807
  endloop
 endfacet
 facet normal 0.99937933415633629 -0.023617275343220064 0.026137535587743059
  outer loop
   vertex 0.0035379999317228794 -0.09171699732542038 0.040376000106334686
   vertex 0.0039599998854100704 -0.082479998469352722 0.032586999237537384
   vertex 0.0038560000248253345 -0.077776998281478882 0.04081299901008606
  endloop
 endfacet
 facet normal -0.99801906359139281 -0.062912230195402152 -0
  outer loop
   vertex -0.0078520001843571663 -0.14831799268722534 0.028748000040650368
   vertex -0.0099060004577040672 -0.11573400348424911 0.031918998807668686
   vertex -0.0099060004577040672 -0.11573400348424911 0.028080999851226807
  endloop
 endfacet
 facet normal 0.70178156124670232 0.03010947813666584 0.71175561790580821
  outer loop
   vertex -0.0040000001899898052 -0.085840001702308655 0.048900000751018524
   vertex 0.0038560000248253345 -0.077776998281478882 0.04081299901008606
   vertex -0.0040000001899898052 -0.073074996471405029 0.048360001295804977
  endloop
 endfacet
 facet normal -0.99800653648287041 -0.062990962990197866 0.0038848061769329576
  outer loop
   vertex -0.0078520001843571663 -0.14831799268722534 0.031252000480890274
   vertex -0.011220999993383884 -0.094405002892017365 0.039939001202583313
   vertex -0.0099060004577040672 -0.11573400348424911 0.031918998807668686
  endloop
 endfacet
 facet normal -0.71285377040396058 -0.035198969190079039 0.70042882192897615
  outer loop
   vertex -0.010745000094175339 -0.117078997194767 0.039283998310565948
   vertex -0.0040000001899898052 -0.073074996471405029 0.048360001295804977
   vertex -0.011220999993383884 -0.094405002892017365 0.039939001202583313
  endloop
 endfacet
 facet normal 0.56114445918241396 0.029547887839207063 0.82719031561855094
  outer loop
   vertex 0.00012599999899975955 -0.10145899653434753 0.024320999160408974
   vertex 0.0011579999700188637 -0.081304997205734253 0.022901000455021858
   vertex -0.0040000001899898052 -0.083823002874851227 0.026489999145269394
  endloop
 endfacet
 facet normal 0.39808671217519359 -0.79672882386845723 -0.45469786760741421
  outer loop
   vertex 0.0039599998854100704 -0.082479998469352722 0.027412999421358109
   vertex 0.0011579999700188637 -0.081304997205734253 0.022901000455021858
   vertex 0.009352000430226326 -0.078786000609397888 0.025660999119281769
  endloop
 endfacet
 facet normal -0.64539045243800663 -0.044984384274311805 0.76252709399294516
  outer loop
   vertex -0.0040000001899898052 -0.12043700367212296 0.024329999461770058
   vertex -0.0040000001899898052 -0.083823002874851227 0.026489999145269394
   vertex -0.0099520003423094749 -0.077776998281478882 0.02180900052189827
  endloop
 endfacet
 facet normal 0.56517719041828685 -0.82496954091099117 0
  outer loop
   vertex 0.0039599998854100704 -0.082479998469352722 0.032586999237537384
   vertex 0.009352000430226326 -0.078786000609397888 0.025660999119281769
   vertex 0.009352000430226326 -0.078786000609397888 0.034338999539613724
  endloop
 endfacet
 facet normal 0.34305700696269026 0.099405149629144887 0.93403988469497812
  outer loop
   vertex -0.0074909999966621399 -0.11808600276708603 0.025195000693202019
   vertex -0.0099520003423094749 -0.077776998281478882 0.02180900052189827
   vertex -0.019920999184250832 -0.071731001138687134 0.024826999753713608
  endloop
 endfacet
 facet normal 0.760328488042053 0.21983327717623882 0.61120693755686417
  outer loop
   vertex 0.0038560000248253345 -0.077776998281478882 0.04081299901008606
   vertex 0.009352000430226326 -0.078786000609397888 0.034338999539613724
   vertex 0.003140999935567379 -0.072571001946926117 0.039829999208450317
  endloop
 endfacet
 facet normal -0.97506425101284033 -0.22192274871398104 -0
  outer loop
   vertex -0.0099060004577040672 -0.11573400348424911 0.028080999851226807
   vertex -0.019920999184250832 -0.071731001138687134 0.035172998905181885
   vertex -0.019920999184250832 -0.071731001138687134 0.024826999753713608
  endloop
 endfacet
 facet normal -0.57800288740829187 -0.62807615586581678 -0.52099232679617835
  outer loop
   vertex -0.0040000001899898052 -0.073074996471405029 0.048360001295804977
   vertex -0.0040000001899898052 -0.066356003284454346 0.040259998291730881
   vertex 0.003140999935567379 -0.072571001946926117 0.039829999208450317
  endloop
 endfacet
 facet normal -0.53324891118849593 -0.18245232967552402 0.82604887634585977
  outer loop
   vertex -0.0099060004577040672 -0.11573400348424911 0.031918998807668686
   vertex -0.01193500030785799 -0.069043003022670746 0.040922001004219055
   vertex -0.019920999184250832 -0.071731001138687134 0.035172998905181885
  endloop
 endfacet
 facet normal 0.095145420887141827 -0.035879293578588087 0.99481657865986028
  outer loop
   vertex -0.011220999993383884 -0.094405002892017365 0.039939001202583313
   vertex -0.0040000001899898052 -0.066356003284454346 0.040259998291730881
   vertex -0.01193500030785799 -0.069043003022670746 0.040922001004219055
  endloop
 endfacet
 facet normal 0.28989200053244307 -0.12791973088074035 0.94847201881694798
  outer loop
   vertex 0.0011579999700188637 -0.081304997205734253 0.022901000455021858
   vertex -0.0004290000069886446 -0.06870800256729126 0.025085000321269035
   vertex -0.0040000001899898052 -0.070386998355388641 0.025949999690055847
  endloop
 endfacet
 facet normal -0.37836562669544593 -0.31752007050023756 0.86949436879423592
  outer loop
   vertex 0.009352000430226326 -0.078786000609397888 0.025660999119281769
   vertex 0.0037040000315755606 -0.067028000950813293 0.027496999129652977
   vertex -0.0004290000069886446 -0.06870800256729126 0.025085000321269035
  endloop
 endfacet
 facet normal 0.13676146740146466 0.039780733980190178 0.98980492736609238
  outer loop
   vertex -0.0040000001899898052 -0.083823002874851227 0.026489999145269394
   vertex -0.0040000001899898052 -0.070386998355388641 0.025949999690055847
   vertex -0.0068569998256862164 -0.06350100040435791 0.026068000122904778
  endloop
 endfacet
 facet normal -0.90139858867934075 -0.43299028202361856 -0
  outer loop
   vertex 0.009352000430226326 -0.078786000609397888 0.034338999539613724
   vertex 0.0037040000315755606 -0.067028000950813293 0.032503001391887665
   vertex 0.0037040000315755606 -0.067028000950813293 0.027496999129652977
  endloop
 endfacet
 facet normal 0.029823825708165528 -0.29168655409978467 0.95604889706412099
  outer loop
   vertex -0.0099520003423094749 -0.077776998281478882 0.02180900052189827
   vertex -0.0068569998256862164 -0.06350100040435791 0.026068000122904778
   vertex -0.0093930000439286232 -0.05661499872803688 0.028248000890016556
  endloop
 endfacet
 facet normal -0.70042139019672789 -0.54227265950208825 -0.46405844342217872
  outer loop
   vertex 0.003140999935567379 -0.072571001946926117 0.039829999208450317
   vertex -0.00019099999917671084 -0.064341001212596893 0.035241998732089996
   vertex 0.0037040000315755606 -0.067028000950813293 0.032503001391887665
  endloop
 endfacet
 facet normal 0.8205864766298856 -0.57152238308936809 0
  outer loop
   vertex -0.019920999184250832 -0.071731001138687134 0.024826999753713608
   vertex -0.0093930000439286232 -0.05661499872803688 0.028248000890016556
   vertex -0.0093930000439286232 -0.05661499872803688 0.031752001494169235
  endloop
 endfacet
 facet normal -0.42261142421287384 -0.68344624139670884 -0.59523173575127697
  outer loop
   vertex -0.0040000001899898052 -0.066356003284454346 0.040259998291730881
   vertex -0.0040000001899898052 -0.061652999371290207 0.034860000014305115
   vertex -0.00019099999917671084 -0.064341001212596893 0.035241998732089996
  endloop
 endfacet
 facet normal 0.38507141982201093 -0.45048575592431372 -0.80547041245818585
  outer loop
   vertex -0.019920999184250832 -0.071731001138687134 0.035172998905181885
   vertex -0.0093930000439286232 -0.05661499872803688 0.031752001494169235
   vertex -0.0070949997752904892 -0.05913500115275383 0.03426000103354454
  endloop
 endfacet
 facet normal -0.21630209705576284 -0.46980569864378208 -0.85585980647014104
  outer loop
   vertex -0.01193500030785799 -0.069043003022670746 0.040922001004219055
   vertex -0.0070949997752904892 -0.05913500115275383 0.03426000103354454
   vertex -0.0040000001899898052 -0.061652999371290207 0.034860000014305115
  endloop
 endfacet
 facet normal 0.44028977009769743 -0.58595916748622456 0.68029168184402145
  outer loop
   vertex -0.0004290000069886446 -0.06870800256729126 0.025085000321269035
   vertex -0.0040000001899898052 -0.065684996545314789 0.029999999329447746
   vertex -0.0040000001899898052 -0.070386998355388641 0.025949999690055847
  endloop
 endfacet
 facet normal 0.028116690174620654 -0.84220098136996668 0.53843008711724993
  outer loop
   vertex 0.0037040000315755606 -0.067028000950813293 0.027496999129652977
   vertex -0.0040000001899898052 -0.065684996545314789 0.029999999329447746
   vertex -0.0004290000069886446 -0.06870800256729126 0.025085000321269035
  endloop
 endfacet
 facet normal -0.83896106266255199 -0.35515056333364559 0.41232561489666836
  outer loop
   vertex -0.0040000001899898052 -0.070386998355388641 0.025949999690055847
   vertex -0.0040000001899898052 -0.065684996545314789 0.029999999329447746
   vertex -0.0068569998256862164 -0.06350100040435791 0.026068000122904778
  endloop
 endfacet
 facet normal -0.17173564951432729 -0.98514306914574201 0
  outer loop
   vertex 0.0037040000315755606 -0.067028000950813293 0.032503001391887665
   vertex -0.0040000001899898052 -0.065684996545314789 0.029999999329447746
   vertex 0.0037040000315755606 -0.067028000950813293 0.027496999129652977
  endloop
 endfacet
 facet normal -0.82873403402798507 -0.42169149395563815 0.3679350279181971
  outer loop
   vertex -0.0068569998256862164 -0.06350100040435791 0.026068000122904778
   vertex -0.0040000001899898052 -0.065684996545314789 0.029999999329447746
   vertex -0.0093930000439286232 -0.05661499872803688 0.028248000890016556
  endloop
 endfacet
 facet normal -0.28863383517088559 -0.85586637147502298 0.42916577609674789
  outer loop
   vertex -0.00019099999917671084 -0.064341001212596893 0.035241998732089996
   vertex -0.0040000001899898052 -0.065684996545314789 0.029999999329447746
   vertex 0.0037040000315755606 -0.067028000950813293 0.032503001391887665
  endloop
 endfacet
 facet normal -0.85953471493813205 -0.51107736578352225 0
  outer loop
   vertex -0.0093930000439286232 -0.05661499872803688 0.028248000890016556
   vertex -0.0040000001899898052 -0.065684996545314789 0.029999999329447746
   vertex -0.0093930000439286232 -0.05661499872803688 0.031752001494169235
  endloop
 endfacet
 facet normal -0.51898522075215714 -0.65785959142742856 0.54577934974472198
  outer loop
   vertex -0.0040000001899898052 -0.061652999371290207 0.034860000014305115
   vertex -0.0040000001899898052 -0.065684996545314789 0.029999999329447746
   vertex -0.00019099999917671084 -0.064341001212596893 0.035241998732089996
  endloop
 endfacet
 facet normal -0.81955372338095789 -0.52957360371518003 0.2188229712359418
  outer loop
   vertex -0.0093930000439286232 -0.05661499872803688 0.031752001494169235
   vertex -0.0040000001899898052 -0.065684996545314789 0.029999999329447746
   vertex -0.0070949997752904892 -0.05913500115275383 0.03426000103354454
  endloop
 endfacet
 facet normal -0.59995956228944813 -0.61572058979384248 0.51081961485574989
  outer loop
   vertex -0.0070949997752904892 -0.05913500115275383 0.03426000103354454
   vertex -0.0040000001899898052 -0.065684996545314789 0.029999999329447746
   vertex -0.0040000001899898052 -0.061652999371290207 0.034860000014305115
  endloop
 endfacet
endsolid
