solid Visualization Toolkit generated SLA File
 facet normal -0.13833525308830424 -0.14056624672446019 0.98035936678077029
  outer loop
   vertex 0.15842500329017639 0.005231000017374754 -0.011870999820530415
   vertex 0.15259000658988953 0.001829999964684248 -0.013182000257074833
   vertex 0.15465100109577179 -3.0000001061125658e-06 -0.013154000043869019
  endloop
 endfacet
 facet normal 0.26762703017705453 0.58823580144279453 0.76312149400967821
  outer loop
   vertex 0.15495400130748749 0.0071890000253915787 -0.012163000181317329
   vertex 0.15842500329017639 0.005231000017374754 -0.011870999820530415
   vertex 0.15675200521945953 0.0068859998136758804 -0.012559999711811543
  endloop
 endfacet
 facet normal 0.10231345740695832 0.46870433062981198 0.877409942320176
  outer loop
   vertex 0.15842500329017639 0.005231000017374754 -0.011870999820530415
   vertex 0.15952399373054504 0.0062210001051425934 -0.012528000399470329
   vertex 0.15675200521945953 0.0068859998136758804 -0.012559999711811543
  endloop
 endfacet
 facet normal 0.45741458774926935 0.09617397128348279 0.88403759092118339
  outer loop
   vertex 0.16141599416732788 0.004333999939262867 -0.013321000151336193
   vertex 0.15842500329017639 0.005231000017374754 -0.011870999820530415
   vertex 0.15937800705432892 -0.0030060000717639923 -0.011467999778687954
  endloop
 endfacet
 facet normal -0.15038498022270261 -0.12025046188140173 0.98128700395996638
  outer loop
   vertex 0.15842500329017639 0.005231000017374754 -0.011870999820530415
   vertex 0.15495400130748749 0.0071890000253915787 -0.012163000181317329
   vertex 0.15259000658988953 0.001829999964684248 -0.013182000257074833
  endloop
 endfacet
 facet normal -0.33153547109559528 0.0077989469628535896 0.94341051925007291
  outer loop
   vertex 0.15842500329017639 0.005231000017374754 -0.011870999820530415
   vertex 0.15465100109577179 -3.0000001061125658e-06 -0.013154000043869019
   vertex 0.15937800705432892 -0.0030060000717639923 -0.011467999778687954
  endloop
 endfacet
 facet normal 0.45486512739981561 0.083465487851061629 0.88664041652370773
  outer loop
   vertex 0.15952399373054504 0.0062210001051425934 -0.012528000399470329
   vertex 0.15842500329017639 0.005231000017374754 -0.011870999820530415
   vertex 0.16141599416732788 0.004333999939262867 -0.013321000151336193
  endloop
 endfacet
 facet normal -0.7838111571277091 -0.43196264261338102 0.44614834455434904
  outer loop
   vertex 0.15465100109577179 -3.0000001061125658e-06 -0.013154000043869019
   vertex 0.15729799866676331 -0.0063450001180171967 -0.014643999747931957
   vertex 0.15702399611473083 -0.0040609999559819698 -0.012914000079035759
  endloop
 endfacet
 facet normal -0.57570718010121846 -0.63953306936555276 0.50946903337472671
  outer loop
   vertex 0.15465100109577179 -3.0000001061125658e-06 -0.013154000043869019
   vertex 0.15259000658988953 0.001829999964684248 -0.013182000257074833
   vertex 0.1521189957857132 0.0012629999546334147 -0.014426000416278839
  endloop
 endfacet
 facet normal -0.5639421739130035 -0.40452249639032301 0.7199519250591786
  outer loop
   vertex 0.1521189957857132 0.0012629999546334147 -0.014426000416278839
   vertex 0.15729799866676331 -0.0063450001180171967 -0.014643999747931957
   vertex 0.15465100109577179 -3.0000001061125658e-06 -0.013154000043869019
  endloop
 endfacet
 facet normal -0.8488483865784241 -0.48377681612718748 0.21311125916067308
  outer loop
   vertex 0.15702399611473083 -0.0040609999559819698 -0.012914000079035759
   vertex 0.1576559990644455 -0.0048879999667406082 -0.012273999862372875
   vertex 0.15465100109577179 -3.0000001061125658e-06 -0.013154000043869019
  endloop
 endfacet
 facet normal -0.3688216424942018 -0.059783329717934007 0.92757563007860233
  outer loop
   vertex 0.1576559990644455 -0.0048879999667406082 -0.012273999862372875
   vertex 0.15937800705432892 -0.0030060000717639923 -0.011467999778687954
   vertex 0.15465100109577179 -3.0000001061125658e-06 -0.013154000043869019
  endloop
 endfacet
 facet normal -0.35357175487119069 -0.79339494721685344 0.49549114208840617
  outer loop
   vertex 0.15259000658988953 0.001829999964684248 -0.013182000257074833
   vertex 0.14490500092506409 0.0051279999315738678 -0.013384999707341194
   vertex 0.1521189957857132 0.0012629999546334147 -0.014426000416278839
  endloop
 endfacet
 facet normal -0.27530525193297234 -0.59504039085126137 0.75507214987291171
  outer loop
   vertex 0.14490500092506409 0.0051279999315738678 -0.013384999707341194
   vertex 0.15259000658988953 0.001829999964684248 -0.013182000257074833
   vertex 0.14491599798202515 0.0086289998143911362 -0.010622000321745872
  endloop
 endfacet
 facet normal 0.11462073920400366 -0.23413502658233745 0.96542367666823659
  outer loop
   vertex 0.15495400130748749 0.0071890000253915787 -0.012163000181317329
   vertex 0.14491599798202515 0.0086289998143911362 -0.010622000321745872
   vertex 0.15259000658988953 0.001829999964684248 -0.013182000257074833
  endloop
 endfacet
 facet normal 0.25996649198156374 0.37897122003784472 0.88814314016932383
  outer loop
   vertex 0.15495400130748749 0.0071890000253915787 -0.012163000181317329
   vertex 0.15675200521945953 0.0068859998136758804 -0.012559999711811543
   vertex 0.14811000227928162 0.01107999961823225 -0.011819999665021896
  endloop
 endfacet
 facet normal 0.37012490044241059 0.64464102295887182 0.66891367872920271
  outer loop
   vertex 0.14811000227928162 0.01107999961823225 -0.011819999665021896
   vertex 0.15675200521945953 0.0068859998136758804 -0.012559999711811543
   vertex 0.15970300137996674 0.0064409999176859856 -0.013763999566435814
  endloop
 endfacet
 facet normal 0.22624497264624138 0.95281833365560664 0.20236213925053886
  outer loop
   vertex 0.15675200521945953 0.0068859998136758804 -0.012559999711811543
   vertex 0.15952399373054504 0.0062210001051425934 -0.012528000399470329
   vertex 0.15970300137996674 0.0064409999176859856 -0.013763999566435814
  endloop
 endfacet
 facet normal 0.1800807558805734 0.23249532816566518 0.95578075087470826
  outer loop
   vertex 0.14811000227928162 0.01107999961823225 -0.011819999665021896
   vertex 0.14491599798202515 0.0086289998143911362 -0.010622000321745872
   vertex 0.15495400130748749 0.0071890000253915787 -0.012163000181317329
  endloop
 endfacet
 facet normal 0.73357502823951748 0.64279009337369342 0.22065487487030433
  outer loop
   vertex 0.15952399373054504 0.0062210001051425934 -0.012528000399470329
   vertex 0.16141599416732788 0.004333999939262867 -0.013321000151336193
   vertex 0.15970300137996674 0.0064409999176859856 -0.013763999566435814
  endloop
 endfacet
 facet normal -0.083712609651318548 0.26570195488469117 0.96041380152297873
  outer loop
   vertex 0.16141599416732788 0.004333999939262867 -0.013321000151336193
   vertex 0.15937800705432892 -0.0030060000717639923 -0.011467999778687954
   vertex 0.1620199978351593 -0.0010349999647587538 -0.011783000081777573
  endloop
 endfacet
 facet normal 0.13220014520131335 -0.018819016878420504 0.99104438155537788
  outer loop
   vertex 0.1620199978351593 -0.0010349999647587538 -0.011783000081777573
   vertex 0.15937800705432892 -0.0030060000717639923 -0.011467999778687954
   vertex 0.16105200350284576 -0.0039380001835525036 -0.011708999983966351
  endloop
 endfacet
 facet normal -0.34640548573571756 -0.083210967883030423 0.93438705806329048
  outer loop
   vertex 0.15852099657058716 -0.0051090000197291374 -0.011973000131547451
   vertex 0.15937800705432892 -0.0030060000717639923 -0.011467999778687954
   vertex 0.1576559990644455 -0.0048879999667406082 -0.012273999862372875
  endloop
 endfacet
 facet normal 0.0081346701111572051 -0.23662087283866529 0.97156800568938617
  outer loop
   vertex 0.16105200350284576 -0.0039380001835525036 -0.011708999983966351
   vertex 0.15937800705432892 -0.0030060000717639923 -0.011467999778687954
   vertex 0.15852099657058716 -0.0051090000197291374 -0.011973000131547451
  endloop
 endfacet
 facet normal 0.77868507018932176 0.62667749180110133 -0.0304118847513851
  outer loop
   vertex 0.15970300137996674 0.0064409999176859856 -0.013763999566435814
   vertex 0.16141599416732788 0.004333999939262867 -0.013321000151336193
   vertex 0.16033700108528137 0.0055680000223219395 -0.015519999898970127
  endloop
 endfacet
 facet normal 0.20993763113480407 0.8929940403268346 0.3981053063879742
  outer loop
   vertex 0.16336099803447723 0.0041789999231696129 -0.013999000191688538
   vertex 0.16033700108528137 0.0055680000223219395 -0.015519999898970127
   vertex 0.16141599416732788 0.004333999939262867 -0.013321000151336193
  endloop
 endfacet
 facet normal 0.33541620960673663 0.29411009876505345 0.8949833608159764
  outer loop
   vertex 0.16336099803447723 0.0041789999231696129 -0.013999000191688538
   vertex 0.16141599416732788 0.004333999939262867 -0.013321000151336193
   vertex 0.1620199978351593 -0.0010349999647587538 -0.011783000081777573
  endloop
 endfacet
 facet normal -0.088332635362805667 -0.60814224228974345 0.78889819284408591
  outer loop
   vertex 0.15729799866676331 -0.0063450001180171967 -0.014643999747931957
   vertex 0.15935200452804565 -0.0065239998511970043 -0.014551999978721142
   vertex 0.15702399611473083 -0.0040609999559819698 -0.012914000079035759
  endloop
 endfacet
 facet normal -0.75418947507603051 -0.64976931377463354 -0.09485818130969545
  outer loop
   vertex 0.15702399611473083 -0.0040609999559819698 -0.012914000079035759
   vertex 0.15935200452804565 -0.0065239998511970043 -0.014551999978721142
   vertex 0.1576559990644455 -0.0048879999667406082 -0.012273999862372875
  endloop
 endfacet
 facet normal -0.70275965630540371 -0.34271748933582641 -0.62343691579249505
  outer loop
   vertex 0.15856599807739258 -0.0028019999153912067 -0.018021000549197197
   vertex 0.15837900340557098 -0.0052800001576542854 -0.016448000445961952
   vertex 0.15729799866676331 -0.0063450001180171967 -0.014643999747931957
  endloop
 endfacet
 facet normal -0.76891234761817839 -0.27497420588214372 -0.57720272676052564
  outer loop
   vertex 0.15707899630069733 -0.00027700001373887062 -0.017242999747395515
   vertex 0.15856599807739258 -0.0028019999153912067 -0.018021000549197197
   vertex 0.15729799866676331 -0.0063450001180171967 -0.014643999747931957
  endloop
 endfacet
 facet normal -0.54232185829151935 -0.34725368011735996 -0.76505024911059505
  outer loop
   vertex 0.15707899630069733 -0.00027700001373887062 -0.017242999747395515
   vertex 0.15729799866676331 -0.0063450001180171967 -0.014643999747931957
   vertex 0.1521189957857132 0.0012629999546334147 -0.014426000416278839
  endloop
 endfacet
 facet normal -0.1857406842037499 -0.79339061260201771 -0.57968244243423306
  outer loop
   vertex 0.15837900340557098 -0.0052800001576542854 -0.016448000445961952
   vertex 0.15966099500656128 -0.0056509999558329582 -0.016350999474525452
   vertex 0.15729799866676331 -0.0063450001180171967 -0.014643999747931957
  endloop
 endfacet
 facet normal -0.058043949860847863 -0.89419648190871792 -0.44389587926294521
  outer loop
   vertex 0.15966099500656128 -0.0056509999558329582 -0.016350999474525452
   vertex 0.15935200452804565 -0.0065239998511970043 -0.014551999978721142
   vertex 0.15729799866676331 -0.0063450001180171967 -0.014643999747931957
  endloop
 endfacet
 facet normal -0.28421917099092414 -0.28383595529602373 -0.91578196822301838
  outer loop
   vertex 0.1521189957857132 0.0012629999546334147 -0.014426000416278839
   vertex 0.14490500092506409 0.0051279999315738678 -0.013384999707341194
   vertex 0.15498599410057068 0.0058419997803866863 -0.016735000535845757
  endloop
 endfacet
 facet normal -0.51641348268987786 -0.65567501286601504 -0.55082428450392606
  outer loop
   vertex 0.1521189957857132 0.0012629999546334147 -0.014426000416278839
   vertex 0.15539099276065826 0.0014280000468716025 -0.01768999919295311
   vertex 0.15707899630069733 -0.00027700001373887062 -0.017242999747395515
  endloop
 endfacet
 facet normal -0.7057456005124001 0.087357124834586672 -0.70305894496693966
  outer loop
   vertex 0.1521189957857132 0.0012629999546334147 -0.014426000416278839
   vertex 0.15498599410057068 0.0058419997803866863 -0.016735000535845757
   vertex 0.15539099276065826 0.0014280000468716025 -0.01768999919295311
  endloop
 endfacet
 facet normal -0.34715666536611134 -0.86485101821577526 0.36264992207777796
  outer loop
   vertex 0.1576559990644455 -0.0048879999667406082 -0.012273999862372875
   vertex 0.15935200452804565 -0.0065239998511970043 -0.014551999978721142
   vertex 0.15852099657058716 -0.0051090000197291374 -0.011973000131547451
  endloop
 endfacet
 facet normal -0.3327812182920275 -0.90757578716854792 0.2560524385696511
  outer loop
   vertex 0.12636600434780121 0.012171999551355839 -0.012512000277638435
   vertex 0.14490500092506409 0.0051279999315738678 -0.013384999707341194
   vertex 0.13608899712562561 0.0091019999235868454 -0.010757000185549259
  endloop
 endfacet
 facet normal -0.045152813761975656 -0.61879410340860497 0.78425447464207509
  outer loop
   vertex 0.13608899712562561 0.0091019999235868454 -0.010757000185549259
   vertex 0.14490500092506409 0.0051279999315738678 -0.013384999707341194
   vertex 0.14491599798202515 0.0086289998143911362 -0.010622000321745872
  endloop
 endfacet
 facet normal -0.29850163928667861 -0.18160339112352761 -0.93697224061100148
  outer loop
   vertex 0.14490500092506409 0.0051279999315738678 -0.013384999707341194
   vertex 0.13507199287414551 0.017261000350117683 -0.012604000046849251
   vertex 0.15498599410057068 0.0058419997803866863 -0.016735000535845757
  endloop
 endfacet
 facet normal -0.032661288961380659 0.037819600080945905 -0.99875067862459987
  outer loop
   vertex 0.13507199287414551 0.017261000350117683 -0.012604000046849251
   vertex 0.14490500092506409 0.0051279999315738678 -0.013384999707341194
   vertex 0.12636600434780121 0.012171999551355839 -0.012512000277638435
  endloop
 endfacet
 facet normal -0.037422256009027557 -0.44266137271565542 0.89590763132182694
  outer loop
   vertex 0.14491599798202515 0.0086289998143911362 -0.010622000321745872
   vertex 0.13039800524711609 0.013466999866068363 -0.0088379997760057449
   vertex 0.13608899712562561 0.0091019999235868454 -0.010757000185549259
  endloop
 endfacet
 facet normal 0.23674409209471525 0.1598979597052623 0.95832399392916356
  outer loop
   vertex 0.14491599798202515 0.0086289998143911362 -0.010622000321745872
   vertex 0.14811000227928162 0.01107999961823225 -0.011819999665021896
   vertex 0.13165700435638428 0.017627999186515808 -0.0088480003178119659
  endloop
 endfacet
 facet normal 0.11159684469658165 -0.031378810607690606 0.99325803017071734
  outer loop
   vertex 0.14491599798202515 0.0086289998143911362 -0.010622000321745872
   vertex 0.13165700435638428 0.017627999186515808 -0.0088480003178119659
   vertex 0.13039800524711609 0.013466999866068363 -0.0088379997760057449
  endloop
 endfacet
 facet normal 0.39450429525865083 0.88988218726813562 0.22907652390708674
  outer loop
   vertex 0.14811000227928162 0.01107999961823225 -0.011819999665021896
   vertex 0.15970300137996674 0.0064409999176859856 -0.013763999566435814
   vertex 0.15347599983215332 0.0093900002539157867 -0.014495999552309513
  endloop
 endfacet
 facet normal 0.4244429735489384 0.90327353978094627 0.062809828343455457
  outer loop
   vertex 0.12203399837017059 0.023140000179409981 -0.0090450001880526543
   vertex 0.14811000227928162 0.01107999961823225 -0.011819999665021896
   vertex 0.13507199287414551 0.017261000350117683 -0.012604000046849251
  endloop
 endfacet
 facet normal 0.40234120576140942 0.88048789100929226 0.25072420691362068
  outer loop
   vertex 0.13507199287414551 0.017261000350117683 -0.012604000046849251
   vertex 0.14811000227928162 0.01107999961823225 -0.011819999665021896
   vertex 0.15347599983215332 0.0093900002539157867 -0.014495999552309513
  endloop
 endfacet
 facet normal 0.38634752810945555 0.69612281041039759 0.60510215695371872
  outer loop
   vertex 0.14811000227928162 0.01107999961823225 -0.011819999665021896
   vertex 0.12203399837017059 0.023140000179409981 -0.0090450001880526543
   vertex 0.13165700435638428 0.017627999186515808 -0.0088480003178119659
  endloop
 endfacet
 facet normal 0.43805321084338861 0.88254796284487513 -0.17093413277680516
  outer loop
   vertex 0.15347599983215332 0.0093900002539157867 -0.014495999552309513
   vertex 0.15970300137996674 0.0064409999176859856 -0.013763999566435814
   vertex 0.15708400309085846 0.0072670001536607742 -0.016210999339818954
  endloop
 endfacet
 facet normal 0.48900015899315402 0.83852489290512433 -0.24032238448201165
  outer loop
   vertex 0.15970300137996674 0.0064409999176859856 -0.013763999566435814
   vertex 0.16033700108528137 0.0055680000223219395 -0.015519999898970127
   vertex 0.15708400309085846 0.0072670001536607742 -0.016210999339818954
  endloop
 endfacet
 facet normal 0.72152015810945158 -0.23739390252005796 0.65042508906714935
  outer loop
   vertex 0.16151399910449982 -0.0052470001392066479 -0.012759000062942505
   vertex 0.16447199881076813 -7.599999662488699e-05 -0.014152999967336655
   vertex 0.1620199978351593 -0.0010349999647587538 -0.011783000081777573
  endloop
 endfacet
 facet normal 0.65773730582221668 0.14498610235755058 0.73916213827068944
  outer loop
   vertex 0.1620199978351593 -0.0010349999647587538 -0.011783000081777573
   vertex 0.16447199881076813 -7.599999662488699e-05 -0.014152999967336655
   vertex 0.16336099803447723 0.0041789999231696129 -0.013999000191688538
  endloop
 endfacet
 facet normal 0.74841111462790144 -0.23373300944006339 0.62068485062833112
  outer loop
   vertex 0.16105200350284576 -0.0039380001835525036 -0.011708999983966351
   vertex 0.16151399910449982 -0.0052470001392066479 -0.012759000062942505
   vertex 0.1620199978351593 -0.0010349999647587538 -0.011783000081777573
  endloop
 endfacet
 facet normal 0.09919505768827748 -0.41798575395022941 0.90302173286409748
  outer loop
   vertex 0.16078400611877441 -0.0058789998292922974 -0.01257800031453371
   vertex 0.16105200350284576 -0.0039380001835525036 -0.011708999983966351
   vertex 0.15852099657058716 -0.0051090000197291374 -0.011973000131547451
  endloop
 endfacet
 facet normal 0.53496598109591431 -0.40566525536116421 0.74111206957034992
  outer loop
   vertex 0.16105200350284576 -0.0039380001835525036 -0.011708999983966351
   vertex 0.16078400611877441 -0.0058789998292922974 -0.01257800031453371
   vertex 0.16151399910449982 -0.0052470001392066479 -0.012759000062942505
  endloop
 endfacet
 facet normal -0.18754292339112472 -0.88538542232609685 0.42534727672614731
  outer loop
   vertex 0.15935200452804565 -0.0065239998511970043 -0.014551999978721142
   vertex 0.16078400611877441 -0.0058789998292922974 -0.01257800031453371
   vertex 0.15852099657058716 -0.0051090000197291374 -0.011973000131547451
  endloop
 endfacet
 facet normal 0.4429817222249337 0.56507497727811296 -0.69602978659592696
  outer loop
   vertex 0.16033700108528137 0.0055680000223219395 -0.015519999898970127
   vertex 0.15951099991798401 0.0041930000297725201 -0.017162000760436058
   vertex 0.15708400309085846 0.0072670001536607742 -0.016210999339818954
  endloop
 endfacet
 facet normal 0.21970327621750643 0.69072746923062867 -0.68893108049321228
  outer loop
   vertex 0.16033700108528137 0.0055680000223219395 -0.015519999898970127
   vertex 0.16243399679660797 0.0049000000581145287 -0.015521000139415264
   vertex 0.15951099991798401 0.0041930000297725201 -0.017162000760436058
  endloop
 endfacet
 facet normal 0.29340424851635516 0.92067362945720654 0.2574374001085446
  outer loop
   vertex 0.16336099803447723 0.0041789999231696129 -0.013999000191688538
   vertex 0.16243399679660797 0.0049000000581145287 -0.015521000139415264
   vertex 0.16033700108528137 0.0055680000223219395 -0.015519999898970127
  endloop
 endfacet
 facet normal 0.84509740955761814 0.43727123336091955 -0.30757801747528013
  outer loop
   vertex 0.16243399679660797 0.0049000000581145287 -0.015521000139415264
   vertex 0.16336099803447723 0.0041789999231696129 -0.013999000191688538
   vertex 0.16424599289894104 0.00058699998771771789 -0.016674000769853592
  endloop
 endfacet
 facet normal 0.96718809026488994 0.2532649461688129 -0.020101370397648536
  outer loop
   vertex 0.16447199881076813 -7.599999662488699e-05 -0.014152999967336655
   vertex 0.16424599289894104 0.00058699998771771789 -0.016674000769853592
   vertex 0.16336099803447723 0.0041789999231696129 -0.013999000191688538
  endloop
 endfacet
 facet normal 0.4880154276909861 -0.87004468196382512 -0.069736602455600177
  outer loop
   vertex 0.16078400611877441 -0.0058789998292922974 -0.01257800031453371
   vertex 0.15935200452804565 -0.0065239998511970043 -0.014551999978721142
   vertex 0.16076900064945221 -0.0056269997730851173 -0.015827000141143799
  endloop
 endfacet
 facet normal 0.2075716977403361 -0.89360040277255659 -0.39798531437971341
  outer loop
   vertex 0.16076900064945221 -0.0056269997730851173 -0.015827000141143799
   vertex 0.15935200452804565 -0.0065239998511970043 -0.014551999978721142
   vertex 0.15966099500656128 -0.0056509999558329582 -0.016350999474525452
  endloop
 endfacet
 facet normal 0.049668537118365268 0.083404242000482062 -0.99527723215034247
  outer loop
   vertex 0.16319799423217773 -0.0015269999857991934 -0.0176829993724823
   vertex 0.15856599807739258 -0.0028019999153912067 -0.018021000549197197
   vertex 0.16187499463558197 0.0040580001659691334 -0.017280999571084976
  endloop
 endfacet
 facet normal -0.24513321820753145 0.15072431910226589 -0.9577013547877945
  outer loop
   vertex 0.15951099991798401 0.0041930000297725201 -0.017162000760436058
   vertex 0.15856599807739258 -0.0028019999153912067 -0.018021000549197197
   vertex 0.15707899630069733 -0.00027700001373887062 -0.017242999747395515
  endloop
 endfacet
 facet normal 0.15033153012962053 -0.29608900311280023 -0.9432559214150501
  outer loop
   vertex 0.16319799423217773 -0.0015269999857991934 -0.0176829993724823
   vertex 0.16140399873256683 -0.0044129998423159122 -0.017062999308109283
   vertex 0.15856599807739258 -0.0028019999153912067 -0.018021000549197197
  endloop
 endfacet
 facet normal -0.042603580460662809 0.12744381024115878 -0.9909303760422058
  outer loop
   vertex 0.15856599807739258 -0.0028019999153912067 -0.018021000549197197
   vertex 0.15951099991798401 0.0041930000297725201 -0.017162000760436058
   vertex 0.16187499463558197 0.0040580001659691334 -0.017280999571084976
  endloop
 endfacet
 facet normal -0.089228354367369395 -0.52898137291215097 -0.8439295040990491
  outer loop
   vertex 0.15856599807739258 -0.0028019999153912067 -0.018021000549197197
   vertex 0.15966099500656128 -0.0056509999558329582 -0.016350999474525452
   vertex 0.15837900340557098 -0.0052800001576542854 -0.016448000445961952
  endloop
 endfacet
 facet normal 0.0053243626874008732 -0.50416539860298282 -0.86359070282945294
  outer loop
   vertex 0.16140399873256683 -0.0044129998423159122 -0.017062999308109283
   vertex 0.15966099500656128 -0.0056509999558329582 -0.016350999474525452
   vertex 0.15856599807739258 -0.0028019999153912067 -0.018021000549197197
  endloop
 endfacet
 facet normal 0.17915917486201105 -0.079706775992673007 -0.98058595743749921
  outer loop
   vertex 0.15707899630069733 -0.00027700001373887062 -0.017242999747395515
   vertex 0.15539099276065826 0.0014280000468716025 -0.01768999919295311
   vertex 0.15951099991798401 0.0041930000297725201 -0.017162000760436058
  endloop
 endfacet
 facet normal 0.29454780061453434 -0.75306301772580864 -0.58833467047832499
  outer loop
   vertex 0.16076900064945221 -0.0056269997730851173 -0.015827000141143799
   vertex 0.15966099500656128 -0.0056509999558329582 -0.016350999474525452
   vertex 0.16140399873256683 -0.0044129998423159122 -0.017062999308109283
  endloop
 endfacet
 facet normal -0.11957883359872185 0.49295484745517165 -0.86179836442500735
  outer loop
   vertex 0.15347599983215332 0.0093900002539157867 -0.014495999552309513
   vertex 0.15708400309085846 0.0072670001536607742 -0.016210999339818954
   vertex 0.15498599410057068 0.0058419997803866863 -0.016735000535845757
  endloop
 endfacet
 facet normal 0.16368932986864468 0.57536438608104024 -0.80134987771680699
  outer loop
   vertex 0.15498599410057068 0.0058419997803866863 -0.016735000535845757
   vertex 0.13507199287414551 0.017261000350117683 -0.012604000046849251
   vertex 0.15347599983215332 0.0093900002539157867 -0.014495999552309513
  endloop
 endfacet
 facet normal -0.37021586572318943 0.16386357582602254 -0.9143789921495018
  outer loop
   vertex 0.1573449969291687 0.0056920000351965427 -0.017717000097036362
   vertex 0.15539099276065826 0.0014280000468716025 -0.01768999919295311
   vertex 0.15498599410057068 0.0058419997803866863 -0.016735000535845757
  endloop
 endfacet
 facet normal -0.25839775701768247 0.64491638464107348 -0.71924505976038344
  outer loop
   vertex 0.1573449969291687 0.0056920000351965427 -0.017717000097036362
   vertex 0.15498599410057068 0.0058419997803866863 -0.016735000535845757
   vertex 0.15708400309085846 0.0072670001536607742 -0.016210999339818954
  endloop
 endfacet
 facet normal 0.18701250960456706 -0.091892931874079195 -0.97805010624353372
  outer loop
   vertex 0.15951099991798401 0.0041930000297725201 -0.017162000760436058
   vertex 0.15539099276065826 0.0014280000468716025 -0.01768999919295311
   vertex 0.1573449969291687 0.0056920000351965427 -0.017717000097036362
  endloop
 endfacet
 facet normal -0.1677048303172646 -0.98492473088143995 0.042407126598963313
  outer loop
   vertex 0.10968700051307678 0.015189999714493752 -0.0083769997581839561
   vertex 0.12636600434780121 0.012171999551355839 -0.012512000277638435
   vertex 0.11077500134706497 0.015124999918043613 -0.0055840001441538334
  endloop
 endfacet
 facet normal -0.33589925025221679 -0.71002630934480571 0.61889767629083325
  outer loop
   vertex 0.13039800524711609 0.013466999866068363 -0.0088379997760057449
   vertex 0.12636600434780121 0.012171999551355839 -0.012512000277638435
   vertex 0.13608899712562561 0.0091019999235868454 -0.010757000185549259
  endloop
 endfacet
 facet normal -0.020614714675605661 -0.93561949635563135 0.35240770646805986
  outer loop
   vertex 0.11077500134706497 0.015124999918043613 -0.0055840001441538334
   vertex 0.12636600434780121 0.012171999551355839 -0.012512000277638435
   vertex 0.13039800524711609 0.013466999866068363 -0.0088379997760057449
  endloop
 endfacet
 facet normal 0.052286225366226638 -0.10739718549921512 -0.99284036742257786
  outer loop
   vertex 0.12636600434780121 0.012171999551355839 -0.012512000277638435
   vertex 0.10357700288295746 0.023522999137639999 -0.014940000139176846
   vertex 0.13507199287414551 0.017261000350117683 -0.012604000046849251
  endloop
 endfacet
 facet normal -0.2874864403926175 -0.71378331484942914 -0.63864303490521424
  outer loop
   vertex 0.10968700051307678 0.015189999714493752 -0.0083769997581839561
   vertex 0.10357700288295746 0.023522999137639999 -0.014940000139176846
   vertex 0.12636600434780121 0.012171999551355839 -0.012512000277638435
  endloop
 endfacet
 facet normal 0.17640725701898627 0.59462904108218295 -0.78440855628474671
  outer loop
   vertex 0.11154700070619583 0.028095999732613564 -0.0096810003742575645
   vertex 0.13507199287414551 0.017261000350117683 -0.012604000046849251
   vertex 0.10357700288295746 0.023522999137639999 -0.014940000139176846
  endloop
 endfacet
 facet normal 0.42362403870872484 0.90393282565410049 0.058720699358081711
  outer loop
   vertex 0.11154700070619583 0.028095999732613564 -0.0096810003742575645
   vertex 0.12203399837017059 0.023140000179409981 -0.0090450001880526543
   vertex 0.13507199287414551 0.017261000350117683 -0.012604000046849251
  endloop
 endfacet
 facet normal 0.15214496802379437 -0.12379318078456117 0.98057491151685083
  outer loop
   vertex 0.13039800524711609 0.013466999866068363 -0.0088379997760057449
   vertex 0.11077400296926498 0.021825000643730164 -0.0047380002215504646
   vertex 0.11077500134706497 0.015124999918043613 -0.0055840001441538334
  endloop
 endfacet
 facet normal 0.18259275579352832 -0.052887760061770504 0.98176512994064602
  outer loop
   vertex 0.11077400296926498 0.021825000643730164 -0.0047380002215504646
   vertex 0.13039800524711609 0.013466999866068363 -0.0088379997760057449
   vertex 0.13165700435638428 0.017627999186515808 -0.0088480003178119659
  endloop
 endfacet
 facet normal 0.34172584230469882 0.62178091341417052 0.70470699188739705
  outer loop
   vertex 0.13165700435638428 0.017627999186515808 -0.0088480003178119659
   vertex 0.12203399837017059 0.023140000179409981 -0.0090450001880526543
   vertex 0.10502199828624725 0.028421999886631966 -0.0054560001008212566
  endloop
 endfacet
 facet normal 0.24347821708443923 0.31223421242274252 0.91827455284252135
  outer loop
   vertex 0.11077400296926498 0.021825000643730164 -0.0047380002215504646
   vertex 0.13165700435638428 0.017627999186515808 -0.0088480003178119659
   vertex 0.10502199828624725 0.028421999886631966 -0.0054560001008212566
  endloop
 endfacet
 facet normal 0.35090314470644407 0.80410141794194545 0.4798832073524571
  outer loop
   vertex 0.11154700070619583 0.028095999732613564 -0.0096810003742575645
   vertex 0.10502199828624725 0.028421999886631966 -0.0054560001008212566
   vertex 0.12203399837017059 0.023140000179409981 -0.0090450001880526543
  endloop
 endfacet
 facet normal 0.56671770427573021 0.61652586747232363 -0.54655914446466358
  outer loop
   vertex 0.15708400309085846 0.0072670001536607742 -0.016210999339818954
   vertex 0.15951099991798401 0.0041930000297725201 -0.017162000760436058
   vertex 0.1573449969291687 0.0056920000351965427 -0.017717000097036362
  endloop
 endfacet
 facet normal 0.64443290455161673 -0.76213590866937686 -0.062089356961320341
  outer loop
   vertex 0.16151399910449982 -0.0052470001392066479 -0.012759000062942505
   vertex 0.16078400611877441 -0.0058789998292922974 -0.01257800031453371
   vertex 0.16076900064945221 -0.0056269997730851173 -0.015827000141143799
  endloop
 endfacet
 facet normal 0.68080721505163611 -0.72860500395398975 -0.075075189955416941
  outer loop
   vertex 0.16076900064945221 -0.0056269997730851173 -0.015827000141143799
   vertex 0.16228599846363068 -0.0041579999960958958 -0.016326999291777611
   vertex 0.16151399910449982 -0.0052470001392066479 -0.012759000062942505
  endloop
 endfacet
 facet normal 0.87190588472315489 -0.48806239516249672 0.039689124623493485
  outer loop
   vertex 0.16228599846363068 -0.0041579999960958958 -0.016326999291777611
   vertex 0.16447199881076813 -7.599999662488699e-05 -0.014152999967336655
   vertex 0.16151399910449982 -0.0052470001392066479 -0.012759000062942505
  endloop
 endfacet
 facet normal 0.90390342992944239 -0.38673497429179154 -0.18274202861224031
  outer loop
   vertex 0.16447199881076813 -7.599999662488699e-05 -0.014152999967336655
   vertex 0.16228599846363068 -0.0041579999960958958 -0.016326999291777611
   vertex 0.16424599289894104 0.00058699998771771789 -0.016674000769853592
  endloop
 endfacet
 facet normal 0.029191159845623007 0.89805667483263019 -0.43891011035908806
  outer loop
   vertex 0.16187499463558197 0.0040580001659691334 -0.017280999571084976
   vertex 0.15951099991798401 0.0041930000297725201 -0.017162000760436058
   vertex 0.16243399679660797 0.0049000000581145287 -0.015521000139415264
  endloop
 endfacet
 facet normal 0.76946491798679806 0.44559367796228649 -0.4575696822863291
  outer loop
   vertex 0.16424599289894104 0.00058699998771771789 -0.016674000769853592
   vertex 0.16187499463558197 0.0040580001659691334 -0.017280999571084976
   vertex 0.16243399679660797 0.0049000000581145287 -0.015521000139415264
  endloop
 endfacet
 facet normal 0.47662782711223206 0.17491716076662728 -0.86152765555820332
  outer loop
   vertex 0.16187499463558197 0.0040580001659691334 -0.017280999571084976
   vertex 0.16424599289894104 0.00058699998771771789 -0.016674000769853592
   vertex 0.16319799423217773 -0.0015269999857991934 -0.0176829993724823
  endloop
 endfacet
 facet normal 0.91196701238655342 -0.38671938946287182 -0.13698278042224063
  outer loop
   vertex 0.16424599289894104 0.00058699998771771789 -0.016674000769853592
   vertex 0.16228599846363068 -0.0041579999960958958 -0.016326999291777611
   vertex 0.16319799423217773 -0.0015269999857991934 -0.0176829993724823
  endloop
 endfacet
 facet normal 0.55677174754302949 -0.71745602264577102 -0.41864313765687339
  outer loop
   vertex 0.16140399873256683 -0.0044129998423159122 -0.017062999308109283
   vertex 0.16228599846363068 -0.0041579999960958958 -0.016326999291777611
   vertex 0.16076900064945221 -0.0056269997730851173 -0.015827000141143799
  endloop
 endfacet
 facet normal 0.6316421451406502 -0.51678966254156566 -0.57788982096269215
  outer loop
   vertex 0.16228599846363068 -0.0041579999960958958 -0.016326999291777611
   vertex 0.16140399873256683 -0.0044129998423159122 -0.017062999308109283
   vertex 0.16319799423217773 -0.0015269999857991934 -0.0176829993724823
  endloop
 endfacet
 facet normal 0.046705582936704251 -0.9980495440827325 -0.041420961828432891
  outer loop
   vertex 0.11077500134706497 0.015124999918043613 -0.0055840001441538334
   vertex 0.10373599827289581 0.014756999909877777 -0.0046540000475943089
   vertex 0.10968700051307678 0.015189999714493752 -0.0083769997581839561
  endloop
 endfacet
 facet normal -0.29528856093320505 -0.77272474889191312 -0.56187287550826515
  outer loop
   vertex 0.10968700051307678 0.015189999714493752 -0.0083769997581839561
   vertex 0.10373599827289581 0.014756999909877777 -0.0046540000475943089
   vertex 0.1014069989323616 0.016124000772833824 -0.0053099999204277992
  endloop
 endfacet
 facet normal -0.18943499859876592 -0.68949092853198912 -0.6990827138314758
  outer loop
   vertex 0.10357700288295746 0.023522999137639999 -0.014940000139176846
   vertex 0.10968700051307678 0.015189999714493752 -0.0083769997581839561
   vertex 0.10046800225973129 0.021666999906301498 -0.012267000041902065
  endloop
 endfacet
 facet normal -0.29753699106687581 -0.7658532362994046 -0.57003557730776622
  outer loop
   vertex 0.10968700051307678 0.015189999714493752 -0.0083769997581839561
   vertex 0.1014069989323616 0.016124000772833824 -0.0053099999204277992
   vertex 0.10046800225973129 0.021666999906301498 -0.012267000041902065
  endloop
 endfacet
 facet normal 0.13634355955825708 -0.12408405757897069 0.98285989867413082
  outer loop
   vertex 0.10373599827289581 0.014756999909877777 -0.0046540000475943089
   vertex 0.11077500134706497 0.015124999918043613 -0.0055840001441538334
   vertex 0.11077400296926498 0.021825000643730164 -0.0047380002215504646
  endloop
 endfacet
 facet normal 0.30328652707965065 0.44215353489821196 -0.84410753702889063
  outer loop
   vertex 0.10357700288295746 0.023522999137639999 -0.014940000139176846
   vertex 0.10123299807310104 0.026575999334454536 -0.014182999730110168
   vertex 0.11154700070619583 0.028095999732613564 -0.0096810003742575645
  endloop
 endfacet
 facet normal -0.42633368658334614 -0.26502883525962329 -0.86486953014034473
  outer loop
   vertex 0.10357700288295746 0.023522999137639999 -0.014940000139176846
   vertex 0.099917002022266388 0.024421000853180885 -0.013411000370979309
   vertex 0.10056900233030319 0.025414999574422836 -0.014037000015377998
  endloop
 endfacet
 facet normal -0.26855004930398141 0.032523479979798681 -0.96271651812401804
  outer loop
   vertex 0.10056900233030319 0.025414999574422836 -0.014037000015377998
   vertex 0.10123299807310104 0.026575999334454536 -0.014182999730110168
   vertex 0.10357700288295746 0.023522999137639999 -0.014940000139176846
  endloop
 endfacet
 facet normal -0.43560262151191043 -0.41825066548854767 -0.79706758618723073
  outer loop
   vertex 0.10046800225973129 0.021666999906301498 -0.012267000041902065
   vertex 0.099917002022266388 0.024421000853180885 -0.013411000370979309
   vertex 0.10357700288295746 0.023522999137639999 -0.014940000139176846
  endloop
 endfacet
 facet normal 0.31698731680571951 0.84833093932279835 0.42409156838118006
  outer loop
   vertex 0.10460299998521805 0.028939999639987946 -0.0061789997853338718
   vertex 0.10502199828624725 0.028421999886631966 -0.0054560001008212566
   vertex 0.11154700070619583 0.028095999732613564 -0.0096810003742575645
  endloop
 endfacet
 facet normal 0.2218676389344528 0.95208970315522412 0.21047552812488332
  outer loop
   vertex 0.11154700070619583 0.028095999732613564 -0.0096810003742575645
   vertex 0.10374400019645691 0.029364999383687973 -0.0071959998458623886
   vertex 0.10460299998521805 0.028939999639987946 -0.0061789997853338718
  endloop
 endfacet
 facet normal 0.10404163250638143 0.97933742814632174 -0.17341724405939349
  outer loop
   vertex 0.10243400186300278 0.028559999540448189 -0.012528000399470329
   vertex 0.10374400019645691 0.029364999383687973 -0.0071959998458623886
   vertex 0.11154700070619583 0.028095999732613564 -0.0096810003742575645
  endloop
 endfacet
 facet normal 0.28015487046486276 0.50922515318800698 -0.81375855873561576
  outer loop
   vertex 0.10243400186300278 0.028559999540448189 -0.012528000399470329
   vertex 0.11154700070619583 0.028095999732613564 -0.0096810003742575645
   vertex 0.10123299807310104 0.026575999334454536 -0.014182999730110168
  endloop
 endfacet
 facet normal 0.13233466973185201 -0.28892941859813942 0.94815996870544095
  outer loop
   vertex 0.11077400296926498 0.021825000643730164 -0.0047380002215504646
   vertex 0.10392799973487854 0.020514000207185745 -0.0041820001788437366
   vertex 0.10405399650335312 0.019305000081658363 -0.0045679998584091663
  endloop
 endfacet
 facet normal 0.033234924015137841 -0.021218546740480911 0.99922230414454316
  outer loop
   vertex 0.10373599827289581 0.014756999909877777 -0.0046540000475943089
   vertex 0.11077400296926498 0.021825000643730164 -0.0047380002215504646
   vertex 0.10405399650335312 0.019305000081658363 -0.0045679998584091663
  endloop
 endfacet
 facet normal 0.35413617074613418 0.40074123947158091 0.84498167527825463
  outer loop
   vertex 0.11077400296926498 0.021825000643730164 -0.0047380002215504646
   vertex 0.10502199828624725 0.028421999886631966 -0.0054560001008212566
   vertex 0.10425499826669693 0.026559000834822655 -0.0042510000057518482
  endloop
 endfacet
 facet normal 0.079601265552096956 0.0070719012860292942 0.99680169880207625
  outer loop
   vertex 0.10392799973487854 0.020514000207185745 -0.0041820001788437366
   vertex 0.11077400296926498 0.021825000643730164 -0.0047380002215504646
   vertex 0.10425499826669693 0.026559000834822655 -0.0042510000057518482
  endloop
 endfacet
 facet normal -0.41506119611987247 0.608405387435767 0.67643705399296017
  outer loop
   vertex 0.10460299998521805 0.028939999639987946 -0.0061789997853338718
   vertex 0.10425499826669693 0.026559000834822655 -0.0042510000057518482
   vertex 0.10502199828624725 0.028421999886631966 -0.0054560001008212566
  endloop
 endfacet
 facet normal -0.26473975615866008 0.00027596390975477369 0.96431985635108308
  outer loop
   vertex 0.10373599827289581 0.014756999909877777 -0.0046540000475943089
   vertex 0.10405399650335312 0.019305000081658363 -0.0045679998584091663
   vertex 0.10126200318336487 0.017557000741362572 -0.0053340001031756401
  endloop
 endfacet
 facet normal -0.27761739626729581 -0.012001650465588811 0.96061675067420571
  outer loop
   vertex 0.10126200318336487 0.017557000741362572 -0.0053340001031756401
   vertex 0.1014069989323616 0.016124000772833824 -0.0053099999204277992
   vertex 0.10373599827289581 0.014756999909877777 -0.0046540000475943089
  endloop
 endfacet
 facet normal -0.99352004871843325 -0.09961103771222421 0.054731654099029796
  outer loop
   vertex 0.10046800225973129 0.021666999906301498 -0.012267000041902065
   vertex 0.1014069989323616 0.016124000772833824 -0.0053099999204277992
   vertex 0.10126200318336487 0.017557000741362572 -0.0053340001031756401
  endloop
 endfacet
 facet normal -0.96764365315664325 0.15234997329758512 0.20113489538588469
  outer loop
   vertex 0.10046800225973129 0.021666999906301498 -0.012267000041902065
   vertex 0.10126200318336487 0.017557000741362572 -0.0053340001031756401
   vertex 0.10286399722099304 0.027060000225901604 -0.0048250001855194569
  endloop
 endfacet
 facet normal -0.94013396211187361 -0.047933305762111585 0.33741744395117762
  outer loop
   vertex 0.10286399722099304 0.027060000225901604 -0.0048250001855194569
   vertex 0.099917002022266388 0.024421000853180885 -0.013411000370979309
   vertex 0.10046800225973129 0.021666999906301498 -0.012267000041902065
  endloop
 endfacet
 facet normal -0.86602646659493732 0.49908785137801204 0.030157515878586807
  outer loop
   vertex 0.10123299807310104 0.026575999334454536 -0.014182999730110168
   vertex 0.10056900233030319 0.025414999574422836 -0.014037000015377998
   vertex 0.10243400186300278 0.028559999540448189 -0.012528000399470329
  endloop
 endfacet
 facet normal -0.80375150021556585 0.58727182832747105 0.095369416240935756
  outer loop
   vertex 0.10056900233030319 0.025414999574422836 -0.014037000015377998
   vertex 0.099917002022266388 0.024421000853180885 -0.013411000370979309
   vertex 0.10286399722099304 0.027060000225901604 -0.0048250001855194569
  endloop
 endfacet
 facet normal -0.87953153241877724 0.4554546354873264 0.13778736696150401
  outer loop
   vertex 0.10243400186300278 0.028559999540448189 -0.012528000399470329
   vertex 0.10056900233030319 0.025414999574422836 -0.014037000015377998
   vertex 0.10286399722099304 0.027060000225901604 -0.0048250001855194569
  endloop
 endfacet
 facet normal 0.02059384992593432 0.62734852461801172 0.7784662625989851
  outer loop
   vertex 0.10460299998521805 0.028939999639987946 -0.0061789997853338718
   vertex 0.10350699722766876 0.028836999088525772 -0.006066999863833189
   vertex 0.10425499826669693 0.026559000834822655 -0.0042510000057518482
  endloop
 endfacet
 facet normal -0.042877553106492702 0.9084251205280327 0.41584289801946744
  outer loop
   vertex 0.10460299998521805 0.028939999639987946 -0.0061789997853338718
   vertex 0.10374400019645691 0.029364999383687973 -0.0071959998458623886
   vertex 0.10350699722766876 0.028836999088525772 -0.006066999863833189
  endloop
 endfacet
 facet normal -0.80052132379152019 0.58955321127872151 0.10766903559528729
  outer loop
   vertex 0.10374400019645691 0.029364999383687973 -0.0071959998458623886
   vertex 0.10243400186300278 0.028559999540448189 -0.012528000399470329
   vertex 0.10350699722766876 0.028836999088525772 -0.006066999863833189
  endloop
 endfacet
 facet normal -0.89923170383799311 0.41725715059695623 0.13144889915221378
  outer loop
   vertex 0.10243400186300278 0.028559999540448189 -0.012528000399470329
   vertex 0.10286399722099304 0.027060000225901604 -0.0048250001855194569
   vertex 0.10350699722766876 0.028836999088525772 -0.006066999863833189
  endloop
 endfacet
 facet normal -0.06630674397506027 -0.30974144942295712 0.94850600958180098
  outer loop
   vertex 0.10392799973487854 0.020514000207185745 -0.0041820001788437366
   vertex 0.10126200318336487 0.017557000741362572 -0.0053340001031756401
   vertex 0.10405399650335312 0.019305000081658363 -0.0045679998584091663
  endloop
 endfacet
 facet normal -0.37180250815818722 0.030702592193440289 0.92780399102390387
  outer loop
   vertex 0.10425499826669693 0.026559000834822655 -0.0042510000057518482
   vertex 0.10286399722099304 0.027060000225901604 -0.0048250001855194569
   vertex 0.10392799973487854 0.020514000207185745 -0.0041820001788437366
  endloop
 endfacet
 facet normal -0.41661817105387938 0.021553979829357167 0.90882601497824445
  outer loop
   vertex 0.10392799973487854 0.020514000207185745 -0.0041820001788437366
   vertex 0.10286399722099304 0.027060000225901604 -0.0048250001855194569
   vertex 0.10126200318336487 0.017557000741362572 -0.0053340001031756401
  endloop
 endfacet
 facet normal -0.11313544514826364 0.5963739124041666 0.79469398365336308
  outer loop
   vertex 0.10425499826669693 0.026559000834822655 -0.0042510000057518482
   vertex 0.10350699722766876 0.028836999088525772 -0.006066999863833189
   vertex 0.10286399722099304 0.027060000225901604 -0.0048250001855194569
  endloop
 endfacet
endsolid
