solid Visualization Toolkit generated SLA File
 facet normal 0.37820850501507103 0.070933692306464333 -0.92299877466334534
  outer loop
   vertex 0.021138999611139297 -0.0028659999370574951 0.018303999677300453
   vertex 0.020883999764919281 -2.3000000510364771e-05 0.018417999148368835
   vertex 0.021643999963998795 -0.000653000024612993 0.018681000918149948
  endloop
 endfacet
 facet normal 0.47621362038170006 0.077834695266057088 -0.8758780440082935
  outer loop
   vertex 0.021138999611139297 -0.0028659999370574951 0.018303999677300453
   vertex 0.019621999934315681 0.00026000000070780516 0.017757000401616096
   vertex 0.020883999764919281 -2.3000000510364771e-05 0.018417999148368835
  endloop
 endfacet
 facet normal 0.24482427037717924 0.9614105979547134 0.12550194729422376
  outer loop
   vertex 0.020883999764919281 -2.3000000510364771e-05 0.018417999148368835
   vertex 0.019706999883055687 -0.00062700000125914812 0.025341000407934189
   vertex 0.021616000682115555 -0.00051799998618662357 0.020781999453902245
  endloop
 endfacet
 facet normal 0.64591370074454757 0.76234193474243428 -0.040376549179503909
  outer loop
   vertex 0.021616000682115555 -0.00051799998618662357 0.020781999453902245
   vertex 0.021643999963998795 -0.000653000024612993 0.018681000918149948
   vertex 0.020883999764919281 -2.3000000510364771e-05 0.018417999148368835
  endloop
 endfacet
 facet normal 0.16856297723723546 0.98079778414320018 0.098092962666582864
  outer loop
   vertex 0.020883999764919281 -2.3000000510364771e-05 0.018417999148368835
   vertex 0.019621999934315681 0.00026000000070780516 0.017757000401616096
   vertex 0.011754999868571758 0.0012610000558197498 0.021267000585794449
  endloop
 endfacet
 facet normal 0.03374881043871801 0.99513511939951771 0.092558694522336046
  outer loop
   vertex 0.020883999764919281 -2.3000000510364771e-05 0.018417999148368835
   vertex 0.017537999898195267 -0.00054600002476945519 0.025260999798774719
   vertex 0.019706999883055687 -0.00062700000125914812 0.025341000407934189
  endloop
 endfacet
 facet normal 0.18792821266399728 0.96807392638902146 0.16587905211526477
  outer loop
   vertex 0.020883999764919281 -2.3000000510364771e-05 0.018417999148368835
   vertex 0.011754999868571758 0.0012610000558197498 0.021267000585794449
   vertex 0.017537999898195267 -0.00054600002476945519 0.025260999798774719
  endloop
 endfacet
 facet normal 0.96042840695497922 -0.041064231886431116 -0.27548321904155698
  outer loop
   vertex 0.021643999963998795 -0.000653000024612993 0.018681000918149948
   vertex 0.021990999579429626 -0.0022110000718384981 0.02012299932539463
   vertex 0.021672999486327171 -0.0025239998940378428 0.019060999155044556
  endloop
 endfacet
 facet normal 0.83347532089880494 -0.09754284261374277 -0.54387892338963151
  outer loop
   vertex 0.021672999486327171 -0.0025239998940378428 0.019060999155044556
   vertex 0.021138999611139297 -0.0028659999370574951 0.018303999677300453
   vertex 0.021643999963998795 -0.000653000024612993 0.018681000918149948
  endloop
 endfacet
 facet normal 0.97626122169718843 0.21659456205890323 -0.00090702636412673724
  outer loop
   vertex 0.021616000682115555 -0.00051799998618662357 0.020781999453902245
   vertex 0.021990999579429626 -0.0022110000718384981 0.02012299932539463
   vertex 0.021643999963998795 -0.000653000024612993 0.018681000918149948
  endloop
 endfacet
 facet normal 0.33100530780077309 -0.0088196391547321722 -0.94358767487335049
  outer loop
   vertex 0.021138999611139297 -0.0028659999370574951 0.018303999677300453
   vertex 0.020796999335289001 -0.0038260000292211771 0.018193000927567482
   vertex 0.01904899999499321 -0.0043810000643134117 0.017585000023245811
  endloop
 endfacet
 facet normal 0.84095281333515193 -0.24373089132533257 -0.48310828843795683
  outer loop
   vertex 0.021138999611139297 -0.0028659999370574951 0.018303999677300453
   vertex 0.021672999486327171 -0.0025239998940378428 0.019060999155044556
   vertex 0.020796999335289001 -0.0038260000292211771 0.018193000927567482
  endloop
 endfacet
 facet normal 0.19732853907043216 0.18470130086193198 -0.96278080429983592
  outer loop
   vertex 0.021138999611139297 -0.0028659999370574951 0.018303999677300453
   vertex 0.01904899999499321 -0.0043810000643134117 0.017585000023245811
   vertex 0.017717000097036362 -0.0038910000585019588 0.017405999824404716
  endloop
 endfacet
 facet normal 0.26483354326773317 -0.040070441908302883 -0.96346123640005932
  outer loop
   vertex 0.021138999611139297 -0.0028659999370574951 0.018303999677300453
   vertex 0.017717000097036362 -0.0038910000585019588 0.017405999824404716
   vertex 0.019621999934315681 0.00026000000070780516 0.017757000401616096
  endloop
 endfacet
 facet normal -0.10707378257208727 0.13246138987714187 -0.98538783495511106
  outer loop
   vertex 0.019621999934315681 0.00026000000070780516 0.017757000401616096
   vertex 0.017717000097036362 -0.0038910000585019588 0.017405999824404716
   vertex 0.017470000311732292 -8.0999998317565769e-05 0.017945000901818275
  endloop
 endfacet
 facet normal -0.16003818257728752 0.56293223142757809 -0.81086070501494056
  outer loop
   vertex 0.019621999934315681 0.00026000000070780516 0.017757000401616096
   vertex 0.017470000311732292 -8.0999998317565769e-05 0.017945000901818275
   vertex 0.017167000100016594 0.00045799999497830868 0.018378999084234238
  endloop
 endfacet
 facet normal 0.018884697745398974 0.97185262955960738 -0.23483150259098812
  outer loop
   vertex 0.017167000100016594 0.00045799999497830868 0.018378999084234238
   vertex 0.011754999868571758 0.0012610000558197498 0.021267000585794449
   vertex 0.019621999934315681 0.00026000000070780516 0.017757000401616096
  endloop
 endfacet
 facet normal 0.69248234274397402 0.65351609840601488 0.30558945353529021
  outer loop
   vertex 0.021616000682115555 -0.00051799998618662357 0.020781999453902245
   vertex 0.019706999883055687 -0.00062700000125914812 0.025341000407934189
   vertex 0.020366000011563301 -0.0018420000560581684 0.02644599974155426
  endloop
 endfacet
 facet normal -0.0022068381945831469 0.67216706736226273 0.74039622055950438
  outer loop
   vertex 0.019706999883055687 -0.00062700000125914812 0.025341000407934189
   vertex 0.017537999898195267 -0.00054600002476945519 0.025260999798774719
   vertex 0.020366000011563301 -0.0018420000560581684 0.02644599974155426
  endloop
 endfacet
 facet normal 0.95896578217991979 0.11083120288140405 0.26096182302382026
  outer loop
   vertex 0.021616000682115555 -0.00051799998618662357 0.020781999453902245
   vertex 0.021017000079154968 -0.0022599999792873859 0.023723000660538673
   vertex 0.021990999579429626 -0.0022110000718384981 0.02012299932539463
  endloop
 endfacet
 facet normal 0.97313341860656388 0.046192191437149803 0.22556070367272721
  outer loop
   vertex 0.021616000682115555 -0.00051799998618662357 0.020781999453902245
   vertex 0.020366000011563301 -0.0018420000560581684 0.02644599974155426
   vertex 0.021017000079154968 -0.0022599999792873859 0.023723000660538673
  endloop
 endfacet
 facet normal 0.019350173479042613 0.97204121132846377 -0.23401165412308844
  outer loop
   vertex 0.010950000025331974 0.00042600001324899495 0.017731999978423119
   vertex 0.011754999868571758 0.0012610000558197498 0.021267000585794449
   vertex 0.017167000100016594 0.00045799999497830868 0.018378999084234238
  endloop
 endfacet
 facet normal 0.14010688699856008 0.95600670176767211 -0.25772319723080822
  outer loop
   vertex 0.011754999868571758 0.0012610000558197498 0.021267000585794449
   vertex 0.010950000025331974 0.00042600001324899495 0.017731999978423119
   vertex 0.0049000000581145287 0.0020779999904334545 0.020571000874042511
  endloop
 endfacet
 facet normal -0.047146880020216581 0.38840248444069481 0.92028293572393005
  outer loop
   vertex 0.0049000000581145287 0.0020779999904334545 0.020571000874042511
   vertex 0.011068999767303467 -0.0024830000475049019 0.022811999544501305
   vertex 0.011754999868571758 0.0012610000558197498 0.021267000585794449
  endloop
 endfacet
 facet normal -0.42779250097458976 0.41065834058395206 0.80520388934650611
  outer loop
   vertex 0.011068999767303467 -0.0024830000475049019 0.022811999544501305
   vertex 0.017537999898195267 -0.00054600002476945519 0.025260999798774719
   vertex 0.011754999868571758 0.0012610000558197498 0.021267000585794449
  endloop
 endfacet
 facet normal -0.59426237032865215 0.26644179593863782 0.75885506164772021
  outer loop
   vertex 0.017537999898195267 -0.00054600002476945519 0.025260999798774719
   vertex 0.01451599970459938 -0.003464000066742301 0.02391899935901165
   vertex 0.018180999904870987 -0.00254100002348423 0.026465000584721565
  endloop
 endfacet
 facet normal -0.32820950322912235 -0.092435575668715075 0.94007137300360644
  outer loop
   vertex 0.017537999898195267 -0.00054600002476945519 0.025260999798774719
   vertex 0.011068999767303467 -0.0024830000475049019 0.022811999544501305
   vertex 0.01451599970459938 -0.003464000066742301 0.02391899935901165
  endloop
 endfacet
 facet normal -0.14492515874679518 0.47659096270415247 0.86709731439495608
  outer loop
   vertex 0.017537999898195267 -0.00054600002476945519 0.025260999798774719
   vertex 0.018180999904870987 -0.00254100002348423 0.026465000584721565
   vertex 0.020366000011563301 -0.0018420000560581684 0.02644599974155426
  endloop
 endfacet
 facet normal 0.89740152189424749 -0.3716870987606728 0.23773768972706555
  outer loop
   vertex 0.021017000079154968 -0.0022599999792873859 0.023723000660538673
   vertex 0.021787999197840691 -0.0029090000316500664 0.019797999411821365
   vertex 0.021990999579429626 -0.0022110000718384981 0.02012299932539463
  endloop
 endfacet
 facet normal 0.95687899595113179 -0.16792509456036048 -0.23703111551956169
  outer loop
   vertex 0.021787999197840691 -0.0029090000316500664 0.019797999411821365
   vertex 0.021672999486327171 -0.0025239998940378428 0.019060999155044556
   vertex 0.021990999579429626 -0.0022110000718384981 0.02012299932539463
  endloop
 endfacet
 facet normal 0.86796385114185293 -0.46124578788041587 -0.1840952912857306
  outer loop
   vertex 0.020796999335289001 -0.0038260000292211771 0.018193000927567482
   vertex 0.021672999486327171 -0.0025239998940378428 0.019060999155044556
   vertex 0.020378999412059784 -0.004970999900251627 0.019091000780463219
  endloop
 endfacet
 facet normal 0.82349989209126329 -0.4398683561876246 -0.35827888153012138
  outer loop
   vertex 0.021787999197840691 -0.0029090000316500664 0.019797999411821365
   vertex 0.020378999412059784 -0.004970999900251627 0.019091000780463219
   vertex 0.021672999486327171 -0.0025239998940378428 0.019060999155044556
  endloop
 endfacet
 facet normal 0.4040951135618549 -0.65126835875950984 -0.64230574034031962
  outer loop
   vertex 0.018456000834703445 -0.0053880000486969948 0.018303999677300453
   vertex 0.020796999335289001 -0.0038260000292211771 0.018193000927567482
   vertex 0.020378999412059784 -0.004970999900251627 0.019091000780463219
  endloop
 endfacet
 facet normal 0.42408367446557721 -0.67822866843701601 -0.60013241069111289
  outer loop
   vertex 0.020796999335289001 -0.0038260000292211771 0.018193000927567482
   vertex 0.018456000834703445 -0.0053880000486969948 0.018303999677300453
   vertex 0.01904899999499321 -0.0043810000643134117 0.017585000023245811
  endloop
 endfacet
 facet normal -0.043058179574695384 -0.44399510278553739 -0.89499404571995522
  outer loop
   vertex 0.017517000436782837 -0.0052000000141561031 0.018064999952912331
   vertex 0.017717000097036362 -0.0038910000585019588 0.017405999824404716
   vertex 0.01904899999499321 -0.0043810000643134117 0.017585000023245811
  endloop
 endfacet
 facet normal 0.078728114771398169 -0.60957330158394274 -0.7888106705291158
  outer loop
   vertex 0.017517000436782837 -0.0052000000141561031 0.018064999952912331
   vertex 0.01904899999499321 -0.0043810000643134117 0.017585000023245811
   vertex 0.018456000834703445 -0.0053880000486969948 0.018303999677300453
  endloop
 endfacet
 facet normal 0.1793688228899129 0.17305813683559731 -0.96844086378574434
  outer loop
   vertex 0.017023999243974686 -0.001091000041924417 0.017777999863028526
   vertex 0.017717000097036362 -0.0038910000585019588 0.017405999824404716
   vertex 0.016301000490784645 -0.0012369999894872308 0.017618000507354736
  endloop
 endfacet
 facet normal 0.046614448040167233 0.14288511541721391 -0.98864095455636469
  outer loop
   vertex 0.017023999243974686 -0.001091000041924417 0.017777999863028526
   vertex 0.017470000311732292 -8.0999998317565769e-05 0.017945000901818275
   vertex 0.017717000097036362 -0.0038910000585019588 0.017405999824404716
  endloop
 endfacet
 facet normal -0.54543184836249359 -0.22654698775428828 -0.80695759562156177
  outer loop
   vertex 0.016301000490784645 -0.0012369999894872308 0.017618000507354736
   vertex 0.017717000097036362 -0.0038910000585019588 0.017405999824404716
   vertex 0.016961000859737396 -0.0046069999225437641 0.018117999657988548
  endloop
 endfacet
 facet normal -0.44806246001929134 -0.34644701539809269 -0.82414470661602546
  outer loop
   vertex 0.016961000859737396 -0.0046069999225437641 0.018117999657988548
   vertex 0.017717000097036362 -0.0038910000585019588 0.017405999824404716
   vertex 0.017517000436782837 -0.0052000000141561031 0.018064999952912331
  endloop
 endfacet
 facet normal -0.50301136939851632 0.35259572208997414 -0.78908543201587433
  outer loop
   vertex 0.017470000311732292 -8.0999998317565769e-05 0.017945000901818275
   vertex 0.017023999243974686 -0.001091000041924417 0.017777999863028526
   vertex 0.017167000100016594 0.00045799999497830868 0.018378999084234238
  endloop
 endfacet
 facet normal 0.081300600484010596 0.5808453652479405 -0.80994374744850406
  outer loop
   vertex 0.0157919991761446 -0.00023499999952036887 0.017743999138474464
   vertex 0.010950000025331974 0.00042600001324899495 0.017731999978423119
   vertex 0.017167000100016594 0.00045799999497830868 0.018378999084234238
  endloop
 endfacet
 facet normal 0.25396175035962731 0.32939335589550617 -0.90939729845990336
  outer loop
   vertex 0.0157919991761446 -0.00023499999952036887 0.017743999138474464
   vertex 0.017167000100016594 0.00045799999497830868 0.018378999084234238
   vertex 0.017023999243974686 -0.001091000041924417 0.017777999863028526
  endloop
 endfacet
 facet normal 0.037908498067457531 -0.091448590170536623 0.99508798662735898
  outer loop
   vertex 0.020366000011563301 -0.0018420000560581684 0.02644599974155426
   vertex 0.018180999904870987 -0.00254100002348423 0.026465000584721565
   vertex 0.02032800018787384 -0.0035769999958574772 0.026288000866770744
  endloop
 endfacet
 facet normal 0.97018094305911873 -0.042971815452073715 0.23854215728393133
  outer loop
   vertex 0.020366000011563301 -0.0018420000560581684 0.02644599974155426
   vertex 0.02032800018787384 -0.0035769999958574772 0.026288000866770744
   vertex 0.021017000079154968 -0.0022599999792873859 0.023723000660538673
  endloop
 endfacet
 facet normal 0.60870905859321134 -0.38245124618086446 -0.69512899974124964
  outer loop
   vertex 0.021017000079154968 -0.0022599999792873859 0.023723000660538673
   vertex 0.020086999982595444 -0.0050869998522102833 0.024464000016450882
   vertex 0.018502000719308853 -0.0061519998125731945 0.023662000894546509
  endloop
 endfacet
 facet normal 0.74759175188668792 -0.47582955877608041 -0.46334954786419441
  outer loop
   vertex 0.021017000079154968 -0.0022599999792873859 0.023723000660538673
   vertex 0.018502000719308853 -0.0061519998125731945 0.023662000894546509
   vertex 0.018888000398874283 -0.0044889999553561211 0.02257700078189373
  endloop
 endfacet
 facet normal 0.47494214116098082 -0.71639784226655623 0.51108129895863452
  outer loop
   vertex 0.020865000784397125 -0.0046029998920857906 0.020579999312758446
   vertex 0.021017000079154968 -0.0022599999792873859 0.023723000660538673
   vertex 0.018888000398874283 -0.0044889999553561211 0.02257700078189373
  endloop
 endfacet
 facet normal 0.89481079649084982 -0.37758746763262985 0.23820441383439714
  outer loop
   vertex 0.020865000784397125 -0.0046029998920857906 0.020579999312758446
   vertex 0.021787999197840691 -0.0029090000316500664 0.019797999411821365
   vertex 0.021017000079154968 -0.0022599999792873859 0.023723000660538673
  endloop
 endfacet
 facet normal 0.95236436961478788 -0.28453986463166331 0.10972316493622659
  outer loop
   vertex 0.02032800018787384 -0.0035769999958574772 0.026288000866770744
   vertex 0.020086999982595444 -0.0050869998522102833 0.024464000016450882
   vertex 0.021017000079154968 -0.0022599999792873859 0.023723000660538673
  endloop
 endfacet
 facet normal 0.17026364300279462 0.96514205262774611 -0.19877401772092415
  outer loop
   vertex 0.0049000000581145287 0.0020779999904334545 0.020571000874042511
   vertex 0.010950000025331974 0.00042600001324899495 0.017731999978423119
   vertex 0.0029810001142323017 0.0015399999683722854 0.016315000131726265
  endloop
 endfacet
 facet normal 0.049946840852141558 0.34888553937409905 -0.93583342187834628
  outer loop
   vertex 0.011061999946832657 -0.00032500000088475645 0.017457999289035797
   vertex 0.010950000025331974 0.00042600001324899495 0.017731999978423119
   vertex 0.0157919991761446 -0.00023499999952036887 0.017743999138474464
  endloop
 endfacet
 facet normal 0.21206161744737947 0.36270822688285975 -0.90745391759421767
  outer loop
   vertex 0.0029810001142323017 0.0015399999683722854 0.016315000131726265
   vertex 0.010950000025331974 0.00042600001324899495 0.017731999978423119
   vertex 0.011061999946832657 -0.00032500000088475645 0.017457999289035797
  endloop
 endfacet
 facet normal 0.45472133675287341 0.83473795990278576 -0.31054958412307515
  outer loop
   vertex 0.001184999942779541 0.0027679998893290758 0.016985999420285225
   vertex 0.0049000000581145287 0.0020779999904334545 0.020571000874042511
   vertex 0.0029810001142323017 0.0015399999683722854 0.016315000131726265
  endloop
 endfacet
 facet normal 0.20981839320315177 0.97730044289544005 -0.029327226088128992
  outer loop
   vertex 0.00074500002665445209 0.0029190001077950001 0.018869999796152115
   vertex 0.0049000000581145287 0.0020779999904334545 0.020571000874042511
   vertex 0.001184999942779541 0.0027679998893290758 0.016985999420285225
  endloop
 endfacet
 facet normal -0.39130134924857063 -0.078753824075954479 0.91688662836234103
  outer loop
   vertex 0.0049000000581145287 0.0020779999904334545 0.020571000874042511
   vertex 0.00074500002665445209 0.0029190001077950001 0.018869999796152115
   vertex 0.011068999767303467 -0.0024830000475049019 0.022811999544501305
  endloop
 endfacet
 facet normal -0.35610914071506738 0.0013152803219267722 0.93444344394770684
  outer loop
   vertex 0.00074500002665445209 0.0029190001077950001 0.018869999796152115
   vertex -0.001534000039100647 -0.0038370001129806042 0.018011000007390976
   vertex 0.011068999767303467 -0.0024830000475049019 0.022811999544501305
  endloop
 endfacet
 facet normal -0.3283443495328951 -0.92195804908396328 0.20538584142806032
  outer loop
   vertex 0.015426999889314175 -0.0040150000713765621 0.022902000695466995
   vertex 0.01451599970459938 -0.003464000066742301 0.02391899935901165
   vertex 0.011068999767303467 -0.0024830000475049019 0.022811999544501305
  endloop
 endfacet
 facet normal -0.27182116935312545 -0.80427985405123681 -0.52843842428311449
  outer loop
   vertex 0.018228000029921532 -0.0045739999040961266 0.022312000393867493
   vertex 0.015426999889314175 -0.0040150000713765621 0.022902000695466995
   vertex 0.011068999767303467 -0.0024830000475049019 0.022811999544501305
  endloop
 endfacet
 facet normal 0.076936856908394649 -0.99395241625610842 0.078353776346140061
  outer loop
   vertex -0.0028639999218285084 -0.0042249998077750206 0.014395000413060188
   vertex 0.011068999767303467 -0.0024830000475049019 0.022811999544501305
   vertex -0.001534000039100647 -0.0038370001129806042 0.018011000007390976
  endloop
 endfacet
 facet normal 0.22163604232696962 -0.96053291433272558 -0.16808921805136345
  outer loop
   vertex 0.011225000023841858 -0.0015750000020489097 0.01782899908721447
   vertex 0.011068999767303467 -0.0024830000475049019 0.022811999544501305
   vertex -0.0028639999218285084 -0.0042249998077750206 0.014395000413060188
  endloop
 endfacet
 facet normal -0.28738553376765558 -0.9212460126204326 -0.26213610818052796
  outer loop
   vertex 0.016498999670147896 -0.0033889999613165855 0.02004300057888031
   vertex 0.018228000029921532 -0.0045739999040961266 0.022312000393867493
   vertex 0.011068999767303467 -0.0024830000475049019 0.022811999544501305
  endloop
 endfacet
 facet normal -0.25102120281953016 -0.95088427242877083 -0.18112828653372534
  outer loop
   vertex 0.016498999670147896 -0.0033889999613165855 0.02004300057888031
   vertex 0.011068999767303467 -0.0024830000475049019 0.022811999544501305
   vertex 0.011225000023841858 -0.0015750000020489097 0.01782899908721447
  endloop
 endfacet
 facet normal -0.7545243543154736 -0.5279232140305985 -0.38985904995577647
  outer loop
   vertex 0.01451599970459938 -0.003464000066742301 0.02391899935901165
   vertex 0.015426999889314175 -0.0040150000713765621 0.022902000695466995
   vertex 0.016299000009894371 -0.0053920000791549683 0.023079000413417816
  endloop
 endfacet
 facet normal -0.57877178278879859 -0.18969413166057691 -0.79312001605117466
  outer loop
   vertex 0.014961999841034412 -0.0046450002118945122 0.023876000195741653
   vertex 0.01451599970459938 -0.003464000066742301 0.02391899935901165
   vertex 0.016299000009894371 -0.0053920000791549683 0.023079000413417816
  endloop
 endfacet
 facet normal -0.51695250075835031 -0.22529302272754057 0.82583482965419641
  outer loop
   vertex 0.014961999841034412 -0.0046450002118945122 0.023876000195741653
   vertex 0.018180999904870987 -0.00254100002348423 0.026465000584721565
   vertex 0.01451599970459938 -0.003464000066742301 0.02391899935901165
  endloop
 endfacet
 facet normal -0.083147397283679092 -0.33279716100665069 0.93932558782930187
  outer loop
   vertex 0.018180999904870987 -0.00254100002348423 0.026465000584721565
   vertex 0.019764000549912453 -0.0053300000727176666 0.025616999715566635
   vertex 0.02032800018787384 -0.0035769999958574772 0.026288000866770744
  endloop
 endfacet
 facet normal -0.22605630744936728 -0.3985619571660744 0.88884583149290031
  outer loop
   vertex 0.018180999904870987 -0.00254100002348423 0.026465000584721565
   vertex 0.018074000254273415 -0.0062759998254477978 0.024762999266386032
   vertex 0.019764000549912453 -0.0053300000727176666 0.025616999715566635
  endloop
 endfacet
 facet normal -0.4472378832954903 -0.33581942377234808 0.82897743658230993
  outer loop
   vertex 0.014961999841034412 -0.0046450002118945122 0.023876000195741653
   vertex 0.017045000568032265 -0.0061329999007284641 0.024397000670433044
   vertex 0.018180999904870987 -0.00254100002348423 0.026465000584721565
  endloop
 endfacet
 facet normal -0.35642523800503007 -0.37895787805900161 0.85402106318876969
  outer loop
   vertex 0.018180999904870987 -0.00254100002348423 0.026465000584721565
   vertex 0.017045000568032265 -0.0061329999007284641 0.024397000670433044
   vertex 0.018074000254273415 -0.0062759998254477978 0.024762999266386032
  endloop
 endfacet
 facet normal 0.83936451643328136 -0.52402314053357346 -0.14445399523050348
  outer loop
   vertex 0.020865000784397125 -0.0046029998920857906 0.020579999312758446
   vertex 0.020378999412059784 -0.004970999900251627 0.019091000780463219
   vertex 0.021787999197840691 -0.0029090000316500664 0.019797999411821365
  endloop
 endfacet
 facet normal 0.544052335539702 -0.83852679247400375 0.029662678521242401
  outer loop
   vertex 0.020378999412059784 -0.004970999900251627 0.019091000780463219
   vertex 0.020865000784397125 -0.0046029998920857906 0.020579999312758446
   vertex 0.019457999616861343 -0.0055490001104772091 0.019643999636173248
  endloop
 endfacet
 facet normal 0.33460818990076507 -0.87289866549387674 -0.35508488989302617
  outer loop
   vertex 0.019457999616861343 -0.0055490001104772091 0.019643999636173248
   vertex 0.018456000834703445 -0.0053880000486969948 0.018303999677300453
   vertex 0.020378999412059784 -0.004970999900251627 0.019091000780463219
  endloop
 endfacet
 facet normal -0.15115302521562002 -0.97345451070854028 -0.17186936477849235
  outer loop
   vertex 0.017726000398397446 -0.0053909998387098312 0.018962999805808067
   vertex 0.017517000436782837 -0.0052000000141561031 0.018064999952912331
   vertex 0.018456000834703445 -0.0053880000486969948 0.018303999677300453
  endloop
 endfacet
 facet normal -0.062012332387305177 -0.99538567307701908 -0.073224534582992662
  outer loop
   vertex 0.017726000398397446 -0.0053909998387098312 0.018962999805808067
   vertex 0.018456000834703445 -0.0053880000486969948 0.018303999677300453
   vertex 0.019457999616861343 -0.0055490001104772091 0.019643999636173248
  endloop
 endfacet
 facet normal -0.72822971079803966 -0.68491942528915106 0.023809014523549388
  outer loop
   vertex 0.017517000436782837 -0.0052000000141561031 0.018064999952912331
   vertex 0.017726000398397446 -0.0053909998387098312 0.018962999805808067
   vertex 0.016961000859737396 -0.0046069999225437641 0.018117999657988548
  endloop
 endfacet
 facet normal -0.52916244555988756 -0.16412268492477025 -0.83249675705204018
  outer loop
   vertex 0.0157919991761446 -0.00023499999952036887 0.017743999138474464
   vertex 0.016301000490784645 -0.0012369999894872308 0.017618000507354736
   vertex 0.015706000849604607 -0.0013780000153928995 0.018023999407887459
  endloop
 endfacet
 facet normal 0.1711131205544443 0.20802253969132203 -0.96304045758965529
  outer loop
   vertex 0.0157919991761446 -0.00023499999952036887 0.017743999138474464
   vertex 0.017023999243974686 -0.001091000041924417 0.017777999863028526
   vertex 0.016301000490784645 -0.0012369999894872308 0.017618000507354736
  endloop
 endfacet
 facet normal -0.45774215807074731 -0.38119962299450411 -0.8032178808726701
  outer loop
   vertex 0.016301000490784645 -0.0012369999894872308 0.017618000507354736
   vertex 0.016176000237464905 -0.002486000070348382 0.018281999975442886
   vertex 0.015706000849604607 -0.0013780000153928995 0.018023999407887459
  endloop
 endfacet
 facet normal -0.76865258668058434 -0.23859409693544101 -0.59350320799201084
  outer loop
   vertex 0.016301000490784645 -0.0012369999894872308 0.017618000507354736
   vertex 0.016961000859737396 -0.0046069999225437641 0.018117999657988548
   vertex 0.016176000237464905 -0.002486000070348382 0.018281999975442886
  endloop
 endfacet
 facet normal -0.93795763521542219 -0.34670232095644155 -0.0057424023291585118
  outer loop
   vertex 0.016498999670147896 -0.0033889999613165855 0.02004300057888031
   vertex 0.016176000237464905 -0.002486000070348382 0.018281999975442886
   vertex 0.016961000859737396 -0.0046069999225437641 0.018117999657988548
  endloop
 endfacet
 facet normal -0.79330152263040155 -0.58222782371389381 0.177998470458792
  outer loop
   vertex 0.016961000859737396 -0.0046069999225437641 0.018117999657988548
   vertex 0.017726000398397446 -0.0053909998387098312 0.018962999805808067
   vertex 0.016498999670147896 -0.0033889999613165855 0.02004300057888031
  endloop
 endfacet
 facet normal 0.063242735457102545 -0.27637437163120898 -0.95896692493399227
  outer loop
   vertex 0.0157919991761446 -0.00023499999952036887 0.017743999138474464
   vertex 0.011225000023841858 -0.0015750000020489097 0.01782899908721447
   vertex 0.011061999946832657 -0.00032500000088475645 0.017457999289035797
  endloop
 endfacet
 facet normal 0.052778656410027908 -0.2413471982207186 -0.9690025507389346
  outer loop
   vertex 0.015706000849604607 -0.0013780000153928995 0.018023999407887459
   vertex 0.011225000023841858 -0.0015750000020489097 0.01782899908721447
   vertex 0.0157919991761446 -0.00023499999952036887 0.017743999138474464
  endloop
 endfacet
 facet normal 0.91433220789293002 -0.36293647084499175 0.17964891243818404
  outer loop
   vertex 0.019764000549912453 -0.0053300000727176666 0.025616999715566635
   vertex 0.020086999982595444 -0.0050869998522102833 0.024464000016450882
   vertex 0.02032800018787384 -0.0035769999958574772 0.026288000866770744
  endloop
 endfacet
 facet normal 0.56331163969561104 -0.82608379670778354 -0.016295932016781645
  outer loop
   vertex 0.020086999982595444 -0.0050869998522102833 0.024464000016450882
   vertex 0.019764000549912453 -0.0053300000727176666 0.025616999715566635
   vertex 0.018502000719308853 -0.0061519998125731945 0.023662000894546509
  endloop
 endfacet
 facet normal -0.085663366278964856 -0.98581498258070277 -0.14432812545434293
  outer loop
   vertex 0.018502000719308853 -0.0061519998125731945 0.023662000894546509
   vertex 0.018074000254273415 -0.0062759998254477978 0.024762999266386032
   vertex 0.017045000568032265 -0.0061329999007284641 0.024397000670433044
  endloop
 endfacet
 facet normal -0.03209159834805269 -0.99876999464057048 -0.03779718403720473
  outer loop
   vertex 0.018502000719308853 -0.0061519998125731945 0.023662000894546509
   vertex 0.017045000568032265 -0.0061329999007284641 0.024397000670433044
   vertex 0.017526999115943909 -0.0061099999584257603 0.02338000014424324
  endloop
 endfacet
 facet normal 0.45676199065473139 -0.88618436947164247 0.077754403073231421
  outer loop
   vertex 0.018502000719308853 -0.0061519998125731945 0.023662000894546509
   vertex 0.019764000549912453 -0.0053300000727176666 0.025616999715566635
   vertex 0.018074000254273415 -0.0062759998254477978 0.024762999266386032
  endloop
 endfacet
 facet normal 0.20604839322116877 -0.56779438881089439 -0.79696523869353131
  outer loop
   vertex 0.017526999115943909 -0.0061099999584257603 0.02338000014424324
   vertex 0.018888000398874283 -0.0044889999553561211 0.02257700078189373
   vertex 0.018502000719308853 -0.0061519998125731945 0.023662000894546509
  endloop
 endfacet
 facet normal 0.35635726889305802 -0.63755522873471859 -0.68303208359498113
  outer loop
   vertex 0.018228000029921532 -0.0045739999040961266 0.022312000393867493
   vertex 0.018888000398874283 -0.0044889999553561211 0.02257700078189373
   vertex 0.017526999115943909 -0.0061099999584257603 0.02338000014424324
  endloop
 endfacet
 facet normal 0.072212782940858658 -0.9879308998866756 0.1370322992182483
  outer loop
   vertex 0.018888000398874283 -0.0044889999553561211 0.02257700078189373
   vertex 0.018228000029921532 -0.0045739999040961266 0.022312000393867493
   vertex 0.018278000876307487 -0.0047059999778866768 0.021333999931812286
  endloop
 endfacet
 facet normal 0.07838532341486755 -0.9878772244837668 0.13399377007680588
  outer loop
   vertex 0.018278000876307487 -0.0047059999778866768 0.021333999931812286
   vertex 0.020865000784397125 -0.0046029998920857906 0.020579999312758446
   vertex 0.018888000398874283 -0.0044889999553561211 0.02257700078189373
  endloop
 endfacet
 facet normal 0.1904076655433059 -0.81890153623033402 0.54142884561311233
  outer loop
   vertex 0.019457999616861343 -0.0055490001104772091 0.019643999636173248
   vertex 0.020865000784397125 -0.0046029998920857906 0.020579999312758446
   vertex 0.018278000876307487 -0.0047059999778866768 0.021333999931812286
  endloop
 endfacet
 facet normal 0.060510773080924639 0.33761676458090395 -0.93933666308468511
  outer loop
   vertex 0.00066399999195709825 -0.0013889999827370048 0.015112999826669693
   vertex -0.0025949999690055847 0.0034769999329000711 0.016651999205350876
   vertex 0.0029810001142323017 0.0015399999683722854 0.016315000131726265
  endloop
 endfacet
 facet normal 0.1890124623558033 0.66914431267435404 -0.71869338238901459
  outer loop
   vertex -0.0025949999690055847 0.0034769999329000711 0.016651999205350876
   vertex 0.001184999942779541 0.0027679998893290758 0.016985999420285225
   vertex 0.0029810001142323017 0.0015399999683722854 0.016315000131726265
  endloop
 endfacet
 facet normal 0.19009262145350569 0.24027068900654242 -0.95191112572196335
  outer loop
   vertex 0.0029810001142323017 0.0015399999683722854 0.016315000131726265
   vertex 0.011061999946832657 -0.00032500000088475645 0.017457999289035797
   vertex 0.00066399999195709825 -0.0013889999827370048 0.015112999826669693
  endloop
 endfacet
 facet normal 0.27237046659690151 -0.24096142953392058 -0.9315320275775576
  outer loop
   vertex 0.011225000023841858 -0.0015750000020489097 0.01782899908721447
   vertex -0.0028639999218285084 -0.0042249998077750206 0.014395000413060188
   vertex 0.011061999946832657 -0.00032500000088475645 0.017457999289035797
  endloop
 endfacet
 facet normal 0.22287164067364948 -0.030569538339940822 -0.97436837751905647
  outer loop
   vertex -0.0028639999218285084 -0.0042249998077750206 0.014395000413060188
   vertex 0.00066399999195709825 -0.0013889999827370048 0.015112999826669693
   vertex 0.011061999946832657 -0.00032500000088475645 0.017457999289035797
  endloop
 endfacet
 facet normal 0.18722163367026065 0.98169551183828285 -0.034956858016855483
  outer loop
   vertex 0.001184999942779541 0.0027679998893290758 0.016985999420285225
   vertex -0.0025949999690055847 0.0034769999329000711 0.016651999205350876
   vertex 0.00074500002665445209 0.0029190001077950001 0.018869999796152115
  endloop
 endfacet
 facet normal 0.182482649092016 0.98282338400419755 -0.027536859568547498
  outer loop
   vertex -0.0025949999690055847 0.0034769999329000711 0.016651999205350876
   vertex -0.0033100000582635403 0.0036480000708252192 0.018016999587416649
   vertex 0.00074500002665445209 0.0029190001077950001 0.018869999796152115
  endloop
 endfacet
 facet normal 0.017676536424029003 0.80003018731365816 0.59969929085077556
  outer loop
   vertex -0.0037070000544190407 0.0032339999452233315 0.018580999225378036
   vertex 0.00074500002665445209 0.0029190001077950001 0.018869999796152115
   vertex -0.0033100000582635403 0.0036480000708252192 0.018016999587416649
  endloop
 endfacet
 facet normal -0.047555651228395439 0.22149043913340877 0.97400228203466388
  outer loop
   vertex -0.0062759998254477978 -0.00079600000753998756 0.019371999427676201
   vertex 0.00074500002665445209 0.0029190001077950001 0.018869999796152115
   vertex -0.0037070000544190407 0.0032339999452233315 0.018580999225378036
  endloop
 endfacet
 facet normal 0.16388905259300471 -0.17863802646321036 0.97016948722452434
  outer loop
   vertex -0.001534000039100647 -0.0038370001129806042 0.018011000007390976
   vertex 0.00074500002665445209 0.0029190001077950001 0.018869999796152115
   vertex -0.0062759998254477978 -0.00079600000753998756 0.019371999427676201
  endloop
 endfacet
 facet normal 0.17309904205095084 -0.16466665399240746 0.97104151028881758
  outer loop
   vertex -0.0062759998254477978 -0.00079600000753998756 0.019371999427676201
   vertex -0.0065990001894533634 -0.003570999950170517 0.018959000706672668
   vertex -0.001534000039100647 -0.0038370001129806042 0.018011000007390976
  endloop
 endfacet
 facet normal 0.10431117452754483 -0.59933552864922235 0.79367254139691701
  outer loop
   vertex -0.005824000108987093 -0.0041439998894929886 0.018342999741435051
   vertex -0.007350000087171793 -0.0048850001767277718 0.017983999103307724
   vertex -0.001534000039100647 -0.0038370001129806042 0.018011000007390976
  endloop
 endfacet
 facet normal 0.1047990636877049 -0.65897768010964464 0.74482586781575399
  outer loop
   vertex -0.005824000108987093 -0.0041439998894929886 0.018342999741435051
   vertex -0.001534000039100647 -0.0038370001129806042 0.018011000007390976
   vertex -0.0065990001894533634 -0.003570999950170517 0.018959000706672668
  endloop
 endfacet
 facet normal 0.1086211914168761 -0.62276899095331795 0.77482915580285472
  outer loop
   vertex -0.0084119997918605804 -0.0057060001417994499 0.017472999170422554
   vertex -0.001534000039100647 -0.0038370001129806042 0.018011000007390976
   vertex -0.007350000087171793 -0.0048850001767277718 0.017983999103307724
  endloop
 endfacet
 facet normal 0.25422617383628204 -0.96257995698210508 0.093855628243027775
  outer loop
   vertex -0.0084119997918605804 -0.0057060001417994499 0.017472999170422554
   vertex -0.0057509997859597206 -0.0052729998715221882 0.014705999754369259
   vertex -0.001534000039100647 -0.0038370001129806042 0.018011000007390976
  endloop
 endfacet
 facet normal 0.33886571782346725 -0.94053574533918682 -0.023717862956987641
  outer loop
   vertex -0.0057509997859597206 -0.0052729998715221882 0.014705999754369259
   vertex -0.0028639999218285084 -0.0042249998077750206 0.014395000413060188
   vertex -0.001534000039100647 -0.0038370001129806042 0.018011000007390976
  endloop
 endfacet
 facet normal -0.25080023268112439 -0.27801187648039133 -0.92725866931668288
  outer loop
   vertex 0.018228000029921532 -0.0045739999040961266 0.022312000393867493
   vertex 0.016299000009894371 -0.0053920000791549683 0.023079000413417816
   vertex 0.015426999889314175 -0.0040150000713765621 0.022902000695466995
  endloop
 endfacet
 facet normal -0.10685067454244042 -0.53427561413372249 -0.83852996457601869
  outer loop
   vertex 0.016299000009894371 -0.0053920000791549683 0.023079000413417816
   vertex 0.018228000029921532 -0.0045739999040961266 0.022312000393867493
   vertex 0.017526999115943909 -0.0061099999584257603 0.02338000014424324
  endloop
 endfacet
 facet normal -0.62694424136908389 -0.77567036782010756 0.072638823641099831
  outer loop
   vertex 0.018228000029921532 -0.0045739999040961266 0.022312000393867493
   vertex 0.016498999670147896 -0.0033889999613165855 0.02004300057888031
   vertex 0.018278000876307487 -0.0047059999778866768 0.021333999931812286
  endloop
 endfacet
 facet normal 0.68705787021440534 -0.030048959199210395 -0.72598108999304478
  outer loop
   vertex -0.0057580000720918179 -0.0040520001202821732 0.011649000458419323
   vertex -0.0058030001819133759 0.00064500002190470695 0.0114120002835989
   vertex -0.0028639999218285084 -0.0042249998077750206 0.014395000413060188
  endloop
 endfacet
 facet normal 0.70512551788871636 -0.0087613283999439361 -0.70902837964840149
  outer loop
   vertex -0.0035149999894201756 0.00051599997095763683 0.013689000159502029
   vertex -0.0028639999218285084 -0.0042249998077750206 0.014395000413060188
   vertex -0.0058030001819133759 0.00064500002190470695 0.0114120002835989
  endloop
 endfacet
 facet normal 0.33446981981019575 -0.94025855403650271 -0.063590810635815412
  outer loop
   vertex -0.0057509997859597206 -0.0052729998715221882 0.014705999754369259
   vertex -0.0054219998419284821 -0.0050180000253021717 0.012666000053286552
   vertex -0.0028639999218285084 -0.0042249998077750206 0.014395000413060188
  endloop
 endfacet
 facet normal 0.58848284421944064 -0.48041109254757575 -0.65030233293187722
  outer loop
   vertex -0.0054219998419284821 -0.0050180000253021717 0.012666000053286552
   vertex -0.0052100000903010368 -0.0042710001580417156 0.012306000106036663
   vertex -0.0028639999218285084 -0.0042249998077750206 0.014395000413060188
  endloop
 endfacet
 facet normal 0.2779725023336167 -0.10403437033360163 -0.95493881360832666
  outer loop
   vertex -0.0028639999218285084 -0.0042249998077750206 0.014395000413060188
   vertex -0.0035149999894201756 0.00051599997095763683 0.013689000159502029
   vertex 0.00066399999195709825 -0.0013889999827370048 0.015112999826669693
  endloop
 endfacet
 facet normal 0.58901141082532926 -0.47891240157458903 -0.65092892817543069
  outer loop
   vertex -0.0052100000903010368 -0.0042710001580417156 0.012306000106036663
   vertex -0.0057580000720918179 -0.0040520001202821732 0.011649000458419323
   vertex -0.0028639999218285084 -0.0042249998077750206 0.014395000413060188
  endloop
 endfacet
 facet normal -0.12436795276225703 -0.89200186384516156 -0.43458634035423033
  outer loop
   vertex 0.011225000023841858 -0.0015750000020489097 0.01782899908721447
   vertex 0.016176000237464905 -0.002486000070348382 0.018281999975442886
   vertex 0.016498999670147896 -0.0033889999613165855 0.02004300057888031
  endloop
 endfacet
 facet normal 0.05156999354383595 -0.20568189953239499 -0.97725917338781443
  outer loop
   vertex 0.015706000849604607 -0.0013780000153928995 0.018023999407887459
   vertex 0.016176000237464905 -0.002486000070348382 0.018281999975442886
   vertex 0.011225000023841858 -0.0015750000020489097 0.01782899908721447
  endloop
 endfacet
 facet normal -0.70691454197255987 -0.61842777638091895 0.34324760122727449
  outer loop
   vertex 0.018278000876307487 -0.0047059999778866768 0.021333999931812286
   vertex 0.016498999670147896 -0.0033889999613165855 0.02004300057888031
   vertex 0.017726000398397446 -0.0053909998387098312 0.018962999805808067
  endloop
 endfacet
 facet normal -0.44801277930677452 -0.86343849574161879 -0.23185882266860108
  outer loop
   vertex 0.017045000568032265 -0.0061329999007284641 0.024397000670433044
   vertex 0.016299000009894371 -0.0053920000791549683 0.023079000413417816
   vertex 0.017526999115943909 -0.0061099999584257603 0.02338000014424324
  endloop
 endfacet
 facet normal -0.54928472867397704 -0.82185035810666951 -0.1511564610775683
  outer loop
   vertex 0.016299000009894371 -0.0053920000791549683 0.023079000413417816
   vertex 0.017045000568032265 -0.0061329999007284641 0.024397000670433044
   vertex 0.014961999841034412 -0.0046450002118945122 0.023876000195741653
  endloop
 endfacet
 facet normal -0.20866870182255082 -0.92553607596683551 0.31597522840185366
  outer loop
   vertex 0.017726000398397446 -0.0053909998387098312 0.018962999805808067
   vertex 0.019457999616861343 -0.0055490001104772091 0.019643999636173248
   vertex 0.018278000876307487 -0.0047059999778866768 0.021333999931812286
  endloop
 endfacet
 facet normal 0.41988635485153236 0.57346097383562222 -0.70344719808738509
  outer loop
   vertex -0.0051640002056956291 0.0046489997766911983 0.016073999926447868
   vertex -0.0025949999690055847 0.0034769999329000711 0.016651999205350876
   vertex -0.0035149999894201756 0.00051599997095763683 0.013689000159502029
  endloop
 endfacet
 facet normal 0.39588157875237223 0.91358865404430456 0.092916881168307749
  outer loop
   vertex -0.0051640002056956291 0.0046489997766911983 0.016073999926447868
   vertex -0.0033100000582635403 0.0036480000708252192 0.018016999587416649
   vertex -0.0025949999690055847 0.0034769999329000711 0.016651999205350876
  endloop
 endfacet
 facet normal 0.48151278218786869 0.54066156510644303 -0.68980469163840119
  outer loop
   vertex -0.0025949999690055847 0.0034769999329000711 0.016651999205350876
   vertex 0.00066399999195709825 -0.0013889999827370048 0.015112999826669693
   vertex -0.0035149999894201756 0.00051599997095763683 0.013689000159502029
  endloop
 endfacet
 facet normal 0.34386898639105934 0.92704378830455203 0.14947887731827003
  outer loop
   vertex -0.0060160001739859581 0.0049660000950098038 0.016068000346422195
   vertex -0.0033100000582635403 0.0036480000708252192 0.018016999587416649
   vertex -0.0051640002056956291 0.0046489997766911983 0.016073999926447868
  endloop
 endfacet
 facet normal 0.23468986839038306 0.69742599515718418 0.67713931133402372
  outer loop
   vertex -0.0037070000544190407 0.0032339999452233315 0.018580999225378036
   vertex -0.0033100000582635403 0.0036480000708252192 0.018016999587416649
   vertex -0.0072550000622868538 0.0044590001925826073 0.018549000844359398
  endloop
 endfacet
 facet normal 0.2310126966514493 0.92416542260771606 0.30422262513187115
  outer loop
   vertex -0.0033100000582635403 0.0036480000708252192 0.018016999587416649
   vertex -0.0060160001739859581 0.0049660000950098038 0.016068000346422195
   vertex -0.0072550000622868538 0.0044590001925826073 0.018549000844359398
  endloop
 endfacet
 facet normal 0.25258513726384629 0.74761319621488331 0.61422736611027851
  outer loop
   vertex -0.0072550000622868538 0.0044590001925826073 0.018549000844359398
   vertex -0.0077539999037981033 0.0039579998701810837 0.019363999366760254
   vertex -0.0037070000544190407 0.0032339999452233315 0.018580999225378036
  endloop
 endfacet
 facet normal 0.20059019406580034 0.064007792587889814 0.9775820050168017
  outer loop
   vertex -0.0062759998254477978 -0.00079600000753998756 0.019371999427676201
   vertex -0.0037070000544190407 0.0032339999452233315 0.018580999225378036
   vertex -0.0077539999037981033 0.0039579998701810837 0.019363999366760254
  endloop
 endfacet
 facet normal 0.65502632984671072 0.20486904871373279 0.72730267432938689
  outer loop
   vertex -0.0077769998461008072 0.00062700000125914812 0.020323000848293304
   vertex -0.0062759998254477978 -0.00079600000753998756 0.019371999427676201
   vertex -0.0077539999037981033 0.0039579998701810837 0.019363999366760254
  endloop
 endfacet
 facet normal 0.51527571848750753 -0.18453401655424809 0.83692181873311167
  outer loop
   vertex -0.0062759998254477978 -0.00079600000753998756 0.019371999427676201
   vertex -0.007521000225096941 -0.0037690000608563423 0.019483000040054321
   vertex -0.0065990001894533634 -0.003570999950170517 0.018959000706672668
  endloop
 endfacet
 facet normal 0.42729321344687782 -0.14562172931930184 0.89230870313602617
  outer loop
   vertex -0.0062759998254477978 -0.00079600000753998756 0.019371999427676201
   vertex -0.0077769998461008072 0.00062700000125914812 0.020323000848293304
   vertex -0.007521000225096941 -0.0037690000608563423 0.019483000040054321
  endloop
 endfacet
 facet normal 0.48110497989156303 -0.63174560631710619 0.60781204925747445
  outer loop
   vertex -0.0065990001894533634 -0.003570999950170517 0.018959000706672668
   vertex -0.007521000225096941 -0.0037690000608563423 0.019483000040054321
   vertex -0.0076919998973608017 -0.0047430000267922878 0.018605999648571014
  endloop
 endfacet
 facet normal 0.27692986606020165 -0.50456686394464489 0.81775432074244947
  outer loop
   vertex -0.0065990001894533634 -0.003570999950170517 0.018959000706672668
   vertex -0.0076919998973608017 -0.0047430000267922878 0.018605999648571014
   vertex -0.005824000108987093 -0.0041439998894929886 0.018342999741435051
  endloop
 endfacet
 facet normal 0.33052787980216386 -0.86432924664792066 0.37905972360899032
  outer loop
   vertex -0.005824000108987093 -0.0041439998894929886 0.018342999741435051
   vertex -0.0076919998973608017 -0.0047430000267922878 0.018605999648571014
   vertex -0.007350000087171793 -0.0048850001767277718 0.017983999103307724
  endloop
 endfacet
 facet normal 0.23251771682453559 -0.71269461153090097 0.66181712130884263
  outer loop
   vertex -0.007350000087171793 -0.0048850001767277718 0.017983999103307724
   vertex -0.008159000426530838 -0.0049399998970329762 0.018208999186754227
   vertex -0.0084119997918605804 -0.0057060001417994499 0.017472999170422554
  endloop
 endfacet
 facet normal 0.14650290789539994 -0.94387487882319654 0.29603565850195823
  outer loop
   vertex -0.0076919998973608017 -0.0047430000267922878 0.018605999648571014
   vertex -0.008159000426530838 -0.0049399998970329762 0.018208999186754227
   vertex -0.007350000087171793 -0.0048850001767277718 0.017983999103307724
  endloop
 endfacet
 facet normal 0.2474295880245039 -0.7125519492860114 0.65654270123026237
  outer loop
   vertex -0.0084119997918605804 -0.0057060001417994499 0.017472999170422554
   vertex -0.008159000426530838 -0.0049399998970329762 0.018208999186754227
   vertex -0.0098240002989768982 -0.005016000010073185 0.018753999844193459
  endloop
 endfacet
 facet normal -0.11452923816137971 -0.95913358290440898 -0.25873891039255187
  outer loop
   vertex -0.010162999853491783 -0.0054230000823736191 0.017199000343680382
   vertex -0.010381000116467476 -0.005179000087082386 0.016390999779105186
   vertex -0.0084119997918605804 -0.0057060001417994499 0.017472999170422554
  endloop
 endfacet
 facet normal -0.16492707236264353 -0.98565065792135798 0.035942194438868827
  outer loop
   vertex -0.010400000028312206 -0.0053579998202621937 0.017893999814987183
   vertex -0.010162999853491783 -0.0054230000823736191 0.017199000343680382
   vertex -0.0084119997918605804 -0.0057060001417994499 0.017472999170422554
  endloop
 endfacet
 facet normal -0.072328648622902114 -0.90920782358791574 0.41001182923777962
  outer loop
   vertex -0.010400000028312206 -0.0053579998202621937 0.017893999814987183
   vertex -0.0084119997918605804 -0.0057060001417994499 0.017472999170422554
   vertex -0.0098240002989768982 -0.005016000010073185 0.018753999844193459
  endloop
 endfacet
 facet normal 0.15858409835746762 -0.98734345232840082 -0.0019977217984248037
  outer loop
   vertex -0.0084119997918605804 -0.0057060001417994499 0.017472999170422554
   vertex -0.0079629998654127121 -0.0056269997730851173 0.014070999808609486
   vertex -0.0057509997859597206 -0.0052729998715221882 0.014705999754369259
  endloop
 endfacet
 facet normal -0.23088691483529497 -0.97153419168424182 -0.053033451200974233
  outer loop
   vertex -0.010381000116467476 -0.005179000087082386 0.016390999779105186
   vertex -0.0079629998654127121 -0.0056269997730851173 0.014070999808609486
   vertex -0.0084119997918605804 -0.0057060001417994499 0.017472999170422554
  endloop
 endfacet
 facet normal -0.065393083511841754 -0.98880154479813243 -0.13414637391163509
  outer loop
   vertex -0.0078010000288486481 -0.0049109999090433121 0.013036999851465225
   vertex -0.0054219998419284821 -0.0050180000253021717 0.012666000053286552
   vertex -0.0057509997859597206 -0.0052729998715221882 0.014705999754369259
  endloop
 endfacet
 facet normal 0.2779857079383074 -0.80956613175460768 -0.51703638604833135
  outer loop
   vertex -0.0078010000288486481 -0.0049109999090433121 0.013036999851465225
   vertex -0.0057509997859597206 -0.0052729998715221882 0.014705999754369259
   vertex -0.0079629998654127121 -0.0056269997730851173 0.014070999808609486
  endloop
 endfacet
 facet normal 0.13886490768255652 -0.048578340895180754 -0.98911914459795325
  outer loop
   vertex -0.0058030001819133759 0.00064500002190470695 0.0114120002835989
   vertex -0.0057580000720918179 -0.0040520001202821732 0.011649000458419323
   vertex -0.0081460000947117805 -0.0036500000860542059 0.011293999850749969
  endloop
 endfacet
 facet normal -0.24378249675540939 0.37717608999220686 -0.89348099667194347
  outer loop
   vertex -0.0064630000852048397 0.0024570000823587179 0.012357000261545181
   vertex -0.0055940002202987671 0.0028409999795258045 0.012281999923288822
   vertex -0.0058030001819133759 0.00064500002190470695 0.0114120002835989
  endloop
 endfacet
 facet normal -0.45901486136675002 0.27362300258295325 -0.84524304759160984
  outer loop
   vertex -0.0064630000852048397 0.0024570000823587179 0.012357000261545181
   vertex -0.0058030001819133759 0.00064500002190470695 0.0114120002835989
   vertex -0.0081460000947117805 -0.0036500000860542059 0.011293999850749969
  endloop
 endfacet
 facet normal 0.69605595070346804 0.20621772910969471 -0.68773567719810191
  outer loop
   vertex -0.0055940002202987671 0.0028409999795258045 0.012281999923288822
   vertex -0.0035149999894201756 0.00051599997095763683 0.013689000159502029
   vertex -0.0058030001819133759 0.00064500002190470695 0.0114120002835989
  endloop
 endfacet
 facet normal 0.1880911044161338 -0.87392434319008017 -0.4481941307283106
  outer loop
   vertex -0.0069849998690187931 -0.0046520000323653221 0.012303999625146389
   vertex -0.0057580000720918179 -0.0040520001202821732 0.011649000458419323
   vertex -0.0052100000903010368 -0.0042710001580417156 0.012306000106036663
  endloop
 endfacet
 facet normal 0.0010497654787668665 -0.73836567404918441 -0.67439975487713011
  outer loop
   vertex -0.0057580000720918179 -0.0040520001202821732 0.011649000458419323
   vertex -0.0069849998690187931 -0.0046520000323653221 0.012303999625146389
   vertex -0.0083689996972680092 -0.004621999803930521 0.012268999591469765
  endloop
 endfacet
 facet normal -0.013761312892785958 -0.7065529426195315 -0.70752637091711845
  outer loop
   vertex -0.0057580000720918179 -0.0040520001202821732 0.011649000458419323
   vertex -0.0083689996972680092 -0.004621999803930521 0.012268999591469765
   vertex -0.0081460000947117805 -0.0036500000860542059 0.011293999850749969
  endloop
 endfacet
 facet normal 0.88604193614242532 0.43918999551503013 -0.14846492931494004
  outer loop
   vertex -0.0051640002056956291 0.0046489997766911983 0.016073999926447868
   vertex -0.0035149999894201756 0.00051599997095763683 0.013689000159502029
   vertex -0.005386000033468008 0.004459999967366457 0.014189999550580978
  endloop
 endfacet
 facet normal 0.78369676468103067 0.42885716763610232 -0.44933385226980782
  outer loop
   vertex -0.005386000033468008 0.004459999967366457 0.014189999550580978
   vertex -0.0035149999894201756 0.00051599997095763683 0.013689000159502029
   vertex -0.0055940002202987671 0.0028409999795258045 0.012281999923288822
  endloop
 endfacet
 facet normal -0.10819071362762006 -0.89336794729460978 -0.43610604241555934
  outer loop
   vertex -0.0054219998419284821 -0.0050180000253021717 0.012666000053286552
   vertex -0.0078010000288486481 -0.0049109999090433121 0.013036999851465225
   vertex -0.0069849998690187931 -0.0046520000323653221 0.012303999625146389
  endloop
 endfacet
 facet normal 0.098574829364949559 -0.45459179781106235 -0.88522838882323329
  outer loop
   vertex -0.0069849998690187931 -0.0046520000323653221 0.012303999625146389
   vertex -0.0052100000903010368 -0.0042710001580417156 0.012306000106036663
   vertex -0.0054219998419284821 -0.0050180000253021717 0.012666000053286552
  endloop
 endfacet
 facet normal 0.34639698515905382 0.92847387583817664 -0.13396040668329021
  outer loop
   vertex -0.0051640002056956291 0.0046489997766911983 0.016073999926447868
   vertex -0.005386000033468008 0.004459999967366457 0.014189999550580978
   vertex -0.0060160001739859581 0.0049660000950098038 0.016068000346422195
  endloop
 endfacet
 facet normal -0.035847381734852725 0.96185958836158614 -0.27118461884781697
  outer loop
   vertex -0.005386000033468008 0.004459999967366457 0.014189999550580978
   vertex -0.0062359999865293503 0.004335000179708004 0.01385900005698204
   vertex -0.0060160001739859581 0.0049660000950098038 0.016068000346422195
  endloop
 endfacet
 facet normal -0.88663406970453462 0.24387444063292041 -0.39294437729169096
  outer loop
   vertex -0.0072550000622868538 0.0044590001925826073 0.018549000844359398
   vertex -0.0060160001739859581 0.0049660000950098038 0.016068000346422195
   vertex -0.0077539999037981033 0.0039579998701810837 0.019363999366760254
  endloop
 endfacet
 facet normal -0.99505387388138167 0.053162003431450035 0.083914179164249966
  outer loop
   vertex -0.0062359999865293503 0.004335000179708004 0.01385900005698204
   vertex -0.0064630000852048397 0.0024570000823587179 0.012357000261545181
   vertex -0.0060160001739859581 0.0049660000950098038 0.016068000346422195
  endloop
 endfacet
 facet normal -0.88417024798005761 0.42946352536429028 -0.18385878539944417
  outer loop
   vertex -0.0064630000852048397 0.0024570000823587179 0.012357000261545181
   vertex -0.0097920000553131104 -0.0012919999426230788 0.019609000533819199
   vertex -0.0060160001739859581 0.0049660000950098038 0.016068000346422195
  endloop
 endfacet
 facet normal -0.87441826134176226 0.32252650562024632 -0.36244911008918618
  outer loop
   vertex -0.0097920000553131104 -0.0012919999426230788 0.019609000533819199
   vertex -0.0077539999037981033 0.0039579998701810837 0.019363999366760254
   vertex -0.0060160001739859581 0.0049660000950098038 0.016068000346422195
  endloop
 endfacet
 facet normal 0.38336455485914572 0.25308084758015575 0.88824642001291454
  outer loop
   vertex -0.0077769998461008072 0.00062700000125914812 0.020323000848293304
   vertex -0.0077539999037981033 0.0039579998701810837 0.019363999366760254
   vertex -0.0085859997197985649 0.0027650000993162394 0.020062999799847603
  endloop
 endfacet
 facet normal -0.82776774186739843 0.29918122138385039 -0.47464846180622511
  outer loop
   vertex -0.0097920000553131104 -0.0012919999426230788 0.019609000533819199
   vertex -0.0085859997197985649 0.0027650000993162394 0.020062999799847603
   vertex -0.0077539999037981033 0.0039579998701810837 0.019363999366760254
  endloop
 endfacet
 facet normal 0.13052651653918862 0.1682111397861234 0.97707105214103951
  outer loop
   vertex -0.0077769998461008072 0.00062700000125914812 0.020323000848293304
   vertex -0.0085859997197985649 0.0027650000993162394 0.020062999799847603
   vertex -0.0089060002937912941 0.0019910000264644623 0.020238999277353287
  endloop
 endfacet
 facet normal -0.22324961814488525 -0.12525384140616655 0.96668044524090879
  outer loop
   vertex -0.0077769998461008072 0.00062700000125914812 0.020323000848293304
   vertex -0.0089060002937912941 0.0019910000264644623 0.020238999277353287
   vertex -0.0097920000553131104 -0.0012919999426230788 0.019609000533819199
  endloop
 endfacet
 facet normal -0.15810286572435245 -0.19420157332109503 0.96813699070398029
  outer loop
   vertex -0.007521000225096941 -0.0037690000608563423 0.019483000040054321
   vertex -0.0077769998461008072 0.00062700000125914812 0.020323000848293304
   vertex -0.0097920000553131104 -0.0012919999426230788 0.019609000533819199
  endloop
 endfacet
 facet normal -0.0056302585026854046 -0.055949711075741176 0.99841771319409889
  outer loop
   vertex -0.0094950003549456596 -0.0040699997916817665 0.019455000758171082
   vertex -0.007521000225096941 -0.0037690000608563423 0.019483000040054321
   vertex -0.0097920000553131104 -0.0012919999426230788 0.019609000533819199
  endloop
 endfacet
 facet normal 0.092573834291140536 -0.67518681263434199 0.73181476703419579
  outer loop
   vertex -0.007521000225096941 -0.0037690000608563423 0.019483000040054321
   vertex -0.0094950003549456596 -0.0040699997916817665 0.019455000758171082
   vertex -0.0076919998973608017 -0.0047430000267922878 0.018605999648571014
  endloop
 endfacet
 facet normal -0.076746535917601832 -0.85424581669324462 0.51417317499723747
  outer loop
   vertex -0.0076919998973608017 -0.0047430000267922878 0.018605999648571014
   vertex -0.0094950003549456596 -0.0040699997916817665 0.019455000758171082
   vertex -0.008159000426530838 -0.0049399998970329762 0.018208999186754227
  endloop
 endfacet
 facet normal 0.26699248528880815 -0.6319763898387124 0.72754440104074281
  outer loop
   vertex -0.008159000426530838 -0.0049399998970329762 0.018208999186754227
   vertex -0.0094950003549456596 -0.0040699997916817665 0.019455000758171082
   vertex -0.0098240002989768982 -0.005016000010073185 0.018753999844193459
  endloop
 endfacet
 facet normal -0.41783202194495062 -0.51706230406150522 0.74703612707552625
  outer loop
   vertex -0.010567000135779381 -0.0047579999081790447 0.01851700060069561
   vertex -0.0098240002989768982 -0.005016000010073185 0.018753999844193459
   vertex -0.010619999840855598 -0.00394799979403615 0.019047999754548073
  endloop
 endfacet
 facet normal -0.42568813326303162 -0.70607780732349912 0.56590082453047819
  outer loop
   vertex -0.010567000135779381 -0.0047579999081790447 0.01851700060069561
   vertex -0.010400000028312206 -0.0053579998202621937 0.017893999814987183
   vertex -0.0098240002989768982 -0.005016000010073185 0.018753999844193459
  endloop
 endfacet
 facet normal -0.34412002476733589 -0.47881287431353248 0.80766307328349574
  outer loop
   vertex -0.010619999840855598 -0.00394799979403615 0.019047999754548073
   vertex -0.0098240002989768982 -0.005016000010073185 0.018753999844193459
   vertex -0.0094950003549456596 -0.0040699997916817665 0.019455000758171082
  endloop
 endfacet
 facet normal -0.7060024404284877 -0.70782704405865904 -0.0232686443137743
  outer loop
   vertex -0.010381000116467476 -0.005179000087082386 0.016390999779105186
   vertex -0.010162999853491783 -0.0054230000823736191 0.017199000343680382
   vertex -0.010827000252902508 -0.0047519998624920845 0.016933999955654144
  endloop
 endfacet
 facet normal -0.3452169312900879 -0.92070532720325571 -0.18200816138349585
  outer loop
   vertex -0.0079629998654127121 -0.0056269997730851173 0.014070999808609486
   vertex -0.010381000116467476 -0.005179000087082386 0.016390999779105186
   vertex -0.010463999584317207 -0.0047280001454055309 0.014267000369727612
  endloop
 endfacet
 facet normal -0.75314310475399071 -0.64887299424107747 -0.10834805538697162
  outer loop
   vertex -0.010381000116467476 -0.005179000087082386 0.016390999779105186
   vertex -0.010827000252902508 -0.0047519998624920845 0.016933999955654144
   vertex -0.010463999584317207 -0.0047280001454055309 0.014267000369727612
  endloop
 endfacet
 facet normal -0.72865173121355742 -0.67479597330691898 0.11711980621676842
  outer loop
   vertex -0.010567000135779381 -0.0047579999081790447 0.01851700060069561
   vertex -0.010827000252902508 -0.0047519998624920845 0.016933999955654144
   vertex -0.010162999853491783 -0.0054230000823736191 0.017199000343680382
  endloop
 endfacet
 facet normal -0.94124695440202011 0.078964591950751534 -0.32835767700325313
  outer loop
   vertex -0.010567000135779381 -0.0047579999081790447 0.01851700060069561
   vertex -0.010162999853491783 -0.0054230000823736191 0.017199000343680382
   vertex -0.010400000028312206 -0.0053579998202621937 0.017893999814987183
  endloop
 endfacet
 facet normal -0.4000229422913239 -0.91207773223633781 0.089976974828071238
  outer loop
   vertex -0.0079629998654127121 -0.0056269997730851173 0.014070999808609486
   vertex -0.0096990000456571579 -0.0049399998970329762 0.01331700012087822
   vertex -0.0084119997918605804 -0.0055160000920295715 0.013199999928474426
  endloop
 endfacet
 facet normal 0.59128145710967583 -0.70341788043128584 -0.39444837934489696
  outer loop
   vertex -0.0084119997918605804 -0.0055160000920295715 0.013199999928474426
   vertex -0.0078010000288486481 -0.0049109999090433121 0.013036999851465225
   vertex -0.0079629998654127121 -0.0056269997730851173 0.014070999808609486
  endloop
 endfacet
 facet normal -0.34212066011605458 -0.93731209674385907 -0.066328630465174662
  outer loop
   vertex -0.0096990000456571579 -0.0049399998970329762 0.01331700012087822
   vertex -0.0079629998654127121 -0.0056269997730851173 0.014070999808609486
   vertex -0.010463999584317207 -0.0047280001454055309 0.014267000369727612
  endloop
 endfacet
 facet normal -0.0116319211026001 -0.93866994849807517 -0.3446206990273275
  outer loop
   vertex -0.0078010000288486481 -0.0049109999090433121 0.013036999851465225
   vertex -0.0083689996972680092 -0.004621999803930521 0.012268999591469765
   vertex -0.0069849998690187931 -0.0046520000323653221 0.012303999625146389
  endloop
 endfacet
 facet normal 0.4787492362214546 -0.64420407100394483 -0.59648996950436495
  outer loop
   vertex -0.0083689996972680092 -0.004621999803930521 0.012268999591469765
   vertex -0.0078010000288486481 -0.0049109999090433121 0.013036999851465225
   vertex -0.0084119997918605804 -0.0055160000920295715 0.013199999928474426
  endloop
 endfacet
 facet normal -0.30474050023155169 -0.63875441468527394 -0.70648851741461216
  outer loop
   vertex -0.0081460000947117805 -0.0036500000860542059 0.011293999850749969
   vertex -0.0083689996972680092 -0.004621999803930521 0.012268999591469765
   vertex -0.0093909995630383492 -0.0046620001085102558 0.012745999731123447
  endloop
 endfacet
 facet normal -0.8176862316299176 0.30979685674940211 -0.4851959749946978
  outer loop
   vertex -0.0064630000852048397 0.0024570000823587179 0.012357000261545181
   vertex -0.0081460000947117805 -0.0036500000860542059 0.011293999850749969
   vertex -0.0093909995630383492 -0.0046620001085102558 0.012745999731123447
  endloop
 endfacet
 facet normal -0.33279456237280525 0.61319753215140493 -0.71640530834055083
  outer loop
   vertex -0.0064630000852048397 0.0024570000823587179 0.012357000261545181
   vertex -0.0062359999865293503 0.004335000179708004 0.01385900005698204
   vertex -0.0055940002202987671 0.0028409999795258045 0.012281999923288822
  endloop
 endfacet
 facet normal 0.14303145515169097 0.74690459432232137 -0.6493654824653049
  outer loop
   vertex -0.0055940002202987671 0.0028409999795258045 0.012281999923288822
   vertex -0.0062359999865293503 0.004335000179708004 0.01385900005698204
   vertex -0.005386000033468008 0.004459999967366457 0.014189999550580978
  endloop
 endfacet
 facet normal -0.78697287979016683 0.29403799802671604 -0.54241620752998576
  outer loop
   vertex -0.0093909995630383492 -0.0046620001085102558 0.012745999731123447
   vertex -0.010463999584317207 -0.0047280001454055309 0.014267000369727612
   vertex -0.0064630000852048397 0.0024570000823587179 0.012357000261545181
  endloop
 endfacet
 facet normal -0.87925934167757214 0.44323596326068482 -0.17448464386614482
  outer loop
   vertex -0.0097920000553131104 -0.0012919999426230788 0.019609000533819199
   vertex -0.0064630000852048397 0.0024570000823587179 0.012357000261545181
   vertex -0.010463999584317207 -0.0047280001454055309 0.014267000369727612
  endloop
 endfacet
 facet normal -0.28615704264779851 -0.68449473049296383 -0.67050809903418085
  outer loop
   vertex -0.0093909995630383492 -0.0046620001085102558 0.012745999731123447
   vertex -0.0083689996972680092 -0.004621999803930521 0.012268999591469765
   vertex -0.0084119997918605804 -0.0055160000920295715 0.013199999928474426
  endloop
 endfacet
 facet normal -0.90172485337775565 0.30260083883712541 -0.30874750385376892
  outer loop
   vertex -0.0089060002937912941 0.0019910000264644623 0.020238999277353287
   vertex -0.0085859997197985649 0.0027650000993162394 0.020062999799847603
   vertex -0.0097920000553131104 -0.0012919999426230788 0.019609000533819199
  endloop
 endfacet
 facet normal -0.34736288979701724 -0.088886535045261519 0.93350854665584759
  outer loop
   vertex -0.0097920000553131104 -0.0012919999426230788 0.019609000533819199
   vertex -0.010619999840855598 -0.00394799979403615 0.019047999754548073
   vertex -0.0094950003549456596 -0.0040699997916817665 0.019455000758171082
  endloop
 endfacet
 facet normal -0.71397769632043051 0.35059432821013803 -0.60606886257574177
  outer loop
   vertex -0.0097920000553131104 -0.0012919999426230788 0.019609000533819199
   vertex -0.010567000135779381 -0.0047579999081790447 0.01851700060069561
   vertex -0.010619999840855598 -0.00394799979403615 0.019047999754548073
  endloop
 endfacet
 facet normal -0.9728225614227467 0.16698361210468116 0.16041426768015282
  outer loop
   vertex -0.010567000135779381 -0.0047579999081790447 0.01851700060069561
   vertex -0.0097920000553131104 -0.0012919999426230788 0.019609000533819199
   vertex -0.010827000252902508 -0.0047519998624920845 0.016933999955654144
  endloop
 endfacet
 facet normal -0.9210386604317321 0.36985917392241108 -0.12203269011028238
  outer loop
   vertex -0.0097920000553131104 -0.0012919999426230788 0.019609000533819199
   vertex -0.010463999584317207 -0.0047280001454055309 0.014267000369727612
   vertex -0.010827000252902508 -0.0047519998624920845 0.016933999955654144
  endloop
 endfacet
 facet normal -0.77590304954390954 -0.29052562493988077 -0.55997260554580097
  outer loop
   vertex -0.010463999584317207 -0.0047280001454055309 0.014267000369727612
   vertex -0.0093909995630383492 -0.0046620001085102558 0.012745999731123447
   vertex -0.0096990000456571579 -0.0049399998970329762 0.01331700012087822
  endloop
 endfacet
 facet normal -0.37982677361585032 -0.73442805405176947 -0.56244738017551899
  outer loop
   vertex -0.0084119997918605804 -0.0055160000920295715 0.013199999928474426
   vertex -0.0096990000456571579 -0.0049399998970329762 0.01331700012087822
   vertex -0.0093909995630383492 -0.0046620001085102558 0.012745999731123447
  endloop
 endfacet
endsolid
