solid Visualization Toolkit generated SLA File
 facet normal 0.43612079157202938 -0.023322806706828687 -0.89958585018101667
  outer loop
   vertex 0.035569000989198685 -0.005690000019967556 0.0018570000538602471
   vertex 0.036490999162197113 -0.00079199997708201408 0.0021770000457763672
   vertex 0.038607999682426453 -0.0018980000168085098 0.0032319999299943447
  endloop
 endfacet
 facet normal 0.56641850261444604 0.74189270809504881 -0.35883880722603517
  outer loop
   vertex 0.036490999162197113 -0.00079199997708201408 0.0021770000457763672
   vertex 0.037484999746084213 -0.00071799999568611383 0.0038989998865872622
   vertex 0.038607999682426453 -0.0018980000168085098 0.0032319999299943447
  endloop
 endfacet
 facet normal 0.08051903701379215 0.049882177055862023 -0.9955041200771293
  outer loop
   vertex 0.035569000989198685 -0.005690000019967556 0.0018570000538602471
   vertex 0.033429000526666641 -0.0039320001378655434 0.0017719999887049198
   vertex 0.036490999162197113 -0.00079199997708201408 0.0021770000457763672
  endloop
 endfacet
 facet normal -0.23453677510503701 0.34588842258604036 -0.90848979094113647
  outer loop
   vertex 0.036490999162197113 -0.00079199997708201408 0.0021770000457763672
   vertex 0.033429000526666641 -0.0039320001378655434 0.0017719999887049198
   vertex 0.033792000263929367 -0.00051300000632181764 0.0029800001066178083
  endloop
 endfacet
 facet normal 0.076787070798782581 0.99324392211678547 -0.087007223471431555
  outer loop
   vertex 0.033792000263929367 -0.00051300000632181764 0.0029800001066178083
   vertex 0.037484999746084213 -0.00071799999568611383 0.0038989998865872622
   vertex 0.036490999162197113 -0.00079199997708201408 0.0021770000457763672
  endloop
 endfacet
 facet normal 0.88619449114858417 -0.22109196751025639 -0.40715803536261641
  outer loop
   vertex 0.038607999682426453 -0.0018980000168085098 0.0032319999299943447
   vertex 0.038913998752832413 -0.0036180000752210617 0.0048320000059902668
   vertex 0.037496000528335571 -0.0051600001752376556 0.0025830001104623079
  endloop
 endfacet
 facet normal 0.33393909715349135 0.073132958840802675 -0.93975329194608337
  outer loop
   vertex 0.037496000528335571 -0.0051600001752376556 0.0025830001104623079
   vertex 0.035569000989198685 -0.005690000019967556 0.0018570000538602471
   vertex 0.038607999682426453 -0.0018980000168085098 0.0032319999299943447
  endloop
 endfacet
 facet normal 0.72106453905572998 0.69277135416905422 -0.011566389199860683
  outer loop
   vertex 0.038612999022006989 -0.0018629999831318855 0.0056400001049041748
   vertex 0.038607999682426453 -0.0018980000168085098 0.0032319999299943447
   vertex 0.037484999746084213 -0.00071799999568611383 0.0038989998865872622
  endloop
 endfacet
 facet normal 0.98524908201352024 0.17106638438793209 -0.0045319448314913293
  outer loop
   vertex 0.038612999022006989 -0.0018629999831318855 0.0056400001049041748
   vertex 0.038913998752832413 -0.0036180000752210617 0.0048320000059902668
   vertex 0.038607999682426453 -0.0018980000168085098 0.0032319999299943447
  endloop
 endfacet
 facet normal -0.17438206804180145 -0.25821748885462953 -0.95021819746575775
  outer loop
   vertex 0.033429000526666641 -0.0039320001378655434 0.0017719999887049198
   vertex 0.035569000989198685 -0.005690000019967556 0.0018570000538602471
   vertex 0.033801998943090439 -0.0066200001165270805 0.0024339999072253704
  endloop
 endfacet
 facet normal 0.083942044201439442 -0.63562223495958803 -0.76742303043384197
  outer loop
   vertex 0.035569000989198685 -0.005690000019967556 0.0018570000538602471
   vertex 0.034820999950170517 -0.0068089999258518219 0.0027020000852644444
   vertex 0.033801998943090439 -0.0066200001165270805 0.0024339999072253704
  endloop
 endfacet
 facet normal 0.41104223127399697 -0.70821378190346662 -0.57400132685498473
  outer loop
   vertex 0.034820999950170517 -0.0068089999258518219 0.0027020000852644444
   vertex 0.035569000989198685 -0.005690000019967556 0.0018570000538602471
   vertex 0.037496000528335571 -0.0051600001752376556 0.0025830001104623079
  endloop
 endfacet
 facet normal 0.063590445143339197 0.97325886183364529 0.22073387404009651
  outer loop
   vertex 0.037211999297142029 -0.0019089999841526151 0.0092289997264742851
   vertex 0.037484999746084213 -0.00071799999568611383 0.0038989998865872622
   vertex 0.032953999936580658 -0.0020099999383091927 0.01090100035071373
  endloop
 endfacet
 facet normal 0.5156229470527095 0.83019479027775989 0.21191882093939898
  outer loop
   vertex 0.038612999022006989 -0.0018629999831318855 0.0056400001049041748
   vertex 0.037484999746084213 -0.00071799999568611383 0.0038989998865872622
   vertex 0.037211999297142029 -0.0019089999841526151 0.0092289997264742851
  endloop
 endfacet
 facet normal 0.079463691095398595 0.99200491849077688 -0.09803960162914907
  outer loop
   vertex 0.027470000088214874 0.00037500000325962901 0.0068410001695156097
   vertex 0.037484999746084213 -0.00071799999568611383 0.0038989998865872622
   vertex 0.033792000263929367 -0.00051300000632181764 0.0029800001066178083
  endloop
 endfacet
 facet normal 0.18889557270351987 0.93662100952779326 0.29505854863763359
  outer loop
   vertex 0.037484999746084213 -0.00071799999568611383 0.0038989998865872622
   vertex 0.027470000088214874 0.00037500000325962901 0.0068410001695156097
   vertex 0.032953999936580658 -0.0020099999383091927 0.01090100035071373
  endloop
 endfacet
 facet normal -0.74763617482750844 -0.21572709626599412 -0.62809391815709692
  outer loop
   vertex 0.032260999083518982 -0.0011709999525919557 0.0022140000946819782
   vertex 0.033429000526666641 -0.0039320001378655434 0.0017719999887049198
   vertex 0.032483000308275223 -0.0036639999598264694 0.0028059999458491802
  endloop
 endfacet
 facet normal 0.32892934291201364 0.28336147713222526 -0.90083947551653976
  outer loop
   vertex 0.032260999083518982 -0.0011709999525919557 0.0022140000946819782
   vertex 0.033792000263929367 -0.00051300000632181764 0.0029800001066178083
   vertex 0.033429000526666641 -0.0039320001378655434 0.0017719999887049198
  endloop
 endfacet
 facet normal -0.74860324452210081 -0.15994775778525228 -0.64343600852800731
  outer loop
   vertex 0.033429000526666641 -0.0039320001378655434 0.0017719999887049198
   vertex 0.033220000565052032 -0.005987000185996294 0.0025259999092668295
   vertex 0.032483000308275223 -0.0036639999598264694 0.0028059999458491802
  endloop
 endfacet
 facet normal -0.43152069561695527 -0.27173067747775248 -0.8602048175706416
  outer loop
   vertex 0.033429000526666641 -0.0039320001378655434 0.0017719999887049198
   vertex 0.033801998943090439 -0.0066200001165270805 0.0024339999072253704
   vertex 0.033220000565052032 -0.005987000185996294 0.0025259999092668295
  endloop
 endfacet
 facet normal -0.15211352971977132 0.87930954101964931 -0.45130500235207449
  outer loop
   vertex 0.032260999083518982 -0.0011709999525919557 0.0022140000946819782
   vertex 0.027470000088214874 0.00037500000325962901 0.0068410001695156097
   vertex 0.033792000263929367 -0.00051300000632181764 0.0029800001066178083
  endloop
 endfacet
 facet normal 0.96988079753845879 0.057353093488216551 0.23673162279994395
  outer loop
   vertex 0.038913998752832413 -0.0036180000752210617 0.0048320000059902668
   vertex 0.038612999022006989 -0.0018629999831318855 0.0056400001049041748
   vertex 0.037932999432086945 -0.0037950000260025263 0.0088940002024173737
  endloop
 endfacet
 facet normal 0.77259458907247369 -0.61445729423688455 0.15981187219672494
  outer loop
   vertex 0.036956999450922012 -0.0063970000483095646 0.003607999999076128
   vertex 0.038913998752832413 -0.0036180000752210617 0.0048320000059902668
   vertex 0.037932999432086945 -0.0037950000260025263 0.0088940002024173737
  endloop
 endfacet
 facet normal 0.83973898785480439 -0.5131066405311433 -0.17765136565597447
  outer loop
   vertex 0.038913998752832413 -0.0036180000752210617 0.0048320000059902668
   vertex 0.036956999450922012 -0.0063970000483095646 0.003607999999076128
   vertex 0.037496000528335571 -0.0051600001752376556 0.0025830001104623079
  endloop
 endfacet
 facet normal 0.39309158546370732 -0.6821646369165979 -0.61654717060260311
  outer loop
   vertex 0.034820999950170517 -0.0068089999258518219 0.0027020000852644444
   vertex 0.037496000528335571 -0.0051600001752376556 0.0025830001104623079
   vertex 0.036956999450922012 -0.0063970000483095646 0.003607999999076128
  endloop
 endfacet
 facet normal 0.89335001448951468 0.2789417893721528 0.35230275297454805
  outer loop
   vertex 0.038612999022006989 -0.0018629999831318855 0.0056400001049041748
   vertex 0.037211999297142029 -0.0019089999841526151 0.0092289997264742851
   vertex 0.037932999432086945 -0.0037950000260025263 0.0088940002024173737
  endloop
 endfacet
 facet normal -0.73814691993848691 -0.67380933901574303 -0.033467883716967364
  outer loop
   vertex 0.033801998943090439 -0.0066200001165270805 0.0024339999072253704
   vertex 0.0339680016040802 -0.0068549998104572296 0.0035039999056607485
   vertex 0.033220000565052032 -0.005987000185996294 0.0025259999092668295
  endloop
 endfacet
 facet normal -0.12948693181989257 -0.97251759083570166 -0.19350108527600926
  outer loop
   vertex 0.0339680016040802 -0.0068549998104572296 0.0035039999056607485
   vertex 0.033801998943090439 -0.0066200001165270805 0.0024339999072253704
   vertex 0.034820999950170517 -0.0068089999258518219 0.0027020000852644444
  endloop
 endfacet
 facet normal 0.31394642410228141 -0.88783807802576897 -0.33642412220424844
  outer loop
   vertex 0.035879999399185181 -0.0070230001583695412 0.0042550000362098217
   vertex 0.034820999950170517 -0.0068089999258518219 0.0027020000852644444
   vertex 0.036956999450922012 -0.0063970000483095646 0.003607999999076128
  endloop
 endfacet
 facet normal -0.045778624126920894 -0.99334753092497463 -0.10566456538642863
  outer loop
   vertex 0.0339680016040802 -0.0068549998104572296 0.0035039999056607485
   vertex 0.034820999950170517 -0.0068089999258518219 0.0027020000852644444
   vertex 0.035879999399185181 -0.0070230001583695412 0.0042550000362098217
  endloop
 endfacet
 facet normal -0.18449842558392276 0.7180938770455626 0.67104509141094693
  outer loop
   vertex 0.024581000208854675 -0.0019970000721514225 0.0085850004106760025
   vertex 0.032953999936580658 -0.0020099999383091927 0.01090100035071373
   vertex 0.027470000088214874 0.00037500000325962901 0.0068410001695156097
  endloop
 endfacet
 facet normal -0.36656834291125051 0.27047699959682203 0.89020775252993645
  outer loop
   vertex 0.032953999936580658 -0.0020099999383091927 0.01090100035071373
   vertex 0.031431000679731369 -0.0042880000546574593 0.010966000147163868
   vertex 0.034743998199701309 -0.0041260002180933952 0.012280999682843685
  endloop
 endfacet
 facet normal -0.26084349392342027 0.20133196616067739 0.94415364802541446
  outer loop
   vertex 0.032953999936580658 -0.0020099999383091927 0.01090100035071373
   vertex 0.024581000208854675 -0.0019970000721514225 0.0085850004106760025
   vertex 0.031431000679731369 -0.0042880000546574593 0.010966000147163868
  endloop
 endfacet
 facet normal 0.16570622395160028 0.86466750652148694 0.47422731944671481
  outer loop
   vertex 0.037211999297142029 -0.0019089999841526151 0.0092289997264742851
   vertex 0.032953999936580658 -0.0020099999383091927 0.01090100035071373
   vertex 0.037321999669075012 -0.0034630000591278076 0.012024000287055969
  endloop
 endfacet
 facet normal -0.047756325689608171 0.51698764411148324 0.85465964523469018
  outer loop
   vertex 0.032953999936580658 -0.0020099999383091927 0.01090100035071373
   vertex 0.034743998199701309 -0.0041260002180933952 0.012280999682843685
   vertex 0.037321999669075012 -0.0034630000591278076 0.012024000287055969
  endloop
 endfacet
 facet normal 0.91372906867530468 0.3007869309699755 0.2731783505613572
  outer loop
   vertex 0.037675999104976654 -0.0049069998785853386 0.010978000238537788
   vertex 0.037932999432086945 -0.0037950000260025263 0.0088940002024173737
   vertex 0.037211999297142029 -0.0019089999841526151 0.0092289997264742851
  endloop
 endfacet
 facet normal 0.97924635172399321 0.19104011824080877 0.06767758755886015
  outer loop
   vertex 0.037321999669075012 -0.0034630000591278076 0.012024000287055969
   vertex 0.037675999104976654 -0.0049069998785853386 0.010978000238537788
   vertex 0.037211999297142029 -0.0019089999841526151 0.0092289997264742851
  endloop
 endfacet
 facet normal 0.17611020775670216 0.98371109731804951 -0.036023211089657933
  outer loop
   vertex 0.022576000541448593 0.0010860000038519502 0.0023310000542551279
   vertex 0.010397999547421932 0.0033569999504834414 0.0048110000789165497
   vertex 0.027470000088214874 0.00037500000325962901 0.0068410001695156097
  endloop
 endfacet
 facet normal 0.006352197178186237 0.5873191582977938 0.80933049855258798
  outer loop
   vertex 0.010397999547421932 0.0033569999504834414 0.0048110000789165497
   vertex 0.024581000208854675 -0.0019970000721514225 0.0085850004106760025
   vertex 0.027470000088214874 0.00037500000325962901 0.0068410001695156097
  endloop
 endfacet
 facet normal 0.22496882119763006 0.97008945095990051 -0.091189290079851618
  outer loop
   vertex 0.032260999083518982 -0.0011709999525919557 0.0022140000946819782
   vertex 0.022576000541448593 0.0010860000038519502 0.0023310000542551279
   vertex 0.027470000088214874 0.00037500000325962901 0.0068410001695156097
  endloop
 endfacet
 facet normal -0.15204036073983088 -0.92024183912166813 -0.36060877171260247
  outer loop
   vertex 0.027008999139070511 -0.0026149998884648085 0.0024369999300688505
   vertex 0.032483000308275223 -0.0036639999598264694 0.0028059999458491802
   vertex 0.032565001398324966 -0.0048790001310408115 0.0058720000088214874
  endloop
 endfacet
 facet normal -0.95238782755989704 -0.29131228574090928 -0.089969873247363594
  outer loop
   vertex 0.032565001398324966 -0.0048790001310408115 0.0058720000088214874
   vertex 0.032483000308275223 -0.0036639999598264694 0.0028059999458491802
   vertex 0.033220000565052032 -0.005987000185996294 0.0025259999092668295
  endloop
 endfacet
 facet normal 0.021685329247689206 -0.22915731672347545 -0.97314781543582374
  outer loop
   vertex 0.032483000308275223 -0.0036639999598264694 0.0028059999458491802
   vertex 0.027008999139070511 -0.0026149998884648085 0.0024369999300688505
   vertex 0.032260999083518982 -0.0011709999525919557 0.0022140000946819782
  endloop
 endfacet
 facet normal 0.11606983890520729 -0.54989512231372439 -0.8271294620264068
  outer loop
   vertex 0.022064000368118286 -0.0015709999715909362 0.0010489999549463391
   vertex 0.032260999083518982 -0.0011709999525919557 0.0022140000946819782
   vertex 0.027008999139070511 -0.0026149998884648085 0.0024369999300688505
  endloop
 endfacet
 facet normal 0.086797615441905354 0.41930271089830512 -0.90368767314096488
  outer loop
   vertex 0.022576000541448593 0.0010860000038519502 0.0023310000542551279
   vertex 0.032260999083518982 -0.0011709999525919557 0.0022140000946819782
   vertex 0.022064000368118286 -0.0015709999715909362 0.0010489999549463391
  endloop
 endfacet
 facet normal -0.78433024051794242 -0.61822834031219698 0.051183913917292982
  outer loop
   vertex 0.033220000565052032 -0.005987000185996294 0.0025259999092668295
   vertex 0.0339680016040802 -0.0068549998104572296 0.0035039999056607485
   vertex 0.032565001398324966 -0.0048790001310408115 0.0058720000088214874
  endloop
 endfacet
 facet normal 0.75775627677649515 -0.60529498696479622 -0.24376916080815178
  outer loop
   vertex 0.034717999398708344 -0.0078210001811385155 0.0088969999924302101
   vertex 0.03599800169467926 -0.0058360002003610134 0.0079469997435808182
   vertex 0.037932999432086945 -0.0037950000260025263 0.0088940002024173737
  endloop
 endfacet
 facet normal 0.52988115880127207 -0.42368894172709948 -0.73465205247490573
  outer loop
   vertex 0.037932999432086945 -0.0037950000260025263 0.0088940002024173737
   vertex 0.036695998162031174 -0.006750000175088644 0.0097059998661279678
   vertex 0.034717999398708344 -0.0078210001811385155 0.0088969999924302101
  endloop
 endfacet
 facet normal 0.6478260269952556 -0.72405061213112598 0.23679558657222527
  outer loop
   vertex 0.036956999450922012 -0.0063970000483095646 0.003607999999076128
   vertex 0.037932999432086945 -0.0037950000260025263 0.0088940002024173737
   vertex 0.03599800169467926 -0.0058360002003610134 0.0079469997435808182
  endloop
 endfacet
 facet normal 0.90647626433793327 -0.40866497323860623 -0.10627192404315743
  outer loop
   vertex 0.037675999104976654 -0.0049069998785853386 0.010978000238537788
   vertex 0.036695998162031174 -0.006750000175088644 0.0097059998661279678
   vertex 0.037932999432086945 -0.0037950000260025263 0.0088940002024173737
  endloop
 endfacet
 facet normal 0.58871947468305674 -0.77483682268809695 0.23029823780376668
  outer loop
   vertex 0.036956999450922012 -0.0063970000483095646 0.003607999999076128
   vertex 0.03599800169467926 -0.0058360002003610134 0.0079469997435808182
   vertex 0.035879999399185181 -0.0070230001583695412 0.0042550000362098217
  endloop
 endfacet
 facet normal -0.64731850635783894 -0.72845680498716769 0.22434222650794888
  outer loop
   vertex 0.034469999372959137 -0.0060959998518228531 0.0074169998988509178
   vertex 0.032565001398324966 -0.0048790001310408115 0.0058720000088214874
   vertex 0.0339680016040802 -0.0068549998104572296 0.0035039999056607485
  endloop
 endfacet
 facet normal -0.20180345252795073 -0.93052277781074488 0.30561859649434642
  outer loop
   vertex 0.0339680016040802 -0.0068549998104572296 0.0035039999056607485
   vertex 0.035879999399185181 -0.0070230001583695412 0.0042550000362098217
   vertex 0.03599800169467926 -0.0058360002003610134 0.0079469997435808182
  endloop
 endfacet
 facet normal 0.10537224820259482 -0.97867757665081234 0.17631474773717656
  outer loop
   vertex 0.0339680016040802 -0.0068549998104572296 0.0035039999056607485
   vertex 0.03599800169467926 -0.0058360002003610134 0.0079469997435808182
   vertex 0.034469999372959137 -0.0060959998518228531 0.0074169998988509178
  endloop
 endfacet
 facet normal -0.25867871452568586 -0.18539546744919014 0.94800519160004348
  outer loop
   vertex 0.026427999138832092 -0.003894000081345439 0.0087179997935891151
   vertex 0.024581000208854675 -0.0019970000721514225 0.0085850004106760025
   vertex 0.015922000631690025 -0.0038340000901371241 0.0058630001731216908
  endloop
 endfacet
 facet normal -0.40778978853541548 -0.3375605499986673 0.84838691848167846
  outer loop
   vertex 0.024581000208854675 -0.0019970000721514225 0.0085850004106760025
   vertex 0.026427999138832092 -0.003894000081345439 0.0087179997935891151
   vertex 0.031431000679731369 -0.0042880000546574593 0.010966000147163868
  endloop
 endfacet
 facet normal -0.28382798946222393 -0.078221572975421247 0.95567936983021806
  outer loop
   vertex 0.015922000631690025 -0.0038340000901371241 0.0058630001731216908
   vertex 0.024581000208854675 -0.0019970000721514225 0.0085850004106760025
   vertex 0.010397999547421932 0.0033569999504834414 0.0048110000789165497
  endloop
 endfacet
 facet normal -0.3502203063236845 -0.6610842839108555 0.66356107978438272
  outer loop
   vertex 0.031431000679731369 -0.0042880000546574593 0.010966000147163868
   vertex 0.026427999138832092 -0.003894000081345439 0.0087179997935891151
   vertex 0.030293000862002373 -0.0049910000525414944 0.0096650002524256706
  endloop
 endfacet
 facet normal -0.37764603229933097 -0.41650498092375421 0.82698674424338625
  outer loop
   vertex 0.035135000944137573 -0.0072929998859763145 0.011144000105559826
   vertex 0.031431000679731369 -0.0042880000546574593 0.010966000147163868
   vertex 0.031237000599503517 -0.007009000051766634 0.0095070004463195801
  endloop
 endfacet
 facet normal -0.60862829491144554 -0.34081120028913869 0.71653284948469953
  outer loop
   vertex 0.031431000679731369 -0.0042880000546574593 0.010966000147163868
   vertex 0.030293000862002373 -0.0049910000525414944 0.0096650002524256706
   vertex 0.031237000599503517 -0.007009000051766634 0.0095070004463195801
  endloop
 endfacet
 facet normal -0.32988251161950483 -0.3547981682648973 0.87481185881507173
  outer loop
   vertex 0.035135000944137573 -0.0072929998859763145 0.011144000105559826
   vertex 0.034743998199701309 -0.0041260002180933952 0.012280999682843685
   vertex 0.031431000679731369 -0.0042880000546574593 0.010966000147163868
  endloop
 endfacet
 facet normal -0.00057109677589298983 -0.39182894745697805 0.92003790670995134
  outer loop
   vertex 0.034743998199701309 -0.0041260002180933952 0.012280999682843685
   vertex 0.036364000290632248 -0.0070469998754560947 0.011037999764084816
   vertex 0.037172000855207443 -0.0052660000510513783 0.011796999722719193
  endloop
 endfacet
 facet normal 0.14455205754282049 -0.31849238867376273 0.93683899418043959
  outer loop
   vertex 0.034743998199701309 -0.0041260002180933952 0.012280999682843685
   vertex 0.035135000944137573 -0.0072929998859763145 0.011144000105559826
   vertex 0.036364000290632248 -0.0070469998754560947 0.011037999764084816
  endloop
 endfacet
 facet normal 0.13252512529590146 -0.13465937261811203 0.98198978840485007
  outer loop
   vertex 0.037321999669075012 -0.0034630000591278076 0.012024000287055969
   vertex 0.034743998199701309 -0.0041260002180933952 0.012280999682843685
   vertex 0.037172000855207443 -0.0052660000510513783 0.011796999722719193
  endloop
 endfacet
 facet normal 0.86901053179389987 -0.13232280793194423 0.47677182187319872
  outer loop
   vertex 0.037172000855207443 -0.0052660000510513783 0.011796999722719193
   vertex 0.037675999104976654 -0.0049069998785853386 0.010978000238537788
   vertex 0.037321999669075012 -0.0034630000591278076 0.012024000287055969
  endloop
 endfacet
 facet normal 0.82003753744518826 -0.49468249401032172 0.2877979626414327
  outer loop
   vertex 0.037172000855207443 -0.0052660000510513783 0.011796999722719193
   vertex 0.036364000290632248 -0.0070469998754560947 0.011037999764084816
   vertex 0.037675999104976654 -0.0049069998785853386 0.010978000238537788
  endloop
 endfacet
 facet normal 0.84977543391429378 -0.51828502002302934 0.096241103149858606
  outer loop
   vertex 0.037675999104976654 -0.0049069998785853386 0.010978000238537788
   vertex 0.036364000290632248 -0.0070469998754560947 0.011037999764084816
   vertex 0.036695998162031174 -0.006750000175088644 0.0097059998661279678
  endloop
 endfacet
 facet normal 0.1820687437479907 0.89773911483855595 0.40114268563556615
  outer loop
   vertex 0.0073790000751614571 0.0053079999051988125 0.0018149999668821692
   vertex 0.010397999547421932 0.0033569999504834414 0.0048110000789165497
   vertex 0.0088910004124045372 0.0051219998858869076 0.0015450000064447522
  endloop
 endfacet
 facet normal 0.23222543370502885 0.92835520544647276 0.29022053762776445
  outer loop
   vertex 0.010397999547421932 0.0033569999504834414 0.0048110000789165497
   vertex 0.022576000541448593 0.0010860000038519502 0.0023310000542551279
   vertex 0.013485999777913094 0.0032919999212026596 0.0025480000767856836
  endloop
 endfacet
 facet normal 0.27828998639615776 0.89284321021259272 0.35409841209598553
  outer loop
   vertex 0.010397999547421932 0.0033569999504834414 0.0048110000789165497
   vertex 0.013485999777913094 0.0032919999212026596 0.0025480000767856836
   vertex 0.0088910004124045372 0.0051219998858869076 0.0015450000064447522
  endloop
 endfacet
 facet normal 0.35042451710230355 0.90612136048058023 0.2369530288779608
  outer loop
   vertex 0.010397999547421932 0.0033569999504834414 0.0048110000789165497
   vertex 0.0073790000751614571 0.0053079999051988125 0.0018149999668821692
   vertex 0.0064440001733601093 0.0048320000059902668 0.0050180000253021717
  endloop
 endfacet
 facet normal 0.3165966954940484 0.77118350098350252 0.55230656361578512
  outer loop
   vertex 0.0058720000088214874 0.0042690001428127289 0.0061320001259446144
   vertex 0.010397999547421932 0.0033569999504834414 0.0048110000789165497
   vertex 0.0064440001733601093 0.0048320000059902668 0.0050180000253021717
  endloop
 endfacet
 facet normal 0.32989530701075853 0.39577073674510554 0.85704994623914055
  outer loop
   vertex 0.010397999547421932 0.0033569999504834414 0.0048110000789165497
   vertex 0.0058720000088214874 0.0042690001428127289 0.0061320001259446144
   vertex 0.0048759998753666878 0.0029899999499320984 0.0071060000918805599
  endloop
 endfacet
 facet normal 0.35733454473991583 0.25030755157922918 0.89981006482364301
  outer loop
   vertex 0.010397999547421932 0.0033569999504834414 0.0048110000789165497
   vertex 0.0048759998753666878 0.0029899999499320984 0.0071060000918805599
   vertex 0.0050800000317394733 0.0015699999639764428 0.0074200001545250416
  endloop
 endfacet
 facet normal 0.44780525492555168 -0.027852288742499922 0.89369721028593674
  outer loop
   vertex 0.0050800000317394733 0.0015699999639764428 0.0074200001545250416
   vertex 0.008750000037252903 -0.00016500000492669642 0.0055269999429583549
   vertex 0.010397999547421932 0.0033569999504834414 0.0048110000789165497
  endloop
 endfacet
 facet normal 0.045322862976116589 0.17860514726976487 0.98287641108147161
  outer loop
   vertex 0.015922000631690025 -0.0038340000901371241 0.0058630001731216908
   vertex 0.010397999547421932 0.0033569999504834414 0.0048110000789165497
   vertex 0.008750000037252903 -0.00016500000492669642 0.0055269999429583549
  endloop
 endfacet
 facet normal 0.26636449184418004 0.59799592307525684 -0.75594367083134129
  outer loop
   vertex 0.019703000783920288 0.00019900000188499689 0.00061699998332187533
   vertex 0.0098130004480481148 0.0038850000128149986 4.8000001697801054e-05
   vertex 0.022576000541448593 0.0010860000038519502 0.0023310000542551279
  endloop
 endfacet
 facet normal 0.23185713304349068 0.96634689015420128 -0.11142691661424201
  outer loop
   vertex 0.013485999777913094 0.0032919999212026596 0.0025480000767856836
   vertex 0.022576000541448593 0.0010860000038519502 0.0023310000542551279
   vertex 0.0098130004480481148 0.0038850000128149986 4.8000001697801054e-05
  endloop
 endfacet
 facet normal 0.40525897485174278 0.33275203089176608 -0.85149354033927904
  outer loop
   vertex 0.022064000368118286 -0.0015709999715909362 0.0010489999549463391
   vertex 0.019703000783920288 0.00019900000188499689 0.00061699998332187533
   vertex 0.022576000541448593 0.0010860000038519502 0.0023310000542551279
  endloop
 endfacet
 facet normal -0.25134416771440193 -0.94362540435279496 -0.21540010588664701
  outer loop
   vertex 0.026427999138832092 -0.003894000081345439 0.0087179997935891151
   vertex 0.027008999139070511 -0.0026149998884648085 0.0024369999300688505
   vertex 0.032565001398324966 -0.0048790001310408115 0.0058720000088214874
  endloop
 endfacet
 facet normal -0.21625655697520874 -0.96744090180832143 -0.13149601923073539
  outer loop
   vertex 0.032565001398324966 -0.0048790001310408115 0.0058720000088214874
   vertex 0.032402999699115753 -0.0049729999154806137 0.006829999852925539
   vertex 0.026427999138832092 -0.003894000081345439 0.0087179997935891151
  endloop
 endfacet
 facet normal -0.43560243613850036 -0.88570222067781768 -0.16056803516449367
  outer loop
   vertex 0.032565001398324966 -0.0048790001310408115 0.0058720000088214874
   vertex 0.034469999372959137 -0.0060959998518228531 0.0074169998988509178
   vertex 0.032402999699115753 -0.0049729999154806137 0.006829999852925539
  endloop
 endfacet
 facet normal 0.13098381671563006 -0.97374774440045153 -0.1861681230330238
  outer loop
   vertex 0.026427999138832092 -0.003894000081345439 0.0087179997935891151
   vertex 0.015876999124884605 -0.0044470001012086868 0.0041869999840855598
   vertex 0.027008999139070511 -0.0026149998884648085 0.0024369999300688505
  endloop
 endfacet
 facet normal 0.12574816538035374 -0.96867106237296774 -0.21415828684573726
  outer loop
   vertex 0.010955999605357647 -0.0039280001074075699 -0.0010499999625608325
   vertex 0.027008999139070511 -0.0026149998884648085 0.0024369999300688505
   vertex 0.015876999124884605 -0.0044470001012086868 0.0041869999840855598
  endloop
 endfacet
 facet normal 0.22378882795199628 -0.2063982257326667 -0.95253258889041625
  outer loop
   vertex 0.027008999139070511 -0.0026149998884648085 0.0024369999300688505
   vertex 0.010955999605357647 -0.0039280001074075699 -0.0010499999625608325
   vertex 0.022064000368118286 -0.0015709999715909362 0.0010489999549463391
  endloop
 endfacet
 facet normal 0.18441951547431087 0.0061200494436768164 -0.98282856455590839
  outer loop
   vertex 0.010955999605357647 -0.0039280001074075699 -0.0010499999625608325
   vertex 0.019703000783920288 0.00019900000188499689 0.00061699998332187533
   vertex 0.022064000368118286 -0.0015709999715909362 0.0010489999549463391
  endloop
 endfacet
 facet normal 0.35334739164073375 -0.57937073744549394 -0.73448973404163687
  outer loop
   vertex 0.034469999372959137 -0.0060959998518228531 0.0074169998988509178
   vertex 0.03599800169467926 -0.0058360002003610134 0.0079469997435808182
   vertex 0.034717999398708344 -0.0078210001811385155 0.0088969999924302101
  endloop
 endfacet
 facet normal 0.40757752445764633 -0.91301748066149069 0.01672248676247895
  outer loop
   vertex 0.034267999231815338 -0.0079979998990893364 0.010200999677181244
   vertex 0.034717999398708344 -0.0078210001811385155 0.0088969999924302101
   vertex 0.036364000290632248 -0.0070469998754560947 0.011037999764084816
  endloop
 endfacet
 facet normal -0.072252261250479011 -0.98469691825965089 -0.15859252792656736
  outer loop
   vertex 0.034717999398708344 -0.0078210001811385155 0.0088969999924302101
   vertex 0.034267999231815338 -0.0079979998990893364 0.010200999677181244
   vertex 0.033057998865842819 -0.0078579997643828392 0.0098829995840787888
  endloop
 endfacet
 facet normal -0.1085518779059185 -0.96963601073589067 -0.21914035796102563
  outer loop
   vertex 0.034717999398708344 -0.0078210001811385155 0.0088969999924302101
   vertex 0.033057998865842819 -0.0078579997643828392 0.0098829995840787888
   vertex 0.032655000686645508 -0.0075010000728070736 0.0085030002519488335
  endloop
 endfacet
 facet normal 0.4967102259718188 -0.86516105984954528 -0.069103487140927483
  outer loop
   vertex 0.034717999398708344 -0.0078210001811385155 0.0088969999924302101
   vertex 0.036695998162031174 -0.006750000175088644 0.0097059998661279678
   vertex 0.036364000290632248 -0.0070469998754560947 0.011037999764084816
  endloop
 endfacet
 facet normal 0.13083078550607441 -0.31426569397250398 -0.94027675668169319
  outer loop
   vertex 0.032228998839855194 -0.0055689997971057892 0.0077979997731745243
   vertex 0.034717999398708344 -0.0078210001811385155 0.0088969999924302101
   vertex 0.032655000686645508 -0.0075010000728070736 0.0085030002519488335
  endloop
 endfacet
 facet normal -0.27330601516465219 -0.64869378331207661 -0.71028177335975851
  outer loop
   vertex 0.034469999372959137 -0.0060959998518228531 0.0074169998988509178
   vertex 0.034717999398708344 -0.0078210001811385155 0.0088969999924302101
   vertex 0.032228998839855194 -0.0055689997971057892 0.0077979997731745243
  endloop
 endfacet
 facet normal -0.27857327138212257 -0.79466695307535529 -0.5393527288902813
  outer loop
   vertex 0.032228998839855194 -0.0055689997971057892 0.0077979997731745243
   vertex 0.032402999699115753 -0.0049729999154806137 0.006829999852925539
   vertex 0.034469999372959137 -0.0060959998518228531 0.0074169998988509178
  endloop
 endfacet
 facet normal -0.10061950724917802 -0.93351290997414726 0.34413567335068901
  outer loop
   vertex 0.015876999124884605 -0.0044470001012086868 0.0041869999840855598
   vertex 0.015922000631690025 -0.0038340000901371241 0.0058630001731216908
   vertex 0.009755999781191349 -0.0035620001144707203 0.0047980002127587795
  endloop
 endfacet
 facet normal -0.098856199956665725 -0.9336942849397335 0.34415466581321769
  outer loop
   vertex 0.026427999138832092 -0.003894000081345439 0.0087179997935891151
   vertex 0.015922000631690025 -0.0038340000901371241 0.0058630001731216908
   vertex 0.015876999124884605 -0.0044470001012086868 0.0041869999840855598
  endloop
 endfacet
 facet normal -0.17548448847485387 -0.25597315068804222 0.95062239634439272
  outer loop
   vertex 0.015922000631690025 -0.0038340000901371241 0.0058630001731216908
   vertex 0.008750000037252903 -0.00016500000492669642 0.0055269999429583549
   vertex 0.009755999781191349 -0.0035620001144707203 0.0047980002127587795
  endloop
 endfacet
 facet normal -0.31186401385082296 -0.79080447092663309 -0.52665845253570331
  outer loop
   vertex 0.031252000480890274 -0.0055459998548030853 0.0083419997245073318
   vertex 0.026427999138832092 -0.003894000081345439 0.0087179997935891151
   vertex 0.032228998839855194 -0.0055689997971057892 0.0077979997731745243
  endloop
 endfacet
 facet normal -0.30738737272581945 -0.93628396443811046 0.16995687989832348
  outer loop
   vertex 0.031252000480890274 -0.0055459998548030853 0.0083419997245073318
   vertex 0.030293000862002373 -0.0049910000525414944 0.0096650002524256706
   vertex 0.026427999138832092 -0.003894000081345439 0.0087179997935891151
  endloop
 endfacet
 facet normal -0.31148394169235227 -0.78315843683758335 -0.53818269841932709
  outer loop
   vertex 0.026427999138832092 -0.003894000081345439 0.0087179997935891151
   vertex 0.032402999699115753 -0.0049729999154806137 0.006829999852925539
   vertex 0.032228998839855194 -0.0055689997971057892 0.0077979997731745243
  endloop
 endfacet
 facet normal -0.79580885464454543 -0.47259975045993813 -0.37859971306716689
  outer loop
   vertex 0.030293000862002373 -0.0049910000525414944 0.0096650002524256706
   vertex 0.031252000480890274 -0.0055459998548030853 0.0083419997245073318
   vertex 0.031761001795530319 -0.0064719999209046364 0.0084279999136924744
  endloop
 endfacet
 facet normal -0.77866899861812677 -0.32209524869812806 -0.53845077895489635
  outer loop
   vertex 0.031237000599503517 -0.007009000051766634 0.0095070004463195801
   vertex 0.030293000862002373 -0.0049910000525414944 0.0096650002524256706
   vertex 0.031761001795530319 -0.0064719999209046364 0.0084279999136924744
  endloop
 endfacet
 facet normal -0.37447359904092875 -0.44227435191805425 0.81496191399156737
  outer loop
   vertex 0.035135000944137573 -0.0072929998859763145 0.011144000105559826
   vertex 0.031237000599503517 -0.007009000051766634 0.0095070004463195801
   vertex 0.033057998865842819 -0.0078579997643828392 0.0098829995840787888
  endloop
 endfacet
 facet normal -0.59893250517660568 -0.56193865339855253 -0.57053028320983701
  outer loop
   vertex 0.031237000599503517 -0.007009000051766634 0.0095070004463195801
   vertex 0.031761001795530319 -0.0064719999209046364 0.0084279999136924744
   vertex 0.032655000686645508 -0.0075010000728070736 0.0085030002519488335
  endloop
 endfacet
 facet normal -0.39936607374721178 -0.90909406639663626 -0.11855259416041923
  outer loop
   vertex 0.032655000686645508 -0.0075010000728070736 0.0085030002519488335
   vertex 0.033057998865842819 -0.0078579997643828392 0.0098829995840787888
   vertex 0.031237000599503517 -0.007009000051766634 0.0095070004463195801
  endloop
 endfacet
 facet normal 0.21239279484512311 -0.86620201557982435 0.45230893082419593
  outer loop
   vertex 0.034267999231815338 -0.0079979998990893364 0.010200999677181244
   vertex 0.036364000290632248 -0.0070469998754560947 0.011037999764084816
   vertex 0.035135000944137573 -0.0072929998859763145 0.011144000105559826
  endloop
 endfacet
 facet normal -0.26366516564423204 -0.64050895290975474 0.72126899397398836
  outer loop
   vertex 0.034267999231815338 -0.0079979998990893364 0.010200999677181244
   vertex 0.035135000944137573 -0.0072929998859763145 0.011144000105559826
   vertex 0.033057998865842819 -0.0078579997643828392 0.0098829995840787888
  endloop
 endfacet
 facet normal 0.41337357833756627 0.81044559859661047 -0.41509061233395478
  outer loop
   vertex 0.0088910004124045372 0.0051219998858869076 0.0015450000064447522
   vertex 0.013485999777913094 0.0032919999212026596 0.0025480000767856836
   vertex 0.0098130004480481148 0.0038850000128149986 4.8000001697801054e-05
  endloop
 endfacet
 facet normal 0.76219164478790224 0.64428337069523478 -0.062951051310513401
  outer loop
   vertex 0.0088910004124045372 0.0051219998858869076 0.0015450000064447522
   vertex 0.0098130004480481148 0.0038850000128149986 4.8000001697801054e-05
   vertex 0.0087219998240470886 0.0050760000012814999 -0.00097200000891461968
  endloop
 endfacet
 facet normal 0.11747381325525699 0.99273476570632513 -0.026030523569005325
  outer loop
   vertex 0.0088910004124045372 0.0051219998858869076 0.0015450000064447522
   vertex 0.0087219998240470886 0.0050760000012814999 -0.00097200000891461968
   vertex 0.0073790000751614571 0.0053079999051988125 0.0018149999668821692
  endloop
 endfacet
 facet normal -0.83756923848167431 0.52011619518671059 -0.16720321245038292
  outer loop
   vertex 0.0064440001733601093 0.0048320000059902668 0.0050180000253021717
   vertex 0.0073790000751614571 0.0053079999051988125 0.0018149999668821692
   vertex 0.0058720000088214874 0.0042690001428127289 0.0061320001259446144
  endloop
 endfacet
 facet normal -0.87801149541427592 0.45787664819723439 -0.13944457306060037
  outer loop
   vertex 0.0077180000953376293 0.0050030001439154148 -0.0013210000470280647
   vertex 0.0074479999020695686 0.0041600000113248825 -0.0023890000302344561
   vertex 0.0073790000751614571 0.0053079999051988125 0.0018149999668821692
  endloop
 endfacet
 facet normal -0.03727566557641801 0.99421582136862485 -0.10072450196523988
  outer loop
   vertex 0.0087219998240470886 0.0050760000012814999 -0.00097200000891461968
   vertex 0.0077180000953376293 0.0050030001439154148 -0.0013210000470280647
   vertex 0.0073790000751614571 0.0053079999051988125 0.0018149999668821692
  endloop
 endfacet
 facet normal -0.88024213965162035 0.42834773201584642 -0.20418617989084861
  outer loop
   vertex 0.0048409998416900635 -0.0025859999004751444 -0.0038040000945329666
   vertex 0.0058720000088214874 0.0042690001428127289 0.0061320001259446144
   vertex 0.0073790000751614571 0.0053079999051988125 0.0018149999668821692
  endloop
 endfacet
 facet normal -0.91755366270623862 0.37948479049839984 -0.11868685620047252
  outer loop
   vertex 0.0048409998416900635 -0.0025859999004751444 -0.0038040000945329666
   vertex 0.0073790000751614571 0.0053079999051988125 0.0018149999668821692
   vertex 0.0074479999020695686 0.0041600000113248825 -0.0023890000302344561
  endloop
 endfacet
 facet normal -0.8933496691792967 0.41839799460375271 -0.16391914680353639
  outer loop
   vertex 0.0020940001122653484 -0.0039340001530945301 0.0057839998044073582
   vertex 0.0058720000088214874 0.0042690001428127289 0.0061320001259446144
   vertex 0.0035359999164938927 -0.0026509999297559261 0.0012000000569969416
  endloop
 endfacet
 facet normal -0.8498756481850438 0.40569030109573895 -0.3363432208606269
  outer loop
   vertex 0.0058720000088214874 0.0042690001428127289 0.0061320001259446144
   vertex 0.0020940001122653484 -0.0039340001530945301 0.0057839998044073582
   vertex 0.0048759998753666878 0.0029899999499320984 0.0071060000918805599
  endloop
 endfacet
 facet normal -0.8659608211015688 0.44912286582899891 -0.22000115387571018
  outer loop
   vertex 0.0035359999164938927 -0.0026509999297559261 0.0012000000569969416
   vertex 0.0058720000088214874 0.0042690001428127289 0.0061320001259446144
   vertex 0.0048409998416900635 -0.0025859999004751444 -0.0038040000945329666
  endloop
 endfacet
 facet normal 0.12481685661373973 0.23128479807841934 0.96484615068045432
  outer loop
   vertex 0.0050800000317394733 0.0015699999639764428 0.0074200001545250416
   vertex 0.0048759998753666878 0.0029899999499320984 0.0071060000918805599
   vertex 0.0044660000130534172 0.0021599999163299799 0.0073580001480877399
  endloop
 endfacet
 facet normal -0.84698973456327153 0.28146786044543232 -0.45098141101458866
  outer loop
   vertex 0.0048759998753666878 0.0029899999499320984 0.0071060000918805599
   vertex 0.0036210000980645418 -0.00055100000463426113 0.0072530000470578671
   vertex 0.0044660000130534172 0.0021599999163299799 0.0073580001480877399
  endloop
 endfacet
 facet normal -0.92323279343728337 0.33502266100005623 0.18815160307165055
  outer loop
   vertex 0.0020940001122653484 -0.0039340001530945301 0.0057839998044073582
   vertex 0.0036210000980645418 -0.00055100000463426113 0.0072530000470578671
   vertex 0.0048759998753666878 0.0029899999499320984 0.0071060000918805599
  endloop
 endfacet
 facet normal -0.10574561789632195 -0.0055531988615884383 0.99437770805571102
  outer loop
   vertex 0.0044660000130534172 0.0021599999163299799 0.0073580001480877399
   vertex 0.0036210000980645418 -0.00055100000463426113 0.0072530000470578671
   vertex 0.0050800000317394733 0.0015699999639764428 0.0074200001545250416
  endloop
 endfacet
 facet normal 0.16726413672712195 -0.19121149559704217 0.96719226243620926
  outer loop
   vertex 0.0058059999719262123 -0.003708000062033534 0.0062509998679161072
   vertex 0.0050800000317394733 0.0015699999639764428 0.0074200001545250416
   vertex 0.0036210000980645418 -0.00055100000463426113 0.0072530000470578671
  endloop
 endfacet
 facet normal 0.39819767976903681 -0.14581238335691996 0.90563643736674504
  outer loop
   vertex 0.008750000037252903 -0.00016500000492669642 0.0055269999429583549
   vertex 0.0050800000317394733 0.0015699999639764428 0.0074200001545250416
   vertex 0.0058059999719262123 -0.003708000062033534 0.0062509998679161072
  endloop
 endfacet
 facet normal 0.62280574538707001 -0.37747327825102867 0.68529331509892721
  outer loop
   vertex 0.008750000037252903 -0.00016500000492669642 0.0055269999429583549
   vertex 0.0058059999719262123 -0.003708000062033534 0.0062509998679161072
   vertex 0.0068009998649358749 -0.0034370000939816236 0.0054959999397397041
  endloop
 endfacet
 facet normal 0.22191018915933289 -0.14132362321584038 0.9647712171641607
  outer loop
   vertex 0.009755999781191349 -0.0035620001144707203 0.0047980002127587795
   vertex 0.008750000037252903 -0.00016500000492669642 0.0055269999429583549
   vertex 0.0068009998649358749 -0.0034370000939816236 0.0054959999397397041
  endloop
 endfacet
 facet normal 0.25030400893506849 0.54843434740243224 -0.79785190963003982
  outer loop
   vertex 0.0098130004480481148 0.0038850000128149986 4.8000001697801054e-05
   vertex 0.019703000783920288 0.00019900000188499689 0.00061699998332187533
   vertex 0.010639999993145466 0.00061400001868605614 -0.0019409999949857593
  endloop
 endfacet
 facet normal 0.83452658376533628 0.4245383230170004 -0.35118740478392746
  outer loop
   vertex 0.0098130004480481148 0.0038850000128149986 4.8000001697801054e-05
   vertex 0.010639999993145466 0.00061400001868605614 -0.0019409999949857593
   vertex 0.0085009997710585594 0.0034910000395029783 -0.0035459999926388264
  endloop
 endfacet
 facet normal 0.82051519319921062 0.4526032140172 -0.349149177846036
  outer loop
   vertex 0.0098130004480481148 0.0038850000128149986 4.8000001697801054e-05
   vertex 0.0085009997710585594 0.0034910000395029783 -0.0035459999926388264
   vertex 0.0087219998240470886 0.0050760000012814999 -0.00097200000891461968
  endloop
 endfacet
 facet normal 0.26990117857351364 -0.036568733651257603 -0.9621933701308546
  outer loop
   vertex 0.010088999755680561 -0.0031369999051094055 -0.0019529999699443579
   vertex 0.010639999993145466 0.00061400001868605614 -0.0019409999949857593
   vertex 0.019703000783920288 0.00019900000188499689 0.00061699998332187533
  endloop
 endfacet
 facet normal 0.37892025883818009 -0.48466472082548517 -0.78836510946969318
  outer loop
   vertex 0.010088999755680561 -0.0031369999051094055 -0.0019529999699443579
   vertex 0.019703000783920288 0.00019900000188499689 0.00061699998332187533
   vertex 0.010955999605357647 -0.0039280001074075699 -0.0010499999625608325
  endloop
 endfacet
 facet normal 0.015414449659024679 -0.4936884067937462 0.86950224366539841
  outer loop
   vertex 0.009755999781191349 -0.0035620001144707203 0.0047980002127587795
   vertex 0.007565000094473362 -0.0039579998701810837 0.0046120001934468746
   vertex 0.015876999124884605 -0.0044470001012086868 0.0041869999840855598
  endloop
 endfacet
 facet normal -0.060802637517937061 -0.99727841218614177 -0.041699015076503372
  outer loop
   vertex 0.010955999605357647 -0.0039280001074075699 -0.0010499999625608325
   vertex 0.015876999124884605 -0.0044470001012086868 0.0041869999840855598
   vertex 0.007565000094473362 -0.0039579998701810837 0.0046120001934468746
  endloop
 endfacet
 facet normal 0.51227055033647995 -0.33921862118409774 -0.78899278215958324
  outer loop
   vertex 0.0088989995419979095 -0.0042269998230040073 -0.0022569999564439058
   vertex 0.010088999755680561 -0.0031369999051094055 -0.0019529999699443579
   vertex 0.010955999605357647 -0.0039280001074075699 -0.0010499999625608325
  endloop
 endfacet
 facet normal 0.10900518354839993 -0.99222713706390198 0.060026481102529561
  outer loop
   vertex 0.007565000094473362 -0.0039579998701810837 0.0046120001934468746
   vertex 0.0088989995419979095 -0.0042269998230040073 -0.0022569999564439058
   vertex 0.010955999605357647 -0.0039280001074075699 -0.0010499999625608325
  endloop
 endfacet
 facet normal -0.37821092960281144 -0.38979054464697177 -0.83965458614408484
  outer loop
   vertex 0.032655000686645508 -0.0075010000728070736 0.0085030002519488335
   vertex 0.031761001795530319 -0.0064719999209046364 0.0084279999136924744
   vertex 0.032228998839855194 -0.0055689997971057892 0.0077979997731745243
  endloop
 endfacet
 facet normal -0.46487484818877595 -0.3317673444021545 -0.82086649627683339
  outer loop
   vertex 0.032228998839855194 -0.0055689997971057892 0.0077979997731745243
   vertex 0.031761001795530319 -0.0064719999209046364 0.0084279999136924744
   vertex 0.031252000480890274 -0.0055459998548030853 0.0083419997245073318
  endloop
 endfacet
 facet normal 0.09951577786349905 -0.81722988405810626 0.567654760006993
  outer loop
   vertex 0.009755999781191349 -0.0035620001144707203 0.0047980002127587795
   vertex 0.0068009998649358749 -0.0034370000939816236 0.0054959999397397041
   vertex 0.007565000094473362 -0.0039579998701810837 0.0046120001934468746
  endloop
 endfacet
 facet normal 0.12243261518106852 0.84037685893051417 -0.52799336142986408
  outer loop
   vertex 0.0085009997710585594 0.0034910000395029783 -0.0035459999926388264
   vertex 0.0077180000953376293 0.0050030001439154148 -0.0013210000470280647
   vertex 0.0087219998240470886 0.0050760000012814999 -0.00097200000891461968
  endloop
 endfacet
 facet normal -0.62556938174228549 0.38417934420410182 -0.67902075087104741
  outer loop
   vertex 0.0048409998416900635 -0.0025859999004751444 -0.0038040000945329666
   vertex 0.0074479999020695686 0.0041600000113248825 -0.0023890000302344561
   vertex 0.0081460000947117805 0.0011129999766126275 -0.004755999892950058
  endloop
 endfacet
 facet normal -0.14416104865034787 0.79413951796776916 -0.59038971709706412
  outer loop
   vertex 0.0074479999020695686 0.0041600000113248825 -0.0023890000302344561
   vertex 0.0077180000953376293 0.0050030001439154148 -0.0013210000470280647
   vertex 0.0085009997710585594 0.0034910000395029783 -0.0035459999926388264
  endloop
 endfacet
 facet normal -0.51667129301569292 0.44829328429651555 -0.72944081749524781
  outer loop
   vertex 0.0074479999020695686 0.0041600000113248825 -0.0023890000302344561
   vertex 0.0085009997710585594 0.0034910000395029783 -0.0035459999926388264
   vertex 0.0081460000947117805 0.0011129999766126275 -0.004755999892950058
  endloop
 endfacet
 facet normal -0.70233608628449429 0.49615499687841302 -0.51044514002501928
  outer loop
   vertex 0.0081460000947117805 0.0011129999766126275 -0.004755999892950058
   vertex 0.0050479997880756855 -0.0031510000117123127 -0.0046379999257624149
   vertex 0.0048409998416900635 -0.0025859999004751444 -0.0038040000945329666
  endloop
 endfacet
 facet normal -0.73563406260493691 0.46187948986108185 -0.49548951833618277
  outer loop
   vertex 0.0048409998416900635 -0.0025859999004751444 -0.0038040000945329666
   vertex 0.0050479997880756855 -0.0031510000117123127 -0.0046379999257624149
   vertex 0.0043000001460313797 -0.0036150000523775816 -0.0039599998854100704
  endloop
 endfacet
 facet normal -0.75597430300622814 0.46699771774156906 -0.45871122159634742
  outer loop
   vertex 0.0048409998416900635 -0.0025859999004751444 -0.0038040000945329666
   vertex 0.0043000001460313797 -0.0036150000523775816 -0.0039599998854100704
   vertex 0.0039639999158680439 -0.003490000031888485 -0.0032790000550448895
  endloop
 endfacet
 facet normal -0.68737882511903015 0.2769080506395743 -0.67144045325626056
  outer loop
   vertex 0.0039639999158680439 -0.003490000031888485 -0.0032790000550448895
   vertex 0.0033309999853372574 -0.0038950000889599323 -0.0027979998849332333
   vertex 0.0048409998416900635 -0.0025859999004751444 -0.0038040000945329666
  endloop
 endfacet
 facet normal -0.60518157760249547 0.78941183197408937 -0.10287962708849135
  outer loop
   vertex 0.0022539999336004257 -0.0042539997957646847 -0.0013849999522790313
   vertex 0.0020659998990595341 -0.0041350000537931919 0.0006339999963529408
   vertex 0.0048409998416900635 -0.0025859999004751444 -0.0038040000945329666
  endloop
 endfacet
 facet normal -0.73768749612324314 0.52046652531996251 -0.43003692176926517
  outer loop
   vertex 0.0048409998416900635 -0.0025859999004751444 -0.0038040000945329666
   vertex 0.0033309999853372574 -0.0038950000889599323 -0.0027979998849332333
   vertex 0.0022539999336004257 -0.0042539997957646847 -0.0013849999522790313
  endloop
 endfacet
 facet normal -0.66854927404747222 0.72514767232383426 -0.16493247555870558
  outer loop
   vertex 0.0035359999164938927 -0.0026509999297559261 0.0012000000569969416
   vertex 0.0048409998416900635 -0.0025859999004751444 -0.0038040000945329666
   vertex 0.0020659998990595341 -0.0041350000537931919 0.0006339999963529408
  endloop
 endfacet
 facet normal -0.8972606468891946 0.40829805830267607 -0.16797626954498249
  outer loop
   vertex 0.0035359999164938927 -0.0026509999297559261 0.0012000000569969416
   vertex 0.0019020000472664833 -0.0046830000355839729 0.0049890000373125076
   vertex 0.0020940001122653484 -0.0039340001530945301 0.0057839998044073582
  endloop
 endfacet
 facet normal -0.66951570199037713 0.73525580848532357 0.10558229433444652
  outer loop
   vertex 0.0019020000472664833 -0.0046830000355839729 0.0049890000373125076
   vertex 0.0035359999164938927 -0.0026509999297559261 0.0012000000569969416
   vertex 0.0015069999499246478 -0.004495999775826931 0.0011820000363513827
  endloop
 endfacet
 facet normal -0.65909513094758587 0.72671481414980732 -0.19359542157911613
  outer loop
   vertex 0.0035359999164938927 -0.0026509999297559261 0.0012000000569969416
   vertex 0.0020659998990595341 -0.0041350000537931919 0.0006339999963529408
   vertex 0.0015069999499246478 -0.004495999775826931 0.0011820000363513827
  endloop
 endfacet
 facet normal -0.094826858141491971 -0.36018435201912713 0.92804908250349294
  outer loop
   vertex 0.0036210000980645418 -0.00055100000463426113 0.0072530000470578671
   vertex 0.0020940001122653484 -0.0039340001530945301 0.0057839998044073582
   vertex 0.0058059999719262123 -0.003708000062033534 0.0062509998679161072
  endloop
 endfacet
 facet normal -0.11534587345209034 -0.13811207691800167 0.98367697120902975
  outer loop
   vertex 0.0058059999719262123 -0.003708000062033534 0.0062509998679161072
   vertex 0.0020940001122653484 -0.0039340001530945301 0.0057839998044073582
   vertex 0.0027260000351816416 -0.0046470002271234989 0.0057580000720918179
  endloop
 endfacet
 facet normal -0.5677356224500012 -0.5263199699728901 0.63297989874011451
  outer loop
   vertex 0.0019020000472664833 -0.0046830000355839729 0.0049890000373125076
   vertex 0.0027260000351816416 -0.0046470002271234989 0.0057580000720918179
   vertex 0.0020940001122653484 -0.0039340001530945301 0.0057839998044073582
  endloop
 endfacet
 facet normal 0.14798881370582428 -0.79457795283271271 0.58885073481326156
  outer loop
   vertex 0.0058059999719262123 -0.003708000062033534 0.0062509998679161072
   vertex 0.0027260000351816416 -0.0046470002271234989 0.0057580000720918179
   vertex 0.0053349998779594898 -0.0047079999931156635 0.0050200000405311584
  endloop
 endfacet
 facet normal 0.51690746833532086 -0.75045533508142148 0.41185368667404254
  outer loop
   vertex 0.0068009998649358749 -0.0034370000939816236 0.0054959999397397041
   vertex 0.0058059999719262123 -0.003708000062033534 0.0062509998679161072
   vertex 0.0053349998779594898 -0.0047079999931156635 0.0050200000405311584
  endloop
 endfacet
 facet normal 0.34262167827349882 -0.64942725401814649 0.6788627455645958
  outer loop
   vertex 0.0068009998649358749 -0.0034370000939816236 0.0054959999397397041
   vertex 0.0053349998779594898 -0.0047079999931156635 0.0050200000405311584
   vertex 0.007565000094473362 -0.0039579998701810837 0.0046120001934468746
  endloop
 endfacet
 facet normal 0.75017162831025908 0.20747974523907586 -0.62784925212495291
  outer loop
   vertex 0.0081460000947117805 0.0011129999766126275 -0.004755999892950058
   vertex 0.0085009997710585594 0.0034910000395029783 -0.0035459999926388264
   vertex 0.010639999993145466 0.00061400001868605614 -0.0019409999949857593
  endloop
 endfacet
 facet normal 0.7492906630335846 0.0094412483904475174 -0.66217396892321367
  outer loop
   vertex 0.008239000104367733 -0.0027610000688582659 -0.0047059999778866768
   vertex 0.0081460000947117805 0.0011129999766126275 -0.004755999892950058
   vertex 0.010639999993145466 0.00061400001868605614 -0.0019409999949857593
  endloop
 endfacet
 facet normal 0.81664447544455121 -0.11815310970796442 -0.56491737749181647
  outer loop
   vertex 0.010088999755680561 -0.0031369999051094055 -0.0019529999699443579
   vertex 0.008239000104367733 -0.0027610000688582659 -0.0047059999778866768
   vertex 0.010639999993145466 0.00061400001868605614 -0.0019409999949857593
  endloop
 endfacet
 facet normal 0.64758822502682167 -0.56414112925813109 -0.5122248306027064
  outer loop
   vertex 0.0088989995419979095 -0.0042269998230040073 -0.0022569999564439058
   vertex 0.008239000104367733 -0.0027610000688582659 -0.0047059999778866768
   vertex 0.010088999755680561 -0.0031369999051094055 -0.0019529999699443579
  endloop
 endfacet
 facet normal 0.33376688386587611 -0.93717301239629525 0.10152050074007893
  outer loop
   vertex 0.0088989995419979095 -0.0042269998230040073 -0.0022569999564439058
   vertex 0.007565000094473362 -0.0039579998701810837 0.0046120001934468746
   vertex 0.0053349998779594898 -0.0047079999931156635 0.0050200000405311584
  endloop
 endfacet
 facet normal 0.15016103799794031 -0.9851711496375225 0.083002822778886404
  outer loop
   vertex 0.0019020000472664833 -0.0046830000355839729 0.0049890000373125076
   vertex 0.0036549998912960291 -0.0050220000557601452 -0.0022060000337660313
   vertex 0.0088989995419979095 -0.0042269998230040073 -0.0022569999564439058
  endloop
 endfacet
 facet normal -0.0066398422916460961 -0.99758135035039164 -0.069190764755358861
  outer loop
   vertex 0.0088989995419979095 -0.0042269998230040073 -0.0022569999564439058
   vertex 0.0053349998779594898 -0.0047079999931156635 0.0050200000405311584
   vertex 0.0019020000472664833 -0.0046830000355839729 0.0049890000373125076
  endloop
 endfacet
 facet normal 0.11474051448307114 -0.79506093850313875 -0.59557763423643473
  outer loop
   vertex 0.0043000001460313797 -0.0036150000523775816 -0.0039599998854100704
   vertex 0.0088989995419979095 -0.0042269998230040073 -0.0022569999564439058
   vertex 0.0036549998912960291 -0.0050220000557601452 -0.0022060000337660313
  endloop
 endfacet
 facet normal -0.016881118935537648 -0.95458581751867433 -0.29745746723807154
  outer loop
   vertex 0.0078419996425509453 -0.0035290000960230827 -0.0044370000250637531
   vertex 0.0088989995419979095 -0.0042269998230040073 -0.0022569999564439058
   vertex 0.0043000001460313797 -0.0036150000523775816 -0.0039599998854100704
  endloop
 endfacet
 facet normal 0.68440225684907352 -0.52938655236199117 -0.50134162902972612
  outer loop
   vertex 0.0088989995419979095 -0.0042269998230040073 -0.0022569999564439058
   vertex 0.0078419996425509453 -0.0035290000960230827 -0.0044370000250637531
   vertex 0.008239000104367733 -0.0027610000688582659 -0.0047059999778866768
  endloop
 endfacet
 facet normal -0.019669235914558485 -0.013375066424098881 -0.99971707435488388
  outer loop
   vertex 0.0050479997880756855 -0.0031510000117123127 -0.0046379999257624149
   vertex 0.0081460000947117805 0.0011129999766126275 -0.004755999892950058
   vertex 0.008239000104367733 -0.0027610000688582659 -0.0047059999778866768
  endloop
 endfacet
 facet normal -0.14639640657894984 -0.73363575824635274 -0.66358621622444047
  outer loop
   vertex 0.0043000001460313797 -0.0036150000523775816 -0.0039599998854100704
   vertex 0.0050479997880756855 -0.0031510000117123127 -0.0046379999257624149
   vertex 0.0070230001583695412 -0.0034229999873787165 -0.0047729997895658016
  endloop
 endfacet
 facet normal -0.042696079951287727 0.17792614702783516 -0.98311715017113932
  outer loop
   vertex 0.0050479997880756855 -0.0031510000117123127 -0.0046379999257624149
   vertex 0.008239000104367733 -0.0027610000688582659 -0.0047059999778866768
   vertex 0.0070230001583695412 -0.0034229999873787165 -0.0047729997895658016
  endloop
 endfacet
 facet normal -0.60200364967265729 -0.5000684144940335 -0.62251360355113849
  outer loop
   vertex 0.0033309999853372574 -0.0038950000889599323 -0.0027979998849332333
   vertex 0.0043000001460313797 -0.0036150000523775816 -0.0039599998854100704
   vertex 0.0036549998912960291 -0.0050220000557601452 -0.0022060000337660313
  endloop
 endfacet
 facet normal -0.013190138031384625 -0.96236166129940459 -0.27145175099778412
  outer loop
   vertex 0.0043000001460313797 -0.0036150000523775816 -0.0039599998854100704
   vertex 0.0070230001583695412 -0.0034229999873787165 -0.0047729997895658016
   vertex 0.0078419996425509453 -0.0035290000960230827 -0.0044370000250637531
  endloop
 endfacet
 facet normal -0.69778401448196681 0.55970756228866825 -0.44701780037299088
  outer loop
   vertex 0.0039639999158680439 -0.003490000031888485 -0.0032790000550448895
   vertex 0.0043000001460313797 -0.0036150000523775816 -0.0039599998854100704
   vertex 0.0033309999853372574 -0.0038950000889599323 -0.0027979998849332333
  endloop
 endfacet
 facet normal -0.62509545850624226 -0.49620655312623985 -0.60252362973533824
  outer loop
   vertex 0.0036549998912960291 -0.0050220000557601452 -0.0022060000337660313
   vertex 0.0022539999336004257 -0.0042539997957646847 -0.0013849999522790313
   vertex 0.0033309999853372574 -0.0038950000889599323 -0.0027979998849332333
  endloop
 endfacet
 facet normal -0.39961509849769122 0.91215772376272475 -0.090972853273299778
  outer loop
   vertex 0.0020659998990595341 -0.0041350000537931919 0.0006339999963529408
   vertex 0.0022539999336004257 -0.0042539997957646847 -0.0013849999522790313
   vertex 0.0018739999504759908 -0.0043370001949369907 -0.00054799998179078102
  endloop
 endfacet
 facet normal -0.57372157216866759 0.8177263128852037 -0.046553569610527347
  outer loop
   vertex 0.0015069999499246478 -0.004495999775826931 0.0011820000363513827
   vertex 0.0020659998990595341 -0.0041350000537931919 0.0006339999963529408
   vertex 0.0018739999504759908 -0.0043370001949369907 -0.00054799998179078102
  endloop
 endfacet
 facet normal -0.59815107722281602 -0.72409586510920299 -0.34336637422575306
  outer loop
   vertex 0.0022539999336004257 -0.0042539997957646847 -0.0013849999522790313
   vertex 0.0036549998912960291 -0.0050220000557601452 -0.0022060000337660313
   vertex 0.0018739999504759908 -0.0043370001949369907 -0.00054799998179078102
  endloop
 endfacet
 facet normal -0.0077682180982031768 -0.99845254401726768 0.055065162607812738
  outer loop
   vertex 0.0027260000351816416 -0.0046470002271234989 0.0057580000720918179
   vertex 0.0019020000472664833 -0.0046830000355839729 0.0049890000373125076
   vertex 0.0053349998779594898 -0.0047079999931156635 0.0050200000405311584
  endloop
 endfacet
 facet normal -0.26691454258771413 -0.9635201744955193 -0.019634161436522985
  outer loop
   vertex 0.0015069999499246478 -0.004495999775826931 0.0011820000363513827
   vertex 0.0036549998912960291 -0.0050220000557601452 -0.0022060000337660313
   vertex 0.0019020000472664833 -0.0046830000355839729 0.0049890000373125076
  endloop
 endfacet
 facet normal -0.49693731409003294 -0.84819048022952115 -0.18337452143904359
  outer loop
   vertex 0.0015069999499246478 -0.004495999775826931 0.0011820000363513827
   vertex 0.0018739999504759908 -0.0043370001949369907 -0.00054799998179078102
   vertex 0.0036549998912960291 -0.0050220000557601452 -0.0022060000337660313
  endloop
 endfacet
 facet normal 0.28961522632424541 -0.44628607673644993 -0.84673003867368712
  outer loop
   vertex 0.008239000104367733 -0.0027610000688582659 -0.0047059999778866768
   vertex 0.0078419996425509453 -0.0035290000960230827 -0.0044370000250637531
   vertex 0.0070230001583695412 -0.0034229999873787165 -0.0047729997895658016
  endloop
 endfacet
endsolid
