solid Visualization Toolkit generated SLA File
 facet normal 0.62945773013239126 0.21241243131712409 -0.74743824159493333
  outer loop
   vertex 0.013841999694705009 0.0041390000842511654 -0.012170000001788139
   vertex 0.014595000073313713 0.010687000118196011 -0.009674999862909317
   vertex 0.014669000171124935 0.0035989999305456877 -0.011626999825239182
  endloop
 endfacet
 facet normal -0.15106233572726219 0.23968418627864202 -0.95902641338628891
  outer loop
   vertex 0.012582000344991684 0.016992999240756035 -0.008759000338613987
   vertex 0.013841999694705009 0.0041390000842511654 -0.012170000001788139
   vertex 0.0042619998566806316 0.0042309998534619808 -0.010638000443577766
  endloop
 endfacet
 facet normal -0.24860508513413793 0.0064370127543465494 -0.96858354131806745
  outer loop
   vertex 0.013841999694705009 0.0041390000842511654 -0.012170000001788139
   vertex 0.010805999860167503 -0.0064309998415410519 -0.011460999958217144
   vertex -0.00133200001437217 -0.0058960001915693283 -0.0083419997245073318
  endloop
 endfacet
 facet normal -0.36202675273308382 0.12414238593451297 -0.92386432895746406
  outer loop
   vertex 0.010805999860167503 -0.0064309998415410519 -0.011460999958217144
   vertex 0.014669000171124935 0.0035989999305456877 -0.011626999825239182
   vertex 0.014065999537706375 -0.0059810001403093338 -0.012678000144660473
  endloop
 endfacet
 facet normal 0.78351162225190218 0.30959324643653258 -0.53875927793132339
  outer loop
   vertex 0.014669000171124935 0.0035989999305456877 -0.011626999825239182
   vertex 0.015193000435829163 0.0065190000459551811 -0.0091869998723268509
   vertex 0.015798000618815422 0.0032319999299943447 -0.010196000337600708
  endloop
 endfacet
 facet normal 0.88575924396166916 -0.041989805468255779 -0.46224173110309957
  outer loop
   vertex 0.014065999537706375 -0.0059810001403093338 -0.012678000144660473
   vertex 0.015798000618815422 0.0032319999299943447 -0.010196000337600708
   vertex 0.01510199997574091 -0.0037769998889416456 -0.010893000289797783
  endloop
 endfacet
 facet normal 0.95405832362101106 0.10398268025366407 -0.28099878529404787
  outer loop
   vertex 0.014595000073313713 0.010687000118196011 -0.009674999862909317
   vertex 0.015728000551462173 0.0064340000972151756 -0.0074020000174641609
   vertex 0.015193000435829163 0.0065190000459551811 -0.0091869998723268509
  endloop
 endfacet
 facet normal 0.90602206825328524 0.32806144833552514 -0.26739427434789442
  outer loop
   vertex 0.012582000344991684 0.016992999240756035 -0.008759000338613987
   vertex 0.015448000282049179 0.010751999914646149 -0.006705000065267086
   vertex 0.014595000073313713 0.010687000118196011 -0.009674999862909317
  endloop
 endfacet
 facet normal -0.53224795870410002 0.78512283439790953 0.31669266704853033
  outer loop
   vertex 0.0066140000708401203 0.013043999671936035 -0.0089990003034472466
   vertex 0.01447100006043911 0.016239000484347343 -0.0037150001153349876
   vertex 0.012582000344991684 0.016992999240756035 -0.008759000338613987
  endloop
 endfacet
 facet normal 0.96507300963753317 -0.26123403361353298 0.019770325013950634
  outer loop
   vertex 0.004155999980866909 0.0040000001899898052 -0.0085159996524453163
   vertex 0.0042619998566806316 0.0042309998534619808 -0.010638000443577766
   vertex 0.0066140000708401203 0.013043999671936035 -0.0089990003034472466
  endloop
 endfacet
 facet normal 0.86524503394868302 -0.49540280446574703 -0.076987612994656174
  outer loop
   vertex -0.0011249999515712261 -0.006147999782115221 -0.0043939999304711819
   vertex -0.00133200001437217 -0.0058960001915693283 -0.0083419997245073318
   vertex 0.0042619998566806316 0.0042309998534619808 -0.010638000443577766
  endloop
 endfacet
 facet normal -0.83806785393461969 0.39736223276971283 -0.37382553172528155
  outer loop
   vertex 0.0043080002069473267 0.0087120002135634422 -0.0084340004250407219
   vertex 0.0047740000300109386 0.014313999563455582 -0.0035240000579506159
   vertex 0.0066140000708401203 0.013043999671936035 -0.0089990003034472466
  endloop
 endfacet
 facet normal -0.99256305005033418 0.0032229892310476735 0.12168896422927683
  outer loop
   vertex -0.00060099997790530324 -0.0074649997986853123 -0.0023380001075565815
   vertex -0.00133200001437217 -0.0058960001915693283 -0.0083419997245073318
   vertex -0.00056600000243633986 -0.0094480002298951149 -0.0020000000949949026
  endloop
 endfacet
 facet normal -0.034886599046133122 -0.9392523900003964 -0.34144966405831717
  outer loop
   vertex -0.00056600000243633986 -0.0094480002298951149 -0.0020000000949949026
   vertex 0.010805999860167503 -0.0064309998415410519 -0.011460999958217144
   vertex 0.013957000337541103 -0.0079640001058578491 -0.0075659998692572117
  endloop
 endfacet
 facet normal 0.36913950348620167 -0.86909373226226994 -0.32925994519284968
  outer loop
   vertex 0.013957000337541103 -0.0079640001058578491 -0.0075659998692572117
   vertex 0.014065999537706375 -0.0059810001403093338 -0.012678000144660473
   vertex 0.015065000392496586 -0.0070130000822246075 -0.0088339997455477715
  endloop
 endfacet
 facet normal 0.9379871897724954 0.17840361696280535 0.29724094818393632
  outer loop
   vertex 0.015065000392496586 -0.0070130000822246075 -0.0088339997455477715
   vertex 0.01510199997574091 -0.0037769998889416456 -0.010893000289797783
   vertex 0.014667999930679798 -0.0050340001471340656 -0.0087689999490976334
  endloop
 endfacet
 facet normal 0.98007640488870229 0.13593832812672316 0.14481371318541533
  outer loop
   vertex 0.015691999346017838 0.0014469999587163329 -0.0078030000440776348
   vertex 0.015798000618815422 0.0032319999299943447 -0.010196000337600708
   vertex 0.015193000435829163 0.0065190000459551811 -0.0091869998723268509
  endloop
 endfacet
 facet normal 0.99499326656946852 -0.096061178413252027 -0.027579874605878518
  outer loop
   vertex 0.015691999346017838 0.0014469999587163329 -0.0078030000440776348
   vertex 0.01510199997574091 -0.0037769998889416456 -0.010893000289797783
   vertex 0.015798000618815422 0.0032319999299943447 -0.010196000337600708
  endloop
 endfacet
 facet normal 0.95798648473890435 0.016110268794578358 -0.28636053201683243
  outer loop
   vertex 0.015691999346017838 0.0014469999587163329 -0.0078030000440776348
   vertex 0.015193000435829163 0.0065190000459551811 -0.0091869998723268509
   vertex 0.015728000551462173 0.0064340000972151756 -0.0074020000174641609
  endloop
 endfacet
 facet normal 0.98040953753440452 -0.1697872284459282 0.099847061890799879
  outer loop
   vertex 0.015691999346017838 0.0014469999587163329 -0.0078030000440776348
   vertex 0.014667999930679798 -0.0050340001471340656 -0.0087689999490976334
   vertex 0.01510199997574091 -0.0037769998889416456 -0.010893000289797783
  endloop
 endfacet
 facet normal 0.95724807371154097 0.10554641292046618 -0.26932523107790468
  outer loop
   vertex 0.015448000282049179 0.010751999914646149 -0.006705000065267086
   vertex 0.01666799932718277 0.0054210000671446323 -0.0044579999521374702
   vertex 0.015728000551462173 0.0064340000972151756 -0.0074020000174641609
  endloop
 endfacet
 facet normal 0.95417294601904423 0.017135210067186407 -0.29876474634951738
  outer loop
   vertex 0.015691999346017838 0.0014469999587163329 -0.0078030000440776348
   vertex 0.015728000551462173 0.0064340000972151756 -0.0074020000174641609
   vertex 0.01666799932718277 0.0054210000671446323 -0.0044579999521374702
  endloop
 endfacet
 facet normal 0.97320610496265014 0.21609686417671753 -0.078562220923396237
  outer loop
   vertex 0.01447100006043911 0.016239000484347343 -0.0037150001153349876
   vertex 0.016342999413609505 0.0084459995850920677 -0.0019610000308603048
   vertex 0.015448000282049179 0.010751999914646149 -0.006705000065267086
  endloop
 endfacet
 facet normal -0.16727289645950055 0.88560913916997153 0.43326231168735563
  outer loop
   vertex 0.0047740000300109386 0.014313999563455582 -0.0035240000579506159
   vertex 0.016840999945998192 0.012969999574124813 0.0038819999899715185
   vertex 0.01447100006043911 0.016239000484347343 -0.0037150001153349876
  endloop
 endfacet
 facet normal 0.92219202434341285 -0.14002444131655392 -0.3604927545338259
  outer loop
   vertex 0.0039450000040233135 0.010435000061988831 -0.0041379998438060284
   vertex 0.0047740000300109386 0.014313999563455582 -0.0035240000579506159
   vertex 0.0077419998124241829 0.009495999664068222 0.0059400000609457493
  endloop
 endfacet
 facet normal 0.98025255556280655 -0.035008023964629209 0.19462622015206146
  outer loop
   vertex 0.0034729999024420977 0.0036220001056790352 -0.0051440000534057617
   vertex 0.004155999980866909 0.0040000001899898052 -0.0085159996524453163
   vertex 0.0043080002069473267 0.0087120002135634422 -0.0084340004250407219
  endloop
 endfacet
 facet normal -0.87154813145112586 0.29424271384368833 -0.39220540525845932
  outer loop
   vertex -0.00030399998649954796 -0.0021500000730156898 -0.0032190000638365746
   vertex 0.004155999980866909 0.0040000001899898052 -0.0085159996524453163
   vertex -0.0011249999515712261 -0.006147999782115221 -0.0043939999304711819
  endloop
 endfacet
 facet normal 0.98682140419599507 -0.10308470792675892 0.12472794078432971
  outer loop
   vertex 0.0035200000274926424 0.0055510001257061958 -0.0048119998537003994
   vertex 0.0043080002069473267 0.0087120002135634422 -0.0084340004250407219
   vertex 0.0039450000040233135 0.010435000061988831 -0.0041379998438060284
  endloop
 endfacet
 facet normal 0.90828553079370467 -0.20655653614537658 -0.36380185805795673
  outer loop
   vertex 0.00085999997099861503 -0.0013399999588727951 -0.0021679999772459269
   vertex -0.00060099997790530324 -0.0074649997986853123 -0.0023380001075565815
   vertex -0.0011249999515712261 -0.006147999782115221 -0.0043939999304711819
  endloop
 endfacet
 facet normal 0.92888683398957717 -0.24234580886153639 -0.28006741789802514
  outer loop
   vertex 0.003338000038638711 0.0064050001092255116 -0.0026640000287443399
   vertex 0.0039450000040233135 0.010435000061988831 -0.0041379998438060284
   vertex 0.0048320000059902668 0.0076740002259612083 0.001193000003695488
  endloop
 endfacet
 facet normal 0.96059852737760765 -0.26773868428190334 0.074608753769023553
  outer loop
   vertex 0.0010059999767690897 -0.0012850000057369471 -0.00085100001888349652
   vertex -0.00061599997570738196 -0.0067889997735619545 0.00028099998598918319
   vertex -0.00060099997790530324 -0.0074649997986853123 -0.0023380001075565815
  endloop
 endfacet
 facet normal -0.74614760879712527 -0.4415148200655698 0.49832560595337633
  outer loop
   vertex -0.00061599997570738196 -0.0067889997735619545 0.00028099998598918319
   vertex -0.00056600000243633986 -0.0094480002298951149 -0.0020000000949949026
   vertex 0.0029400000348687172 -0.010443000122904778 0.0023680001031607389
  endloop
 endfacet
 facet normal 0.35416105310670176 -0.92087499118158755 0.16296993305104721
  outer loop
   vertex 0.0029400000348687172 -0.010443000122904778 0.0023680001031607389
   vertex 0.013957000337541103 -0.0079640001058578491 -0.0075659998692572117
   vertex 0.0099069997668266296 -0.0081919999793171883 -5.2999999752501026e-05
  endloop
 endfacet
 facet normal 0.70420063390938892 -0.62907692906756085 0.32918639783038106
  outer loop
   vertex 0.0099069997668266296 -0.0081919999793171883 -5.2999999752501026e-05
   vertex 0.015065000392496586 -0.0070130000822246075 -0.0088339997455477715
   vertex 0.014822999946773052 -0.0055220001377165318 -0.0054669999517500401
  endloop
 endfacet
 facet normal 0.95080141707787069 -0.29688864338488624 -0.088508749351661281
  outer loop
   vertex 0.014822999946773052 -0.0055220001377165318 -0.0054669999517500401
   vertex 0.014667999930679798 -0.0050340001471340656 -0.0087689999490976334
   vertex 0.015444000251591206 -0.0029959999956190586 -0.007269000168889761
  endloop
 endfacet
 facet normal 0.93075634136228647 -0.094408667754634898 -0.35324161202594095
  outer loop
   vertex 0.015691999346017838 0.0014469999587163329 -0.0078030000440776348
   vertex 0.015444000251591206 -0.0029959999956190586 -0.007269000168889761
   vertex 0.014667999930679798 -0.0050340001471340656 -0.0087689999490976334
  endloop
 endfacet
 facet normal 0.99206745057390266 -0.041096810192160625 0.11879909807665429
  outer loop
   vertex 0.015691999346017838 0.0014469999587163329 -0.0078030000440776348
   vertex 0.015452999621629715 4.9999998736893758e-06 -0.0063060000538825989
   vertex 0.015444000251591206 -0.0029959999956190586 -0.007269000168889761
  endloop
 endfacet
 facet normal 0.86833340747542864 -0.41916659937182005 -0.26513478729351081
  outer loop
   vertex 0.015691999346017838 0.0014469999587163329 -0.0078030000440776348
   vertex 0.017176000401377678 0.0032220000866800547 -0.0057489997707307339
   vertex 0.015452999621629715 4.9999998736893758e-06 -0.0063060000538825989
  endloop
 endfacet
 facet normal 0.39929893477690265 0.53101995099042187 -0.74738087501364447
  outer loop
   vertex 0.015691999346017838 0.0014469999587163329 -0.0078030000440776348
   vertex 0.01666799932718277 0.0054210000671446323 -0.0044579999521374702
   vertex 0.017176000401377678 0.0032220000866800547 -0.0057489997707307339
  endloop
 endfacet
 facet normal 0.80182681943337919 0.42927687752826937 -0.415686316898849
  outer loop
   vertex 0.016342999413609505 0.0084459995850920677 -0.0019610000308603048
   vertex 0.017176000401377678 0.0032220000866800547 -0.0057489997707307339
   vertex 0.01666799932718277 0.0054210000671446323 -0.0044579999521374702
  endloop
 endfacet
 facet normal 0.99771669946297703 -0.046195032510186591 -0.0492687181088204
  outer loop
   vertex 0.016840999945998192 0.012969999574124813 0.0038819999899715185
   vertex 0.016065999865531921 0.0028899998869746923 -0.0023610000498592854
   vertex 0.016342999413609505 0.0084459995850920677 -0.0019610000308603048
  endloop
 endfacet
 facet normal 0.34452137458463333 -0.39894155784397284 0.84979447861193991
  outer loop
   vertex 0.0077419998124241829 0.009495999664068222 0.0059400000609457493
   vertex 0.015247000381350517 0.0036140000447630882 0.00013600000238511711
   vertex 0.016840999945998192 0.012969999574124813 0.0038819999899715185
  endloop
 endfacet
 facet normal 0.8666359970315769 -0.22835825323521419 -0.44361532528582265
  outer loop
   vertex 0.0048320000059902668 0.0076740002259612083 0.001193000003695488
   vertex 0.0077419998124241829 0.009495999664068222 0.0059400000609457493
   vertex 0.0054270001128315926 0.0037040000315755606 0.0043990002013742924
  endloop
 endfacet
 facet normal 0.96704644324311451 -0.16776894760660591 -0.19150654513570448
  outer loop
   vertex 0.0040210001170635223 0.0060870000161230564 -0.0015119999879971147
   vertex 0.0048320000059902668 0.0076740002259612083 0.001193000003695488
   vertex 0.0040429998189210892 0.0028349999338388443 0.0014479999663308263
  endloop
 endfacet
 facet normal 0.9471275770379729 -0.076698560636876106 0.31155526574014153
  outer loop
   vertex 0.0034729999024420977 0.0036220001056790352 -0.0051440000534057617
   vertex 0.0035200000274926424 0.0055510001257061958 -0.0048119998537003994
   vertex 0.0023839999921619892 0.0022630000021308661 -0.0021679999772459269
  endloop
 endfacet
 facet normal 0.84497156469421952 -0.53061134889284856 0.066892834327112127
  outer loop
   vertex -0.00030399998649954796 -0.0021500000730156898 -0.0032190000638365746
   vertex 0.0034729999024420977 0.0036220001056790352 -0.0051440000534057617
   vertex 0.0023839999921619892 0.0022630000021308661 -0.0021679999772459269
  endloop
 endfacet
 facet normal 0.96561213831006076 -0.20294368974154475 0.16250248349597549
  outer loop
   vertex 0.0035200000274926424 0.0055510001257061958 -0.0048119998537003994
   vertex 0.003338000038638711 0.0064050001092255116 -0.0026640000287443399
   vertex 0.0023839999921619892 0.0022630000021308661 -0.0021679999772459269
  endloop
 endfacet
 facet normal 0.74749816177446482 -0.31617741512451553 -0.58419032883896305
  outer loop
   vertex 0.00085999997099861503 -0.0013399999588727951 -0.0021679999772459269
   vertex -0.00030399998649954796 -0.0021500000730156898 -0.0032190000638365746
   vertex 0.0023839999921619892 0.0022630000021308661 -0.0021679999772459269
  endloop
 endfacet
 facet normal 0.80115025966878606 -0.24965553580495098 -0.54390290941911645
  outer loop
   vertex 0.003338000038638711 0.0064050001092255116 -0.0026640000287443399
   vertex 0.0040210001170635223 0.0060870000161230564 -0.0015119999879971147
   vertex 0.0023839999921619892 0.0022630000021308661 -0.0021679999772459269
  endloop
 endfacet
 facet normal 0.91762512218643477 -0.38813786310522508 -0.085516865918018881
  outer loop
   vertex 0.0010059999767690897 -0.0012850000057369471 -0.00085100001888349652
   vertex 0.00085999997099861503 -0.0013399999588727951 -0.0021679999772459269
   vertex 0.0023839999921619892 0.0022630000021308661 -0.0021679999772459269
  endloop
 endfacet
 facet normal 0.6780575616678447 -0.16749500037641551 -0.71566987355481271
  outer loop
   vertex 0.0040210001170635223 0.0060870000161230564 -0.0015119999879971147
   vertex 0.0040029999800026417 0.0029420000500977039 -0.00079299998469650745
   vertex 0.0023839999921619892 0.0022630000021308661 -0.0021679999772459269
  endloop
 endfacet
 facet normal 0.83424964471423058 -0.36319774473403765 -0.41486736255614121
  outer loop
   vertex 0.0020850000437349081 0.00012099999730708078 -0.00033700000494718552
   vertex 0.0025130000431090593 -0.00063099997350946069 0.0011820000363513827
   vertex -0.00061599997570738196 -0.0067889997735619545 0.00028099998598918319
  endloop
 endfacet
 facet normal 0.79049152227345676 -0.45797279996411888 -0.40667440011244649
  outer loop
   vertex 0.0020850000437349081 0.00012099999730708078 -0.00033700000494718552
   vertex 0.0010059999767690897 -0.0012850000057369471 -0.00085100001888349652
   vertex 0.0023839999921619892 0.0022630000021308661 -0.0021679999772459269
  endloop
 endfacet
 facet normal 0.8509850116490143 -0.026367634884815624 -0.52452765206355711
  outer loop
   vertex 0.0025130000431090593 -0.00063099997350946069 0.0011820000363513827
   vertex 0.0040930001996457577 -0.0014990000054240227 0.0037889999803155661
   vertex 0.0029400000348687172 -0.010443000122904778 0.0023680001031607389
  endloop
 endfacet
 facet normal 0.35012752613242865 -0.21869272982958551 0.91081513237542866
  outer loop
   vertex 0.0040930001996457577 -0.0014990000054240227 0.0037889999803155661
   vertex 0.0099069997668266296 -0.0081919999793171883 -5.2999999752501026e-05
   vertex 0.013535999692976475 -0.0015490000369027257 0.00014699999883305281
  endloop
 endfacet
 facet normal 0.91197712000551179 -0.20593443085555932 0.35480803651361814
  outer loop
   vertex 0.013535999692976475 -0.0015490000369027257 0.00014699999883305281
   vertex 0.014822999946773052 -0.0055220001377165318 -0.0054669999517500401
   vertex 0.015048000030219555 -0.0012710000155493617 -0.0035780000034719706
  endloop
 endfacet
 facet normal 0.99097941690421243 -0.043632797656981186 0.12671217084720882
  outer loop
   vertex 0.015048000030219555 -0.0012710000155493617 -0.0035780000034719706
   vertex 0.015444000251591206 -0.0029959999956190586 -0.007269000168889761
   vertex 0.015452999621629715 4.9999998736893758e-06 -0.0063060000538825989
  endloop
 endfacet
 facet normal 0.84142688168667845 -0.49007779989529349 0.22765006660403428
  outer loop
   vertex 0.016065999865531921 0.0028899998869746923 -0.0023610000498592854
   vertex 0.015452999621629715 4.9999998736893758e-06 -0.0063060000538825989
   vertex 0.017176000401377678 0.0032220000866800547 -0.0057489997707307339
  endloop
 endfacet
 facet normal 0.86760109274483677 -0.32287113722318067 0.37818325269130459
  outer loop
   vertex 0.015247000381350517 0.0036140000447630882 0.00013600000238511711
   vertex 0.015048000030219555 -0.0012710000155493617 -0.0035780000034719706
   vertex 0.016065999865531921 0.0028899998869746923 -0.0023610000498592854
  endloop
 endfacet
 facet normal 0.39391169769304374 -0.12860197549819802 0.91010719496032155
  outer loop
   vertex 0.0054270001128315926 0.0037040000315755606 0.0043990002013742924
   vertex 0.013535999692976475 -0.0015490000369027257 0.00014699999883305281
   vertex 0.015247000381350517 0.0036140000447630882 0.00013600000238511711
  endloop
 endfacet
 facet normal 0.90923172319755463 -0.18967277046425146 -0.37056971500059321
  outer loop
   vertex 0.0040429998189210892 0.0028349999338388443 0.0014479999663308263
   vertex 0.0054270001128315926 0.0037040000315755606 0.0043990002013742924
   vertex 0.0040930001996457577 -0.0014990000054240227 0.0037889999803155661
  endloop
 endfacet
 facet normal 0.91525885040646815 -0.40129936901560559 -0.035497227783406006
  outer loop
   vertex 0.0040029999800026417 0.0029420000500977039 -0.00079299998469650745
   vertex 0.0040429998189210892 0.0028349999338388443 0.0014479999663308263
   vertex 0.0025130000431090593 -0.00063099997350946069 0.0011820000363513827
  endloop
 endfacet
 facet normal 0.66562107003202742 -0.53642441247161177 -0.51884240462196685
  outer loop
   vertex 0.0040029999800026417 0.0029420000500977039 -0.00079299998469650745
   vertex 0.0020850000437349081 0.00012099999730708078 -0.00033700000494718552
   vertex 0.0023839999921619892 0.0022630000021308661 -0.0021679999772459269
  endloop
 endfacet
endsolid
