solid Visualization Toolkit generated SLA File
 facet normal -0.73294836791750984 -0.66712722664619772 -0.13314636095068952
  outer loop
   vertex -0.0057899998500943184 -0.0065449997782707214 0.00071599998045712709
   vertex -0.0080199996009469032 -0.0048489999026060104 0.0044940002262592316
   vertex -0.007296999916434288 -0.0045619998127222061 -0.0009239999926649034
  endloop
 endfacet
 facet normal 0.092100290632774154 -0.95337568714525422 0.28738882307019675
  outer loop
   vertex -0.0057899998500943184 -0.0065449997782707214 0.00071599998045712709
   vertex -0.0051679997704923153 -0.0074640000239014626 -0.0025319999549537897
   vertex 0.0030400000978261232 -0.007052999921143055 -0.0037990000564604998
  endloop
 endfacet
 facet normal 0.42490441508465676 -0.90406746652768399 -0.046024493563543517
  outer loop
   vertex -0.0063319997861981392 -0.0070779998786747456 0.0061820000410079956
   vertex -0.0057899998500943184 -0.0065449997782707214 0.00071599998045712709
   vertex 0.0052519999444484711 -0.0013470000121742487 0.0005520000122487545
  endloop
 endfacet
 facet normal -0.8299560896524274 -0.54626036002305112 -0.11301552245748578
  outer loop
   vertex -0.0051679997704923153 -0.0074640000239014626 -0.0025319999549537897
   vertex -0.007296999916434288 -0.0045619998127222061 -0.0009239999926649034
   vertex -0.0066010002046823502 -0.0049870000220835209 -0.0039809998124837875
  endloop
 endfacet
 facet normal -0.97451279665355983 -0.074901859683293714 -0.21145808231051816
  outer loop
   vertex -0.007296999916434288 -0.0045619998127222061 -0.0009239999926649034
   vertex -0.0068919998593628407 -0.0037219999358057976 -0.0030879999976605177
   vertex -0.0066010002046823502 -0.0049870000220835209 -0.0039809998124837875
  endloop
 endfacet
 facet normal -0.97997389606129326 0.15702295132415131 -0.12245389253062924
  outer loop
   vertex -0.0080199996009469032 -0.0048489999026060104 0.0044940002262592316
   vertex -0.0068919998593628407 -0.0037219999358057976 -0.0030879999976605177
   vertex -0.007296999916434288 -0.0045619998127222061 -0.0009239999926649034
  endloop
 endfacet
 facet normal -0.84384698347214426 -0.30440290791319741 0.44188362510841245
  outer loop
   vertex -0.0063319997861981392 -0.0070779998786747456 0.0061820000410079956
   vertex -0.0069369999691843987 -0.0011490000179037452 0.0091110002249479294
   vertex -0.0080199996009469032 -0.0048489999026060104 0.0044940002262592316
  endloop
 endfacet
 facet normal -0.92422341533112939 0.37292904145404548 -0.082067098119950582
  outer loop
   vertex -0.0069369999691843987 -0.0011490000179037452 0.0091110002249479294
   vertex -0.0068919998593628407 -0.0037219999358057976 -0.0030879999976605177
   vertex -0.0080199996009469032 -0.0048489999026060104 0.0044940002262592316
  endloop
 endfacet
 facet normal 0.33337127992285615 -0.63062834796088851 0.70083626937446464
  outer loop
   vertex 0.0041450001299381256 -9.6999996458180249e-05 0.0074800001457333565
   vertex -0.00039699999615550041 0.0045400001108646393 0.013813000172376633
   vertex -0.0063319997861981392 -0.0070779998786747456 0.0061820000410079956
  endloop
 endfacet
 facet normal 0.71105827117527631 -0.52463055221783195 0.46814412168993413
  outer loop
   vertex 0.0043609999120235443 -0.0077039999887347221 -0.006535000167787075
   vertex 0.0030400000978261232 -0.007052999921143055 -0.0037990000564604998
   vertex 0.00087599997641518712 -0.011402999982237816 -0.0053869998082518578
  endloop
 endfacet
 facet normal 0.81999810149917585 -0.51238574682052851 0.2550763807037344
  outer loop
   vertex 0.0049250000156462193 -0.0052550002001225948 -0.0062469998374581337
   vertex 0.0052519999444484711 -0.0013470000121742487 0.0005520000122487545
   vertex 0.0030400000978261232 -0.007052999921143055 -0.0037990000564604998
  endloop
 endfacet
 facet normal 0.013127274846417797 -0.57352925703278967 0.81907988986577063
  outer loop
   vertex 0.00087599997641518712 -0.011402999982237816 -0.0053869998082518578
   vertex -0.0051679997704923153 -0.0074640000239014626 -0.0025319999549537897
   vertex -0.0042429999448359013 -0.011126000434160233 -0.0051110000349581242
  endloop
 endfacet
 facet normal -0.91281809827728255 -0.37872860857567497 0.15273428070927159
  outer loop
   vertex -0.0042429999448359013 -0.011126000434160233 -0.0051110000349581242
   vertex -0.0066010002046823502 -0.0049870000220835209 -0.0039809998124837875
   vertex -0.0062879999168217182 -0.0068230000324547291 -0.0066630002111196518
  endloop
 endfacet
 facet normal 0.98784801515019061 0.032684053467484202 0.15194752914333121
  outer loop
   vertex 0.0054040001705288887 8.3999999333173037e-05 -0.00074400001903995872
   vertex 0.0041450001299381256 -9.6999996458180249e-05 0.0074800001457333565
   vertex 0.0052519999444484711 -0.0013470000121742487 0.0005520000122487545
  endloop
 endfacet
 facet normal 0.90862781139232784 -0.26177329652252151 0.32537707600892873
  outer loop
   vertex 0.0053909998387098312 0.0016499999910593033 0.0054060001857578754
   vertex 0.0048650000244379044 0.0047289999201893806 0.009352000430226326
   vertex 0.0041450001299381256 -9.6999996458180249e-05 0.0074800001457333565
  endloop
 endfacet
 facet normal -0.95876260239213906 -0.2739554377052752 0.075648465985531085
  outer loop
   vertex -0.0066010002046823502 -0.0049870000220835209 -0.0039809998124837875
   vertex -0.0068919998593628407 -0.0037219999358057976 -0.0030879999976605177
   vertex -0.0062879999168217182 -0.0068230000324547291 -0.0066630002111196518
  endloop
 endfacet
 facet normal -0.92505126569966278 -0.37233985502061434 0.075121156744818646
  outer loop
   vertex -0.0080180000513792038 0.00028700000257231295 0.0029170000925660133
   vertex -0.0068919998593628407 -0.0037219999358057976 -0.0030879999976605177
   vertex -0.0069369999691843987 -0.0011490000179037452 0.0091110002249479294
  endloop
 endfacet
 facet normal -0.97985675312211984 -0.19177608400326734 -0.055701678299212944
  outer loop
   vertex -0.0076089999638497829 0.00058100000023841858 -0.0052899997681379318
   vertex -0.0068919998593628407 -0.0037219999358057976 -0.0030879999976605177
   vertex -0.0080180000513792038 0.00028700000257231295 0.0029170000925660133
  endloop
 endfacet
 facet normal -0.98542856570167869 -0.16974437982212964 -0.010834547426312907
  outer loop
   vertex -0.0068160002119839191 -0.0037899999879300594 -0.0089349998161196709
   vertex -0.0068919998593628407 -0.0037219999358057976 -0.0030879999976605177
   vertex -0.0076089999638497829 0.00058100000023841858 -0.0052899997681379318
  endloop
 endfacet
 facet normal -0.63670705849636378 -0.77110546807632807 0.00069192752158589996
  outer loop
   vertex -0.0055459998548030853 -0.0048409998416900635 -0.011556000448763371
   vertex -0.0068919998593628407 -0.0037219999358057976 -0.0030879999976605177
   vertex -0.0068160002119839191 -0.0037899999879300594 -0.0089349998161196709
  endloop
 endfacet
 facet normal -0.98753242151181697 0.0031392766606626833 -0.15738443825567655
  outer loop
   vertex -0.0057930001057684422 -0.0070890001952648163 -0.0100509999319911
   vertex -0.0068919998593628407 -0.0037219999358057976 -0.0030879999976605177
   vertex -0.0055459998548030853 -0.0048409998416900635 -0.011556000448763371
  endloop
 endfacet
 facet normal -0.98940779277596103 -0.028654031261825252 -0.14230659185943376
  outer loop
   vertex -0.0062879999168217182 -0.0068230000324547291 -0.0066630002111196518
   vertex -0.0068919998593628407 -0.0037219999358057976 -0.0030879999976605177
   vertex -0.0057930001057684422 -0.0070890001952648163 -0.0100509999319911
  endloop
 endfacet
 facet normal -0.73545623333354559 0.62048962539070107 0.27220718879805678
  outer loop
   vertex -0.00039699999615550041 0.0045400001108646393 0.013813000172376633
   vertex -0.0080180000513792038 0.00028700000257231295 0.0029170000925660133
   vertex -0.0069369999691843987 -0.0011490000179037452 0.0091110002249479294
  endloop
 endfacet
 facet normal 0.090199866742883814 0.98484727733554445 0.14812097881235922
  outer loop
   vertex 0.0048650000244379044 0.0047289999201893806 0.009352000430226326
   vertex -0.0048879999667406082 0.0064289998263120651 0.0039880000986158848
   vertex -0.00039699999615550041 0.0045400001108646393 0.013813000172376633
  endloop
 endfacet
 facet normal 0.95862167208383764 0.24279211306289122 0.14864884676863024
  outer loop
   vertex 0.0058300001546740532 0.0032049999572336674 0.0056179999373853207
   vertex 0.0059400000609457493 0.0049459999427199364 0.0020649998914450407
   vertex 0.0048650000244379044 0.0047289999201893806 0.009352000430226326
  endloop
 endfacet
 facet normal 0.73589496031273616 -0.37251942746500893 0.56540948307174532
  outer loop
   vertex 0.0045250002294778824 -0.0078130001202225685 -0.007770999800413847
   vertex 0.00087599997641518712 -0.011402999982237816 -0.0053869998082518578
   vertex 0.002630000002682209 -0.012112000025808811 -0.0081369997933506966
  endloop
 endfacet
 facet normal -0.72957671378146771 0.088266876402202168 0.67817901562790373
  outer loop
   vertex 0.0034459999296814203 -0.0013909999979659915 -0.0083410004153847694
   vertex 0.0043609999120235443 -0.0077039999887347221 -0.006535000167787075
   vertex 0.0049250000156462193 -0.0052550002001225948 -0.0062469998374581337
  endloop
 endfacet
 facet normal -0.9779963318194369 -0.17447139386420069 -0.11438053886395461
  outer loop
   vertex 0.0045250002294778824 -0.0078130001202225685 -0.007770999800413847
   vertex 0.0043609999120235443 -0.0077039999887347221 -0.006535000167787075
   vertex 0.0034459999296814203 -0.0013909999979659915 -0.0083410004153847694
  endloop
 endfacet
 facet normal -0.21666906823200338 -0.9596120718395601 -0.17944131757001305
  outer loop
   vertex 0.002630000002682209 -0.012112000025808811 -0.0081369997933506966
   vertex -0.0042429999448359013 -0.011126000434160233 -0.0051110000349581242
   vertex -0.0034600000362843275 -0.0099569996818900108 -0.012307999655604362
  endloop
 endfacet
 facet normal -0.92197396580297164 -0.23473955986281719 0.30799569058178672
  outer loop
   vertex 0.0049250000156462193 -0.0052550002001225948 -0.0062469998374581337
   vertex 0.0054040001705288887 8.3999999333173037e-05 -0.00074400001903995872
   vertex 0.0041829999536275864 0.0013200000394135714 -0.0034570000134408474
  endloop
 endfacet
 facet normal -0.94006896028898423 -0.21751699264923441 0.26259609252618549
  outer loop
   vertex 0.0034459999296814203 -0.0013909999979659915 -0.0083410004153847694
   vertex 0.0049250000156462193 -0.0052550002001225948 -0.0062469998374581337
   vertex 0.0041829999536275864 0.0013200000394135714 -0.0034570000134408474
  endloop
 endfacet
 facet normal -0.97206288408096908 0.2269626719329812 -0.059847263439779128
  outer loop
   vertex 0.0054040001705288887 8.3999999333173037e-05 -0.00074400001903995872
   vertex 0.0053909998387098312 0.0016499999910593033 0.0054060001857578754
   vertex 0.0059019997715950012 0.0030040000565350056 0.0022410000674426556
  endloop
 endfacet
 facet normal -0.92502857281910844 -0.18272160885614977 0.33306899153968594
  outer loop
   vertex 0.0041829999536275864 0.0013200000394135714 -0.0034570000134408474
   vertex 0.0054040001705288887 8.3999999333173037e-05 -0.00074400001903995872
   vertex 0.0059019997715950012 0.0030040000565350056 0.0022410000674426556
  endloop
 endfacet
 facet normal -0.80014517048879863 -0.59569184890495319 -0.070135064637097483
  outer loop
   vertex -0.0034600000362843275 -0.0099569996818900108 -0.012307999655604362
   vertex -0.0062879999168217182 -0.0068230000324547291 -0.0066630002111196518
   vertex -0.0057930001057684422 -0.0070890001952648163 -0.0100509999319911
  endloop
 endfacet
 facet normal -0.96040014137817442 0.27616830419502941 -0.036913902514153211
  outer loop
   vertex 0.0059019997715950012 0.0030040000565350056 0.0022410000674426556
   vertex 0.0053909998387098312 0.0016499999910593033 0.0054060001857578754
   vertex 0.0058300001546740532 0.0032049999572336674 0.0056179999373853207
  endloop
 endfacet
 facet normal -0.88865516705853864 0.45772718488401559 -0.027889393652696871
  outer loop
   vertex -0.0048879999667406082 0.0064289998263120651 0.0039880000986158848
   vertex -0.0076089999638497829 0.00058100000023841858 -0.0052899997681379318
   vertex -0.0080180000513792038 0.00028700000257231295 0.0029170000925660133
  endloop
 endfacet
 facet normal -0.96069867357521332 0.052944406099772801 -0.27249761183094467
  outer loop
   vertex -0.0073469998314976692 0.0026330000255256891 -0.005814999807626009
   vertex -0.0068160002119839191 -0.0037899999879300594 -0.0089349998161196709
   vertex -0.0076089999638497829 0.00058100000023841858 -0.0052899997681379318
  endloop
 endfacet
 facet normal -0.82458034493325039 0.25853222562207956 -0.5032179876203311
  outer loop
   vertex -0.0035329998936504126 0.00053999997908249497 -0.012090000323951244
   vertex -0.0055459998548030853 -0.0048409998416900635 -0.011556000448763371
   vertex -0.0068160002119839191 -0.0037899999879300594 -0.0089349998161196709
  endloop
 endfacet
 facet normal -0.58327486239301585 -0.4066594483155912 -0.7031490083873172
  outer loop
   vertex 0.00088599999435245991 -0.0036470000632107258 -0.0175819993019104
   vertex -0.0057930001057684422 -0.0070890001952648163 -0.0100509999319911
   vertex -0.0055459998548030853 -0.0048409998416900635 -0.011556000448763371
  endloop
 endfacet
 facet normal 0.060426358580359753 0.92562534035893018 -0.3735858461908485
  outer loop
   vertex 0.0059400000609457493 0.0049459999427199364 0.0020649998914450407
   vertex -0.0073469998314976692 0.0026330000255256891 -0.005814999807626009
   vertex -0.0048879999667406082 0.0064289998263120651 0.0039880000986158848
  endloop
 endfacet
 facet normal 0.92148517124985052 -0.052904464105350095 -0.3847937068668868
  outer loop
   vertex 0.0059019997715950012 0.0030040000565350056 0.0022410000674426556
   vertex 0.0027099999133497477 0.0036510000936686993 -0.0054919999092817307
   vertex 0.0059400000609457493 0.0049459999427199364 0.0020649998914450407
  endloop
 endfacet
 facet normal 0.80866477774758005 -0.45729787924513504 -0.37005395129407676
  outer loop
   vertex 0.0055289999581873417 -0.0042519997805356979 -0.011514999903738499
   vertex 0.002630000002682209 -0.012112000025808811 -0.0081369997933506966
   vertex 0.0038199999835342169 -0.0027870000340044498 -0.017060000449419022
  endloop
 endfacet
 facet normal -0.89003102131088274 -0.1864648740564005 -0.41602359530132155
  outer loop
   vertex 0.0055289999581873417 -0.0042519997805356979 -0.011514999903738499
   vertex 0.0045250002294778824 -0.0078130001202225685 -0.007770999800413847
   vertex 0.0034459999296814203 -0.0013909999979659915 -0.0083410004153847694
  endloop
 endfacet
 facet normal 0.32113093314600338 -0.72772300368941834 -0.60604797968315016
  outer loop
   vertex 0.0038199999835342169 -0.0027870000340044498 -0.017060000449419022
   vertex -0.0034600000362843275 -0.0099569996818900108 -0.012307999655604362
   vertex 0.00088599999435245991 -0.0036470000632107258 -0.0175819993019104
  endloop
 endfacet
 facet normal 0.90088964539972105 0.2790355827313476 -0.33247103690598717
  outer loop
   vertex 0.0041829999536275864 0.0013200000394135714 -0.0034570000134408474
   vertex 0.0019130000146105886 0.0005300000193528831 -0.010270999744534492
   vertex 0.0027099999133497477 0.0036510000936686993 -0.0054919999092817307
  endloop
 endfacet
 facet normal 0.80836254753471204 0.585710472315222 -0.059103590106438786
  outer loop
   vertex 0.0034459999296814203 -0.0013909999979659915 -0.0083410004153847694
   vertex 0.0038199999835342169 -0.0027870000340044498 -0.017060000449419022
   vertex 0.0019130000146105886 0.0005300000193528831 -0.010270999744534492
  endloop
 endfacet
 facet normal -0.082497540878372702 0.92926127992893126 -0.36009391743525154
  outer loop
   vertex 0.0027099999133497477 0.0036510000936686993 -0.0054919999092817307
   vertex -0.0035329998936504126 0.00053999997908249497 -0.012090000323951244
   vertex -0.0073469998314976692 0.0026330000255256891 -0.005814999807626009
  endloop
 endfacet
 facet normal 0.17081448850428255 0.84499210665197177 -0.5067649851882855
  outer loop
   vertex 0.0019130000146105886 0.0005300000193528831 -0.010270999744534492
   vertex 0.00088599999435245991 -0.0036470000632107258 -0.0175819993019104
   vertex -0.0035329998936504126 0.00053999997908249497 -0.012090000323951244
  endloop
 endfacet
endsolid
